<?xml version="1.0" encoding="UTF-8" standalone="no"?>
<!DOCTYPE svg PUBLIC "-//W3C//DTD SVG 1.1//EN"
 "http://www.w3.org/Graphics/SVG/1.1/DTD/svg11.dtd">
<!-- Generated by graphviz version 2.40.1 (20161225.0304)
 -->
<!-- Title: /home/travis/build/AliceO2Group/AliceO2/Detectors/TPC/reconstruction/src/DigitalCurrentClusterIntegrator.cxx Pages: 1 -->
<!--zoomable 587 -->
<svg id="main" version="1.1" xmlns="http://www.w3.org/2000/svg" xmlns:xlink="http://www.w3.org/1999/xlink" xml:space="preserve" onload="init(evt)">
<style type="text/css"><![CDATA[
.edge:hover path { stroke: red; }
.edge:hover polygon { stroke: red; fill: red; }
]]></style>
<script type="text/javascript"><![CDATA[
var edges = document.getElementsByTagName('g');
if (edges && edges.length) {
  for (var i=0;i<edges.length;i++) {
    if (edges[i].id.substr(0,4)=='edge') {
      edges[i].setAttribute('class','edge');
    }
  }
}
]]></script>
        <defs>
                <circle id="rim" cx="0" cy="0" r="7"/>
                <circle id="rim2" cx="0" cy="0" r="3.5"/>
                <g id="zoomPlus">
                        <use xlink:href="#rim" fill="#404040">
                                <set attributeName="fill" to="#808080" begin="zoomplus.mouseover" end="zoomplus.mouseout"/>
                        </use>
                        <path d="M-4,0h8M0,-4v8" fill="none" stroke="white" stroke-width="1.5" pointer-events="none"/>
                </g>
                <g id="zoomMin">
                        <use xlink:href="#rim" fill="#404040">
                                <set attributeName="fill" to="#808080" begin="zoomminus.mouseover" end="zoomminus.mouseout"/>
                        </use>
                        <path d="M-4,0h8" fill="none" stroke="white" stroke-width="1.5" pointer-events="none"/>
                </g>
                <g id="dirArrow">
                        <path fill="none" stroke="white" stroke-width="1.5" d="M0,-3.0v7 M-2.5,-0.5L0,-3.0L2.5,-0.5"/>
                </g>
               <g id="resetDef">
                       <use xlink:href="#rim2" fill="#404040">
                               <set attributeName="fill" to="#808080" begin="reset.mouseover" end="reset.mouseout"/>
                       </use>
               </g>
        </defs>

<script type="text/javascript">
var viewWidth = 1721;
var viewHeight = 587;
var sectionId = 'dynsection-0';
</script>
<script xlink:href="../../svgpan.js"/>
<svg id="graph" class="graph">
<g id="viewport">
<title>/home/travis/build/AliceO2Group/AliceO2/Detectors/TPC/reconstruction/src/DigitalCurrentClusterIntegrator.cxx</title>
<!-- Node0 -->
<g id="node1" class="node">
<title>Node0</title>
<polygon fill="#bfbfbf" stroke="#000000" points="324,-526.5 324,-578.5 531,-578.5 531,-526.5 324,-526.5"/>
<text text-anchor="start" x="332" y="-566.5" font-family="Helvetica,sans-Serif" font-size="10.00" fill="#000000">/home/travis/build</text>
<text text-anchor="start" x="332" y="-555.5" font-family="Helvetica,sans-Serif" font-size="10.00" fill="#000000">/AliceO2Group/AliceO2</text>
<text text-anchor="start" x="332" y="-544.5" font-family="Helvetica,sans-Serif" font-size="10.00" fill="#000000">/Detectors/TPC/reconstruction</text>
<text text-anchor="middle" x="427.5" y="-533.5" font-family="Helvetica,sans-Serif" font-size="10.00" fill="#000000">/src/DigitalCurrentClusterIntegrator.cxx</text>
</g>
<!-- Node1 -->
<g id="node2" class="node">
<title>Node1</title>
<g id="a_node2"><a xlink:href="../../db/d19/DigitalCurrentClusterIntegrator_8h.html" target="_top" xlink:title="Decoder to convert TPC ClusterHardware to ClusterNative. ">
<polygon fill="none" stroke="#000000" points="356,-459.5 356,-489.5 499,-489.5 499,-459.5 356,-459.5"/>
<text text-anchor="start" x="364" y="-477.5" font-family="Helvetica,sans-Serif" font-size="10.00" fill="#000000">TPCReconstruction/Digital</text>
<text text-anchor="middle" x="427.5" y="-466.5" font-family="Helvetica,sans-Serif" font-size="10.00" fill="#000000">CurrentClusterIntegrator.h</text>
</a>
</g>
</g>
<!-- Node0&#45;&gt;Node1 -->
<g id="edge1" class="edge">
<title>Node0&#45;&gt;Node1</title>
<path fill="none" stroke="#191970" d="M427.5,-526.0928C427.5,-517.516 427.5,-508.0289 427.5,-499.5538"/>
<polygon fill="#191970" stroke="#191970" points="431.0001,-499.5045 427.5,-489.5046 424.0001,-499.5046 431.0001,-499.5045"/>
</g>
<!-- Node2 -->
<g id="node3" class="node">
<title>Node2</title>
<polygon fill="none" stroke="#bfbfbf" points="466,-291.5 466,-310.5 513,-310.5 513,-291.5 466,-291.5"/>
<text text-anchor="middle" x="489.5" y="-298.5" font-family="Helvetica,sans-Serif" font-size="10.00" fill="#000000">vector</text>
</g>
<!-- Node1&#45;&gt;Node2 -->
<g id="edge2" class="edge">
<title>Node1&#45;&gt;Node2</title>
<path fill="none" stroke="#191970" d="M432.8936,-459.4065C444.1608,-427.8767 470.1785,-355.0692 482.6246,-320.24"/>
<polygon fill="#191970" stroke="#191970" points="485.9509,-321.3326 486.0201,-310.738 479.3591,-318.977 485.9509,-321.3326"/>
</g>
<!-- Node3 -->
<g id="node4" class="node">
<title>Node3</title>
<polygon fill="none" stroke="#bfbfbf" points="341.5,-403.5 341.5,-422.5 399.5,-422.5 399.5,-403.5 341.5,-403.5"/>
<text text-anchor="middle" x="370.5" y="-410.5" font-family="Helvetica,sans-Serif" font-size="10.00" fill="#000000">memory</text>
</g>
<!-- Node1&#45;&gt;Node3 -->
<g id="edge3" class="edge">
<title>Node1&#45;&gt;Node3</title>
<path fill="none" stroke="#191970" d="M413.4101,-459.2977C405.2507,-450.4941 394.9528,-439.3833 386.4905,-430.2529"/>
<polygon fill="#191970" stroke="#191970" points="388.9911,-427.8021 379.6264,-422.8469 383.8571,-432.5604 388.9911,-427.8021"/>
</g>
<!-- Node4 -->
<g id="node5" class="node">
<title>Node4</title>
<g id="a_node5"><a xlink:href="../../de/dcd/ClusterNative_8h.html" target="_top" xlink:title="Class of a TPC cluster in TPC&#45;native coordinates (row, time) ">
<polygon fill="none" stroke="#000000" points="91,-403.5 91,-422.5 268,-422.5 268,-403.5 91,-403.5"/>
<text text-anchor="middle" x="179.5" y="-410.5" font-family="Helvetica,sans-Serif" font-size="10.00" fill="#000000">DataFormatsTPC/ClusterNative.h</text>
</a>
</g>
</g>
<!-- Node1&#45;&gt;Node4 -->
<g id="edge4" class="edge">
<title>Node1&#45;&gt;Node4</title>
<path fill="none" stroke="#191970" d="M366.8324,-459.4554C324.001,-448.8339 267.3891,-434.7951 227.6517,-424.9408"/>
<polygon fill="#191970" stroke="#191970" points="228.4797,-421.5402 217.9312,-422.5303 226.7948,-428.3344 228.4797,-421.5402"/>
</g>
<!-- Node8 -->
<g id="node9" class="node">
<title>Node8</title>
<g id="a_node9"><a xlink:href="../../d0/dda/DataFormats_2Detectors_2TPC_2include_2DataFormatsTPC_2Constants_8h.html" target="_top" xlink:title="DataFormatsTPC/Constants.h">
<polygon fill="none" stroke="#000000" points="348,-123.5 348,-142.5 507,-142.5 507,-123.5 348,-123.5"/>
<text text-anchor="middle" x="427.5" y="-130.5" font-family="Helvetica,sans-Serif" font-size="10.00" fill="#000000">DataFormatsTPC/Constants.h</text>
</a>
</g>
</g>
<!-- Node1&#45;&gt;Node8 -->
<g id="edge12" class="edge">
<title>Node1&#45;&gt;Node8</title>
<path fill="none" stroke="#191970" d="M427.5,-459.2899C427.5,-436.892 427.5,-393.7188 427.5,-357 427.5,-357 427.5,-357 427.5,-245 427.5,-212.7116 427.5,-175.1872 427.5,-152.8048"/>
<polygon fill="#191970" stroke="#191970" points="431.0001,-152.5883 427.5,-142.5884 424.0001,-152.5884 431.0001,-152.5883"/>
</g>
<!-- Node12 -->
<g id="node13" class="node">
<title>Node12</title>
<g id="a_node13"><a xlink:href="../../d5/d1d/TPC_2base_2include_2TPCBase_2Mapper_8h.html" target="_top" xlink:title="TPCBase/Mapper.h">
<polygon fill="none" stroke="#000000" points="1081,-403.5 1081,-422.5 1188,-422.5 1188,-403.5 1081,-403.5"/>
<text text-anchor="middle" x="1134.5" y="-410.5" font-family="Helvetica,sans-Serif" font-size="10.00" fill="#000000">TPCBase/Mapper.h</text>
</a>
</g>
</g>
<!-- Node1&#45;&gt;Node12 -->
<g id="edge13" class="edge">
<title>Node1&#45;&gt;Node12</title>
<path fill="none" stroke="#191970" d="M499.1817,-468.2646C637.2681,-456.2528 938.1598,-430.0791 1070.2028,-418.593"/>
<polygon fill="#191970" stroke="#191970" points="1070.8934,-422.0463 1080.5524,-417.6928 1070.2867,-415.0726 1070.8934,-422.0463"/>
</g>
<!-- Node5 -->
<g id="node6" class="node">
<title>Node5</title>
<polygon fill="none" stroke="#bfbfbf" points="298.5,-347.5 298.5,-366.5 348.5,-366.5 348.5,-347.5 298.5,-347.5"/>
<text text-anchor="middle" x="323.5" y="-354.5" font-family="Helvetica,sans-Serif" font-size="10.00" fill="#000000">cstdint</text>
</g>
<!-- Node4&#45;&gt;Node5 -->
<g id="edge5" class="edge">
<title>Node4&#45;&gt;Node5</title>
<path fill="none" stroke="#191970" d="M204.2545,-403.3733C227.7849,-394.2226 263.3687,-380.3844 289.5426,-370.2057"/>
<polygon fill="#191970" stroke="#191970" points="291.0171,-373.3877 299.0685,-366.5011 288.4799,-366.8636 291.0171,-373.3877"/>
</g>
<!-- Node6 -->
<g id="node7" class="node">
<title>Node6</title>
<polygon fill="none" stroke="#bfbfbf" points="0,-347.5 0,-366.5 53,-366.5 53,-347.5 0,-347.5"/>
<text text-anchor="middle" x="26.5" y="-354.5" font-family="Helvetica,sans-Serif" font-size="10.00" fill="#000000">cstddef</text>
</g>
<!-- Node4&#45;&gt;Node6 -->
<g id="edge6" class="edge">
<title>Node4&#45;&gt;Node6</title>
<path fill="none" stroke="#191970" d="M153.1984,-403.3733C128.0872,-394.1822 90.0562,-380.2624 62.2128,-370.0713"/>
<polygon fill="#191970" stroke="#191970" points="63.0522,-366.6516 52.4584,-366.5011 60.6462,-373.2251 63.0522,-366.6516"/>
</g>
<!-- Node7 -->
<g id="node8" class="node">
<title>Node7</title>
<polygon fill="none" stroke="#bfbfbf" points="110,-347.5 110,-366.5 155,-366.5 155,-347.5 110,-347.5"/>
<text text-anchor="middle" x="132.5" y="-354.5" font-family="Helvetica,sans-Serif" font-size="10.00" fill="#000000">utility</text>
</g>
<!-- Node4&#45;&gt;Node7 -->
<g id="edge7" class="edge">
<title>Node4&#45;&gt;Node7</title>
<path fill="none" stroke="#191970" d="M171.3132,-403.2455C164.6411,-395.2958 155.0521,-383.8706 147.0747,-374.3656"/>
<polygon fill="#191970" stroke="#191970" points="149.7026,-372.0524 140.593,-366.6427 144.3408,-376.5525 149.7026,-372.0524"/>
</g>
<!-- Node4&#45;&gt;Node8 -->
<g id="edge8" class="edge">
<title>Node4&#45;&gt;Node8</title>
<path fill="none" stroke="#191970" d="M152.4432,-403.3769C135.233,-395.9446 113.7663,-384.0263 100.5,-367 81.7389,-342.9215 81.5,-331.5246 81.5,-301 81.5,-301 81.5,-301 81.5,-245 81.5,-190.9999 235.9765,-159.1593 338.4934,-143.9743"/>
<polygon fill="#191970" stroke="#191970" points="339.1615,-147.4141 348.5543,-142.5126 338.1549,-140.4869 339.1615,-147.4141"/>
</g>
<!-- Node9 -->
<g id="node10" class="node">
<title>Node9</title>
<g id="a_node10"><a xlink:href="../../df/d21/GPUCommonDef_8h.html" target="_top" xlink:title="GPUCommonDef.h">
<polygon fill="none" stroke="#000000" points="173,-347.5 173,-366.5 280,-366.5 280,-347.5 173,-347.5"/>
<text text-anchor="middle" x="226.5" y="-354.5" font-family="Helvetica,sans-Serif" font-size="10.00" fill="#000000">GPUCommonDef.h</text>
</a>
</g>
</g>
<!-- Node4&#45;&gt;Node9 -->
<g id="edge9" class="edge">
<title>Node4&#45;&gt;Node9</title>
<path fill="none" stroke="#191970" d="M187.6868,-403.2455C194.3589,-395.2958 203.9479,-383.8706 211.9253,-374.3656"/>
<polygon fill="#191970" stroke="#191970" points="214.6592,-376.5525 218.407,-366.6427 209.2974,-372.0524 214.6592,-376.5525"/>
</g>
<!-- Node10 -->
<g id="node11" class="node">
<title>Node10</title>
<g id="a_node11"><a xlink:href="../../d5/d93/GPUCommonDefSettings_8h.html" target="_top" xlink:title="GPUCommonDefSettings.h">
<polygon fill="none" stroke="#000000" points="251.5,-291.5 251.5,-310.5 399.5,-310.5 399.5,-291.5 251.5,-291.5"/>
<text text-anchor="middle" x="325.5" y="-298.5" font-family="Helvetica,sans-Serif" font-size="10.00" fill="#000000">GPUCommonDefSettings.h</text>
</a>
</g>
</g>
<!-- Node9&#45;&gt;Node10 -->
<g id="edge10" class="edge">
<title>Node9&#45;&gt;Node10</title>
<path fill="none" stroke="#191970" d="M243.7445,-347.2455C259.0761,-338.5731 281.7199,-325.7645 299.2916,-315.825"/>
<polygon fill="#191970" stroke="#191970" points="301.4724,-318.6126 308.4531,-310.6427 298.0259,-312.5198 301.4724,-318.6126"/>
</g>
<!-- Node11 -->
<g id="node12" class="node">
<title>Node11</title>
<g id="a_node12"><a xlink:href="../../da/d5a/GPUCommonDefAPI_8h.html" target="_top" xlink:title="GPUCommonDefAPI.h">
<polygon fill="none" stroke="#000000" points="109.5,-291.5 109.5,-310.5 233.5,-310.5 233.5,-291.5 109.5,-291.5"/>
<text text-anchor="middle" x="171.5" y="-298.5" font-family="Helvetica,sans-Serif" font-size="10.00" fill="#000000">GPUCommonDefAPI.h</text>
</a>
</g>
</g>
<!-- Node9&#45;&gt;Node11 -->
<g id="edge11" class="edge">
<title>Node9&#45;&gt;Node11</title>
<path fill="none" stroke="#191970" d="M216.9197,-347.2455C208.9542,-339.1352 197.4359,-327.4075 187.9921,-317.7919"/>
<polygon fill="#191970" stroke="#191970" points="190.4747,-315.3247 180.9705,-310.6427 185.4805,-320.2297 190.4747,-315.3247"/>
</g>
<!-- Node12&#45;&gt;Node2 -->
<g id="edge15" class="edge">
<title>Node12&#45;&gt;Node2</title>
<path fill="none" stroke="#191970" d="M1080.8791,-411.7797C941.1981,-408.2036 573.7231,-396.1095 527.5,-367 510.7738,-356.4665 500.6239,-335.7273 495.0736,-320.2947"/>
<polygon fill="#191970" stroke="#191970" points="498.3589,-319.0792 491.9416,-310.649 491.701,-321.2411 498.3589,-319.0792"/>
</g>
<!-- Node13 -->
<g id="node14" class="node">
<title>Node13</title>
<polygon fill="none" stroke="#bfbfbf" points="1421.5,-347.5 1421.5,-366.5 1459.5,-366.5 1459.5,-347.5 1421.5,-347.5"/>
<text text-anchor="middle" x="1440.5" y="-354.5" font-family="Helvetica,sans-Serif" font-size="10.00" fill="#000000">map</text>
</g>
<!-- Node12&#45;&gt;Node13 -->
<g id="edge14" class="edge">
<title>Node12&#45;&gt;Node13</title>
<path fill="none" stroke="#191970" d="M1188.1278,-407.0201C1242.405,-400.3228 1328.7741,-387.8992 1411.5486,-366.8822"/>
<polygon fill="#191970" stroke="#191970" points="1412.5561,-370.2369 1421.3616,-364.3452 1410.8039,-363.4598 1412.5561,-370.2369"/>
</g>
<!-- Node14 -->
<g id="node15" class="node">
<title>Node14</title>
<polygon fill="none" stroke="#bfbfbf" points="1477.5,-347.5 1477.5,-366.5 1519.5,-366.5 1519.5,-347.5 1477.5,-347.5"/>
<text text-anchor="middle" x="1498.5" y="-354.5" font-family="Helvetica,sans-Serif" font-size="10.00" fill="#000000">array</text>
</g>
<!-- Node12&#45;&gt;Node14 -->
<g id="edge16" class="edge">
<title>Node12&#45;&gt;Node14</title>
<path fill="none" stroke="#191970" d="M1188.2759,-408.6785C1252.6702,-402.8216 1363.8089,-390.5497 1467.3404,-366.9169"/>
<polygon fill="#191970" stroke="#191970" points="1468.3859,-370.2672 1477.334,-364.5942 1466.8012,-363.4489 1468.3859,-370.2672"/>
</g>
<!-- Node15 -->
<g id="node16" class="node">
<title>Node15</title>
<polygon fill="none" stroke="#bfbfbf" points="1537.5,-347.5 1537.5,-366.5 1581.5,-366.5 1581.5,-347.5 1537.5,-347.5"/>
<text text-anchor="middle" x="1559.5" y="-354.5" font-family="Helvetica,sans-Serif" font-size="10.00" fill="#000000">string</text>
</g>
<!-- Node12&#45;&gt;Node15 -->
<g id="edge17" class="edge">
<title>Node12&#45;&gt;Node15</title>
<path fill="none" stroke="#191970" d="M1188.2594,-410.0666C1262.6809,-405.2716 1401.2822,-393.6937 1527.4569,-366.8673"/>
<polygon fill="#191970" stroke="#191970" points="1528.2579,-370.275 1537.2916,-364.7394 1526.7775,-363.4333 1528.2579,-370.275"/>
</g>
<!-- Node16 -->
<g id="node17" class="node">
<title>Node16</title>
<polygon fill="none" stroke="#bfbfbf" points="1208,-67.5 1208,-86.5 1255,-86.5 1255,-67.5 1208,-67.5"/>
<text text-anchor="middle" x="1231.5" y="-74.5" font-family="Helvetica,sans-Serif" font-size="10.00" fill="#000000">cmath</text>
</g>
<!-- Node12&#45;&gt;Node16 -->
<g id="edge18" class="edge">
<title>Node12&#45;&gt;Node16</title>
<path fill="none" stroke="#191970" d="M1155.2586,-403.3851C1186.884,-387.1375 1243.5,-351.06 1243.5,-301 1243.5,-301 1243.5,-301 1243.5,-189 1243.5,-156.3778 1238.4046,-118.7135 1234.8544,-96.4301"/>
<polygon fill="#191970" stroke="#191970" points="1238.3053,-95.8456 1233.2193,-86.5514 1231.3993,-96.9887 1238.3053,-95.8456"/>
</g>
<!-- Node17 -->
<g id="node18" class="node">
<title>Node17</title>
<g id="a_node18"><a xlink:href="../../d1/d73/Defs_8h.html" target="_top" xlink:title="DataFormatsTPC/Defs.h">
<polygon fill="none" stroke="#000000" points="965,-123.5 965,-142.5 1098,-142.5 1098,-123.5 965,-123.5"/>
<text text-anchor="middle" x="1031.5" y="-130.5" font-family="Helvetica,sans-Serif" font-size="10.00" fill="#000000">DataFormatsTPC/Defs.h</text>
</a>
</g>
</g>
<!-- Node12&#45;&gt;Node17 -->
<g id="edge19" class="edge">
<title>Node12&#45;&gt;Node17</title>
<path fill="none" stroke="#191970" d="M1139.3693,-403.3939C1148.5488,-384.3677 1167.5,-340.3256 1167.5,-301 1167.5,-301 1167.5,-301 1167.5,-245 1167.5,-194.5608 1111.069,-162.6302 1070.9075,-146.2924"/>
<polygon fill="#191970" stroke="#191970" points="1071.9342,-142.9362 1061.3458,-142.5675 1069.3932,-149.4587 1071.9342,-142.9362"/>
</g>
<!-- Node19 -->
<g id="node20" class="node">
<title>Node19</title>
<g id="a_node20"><a xlink:href="../../dc/d73/Cartesian_8h.html" target="_top" xlink:title="MathUtils/Cartesian.h">
<polygon fill="none" stroke="#000000" points="1044.5,-67.5 1044.5,-86.5 1166.5,-86.5 1166.5,-67.5 1044.5,-67.5"/>
<text text-anchor="middle" x="1105.5" y="-74.5" font-family="Helvetica,sans-Serif" font-size="10.00" fill="#000000">MathUtils/Cartesian.h</text>
</a>
</g>
</g>
<!-- Node12&#45;&gt;Node19 -->
<g id="edge61" class="edge">
<title>Node12&#45;&gt;Node19</title>
<path fill="none" stroke="#191970" d="M1146.2242,-403.2278C1166.3902,-385.249 1205.5,-344.7424 1205.5,-301 1205.5,-301 1205.5,-301 1205.5,-189 1205.5,-145.0606 1162.1447,-110.4269 1132.5285,-91.8942"/>
<polygon fill="#191970" stroke="#191970" points="1134.2145,-88.824 1123.8415,-86.6672 1130.6055,-94.8219 1134.2145,-88.824"/>
</g>
<!-- Node30 -->
<g id="node31" class="node">
<title>Node30</title>
<g id="a_node31"><a xlink:href="../../de/d41/PadPos_8h.html" target="_top" xlink:title="TPCBase/PadPos.h">
<polygon fill="none" stroke="#000000" points="737.5,-235.5 737.5,-254.5 843.5,-254.5 843.5,-235.5 737.5,-235.5"/>
<text text-anchor="middle" x="790.5" y="-242.5" font-family="Helvetica,sans-Serif" font-size="10.00" fill="#000000">TPCBase/PadPos.h</text>
</a>
</g>
</g>
<!-- Node12&#45;&gt;Node30 -->
<g id="edge33" class="edge">
<title>Node12&#45;&gt;Node30</title>
<path fill="none" stroke="#191970" d="M1080.7732,-410.5321C1007.3262,-406.16 880.5616,-394.74 844.5,-367 811.744,-341.8027 798.4167,-292.4683 793.3473,-264.8804"/>
<polygon fill="#191970" stroke="#191970" points="796.7716,-264.1341 791.693,-254.8359 789.8647,-265.2717 796.7716,-264.1341"/>
</g>
<!-- Node31 -->
<g id="node32" class="node">
<title>Node31</title>
<g id="a_node32"><a xlink:href="../../dd/d0b/PadSecPos_8h.html" target="_top" xlink:title="TPCBase/PadSecPos.h">
<polygon fill="none" stroke="#000000" points="646,-291.5 646,-310.5 769,-310.5 769,-291.5 646,-291.5"/>
<text text-anchor="middle" x="707.5" y="-298.5" font-family="Helvetica,sans-Serif" font-size="10.00" fill="#000000">TPCBase/PadSecPos.h</text>
</a>
</g>
</g>
<!-- Node12&#45;&gt;Node31 -->
<g id="edge34" class="edge">
<title>Node12&#45;&gt;Node31</title>
<path fill="none" stroke="#191970" d="M1080.7871,-409.7526C995.9947,-403.9954 835.4156,-390.3525 783.5,-367 758.7575,-355.8704 736.074,-333.9666 722.0518,-318.4497"/>
<polygon fill="#191970" stroke="#191970" points="724.408,-315.8266 715.1947,-310.5953 719.1347,-320.4303 724.408,-315.8266"/>
</g>
<!-- Node32 -->
<g id="node33" class="node">
<title>Node32</title>
<g id="a_node33"><a xlink:href="../../d3/dd6/Sector_8h.html" target="_top" xlink:title="TPCBase/Sector.h">
<polygon fill="none" stroke="#000000" points="719,-179.5 719,-198.5 820,-198.5 820,-179.5 719,-179.5"/>
<text text-anchor="middle" x="769.5" y="-186.5" font-family="Helvetica,sans-Serif" font-size="10.00" fill="#000000">TPCBase/Sector.h</text>
</a>
</g>
</g>
<!-- Node12&#45;&gt;Node32 -->
<g id="edge60" class="edge">
<title>Node12&#45;&gt;Node32</title>
<path fill="none" stroke="#191970" d="M1080.8867,-410.6555C941.6317,-404.308 578.0243,-385.9849 560.5,-367 496.8447,-298.0393 654.7649,-229.8539 731.0598,-202.0505"/>
<polygon fill="#191970" stroke="#191970" points="732.5829,-205.2227 740.8152,-198.5534 730.2207,-198.6333 732.5829,-205.2227"/>
</g>
<!-- Node33 -->
<g id="node34" class="node">
<title>Node33</title>
<g id="a_node34"><a xlink:href="../../da/d61/PadROCPos_8h.html" target="_top" xlink:title="TPCBase/PadROCPos.h">
<polygon fill="none" stroke="#000000" points="974,-291.5 974,-310.5 1101,-310.5 1101,-291.5 974,-291.5"/>
<text text-anchor="middle" x="1037.5" y="-298.5" font-family="Helvetica,sans-Serif" font-size="10.00" fill="#000000">TPCBase/PadROCPos.h</text>
</a>
</g>
</g>
<!-- Node12&#45;&gt;Node33 -->
<g id="edge39" class="edge">
<title>Node12&#45;&gt;Node33</title>
<path fill="none" stroke="#191970" d="M1126.2298,-403.4509C1109.8366,-384.5227 1073.0211,-342.014 1052.334,-318.1279"/>
<polygon fill="#191970" stroke="#191970" points="1054.9417,-315.7927 1045.7492,-310.5249 1049.6503,-320.3754 1054.9417,-315.7927"/>
</g>
<!-- Node35 -->
<g id="node36" class="node">
<title>Node35</title>
<g id="a_node36"><a xlink:href="../../d3/d54/DigitPos_8h.html" target="_top" xlink:title="TPCBase/DigitPos.h">
<polygon fill="none" stroke="#000000" points="853.5,-347.5 853.5,-366.5 965.5,-366.5 965.5,-347.5 853.5,-347.5"/>
<text text-anchor="middle" x="909.5" y="-354.5" font-family="Helvetica,sans-Serif" font-size="10.00" fill="#000000">TPCBase/DigitPos.h</text>
</a>
</g>
</g>
<!-- Node12&#45;&gt;Node35 -->
<g id="edge45" class="edge">
<title>Node12&#45;&gt;Node35</title>
<path fill="none" stroke="#191970" d="M1096.0768,-403.4369C1057.8125,-393.9133 998.9663,-379.2672 957.6151,-368.9753"/>
<polygon fill="#191970" stroke="#191970" points="958.3141,-365.5426 947.7647,-366.5237 956.6234,-372.3353 958.3141,-365.5426"/>
</g>
<!-- Node37 -->
<g id="node38" class="node">
<title>Node37</title>
<g id="a_node38"><a xlink:href="../../d1/d1f/FECInfo_8h.html" target="_top" xlink:title="TPCBase/FECInfo.h">
<polygon fill="none" stroke="#000000" points="1604.5,-179.5 1604.5,-198.5 1712.5,-198.5 1712.5,-179.5 1604.5,-179.5"/>
<text text-anchor="middle" x="1658.5" y="-186.5" font-family="Helvetica,sans-Serif" font-size="10.00" fill="#000000">TPCBase/FECInfo.h</text>
</a>
</g>
</g>
<!-- Node12&#45;&gt;Node37 -->
<g id="edge53" class="edge">
<title>Node12&#45;&gt;Node37</title>
<path fill="none" stroke="#191970" d="M1188.0053,-410.7323C1301.6052,-405.4729 1559.1033,-391.0273 1590.5,-367 1641.2109,-328.1918 1654.1089,-246.7051 1657.3859,-208.9663"/>
<polygon fill="#191970" stroke="#191970" points="1660.8939,-208.981 1658.1252,-198.7544 1653.9121,-208.4755 1660.8939,-208.981"/>
</g>
<!-- Node38 -->
<g id="node39" class="node">
<title>Node38</title>
<g id="a_node39"><a xlink:href="../../da/d9d/PadRegionInfo_8h.html" target="_top" xlink:title="TPCBase/PadRegionInfo.h">
<polygon fill="none" stroke="#000000" points="569.5,-347.5 569.5,-366.5 709.5,-366.5 709.5,-347.5 569.5,-347.5"/>
<text text-anchor="middle" x="639.5" y="-354.5" font-family="Helvetica,sans-Serif" font-size="10.00" fill="#000000">TPCBase/PadRegionInfo.h</text>
</a>
</g>
</g>
<!-- Node12&#45;&gt;Node38 -->
<g id="edge55" class="edge">
<title>Node12&#45;&gt;Node38</title>
<path fill="none" stroke="#191970" d="M1080.584,-406.9004C993.4942,-397.0478 821.3846,-377.5768 719.8165,-366.0863"/>
<polygon fill="#191970" stroke="#191970" points="719.938,-362.5778 709.6079,-364.9314 719.151,-369.5334 719.938,-362.5778"/>
</g>
<!-- Node39 -->
<g id="node40" class="node">
<title>Node39</title>
<g id="a_node40"><a xlink:href="../../d6/d42/PartitionInfo_8h.html" target="_top" xlink:title="TPCBase/PartitionInfo.h">
<polygon fill="none" stroke="#000000" points="1272,-347.5 1272,-366.5 1403,-366.5 1403,-347.5 1272,-347.5"/>
<text text-anchor="middle" x="1337.5" y="-354.5" font-family="Helvetica,sans-Serif" font-size="10.00" fill="#000000">TPCBase/PartitionInfo.h</text>
</a>
</g>
</g>
<!-- Node12&#45;&gt;Node39 -->
<g id="edge59" class="edge">
<title>Node12&#45;&gt;Node39</title>
<path fill="none" stroke="#191970" d="M1169.3969,-403.3733C1203.5911,-393.9404 1255.8415,-379.5265 1293.0042,-369.2747"/>
<polygon fill="#191970" stroke="#191970" points="1294.3493,-372.5345 1303.0584,-366.5011 1292.4877,-365.7865 1294.3493,-372.5345"/>
</g>
<!-- Node17&#45;&gt;Node16 -->
<g id="edge20" class="edge">
<title>Node17&#45;&gt;Node16</title>
<path fill="none" stroke="#191970" d="M1065.8812,-123.3733C1102.939,-112.9971 1161.5217,-96.5939 1198.1673,-86.3332"/>
<polygon fill="#191970" stroke="#191970" points="1199.1995,-89.6788 1207.8854,-83.6121 1197.312,-82.9381 1199.1995,-89.6788"/>
</g>
<!-- Node18 -->
<g id="node19" class="node">
<title>Node18</title>
<g id="a_node19"><a xlink:href="../../d1/da8/GPUROOTCartesianFwd_8h.html" target="_top" xlink:title="GPUROOTCartesianFwd.h">
<polygon fill="none" stroke="#000000" points="886.5,-67.5 886.5,-86.5 1026.5,-86.5 1026.5,-67.5 886.5,-67.5"/>
<text text-anchor="middle" x="956.5" y="-74.5" font-family="Helvetica,sans-Serif" font-size="10.00" fill="#000000">GPUROOTCartesianFwd.h</text>
</a>
</g>
</g>
<!-- Node17&#45;&gt;Node18 -->
<g id="edge21" class="edge">
<title>Node17&#45;&gt;Node18</title>
<path fill="none" stroke="#191970" d="M1018.436,-123.2455C1007.1438,-114.814 990.6155,-102.4729 977.4729,-92.6598"/>
<polygon fill="#191970" stroke="#191970" points="979.5211,-89.8211 969.4143,-86.6427 975.3331,-95.4301 979.5211,-89.8211"/>
</g>
<!-- Node17&#45;&gt;Node19 -->
<g id="edge22" class="edge">
<title>Node17&#45;&gt;Node19</title>
<path fill="none" stroke="#191970" d="M1044.3898,-123.2455C1055.4254,-114.8943 1071.5292,-102.7076 1084.4353,-92.9408"/>
<polygon fill="#191970" stroke="#191970" points="1086.8959,-95.4681 1092.7579,-86.6427 1082.6717,-89.8862 1086.8959,-95.4681"/>
</g>
<!-- Node20 -->
<g id="node21" class="node">
<title>Node20</title>
<polygon fill="none" stroke="#bfbfbf" points="1253.5,-.5 1253.5,-30.5 1417.5,-30.5 1417.5,-.5 1253.5,-.5"/>
<text text-anchor="start" x="1261.5" y="-18.5" font-family="Helvetica,sans-Serif" font-size="10.00" fill="#000000">Math/GenVector/Displacement</text>
<text text-anchor="middle" x="1335.5" y="-7.5" font-family="Helvetica,sans-Serif" font-size="10.00" fill="#000000">Vector3D.h</text>
</g>
<!-- Node19&#45;&gt;Node20 -->
<g id="edge23" class="edge">
<title>Node19&#45;&gt;Node20</title>
<path fill="none" stroke="#191970" d="M1141.1851,-67.4581C1175.2944,-58.3376 1227.554,-44.3638 1269.2893,-33.2042"/>
<polygon fill="#191970" stroke="#191970" points="1270.3527,-36.5429 1279.1092,-30.5784 1268.5444,-29.7804 1270.3527,-36.5429"/>
</g>
<!-- Node21 -->
<g id="node22" class="node">
<title>Node21</title>
<polygon fill="none" stroke="#bfbfbf" points="1436,-6 1436,-25 1625,-25 1625,-6 1436,-6"/>
<text text-anchor="middle" x="1530.5" y="-13" font-family="Helvetica,sans-Serif" font-size="10.00" fill="#000000">Math/GenVector/PositionVector3D.h</text>
</g>
<!-- Node19&#45;&gt;Node21 -->
<g id="edge24" class="edge">
<title>Node19&#45;&gt;Node21</title>
<path fill="none" stroke="#191970" d="M1166.7538,-68.3265C1231.3589,-59.1539 1336.1162,-44.2113 1426.5,-31 1436.3218,-29.5644 1446.6632,-28.0393 1456.8603,-26.5276"/>
<polygon fill="#191970" stroke="#191970" points="1457.6074,-29.9551 1466.9848,-25.0241 1456.5791,-23.031 1457.6074,-29.9551"/>
</g>
<!-- Node22 -->
<g id="node23" class="node">
<title>Node22</title>
<polygon fill="none" stroke="#bfbfbf" points="130.5,-6 130.5,-25 290.5,-25 290.5,-6 130.5,-6"/>
<text text-anchor="middle" x="210.5" y="-13" font-family="Helvetica,sans-Serif" font-size="10.00" fill="#000000">Math/GenVector/Rotation3D.h</text>
</g>
<!-- Node19&#45;&gt;Node22 -->
<g id="edge25" class="edge">
<title>Node19&#45;&gt;Node22</title>
<path fill="none" stroke="#191970" d="M1044.4566,-67.9386C1041.4311,-67.5965 1038.4329,-67.2806 1035.5,-67 709.4866,-35.8084 624.9993,-67.1645 299.5,-31 289.5626,-29.8959 279.0554,-28.3805 268.8784,-26.7271"/>
<polygon fill="#191970" stroke="#191970" points="269.2871,-23.2468 258.8448,-25.0379 268.1249,-30.1496 269.2871,-23.2468"/>
</g>
<!-- Node23 -->
<g id="node24" class="node">
<title>Node23</title>
<polygon fill="none" stroke="#bfbfbf" points="308.5,-6 308.5,-25 476.5,-25 476.5,-6 308.5,-6"/>
<text text-anchor="middle" x="392.5" y="-13" font-family="Helvetica,sans-Serif" font-size="10.00" fill="#000000">Math/GenVector/Transform3D.h</text>
</g>
<!-- Node19&#45;&gt;Node23 -->
<g id="edge26" class="edge">
<title>Node19&#45;&gt;Node23</title>
<path fill="none" stroke="#191970" d="M1044.4506,-67.9985C1041.4267,-67.6406 1038.4305,-67.3049 1035.5,-67 792.2893,-41.6911 729.4242,-58.9251 486.5,-31 476.1648,-29.8119 465.2337,-28.272 454.6235,-26.6248"/>
<polygon fill="#191970" stroke="#191970" points="455.006,-23.1416 444.5791,-25.0206 453.902,-30.054 455.006,-23.1416"/>
</g>
<!-- Node24 -->
<g id="node25" class="node">
<title>Node24</title>
<polygon fill="none" stroke="#bfbfbf" points="495,-6 495,-25 668,-25 668,-6 495,-6"/>
<text text-anchor="middle" x="581.5" y="-13" font-family="Helvetica,sans-Serif" font-size="10.00" fill="#000000">Math/GenVector/Translation3D.h</text>
</g>
<!-- Node19&#45;&gt;Node24 -->
<g id="edge27" class="edge">
<title>Node19&#45;&gt;Node24</title>
<path fill="none" stroke="#191970" d="M1044.4365,-68.1238C1041.4163,-67.7328 1038.4247,-67.3558 1035.5,-67 876.7568,-47.6882 836.0611,-51.7539 677.5,-31 667.5817,-29.7018 657.1121,-28.1742 646.8776,-26.593"/>
<polygon fill="#191970" stroke="#191970" points="647.173,-23.0965 636.7507,-25.0004 646.0855,-30.0116 647.173,-23.0965"/>
</g>
<!-- Node25 -->
<g id="node26" class="node">
<title>Node25</title>
<polygon fill="none" stroke="#bfbfbf" points="686.5,-.5 686.5,-30.5 850.5,-30.5 850.5,-.5 686.5,-.5"/>
<text text-anchor="start" x="694.5" y="-18.5" font-family="Helvetica,sans-Serif" font-size="10.00" fill="#000000">Math/GenVector/Displacement</text>
<text text-anchor="middle" x="768.5" y="-7.5" font-family="Helvetica,sans-Serif" font-size="10.00" fill="#000000">Vector2D.h</text>
</g>
<!-- Node19&#45;&gt;Node25 -->
<g id="edge28" class="edge">
<title>Node19&#45;&gt;Node25</title>
<path fill="none" stroke="#191970" d="M1053.2135,-67.4581C1001.9887,-58.11 922.8255,-43.6633 860.9638,-32.374"/>
<polygon fill="#191970" stroke="#191970" points="861.2669,-28.8715 850.8009,-30.5193 860.0101,-35.7578 861.2669,-28.8715"/>
</g>
<!-- Node26 -->
<g id="node27" class="node">
<title>Node26</title>
<polygon fill="none" stroke="#bfbfbf" points="869,-6 869,-25 1058,-25 1058,-6 869,-6"/>
<text text-anchor="middle" x="963.5" y="-13" font-family="Helvetica,sans-Serif" font-size="10.00" fill="#000000">Math/GenVector/PositionVector2D.h</text>
</g>
<!-- Node19&#45;&gt;Node26 -->
<g id="edge29" class="edge">
<title>Node19&#45;&gt;Node26</title>
<path fill="none" stroke="#191970" d="M1083.3125,-67.3906C1059.5533,-57.1005 1021.6595,-40.6888 994.8575,-29.0809"/>
<polygon fill="#191970" stroke="#191970" points="996.0991,-25.8045 985.5317,-25.0419 993.317,-32.2279 996.0991,-25.8045"/>
</g>
<!-- Node27 -->
<g id="node28" class="node">
<title>Node27</title>
<polygon fill="none" stroke="#bfbfbf" points="1076,-6 1076,-25 1135,-25 1135,-6 1076,-6"/>
<text text-anchor="middle" x="1105.5" y="-13" font-family="Helvetica,sans-Serif" font-size="10.00" fill="#000000">Rtypes.h</text>
</g>
<!-- Node19&#45;&gt;Node27 -->
<g id="edge30" class="edge">
<title>Node19&#45;&gt;Node27</title>
<path fill="none" stroke="#191970" d="M1105.5,-67.3906C1105.5,-58.8657 1105.5,-46.1392 1105.5,-35.4235"/>
<polygon fill="#191970" stroke="#191970" points="1109.0001,-35.2448 1105.5,-25.2449 1102.0001,-35.2449 1109.0001,-35.2448"/>
</g>
<!-- Node28 -->
<g id="node29" class="node">
<title>Node28</title>
<polygon fill="none" stroke="#bfbfbf" points="1153.5,-6 1153.5,-25 1235.5,-25 1235.5,-6 1153.5,-6"/>
<text text-anchor="middle" x="1194.5" y="-13" font-family="Helvetica,sans-Serif" font-size="10.00" fill="#000000">TGeoMatrix.h</text>
</g>
<!-- Node19&#45;&gt;Node28 -->
<g id="edge31" class="edge">
<title>Node19&#45;&gt;Node28</title>
<path fill="none" stroke="#191970" d="M1119.4063,-67.3906C1133.5138,-57.6421 1155.5724,-42.3994 1172.1385,-30.9521"/>
<polygon fill="#191970" stroke="#191970" points="1174.4542,-33.6063 1180.6914,-25.0419 1170.4747,-27.8474 1174.4542,-33.6063"/>
</g>
<!-- Node29 -->
<g id="node30" class="node">
<title>Node29</title>
<polygon fill="none" stroke="#bfbfbf" points="1643,-6 1643,-25 1692,-25 1692,-6 1643,-6"/>
<text text-anchor="middle" x="1667.5" y="-13" font-family="Helvetica,sans-Serif" font-size="10.00" fill="#000000">iosfwd</text>
</g>
<!-- Node19&#45;&gt;Node29 -->
<g id="edge32" class="edge">
<title>Node19&#45;&gt;Node29</title>
<path fill="none" stroke="#191970" d="M1166.662,-70.2837C1177.5928,-69.1432 1188.8799,-68.0042 1199.5,-67 1392.6328,-48.7378 1447.0679,-81.0299 1634.5,-31 1636.4723,-30.4736 1638.4713,-29.8338 1640.4591,-29.1175"/>
<polygon fill="#191970" stroke="#191970" points="1642.2551,-32.1601 1650.1282,-25.0704 1639.5522,-25.7029 1642.2551,-32.1601"/>
</g>
<!-- Node31&#45;&gt;Node30 -->
<g id="edge38" class="edge">
<title>Node31&#45;&gt;Node30</title>
<path fill="none" stroke="#191970" d="M721.9575,-291.2455C734.5732,-282.7337 753.0944,-270.2375 767.7045,-260.3801"/>
<polygon fill="#191970" stroke="#191970" points="769.8761,-263.1371 776.2082,-254.6427 765.9609,-257.3343 769.8761,-263.1371"/>
</g>
<!-- Node31&#45;&gt;Node32 -->
<g id="edge35" class="edge">
<title>Node31&#45;&gt;Node32</title>
<path fill="none" stroke="#191970" d="M709.3006,-291.079C712.0248,-277.6868 718.0209,-253.3863 728.5,-235 734.6017,-224.2941 743.5132,-213.9095 751.4705,-205.7245"/>
<polygon fill="#191970" stroke="#191970" points="754.0206,-208.1254 758.6846,-198.6123 749.1062,-203.1405 754.0206,-208.1254"/>
</g>
<!-- Node32&#45;&gt;Node8 -->
<g id="edge36" class="edge">
<title>Node32&#45;&gt;Node8</title>
<path fill="none" stroke="#191970" d="M718.6684,-180.6767C659.5869,-171.0025 561.8064,-154.9917 496.0462,-144.2239"/>
<polygon fill="#191970" stroke="#191970" points="496.2121,-140.7046 485.7779,-142.5426 495.0809,-147.6126 496.2121,-140.7046"/>
</g>
<!-- Node32&#45;&gt;Node17 -->
<g id="edge37" class="edge">
<title>Node32&#45;&gt;Node17</title>
<path fill="none" stroke="#191970" d="M814.2417,-179.4369C859.2694,-169.8127 928.7728,-154.957 976.9927,-144.6504"/>
<polygon fill="#191970" stroke="#191970" points="977.8953,-148.0366 986.9428,-142.5237 976.4321,-141.1912 977.8953,-148.0366"/>
</g>
<!-- Node33&#45;&gt;Node17 -->
<g id="edge40" class="edge">
<title>Node33&#45;&gt;Node17</title>
<path fill="none" stroke="#191970" d="M1037.7671,-291.4862C1038.0141,-282.1847 1038.3628,-267.6203 1038.5,-255 1038.5966,-246.1116 1038.8045,-243.8837 1038.5,-235 1037.515,-206.2619 1034.9735,-173.0494 1033.2399,-152.5336"/>
<polygon fill="#191970" stroke="#191970" points="1036.7252,-152.2117 1032.3749,-142.5513 1029.7513,-152.8161 1036.7252,-152.2117"/>
</g>
<!-- Node33&#45;&gt;Node30 -->
<g id="edge44" class="edge">
<title>Node33&#45;&gt;Node30</title>
<path fill="none" stroke="#191970" d="M995.3198,-291.4369C953.0477,-281.8529 887.8938,-267.0812 842.4583,-256.78"/>
<polygon fill="#191970" stroke="#191970" points="843.0326,-253.3215 832.5062,-254.5237 841.4848,-260.1482 843.0326,-253.3215"/>
</g>
<!-- Node34 -->
<g id="node35" class="node">
<title>Node34</title>
<g id="a_node35"><a xlink:href="../../dc/d14/ROC_8h.html" target="_top" xlink:title="TPCBase/ROC.h">
<polygon fill="none" stroke="#000000" points="937.5,-235.5 937.5,-254.5 1029.5,-254.5 1029.5,-235.5 937.5,-235.5"/>
<text text-anchor="middle" x="983.5" y="-242.5" font-family="Helvetica,sans-Serif" font-size="10.00" fill="#000000">TPCBase/ROC.h</text>
</a>
</g>
</g>
<!-- Node33&#45;&gt;Node34 -->
<g id="edge41" class="edge">
<title>Node33&#45;&gt;Node34</title>
<path fill="none" stroke="#191970" d="M1028.0939,-291.2455C1020.3507,-283.2155 1009.188,-271.6394 999.9682,-262.0781"/>
<polygon fill="#191970" stroke="#191970" points="1002.2591,-259.4117 992.7983,-254.6427 997.2202,-264.2706 1002.2591,-259.4117"/>
</g>
<!-- Node34&#45;&gt;Node17 -->
<g id="edge42" class="edge">
<title>Node34&#45;&gt;Node17</title>
<path fill="none" stroke="#191970" d="M987.5925,-235.4509C995.5274,-216.936 1013.1318,-175.8591 1023.4777,-151.7187"/>
<polygon fill="#191970" stroke="#191970" points="1026.6957,-153.0951 1027.4179,-142.5249 1020.2616,-150.3376 1026.6957,-153.0951"/>
</g>
<!-- Node34&#45;&gt;Node32 -->
<g id="edge43" class="edge">
<title>Node34&#45;&gt;Node32</title>
<path fill="none" stroke="#191970" d="M946.7121,-235.3733C910.4339,-225.8799 854.8764,-211.3415 815.6554,-201.0781"/>
<polygon fill="#191970" stroke="#191970" points="816.3682,-197.6468 805.8079,-198.5011 814.596,-204.4188 816.3682,-197.6468"/>
</g>
<!-- Node35&#45;&gt;Node17 -->
<g id="edge46" class="edge">
<title>Node35&#45;&gt;Node17</title>
<path fill="none" stroke="#191970" d="M965.5675,-351.8935C1018.5974,-345.7654 1092.6508,-333.3956 1110.5,-311 1151.4674,-259.5978 1084.6491,-183.6097 1050.1292,-150.0236"/>
<polygon fill="#191970" stroke="#191970" points="1052.1829,-147.1472 1042.5218,-142.7981 1047.3621,-152.2226 1052.1829,-147.1472"/>
</g>
<!-- Node35&#45;&gt;Node30 -->
<g id="edge51" class="edge">
<title>Node35&#45;&gt;Node30</title>
<path fill="none" stroke="#191970" d="M897.3919,-347.477C886.038,-338.4078 868.7265,-324.2176 854.5,-311 837.4574,-295.166 819.0755,-275.9682 806.4036,-262.3695"/>
<polygon fill="#191970" stroke="#191970" points="808.6745,-259.6701 799.3145,-254.706 803.5359,-264.4235 808.6745,-259.6701"/>
</g>
<!-- Node35&#45;&gt;Node31 -->
<g id="edge52" class="edge">
<title>Node35&#45;&gt;Node31</title>
<path fill="none" stroke="#191970" d="M874.775,-347.3733C840.7492,-337.9404 788.7563,-323.5265 751.7766,-313.2747"/>
<polygon fill="#191970" stroke="#191970" points="752.3435,-309.7999 741.7719,-310.5011 750.4734,-316.5455 752.3435,-309.7999"/>
</g>
<!-- Node36 -->
<g id="node37" class="node">
<title>Node36</title>
<g id="a_node37"><a xlink:href="../../df/d26/CRU_8h.html" target="_top" xlink:title="TPCBase/CRU.h">
<polygon fill="none" stroke="#000000" points="863.5,-291.5 863.5,-310.5 955.5,-310.5 955.5,-291.5 863.5,-291.5"/>
<text text-anchor="middle" x="909.5" y="-298.5" font-family="Helvetica,sans-Serif" font-size="10.00" fill="#000000">TPCBase/CRU.h</text>
</a>
</g>
</g>
<!-- Node35&#45;&gt;Node36 -->
<g id="edge47" class="edge">
<title>Node35&#45;&gt;Node36</title>
<path fill="none" stroke="#191970" d="M909.5,-347.2455C909.5,-339.9382 909.5,-329.6944 909.5,-320.7046"/>
<polygon fill="#191970" stroke="#191970" points="913.0001,-320.6426 909.5,-310.6427 906.0001,-320.6427 913.0001,-320.6426"/>
</g>
<!-- Node36&#45;&gt;Node17 -->
<g id="edge48" class="edge">
<title>Node36&#45;&gt;Node17</title>
<path fill="none" stroke="#191970" d="M910.7016,-291.4366C912.7171,-278.0327 917.6738,-253.2554 928.5,-235 949.7655,-199.1417 986.6387,-166.9802 1010.0158,-148.7462"/>
<polygon fill="#191970" stroke="#191970" points="1012.1399,-151.528 1017.9639,-142.6775 1007.8918,-145.9644 1012.1399,-151.528"/>
</g>
<!-- Node36&#45;&gt;Node32 -->
<g id="edge49" class="edge">
<title>Node36&#45;&gt;Node32</title>
<path fill="none" stroke="#191970" d="M902.6752,-291.085C892.8033,-277.2633 873.4167,-251.9928 852.5,-235 836.7871,-222.2348 817.0348,-211.1256 800.7415,-203.0238"/>
<polygon fill="#191970" stroke="#191970" points="802.1317,-199.8084 791.6046,-198.6114 799.0875,-206.1119 802.1317,-199.8084"/>
</g>
<!-- Node36&#45;&gt;Node34 -->
<g id="edge50" class="edge">
<title>Node36&#45;&gt;Node34</title>
<path fill="none" stroke="#191970" d="M922.3898,-291.2455C933.4254,-282.8943 949.5292,-270.7076 962.4353,-260.9408"/>
<polygon fill="#191970" stroke="#191970" points="964.8959,-263.4681 970.7579,-254.6427 960.6717,-257.8862 964.8959,-263.4681"/>
</g>
<!-- Node37&#45;&gt;Node29 -->
<g id="edge54" class="edge">
<title>Node37&#45;&gt;Node29</title>
<path fill="none" stroke="#191970" d="M1658.9967,-179.4248C1660.4194,-151.999 1664.5312,-72.732 1666.4679,-35.3964"/>
<polygon fill="#191970" stroke="#191970" points="1669.9709,-35.4274 1666.9937,-25.2595 1662.9803,-35.0648 1669.9709,-35.4274"/>
</g>
<!-- Node38&#45;&gt;Node2 -->
<g id="edge56" class="edge">
<title>Node38&#45;&gt;Node2</title>
<path fill="none" stroke="#191970" d="M613.7141,-347.3733C588.6477,-338.0151 550.45,-323.7547 523.0336,-313.5192"/>
<polygon fill="#191970" stroke="#191970" points="524.0575,-310.1656 513.465,-309.9469 521.6092,-316.7235 524.0575,-310.1656"/>
</g>
<!-- Node38&#45;&gt;Node17 -->
<g id="edge57" class="edge">
<title>Node38&#45;&gt;Node17</title>
<path fill="none" stroke="#191970" d="M634.5806,-347.4051C628.5822,-334.3824 620.0002,-310.4994 626.5,-291 646.1764,-231.9708 656.9663,-210.7135 710.5,-179 750.5635,-155.2663 872.8872,-142.9977 954.4305,-137.2872"/>
<polygon fill="#191970" stroke="#191970" points="954.9211,-140.762 964.6599,-136.5901 954.4451,-133.7782 954.9211,-140.762"/>
</g>
<!-- Node38&#45;&gt;Node30 -->
<g id="edge58" class="edge">
<title>Node38&#45;&gt;Node30</title>
<path fill="none" stroke="#191970" d="M635.8204,-347.3813C631.1783,-333.4611 625.1876,-307.5586 637.5,-291 648.6287,-276.0333 690.2875,-264.097 727.329,-256.1374"/>
<polygon fill="#191970" stroke="#191970" points="728.0462,-259.5632 737.1235,-254.0995 726.6202,-252.71 728.0462,-259.5632"/>
</g>
</g>
</svg>
        <g id="navigator" transform="translate(0 0)" fill="#404254">
                <rect fill="#f2f5e9" fill-opacity="0.5" stroke="#606060" stroke-width=".5" x="0" y="0" width="60" height="60"/>
                <use id="zoomplus" xlink:href="#zoomPlus" x="17" y="9" onmousedown="handleZoom(evt,'in')"/>
                <use id="zoomminus" xlink:href="#zoomMin" x="42" y="9" onmousedown="handleZoom(evt,'out')"/>
                <use id="reset" xlink:href="#resetDef" x="30" y="36" onmousedown="handleReset()"/>
                <g id="arrowUp" xlink:href="#dirArrow" transform="translate(30 24)" onmousedown="handlePan(0,-1)">
                  <use xlink:href="#rim" fill="#404040">
                        <set attributeName="fill" to="#808080" begin="arrowUp.mouseover" end="arrowUp.mouseout"/>
                  </use>
                  <path fill="none" stroke="white" stroke-width="1.5" d="M0,-3.0v7 M-2.5,-0.5L0,-3.0L2.5,-0.5"/>
                </g>
                <g id="arrowRight" xlink:href="#dirArrow" transform="rotate(90) translate(36 -43)" onmousedown="handlePan(1,0)">
                  <use xlink:href="#rim" fill="#404040">
                        <set attributeName="fill" to="#808080" begin="arrowRight.mouseover" end="arrowRight.mouseout"/>
                  </use>
                  <path fill="none" stroke="white" stroke-width="1.5" d="M0,-3.0v7 M-2.5,-0.5L0,-3.0L2.5,-0.5"/>
                </g>
                <g id="arrowDown" xlink:href="#dirArrow" transform="rotate(180) translate(-30 -48)" onmousedown="handlePan(0,1)">
                  <use xlink:href="#rim" fill="#404040">
                        <set attributeName="fill" to="#808080" begin="arrowDown.mouseover" end="arrowDown.mouseout"/>
                  </use>
                  <path fill="none" stroke="white" stroke-width="1.5" d="M0,-3.0v7 M-2.5,-0.5L0,-3.0L2.5,-0.5"/>
                </g>
                <g id="arrowLeft" xlink:href="#dirArrow" transform="rotate(270) translate(-36 17)" onmousedown="handlePan(-1,0)">
                  <use xlink:href="#rim" fill="#404040">
                        <set attributeName="fill" to="#808080" begin="arrowLeft.mouseover" end="arrowLeft.mouseout"/>
                  </use>
                  <path fill="none" stroke="white" stroke-width="1.5" d="M0,-3.0v7 M-2.5,-0.5L0,-3.0L2.5,-0.5"/>
                </g>
        </g>
        <svg viewBox="0 0 15 15" width="100%" height="30px" preserveAspectRatio="xMaxYMin meet">
         <g id="arrow_out" transform="scale(0.3 0.3)">
          <a xlink:href="DigitalCurrentClusterIntegrator_8cxx__incl_org.svg" target="_base">
           <rect id="button" ry="5" rx="5" y="6" x="6" height="38" width="38"
                fill="#f2f5e9" fill-opacity="0.5" stroke="#606060" stroke-width="1.0"/>
           <path id="arrow"
             d="M 11.500037,31.436501 C 11.940474,20.09759 22.043105,11.32322 32.158766,21.979434 L 37.068811,17.246167 C 37.068811,17.246167 37.088388,32 37.088388,32 L 22.160133,31.978069 C 22.160133,31.978069 26.997745,27.140456 26.997745,27.140456 C 18.528582,18.264221 13.291696,25.230495 11.500037,31.436501 z"
             style="fill:#404040;"/>
          </a>
         </g>
        </svg>
</svg>
