<?xml version="1.0" encoding="UTF-8" standalone="no"?>
<!DOCTYPE svg PUBLIC "-//W3C//DTD SVG 1.1//EN"
 "http://www.w3.org/Graphics/SVG/1.1/DTD/svg11.dtd">
<!-- Generated by graphviz version 2.40.1 (20161225.0304)
 -->
<!-- Title: /home/travis/build/AliceO2Group/AliceO2/Detectors/Base/src/Ray.cxx Pages: 1 -->
<svg width="2845pt" height="397pt"
 viewBox="0.00 0.00 2844.95 397.00" xmlns="http://www.w3.org/2000/svg" xmlns:xlink="http://www.w3.org/1999/xlink">
<g id="graph0" class="graph" transform="scale(1 1) rotate(0) translate(4 393)">
<title>/home/travis/build/AliceO2Group/AliceO2/Detectors/Base/src/Ray.cxx</title>
<!-- Node0 -->
<g id="node1" class="node">
<title>Node0</title>
<polygon fill="#bfbfbf" stroke="#000000" points="619,-347.5 619,-388.5 771,-388.5 771,-347.5 619,-347.5"/>
<text text-anchor="start" x="627" y="-376.5" font-family="Helvetica,sans-Serif" font-size="10.00" fill="#000000">/home/travis/build</text>
<text text-anchor="start" x="627" y="-365.5" font-family="Helvetica,sans-Serif" font-size="10.00" fill="#000000">/AliceO2Group/AliceO2</text>
<text text-anchor="middle" x="695" y="-354.5" font-family="Helvetica,sans-Serif" font-size="10.00" fill="#000000">/Detectors/Base/src/Ray.cxx</text>
</g>
<!-- Node1 -->
<g id="node2" class="node">
<title>Node1</title>
<g id="a_node2"><a xlink:href="../../d4/d1b/Ray_8h.html" target="_top" xlink:title="DetectorsBase/Ray.h">
<polygon fill="none" stroke="#000000" points="593.5,-291.5 593.5,-310.5 710.5,-310.5 710.5,-291.5 593.5,-291.5"/>
<text text-anchor="middle" x="652" y="-298.5" font-family="Helvetica,sans-Serif" font-size="10.00" fill="#000000">DetectorsBase/Ray.h</text>
</a>
</g>
</g>
<!-- Node0&#45;&gt;Node1 -->
<g id="edge1" class="edge">
<title>Node0&#45;&gt;Node1</title>
<path fill="none" stroke="#191970" d="M681.6302,-347.168C675.909,-338.2536 669.287,-327.9356 663.7561,-319.3177"/>
<polygon fill="#191970" stroke="#191970" points="666.6238,-317.3059 658.277,-310.7805 660.7327,-321.0868 666.6238,-317.3059"/>
</g>
<!-- Node7 -->
<g id="node8" class="node">
<title>Node7</title>
<g id="a_node8"><a xlink:href="../../d6/da2/GPUCommonMath_8h.html" target="_top" xlink:title="GPUCommonMath.h">
<polygon fill="none" stroke="#000000" points="681.5,-112.5 681.5,-131.5 796.5,-131.5 796.5,-112.5 681.5,-112.5"/>
<text text-anchor="middle" x="739" y="-119.5" font-family="Helvetica,sans-Serif" font-size="10.00" fill="#000000">GPUCommonMath.h</text>
</a>
</g>
</g>
<!-- Node0&#45;&gt;Node7 -->
<g id="edge53" class="edge">
<title>Node0&#45;&gt;Node7</title>
<path fill="none" stroke="#191970" d="M705.4037,-347.3963C710.3134,-336.7821 715.7876,-323.4778 719,-311 734.5209,-250.7122 738.0274,-176.6298 738.7982,-141.8324"/>
<polygon fill="#191970" stroke="#191970" points="742.3013,-141.6711 738.9682,-131.6143 735.3023,-141.5546 742.3013,-141.6711"/>
</g>
<!-- Node2 -->
<g id="node3" class="node">
<title>Node2</title>
<g id="a_node3"><a xlink:href="../../d2/d45/GPUCommonRtypes_8h.html" target="_top" xlink:title="GPUCommonRtypes.h">
<polygon fill="none" stroke="#000000" points="552.5,-56.5 552.5,-75.5 677.5,-75.5 677.5,-56.5 552.5,-56.5"/>
<text text-anchor="middle" x="615" y="-63.5" font-family="Helvetica,sans-Serif" font-size="10.00" fill="#000000">GPUCommonRtypes.h</text>
</a>
</g>
</g>
<!-- Node1&#45;&gt;Node2 -->
<g id="edge2" class="edge">
<title>Node1&#45;&gt;Node2</title>
<path fill="none" stroke="#191970" d="M650.5037,-291.4967C644.984,-256.4391 625.6922,-133.9096 618.1017,-85.7"/>
<polygon fill="#191970" stroke="#191970" points="621.5277,-84.9555 616.5149,-75.6216 614.6129,-86.0443 621.5277,-84.9555"/>
</g>
<!-- Node4 -->
<g id="node5" class="node">
<title>Node4</title>
<g id="a_node5"><a xlink:href="../../df/d21/GPUCommonDef_8h.html" target="_top" xlink:title="GPUCommonDef.h">
<polygon fill="none" stroke="#000000" points="427.5,-56.5 427.5,-75.5 534.5,-75.5 534.5,-56.5 427.5,-56.5"/>
<text text-anchor="middle" x="481" y="-63.5" font-family="Helvetica,sans-Serif" font-size="10.00" fill="#000000">GPUCommonDef.h</text>
</a>
</g>
</g>
<!-- Node1&#45;&gt;Node4 -->
<g id="edge4" class="edge">
<title>Node1&#45;&gt;Node4</title>
<path fill="none" stroke="#191970" d="M593.3949,-294.014C535.2865,-283.7676 448.5427,-258.8558 403,-199 379.4876,-168.0982 375.0423,-145.3083 395,-112 404.0087,-96.9649 419.7934,-86.5677 435.4013,-79.5159"/>
<polygon fill="#191970" stroke="#191970" points="437.1223,-82.5923 445.0343,-75.546 434.4551,-76.1203 437.1223,-82.5923"/>
</g>
<!-- Node1&#45;&gt;Node7 -->
<g id="edge7" class="edge">
<title>Node1&#45;&gt;Node7</title>
<path fill="none" stroke="#191970" d="M656.6775,-291.3762C670.4854,-262.9669 711.2559,-179.0828 729.7231,-141.0871"/>
<polygon fill="#191970" stroke="#191970" points="733.0758,-142.1954 734.2994,-131.6714 726.7801,-139.1354 733.0758,-142.1954"/>
</g>
<!-- Node10 -->
<g id="node11" class="node">
<title>Node10</title>
<g id="a_node11"><a xlink:href="../../da/df3/MatLayerCyl_8h.html" target="_top" xlink:title="Declarations for single cylindrical material layer class. ">
<polygon fill="none" stroke="#000000" points="412.5,-174 412.5,-193 573.5,-193 573.5,-174 412.5,-174"/>
<text text-anchor="middle" x="493" y="-181" font-family="Helvetica,sans-Serif" font-size="10.00" fill="#000000">DetectorsBase/MatLayerCyl.h</text>
</a>
</g>
</g>
<!-- Node1&#45;&gt;Node10 -->
<g id="edge11" class="edge">
<title>Node1&#45;&gt;Node10</title>
<path fill="none" stroke="#191970" d="M638.9884,-291.3845C611.6188,-271.1585 547.8645,-224.0445 514.3919,-199.3085"/>
<polygon fill="#191970" stroke="#191970" points="516.3139,-196.3768 506.1914,-193.2484 512.1536,-202.0064 516.3139,-196.3768"/>
</g>
<!-- Node20 -->
<g id="node21" class="node">
<title>Node20</title>
<g id="a_node21"><a xlink:href="../../d9/d52/Common_2MathUtils_2include_2MathUtils_2Utils_8h.html" target="_top" xlink:title="MathUtils/Utils.h">
<polygon fill="none" stroke="#000000" points="921,-235.5 921,-254.5 1019,-254.5 1019,-235.5 921,-235.5"/>
<text text-anchor="middle" x="970" y="-242.5" font-family="Helvetica,sans-Serif" font-size="10.00" fill="#000000">MathUtils/Utils.h</text>
</a>
</g>
</g>
<!-- Node1&#45;&gt;Node20 -->
<g id="edge30" class="edge">
<title>Node1&#45;&gt;Node20</title>
<path fill="none" stroke="#191970" d="M706.3048,-291.4369C763.2358,-281.4113 852.4033,-265.7089 911.0255,-255.3855"/>
<polygon fill="#191970" stroke="#191970" points="911.6393,-258.8313 920.8807,-253.6499 910.4252,-251.9374 911.6393,-258.8313"/>
</g>
<!-- Node28 -->
<g id="node29" class="node">
<title>Node28</title>
<g id="a_node29"><a xlink:href="../../dc/d73/Cartesian_8h.html" target="_top" xlink:title="MathUtils/Cartesian.h">
<polygon fill="none" stroke="#000000" points="1927,-235.5 1927,-254.5 2049,-254.5 2049,-235.5 1927,-235.5"/>
<text text-anchor="middle" x="1988" y="-242.5" font-family="Helvetica,sans-Serif" font-size="10.00" fill="#000000">MathUtils/Cartesian.h</text>
</a>
</g>
</g>
<!-- Node1&#45;&gt;Node28 -->
<g id="edge42" class="edge">
<title>Node1&#45;&gt;Node28</title>
<path fill="none" stroke="#191970" d="M710.697,-298.5396C927.18,-289.4655 1680.4995,-257.8892 1916.6384,-247.9912"/>
<polygon fill="#191970" stroke="#191970" points="1916.9789,-251.4801 1926.8235,-247.5643 1916.6857,-244.4862 1916.9789,-251.4801"/>
</g>
<!-- Node3 -->
<g id="node4" class="node">
<title>Node3</title>
<polygon fill="none" stroke="#bfbfbf" points="1766.5,-.5 1766.5,-19.5 1825.5,-19.5 1825.5,-.5 1766.5,-.5"/>
<text text-anchor="middle" x="1796" y="-7.5" font-family="Helvetica,sans-Serif" font-size="10.00" fill="#000000">Rtypes.h</text>
</g>
<!-- Node2&#45;&gt;Node3 -->
<g id="edge3" class="edge">
<title>Node2&#45;&gt;Node3</title>
<path fill="none" stroke="#191970" d="M677.7412,-57.7449C683.904,-57.0872 690.0691,-56.4893 696,-56 1109.4968,-21.8861 1612.6358,-12.5514 1756.1058,-10.5011"/>
<polygon fill="#191970" stroke="#191970" points="1756.2438,-13.9996 1766.1941,-10.3606 1756.1463,-7.0003 1756.2438,-13.9996"/>
</g>
<!-- Node5 -->
<g id="node6" class="node">
<title>Node5</title>
<g id="a_node6"><a xlink:href="../../d5/d93/GPUCommonDefSettings_8h.html" target="_top" xlink:title="GPUCommonDefSettings.h">
<polygon fill="none" stroke="#000000" points="383,-.5 383,-19.5 531,-19.5 531,-.5 383,-.5"/>
<text text-anchor="middle" x="457" y="-7.5" font-family="Helvetica,sans-Serif" font-size="10.00" fill="#000000">GPUCommonDefSettings.h</text>
</a>
</g>
</g>
<!-- Node4&#45;&gt;Node5 -->
<g id="edge5" class="edge">
<title>Node4&#45;&gt;Node5</title>
<path fill="none" stroke="#191970" d="M476.8195,-56.2455C473.619,-48.7776 469.104,-38.2427 465.1916,-29.1137"/>
<polygon fill="#191970" stroke="#191970" points="468.2888,-27.4554 461.1326,-19.6427 461.8548,-30.2129 468.2888,-27.4554"/>
</g>
<!-- Node6 -->
<g id="node7" class="node">
<title>Node6</title>
<g id="a_node7"><a xlink:href="../../da/d5a/GPUCommonDefAPI_8h.html" target="_top" xlink:title="GPUCommonDefAPI.h">
<polygon fill="none" stroke="#000000" points="549,-.5 549,-19.5 673,-19.5 673,-.5 549,-.5"/>
<text text-anchor="middle" x="611" y="-7.5" font-family="Helvetica,sans-Serif" font-size="10.00" fill="#000000">GPUCommonDefAPI.h</text>
</a>
</g>
</g>
<!-- Node4&#45;&gt;Node6 -->
<g id="edge6" class="edge">
<title>Node4&#45;&gt;Node6</title>
<path fill="none" stroke="#191970" d="M503.3478,-56.3733C524.4033,-47.3032 556.1495,-33.6279 579.7175,-23.4755"/>
<polygon fill="#191970" stroke="#191970" points="581.1444,-26.6719 588.9438,-19.5011 578.375,-20.243 581.1444,-26.6719"/>
</g>
<!-- Node7&#45;&gt;Node4 -->
<g id="edge8" class="edge">
<title>Node7&#45;&gt;Node4</title>
<path fill="none" stroke="#191970" d="M694.9414,-112.4369C650.6011,-102.8127 582.1589,-87.957 534.6751,-77.6504"/>
<polygon fill="#191970" stroke="#191970" points="535.3918,-74.2245 524.8769,-75.5237 533.9069,-81.0653 535.3918,-74.2245"/>
</g>
<!-- Node8 -->
<g id="node9" class="node">
<title>Node8</title>
<polygon fill="none" stroke="#bfbfbf" points="705.5,-56.5 705.5,-75.5 752.5,-75.5 752.5,-56.5 705.5,-56.5"/>
<text text-anchor="middle" x="729" y="-63.5" font-family="Helvetica,sans-Serif" font-size="10.00" fill="#000000">cmath</text>
</g>
<!-- Node7&#45;&gt;Node8 -->
<g id="edge9" class="edge">
<title>Node7&#45;&gt;Node8</title>
<path fill="none" stroke="#191970" d="M737.2581,-112.2455C735.9533,-104.9382 734.124,-94.6944 732.5187,-85.7046"/>
<polygon fill="#191970" stroke="#191970" points="735.9254,-84.8717 730.7219,-75.6427 729.0344,-86.1022 735.9254,-84.8717"/>
</g>
<!-- Node9 -->
<g id="node10" class="node">
<title>Node9</title>
<polygon fill="none" stroke="#bfbfbf" points="771,-56.5 771,-75.5 835,-75.5 835,-56.5 771,-56.5"/>
<text text-anchor="middle" x="803" y="-63.5" font-family="Helvetica,sans-Serif" font-size="10.00" fill="#000000">algorithm</text>
</g>
<!-- Node7&#45;&gt;Node9 -->
<g id="edge10" class="edge">
<title>Node7&#45;&gt;Node9</title>
<path fill="none" stroke="#191970" d="M750.1479,-112.2455C759.5087,-104.0549 773.0858,-92.1749 784.1349,-82.5069"/>
<polygon fill="#191970" stroke="#191970" points="786.7588,-84.8618 791.9798,-75.6427 782.1492,-79.5937 786.7588,-84.8618"/>
</g>
<!-- Node10&#45;&gt;Node2 -->
<g id="edge25" class="edge">
<title>Node10&#45;&gt;Node2</title>
<path fill="none" stroke="#191970" d="M506.2969,-173.8629C519.6389,-163.9534 540.5185,-147.7816 557,-132 572.9067,-116.7687 589.3191,-97.7255 600.6075,-84.0144"/>
<polygon fill="#191970" stroke="#191970" points="603.6376,-85.8355 607.2288,-75.8679 598.2055,-81.4204 603.6376,-85.8355"/>
</g>
<!-- Node10&#45;&gt;Node4 -->
<g id="edge14" class="edge">
<title>Node10&#45;&gt;Node4</title>
<path fill="none" stroke="#191970" d="M459.0454,-173.8766C438.6116,-166.139 414.2531,-153.0137 402,-132 388.8108,-109.3808 416.5921,-91.0349 442.7692,-79.4794"/>
<polygon fill="#191970" stroke="#191970" points="444.3711,-82.6039 452.262,-75.5339 441.6845,-76.14 444.3711,-82.6039"/>
</g>
<!-- Node10&#45;&gt;Node7 -->
<g id="edge26" class="edge">
<title>Node10&#45;&gt;Node7</title>
<path fill="none" stroke="#191970" d="M531.1676,-173.9581C574.167,-163.2082 644.1351,-145.7162 690.8542,-134.0365"/>
<polygon fill="#191970" stroke="#191970" points="691.8903,-137.3852 700.7429,-131.5643 690.1925,-130.5942 691.8903,-137.3852"/>
</g>
<!-- Node10&#45;&gt;Node8 -->
<g id="edge12" class="edge">
<title>Node10&#45;&gt;Node8</title>
<path fill="none" stroke="#191970" d="M512.3129,-173.8845C553.9045,-153.1768 652.1041,-104.285 700.7205,-80.0798"/>
<polygon fill="#191970" stroke="#191970" points="702.3594,-83.1738 709.7513,-75.5836 699.2394,-76.9075 702.3594,-83.1738"/>
</g>
<!-- Node11 -->
<g id="node12" class="node">
<title>Node11</title>
<polygon fill="none" stroke="#bfbfbf" points="0,-56.5 0,-75.5 50,-75.5 50,-56.5 0,-56.5"/>
<text text-anchor="middle" x="25" y="-63.5" font-family="Helvetica,sans-Serif" font-size="10.00" fill="#000000">cstring</text>
</g>
<!-- Node10&#45;&gt;Node11 -->
<g id="edge13" class="edge">
<title>Node10&#45;&gt;Node11</title>
<path fill="none" stroke="#191970" d="M432.8036,-173.9642C378.7844,-164.8956 297.5356,-149.9885 228,-132 167.969,-116.4703 99.6911,-93.0466 59.591,-78.6819"/>
<polygon fill="#191970" stroke="#191970" points="60.6197,-75.3323 50.0253,-75.2353 58.2468,-81.9179 60.6197,-75.3323"/>
</g>
<!-- Node12 -->
<g id="node13" class="node">
<title>Node12</title>
<g id="a_node13"><a xlink:href="../../db/dff/FlatObject_8h.html" target="_top" xlink:title="Definition of FlatObject class. ">
<polygon fill="none" stroke="#000000" points="237.5,-112.5 237.5,-131.5 312.5,-131.5 312.5,-112.5 237.5,-112.5"/>
<text text-anchor="middle" x="275" y="-119.5" font-family="Helvetica,sans-Serif" font-size="10.00" fill="#000000">FlatObject.h</text>
</a>
</g>
</g>
<!-- Node10&#45;&gt;Node12 -->
<g id="edge15" class="edge">
<title>Node10&#45;&gt;Node12</title>
<path fill="none" stroke="#191970" d="M458.9375,-173.8906C421.1023,-163.2169 359.9194,-145.9566 318.6115,-134.3033"/>
<polygon fill="#191970" stroke="#191970" points="319.398,-130.8886 308.8233,-131.5419 317.4973,-137.6256 319.398,-130.8886"/>
</g>
<!-- Node19 -->
<g id="node20" class="node">
<title>Node19</title>
<g id="a_node20"><a xlink:href="../../db/dba/MatCell_8h.html" target="_top" xlink:title="Declarations for material properties of the cell (voxel) ">
<polygon fill="none" stroke="#000000" points="411.5,-112.5 411.5,-131.5 548.5,-131.5 548.5,-112.5 411.5,-112.5"/>
<text text-anchor="middle" x="480" y="-119.5" font-family="Helvetica,sans-Serif" font-size="10.00" fill="#000000">DetectorsBase/MatCell.h</text>
</a>
</g>
</g>
<!-- Node10&#45;&gt;Node19 -->
<g id="edge27" class="edge">
<title>Node10&#45;&gt;Node19</title>
<path fill="none" stroke="#191970" d="M490.9688,-173.8906C489.1478,-165.276 486.4198,-152.3708 484.1401,-141.5858"/>
<polygon fill="#191970" stroke="#191970" points="487.5524,-140.8048 482.0599,-131.7449 480.7038,-142.2525 487.5524,-140.8048"/>
</g>
<!-- Node12&#45;&gt;Node2 -->
<g id="edge21" class="edge">
<title>Node12&#45;&gt;Node2</title>
<path fill="none" stroke="#191970" d="M312.685,-115.7931C369.2088,-106.4833 476.8054,-88.7615 547.2078,-77.1658"/>
<polygon fill="#191970" stroke="#191970" points="548.0164,-80.5798 557.3146,-75.5011 546.8787,-73.6729 548.0164,-80.5798"/>
</g>
<!-- Node12&#45;&gt;Node4 -->
<g id="edge20" class="edge">
<title>Node12&#45;&gt;Node4</title>
<path fill="none" stroke="#191970" d="M310.4127,-112.3733C345.2605,-102.9001 398.5882,-88.4032 436.3293,-78.1435"/>
<polygon fill="#191970" stroke="#191970" points="437.3178,-81.5019 446.0494,-75.5011 435.4815,-74.747 437.3178,-81.5019"/>
</g>
<!-- Node12&#45;&gt;Node11 -->
<g id="edge18" class="edge">
<title>Node12&#45;&gt;Node11</title>
<path fill="none" stroke="#191970" d="M237.3387,-114.884C196.1061,-106.894 127.8504,-93.0856 60.1703,-76.1611"/>
<polygon fill="#191970" stroke="#191970" points="60.7447,-72.6964 50.1922,-73.6418 59.0311,-79.4834 60.7447,-72.6964"/>
</g>
<!-- Node13 -->
<g id="node14" class="node">
<title>Node13</title>
<polygon fill="none" stroke="#bfbfbf" points="138.5,-56.5 138.5,-75.5 191.5,-75.5 191.5,-56.5 138.5,-56.5"/>
<text text-anchor="middle" x="165" y="-63.5" font-family="Helvetica,sans-Serif" font-size="10.00" fill="#000000">cstddef</text>
</g>
<!-- Node12&#45;&gt;Node13 -->
<g id="edge16" class="edge">
<title>Node12&#45;&gt;Node13</title>
<path fill="none" stroke="#191970" d="M255.8395,-112.2455C238.4889,-103.4125 212.7099,-90.2887 193.0417,-80.2758"/>
<polygon fill="#191970" stroke="#191970" points="194.4405,-77.0605 183.941,-75.6427 191.2647,-83.2986 194.4405,-77.0605"/>
</g>
<!-- Node14 -->
<g id="node15" class="node">
<title>Node14</title>
<polygon fill="none" stroke="#bfbfbf" points="351,-56.5 351,-75.5 409,-75.5 409,-56.5 351,-56.5"/>
<text text-anchor="middle" x="380" y="-63.5" font-family="Helvetica,sans-Serif" font-size="10.00" fill="#000000">memory</text>
</g>
<!-- Node12&#45;&gt;Node14 -->
<g id="edge17" class="edge">
<title>Node12&#45;&gt;Node14</title>
<path fill="none" stroke="#191970" d="M293.2896,-112.2455C309.7762,-103.4527 334.2352,-90.4079 352.9765,-80.4125"/>
<polygon fill="#191970" stroke="#191970" points="354.7435,-83.4368 361.92,-75.6427 351.4494,-77.2604 354.7435,-83.4368"/>
</g>
<!-- Node15 -->
<g id="node16" class="node">
<title>Node15</title>
<polygon fill="none" stroke="#bfbfbf" points="68,-56.5 68,-75.5 120,-75.5 120,-56.5 68,-56.5"/>
<text text-anchor="middle" x="94" y="-63.5" font-family="Helvetica,sans-Serif" font-size="10.00" fill="#000000">cassert</text>
</g>
<!-- Node12&#45;&gt;Node15 -->
<g id="edge19" class="edge">
<title>Node12&#45;&gt;Node15</title>
<path fill="none" stroke="#191970" d="M243.885,-112.3733C212.1916,-102.5676 163.1011,-87.3793 129.8096,-77.0792"/>
<polygon fill="#191970" stroke="#191970" points="130.6094,-73.663 120.0217,-74.0509 128.5404,-80.3503 130.6094,-73.663"/>
</g>
<!-- Node16 -->
<g id="node17" class="node">
<title>Node16</title>
<g id="a_node17"><a xlink:href="../../df/d5b/GPUCommonLogger_8h.html" target="_top" xlink:title="GPUCommonLogger.h">
<polygon fill="none" stroke="#000000" points="209.5,-56.5 209.5,-75.5 332.5,-75.5 332.5,-56.5 209.5,-56.5"/>
<text text-anchor="middle" x="271" y="-63.5" font-family="Helvetica,sans-Serif" font-size="10.00" fill="#000000">GPUCommonLogger.h</text>
</a>
</g>
</g>
<!-- Node12&#45;&gt;Node16 -->
<g id="edge22" class="edge">
<title>Node12&#45;&gt;Node16</title>
<path fill="none" stroke="#191970" d="M274.3033,-112.2455C273.7813,-104.9382 273.0496,-94.6944 272.4075,-85.7046"/>
<polygon fill="#191970" stroke="#191970" points="275.8924,-85.3679 271.6888,-75.6427 268.9102,-85.8667 275.8924,-85.3679"/>
</g>
<!-- Node17 -->
<g id="node18" class="node">
<title>Node17</title>
<polygon fill="none" stroke="#bfbfbf" points="194,-.5 194,-19.5 254,-19.5 254,-.5 194,-.5"/>
<text text-anchor="middle" x="224" y="-7.5" font-family="Helvetica,sans-Serif" font-size="10.00" fill="#000000">iostream</text>
</g>
<!-- Node16&#45;&gt;Node17 -->
<g id="edge23" class="edge">
<title>Node16&#45;&gt;Node17</title>
<path fill="none" stroke="#191970" d="M262.8132,-56.2455C256.1411,-48.2958 246.5521,-36.8706 238.5747,-27.3656"/>
<polygon fill="#191970" stroke="#191970" points="241.2026,-25.0524 232.093,-19.6427 235.8408,-29.5525 241.2026,-25.0524"/>
</g>
<!-- Node18 -->
<g id="node19" class="node">
<title>Node18</title>
<polygon fill="none" stroke="#bfbfbf" points="272,-.5 272,-19.5 318,-19.5 318,-.5 272,-.5"/>
<text text-anchor="middle" x="295" y="-7.5" font-family="Helvetica,sans-Serif" font-size="10.00" fill="#000000">cstdio</text>
</g>
<!-- Node16&#45;&gt;Node18 -->
<g id="edge24" class="edge">
<title>Node16&#45;&gt;Node18</title>
<path fill="none" stroke="#191970" d="M275.1805,-56.2455C278.381,-48.7776 282.896,-38.2427 286.8084,-29.1137"/>
<polygon fill="#191970" stroke="#191970" points="290.1452,-30.2129 290.8674,-19.6427 283.7112,-27.4554 290.1452,-30.2129"/>
</g>
<!-- Node19&#45;&gt;Node2 -->
<g id="edge29" class="edge">
<title>Node19&#45;&gt;Node2</title>
<path fill="none" stroke="#191970" d="M503.2073,-112.3733C525.1699,-103.2629 558.3332,-89.5062 582.8401,-79.3404"/>
<polygon fill="#191970" stroke="#191970" points="584.1997,-82.5657 592.0955,-75.5011 581.5176,-76.0999 584.1997,-82.5657"/>
</g>
<!-- Node19&#45;&gt;Node4 -->
<g id="edge28" class="edge">
<title>Node19&#45;&gt;Node4</title>
<path fill="none" stroke="#191970" d="M480.1742,-112.2455C480.3047,-104.9382 480.4876,-94.6944 480.6481,-85.7046"/>
<polygon fill="#191970" stroke="#191970" points="484.1486,-85.7036 480.8278,-75.6427 477.1497,-85.5786 484.1486,-85.7036"/>
</g>
<!-- Node21 -->
<g id="node22" class="node">
<title>Node21</title>
<g id="a_node22"><a xlink:href="../../de/def/bitOps_8h.html" target="_top" xlink:title="MathUtils/detail/bitOps.h">
<polygon fill="none" stroke="#000000" points="1180.5,-174 1180.5,-193 1317.5,-193 1317.5,-174 1180.5,-174"/>
<text text-anchor="middle" x="1249" y="-181" font-family="Helvetica,sans-Serif" font-size="10.00" fill="#000000">MathUtils/detail/bitOps.h</text>
</a>
</g>
</g>
<!-- Node20&#45;&gt;Node21 -->
<g id="edge31" class="edge">
<title>Node20&#45;&gt;Node21</title>
<path fill="none" stroke="#191970" d="M1013.2876,-235.4581C1062.4642,-224.6181 1142.7424,-206.9224 1195.723,-195.2439"/>
<polygon fill="#191970" stroke="#191970" points="1196.5987,-198.6349 1205.6108,-193.0643 1195.0918,-191.799 1196.5987,-198.6349"/>
</g>
<!-- Node23 -->
<g id="node24" class="node">
<title>Node23</title>
<g id="a_node24"><a xlink:href="../../d3/dfc/StatAccumulator_8h.html" target="_top" xlink:title="MathUtils/detail/StatAccumulator.h">
<polygon fill="none" stroke="#000000" points="976,-174 976,-193 1162,-193 1162,-174 976,-174"/>
<text text-anchor="middle" x="1069" y="-181" font-family="Helvetica,sans-Serif" font-size="10.00" fill="#000000">MathUtils/detail/StatAccumulator.h</text>
</a>
</g>
</g>
<!-- Node20&#45;&gt;Node23 -->
<g id="edge33" class="edge">
<title>Node20&#45;&gt;Node23</title>
<path fill="none" stroke="#191970" d="M985.4688,-235.3906C1001.4521,-225.4616 1026.6103,-209.833 1045.1433,-198.3201"/>
<polygon fill="#191970" stroke="#191970" points="1046.9924,-201.2918 1053.6399,-193.0419 1043.2985,-195.3457 1046.9924,-201.2918"/>
</g>
<!-- Node25 -->
<g id="node26" class="node">
<title>Node25</title>
<g id="a_node26"><a xlink:href="../../dd/d7d/trigonometric_8h.html" target="_top" xlink:title="MathUtils/detail/trigonometric.h">
<polygon fill="none" stroke="#000000" points="786,-174 786,-193 958,-193 958,-174 786,-174"/>
<text text-anchor="middle" x="872" y="-181" font-family="Helvetica,sans-Serif" font-size="10.00" fill="#000000">MathUtils/detail/trigonometric.h</text>
</a>
</g>
</g>
<!-- Node20&#45;&gt;Node25 -->
<g id="edge35" class="edge">
<title>Node20&#45;&gt;Node25</title>
<path fill="none" stroke="#191970" d="M954.6875,-235.3906C938.9376,-225.5067 914.1877,-209.9749 895.8663,-198.4773"/>
<polygon fill="#191970" stroke="#191970" points="897.5357,-195.3929 887.205,-193.0419 893.8148,-201.3221 897.5357,-195.3929"/>
</g>
<!-- Node22 -->
<g id="node23" class="node">
<title>Node22</title>
<polygon fill="none" stroke="#bfbfbf" points="1224,-112.5 1224,-131.5 1274,-131.5 1274,-112.5 1224,-112.5"/>
<text text-anchor="middle" x="1249" y="-119.5" font-family="Helvetica,sans-Serif" font-size="10.00" fill="#000000">cstdint</text>
</g>
<!-- Node21&#45;&gt;Node22 -->
<g id="edge32" class="edge">
<title>Node21&#45;&gt;Node22</title>
<path fill="none" stroke="#191970" d="M1249,-173.8906C1249,-165.3657 1249,-152.6392 1249,-141.9235"/>
<polygon fill="#191970" stroke="#191970" points="1252.5001,-141.7448 1249,-131.7449 1245.5001,-141.7449 1252.5001,-141.7448"/>
</g>
<!-- Node24 -->
<g id="node25" class="node">
<title>Node24</title>
<polygon fill="none" stroke="#bfbfbf" points="1163.5,-112.5 1163.5,-131.5 1204.5,-131.5 1204.5,-112.5 1163.5,-112.5"/>
<text text-anchor="middle" x="1184" y="-119.5" font-family="Helvetica,sans-Serif" font-size="10.00" fill="#000000">tuple</text>
</g>
<!-- Node23&#45;&gt;Node24 -->
<g id="edge34" class="edge">
<title>Node23&#45;&gt;Node24</title>
<path fill="none" stroke="#191970" d="M1086.9688,-173.8906C1105.7884,-163.8262 1135.5585,-147.9057 1157.1641,-136.3514"/>
<polygon fill="#191970" stroke="#191970" points="1158.9898,-139.3442 1166.1574,-131.5419 1155.6886,-133.1714 1158.9898,-139.3442"/>
</g>
<!-- Node25&#45;&gt;Node4 -->
<g id="edge39" class="edge">
<title>Node25&#45;&gt;Node4</title>
<path fill="none" stroke="#191970" d="M866.1802,-173.9016C855.9827,-158.0276 833.2574,-126.6112 805,-112 703.448,-59.49 661.5577,-91.493 544.7854,-76.1577"/>
<polygon fill="#191970" stroke="#191970" points="545.1462,-72.6741 534.7565,-74.7492 544.1725,-79.6061 545.1462,-72.6741"/>
</g>
<!-- Node25&#45;&gt;Node7 -->
<g id="edge40" class="edge">
<title>Node25&#45;&gt;Node7</title>
<path fill="none" stroke="#191970" d="M851.2188,-173.8906C829.1606,-163.6908 794.095,-147.4763 769.0331,-135.8875"/>
<polygon fill="#191970" stroke="#191970" points="770.1809,-132.5622 759.6353,-131.5419 767.2429,-138.9158 770.1809,-132.5622"/>
</g>
<!-- Node25&#45;&gt;Node8 -->
<g id="edge37" class="edge">
<title>Node25&#45;&gt;Node8</title>
<path fill="none" stroke="#191970" d="M925.3474,-173.9932C995.3106,-161.2725 1109.958,-139.4504 1116,-132 1121.5989,-125.096 1121.959,-118.5957 1116,-112 1064.9066,-55.4471 855.4567,-88.9032 762.5916,-75.4791"/>
<polygon fill="#191970" stroke="#191970" points="763.1033,-72.0157 752.6538,-73.7645 761.9131,-78.9138 763.1033,-72.0157"/>
</g>
<!-- Node25&#45;&gt;Node24 -->
<g id="edge38" class="edge">
<title>Node25&#45;&gt;Node24</title>
<path fill="none" stroke="#191970" d="M926.5977,-173.9812C994.8201,-161.9767 1107.635,-141.7316 1149,-132 1150.461,-131.6563 1151.9522,-131.2903 1153.4553,-130.9091"/>
<polygon fill="#191970" stroke="#191970" points="1154.6078,-134.2236 1163.3567,-128.2479 1152.7909,-127.4635 1154.6078,-134.2236"/>
</g>
<!-- Node26 -->
<g id="node27" class="node">
<title>Node26</title>
<polygon fill="none" stroke="#bfbfbf" points="853,-112.5 853,-131.5 895,-131.5 895,-112.5 853,-112.5"/>
<text text-anchor="middle" x="874" y="-119.5" font-family="Helvetica,sans-Serif" font-size="10.00" fill="#000000">array</text>
</g>
<!-- Node25&#45;&gt;Node26 -->
<g id="edge36" class="edge">
<title>Node25&#45;&gt;Node26</title>
<path fill="none" stroke="#191970" d="M872.3125,-173.8906C872.5897,-165.3657 873.0036,-152.6392 873.3521,-141.9235"/>
<polygon fill="#191970" stroke="#191970" points="876.8561,-141.8534 873.6831,-131.7449 869.8598,-141.6258 876.8561,-141.8534"/>
</g>
<!-- Node27 -->
<g id="node28" class="node">
<title>Node27</title>
<g id="a_node28"><a xlink:href="../../d6/d84/MathConstants_8h.html" target="_top" xlink:title="useful math constants ">
<polygon fill="none" stroke="#000000" points="913,-112.5 913,-131.5 1107,-131.5 1107,-112.5 913,-112.5"/>
<text text-anchor="middle" x="1010" y="-119.5" font-family="Helvetica,sans-Serif" font-size="10.00" fill="#000000">CommonConstants/MathConstants.h</text>
</a>
</g>
</g>
<!-- Node25&#45;&gt;Node27 -->
<g id="edge41" class="edge">
<title>Node25&#45;&gt;Node27</title>
<path fill="none" stroke="#191970" d="M893.5625,-173.8906C916.5512,-163.6457 953.156,-147.3326 979.1824,-135.7339"/>
<polygon fill="#191970" stroke="#191970" points="980.8796,-138.8095 988.5889,-131.5419 978.0302,-132.4156 980.8796,-138.8095"/>
</g>
<!-- Node28&#45;&gt;Node3 -->
<g id="edge50" class="edge">
<title>Node28&#45;&gt;Node3</title>
<path fill="none" stroke="#191970" d="M2049.0185,-243.9382C2238.1006,-240.353 2803.2003,-227.3038 2830,-199 2839.4729,-188.9954 2838.9765,-178.4523 2830,-168 2763.552,-90.6272 2017.4687,-27.3779 1835.7325,-13.0471"/>
<polygon fill="#191970" stroke="#191970" points="1835.7964,-9.5415 1825.5535,-12.2492 1835.2493,-16.5201 1835.7964,-9.5415"/>
</g>
<!-- Node29 -->
<g id="node30" class="node">
<title>Node29</title>
<polygon fill="none" stroke="#bfbfbf" points="1711,-168.5 1711,-198.5 1875,-198.5 1875,-168.5 1711,-168.5"/>
<text text-anchor="start" x="1719" y="-186.5" font-family="Helvetica,sans-Serif" font-size="10.00" fill="#000000">Math/GenVector/Displacement</text>
<text text-anchor="middle" x="1793" y="-175.5" font-family="Helvetica,sans-Serif" font-size="10.00" fill="#000000">Vector3D.h</text>
</g>
<!-- Node28&#45;&gt;Node29 -->
<g id="edge43" class="edge">
<title>Node28&#45;&gt;Node29</title>
<path fill="none" stroke="#191970" d="M1957.5313,-235.3906C1928.9411,-226.3737 1885.447,-212.6563 1850.3572,-201.5896"/>
<polygon fill="#191970" stroke="#191970" points="1851.2921,-198.2145 1840.7024,-198.5446 1849.1866,-204.8904 1851.2921,-198.2145"/>
</g>
<!-- Node30 -->
<g id="node31" class="node">
<title>Node30</title>
<polygon fill="none" stroke="#bfbfbf" points="1893.5,-174 1893.5,-193 2082.5,-193 2082.5,-174 1893.5,-174"/>
<text text-anchor="middle" x="1988" y="-181" font-family="Helvetica,sans-Serif" font-size="10.00" fill="#000000">Math/GenVector/PositionVector3D.h</text>
</g>
<!-- Node28&#45;&gt;Node30 -->
<g id="edge44" class="edge">
<title>Node28&#45;&gt;Node30</title>
<path fill="none" stroke="#191970" d="M1988,-235.3906C1988,-226.8657 1988,-214.1392 1988,-203.4235"/>
<polygon fill="#191970" stroke="#191970" points="1991.5001,-203.2448 1988,-193.2449 1984.5001,-203.2449 1991.5001,-203.2448"/>
</g>
<!-- Node31 -->
<g id="node32" class="node">
<title>Node31</title>
<polygon fill="none" stroke="#bfbfbf" points="2101,-174 2101,-193 2261,-193 2261,-174 2101,-174"/>
<text text-anchor="middle" x="2181" y="-181" font-family="Helvetica,sans-Serif" font-size="10.00" fill="#000000">Math/GenVector/Rotation3D.h</text>
</g>
<!-- Node28&#45;&gt;Node31 -->
<g id="edge45" class="edge">
<title>Node28&#45;&gt;Node31</title>
<path fill="none" stroke="#191970" d="M2018.1563,-235.3906C2051.2985,-224.8298 2104.6762,-207.8208 2141.2242,-196.1747"/>
<polygon fill="#191970" stroke="#191970" points="2142.5902,-199.4129 2151.0555,-193.0419 2140.4649,-192.7433 2142.5902,-199.4129"/>
</g>
<!-- Node32 -->
<g id="node33" class="node">
<title>Node32</title>
<polygon fill="none" stroke="#bfbfbf" points="2279,-174 2279,-193 2447,-193 2447,-174 2279,-174"/>
<text text-anchor="middle" x="2363" y="-181" font-family="Helvetica,sans-Serif" font-size="10.00" fill="#000000">Math/GenVector/Transform3D.h</text>
</g>
<!-- Node28&#45;&gt;Node32 -->
<g id="edge46" class="edge">
<title>Node28&#45;&gt;Node32</title>
<path fill="none" stroke="#191970" d="M2046.6103,-235.4999C2103.6555,-226.2393 2192.7901,-211.7314 2270,-199 2278.3579,-197.6218 2287.137,-196.1675 2295.8256,-194.724"/>
<polygon fill="#191970" stroke="#191970" points="2296.6627,-198.133 2305.953,-193.0398 2295.5142,-191.2278 2296.6627,-198.133"/>
</g>
<!-- Node33 -->
<g id="node34" class="node">
<title>Node33</title>
<polygon fill="none" stroke="#bfbfbf" points="2465.5,-174 2465.5,-193 2638.5,-193 2638.5,-174 2465.5,-174"/>
<text text-anchor="middle" x="2552" y="-181" font-family="Helvetica,sans-Serif" font-size="10.00" fill="#000000">Math/GenVector/Translation3D.h</text>
</g>
<!-- Node28&#45;&gt;Node33 -->
<g id="edge47" class="edge">
<title>Node28&#45;&gt;Node33</title>
<path fill="none" stroke="#191970" d="M2049.0912,-240.2137C2138.577,-232.9268 2310.4692,-217.8822 2456,-199 2465.9197,-197.7129 2476.3901,-196.1914 2486.625,-194.6128"/>
<polygon fill="#191970" stroke="#191970" points="2487.4165,-198.0314 2496.7521,-193.0217 2486.3301,-191.1162 2487.4165,-198.0314"/>
</g>
<!-- Node34 -->
<g id="node35" class="node">
<title>Node34</title>
<polygon fill="none" stroke="#bfbfbf" points="2657,-168.5 2657,-198.5 2821,-198.5 2821,-168.5 2657,-168.5"/>
<text text-anchor="start" x="2665" y="-186.5" font-family="Helvetica,sans-Serif" font-size="10.00" fill="#000000">Math/GenVector/Displacement</text>
<text text-anchor="middle" x="2739" y="-175.5" font-family="Helvetica,sans-Serif" font-size="10.00" fill="#000000">Vector2D.h</text>
</g>
<!-- Node28&#45;&gt;Node34 -->
<g id="edge48" class="edge">
<title>Node28&#45;&gt;Node34</title>
<path fill="none" stroke="#191970" d="M2049.1554,-242.7645C2164.1911,-238.1174 2420.7987,-225.6545 2646.6611,-199.0861"/>
<polygon fill="#191970" stroke="#191970" points="2647.1961,-202.5472 2656.7133,-197.8918 2646.3702,-195.5961 2647.1961,-202.5472"/>
</g>
<!-- Node35 -->
<g id="node36" class="node">
<title>Node35</title>
<polygon fill="none" stroke="#bfbfbf" points="1335.5,-174 1335.5,-193 1524.5,-193 1524.5,-174 1335.5,-174"/>
<text text-anchor="middle" x="1430" y="-181" font-family="Helvetica,sans-Serif" font-size="10.00" fill="#000000">Math/GenVector/PositionVector2D.h</text>
</g>
<!-- Node28&#45;&gt;Node35 -->
<g id="edge49" class="edge">
<title>Node28&#45;&gt;Node35</title>
<path fill="none" stroke="#191970" d="M1926.9477,-239.7318C1839.6843,-231.9934 1674.3191,-216.5553 1534,-199 1523.252,-197.6553 1511.8993,-196.1013 1500.7995,-194.5072"/>
<polygon fill="#191970" stroke="#191970" points="1501.1015,-191.0143 1490.7015,-193.0368 1500.0928,-197.9413 1501.1015,-191.0143"/>
</g>
<!-- Node36 -->
<g id="node37" class="node">
<title>Node36</title>
<polygon fill="none" stroke="#bfbfbf" points="1543,-174 1543,-193 1625,-193 1625,-174 1543,-174"/>
<text text-anchor="middle" x="1584" y="-181" font-family="Helvetica,sans-Serif" font-size="10.00" fill="#000000">TGeoMatrix.h</text>
</g>
<!-- Node28&#45;&gt;Node36 -->
<g id="edge51" class="edge">
<title>Node28&#45;&gt;Node36</title>
<path fill="none" stroke="#191970" d="M1926.8885,-240.1296C1856.0879,-233.7752 1736.1953,-220.8142 1635,-199 1630.8274,-198.1005 1626.5028,-197.022 1622.2164,-195.8582"/>
<polygon fill="#191970" stroke="#191970" points="1622.9512,-192.4278 1612.3736,-193.0317 1621.0191,-199.1559 1622.9512,-192.4278"/>
</g>
<!-- Node37 -->
<g id="node38" class="node">
<title>Node37</title>
<polygon fill="none" stroke="#bfbfbf" points="1643.5,-174 1643.5,-193 1692.5,-193 1692.5,-174 1643.5,-174"/>
<text text-anchor="middle" x="1668" y="-181" font-family="Helvetica,sans-Serif" font-size="10.00" fill="#000000">iosfwd</text>
</g>
<!-- Node28&#45;&gt;Node37 -->
<g id="edge52" class="edge">
<title>Node28&#45;&gt;Node37</title>
<path fill="none" stroke="#191970" d="M1926.9544,-239.963C1868.3115,-234.0132 1777.6983,-221.8868 1702,-199 1700.0905,-198.4227 1698.1492,-197.7604 1696.2113,-197.042"/>
<polygon fill="#191970" stroke="#191970" points="1697.2911,-193.7011 1686.7126,-193.1143 1694.6163,-200.1699 1697.2911,-193.7011"/>
</g>
</g>
</svg>
