<?xml version="1.0" encoding="UTF-8" standalone="no"?>
<!DOCTYPE svg PUBLIC "-//W3C//DTD SVG 1.1//EN"
 "http://www.w3.org/Graphics/SVG/1.1/DTD/svg11.dtd">
<!-- Generated by graphviz version 2.40.1 (20161225.0304)
 -->
<!-- Title: /home/travis/build/AliceO2Group/AliceO2/Detectors/MUON/MID/Tracking/include/MIDTracking/Tracker.h Pages: 1 -->
<!--zoomable 307 -->
<svg id="main" version="1.1" xmlns="http://www.w3.org/2000/svg" xmlns:xlink="http://www.w3.org/1999/xlink" xml:space="preserve" onload="init(evt)">
<style type="text/css"><![CDATA[
.edge:hover path { stroke: red; }
.edge:hover polygon { stroke: red; fill: red; }
]]></style>
<script type="text/javascript"><![CDATA[
var edges = document.getElementsByTagName('g');
if (edges && edges.length) {
  for (var i=0;i<edges.length;i++) {
    if (edges[i].id.substr(0,4)=='edge') {
      edges[i].setAttribute('class','edge');
    }
  }
}
]]></script>
        <defs>
                <circle id="rim" cx="0" cy="0" r="7"/>
                <circle id="rim2" cx="0" cy="0" r="3.5"/>
                <g id="zoomPlus">
                        <use xlink:href="#rim" fill="#404040">
                                <set attributeName="fill" to="#808080" begin="zoomplus.mouseover" end="zoomplus.mouseout"/>
                        </use>
                        <path d="M-4,0h8M0,-4v8" fill="none" stroke="white" stroke-width="1.5" pointer-events="none"/>
                </g>
                <g id="zoomMin">
                        <use xlink:href="#rim" fill="#404040">
                                <set attributeName="fill" to="#808080" begin="zoomminus.mouseover" end="zoomminus.mouseout"/>
                        </use>
                        <path d="M-4,0h8" fill="none" stroke="white" stroke-width="1.5" pointer-events="none"/>
                </g>
                <g id="dirArrow">
                        <path fill="none" stroke="white" stroke-width="1.5" d="M0,-3.0v7 M-2.5,-0.5L0,-3.0L2.5,-0.5"/>
                </g>
               <g id="resetDef">
                       <use xlink:href="#rim2" fill="#404040">
                               <set attributeName="fill" to="#808080" begin="reset.mouseover" end="reset.mouseout"/>
                       </use>
               </g>
        </defs>

<script type="text/javascript">
var viewWidth = 2325;
var viewHeight = 307;
var sectionId = 'dynsection-0';
</script>
<script xlink:href="../../svgpan.js"/>
<svg id="graph" class="graph">
<g id="viewport">
<title>/home/travis/build/AliceO2Group/AliceO2/Detectors/MUON/MID/Tracking/include/MIDTracking/Tracker.h</title>
<!-- Node0 -->
<g id="node1" class="node">
<title>Node0</title>
<polygon fill="#bfbfbf" stroke="#000000" points="303.5,-246.5 303.5,-298.5 469.5,-298.5 469.5,-246.5 303.5,-246.5"/>
<text text-anchor="start" x="311.5" y="-286.5" font-family="Helvetica,sans-Serif" font-size="10.00" fill="#000000">/home/travis/build</text>
<text text-anchor="start" x="311.5" y="-275.5" font-family="Helvetica,sans-Serif" font-size="10.00" fill="#000000">/AliceO2Group/AliceO2</text>
<text text-anchor="start" x="311.5" y="-264.5" font-family="Helvetica,sans-Serif" font-size="10.00" fill="#000000">/Detectors/MUON/MID/Tracking</text>
<text text-anchor="middle" x="386.5" y="-253.5" font-family="Helvetica,sans-Serif" font-size="10.00" fill="#000000">/include/MIDTracking/Tracker.h</text>
</g>
<!-- Node1 -->
<g id="node2" class="node">
<title>Node1</title>
<polygon fill="none" stroke="#bfbfbf" points="0,-190.5 0,-209.5 47,-209.5 47,-190.5 0,-190.5"/>
<text text-anchor="middle" x="23.5" y="-197.5" font-family="Helvetica,sans-Serif" font-size="10.00" fill="#000000">vector</text>
</g>
<!-- Node0&#45;&gt;Node1 -->
<g id="edge1" class="edge">
<title>Node0&#45;&gt;Node1</title>
<path fill="none" stroke="#191970" d="M303.2427,-259.2701C238.5551,-248.4044 146.4902,-231.6616 56.9818,-209.9134"/>
<polygon fill="#191970" stroke="#191970" points="57.7551,-206.4993 47.2091,-207.5161 56.0874,-213.2978 57.7551,-206.4993"/>
</g>
<!-- Node2 -->
<g id="node3" class="node">
<title>Node2</title>
<polygon fill="none" stroke="#bfbfbf" points="65.5,-190.5 65.5,-209.5 113.5,-209.5 113.5,-190.5 65.5,-190.5"/>
<text text-anchor="middle" x="89.5" y="-197.5" font-family="Helvetica,sans-Serif" font-size="10.00" fill="#000000">gsl/gsl</text>
</g>
<!-- Node0&#45;&gt;Node2 -->
<g id="edge2" class="edge">
<title>Node0&#45;&gt;Node2</title>
<path fill="none" stroke="#191970" d="M303.233,-254.1729C253.5449,-242.9104 189.0247,-227.7188 123.3046,-210.1069"/>
<polygon fill="#191970" stroke="#191970" points="124.1675,-206.7146 113.6011,-207.491 122.3454,-213.4733 124.1675,-206.7146"/>
</g>
<!-- Node3 -->
<g id="node4" class="node">
<title>Node3</title>
<g id="a_node4"><a xlink:href="../../d6/d31/Cluster2D_8h.html" target="_top" xlink:title="Reconstructed cluster per RPC. ">
<polygon fill="none" stroke="#000000" points="131.5,-190.5 131.5,-209.5 289.5,-209.5 289.5,-190.5 131.5,-190.5"/>
<text text-anchor="middle" x="210.5" y="-197.5" font-family="Helvetica,sans-Serif" font-size="10.00" fill="#000000">DataFormatsMID/Cluster2D.h</text>
</a>
</g>
</g>
<!-- Node0&#45;&gt;Node3 -->
<g id="edge3" class="edge">
<title>Node0&#45;&gt;Node3</title>
<path fill="none" stroke="#191970" d="M322.96,-246.3258C295.8565,-235.161 265.3903,-222.6111 243.0113,-213.3924"/>
<polygon fill="#191970" stroke="#191970" points="244.224,-210.1067 233.6446,-209.534 241.5577,-216.5791 244.224,-210.1067"/>
</g>
<!-- Node6 -->
<g id="node7" class="node">
<title>Node6</title>
<g id="a_node7"><a xlink:href="../../d0/daa/Cluster3D_8h.html" target="_top" xlink:title="Reconstructed MID cluster (global coordinates) ">
<polygon fill="none" stroke="#000000" points="307.5,-190.5 307.5,-209.5 465.5,-209.5 465.5,-190.5 307.5,-190.5"/>
<text text-anchor="middle" x="386.5" y="-197.5" font-family="Helvetica,sans-Serif" font-size="10.00" fill="#000000">DataFormatsMID/Cluster3D.h</text>
</a>
</g>
</g>
<!-- Node0&#45;&gt;Node6 -->
<g id="edge6" class="edge">
<title>Node0&#45;&gt;Node6</title>
<path fill="none" stroke="#191970" d="M386.5,-246.3258C386.5,-237.5142 386.5,-227.8397 386.5,-219.621"/>
<polygon fill="#191970" stroke="#191970" points="390.0001,-219.534 386.5,-209.534 383.0001,-219.534 390.0001,-219.534"/>
</g>
<!-- Node7 -->
<g id="node8" class="node">
<title>Node7</title>
<g id="a_node8"><a xlink:href="../../d2/df9/MUON_2MID_2include_2DataFormatsMID_2ROFRecord_8h.html" target="_top" xlink:title="Definition of the MID event record. ">
<polygon fill="none" stroke="#000000" points="638,-190.5 638,-209.5 801,-209.5 801,-190.5 638,-190.5"/>
<text text-anchor="middle" x="719.5" y="-197.5" font-family="Helvetica,sans-Serif" font-size="10.00" fill="#000000">DataFormatsMID/ROFRecord.h</text>
</a>
</g>
</g>
<!-- Node0&#45;&gt;Node7 -->
<g id="edge9" class="edge">
<title>Node0&#45;&gt;Node7</title>
<path fill="none" stroke="#191970" d="M469.671,-254.3922C531.0223,-241.0349 612.7113,-223.2498 665.6997,-211.7133"/>
<polygon fill="#191970" stroke="#191970" points="666.5476,-215.1108 675.5741,-209.5635 665.0584,-208.271 666.5476,-215.1108"/>
</g>
<!-- Node14 -->
<g id="node15" class="node">
<title>Node14</title>
<g id="a_node15"><a xlink:href="../../d4/d54/DataFormats_2Detectors_2MUON_2MID_2include_2DataFormatsMID_2Track_8h.html" target="_top" xlink:title="Reconstructed MID track. ">
<polygon fill="none" stroke="#000000" points="483.5,-190.5 483.5,-209.5 619.5,-209.5 619.5,-190.5 483.5,-190.5"/>
<text text-anchor="middle" x="551.5" y="-197.5" font-family="Helvetica,sans-Serif" font-size="10.00" fill="#000000">DataFormatsMID/Track.h</text>
</a>
</g>
</g>
<!-- Node0&#45;&gt;Node14 -->
<g id="edge17" class="edge">
<title>Node0&#45;&gt;Node14</title>
<path fill="none" stroke="#191970" d="M446.0688,-246.3258C471.2504,-235.2612 499.5283,-222.8361 520.4544,-213.6413"/>
<polygon fill="#191970" stroke="#191970" points="522.0547,-216.7611 529.8019,-209.534 519.2387,-210.3525 522.0547,-216.7611"/>
</g>
<!-- Node16 -->
<g id="node17" class="node">
<title>Node16</title>
<g id="a_node17"><a xlink:href="../../de/d0c/GeometryTransformer_8h.html" target="_top" xlink:title="Geometry transformer for MID. ">
<polygon fill="none" stroke="#000000" points="1703.5,-190.5 1703.5,-209.5 1881.5,-209.5 1881.5,-190.5 1703.5,-190.5"/>
<text text-anchor="middle" x="1792.5" y="-197.5" font-family="Helvetica,sans-Serif" font-size="10.00" fill="#000000">MIDBase/GeometryTransformer.h</text>
</a>
</g>
</g>
<!-- Node0&#45;&gt;Node16 -->
<g id="edge20" class="edge">
<title>Node0&#45;&gt;Node16</title>
<path fill="none" stroke="#191970" d="M469.7211,-268.2087C714.0732,-255.6088 1428.8237,-218.7529 1692.9228,-205.1347"/>
<polygon fill="#191970" stroke="#191970" points="1693.4577,-208.6118 1703.2642,-204.6014 1693.0972,-201.6211 1693.4577,-208.6118"/>
</g>
<!-- Node4 -->
<g id="node5" class="node">
<title>Node4</title>
<polygon fill="none" stroke="#bfbfbf" points="301,-129 301,-148 358,-148 358,-129 301,-129"/>
<text text-anchor="middle" x="329.5" y="-136" font-family="Helvetica,sans-Serif" font-size="10.00" fill="#000000">ostream</text>
</g>
<!-- Node3&#45;&gt;Node4 -->
<g id="edge4" class="edge">
<title>Node3&#45;&gt;Node4</title>
<path fill="none" stroke="#191970" d="M229.0938,-190.3906C248.6553,-180.2811 279.6501,-164.2628 302.0309,-152.6962"/>
<polygon fill="#191970" stroke="#191970" points="303.76,-155.7425 311.0368,-148.0419 300.5461,-149.5238 303.76,-155.7425"/>
</g>
<!-- Node5 -->
<g id="node6" class="node">
<title>Node5</title>
<polygon fill="none" stroke="#bfbfbf" points="185.5,-62 185.5,-81 235.5,-81 235.5,-62 185.5,-62"/>
<text text-anchor="middle" x="210.5" y="-69" font-family="Helvetica,sans-Serif" font-size="10.00" fill="#000000">cstdint</text>
</g>
<!-- Node3&#45;&gt;Node5 -->
<g id="edge5" class="edge">
<title>Node3&#45;&gt;Node5</title>
<path fill="none" stroke="#191970" d="M210.5,-190.3416C210.5,-169.4114 210.5,-119.504 210.5,-91.4762"/>
<polygon fill="#191970" stroke="#191970" points="214.0001,-91.2704 210.5,-81.2705 207.0001,-91.2705 214.0001,-91.2704"/>
</g>
<!-- Node6&#45;&gt;Node4 -->
<g id="edge7" class="edge">
<title>Node6&#45;&gt;Node4</title>
<path fill="none" stroke="#191970" d="M377.5938,-190.3906C369.0272,-181.1478 355.8831,-166.966 345.4997,-155.7628"/>
<polygon fill="#191970" stroke="#191970" points="347.8965,-153.2 338.5318,-148.2449 342.7625,-157.9584 347.8965,-153.2"/>
</g>
<!-- Node6&#45;&gt;Node5 -->
<g id="edge8" class="edge">
<title>Node6&#45;&gt;Node5</title>
<path fill="none" stroke="#191970" d="M386.8388,-190.279C386.8537,-174.0911 384.4609,-141.5602 366.5,-123 327.1859,-82.3742 297.4625,-106.7744 244.5,-87 242.9123,-86.4072 241.2945,-85.774 239.6694,-85.1147"/>
<polygon fill="#191970" stroke="#191970" points="241.009,-81.881 230.439,-81.1551 238.2493,-88.314 241.009,-81.881"/>
</g>
<!-- Node8 -->
<g id="node9" class="node">
<title>Node8</title>
<g id="a_node9"><a xlink:href="../../d9/d80/InteractionRecord_8h.html" target="_top" xlink:title="CommonDataFormat/Interaction\lRecord.h">
<polygon fill="none" stroke="#000000" points="489.5,-123.5 489.5,-153.5 663.5,-153.5 663.5,-123.5 489.5,-123.5"/>
<text text-anchor="start" x="497.5" y="-141.5" font-family="Helvetica,sans-Serif" font-size="10.00" fill="#000000">CommonDataFormat/Interaction</text>
<text text-anchor="middle" x="576.5" y="-130.5" font-family="Helvetica,sans-Serif" font-size="10.00" fill="#000000">Record.h</text>
</a>
</g>
</g>
<!-- Node7&#45;&gt;Node8 -->
<g id="edge10" class="edge">
<title>Node7&#45;&gt;Node8</title>
<path fill="none" stroke="#191970" d="M697.1563,-190.3906C676.8174,-181.6435 646.1929,-168.4728 620.8874,-157.5897"/>
<polygon fill="#191970" stroke="#191970" points="622.051,-154.2802 611.4817,-153.5446 619.2854,-160.7107 622.051,-154.2802"/>
</g>
<!-- Node8&#45;&gt;Node5 -->
<g id="edge14" class="edge">
<title>Node8&#45;&gt;Node5</title>
<path fill="none" stroke="#191970" d="M489.4251,-131.5634C421.6047,-124.5977 325.6643,-111.2925 244.5,-87 242.5889,-86.428 240.6464,-85.7698 238.7076,-85.0543"/>
<polygon fill="#191970" stroke="#191970" points="239.7857,-81.713 229.2066,-81.134 237.1156,-88.1838 239.7857,-81.713"/>
</g>
<!-- Node9 -->
<g id="node10" class="node">
<title>Node9</title>
<g id="a_node10"><a xlink:href="../../d2/d45/GPUCommonRtypes_8h.html" target="_top" xlink:title="GPUCommonRtypes.h">
<polygon fill="none" stroke="#000000" points="462,-62 462,-81 587,-81 587,-62 462,-62"/>
<text text-anchor="middle" x="524.5" y="-69" font-family="Helvetica,sans-Serif" font-size="10.00" fill="#000000">GPUCommonRtypes.h</text>
</a>
</g>
</g>
<!-- Node8&#45;&gt;Node9 -->
<g id="edge11" class="edge">
<title>Node8&#45;&gt;Node9</title>
<path fill="none" stroke="#191970" d="M564.7004,-123.2967C556.8345,-113.1618 546.4673,-99.804 538.2312,-89.1921"/>
<polygon fill="#191970" stroke="#191970" points="540.812,-86.8089 531.9158,-81.055 535.2821,-91.1008 540.812,-86.8089"/>
</g>
<!-- Node11 -->
<g id="node12" class="node">
<title>Node11</title>
<polygon fill="none" stroke="#bfbfbf" points="670,-62 670,-81 719,-81 719,-62 670,-62"/>
<text text-anchor="middle" x="694.5" y="-69" font-family="Helvetica,sans-Serif" font-size="10.00" fill="#000000">iosfwd</text>
</g>
<!-- Node8&#45;&gt;Node11 -->
<g id="edge13" class="edge">
<title>Node8&#45;&gt;Node11</title>
<path fill="none" stroke="#191970" d="M602.9815,-123.4639C622.602,-112.3234 649.2,-97.2212 668.6649,-86.1691"/>
<polygon fill="#191970" stroke="#191970" points="670.6178,-89.0851 677.5856,-81.1039 667.1615,-82.9979 670.6178,-89.0851"/>
</g>
<!-- Node12 -->
<g id="node13" class="node">
<title>Node12</title>
<polygon fill="none" stroke="#bfbfbf" points="605,-62 605,-81 652,-81 652,-62 605,-62"/>
<text text-anchor="middle" x="628.5" y="-69" font-family="Helvetica,sans-Serif" font-size="10.00" fill="#000000">cmath</text>
</g>
<!-- Node8&#45;&gt;Node12 -->
<g id="edge15" class="edge">
<title>Node8&#45;&gt;Node12</title>
<path fill="none" stroke="#191970" d="M588.2996,-123.2967C596.1655,-113.1618 606.5327,-99.804 614.7688,-89.1921"/>
<polygon fill="#191970" stroke="#191970" points="617.7179,-91.1008 621.0842,-81.055 612.188,-86.8089 617.7179,-91.1008"/>
</g>
<!-- Node13 -->
<g id="node14" class="node">
<title>Node13</title>
<g id="a_node14"><a xlink:href="../../d4/dc6/LHCConstants_8h.html" target="_top" xlink:title="Header to collect LHC related constants. ">
<polygon fill="none" stroke="#000000" points="253.5,-62 253.5,-81 443.5,-81 443.5,-62 253.5,-62"/>
<text text-anchor="middle" x="348.5" y="-69" font-family="Helvetica,sans-Serif" font-size="10.00" fill="#000000">CommonConstants/LHCConstants.h</text>
</a>
</g>
</g>
<!-- Node8&#45;&gt;Node13 -->
<g id="edge16" class="edge">
<title>Node8&#45;&gt;Node13</title>
<path fill="none" stroke="#191970" d="M525.3323,-123.4639C484.7162,-111.5284 428.6253,-95.0456 390.5873,-83.8678"/>
<polygon fill="#191970" stroke="#191970" points="391.4275,-80.4667 380.8463,-81.0053 389.4539,-87.1828 391.4275,-80.4667"/>
</g>
<!-- Node10 -->
<g id="node11" class="node">
<title>Node10</title>
<polygon fill="none" stroke="#bfbfbf" points="1129,-.5 1129,-19.5 1188,-19.5 1188,-.5 1129,-.5"/>
<text text-anchor="middle" x="1158.5" y="-7.5" font-family="Helvetica,sans-Serif" font-size="10.00" fill="#000000">Rtypes.h</text>
</g>
<!-- Node9&#45;&gt;Node10 -->
<g id="edge12" class="edge">
<title>Node9&#45;&gt;Node10</title>
<path fill="none" stroke="#191970" d="M563.7599,-61.9503C574.0385,-59.7196 585.143,-57.5466 595.5,-56 790.4599,-26.8874 1026.3512,-15.1329 1118.7067,-11.426"/>
<polygon fill="#191970" stroke="#191970" points="1118.8794,-14.922 1128.7346,-11.0327 1118.605,-7.9274 1118.8794,-14.922"/>
</g>
<!-- Node14&#45;&gt;Node4 -->
<g id="edge19" class="edge">
<title>Node14&#45;&gt;Node4</title>
<path fill="none" stroke="#191970" d="M516.8125,-190.3906C476.4805,-179.2176 410.0957,-160.8272 368.1452,-149.2058"/>
<polygon fill="#191970" stroke="#191970" points="368.8665,-145.7738 358.295,-146.477 366.9977,-152.5198 368.8665,-145.7738"/>
</g>
<!-- Node15 -->
<g id="node16" class="node">
<title>Node15</title>
<polygon fill="none" stroke="#bfbfbf" points="2211.5,-62 2211.5,-81 2253.5,-81 2253.5,-62 2211.5,-62"/>
<text text-anchor="middle" x="2232.5" y="-69" font-family="Helvetica,sans-Serif" font-size="10.00" fill="#000000">array</text>
</g>
<!-- Node14&#45;&gt;Node15 -->
<g id="edge18" class="edge">
<title>Node14&#45;&gt;Node15</title>
<path fill="none" stroke="#191970" d="M619.8984,-190.7795C622.8022,-190.4948 625.6787,-190.2329 628.5,-190 1077.037,-152.978 1191.775,-188.6688 1640.5,-154 1703.1998,-149.1558 2142.3809,-105.4505 2202.5,-87 2203.9712,-86.5485 2205.4561,-86.0266 2206.9364,-85.4535"/>
<polygon fill="#191970" stroke="#191970" points="2208.7897,-88.4558 2216.4457,-81.1321 2205.8936,-82.083 2208.7897,-88.4558"/>
</g>
<!-- Node16&#45;&gt;Node15 -->
<g id="edge21" class="edge">
<title>Node16&#45;&gt;Node15</title>
<path fill="none" stroke="#191970" d="M1839.0133,-190.4969C1916.1221,-174.0143 2074.6066,-137.0342 2202.5,-87 2203.6977,-86.5314 2204.9104,-86.0294 2206.1268,-85.503"/>
<polygon fill="#191970" stroke="#191970" points="2207.7937,-88.5863 2215.3343,-81.1438 2204.7984,-82.2595 2207.7937,-88.5863"/>
</g>
<!-- Node17 -->
<g id="node18" class="node">
<title>Node17</title>
<g id="a_node18"><a xlink:href="../../dc/de4/DetectorParameters_8h.html" target="_top" xlink:title="Useful detector parameters for MID. ">
<polygon fill="none" stroke="#000000" points="2148,-129 2148,-148 2317,-148 2317,-129 2148,-129"/>
<text text-anchor="middle" x="2232.5" y="-136" font-family="Helvetica,sans-Serif" font-size="10.00" fill="#000000">MIDBase/DetectorParameters.h</text>
</a>
</g>
</g>
<!-- Node16&#45;&gt;Node17 -->
<g id="edge22" class="edge">
<title>Node16&#45;&gt;Node17</title>
<path fill="none" stroke="#191970" d="M1860.7672,-190.4581C1940.2113,-179.354 2071.1237,-161.056 2154.5081,-149.4011"/>
<polygon fill="#191970" stroke="#191970" points="2155.0154,-152.8643 2164.4346,-148.0137 2154.0464,-145.9317 2155.0154,-152.8643"/>
</g>
<!-- Node19 -->
<g id="node20" class="node">
<title>Node19</title>
<g id="a_node20"><a xlink:href="../../dc/d73/Cartesian_8h.html" target="_top" xlink:title="MathUtils/Cartesian.h">
<polygon fill="none" stroke="#000000" points="1509.5,-129 1509.5,-148 1631.5,-148 1631.5,-129 1509.5,-129"/>
<text text-anchor="middle" x="1570.5" y="-136" font-family="Helvetica,sans-Serif" font-size="10.00" fill="#000000">MathUtils/Cartesian.h</text>
</a>
</g>
</g>
<!-- Node16&#45;&gt;Node19 -->
<g id="edge25" class="edge">
<title>Node16&#45;&gt;Node19</title>
<path fill="none" stroke="#191970" d="M1757.8125,-190.3906C1719.2016,-179.6944 1656.714,-162.3836 1614.6452,-150.7294"/>
<polygon fill="#191970" stroke="#191970" points="1615.5154,-147.3387 1604.9439,-148.0419 1613.6465,-154.0847 1615.5154,-147.3387"/>
</g>
<!-- Node17&#45;&gt;Node15 -->
<g id="edge23" class="edge">
<title>Node17&#45;&gt;Node15</title>
<path fill="none" stroke="#191970" d="M2232.5,-128.9005C2232.5,-119.149 2232.5,-103.7597 2232.5,-91.3695"/>
<polygon fill="#191970" stroke="#191970" points="2236.0001,-91.0816 2232.5,-81.0817 2229.0001,-91.0817 2236.0001,-91.0816"/>
</g>
<!-- Node18 -->
<g id="node19" class="node">
<title>Node18</title>
<polygon fill="none" stroke="#bfbfbf" points="2271.5,-62 2271.5,-81 2315.5,-81 2315.5,-62 2271.5,-62"/>
<text text-anchor="middle" x="2293.5" y="-69" font-family="Helvetica,sans-Serif" font-size="10.00" fill="#000000">string</text>
</g>
<!-- Node17&#45;&gt;Node18 -->
<g id="edge24" class="edge">
<title>Node17&#45;&gt;Node18</title>
<path fill="none" stroke="#191970" d="M2241.2398,-128.9005C2250.7522,-118.4525 2266.157,-101.5325 2277.7825,-88.7635"/>
<polygon fill="#191970" stroke="#191970" points="2280.6322,-90.8324 2284.7764,-81.0817 2275.4561,-86.1198 2280.6322,-90.8324"/>
</g>
<!-- Node19&#45;&gt;Node10 -->
<g id="edge33" class="edge">
<title>Node19&#45;&gt;Node10</title>
<path fill="none" stroke="#191970" d="M1631.5365,-133.7696C1706.9878,-125.7375 1820.1747,-105.2127 1774.5,-56 1754.8558,-34.8341 1332.0996,-16.7179 1198.5541,-11.5058"/>
<polygon fill="#191970" stroke="#191970" points="1198.4823,-8.0005 1188.3544,-11.111 1198.2115,-14.9953 1198.4823,-8.0005"/>
</g>
<!-- Node19&#45;&gt;Node11 -->
<g id="edge35" class="edge">
<title>Node19&#45;&gt;Node11</title>
<path fill="none" stroke="#191970" d="M1509.2917,-137.6497C1341.4432,-134.8589 876.5516,-123.9237 728.5,-87 726.3009,-86.4515 724.0688,-85.7641 721.8536,-84.9858"/>
<polygon fill="#191970" stroke="#191970" points="722.9873,-81.6685 712.4056,-81.1415 720.3491,-88.1524 722.9873,-81.6685"/>
</g>
<!-- Node20 -->
<g id="node21" class="node">
<title>Node20</title>
<polygon fill="none" stroke="#bfbfbf" points="1821.5,-56.5 1821.5,-86.5 1985.5,-86.5 1985.5,-56.5 1821.5,-56.5"/>
<text text-anchor="start" x="1829.5" y="-74.5" font-family="Helvetica,sans-Serif" font-size="10.00" fill="#000000">Math/GenVector/Displacement</text>
<text text-anchor="middle" x="1903.5" y="-63.5" font-family="Helvetica,sans-Serif" font-size="10.00" fill="#000000">Vector3D.h</text>
</g>
<!-- Node19&#45;&gt;Node20 -->
<g id="edge26" class="edge">
<title>Node19&#45;&gt;Node20</title>
<path fill="none" stroke="#191970" d="M1617.8571,-128.9717C1670.0127,-118.4779 1754.9222,-101.394 1818.6371,-88.5745"/>
<polygon fill="#191970" stroke="#191970" points="1819.5595,-91.9591 1828.6727,-86.5553 1818.1787,-85.0967 1819.5595,-91.9591"/>
</g>
<!-- Node21 -->
<g id="node22" class="node">
<title>Node21</title>
<polygon fill="none" stroke="#bfbfbf" points="2004,-62 2004,-81 2193,-81 2193,-62 2004,-62"/>
<text text-anchor="middle" x="2098.5" y="-69" font-family="Helvetica,sans-Serif" font-size="10.00" fill="#000000">Math/GenVector/PositionVector3D.h</text>
</g>
<!-- Node19&#45;&gt;Node21 -->
<g id="edge27" class="edge">
<title>Node19&#45;&gt;Node21</title>
<path fill="none" stroke="#191970" d="M1631.6532,-131.5987C1714.125,-122.1712 1865.5368,-104.4391 1994.5,-87 2004.7818,-85.6096 2015.6244,-84.0726 2026.272,-82.5226"/>
<polygon fill="#191970" stroke="#191970" points="2027.0103,-85.9519 2036.3961,-81.0369 2025.9939,-79.026 2027.0103,-85.9519"/>
</g>
<!-- Node22 -->
<g id="node23" class="node">
<title>Node22</title>
<polygon fill="none" stroke="#bfbfbf" points="737.5,-62 737.5,-81 897.5,-81 897.5,-62 737.5,-62"/>
<text text-anchor="middle" x="817.5" y="-69" font-family="Helvetica,sans-Serif" font-size="10.00" fill="#000000">Math/GenVector/Rotation3D.h</text>
</g>
<!-- Node19&#45;&gt;Node22 -->
<g id="edge28" class="edge">
<title>Node19&#45;&gt;Node22</title>
<path fill="none" stroke="#191970" d="M1509.4255,-135.7072C1392.1923,-129.9164 1127.6287,-114.7672 906.5,-87 897.0292,-85.8107 887.0315,-84.3109 877.2926,-82.7154"/>
<polygon fill="#191970" stroke="#191970" points="877.7128,-79.237 867.2703,-81.0271 876.5499,-86.1397 877.7128,-79.237"/>
</g>
<!-- Node23 -->
<g id="node24" class="node">
<title>Node23</title>
<polygon fill="none" stroke="#bfbfbf" points="915.5,-62 915.5,-81 1083.5,-81 1083.5,-62 915.5,-62"/>
<text text-anchor="middle" x="999.5" y="-69" font-family="Helvetica,sans-Serif" font-size="10.00" fill="#000000">Math/GenVector/Transform3D.h</text>
</g>
<!-- Node19&#45;&gt;Node23 -->
<g id="edge29" class="edge">
<title>Node19&#45;&gt;Node23</title>
<path fill="none" stroke="#191970" d="M1509.3762,-133.0029C1418.501,-124.5807 1242.4674,-107.3075 1093.5,-87 1084.0127,-85.7067 1074.0094,-84.2057 1064.2085,-82.657"/>
<polygon fill="#191970" stroke="#191970" points="1064.527,-79.1634 1054.0984,-81.0327 1063.4165,-86.0748 1064.527,-79.1634"/>
</g>
<!-- Node24 -->
<g id="node25" class="node">
<title>Node24</title>
<polygon fill="none" stroke="#bfbfbf" points="1102,-62 1102,-81 1275,-81 1275,-62 1102,-62"/>
<text text-anchor="middle" x="1188.5" y="-69" font-family="Helvetica,sans-Serif" font-size="10.00" fill="#000000">Math/GenVector/Translation3D.h</text>
</g>
<!-- Node19&#45;&gt;Node24 -->
<g id="edge30" class="edge">
<title>Node19&#45;&gt;Node24</title>
<path fill="none" stroke="#191970" d="M1516.1744,-128.9717C1446.827,-116.8087 1327.0015,-95.7921 1253.0652,-82.8243"/>
<polygon fill="#191970" stroke="#191970" points="1253.4014,-79.3299 1242.9471,-81.0496 1252.1921,-86.2246 1253.4014,-79.3299"/>
</g>
<!-- Node25 -->
<g id="node26" class="node">
<title>Node25</title>
<polygon fill="none" stroke="#bfbfbf" points="1293.5,-56.5 1293.5,-86.5 1457.5,-86.5 1457.5,-56.5 1293.5,-56.5"/>
<text text-anchor="start" x="1301.5" y="-74.5" font-family="Helvetica,sans-Serif" font-size="10.00" fill="#000000">Math/GenVector/Displacement</text>
<text text-anchor="middle" x="1375.5" y="-63.5" font-family="Helvetica,sans-Serif" font-size="10.00" fill="#000000">Vector2D.h</text>
</g>
<!-- Node19&#45;&gt;Node25 -->
<g id="edge31" class="edge">
<title>Node19&#45;&gt;Node25</title>
<path fill="none" stroke="#191970" d="M1542.5613,-128.9005C1512.9796,-118.7366 1465.5721,-102.4479 1428.8023,-89.8141"/>
<polygon fill="#191970" stroke="#191970" points="1429.8147,-86.4612 1419.2201,-86.5218 1427.5401,-93.0813 1429.8147,-86.4612"/>
</g>
<!-- Node26 -->
<g id="node27" class="node">
<title>Node26</title>
<polygon fill="none" stroke="#bfbfbf" points="1476,-62 1476,-81 1665,-81 1665,-62 1476,-62"/>
<text text-anchor="middle" x="1570.5" y="-69" font-family="Helvetica,sans-Serif" font-size="10.00" fill="#000000">Math/GenVector/PositionVector2D.h</text>
</g>
<!-- Node19&#45;&gt;Node26 -->
<g id="edge32" class="edge">
<title>Node19&#45;&gt;Node26</title>
<path fill="none" stroke="#191970" d="M1570.5,-128.9005C1570.5,-119.149 1570.5,-103.7597 1570.5,-91.3695"/>
<polygon fill="#191970" stroke="#191970" points="1574.0001,-91.0816 1570.5,-81.0817 1567.0001,-91.0817 1574.0001,-91.0816"/>
</g>
<!-- Node27 -->
<g id="node28" class="node">
<title>Node27</title>
<polygon fill="none" stroke="#bfbfbf" points="1683.5,-62 1683.5,-81 1765.5,-81 1765.5,-62 1683.5,-62"/>
<text text-anchor="middle" x="1724.5" y="-69" font-family="Helvetica,sans-Serif" font-size="10.00" fill="#000000">TGeoMatrix.h</text>
</g>
<!-- Node19&#45;&gt;Node27 -->
<g id="edge34" class="edge">
<title>Node19&#45;&gt;Node27</title>
<path fill="none" stroke="#191970" d="M1592.5644,-128.9005C1618.8665,-117.4574 1663.0128,-98.2509 1692.9245,-85.2374"/>
<polygon fill="#191970" stroke="#191970" points="1694.703,-88.2806 1702.4765,-81.0817 1691.9104,-81.8617 1694.703,-88.2806"/>
</g>
</g>
</svg>
        <g id="navigator" transform="translate(0 0)" fill="#404254">
                <rect fill="#f2f5e9" fill-opacity="0.5" stroke="#606060" stroke-width=".5" x="0" y="0" width="60" height="60"/>
                <use id="zoomplus" xlink:href="#zoomPlus" x="17" y="9" onmousedown="handleZoom(evt,'in')"/>
                <use id="zoomminus" xlink:href="#zoomMin" x="42" y="9" onmousedown="handleZoom(evt,'out')"/>
                <use id="reset" xlink:href="#resetDef" x="30" y="36" onmousedown="handleReset()"/>
                <g id="arrowUp" xlink:href="#dirArrow" transform="translate(30 24)" onmousedown="handlePan(0,-1)">
                  <use xlink:href="#rim" fill="#404040">
                        <set attributeName="fill" to="#808080" begin="arrowUp.mouseover" end="arrowUp.mouseout"/>
                  </use>
                  <path fill="none" stroke="white" stroke-width="1.5" d="M0,-3.0v7 M-2.5,-0.5L0,-3.0L2.5,-0.5"/>
                </g>
                <g id="arrowRight" xlink:href="#dirArrow" transform="rotate(90) translate(36 -43)" onmousedown="handlePan(1,0)">
                  <use xlink:href="#rim" fill="#404040">
                        <set attributeName="fill" to="#808080" begin="arrowRight.mouseover" end="arrowRight.mouseout"/>
                  </use>
                  <path fill="none" stroke="white" stroke-width="1.5" d="M0,-3.0v7 M-2.5,-0.5L0,-3.0L2.5,-0.5"/>
                </g>
                <g id="arrowDown" xlink:href="#dirArrow" transform="rotate(180) translate(-30 -48)" onmousedown="handlePan(0,1)">
                  <use xlink:href="#rim" fill="#404040">
                        <set attributeName="fill" to="#808080" begin="arrowDown.mouseover" end="arrowDown.mouseout"/>
                  </use>
                  <path fill="none" stroke="white" stroke-width="1.5" d="M0,-3.0v7 M-2.5,-0.5L0,-3.0L2.5,-0.5"/>
                </g>
                <g id="arrowLeft" xlink:href="#dirArrow" transform="rotate(270) translate(-36 17)" onmousedown="handlePan(-1,0)">
                  <use xlink:href="#rim" fill="#404040">
                        <set attributeName="fill" to="#808080" begin="arrowLeft.mouseover" end="arrowLeft.mouseout"/>
                  </use>
                  <path fill="none" stroke="white" stroke-width="1.5" d="M0,-3.0v7 M-2.5,-0.5L0,-3.0L2.5,-0.5"/>
                </g>
        </g>
        <svg viewBox="0 0 15 15" width="100%" height="30px" preserveAspectRatio="xMaxYMin meet">
         <g id="arrow_out" transform="scale(0.3 0.3)">
          <a xlink:href="MUON_2MID_2Tracking_2include_2MIDTracking_2Tracker_8h__incl_org.svg" target="_base">
           <rect id="button" ry="5" rx="5" y="6" x="6" height="38" width="38"
                fill="#f2f5e9" fill-opacity="0.5" stroke="#606060" stroke-width="1.0"/>
           <path id="arrow"
             d="M 11.500037,31.436501 C 11.940474,20.09759 22.043105,11.32322 32.158766,21.979434 L 37.068811,17.246167 C 37.068811,17.246167 37.088388,32 37.088388,32 L 22.160133,31.978069 C 22.160133,31.978069 26.997745,27.140456 26.997745,27.140456 C 18.528582,18.264221 13.291696,25.230495 11.500037,31.436501 z"
             style="fill:#404040;"/>
          </a>
         </g>
        </svg>
</svg>
