<?xml version="1.0" encoding="UTF-8" standalone="no"?>
<!DOCTYPE svg PUBLIC "-//W3C//DTD SVG 1.1//EN"
 "http://www.w3.org/Graphics/SVG/1.1/DTD/svg11.dtd">
<!-- Generated by graphviz version 2.40.1 (20161225.0304)
 -->
<!-- Title: /home/travis/build/AliceO2Group/AliceO2/Detectors/Base/include/DetectorsBase/BaseDPLDigitizer.h Pages: 1 -->
<svg width="4789pt" height="877pt"
 viewBox="0.00 0.00 4788.63 877.00" xmlns="http://www.w3.org/2000/svg" xmlns:xlink="http://www.w3.org/1999/xlink">
<g id="graph0" class="graph" transform="scale(1 1) rotate(0) translate(4 873)">
<title>/home/travis/build/AliceO2Group/AliceO2/Detectors/Base/include/DetectorsBase/BaseDPLDigitizer.h</title>
<!-- Node0 -->
<g id="node1" class="node">
<title>Node0</title>
<polygon fill="#bfbfbf" stroke="#000000" points="3371.6334,-816.5 3371.6334,-868.5 3557.6334,-868.5 3557.6334,-816.5 3371.6334,-816.5"/>
<text text-anchor="start" x="3379.6334" y="-856.5" font-family="Helvetica,sans-Serif" font-size="10.00" fill="#000000">/home/travis/build</text>
<text text-anchor="start" x="3379.6334" y="-845.5" font-family="Helvetica,sans-Serif" font-size="10.00" fill="#000000">/AliceO2Group/AliceO2</text>
<text text-anchor="start" x="3379.6334" y="-834.5" font-family="Helvetica,sans-Serif" font-size="10.00" fill="#000000">/Detectors/Base/include</text>
<text text-anchor="middle" x="3464.6334" y="-823.5" font-family="Helvetica,sans-Serif" font-size="10.00" fill="#000000">/DetectorsBase/BaseDPLDigitizer.h</text>
</g>
<!-- Node1 -->
<g id="node2" class="node">
<title>Node1</title>
<g id="a_node2"><a xlink:href="../../d4/d2b/InitContext_8h.html" target="_top" xlink:title="Framework/InitContext.h">
<polygon fill="none" stroke="#000000" points="2323.1334,-760.5 2323.1334,-779.5 2460.1334,-779.5 2460.1334,-760.5 2323.1334,-760.5"/>
<text text-anchor="middle" x="2391.6334" y="-767.5" font-family="Helvetica,sans-Serif" font-size="10.00" fill="#000000">Framework/InitContext.h</text>
</a>
</g>
</g>
<!-- Node0&#45;&gt;Node1 -->
<g id="edge1" class="edge">
<title>Node0&#45;&gt;Node1</title>
<path fill="none" stroke="#191970" d="M3371.5374,-838.6675C3196.965,-831.0381 2808.3526,-811.9608 2470.4906,-780.0247"/>
<polygon fill="#191970" stroke="#191970" points="2470.7961,-776.5381 2460.5098,-779.0761 2470.1337,-783.5067 2470.7961,-776.5381"/>
</g>
<!-- Node2 -->
<g id="node3" class="node">
<title>Node2</title>
<g id="a_node3"><a xlink:href="../../d2/df9/Propagator_8h.html" target="_top" xlink:title="DetectorsBase/Propagator.h">
<polygon fill="none" stroke="#000000" points="2478.6334,-760.5 2478.6334,-779.5 2630.6334,-779.5 2630.6334,-760.5 2478.6334,-760.5"/>
<text text-anchor="middle" x="2554.6334" y="-767.5" font-family="Helvetica,sans-Serif" font-size="10.00" fill="#000000">DetectorsBase/Propagator.h</text>
</a>
</g>
</g>
<!-- Node0&#45;&gt;Node2 -->
<g id="edge2" class="edge">
<title>Node0&#45;&gt;Node2</title>
<path fill="none" stroke="#191970" d="M3371.5239,-835.0819C3194.5351,-820.9812 2811.9569,-790.501 2640.637,-776.8519"/>
<polygon fill="#191970" stroke="#191970" points="2640.8999,-773.3619 2630.6535,-776.0565 2640.3439,-780.3398 2640.8999,-773.3619"/>
</g>
<!-- Node36 -->
<g id="node37" class="node">
<title>Node36</title>
<polygon fill="none" stroke="#bfbfbf" points="4126.6334,-112.5 4126.6334,-131.5 4176.6334,-131.5 4176.6334,-112.5 4126.6334,-112.5"/>
<text text-anchor="middle" x="4151.6334" y="-119.5" font-family="Helvetica,sans-Serif" font-size="10.00" fill="#000000">cstdint</text>
</g>
<!-- Node0&#45;&gt;Node36 -->
<g id="edge146" class="edge">
<title>Node0&#45;&gt;Node36</title>
<path fill="none" stroke="#191970" d="M3557.6521,-837.538C3778.9901,-824.491 4318.6334,-784.8522 4318.6334,-708.5 4318.6334,-708.5 4318.6334,-708.5 4318.6334,-239.5 4318.6334,-175.4588 4235.4734,-143.2902 4186.5197,-129.9016"/>
<polygon fill="#191970" stroke="#191970" points="4187.1945,-126.4606 4176.635,-127.3249 4185.4288,-133.2342 4187.1945,-126.4606"/>
</g>
<!-- Node71 -->
<g id="node72" class="node">
<title>Node71</title>
<g id="a_node72"><a xlink:href="../../de/d28/GRPObject_8h.html" target="_top" xlink:title="Header of the General Run Parameters object. ">
<polygon fill="none" stroke="#000000" points="4347.1334,-358.5 4347.1334,-388.5 4482.1334,-388.5 4482.1334,-358.5 4347.1334,-358.5"/>
<text text-anchor="start" x="4355.1334" y="-376.5" font-family="Helvetica,sans-Serif" font-size="10.00" fill="#000000">DataFormatsParameters</text>
<text text-anchor="middle" x="4414.6334" y="-365.5" font-family="Helvetica,sans-Serif" font-size="10.00" fill="#000000">/GRPObject.h</text>
</a>
</g>
</g>
<!-- Node0&#45;&gt;Node71 -->
<g id="edge139" class="edge">
<title>Node0&#45;&gt;Node71</title>
<path fill="none" stroke="#191970" d="M3558.0067,-840.1583C3768.3278,-834.2597 4266.0534,-816.5803 4332.6334,-780 4367.3017,-760.9526 4385.6334,-748.0562 4385.6334,-708.5 4385.6334,-708.5 4385.6334,-708.5 4385.6334,-507.5 4385.6334,-468.6258 4397.4366,-424.8139 4405.9828,-398.1867"/>
<polygon fill="#191970" stroke="#191970" points="4409.3551,-399.1364 4409.1787,-388.543 4402.7105,-396.9343 4409.3551,-399.1364"/>
</g>
<!-- Node3 -->
<g id="node4" class="node">
<title>Node3</title>
<polygon fill="none" stroke="#bfbfbf" points="2497.6334,-168.5 2497.6334,-187.5 2541.6334,-187.5 2541.6334,-168.5 2497.6334,-168.5"/>
<text text-anchor="middle" x="2519.6334" y="-175.5" font-family="Helvetica,sans-Serif" font-size="10.00" fill="#000000">string</text>
</g>
<!-- Node2&#45;&gt;Node3 -->
<g id="edge3" class="edge">
<title>Node2&#45;&gt;Node3</title>
<path fill="none" stroke="#191970" d="M2550.0578,-760.2508C2540.5706,-739.114 2519.6334,-687.2811 2519.6334,-641.5 2519.6334,-641.5 2519.6334,-641.5 2519.6334,-507.5 2519.6334,-410.2964 2563.6076,-387.3339 2550.6334,-291 2546.1065,-257.388 2534.3281,-219.6298 2526.6632,-197.3812"/>
<polygon fill="#191970" stroke="#191970" points="2529.9077,-196.0575 2523.2806,-187.7912 2523.3063,-198.386 2529.9077,-196.0575"/>
</g>
<!-- Node4 -->
<g id="node5" class="node">
<title>Node4</title>
<g id="a_node5"><a xlink:href="../../d3/d9d/PhysicsConstants_8h.html" target="_top" xlink:title="Header to collect physics constants. ">
<polygon fill="none" stroke="#000000" points="215.1334,-364 215.1334,-383 422.1334,-383 422.1334,-364 215.1334,-364"/>
<text text-anchor="middle" x="318.6334" y="-371" font-family="Helvetica,sans-Serif" font-size="10.00" fill="#000000">CommonConstants/PhysicsConstants.h</text>
</a>
</g>
</g>
<!-- Node2&#45;&gt;Node4 -->
<g id="edge4" class="edge">
<title>Node2&#45;&gt;Node4</title>
<path fill="none" stroke="#191970" d="M2478.1991,-760.7979C2475.3084,-760.5166 2472.4455,-760.2492 2469.6334,-760 2359.7011,-750.2568 486.6334,-751.8632 486.6334,-641.5 486.6334,-641.5 486.6334,-641.5 486.6334,-507.5 486.6334,-443.1433 410.3539,-404.6754 360.5935,-386.4278"/>
<polygon fill="#191970" stroke="#191970" points="361.6203,-383.0786 351.0255,-383.0463 359.2876,-389.6786 361.6203,-383.0786"/>
</g>
<!-- Node5 -->
<g id="node6" class="node">
<title>Node5</title>
<g id="a_node6"><a xlink:href="../../d7/d8b/DataFormats_2Reconstruction_2include_2ReconstructionDataFormats_2Track_8h.html" target="_top" xlink:title="ReconstructionDataFormats\l/Track.h">
<polygon fill="none" stroke="#000000" points="2547.6334,-626.5 2547.6334,-656.5 2699.6334,-656.5 2699.6334,-626.5 2547.6334,-626.5"/>
<text text-anchor="start" x="2555.6334" y="-644.5" font-family="Helvetica,sans-Serif" font-size="10.00" fill="#000000">ReconstructionDataFormats</text>
<text text-anchor="middle" x="2623.6334" y="-633.5" font-family="Helvetica,sans-Serif" font-size="10.00" fill="#000000">/Track.h</text>
</a>
</g>
</g>
<!-- Node2&#45;&gt;Node5 -->
<g id="edge5" class="edge">
<title>Node2&#45;&gt;Node5</title>
<path fill="none" stroke="#191970" d="M2559.8196,-760.3416C2570.5197,-740.4146 2595.3238,-694.2215 2610.6649,-665.6516"/>
<polygon fill="#191970" stroke="#191970" points="2613.8234,-667.1676 2615.4707,-656.7016 2607.6563,-663.856 2613.8234,-667.1676"/>
</g>
<!-- Node63 -->
<g id="node64" class="node">
<title>Node63</title>
<g id="a_node64"><a xlink:href="../../d7/d99/DCA_8h.html" target="_top" xlink:title="ReconstructionDataFormats\l/DCA.h">
<polygon fill="none" stroke="#000000" points="2389.6334,-291.5 2389.6334,-321.5 2541.6334,-321.5 2541.6334,-291.5 2389.6334,-291.5"/>
<text text-anchor="start" x="2397.6334" y="-309.5" font-family="Helvetica,sans-Serif" font-size="10.00" fill="#000000">ReconstructionDataFormats</text>
<text text-anchor="middle" x="2465.6334" y="-298.5" font-family="Helvetica,sans-Serif" font-size="10.00" fill="#000000">/DCA.h</text>
</a>
</g>
</g>
<!-- Node2&#45;&gt;Node63 -->
<g id="edge103" class="edge">
<title>Node2&#45;&gt;Node63</title>
<path fill="none" stroke="#191970" d="M2540.6485,-760.2073C2529.6269,-751.7961 2514.6601,-738.7219 2505.6334,-724 2485.6727,-691.4455 2481.6334,-679.6867 2481.6334,-641.5 2481.6334,-641.5 2481.6334,-641.5 2481.6334,-440.5 2481.6334,-402.4048 2475.1788,-358.6445 2470.4689,-331.7835"/>
<polygon fill="#191970" stroke="#191970" points="2473.8692,-330.9185 2468.6429,-321.7024 2466.9813,-332.1661 2473.8692,-330.9185"/>
</g>
<!-- Node64 -->
<g id="node65" class="node">
<title>Node64</title>
<g id="a_node65"><a xlink:href="../../d6/db1/TrackLTIntegral_8h.html" target="_top" xlink:title="Track Length and TOF integral. ">
<polygon fill="none" stroke="#000000" points="302.6334,-693.5 302.6334,-723.5 454.6334,-723.5 454.6334,-693.5 302.6334,-693.5"/>
<text text-anchor="start" x="310.6334" y="-711.5" font-family="Helvetica,sans-Serif" font-size="10.00" fill="#000000">ReconstructionDataFormats</text>
<text text-anchor="middle" x="378.6334" y="-700.5" font-family="Helvetica,sans-Serif" font-size="10.00" fill="#000000">/TrackLTIntegral.h</text>
</a>
</g>
</g>
<!-- Node2&#45;&gt;Node64 -->
<g id="edge107" class="edge">
<title>Node2&#45;&gt;Node64</title>
<path fill="none" stroke="#191970" d="M2478.2109,-760.6472C2475.3169,-760.408 2472.4501,-760.1906 2469.6334,-760 1583.9592,-700.0665 1356.6824,-804.4253 472.6334,-724 470.0751,-723.7673 467.4813,-723.5057 464.8656,-723.2197"/>
<polygon fill="#191970" stroke="#191970" points="465.0421,-719.716 454.6974,-722.0045 464.2114,-726.6665 465.0421,-719.716"/>
</g>
<!-- Node65 -->
<g id="node66" class="node">
<title>Node65</title>
<g id="a_node66"><a xlink:href="../../d9/da9/MatLayerCylSet_8h.html" target="_top" xlink:title="Declarations for the wrapper for the set of cylindrical material layers. ">
<polygon fill="none" stroke="#000000" points="3841.6334,-425.5 3841.6334,-455.5 3993.6334,-455.5 3993.6334,-425.5 3841.6334,-425.5"/>
<text text-anchor="start" x="3849.6334" y="-443.5" font-family="Helvetica,sans-Serif" font-size="10.00" fill="#000000">DetectorsBase/MatLayerCyl</text>
<text text-anchor="middle" x="3917.6334" y="-432.5" font-family="Helvetica,sans-Serif" font-size="10.00" fill="#000000">Set.h</text>
</a>
</g>
</g>
<!-- Node2&#45;&gt;Node65 -->
<g id="edge111" class="edge">
<title>Node2&#45;&gt;Node65</title>
<path fill="none" stroke="#191970" d="M2630.7284,-765.7945C2831.3965,-753.694 3359.6334,-714.8725 3359.6334,-641.5 3359.6334,-641.5 3359.6334,-641.5 3359.6334,-574.5 3359.6334,-550.5391 3674.8196,-486.9047 3831.4263,-456.7655"/>
<polygon fill="#191970" stroke="#191970" points="3832.3469,-460.1527 3841.5073,-454.8295 3831.0266,-453.2783 3832.3469,-460.1527"/>
</g>
<!-- Node6 -->
<g id="node7" class="node">
<title>Node6</title>
<g id="a_node7"><a xlink:href="../../d2/d98/TrackParametrization_8h.html" target="_top" xlink:title="ReconstructionDataFormats\l/TrackParametrization.h">
<polygon fill="none" stroke="#000000" points="2569.6334,-492.5 2569.6334,-522.5 2721.6334,-522.5 2721.6334,-492.5 2569.6334,-492.5"/>
<text text-anchor="start" x="2577.6334" y="-510.5" font-family="Helvetica,sans-Serif" font-size="10.00" fill="#000000">ReconstructionDataFormats</text>
<text text-anchor="middle" x="2645.6334" y="-499.5" font-family="Helvetica,sans-Serif" font-size="10.00" fill="#000000">/TrackParametrization.h</text>
</a>
</g>
</g>
<!-- Node5&#45;&gt;Node6 -->
<g id="edge6" class="edge">
<title>Node5&#45;&gt;Node6</title>
<path fill="none" stroke="#191970" d="M2616.855,-626.3048C2610.3312,-609.5271 2602.4343,-581.8641 2609.6334,-559 2612.7945,-548.9605 2618.6865,-539.1732 2624.8019,-530.874"/>
<polygon fill="#191970" stroke="#191970" points="2627.7111,-532.837 2631.1505,-522.816 2622.2126,-528.5049 2627.7111,-532.837"/>
</g>
<!-- Node62 -->
<g id="node63" class="node">
<title>Node62</title>
<g id="a_node63"><a xlink:href="../../d3/d30/TrackParametrizationWithError_8h.html" target="_top" xlink:title="ReconstructionDataFormats\l/TrackParametrizationWithError.h">
<polygon fill="none" stroke="#000000" points="2618.6334,-559.5 2618.6334,-589.5 2794.6334,-589.5 2794.6334,-559.5 2618.6334,-559.5"/>
<text text-anchor="start" x="2626.6334" y="-577.5" font-family="Helvetica,sans-Serif" font-size="10.00" fill="#000000">ReconstructionDataFormats</text>
<text text-anchor="middle" x="2706.6334" y="-566.5" font-family="Helvetica,sans-Serif" font-size="10.00" fill="#000000">/TrackParametrizationWithError.h</text>
</a>
</g>
</g>
<!-- Node5&#45;&gt;Node62 -->
<g id="edge101" class="edge">
<title>Node5&#45;&gt;Node62</title>
<path fill="none" stroke="#191970" d="M2642.4674,-626.2967C2653.5039,-617.3876 2667.6256,-605.9882 2679.8099,-596.1527"/>
<polygon fill="#191970" stroke="#191970" points="2682.2912,-598.6478 2687.8739,-589.6432 2677.8943,-593.201 2682.2912,-598.6478"/>
</g>
<!-- Node6&#45;&gt;Node3 -->
<g id="edge77" class="edge">
<title>Node6&#45;&gt;Node3</title>
<path fill="none" stroke="#191970" d="M2633.4545,-492.2988C2626.4467,-482.5503 2618.3199,-469.2728 2614.6334,-456 2610.9462,-442.7248 2612.0968,-438.5423 2614.6334,-425 2631.9441,-332.5812 2737.2554,-299.0655 2680.6334,-224 2676.6562,-218.7273 2597.1718,-197.7546 2551.4016,-186.0329"/>
<polygon fill="#191970" stroke="#191970" points="2552.1974,-182.6238 2541.6425,-183.5428 2550.4668,-189.4066 2552.1974,-182.6238"/>
</g>
<!-- Node7 -->
<g id="node8" class="node">
<title>Node7</title>
<g id="a_node8"><a xlink:href="../../d2/d45/GPUCommonRtypes_8h.html" target="_top" xlink:title="GPUCommonRtypes.h">
<polygon fill="none" stroke="#000000" points="589.1334,-168.5 589.1334,-187.5 714.1334,-187.5 714.1334,-168.5 589.1334,-168.5"/>
<text text-anchor="middle" x="651.6334" y="-175.5" font-family="Helvetica,sans-Serif" font-size="10.00" fill="#000000">GPUCommonRtypes.h</text>
</a>
</g>
</g>
<!-- Node6&#45;&gt;Node7 -->
<g id="edge7" class="edge">
<title>Node6&#45;&gt;Node7</title>
<path fill="none" stroke="#191970" d="M2569.5439,-506.5705C2199.0494,-501.556 601.6334,-474.1024 601.6334,-373.5 601.6334,-373.5 601.6334,-373.5 601.6334,-306.5 601.6334,-264.6565 624.9442,-220.0457 639.7326,-195.9548"/>
<polygon fill="#191970" stroke="#191970" points="642.6947,-197.8192 645.0968,-187.5002 636.784,-194.069 642.6947,-197.8192"/>
</g>
<!-- Node9 -->
<g id="node10" class="node">
<title>Node9</title>
<polygon fill="none" stroke="#bfbfbf" points="3880.6334,-56.5 3880.6334,-75.5 3944.6334,-75.5 3944.6334,-56.5 3880.6334,-56.5"/>
<text text-anchor="middle" x="3912.6334" y="-63.5" font-family="Helvetica,sans-Serif" font-size="10.00" fill="#000000">algorithm</text>
</g>
<!-- Node6&#45;&gt;Node9 -->
<g id="edge9" class="edge">
<title>Node6&#45;&gt;Node9</title>
<path fill="none" stroke="#191970" d="M2721.7053,-505.2148C2937.7867,-498.4874 3545.2954,-477.8499 3632.6334,-456 3714.1052,-435.6177 3802.6334,-457.4827 3802.6334,-373.5 3802.6334,-373.5 3802.6334,-373.5 3802.6334,-306.5 3802.6334,-268.7713 3799.2137,-253.58 3822.6334,-224 3844.5952,-196.2613 3872.8462,-216.6295 3893.6334,-188 3915.6849,-157.6292 3916.4602,-111.7331 3914.7476,-85.7554"/>
<polygon fill="#191970" stroke="#191970" points="3918.2225,-85.3123 3913.8847,-75.6462 3911.2479,-85.9077 3918.2225,-85.3123"/>
</g>
<!-- Node10 -->
<g id="node11" class="node">
<title>Node10</title>
<polygon fill="none" stroke="#bfbfbf" points="2498.6334,-112.5 2498.6334,-131.5 2540.6334,-131.5 2540.6334,-112.5 2498.6334,-112.5"/>
<text text-anchor="middle" x="2519.6334" y="-119.5" font-family="Helvetica,sans-Serif" font-size="10.00" fill="#000000">array</text>
</g>
<!-- Node6&#45;&gt;Node10 -->
<g id="edge10" class="edge">
<title>Node6&#45;&gt;Node10</title>
<path fill="none" stroke="#191970" d="M2721.8464,-502.1479C2785.0405,-494.1714 2860.6358,-474.3284 2834.6334,-425 2747.7161,-260.1118 2575.5506,-352.8882 2488.6334,-188 2480.0295,-171.6779 2491.2711,-152.5478 2502.5495,-139.0979"/>
<polygon fill="#191970" stroke="#191970" points="2505.2816,-141.2951 2509.3996,-131.5333 2500.0929,-136.5964 2505.2816,-141.2951"/>
</g>
<!-- Node11 -->
<g id="node12" class="node">
<title>Node11</title>
<polygon fill="none" stroke="#bfbfbf" points="2623.6334,-431 2623.6334,-450 2667.6334,-450 2667.6334,-431 2623.6334,-431"/>
<text text-anchor="middle" x="2645.6334" y="-438" font-family="Helvetica,sans-Serif" font-size="10.00" fill="#000000">cfloat</text>
</g>
<!-- Node6&#45;&gt;Node11 -->
<g id="edge11" class="edge">
<title>Node6&#45;&gt;Node11</title>
<path fill="none" stroke="#191970" d="M2645.6334,-492.2967C2645.6334,-482.7699 2645.6334,-470.3954 2645.6334,-460.1306"/>
<polygon fill="#191970" stroke="#191970" points="2649.1335,-460.0549 2645.6334,-450.055 2642.1335,-460.055 2649.1335,-460.0549"/>
</g>
<!-- Node12 -->
<g id="node13" class="node">
<title>Node12</title>
<polygon fill="none" stroke="#bfbfbf" points="2481.1334,-56.5 2481.1334,-75.5 2528.1334,-75.5 2528.1334,-56.5 2481.1334,-56.5"/>
<text text-anchor="middle" x="2504.6334" y="-63.5" font-family="Helvetica,sans-Serif" font-size="10.00" fill="#000000">cmath</text>
</g>
<!-- Node6&#45;&gt;Node12 -->
<g id="edge12" class="edge">
<title>Node6&#45;&gt;Node12</title>
<path fill="none" stroke="#191970" d="M2569.4377,-506.6785C2165.5471,-502.225 291.1833,-480.2798 236.6334,-456 127.5654,-407.4545 77.6334,-358.8838 77.6334,-239.5 77.6334,-239.5 77.6334,-239.5 77.6334,-178 77.6334,-157.1747 -228.4642,-179.5971 376.6334,-112 593.069,-87.8214 2215.3825,-69.166 2470.8219,-66.3645"/>
<polygon fill="#191970" stroke="#191970" points="2471.0135,-69.8627 2480.9747,-66.2536 2470.937,-62.8631 2471.0135,-69.8627"/>
</g>
<!-- Node13 -->
<g id="node14" class="node">
<title>Node13</title>
<polygon fill="none" stroke="#bfbfbf" points="4050.6334,-168.5 4050.6334,-187.5 4100.6334,-187.5 4100.6334,-168.5 4050.6334,-168.5"/>
<text text-anchor="middle" x="4075.6334" y="-175.5" font-family="Helvetica,sans-Serif" font-size="10.00" fill="#000000">cstring</text>
</g>
<!-- Node6&#45;&gt;Node13 -->
<g id="edge13" class="edge">
<title>Node6&#45;&gt;Node13</title>
<path fill="none" stroke="#191970" d="M2721.7659,-505.9123C2989.2923,-500.1535 3876.9047,-479.4657 4002.6334,-456 4113.5116,-435.306 4242.6334,-486.2928 4242.6334,-373.5 4242.6334,-373.5 4242.6334,-373.5 4242.6334,-306.5 4242.6334,-240.2751 4159.1251,-203.4546 4110.2129,-187.5681"/>
<polygon fill="#191970" stroke="#191970" points="4111.2236,-184.2171 4100.635,-184.58 4109.1388,-190.8994 4111.2236,-184.2171"/>
</g>
<!-- Node14 -->
<g id="node15" class="node">
<title>Node14</title>
<polygon fill="none" stroke="#bfbfbf" points="2332.1334,-230 2332.1334,-249 2381.1334,-249 2381.1334,-230 2332.1334,-230"/>
<text text-anchor="middle" x="2356.6334" y="-237" font-family="Helvetica,sans-Serif" font-size="10.00" fill="#000000">iosfwd</text>
</g>
<!-- Node6&#45;&gt;Node14 -->
<g id="edge14" class="edge">
<title>Node6&#45;&gt;Node14</title>
<path fill="none" stroke="#191970" d="M2610.212,-492.3121C2553.186,-466.0437 2441.2964,-406.6893 2380.6334,-322 2367.1737,-303.2094 2361.215,-276.9406 2358.6081,-259.1308"/>
<polygon fill="#191970" stroke="#191970" points="2362.0615,-258.5379 2357.3572,-249.0447 2355.1147,-259.3995 2362.0615,-258.5379"/>
</g>
<!-- Node15 -->
<g id="node16" class="node">
<title>Node15</title>
<g id="a_node16"><a xlink:href="../../d4/de2/BaseCluster_8h.html" target="_top" xlink:title="ReconstructionDataFormats\l/BaseCluster.h">
<polygon fill="none" stroke="#000000" points="2065.6334,-425.5 2065.6334,-455.5 2217.6334,-455.5 2217.6334,-425.5 2065.6334,-425.5"/>
<text text-anchor="start" x="2073.6334" y="-443.5" font-family="Helvetica,sans-Serif" font-size="10.00" fill="#000000">ReconstructionDataFormats</text>
<text text-anchor="middle" x="2141.6334" y="-432.5" font-family="Helvetica,sans-Serif" font-size="10.00" fill="#000000">/BaseCluster.h</text>
</a>
</g>
</g>
<!-- Node6&#45;&gt;Node15 -->
<g id="edge15" class="edge">
<title>Node6&#45;&gt;Node15</title>
<path fill="none" stroke="#191970" d="M2569.3604,-497.3605C2477.5335,-485.1534 2323.7176,-464.7056 2227.719,-451.9439"/>
<polygon fill="#191970" stroke="#191970" points="2228.1237,-448.467 2217.7496,-450.6186 2227.2012,-455.406 2228.1237,-448.467"/>
</g>
<!-- Node39 -->
<g id="node40" class="node">
<title>Node39</title>
<g id="a_node40"><a xlink:href="../../d9/d52/Common_2MathUtils_2include_2MathUtils_2Utils_8h.html" target="_top" xlink:title="MathUtils/Utils.h">
<polygon fill="none" stroke="#000000" points="3096.6334,-230 3096.6334,-249 3194.6334,-249 3194.6334,-230 3096.6334,-230"/>
<text text-anchor="middle" x="3145.6334" y="-237" font-family="Helvetica,sans-Serif" font-size="10.00" fill="#000000">MathUtils/Utils.h</text>
</a>
</g>
</g>
<!-- Node6&#45;&gt;Node39 -->
<g id="edge79" class="edge">
<title>Node6&#45;&gt;Node39</title>
<path fill="none" stroke="#191970" d="M2721.9024,-497.8817C2770.2857,-490.1691 2833.5435,-477.0692 2886.6334,-456 2993.4001,-413.6287 3031.1446,-407.6967 3107.6334,-322 3124.0586,-303.5975 3134.5987,-276.8824 3140.3133,-258.8836"/>
<polygon fill="#191970" stroke="#191970" points="3143.7006,-259.7714 3143.1929,-249.1888 3136.9904,-257.7783 3143.7006,-259.7714"/>
</g>
<!-- Node48 -->
<g id="node49" class="node">
<title>Node48</title>
<g id="a_node49"><a xlink:href="../../d6/d84/MathConstants_8h.html" target="_top" xlink:title="useful math constants ">
<polygon fill="none" stroke="#000000" points="2953.6334,-112.5 2953.6334,-131.5 3147.6334,-131.5 3147.6334,-112.5 2953.6334,-112.5"/>
<text text-anchor="middle" x="3050.6334" y="-119.5" font-family="Helvetica,sans-Serif" font-size="10.00" fill="#000000">CommonConstants/MathConstants.h</text>
</a>
</g>
</g>
<!-- Node6&#45;&gt;Node48 -->
<g id="edge78" class="edge">
<title>Node6&#45;&gt;Node48</title>
<path fill="none" stroke="#191970" d="M2721.6671,-506.3985C2973.5241,-501.7549 3764.6334,-478.7889 3764.6334,-373.5 3764.6334,-373.5 3764.6334,-373.5 3764.6334,-306.5 3764.6334,-275.5422 3800.8234,-190.5692 3779.6334,-168 3758.7037,-145.7081 3355.4159,-130.893 3157.8671,-124.9437"/>
<polygon fill="#191970" stroke="#191970" points="3157.8526,-121.4418 3147.7525,-124.6414 3157.6434,-128.4387 3157.8526,-121.4418"/>
</g>
<!-- Node55 -->
<g id="node56" class="node">
<title>Node55</title>
<g id="a_node56"><a xlink:href="../../d8/d77/Primitive2D_8h.html" target="_top" xlink:title="Declarations of 2D primitives. ">
<polygon fill="none" stroke="#000000" points="440.1334,-364 440.1334,-383 573.1334,-383 573.1334,-364 440.1334,-364"/>
<text text-anchor="middle" x="506.6334" y="-371" font-family="Helvetica,sans-Serif" font-size="10.00" fill="#000000">MathUtils/Primitive2D.h</text>
</a>
</g>
</g>
<!-- Node6&#45;&gt;Node55 -->
<g id="edge80" class="edge">
<title>Node6&#45;&gt;Node55</title>
<path fill="none" stroke="#191970" d="M2569.4938,-507.1931C2208.1732,-505.5341 680.0864,-496.1605 587.6334,-456 556.9592,-442.6755 531.9023,-411.7494 518.1439,-391.7771"/>
<polygon fill="#191970" stroke="#191970" points="520.9199,-389.63 512.4798,-383.2257 515.084,-393.4955 520.9199,-389.63"/>
</g>
<!-- Node59 -->
<g id="node60" class="node">
<title>Node59</title>
<g id="a_node60"><a xlink:href="../../d5/d08/DataFormats_2Reconstruction_2include_2ReconstructionDataFormats_2PID_8h.html" target="_top" xlink:title="ReconstructionDataFormats\l/PID.h">
<polygon fill="none" stroke="#000000" points="245.6334,-425.5 245.6334,-455.5 397.6334,-455.5 397.6334,-425.5 245.6334,-425.5"/>
<text text-anchor="start" x="253.6334" y="-443.5" font-family="Helvetica,sans-Serif" font-size="10.00" fill="#000000">ReconstructionDataFormats</text>
<text text-anchor="middle" x="321.6334" y="-432.5" font-family="Helvetica,sans-Serif" font-size="10.00" fill="#000000">/PID.h</text>
</a>
</g>
</g>
<!-- Node6&#45;&gt;Node59 -->
<g id="edge91" class="edge">
<title>Node6&#45;&gt;Node59</title>
<path fill="none" stroke="#191970" d="M2569.4533,-506.9481C2294.9807,-504.6812 1330.9413,-494.3085 536.6334,-456 494.1661,-453.9519 447.0477,-450.6689 407.7704,-447.6505"/>
<polygon fill="#191970" stroke="#191970" points="407.9405,-444.1532 397.6997,-446.8692 407.399,-451.1323 407.9405,-444.1532"/>
</g>
<!-- Node60 -->
<g id="node61" class="node">
<title>Node60</title>
<g id="a_node61"><a xlink:href="../../d2/d97/TrackUtils_8h.html" target="_top" xlink:title="ReconstructionDataFormats\l/TrackUtils.h">
<polygon fill="none" stroke="#000000" points="2731.6334,-291.5 2731.6334,-321.5 2883.6334,-321.5 2883.6334,-291.5 2731.6334,-291.5"/>
<text text-anchor="start" x="2739.6334" y="-309.5" font-family="Helvetica,sans-Serif" font-size="10.00" fill="#000000">ReconstructionDataFormats</text>
<text text-anchor="middle" x="2807.6334" y="-298.5" font-family="Helvetica,sans-Serif" font-size="10.00" fill="#000000">/TrackUtils.h</text>
</a>
</g>
</g>
<!-- Node6&#45;&gt;Node60 -->
<g id="edge94" class="edge">
<title>Node6&#45;&gt;Node60</title>
<path fill="none" stroke="#191970" d="M2721.6822,-499.9C2778.5481,-492.4618 2849.4809,-478.8456 2867.6334,-456 2898.4578,-417.2064 2857.8803,-360.5049 2829.9668,-329.2625"/>
<polygon fill="#191970" stroke="#191970" points="2832.1946,-326.5148 2822.8469,-321.5277 2827.0444,-331.2556 2832.1946,-326.5148"/>
</g>
<!-- Node61 -->
<g id="node62" class="node">
<title>Node61</title>
<g id="a_node62"><a xlink:href="../../d1/da8/GPUROOTCartesianFwd_8h.html" target="_top" xlink:title="GPUROOTCartesianFwd.h">
<polygon fill="none" stroke="#000000" points="2685.6334,-431 2685.6334,-450 2825.6334,-450 2825.6334,-431 2685.6334,-431"/>
<text text-anchor="middle" x="2755.6334" y="-438" font-family="Helvetica,sans-Serif" font-size="10.00" fill="#000000">GPUROOTCartesianFwd.h</text>
</a>
</g>
</g>
<!-- Node6&#45;&gt;Node61 -->
<g id="edge100" class="edge">
<title>Node6&#45;&gt;Node61</title>
<path fill="none" stroke="#191970" d="M2670.3195,-492.4639C2688.4436,-481.4247 2712.9543,-466.4954 2731.0534,-455.4715"/>
<polygon fill="#191970" stroke="#191970" points="2733.146,-458.2951 2739.8658,-450.1039 2729.5046,-452.3167 2733.146,-458.2951"/>
</g>
<!-- Node8 -->
<g id="node9" class="node">
<title>Node8</title>
<polygon fill="none" stroke="#bfbfbf" points="724.1334,-112.5 724.1334,-131.5 783.1334,-131.5 783.1334,-112.5 724.1334,-112.5"/>
<text text-anchor="middle" x="753.6334" y="-119.5" font-family="Helvetica,sans-Serif" font-size="10.00" fill="#000000">Rtypes.h</text>
</g>
<!-- Node7&#45;&gt;Node8 -->
<g id="edge8" class="edge">
<title>Node7&#45;&gt;Node8</title>
<path fill="none" stroke="#191970" d="M669.4004,-168.2455C685.3429,-159.4928 708.9593,-146.527 727.1323,-136.5496"/>
<polygon fill="#191970" stroke="#191970" points="728.9886,-139.5233 736.07,-131.6427 725.6197,-133.3873 728.9886,-139.5233"/>
</g>
<!-- Node15&#45;&gt;Node14 -->
<g id="edge31" class="edge">
<title>Node15&#45;&gt;Node14</title>
<path fill="none" stroke="#191970" d="M2209.8618,-425.4545C2248.0127,-415.8151 2290.639,-402.5982 2304.6334,-389 2323.655,-370.5169 2343.556,-294.9078 2352.1953,-258.8307"/>
<polygon fill="#191970" stroke="#191970" points="2355.6225,-259.5459 2354.5015,-249.0105 2348.8079,-257.9455 2355.6225,-259.5459"/>
</g>
<!-- Node16 -->
<g id="node17" class="node">
<title>Node16</title>
<g id="a_node17"><a xlink:href="../../dc/d73/Cartesian_8h.html" target="_top" xlink:title="MathUtils/Cartesian.h">
<polygon fill="none" stroke="#000000" points="1805.6334,-297 1805.6334,-316 1927.6334,-316 1927.6334,-297 1805.6334,-297"/>
<text text-anchor="middle" x="1866.6334" y="-304" font-family="Helvetica,sans-Serif" font-size="10.00" fill="#000000">MathUtils/Cartesian.h</text>
</a>
</g>
</g>
<!-- Node15&#45;&gt;Node16 -->
<g id="edge16" class="edge">
<title>Node15&#45;&gt;Node16</title>
<path fill="none" stroke="#191970" d="M2065.6144,-430.5176C2008.0141,-421.6922 1934.7962,-407.3724 1910.6334,-389 1889.9059,-373.2396 1877.8784,-344.8382 1871.7864,-325.8256"/>
<polygon fill="#191970" stroke="#191970" points="1875.1122,-324.7294 1868.9295,-316.1256 1868.3974,-326.7071 1875.1122,-324.7294"/>
</g>
<!-- Node25 -->
<g id="node26" class="node">
<title>Node25</title>
<polygon fill="none" stroke="#bfbfbf" points="2043.1334,-364 2043.1334,-383 2106.1334,-383 2106.1334,-364 2043.1334,-364"/>
<text text-anchor="middle" x="2074.6334" y="-371" font-family="Helvetica,sans-Serif" font-size="10.00" fill="#000000">TObject.h</text>
</g>
<!-- Node15&#45;&gt;Node25 -->
<g id="edge27" class="edge">
<title>Node15&#45;&gt;Node25</title>
<path fill="none" stroke="#191970" d="M2126.4301,-425.2967C2115.9911,-414.8578 2102.1331,-400.9997 2091.378,-390.2446"/>
<polygon fill="#191970" stroke="#191970" points="2093.7343,-387.6512 2084.1884,-383.055 2088.7846,-392.601 2093.7343,-387.6512"/>
</g>
<!-- Node26 -->
<g id="node27" class="node">
<title>Node26</title>
<polygon fill="none" stroke="#bfbfbf" points="2627.6334,-230 2627.6334,-249 2671.6334,-249 2671.6334,-230 2627.6334,-230"/>
<text text-anchor="middle" x="2649.6334" y="-237" font-family="Helvetica,sans-Serif" font-size="10.00" fill="#000000">bitset</text>
</g>
<!-- Node15&#45;&gt;Node26 -->
<g id="edge28" class="edge">
<title>Node15&#45;&gt;Node26</title>
<path fill="none" stroke="#191970" d="M2217.6514,-428.3823C2302.6363,-412.6392 2442.5099,-380.0456 2550.6334,-322 2583.4049,-304.4068 2615.3639,-274.8707 2633.7448,-256.3232"/>
<polygon fill="#191970" stroke="#191970" points="2636.2925,-258.7237 2640.7538,-249.1139 2631.2735,-253.8442 2636.2925,-258.7237"/>
</g>
<!-- Node27 -->
<g id="node28" class="node">
<title>Node27</title>
<polygon fill="none" stroke="#bfbfbf" points="1919.6334,-364 1919.6334,-383 1975.6334,-383 1975.6334,-364 1919.6334,-364"/>
<text text-anchor="middle" x="1947.6334" y="-371" font-family="Helvetica,sans-Serif" font-size="10.00" fill="#000000">iomanip</text>
</g>
<!-- Node15&#45;&gt;Node27 -->
<g id="edge29" class="edge">
<title>Node15&#45;&gt;Node27</title>
<path fill="none" stroke="#191970" d="M2093.1995,-425.4528C2062.2486,-415.6056 2021.3602,-402.1661 1985.6334,-389 1983.7782,-388.3163 1981.8787,-387.5987 1979.9663,-386.8626"/>
<polygon fill="#191970" stroke="#191970" points="1981.0286,-383.5191 1970.4421,-383.0989 1978.4559,-390.0292 1981.0286,-383.5191"/>
</g>
<!-- Node28 -->
<g id="node29" class="node">
<title>Node28</title>
<polygon fill="none" stroke="#bfbfbf" points="1994.1334,-364 1994.1334,-383 2025.1334,-383 2025.1334,-364 1994.1334,-364"/>
<text text-anchor="middle" x="2009.6334" y="-371" font-family="Helvetica,sans-Serif" font-size="10.00" fill="#000000">ios</text>
</g>
<!-- Node15&#45;&gt;Node28 -->
<g id="edge30" class="edge">
<title>Node15&#45;&gt;Node28</title>
<path fill="none" stroke="#191970" d="M2107.9149,-425.3918C2086.6143,-415.5739 2058.6726,-402.1886 2034.6334,-389 2034.2192,-388.7728 2033.8024,-388.5418 2033.3836,-388.3075"/>
<polygon fill="#191970" stroke="#191970" points="2034.9437,-385.1645 2024.5505,-383.1072 2031.3923,-391.1967 2034.9437,-385.1645"/>
</g>
<!-- Node29 -->
<g id="node30" class="node">
<title>Node29</title>
<g id="a_node30"><a xlink:href="../../d4/d20/DetMatrixCache_8h.html" target="_top" xlink:title="DetectorsCommonDataFormats\l/DetMatrixCache.h">
<polygon fill="none" stroke="#000000" points="2124.1334,-358.5 2124.1334,-388.5 2295.1334,-388.5 2295.1334,-358.5 2124.1334,-358.5"/>
<text text-anchor="start" x="2132.1334" y="-376.5" font-family="Helvetica,sans-Serif" font-size="10.00" fill="#000000">DetectorsCommonDataFormats</text>
<text text-anchor="middle" x="2209.6334" y="-365.5" font-family="Helvetica,sans-Serif" font-size="10.00" fill="#000000">/DetMatrixCache.h</text>
</a>
</g>
</g>
<!-- Node15&#45;&gt;Node29 -->
<g id="edge32" class="edge">
<title>Node15&#45;&gt;Node29</title>
<path fill="none" stroke="#191970" d="M2157.0636,-425.2967C2165.9318,-416.559 2177.2312,-405.4257 2187.0799,-395.7218"/>
<polygon fill="#191970" stroke="#191970" points="2189.5974,-398.1548 2194.2642,-388.6432 2184.6844,-393.1685 2189.5974,-398.1548"/>
</g>
<!-- Node16&#45;&gt;Node8 -->
<g id="edge24" class="edge">
<title>Node16&#45;&gt;Node8</title>
<path fill="none" stroke="#191970" d="M1805.3244,-305.2961C1586.0616,-300.76 851.6364,-283.4943 810.6334,-255 800.7249,-248.1142 773.5846,-176.6539 760.6578,-141.4222"/>
<polygon fill="#191970" stroke="#191970" points="763.85,-139.9597 757.1371,-131.7629 757.2733,-142.3569 763.85,-139.9597"/>
</g>
<!-- Node16&#45;&gt;Node14 -->
<g id="edge26" class="edge">
<title>Node16&#45;&gt;Node14</title>
<path fill="none" stroke="#191970" d="M1927.8547,-298.3041C2002.9665,-288.2254 2134.1914,-270.5414 2246.6334,-255 2271.7525,-251.5281 2300.0863,-247.5338 2321.7063,-244.4696"/>
<polygon fill="#191970" stroke="#191970" points="2322.3277,-247.9165 2331.7369,-243.0464 2321.3443,-240.9859 2322.3277,-247.9165"/>
</g>
<!-- Node17 -->
<g id="node18" class="node">
<title>Node17</title>
<polygon fill="none" stroke="#bfbfbf" points="819.6334,-224.5 819.6334,-254.5 983.6334,-254.5 983.6334,-224.5 819.6334,-224.5"/>
<text text-anchor="start" x="827.6334" y="-242.5" font-family="Helvetica,sans-Serif" font-size="10.00" fill="#000000">Math/GenVector/Displacement</text>
<text text-anchor="middle" x="901.6334" y="-231.5" font-family="Helvetica,sans-Serif" font-size="10.00" fill="#000000">Vector3D.h</text>
</g>
<!-- Node16&#45;&gt;Node17 -->
<g id="edge17" class="edge">
<title>Node16&#45;&gt;Node17</title>
<path fill="none" stroke="#191970" d="M1805.5818,-305.1651C1664.5449,-301.5923 1305.0701,-289.6881 993.9478,-254.9404"/>
<polygon fill="#191970" stroke="#191970" points="994.159,-251.4421 983.8299,-253.8003 993.3751,-258.3981 994.159,-251.4421"/>
</g>
<!-- Node18 -->
<g id="node19" class="node">
<title>Node18</title>
<polygon fill="none" stroke="#bfbfbf" points="1002.1334,-230 1002.1334,-249 1191.1334,-249 1191.1334,-230 1002.1334,-230"/>
<text text-anchor="middle" x="1096.6334" y="-237" font-family="Helvetica,sans-Serif" font-size="10.00" fill="#000000">Math/GenVector/PositionVector3D.h</text>
</g>
<!-- Node16&#45;&gt;Node18 -->
<g id="edge18" class="edge">
<title>Node16&#45;&gt;Node18</title>
<path fill="none" stroke="#191970" d="M1805.4341,-303.2203C1687.9484,-296.6024 1422.7513,-280.1081 1200.6334,-255 1189.3395,-253.7233 1177.3874,-252.1508 1165.7654,-250.5019"/>
<polygon fill="#191970" stroke="#191970" points="1166.0604,-247.0082 1155.6619,-249.0387 1165.057,-253.9359 1166.0604,-247.0082"/>
</g>
<!-- Node19 -->
<g id="node20" class="node">
<title>Node19</title>
<polygon fill="none" stroke="#bfbfbf" points="1209.6334,-230 1209.6334,-249 1369.6334,-249 1369.6334,-230 1209.6334,-230"/>
<text text-anchor="middle" x="1289.6334" y="-237" font-family="Helvetica,sans-Serif" font-size="10.00" fill="#000000">Math/GenVector/Rotation3D.h</text>
</g>
<!-- Node16&#45;&gt;Node19 -->
<g id="edge19" class="edge">
<title>Node16&#45;&gt;Node19</title>
<path fill="none" stroke="#191970" d="M1805.6095,-301.3887C1713.062,-293.3371 1531.7714,-276.3909 1378.6334,-255 1369.6217,-253.7412 1360.1237,-252.2569 1350.8226,-250.714"/>
<polygon fill="#191970" stroke="#191970" points="1351.2833,-247.2423 1340.8395,-249.0246 1350.1153,-254.1441 1351.2833,-247.2423"/>
</g>
<!-- Node20 -->
<g id="node21" class="node">
<title>Node20</title>
<polygon fill="none" stroke="#bfbfbf" points="1387.6334,-230 1387.6334,-249 1555.6334,-249 1555.6334,-230 1387.6334,-230"/>
<text text-anchor="middle" x="1471.6334" y="-237" font-family="Helvetica,sans-Serif" font-size="10.00" fill="#000000">Math/GenVector/Transform3D.h</text>
</g>
<!-- Node16&#45;&gt;Node20 -->
<g id="edge20" class="edge">
<title>Node16&#45;&gt;Node20</title>
<path fill="none" stroke="#191970" d="M1810.459,-296.9717C1738.605,-284.7838 1614.3413,-263.7062 1537.9274,-250.7448"/>
<polygon fill="#191970" stroke="#191970" points="1538.3779,-247.2713 1527.9334,-249.0496 1537.2073,-254.1727 1538.3779,-247.2713"/>
</g>
<!-- Node21 -->
<g id="node22" class="node">
<title>Node21</title>
<polygon fill="none" stroke="#bfbfbf" points="1574.1334,-230 1574.1334,-249 1747.1334,-249 1747.1334,-230 1574.1334,-230"/>
<text text-anchor="middle" x="1660.6334" y="-237" font-family="Helvetica,sans-Serif" font-size="10.00" fill="#000000">Math/GenVector/Translation3D.h</text>
</g>
<!-- Node16&#45;&gt;Node21 -->
<g id="edge21" class="edge">
<title>Node16&#45;&gt;Node21</title>
<path fill="none" stroke="#191970" d="M1837.1186,-296.9005C1801.0175,-285.1589 1739.7852,-265.2436 1699.779,-252.2318"/>
<polygon fill="#191970" stroke="#191970" points="1700.6856,-248.8463 1690.0934,-249.0817 1698.5205,-255.5031 1700.6856,-248.8463"/>
</g>
<!-- Node22 -->
<g id="node23" class="node">
<title>Node22</title>
<polygon fill="none" stroke="#bfbfbf" points="1765.6334,-224.5 1765.6334,-254.5 1929.6334,-254.5 1929.6334,-224.5 1765.6334,-224.5"/>
<text text-anchor="start" x="1773.6334" y="-242.5" font-family="Helvetica,sans-Serif" font-size="10.00" fill="#000000">Math/GenVector/Displacement</text>
<text text-anchor="middle" x="1847.6334" y="-231.5" font-family="Helvetica,sans-Serif" font-size="10.00" fill="#000000">Vector2D.h</text>
</g>
<!-- Node16&#45;&gt;Node22 -->
<g id="edge22" class="edge">
<title>Node16&#45;&gt;Node22</title>
<path fill="none" stroke="#191970" d="M1863.9112,-296.9005C1861.5072,-288.4234 1857.895,-275.6856 1854.6836,-264.3614"/>
<polygon fill="#191970" stroke="#191970" points="1857.9888,-263.1875 1851.8933,-254.5218 1851.2544,-265.0973 1857.9888,-263.1875"/>
</g>
<!-- Node23 -->
<g id="node24" class="node">
<title>Node23</title>
<polygon fill="none" stroke="#bfbfbf" points="1948.1334,-230 1948.1334,-249 2137.1334,-249 2137.1334,-230 1948.1334,-230"/>
<text text-anchor="middle" x="2042.6334" y="-237" font-family="Helvetica,sans-Serif" font-size="10.00" fill="#000000">Math/GenVector/PositionVector2D.h</text>
</g>
<!-- Node16&#45;&gt;Node23 -->
<g id="edge23" class="edge">
<title>Node16&#45;&gt;Node23</title>
<path fill="none" stroke="#191970" d="M1891.8499,-296.9005C1922.3015,-285.3082 1973.6819,-265.7486 2007.8764,-252.7313"/>
<polygon fill="#191970" stroke="#191970" points="2009.3632,-255.9105 2017.4637,-249.0817 2006.8727,-249.3685 2009.3632,-255.9105"/>
</g>
<!-- Node24 -->
<g id="node25" class="node">
<title>Node24</title>
<polygon fill="none" stroke="#bfbfbf" points="2155.6334,-230 2155.6334,-249 2237.6334,-249 2237.6334,-230 2155.6334,-230"/>
<text text-anchor="middle" x="2196.6334" y="-237" font-family="Helvetica,sans-Serif" font-size="10.00" fill="#000000">TGeoMatrix.h</text>
</g>
<!-- Node16&#45;&gt;Node24 -->
<g id="edge25" class="edge">
<title>Node16&#45;&gt;Node24</title>
<path fill="none" stroke="#191970" d="M1927.7039,-297.4107C1984.7261,-288.4191 2072.001,-273.3628 2146.6334,-255 2150.446,-254.0619 2154.3958,-252.999 2158.3279,-251.8802"/>
<polygon fill="#191970" stroke="#191970" points="2159.3827,-255.2181 2167.9774,-249.0228 2157.3952,-248.5062 2159.3827,-255.2181"/>
</g>
<!-- Node29&#45;&gt;Node7 -->
<g id="edge36" class="edge">
<title>Node29&#45;&gt;Node7</title>
<path fill="none" stroke="#191970" d="M2123.8887,-358.858C2121.1077,-358.544 2118.3504,-358.2563 2115.6334,-358 2075.3555,-354.1998 688.6775,-350.1637 659.6334,-322 626.3489,-289.7245 637.0291,-228.8015 645.4874,-197.5591"/>
<polygon fill="#191970" stroke="#191970" points="648.8817,-198.4212 648.3109,-187.8417 642.1596,-196.468 648.8817,-198.4212"/>
</g>
<!-- Node29&#45;&gt;Node10 -->
<g id="edge37" class="edge">
<title>Node29&#45;&gt;Node10</title>
<path fill="none" stroke="#191970" d="M2220.027,-358.1854C2243.1275,-324.4424 2298.6601,-245.0167 2323.6334,-224 2375.15,-180.6453 2448.1652,-148.7909 2488.9788,-133.0483"/>
<polygon fill="#191970" stroke="#191970" points="2490.275,-136.3 2498.3875,-129.4854 2487.796,-129.7537 2490.275,-136.3"/>
</g>
<!-- Node29&#45;&gt;Node16 -->
<g id="edge39" class="edge">
<title>Node29&#45;&gt;Node16</title>
<path fill="none" stroke="#191970" d="M2132.6575,-358.4639C2069.865,-346.1983 1982.4869,-329.1303 1925.264,-317.9526"/>
<polygon fill="#191970" stroke="#191970" points="1925.7803,-314.4874 1915.2948,-316.0053 1924.4383,-321.3576 1925.7803,-314.4874"/>
</g>
<!-- Node30 -->
<g id="node31" class="node">
<title>Node30</title>
<g id="a_node31"><a xlink:href="../../df/d5b/GPUCommonLogger_8h.html" target="_top" xlink:title="GPUCommonLogger.h">
<polygon fill="none" stroke="#000000" points="2204.1334,-168.5 2204.1334,-187.5 2327.1334,-187.5 2327.1334,-168.5 2204.1334,-168.5"/>
<text text-anchor="middle" x="2265.6334" y="-175.5" font-family="Helvetica,sans-Serif" font-size="10.00" fill="#000000">GPUCommonLogger.h</text>
</a>
</g>
</g>
<!-- Node29&#45;&gt;Node30 -->
<g id="edge33" class="edge">
<title>Node29&#45;&gt;Node30</title>
<path fill="none" stroke="#191970" d="M2214.7216,-358.2487C2222.1466,-335.7702 2236.2004,-292.3652 2246.6334,-255 2252.0564,-235.5777 2257.4929,-213.1773 2261.1526,-197.5627"/>
<polygon fill="#191970" stroke="#191970" points="2264.6292,-198.0639 2263.4778,-187.5318 2257.81,-196.4831 2264.6292,-198.0639"/>
</g>
<!-- Node33 -->
<g id="node34" class="node">
<title>Node33</title>
<polygon fill="none" stroke="#bfbfbf" points="668.1334,-297 668.1334,-316 715.1334,-316 715.1334,-297 668.1334,-297"/>
<text text-anchor="middle" x="691.6334" y="-304" font-family="Helvetica,sans-Serif" font-size="10.00" fill="#000000">vector</text>
</g>
<!-- Node29&#45;&gt;Node33 -->
<g id="edge38" class="edge">
<title>Node29&#45;&gt;Node33</title>
<path fill="none" stroke="#191970" d="M2123.8883,-358.8624C2121.1074,-358.5472 2118.3502,-358.258 2115.6334,-358 1808.9099,-328.8675 1031.1832,-385.2117 729.6334,-322 726.7569,-321.397 723.8207,-320.5859 720.9189,-319.6494"/>
<polygon fill="#191970" stroke="#191970" points="721.9146,-316.2861 711.3213,-316.1026 719.488,-322.8521 721.9146,-316.2861"/>
</g>
<!-- Node34 -->
<g id="node35" class="node">
<title>Node34</title>
<g id="a_node35"><a xlink:href="../../d6/d31/DetID_8h.html" target="_top" xlink:title="DetectorsCommonDataFormats\l/DetID.h">
<polygon fill="none" stroke="#000000" points="2927.1334,-291.5 2927.1334,-321.5 3098.1334,-321.5 3098.1334,-291.5 2927.1334,-291.5"/>
<text text-anchor="start" x="2935.1334" y="-309.5" font-family="Helvetica,sans-Serif" font-size="10.00" fill="#000000">DetectorsCommonDataFormats</text>
<text text-anchor="middle" x="3012.6334" y="-298.5" font-family="Helvetica,sans-Serif" font-size="10.00" fill="#000000">/DetID.h</text>
</a>
</g>
</g>
<!-- Node29&#45;&gt;Node34 -->
<g id="edge40" class="edge">
<title>Node29&#45;&gt;Node34</title>
<path fill="none" stroke="#191970" d="M2295.2133,-368.5134C2424.6996,-360.637 2678.0728,-343.9306 2892.6334,-322 2900.5075,-321.1952 2908.6634,-320.2915 2916.8474,-319.3355"/>
<polygon fill="#191970" stroke="#191970" points="2917.3115,-322.805 2926.8272,-318.1465 2916.4833,-315.8542 2917.3115,-322.805"/>
</g>
<!-- Node31 -->
<g id="node32" class="node">
<title>Node31</title>
<polygon fill="none" stroke="#bfbfbf" points="2287.6334,-112.5 2287.6334,-131.5 2347.6334,-131.5 2347.6334,-112.5 2287.6334,-112.5"/>
<text text-anchor="middle" x="2317.6334" y="-119.5" font-family="Helvetica,sans-Serif" font-size="10.00" fill="#000000">iostream</text>
</g>
<!-- Node30&#45;&gt;Node31 -->
<g id="edge34" class="edge">
<title>Node30&#45;&gt;Node31</title>
<path fill="none" stroke="#191970" d="M2274.6911,-168.2455C2282.1475,-160.2155 2292.8968,-148.6394 2301.7751,-139.0781"/>
<polygon fill="#191970" stroke="#191970" points="2304.4397,-141.3522 2308.6795,-131.6427 2299.3102,-136.589 2304.4397,-141.3522"/>
</g>
<!-- Node32 -->
<g id="node33" class="node">
<title>Node32</title>
<polygon fill="none" stroke="#bfbfbf" points="2223.6334,-112.5 2223.6334,-131.5 2269.6334,-131.5 2269.6334,-112.5 2223.6334,-112.5"/>
<text text-anchor="middle" x="2246.6334" y="-119.5" font-family="Helvetica,sans-Serif" font-size="10.00" fill="#000000">cstdio</text>
</g>
<!-- Node30&#45;&gt;Node32 -->
<g id="edge35" class="edge">
<title>Node30&#45;&gt;Node32</title>
<path fill="none" stroke="#191970" d="M2262.3238,-168.2455C2259.7901,-160.7776 2256.2157,-150.2427 2253.1184,-141.1137"/>
<polygon fill="#191970" stroke="#191970" points="2256.4325,-139.9879 2249.905,-131.6427 2249.8036,-142.237 2256.4325,-139.9879"/>
</g>
<!-- Node34&#45;&gt;Node3 -->
<g id="edge47" class="edge">
<title>Node34&#45;&gt;Node3</title>
<path fill="none" stroke="#191970" d="M2970.1006,-291.4591C2918.7823,-273.6842 2829.6607,-244.0022 2751.6334,-224 2681.1161,-205.9229 2597.0032,-190.8223 2551.9451,-183.2452"/>
<polygon fill="#191970" stroke="#191970" points="2552.3276,-179.7607 2541.8885,-181.5702 2551.1776,-186.6656 2552.3276,-179.7607"/>
</g>
<!-- Node34&#45;&gt;Node8 -->
<g id="edge41" class="edge">
<title>Node34&#45;&gt;Node8</title>
<path fill="none" stroke="#191970" d="M2927.133,-294.4324C2875.601,-285.9799 2809.0461,-272.9641 2751.6334,-255 2718.7722,-244.7179 2714.141,-231.9261 2680.6334,-224 2585.4741,-201.4904 1060.6805,-135.182 793.4498,-123.7028"/>
<polygon fill="#191970" stroke="#191970" points="793.5601,-120.2044 783.4192,-123.2724 793.2599,-127.198 793.5601,-120.2044"/>
</g>
<!-- Node34&#45;&gt;Node10 -->
<g id="edge42" class="edge">
<title>Node34&#45;&gt;Node10</title>
<path fill="none" stroke="#191970" d="M3028.4664,-291.478C3045.4457,-273.5854 3067.6852,-243.6534 3049.6334,-224 2985.8161,-154.5208 2716.2196,-217.5686 2626.6334,-188 2625.4898,-187.6225 2575.0212,-156.368 2543.8133,-137.0094"/>
<polygon fill="#191970" stroke="#191970" points="2545.5431,-133.9637 2535.2005,-131.6656 2541.8525,-139.9119 2545.5431,-133.9637"/>
</g>
<!-- Node34&#45;&gt;Node26 -->
<g id="edge43" class="edge">
<title>Node34&#45;&gt;Node26</title>
<path fill="none" stroke="#191970" d="M2926.8337,-291.9078C2869.2735,-281.9471 2791.8037,-268.2103 2723.6334,-255 2709.9065,-252.3399 2694.7905,-249.2099 2681.8183,-246.4615"/>
<polygon fill="#191970" stroke="#191970" points="2682.452,-243.018 2671.9419,-244.3555 2680.9921,-249.8641 2682.452,-243.018"/>
</g>
<!-- Node35 -->
<g id="node36" class="node">
<title>Node35</title>
<polygon fill="none" stroke="#bfbfbf" points="3718.6334,-168.5 3718.6334,-187.5 3770.6334,-187.5 3770.6334,-168.5 3718.6334,-168.5"/>
<text text-anchor="middle" x="3744.6334" y="-175.5" font-family="Helvetica,sans-Serif" font-size="10.00" fill="#000000">cassert</text>
</g>
<!-- Node34&#45;&gt;Node35 -->
<g id="edge44" class="edge">
<title>Node34&#45;&gt;Node35</title>
<path fill="none" stroke="#191970" d="M3098.2741,-303.2718C3265.1723,-296.479 3622.111,-279.306 3672.6334,-255 3699.44,-242.1035 3721.2314,-214.5431 3733.5697,-196.1384"/>
<polygon fill="#191970" stroke="#191970" points="3736.5257,-198.0126 3738.9924,-187.7089 3730.6386,-194.2254 3736.5257,-198.0126"/>
</g>
<!-- Node34&#45;&gt;Node36 -->
<g id="edge45" class="edge">
<title>Node34&#45;&gt;Node36</title>
<path fill="none" stroke="#191970" d="M3098.3259,-304.619C3292.4333,-299.871 3760.806,-285.5402 3915.6334,-255 3938.0071,-250.5867 4091.7344,-202.1311 4109.6334,-188 4125.3967,-175.5549 4136.963,-155.4655 4143.9213,-140.7155"/>
<polygon fill="#191970" stroke="#191970" points="4147.1461,-142.0771 4147.9974,-131.5166 4140.7462,-139.2413 4147.1461,-142.0771"/>
</g>
<!-- Node37 -->
<g id="node38" class="node">
<title>Node37</title>
<polygon fill="none" stroke="#bfbfbf" points="2880.1334,-230 2880.1334,-249 2953.1334,-249 2953.1334,-230 2880.1334,-230"/>
<text text-anchor="middle" x="2916.6334" y="-237" font-family="Helvetica,sans-Serif" font-size="10.00" fill="#000000">string_view</text>
</g>
<!-- Node34&#45;&gt;Node37 -->
<g id="edge46" class="edge">
<title>Node34&#45;&gt;Node37</title>
<path fill="none" stroke="#191970" d="M2990.8495,-291.2967C2975.3114,-280.4524 2954.4863,-265.9182 2938.851,-255.006"/>
<polygon fill="#191970" stroke="#191970" points="2940.5276,-251.908 2930.3241,-249.055 2936.5213,-257.6483 2940.5276,-251.908"/>
</g>
<!-- Node38 -->
<g id="node39" class="node">
<title>Node38</title>
<polygon fill="none" stroke="#bfbfbf" points="2971.1334,-230 2971.1334,-249 3040.1334,-249 3040.1334,-230 2971.1334,-230"/>
<text text-anchor="middle" x="3005.6334" y="-237" font-family="Helvetica,sans-Serif" font-size="10.00" fill="#000000">type_traits</text>
</g>
<!-- Node34&#45;&gt;Node38 -->
<g id="edge48" class="edge">
<title>Node34&#45;&gt;Node38</title>
<path fill="none" stroke="#191970" d="M3011.045,-291.2967C3010.0497,-281.7699 3008.7568,-269.3954 3007.6844,-259.1306"/>
<polygon fill="#191970" stroke="#191970" points="3011.1519,-258.6371 3006.6317,-249.055 3004.1898,-259.3646 3011.1519,-258.6371"/>
</g>
<!-- Node34&#45;&gt;Node39 -->
<g id="edge49" class="edge">
<title>Node34&#45;&gt;Node39</title>
<path fill="none" stroke="#191970" d="M3042.4812,-291.4639C3064.8974,-280.1715 3095.394,-264.8086 3117.4072,-253.7192"/>
<polygon fill="#191970" stroke="#191970" points="3119.2127,-256.7287 3126.5689,-249.1039 3116.0634,-250.4772 3119.2127,-256.7287"/>
</g>
<!-- Node49 -->
<g id="node50" class="node">
<title>Node49</title>
<g id="a_node50"><a xlink:href="../../dc/dcd/DataHeader_8h.html" target="_top" xlink:title="Headers/DataHeader.h">
<polygon fill="none" stroke="#000000" points="3536.1334,-230 3536.1334,-249 3663.1334,-249 3663.1334,-230 3536.1334,-230"/>
<text text-anchor="middle" x="3599.6334" y="-237" font-family="Helvetica,sans-Serif" font-size="10.00" fill="#000000">Headers/DataHeader.h</text>
</a>
</g>
</g>
<!-- Node34&#45;&gt;Node49 -->
<g id="edge66" class="edge">
<title>Node34&#45;&gt;Node49</title>
<path fill="none" stroke="#191970" d="M3098.3023,-296.7218C3213.5944,-283.5624 3416.7604,-260.3731 3525.7006,-247.9387"/>
<polygon fill="#191970" stroke="#191970" points="3526.4043,-251.3812 3535.9429,-246.7696 3525.6105,-244.4263 3526.4043,-251.3812"/>
</g>
<!-- Node40 -->
<g id="node41" class="node">
<title>Node40</title>
<g id="a_node41"><a xlink:href="../../de/def/bitOps_8h.html" target="_top" xlink:title="MathUtils/detail/bitOps.h">
<polygon fill="none" stroke="#000000" points="3068.1334,-168.5 3068.1334,-187.5 3205.1334,-187.5 3205.1334,-168.5 3068.1334,-168.5"/>
<text text-anchor="middle" x="3136.6334" y="-175.5" font-family="Helvetica,sans-Serif" font-size="10.00" fill="#000000">MathUtils/detail/bitOps.h</text>
</a>
</g>
</g>
<!-- Node39&#45;&gt;Node40 -->
<g id="edge50" class="edge">
<title>Node39&#45;&gt;Node40</title>
<path fill="none" stroke="#191970" d="M3144.2271,-229.8906C3142.9796,-221.3657 3141.1172,-208.6392 3139.549,-197.9235"/>
<polygon fill="#191970" stroke="#191970" points="3142.9707,-197.1326 3138.0595,-187.7449 3136.0444,-198.1463 3142.9707,-197.1326"/>
</g>
<!-- Node41 -->
<g id="node42" class="node">
<title>Node41</title>
<g id="a_node42"><a xlink:href="../../d3/dfc/StatAccumulator_8h.html" target="_top" xlink:title="MathUtils/detail/StatAccumulator.h">
<polygon fill="none" stroke="#000000" points="2635.6334,-168.5 2635.6334,-187.5 2821.6334,-187.5 2821.6334,-168.5 2635.6334,-168.5"/>
<text text-anchor="middle" x="2728.6334" y="-175.5" font-family="Helvetica,sans-Serif" font-size="10.00" fill="#000000">MathUtils/detail/StatAccumulator.h</text>
</a>
</g>
</g>
<!-- Node39&#45;&gt;Node41 -->
<g id="edge52" class="edge">
<title>Node39&#45;&gt;Node41</title>
<path fill="none" stroke="#191970" d="M3109.8039,-229.9482C3100.9638,-227.7956 3091.4902,-225.6596 3082.6334,-224 2998.8826,-208.307 2902.984,-196.2021 2832.1427,-188.3578"/>
<polygon fill="#191970" stroke="#191970" points="2832.1991,-184.843 2821.877,-187.2314 2831.4356,-191.8013 2832.1991,-184.843"/>
</g>
<!-- Node43 -->
<g id="node44" class="node">
<title>Node43</title>
<g id="a_node44"><a xlink:href="../../dd/d7d/trigonometric_8h.html" target="_top" xlink:title="MathUtils/detail/trigonometric.h">
<polygon fill="none" stroke="#000000" points="2839.6334,-168.5 2839.6334,-187.5 3011.6334,-187.5 3011.6334,-168.5 2839.6334,-168.5"/>
<text text-anchor="middle" x="2925.6334" y="-175.5" font-family="Helvetica,sans-Serif" font-size="10.00" fill="#000000">MathUtils/detail/trigonometric.h</text>
</a>
</g>
</g>
<!-- Node39&#45;&gt;Node43 -->
<g id="edge54" class="edge">
<title>Node39&#45;&gt;Node43</title>
<path fill="none" stroke="#191970" d="M3111.2584,-229.8906C3073.0761,-219.2169 3011.3318,-201.9566 2969.645,-190.3033"/>
<polygon fill="#191970" stroke="#191970" points="2970.3401,-186.8634 2959.767,-187.5419 2968.4555,-193.605 2970.3401,-186.8634"/>
</g>
<!-- Node40&#45;&gt;Node36 -->
<g id="edge51" class="edge">
<title>Node40&#45;&gt;Node36</title>
<path fill="none" stroke="#191970" d="M3205.2964,-171.6035C3220.8523,-170.2872 3237.3036,-168.9997 3252.6334,-168 3613.5541,-144.4625 3705.1029,-160.9061 4065.6334,-132 4082.3114,-130.6628 4100.7452,-128.5978 4116.2547,-126.6908"/>
<polygon fill="#191970" stroke="#191970" points="4116.9822,-130.127 4126.4674,-125.4067 4116.1088,-123.1817 4116.9822,-130.127"/>
</g>
<!-- Node42 -->
<g id="node43" class="node">
<title>Node42</title>
<polygon fill="none" stroke="#bfbfbf" points="2708.1334,-112.5 2708.1334,-131.5 2749.1334,-131.5 2749.1334,-112.5 2708.1334,-112.5"/>
<text text-anchor="middle" x="2728.6334" y="-119.5" font-family="Helvetica,sans-Serif" font-size="10.00" fill="#000000">tuple</text>
</g>
<!-- Node41&#45;&gt;Node42 -->
<g id="edge53" class="edge">
<title>Node41&#45;&gt;Node42</title>
<path fill="none" stroke="#191970" d="M2728.6334,-168.2455C2728.6334,-160.9382 2728.6334,-150.6944 2728.6334,-141.7046"/>
<polygon fill="#191970" stroke="#191970" points="2732.1335,-141.6426 2728.6334,-131.6427 2725.1335,-141.6427 2732.1335,-141.6426"/>
</g>
<!-- Node43&#45;&gt;Node10 -->
<g id="edge55" class="edge">
<title>Node43&#45;&gt;Node10</title>
<path fill="none" stroke="#191970" d="M2856.3008,-168.4369C2767.053,-156.1268 2615.7545,-135.2581 2550.7878,-126.2972"/>
<polygon fill="#191970" stroke="#191970" points="2551.1504,-122.8141 2540.7659,-124.9148 2550.1939,-129.7485 2551.1504,-122.8141"/>
</g>
<!-- Node43&#45;&gt;Node12 -->
<g id="edge56" class="edge">
<title>Node43&#45;&gt;Node12</title>
<path fill="none" stroke="#191970" d="M2905.2605,-168.4267C2874.2481,-154.206 2813.0475,-127.5154 2758.6334,-112 2681.3432,-89.9618 2587.6886,-76.2259 2538.5295,-69.9756"/>
<polygon fill="#191970" stroke="#191970" points="2538.807,-66.4832 2528.4511,-68.7204 2537.9418,-73.4295 2538.807,-66.4832"/>
</g>
<!-- Node43&#45;&gt;Node42 -->
<g id="edge57" class="edge">
<title>Node43&#45;&gt;Node42</title>
<path fill="none" stroke="#191970" d="M2891.7679,-168.3733C2854.5208,-157.7853 2795.1972,-140.9217 2759.2829,-130.7126"/>
<polygon fill="#191970" stroke="#191970" points="2759.9514,-127.264 2749.3754,-127.8962 2758.0373,-133.9972 2759.9514,-127.264"/>
</g>
<!-- Node44 -->
<g id="node45" class="node">
<title>Node44</title>
<g id="a_node45"><a xlink:href="../../df/d21/GPUCommonDef_8h.html" target="_top" xlink:title="GPUCommonDef.h">
<polygon fill="none" stroke="#000000" points="4151.1334,-56.5 4151.1334,-75.5 4258.1334,-75.5 4258.1334,-56.5 4151.1334,-56.5"/>
<text text-anchor="middle" x="4204.6334" y="-63.5" font-family="Helvetica,sans-Serif" font-size="10.00" fill="#000000">GPUCommonDef.h</text>
</a>
</g>
</g>
<!-- Node43&#45;&gt;Node44 -->
<g id="edge58" class="edge">
<title>Node43&#45;&gt;Node44</title>
<path fill="none" stroke="#191970" d="M2925.1936,-168.4793C2925.092,-153.6922 2927.3428,-125.5048 2944.6334,-112 2988.8389,-77.4732 3897.5821,-78.1165 3953.6334,-76 4017.2362,-73.5984 4089.8974,-70.685 4140.617,-68.6238"/>
<polygon fill="#191970" stroke="#191970" points="4140.9277,-72.1142 4150.7771,-68.2104 4140.6431,-65.12 4140.9277,-72.1142"/>
</g>
<!-- Node47 -->
<g id="node48" class="node">
<title>Node47</title>
<g id="a_node48"><a xlink:href="../../d6/da2/GPUCommonMath_8h.html" target="_top" xlink:title="GPUCommonMath.h">
<polygon fill="none" stroke="#000000" points="3941.1334,-112.5 3941.1334,-131.5 4056.1334,-131.5 4056.1334,-112.5 3941.1334,-112.5"/>
<text text-anchor="middle" x="3998.6334" y="-119.5" font-family="Helvetica,sans-Serif" font-size="10.00" fill="#000000">GPUCommonMath.h</text>
</a>
</g>
</g>
<!-- Node43&#45;&gt;Node47 -->
<g id="edge61" class="edge">
<title>Node43&#45;&gt;Node47</title>
<path fill="none" stroke="#191970" d="M3011.7516,-171.2467C3027.6678,-170.0914 3044.1494,-168.9569 3059.6334,-168 3385.6907,-147.8505 3775.8851,-131.0898 3930.6162,-124.7357"/>
<polygon fill="#191970" stroke="#191970" points="3931.057,-128.2207 3940.9054,-124.3143 3930.7705,-121.2266 3931.057,-128.2207"/>
</g>
<!-- Node43&#45;&gt;Node48 -->
<g id="edge65" class="edge">
<title>Node43&#45;&gt;Node48</title>
<path fill="none" stroke="#191970" d="M2947.1217,-168.3733C2967.2774,-159.3435 2997.6214,-145.7494 3020.2514,-135.6111"/>
<polygon fill="#191970" stroke="#191970" points="3021.7305,-138.7838 3029.4255,-131.5011 3018.8685,-132.3955 3021.7305,-138.7838"/>
</g>
<!-- Node45 -->
<g id="node46" class="node">
<title>Node45</title>
<g id="a_node46"><a xlink:href="../../d5/d93/GPUCommonDefSettings_8h.html" target="_top" xlink:title="GPUCommonDefSettings.h">
<polygon fill="none" stroke="#000000" points="4053.6334,-.5 4053.6334,-19.5 4201.6334,-19.5 4201.6334,-.5 4053.6334,-.5"/>
<text text-anchor="middle" x="4127.6334" y="-7.5" font-family="Helvetica,sans-Serif" font-size="10.00" fill="#000000">GPUCommonDefSettings.h</text>
</a>
</g>
</g>
<!-- Node44&#45;&gt;Node45 -->
<g id="edge59" class="edge">
<title>Node44&#45;&gt;Node45</title>
<path fill="none" stroke="#191970" d="M4191.221,-56.2455C4179.6277,-47.814 4162.6586,-35.4729 4149.1656,-25.6598"/>
<polygon fill="#191970" stroke="#191970" points="4151.0381,-22.6938 4140.8921,-19.6427 4146.9208,-28.355 4151.0381,-22.6938"/>
</g>
<!-- Node46 -->
<g id="node47" class="node">
<title>Node46</title>
<g id="a_node47"><a xlink:href="../../da/d5a/GPUCommonDefAPI_8h.html" target="_top" xlink:title="GPUCommonDefAPI.h">
<polygon fill="none" stroke="#000000" points="4219.6334,-.5 4219.6334,-19.5 4343.6334,-19.5 4343.6334,-.5 4219.6334,-.5"/>
<text text-anchor="middle" x="4281.6334" y="-7.5" font-family="Helvetica,sans-Serif" font-size="10.00" fill="#000000">GPUCommonDefAPI.h</text>
</a>
</g>
</g>
<!-- Node44&#45;&gt;Node46 -->
<g id="edge60" class="edge">
<title>Node44&#45;&gt;Node46</title>
<path fill="none" stroke="#191970" d="M4218.0458,-56.2455C4229.6391,-47.814 4246.6081,-35.4729 4260.1012,-25.6598"/>
<polygon fill="#191970" stroke="#191970" points="4262.346,-28.355 4268.3747,-19.6427 4258.2287,-22.6938 4262.346,-28.355"/>
</g>
<!-- Node47&#45;&gt;Node9 -->
<g id="edge64" class="edge">
<title>Node47&#45;&gt;Node9</title>
<path fill="none" stroke="#191970" d="M3983.6533,-112.2455C3970.4583,-103.6534 3951.0283,-91.0014 3935.8255,-81.1018"/>
<polygon fill="#191970" stroke="#191970" points="3937.7317,-78.1665 3927.4418,-75.6427 3933.9119,-84.0325 3937.7317,-78.1665"/>
</g>
<!-- Node47&#45;&gt;Node12 -->
<g id="edge63" class="edge">
<title>Node47&#45;&gt;Node12</title>
<path fill="none" stroke="#191970" d="M3940.9823,-119.839C3694.2766,-110.5917 2731.2498,-74.4943 2538.372,-67.2646"/>
<polygon fill="#191970" stroke="#191970" points="2538.3927,-63.763 2528.2685,-66.8859 2538.1304,-70.7581 2538.3927,-63.763"/>
</g>
<!-- Node47&#45;&gt;Node44 -->
<g id="edge62" class="edge">
<title>Node47&#45;&gt;Node44</title>
<path fill="none" stroke="#191970" d="M4034.0461,-112.3733C4068.8939,-102.9001 4122.2216,-88.4032 4159.9627,-78.1435"/>
<polygon fill="#191970" stroke="#191970" points="4160.9512,-81.5019 4169.6828,-75.5011 4159.1149,-74.747 4160.9512,-81.5019"/>
</g>
<!-- Node49&#45;&gt;Node3 -->
<g id="edge73" class="edge">
<title>Node49&#45;&gt;Node3</title>
<path fill="none" stroke="#191970" d="M3536.1128,-237.0254C3380.7695,-230.7802 2969.3238,-213.0725 2626.6334,-188 2601.4826,-186.1599 2573.0621,-183.4752 2551.8359,-181.3507"/>
<polygon fill="#191970" stroke="#191970" points="2552.0457,-177.8542 2541.7439,-180.3287 2551.3403,-184.8185 2552.0457,-177.8542"/>
</g>
<!-- Node49&#45;&gt;Node9 -->
<g id="edge71" class="edge">
<title>Node49&#45;&gt;Node9</title>
<path fill="none" stroke="#191970" d="M3606.4442,-229.9416C3617.5441,-214.9579 3640.8965,-185.8149 3666.6334,-168 3731.6752,-122.9785 3819.6588,-92.5754 3870.8662,-77.3605"/>
<polygon fill="#191970" stroke="#191970" points="3871.9805,-80.6814 3880.5997,-74.5202 3870.0196,-73.9617 3871.9805,-80.6814"/>
</g>
<!-- Node49&#45;&gt;Node13 -->
<g id="edge70" class="edge">
<title>Node49&#45;&gt;Node13</title>
<path fill="none" stroke="#191970" d="M3663.3369,-231.6034C3742.9691,-221.6808 3883.4331,-204.008 4003.6334,-188 4015.5096,-186.4183 4028.4794,-184.6345 4040.0983,-183.016"/>
<polygon fill="#191970" stroke="#191970" points="4040.9,-186.438 4050.3188,-181.5866 4039.9304,-179.5055 4040.9,-186.438"/>
</g>
<!-- Node49&#45;&gt;Node35 -->
<g id="edge69" class="edge">
<title>Node49&#45;&gt;Node35</title>
<path fill="none" stroke="#191970" d="M3622.2896,-229.8906C3646.5508,-219.6005 3685.2452,-203.1888 3712.6134,-191.5809"/>
<polygon fill="#191970" stroke="#191970" points="3714.2967,-194.6688 3722.1362,-187.5419 3711.5634,-188.2245 3714.2967,-194.6688"/>
</g>
<!-- Node49&#45;&gt;Node36 -->
<g id="edge67" class="edge">
<title>Node49&#45;&gt;Node36</title>
<path fill="none" stroke="#191970" d="M3610.5434,-229.8005C3629.2823,-213.7775 3669.4585,-182.1471 3709.6334,-168 3859.6341,-115.1791 3907.5354,-149.1845 4065.6334,-132 4082.267,-130.192 4100.695,-128.0657 4116.2121,-126.2396"/>
<polygon fill="#191970" stroke="#191970" points="4116.9122,-129.6813 4126.4319,-125.0311 4116.09,-122.7298 4116.9122,-129.6813"/>
</g>
<!-- Node50 -->
<g id="node51" class="node">
<title>Node50</title>
<polygon fill="none" stroke="#bfbfbf" points="3826.6334,-168.5 3826.6334,-187.5 3884.6334,-187.5 3884.6334,-168.5 3826.6334,-168.5"/>
<text text-anchor="middle" x="3855.6334" y="-175.5" font-family="Helvetica,sans-Serif" font-size="10.00" fill="#000000">memory</text>
</g>
<!-- Node49&#45;&gt;Node50 -->
<g id="edge68" class="edge">
<title>Node49&#45;&gt;Node50</title>
<path fill="none" stroke="#191970" d="M3639.3525,-229.9581C3687.6326,-218.3596 3768.5839,-198.9123 3816.5671,-187.3851"/>
<polygon fill="#191970" stroke="#191970" points="3817.6653,-190.7209 3826.5711,-184.9818 3816.0301,-183.9146 3817.6653,-190.7209"/>
</g>
<!-- Node51 -->
<g id="node52" class="node">
<title>Node51</title>
<polygon fill="none" stroke="#bfbfbf" points="3491.1334,-168.5 3491.1334,-187.5 3556.1334,-187.5 3556.1334,-168.5 3491.1334,-168.5"/>
<text text-anchor="middle" x="3523.6334" y="-175.5" font-family="Helvetica,sans-Serif" font-size="10.00" fill="#000000">stdexcept</text>
</g>
<!-- Node49&#45;&gt;Node51 -->
<g id="edge72" class="edge">
<title>Node49&#45;&gt;Node51</title>
<path fill="none" stroke="#191970" d="M3587.7584,-229.8906C3576.0037,-220.3786 3557.7848,-205.6357 3543.7662,-194.2917"/>
<polygon fill="#191970" stroke="#191970" points="3545.6512,-191.3146 3535.6758,-187.7449 3541.2478,-196.7562 3545.6512,-191.3146"/>
</g>
<!-- Node52 -->
<g id="node53" class="node">
<title>Node52</title>
<polygon fill="none" stroke="#bfbfbf" points="3574.6334,-168.5 3574.6334,-187.5 3624.6334,-187.5 3624.6334,-168.5 3574.6334,-168.5"/>
<text text-anchor="middle" x="3599.6334" y="-175.5" font-family="Helvetica,sans-Serif" font-size="10.00" fill="#000000">climits</text>
</g>
<!-- Node49&#45;&gt;Node52 -->
<g id="edge74" class="edge">
<title>Node49&#45;&gt;Node52</title>
<path fill="none" stroke="#191970" d="M3599.6334,-229.8906C3599.6334,-221.3657 3599.6334,-208.6392 3599.6334,-197.9235"/>
<polygon fill="#191970" stroke="#191970" points="3603.1335,-197.7448 3599.6334,-187.7449 3596.1335,-197.7449 3603.1335,-197.7448"/>
</g>
<!-- Node53 -->
<g id="node54" class="node">
<title>Node53</title>
<g id="a_node54"><a xlink:href="../../d7/df8/Types_8h.html" target="_top" xlink:title="MemoryResources/Types.h">
<polygon fill="none" stroke="#000000" points="3261.6334,-168.5 3261.6334,-187.5 3407.6334,-187.5 3407.6334,-168.5 3261.6334,-168.5"/>
<text text-anchor="middle" x="3334.6334" y="-175.5" font-family="Helvetica,sans-Serif" font-size="10.00" fill="#000000">MemoryResources/Types.h</text>
</a>
</g>
</g>
<!-- Node49&#45;&gt;Node53 -->
<g id="edge75" class="edge">
<title>Node49&#45;&gt;Node53</title>
<path fill="none" stroke="#191970" d="M3558.5179,-229.9581C3512.0032,-219.1632 3436.1926,-201.5694 3385.8661,-189.8899"/>
<polygon fill="#191970" stroke="#191970" points="3386.3777,-186.4156 3375.8453,-187.5643 3384.7952,-193.2344 3386.3777,-186.4156"/>
</g>
<!-- Node54 -->
<g id="node55" class="node">
<title>Node54</title>
<polygon fill="none" stroke="#bfbfbf" points="3426.1334,-168.5 3426.1334,-187.5 3473.1334,-187.5 3473.1334,-168.5 3426.1334,-168.5"/>
<text text-anchor="middle" x="3449.6334" y="-175.5" font-family="Helvetica,sans-Serif" font-size="10.00" fill="#000000">cerrno</text>
</g>
<!-- Node49&#45;&gt;Node54 -->
<g id="edge76" class="edge">
<title>Node49&#45;&gt;Node54</title>
<path fill="none" stroke="#191970" d="M3576.1959,-229.8906C3550.9881,-219.5554 3510.7181,-203.0447 3482.3857,-191.4284"/>
<polygon fill="#191970" stroke="#191970" points="3483.4866,-188.0971 3472.9063,-187.5419 3480.8311,-194.5739 3483.4866,-188.0971"/>
</g>
<!-- Node55&#45;&gt;Node7 -->
<g id="edge81" class="edge">
<title>Node55&#45;&gt;Node7</title>
<path fill="none" stroke="#191970" d="M514.9003,-363.6968C523.1114,-353.658 535.7291,-337.3877 544.6334,-322 568.4559,-280.832 557.7056,-260.9682 587.6334,-224 597.7485,-211.5053 612.0586,-200.7908 624.5829,-192.8539"/>
<polygon fill="#191970" stroke="#191970" points="626.5567,-195.7505 633.3015,-187.5799 622.9336,-189.7611 626.5567,-195.7505"/>
</g>
<!-- Node56 -->
<g id="node57" class="node">
<title>Node56</title>
<g id="a_node57"><a xlink:href="../../d6/d9b/CircleXY_8h.html" target="_top" xlink:title="MathUtils/detail/CircleXY.h">
<polygon fill="none" stroke="#000000" points="291.6334,-230 291.6334,-249 435.6334,-249 435.6334,-230 291.6334,-230"/>
<text text-anchor="middle" x="363.6334" y="-237" font-family="Helvetica,sans-Serif" font-size="10.00" fill="#000000">MathUtils/detail/CircleXY.h</text>
</a>
</g>
</g>
<!-- Node55&#45;&gt;Node56 -->
<g id="edge82" class="edge">
<title>Node55&#45;&gt;Node56</title>
<path fill="none" stroke="#191970" d="M457.1076,-363.966C431.6995,-356.6091 402.2592,-343.8436 383.6334,-322 368.6667,-304.4477 364.525,-277.5198 363.5663,-259.2415"/>
<polygon fill="#191970" stroke="#191970" points="367.0626,-259.0484 363.3123,-249.1396 360.0648,-259.2244 367.0626,-259.0484"/>
</g>
<!-- Node57 -->
<g id="node58" class="node">
<title>Node57</title>
<g id="a_node58"><a xlink:href="../../da/d66/IntervalXY_8h.html" target="_top" xlink:title="MathUtils/detail/IntervalXY.h">
<polygon fill="none" stroke="#000000" points="181.6334,-297 181.6334,-316 335.6334,-316 335.6334,-297 181.6334,-297"/>
<text text-anchor="middle" x="258.6334" y="-304" font-family="Helvetica,sans-Serif" font-size="10.00" fill="#000000">MathUtils/detail/IntervalXY.h</text>
</a>
</g>
</g>
<!-- Node55&#45;&gt;Node57 -->
<g id="edge84" class="edge">
<title>Node55&#45;&gt;Node57</title>
<path fill="none" stroke="#191970" d="M471.3644,-363.9717C427.4183,-352.0991 352.2475,-331.7909 304.0392,-318.7669"/>
<polygon fill="#191970" stroke="#191970" points="304.749,-315.3332 294.1822,-316.1039 302.9233,-322.091 304.749,-315.3332"/>
</g>
<!-- Node58 -->
<g id="node59" class="node">
<title>Node58</title>
<g id="a_node59"><a xlink:href="../../d4/d5d/Bracket_8h.html" target="_top" xlink:title="Class to represent an interval and some operations over it. ">
<polygon fill="none" stroke="#000000" points="392.1334,-297 392.1334,-316 535.1334,-316 535.1334,-297 392.1334,-297"/>
<text text-anchor="middle" x="463.6334" y="-304" font-family="Helvetica,sans-Serif" font-size="10.00" fill="#000000">MathUtils/detail/Bracket.h</text>
</a>
</g>
</g>
<!-- Node55&#45;&gt;Node58 -->
<g id="edge89" class="edge">
<title>Node55&#45;&gt;Node58</title>
<path fill="none" stroke="#191970" d="M500.4725,-363.9005C493.8948,-353.6515 483.3201,-337.1747 475.1841,-324.4976"/>
<polygon fill="#191970" stroke="#191970" points="478.1296,-322.6071 469.7828,-316.0817 472.2385,-326.388 478.1296,-322.6071"/>
</g>
<!-- Node56&#45;&gt;Node7 -->
<g id="edge83" class="edge">
<title>Node56&#45;&gt;Node7</title>
<path fill="none" stroke="#191970" d="M408.3174,-229.9581C459.1859,-219.0956 542.2928,-201.3488 596.9785,-189.6711"/>
<polygon fill="#191970" stroke="#191970" points="597.796,-193.0755 606.8446,-187.5643 596.3341,-186.2299 597.796,-193.0755"/>
</g>
<!-- Node57&#45;&gt;Node7 -->
<g id="edge85" class="edge">
<title>Node57&#45;&gt;Node7</title>
<path fill="none" stroke="#191970" d="M258.2958,-296.8194C258.2627,-279.3094 260.9503,-242.4817 282.6334,-224 304.7214,-205.1732 477.8503,-190.0984 578.9276,-182.7941"/>
<polygon fill="#191970" stroke="#191970" points="579.3525,-186.2727 589.0777,-182.0691 578.8537,-179.2905 579.3525,-186.2727"/>
</g>
<!-- Node57&#45;&gt;Node12 -->
<g id="edge86" class="edge">
<title>Node57&#45;&gt;Node12</title>
<path fill="none" stroke="#191970" d="M255.3439,-296.8619C250.2771,-280.0655 242.7999,-245.2024 259.6334,-224 389.3964,-60.5583 508.7939,-139.7313 715.6334,-112 895.7093,-87.857 2240.3128,-69.4292 2470.9992,-66.429"/>
<polygon fill="#191970" stroke="#191970" points="2471.1794,-69.9271 2481.1332,-66.2979 2471.0887,-62.9277 2471.1794,-69.9271"/>
</g>
<!-- Node57&#45;&gt;Node42 -->
<g id="edge87" class="edge">
<title>Node57&#45;&gt;Node42</title>
<path fill="none" stroke="#191970" d="M308.2435,-296.9578C404.6175,-278.8949 624.0701,-240.079 810.6334,-224 1486.5387,-165.7471 1661.294,-252.4837 2336.6334,-188 2472.3211,-175.0441 2631.967,-142.7949 2697.8398,-128.7336"/>
<polygon fill="#191970" stroke="#191970" points="2698.9078,-132.0841 2707.949,-126.5608 2697.4368,-125.2404 2698.9078,-132.0841"/>
</g>
<!-- Node57&#45;&gt;Node56 -->
<g id="edge88" class="edge">
<title>Node57&#45;&gt;Node56</title>
<path fill="none" stroke="#191970" d="M273.6773,-296.9005C290.9868,-285.8554 319.6311,-267.5776 339.9423,-254.6172"/>
<polygon fill="#191970" stroke="#191970" points="342.0701,-257.4113 348.6174,-249.0817 338.3046,-251.5103 342.0701,-257.4113"/>
</g>
<!-- Node58&#45;&gt;Node7 -->
<g id="edge90" class="edge">
<title>Node58&#45;&gt;Node7</title>
<path fill="none" stroke="#191970" d="M471.7911,-296.7386C486.1304,-280.0605 517.4025,-245.7746 549.6334,-224 569.6914,-210.4492 594.3897,-199.1914 614.4585,-191.205"/>
<polygon fill="#191970" stroke="#191970" points="615.8355,-194.4251 623.898,-187.5514 613.3088,-187.897 615.8355,-194.4251"/>
</g>
<!-- Node59&#45;&gt;Node4 -->
<g id="edge93" class="edge">
<title>Node59&#45;&gt;Node4</title>
<path fill="none" stroke="#191970" d="M320.9526,-425.2967C320.5261,-415.7699 319.972,-403.3954 319.5124,-393.1306"/>
<polygon fill="#191970" stroke="#191970" points="323.0051,-392.8884 319.0612,-383.055 316.0121,-393.2016 323.0051,-392.8884"/>
</g>
<!-- Node59&#45;&gt;Node7 -->
<g id="edge92" class="edge">
<title>Node59&#45;&gt;Node7</title>
<path fill="none" stroke="#191970" d="M268.7945,-425.4385C247.5245,-417.3321 223.9777,-405.5219 206.6334,-389 173.2523,-357.2016 152.2791,-332.3658 172.6334,-291 194.1805,-247.2102 214.4301,-242.398 259.6334,-224 315.8741,-201.1097 482.1201,-187.8665 579.104,-181.8839"/>
<polygon fill="#191970" stroke="#191970" points="579.3625,-185.3747 589.1324,-181.2759 578.9389,-178.3875 579.3625,-185.3747"/>
</g>
<!-- Node60&#45;&gt;Node7 -->
<g id="edge95" class="edge">
<title>Node60&#45;&gt;Node7</title>
<path fill="none" stroke="#191970" d="M2744.6098,-291.469C2652.417,-269.7377 2485.0778,-231.3335 2423.6334,-224 2253.3952,-203.6817 1036.8164,-183.8808 724.5395,-179.0925"/>
<polygon fill="#191970" stroke="#191970" points="724.3042,-175.5886 714.2518,-178.9352 724.1971,-182.5878 724.3042,-175.5886"/>
</g>
<!-- Node60&#45;&gt;Node10 -->
<g id="edge96" class="edge">
<title>Node60&#45;&gt;Node10</title>
<path fill="none" stroke="#191970" d="M2794.168,-291.205C2777.1426,-272.7584 2746.1124,-241.9928 2713.6334,-224 2664.9264,-197.0172 2642.2323,-215.177 2593.6334,-188 2570.5607,-175.0975 2548.5415,-153.9258 2534.614,-139.0482"/>
<polygon fill="#191970" stroke="#191970" points="2537.0772,-136.555 2527.7537,-131.5229 2531.9042,-141.2709 2537.0772,-136.555"/>
</g>
<!-- Node60&#45;&gt;Node12 -->
<g id="edge97" class="edge">
<title>Node60&#45;&gt;Node12</title>
<path fill="none" stroke="#191970" d="M2751.3218,-291.448C2713.703,-281.3207 2663.1441,-267.5718 2618.6334,-255 2571.3969,-241.6584 2560.7511,-233.6938 2512.6334,-224 2443.1325,-209.9983 2242.8523,-240.8848 2195.6334,-188 2178.8807,-169.2371 2193.2889,-129.9966 2214.6334,-112 2252.8292,-79.7952 2402.55,-69.9393 2470.6184,-67.0887"/>
<polygon fill="#191970" stroke="#191970" points="2470.9572,-70.5782 2480.8123,-66.689 2470.6828,-63.5836 2470.9572,-70.5782"/>
</g>
<!-- Node60&#45;&gt;Node39 -->
<g id="edge98" class="edge">
<title>Node60&#45;&gt;Node39</title>
<path fill="none" stroke="#191970" d="M2883.4872,-291.4639C2945.3643,-279.1983 3031.4687,-262.1303 3087.8574,-250.9526"/>
<polygon fill="#191970" stroke="#191970" points="3088.5528,-254.383 3097.6814,-249.0053 3087.1916,-247.5166 3088.5528,-254.383"/>
</g>
<!-- Node60&#45;&gt;Node48 -->
<g id="edge99" class="edge">
<title>Node60&#45;&gt;Node48</title>
<path fill="none" stroke="#191970" d="M2815.1492,-291.4771C2825.3301,-272.7188 2845.2996,-241.0296 2871.6334,-224 2928.8412,-187.0047 2968.117,-231.3983 3020.6334,-188 3034.8428,-176.2577 3042.6126,-156.3502 3046.6604,-141.4628"/>
<polygon fill="#191970" stroke="#191970" points="3050.0738,-142.2373 3048.9889,-131.6982 3043.2647,-140.6136 3050.0738,-142.2373"/>
</g>
<!-- Node62&#45;&gt;Node6 -->
<g id="edge102" class="edge">
<title>Node62&#45;&gt;Node6</title>
<path fill="none" stroke="#191970" d="M2692.7915,-559.2967C2684.9923,-550.7303 2675.0968,-539.8614 2666.3864,-530.2943"/>
<polygon fill="#191970" stroke="#191970" points="2668.7408,-527.6813 2659.4205,-522.6432 2663.5647,-532.3939 2668.7408,-527.6813"/>
</g>
<!-- Node63&#45;&gt;Node7 -->
<g id="edge104" class="edge">
<title>Node63&#45;&gt;Node7</title>
<path fill="none" stroke="#191970" d="M2457.1083,-291.1872C2445.1683,-271.4828 2421.4282,-238.1125 2390.6334,-224 2313.9041,-188.8369 1044.8527,-180.0073 724.5803,-178.3347"/>
<polygon fill="#191970" stroke="#191970" points="724.5032,-174.8343 714.4853,-178.2827 724.4671,-181.8342 724.5032,-174.8343"/>
</g>
<!-- Node63&#45;&gt;Node10 -->
<g id="edge105" class="edge">
<title>Node63&#45;&gt;Node10</title>
<path fill="none" stroke="#191970" d="M2459.665,-291.3368C2450.2021,-264.7132 2434.8441,-208.5444 2455.6334,-168 2462.8176,-153.989 2476.4741,-143.2797 2489.3329,-135.7347"/>
<polygon fill="#191970" stroke="#191970" points="2491.3236,-138.637 2498.4512,-130.7981 2487.9909,-132.4813 2491.3236,-138.637"/>
</g>
<!-- Node63&#45;&gt;Node14 -->
<g id="edge106" class="edge">
<title>Node63&#45;&gt;Node14</title>
<path fill="none" stroke="#191970" d="M2441.1717,-291.4639C2423.2124,-280.4247 2398.9245,-265.4954 2380.99,-254.4715"/>
<polygon fill="#191970" stroke="#191970" points="2382.6098,-251.3588 2372.2577,-249.1039 2378.9441,-257.3223 2382.6098,-251.3588"/>
</g>
<!-- Node64&#45;&gt;Node5 -->
<g id="edge110" class="edge">
<title>Node64&#45;&gt;Node5</title>
<path fill="none" stroke="#191970" d="M454.9381,-706.2228C795.6596,-696.0542 2176.9684,-654.8303 2537.3163,-644.0761"/>
<polygon fill="#191970" stroke="#191970" points="2537.5324,-647.5713 2547.4235,-643.7744 2537.3235,-640.5744 2537.5324,-647.5713"/>
</g>
<!-- Node64&#45;&gt;Node8 -->
<g id="edge108" class="edge">
<title>Node64&#45;&gt;Node8</title>
<path fill="none" stroke="#191970" d="M313.6915,-693.413C225.2057,-670.9367 77.6334,-625.7667 77.6334,-574.5 77.6334,-574.5 77.6334,-574.5 77.6334,-440.5 77.6334,-331.1258 106.1217,-288.2526 194.6334,-224 278.4373,-163.1649 600.7499,-133.51 714.0053,-124.809"/>
<polygon fill="#191970" stroke="#191970" points="714.2794,-128.2984 723.9874,-124.0551 713.7522,-121.3183 714.2794,-128.2984"/>
</g>
<!-- Node64&#45;&gt;Node59 -->
<g id="edge109" class="edge">
<title>Node64&#45;&gt;Node59</title>
<path fill="none" stroke="#191970" d="M375.4055,-693.3233C365.9999,-649.1005 338.5502,-520.0386 326.929,-465.3988"/>
<polygon fill="#191970" stroke="#191970" points="330.3297,-464.5633 324.8259,-455.5103 323.4829,-466.0196 330.3297,-464.5633"/>
</g>
<!-- Node65&#45;&gt;Node16 -->
<g id="edge138" class="edge">
<title>Node65&#45;&gt;Node16</title>
<path fill="none" stroke="#191970" d="M3841.591,-435.5319C3517.4047,-414.3515 2253.0084,-331.7434 1938.0125,-311.1635"/>
<polygon fill="#191970" stroke="#191970" points="1937.8564,-307.6459 1927.6495,-310.4864 1937.4,-314.631 1937.8564,-307.6459"/>
</g>
<!-- Node65&#45;&gt;Node44 -->
<g id="edge112" class="edge">
<title>Node65&#45;&gt;Node44</title>
<path fill="none" stroke="#191970" d="M3978.7198,-425.4464C4054.9414,-402.9371 4181.5868,-352.3305 4233.6334,-255 4263.7269,-198.7232 4273.8699,-169.7137 4246.6334,-112 4241.3871,-100.8831 4232.5189,-90.5692 4224.2798,-82.537"/>
<polygon fill="#191970" stroke="#191970" points="4226.4436,-79.772 4216.7118,-75.5834 4221.7074,-84.9266 4226.4436,-79.772"/>
</g>
<!-- Node66 -->
<g id="node67" class="node">
<title>Node66</title>
<g id="a_node67"><a xlink:href="../../da/df3/MatLayerCyl_8h.html" target="_top" xlink:title="Declarations for single cylindrical material layer class. ">
<polygon fill="none" stroke="#000000" points="3869.1334,-297 3869.1334,-316 4030.1334,-316 4030.1334,-297 3869.1334,-297"/>
<text text-anchor="middle" x="3949.6334" y="-304" font-family="Helvetica,sans-Serif" font-size="10.00" fill="#000000">DetectorsBase/MatLayerCyl.h</text>
</a>
</g>
</g>
<!-- Node65&#45;&gt;Node66 -->
<g id="edge113" class="edge">
<title>Node65&#45;&gt;Node66</title>
<path fill="none" stroke="#191970" d="M3955.3246,-425.3598C3970.7295,-417.0741 3986.9452,-405.1476 3995.6334,-389 4008.0316,-365.9572 3987.1038,-339.5886 3969.577,-322.992"/>
<polygon fill="#191970" stroke="#191970" points="3971.6764,-320.1734 3961.8954,-316.1012 3967.0021,-325.3841 3971.6764,-320.1734"/>
</g>
<!-- Node67 -->
<g id="node68" class="node">
<title>Node67</title>
<g id="a_node68"><a xlink:href="../../db/dff/FlatObject_8h.html" target="_top" xlink:title="Definition of FlatObject class. ">
<polygon fill="none" stroke="#000000" points="3831.1334,-230 3831.1334,-249 3906.1334,-249 3906.1334,-230 3831.1334,-230"/>
<text text-anchor="middle" x="3868.6334" y="-237" font-family="Helvetica,sans-Serif" font-size="10.00" fill="#000000">FlatObject.h</text>
</a>
</g>
</g>
<!-- Node65&#45;&gt;Node67 -->
<g id="edge137" class="edge">
<title>Node65&#45;&gt;Node67</title>
<path fill="none" stroke="#191970" d="M3892.8567,-425.3813C3880.7113,-416.4661 3867.2927,-403.9917 3860.6334,-389 3841.453,-345.8208 3853.545,-288.5846 3862.1689,-259.025"/>
<polygon fill="#191970" stroke="#191970" points="3865.6158,-259.726 3865.2319,-249.1381 3858.9293,-257.6545 3865.6158,-259.726"/>
</g>
<!-- Node70 -->
<g id="node71" class="node">
<title>Node70</title>
<g id="a_node71"><a xlink:href="../../d4/d1b/Ray_8h.html" target="_top" xlink:title="DetectorsBase/Ray.h">
<polygon fill="none" stroke="#000000" points="3869.1334,-364 3869.1334,-383 3986.1334,-383 3986.1334,-364 3869.1334,-364"/>
<text text-anchor="middle" x="3927.6334" y="-371" font-family="Helvetica,sans-Serif" font-size="10.00" fill="#000000">DetectorsBase/Ray.h</text>
</a>
</g>
</g>
<!-- Node65&#45;&gt;Node70 -->
<g id="edge130" class="edge">
<title>Node65&#45;&gt;Node70</title>
<path fill="none" stroke="#191970" d="M3919.9025,-425.2967C3921.3245,-415.7699 3923.1714,-403.3954 3924.7034,-393.1306"/>
<polygon fill="#191970" stroke="#191970" points="3928.1927,-393.4621 3926.2073,-383.055 3921.2694,-392.4287 3928.1927,-393.4621"/>
</g>
<!-- Node66&#45;&gt;Node7 -->
<g id="edge125" class="edge">
<title>Node66&#45;&gt;Node7</title>
<path fill="none" stroke="#191970" d="M3869.1073,-303.0728C3696.9087,-295.3875 3303.8475,-275.8123 3246.6334,-255 3224.493,-246.9462 3225.9873,-231.4408 3203.6334,-224 3143.2547,-203.902 1135.4346,-182.825 724.6177,-178.7168"/>
<polygon fill="#191970" stroke="#191970" points="724.3883,-175.2145 714.3539,-178.6144 724.3184,-182.2141 724.3883,-175.2145"/>
</g>
<!-- Node66&#45;&gt;Node12 -->
<g id="edge114" class="edge">
<title>Node66&#45;&gt;Node12</title>
<path fill="none" stroke="#191970" d="M3869.0945,-299.5114C3783.8603,-291.4536 3645.6283,-276.4969 3527.6334,-255 3403.8731,-232.4527 3365.6704,-243.2052 3252.6334,-188 3203.7348,-164.1188 3207.3686,-131.6805 3156.6334,-112 3098.809,-89.5696 2664.2193,-71.9013 2538.5648,-67.2207"/>
<polygon fill="#191970" stroke="#191970" points="2538.5046,-63.7162 2528.3822,-66.8447 2538.2462,-70.7114 2538.5046,-63.7162"/>
</g>
<!-- Node66&#45;&gt;Node13 -->
<g id="edge115" class="edge">
<title>Node66&#45;&gt;Node13</title>
<path fill="none" stroke="#191970" d="M3953.2037,-296.7899C3959.6996,-280.1891 3974.8238,-246.0166 3996.6334,-224 4009.8603,-210.6475 4027.7549,-199.8051 4043.1684,-192.0076"/>
<polygon fill="#191970" stroke="#191970" points="4044.9032,-195.0565 4052.381,-187.5509 4041.8548,-188.7551 4044.9032,-195.0565"/>
</g>
<!-- Node66&#45;&gt;Node44 -->
<g id="edge116" class="edge">
<title>Node66&#45;&gt;Node44</title>
<path fill="none" stroke="#191970" d="M4030.1629,-298.0696C4089.5393,-290.2196 4163.649,-276.4548 4185.6334,-255 4232.1086,-209.6443 4223.2372,-176.4924 4215.6334,-112 4214.5905,-103.1546 4212.4566,-93.5467 4210.3434,-85.4104"/>
<polygon fill="#191970" stroke="#191970" points="4213.7106,-84.4548 4207.6709,-75.7501 4206.964,-86.3213 4213.7106,-84.4548"/>
</g>
<!-- Node66&#45;&gt;Node47 -->
<g id="edge126" class="edge">
<title>Node66&#45;&gt;Node47</title>
<path fill="none" stroke="#191970" d="M3958.2411,-296.8886C3975.6006,-277.6504 4014.5223,-235.2862 4030.6334,-224 4062.2356,-201.862 4088.7596,-220.4511 4109.6334,-188 4126.5404,-161.7158 4092.1249,-144.4872 4057.2652,-134.2455"/>
<polygon fill="#191970" stroke="#191970" points="4058.0343,-130.827 4047.4635,-131.5404 4056.172,-137.5747 4058.0343,-130.827"/>
</g>
<!-- Node66&#45;&gt;Node67 -->
<g id="edge117" class="edge">
<title>Node66&#45;&gt;Node67</title>
<path fill="none" stroke="#191970" d="M3938.0281,-296.9005C3925.0359,-286.1539 3903.766,-268.5603 3888.1936,-255.6794"/>
<polygon fill="#191970" stroke="#191970" points="3890.1536,-252.7585 3880.2172,-249.0817 3885.6919,-258.1524 3890.1536,-252.7585"/>
</g>
<!-- Node69 -->
<g id="node70" class="node">
<title>Node69</title>
<g id="a_node70"><a xlink:href="../../db/dba/MatCell_8h.html" target="_top" xlink:title="Declarations for material properties of the cell (voxel) ">
<polygon fill="none" stroke="#000000" points="4039.1334,-230 4039.1334,-249 4176.1334,-249 4176.1334,-230 4039.1334,-230"/>
<text text-anchor="middle" x="4107.6334" y="-237" font-family="Helvetica,sans-Serif" font-size="10.00" fill="#000000">DetectorsBase/MatCell.h</text>
</a>
</g>
</g>
<!-- Node66&#45;&gt;Node69 -->
<g id="edge127" class="edge">
<title>Node66&#45;&gt;Node69</title>
<path fill="none" stroke="#191970" d="M3972.2709,-296.9005C3999.3735,-285.4077 4044.9433,-266.0838 4075.6373,-253.068"/>
<polygon fill="#191970" stroke="#191970" points="4077.1978,-256.208 4085.0378,-249.0817 4074.465,-249.7635 4077.1978,-256.208"/>
</g>
<!-- Node67&#45;&gt;Node7 -->
<g id="edge123" class="edge">
<title>Node67&#45;&gt;Node7</title>
<path fill="none" stroke="#191970" d="M3831.1037,-235.8177C3791.6857,-232.1178 3727.8692,-226.602 3672.6334,-224 3072.1449,-195.7132 1125.1218,-181.2034 724.2218,-178.4764"/>
<polygon fill="#191970" stroke="#191970" points="724.2262,-174.9765 714.2027,-178.4086 724.1787,-181.9763 724.2262,-174.9765"/>
</g>
<!-- Node67&#45;&gt;Node13 -->
<g id="edge120" class="edge">
<title>Node67&#45;&gt;Node13</title>
<path fill="none" stroke="#191970" d="M3900.5317,-229.9853C3907.1747,-228.0056 3914.1322,-225.9336 3920.6334,-224 3961.9051,-211.7247 4009.3694,-197.6439 4040.7861,-188.3288"/>
<polygon fill="#191970" stroke="#191970" points="4041.8016,-191.6784 4050.3943,-185.4802 4039.8118,-184.9671 4041.8016,-191.6784"/>
</g>
<!-- Node67&#45;&gt;Node30 -->
<g id="edge124" class="edge">
<title>Node67&#45;&gt;Node30</title>
<path fill="none" stroke="#191970" d="M3831.0951,-235.9871C3791.6701,-232.4254 3727.8479,-227.0209 3672.6334,-224 3146.9542,-195.2395 3014.7266,-207.7928 2488.6334,-188 2438.0813,-186.0981 2381.1023,-183.5358 2337.3942,-181.481"/>
<polygon fill="#191970" stroke="#191970" points="2337.3021,-177.9729 2327.1482,-180.9972 2336.9719,-184.9651 2337.3021,-177.9729"/>
</g>
<!-- Node67&#45;&gt;Node35 -->
<g id="edge121" class="edge">
<title>Node67&#45;&gt;Node35</title>
<path fill="none" stroke="#191970" d="M3849.2584,-229.8906C3828.7839,-219.7359 3796.2892,-203.6196 3772.9449,-192.0416"/>
<polygon fill="#191970" stroke="#191970" points="3774.3862,-188.8496 3763.8723,-187.5419 3771.2759,-195.1207 3774.3862,-188.8496"/>
</g>
<!-- Node67&#45;&gt;Node44 -->
<g id="edge122" class="edge">
<title>Node67&#45;&gt;Node44</title>
<path fill="none" stroke="#191970" d="M3899.4987,-229.922C3927.4212,-220.7488 3969.3008,-205.7094 4003.6334,-188 4057.7517,-160.0848 4065.3164,-143.1606 4117.6334,-112 4136.8308,-100.5658 4159.1191,-88.8091 4176.3301,-80.0435"/>
<polygon fill="#191970" stroke="#191970" points="4177.9705,-83.1361 4185.3175,-75.5024 4174.8137,-76.8883 4177.9705,-83.1361"/>
</g>
<!-- Node67&#45;&gt;Node50 -->
<g id="edge119" class="edge">
<title>Node67&#45;&gt;Node50</title>
<path fill="none" stroke="#191970" d="M3866.6021,-229.8906C3864.7812,-221.276 3862.0532,-208.3708 3859.7735,-197.5858"/>
<polygon fill="#191970" stroke="#191970" points="3863.1858,-196.8048 3857.6933,-187.7449 3856.3371,-198.2525 3863.1858,-196.8048"/>
</g>
<!-- Node68 -->
<g id="node69" class="node">
<title>Node68</title>
<polygon fill="none" stroke="#bfbfbf" points="3941.1334,-168.5 3941.1334,-187.5 3994.1334,-187.5 3994.1334,-168.5 3941.1334,-168.5"/>
<text text-anchor="middle" x="3967.6334" y="-175.5" font-family="Helvetica,sans-Serif" font-size="10.00" fill="#000000">cstddef</text>
</g>
<!-- Node67&#45;&gt;Node68 -->
<g id="edge118" class="edge">
<title>Node67&#45;&gt;Node68</title>
<path fill="none" stroke="#191970" d="M3884.1021,-229.8906C3900.0854,-219.9616 3925.2437,-204.333 3943.7767,-192.8201"/>
<polygon fill="#191970" stroke="#191970" points="3945.6257,-195.7918 3952.2733,-187.5419 3941.9319,-189.8457 3945.6257,-195.7918"/>
</g>
<!-- Node69&#45;&gt;Node7 -->
<g id="edge129" class="edge">
<title>Node69&#45;&gt;Node7</title>
<path fill="none" stroke="#191970" d="M4038.834,-232.8318C4002.2756,-229.5703 3956.5537,-225.9379 3915.6334,-224 3264.0707,-193.1428 1145.0832,-180.5852 724.5635,-178.3673"/>
<polygon fill="#191970" stroke="#191970" points="724.381,-174.8664 714.3628,-178.3138 724.3442,-181.8663 724.381,-174.8664"/>
</g>
<!-- Node69&#45;&gt;Node44 -->
<g id="edge128" class="edge">
<title>Node69&#45;&gt;Node44</title>
<path fill="none" stroke="#191970" d="M4129.3192,-229.8452C4145.9993,-221.2708 4168.2279,-207.1294 4180.6334,-188 4201.0042,-156.588 4204.7888,-111.7415 4205.1111,-86.0819"/>
<polygon fill="#191970" stroke="#191970" points="4208.6097,-85.7431 4205.0627,-75.7596 4201.6097,-85.776 4208.6097,-85.7431"/>
</g>
<!-- Node70&#45;&gt;Node7 -->
<g id="edge131" class="edge">
<title>Node70&#45;&gt;Node7</title>
<path fill="none" stroke="#191970" d="M3869.0898,-372.8852C3440.6021,-368.3451 803.8659,-339.7032 767.6334,-322 713.2371,-295.4219 676.0333,-229.8546 660.2119,-197.167"/>
<polygon fill="#191970" stroke="#191970" points="663.2384,-195.3764 655.8318,-187.8006 656.8975,-198.3417 663.2384,-195.3764"/>
</g>
<!-- Node70&#45;&gt;Node16 -->
<g id="edge136" class="edge">
<title>Node70&#45;&gt;Node16</title>
<path fill="none" stroke="#191970" d="M3868.9982,-371.5939C3574.6382,-362.0247 2259.4715,-319.2706 1937.8001,-308.8135"/>
<polygon fill="#191970" stroke="#191970" points="1937.7836,-305.3112 1927.6752,-308.4844 1937.5561,-312.3075 1937.7836,-305.3112"/>
</g>
<!-- Node70&#45;&gt;Node39 -->
<g id="edge135" class="edge">
<title>Node70&#45;&gt;Node39</title>
<path fill="none" stroke="#191970" d="M3869.1018,-365.4318C3746.1979,-348.1441 3452.4669,-305.0096 3208.6334,-255 3203.3233,-253.9109 3197.7833,-252.6835 3192.2874,-251.4083"/>
<polygon fill="#191970" stroke="#191970" points="3193.0403,-247.9898 3182.5018,-249.0809 3191.4206,-254.7999 3193.0403,-247.9898"/>
</g>
<!-- Node70&#45;&gt;Node44 -->
<g id="edge132" class="edge">
<title>Node70&#45;&gt;Node44</title>
<path fill="none" stroke="#191970" d="M3986.3836,-368.5657C4032.2017,-362.6749 4096.1489,-349.8391 4145.6334,-322 4182.0632,-301.5053 4189.6333,-290.5409 4211.6334,-255 4245.3786,-200.4851 4249.1438,-173.3839 4230.6334,-112 4227.7019,-102.2785 4222.4447,-92.3641 4217.4211,-84.241"/>
<polygon fill="#191970" stroke="#191970" points="4220.1956,-82.0892 4211.7844,-75.6469 4214.3422,-85.9284 4220.1956,-82.0892"/>
</g>
<!-- Node70&#45;&gt;Node47 -->
<g id="edge133" class="edge">
<title>Node70&#45;&gt;Node47</title>
<path fill="none" stroke="#191970" d="M3986.1791,-365.0665C4047.8199,-352.7235 4141.8706,-323.2584 4185.6334,-255 4224.3679,-194.5843 4115.995,-153.3386 4048.3664,-134.1993"/>
<polygon fill="#191970" stroke="#191970" points="4049.277,-130.8198 4038.7064,-131.5362 4047.4166,-137.5681 4049.277,-130.8198"/>
</g>
<!-- Node70&#45;&gt;Node66 -->
<g id="edge134" class="edge">
<title>Node70&#45;&gt;Node66</title>
<path fill="none" stroke="#191970" d="M3930.7855,-363.9005C3934.0528,-353.95 3939.2477,-338.1292 3943.3569,-325.6147"/>
<polygon fill="#191970" stroke="#191970" points="3946.6927,-326.6745 3946.4872,-316.0817 3940.0421,-324.4907 3946.6927,-326.6745"/>
</g>
<!-- Node71&#45;&gt;Node8 -->
<g id="edge140" class="edge">
<title>Node71&#45;&gt;Node8</title>
<path fill="none" stroke="#191970" d="M4346.7929,-370.5603C4263.9412,-367.0695 4119.5191,-361.3052 3995.6334,-358 3018.5168,-331.9314 2773.2613,-362.4263 1796.6334,-322 1572.3312,-312.7153 965.0537,-393.8292 788.6334,-255 754.3593,-228.0289 751.1771,-171.8334 752.1665,-141.8502"/>
<polygon fill="#191970" stroke="#191970" points="755.6672,-141.9269 752.6938,-131.7579 748.6767,-141.5616 755.6672,-141.9269"/>
</g>
<!-- Node71&#45;&gt;Node34 -->
<g id="edge145" class="edge">
<title>Node71&#45;&gt;Node34</title>
<path fill="none" stroke="#191970" d="M4347.012,-370.2685C4118.441,-359.3453 3374.1092,-323.7745 3108.1659,-311.0654"/>
<polygon fill="#191970" stroke="#191970" points="3108.3021,-307.568 3098.1464,-310.5866 3107.9679,-314.56 3108.3021,-307.568"/>
</g>
<!-- Node71&#45;&gt;Node36 -->
<g id="edge141" class="edge">
<title>Node71&#45;&gt;Node36</title>
<path fill="none" stroke="#191970" d="M4400.6752,-358.2926C4392.372,-348.5418 4382.2086,-335.264 4375.6334,-322 4344.0716,-258.3311 4383.4669,-217.6571 4332.6334,-168 4312.0954,-147.9373 4233.3456,-133.6179 4186.7578,-126.6974"/>
<polygon fill="#191970" stroke="#191970" points="4187.1763,-123.2216 4176.7784,-125.2549 4186.1748,-130.1496 4187.1763,-123.2216"/>
</g>
<!-- Node72 -->
<g id="node73" class="node">
<title>Node72</title>
<polygon fill="none" stroke="#bfbfbf" points="4736.6334,-297 4736.6334,-316 4780.6334,-316 4780.6334,-297 4736.6334,-297"/>
<text text-anchor="middle" x="4758.6334" y="-304" font-family="Helvetica,sans-Serif" font-size="10.00" fill="#000000">ctime</text>
</g>
<!-- Node71&#45;&gt;Node72 -->
<g id="edge142" class="edge">
<title>Node71&#45;&gt;Node72</title>
<path fill="none" stroke="#191970" d="M4482.2633,-368.2787C4546.6093,-361.9414 4645.5134,-348.61 4727.6334,-322 4729.2469,-321.4772 4730.8809,-320.8815 4732.5114,-320.2355"/>
<polygon fill="#191970" stroke="#191970" points="4733.951,-323.4258 4741.6429,-316.1399 4731.0863,-317.0388 4733.951,-323.4258"/>
</g>
<!-- Node73 -->
<g id="node74" class="node">
<title>Node73</title>
<g id="a_node74"><a xlink:href="../../d4/dc6/LHCConstants_8h.html" target="_top" xlink:title="Header to collect LHC related constants. ">
<polygon fill="none" stroke="#000000" points="4384.6334,-297 4384.6334,-316 4574.6334,-316 4574.6334,-297 4384.6334,-297"/>
<text text-anchor="middle" x="4479.6334" y="-304" font-family="Helvetica,sans-Serif" font-size="10.00" fill="#000000">CommonConstants/LHCConstants.h</text>
</a>
</g>
</g>
<!-- Node71&#45;&gt;Node73 -->
<g id="edge143" class="edge">
<title>Node71&#45;&gt;Node73</title>
<path fill="none" stroke="#191970" d="M4429.3829,-358.2967C4439.5102,-347.8578 4452.9546,-333.9997 4463.3886,-323.2446"/>
<polygon fill="#191970" stroke="#191970" points="4465.9126,-325.6695 4470.3636,-316.055 4460.8884,-320.7953 4465.9126,-325.6695"/>
</g>
<!-- Node74 -->
<g id="node75" class="node">
<title>Node74</title>
<g id="a_node75"><a xlink:href="../../da/d58/Units_8h.html" target="_top" xlink:title="Header to collect definitions for different units. ">
<polygon fill="none" stroke="#000000" points="4592.6334,-297 4592.6334,-316 4718.6334,-316 4718.6334,-297 4592.6334,-297"/>
<text text-anchor="middle" x="4655.6334" y="-304" font-family="Helvetica,sans-Serif" font-size="10.00" fill="#000000">CommonTypes/Units.h</text>
</a>
</g>
</g>
<!-- Node71&#45;&gt;Node74 -->
<g id="edge144" class="edge">
<title>Node71&#45;&gt;Node74</title>
<path fill="none" stroke="#191970" d="M4468.7185,-358.4639C4511.8332,-346.4776 4571.4445,-329.9052 4611.6586,-318.7254"/>
<polygon fill="#191970" stroke="#191970" points="4612.7456,-322.056 4621.4427,-316.0053 4610.8706,-315.3117 4612.7456,-322.056"/>
</g>
</g>
</svg>
