<?xml version="1.0" encoding="UTF-8" standalone="no"?>
<!DOCTYPE svg PUBLIC "-//W3C//DTD SVG 1.1//EN"
 "http://www.w3.org/Graphics/SVG/1.1/DTD/svg11.dtd">
<!-- Generated by graphviz version 2.40.1 (20161225.0304)
 -->
<!-- Title: /home/travis/build/AliceO2Group/AliceO2/Detectors/TRD/base/include/TRDBase/CalOnlineGainTables.h Pages: 1 -->
<svg width="3064pt" height="542pt"
 viewBox="0.00 0.00 3064.00 542.00" xmlns="http://www.w3.org/2000/svg" xmlns:xlink="http://www.w3.org/1999/xlink">
<g id="graph0" class="graph" transform="scale(1 1) rotate(0) translate(4 538)">
<title>/home/travis/build/AliceO2Group/AliceO2/Detectors/TRD/base/include/TRDBase/CalOnlineGainTables.h</title>
<!-- Node0 -->
<g id="node1" class="node">
<title>Node0</title>
<polygon fill="#bfbfbf" stroke="#000000" points="996,-481.5 996,-533.5 1172,-533.5 1172,-481.5 996,-481.5"/>
<text text-anchor="start" x="1004" y="-521.5" font-family="Helvetica,sans-Serif" font-size="10.00" fill="#000000">/home/travis/build</text>
<text text-anchor="start" x="1004" y="-510.5" font-family="Helvetica,sans-Serif" font-size="10.00" fill="#000000">/AliceO2Group/AliceO2</text>
<text text-anchor="start" x="1004" y="-499.5" font-family="Helvetica,sans-Serif" font-size="10.00" fill="#000000">/Detectors/TRD/base/include</text>
<text text-anchor="middle" x="1084" y="-488.5" font-family="Helvetica,sans-Serif" font-size="10.00" fill="#000000">/TRDBase/CalOnlineGainTables.h</text>
</g>
<!-- Node1 -->
<g id="node2" class="node">
<title>Node1</title>
<polygon fill="none" stroke="#bfbfbf" points="797,-112.5 797,-131.5 839,-131.5 839,-112.5 797,-112.5"/>
<text text-anchor="middle" x="818" y="-119.5" font-family="Helvetica,sans-Serif" font-size="10.00" fill="#000000">array</text>
</g>
<!-- Node0&#45;&gt;Node1 -->
<g id="edge1" class="edge">
<title>Node0&#45;&gt;Node1</title>
<path fill="none" stroke="#191970" d="M995.7513,-505.8174C737.2736,-499.7282 0,-473.5874 0,-373.5 0,-373.5 0,-373.5 0,-239.5 0,-160.7991 85.608,-186.9233 162,-168 282.7755,-138.0822 673.4524,-125.7631 786.8645,-122.7632"/>
<polygon fill="#191970" stroke="#191970" points="787.05,-126.2596 796.956,-122.5017 786.8686,-119.262 787.05,-126.2596"/>
</g>
<!-- Node2 -->
<g id="node3" class="node">
<title>Node2</title>
<g id="a_node3"><a xlink:href="../../dd/d07/TRDGeometry_8h.html" target="_top" xlink:title="TRDBase/TRDGeometry.h">
<polygon fill="none" stroke="#000000" points="2099,-425.5 2099,-444.5 2239,-444.5 2239,-425.5 2099,-425.5"/>
<text text-anchor="middle" x="2169" y="-432.5" font-family="Helvetica,sans-Serif" font-size="10.00" fill="#000000">TRDBase/TRDGeometry.h</text>
</a>
</g>
</g>
<!-- Node0&#45;&gt;Node2 -->
<g id="edge2" class="edge">
<title>Node0&#45;&gt;Node2</title>
<path fill="none" stroke="#191970" d="M1172.3301,-501.5978C1378.8204,-487.8 1890.5941,-453.6032 2088.7985,-440.3591"/>
<polygon fill="#191970" stroke="#191970" points="2089.105,-443.8465 2098.8494,-439.6875 2088.6382,-436.8621 2089.105,-443.8465"/>
</g>
<!-- Node3 -->
<g id="node4" class="node">
<title>Node3</title>
<g id="a_node4"><a xlink:href="../../d8/dad/TRDGeometryBase_8h.html" target="_top" xlink:title="TRDBase/TRDGeometryBase.h">
<polygon fill="none" stroke="#000000" points="2258,-364 2258,-383 2424,-383 2424,-364 2258,-364"/>
<text text-anchor="middle" x="2341" y="-371" font-family="Helvetica,sans-Serif" font-size="10.00" fill="#000000">TRDBase/TRDGeometryBase.h</text>
</a>
</g>
</g>
<!-- Node2&#45;&gt;Node3 -->
<g id="edge3" class="edge">
<title>Node2&#45;&gt;Node3</title>
<path fill="none" stroke="#191970" d="M2195.875,-425.3906C2225.1586,-414.92 2272.169,-398.1111 2304.7137,-386.4745"/>
<polygon fill="#191970" stroke="#191970" points="2306.0759,-389.7045 2314.3137,-383.0419 2303.7191,-383.1131 2306.0759,-389.7045"/>
</g>
<!-- Node12 -->
<g id="node13" class="node">
<title>Node12</title>
<g id="a_node13"><a xlink:href="../../d4/d20/DetMatrixCache_8h.html" target="_top" xlink:title="DetectorsCommonDataFormats\l/DetMatrixCache.h">
<polygon fill="none" stroke="#000000" points="1718.5,-358.5 1718.5,-388.5 1889.5,-388.5 1889.5,-358.5 1718.5,-358.5"/>
<text text-anchor="start" x="1726.5" y="-376.5" font-family="Helvetica,sans-Serif" font-size="10.00" fill="#000000">DetectorsCommonDataFormats</text>
<text text-anchor="middle" x="1804" y="-365.5" font-family="Helvetica,sans-Serif" font-size="10.00" fill="#000000">/DetMatrixCache.h</text>
</a>
</g>
</g>
<!-- Node2&#45;&gt;Node12 -->
<g id="edge14" class="edge">
<title>Node2&#45;&gt;Node12</title>
<path fill="none" stroke="#191970" d="M2112.3692,-425.4581C2055.7072,-415.9109 1967.4835,-401.0459 1899.8932,-389.6573"/>
<polygon fill="#191970" stroke="#191970" points="1900.0967,-386.1424 1889.6542,-387.9321 1898.9336,-393.0451 1900.0967,-386.1424"/>
</g>
<!-- Node16 -->
<g id="node17" class="node">
<title>Node16</title>
<polygon fill="none" stroke="#bfbfbf" points="1832.5,-297 1832.5,-316 1879.5,-316 1879.5,-297 1832.5,-297"/>
<text text-anchor="middle" x="1856" y="-304" font-family="Helvetica,sans-Serif" font-size="10.00" fill="#000000">vector</text>
</g>
<!-- Node2&#45;&gt;Node16 -->
<g id="edge69" class="edge">
<title>Node2&#45;&gt;Node16</title>
<path fill="none" stroke="#191970" d="M2143.5681,-425.4466C2093.9709,-406.6677 1981.0386,-363.1816 1888,-322 1886.8252,-321.48 1885.6299,-320.9421 1884.4252,-320.3926"/>
<polygon fill="#191970" stroke="#191970" points="1885.7304,-317.1389 1875.1906,-316.0599 1882.757,-323.4761 1885.7304,-317.1389"/>
</g>
<!-- Node27 -->
<g id="node28" class="node">
<title>Node27</title>
<g id="a_node28"><a xlink:href="../../d6/d31/DetID_8h.html" target="_top" xlink:title="DetectorsCommonDataFormats\l/DetID.h">
<polygon fill="none" stroke="#000000" points="2083.5,-291.5 2083.5,-321.5 2254.5,-321.5 2254.5,-291.5 2083.5,-291.5"/>
<text text-anchor="start" x="2091.5" y="-309.5" font-family="Helvetica,sans-Serif" font-size="10.00" fill="#000000">DetectorsCommonDataFormats</text>
<text text-anchor="middle" x="2169" y="-298.5" font-family="Helvetica,sans-Serif" font-size="10.00" fill="#000000">/DetID.h</text>
</a>
</g>
</g>
<!-- Node2&#45;&gt;Node27 -->
<g id="edge67" class="edge">
<title>Node2&#45;&gt;Node27</title>
<path fill="none" stroke="#191970" d="M2169,-425.3416C2169,-405.6745 2169,-360.4221 2169,-331.7784"/>
<polygon fill="#191970" stroke="#191970" points="2172.5001,-331.7016 2169,-321.7016 2165.5001,-331.7016 2172.5001,-331.7016"/>
</g>
<!-- Node32 -->
<g id="node33" class="node">
<title>Node32</title>
<polygon fill="none" stroke="#bfbfbf" points="2870,-168.5 2870,-187.5 2914,-187.5 2914,-168.5 2870,-168.5"/>
<text text-anchor="middle" x="2892" y="-175.5" font-family="Helvetica,sans-Serif" font-size="10.00" fill="#000000">string</text>
</g>
<!-- Node2&#45;&gt;Node32 -->
<g id="edge68" class="edge">
<title>Node2&#45;&gt;Node32</title>
<path fill="none" stroke="#191970" d="M2239.1187,-426.9259C2292.8552,-419.7473 2368.4865,-407.4894 2433,-389 2580.0397,-346.8589 2612.6714,-322.3603 2750,-255 2791.3965,-234.6948 2838.1913,-208.7108 2866.3754,-192.7176"/>
<polygon fill="#191970" stroke="#191970" points="2868.2283,-195.6902 2875.1853,-187.6995 2864.7637,-189.6077 2868.2283,-195.6902"/>
</g>
<!-- Node44 -->
<g id="node45" class="node">
<title>Node44</title>
<polygon fill="none" stroke="#bfbfbf" points="2932,-168.5 2932,-187.5 2990,-187.5 2990,-168.5 2932,-168.5"/>
<text text-anchor="middle" x="2961" y="-175.5" font-family="Helvetica,sans-Serif" font-size="10.00" fill="#000000">memory</text>
</g>
<!-- Node2&#45;&gt;Node44 -->
<g id="edge70" class="edge">
<title>Node2&#45;&gt;Node44</title>
<path fill="none" stroke="#191970" d="M2239.1895,-429.9762C2305.4875,-424.0765 2407.2649,-412.021 2493,-389 2671.3964,-341.0982 2867.6761,-232.464 2935.9593,-192.8283"/>
<polygon fill="#191970" stroke="#191970" points="2937.8591,-195.772 2944.7297,-187.7069 2934.3293,-189.7271 2937.8591,-195.772"/>
</g>
<!-- Node4 -->
<g id="node5" class="node">
<title>Node4</title>
<g id="a_node5"><a xlink:href="../../df/d21/GPUCommonDef_8h.html" target="_top" xlink:title="GPUCommonDef.h">
<polygon fill="none" stroke="#000000" points="2649.5,-56.5 2649.5,-75.5 2756.5,-75.5 2756.5,-56.5 2649.5,-56.5"/>
<text text-anchor="middle" x="2703" y="-63.5" font-family="Helvetica,sans-Serif" font-size="10.00" fill="#000000">GPUCommonDef.h</text>
</a>
</g>
</g>
<!-- Node3&#45;&gt;Node4 -->
<g id="edge4" class="edge">
<title>Node3&#45;&gt;Node4</title>
<path fill="none" stroke="#191970" d="M2424.0682,-366.5479C2612.4783,-349.6645 3056,-303.1596 3056,-239.5 3056,-239.5 3056,-239.5 3056,-178 3056,-140.3794 3035.5883,-130.7966 3003,-112 2963.9295,-89.4645 2842.9507,-76.4979 2767.0874,-70.3803"/>
<polygon fill="#191970" stroke="#191970" points="2766.9392,-66.8579 2756.6954,-69.5622 2766.3898,-73.8363 2766.9392,-66.8579"/>
</g>
<!-- Node7 -->
<g id="node8" class="node">
<title>Node7</title>
<g id="a_node8"><a xlink:href="../../da/d32/TRDCommonParam_8h.html" target="_top" xlink:title="TRDBase/TRDCommonParam.h">
<polygon fill="none" stroke="#000000" points="1897,-297 1897,-316 2065,-316 2065,-297 1897,-297"/>
<text text-anchor="middle" x="1981" y="-304" font-family="Helvetica,sans-Serif" font-size="10.00" fill="#000000">TRDBase/TRDCommonParam.h</text>
</a>
</g>
</g>
<!-- Node3&#45;&gt;Node7 -->
<g id="edge7" class="edge">
<title>Node3&#45;&gt;Node7</title>
<path fill="none" stroke="#191970" d="M2289.8031,-363.9717C2224.5832,-351.8335 2111.9866,-330.8781 2042.2748,-317.9039"/>
<polygon fill="#191970" stroke="#191970" points="2042.783,-314.4385 2032.3114,-316.0496 2041.5022,-321.3203 2042.783,-314.4385"/>
</g>
<!-- Node10 -->
<g id="node11" class="node">
<title>Node10</title>
<g id="a_node11"><a xlink:href="../../d6/dc2/DataFormats_2Detectors_2TRD_2include_2DataFormatsTRD_2Constants_8h.html" target="_top" xlink:title="DataFormatsTRD/Constants.h">
<polygon fill="none" stroke="#000000" points="2427.5,-297 2427.5,-316 2588.5,-316 2588.5,-297 2427.5,-297"/>
<text text-anchor="middle" x="2508" y="-304" font-family="Helvetica,sans-Serif" font-size="10.00" fill="#000000">DataFormatsTRD/Constants.h</text>
</a>
</g>
</g>
<!-- Node3&#45;&gt;Node10 -->
<g id="edge10" class="edge">
<title>Node3&#45;&gt;Node10</title>
<path fill="none" stroke="#191970" d="M2364.927,-363.9005C2393.6975,-352.3579 2442.1564,-332.9163 2474.6017,-319.8993"/>
<polygon fill="#191970" stroke="#191970" points="2476.1397,-323.0535 2484.1174,-316.0817 2473.5332,-316.5569 2476.1397,-323.0535"/>
</g>
<!-- Node11 -->
<g id="node12" class="node">
<title>Node11</title>
<g id="a_node12"><a xlink:href="../../de/df3/TRDPadPlane_8h.html" target="_top" xlink:title="TRDBase/TRDPadPlane.h">
<polygon fill="none" stroke="#000000" points="2272.5,-297 2272.5,-316 2409.5,-316 2409.5,-297 2272.5,-297"/>
<text text-anchor="middle" x="2341" y="-304" font-family="Helvetica,sans-Serif" font-size="10.00" fill="#000000">TRDBase/TRDPadPlane.h</text>
</a>
</g>
</g>
<!-- Node3&#45;&gt;Node11 -->
<g id="edge11" class="edge">
<title>Node3&#45;&gt;Node11</title>
<path fill="none" stroke="#191970" d="M2341,-363.9005C2341,-354.149 2341,-338.7597 2341,-326.3695"/>
<polygon fill="#191970" stroke="#191970" points="2344.5001,-326.0816 2341,-316.0817 2337.5001,-326.0817 2344.5001,-326.0816"/>
</g>
<!-- Node5 -->
<g id="node6" class="node">
<title>Node5</title>
<g id="a_node6"><a xlink:href="../../d5/d93/GPUCommonDefSettings_8h.html" target="_top" xlink:title="GPUCommonDefSettings.h">
<polygon fill="none" stroke="#000000" points="2552,-.5 2552,-19.5 2700,-19.5 2700,-.5 2552,-.5"/>
<text text-anchor="middle" x="2626" y="-7.5" font-family="Helvetica,sans-Serif" font-size="10.00" fill="#000000">GPUCommonDefSettings.h</text>
</a>
</g>
</g>
<!-- Node4&#45;&gt;Node5 -->
<g id="edge5" class="edge">
<title>Node4&#45;&gt;Node5</title>
<path fill="none" stroke="#191970" d="M2689.5876,-56.2455C2677.9943,-47.814 2661.0252,-35.4729 2647.5322,-25.6598"/>
<polygon fill="#191970" stroke="#191970" points="2649.4047,-22.6938 2639.2587,-19.6427 2645.2874,-28.355 2649.4047,-22.6938"/>
</g>
<!-- Node6 -->
<g id="node7" class="node">
<title>Node6</title>
<g id="a_node7"><a xlink:href="../../da/d5a/GPUCommonDefAPI_8h.html" target="_top" xlink:title="GPUCommonDefAPI.h">
<polygon fill="none" stroke="#000000" points="2718,-.5 2718,-19.5 2842,-19.5 2842,-.5 2718,-.5"/>
<text text-anchor="middle" x="2780" y="-7.5" font-family="Helvetica,sans-Serif" font-size="10.00" fill="#000000">GPUCommonDefAPI.h</text>
</a>
</g>
</g>
<!-- Node4&#45;&gt;Node6 -->
<g id="edge6" class="edge">
<title>Node4&#45;&gt;Node6</title>
<path fill="none" stroke="#191970" d="M2716.4124,-56.2455C2728.0057,-47.814 2744.9748,-35.4729 2758.4678,-25.6598"/>
<polygon fill="#191970" stroke="#191970" points="2760.7126,-28.355 2766.7413,-19.6427 2756.5953,-22.6938 2760.7126,-28.355"/>
</g>
<!-- Node8 -->
<g id="node9" class="node">
<title>Node8</title>
<g id="a_node9"><a xlink:href="../../d2/d45/GPUCommonRtypes_8h.html" target="_top" xlink:title="GPUCommonRtypes.h">
<polygon fill="none" stroke="#000000" points="1750.5,-230 1750.5,-249 1875.5,-249 1875.5,-230 1750.5,-230"/>
<text text-anchor="middle" x="1813" y="-237" font-family="Helvetica,sans-Serif" font-size="10.00" fill="#000000">GPUCommonRtypes.h</text>
</a>
</g>
</g>
<!-- Node7&#45;&gt;Node8 -->
<g id="edge8" class="edge">
<title>Node7&#45;&gt;Node8</title>
<path fill="none" stroke="#191970" d="M1956.9297,-296.9005C1927.987,-285.3579 1879.2379,-265.9163 1846.5983,-252.8993"/>
<polygon fill="#191970" stroke="#191970" points="1847.6108,-249.5351 1837.0257,-249.0817 1845.0177,-256.0371 1847.6108,-249.5351"/>
</g>
<!-- Node9 -->
<g id="node10" class="node">
<title>Node9</title>
<polygon fill="none" stroke="#bfbfbf" points="1570.5,-168.5 1570.5,-187.5 1629.5,-187.5 1629.5,-168.5 1570.5,-168.5"/>
<text text-anchor="middle" x="1600" y="-175.5" font-family="Helvetica,sans-Serif" font-size="10.00" fill="#000000">Rtypes.h</text>
</g>
<!-- Node8&#45;&gt;Node9 -->
<g id="edge9" class="edge">
<title>Node8&#45;&gt;Node9</title>
<path fill="none" stroke="#191970" d="M1779.7188,-229.8906C1741.7508,-218.9281 1679.7192,-201.0175 1639.3778,-189.3697"/>
<polygon fill="#191970" stroke="#191970" points="1640.1952,-185.9628 1629.6167,-186.5513 1638.2534,-192.688 1640.1952,-185.9628"/>
</g>
<!-- Node11&#45;&gt;Node4 -->
<g id="edge13" class="edge">
<title>Node11&#45;&gt;Node4</title>
<path fill="none" stroke="#191970" d="M2385.4287,-296.9702C2396.3714,-294.817 2408.0826,-292.6751 2419,-291 2548.3912,-271.1467 2919.3644,-291.8962 2999,-188 3062.8112,-104.749 2871.6902,-77.9411 2766.8179,-69.6002"/>
<polygon fill="#191970" stroke="#191970" points="2766.8772,-66.0947 2756.6407,-68.827 2766.3468,-73.0746 2766.8772,-66.0947"/>
</g>
<!-- Node11&#45;&gt;Node8 -->
<g id="edge12" class="edge">
<title>Node11&#45;&gt;Node8</title>
<path fill="none" stroke="#191970" d="M2297.149,-296.9382C2286.3463,-294.7859 2274.7831,-292.6525 2264,-291 2113.7977,-267.9815 2074.8242,-273.5101 1924,-255 1911.6563,-253.4851 1898.5573,-251.7605 1885.8496,-250.0253"/>
<polygon fill="#191970" stroke="#191970" points="1886.1482,-246.5335 1875.764,-248.6353 1885.1924,-253.4679 1886.1482,-246.5335"/>
</g>
<!-- Node12&#45;&gt;Node1 -->
<g id="edge19" class="edge">
<title>Node12&#45;&gt;Node1</title>
<path fill="none" stroke="#191970" d="M1718.3428,-373.2151C1381.939,-371.8016 166.243,-363.81 96,-322 55.7179,-298.0233 26.1326,-259.2808 57,-224 106.032,-167.9576 649.2455,-132.0382 786.5957,-123.8097"/>
<polygon fill="#191970" stroke="#191970" points="787.0683,-127.288 796.8437,-123.2023 786.6541,-120.3002 787.0683,-127.288"/>
</g>
<!-- Node12&#45;&gt;Node8 -->
<g id="edge18" class="edge">
<title>Node12&#45;&gt;Node8</title>
<path fill="none" stroke="#191970" d="M1805.0149,-358.389C1806.648,-334.0735 1809.8591,-286.2644 1811.6722,-259.2698"/>
<polygon fill="#191970" stroke="#191970" points="1815.1769,-259.3163 1812.3549,-249.1042 1808.1926,-258.8471 1815.1769,-259.3163"/>
</g>
<!-- Node13 -->
<g id="node14" class="node">
<title>Node13</title>
<g id="a_node14"><a xlink:href="../../df/d5b/GPUCommonLogger_8h.html" target="_top" xlink:title="GPUCommonLogger.h">
<polygon fill="none" stroke="#000000" points="105.5,-297 105.5,-316 228.5,-316 228.5,-297 105.5,-297"/>
<text text-anchor="middle" x="167" y="-304" font-family="Helvetica,sans-Serif" font-size="10.00" fill="#000000">GPUCommonLogger.h</text>
</a>
</g>
</g>
<!-- Node12&#45;&gt;Node13 -->
<g id="edge15" class="edge">
<title>Node12&#45;&gt;Node13</title>
<path fill="none" stroke="#191970" d="M1718.2926,-369.9921C1431.0268,-358.2348 505.3842,-320.3496 239.2121,-309.4555"/>
<polygon fill="#191970" stroke="#191970" points="239.0352,-305.9455 228.9004,-309.0335 238.7489,-312.9396 239.0352,-305.9455"/>
</g>
<!-- Node12&#45;&gt;Node16 -->
<g id="edge20" class="edge">
<title>Node12&#45;&gt;Node16</title>
<path fill="none" stroke="#191970" d="M1815.7996,-358.2967C1823.6655,-348.1618 1834.0327,-334.804 1842.2688,-324.1921"/>
<polygon fill="#191970" stroke="#191970" points="1845.2179,-326.1008 1848.5842,-316.055 1839.688,-321.8089 1845.2179,-326.1008"/>
</g>
<!-- Node17 -->
<g id="node18" class="node">
<title>Node17</title>
<g id="a_node18"><a xlink:href="../../dc/d73/Cartesian_8h.html" target="_top" xlink:title="MathUtils/Cartesian.h">
<polygon fill="none" stroke="#000000" points="982,-297 982,-316 1104,-316 1104,-297 982,-297"/>
<text text-anchor="middle" x="1043" y="-304" font-family="Helvetica,sans-Serif" font-size="10.00" fill="#000000">MathUtils/Cartesian.h</text>
</a>
</g>
</g>
<!-- Node12&#45;&gt;Node17 -->
<g id="edge21" class="edge">
<title>Node12&#45;&gt;Node17</title>
<path fill="none" stroke="#191970" d="M1718.1829,-365.9445C1566.7783,-352.6145 1254.9819,-325.1633 1114.4524,-312.7908"/>
<polygon fill="#191970" stroke="#191970" points="1114.4976,-309.2813 1104.2291,-311.8907 1113.8836,-316.2544 1114.4976,-309.2813"/>
</g>
<!-- Node12&#45;&gt;Node27 -->
<g id="edge32" class="edge">
<title>Node12&#45;&gt;Node27</title>
<path fill="none" stroke="#191970" d="M1885.9131,-358.4639C1942.639,-348.0512 2018.2199,-334.1775 2077.0162,-323.3847"/>
<polygon fill="#191970" stroke="#191970" points="2077.8414,-326.7918 2087.0451,-321.5438 2076.5775,-319.9068 2077.8414,-326.7918"/>
</g>
<!-- Node14 -->
<g id="node15" class="node">
<title>Node14</title>
<polygon fill="none" stroke="#bfbfbf" points="66,-230 66,-249 126,-249 126,-230 66,-230"/>
<text text-anchor="middle" x="96" y="-237" font-family="Helvetica,sans-Serif" font-size="10.00" fill="#000000">iostream</text>
</g>
<!-- Node13&#45;&gt;Node14 -->
<g id="edge16" class="edge">
<title>Node13&#45;&gt;Node14</title>
<path fill="none" stroke="#191970" d="M156.8274,-296.9005C145.5447,-286.2535 127.1399,-268.8856 113.5258,-256.0385"/>
<polygon fill="#191970" stroke="#191970" points="115.8288,-253.3994 106.1537,-249.0817 111.0246,-258.4905 115.8288,-253.3994"/>
</g>
<!-- Node15 -->
<g id="node16" class="node">
<title>Node15</title>
<polygon fill="none" stroke="#bfbfbf" points="144,-230 144,-249 190,-249 190,-230 144,-230"/>
<text text-anchor="middle" x="167" y="-237" font-family="Helvetica,sans-Serif" font-size="10.00" fill="#000000">cstdio</text>
</g>
<!-- Node13&#45;&gt;Node15 -->
<g id="edge17" class="edge">
<title>Node13&#45;&gt;Node15</title>
<path fill="none" stroke="#191970" d="M167,-296.9005C167,-287.149 167,-271.7597 167,-259.3695"/>
<polygon fill="#191970" stroke="#191970" points="170.5001,-259.0816 167,-249.0817 163.5001,-259.0817 170.5001,-259.0816"/>
</g>
<!-- Node17&#45;&gt;Node9 -->
<g id="edge29" class="edge">
<title>Node17&#45;&gt;Node9</title>
<path fill="none" stroke="#191970" d="M1104.0641,-303.9614C1263.7458,-297.0291 1682.8062,-276.831 1703,-255 1712.3557,-244.8858 1710.4973,-235.5593 1703,-224 1695.4875,-212.4172 1665.0089,-199.6403 1639.1393,-190.4977"/>
<polygon fill="#191970" stroke="#191970" points="1640.1024,-187.1277 1629.5077,-187.1817 1637.8237,-193.7465 1640.1024,-187.1277"/>
</g>
<!-- Node18 -->
<g id="node19" class="node">
<title>Node18</title>
<polygon fill="none" stroke="#bfbfbf" points="766,-224.5 766,-254.5 930,-254.5 930,-224.5 766,-224.5"/>
<text text-anchor="start" x="774" y="-242.5" font-family="Helvetica,sans-Serif" font-size="10.00" fill="#000000">Math/GenVector/Displacement</text>
<text text-anchor="middle" x="848" y="-231.5" font-family="Helvetica,sans-Serif" font-size="10.00" fill="#000000">Vector3D.h</text>
</g>
<!-- Node17&#45;&gt;Node18 -->
<g id="edge22" class="edge">
<title>Node17&#45;&gt;Node18</title>
<path fill="none" stroke="#191970" d="M1015.0613,-296.9005C985.4796,-286.7366 938.0721,-270.4479 901.3023,-257.8141"/>
<polygon fill="#191970" stroke="#191970" points="902.3147,-254.4612 891.7201,-254.5218 900.0401,-261.0813 902.3147,-254.4612"/>
</g>
<!-- Node19 -->
<g id="node20" class="node">
<title>Node19</title>
<polygon fill="none" stroke="#bfbfbf" points="948.5,-230 948.5,-249 1137.5,-249 1137.5,-230 948.5,-230"/>
<text text-anchor="middle" x="1043" y="-237" font-family="Helvetica,sans-Serif" font-size="10.00" fill="#000000">Math/GenVector/PositionVector3D.h</text>
</g>
<!-- Node17&#45;&gt;Node19 -->
<g id="edge23" class="edge">
<title>Node17&#45;&gt;Node19</title>
<path fill="none" stroke="#191970" d="M1043,-296.9005C1043,-287.149 1043,-271.7597 1043,-259.3695"/>
<polygon fill="#191970" stroke="#191970" points="1046.5001,-259.0816 1043,-249.0817 1039.5001,-259.0817 1046.5001,-259.0816"/>
</g>
<!-- Node20 -->
<g id="node21" class="node">
<title>Node20</title>
<polygon fill="none" stroke="#bfbfbf" points="1156,-230 1156,-249 1316,-249 1316,-230 1156,-230"/>
<text text-anchor="middle" x="1236" y="-237" font-family="Helvetica,sans-Serif" font-size="10.00" fill="#000000">Math/GenVector/Rotation3D.h</text>
</g>
<!-- Node17&#45;&gt;Node20 -->
<g id="edge24" class="edge">
<title>Node17&#45;&gt;Node20</title>
<path fill="none" stroke="#191970" d="M1070.6522,-296.9005C1104.3318,-285.2086 1161.3574,-265.4122 1198.8472,-252.3976"/>
<polygon fill="#191970" stroke="#191970" points="1200.1,-255.6677 1208.3991,-249.0817 1197.8043,-249.0548 1200.1,-255.6677"/>
</g>
<!-- Node21 -->
<g id="node22" class="node">
<title>Node21</title>
<polygon fill="none" stroke="#bfbfbf" points="1334,-230 1334,-249 1502,-249 1502,-230 1334,-230"/>
<text text-anchor="middle" x="1418" y="-237" font-family="Helvetica,sans-Serif" font-size="10.00" fill="#000000">Math/GenVector/Transform3D.h</text>
</g>
<!-- Node17&#45;&gt;Node21 -->
<g id="edge25" class="edge">
<title>Node17&#45;&gt;Node21</title>
<path fill="none" stroke="#191970" d="M1096.3301,-296.9717C1164.4067,-284.8087 1282.0365,-263.7921 1354.6179,-250.8243"/>
<polygon fill="#191970" stroke="#191970" points="1355.3221,-254.254 1364.5506,-249.0496 1354.0909,-247.3631 1355.3221,-254.254"/>
</g>
<!-- Node22 -->
<g id="node23" class="node">
<title>Node22</title>
<polygon fill="none" stroke="#bfbfbf" points="1520.5,-230 1520.5,-249 1693.5,-249 1693.5,-230 1520.5,-230"/>
<text text-anchor="middle" x="1607" y="-237" font-family="Helvetica,sans-Serif" font-size="10.00" fill="#000000">Math/GenVector/Translation3D.h</text>
</g>
<!-- Node17&#45;&gt;Node22 -->
<g id="edge26" class="edge">
<title>Node17&#45;&gt;Node22</title>
<path fill="none" stroke="#191970" d="M1104.0741,-300.772C1193.5389,-292.1563 1365.4052,-274.7518 1511,-255 1520.7239,-253.6808 1530.9811,-252.1616 1541.0283,-250.6013"/>
<polygon fill="#191970" stroke="#191970" points="1541.6447,-254.0474 1550.9778,-249.0331 1540.5548,-247.1328 1541.6447,-254.0474"/>
</g>
<!-- Node23 -->
<g id="node24" class="node">
<title>Node23</title>
<polygon fill="none" stroke="#bfbfbf" points="208,-224.5 208,-254.5 372,-254.5 372,-224.5 208,-224.5"/>
<text text-anchor="start" x="216" y="-242.5" font-family="Helvetica,sans-Serif" font-size="10.00" fill="#000000">Math/GenVector/Displacement</text>
<text text-anchor="middle" x="290" y="-231.5" font-family="Helvetica,sans-Serif" font-size="10.00" fill="#000000">Vector2D.h</text>
</g>
<!-- Node17&#45;&gt;Node23 -->
<g id="edge27" class="edge">
<title>Node17&#45;&gt;Node23</title>
<path fill="none" stroke="#191970" d="M981.7607,-303.5568C866.5653,-297.6217 609.5924,-282.4905 382.3214,-254.9592"/>
<polygon fill="#191970" stroke="#191970" points="382.5564,-251.462 372.2057,-253.7231 381.7073,-258.4103 382.5564,-251.462"/>
</g>
<!-- Node24 -->
<g id="node25" class="node">
<title>Node24</title>
<polygon fill="none" stroke="#bfbfbf" points="390.5,-230 390.5,-249 579.5,-249 579.5,-230 390.5,-230"/>
<text text-anchor="middle" x="485" y="-237" font-family="Helvetica,sans-Serif" font-size="10.00" fill="#000000">Math/GenVector/PositionVector2D.h</text>
</g>
<!-- Node17&#45;&gt;Node24 -->
<g id="edge28" class="edge">
<title>Node17&#45;&gt;Node24</title>
<path fill="none" stroke="#191970" d="M981.9677,-300.2623C894.7283,-291.1903 729.3919,-273.4189 589,-255 578.4681,-253.6183 567.351,-252.0639 556.4588,-250.4867"/>
<polygon fill="#191970" stroke="#191970" points="556.9434,-247.0204 546.5421,-249.0362 555.9303,-253.9467 556.9434,-247.0204"/>
</g>
<!-- Node25 -->
<g id="node26" class="node">
<title>Node25</title>
<polygon fill="none" stroke="#bfbfbf" points="598,-230 598,-249 680,-249 680,-230 598,-230"/>
<text text-anchor="middle" x="639" y="-237" font-family="Helvetica,sans-Serif" font-size="10.00" fill="#000000">TGeoMatrix.h</text>
</g>
<!-- Node17&#45;&gt;Node25 -->
<g id="edge30" class="edge">
<title>Node17&#45;&gt;Node25</title>
<path fill="none" stroke="#191970" d="M981.9042,-300.4064C911.1182,-292.6972 791.2391,-277.6348 690,-255 685.8852,-254.08 681.6196,-252.9965 677.3872,-251.8369"/>
<polygon fill="#191970" stroke="#191970" points="678.2367,-248.4393 667.6585,-249.0339 676.2987,-255.1657 678.2367,-248.4393"/>
</g>
<!-- Node26 -->
<g id="node27" class="node">
<title>Node26</title>
<polygon fill="none" stroke="#bfbfbf" points="698.5,-230 698.5,-249 747.5,-249 747.5,-230 698.5,-230"/>
<text text-anchor="middle" x="723" y="-237" font-family="Helvetica,sans-Serif" font-size="10.00" fill="#000000">iosfwd</text>
</g>
<!-- Node17&#45;&gt;Node26 -->
<g id="edge31" class="edge">
<title>Node17&#45;&gt;Node26</title>
<path fill="none" stroke="#191970" d="M981.965,-299.9881C923.3297,-292.6914 832.7219,-278.6683 757,-255 755.096,-254.4049 753.1589,-253.7291 751.224,-253.0006"/>
<polygon fill="#191970" stroke="#191970" points="752.3099,-249.6615 741.7328,-249.0484 749.619,-256.1236 752.3099,-249.6615"/>
</g>
<!-- Node27&#45;&gt;Node1 -->
<g id="edge34" class="edge">
<title>Node27&#45;&gt;Node1</title>
<path fill="none" stroke="#191970" d="M2088.2729,-291.4478C2022.792,-278.9198 1938.9721,-262.0375 1924,-255 1903.9612,-245.5809 1905.2042,-233.0588 1885,-224 1799.3922,-185.6166 1765.8194,-218.2174 1677,-188 1658.9318,-181.853 1657.3927,-173.0948 1639,-168 1561.9014,-146.6437 990.3445,-127.4185 849.3631,-122.9666"/>
<polygon fill="#191970" stroke="#191970" points="849.3424,-119.4644 839.2376,-122.649 849.1229,-126.4609 849.3424,-119.4644"/>
</g>
<!-- Node27&#45;&gt;Node9 -->
<g id="edge33" class="edge">
<title>Node27&#45;&gt;Node9</title>
<path fill="none" stroke="#191970" d="M2126.2115,-291.4916C2102.6471,-282.4112 2073.3323,-269.7462 2049,-255 2030.36,-243.7035 2031.1106,-232.404 2011,-224 1873.2406,-166.4318 1825.2614,-205.6154 1677,-188 1664.8866,-186.5608 1651.7157,-184.8895 1639.7485,-183.3301"/>
<polygon fill="#191970" stroke="#191970" points="1639.9693,-179.8291 1629.5987,-181.9971 1639.0578,-186.7695 1639.9693,-179.8291"/>
</g>
<!-- Node28 -->
<g id="node29" class="node">
<title>Node28</title>
<polygon fill="none" stroke="#bfbfbf" points="2058,-230 2058,-249 2102,-249 2102,-230 2058,-230"/>
<text text-anchor="middle" x="2080" y="-237" font-family="Helvetica,sans-Serif" font-size="10.00" fill="#000000">bitset</text>
</g>
<!-- Node27&#45;&gt;Node28 -->
<g id="edge35" class="edge">
<title>Node27&#45;&gt;Node28</title>
<path fill="none" stroke="#191970" d="M2148.8045,-291.2967C2134.534,-280.5537 2115.4532,-266.1895 2101.0052,-255.3129"/>
<polygon fill="#191970" stroke="#191970" points="2102.7867,-252.2731 2092.6924,-249.055 2098.5766,-257.8656 2102.7867,-252.2731"/>
</g>
<!-- Node29 -->
<g id="node30" class="node">
<title>Node29</title>
<polygon fill="none" stroke="#bfbfbf" points="2800,-168.5 2800,-187.5 2852,-187.5 2852,-168.5 2800,-168.5"/>
<text text-anchor="middle" x="2826" y="-175.5" font-family="Helvetica,sans-Serif" font-size="10.00" fill="#000000">cassert</text>
</g>
<!-- Node27&#45;&gt;Node29 -->
<g id="edge36" class="edge">
<title>Node27&#45;&gt;Node29</title>
<path fill="none" stroke="#191970" d="M2254.6682,-292.2672C2257.8161,-291.8255 2260.9346,-291.4013 2264,-291 2425.192,-269.9005 2469.8912,-292.8108 2628,-255 2690.4001,-240.0774 2759.4208,-209.8812 2797.2521,-192.059"/>
<polygon fill="#191970" stroke="#191970" points="2799.0967,-195.0572 2806.62,-187.5973 2796.0867,-188.7374 2799.0967,-195.0572"/>
</g>
<!-- Node30 -->
<g id="node31" class="node">
<title>Node30</title>
<polygon fill="none" stroke="#bfbfbf" points="2206,-112.5 2206,-131.5 2256,-131.5 2256,-112.5 2206,-112.5"/>
<text text-anchor="middle" x="2231" y="-119.5" font-family="Helvetica,sans-Serif" font-size="10.00" fill="#000000">cstdint</text>
</g>
<!-- Node27&#45;&gt;Node30 -->
<g id="edge37" class="edge">
<title>Node27&#45;&gt;Node30</title>
<path fill="none" stroke="#191970" d="M2194.0175,-291.3914C2206.321,-282.479 2219.9844,-270.0041 2227,-255 2244.2944,-218.013 2239.6144,-168.6997 2235.0595,-141.7124"/>
<polygon fill="#191970" stroke="#191970" points="2238.4507,-140.8047 2233.1795,-131.6143 2231.569,-142.086 2238.4507,-140.8047"/>
</g>
<!-- Node31 -->
<g id="node32" class="node">
<title>Node31</title>
<polygon fill="none" stroke="#bfbfbf" points="2274.5,-230 2274.5,-249 2347.5,-249 2347.5,-230 2274.5,-230"/>
<text text-anchor="middle" x="2311" y="-237" font-family="Helvetica,sans-Serif" font-size="10.00" fill="#000000">string_view</text>
</g>
<!-- Node27&#45;&gt;Node31 -->
<g id="edge38" class="edge">
<title>Node27&#45;&gt;Node31</title>
<path fill="none" stroke="#191970" d="M2200.8676,-291.4639C2225.0153,-280.0702 2257.9457,-264.5327 2281.4939,-253.4219"/>
<polygon fill="#191970" stroke="#191970" points="2283.0951,-256.5365 2290.6454,-249.1039 2280.108,-250.2058 2283.0951,-256.5365"/>
</g>
<!-- Node27&#45;&gt;Node32 -->
<g id="edge39" class="edge">
<title>Node27&#45;&gt;Node32</title>
<path fill="none" stroke="#191970" d="M2254.6612,-292.2123C2257.8111,-291.786 2260.9319,-291.38 2264,-291 2451.6886,-267.7557 2503.5526,-296.7906 2688,-255 2752.6673,-240.3482 2824.343,-209.6996 2863.1636,-191.8034"/>
<polygon fill="#191970" stroke="#191970" points="2864.715,-194.9419 2872.3011,-187.5458 2861.7585,-188.5969 2864.715,-194.9419"/>
</g>
<!-- Node33 -->
<g id="node34" class="node">
<title>Node33</title>
<polygon fill="none" stroke="#bfbfbf" points="1932.5,-230 1932.5,-249 2001.5,-249 2001.5,-230 1932.5,-230"/>
<text text-anchor="middle" x="1967" y="-237" font-family="Helvetica,sans-Serif" font-size="10.00" fill="#000000">type_traits</text>
</g>
<!-- Node27&#45;&gt;Node33 -->
<g id="edge40" class="edge">
<title>Node27&#45;&gt;Node33</title>
<path fill="none" stroke="#191970" d="M2123.6673,-291.4639C2087.989,-279.63 2038.833,-263.3258 2005.1518,-252.1543"/>
<polygon fill="#191970" stroke="#191970" points="2006.2511,-248.8315 1995.6577,-249.0053 2004.0474,-255.4756 2006.2511,-248.8315"/>
</g>
<!-- Node34 -->
<g id="node35" class="node">
<title>Node34</title>
<g id="a_node35"><a xlink:href="../../d9/d52/Common_2MathUtils_2include_2MathUtils_2Utils_8h.html" target="_top" xlink:title="MathUtils/Utils.h">
<polygon fill="none" stroke="#000000" points="2120,-230 2120,-249 2218,-249 2218,-230 2120,-230"/>
<text text-anchor="middle" x="2169" y="-237" font-family="Helvetica,sans-Serif" font-size="10.00" fill="#000000">MathUtils/Utils.h</text>
</a>
</g>
</g>
<!-- Node27&#45;&gt;Node34 -->
<g id="edge41" class="edge">
<title>Node27&#45;&gt;Node34</title>
<path fill="none" stroke="#191970" d="M2169,-291.2967C2169,-281.7699 2169,-269.3954 2169,-259.1306"/>
<polygon fill="#191970" stroke="#191970" points="2172.5001,-259.0549 2169,-249.055 2165.5001,-259.055 2172.5001,-259.0549"/>
</g>
<!-- Node43 -->
<g id="node44" class="node">
<title>Node43</title>
<g id="a_node44"><a xlink:href="../../dc/dcd/DataHeader_8h.html" target="_top" xlink:title="Headers/DataHeader.h">
<polygon fill="none" stroke="#000000" points="2491.5,-230 2491.5,-249 2618.5,-249 2618.5,-230 2491.5,-230"/>
<text text-anchor="middle" x="2555" y="-237" font-family="Helvetica,sans-Serif" font-size="10.00" fill="#000000">Headers/DataHeader.h</text>
</a>
</g>
</g>
<!-- Node27&#45;&gt;Node43 -->
<g id="edge56" class="edge">
<title>Node27&#45;&gt;Node43</title>
<path fill="none" stroke="#191970" d="M2254.6659,-291.6305C2325.8204,-279.2799 2425.5144,-261.9755 2490.1758,-250.7519"/>
<polygon fill="#191970" stroke="#191970" points="2490.9889,-254.1632 2500.243,-249.0045 2489.7917,-247.2663 2490.9889,-254.1632"/>
</g>
<!-- Node35 -->
<g id="node36" class="node">
<title>Node35</title>
<g id="a_node36"><a xlink:href="../../de/def/bitOps_8h.html" target="_top" xlink:title="MathUtils/detail/bitOps.h">
<polygon fill="none" stroke="#000000" points="2080.5,-168.5 2080.5,-187.5 2217.5,-187.5 2217.5,-168.5 2080.5,-168.5"/>
<text text-anchor="middle" x="2149" y="-175.5" font-family="Helvetica,sans-Serif" font-size="10.00" fill="#000000">MathUtils/detail/bitOps.h</text>
</a>
</g>
</g>
<!-- Node34&#45;&gt;Node35 -->
<g id="edge42" class="edge">
<title>Node34&#45;&gt;Node35</title>
<path fill="none" stroke="#191970" d="M2165.875,-229.8906C2163.0735,-221.276 2158.8767,-208.3708 2155.3694,-197.5858"/>
<polygon fill="#191970" stroke="#191970" points="2158.5902,-196.1722 2152.1691,-187.7449 2151.9333,-198.3371 2158.5902,-196.1722"/>
</g>
<!-- Node36 -->
<g id="node37" class="node">
<title>Node36</title>
<g id="a_node37"><a xlink:href="../../d3/dfc/StatAccumulator_8h.html" target="_top" xlink:title="MathUtils/detail/StatAccumulator.h">
<polygon fill="none" stroke="#000000" points="1876,-168.5 1876,-187.5 2062,-187.5 2062,-168.5 1876,-168.5"/>
<text text-anchor="middle" x="1969" y="-175.5" font-family="Helvetica,sans-Serif" font-size="10.00" fill="#000000">MathUtils/detail/StatAccumulator.h</text>
</a>
</g>
</g>
<!-- Node34&#45;&gt;Node36 -->
<g id="edge44" class="edge">
<title>Node34&#45;&gt;Node36</title>
<path fill="none" stroke="#191970" d="M2137.75,-229.8906C2103.2589,-219.2846 2047.6188,-202.1753 2009.7338,-190.5257"/>
<polygon fill="#191970" stroke="#191970" points="2010.6176,-187.1357 2000.0306,-187.5419 2008.5601,-193.8266 2010.6176,-187.1357"/>
</g>
<!-- Node38 -->
<g id="node39" class="node">
<title>Node38</title>
<g id="a_node39"><a xlink:href="../../dd/d7d/trigonometric_8h.html" target="_top" xlink:title="MathUtils/detail/trigonometric.h">
<polygon fill="none" stroke="#000000" points="1686,-168.5 1686,-187.5 1858,-187.5 1858,-168.5 1686,-168.5"/>
<text text-anchor="middle" x="1772" y="-175.5" font-family="Helvetica,sans-Serif" font-size="10.00" fill="#000000">MathUtils/detail/trigonometric.h</text>
</a>
</g>
</g>
<!-- Node34&#45;&gt;Node38 -->
<g id="edge46" class="edge">
<title>Node34&#45;&gt;Node38</title>
<path fill="none" stroke="#191970" d="M2136.0445,-229.9208C2127.9051,-227.769 2119.1753,-225.6402 2111,-224 2064.6245,-214.6956 1944.7307,-199.1626 1860.752,-188.7533"/>
<polygon fill="#191970" stroke="#191970" points="1861.05,-185.2635 1850.6961,-187.51 1860.191,-192.2107 1861.05,-185.2635"/>
</g>
<!-- Node35&#45;&gt;Node30 -->
<g id="edge43" class="edge">
<title>Node35&#45;&gt;Node30</title>
<path fill="none" stroke="#191970" d="M2163.2833,-168.2455C2175.747,-159.7337 2194.0451,-147.2375 2208.4792,-137.3801"/>
<polygon fill="#191970" stroke="#191970" points="2210.5962,-140.1726 2216.8804,-131.6427 2206.6485,-134.392 2210.5962,-140.1726"/>
</g>
<!-- Node37 -->
<g id="node38" class="node">
<title>Node37</title>
<polygon fill="none" stroke="#bfbfbf" points="2058.5,-112.5 2058.5,-131.5 2099.5,-131.5 2099.5,-112.5 2058.5,-112.5"/>
<text text-anchor="middle" x="2079" y="-119.5" font-family="Helvetica,sans-Serif" font-size="10.00" fill="#000000">tuple</text>
</g>
<!-- Node36&#45;&gt;Node37 -->
<g id="edge45" class="edge">
<title>Node36&#45;&gt;Node37</title>
<path fill="none" stroke="#191970" d="M1988.1605,-168.2455C2005.5111,-159.4125 2031.2901,-146.2887 2050.9583,-136.2758"/>
<polygon fill="#191970" stroke="#191970" points="2052.7353,-139.2986 2060.059,-131.6427 2049.5595,-133.0605 2052.7353,-139.2986"/>
</g>
<!-- Node38&#45;&gt;Node1 -->
<g id="edge47" class="edge">
<title>Node38&#45;&gt;Node1</title>
<path fill="none" stroke="#191970" d="M1685.8378,-169.1307C1681.1589,-168.7281 1676.5231,-168.3478 1672,-168 1351.0731,-143.3235 961.2886,-127.4538 849.3921,-123.1706"/>
<polygon fill="#191970" stroke="#191970" points="849.2767,-119.6638 839.1509,-122.7813 849.0107,-126.6587 849.2767,-119.6638"/>
</g>
<!-- Node38&#45;&gt;Node4 -->
<g id="edge50" class="edge">
<title>Node38&#45;&gt;Node4</title>
<path fill="none" stroke="#191970" d="M1851.5048,-168.4688C1898.716,-161.397 1959.2684,-149.8349 2011,-132 2029.4159,-125.651 2031.237,-117.2351 2050,-112 2159.5988,-81.4209 2497.2576,-70.5354 2639.153,-67.2442"/>
<polygon fill="#191970" stroke="#191970" points="2639.5133,-70.737 2649.4314,-67.0111 2639.3546,-63.7388 2639.5133,-70.737"/>
</g>
<!-- Node38&#45;&gt;Node37 -->
<g id="edge49" class="edge">
<title>Node38&#45;&gt;Node37</title>
<path fill="none" stroke="#191970" d="M1841.1635,-168.4653C1896.3863,-160.3338 1975.5732,-147.5112 2044,-132 2045.4638,-131.6682 2046.9572,-131.3119 2048.4621,-130.9385"/>
<polygon fill="#191970" stroke="#191970" points="2049.6047,-134.2564 2058.3697,-128.3045 2047.8061,-127.4913 2049.6047,-134.2564"/>
</g>
<!-- Node39 -->
<g id="node40" class="node">
<title>Node39</title>
<polygon fill="none" stroke="#bfbfbf" points="1734.5,-56.5 1734.5,-75.5 1781.5,-75.5 1781.5,-56.5 1734.5,-56.5"/>
<text text-anchor="middle" x="1758" y="-63.5" font-family="Helvetica,sans-Serif" font-size="10.00" fill="#000000">cmath</text>
</g>
<!-- Node38&#45;&gt;Node39 -->
<g id="edge48" class="edge">
<title>Node38&#45;&gt;Node39</title>
<path fill="none" stroke="#191970" d="M1720.5375,-168.4528C1699.961,-161.8386 1678.2709,-150.7016 1666,-132 1648.2135,-104.8922 1691.536,-85.3178 1724.6072,-74.8221"/>
<polygon fill="#191970" stroke="#191970" points="1725.8945,-78.0899 1734.4626,-71.858 1723.8783,-71.3865 1725.8945,-78.0899"/>
</g>
<!-- Node40 -->
<g id="node41" class="node">
<title>Node40</title>
<g id="a_node41"><a xlink:href="../../d6/da2/GPUCommonMath_8h.html" target="_top" xlink:title="GPUCommonMath.h">
<polygon fill="none" stroke="#000000" points="1886.5,-112.5 1886.5,-131.5 2001.5,-131.5 2001.5,-112.5 1886.5,-112.5"/>
<text text-anchor="middle" x="1944" y="-119.5" font-family="Helvetica,sans-Serif" font-size="10.00" fill="#000000">GPUCommonMath.h</text>
</a>
</g>
</g>
<!-- Node38&#45;&gt;Node40 -->
<g id="edge51" class="edge">
<title>Node38&#45;&gt;Node40</title>
<path fill="none" stroke="#191970" d="M1801.5679,-168.3733C1830.1688,-159.0613 1873.6788,-144.8953 1905.0819,-134.671"/>
<polygon fill="#191970" stroke="#191970" points="1906.3928,-137.9251 1914.818,-131.5011 1904.2257,-131.269 1906.3928,-137.9251"/>
</g>
<!-- Node42 -->
<g id="node43" class="node">
<title>Node42</title>
<g id="a_node43"><a xlink:href="../../d6/d84/MathConstants_8h.html" target="_top" xlink:title="useful math constants ">
<polygon fill="none" stroke="#000000" points="1675,-112.5 1675,-131.5 1869,-131.5 1869,-112.5 1675,-112.5"/>
<text text-anchor="middle" x="1772" y="-119.5" font-family="Helvetica,sans-Serif" font-size="10.00" fill="#000000">CommonConstants/MathConstants.h</text>
</a>
</g>
</g>
<!-- Node38&#45;&gt;Node42 -->
<g id="edge55" class="edge">
<title>Node38&#45;&gt;Node42</title>
<path fill="none" stroke="#191970" d="M1772,-168.2455C1772,-160.9382 1772,-150.6944 1772,-141.7046"/>
<polygon fill="#191970" stroke="#191970" points="1775.5001,-141.6426 1772,-131.6427 1768.5001,-141.6427 1775.5001,-141.6426"/>
</g>
<!-- Node40&#45;&gt;Node4 -->
<g id="edge52" class="edge">
<title>Node40&#45;&gt;Node4</title>
<path fill="none" stroke="#191970" d="M2001.7248,-113.6145C2006.5488,-113.0258 2011.3551,-112.4775 2016,-112 2244.7766,-88.4837 2517.706,-74.333 2639.21,-68.7529"/>
<polygon fill="#191970" stroke="#191970" points="2639.6129,-72.2383 2649.4432,-68.2868 2639.2943,-65.2455 2639.6129,-72.2383"/>
</g>
<!-- Node40&#45;&gt;Node39 -->
<g id="edge53" class="edge">
<title>Node40&#45;&gt;Node39</title>
<path fill="none" stroke="#191970" d="M1912.0255,-112.3733C1878.4211,-102.2558 1825.7843,-86.4082 1791.5862,-76.112"/>
<polygon fill="#191970" stroke="#191970" points="1792.1909,-72.6389 1781.6064,-73.1073 1790.1728,-79.3417 1792.1909,-72.6389"/>
</g>
<!-- Node41 -->
<g id="node42" class="node">
<title>Node41</title>
<polygon fill="none" stroke="#bfbfbf" points="2082,-56.5 2082,-75.5 2146,-75.5 2146,-56.5 2082,-56.5"/>
<text text-anchor="middle" x="2114" y="-63.5" font-family="Helvetica,sans-Serif" font-size="10.00" fill="#000000">algorithm</text>
</g>
<!-- Node40&#45;&gt;Node41 -->
<g id="edge54" class="edge">
<title>Node40&#45;&gt;Node41</title>
<path fill="none" stroke="#191970" d="M1973.224,-112.3733C2001.4925,-103.0613 2044.4965,-88.8953 2075.5344,-78.671"/>
<polygon fill="#191970" stroke="#191970" points="2076.7544,-81.9542 2085.1573,-75.5011 2074.5643,-75.3056 2076.7544,-81.9542"/>
</g>
<!-- Node43&#45;&gt;Node29 -->
<g id="edge59" class="edge">
<title>Node43&#45;&gt;Node29</title>
<path fill="none" stroke="#191970" d="M2599.3614,-229.9633C2645.9244,-219.8706 2721.2221,-203.3155 2786,-188 2787.2539,-187.7035 2788.5292,-187.3993 2789.8168,-187.0899"/>
<polygon fill="#191970" stroke="#191970" points="2790.8891,-190.431 2799.7734,-184.6587 2789.2286,-183.6308 2790.8891,-190.431"/>
</g>
<!-- Node43&#45;&gt;Node30 -->
<g id="edge57" class="edge">
<title>Node43&#45;&gt;Node30</title>
<path fill="none" stroke="#191970" d="M2618.6764,-236.4317C2691.4803,-230.7 2795.4543,-214.36 2753,-168 2720.1516,-132.1296 2377.9202,-124.0886 2266.1191,-122.4132"/>
<polygon fill="#191970" stroke="#191970" points="2266.0858,-118.9124 2256.0371,-122.2702 2265.9864,-125.9117 2266.0858,-118.9124"/>
</g>
<!-- Node43&#45;&gt;Node32 -->
<g id="edge63" class="edge">
<title>Node43&#45;&gt;Node32</title>
<path fill="none" stroke="#191970" d="M2618.5466,-231.5499C2678.5706,-223.4213 2771.1887,-209.2827 2859.8118,-188.0226"/>
<polygon fill="#191970" stroke="#191970" points="2860.871,-191.367 2869.7598,-185.6015 2859.2157,-184.5656 2860.871,-191.367"/>
</g>
<!-- Node43&#45;&gt;Node41 -->
<g id="edge61" class="edge">
<title>Node43&#45;&gt;Node41</title>
<path fill="none" stroke="#191970" d="M2491.4188,-232.7661C2427.0236,-224.8557 2332.9164,-209.9607 2304,-188 2273.7653,-165.0381 2294.1306,-136.3473 2265,-112 2234.1674,-86.2301 2189.1161,-74.8897 2156.2498,-69.9033"/>
<polygon fill="#191970" stroke="#191970" points="2156.4245,-66.3945 2146.0405,-68.4974 2155.4695,-73.329 2156.4245,-66.3945"/>
</g>
<!-- Node43&#45;&gt;Node44 -->
<g id="edge58" class="edge">
<title>Node43&#45;&gt;Node44</title>
<path fill="none" stroke="#191970" d="M2618.5483,-232.9189C2690.0509,-224.9962 2809.7869,-210.176 2921.5278,-188.1154"/>
<polygon fill="#191970" stroke="#191970" points="2922.5016,-191.4901 2931.6218,-186.0982 2921.1297,-184.6259 2922.5016,-191.4901"/>
</g>
<!-- Node45 -->
<g id="node46" class="node">
<title>Node45</title>
<polygon fill="none" stroke="#bfbfbf" points="2378,-168.5 2378,-187.5 2428,-187.5 2428,-168.5 2378,-168.5"/>
<text text-anchor="middle" x="2403" y="-175.5" font-family="Helvetica,sans-Serif" font-size="10.00" fill="#000000">cstring</text>
</g>
<!-- Node43&#45;&gt;Node45 -->
<g id="edge60" class="edge">
<title>Node43&#45;&gt;Node45</title>
<path fill="none" stroke="#191970" d="M2531.25,-229.8906C2505.7061,-219.5554 2464.8991,-203.0447 2436.189,-191.4284"/>
<polygon fill="#191970" stroke="#191970" points="2437.166,-188.0481 2426.5832,-187.5419 2434.5404,-194.5371 2437.166,-188.0481"/>
</g>
<!-- Node46 -->
<g id="node47" class="node">
<title>Node46</title>
<polygon fill="none" stroke="#bfbfbf" points="2446.5,-168.5 2446.5,-187.5 2511.5,-187.5 2511.5,-168.5 2446.5,-168.5"/>
<text text-anchor="middle" x="2479" y="-175.5" font-family="Helvetica,sans-Serif" font-size="10.00" fill="#000000">stdexcept</text>
</g>
<!-- Node43&#45;&gt;Node46 -->
<g id="edge62" class="edge">
<title>Node43&#45;&gt;Node46</title>
<path fill="none" stroke="#191970" d="M2543.125,-229.8906C2531.3703,-220.3786 2513.1514,-205.6357 2499.1328,-194.2917"/>
<polygon fill="#191970" stroke="#191970" points="2501.0178,-191.3146 2491.0424,-187.7449 2496.6144,-196.7562 2501.0178,-191.3146"/>
</g>
<!-- Node47 -->
<g id="node48" class="node">
<title>Node47</title>
<polygon fill="none" stroke="#bfbfbf" points="2530,-168.5 2530,-187.5 2580,-187.5 2580,-168.5 2530,-168.5"/>
<text text-anchor="middle" x="2555" y="-175.5" font-family="Helvetica,sans-Serif" font-size="10.00" fill="#000000">climits</text>
</g>
<!-- Node43&#45;&gt;Node47 -->
<g id="edge64" class="edge">
<title>Node43&#45;&gt;Node47</title>
<path fill="none" stroke="#191970" d="M2555,-229.8906C2555,-221.3657 2555,-208.6392 2555,-197.9235"/>
<polygon fill="#191970" stroke="#191970" points="2558.5001,-197.7448 2555,-187.7449 2551.5001,-197.7449 2558.5001,-197.7448"/>
</g>
<!-- Node48 -->
<g id="node49" class="node">
<title>Node48</title>
<g id="a_node49"><a xlink:href="../../d7/df8/Types_8h.html" target="_top" xlink:title="MemoryResources/Types.h">
<polygon fill="none" stroke="#000000" points="2598,-168.5 2598,-187.5 2744,-187.5 2744,-168.5 2598,-168.5"/>
<text text-anchor="middle" x="2671" y="-175.5" font-family="Helvetica,sans-Serif" font-size="10.00" fill="#000000">MemoryResources/Types.h</text>
</a>
</g>
</g>
<!-- Node43&#45;&gt;Node48 -->
<g id="edge65" class="edge">
<title>Node43&#45;&gt;Node48</title>
<path fill="none" stroke="#191970" d="M2573.125,-229.8906C2592.1083,-219.8262 2622.1373,-203.9057 2643.9307,-192.3514"/>
<polygon fill="#191970" stroke="#191970" points="2645.8066,-195.3184 2653.0023,-187.5419 2642.5277,-189.1338 2645.8066,-195.3184"/>
</g>
<!-- Node49 -->
<g id="node50" class="node">
<title>Node49</title>
<polygon fill="none" stroke="#bfbfbf" points="2312.5,-168.5 2312.5,-187.5 2359.5,-187.5 2359.5,-168.5 2312.5,-168.5"/>
<text text-anchor="middle" x="2336" y="-175.5" font-family="Helvetica,sans-Serif" font-size="10.00" fill="#000000">cerrno</text>
</g>
<!-- Node43&#45;&gt;Node49 -->
<g id="edge66" class="edge">
<title>Node43&#45;&gt;Node49</title>
<path fill="none" stroke="#191970" d="M2519.6169,-229.9757C2484.1204,-220.3606 2427.6476,-204.9003 2369.4968,-188.0967"/>
<polygon fill="#191970" stroke="#191970" points="2370.3517,-184.7005 2359.7727,-185.2786 2368.4032,-191.4238 2370.3517,-184.7005"/>
</g>
</g>
</svg>
