<?xml version="1.0" encoding="UTF-8" standalone="no"?>
<!DOCTYPE svg PUBLIC "-//W3C//DTD SVG 1.1//EN"
 "http://www.w3.org/Graphics/SVG/1.1/DTD/svg11.dtd">
<!-- Generated by graphviz version 2.40.1 (20161225.0304)
 -->
<!-- Title: /home/travis/build/AliceO2Group/AliceO2/DataFormats/Reconstruction/src/Vertex.cxx Pages: 1 -->
<svg width="1885pt" height="307pt"
 viewBox="0.00 0.00 1885.00 307.00" xmlns="http://www.w3.org/2000/svg" xmlns:xlink="http://www.w3.org/1999/xlink">
<g id="graph0" class="graph" transform="scale(1 1) rotate(0) translate(4 303)">
<title>/home/travis/build/AliceO2Group/AliceO2/DataFormats/Reconstruction/src/Vertex.cxx</title>
<!-- Node0 -->
<g id="node1" class="node">
<title>Node0</title>
<polygon fill="#bfbfbf" stroke="#000000" points="1602,-246.5 1602,-298.5 1760,-298.5 1760,-246.5 1602,-246.5"/>
<text text-anchor="start" x="1610" y="-286.5" font-family="Helvetica,sans-Serif" font-size="10.00" fill="#000000">/home/travis/build</text>
<text text-anchor="start" x="1610" y="-275.5" font-family="Helvetica,sans-Serif" font-size="10.00" fill="#000000">/AliceO2Group/AliceO2</text>
<text text-anchor="start" x="1610" y="-264.5" font-family="Helvetica,sans-Serif" font-size="10.00" fill="#000000">/DataFormats/Reconstruction</text>
<text text-anchor="middle" x="1681" y="-253.5" font-family="Helvetica,sans-Serif" font-size="10.00" fill="#000000">/src/Vertex.cxx</text>
</g>
<!-- Node1 -->
<g id="node2" class="node">
<title>Node1</title>
<g id="a_node2"><a xlink:href="../../d3/d6f/DataFormats_2Reconstruction_2include_2ReconstructionDataFormats_2Vertex_8h.html" target="_top" xlink:title="ReconstructionDataFormats\l/Vertex.h">
<polygon fill="none" stroke="#000000" points="1475,-179.5 1475,-209.5 1627,-209.5 1627,-179.5 1475,-179.5"/>
<text text-anchor="start" x="1483" y="-197.5" font-family="Helvetica,sans-Serif" font-size="10.00" fill="#000000">ReconstructionDataFormats</text>
<text text-anchor="middle" x="1551" y="-186.5" font-family="Helvetica,sans-Serif" font-size="10.00" fill="#000000">/Vertex.h</text>
</a>
</g>
</g>
<!-- Node0&#45;&gt;Node1 -->
<g id="edge1" class="edge">
<title>Node0&#45;&gt;Node1</title>
<path fill="none" stroke="#191970" d="M1637.3502,-246.3101C1620.3319,-236.0991 1601.1169,-224.5701 1585.1407,-214.9844"/>
<polygon fill="#191970" stroke="#191970" points="1586.5253,-211.7335 1576.1496,-209.5897 1582.9238,-217.736 1586.5253,-211.7335"/>
</g>
<!-- Node19 -->
<g id="node20" class="node">
<title>Node19</title>
<polygon fill="none" stroke="#bfbfbf" points="1645.5,-185 1645.5,-204 1716.5,-204 1716.5,-185 1645.5,-185"/>
<text text-anchor="middle" x="1681" y="-192" font-family="Helvetica,sans-Serif" font-size="10.00" fill="#000000">fmt/printf.h</text>
</g>
<!-- Node0&#45;&gt;Node19 -->
<g id="edge21" class="edge">
<title>Node0&#45;&gt;Node19</title>
<path fill="none" stroke="#191970" d="M1681,-246.0928C1681,-235.6735 1681,-223.911 1681,-214.2512"/>
<polygon fill="#191970" stroke="#191970" points="1684.5001,-214.0838 1681,-204.0839 1677.5001,-214.0839 1684.5001,-214.0838"/>
</g>
<!-- Node20 -->
<g id="node21" class="node">
<title>Node20</title>
<polygon fill="none" stroke="#bfbfbf" points="1735,-185 1735,-204 1795,-204 1795,-185 1735,-185"/>
<text text-anchor="middle" x="1765" y="-192" font-family="Helvetica,sans-Serif" font-size="10.00" fill="#000000">iostream</text>
</g>
<!-- Node0&#45;&gt;Node20 -->
<g id="edge22" class="edge">
<title>Node0&#45;&gt;Node20</title>
<path fill="none" stroke="#191970" d="M1709.4386,-246.0928C1721.8789,-234.541 1736.0975,-221.338 1747.0367,-211.1802"/>
<polygon fill="#191970" stroke="#191970" points="1749.7325,-213.4532 1754.6789,-204.0839 1744.9694,-208.3236 1749.7325,-213.4532"/>
</g>
<!-- Node2 -->
<g id="node3" class="node">
<title>Node2</title>
<g id="a_node3"><a xlink:href="../../dc/d73/Cartesian_8h.html" target="_top" xlink:title="MathUtils/Cartesian.h">
<polygon fill="none" stroke="#000000" points="967,-123.5 967,-142.5 1089,-142.5 1089,-123.5 967,-123.5"/>
<text text-anchor="middle" x="1028" y="-130.5" font-family="Helvetica,sans-Serif" font-size="10.00" fill="#000000">MathUtils/Cartesian.h</text>
</a>
</g>
</g>
<!-- Node1&#45;&gt;Node2 -->
<g id="edge2" class="edge">
<title>Node1&#45;&gt;Node2</title>
<path fill="none" stroke="#191970" d="M1474.9513,-185.5574C1374.1213,-173.7007 1197.5032,-152.932 1099.1828,-141.3704"/>
<polygon fill="#191970" stroke="#191970" points="1099.3858,-137.8703 1089.0454,-140.1784 1098.5682,-144.8224 1099.3858,-137.8703"/>
</g>
<!-- Node12 -->
<g id="node13" class="node">
<title>Node12</title>
<polygon fill="none" stroke="#bfbfbf" points="1474.5,-62 1474.5,-81 1523.5,-81 1523.5,-62 1474.5,-62"/>
<text text-anchor="middle" x="1499" y="-69" font-family="Helvetica,sans-Serif" font-size="10.00" fill="#000000">iosfwd</text>
</g>
<!-- Node1&#45;&gt;Node12 -->
<g id="edge20" class="edge">
<title>Node1&#45;&gt;Node12</title>
<path fill="none" stroke="#191970" d="M1534.8525,-179.3434C1525.7368,-169.8119 1514.9999,-156.7461 1509,-143 1501.8081,-126.5227 1499.5361,-106.0633 1498.9285,-91.257"/>
<polygon fill="#191970" stroke="#191970" points="1502.4267,-91.1267 1498.7344,-81.1961 1495.4281,-91.2618 1502.4267,-91.1267"/>
</g>
<!-- Node13 -->
<g id="node14" class="node">
<title>Node13</title>
<g id="a_node14"><a xlink:href="../../df/d5d/common_2include_2CommonDataFormat_2TimeStamp_8h.html" target="_top" xlink:title="CommonDataFormat/TimeStamp.h">
<polygon fill="none" stroke="#000000" points="1518.5,-123.5 1518.5,-142.5 1705.5,-142.5 1705.5,-123.5 1518.5,-123.5"/>
<text text-anchor="middle" x="1612" y="-130.5" font-family="Helvetica,sans-Serif" font-size="10.00" fill="#000000">CommonDataFormat/TimeStamp.h</text>
</a>
</g>
</g>
<!-- Node1&#45;&gt;Node13 -->
<g id="edge13" class="edge">
<title>Node1&#45;&gt;Node13</title>
<path fill="none" stroke="#191970" d="M1566.0787,-179.2977C1574.8989,-170.4052 1586.0541,-159.1586 1595.1612,-149.9769"/>
<polygon fill="#191970" stroke="#191970" points="1597.6759,-152.4116 1602.2331,-142.8469 1592.706,-147.4821 1597.6759,-152.4116"/>
</g>
<!-- Node18 -->
<g id="node19" class="node">
<title>Node18</title>
<polygon fill="none" stroke="#bfbfbf" points="1723,-123.5 1723,-142.5 1765,-142.5 1765,-123.5 1723,-123.5"/>
<text text-anchor="middle" x="1744" y="-130.5" font-family="Helvetica,sans-Serif" font-size="10.00" fill="#000000">array</text>
</g>
<!-- Node1&#45;&gt;Node18 -->
<g id="edge19" class="edge">
<title>Node1&#45;&gt;Node18</title>
<path fill="none" stroke="#191970" d="M1599.2065,-179.4875C1629.4661,-170.014 1669.5364,-157.379 1713.0716,-143.2716"/>
<polygon fill="#191970" stroke="#191970" points="1714.2778,-146.56 1722.7083,-140.1431 1712.1162,-139.902 1714.2778,-146.56"/>
</g>
<!-- Node3 -->
<g id="node4" class="node">
<title>Node3</title>
<polygon fill="none" stroke="#bfbfbf" points="0,-56.5 0,-86.5 164,-86.5 164,-56.5 0,-56.5"/>
<text text-anchor="start" x="8" y="-74.5" font-family="Helvetica,sans-Serif" font-size="10.00" fill="#000000">Math/GenVector/Displacement</text>
<text text-anchor="middle" x="82" y="-63.5" font-family="Helvetica,sans-Serif" font-size="10.00" fill="#000000">Vector3D.h</text>
</g>
<!-- Node2&#45;&gt;Node3 -->
<g id="edge3" class="edge">
<title>Node2&#45;&gt;Node3</title>
<path fill="none" stroke="#191970" d="M966.8958,-132.121C827.9193,-129.6019 477.3806,-120.3159 174.5787,-87.092"/>
<polygon fill="#191970" stroke="#191970" points="174.6046,-83.5735 164.2799,-85.9506 173.8335,-90.5309 174.6046,-83.5735"/>
</g>
<!-- Node4 -->
<g id="node5" class="node">
<title>Node4</title>
<polygon fill="none" stroke="#bfbfbf" points="182.5,-62 182.5,-81 371.5,-81 371.5,-62 182.5,-62"/>
<text text-anchor="middle" x="277" y="-69" font-family="Helvetica,sans-Serif" font-size="10.00" fill="#000000">Math/GenVector/PositionVector3D.h</text>
</g>
<!-- Node2&#45;&gt;Node4 -->
<g id="edge4" class="edge">
<title>Node2&#45;&gt;Node4</title>
<path fill="none" stroke="#191970" d="M966.754,-130.2195C851.7282,-124.6484 595.6372,-110.5893 381,-87 369.5618,-85.7429 357.451,-84.1651 345.6923,-82.5008"/>
<polygon fill="#191970" stroke="#191970" points="345.8736,-78.9906 335.4753,-81.0218 344.8707,-85.9184 345.8736,-78.9906"/>
</g>
<!-- Node5 -->
<g id="node6" class="node">
<title>Node5</title>
<polygon fill="none" stroke="#bfbfbf" points="390,-62 390,-81 550,-81 550,-62 390,-62"/>
<text text-anchor="middle" x="470" y="-69" font-family="Helvetica,sans-Serif" font-size="10.00" fill="#000000">Math/GenVector/Rotation3D.h</text>
</g>
<!-- Node2&#45;&gt;Node5 -->
<g id="edge5" class="edge">
<title>Node2&#45;&gt;Node5</title>
<path fill="none" stroke="#191970" d="M966.7462,-128.4599C877.0294,-121.4779 704.7212,-106.8073 559,-87 549.8696,-85.7589 540.2426,-84.2712 530.8278,-82.7153"/>
<polygon fill="#191970" stroke="#191970" points="531.1719,-79.2239 520.7285,-81.0087 530.0056,-86.1261 531.1719,-79.2239"/>
</g>
<!-- Node6 -->
<g id="node7" class="node">
<title>Node6</title>
<polygon fill="none" stroke="#bfbfbf" points="568,-62 568,-81 736,-81 736,-62 568,-62"/>
<text text-anchor="middle" x="652" y="-69" font-family="Helvetica,sans-Serif" font-size="10.00" fill="#000000">Math/GenVector/Transform3D.h</text>
</g>
<!-- Node2&#45;&gt;Node6 -->
<g id="edge6" class="edge">
<title>Node2&#45;&gt;Node6</title>
<path fill="none" stroke="#191970" d="M968.9079,-123.4657C911.6482,-114.2104 822.3574,-99.7334 745,-87 736.6418,-85.6242 727.8624,-84.1712 719.1737,-82.7285"/>
<polygon fill="#191970" stroke="#191970" points="719.4848,-79.2323 709.0462,-81.0449 718.3368,-86.1375 719.4848,-79.2323"/>
</g>
<!-- Node7 -->
<g id="node8" class="node">
<title>Node7</title>
<polygon fill="none" stroke="#bfbfbf" points="754.5,-62 754.5,-81 927.5,-81 927.5,-62 754.5,-62"/>
<text text-anchor="middle" x="841" y="-69" font-family="Helvetica,sans-Serif" font-size="10.00" fill="#000000">Math/GenVector/Translation3D.h</text>
</g>
<!-- Node2&#45;&gt;Node7 -->
<g id="edge7" class="edge">
<title>Node2&#45;&gt;Node7</title>
<path fill="none" stroke="#191970" d="M998.7813,-123.3906C966.6693,-112.8298 914.951,-95.8208 879.5392,-84.1747"/>
<polygon fill="#191970" stroke="#191970" points="880.6065,-80.8413 870.0136,-81.0419 878.4196,-87.4909 880.6065,-80.8413"/>
</g>
<!-- Node8 -->
<g id="node9" class="node">
<title>Node8</title>
<polygon fill="none" stroke="#bfbfbf" points="946,-56.5 946,-86.5 1110,-86.5 1110,-56.5 946,-56.5"/>
<text text-anchor="start" x="954" y="-74.5" font-family="Helvetica,sans-Serif" font-size="10.00" fill="#000000">Math/GenVector/Displacement</text>
<text text-anchor="middle" x="1028" y="-63.5" font-family="Helvetica,sans-Serif" font-size="10.00" fill="#000000">Vector2D.h</text>
</g>
<!-- Node2&#45;&gt;Node8 -->
<g id="edge8" class="edge">
<title>Node2&#45;&gt;Node8</title>
<path fill="none" stroke="#191970" d="M1028,-123.3906C1028,-116.2234 1028,-106.0862 1028,-96.671"/>
<polygon fill="#191970" stroke="#191970" points="1031.5001,-96.5446 1028,-86.5446 1024.5001,-96.5446 1031.5001,-96.5446"/>
</g>
<!-- Node9 -->
<g id="node10" class="node">
<title>Node9</title>
<polygon fill="none" stroke="#bfbfbf" points="1128.5,-62 1128.5,-81 1317.5,-81 1317.5,-62 1128.5,-62"/>
<text text-anchor="middle" x="1223" y="-69" font-family="Helvetica,sans-Serif" font-size="10.00" fill="#000000">Math/GenVector/PositionVector2D.h</text>
</g>
<!-- Node2&#45;&gt;Node9 -->
<g id="edge9" class="edge">
<title>Node2&#45;&gt;Node9</title>
<path fill="none" stroke="#191970" d="M1058.4688,-123.3906C1091.9544,-112.8298 1145.8853,-95.8208 1182.812,-84.1747"/>
<polygon fill="#191970" stroke="#191970" points="1184.261,-87.3877 1192.7452,-81.0419 1182.1555,-80.7118 1184.261,-87.3877"/>
</g>
<!-- Node10 -->
<g id="node11" class="node">
<title>Node10</title>
<polygon fill="none" stroke="#bfbfbf" points="1451.5,-.5 1451.5,-19.5 1510.5,-19.5 1510.5,-.5 1451.5,-.5"/>
<text text-anchor="middle" x="1481" y="-7.5" font-family="Helvetica,sans-Serif" font-size="10.00" fill="#000000">Rtypes.h</text>
</g>
<!-- Node2&#45;&gt;Node10 -->
<g id="edge10" class="edge">
<title>Node2&#45;&gt;Node10</title>
<path fill="none" stroke="#191970" d="M1089.2268,-127.2865C1163.71,-119.6909 1284.6341,-105.0961 1326,-87 1346.2859,-78.1257 1345.8351,-67.0896 1365,-56 1389.2832,-41.9487 1418.6823,-30.3422 1441.8076,-22.3028"/>
<polygon fill="#191970" stroke="#191970" points="1442.9576,-25.6086 1451.3011,-19.0789 1440.7067,-18.9804 1442.9576,-25.6086"/>
</g>
<!-- Node11 -->
<g id="node12" class="node">
<title>Node11</title>
<polygon fill="none" stroke="#bfbfbf" points="1374,-62 1374,-81 1456,-81 1456,-62 1374,-62"/>
<text text-anchor="middle" x="1415" y="-69" font-family="Helvetica,sans-Serif" font-size="10.00" fill="#000000">TGeoMatrix.h</text>
</g>
<!-- Node2&#45;&gt;Node11 -->
<g id="edge11" class="edge">
<title>Node2&#45;&gt;Node11</title>
<path fill="none" stroke="#191970" d="M1089.0122,-127.0818C1155.9382,-120.0024 1266.3057,-106.5969 1360,-87 1364.6701,-86.0232 1369.5267,-84.8664 1374.3348,-83.6316"/>
<polygon fill="#191970" stroke="#191970" points="1375.3104,-86.9937 1384.0608,-81.0204 1373.4953,-80.2331 1375.3104,-86.9937"/>
</g>
<!-- Node2&#45;&gt;Node12 -->
<g id="edge12" class="edge">
<title>Node2&#45;&gt;Node12</title>
<path fill="none" stroke="#191970" d="M1089.0651,-129.0105C1192.0292,-121.8762 1395.7258,-105.897 1465,-87 1466.9714,-86.4622 1468.9725,-85.8221 1470.966,-85.113"/>
<polygon fill="#191970" stroke="#191970" points="1472.7594,-88.1617 1480.6992,-81.1466 1470.1177,-81.6793 1472.7594,-88.1617"/>
</g>
<!-- Node14 -->
<g id="node15" class="node">
<title>Node14</title>
<g id="a_node15"><a xlink:href="../../d2/d45/GPUCommonRtypes_8h.html" target="_top" xlink:title="GPUCommonRtypes.h">
<polygon fill="none" stroke="#000000" points="1541.5,-62 1541.5,-81 1666.5,-81 1666.5,-62 1541.5,-62"/>
<text text-anchor="middle" x="1604" y="-69" font-family="Helvetica,sans-Serif" font-size="10.00" fill="#000000">GPUCommonRtypes.h</text>
</a>
</g>
</g>
<!-- Node13&#45;&gt;Node14 -->
<g id="edge14" class="edge">
<title>Node13&#45;&gt;Node14</title>
<path fill="none" stroke="#191970" d="M1610.75,-123.3906C1609.6411,-114.8657 1607.9856,-102.1392 1606.5917,-91.4235"/>
<polygon fill="#191970" stroke="#191970" points="1610.0284,-90.7098 1605.2676,-81.2449 1603.0869,-91.6128 1610.0284,-90.7098"/>
</g>
<!-- Node15 -->
<g id="node16" class="node">
<title>Node15</title>
<g id="a_node16"><a xlink:href="../../df/d21/GPUCommonDef_8h.html" target="_top" xlink:title="GPUCommonDef.h">
<polygon fill="none" stroke="#000000" points="1684.5,-62 1684.5,-81 1791.5,-81 1791.5,-62 1684.5,-62"/>
<text text-anchor="middle" x="1738" y="-69" font-family="Helvetica,sans-Serif" font-size="10.00" fill="#000000">GPUCommonDef.h</text>
</a>
</g>
</g>
<!-- Node13&#45;&gt;Node15 -->
<g id="edge16" class="edge">
<title>Node13&#45;&gt;Node15</title>
<path fill="none" stroke="#191970" d="M1631.6875,-123.3906C1652.4922,-113.2359 1685.511,-97.1196 1709.2319,-85.5416"/>
<polygon fill="#191970" stroke="#191970" points="1710.9993,-88.5736 1718.4507,-81.0419 1707.9288,-82.283 1710.9993,-88.5736"/>
</g>
<!-- Node14&#45;&gt;Node10 -->
<g id="edge15" class="edge">
<title>Node14&#45;&gt;Node10</title>
<path fill="none" stroke="#191970" d="M1584.7813,-61.8906C1564.4719,-51.7359 1532.2393,-35.6196 1509.0832,-24.0416"/>
<polygon fill="#191970" stroke="#191970" points="1510.5933,-20.8836 1500.0838,-19.5419 1507.4628,-27.1446 1510.5933,-20.8836"/>
</g>
<!-- Node16 -->
<g id="node17" class="node">
<title>Node16</title>
<g id="a_node17"><a xlink:href="../../d5/d93/GPUCommonDefSettings_8h.html" target="_top" xlink:title="GPUCommonDefSettings.h">
<polygon fill="none" stroke="#000000" points="1587,-.5 1587,-19.5 1735,-19.5 1735,-.5 1587,-.5"/>
<text text-anchor="middle" x="1661" y="-7.5" font-family="Helvetica,sans-Serif" font-size="10.00" fill="#000000">GPUCommonDefSettings.h</text>
</a>
</g>
</g>
<!-- Node15&#45;&gt;Node16 -->
<g id="edge17" class="edge">
<title>Node15&#45;&gt;Node16</title>
<path fill="none" stroke="#191970" d="M1725.9688,-61.8906C1713.9893,-52.3227 1695.3834,-37.4621 1681.1475,-26.0919"/>
<polygon fill="#191970" stroke="#191970" points="1682.9447,-23.0479 1672.9468,-19.5419 1678.5761,-28.5175 1682.9447,-23.0479"/>
</g>
<!-- Node17 -->
<g id="node18" class="node">
<title>Node17</title>
<g id="a_node18"><a xlink:href="../../da/d5a/GPUCommonDefAPI_8h.html" target="_top" xlink:title="GPUCommonDefAPI.h">
<polygon fill="none" stroke="#000000" points="1753,-.5 1753,-19.5 1877,-19.5 1877,-.5 1753,-.5"/>
<text text-anchor="middle" x="1815" y="-7.5" font-family="Helvetica,sans-Serif" font-size="10.00" fill="#000000">GPUCommonDefAPI.h</text>
</a>
</g>
</g>
<!-- Node15&#45;&gt;Node17 -->
<g id="edge18" class="edge">
<title>Node15&#45;&gt;Node17</title>
<path fill="none" stroke="#191970" d="M1750.0313,-61.8906C1762.0107,-52.3227 1780.6166,-37.4621 1794.8525,-26.0919"/>
<polygon fill="#191970" stroke="#191970" points="1797.4239,-28.5175 1803.0532,-19.5419 1793.0553,-23.0479 1797.4239,-28.5175"/>
</g>
</g>
</svg>
