<?xml version="1.0" encoding="UTF-8" standalone="no"?>
<!DOCTYPE svg PUBLIC "-//W3C//DTD SVG 1.1//EN"
 "http://www.w3.org/Graphics/SVG/1.1/DTD/svg11.dtd">
<!-- Generated by graphviz version 2.40.1 (20161225.0304)
 -->
<!-- Title: /home/travis/build/AliceO2Group/AliceO2/Detectors/TPC/reconstruction/src/KrBoxClusterFinder.cxx Pages: 1 -->
<svg width="2017pt" height="587pt"
 viewBox="0.00 0.00 2016.50 587.00" xmlns="http://www.w3.org/2000/svg" xmlns:xlink="http://www.w3.org/1999/xlink">
<g id="graph0" class="graph" transform="scale(1 1) rotate(0) translate(4 583)">
<title>/home/travis/build/AliceO2Group/AliceO2/Detectors/TPC/reconstruction/src/KrBoxClusterFinder.cxx</title>
<!-- Node0 -->
<g id="node1" class="node">
<title>Node0</title>
<polygon fill="#bfbfbf" stroke="#000000" points="1644,-526.5 1644,-578.5 1805,-578.5 1805,-526.5 1644,-526.5"/>
<text text-anchor="start" x="1652" y="-566.5" font-family="Helvetica,sans-Serif" font-size="10.00" fill="#000000">/home/travis/build</text>
<text text-anchor="start" x="1652" y="-555.5" font-family="Helvetica,sans-Serif" font-size="10.00" fill="#000000">/AliceO2Group/AliceO2</text>
<text text-anchor="start" x="1652" y="-544.5" font-family="Helvetica,sans-Serif" font-size="10.00" fill="#000000">/Detectors/TPC/reconstruction</text>
<text text-anchor="middle" x="1724.5" y="-533.5" font-family="Helvetica,sans-Serif" font-size="10.00" fill="#000000">/src/KrBoxClusterFinder.cxx</text>
</g>
<!-- Node1 -->
<g id="node2" class="node">
<title>Node1</title>
<g id="a_node2"><a xlink:href="../../db/dd8/KrBoxClusterFinder_8h.html" target="_top" xlink:title="TPCReconstruction/KrBoxCluster\lFinder.h">
<polygon fill="none" stroke="#000000" points="1556.5,-459.5 1556.5,-489.5 1730.5,-489.5 1730.5,-459.5 1556.5,-459.5"/>
<text text-anchor="start" x="1564.5" y="-477.5" font-family="Helvetica,sans-Serif" font-size="10.00" fill="#000000">TPCReconstruction/KrBoxCluster</text>
<text text-anchor="middle" x="1643.5" y="-466.5" font-family="Helvetica,sans-Serif" font-size="10.00" fill="#000000">Finder.h</text>
</a>
</g>
</g>
<!-- Node0&#45;&gt;Node1 -->
<g id="edge1" class="edge">
<title>Node0&#45;&gt;Node1</title>
<path fill="none" stroke="#191970" d="M1697.0771,-526.0928C1687.0818,-516.4677 1675.8961,-505.6963 1666.3411,-496.4951"/>
<polygon fill="#191970" stroke="#191970" points="1668.7126,-493.9199 1659.0817,-489.5046 1663.8571,-498.9621 1668.7126,-493.9199"/>
</g>
<!-- Node41 -->
<g id="node42" class="node">
<title>Node41</title>
<g id="a_node42"><a xlink:href="../../dd/da4/Logger_8h.html" target="_top" xlink:title="Framework/Logger.h">
<polygon fill="none" stroke="#000000" points="1815,-465 1815,-484 1930,-484 1930,-465 1815,-465"/>
<text text-anchor="middle" x="1872.5" y="-472" font-family="Helvetica,sans-Serif" font-size="10.00" fill="#000000">Framework/Logger.h</text>
</a>
</g>
</g>
<!-- Node0&#45;&gt;Node41 -->
<g id="edge65" class="edge">
<title>Node0&#45;&gt;Node41</title>
<path fill="none" stroke="#191970" d="M1774.1936,-526.3101C1797.8642,-513.8351 1825.2675,-499.3928 1845.1192,-488.9304"/>
<polygon fill="#191970" stroke="#191970" points="1846.9938,-491.8989 1854.2085,-484.1401 1843.73,-485.7062 1846.9938,-491.8989"/>
</g>
<!-- Node2 -->
<g id="node3" class="node">
<title>Node2</title>
<g id="a_node3"><a xlink:href="../../d3/d7d/DataFormats_2Detectors_2TPC_2include_2DataFormatsTPC_2Digit_8h.html" target="_top" xlink:title="DataFormatsTPC/Digit.h">
<polygon fill="none" stroke="#000000" points="1733.5,-403.5 1733.5,-422.5 1867.5,-422.5 1867.5,-403.5 1733.5,-403.5"/>
<text text-anchor="middle" x="1800.5" y="-410.5" font-family="Helvetica,sans-Serif" font-size="10.00" fill="#000000">DataFormatsTPC/Digit.h</text>
</a>
</g>
</g>
<!-- Node1&#45;&gt;Node2 -->
<g id="edge2" class="edge">
<title>Node1&#45;&gt;Node2</title>
<path fill="none" stroke="#191970" d="M1681.9065,-459.4554C1707.8726,-449.284 1741.839,-435.9787 1766.763,-426.2155"/>
<polygon fill="#191970" stroke="#191970" points="1768.136,-429.4366 1776.1706,-422.5303 1765.5829,-422.9188 1768.136,-429.4366"/>
</g>
<!-- Node10 -->
<g id="node11" class="node">
<title>Node10</title>
<g id="a_node11"><a xlink:href="../../d5/da3/KrCluster_8h.html" target="_top" xlink:title="Struct for Krypton and X&#45;ray clusters. ">
<polygon fill="none" stroke="#000000" points="869.5,-403.5 869.5,-422.5 1033.5,-422.5 1033.5,-403.5 869.5,-403.5"/>
<text text-anchor="middle" x="951.5" y="-410.5" font-family="Helvetica,sans-Serif" font-size="10.00" fill="#000000">TPCReconstruction/KrCluster.h</text>
</a>
</g>
</g>
<!-- Node1&#45;&gt;Node10 -->
<g id="edge12" class="edge">
<title>Node1&#45;&gt;Node10</title>
<path fill="none" stroke="#191970" d="M1556.3528,-467.6912C1441.4366,-458.5648 1232.6567,-441.4735 1043.9407,-423.123"/>
<polygon fill="#191970" stroke="#191970" points="1044.1233,-419.6242 1033.8307,-422.1368 1043.4436,-426.5912 1044.1233,-419.6242"/>
</g>
<!-- Node11 -->
<g id="node12" class="node">
<title>Node11</title>
<g id="a_node12"><a xlink:href="../../d5/d1d/TPC_2base_2include_2TPCBase_2Mapper_8h.html" target="_top" xlink:title="TPCBase/Mapper.h">
<polygon fill="none" stroke="#000000" points="1052,-403.5 1052,-422.5 1159,-422.5 1159,-403.5 1052,-403.5"/>
<text text-anchor="middle" x="1105.5" y="-410.5" font-family="Helvetica,sans-Serif" font-size="10.00" fill="#000000">TPCBase/Mapper.h</text>
</a>
</g>
</g>
<!-- Node1&#45;&gt;Node11 -->
<g id="edge13" class="edge">
<title>Node1&#45;&gt;Node11</title>
<path fill="none" stroke="#191970" d="M1556.4631,-464.5506C1448.1437,-452.1684 1265.7201,-431.3151 1169.4423,-420.3094"/>
<polygon fill="#191970" stroke="#191970" points="1169.6017,-416.8049 1159.2688,-419.1464 1168.8066,-423.7596 1169.6017,-416.8049"/>
</g>
<!-- Node13 -->
<g id="node14" class="node">
<title>Node13</title>
<polygon fill="none" stroke="#bfbfbf" points="1522,-291.5 1522,-310.5 1569,-310.5 1569,-291.5 1522,-291.5"/>
<text text-anchor="middle" x="1545.5" y="-298.5" font-family="Helvetica,sans-Serif" font-size="10.00" fill="#000000">vector</text>
</g>
<!-- Node1&#45;&gt;Node13 -->
<g id="edge63" class="edge">
<title>Node1&#45;&gt;Node13</title>
<path fill="none" stroke="#191970" d="M1645.221,-459.2553C1647.2966,-433.7059 1647.9824,-381.6414 1624.5,-347 1613.557,-330.8568 1594.917,-319.6125 1578.4908,-312.2837"/>
<polygon fill="#191970" stroke="#191970" points="1579.7282,-309.0079 1569.15,-308.4136 1577.0488,-315.4748 1579.7282,-309.0079"/>
</g>
<!-- Node14 -->
<g id="node15" class="node">
<title>Node14</title>
<polygon fill="none" stroke="#bfbfbf" points="1573.5,-347.5 1573.5,-366.5 1615.5,-366.5 1615.5,-347.5 1573.5,-347.5"/>
<text text-anchor="middle" x="1594.5" y="-354.5" font-family="Helvetica,sans-Serif" font-size="10.00" fill="#000000">array</text>
</g>
<!-- Node1&#45;&gt;Node14 -->
<g id="edge64" class="edge">
<title>Node1&#45;&gt;Node14</title>
<path fill="none" stroke="#191970" d="M1637.0941,-459.1389C1628.1856,-437.7768 1612.0659,-399.1224 1602.4159,-375.982"/>
<polygon fill="#191970" stroke="#191970" points="1605.5659,-374.4419 1598.4865,-366.5595 1599.1051,-377.1362 1605.5659,-374.4419"/>
</g>
<!-- Node40 -->
<g id="node41" class="node">
<title>Node40</title>
<polygon fill="none" stroke="#bfbfbf" points="1672,-403.5 1672,-422.5 1713,-422.5 1713,-403.5 1672,-403.5"/>
<text text-anchor="middle" x="1692.5" y="-410.5" font-family="Helvetica,sans-Serif" font-size="10.00" fill="#000000">tuple</text>
</g>
<!-- Node1&#45;&gt;Node40 -->
<g id="edge62" class="edge">
<title>Node1&#45;&gt;Node40</title>
<path fill="none" stroke="#191970" d="M1655.6124,-459.2977C1662.4849,-450.672 1671.1223,-439.8312 1678.311,-430.8087"/>
<polygon fill="#191970" stroke="#191970" points="1681.1604,-432.849 1684.6545,-422.8469 1675.6856,-428.487 1681.1604,-432.849"/>
</g>
<!-- Node3 -->
<g id="node4" class="node">
<title>Node3</title>
<g id="a_node4"><a xlink:href="../../d2/d45/GPUCommonRtypes_8h.html" target="_top" xlink:title="GPUCommonRtypes.h">
<polygon fill="none" stroke="#000000" points="1619,-291.5 1619,-310.5 1744,-310.5 1744,-291.5 1619,-291.5"/>
<text text-anchor="middle" x="1681.5" y="-298.5" font-family="Helvetica,sans-Serif" font-size="10.00" fill="#000000">GPUCommonRtypes.h</text>
</a>
</g>
</g>
<!-- Node2&#45;&gt;Node3 -->
<g id="edge3" class="edge">
<title>Node2&#45;&gt;Node3</title>
<path fill="none" stroke="#191970" d="M1759.9804,-403.4378C1739.1601,-396.5601 1714.9798,-385.1989 1699.5,-367 1688.5705,-354.1507 1684.228,-335.2436 1682.5276,-320.9556"/>
<polygon fill="#191970" stroke="#191970" points="1685.9896,-320.3589 1681.655,-310.6913 1679.0147,-320.9518 1685.9896,-320.3589"/>
</g>
<!-- Node5 -->
<g id="node6" class="node">
<title>Node5</title>
<g id="a_node6"><a xlink:href="../../df/d21/GPUCommonDef_8h.html" target="_top" xlink:title="GPUCommonDef.h">
<polygon fill="none" stroke="#000000" points="1816,-291.5 1816,-310.5 1923,-310.5 1923,-291.5 1816,-291.5"/>
<text text-anchor="middle" x="1869.5" y="-298.5" font-family="Helvetica,sans-Serif" font-size="10.00" fill="#000000">GPUCommonDef.h</text>
</a>
</g>
</g>
<!-- Node2&#45;&gt;Node5 -->
<g id="edge5" class="edge">
<title>Node2&#45;&gt;Node5</title>
<path fill="none" stroke="#191970" d="M1850.2035,-403.476C1870.6367,-396.8489 1892.3266,-385.6954 1904.5,-367 1914.9122,-351.0093 1901.7964,-331.5995 1888.757,-317.9821"/>
<polygon fill="#191970" stroke="#191970" points="1890.8776,-315.1625 1881.2668,-310.7034 1885.9992,-320.1826 1890.8776,-315.1625"/>
</g>
<!-- Node8 -->
<g id="node9" class="node">
<title>Node8</title>
<g id="a_node9"><a xlink:href="../../df/d5d/common_2include_2CommonDataFormat_2TimeStamp_8h.html" target="_top" xlink:title="CommonDataFormat/TimeStamp.h">
<polygon fill="none" stroke="#000000" points="1709,-347.5 1709,-366.5 1896,-366.5 1896,-347.5 1709,-347.5"/>
<text text-anchor="middle" x="1802.5" y="-354.5" font-family="Helvetica,sans-Serif" font-size="10.00" fill="#000000">CommonDataFormat/TimeStamp.h</text>
</a>
</g>
</g>
<!-- Node2&#45;&gt;Node8 -->
<g id="edge8" class="edge">
<title>Node2&#45;&gt;Node8</title>
<path fill="none" stroke="#191970" d="M1800.8484,-403.2455C1801.1093,-395.9382 1801.4752,-385.6944 1801.7963,-376.7046"/>
<polygon fill="#191970" stroke="#191970" points="1805.2964,-376.7613 1802.1556,-366.6427 1798.3008,-376.5113 1805.2964,-376.7613"/>
</g>
<!-- Node9 -->
<g id="node10" class="node">
<title>Node9</title>
<polygon fill="none" stroke="#bfbfbf" points="1951.5,-347.5 1951.5,-366.5 2001.5,-366.5 2001.5,-347.5 1951.5,-347.5"/>
<text text-anchor="middle" x="1976.5" y="-354.5" font-family="Helvetica,sans-Serif" font-size="10.00" fill="#000000">climits</text>
</g>
<!-- Node2&#45;&gt;Node9 -->
<g id="edge11" class="edge">
<title>Node2&#45;&gt;Node9</title>
<path fill="none" stroke="#191970" d="M1830.7555,-403.3733C1861.5293,-393.5816 1909.171,-378.4229 1941.5404,-368.1235"/>
<polygon fill="#191970" stroke="#191970" points="1943.0046,-371.3306 1951.4726,-364.9633 1940.8821,-364.6601 1943.0046,-371.3306"/>
</g>
<!-- Node4 -->
<g id="node5" class="node">
<title>Node4</title>
<polygon fill="none" stroke="#bfbfbf" points="1508,-6 1508,-25 1567,-25 1567,-6 1508,-6"/>
<text text-anchor="middle" x="1537.5" y="-13" font-family="Helvetica,sans-Serif" font-size="10.00" fill="#000000">Rtypes.h</text>
</g>
<!-- Node3&#45;&gt;Node4 -->
<g id="edge4" class="edge">
<title>Node3&#45;&gt;Node4</title>
<path fill="none" stroke="#191970" d="M1652.207,-291.4925C1612.5024,-276.5496 1546.5,-243.5114 1546.5,-189 1546.5,-189 1546.5,-189 1546.5,-133 1546.5,-98.5393 1542.6038,-58.5591 1539.9385,-35.241"/>
<polygon fill="#191970" stroke="#191970" points="1543.4046,-34.7479 1538.7514,-25.2296 1536.4533,-35.5722 1543.4046,-34.7479"/>
</g>
<!-- Node6 -->
<g id="node7" class="node">
<title>Node6</title>
<g id="a_node7"><a xlink:href="../../d5/d93/GPUCommonDefSettings_8h.html" target="_top" xlink:title="GPUCommonDefSettings.h">
<polygon fill="none" stroke="#000000" points="1718.5,-235.5 1718.5,-254.5 1866.5,-254.5 1866.5,-235.5 1718.5,-235.5"/>
<text text-anchor="middle" x="1792.5" y="-242.5" font-family="Helvetica,sans-Serif" font-size="10.00" fill="#000000">GPUCommonDefSettings.h</text>
</a>
</g>
</g>
<!-- Node5&#45;&gt;Node6 -->
<g id="edge6" class="edge">
<title>Node5&#45;&gt;Node6</title>
<path fill="none" stroke="#191970" d="M1856.0876,-291.2455C1844.4943,-282.814 1827.5252,-270.4729 1814.0322,-260.6598"/>
<polygon fill="#191970" stroke="#191970" points="1815.9047,-257.6938 1805.7587,-254.6427 1811.7874,-263.355 1815.9047,-257.6938"/>
</g>
<!-- Node7 -->
<g id="node8" class="node">
<title>Node7</title>
<g id="a_node8"><a xlink:href="../../da/d5a/GPUCommonDefAPI_8h.html" target="_top" xlink:title="GPUCommonDefAPI.h">
<polygon fill="none" stroke="#000000" points="1884.5,-235.5 1884.5,-254.5 2008.5,-254.5 2008.5,-235.5 1884.5,-235.5"/>
<text text-anchor="middle" x="1946.5" y="-242.5" font-family="Helvetica,sans-Serif" font-size="10.00" fill="#000000">GPUCommonDefAPI.h</text>
</a>
</g>
</g>
<!-- Node5&#45;&gt;Node7 -->
<g id="edge7" class="edge">
<title>Node5&#45;&gt;Node7</title>
<path fill="none" stroke="#191970" d="M1882.9124,-291.2455C1894.5057,-282.814 1911.4748,-270.4729 1924.9678,-260.6598"/>
<polygon fill="#191970" stroke="#191970" points="1927.2126,-263.355 1933.2413,-254.6427 1923.0953,-257.6938 1927.2126,-263.355"/>
</g>
<!-- Node8&#45;&gt;Node3 -->
<g id="edge9" class="edge">
<title>Node8&#45;&gt;Node3</title>
<path fill="none" stroke="#191970" d="M1781.6994,-347.3733C1762.2757,-338.3838 1733.0776,-324.8706 1711.2036,-314.7471"/>
<polygon fill="#191970" stroke="#191970" points="1712.5745,-311.5249 1702.0292,-310.5011 1709.6344,-317.8776 1712.5745,-311.5249"/>
</g>
<!-- Node8&#45;&gt;Node5 -->
<g id="edge10" class="edge">
<title>Node8&#45;&gt;Node5</title>
<path fill="none" stroke="#191970" d="M1814.1705,-347.2455C1824.0661,-338.9746 1838.4627,-326.9416 1850.0901,-317.2232"/>
<polygon fill="#191970" stroke="#191970" points="1852.535,-319.7413 1857.9632,-310.6427 1848.0458,-314.3703 1852.535,-319.7413"/>
</g>
<!-- Node12 -->
<g id="node13" class="node">
<title>Node12</title>
<polygon fill="none" stroke="#bfbfbf" points="1479.5,-347.5 1479.5,-366.5 1517.5,-366.5 1517.5,-347.5 1479.5,-347.5"/>
<text text-anchor="middle" x="1498.5" y="-354.5" font-family="Helvetica,sans-Serif" font-size="10.00" fill="#000000">map</text>
</g>
<!-- Node11&#45;&gt;Node12 -->
<g id="edge14" class="edge">
<title>Node11&#45;&gt;Node12</title>
<path fill="none" stroke="#191970" d="M1159.1573,-409.6946C1230.7028,-404.5005 1360.9372,-392.2914 1469.5,-367 1469.6005,-366.9766 1469.7011,-366.953 1469.8019,-366.9291"/>
<polygon fill="#191970" stroke="#191970" points="1470.6515,-370.3262 1479.3193,-364.2338 1468.744,-363.5911 1470.6515,-370.3262"/>
</g>
<!-- Node11&#45;&gt;Node13 -->
<g id="edge15" class="edge">
<title>Node11&#45;&gt;Node13</title>
<path fill="none" stroke="#191970" d="M1159.086,-410.4485C1266.2048,-404.8768 1498.9018,-390.2298 1526.5,-367 1539.7302,-355.8639 1544.068,-336.1627 1545.3426,-321.1752"/>
<polygon fill="#191970" stroke="#191970" points="1548.8542,-321.0032 1545.8169,-310.853 1541.8615,-320.6818 1548.8542,-321.0032"/>
</g>
<!-- Node11&#45;&gt;Node14 -->
<g id="edge16" class="edge">
<title>Node11&#45;&gt;Node14</title>
<path fill="none" stroke="#191970" d="M1159.0639,-410.6515C1244.4371,-406.2202 1416.343,-394.4782 1559.5,-367 1560.7568,-366.7588 1562.0337,-366.4931 1563.3198,-366.2085"/>
<polygon fill="#191970" stroke="#191970" points="1564.3224,-369.5656 1573.1736,-363.7426 1562.6231,-362.7749 1564.3224,-369.5656"/>
</g>
<!-- Node15 -->
<g id="node16" class="node">
<title>Node15</title>
<polygon fill="none" stroke="#bfbfbf" points="571.5,-347.5 571.5,-366.5 615.5,-366.5 615.5,-347.5 571.5,-347.5"/>
<text text-anchor="middle" x="593.5" y="-354.5" font-family="Helvetica,sans-Serif" font-size="10.00" fill="#000000">string</text>
</g>
<!-- Node11&#45;&gt;Node15 -->
<g id="edge17" class="edge">
<title>Node11&#45;&gt;Node15</title>
<path fill="none" stroke="#191970" d="M1051.92,-404.232C1048.7359,-403.7928 1045.5777,-403.3779 1042.5,-403 859.622,-380.5437 810.8094,-399.7956 629.5,-367 628.2433,-366.7727 626.967,-366.5212 625.6816,-366.2506"/>
<polygon fill="#191970" stroke="#191970" points="626.3615,-362.8145 615.8209,-363.8859 624.729,-369.6215 626.3615,-362.8145"/>
</g>
<!-- Node16 -->
<g id="node17" class="node">
<title>Node16</title>
<polygon fill="none" stroke="#bfbfbf" points="750,-67.5 750,-86.5 797,-86.5 797,-67.5 750,-67.5"/>
<text text-anchor="middle" x="773.5" y="-74.5" font-family="Helvetica,sans-Serif" font-size="10.00" fill="#000000">cmath</text>
</g>
<!-- Node11&#45;&gt;Node16 -->
<g id="edge18" class="edge">
<title>Node11&#45;&gt;Node16</title>
<path fill="none" stroke="#191970" d="M1051.9125,-404.2911C1048.7302,-403.837 1045.5746,-403.4027 1042.5,-403 965.4125,-392.9022 762.4284,-404.8177 694.5,-367 662.1107,-348.9679 643.5,-338.0705 643.5,-301 643.5,-301 643.5,-301 643.5,-189 643.5,-137.7815 702.1361,-104.8425 740.6483,-88.7318"/>
<polygon fill="#191970" stroke="#191970" points="741.9798,-91.9689 749.958,-84.9976 739.3738,-85.4721 741.9798,-91.9689"/>
</g>
<!-- Node17 -->
<g id="node18" class="node">
<title>Node17</title>
<g id="a_node18"><a xlink:href="../../d1/d73/Defs_8h.html" target="_top" xlink:title="DataFormatsTPC/Defs.h">
<polygon fill="none" stroke="#000000" points="1029,-123.5 1029,-142.5 1162,-142.5 1162,-123.5 1029,-123.5"/>
<text text-anchor="middle" x="1095.5" y="-130.5" font-family="Helvetica,sans-Serif" font-size="10.00" fill="#000000">DataFormatsTPC/Defs.h</text>
</a>
</g>
</g>
<!-- Node11&#45;&gt;Node17 -->
<g id="edge19" class="edge">
<title>Node11&#45;&gt;Node17</title>
<path fill="none" stroke="#191970" d="M1051.885,-404.4816C1048.7097,-403.9796 1045.563,-403.4828 1042.5,-403 893.7927,-379.5599 719.5,-451.5434 719.5,-301 719.5,-301 719.5,-301 719.5,-245 719.5,-212.3793 930.0544,-165.8618 1036.0384,-144.5132"/>
<polygon fill="#191970" stroke="#191970" points="1036.8397,-147.9223 1045.9579,-142.5271 1035.4654,-141.0585 1036.8397,-147.9223"/>
</g>
<!-- Node19 -->
<g id="node20" class="node">
<title>Node19</title>
<g id="a_node20"><a xlink:href="../../dc/d73/Cartesian_8h.html" target="_top" xlink:title="MathUtils/Cartesian.h">
<polygon fill="none" stroke="#000000" points="848.5,-67.5 848.5,-86.5 970.5,-86.5 970.5,-67.5 848.5,-67.5"/>
<text text-anchor="middle" x="909.5" y="-74.5" font-family="Helvetica,sans-Serif" font-size="10.00" fill="#000000">MathUtils/Cartesian.h</text>
</a>
</g>
</g>
<!-- Node11&#45;&gt;Node19 -->
<g id="edge61" class="edge">
<title>Node11&#45;&gt;Node19</title>
<path fill="none" stroke="#191970" d="M1051.9076,-404.3277C1048.7266,-403.8644 1045.5725,-403.4181 1042.5,-403 972.2502,-393.4405 786.018,-403.9323 725.5,-367 695.4069,-348.6351 681.5,-336.2543 681.5,-301 681.5,-301 681.5,-301 681.5,-189 681.5,-148.73 797.5314,-108.9177 864.0454,-89.4038"/>
<polygon fill="#191970" stroke="#191970" points="865.2407,-92.7017 873.875,-86.5618 863.2963,-85.9771 865.2407,-92.7017"/>
</g>
<!-- Node29 -->
<g id="node30" class="node">
<title>Node29</title>
<g id="a_node30"><a xlink:href="../../de/d41/PadPos_8h.html" target="_top" xlink:title="TPCBase/PadPos.h">
<polygon fill="none" stroke="#000000" points="895.5,-235.5 895.5,-254.5 1001.5,-254.5 1001.5,-235.5 895.5,-235.5"/>
<text text-anchor="middle" x="948.5" y="-242.5" font-family="Helvetica,sans-Serif" font-size="10.00" fill="#000000">TPCBase/PadPos.h</text>
</a>
</g>
</g>
<!-- Node11&#45;&gt;Node29 -->
<g id="edge33" class="edge">
<title>Node11&#45;&gt;Node29</title>
<path fill="none" stroke="#191970" d="M1053.7845,-403.4938C1015.8094,-395.3783 968.79,-382.5633 956.5,-367 933.249,-337.5565 938.2908,-290.6138 943.6406,-264.3713"/>
<polygon fill="#191970" stroke="#191970" points="947.0802,-265.0288 945.8707,-254.5033 940.2524,-263.4858 947.0802,-265.0288"/>
</g>
<!-- Node30 -->
<g id="node31" class="node">
<title>Node30</title>
<g id="a_node31"><a xlink:href="../../dd/d0b/PadSecPos_8h.html" target="_top" xlink:title="TPCBase/PadSecPos.h">
<polygon fill="none" stroke="#000000" points="786,-291.5 786,-310.5 909,-310.5 909,-291.5 786,-291.5"/>
<text text-anchor="middle" x="847.5" y="-298.5" font-family="Helvetica,sans-Serif" font-size="10.00" fill="#000000">TPCBase/PadSecPos.h</text>
</a>
</g>
</g>
<!-- Node11&#45;&gt;Node30 -->
<g id="edge34" class="edge">
<title>Node11&#45;&gt;Node30</title>
<path fill="none" stroke="#191970" d="M1057.2344,-403.4482C1011.5187,-393.9282 946.5381,-379.0328 923.5,-367 899.7135,-354.5763 877.1172,-333.309 862.8421,-318.2782"/>
<polygon fill="#191970" stroke="#191970" points="865.1682,-315.638 855.8129,-310.6651 860.0252,-320.3866 865.1682,-315.638"/>
</g>
<!-- Node31 -->
<g id="node32" class="node">
<title>Node31</title>
<g id="a_node32"><a xlink:href="../../d3/dd6/Sector_8h.html" target="_top" xlink:title="TPCBase/Sector.h">
<polygon fill="none" stroke="#000000" points="933,-179.5 933,-198.5 1034,-198.5 1034,-179.5 933,-179.5"/>
<text text-anchor="middle" x="983.5" y="-186.5" font-family="Helvetica,sans-Serif" font-size="10.00" fill="#000000">TPCBase/Sector.h</text>
</a>
</g>
</g>
<!-- Node11&#45;&gt;Node31 -->
<g id="edge60" class="edge">
<title>Node11&#45;&gt;Node31</title>
<path fill="none" stroke="#191970" d="M1053.6142,-403.4194C999.9923,-393.247 920.0738,-377.2519 890.5,-367 837.1641,-348.5109 806.3463,-358.9142 776.5,-311 737.9515,-249.1155 848.5269,-214.8651 922.5713,-199.3611"/>
<polygon fill="#191970" stroke="#191970" points="923.6519,-202.7134 932.7575,-197.297 922.2616,-195.8528 923.6519,-202.7134"/>
</g>
<!-- Node33 -->
<g id="node34" class="node">
<title>Node33</title>
<g id="a_node34"><a xlink:href="../../da/d61/PadROCPos_8h.html" target="_top" xlink:title="TPCBase/PadROCPos.h">
<polygon fill="none" stroke="#000000" points="1152,-291.5 1152,-310.5 1279,-310.5 1279,-291.5 1152,-291.5"/>
<text text-anchor="middle" x="1215.5" y="-298.5" font-family="Helvetica,sans-Serif" font-size="10.00" fill="#000000">TPCBase/PadROCPos.h</text>
</a>
</g>
</g>
<!-- Node11&#45;&gt;Node33 -->
<g id="edge39" class="edge">
<title>Node11&#45;&gt;Node33</title>
<path fill="none" stroke="#191970" d="M1105.9105,-403.3742C1106.98,-389.4453 1110.8129,-363.532 1124.5,-347 1136.7681,-332.1819 1155.0188,-321.6552 1171.9621,-314.4467"/>
<polygon fill="#191970" stroke="#191970" points="1173.7226,-317.514 1181.7319,-310.5785 1171.1457,-311.0056 1173.7226,-317.514"/>
</g>
<!-- Node35 -->
<g id="node36" class="node">
<title>Node35</title>
<g id="a_node36"><a xlink:href="../../d3/d54/DigitPos_8h.html" target="_top" xlink:title="TPCBase/DigitPos.h">
<polygon fill="none" stroke="#000000" points="965.5,-347.5 965.5,-366.5 1077.5,-366.5 1077.5,-347.5 965.5,-347.5"/>
<text text-anchor="middle" x="1021.5" y="-354.5" font-family="Helvetica,sans-Serif" font-size="10.00" fill="#000000">TPCBase/DigitPos.h</text>
</a>
</g>
</g>
<!-- Node11&#45;&gt;Node35 -->
<g id="edge45" class="edge">
<title>Node11&#45;&gt;Node35</title>
<path fill="none" stroke="#191970" d="M1090.8683,-403.2455C1078.1006,-394.7337 1059.3562,-382.2375 1044.5701,-372.3801"/>
<polygon fill="#191970" stroke="#191970" points="1046.226,-369.2775 1035.964,-366.6427 1042.3431,-375.1019 1046.226,-369.2775"/>
</g>
<!-- Node37 -->
<g id="node38" class="node">
<title>Node37</title>
<g id="a_node38"><a xlink:href="../../d1/d1f/FECInfo_8h.html" target="_top" xlink:title="TPCBase/FECInfo.h">
<polygon fill="none" stroke="#000000" points="1385.5,-179.5 1385.5,-198.5 1493.5,-198.5 1493.5,-179.5 1385.5,-179.5"/>
<text text-anchor="middle" x="1439.5" y="-186.5" font-family="Helvetica,sans-Serif" font-size="10.00" fill="#000000">TPCBase/FECInfo.h</text>
</a>
</g>
</g>
<!-- Node11&#45;&gt;Node37 -->
<g id="edge53" class="edge">
<title>Node11&#45;&gt;Node37</title>
<path fill="none" stroke="#191970" d="M1159.0598,-407.4391C1195.951,-401.6855 1244.9022,-390.1101 1282.5,-367 1350.8168,-325.0081 1405.995,-243.9951 1428.5304,-207.5549"/>
<polygon fill="#191970" stroke="#191970" points="1431.5789,-209.2779 1433.776,-198.9134 1425.595,-205.6456 1431.5789,-209.2779"/>
</g>
<!-- Node38 -->
<g id="node39" class="node">
<title>Node38</title>
<g id="a_node39"><a xlink:href="../../da/d9d/PadRegionInfo_8h.html" target="_top" xlink:title="TPCBase/PadRegionInfo.h">
<polygon fill="none" stroke="#000000" points="1133.5,-347.5 1133.5,-366.5 1273.5,-366.5 1273.5,-347.5 1133.5,-347.5"/>
<text text-anchor="middle" x="1203.5" y="-354.5" font-family="Helvetica,sans-Serif" font-size="10.00" fill="#000000">TPCBase/PadRegionInfo.h</text>
</a>
</g>
</g>
<!-- Node11&#45;&gt;Node38 -->
<g id="edge55" class="edge">
<title>Node11&#45;&gt;Node38</title>
<path fill="none" stroke="#191970" d="M1122.5703,-403.2455C1137.747,-394.5731 1160.1621,-381.7645 1177.5563,-371.825"/>
<polygon fill="#191970" stroke="#191970" points="1179.6794,-374.643 1186.6253,-366.6427 1176.2064,-368.5653 1179.6794,-374.643"/>
</g>
<!-- Node39 -->
<g id="node40" class="node">
<title>Node39</title>
<g id="a_node40"><a xlink:href="../../d6/d42/PartitionInfo_8h.html" target="_top" xlink:title="TPCBase/PartitionInfo.h">
<polygon fill="none" stroke="#000000" points="1330,-347.5 1330,-366.5 1461,-366.5 1461,-347.5 1330,-347.5"/>
<text text-anchor="middle" x="1395.5" y="-354.5" font-family="Helvetica,sans-Serif" font-size="10.00" fill="#000000">TPCBase/PartitionInfo.h</text>
</a>
</g>
</g>
<!-- Node11&#45;&gt;Node39 -->
<g id="edge59" class="edge">
<title>Node11&#45;&gt;Node39</title>
<path fill="none" stroke="#191970" d="M1155.0233,-403.4369C1205.1759,-393.7522 1282.761,-378.7703 1336.1697,-368.4569"/>
<polygon fill="#191970" stroke="#191970" points="1337.026,-371.8563 1346.181,-366.5237 1335.6987,-364.9832 1337.026,-371.8563"/>
</g>
<!-- Node17&#45;&gt;Node16 -->
<g id="edge20" class="edge">
<title>Node17&#45;&gt;Node16</title>
<path fill="none" stroke="#191970" d="M1040.5121,-123.4369C973.5193,-111.786 862.4429,-92.4683 807.0561,-82.8358"/>
<polygon fill="#191970" stroke="#191970" points="807.5197,-79.364 797.0678,-81.0988 806.3202,-86.2605 807.5197,-79.364"/>
</g>
<!-- Node18 -->
<g id="node19" class="node">
<title>Node18</title>
<g id="a_node19"><a xlink:href="../../d1/da8/GPUROOTCartesianFwd_8h.html" target="_top" xlink:title="GPUROOTCartesianFwd.h">
<polygon fill="none" stroke="#000000" points="1025.5,-67.5 1025.5,-86.5 1165.5,-86.5 1165.5,-67.5 1025.5,-67.5"/>
<text text-anchor="middle" x="1095.5" y="-74.5" font-family="Helvetica,sans-Serif" font-size="10.00" fill="#000000">GPUROOTCartesianFwd.h</text>
</a>
</g>
</g>
<!-- Node17&#45;&gt;Node18 -->
<g id="edge21" class="edge">
<title>Node17&#45;&gt;Node18</title>
<path fill="none" stroke="#191970" d="M1095.5,-123.2455C1095.5,-115.9382 1095.5,-105.6944 1095.5,-96.7046"/>
<polygon fill="#191970" stroke="#191970" points="1099.0001,-96.6426 1095.5,-86.6427 1092.0001,-96.6427 1099.0001,-96.6426"/>
</g>
<!-- Node17&#45;&gt;Node19 -->
<g id="edge22" class="edge">
<title>Node17&#45;&gt;Node19</title>
<path fill="none" stroke="#191970" d="M1063.5255,-123.3733C1032.3287,-113.9807 984.729,-99.6496 950.7068,-89.4064"/>
<polygon fill="#191970" stroke="#191970" points="951.6418,-86.0327 941.0573,-86.5011 949.6237,-92.7355 951.6418,-86.0327"/>
</g>
<!-- Node19&#45;&gt;Node4 -->
<g id="edge30" class="edge">
<title>Node19&#45;&gt;Node4</title>
<path fill="none" stroke="#191970" d="M970.5938,-71.1005C985.6005,-69.7038 1001.6271,-68.2561 1016.5,-67 1228.3487,-49.1077 1285.4363,-74.698 1493.5,-31 1497.1212,-30.2395 1500.8513,-29.2567 1504.5361,-28.1553"/>
<polygon fill="#191970" stroke="#191970" points="1505.6621,-31.4695 1514.0782,-25.0336 1503.4856,-24.8165 1505.6621,-31.4695"/>
</g>
<!-- Node20 -->
<g id="node21" class="node">
<title>Node20</title>
<polygon fill="none" stroke="#bfbfbf" points="1253.5,-.5 1253.5,-30.5 1417.5,-30.5 1417.5,-.5 1253.5,-.5"/>
<text text-anchor="start" x="1261.5" y="-18.5" font-family="Helvetica,sans-Serif" font-size="10.00" fill="#000000">Math/GenVector/Displacement</text>
<text text-anchor="middle" x="1335.5" y="-7.5" font-family="Helvetica,sans-Serif" font-size="10.00" fill="#000000">Vector3D.h</text>
</g>
<!-- Node19&#45;&gt;Node20 -->
<g id="edge23" class="edge">
<title>Node19&#45;&gt;Node20</title>
<path fill="none" stroke="#191970" d="M970.7157,-69.1966C1035.7789,-60.767 1141.936,-46.6262 1243.0923,-31.1902"/>
<polygon fill="#191970" stroke="#191970" points="1243.8252,-34.6188 1253.1794,-29.644 1242.7645,-27.6996 1243.8252,-34.6188"/>
</g>
<!-- Node21 -->
<g id="node22" class="node">
<title>Node21</title>
<polygon fill="none" stroke="#bfbfbf" points="0,-6 0,-25 189,-25 189,-6 0,-6"/>
<text text-anchor="middle" x="94.5" y="-13" font-family="Helvetica,sans-Serif" font-size="10.00" fill="#000000">Math/GenVector/PositionVector3D.h</text>
</g>
<!-- Node19&#45;&gt;Node21 -->
<g id="edge24" class="edge">
<title>Node19&#45;&gt;Node21</title>
<path fill="none" stroke="#191970" d="M848.4904,-70.7569C834.3819,-69.4178 819.4249,-68.082 805.5,-67 536.0604,-46.0633 467.303,-58.9464 198.5,-31 186.7262,-29.7759 174.2445,-28.1775 162.1687,-26.4729"/>
<polygon fill="#191970" stroke="#191970" points="162.5433,-22.9907 152.1451,-25.0219 161.5405,-29.9185 162.5433,-22.9907"/>
</g>
<!-- Node22 -->
<g id="node23" class="node">
<title>Node22</title>
<polygon fill="none" stroke="#bfbfbf" points="207.5,-6 207.5,-25 367.5,-25 367.5,-6 207.5,-6"/>
<text text-anchor="middle" x="287.5" y="-13" font-family="Helvetica,sans-Serif" font-size="10.00" fill="#000000">Math/GenVector/Rotation3D.h</text>
</g>
<!-- Node19&#45;&gt;Node22 -->
<g id="edge25" class="edge">
<title>Node19&#45;&gt;Node22</title>
<path fill="none" stroke="#191970" d="M848.4695,-71.0068C834.362,-69.6561 819.4106,-68.2524 805.5,-67 614.934,-49.843 566.2697,-55.4383 376.5,-31 367.1485,-29.7957 357.281,-28.3023 347.6556,-26.7219"/>
<polygon fill="#191970" stroke="#191970" points="348.1869,-23.2622 337.7443,-25.052 347.0238,-30.1649 348.1869,-23.2622"/>
</g>
<!-- Node23 -->
<g id="node24" class="node">
<title>Node23</title>
<polygon fill="none" stroke="#bfbfbf" points="385.5,-6 385.5,-25 553.5,-25 553.5,-6 385.5,-6"/>
<text text-anchor="middle" x="469.5" y="-13" font-family="Helvetica,sans-Serif" font-size="10.00" fill="#000000">Math/GenVector/Transform3D.h</text>
</g>
<!-- Node19&#45;&gt;Node23 -->
<g id="edge26" class="edge">
<title>Node19&#45;&gt;Node23</title>
<path fill="none" stroke="#191970" d="M848.2983,-69.5134C778.9035,-60.8791 662.4188,-45.9452 562.5,-31 553.5837,-29.6664 544.1992,-28.1891 534.9606,-26.6918"/>
<polygon fill="#191970" stroke="#191970" points="535.4563,-23.2264 525.0222,-25.0649 534.3255,-30.1345 535.4563,-23.2264"/>
</g>
<!-- Node24 -->
<g id="node25" class="node">
<title>Node24</title>
<polygon fill="none" stroke="#bfbfbf" points="572,-6 572,-25 745,-25 745,-6 572,-6"/>
<text text-anchor="middle" x="658.5" y="-13" font-family="Helvetica,sans-Serif" font-size="10.00" fill="#000000">Math/GenVector/Translation3D.h</text>
</g>
<!-- Node19&#45;&gt;Node24 -->
<g id="edge27" class="edge">
<title>Node19&#45;&gt;Node24</title>
<path fill="none" stroke="#191970" d="M870.5566,-67.4581C826.5913,-56.6857 754.9935,-39.1428 707.3249,-27.4631"/>
<polygon fill="#191970" stroke="#191970" points="708.0804,-24.0447 697.5347,-25.0643 706.4145,-30.8436 708.0804,-24.0447"/>
</g>
<!-- Node25 -->
<g id="node26" class="node">
<title>Node25</title>
<polygon fill="none" stroke="#bfbfbf" points="763.5,-.5 763.5,-30.5 927.5,-30.5 927.5,-.5 763.5,-.5"/>
<text text-anchor="start" x="771.5" y="-18.5" font-family="Helvetica,sans-Serif" font-size="10.00" fill="#000000">Math/GenVector/Displacement</text>
<text text-anchor="middle" x="845.5" y="-7.5" font-family="Helvetica,sans-Serif" font-size="10.00" fill="#000000">Vector2D.h</text>
</g>
<!-- Node19&#45;&gt;Node25 -->
<g id="edge28" class="edge">
<title>Node19&#45;&gt;Node25</title>
<path fill="none" stroke="#191970" d="M899.5,-67.3906C891.2394,-59.4527 879.1878,-47.8718 868.5645,-37.6635"/>
<polygon fill="#191970" stroke="#191970" points="870.7918,-34.9498 861.1562,-30.5446 865.9416,-39.9971 870.7918,-34.9498"/>
</g>
<!-- Node26 -->
<g id="node27" class="node">
<title>Node26</title>
<polygon fill="none" stroke="#bfbfbf" points="946,-6 946,-25 1135,-25 1135,-6 946,-6"/>
<text text-anchor="middle" x="1040.5" y="-13" font-family="Helvetica,sans-Serif" font-size="10.00" fill="#000000">Math/GenVector/PositionVector2D.h</text>
</g>
<!-- Node19&#45;&gt;Node26 -->
<g id="edge29" class="edge">
<title>Node19&#45;&gt;Node26</title>
<path fill="none" stroke="#191970" d="M929.9688,-67.3906C951.6952,-57.1908 986.2335,-40.9763 1010.9185,-29.3875"/>
<polygon fill="#191970" stroke="#191970" points="1012.6103,-32.4598 1020.175,-25.0419 1009.6355,-26.1234 1012.6103,-32.4598"/>
</g>
<!-- Node27 -->
<g id="node28" class="node">
<title>Node27</title>
<polygon fill="none" stroke="#bfbfbf" points="1153.5,-6 1153.5,-25 1235.5,-25 1235.5,-6 1153.5,-6"/>
<text text-anchor="middle" x="1194.5" y="-13" font-family="Helvetica,sans-Serif" font-size="10.00" fill="#000000">TGeoMatrix.h</text>
</g>
<!-- Node19&#45;&gt;Node27 -->
<g id="edge31" class="edge">
<title>Node19&#45;&gt;Node27</title>
<path fill="none" stroke="#191970" d="M966.5964,-67.4383C1014.196,-59.0702 1083.6462,-45.938 1143.5,-31 1147.33,-30.0441 1151.2995,-28.9765 1155.2559,-27.8608"/>
<polygon fill="#191970" stroke="#191970" points="1156.3565,-31.1857 1164.9761,-25.025 1154.396,-24.4658 1156.3565,-31.1857"/>
</g>
<!-- Node28 -->
<g id="node29" class="node">
<title>Node28</title>
<polygon fill="none" stroke="#bfbfbf" points="1436,-6 1436,-25 1485,-25 1485,-6 1436,-6"/>
<text text-anchor="middle" x="1460.5" y="-13" font-family="Helvetica,sans-Serif" font-size="10.00" fill="#000000">iosfwd</text>
</g>
<!-- Node19&#45;&gt;Node28 -->
<g id="edge32" class="edge">
<title>Node19&#45;&gt;Node28</title>
<path fill="none" stroke="#191970" d="M970.6051,-71.2297C985.6115,-69.829 1001.6351,-68.3472 1016.5,-67 1198.6767,-50.4892 1249.6151,-77.6118 1426.5,-31 1428.6917,-30.4225 1430.9184,-29.7139 1433.1297,-28.9208"/>
<polygon fill="#191970" stroke="#191970" points="1434.6475,-32.0812 1442.5701,-25.0468 1431.99,-25.6053 1434.6475,-32.0812"/>
</g>
<!-- Node30&#45;&gt;Node29 -->
<g id="edge38" class="edge">
<title>Node30&#45;&gt;Node29</title>
<path fill="none" stroke="#191970" d="M865.0929,-291.2455C880.879,-282.4928 904.2639,-269.527 922.2587,-259.5496"/>
<polygon fill="#191970" stroke="#191970" points="924.0603,-262.5528 931.1087,-254.6427 920.6659,-256.4308 924.0603,-262.5528"/>
</g>
<!-- Node30&#45;&gt;Node31 -->
<g id="edge35" class="edge">
<title>Node30&#45;&gt;Node31</title>
<path fill="none" stroke="#191970" d="M851.093,-291.274C856.7143,-277.2202 868.8079,-251.1529 886.5,-235 902.4406,-220.4462 923.8103,-209.6461 942.4345,-202.1821"/>
<polygon fill="#191970" stroke="#191970" points="943.7833,-205.4137 951.8803,-198.5807 941.2895,-198.8729 943.7833,-205.4137"/>
</g>
<!-- Node31&#45;&gt;Node17 -->
<g id="edge37" class="edge">
<title>Node31&#45;&gt;Node17</title>
<path fill="none" stroke="#191970" d="M1002.7535,-179.3733C1020.5712,-170.4644 1047.2747,-157.1127 1067.4594,-147.0203"/>
<polygon fill="#191970" stroke="#191970" points="1069.1187,-150.1038 1076.4978,-142.5011 1065.9882,-143.8428 1069.1187,-150.1038"/>
</g>
<!-- Node32 -->
<g id="node33" class="node">
<title>Node32</title>
<g id="a_node33"><a xlink:href="../../d0/dda/DataFormats_2Detectors_2TPC_2include_2DataFormatsTPC_2Constants_8h.html" target="_top" xlink:title="DataFormatsTPC/Constants.h">
<polygon fill="none" stroke="#000000" points="852,-123.5 852,-142.5 1011,-142.5 1011,-123.5 852,-123.5"/>
<text text-anchor="middle" x="931.5" y="-130.5" font-family="Helvetica,sans-Serif" font-size="10.00" fill="#000000">DataFormatsTPC/Constants.h</text>
</a>
</g>
</g>
<!-- Node31&#45;&gt;Node32 -->
<g id="edge36" class="edge">
<title>Node31&#45;&gt;Node32</title>
<path fill="none" stroke="#191970" d="M974.4423,-179.2455C966.9858,-171.2155 956.2366,-159.6394 947.3583,-150.0781"/>
<polygon fill="#191970" stroke="#191970" points="949.8232,-147.589 940.4539,-142.6427 944.6937,-152.3522 949.8232,-147.589"/>
</g>
<!-- Node33&#45;&gt;Node17 -->
<g id="edge40" class="edge">
<title>Node33&#45;&gt;Node17</title>
<path fill="none" stroke="#191970" d="M1214.2735,-291.4514C1212.2283,-278.0649 1207.2366,-253.3082 1196.5,-235 1175.7079,-199.5449 1139.785,-167.4374 1116.8576,-149.0803"/>
<polygon fill="#191970" stroke="#191970" points="1118.7956,-146.1523 1108.7654,-142.7397 1114.4782,-151.6624 1118.7956,-146.1523"/>
</g>
<!-- Node33&#45;&gt;Node29 -->
<g id="edge44" class="edge">
<title>Node33&#45;&gt;Node29</title>
<path fill="none" stroke="#191970" d="M1169.9044,-291.4369C1123.9215,-281.7925 1052.8912,-266.8948 1003.7394,-256.5858"/>
<polygon fill="#191970" stroke="#191970" points="1004.413,-253.151 993.9075,-254.5237 1002.9761,-260.0019 1004.413,-253.151"/>
</g>
<!-- Node34 -->
<g id="node35" class="node">
<title>Node34</title>
<g id="a_node35"><a xlink:href="../../dc/d14/ROC_8h.html" target="_top" xlink:title="TPCBase/ROC.h">
<polygon fill="none" stroke="#000000" points="1095.5,-235.5 1095.5,-254.5 1187.5,-254.5 1187.5,-235.5 1095.5,-235.5"/>
<text text-anchor="middle" x="1141.5" y="-242.5" font-family="Helvetica,sans-Serif" font-size="10.00" fill="#000000">TPCBase/ROC.h</text>
</a>
</g>
</g>
<!-- Node33&#45;&gt;Node34 -->
<g id="edge41" class="edge">
<title>Node33&#45;&gt;Node34</title>
<path fill="none" stroke="#191970" d="M1202.6102,-291.2455C1191.5746,-282.8943 1175.4708,-270.7076 1162.5647,-260.9408"/>
<polygon fill="#191970" stroke="#191970" points="1164.3283,-257.8862 1154.2421,-254.6427 1160.1041,-263.4681 1164.3283,-257.8862"/>
</g>
<!-- Node34&#45;&gt;Node17 -->
<g id="edge42" class="edge">
<title>Node34&#45;&gt;Node17</title>
<path fill="none" stroke="#191970" d="M1137.5781,-235.4509C1130.0077,-217.0186 1113.2533,-176.2254 1103.3212,-152.043"/>
<polygon fill="#191970" stroke="#191970" points="1106.4488,-150.4454 1099.412,-142.5249 1099.9737,-153.1048 1106.4488,-150.4454"/>
</g>
<!-- Node34&#45;&gt;Node31 -->
<g id="edge43" class="edge">
<title>Node34&#45;&gt;Node31</title>
<path fill="none" stroke="#191970" d="M1114.3388,-235.3733C1088.2933,-226.1419 1048.7884,-212.1402 1020.0021,-201.9375"/>
<polygon fill="#191970" stroke="#191970" points="1020.9015,-198.5429 1010.3067,-198.5011 1018.563,-205.1408 1020.9015,-198.5429"/>
</g>
<!-- Node35&#45;&gt;Node17 -->
<g id="edge46" class="edge">
<title>Node35&#45;&gt;Node17</title>
<path fill="none" stroke="#191970" d="M1077.7302,-351.1294C1151.7523,-342.8262 1274.1247,-326.8868 1287.5,-311 1345.097,-242.5878 1200.7575,-174.1943 1130.854,-146.1987"/>
<polygon fill="#191970" stroke="#191970" points="1132.1001,-142.9278 1121.5131,-142.5207 1129.5355,-149.4411 1132.1001,-142.9278"/>
</g>
<!-- Node35&#45;&gt;Node29 -->
<g id="edge51" class="edge">
<title>Node35&#45;&gt;Node29</title>
<path fill="none" stroke="#191970" d="M1015.2761,-347.4509C1003.1005,-328.7707 975.9557,-287.1238 960.2818,-263.0761"/>
<polygon fill="#191970" stroke="#191970" points="963.1008,-260.9913 954.7082,-254.5249 957.2365,-264.8137 963.1008,-260.9913"/>
</g>
<!-- Node35&#45;&gt;Node30 -->
<g id="edge52" class="edge">
<title>Node35&#45;&gt;Node30</title>
<path fill="none" stroke="#191970" d="M991.5883,-347.3733C962.6548,-338.0613 918.6389,-323.8953 886.8707,-313.671"/>
<polygon fill="#191970" stroke="#191970" points="887.6128,-310.2331 877.0213,-310.5011 885.4682,-316.8965 887.6128,-310.2331"/>
</g>
<!-- Node36 -->
<g id="node37" class="node">
<title>Node36</title>
<g id="a_node37"><a xlink:href="../../df/d26/CRU_8h.html" target="_top" xlink:title="TPCBase/CRU.h">
<polygon fill="none" stroke="#000000" points="1041.5,-291.5 1041.5,-310.5 1133.5,-310.5 1133.5,-291.5 1041.5,-291.5"/>
<text text-anchor="middle" x="1087.5" y="-298.5" font-family="Helvetica,sans-Serif" font-size="10.00" fill="#000000">TPCBase/CRU.h</text>
</a>
</g>
</g>
<!-- Node35&#45;&gt;Node36 -->
<g id="edge47" class="edge">
<title>Node35&#45;&gt;Node36</title>
<path fill="none" stroke="#191970" d="M1032.9963,-347.2455C1042.7442,-338.9746 1056.9259,-326.9416 1068.3798,-317.2232"/>
<polygon fill="#191970" stroke="#191970" points="1070.7747,-319.7813 1076.1354,-310.6427 1066.2459,-314.4437 1070.7747,-319.7813"/>
</g>
<!-- Node36&#45;&gt;Node17 -->
<g id="edge48" class="edge">
<title>Node36&#45;&gt;Node17</title>
<path fill="none" stroke="#191970" d="M1087.2329,-291.4862C1086.9859,-282.1847 1086.6372,-267.6203 1086.5,-255 1086.4034,-246.1116 1086.109,-243.8803 1086.5,-235 1087.7669,-206.2289 1091.0344,-173.0252 1093.2632,-152.5203"/>
<polygon fill="#191970" stroke="#191970" points="1096.7458,-152.8701 1094.3753,-142.5439 1089.7889,-152.0946 1096.7458,-152.8701"/>
</g>
<!-- Node36&#45;&gt;Node31 -->
<g id="edge49" class="edge">
<title>Node36&#45;&gt;Node31</title>
<path fill="none" stroke="#191970" d="M1078.633,-291.4509C1061.0568,-272.5227 1021.5845,-230.014 999.4045,-206.1279"/>
<polygon fill="#191970" stroke="#191970" points="1001.7139,-203.4713 992.3445,-198.5249 996.5843,-208.2344 1001.7139,-203.4713"/>
</g>
<!-- Node36&#45;&gt;Node34 -->
<g id="edge50" class="edge">
<title>Node36&#45;&gt;Node34</title>
<path fill="none" stroke="#191970" d="M1096.9061,-291.2455C1104.6493,-283.2155 1115.812,-271.6394 1125.0318,-262.0781"/>
<polygon fill="#191970" stroke="#191970" points="1127.7798,-264.2706 1132.2017,-254.6427 1122.7409,-259.4117 1127.7798,-264.2706"/>
</g>
<!-- Node37&#45;&gt;Node28 -->
<g id="edge54" class="edge">
<title>Node37&#45;&gt;Node28</title>
<path fill="none" stroke="#191970" d="M1440.659,-179.4248C1443.9785,-151.999 1453.5728,-72.732 1458.0918,-35.3964"/>
<polygon fill="#191970" stroke="#191970" points="1461.5917,-35.6077 1459.3187,-25.2595 1454.6424,-34.7665 1461.5917,-35.6077"/>
</g>
<!-- Node38&#45;&gt;Node13 -->
<g id="edge56" class="edge">
<title>Node38&#45;&gt;Node13</title>
<path fill="none" stroke="#191970" d="M1261.9033,-347.4369C1333.7438,-335.6735 1453.3143,-316.0947 1511.5464,-306.5597"/>
<polygon fill="#191970" stroke="#191970" points="1512.3774,-309.9703 1521.6804,-304.9003 1511.2462,-303.0623 1512.3774,-309.9703"/>
</g>
<!-- Node38&#45;&gt;Node17 -->
<g id="edge57" class="edge">
<title>Node38&#45;&gt;Node17</title>
<path fill="none" stroke="#191970" d="M1253.2035,-347.476C1273.6367,-340.8489 1295.3266,-329.6954 1307.5,-311 1315.3857,-298.8895 1317.2106,-262.6435 1302.5,-235 1275.2078,-183.7136 1212.4168,-157.8014 1163.1001,-144.9729"/>
<polygon fill="#191970" stroke="#191970" points="1163.663,-141.5067 1153.1152,-142.5038 1161.9825,-148.302 1163.663,-141.5067"/>
</g>
<!-- Node38&#45;&gt;Node29 -->
<g id="edge58" class="edge">
<title>Node38&#45;&gt;Node29</title>
<path fill="none" stroke="#191970" d="M1145.5778,-347.4655C1111.4367,-340.3926 1068.096,-328.8305 1032.5,-311 1006.8,-298.1266 981.4304,-276.6503 965.4107,-261.7059"/>
<polygon fill="#191970" stroke="#191970" points="967.5831,-258.941 957.9334,-254.5666 962.749,-264.0038 967.5831,-258.941"/>
</g>
<!-- Node42 -->
<g id="node43" class="node">
<title>Node42</title>
<polygon fill="none" stroke="#bfbfbf" points="1885.5,-403.5 1885.5,-422.5 1993.5,-422.5 1993.5,-403.5 1885.5,-403.5"/>
<text text-anchor="middle" x="1939.5" y="-410.5" font-family="Helvetica,sans-Serif" font-size="10.00" fill="#000000">fairlogger/Logger.h</text>
</g>
<!-- Node41&#45;&gt;Node42 -->
<g id="edge66" class="edge">
<title>Node41&#45;&gt;Node42</title>
<path fill="none" stroke="#191970" d="M1882.9688,-464.8906C1893.2337,-455.4683 1909.0903,-440.9134 1921.4006,-429.6137"/>
<polygon fill="#191970" stroke="#191970" points="1923.8834,-432.0856 1928.8837,-422.7449 1919.1499,-426.9287 1923.8834,-432.0856"/>
</g>
</g>
</svg>
