<?xml version="1.0" encoding="UTF-8" standalone="no"?>
<!DOCTYPE svg PUBLIC "-//W3C//DTD SVG 1.1//EN"
 "http://www.w3.org/Graphics/SVG/1.1/DTD/svg11.dtd">
<!-- Generated by graphviz version 2.40.1 (20161225.0304)
 -->
<!-- Title: /home/travis/build/AliceO2Group/AliceO2/Detectors/TPC/base/test/testTPCMapper.cxx Pages: 1 -->
<svg width="1570pt" height="520pt"
 viewBox="0.00 0.00 1570.00 520.00" xmlns="http://www.w3.org/2000/svg" xmlns:xlink="http://www.w3.org/1999/xlink">
<g id="graph0" class="graph" transform="scale(1 1) rotate(0) translate(4 516)">
<title>/home/travis/build/AliceO2Group/AliceO2/Detectors/TPC/base/test/testTPCMapper.cxx</title>
<!-- Node0 -->
<g id="node1" class="node">
<title>Node0</title>
<polygon fill="#bfbfbf" stroke="#000000" points="280,-459.5 280,-511.5 417,-511.5 417,-459.5 280,-459.5"/>
<text text-anchor="start" x="288" y="-499.5" font-family="Helvetica,sans-Serif" font-size="10.00" fill="#000000">/home/travis/build</text>
<text text-anchor="start" x="288" y="-488.5" font-family="Helvetica,sans-Serif" font-size="10.00" fill="#000000">/AliceO2Group/AliceO2</text>
<text text-anchor="start" x="288" y="-477.5" font-family="Helvetica,sans-Serif" font-size="10.00" fill="#000000">/Detectors/TPC/base/test</text>
<text text-anchor="middle" x="348.5" y="-466.5" font-family="Helvetica,sans-Serif" font-size="10.00" fill="#000000">/testTPCMapper.cxx</text>
</g>
<!-- Node1 -->
<g id="node2" class="node">
<title>Node1</title>
<polygon fill="none" stroke="#bfbfbf" points="27.5,-403.5 27.5,-422.5 159.5,-422.5 159.5,-403.5 27.5,-403.5"/>
<text text-anchor="middle" x="93.5" y="-410.5" font-family="Helvetica,sans-Serif" font-size="10.00" fill="#000000">boost/test/unit_test.hpp</text>
</g>
<!-- Node0&#45;&gt;Node1 -->
<g id="edge1" class="edge">
<title>Node0&#45;&gt;Node1</title>
<path fill="none" stroke="#191970" d="M279.8292,-465.976C234.3693,-453.0511 176.1297,-436.4928 136.9642,-425.3575"/>
<polygon fill="#191970" stroke="#191970" points="137.7669,-421.947 127.1909,-422.5788 135.8525,-428.6802 137.7669,-421.947"/>
</g>
<!-- Node2 -->
<g id="node3" class="node">
<title>Node2</title>
<polygon fill="none" stroke="#bfbfbf" points="178,-403.5 178,-422.5 227,-422.5 227,-403.5 178,-403.5"/>
<text text-anchor="middle" x="202.5" y="-410.5" font-family="Helvetica,sans-Serif" font-size="10.00" fill="#000000">cstdlib</text>
</g>
<!-- Node0&#45;&gt;Node2 -->
<g id="edge2" class="edge">
<title>Node0&#45;&gt;Node2</title>
<path fill="none" stroke="#191970" d="M295.7906,-459.3258C273.8112,-448.4114 249.1659,-436.1731 230.7283,-427.0175"/>
<polygon fill="#191970" stroke="#191970" points="232.2127,-423.8469 221.6995,-422.534 229.0994,-430.1164 232.2127,-423.8469"/>
</g>
<!-- Node3 -->
<g id="node4" class="node">
<title>Node3</title>
<polygon fill="none" stroke="#bfbfbf" points="245,-403.5 245,-422.5 300,-422.5 300,-403.5 245,-403.5"/>
<text text-anchor="middle" x="272.5" y="-410.5" font-family="Helvetica,sans-Serif" font-size="10.00" fill="#000000">fstream</text>
</g>
<!-- Node0&#45;&gt;Node3 -->
<g id="edge3" class="edge">
<title>Node0&#45;&gt;Node3</title>
<path fill="none" stroke="#191970" d="M321.0623,-459.3258C310.6706,-449.4127 299.1341,-438.4075 289.9138,-429.6118"/>
<polygon fill="#191970" stroke="#191970" points="292.1459,-426.904 282.4943,-422.534 287.3141,-431.969 292.1459,-426.904"/>
</g>
<!-- Node4 -->
<g id="node5" class="node">
<title>Node4</title>
<polygon fill="none" stroke="#bfbfbf" points="318.5,-403.5 318.5,-422.5 378.5,-422.5 378.5,-403.5 318.5,-403.5"/>
<text text-anchor="middle" x="348.5" y="-410.5" font-family="Helvetica,sans-Serif" font-size="10.00" fill="#000000">iostream</text>
</g>
<!-- Node0&#45;&gt;Node4 -->
<g id="edge4" class="edge">
<title>Node0&#45;&gt;Node4</title>
<path fill="none" stroke="#191970" d="M348.5,-459.3258C348.5,-450.5142 348.5,-440.8397 348.5,-432.621"/>
<polygon fill="#191970" stroke="#191970" points="352.0001,-432.534 348.5,-422.534 345.0001,-432.534 352.0001,-432.534"/>
</g>
<!-- Node5 -->
<g id="node6" class="node">
<title>Node5</title>
<polygon fill="none" stroke="#bfbfbf" points="396.5,-403.5 396.5,-422.5 452.5,-422.5 452.5,-403.5 396.5,-403.5"/>
<text text-anchor="middle" x="424.5" y="-410.5" font-family="Helvetica,sans-Serif" font-size="10.00" fill="#000000">sstream</text>
</g>
<!-- Node0&#45;&gt;Node5 -->
<g id="edge5" class="edge">
<title>Node0&#45;&gt;Node5</title>
<path fill="none" stroke="#191970" d="M375.9377,-459.3258C386.3294,-449.4127 397.8659,-438.4075 407.0862,-429.6118"/>
<polygon fill="#191970" stroke="#191970" points="409.6859,-431.969 414.5057,-422.534 404.8541,-426.904 409.6859,-431.969"/>
</g>
<!-- Node6 -->
<g id="node7" class="node">
<title>Node6</title>
<polygon fill="none" stroke="#bfbfbf" points="294.5,-347.5 294.5,-366.5 338.5,-366.5 338.5,-347.5 294.5,-347.5"/>
<text text-anchor="middle" x="316.5" y="-354.5" font-family="Helvetica,sans-Serif" font-size="10.00" fill="#000000">string</text>
</g>
<!-- Node0&#45;&gt;Node6 -->
<g id="edge6" class="edge">
<title>Node0&#45;&gt;Node6</title>
<path fill="none" stroke="#191970" d="M417.2293,-463.7355C450.7183,-449.3582 480.1494,-428.4818 461.5,-403 458.0507,-398.287 390.1207,-378.1196 348.4782,-366.1087"/>
<polygon fill="#191970" stroke="#191970" points="349.3424,-362.7154 338.7646,-363.3173 347.4089,-369.4432 349.3424,-362.7154"/>
</g>
<!-- Node7 -->
<g id="node8" class="node">
<title>Node7</title>
<g id="a_node8"><a xlink:href="../../d5/d1d/TPC_2base_2include_2TPCBase_2Mapper_8h.html" target="_top" xlink:title="TPCBase/Mapper.h">
<polygon fill="none" stroke="#000000" points="715,-403.5 715,-422.5 822,-422.5 822,-403.5 715,-403.5"/>
<text text-anchor="middle" x="768.5" y="-410.5" font-family="Helvetica,sans-Serif" font-size="10.00" fill="#000000">TPCBase/Mapper.h</text>
</a>
</g>
</g>
<!-- Node0&#45;&gt;Node7 -->
<g id="edge7" class="edge">
<title>Node0&#45;&gt;Node7</title>
<path fill="none" stroke="#191970" d="M417.3842,-473.6093C497.1182,-459.8457 627.3679,-437.3621 704.8213,-423.9922"/>
<polygon fill="#191970" stroke="#191970" points="705.6663,-427.3981 714.9252,-422.248 704.4755,-420.5002 705.6663,-427.3981"/>
</g>
<!-- Node7&#45;&gt;Node6 -->
<g id="edge11" class="edge">
<title>Node7&#45;&gt;Node6</title>
<path fill="none" stroke="#191970" d="M714.8967,-409.8384C635.2695,-404.5195 481.2821,-391.8392 352.5,-367 351.2461,-366.7581 349.9721,-366.4943 348.6885,-366.2134"/>
<polygon fill="#191970" stroke="#191970" points="349.3815,-362.7798 338.8362,-363.804 347.7185,-369.5794 349.3815,-362.7798"/>
</g>
<!-- Node8 -->
<g id="node9" class="node">
<title>Node8</title>
<polygon fill="none" stroke="#bfbfbf" points="1410.5,-347.5 1410.5,-366.5 1448.5,-366.5 1448.5,-347.5 1410.5,-347.5"/>
<text text-anchor="middle" x="1429.5" y="-354.5" font-family="Helvetica,sans-Serif" font-size="10.00" fill="#000000">map</text>
</g>
<!-- Node7&#45;&gt;Node8 -->
<g id="edge8" class="edge">
<title>Node7&#45;&gt;Node8</title>
<path fill="none" stroke="#191970" d="M822.1446,-410.9665C950.5596,-405.8069 1273.7459,-391.0212 1400.5552,-366.5904"/>
<polygon fill="#191970" stroke="#191970" points="1401.3161,-370.0074 1410.4178,-364.5843 1399.9208,-363.1478 1401.3161,-370.0074"/>
</g>
<!-- Node9 -->
<g id="node10" class="node">
<title>Node9</title>
<polygon fill="none" stroke="#bfbfbf" points="433,-291.5 433,-310.5 480,-310.5 480,-291.5 433,-291.5"/>
<text text-anchor="middle" x="456.5" y="-298.5" font-family="Helvetica,sans-Serif" font-size="10.00" fill="#000000">vector</text>
</g>
<!-- Node7&#45;&gt;Node9 -->
<g id="edge9" class="edge">
<title>Node7&#45;&gt;Node9</title>
<path fill="none" stroke="#191970" d="M714.9105,-411.7247C639.0934,-408.7843 505.8918,-399.0708 471.5,-367 459.0363,-355.3774 455.8804,-335.7409 455.4862,-320.901"/>
<polygon fill="#191970" stroke="#191970" points="458.9884,-320.7433 455.6148,-310.7 451.989,-320.6551 458.9884,-320.7433"/>
</g>
<!-- Node10 -->
<g id="node11" class="node">
<title>Node10</title>
<polygon fill="none" stroke="#bfbfbf" points="1200.5,-347.5 1200.5,-366.5 1242.5,-366.5 1242.5,-347.5 1200.5,-347.5"/>
<text text-anchor="middle" x="1221.5" y="-354.5" font-family="Helvetica,sans-Serif" font-size="10.00" fill="#000000">array</text>
</g>
<!-- Node7&#45;&gt;Node10 -->
<g id="edge10" class="edge">
<title>Node7&#45;&gt;Node10</title>
<path fill="none" stroke="#191970" d="M822.0532,-410.0057C901.9974,-404.8841 1057.0131,-392.4341 1186.5,-367 1187.7557,-366.7533 1189.0318,-366.4832 1190.3171,-366.1947"/>
<polygon fill="#191970" stroke="#191970" points="1191.326,-369.5499 1200.1678,-363.7128 1189.6158,-362.7621 1191.326,-369.5499"/>
</g>
<!-- Node11 -->
<g id="node12" class="node">
<title>Node11</title>
<polygon fill="none" stroke="#bfbfbf" points="531,-67.5 531,-86.5 578,-86.5 578,-67.5 531,-67.5"/>
<text text-anchor="middle" x="554.5" y="-74.5" font-family="Helvetica,sans-Serif" font-size="10.00" fill="#000000">cmath</text>
</g>
<!-- Node7&#45;&gt;Node11 -->
<g id="edge12" class="edge">
<title>Node7&#45;&gt;Node11</title>
<path fill="none" stroke="#191970" d="M714.8437,-410.1058C631.9688,-404.9112 477.2857,-392.1236 428.5,-367 392.7197,-348.5739 366.5,-341.2462 366.5,-301 366.5,-301 366.5,-301 366.5,-189 366.5,-118.1214 466.3451,-91.0676 520.5091,-81.606"/>
<polygon fill="#191970" stroke="#191970" points="521.386,-85.0092 530.6897,-79.9405 520.2558,-78.101 521.386,-85.0092"/>
</g>
<!-- Node12 -->
<g id="node13" class="node">
<title>Node12</title>
<g id="a_node13"><a xlink:href="../../d1/d73/Defs_8h.html" target="_top" xlink:title="DataFormatsTPC/Defs.h">
<polygon fill="none" stroke="#000000" points="871,-123.5 871,-142.5 1004,-142.5 1004,-123.5 871,-123.5"/>
<text text-anchor="middle" x="937.5" y="-130.5" font-family="Helvetica,sans-Serif" font-size="10.00" fill="#000000">DataFormatsTPC/Defs.h</text>
</a>
</g>
</g>
<!-- Node7&#45;&gt;Node12 -->
<g id="edge13" class="edge">
<title>Node7&#45;&gt;Node12</title>
<path fill="none" stroke="#191970" d="M822.2952,-405.9582C915.348,-392.259 1096.5,-358.2393 1096.5,-301 1096.5,-301 1096.5,-301 1096.5,-245 1096.5,-190.7808 1033.941,-160.5137 987.3043,-145.4832"/>
<polygon fill="#191970" stroke="#191970" points="988.2095,-142.0998 977.6224,-142.5039 986.1508,-148.7903 988.2095,-142.0998"/>
</g>
<!-- Node14 -->
<g id="node15" class="node">
<title>Node14</title>
<g id="a_node15"><a xlink:href="../../dc/d73/Cartesian_8h.html" target="_top" xlink:title="MathUtils/Cartesian.h">
<polygon fill="none" stroke="#000000" points="979.5,-67.5 979.5,-86.5 1101.5,-86.5 1101.5,-67.5 979.5,-67.5"/>
<text text-anchor="middle" x="1040.5" y="-74.5" font-family="Helvetica,sans-Serif" font-size="10.00" fill="#000000">MathUtils/Cartesian.h</text>
</a>
</g>
</g>
<!-- Node7&#45;&gt;Node14 -->
<g id="edge55" class="edge">
<title>Node7&#45;&gt;Node14</title>
<path fill="none" stroke="#191970" d="M822.0229,-406.9333C890.1258,-398.7122 1003.5888,-383.1914 1042.5,-367 1088.9606,-347.6672 1134.5,-351.3224 1134.5,-301 1134.5,-301 1134.5,-301 1134.5,-189 1134.5,-146.1654 1093.661,-111.139 1065.8197,-92.2374"/>
<polygon fill="#191970" stroke="#191970" points="1067.592,-89.2145 1057.3053,-86.6776 1063.7647,-95.0756 1067.592,-89.2145"/>
</g>
<!-- Node25 -->
<g id="node26" class="node">
<title>Node25</title>
<g id="a_node26"><a xlink:href="../../de/d41/PadPos_8h.html" target="_top" xlink:title="TPCBase/PadPos.h">
<polygon fill="none" stroke="#000000" points="655.5,-235.5 655.5,-254.5 761.5,-254.5 761.5,-235.5 655.5,-235.5"/>
<text text-anchor="middle" x="708.5" y="-242.5" font-family="Helvetica,sans-Serif" font-size="10.00" fill="#000000">TPCBase/PadPos.h</text>
</a>
</g>
</g>
<!-- Node7&#45;&gt;Node25 -->
<g id="edge27" class="edge">
<title>Node7&#45;&gt;Node25</title>
<path fill="none" stroke="#191970" d="M763.0727,-403.35C758.0675,-394.191 750.6543,-379.9401 745.5,-367 731.4371,-331.6943 719.5938,-288.8659 713.319,-264.4886"/>
<polygon fill="#191970" stroke="#191970" points="716.6837,-263.5174 710.8399,-254.6799 709.8971,-265.2327 716.6837,-263.5174"/>
</g>
<!-- Node26 -->
<g id="node27" class="node">
<title>Node26</title>
<g id="a_node27"><a xlink:href="../../dd/d0b/PadSecPos_8h.html" target="_top" xlink:title="TPCBase/PadSecPos.h">
<polygon fill="none" stroke="#000000" points="575,-291.5 575,-310.5 698,-310.5 698,-291.5 575,-291.5"/>
<text text-anchor="middle" x="636.5" y="-298.5" font-family="Helvetica,sans-Serif" font-size="10.00" fill="#000000">TPCBase/PadSecPos.h</text>
</a>
</g>
</g>
<!-- Node7&#45;&gt;Node26 -->
<g id="edge28" class="edge">
<title>Node7&#45;&gt;Node26</title>
<path fill="none" stroke="#191970" d="M756.4049,-403.2241C745.0093,-393.9761 727.4944,-379.6651 712.5,-367 692.7875,-350.3497 670.5311,-330.9499 655.2233,-317.5115"/>
<polygon fill="#191970" stroke="#191970" points="657.3148,-314.6899 647.4941,-310.7143 652.6921,-319.9464 657.3148,-314.6899"/>
</g>
<!-- Node27 -->
<g id="node28" class="node">
<title>Node27</title>
<g id="a_node28"><a xlink:href="../../d3/dd6/Sector_8h.html" target="_top" xlink:title="TPCBase/Sector.h">
<polygon fill="none" stroke="#000000" points="731,-179.5 731,-198.5 832,-198.5 832,-179.5 731,-179.5"/>
<text text-anchor="middle" x="781.5" y="-186.5" font-family="Helvetica,sans-Serif" font-size="10.00" fill="#000000">TPCBase/Sector.h</text>
</a>
</g>
</g>
<!-- Node7&#45;&gt;Node27 -->
<g id="edge54" class="edge">
<title>Node7&#45;&gt;Node27</title>
<path fill="none" stroke="#191970" d="M714.7611,-410.6102C636.9381,-406.2365 497.666,-394.7025 456.5,-367 425.9489,-346.4408 401.3136,-320.3907 423.5,-291 459.294,-243.5832 628.3313,-211.6634 720.7601,-197.4387"/>
<polygon fill="#191970" stroke="#191970" points="721.4584,-200.8729 730.8208,-195.9137 720.4092,-193.952 721.4584,-200.8729"/>
</g>
<!-- Node29 -->
<g id="node30" class="node">
<title>Node29</title>
<g id="a_node30"><a xlink:href="../../da/d61/PadROCPos_8h.html" target="_top" xlink:title="TPCBase/PadROCPos.h">
<polygon fill="none" stroke="#000000" points="903,-291.5 903,-310.5 1030,-310.5 1030,-291.5 903,-291.5"/>
<text text-anchor="middle" x="966.5" y="-298.5" font-family="Helvetica,sans-Serif" font-size="10.00" fill="#000000">TPCBase/PadROCPos.h</text>
</a>
</g>
</g>
<!-- Node7&#45;&gt;Node29 -->
<g id="edge33" class="edge">
<title>Node7&#45;&gt;Node29</title>
<path fill="none" stroke="#191970" d="M795.2238,-403.4106C817.3558,-395.026 849.3057,-381.8852 875.5,-367 901.6017,-352.1675 929.1922,-331.3298 947.0578,-317.0594"/>
<polygon fill="#191970" stroke="#191970" points="949.4242,-319.6469 954.9978,-310.6366 945.0218,-314.2046 949.4242,-319.6469"/>
</g>
<!-- Node31 -->
<g id="node32" class="node">
<title>Node31</title>
<g id="a_node32"><a xlink:href="../../d3/d54/DigitPos_8h.html" target="_top" xlink:title="TPCBase/DigitPos.h">
<polygon fill="none" stroke="#000000" points="754.5,-347.5 754.5,-366.5 866.5,-366.5 866.5,-347.5 754.5,-347.5"/>
<text text-anchor="middle" x="810.5" y="-354.5" font-family="Helvetica,sans-Serif" font-size="10.00" fill="#000000">TPCBase/DigitPos.h</text>
</a>
</g>
</g>
<!-- Node7&#45;&gt;Node31 -->
<g id="edge39" class="edge">
<title>Node7&#45;&gt;Node31</title>
<path fill="none" stroke="#191970" d="M775.8158,-403.2455C781.7179,-395.3761 790.1742,-384.101 797.2594,-374.6542"/>
<polygon fill="#191970" stroke="#191970" points="800.068,-376.7427 803.268,-366.6427 794.4679,-372.5427 800.068,-376.7427"/>
</g>
<!-- Node33 -->
<g id="node34" class="node">
<title>Node33</title>
<g id="a_node34"><a xlink:href="../../d1/d1f/FECInfo_8h.html" target="_top" xlink:title="TPCBase/FECInfo.h">
<polygon fill="none" stroke="#000000" points="1345.5,-179.5 1345.5,-198.5 1453.5,-198.5 1453.5,-179.5 1345.5,-179.5"/>
<text text-anchor="middle" x="1399.5" y="-186.5" font-family="Helvetica,sans-Serif" font-size="10.00" fill="#000000">TPCBase/FECInfo.h</text>
</a>
</g>
</g>
<!-- Node7&#45;&gt;Node33 -->
<g id="edge47" class="edge">
<title>Node7&#45;&gt;Node33</title>
<path fill="none" stroke="#191970" d="M822.296,-407.9678C919.8727,-398.6224 1118.7453,-378.4948 1148.5,-367 1199.6113,-347.2547 1329.9742,-244.8627 1379.7624,-204.9517"/>
<polygon fill="#191970" stroke="#191970" points="1381.9625,-207.6738 1387.5634,-198.6804 1377.5766,-202.2181 1381.9625,-207.6738"/>
</g>
<!-- Node34 -->
<g id="node35" class="node">
<title>Node34</title>
<g id="a_node35"><a xlink:href="../../da/d9d/PadRegionInfo_8h.html" target="_top" xlink:title="TPCBase/PadRegionInfo.h">
<polygon fill="none" stroke="#000000" points="480.5,-347.5 480.5,-366.5 620.5,-366.5 620.5,-347.5 480.5,-347.5"/>
<text text-anchor="middle" x="550.5" y="-354.5" font-family="Helvetica,sans-Serif" font-size="10.00" fill="#000000">TPCBase/PadRegionInfo.h</text>
</a>
</g>
</g>
<!-- Node7&#45;&gt;Node34 -->
<g id="edge49" class="edge">
<title>Node7&#45;&gt;Node34</title>
<path fill="none" stroke="#191970" d="M731.0245,-403.3733C693.9897,-393.8598 637.2318,-379.2797 597.2639,-369.0127"/>
<polygon fill="#191970" stroke="#191970" points="598.0429,-365.5993 587.4865,-366.5011 596.3012,-372.3792 598.0429,-365.5993"/>
</g>
<!-- Node35 -->
<g id="node36" class="node">
<title>Node35</title>
<g id="a_node36"><a xlink:href="../../d6/d42/PartitionInfo_8h.html" target="_top" xlink:title="TPCBase/PartitionInfo.h">
<polygon fill="none" stroke="#000000" points="1261,-347.5 1261,-366.5 1392,-366.5 1392,-347.5 1261,-347.5"/>
<text text-anchor="middle" x="1326.5" y="-354.5" font-family="Helvetica,sans-Serif" font-size="10.00" fill="#000000">TPCBase/PartitionInfo.h</text>
</a>
</g>
</g>
<!-- Node7&#45;&gt;Node35 -->
<g id="edge53" class="edge">
<title>Node7&#45;&gt;Node35</title>
<path fill="none" stroke="#191970" d="M822.174,-408.5518C909.5702,-401.1632 1088.3133,-385.4454 1250.5026,-367.0773"/>
<polygon fill="#191970" stroke="#191970" points="1251.1274,-370.5288 1260.6673,-365.9201 1250.3355,-363.5738 1251.1274,-370.5288"/>
</g>
<!-- Node12&#45;&gt;Node11 -->
<g id="edge14" class="edge">
<title>Node12&#45;&gt;Node11</title>
<path fill="none" stroke="#191970" d="M872.0951,-123.4369C789.8945,-111.418 651.8946,-91.2405 588.3729,-81.9527"/>
<polygon fill="#191970" stroke="#191970" points="588.5227,-78.4375 578.1215,-80.4538 587.5099,-85.3638 588.5227,-78.4375"/>
</g>
<!-- Node13 -->
<g id="node14" class="node">
<title>Node13</title>
<g id="a_node14"><a xlink:href="../../d1/da8/GPUROOTCartesianFwd_8h.html" target="_top" xlink:title="GPUROOTCartesianFwd.h">
<polygon fill="none" stroke="#000000" points="821.5,-67.5 821.5,-86.5 961.5,-86.5 961.5,-67.5 821.5,-67.5"/>
<text text-anchor="middle" x="891.5" y="-74.5" font-family="Helvetica,sans-Serif" font-size="10.00" fill="#000000">GPUROOTCartesianFwd.h</text>
</a>
</g>
</g>
<!-- Node12&#45;&gt;Node13 -->
<g id="edge15" class="edge">
<title>Node12&#45;&gt;Node13</title>
<path fill="none" stroke="#191970" d="M929.4874,-123.2455C923.0232,-115.3761 913.7615,-104.101 906.0017,-94.6542"/>
<polygon fill="#191970" stroke="#191970" points="908.4727,-92.1484 899.4208,-86.6427 903.0636,-96.5916 908.4727,-92.1484"/>
</g>
<!-- Node12&#45;&gt;Node14 -->
<g id="edge16" class="edge">
<title>Node12&#45;&gt;Node14</title>
<path fill="none" stroke="#191970" d="M955.4412,-123.2455C971.54,-114.4928 995.3879,-101.527 1013.7391,-91.5496"/>
<polygon fill="#191970" stroke="#191970" points="1015.6507,-94.4942 1022.7644,-86.6427 1012.3071,-88.3444 1015.6507,-94.4942"/>
</g>
<!-- Node15 -->
<g id="node16" class="node">
<title>Node15</title>
<polygon fill="none" stroke="#bfbfbf" points="1330.5,-.5 1330.5,-30.5 1494.5,-30.5 1494.5,-.5 1330.5,-.5"/>
<text text-anchor="start" x="1338.5" y="-18.5" font-family="Helvetica,sans-Serif" font-size="10.00" fill="#000000">Math/GenVector/Displacement</text>
<text text-anchor="middle" x="1412.5" y="-7.5" font-family="Helvetica,sans-Serif" font-size="10.00" fill="#000000">Vector3D.h</text>
</g>
<!-- Node14&#45;&gt;Node15 -->
<g id="edge17" class="edge">
<title>Node14&#45;&gt;Node15</title>
<path fill="none" stroke="#191970" d="M1099.4524,-67.4628C1154.1015,-58.596 1237.9608,-44.9249 1320.1513,-31.2199"/>
<polygon fill="#191970" stroke="#191970" points="1320.8768,-34.6473 1330.1641,-29.5487 1319.7244,-27.7428 1320.8768,-34.6473"/>
</g>
<!-- Node16 -->
<g id="node17" class="node">
<title>Node16</title>
<polygon fill="none" stroke="#bfbfbf" points="0,-6 0,-25 189,-25 189,-6 0,-6"/>
<text text-anchor="middle" x="94.5" y="-13" font-family="Helvetica,sans-Serif" font-size="10.00" fill="#000000">Math/GenVector/PositionVector3D.h</text>
</g>
<!-- Node14&#45;&gt;Node16 -->
<g id="edge18" class="edge">
<title>Node14&#45;&gt;Node16</title>
<path fill="none" stroke="#191970" d="M979.4574,-67.9303C976.4317,-67.5904 973.4332,-67.2773 970.5,-67 628.5404,-34.6753 540.3602,-64.3594 198.5,-31 186.5058,-29.8296 173.7817,-28.2321 161.5018,-26.5056"/>
<polygon fill="#191970" stroke="#191970" points="161.7151,-23.0001 151.3169,-25.0315 160.7124,-29.9279 161.7151,-23.0001"/>
</g>
<!-- Node17 -->
<g id="node18" class="node">
<title>Node17</title>
<polygon fill="none" stroke="#bfbfbf" points="207.5,-6 207.5,-25 367.5,-25 367.5,-6 207.5,-6"/>
<text text-anchor="middle" x="287.5" y="-13" font-family="Helvetica,sans-Serif" font-size="10.00" fill="#000000">Math/GenVector/Rotation3D.h</text>
</g>
<!-- Node14&#45;&gt;Node17 -->
<g id="edge19" class="edge">
<title>Node14&#45;&gt;Node17</title>
<path fill="none" stroke="#191970" d="M979.4524,-67.9807C976.428,-67.6275 973.4312,-67.2977 970.5,-67 707.3692,-40.276 639.1922,-61.7375 376.5,-31 366.6861,-29.8517 356.3124,-28.3298 346.2488,-26.6878"/>
<polygon fill="#191970" stroke="#191970" points="346.7634,-23.2253 336.3209,-25.0152 345.6004,-30.128 346.7634,-23.2253"/>
</g>
<!-- Node18 -->
<g id="node19" class="node">
<title>Node18</title>
<polygon fill="none" stroke="#bfbfbf" points="385.5,-6 385.5,-25 553.5,-25 553.5,-6 385.5,-6"/>
<text text-anchor="middle" x="469.5" y="-13" font-family="Helvetica,sans-Serif" font-size="10.00" fill="#000000">Math/GenVector/Transform3D.h</text>
</g>
<!-- Node14&#45;&gt;Node18 -->
<g id="edge20" class="edge">
<title>Node14&#45;&gt;Node18</title>
<path fill="none" stroke="#191970" d="M979.4416,-68.0806C976.4201,-67.701 973.4268,-67.3383 970.5,-67 790.1056,-46.1518 743.6596,-53.7886 563.5,-31 553.6546,-29.7546 543.2606,-28.2416 533.1161,-26.6548"/>
<polygon fill="#191970" stroke="#191970" points="533.5115,-23.1736 523.0842,-25.0505 532.406,-30.0858 533.5115,-23.1736"/>
</g>
<!-- Node19 -->
<g id="node20" class="node">
<title>Node19</title>
<polygon fill="none" stroke="#bfbfbf" points="572,-6 572,-25 745,-25 745,-6 572,-6"/>
<text text-anchor="middle" x="658.5" y="-13" font-family="Helvetica,sans-Serif" font-size="10.00" fill="#000000">Math/GenVector/Translation3D.h</text>
</g>
<!-- Node14&#45;&gt;Node19 -->
<g id="edge21" class="edge">
<title>Node14&#45;&gt;Node19</title>
<path fill="none" stroke="#191970" d="M981.3413,-67.4956C923.5047,-58.2012 832.9476,-43.6417 754.5,-31 745.7808,-29.5949 736.6164,-28.1168 727.5528,-26.6543"/>
<polygon fill="#191970" stroke="#191970" points="727.8216,-23.1524 717.3917,-25.0143 726.7062,-30.063 727.8216,-23.1524"/>
</g>
<!-- Node20 -->
<g id="node21" class="node">
<title>Node20</title>
<polygon fill="none" stroke="#bfbfbf" points="763.5,-.5 763.5,-30.5 927.5,-30.5 927.5,-.5 763.5,-.5"/>
<text text-anchor="start" x="771.5" y="-18.5" font-family="Helvetica,sans-Serif" font-size="10.00" fill="#000000">Math/GenVector/Displacement</text>
<text text-anchor="middle" x="845.5" y="-7.5" font-family="Helvetica,sans-Serif" font-size="10.00" fill="#000000">Vector2D.h</text>
</g>
<!-- Node14&#45;&gt;Node20 -->
<g id="edge22" class="edge">
<title>Node14&#45;&gt;Node20</title>
<path fill="none" stroke="#191970" d="M1010.0313,-67.3906C981.4411,-58.3737 937.947,-44.6563 902.8572,-33.5896"/>
<polygon fill="#191970" stroke="#191970" points="903.7921,-30.2145 893.2024,-30.5446 901.6866,-36.8904 903.7921,-30.2145"/>
</g>
<!-- Node21 -->
<g id="node22" class="node">
<title>Node21</title>
<polygon fill="none" stroke="#bfbfbf" points="946,-6 946,-25 1135,-25 1135,-6 946,-6"/>
<text text-anchor="middle" x="1040.5" y="-13" font-family="Helvetica,sans-Serif" font-size="10.00" fill="#000000">Math/GenVector/PositionVector2D.h</text>
</g>
<!-- Node14&#45;&gt;Node21 -->
<g id="edge23" class="edge">
<title>Node14&#45;&gt;Node21</title>
<path fill="none" stroke="#191970" d="M1040.5,-67.3906C1040.5,-58.8657 1040.5,-46.1392 1040.5,-35.4235"/>
<polygon fill="#191970" stroke="#191970" points="1044.0001,-35.2448 1040.5,-25.2449 1037.0001,-35.2449 1044.0001,-35.2448"/>
</g>
<!-- Node22 -->
<g id="node23" class="node">
<title>Node22</title>
<polygon fill="none" stroke="#bfbfbf" points="1153,-6 1153,-25 1212,-25 1212,-6 1153,-6"/>
<text text-anchor="middle" x="1182.5" y="-13" font-family="Helvetica,sans-Serif" font-size="10.00" fill="#000000">Rtypes.h</text>
</g>
<!-- Node14&#45;&gt;Node22 -->
<g id="edge24" class="edge">
<title>Node14&#45;&gt;Node22</title>
<path fill="none" stroke="#191970" d="M1062.6875,-67.3906C1086.4467,-57.1005 1124.3405,-40.6888 1151.1425,-29.0809"/>
<polygon fill="#191970" stroke="#191970" points="1152.683,-32.2279 1160.4683,-25.0419 1149.9009,-25.8045 1152.683,-32.2279"/>
</g>
<!-- Node23 -->
<g id="node24" class="node">
<title>Node23</title>
<polygon fill="none" stroke="#bfbfbf" points="1230.5,-6 1230.5,-25 1312.5,-25 1312.5,-6 1230.5,-6"/>
<text text-anchor="middle" x="1271.5" y="-13" font-family="Helvetica,sans-Serif" font-size="10.00" fill="#000000">TGeoMatrix.h</text>
</g>
<!-- Node14&#45;&gt;Node23 -->
<g id="edge25" class="edge">
<title>Node14&#45;&gt;Node23</title>
<path fill="none" stroke="#191970" d="M1080.5593,-67.4496C1117.3419,-58.5311 1173.2859,-44.59 1221.5,-31 1224.8827,-30.0465 1228.3844,-29.0274 1231.892,-27.9842"/>
<polygon fill="#191970" stroke="#191970" points="1233.1418,-31.2628 1241.6986,-25.0152 1231.1134,-24.5631 1233.1418,-31.2628"/>
</g>
<!-- Node24 -->
<g id="node25" class="node">
<title>Node24</title>
<polygon fill="none" stroke="#bfbfbf" points="1513,-6 1513,-25 1562,-25 1562,-6 1513,-6"/>
<text text-anchor="middle" x="1537.5" y="-13" font-family="Helvetica,sans-Serif" font-size="10.00" fill="#000000">iosfwd</text>
</g>
<!-- Node14&#45;&gt;Node24 -->
<g id="edge26" class="edge">
<title>Node14&#45;&gt;Node24</title>
<path fill="none" stroke="#191970" d="M1101.7548,-73.4144C1209.6791,-66.6815 1429.31,-51.005 1503.5,-31 1505.6883,-30.4099 1507.9126,-29.6922 1510.1223,-28.8927"/>
<polygon fill="#191970" stroke="#191970" points="1511.6457,-32.0506 1519.5593,-25.006 1508.9799,-25.578 1511.6457,-32.0506"/>
</g>
<!-- Node26&#45;&gt;Node25 -->
<g id="edge32" class="edge">
<title>Node26&#45;&gt;Node25</title>
<path fill="none" stroke="#191970" d="M649.0414,-291.2455C659.7787,-282.8943 675.4473,-270.7076 688.0047,-260.9408"/>
<polygon fill="#191970" stroke="#191970" points="690.3575,-263.5449 696.1023,-254.6427 686.0599,-258.0194 690.3575,-263.5449"/>
</g>
<!-- Node26&#45;&gt;Node27 -->
<g id="edge29" class="edge">
<title>Node26&#45;&gt;Node27</title>
<path fill="none" stroke="#191970" d="M635.0828,-291.2345C633.6113,-277.1314 633.1192,-251.0034 646.5,-235 657.4032,-221.9598 695.442,-209.6757 728.3737,-201.0876"/>
<polygon fill="#191970" stroke="#191970" points="729.5627,-204.3968 738.3943,-198.5442 727.8405,-197.612 729.5627,-204.3968"/>
</g>
<!-- Node27&#45;&gt;Node12 -->
<g id="edge31" class="edge">
<title>Node27&#45;&gt;Node12</title>
<path fill="none" stroke="#191970" d="M808.3174,-179.3733C834.0332,-170.1419 873.038,-156.1402 901.4599,-145.9375"/>
<polygon fill="#191970" stroke="#191970" points="902.8032,-149.174 911.0326,-142.5011 900.4381,-142.5857 902.8032,-149.174"/>
</g>
<!-- Node28 -->
<g id="node29" class="node">
<title>Node28</title>
<g id="a_node29"><a xlink:href="../../d0/dda/DataFormats_2Detectors_2TPC_2include_2DataFormatsTPC_2Constants_8h.html" target="_top" xlink:title="DataFormatsTPC/Constants.h">
<polygon fill="none" stroke="#000000" points="694,-123.5 694,-142.5 853,-142.5 853,-123.5 694,-123.5"/>
<text text-anchor="middle" x="773.5" y="-130.5" font-family="Helvetica,sans-Serif" font-size="10.00" fill="#000000">DataFormatsTPC/Constants.h</text>
</a>
</g>
</g>
<!-- Node27&#45;&gt;Node28 -->
<g id="edge30" class="edge">
<title>Node27&#45;&gt;Node28</title>
<path fill="none" stroke="#191970" d="M780.1065,-179.2455C779.0626,-171.9382 777.5992,-161.6944 776.3149,-152.7046"/>
<polygon fill="#191970" stroke="#191970" points="779.7566,-152.0472 774.8775,-142.6427 772.827,-153.0372 779.7566,-152.0472"/>
</g>
<!-- Node29&#45;&gt;Node12 -->
<g id="edge34" class="edge">
<title>Node29&#45;&gt;Node12</title>
<path fill="none" stroke="#191970" d="M965.8883,-291.4158C964.4435,-270.7109 960.2622,-220.3348 951.5,-179 949.6223,-170.1421 946.8224,-160.5322 944.2189,-152.3979"/>
<polygon fill="#191970" stroke="#191970" points="947.4837,-151.1239 941.0036,-142.7418 940.8422,-153.3354 947.4837,-151.1239"/>
</g>
<!-- Node29&#45;&gt;Node25 -->
<g id="edge38" class="edge">
<title>Node29&#45;&gt;Node25</title>
<path fill="none" stroke="#191970" d="M922.4414,-291.4369C878.1011,-281.8127 809.6589,-266.957 762.1751,-256.6504"/>
<polygon fill="#191970" stroke="#191970" points="762.8918,-253.2245 752.3769,-254.5237 761.4069,-260.0653 762.8918,-253.2245"/>
</g>
<!-- Node30 -->
<g id="node31" class="node">
<title>Node30</title>
<g id="a_node31"><a xlink:href="../../dc/d14/ROC_8h.html" target="_top" xlink:title="TPCBase/ROC.h">
<polygon fill="none" stroke="#000000" points="817.5,-235.5 817.5,-254.5 909.5,-254.5 909.5,-235.5 817.5,-235.5"/>
<text text-anchor="middle" x="863.5" y="-242.5" font-family="Helvetica,sans-Serif" font-size="10.00" fill="#000000">TPCBase/ROC.h</text>
</a>
</g>
</g>
<!-- Node29&#45;&gt;Node30 -->
<g id="edge35" class="edge">
<title>Node29&#45;&gt;Node30</title>
<path fill="none" stroke="#191970" d="M948.5588,-291.2455C932.46,-282.4928 908.6121,-269.527 890.2609,-259.5496"/>
<polygon fill="#191970" stroke="#191970" points="891.6929,-256.3444 881.2356,-254.6427 888.3493,-262.4942 891.6929,-256.3444"/>
</g>
<!-- Node30&#45;&gt;Node12 -->
<g id="edge36" class="edge">
<title>Node30&#45;&gt;Node12</title>
<path fill="none" stroke="#191970" d="M869.8092,-235.4509C882.1515,-216.7707 909.6682,-175.1238 925.5568,-151.0761"/>
<polygon fill="#191970" stroke="#191970" points="928.6143,-152.7977 931.2068,-142.5249 922.774,-148.9388 928.6143,-152.7977"/>
</g>
<!-- Node30&#45;&gt;Node27 -->
<g id="edge37" class="edge">
<title>Node30&#45;&gt;Node27</title>
<path fill="none" stroke="#191970" d="M849.2167,-235.2455C836.753,-226.7337 818.4549,-214.2375 804.0208,-204.3801"/>
<polygon fill="#191970" stroke="#191970" points="805.8515,-201.392 795.6196,-198.6427 801.9038,-207.1726 805.8515,-201.392"/>
</g>
<!-- Node31&#45;&gt;Node12 -->
<g id="edge40" class="edge">
<title>Node31&#45;&gt;Node12</title>
<path fill="none" stroke="#191970" d="M866.5094,-353.6844C927.1299,-348.7888 1018.044,-337.1945 1039.5,-311 1083.7479,-256.98 1000.3984,-181.3026 958.9378,-148.8232"/>
<polygon fill="#191970" stroke="#191970" points="960.8521,-145.8806 950.7873,-142.5715 956.5918,-151.4348 960.8521,-145.8806"/>
</g>
<!-- Node31&#45;&gt;Node25 -->
<g id="edge45" class="edge">
<title>Node31&#45;&gt;Node25</title>
<path fill="none" stroke="#191970" d="M801.8035,-347.4509C784.5653,-328.5227 745.8521,-286.014 724.0986,-262.1279"/>
<polygon fill="#191970" stroke="#191970" points="726.4955,-259.5617 717.1745,-254.5249 721.3201,-264.275 726.4955,-259.5617"/>
</g>
<!-- Node31&#45;&gt;Node26 -->
<g id="edge46" class="edge">
<title>Node31&#45;&gt;Node26</title>
<path fill="none" stroke="#191970" d="M780.5883,-347.3733C751.6548,-338.0613 707.6389,-323.8953 675.8707,-313.671"/>
<polygon fill="#191970" stroke="#191970" points="676.6128,-310.2331 666.0213,-310.5011 674.4682,-316.8965 676.6128,-310.2331"/>
</g>
<!-- Node32 -->
<g id="node33" class="node">
<title>Node32</title>
<g id="a_node33"><a xlink:href="../../df/d26/CRU_8h.html" target="_top" xlink:title="TPCBase/CRU.h">
<polygon fill="none" stroke="#000000" points="792.5,-291.5 792.5,-310.5 884.5,-310.5 884.5,-291.5 792.5,-291.5"/>
<text text-anchor="middle" x="838.5" y="-298.5" font-family="Helvetica,sans-Serif" font-size="10.00" fill="#000000">TPCBase/CRU.h</text>
</a>
</g>
</g>
<!-- Node31&#45;&gt;Node32 -->
<g id="edge41" class="edge">
<title>Node31&#45;&gt;Node32</title>
<path fill="none" stroke="#191970" d="M815.3772,-347.2455C819.1513,-339.6973 824.4921,-329.0158 829.0901,-319.8197"/>
<polygon fill="#191970" stroke="#191970" points="832.337,-321.1522 833.6787,-310.6427 826.076,-318.0217 832.337,-321.1522"/>
</g>
<!-- Node32&#45;&gt;Node12 -->
<g id="edge42" class="edge">
<title>Node32&#45;&gt;Node12</title>
<path fill="none" stroke="#191970" d="M868.1996,-291.3485C885.6333,-284.1187 906.5288,-272.4335 918.5,-255 939.7457,-224.0602 940.8175,-178.3734 939.3727,-152.5849"/>
<polygon fill="#191970" stroke="#191970" points="942.8588,-152.2671 938.6232,-142.5557 935.8782,-152.7888 942.8588,-152.2671"/>
</g>
<!-- Node32&#45;&gt;Node27 -->
<g id="edge43" class="edge">
<title>Node32&#45;&gt;Node27</title>
<path fill="none" stroke="#191970" d="M831.5062,-291.4559C825.0381,-282.3717 815.4093,-268.1714 808.5,-255 800.5133,-239.7748 793.2462,-221.6456 788.2683,-208.2436"/>
<polygon fill="#191970" stroke="#191970" points="791.4919,-206.8661 784.7969,-198.6547 784.91,-209.2489 791.4919,-206.8661"/>
</g>
<!-- Node32&#45;&gt;Node30 -->
<g id="edge44" class="edge">
<title>Node32&#45;&gt;Node30</title>
<path fill="none" stroke="#191970" d="M842.8547,-291.2455C846.2244,-283.6973 850.993,-273.0158 855.0983,-263.8197"/>
<polygon fill="#191970" stroke="#191970" points="858.3147,-265.2009 859.1952,-254.6427 851.9227,-262.3473 858.3147,-265.2009"/>
</g>
<!-- Node33&#45;&gt;Node24 -->
<g id="edge48" class="edge">
<title>Node33&#45;&gt;Node24</title>
<path fill="none" stroke="#191970" d="M1407.116,-179.4248C1429.3063,-151.5261 1494.1646,-69.9832 1523.1805,-33.5031"/>
<polygon fill="#191970" stroke="#191970" points="1526.2516,-35.2645 1529.7374,-25.2595 1520.7732,-30.9071 1526.2516,-35.2645"/>
</g>
<!-- Node34&#45;&gt;Node9 -->
<g id="edge50" class="edge">
<title>Node34&#45;&gt;Node9</title>
<path fill="none" stroke="#191970" d="M534.1264,-347.2455C519.5692,-338.5731 498.069,-325.7645 481.3848,-315.825"/>
<polygon fill="#191970" stroke="#191970" points="483.0683,-312.7539 472.6859,-310.6427 479.4856,-318.7676 483.0683,-312.7539"/>
</g>
<!-- Node34&#45;&gt;Node12 -->
<g id="edge51" class="edge">
<title>Node34&#45;&gt;Node12</title>
<path fill="none" stroke="#191970" d="M548.0457,-347.3636C545.1609,-333.8728 541.8907,-308.993 551.5,-291 594.2985,-210.8619 638.2551,-213.0092 722.5,-179 749.2684,-168.1937 819.4574,-154.0992 872.4146,-144.3742"/>
<polygon fill="#191970" stroke="#191970" points="873.2123,-147.7866 882.4228,-142.5504 871.9573,-140.9 873.2123,-147.7866"/>
</g>
<!-- Node34&#45;&gt;Node25 -->
<g id="edge52" class="edge">
<title>Node34&#45;&gt;Node25</title>
<path fill="none" stroke="#191970" d="M550.0779,-347.1177C550.0221,-332.8692 552.0701,-306.5617 566.5,-291 578.648,-277.8992 618.9065,-265.5658 653.4689,-256.9739"/>
<polygon fill="#191970" stroke="#191970" points="654.6108,-260.2986 663.5051,-254.5418 652.9621,-253.4955 654.6108,-260.2986"/>
</g>
</g>
</svg>
