<?xml version="1.0" encoding="UTF-8" standalone="no"?>
<!DOCTYPE svg PUBLIC "-//W3C//DTD SVG 1.1//EN"
 "http://www.w3.org/Graphics/SVG/1.1/DTD/svg11.dtd">
<!-- Generated by graphviz version 2.40.1 (20161225.0304)
 -->
<!-- Title: /home/travis/build/AliceO2Group/AliceO2/Detectors/EMCAL/simulation/include/EMCALSimulation/Detector.h Pages: 1 -->
<svg width="2783pt" height="307pt"
 viewBox="0.00 0.00 2783.00 307.00" xmlns="http://www.w3.org/2000/svg" xmlns:xlink="http://www.w3.org/1999/xlink">
<g id="graph0" class="graph" transform="scale(1 1) rotate(0) translate(4 303)">
<title>/home/travis/build/AliceO2Group/AliceO2/Detectors/EMCAL/simulation/include/EMCALSimulation/Detector.h</title>
<!-- Node0 -->
<g id="node1" class="node">
<title>Node0</title>
<polygon fill="#bfbfbf" stroke="#000000" points="2076.5,-246.5 2076.5,-298.5 2273.5,-298.5 2273.5,-246.5 2076.5,-246.5"/>
<text text-anchor="start" x="2084.5" y="-286.5" font-family="Helvetica,sans-Serif" font-size="10.00" fill="#000000">/home/travis/build</text>
<text text-anchor="start" x="2084.5" y="-275.5" font-family="Helvetica,sans-Serif" font-size="10.00" fill="#000000">/AliceO2Group/AliceO2</text>
<text text-anchor="start" x="2084.5" y="-264.5" font-family="Helvetica,sans-Serif" font-size="10.00" fill="#000000">/Detectors/EMCAL/simulation</text>
<text text-anchor="middle" x="2175" y="-253.5" font-family="Helvetica,sans-Serif" font-size="10.00" fill="#000000">/include/EMCALSimulation/Detector.h</text>
</g>
<!-- Node1 -->
<g id="node2" class="node">
<title>Node1</title>
<g id="a_node2"><a xlink:href="../../d1/d3a/Base_2include_2DetectorsBase_2Detector_8h.html" target="_top" xlink:title="DetectorsBase/Detector.h">
<polygon fill="none" stroke="#000000" points="1762.5,-190.5 1762.5,-209.5 1903.5,-209.5 1903.5,-190.5 1762.5,-190.5"/>
<text text-anchor="middle" x="1833" y="-197.5" font-family="Helvetica,sans-Serif" font-size="10.00" fill="#000000">DetectorsBase/Detector.h</text>
</a>
</g>
</g>
<!-- Node0&#45;&gt;Node1 -->
<g id="edge1" class="edge">
<title>Node0&#45;&gt;Node1</title>
<path fill="none" stroke="#191970" d="M2076.0794,-251.53C2014.9896,-238.5797 1938.8769,-222.4447 1888.2603,-211.7145"/>
<polygon fill="#191970" stroke="#191970" points="1888.6835,-208.2266 1878.1751,-209.5766 1887.2318,-215.0744 1888.6835,-208.2266"/>
</g>
<!-- Node3 -->
<g id="node4" class="node">
<title>Node3</title>
<polygon fill="none" stroke="#bfbfbf" points="1305.5,-129 1305.5,-148 1352.5,-148 1352.5,-129 1305.5,-129"/>
<text text-anchor="middle" x="1329" y="-136" font-family="Helvetica,sans-Serif" font-size="10.00" fill="#000000">vector</text>
</g>
<!-- Node0&#45;&gt;Node3 -->
<g id="edge51" class="edge">
<title>Node0&#45;&gt;Node3</title>
<path fill="none" stroke="#191970" d="M2076.3444,-269.6279C1919.9117,-262.5685 1607.0646,-238.1816 1357,-154 1355.7559,-153.5812 1354.503,-153.1077 1353.2535,-152.5931"/>
<polygon fill="#191970" stroke="#191970" points="1354.4685,-149.2923 1343.9441,-148.0721 1351.4105,-155.5891 1354.4685,-149.2923"/>
</g>
<!-- Node9 -->
<g id="node10" class="node">
<title>Node9</title>
<polygon fill="none" stroke="#bfbfbf" points="2029.5,-6 2029.5,-25 2088.5,-25 2088.5,-6 2029.5,-6"/>
<text text-anchor="middle" x="2059" y="-13" font-family="Helvetica,sans-Serif" font-size="10.00" fill="#000000">Rtypes.h</text>
</g>
<!-- Node0&#45;&gt;Node9 -->
<g id="edge50" class="edge">
<title>Node0&#45;&gt;Node9</title>
<path fill="none" stroke="#191970" d="M2273.5178,-260.9646C2366.0441,-249.213 2497.197,-229.9299 2545,-210 2592.9326,-190.0161 2653.6528,-164.9201 2623,-123 2560.8189,-37.9623 2216.8266,-20.0647 2098.7776,-16.4089"/>
<polygon fill="#191970" stroke="#191970" points="2098.8183,-12.9087 2088.7204,-16.1153 2098.614,-19.9057 2098.8183,-12.9087"/>
</g>
<!-- Node10 -->
<g id="node11" class="node">
<title>Node10</title>
<polygon fill="none" stroke="#bfbfbf" points="2344.5,-67.5 2344.5,-86.5 2437.5,-86.5 2437.5,-67.5 2344.5,-67.5"/>
<text text-anchor="middle" x="2391" y="-74.5" font-family="Helvetica,sans-Serif" font-size="10.00" fill="#000000">unordered_map</text>
</g>
<!-- Node0&#45;&gt;Node10 -->
<g id="edge52" class="edge">
<title>Node0&#45;&gt;Node10</title>
<path fill="none" stroke="#191970" d="M2273.6188,-259.6761C2388.3622,-242.4468 2567.1193,-207.6454 2606,-154 2614.0854,-142.8442 2614.6635,-133.7131 2606,-123 2586.4547,-98.8306 2504.7611,-86.796 2447.9054,-81.2383"/>
<polygon fill="#191970" stroke="#191970" points="2447.8813,-77.7209 2437.5988,-80.2745 2447.2294,-84.6905 2447.8813,-77.7209"/>
</g>
<!-- Node27 -->
<g id="node28" class="node">
<title>Node27</title>
<g id="a_node28"><a xlink:href="../../d8/d16/Detectors_2EMCAL_2base_2include_2EMCALBase_2Hit_8h.html" target="_top" xlink:title="EMCALBase/Hit.h">
<polygon fill="none" stroke="#000000" points="1157,-190.5 1157,-209.5 1257,-209.5 1257,-190.5 1157,-190.5"/>
<text text-anchor="middle" x="1207" y="-197.5" font-family="Helvetica,sans-Serif" font-size="10.00" fill="#000000">EMCALBase/Hit.h</text>
</a>
</g>
</g>
<!-- Node0&#45;&gt;Node27 -->
<g id="edge32" class="edge">
<title>Node0&#45;&gt;Node27</title>
<path fill="none" stroke="#191970" d="M2076.4064,-265.1157C1876.7381,-250.1612 1429.7785,-216.6854 1267.4145,-204.5248"/>
<polygon fill="#191970" stroke="#191970" points="1267.3706,-201.0118 1257.1371,-203.7551 1266.8478,-207.9923 1267.3706,-201.0118"/>
</g>
<!-- Node29 -->
<g id="node30" class="node">
<title>Node29</title>
<g id="a_node30"><a xlink:href="../../dc/d73/Cartesian_8h.html" target="_top" xlink:title="MathUtils/Cartesian.h">
<polygon fill="none" stroke="#000000" points="917,-67.5 917,-86.5 1039,-86.5 1039,-67.5 917,-67.5"/>
<text text-anchor="middle" x="978" y="-74.5" font-family="Helvetica,sans-Serif" font-size="10.00" fill="#000000">MathUtils/Cartesian.h</text>
</a>
</g>
</g>
<!-- Node0&#45;&gt;Node29 -->
<g id="edge48" class="edge">
<title>Node0&#45;&gt;Node29</title>
<path fill="none" stroke="#191970" d="M2076.3559,-269.6043C1854.9596,-262.6008 1324.1483,-242.8581 1148,-210 1067.3055,-194.9475 1020.4517,-220.2616 972,-154 959.8093,-137.3282 964.4606,-112.8428 970.1002,-95.9821"/>
<polygon fill="#191970" stroke="#191970" points="973.3814,-97.1999 973.5976,-86.6073 966.823,-94.7532 973.3814,-97.1999"/>
</g>
<!-- Node38 -->
<g id="node39" class="node">
<title>Node38</title>
<g id="a_node39"><a xlink:href="../../d5/d5e/GeometryBase_8h.html" target="_top" xlink:title="EMCALBase/GeometryBase.h">
<polygon fill="none" stroke="#000000" points="2268,-190.5 2268,-209.5 2426,-209.5 2426,-190.5 2268,-190.5"/>
<text text-anchor="middle" x="2347" y="-197.5" font-family="Helvetica,sans-Serif" font-size="10.00" fill="#000000">EMCALBase/GeometryBase.h</text>
</a>
</g>
</g>
<!-- Node0&#45;&gt;Node38 -->
<g id="edge46" class="edge">
<title>Node0&#45;&gt;Node38</title>
<path fill="none" stroke="#191970" d="M2237.0959,-246.3258C2263.4647,-235.2111 2293.0903,-222.7236 2314.9329,-213.5167"/>
<polygon fill="#191970" stroke="#191970" points="2316.526,-216.6434 2324.3814,-209.534 2313.8071,-210.193 2316.526,-216.6434"/>
</g>
<!-- Node39 -->
<g id="node40" class="node">
<title>Node39</title>
<polygon fill="none" stroke="#bfbfbf" points="2691,-190.5 2691,-209.5 2775,-209.5 2775,-190.5 2691,-190.5"/>
<text text-anchor="middle" x="2733" y="-197.5" font-family="Helvetica,sans-Serif" font-size="10.00" fill="#000000">RStringView.h</text>
</g>
<!-- Node0&#45;&gt;Node39 -->
<g id="edge49" class="edge">
<title>Node0&#45;&gt;Node39</title>
<path fill="none" stroke="#191970" d="M2273.7987,-261.7604C2375.1902,-250.3729 2537.4116,-231.1377 2677,-210 2678.2633,-209.8087 2679.542,-209.6112 2680.8312,-209.4086"/>
<polygon fill="#191970" stroke="#191970" points="2681.5368,-212.8398 2690.8422,-207.7743 2680.4089,-205.9313 2681.5368,-212.8398"/>
</g>
<!-- Node2 -->
<g id="node3" class="node">
<title>Node2</title>
<polygon fill="none" stroke="#bfbfbf" points="2091,-67.5 2091,-86.5 2129,-86.5 2129,-67.5 2091,-67.5"/>
<text text-anchor="middle" x="2110" y="-74.5" font-family="Helvetica,sans-Serif" font-size="10.00" fill="#000000">map</text>
</g>
<!-- Node1&#45;&gt;Node2 -->
<g id="edge2" class="edge">
<title>Node1&#45;&gt;Node2</title>
<path fill="none" stroke="#191970" d="M1903.8415,-193.7561C1986.4353,-185.7458 2113.5676,-170.8573 2128,-154 2142.0873,-137.5457 2131.9721,-112.1244 2122.1367,-95.0398"/>
<polygon fill="#191970" stroke="#191970" points="2125.0981,-93.1741 2116.8568,-86.5159 2119.1473,-96.8602 2125.0981,-93.1741"/>
</g>
<!-- Node1&#45;&gt;Node3 -->
<g id="edge3" class="edge">
<title>Node1&#45;&gt;Node3</title>
<path fill="none" stroke="#191970" d="M1762.1926,-195.5205C1650.8481,-188.0529 1439.9923,-172.0826 1367,-154 1364.3676,-153.3479 1361.678,-152.547 1359.0063,-151.6561"/>
<polygon fill="#191970" stroke="#191970" points="1360.1366,-148.3423 1349.5437,-148.1397 1357.6982,-154.9039 1360.1366,-148.3423"/>
</g>
<!-- Node4 -->
<g id="node5" class="node">
<title>Node4</title>
<polygon fill="none" stroke="#bfbfbf" points="1828.5,-67.5 1828.5,-86.5 1911.5,-86.5 1911.5,-67.5 1828.5,-67.5"/>
<text text-anchor="middle" x="1870" y="-74.5" font-family="Helvetica,sans-Serif" font-size="10.00" fill="#000000">initializer_list</text>
</g>
<!-- Node1&#45;&gt;Node4 -->
<g id="edge4" class="edge">
<title>Node1&#45;&gt;Node4</title>
<path fill="none" stroke="#191970" d="M1834.9439,-190.4051C1838.0124,-175.7265 1844.4161,-146.8845 1852,-123 1854.8467,-114.0346 1858.5585,-104.3071 1861.8714,-96.1164"/>
<polygon fill="#191970" stroke="#191970" points="1865.1635,-97.3147 1865.7594,-86.7366 1858.697,-94.6343 1865.1635,-97.3147"/>
</g>
<!-- Node5 -->
<g id="node6" class="node">
<title>Node5</title>
<polygon fill="none" stroke="#bfbfbf" points="2061,-129 2061,-148 2119,-148 2119,-129 2061,-129"/>
<text text-anchor="middle" x="2090" y="-136" font-family="Helvetica,sans-Serif" font-size="10.00" fill="#000000">memory</text>
</g>
<!-- Node1&#45;&gt;Node5 -->
<g id="edge5" class="edge">
<title>Node1&#45;&gt;Node5</title>
<path fill="none" stroke="#191970" d="M1891.5115,-190.4493C1935.7974,-182.5501 1997.8609,-170.0385 2051,-154 2053.4413,-153.2632 2055.9441,-152.4381 2058.4458,-151.5626"/>
<polygon fill="#191970" stroke="#191970" points="2059.8103,-154.7894 2067.9579,-148.0169 2057.3652,-148.2303 2059.8103,-154.7894"/>
</g>
<!-- Node6 -->
<g id="node7" class="node">
<title>Node6</title>
<polygon fill="none" stroke="#bfbfbf" points="2175,-129 2175,-148 2259,-148 2259,-129 2175,-129"/>
<text text-anchor="middle" x="2217" y="-136" font-family="Helvetica,sans-Serif" font-size="10.00" fill="#000000">FairDetector.h</text>
</g>
<!-- Node1&#45;&gt;Node6 -->
<g id="edge6" class="edge">
<title>Node1&#45;&gt;Node6</title>
<path fill="none" stroke="#191970" d="M1903.5197,-192.8084C1970.255,-185.3676 2073.029,-172.2617 2161,-154 2165.6917,-153.0261 2170.5702,-151.8799 2175.4048,-150.659"/>
<polygon fill="#191970" stroke="#191970" points="2176.4151,-154.0124 2185.1927,-148.0791 2174.6309,-147.2435 2176.4151,-154.0124"/>
</g>
<!-- Node7 -->
<g id="node8" class="node">
<title>Node7</title>
<polygon fill="none" stroke="#bfbfbf" points="2277,-129 2277,-148 2383,-148 2383,-129 2277,-129"/>
<text text-anchor="middle" x="2330" y="-136" font-family="Helvetica,sans-Serif" font-size="10.00" fill="#000000">FairRootManager.h</text>
</g>
<!-- Node1&#45;&gt;Node7 -->
<g id="edge7" class="edge">
<title>Node1&#45;&gt;Node7</title>
<path fill="none" stroke="#191970" d="M1903.87,-195.5583C1990.32,-189.4394 2140.6874,-176.5319 2268,-154 2273.7392,-152.9843 2279.7337,-151.7327 2285.6371,-150.3849"/>
<polygon fill="#191970" stroke="#191970" points="2286.5096,-153.7751 2295.4247,-148.0504 2284.8855,-146.9661 2286.5096,-153.7751"/>
</g>
<!-- Node8 -->
<g id="node9" class="node">
<title>Node8</title>
<g id="a_node9"><a xlink:href="../../d0/d9a/MaterialManager_8h.html" target="_top" xlink:title="DetectorsBase/MaterialManager.h">
<polygon fill="none" stroke="#000000" points="1861.5,-129 1861.5,-148 2042.5,-148 2042.5,-129 1861.5,-129"/>
<text text-anchor="middle" x="1952" y="-136" font-family="Helvetica,sans-Serif" font-size="10.00" fill="#000000">DetectorsBase/MaterialManager.h</text>
</a>
</g>
</g>
<!-- Node1&#45;&gt;Node8 -->
<g id="edge8" class="edge">
<title>Node1&#45;&gt;Node8</title>
<path fill="none" stroke="#191970" d="M1851.5938,-190.3906C1871.1553,-180.2811 1902.1501,-164.2628 1924.5309,-152.6962"/>
<polygon fill="#191970" stroke="#191970" points="1926.26,-155.7425 1933.5368,-148.0419 1923.0461,-149.5238 1926.26,-155.7425"/>
</g>
<!-- Node1&#45;&gt;Node9 -->
<g id="edge14" class="edge">
<title>Node1&#45;&gt;Node9</title>
<path fill="none" stroke="#191970" d="M1827.7393,-190.2629C1815.5416,-166.213 1788.6036,-103.3242 1819,-67 1877.2425,2.6007 1932.7236,-55.8852 2020,-31 2022.4524,-30.3008 2024.9631,-29.503 2027.4705,-28.6467"/>
<polygon fill="#191970" stroke="#191970" points="2028.8199,-31.8796 2036.9937,-25.1387 2026.4002,-25.3111 2028.8199,-31.8796"/>
</g>
<!-- Node12 -->
<g id="node13" class="node">
<title>Node12</title>
<polygon fill="none" stroke="#bfbfbf" points="2401,-129 2401,-148 2459,-148 2459,-129 2401,-129"/>
<text text-anchor="middle" x="2430" y="-136" font-family="Helvetica,sans-Serif" font-size="10.00" fill="#000000">cxxabi.h</text>
</g>
<!-- Node1&#45;&gt;Node12 -->
<g id="edge15" class="edge">
<title>Node1&#45;&gt;Node12</title>
<path fill="none" stroke="#191970" d="M1903.5482,-196.8766C2032.4533,-190.7251 2301.1405,-175.725 2392,-154 2394.7935,-153.3321 2397.6495,-152.4901 2400.479,-151.5456"/>
<polygon fill="#191970" stroke="#191970" points="2401.7224,-154.8174 2409.868,-148.0425 2399.2754,-148.259 2401.7224,-154.8174"/>
</g>
<!-- Node13 -->
<g id="node14" class="node">
<title>Node13</title>
<polygon fill="none" stroke="#bfbfbf" points="2477.5,-129 2477.5,-148 2534.5,-148 2534.5,-129 2477.5,-129"/>
<text text-anchor="middle" x="2506" y="-136" font-family="Helvetica,sans-Serif" font-size="10.00" fill="#000000">typeinfo</text>
</g>
<!-- Node1&#45;&gt;Node13 -->
<g id="edge16" class="edge">
<title>Node1&#45;&gt;Node13</title>
<path fill="none" stroke="#191970" d="M1903.6402,-197.6799C2045.9305,-192.548 2362.4591,-178.6899 2468,-154 2470.7967,-153.3457 2473.6549,-152.5132 2476.4859,-151.5747"/>
<polygon fill="#191970" stroke="#191970" points="2477.725,-154.8482 2485.8772,-148.0811 2475.2843,-148.2874 2477.725,-154.8482"/>
</g>
<!-- Node14 -->
<g id="node15" class="node">
<title>Node14</title>
<polygon fill="none" stroke="#bfbfbf" points="1409.5,-129 1409.5,-148 1478.5,-148 1478.5,-129 1409.5,-129"/>
<text text-anchor="middle" x="1444" y="-136" font-family="Helvetica,sans-Serif" font-size="10.00" fill="#000000">type_traits</text>
</g>
<!-- Node1&#45;&gt;Node14 -->
<g id="edge17" class="edge">
<title>Node1&#45;&gt;Node14</title>
<path fill="none" stroke="#191970" d="M1762.1788,-194.8526C1691.883,-188.742 1581.4224,-176.4293 1488,-154 1484.7712,-153.2248 1481.448,-152.3003 1478.1434,-151.2943"/>
<polygon fill="#191970" stroke="#191970" points="1478.9917,-147.8892 1468.399,-148.0992 1476.8107,-154.5407 1478.9917,-147.8892"/>
</g>
<!-- Node15 -->
<g id="node16" class="node">
<title>Node15</title>
<polygon fill="none" stroke="#bfbfbf" points="2553,-129 2553,-148 2597,-148 2597,-129 2553,-129"/>
<text text-anchor="middle" x="2575" y="-136" font-family="Helvetica,sans-Serif" font-size="10.00" fill="#000000">string</text>
</g>
<!-- Node1&#45;&gt;Node15 -->
<g id="edge18" class="edge">
<title>Node1&#45;&gt;Node15</title>
<path fill="none" stroke="#191970" d="M1903.6226,-198.9848C2058.7166,-196.1795 2424.7434,-186.2525 2544,-154 2545.7171,-153.5356 2547.4511,-152.9718 2549.1751,-152.3376"/>
<polygon fill="#191970" stroke="#191970" points="2550.999,-155.3597 2558.7534,-148.1403 2548.1894,-148.9483 2550.999,-155.3597"/>
</g>
<!-- Node16 -->
<g id="node17" class="node">
<title>Node16</title>
<polygon fill="none" stroke="#bfbfbf" points="1497,-129 1497,-148 1571,-148 1571,-129 1497,-129"/>
<text text-anchor="middle" x="1534" y="-136" font-family="Helvetica,sans-Serif" font-size="10.00" fill="#000000">TMessage.h</text>
</g>
<!-- Node1&#45;&gt;Node16 -->
<g id="edge19" class="edge">
<title>Node1&#45;&gt;Node16</title>
<path fill="none" stroke="#191970" d="M1765.5726,-190.4686C1714.2683,-182.5603 1642.1415,-170.0283 1580,-154 1576.6339,-153.1318 1573.1583,-152.1409 1569.6958,-151.0895"/>
<polygon fill="#191970" stroke="#191970" points="1570.6651,-147.725 1560.0743,-148.0174 1568.5359,-154.3933 1570.6651,-147.725"/>
</g>
<!-- Node17 -->
<g id="node18" class="node">
<title>Node17</title>
<g id="a_node18"><a xlink:href="../../de/d61/ShmManager_8h.html" target="_top" xlink:title="CommonUtils/ShmManager.h">
<polygon fill="none" stroke="#000000" points="1579,-67.5 1579,-86.5 1737,-86.5 1737,-67.5 1579,-67.5"/>
<text text-anchor="middle" x="1658" y="-74.5" font-family="Helvetica,sans-Serif" font-size="10.00" fill="#000000">CommonUtils/ShmManager.h</text>
</a>
</g>
</g>
<!-- Node1&#45;&gt;Node17 -->
<g id="edge20" class="edge">
<title>Node1&#45;&gt;Node17</title>
<path fill="none" stroke="#191970" d="M1822.3262,-190.3992C1805.1942,-175.2122 1770.208,-145.1048 1738,-123 1721.2632,-111.5133 1701.4968,-100.1288 1685.7996,-91.5591"/>
<polygon fill="#191970" stroke="#191970" points="1687.079,-88.2727 1676.6152,-86.6112 1683.759,-94.4354 1687.079,-88.2727"/>
</g>
<!-- Node23 -->
<g id="node24" class="node">
<title>Node23</title>
<g id="a_node24"><a xlink:href="../../d0/d91/ShmAllocator_8h.html" target="_top" xlink:title="CommonUtils/ShmAllocator.h">
<polygon fill="none" stroke="#000000" points="1127,-129 1127,-148 1287,-148 1287,-129 1127,-129"/>
<text text-anchor="middle" x="1207" y="-136" font-family="Helvetica,sans-Serif" font-size="10.00" fill="#000000">CommonUtils/ShmAllocator.h</text>
</a>
</g>
</g>
<!-- Node1&#45;&gt;Node23 -->
<g id="edge26" class="edge">
<title>Node1&#45;&gt;Node23</title>
<path fill="none" stroke="#191970" d="M1762.4219,-195.9175C1659.5603,-189.523 1462.5649,-175.5967 1296,-154 1286.6495,-152.7876 1276.7826,-151.2899 1267.1574,-149.7077"/>
<polygon fill="#191970" stroke="#191970" points="1267.6891,-146.248 1257.2463,-148.0367 1266.5252,-153.1506 1267.6891,-146.248"/>
</g>
<!-- Node24 -->
<g id="node25" class="node">
<title>Node24</title>
<polygon fill="none" stroke="#bfbfbf" points="1268,-67.5 1268,-86.5 1320,-86.5 1320,-67.5 1268,-67.5"/>
<text text-anchor="middle" x="1294" y="-74.5" font-family="Helvetica,sans-Serif" font-size="10.00" fill="#000000">cassert</text>
</g>
<!-- Node1&#45;&gt;Node24 -->
<g id="edge31" class="edge">
<title>Node1&#45;&gt;Node24</title>
<path fill="none" stroke="#191970" d="M1762.2029,-197.2672C1656.7118,-192.3905 1463.8355,-180.1446 1400,-154 1379.5099,-145.608 1378.8045,-136.1632 1361,-123 1346.6195,-112.3682 1330.0546,-100.9879 1316.9937,-92.2066"/>
<polygon fill="#191970" stroke="#191970" points="1318.8399,-89.2308 1308.5811,-86.5835 1314.95,-95.0505 1318.8399,-89.2308"/>
</g>
<!-- Node25 -->
<g id="node26" class="node">
<title>Node25</title>
<polygon fill="none" stroke="#bfbfbf" points="1589,-129 1589,-148 1655,-148 1655,-129 1589,-129"/>
<text text-anchor="middle" x="1622" y="-136" font-family="Helvetica,sans-Serif" font-size="10.00" fill="#000000">sys/shm.h</text>
</g>
<!-- Node1&#45;&gt;Node25 -->
<g id="edge29" class="edge">
<title>Node1&#45;&gt;Node25</title>
<path fill="none" stroke="#191970" d="M1794.1223,-190.452C1759.6844,-181.7495 1708.1664,-168.1305 1664,-154 1661.4507,-153.1844 1658.8272,-152.3077 1656.1957,-151.4012"/>
<polygon fill="#191970" stroke="#191970" points="1657.3433,-148.0946 1646.7485,-148.0432 1654.9988,-154.6903 1657.3433,-148.0946"/>
</g>
<!-- Node26 -->
<g id="node27" class="node">
<title>Node26</title>
<polygon fill="none" stroke="#bfbfbf" points="1673,-129 1673,-148 1729,-148 1729,-129 1673,-129"/>
<text text-anchor="middle" x="1701" y="-136" font-family="Helvetica,sans-Serif" font-size="10.00" fill="#000000">unistd.h</text>
</g>
<!-- Node1&#45;&gt;Node26 -->
<g id="edge30" class="edge">
<title>Node1&#45;&gt;Node26</title>
<path fill="none" stroke="#191970" d="M1812.375,-190.3906C1790.4827,-180.1908 1755.6807,-163.9763 1730.8073,-152.3875"/>
<polygon fill="#191970" stroke="#191970" points="1732.0228,-149.0926 1721.4802,-148.0419 1729.0665,-155.4377 1732.0228,-149.0926"/>
</g>
<!-- Node8&#45;&gt;Node2 -->
<g id="edge10" class="edge">
<title>Node8&#45;&gt;Node2</title>
<path fill="none" stroke="#191970" d="M1976.6875,-128.8906C2005.0712,-117.8425 2051.5845,-99.7377 2081.4875,-88.0982"/>
<polygon fill="#191970" stroke="#191970" points="2082.8921,-91.3073 2090.9415,-84.4183 2080.353,-84.7841 2082.8921,-91.3073"/>
</g>
<!-- Node8&#45;&gt;Node4 -->
<g id="edge12" class="edge">
<title>Node8&#45;&gt;Node4</title>
<path fill="none" stroke="#191970" d="M1939.1875,-128.8906C1926.3099,-119.2324 1906.2416,-104.1812 1891.028,-92.771"/>
<polygon fill="#191970" stroke="#191970" points="1892.8226,-89.7419 1882.7225,-86.5419 1888.6225,-95.3419 1892.8226,-89.7419"/>
</g>
<!-- Node8&#45;&gt;Node9 -->
<g id="edge9" class="edge">
<title>Node8&#45;&gt;Node9</title>
<path fill="none" stroke="#191970" d="M1960.3961,-128.8484C1978.4448,-108.1008 2021.1483,-59.0117 2043.9835,-32.762"/>
<polygon fill="#191970" stroke="#191970" points="2046.7202,-34.9487 2050.6429,-25.1068 2041.4389,-30.3544 2046.7202,-34.9487"/>
</g>
<!-- Node8&#45;&gt;Node10 -->
<g id="edge11" class="edge">
<title>Node8&#45;&gt;Node10</title>
<path fill="none" stroke="#191970" d="M2012.2556,-128.9718C2025.3512,-126.9537 2039.1345,-124.8698 2052,-123 2151.2334,-108.5781 2267.0236,-93.1713 2334.371,-84.3514"/>
<polygon fill="#191970" stroke="#191970" points="2334.8894,-87.8135 2344.351,-83.0462 2333.9816,-80.8727 2334.8894,-87.8135"/>
</g>
<!-- Node11 -->
<g id="node12" class="node">
<title>Node11</title>
<polygon fill="none" stroke="#bfbfbf" points="1911.5,-6 1911.5,-25 1960.5,-25 1960.5,-6 1911.5,-6"/>
<text text-anchor="middle" x="1936" y="-13" font-family="Helvetica,sans-Serif" font-size="10.00" fill="#000000">iosfwd</text>
</g>
<!-- Node8&#45;&gt;Node11 -->
<g id="edge13" class="edge">
<title>Node8&#45;&gt;Node11</title>
<path fill="none" stroke="#191970" d="M1950.7445,-128.8484C1948.1274,-108.7295 1942.0437,-61.9608 1938.5639,-35.2098"/>
<polygon fill="#191970" stroke="#191970" points="1942.0105,-34.5717 1937.2497,-25.1068 1935.0689,-35.4747 1942.0105,-34.5717"/>
</g>
<!-- Node18 -->
<g id="node19" class="node">
<title>Node18</title>
<polygon fill="none" stroke="#bfbfbf" points="1979,-6 1979,-25 2011,-25 2011,-6 1979,-6"/>
<text text-anchor="middle" x="1995" y="-13" font-family="Helvetica,sans-Serif" font-size="10.00" fill="#000000">list</text>
</g>
<!-- Node17&#45;&gt;Node18 -->
<g id="edge21" class="edge">
<title>Node17&#45;&gt;Node18</title>
<path fill="none" stroke="#191970" d="M1737.2367,-68.8291C1814.9245,-60.1818 1927.5462,-45.7672 1969,-31 1970.0396,-30.6297 1971.0836,-30.2158 1972.1242,-29.768"/>
<polygon fill="#191970" stroke="#191970" points="1973.9148,-32.7825 1981.1923,-25.0826 1970.7015,-26.5636 1973.9148,-32.7825"/>
</g>
<!-- Node19 -->
<g id="node20" class="node">
<title>Node19</title>
<polygon fill="none" stroke="#bfbfbf" points="1435.5,-6 1435.5,-25 1488.5,-25 1488.5,-6 1435.5,-6"/>
<text text-anchor="middle" x="1462" y="-13" font-family="Helvetica,sans-Serif" font-size="10.00" fill="#000000">cstddef</text>
</g>
<!-- Node17&#45;&gt;Node19 -->
<g id="edge22" class="edge">
<title>Node17&#45;&gt;Node19</title>
<path fill="none" stroke="#191970" d="M1619.7464,-67.4611C1587.0596,-58.9648 1538.9614,-45.6399 1498,-31 1496.1738,-30.3473 1494.308,-29.6478 1492.4341,-28.9201"/>
<polygon fill="#191970" stroke="#191970" points="1493.7239,-25.6662 1483.1426,-25.1314 1491.0808,-32.1481 1493.7239,-25.6662"/>
</g>
<!-- Node20 -->
<g id="node21" class="node">
<title>Node20</title>
<polygon fill="none" stroke="#bfbfbf" points="1507,-6 1507,-25 1557,-25 1557,-6 1507,-6"/>
<text text-anchor="middle" x="1532" y="-13" font-family="Helvetica,sans-Serif" font-size="10.00" fill="#000000">atomic</text>
</g>
<!-- Node17&#45;&gt;Node20 -->
<g id="edge23" class="edge">
<title>Node17&#45;&gt;Node20</title>
<path fill="none" stroke="#191970" d="M1638.3125,-67.3906C1617.5078,-57.2359 1584.489,-41.1196 1560.7681,-29.5416"/>
<polygon fill="#191970" stroke="#191970" points="1562.0712,-26.283 1551.5493,-25.0419 1559.0007,-32.5736 1562.0712,-26.283"/>
</g>
<!-- Node21 -->
<g id="node22" class="node">
<title>Node21</title>
<polygon fill="none" stroke="#bfbfbf" points="1575.5,-.5 1575.5,-30.5 1740.5,-30.5 1740.5,-.5 1575.5,-.5"/>
<text text-anchor="start" x="1583.5" y="-18.5" font-family="Helvetica,sans-Serif" font-size="10.00" fill="#000000">boost/interprocess</text>
<text text-anchor="middle" x="1658" y="-7.5" font-family="Helvetica,sans-Serif" font-size="10.00" fill="#000000">/managed_external_buffer.hpp</text>
</g>
<!-- Node17&#45;&gt;Node21 -->
<g id="edge24" class="edge">
<title>Node17&#45;&gt;Node21</title>
<path fill="none" stroke="#191970" d="M1658,-67.3906C1658,-60.2234 1658,-50.0862 1658,-40.671"/>
<polygon fill="#191970" stroke="#191970" points="1661.5001,-40.5446 1658,-30.5446 1654.5001,-40.5446 1661.5001,-40.5446"/>
</g>
<!-- Node22 -->
<g id="node23" class="node">
<title>Node22</title>
<polygon fill="none" stroke="#bfbfbf" points="1759,-.5 1759,-30.5 1893,-30.5 1893,-.5 1759,-.5"/>
<text text-anchor="start" x="1767" y="-18.5" font-family="Helvetica,sans-Serif" font-size="10.00" fill="#000000">boost/interprocess</text>
<text text-anchor="middle" x="1826" y="-7.5" font-family="Helvetica,sans-Serif" font-size="10.00" fill="#000000">/allocators/allocator.hpp</text>
</g>
<!-- Node17&#45;&gt;Node22 -->
<g id="edge25" class="edge">
<title>Node17&#45;&gt;Node22</title>
<path fill="none" stroke="#191970" d="M1684.25,-67.3906C1708.5657,-58.4893 1745.3947,-45.0073 1775.4183,-34.0165"/>
<polygon fill="#191970" stroke="#191970" points="1776.7152,-37.269 1784.9026,-30.5446 1774.3088,-30.6956 1776.7152,-37.269"/>
</g>
<!-- Node23&#45;&gt;Node17 -->
<g id="edge27" class="edge">
<title>Node23&#45;&gt;Node17</title>
<path fill="none" stroke="#191970" d="M1259.1726,-129C1271.2479,-126.9162 1284.0579,-124.7977 1296,-123 1388.7405,-109.0395 1495.2743,-95.8427 1568.6368,-87.1946"/>
<polygon fill="#191970" stroke="#191970" points="1569.2403,-90.6479 1578.7636,-86.0049 1568.4235,-83.6957 1569.2403,-90.6479"/>
</g>
<!-- Node23&#45;&gt;Node24 -->
<g id="edge28" class="edge">
<title>Node23&#45;&gt;Node24</title>
<path fill="none" stroke="#191970" d="M1220.5938,-128.8906C1234.3843,-119.1421 1255.9472,-103.8994 1272.141,-92.4521"/>
<polygon fill="#191970" stroke="#191970" points="1274.3563,-95.1723 1280.5017,-86.5419 1270.3156,-89.4563 1274.3563,-95.1723"/>
</g>
<!-- Node27&#45;&gt;Node23 -->
<g id="edge45" class="edge">
<title>Node27&#45;&gt;Node23</title>
<path fill="none" stroke="#191970" d="M1207,-190.3906C1207,-181.8657 1207,-169.1392 1207,-158.4235"/>
<polygon fill="#191970" stroke="#191970" points="1210.5001,-158.2448 1207,-148.2449 1203.5001,-158.2449 1210.5001,-158.2448"/>
</g>
<!-- Node28 -->
<g id="node29" class="node">
<title>Node28</title>
<g id="a_node29"><a xlink:href="../../d4/d25/BaseHits_8h.html" target="_top" xlink:title="SimulationDataFormat\l/BaseHits.h">
<polygon fill="none" stroke="#000000" points="981.5,-123.5 981.5,-153.5 1108.5,-153.5 1108.5,-123.5 981.5,-123.5"/>
<text text-anchor="start" x="989.5" y="-141.5" font-family="Helvetica,sans-Serif" font-size="10.00" fill="#000000">SimulationDataFormat</text>
<text text-anchor="middle" x="1045" y="-130.5" font-family="Helvetica,sans-Serif" font-size="10.00" fill="#000000">/BaseHits.h</text>
</a>
</g>
</g>
<!-- Node27&#45;&gt;Node28 -->
<g id="edge33" class="edge">
<title>Node27&#45;&gt;Node28</title>
<path fill="none" stroke="#191970" d="M1181.6875,-190.3906C1158.3417,-181.5279 1123.0338,-168.1239 1094.1516,-157.1594"/>
<polygon fill="#191970" stroke="#191970" points="1095.2209,-153.8217 1084.6297,-153.5446 1092.7364,-160.366 1095.2209,-153.8217"/>
</g>
<!-- Node28&#45;&gt;Node29 -->
<g id="edge34" class="edge">
<title>Node28&#45;&gt;Node29</title>
<path fill="none" stroke="#191970" d="M1028.4382,-123.2977C1018.6535,-114.3163 1006.2526,-102.9334 996.1957,-93.702"/>
<polygon fill="#191970" stroke="#191970" points="998.4613,-91.0307 988.7275,-86.8469 993.7278,-96.1876 998.4613,-91.0307"/>
</g>
<!-- Node29&#45;&gt;Node9 -->
<g id="edge42" class="edge">
<title>Node29&#45;&gt;Node9</title>
<path fill="none" stroke="#191970" d="M1039.0905,-74.8658C1255.019,-67.249 1971.9184,-41.3088 2020,-31 2023.0366,-30.3489 2026.1433,-29.485 2029.2124,-28.497"/>
<polygon fill="#191970" stroke="#191970" points="2030.5539,-31.7335 2038.7567,-25.0279 2028.1626,-25.1546 2030.5539,-31.7335"/>
</g>
<!-- Node29&#45;&gt;Node11 -->
<g id="edge44" class="edge">
<title>Node29&#45;&gt;Node11</title>
<path fill="none" stroke="#191970" d="M1039.3257,-74.5822C1239.0062,-66.6262 1860.1321,-41.1898 1902,-31 1904.3401,-30.4305 1906.7165,-29.7002 1909.0695,-28.8677"/>
<polygon fill="#191970" stroke="#191970" points="1910.5313,-32.0512 1918.4571,-25.0204 1907.8768,-25.574 1910.5313,-32.0512"/>
</g>
<!-- Node30 -->
<g id="node31" class="node">
<title>Node30</title>
<polygon fill="none" stroke="#bfbfbf" points="1046,-.5 1046,-30.5 1210,-30.5 1210,-.5 1046,-.5"/>
<text text-anchor="start" x="1054" y="-18.5" font-family="Helvetica,sans-Serif" font-size="10.00" fill="#000000">Math/GenVector/Displacement</text>
<text text-anchor="middle" x="1128" y="-7.5" font-family="Helvetica,sans-Serif" font-size="10.00" fill="#000000">Vector3D.h</text>
</g>
<!-- Node29&#45;&gt;Node30 -->
<g id="edge35" class="edge">
<title>Node29&#45;&gt;Node30</title>
<path fill="none" stroke="#191970" d="M1001.4375,-67.3906C1022.866,-58.6049 1055.1788,-45.3567 1081.7903,-34.446"/>
<polygon fill="#191970" stroke="#191970" points="1083.3811,-37.5766 1091.3059,-30.5446 1080.7256,-31.0998 1083.3811,-37.5766"/>
</g>
<!-- Node31 -->
<g id="node32" class="node">
<title>Node31</title>
<polygon fill="none" stroke="#bfbfbf" points="1228.5,-6 1228.5,-25 1417.5,-25 1417.5,-6 1228.5,-6"/>
<text text-anchor="middle" x="1323" y="-13" font-family="Helvetica,sans-Serif" font-size="10.00" fill="#000000">Math/GenVector/PositionVector3D.h</text>
</g>
<!-- Node29&#45;&gt;Node31 -->
<g id="edge36" class="edge">
<title>Node29&#45;&gt;Node31</title>
<path fill="none" stroke="#191970" d="M1031.5277,-67.4581C1093.0594,-56.4894 1193.9687,-38.5012 1259.4388,-26.8305"/>
<polygon fill="#191970" stroke="#191970" points="1260.4,-30.2144 1269.6306,-25.0137 1259.1715,-23.323 1260.4,-30.2144"/>
</g>
<!-- Node32 -->
<g id="node33" class="node">
<title>Node32</title>
<polygon fill="none" stroke="#bfbfbf" points="0,-6 0,-25 160,-25 160,-6 0,-6"/>
<text text-anchor="middle" x="80" y="-13" font-family="Helvetica,sans-Serif" font-size="10.00" fill="#000000">Math/GenVector/Rotation3D.h</text>
</g>
<!-- Node29&#45;&gt;Node32 -->
<g id="edge37" class="edge">
<title>Node29&#45;&gt;Node32</title>
<path fill="none" stroke="#191970" d="M916.9026,-75.9357C781.6962,-73.0532 447.113,-63.0158 169,-31 159.1839,-29.87 148.8092,-28.3574 138.7452,-26.7191"/>
<polygon fill="#191970" stroke="#191970" points="139.2592,-23.2564 128.817,-25.0483 138.0975,-30.1594 139.2592,-23.2564"/>
</g>
<!-- Node33 -->
<g id="node34" class="node">
<title>Node33</title>
<polygon fill="none" stroke="#bfbfbf" points="178,-6 178,-25 346,-25 346,-6 178,-6"/>
<text text-anchor="middle" x="262" y="-13" font-family="Helvetica,sans-Serif" font-size="10.00" fill="#000000">Math/GenVector/Transform3D.h</text>
</g>
<!-- Node29&#45;&gt;Node33 -->
<g id="edge38" class="edge">
<title>Node29&#45;&gt;Node33</title>
<path fill="none" stroke="#191970" d="M916.8043,-74.3412C804.954,-69.0684 560.1336,-55.6153 355,-31 345.005,-29.8006 334.4451,-28.283 324.1684,-26.6692"/>
<polygon fill="#191970" stroke="#191970" points="324.4474,-23.169 314.0176,-25.0316 323.3325,-30.0797 324.4474,-23.169"/>
</g>
<!-- Node34 -->
<g id="node35" class="node">
<title>Node34</title>
<polygon fill="none" stroke="#bfbfbf" points="364.5,-6 364.5,-25 537.5,-25 537.5,-6 364.5,-6"/>
<text text-anchor="middle" x="451" y="-13" font-family="Helvetica,sans-Serif" font-size="10.00" fill="#000000">Math/GenVector/Translation3D.h</text>
</g>
<!-- Node29&#45;&gt;Node34 -->
<g id="edge39" class="edge">
<title>Node29&#45;&gt;Node34</title>
<path fill="none" stroke="#191970" d="M916.8508,-71.5172C833.197,-63.7786 678.4556,-48.6144 547,-31 537.2112,-29.6884 526.8832,-28.1668 516.7734,-26.5997"/>
<polygon fill="#191970" stroke="#191970" points="517.1873,-23.1218 506.7646,-25.0235 516.0984,-30.0366 517.1873,-23.1218"/>
</g>
<!-- Node35 -->
<g id="node36" class="node">
<title>Node35</title>
<polygon fill="none" stroke="#bfbfbf" points="556,-.5 556,-30.5 720,-30.5 720,-.5 556,-.5"/>
<text text-anchor="start" x="564" y="-18.5" font-family="Helvetica,sans-Serif" font-size="10.00" fill="#000000">Math/GenVector/Displacement</text>
<text text-anchor="middle" x="638" y="-7.5" font-family="Helvetica,sans-Serif" font-size="10.00" fill="#000000">Vector2D.h</text>
</g>
<!-- Node29&#45;&gt;Node35 -->
<g id="edge40" class="edge">
<title>Node29&#45;&gt;Node35</title>
<path fill="none" stroke="#191970" d="M925.248,-67.4581C873.1951,-58.0426 792.5476,-43.4549 729.9414,-32.1306"/>
<polygon fill="#191970" stroke="#191970" points="730.5189,-28.6783 720.0556,-30.3424 729.2729,-35.5665 730.5189,-28.6783"/>
</g>
<!-- Node36 -->
<g id="node37" class="node">
<title>Node36</title>
<polygon fill="none" stroke="#bfbfbf" points="738.5,-6 738.5,-25 927.5,-25 927.5,-6 738.5,-6"/>
<text text-anchor="middle" x="833" y="-13" font-family="Helvetica,sans-Serif" font-size="10.00" fill="#000000">Math/GenVector/PositionVector2D.h</text>
</g>
<!-- Node29&#45;&gt;Node36 -->
<g id="edge41" class="edge">
<title>Node29&#45;&gt;Node36</title>
<path fill="none" stroke="#191970" d="M955.3438,-67.3906C931.0826,-57.1005 892.3882,-40.6888 865.02,-29.0809"/>
<polygon fill="#191970" stroke="#191970" points="866.07,-25.7245 855.4972,-25.0419 863.3367,-32.1688 866.07,-25.7245"/>
</g>
<!-- Node37 -->
<g id="node38" class="node">
<title>Node37</title>
<polygon fill="none" stroke="#bfbfbf" points="946,-6 946,-25 1028,-25 1028,-6 946,-6"/>
<text text-anchor="middle" x="987" y="-13" font-family="Helvetica,sans-Serif" font-size="10.00" fill="#000000">TGeoMatrix.h</text>
</g>
<!-- Node29&#45;&gt;Node37 -->
<g id="edge43" class="edge">
<title>Node29&#45;&gt;Node37</title>
<path fill="none" stroke="#191970" d="M979.4063,-67.3906C980.6538,-58.8657 982.5162,-46.1392 984.0844,-35.4235"/>
<polygon fill="#191970" stroke="#191970" points="987.589,-35.6463 985.5739,-25.2449 980.6627,-34.6326 987.589,-35.6463"/>
</g>
<!-- Node38&#45;&gt;Node15 -->
<g id="edge47" class="edge">
<title>Node38&#45;&gt;Node15</title>
<path fill="none" stroke="#191970" d="M2403.631,-190.4294C2443.5609,-182.804 2497.9179,-170.6398 2544,-154 2545.4149,-153.4891 2546.8491,-152.9302 2548.2853,-152.3375"/>
<polygon fill="#191970" stroke="#191970" points="2549.9625,-155.4194 2557.61,-148.0868 2547.059,-149.05 2549.9625,-155.4194"/>
</g>
</g>
</svg>
