<?xml version="1.0" encoding="UTF-8" standalone="no"?>
<!DOCTYPE svg PUBLIC "-//W3C//DTD SVG 1.1//EN"
 "http://www.w3.org/Graphics/SVG/1.1/DTD/svg11.dtd">
<!-- Generated by graphviz version 2.40.1 (20161225.0304)
 -->
<!-- Title: /home/travis/build/AliceO2Group/AliceO2/Detectors/TPC/base/include/TPCBase/ParameterDetector.h Pages: 1 -->
<svg width="2098pt" height="262pt"
 viewBox="0.00 0.00 2098.00 262.00" xmlns="http://www.w3.org/2000/svg" xmlns:xlink="http://www.w3.org/1999/xlink">
<g id="graph0" class="graph" transform="scale(1 1) rotate(0) translate(4 258)">
<title>/home/travis/build/AliceO2Group/AliceO2/Detectors/TPC/base/include/TPCBase/ParameterDetector.h</title>
<!-- Node0 -->
<g id="node1" class="node">
<title>Node0</title>
<polygon fill="#bfbfbf" stroke="#000000" points="1402,-201.5 1402,-253.5 1568,-253.5 1568,-201.5 1402,-201.5"/>
<text text-anchor="start" x="1410" y="-241.5" font-family="Helvetica,sans-Serif" font-size="10.00" fill="#000000">/home/travis/build</text>
<text text-anchor="start" x="1410" y="-230.5" font-family="Helvetica,sans-Serif" font-size="10.00" fill="#000000">/AliceO2Group/AliceO2</text>
<text text-anchor="start" x="1410" y="-219.5" font-family="Helvetica,sans-Serif" font-size="10.00" fill="#000000">/Detectors/TPC/base/include</text>
<text text-anchor="middle" x="1485" y="-208.5" font-family="Helvetica,sans-Serif" font-size="10.00" fill="#000000">/TPCBase/ParameterDetector.h</text>
</g>
<!-- Node1 -->
<g id="node2" class="node">
<title>Node1</title>
<polygon fill="none" stroke="#bfbfbf" points="998,-140 998,-159 1040,-159 1040,-140 998,-140"/>
<text text-anchor="middle" x="1019" y="-147" font-family="Helvetica,sans-Serif" font-size="10.00" fill="#000000">array</text>
</g>
<!-- Node0&#45;&gt;Node1 -->
<g id="edge1" class="edge">
<title>Node0&#45;&gt;Node1</title>
<path fill="none" stroke="#191970" d="M1401.5975,-223.8119C1312.4562,-217.979 1167.8978,-203.0384 1049,-165 1047.5343,-164.5311 1046.0537,-163.9954 1044.5768,-163.4115"/>
<polygon fill="#191970" stroke="#191970" points="1045.6268,-160.0426 1035.078,-159.0566 1042.7095,-166.4057 1045.6268,-160.0426"/>
</g>
<!-- Node2 -->
<g id="node3" class="node">
<title>Node2</title>
<g id="a_node3"><a xlink:href="../../d1/d73/Defs_8h.html" target="_top" xlink:title="DataFormatsTPC/Defs.h">
<polygon fill="none" stroke="#000000" points="1058.5,-140 1058.5,-159 1191.5,-159 1191.5,-140 1058.5,-140"/>
<text text-anchor="middle" x="1125" y="-147" font-family="Helvetica,sans-Serif" font-size="10.00" fill="#000000">DataFormatsTPC/Defs.h</text>
</a>
</g>
</g>
<!-- Node0&#45;&gt;Node2 -->
<g id="edge2" class="edge">
<title>Node0&#45;&gt;Node2</title>
<path fill="none" stroke="#191970" d="M1401.9567,-209.5073C1333.4501,-194.6642 1238.2362,-174.0345 1179.1777,-161.2385"/>
<polygon fill="#191970" stroke="#191970" points="1179.8174,-157.796 1169.303,-159.099 1178.3351,-164.6372 1179.8174,-157.796"/>
</g>
<!-- Node16 -->
<g id="node17" class="node">
<title>Node16</title>
<g id="a_node17"><a xlink:href="../../db/d2c/ConfigurableParam_8h.html" target="_top" xlink:title="CommonUtils/Configurable\lParam.h">
<polygon fill="none" stroke="#000000" points="1675,-67.5 1675,-97.5 1823,-97.5 1823,-67.5 1675,-67.5"/>
<text text-anchor="start" x="1683" y="-85.5" font-family="Helvetica,sans-Serif" font-size="10.00" fill="#000000">CommonUtils/Configurable</text>
<text text-anchor="middle" x="1749" y="-74.5" font-family="Helvetica,sans-Serif" font-size="10.00" fill="#000000">Param.h</text>
</a>
</g>
</g>
<!-- Node0&#45;&gt;Node16 -->
<g id="edge16" class="edge">
<title>Node0&#45;&gt;Node16</title>
<path fill="none" stroke="#191970" d="M1532.5028,-201.4094C1584.2753,-172.9738 1665.9658,-128.1059 1712.796,-102.3848"/>
<polygon fill="#191970" stroke="#191970" points="1714.598,-105.3883 1721.6781,-97.5064 1711.2281,-99.2528 1714.598,-105.3883"/>
</g>
<!-- Node23 -->
<g id="node24" class="node">
<title>Node23</title>
<g id="a_node24"><a xlink:href="../../da/d6b/ConfigurableParamHelper_8h.html" target="_top" xlink:title="CommonUtils/Configurable\lParamHelper.h">
<polygon fill="none" stroke="#000000" points="1805,-134.5 1805,-164.5 1953,-164.5 1953,-134.5 1805,-134.5"/>
<text text-anchor="start" x="1813" y="-152.5" font-family="Helvetica,sans-Serif" font-size="10.00" fill="#000000">CommonUtils/Configurable</text>
<text text-anchor="middle" x="1879" y="-141.5" font-family="Helvetica,sans-Serif" font-size="10.00" fill="#000000">ParamHelper.h</text>
</a>
</g>
</g>
<!-- Node0&#45;&gt;Node23 -->
<g id="edge23" class="edge">
<title>Node0&#45;&gt;Node23</title>
<path fill="none" stroke="#191970" d="M1568.0758,-211.0535C1634.6476,-197.8743 1727.6645,-179.4598 1794.5871,-166.2112"/>
<polygon fill="#191970" stroke="#191970" points="1795.5502,-169.5885 1804.68,-164.2131 1794.1907,-162.7218 1795.5502,-169.5885"/>
</g>
<!-- Node3 -->
<g id="node4" class="node">
<title>Node3</title>
<polygon fill="none" stroke="#bfbfbf" points="840.5,-73 840.5,-92 887.5,-92 887.5,-73 840.5,-73"/>
<text text-anchor="middle" x="864" y="-80" font-family="Helvetica,sans-Serif" font-size="10.00" fill="#000000">cmath</text>
</g>
<!-- Node2&#45;&gt;Node3 -->
<g id="edge3" class="edge">
<title>Node2&#45;&gt;Node3</title>
<path fill="none" stroke="#191970" d="M1080.4461,-139.9806C1019.0958,-126.789 914.2002,-103.9036 897,-98 895.3536,-97.4349 893.6802,-96.8124 892.0044,-96.1512"/>
<polygon fill="#191970" stroke="#191970" points="893.1233,-92.8221 882.5549,-92.074 890.3501,-99.2494 893.1233,-92.8221"/>
</g>
<!-- Node4 -->
<g id="node5" class="node">
<title>Node4</title>
<g id="a_node5"><a xlink:href="../../d1/da8/GPUROOTCartesianFwd_8h.html" target="_top" xlink:title="GPUROOTCartesianFwd.h">
<polygon fill="none" stroke="#000000" points="906,-73 906,-92 1046,-92 1046,-73 906,-73"/>
<text text-anchor="middle" x="976" y="-80" font-family="Helvetica,sans-Serif" font-size="10.00" fill="#000000">GPUROOTCartesianFwd.h</text>
</a>
</g>
</g>
<!-- Node2&#45;&gt;Node4 -->
<g id="edge4" class="edge">
<title>Node2&#45;&gt;Node4</title>
<path fill="none" stroke="#191970" d="M1103.6519,-139.9005C1078.2038,-128.4574 1035.4909,-109.2509 1006.5503,-96.2374"/>
<polygon fill="#191970" stroke="#191970" points="1007.8642,-92.9907 997.3085,-92.0817 1004.9934,-99.3749 1007.8642,-92.9907"/>
</g>
<!-- Node5 -->
<g id="node6" class="node">
<title>Node5</title>
<g id="a_node6"><a xlink:href="../../dc/d73/Cartesian_8h.html" target="_top" xlink:title="MathUtils/Cartesian.h">
<polygon fill="none" stroke="#000000" points="1064,-73 1064,-92 1186,-92 1186,-73 1064,-73"/>
<text text-anchor="middle" x="1125" y="-80" font-family="Helvetica,sans-Serif" font-size="10.00" fill="#000000">MathUtils/Cartesian.h</text>
</a>
</g>
</g>
<!-- Node2&#45;&gt;Node5 -->
<g id="edge5" class="edge">
<title>Node2&#45;&gt;Node5</title>
<path fill="none" stroke="#191970" d="M1125,-139.9005C1125,-130.149 1125,-114.7597 1125,-102.3695"/>
<polygon fill="#191970" stroke="#191970" points="1128.5001,-102.0816 1125,-92.0817 1121.5001,-102.0817 1128.5001,-102.0816"/>
</g>
<!-- Node6 -->
<g id="node7" class="node">
<title>Node6</title>
<polygon fill="none" stroke="#bfbfbf" points="0,-.5 0,-30.5 164,-30.5 164,-.5 0,-.5"/>
<text text-anchor="start" x="8" y="-18.5" font-family="Helvetica,sans-Serif" font-size="10.00" fill="#000000">Math/GenVector/Displacement</text>
<text text-anchor="middle" x="82" y="-7.5" font-family="Helvetica,sans-Serif" font-size="10.00" fill="#000000">Vector3D.h</text>
</g>
<!-- Node5&#45;&gt;Node6 -->
<g id="edge6" class="edge">
<title>Node5&#45;&gt;Node6</title>
<path fill="none" stroke="#191970" d="M1087.7985,-72.98C1077.2628,-70.6344 1065.7385,-68.3969 1055,-67 669.2757,-16.8252 564.9532,-71.079 174.4359,-31.0548"/>
<polygon fill="#191970" stroke="#191970" points="174.5829,-27.5513 164.2747,-29.9988 173.8593,-34.5138 174.5829,-27.5513"/>
</g>
<!-- Node7 -->
<g id="node8" class="node">
<title>Node7</title>
<polygon fill="none" stroke="#bfbfbf" points="182.5,-6 182.5,-25 371.5,-25 371.5,-6 182.5,-6"/>
<text text-anchor="middle" x="277" y="-13" font-family="Helvetica,sans-Serif" font-size="10.00" fill="#000000">Math/GenVector/PositionVector3D.h</text>
</g>
<!-- Node5&#45;&gt;Node7 -->
<g id="edge7" class="edge">
<title>Node5&#45;&gt;Node7</title>
<path fill="none" stroke="#191970" d="M1087.423,-72.9874C1076.9862,-70.6717 1065.6062,-68.4475 1055,-67 757.7727,-26.4359 679.4642,-61.144 381,-31 369.0808,-29.7962 356.4383,-28.191 344.2265,-26.4693"/>
<polygon fill="#191970" stroke="#191970" points="344.4937,-22.9716 334.0952,-25.002 343.4902,-29.8993 344.4937,-22.9716"/>
</g>
<!-- Node8 -->
<g id="node9" class="node">
<title>Node8</title>
<polygon fill="none" stroke="#bfbfbf" points="390,-6 390,-25 550,-25 550,-6 390,-6"/>
<text text-anchor="middle" x="470" y="-13" font-family="Helvetica,sans-Serif" font-size="10.00" fill="#000000">Math/GenVector/Rotation3D.h</text>
</g>
<!-- Node5&#45;&gt;Node8 -->
<g id="edge8" class="edge">
<title>Node5&#45;&gt;Node8</title>
<path fill="none" stroke="#191970" d="M1086.6745,-72.9598C1076.4385,-70.7014 1065.3456,-68.5126 1055,-67 836.301,-35.0236 778.3696,-57.9948 559,-31 549.5263,-29.8342 539.527,-28.3467 529.7875,-26.7563"/>
<polygon fill="#191970" stroke="#191970" points="530.2068,-23.2778 519.7648,-25.0709 529.046,-30.1809 530.2068,-23.2778"/>
</g>
<!-- Node9 -->
<g id="node10" class="node">
<title>Node9</title>
<polygon fill="none" stroke="#bfbfbf" points="568,-6 568,-25 736,-25 736,-6 568,-6"/>
<text text-anchor="middle" x="652" y="-13" font-family="Helvetica,sans-Serif" font-size="10.00" fill="#000000">Math/GenVector/Transform3D.h</text>
</g>
<!-- Node5&#45;&gt;Node9 -->
<g id="edge9" class="edge">
<title>Node5&#45;&gt;Node9</title>
<path fill="none" stroke="#191970" d="M1085.1592,-72.9387C1075.3379,-70.7864 1064.8196,-68.6529 1055,-67 918.2205,-43.9766 882.3393,-50.4073 745,-31 735.7377,-29.6911 725.9761,-28.1942 716.3998,-26.6584"/>
<polygon fill="#191970" stroke="#191970" points="716.9484,-23.2017 706.516,-25.0502 715.824,-30.1109 716.9484,-23.2017"/>
</g>
<!-- Node10 -->
<g id="node11" class="node">
<title>Node10</title>
<polygon fill="none" stroke="#bfbfbf" points="754.5,-6 754.5,-25 927.5,-25 927.5,-6 754.5,-6"/>
<text text-anchor="middle" x="841" y="-13" font-family="Helvetica,sans-Serif" font-size="10.00" fill="#000000">Math/GenVector/Translation3D.h</text>
</g>
<!-- Node5&#45;&gt;Node10 -->
<g id="edge10" class="edge">
<title>Node5&#45;&gt;Node10</title>
<path fill="none" stroke="#191970" d="M1084.6113,-72.9717C1033.8648,-60.9998 946.76,-40.4504 891.6175,-27.4415"/>
<polygon fill="#191970" stroke="#191970" points="892.2456,-23.9936 881.7092,-25.1039 890.6383,-30.8066 892.2456,-23.9936"/>
</g>
<!-- Node11 -->
<g id="node12" class="node">
<title>Node11</title>
<polygon fill="none" stroke="#bfbfbf" points="946,-.5 946,-30.5 1110,-30.5 1110,-.5 946,-.5"/>
<text text-anchor="start" x="954" y="-18.5" font-family="Helvetica,sans-Serif" font-size="10.00" fill="#000000">Math/GenVector/Displacement</text>
<text text-anchor="middle" x="1028" y="-7.5" font-family="Helvetica,sans-Serif" font-size="10.00" fill="#000000">Vector2D.h</text>
</g>
<!-- Node5&#45;&gt;Node11 -->
<g id="edge11" class="edge">
<title>Node5&#45;&gt;Node11</title>
<path fill="none" stroke="#191970" d="M1111.1023,-72.9005C1097.3265,-63.3853 1075.7795,-48.5023 1058.0779,-36.2755"/>
<polygon fill="#191970" stroke="#191970" points="1059.9651,-33.3253 1049.7479,-30.5218 1055.9868,-39.0849 1059.9651,-33.3253"/>
</g>
<!-- Node12 -->
<g id="node13" class="node">
<title>Node12</title>
<polygon fill="none" stroke="#bfbfbf" points="1128.5,-6 1128.5,-25 1317.5,-25 1317.5,-6 1128.5,-6"/>
<text text-anchor="middle" x="1223" y="-13" font-family="Helvetica,sans-Serif" font-size="10.00" fill="#000000">Math/GenVector/PositionVector2D.h</text>
</g>
<!-- Node5&#45;&gt;Node12 -->
<g id="edge12" class="edge">
<title>Node5&#45;&gt;Node12</title>
<path fill="none" stroke="#191970" d="M1139.041,-72.9005C1155.1238,-61.9052 1181.6906,-43.7422 1200.6316,-30.7927"/>
<polygon fill="#191970" stroke="#191970" points="1202.7052,-33.6148 1208.985,-25.0817 1198.7545,-27.8362 1202.7052,-33.6148"/>
</g>
<!-- Node13 -->
<g id="node14" class="node">
<title>Node13</title>
<polygon fill="none" stroke="#bfbfbf" points="1335.5,-6 1335.5,-25 1394.5,-25 1394.5,-6 1335.5,-6"/>
<text text-anchor="middle" x="1365" y="-13" font-family="Helvetica,sans-Serif" font-size="10.00" fill="#000000">Rtypes.h</text>
</g>
<!-- Node5&#45;&gt;Node13 -->
<g id="edge13" class="edge">
<title>Node5&#45;&gt;Node13</title>
<path fill="none" stroke="#191970" d="M1168.9823,-72.9338C1210.0156,-63.6091 1272.7327,-48.3311 1326,-31 1328.2799,-30.2582 1330.6181,-29.451 1332.9618,-28.6075"/>
<polygon fill="#191970" stroke="#191970" points="1334.3737,-31.8157 1342.4935,-25.0098 1331.9018,-25.2666 1334.3737,-31.8157"/>
</g>
<!-- Node14 -->
<g id="node15" class="node">
<title>Node14</title>
<polygon fill="none" stroke="#bfbfbf" points="1413,-6 1413,-25 1495,-25 1495,-6 1413,-6"/>
<text text-anchor="middle" x="1454" y="-13" font-family="Helvetica,sans-Serif" font-size="10.00" fill="#000000">TGeoMatrix.h</text>
</g>
<!-- Node5&#45;&gt;Node14 -->
<g id="edge14" class="edge">
<title>Node5&#45;&gt;Node14</title>
<path fill="none" stroke="#191970" d="M1186.1551,-73.191C1242.762,-64.0979 1329.0828,-49.0193 1403,-31 1406.8351,-30.0651 1410.8082,-29.0114 1414.7667,-27.9044"/>
<polygon fill="#191970" stroke="#191970" points="1415.8628,-31.2308 1424.4898,-25.0805 1413.9104,-24.5086 1415.8628,-31.2308"/>
</g>
<!-- Node15 -->
<g id="node16" class="node">
<title>Node15</title>
<polygon fill="none" stroke="#bfbfbf" points="1513.5,-6 1513.5,-25 1562.5,-25 1562.5,-6 1513.5,-6"/>
<text text-anchor="middle" x="1538" y="-13" font-family="Helvetica,sans-Serif" font-size="10.00" fill="#000000">iosfwd</text>
</g>
<!-- Node5&#45;&gt;Node15 -->
<g id="edge15" class="edge">
<title>Node5&#45;&gt;Node15</title>
<path fill="none" stroke="#191970" d="M1186.1916,-79.6871C1262.0712,-74.954 1394.7569,-62.5785 1504,-31 1505.9631,-30.4325 1507.9579,-29.77 1509.9468,-29.0445"/>
<polygon fill="#191970" stroke="#191970" points="1511.756,-32.0846 1519.669,-25.0394 1509.0897,-25.6123 1511.756,-32.0846"/>
</g>
<!-- Node17 -->
<g id="node18" class="node">
<title>Node17</title>
<polygon fill="none" stroke="#bfbfbf" points="1580.5,-6 1580.5,-25 1627.5,-25 1627.5,-6 1580.5,-6"/>
<text text-anchor="middle" x="1604" y="-13" font-family="Helvetica,sans-Serif" font-size="10.00" fill="#000000">vector</text>
</g>
<!-- Node16&#45;&gt;Node17 -->
<g id="edge17" class="edge">
<title>Node16&#45;&gt;Node17</title>
<path fill="none" stroke="#191970" d="M1716.1325,-67.4718C1693.7953,-57.2375 1663.5889,-43.3572 1637,-31 1635.8376,-30.4598 1634.6527,-29.9081 1633.456,-29.35"/>
<polygon fill="#191970" stroke="#191970" points="1634.7731,-26.1022 1624.2322,-25.0347 1631.8067,-32.4426 1634.7731,-26.1022"/>
</g>
<!-- Node18 -->
<g id="node19" class="node">
<title>Node18</title>
<polygon fill="none" stroke="#bfbfbf" points="1646,-6 1646,-25 1684,-25 1684,-6 1646,-6"/>
<text text-anchor="middle" x="1665" y="-13" font-family="Helvetica,sans-Serif" font-size="10.00" fill="#000000">map</text>
</g>
<!-- Node16&#45;&gt;Node18 -->
<g id="edge18" class="edge">
<title>Node16&#45;&gt;Node18</title>
<path fill="none" stroke="#191970" d="M1729.9391,-67.2967C1716.4703,-56.5537 1698.4615,-42.1895 1684.8252,-31.3129"/>
<polygon fill="#191970" stroke="#191970" points="1686.9796,-28.5544 1676.9794,-25.055 1682.6147,-34.0268 1686.9796,-28.5544"/>
</g>
<!-- Node19 -->
<g id="node20" class="node">
<title>Node19</title>
<polygon fill="none" stroke="#bfbfbf" points="1702.5,-6 1702.5,-25 1795.5,-25 1795.5,-6 1702.5,-6"/>
<text text-anchor="middle" x="1749" y="-13" font-family="Helvetica,sans-Serif" font-size="10.00" fill="#000000">unordered_map</text>
</g>
<!-- Node16&#45;&gt;Node19 -->
<g id="edge19" class="edge">
<title>Node16&#45;&gt;Node19</title>
<path fill="none" stroke="#191970" d="M1749,-67.2967C1749,-57.7699 1749,-45.3954 1749,-35.1306"/>
<polygon fill="#191970" stroke="#191970" points="1752.5001,-35.0549 1749,-25.055 1745.5001,-35.055 1752.5001,-35.0549"/>
</g>
<!-- Node20 -->
<g id="node21" class="node">
<title>Node20</title>
<polygon fill="none" stroke="#bfbfbf" points="1813.5,-.5 1813.5,-30.5 1926.5,-30.5 1926.5,-.5 1813.5,-.5"/>
<text text-anchor="start" x="1821.5" y="-18.5" font-family="Helvetica,sans-Serif" font-size="10.00" fill="#000000">boost/property_tree</text>
<text text-anchor="middle" x="1870" y="-7.5" font-family="Helvetica,sans-Serif" font-size="10.00" fill="#000000">/ptree.hpp</text>
</g>
<!-- Node16&#45;&gt;Node20 -->
<g id="edge20" class="edge">
<title>Node16&#45;&gt;Node20</title>
<path fill="none" stroke="#191970" d="M1776.1548,-67.4639C1793.0831,-58.0903 1815.0767,-45.9121 1833.5168,-35.7015"/>
<polygon fill="#191970" stroke="#191970" points="1835.4643,-38.6239 1842.5172,-30.7177 1832.0734,-32.5 1835.4643,-38.6239"/>
</g>
<!-- Node21 -->
<g id="node22" class="node">
<title>Node21</title>
<polygon fill="none" stroke="#bfbfbf" points="2023.5,-6 2023.5,-25 2080.5,-25 2080.5,-6 2023.5,-6"/>
<text text-anchor="middle" x="2052" y="-13" font-family="Helvetica,sans-Serif" font-size="10.00" fill="#000000">typeinfo</text>
</g>
<!-- Node16&#45;&gt;Node21 -->
<g id="edge21" class="edge">
<title>Node16&#45;&gt;Node21</title>
<path fill="none" stroke="#191970" d="M1823.2577,-68.8373C1895.1458,-55.4859 1995.8653,-36.4041 2014,-31 2016.3045,-30.3133 2018.6619,-29.5382 2021.0181,-28.71"/>
<polygon fill="#191970" stroke="#191970" points="2022.4469,-31.9116 2030.5592,-25.0968 2019.9678,-25.3652 2022.4469,-31.9116"/>
</g>
<!-- Node22 -->
<g id="node23" class="node">
<title>Node22</title>
<polygon fill="none" stroke="#bfbfbf" points="1945,-6 1945,-25 2005,-25 2005,-6 1945,-6"/>
<text text-anchor="middle" x="1975" y="-13" font-family="Helvetica,sans-Serif" font-size="10.00" fill="#000000">iostream</text>
</g>
<!-- Node16&#45;&gt;Node22 -->
<g id="edge22" class="edge">
<title>Node16&#45;&gt;Node22</title>
<path fill="none" stroke="#191970" d="M1810.1451,-67.4673C1846.921,-57.9796 1894.4948,-44.9165 1936,-31 1938.1328,-30.2849 1940.3185,-29.5168 1942.5132,-28.7189"/>
<polygon fill="#191970" stroke="#191970" points="1943.9468,-31.9186 1952.0576,-25.102 1941.4662,-25.3728 1943.9468,-31.9186"/>
</g>
<!-- Node23&#45;&gt;Node16 -->
<g id="edge24" class="edge">
<title>Node23&#45;&gt;Node16</title>
<path fill="none" stroke="#191970" d="M1849.8255,-134.4639C1831.4719,-125.0047 1807.5765,-112.6894 1787.655,-102.4222"/>
<polygon fill="#191970" stroke="#191970" points="1789.0193,-99.1879 1778.527,-97.7177 1785.8124,-105.4101 1789.0193,-99.1879"/>
</g>
<!-- Node23&#45;&gt;Node21 -->
<g id="edge27" class="edge">
<title>Node23&#45;&gt;Node21</title>
<path fill="none" stroke="#191970" d="M1871.532,-134.3603C1863.8413,-116.3519 1854.9265,-86.3058 1870,-67 1910.5986,-15.0023 1951.2995,-51.5097 2014,-31 2016.1458,-30.2981 2018.3427,-29.5325 2020.545,-28.7296"/>
<polygon fill="#191970" stroke="#191970" points="2022.0191,-31.9126 2030.0944,-25.0541 2019.5046,-25.3798 2022.0191,-31.9126"/>
</g>
<!-- Node24 -->
<g id="node25" class="node">
<title>Node24</title>
<polygon fill="none" stroke="#bfbfbf" points="1879.5,-73 1879.5,-92 1936.5,-92 1936.5,-73 1879.5,-73"/>
<text text-anchor="middle" x="1908" y="-80" font-family="Helvetica,sans-Serif" font-size="10.00" fill="#000000">TClass.h</text>
</g>
<!-- Node23&#45;&gt;Node24 -->
<g id="edge25" class="edge">
<title>Node23&#45;&gt;Node24</title>
<path fill="none" stroke="#191970" d="M1885.5805,-134.2967C1889.7918,-124.5672 1895.2887,-111.8675 1899.7855,-101.4784"/>
<polygon fill="#191970" stroke="#191970" points="1903.104,-102.6225 1903.8643,-92.055 1896.6799,-99.8419 1903.104,-102.6225"/>
</g>
<!-- Node25 -->
<g id="node26" class="node">
<title>Node25</title>
<polygon fill="none" stroke="#bfbfbf" points="1954.5,-73 1954.5,-92 2023.5,-92 2023.5,-73 1954.5,-73"/>
<text text-anchor="middle" x="1989" y="-80" font-family="Helvetica,sans-Serif" font-size="10.00" fill="#000000">type_traits</text>
</g>
<!-- Node23&#45;&gt;Node25 -->
<g id="edge26" class="edge">
<title>Node23&#45;&gt;Node25</title>
<path fill="none" stroke="#191970" d="M1903.6861,-134.4639C1921.8102,-123.4247 1946.3209,-108.4954 1964.42,-97.4715"/>
<polygon fill="#191970" stroke="#191970" points="1966.5126,-100.2951 1973.2324,-92.1039 1962.8712,-94.3167 1966.5126,-100.2951"/>
</g>
<!-- Node26 -->
<g id="node27" class="node">
<title>Node26</title>
<polygon fill="none" stroke="#bfbfbf" points="2042,-73 2042,-92 2090,-92 2090,-73 2042,-73"/>
<text text-anchor="middle" x="2066" y="-80" font-family="Helvetica,sans-Serif" font-size="10.00" fill="#000000">TFile.h</text>
</g>
<!-- Node23&#45;&gt;Node26 -->
<g id="edge28" class="edge">
<title>Node23&#45;&gt;Node26</title>
<path fill="none" stroke="#191970" d="M1928.7718,-134.4755C1959.1939,-124.8937 1998.7162,-111.7299 2033,-98 2034.3955,-97.4411 2035.8162,-96.8525 2037.2452,-96.2445"/>
<polygon fill="#191970" stroke="#191970" points="2038.9161,-99.3317 2046.6218,-92.0603 2036.0635,-92.9392 2038.9161,-99.3317"/>
</g>
</g>
</svg>
