<?xml version="1.0" encoding="UTF-8" standalone="no"?>
<!DOCTYPE svg PUBLIC "-//W3C//DTD SVG 1.1//EN"
 "http://www.w3.org/Graphics/SVG/1.1/DTD/svg11.dtd">
<!-- Generated by graphviz version 2.40.1 (20161225.0304)
 -->
<!-- Title: /home/travis/build/AliceO2Group/AliceO2/Detectors/MUON/MID/Simulation/include/MIDSimulation/Digitizer.h Pages: 1 -->
<svg width="2588pt" height="318pt"
 viewBox="0.00 0.00 2588.00 318.00" xmlns="http://www.w3.org/2000/svg" xmlns:xlink="http://www.w3.org/1999/xlink">
<g id="graph0" class="graph" transform="scale(1 1) rotate(0) translate(4 314)">
<title>/home/travis/build/AliceO2Group/AliceO2/Detectors/MUON/MID/Simulation/include/MIDSimulation/Digitizer.h</title>
<!-- Node0 -->
<g id="node1" class="node">
<title>Node0</title>
<polygon fill="#bfbfbf" stroke="#000000" points="966,-257.5 966,-309.5 1148,-309.5 1148,-257.5 966,-257.5"/>
<text text-anchor="start" x="974" y="-297.5" font-family="Helvetica,sans-Serif" font-size="10.00" fill="#000000">/home/travis/build</text>
<text text-anchor="start" x="974" y="-286.5" font-family="Helvetica,sans-Serif" font-size="10.00" fill="#000000">/AliceO2Group/AliceO2</text>
<text text-anchor="start" x="974" y="-275.5" font-family="Helvetica,sans-Serif" font-size="10.00" fill="#000000">/Detectors/MUON/MID/Simulation</text>
<text text-anchor="middle" x="1057" y="-264.5" font-family="Helvetica,sans-Serif" font-size="10.00" fill="#000000">/include/MIDSimulation/Digitizer.h</text>
</g>
<!-- Node1 -->
<g id="node2" class="node">
<title>Node1</title>
<polygon fill="none" stroke="#bfbfbf" points="0,-129 0,-148 54,-148 54,-129 0,-129"/>
<text text-anchor="middle" x="27" y="-136" font-family="Helvetica,sans-Serif" font-size="10.00" fill="#000000">random</text>
</g>
<!-- Node0&#45;&gt;Node1 -->
<g id="edge1" class="edge">
<title>Node0&#45;&gt;Node1</title>
<path fill="none" stroke="#191970" d="M965.9634,-280.8339C723.7782,-273.3502 79.6806,-250.7385 45,-221 27.2316,-205.7636 24.6253,-177.4413 25.1799,-158.2829"/>
<polygon fill="#191970" stroke="#191970" points="28.6778,-158.421 25.781,-148.2299 21.6903,-158.0031 28.6778,-158.421"/>
</g>
<!-- Node2 -->
<g id="node3" class="node">
<title>Node2</title>
<polygon fill="none" stroke="#bfbfbf" points="1169.5,-67.5 1169.5,-86.5 1216.5,-86.5 1216.5,-67.5 1169.5,-67.5"/>
<text text-anchor="middle" x="1193" y="-74.5" font-family="Helvetica,sans-Serif" font-size="10.00" fill="#000000">vector</text>
</g>
<!-- Node0&#45;&gt;Node2 -->
<g id="edge2" class="edge">
<title>Node0&#45;&gt;Node2</title>
<path fill="none" stroke="#191970" d="M1088.0171,-257.3607C1114.7073,-233.2004 1152.251,-194.94 1174,-154 1183.5644,-135.9961 1188.421,-113.0606 1190.8161,-96.9207"/>
<polygon fill="#191970" stroke="#191970" points="1194.3474,-96.9029 1192.1572,-86.537 1187.405,-96.0063 1194.3474,-96.9029"/>
</g>
<!-- Node3 -->
<g id="node4" class="node">
<title>Node3</title>
<polygon fill="none" stroke="#bfbfbf" points="368,-6 368,-25 410,-25 410,-6 368,-6"/>
<text text-anchor="middle" x="389" y="-13" font-family="Helvetica,sans-Serif" font-size="10.00" fill="#000000">array</text>
</g>
<!-- Node0&#45;&gt;Node3 -->
<g id="edge3" class="edge">
<title>Node0&#45;&gt;Node3</title>
<path fill="none" stroke="#191970" d="M965.9794,-274.9788C770.5748,-255.7527 325.0652,-206.562 282,-154 245.76,-109.7683 320.625,-55.7219 362.8278,-30.1939"/>
<polygon fill="#191970" stroke="#191970" points="364.7042,-33.1505 371.5333,-25.0503 361.1434,-27.1238 364.7042,-33.1505"/>
</g>
<!-- Node4 -->
<g id="node5" class="node">
<title>Node4</title>
<g id="a_node5"><a xlink:href="../../dc/d73/Cartesian_8h.html" target="_top" xlink:title="MathUtils/Cartesian.h">
<polygon fill="none" stroke="#000000" points="1237,-67.5 1237,-86.5 1359,-86.5 1359,-67.5 1237,-67.5"/>
<text text-anchor="middle" x="1298" y="-74.5" font-family="Helvetica,sans-Serif" font-size="10.00" fill="#000000">MathUtils/Cartesian.h</text>
</a>
</g>
</g>
<!-- Node0&#45;&gt;Node4 -->
<g id="edge4" class="edge">
<title>Node0&#45;&gt;Node4</title>
<path fill="none" stroke="#191970" d="M1099.8453,-257.44C1116.3269,-246.7977 1135.013,-233.9555 1151,-221 1199.3467,-181.821 1206.5414,-166.5411 1251,-123 1260.9683,-113.2375 1272.1295,-102.3134 1281.0734,-93.5613"/>
<polygon fill="#191970" stroke="#191970" points="1283.5769,-96.0084 1288.2766,-86.5129 1278.6812,-91.0051 1283.5769,-96.0084"/>
</g>
<!-- Node15 -->
<g id="node16" class="node">
<title>Node15</title>
<g id="a_node16"><a xlink:href="../../db/d14/MCTruthContainer_8h.html" target="_top" xlink:title="Definition of a container to keep Monte Carlo truth external to simulation objects. ">
<polygon fill="none" stroke="#000000" points="1549.5,-123.5 1549.5,-153.5 1676.5,-153.5 1676.5,-123.5 1549.5,-123.5"/>
<text text-anchor="start" x="1557.5" y="-141.5" font-family="Helvetica,sans-Serif" font-size="10.00" fill="#000000">SimulationDataFormat</text>
<text text-anchor="middle" x="1613" y="-130.5" font-family="Helvetica,sans-Serif" font-size="10.00" fill="#000000">/MCTruthContainer.h</text>
</a>
</g>
</g>
<!-- Node0&#45;&gt;Node15 -->
<g id="edge15" class="edge">
<title>Node0&#45;&gt;Node15</title>
<path fill="none" stroke="#191970" d="M1148.315,-274.3262C1253.6563,-262.9826 1419.9382,-242.5224 1479,-221 1518.8962,-206.4616 1559.7428,-179.1653 1585.6789,-159.9622"/>
<polygon fill="#191970" stroke="#191970" points="1587.9945,-162.6 1593.88,-153.7903 1583.7853,-157.0069 1587.9945,-162.6"/>
</g>
<!-- Node24 -->
<g id="node25" class="node">
<title>Node24</title>
<g id="a_node25"><a xlink:href="../../d2/d0e/Mapping_8h.html" target="_top" xlink:title="Mapping for MID. ">
<polygon fill="none" stroke="#000000" points="855.5,-129 855.5,-148 968.5,-148 968.5,-129 855.5,-129"/>
<text text-anchor="middle" x="912" y="-136" font-family="Helvetica,sans-Serif" font-size="10.00" fill="#000000">MIDBase/Mapping.h</text>
</a>
</g>
</g>
<!-- Node0&#45;&gt;Node24 -->
<g id="edge26" class="edge">
<title>Node0&#45;&gt;Node24</title>
<path fill="none" stroke="#191970" d="M1051.7904,-257.2933C1046.5467,-236.8166 1036.6347,-208.7739 1019,-190 1002.1086,-172.0175 977.6273,-159.5933 956.3433,-151.4605"/>
<polygon fill="#191970" stroke="#191970" points="957.4222,-148.1289 946.8279,-148.0212 955.0427,-154.7121 957.4222,-148.1289"/>
</g>
<!-- Node26 -->
<g id="node27" class="node">
<title>Node26</title>
<g id="a_node27"><a xlink:href="../../de/d0c/GeometryTransformer_8h.html" target="_top" xlink:title="Geometry transformer for MID. ">
<polygon fill="none" stroke="#000000" points="987,-129 987,-148 1165,-148 1165,-129 987,-129"/>
<text text-anchor="middle" x="1076" y="-136" font-family="Helvetica,sans-Serif" font-size="10.00" fill="#000000">MIDBase/GeometryTransformer.h</text>
</a>
</g>
</g>
<!-- Node0&#45;&gt;Node26 -->
<g id="edge31" class="edge">
<title>Node0&#45;&gt;Node26</title>
<path fill="none" stroke="#191970" d="M1060.4408,-257.2416C1064.1855,-228.663 1070.0862,-183.6317 1073.442,-158.0218"/>
<polygon fill="#191970" stroke="#191970" points="1076.9204,-158.4145 1074.7493,-148.0445 1069.9797,-157.505 1076.9204,-158.4145"/>
</g>
<!-- Node29 -->
<g id="node30" class="node">
<title>Node29</title>
<g id="a_node30"><a xlink:href="../../d5/d62/ChamberResponse_8h.html" target="_top" xlink:title="MID RPC response. ">
<polygon fill="none" stroke="#000000" points="624.5,-196 624.5,-215 815.5,-215 815.5,-196 624.5,-196"/>
<text text-anchor="middle" x="720" y="-203" font-family="Helvetica,sans-Serif" font-size="10.00" fill="#000000">MIDSimulation/ChamberResponse.h</text>
</a>
</g>
</g>
<!-- Node0&#45;&gt;Node29 -->
<g id="edge37" class="edge">
<title>Node0&#45;&gt;Node29</title>
<path fill="none" stroke="#191970" d="M965.8029,-262.3921C903.3036,-247.9264 822.6888,-229.2677 771.1564,-217.3404"/>
<polygon fill="#191970" stroke="#191970" points="771.7834,-213.893 761.2517,-215.0479 770.2049,-220.7127 771.7834,-213.893"/>
</g>
<!-- Node32 -->
<g id="node33" class="node">
<title>Node32</title>
<g id="a_node33"><a xlink:href="../../de/d74/ChamberEfficiencyResponse_8h.html" target="_top" xlink:title="MID RPC effciency response. ">
<polygon fill="none" stroke="#000000" points="54,-190.5 54,-220.5 236,-220.5 236,-190.5 54,-190.5"/>
<text text-anchor="start" x="62" y="-208.5" font-family="Helvetica,sans-Serif" font-size="10.00" fill="#000000">MIDSimulation/ChamberEfficiency</text>
<text text-anchor="middle" x="145" y="-197.5" font-family="Helvetica,sans-Serif" font-size="10.00" fill="#000000">Response.h</text>
</a>
</g>
</g>
<!-- Node0&#45;&gt;Node32 -->
<g id="edge43" class="edge">
<title>Node0&#45;&gt;Node32</title>
<path fill="none" stroke="#191970" d="M965.7349,-278.4975C815.9828,-269.8257 508.8658,-250.0956 250,-221 248.7125,-220.8553 247.4165,-220.7068 246.1134,-220.5549"/>
<polygon fill="#191970" stroke="#191970" points="246.3582,-217.0591 236.0093,-219.3286 245.5147,-224.0081 246.3582,-217.0591"/>
</g>
<!-- Node35 -->
<g id="node36" class="node">
<title>Node35</title>
<g id="a_node36"><a xlink:href="../../d7/d8d/Detectors_2MUON_2MID_2Simulation_2include_2MIDSimulation_2Hit_8h.html" target="_top" xlink:title="Hit for MID. ">
<polygon fill="none" stroke="#000000" points="1624,-196 1624,-215 1738,-215 1738,-196 1624,-196"/>
<text text-anchor="middle" x="1681" y="-203" font-family="Helvetica,sans-Serif" font-size="10.00" fill="#000000">MIDSimulation/Hit.h</text>
</a>
</g>
</g>
<!-- Node0&#45;&gt;Node35 -->
<g id="edge49" class="edge">
<title>Node0&#45;&gt;Node35</title>
<path fill="none" stroke="#191970" d="M1148.1556,-272.82C1250.5903,-260.7144 1421.8157,-240.1668 1569,-221 1583.4713,-219.1155 1598.9831,-217.0183 1613.7106,-214.991"/>
<polygon fill="#191970" stroke="#191970" points="1614.3322,-218.4384 1623.7588,-213.602 1613.3737,-211.5043 1614.3322,-218.4384"/>
</g>
<!-- Node45 -->
<g id="node46" class="node">
<title>Node45</title>
<g id="a_node46"><a xlink:href="../../d0/d00/ColumnDataMC_8h.html" target="_top" xlink:title="Strip pattern (aka digits) for simulations. ">
<polygon fill="none" stroke="#000000" points="834,-196 834,-215 1010,-215 1010,-196 834,-196"/>
<text text-anchor="middle" x="922" y="-203" font-family="Helvetica,sans-Serif" font-size="10.00" fill="#000000">MIDSimulation/ColumnDataMC.h</text>
</a>
</g>
</g>
<!-- Node0&#45;&gt;Node45 -->
<g id="edge61" class="edge">
<title>Node0&#45;&gt;Node45</title>
<path fill="none" stroke="#191970" d="M1011.6714,-257.3101C990.2762,-244.9485 965.5379,-230.6552 947.4713,-220.2167"/>
<polygon fill="#191970" stroke="#191970" points="949.0945,-217.1124 938.6848,-215.1401 945.5925,-223.1735 949.0945,-217.1124"/>
</g>
<!-- Node48 -->
<g id="node49" class="node">
<title>Node48</title>
<g id="a_node49"><a xlink:href="../../de/da1/Detectors_2MUON_2MID_2Simulation_2include_2MIDSimulation_2MCLabel_8h.html" target="_top" xlink:title="Label for MID. ">
<polygon fill="none" stroke="#000000" points="1328.5,-196 1328.5,-215 1469.5,-215 1469.5,-196 1328.5,-196"/>
<text text-anchor="middle" x="1399" y="-203" font-family="Helvetica,sans-Serif" font-size="10.00" fill="#000000">MIDSimulation/MCLabel.h</text>
</a>
</g>
</g>
<!-- Node0&#45;&gt;Node48 -->
<g id="edge66" class="edge">
<title>Node0&#45;&gt;Node48</title>
<path fill="none" stroke="#191970" d="M1148.2005,-262.6999C1211.9625,-248.1577 1294.8062,-229.2635 1347.4573,-217.2553"/>
<polygon fill="#191970" stroke="#191970" points="1348.2765,-220.6585 1357.2479,-215.0224 1346.7199,-213.8337 1348.2765,-220.6585"/>
</g>
<!-- Node5 -->
<g id="node6" class="node">
<title>Node5</title>
<polygon fill="none" stroke="#bfbfbf" points="1426,-.5 1426,-30.5 1590,-30.5 1590,-.5 1426,-.5"/>
<text text-anchor="start" x="1434" y="-18.5" font-family="Helvetica,sans-Serif" font-size="10.00" fill="#000000">Math/GenVector/Displacement</text>
<text text-anchor="middle" x="1508" y="-7.5" font-family="Helvetica,sans-Serif" font-size="10.00" fill="#000000">Vector3D.h</text>
</g>
<!-- Node4&#45;&gt;Node5 -->
<g id="edge5" class="edge">
<title>Node4&#45;&gt;Node5</title>
<path fill="none" stroke="#191970" d="M1330.8125,-67.3906C1361.7334,-58.3352 1408.8424,-44.539 1446.7147,-33.4479"/>
<polygon fill="#191970" stroke="#191970" points="1448.015,-36.7141 1456.6282,-30.5446 1446.0476,-29.9963 1448.015,-36.7141"/>
</g>
<!-- Node6 -->
<g id="node7" class="node">
<title>Node6</title>
<polygon fill="none" stroke="#bfbfbf" points="1608.5,-6 1608.5,-25 1797.5,-25 1797.5,-6 1608.5,-6"/>
<text text-anchor="middle" x="1703" y="-13" font-family="Helvetica,sans-Serif" font-size="10.00" fill="#000000">Math/GenVector/PositionVector3D.h</text>
</g>
<!-- Node4&#45;&gt;Node6 -->
<g id="edge6" class="edge">
<title>Node4&#45;&gt;Node6</title>
<path fill="none" stroke="#191970" d="M1359.0711,-67.7262C1431.7153,-56.6951 1552.8604,-38.299 1630.2765,-26.5432"/>
<polygon fill="#191970" stroke="#191970" points="1631.07,-29.9629 1640.4312,-25.0012 1630.019,-23.0423 1631.07,-29.9629"/>
</g>
<!-- Node7 -->
<g id="node8" class="node">
<title>Node7</title>
<polygon fill="none" stroke="#bfbfbf" points="1816,-6 1816,-25 1976,-25 1976,-6 1816,-6"/>
<text text-anchor="middle" x="1896" y="-13" font-family="Helvetica,sans-Serif" font-size="10.00" fill="#000000">Math/GenVector/Rotation3D.h</text>
</g>
<!-- Node4&#45;&gt;Node7 -->
<g id="edge7" class="edge">
<title>Node4&#45;&gt;Node7</title>
<path fill="none" stroke="#191970" d="M1359.1625,-68.1564C1362.4878,-67.7472 1365.7834,-67.3584 1369,-67 1563.1218,-45.3702 1613.2554,-55.7816 1807,-31 1816.3526,-29.8037 1826.2206,-28.3145 1835.8462,-26.736"/>
<polygon fill="#191970" stroke="#191970" points="1836.4776,-30.179 1845.7576,-25.0671 1835.3152,-23.2762 1836.4776,-30.179"/>
</g>
<!-- Node8 -->
<g id="node9" class="node">
<title>Node8</title>
<polygon fill="none" stroke="#bfbfbf" points="490,-6 490,-25 658,-25 658,-6 490,-6"/>
<text text-anchor="middle" x="574" y="-13" font-family="Helvetica,sans-Serif" font-size="10.00" fill="#000000">Math/GenVector/Transform3D.h</text>
</g>
<!-- Node4&#45;&gt;Node8 -->
<g id="edge8" class="edge">
<title>Node4&#45;&gt;Node8</title>
<path fill="none" stroke="#191970" d="M1236.7612,-68.1824C1233.1233,-67.7556 1229.5155,-67.357 1226,-67 978.7563,-41.8891 914.9046,-59.2509 668,-31 657.6642,-29.8174 646.7328,-28.2802 636.1225,-26.6341"/>
<polygon fill="#191970" stroke="#191970" points="636.5047,-23.1509 626.078,-25.0305 635.4011,-30.0633 636.5047,-23.1509"/>
</g>
<!-- Node9 -->
<g id="node10" class="node">
<title>Node9</title>
<polygon fill="none" stroke="#bfbfbf" points="676.5,-6 676.5,-25 849.5,-25 849.5,-6 676.5,-6"/>
<text text-anchor="middle" x="763" y="-13" font-family="Helvetica,sans-Serif" font-size="10.00" fill="#000000">Math/GenVector/Translation3D.h</text>
</g>
<!-- Node4&#45;&gt;Node9 -->
<g id="edge9" class="edge">
<title>Node4&#45;&gt;Node9</title>
<path fill="none" stroke="#191970" d="M1236.7459,-68.3217C1233.1119,-67.86 1229.5091,-67.4156 1226,-67 1063.2437,-47.7228 1021.5337,-52.0721 859,-31 849.0801,-29.7139 838.6097,-28.1929 828.3748,-26.6145"/>
<polygon fill="#191970" stroke="#191970" points="828.6697,-23.118 818.2476,-25.0236 827.5833,-30.0332 828.6697,-23.118"/>
</g>
<!-- Node10 -->
<g id="node11" class="node">
<title>Node10</title>
<polygon fill="none" stroke="#bfbfbf" points="868,-.5 868,-30.5 1032,-30.5 1032,-.5 868,-.5"/>
<text text-anchor="start" x="876" y="-18.5" font-family="Helvetica,sans-Serif" font-size="10.00" fill="#000000">Math/GenVector/Displacement</text>
<text text-anchor="middle" x="950" y="-7.5" font-family="Helvetica,sans-Serif" font-size="10.00" fill="#000000">Vector2D.h</text>
</g>
<!-- Node4&#45;&gt;Node10 -->
<g id="edge10" class="edge">
<title>Node4&#45;&gt;Node10</title>
<path fill="none" stroke="#191970" d="M1244.0068,-67.4581C1190.276,-57.9626 1106.7781,-43.2065 1042.4741,-31.8424"/>
<polygon fill="#191970" stroke="#191970" points="1042.7826,-28.3428 1032.326,-30.049 1041.5643,-35.2359 1042.7826,-28.3428"/>
</g>
<!-- Node11 -->
<g id="node12" class="node">
<title>Node11</title>
<polygon fill="none" stroke="#bfbfbf" points="1050.5,-6 1050.5,-25 1239.5,-25 1239.5,-6 1050.5,-6"/>
<text text-anchor="middle" x="1145" y="-13" font-family="Helvetica,sans-Serif" font-size="10.00" fill="#000000">Math/GenVector/PositionVector2D.h</text>
</g>
<!-- Node4&#45;&gt;Node11 -->
<g id="edge11" class="edge">
<title>Node4&#45;&gt;Node11</title>
<path fill="none" stroke="#191970" d="M1274.0938,-67.3906C1248.2695,-57.0103 1206.9473,-40.4004 1178.0295,-28.7766"/>
<polygon fill="#191970" stroke="#191970" points="1179.3222,-25.5241 1168.7384,-25.0419 1176.7115,-32.019 1179.3222,-25.5241"/>
</g>
<!-- Node12 -->
<g id="node13" class="node">
<title>Node12</title>
<polygon fill="none" stroke="#bfbfbf" points="1994.5,-6 1994.5,-25 2053.5,-25 2053.5,-6 1994.5,-6"/>
<text text-anchor="middle" x="2024" y="-13" font-family="Helvetica,sans-Serif" font-size="10.00" fill="#000000">Rtypes.h</text>
</g>
<!-- Node4&#45;&gt;Node12 -->
<g id="edge12" class="edge">
<title>Node4&#45;&gt;Node12</title>
<path fill="none" stroke="#191970" d="M1359.1528,-68.0643C1362.4806,-67.6788 1365.7794,-67.3204 1369,-67 1641.898,-39.8532 1717.2658,-90.4026 1985,-31 1987.8674,-30.3638 1990.7989,-29.5436 1993.7031,-28.6132"/>
<polygon fill="#191970" stroke="#191970" points="1995.1235,-31.8215 2003.3394,-25.132 1992.7451,-25.2379 1995.1235,-31.8215"/>
</g>
<!-- Node13 -->
<g id="node14" class="node">
<title>Node13</title>
<polygon fill="none" stroke="#bfbfbf" points="1258,-6 1258,-25 1340,-25 1340,-6 1258,-6"/>
<text text-anchor="middle" x="1299" y="-13" font-family="Helvetica,sans-Serif" font-size="10.00" fill="#000000">TGeoMatrix.h</text>
</g>
<!-- Node4&#45;&gt;Node13 -->
<g id="edge13" class="edge">
<title>Node4&#45;&gt;Node13</title>
<path fill="none" stroke="#191970" d="M1298.1563,-67.3906C1298.2949,-58.8657 1298.5018,-46.1392 1298.676,-35.4235"/>
<polygon fill="#191970" stroke="#191970" points="1302.1784,-35.3005 1298.8415,-25.2449 1295.1793,-35.1866 1302.1784,-35.3005"/>
</g>
<!-- Node14 -->
<g id="node15" class="node">
<title>Node14</title>
<polygon fill="none" stroke="#bfbfbf" points="1358.5,-6 1358.5,-25 1407.5,-25 1407.5,-6 1358.5,-6"/>
<text text-anchor="middle" x="1383" y="-13" font-family="Helvetica,sans-Serif" font-size="10.00" fill="#000000">iosfwd</text>
</g>
<!-- Node4&#45;&gt;Node14 -->
<g id="edge14" class="edge">
<title>Node4&#45;&gt;Node14</title>
<path fill="none" stroke="#191970" d="M1311.2813,-67.3906C1324.7548,-57.6421 1345.822,-42.3994 1361.6435,-30.9521"/>
<polygon fill="#191970" stroke="#191970" points="1363.7619,-33.7394 1369.812,-25.0419 1359.6586,-28.0682 1363.7619,-33.7394"/>
</g>
<!-- Node15&#45;&gt;Node2 -->
<g id="edge25" class="edge">
<title>Node15&#45;&gt;Node2</title>
<path fill="none" stroke="#191970" d="M1549.4609,-124.4699C1546.6059,-123.9504 1543.7756,-123.4573 1541,-123 1402.8342,-100.238 1365.3361,-114.3259 1228,-87 1227.5351,-86.9075 1227.0675,-86.8119 1226.5976,-86.7133"/>
<polygon fill="#191970" stroke="#191970" points="1227.1348,-83.2428 1216.5937,-84.3083 1225.4985,-90.0489 1227.1348,-83.2428"/>
</g>
<!-- Node16 -->
<g id="node17" class="node">
<title>Node16</title>
<g id="a_node17"><a xlink:href="../../d2/d45/GPUCommonRtypes_8h.html" target="_top" xlink:title="GPUCommonRtypes.h">
<polygon fill="none" stroke="#000000" points="1377.5,-67.5 1377.5,-86.5 1502.5,-86.5 1502.5,-67.5 1377.5,-67.5"/>
<text text-anchor="middle" x="1440" y="-74.5" font-family="Helvetica,sans-Serif" font-size="10.00" fill="#000000">GPUCommonRtypes.h</text>
</a>
</g>
</g>
<!-- Node15&#45;&gt;Node16 -->
<g id="edge16" class="edge">
<title>Node15&#45;&gt;Node16</title>
<path fill="none" stroke="#191970" d="M1570.6794,-123.4554C1541.8139,-113.194 1503.9761,-99.7429 1476.4484,-89.9571"/>
<polygon fill="#191970" stroke="#191970" points="1477.4036,-86.5821 1466.8089,-86.5303 1475.0588,-93.1778 1477.4036,-86.5821"/>
</g>
<!-- Node17 -->
<g id="node18" class="node">
<title>Node17</title>
<polygon fill="none" stroke="#bfbfbf" points="417,-67.5 417,-86.5 467,-86.5 467,-67.5 417,-67.5"/>
<text text-anchor="middle" x="442" y="-74.5" font-family="Helvetica,sans-Serif" font-size="10.00" fill="#000000">cstdint</text>
</g>
<!-- Node15&#45;&gt;Node17 -->
<g id="edge18" class="edge">
<title>Node15&#45;&gt;Node17</title>
<path fill="none" stroke="#191970" d="M1549.1108,-124.128C1546.3771,-123.7087 1543.6649,-123.3292 1541,-123 1074.2973,-65.3442 945.3818,-161.044 477.1561,-86.7608"/>
<polygon fill="#191970" stroke="#191970" points="477.5161,-83.2739 467.0879,-85.1458 476.4073,-90.1856 477.5161,-83.2739"/>
</g>
<!-- Node18 -->
<g id="node19" class="node">
<title>Node18</title>
<polygon fill="none" stroke="#bfbfbf" points="1902,-67.5 1902,-86.5 1954,-86.5 1954,-67.5 1902,-67.5"/>
<text text-anchor="middle" x="1928" y="-74.5" font-family="Helvetica,sans-Serif" font-size="10.00" fill="#000000">cassert</text>
</g>
<!-- Node15&#45;&gt;Node18 -->
<g id="edge19" class="edge">
<title>Node15&#45;&gt;Node18</title>
<path fill="none" stroke="#191970" d="M1676.6731,-124.8354C1679.8247,-124.2045 1682.9469,-123.5894 1686,-123 1774.5541,-105.9044 1800.2387,-107.7051 1891.7371,-87.1093"/>
<polygon fill="#191970" stroke="#191970" points="1892.7326,-90.4722 1901.7043,-84.8367 1891.1764,-83.6474 1892.7326,-90.4722"/>
</g>
<!-- Node19 -->
<g id="node20" class="node">
<title>Node19</title>
<polygon fill="none" stroke="#bfbfbf" points="1520.5,-67.5 1520.5,-86.5 1585.5,-86.5 1585.5,-67.5 1520.5,-67.5"/>
<text text-anchor="middle" x="1553" y="-74.5" font-family="Helvetica,sans-Serif" font-size="10.00" fill="#000000">stdexcept</text>
</g>
<!-- Node15&#45;&gt;Node19 -->
<g id="edge20" class="edge">
<title>Node15&#45;&gt;Node19</title>
<path fill="none" stroke="#191970" d="M1598.1685,-123.2977C1589.5796,-114.4941 1578.7398,-103.3833 1569.8321,-94.2529"/>
<polygon fill="#191970" stroke="#191970" points="1572.0953,-91.5606 1562.6068,-86.8469 1567.0848,-96.4489 1572.0953,-91.5606"/>
</g>
<!-- Node20 -->
<g id="node21" class="node">
<title>Node20</title>
<polygon fill="none" stroke="#bfbfbf" points="1604,-67.5 1604,-86.5 1652,-86.5 1652,-67.5 1604,-67.5"/>
<text text-anchor="middle" x="1628" y="-74.5" font-family="Helvetica,sans-Serif" font-size="10.00" fill="#000000">gsl/gsl</text>
</g>
<!-- Node15&#45;&gt;Node20 -->
<g id="edge21" class="edge">
<title>Node15&#45;&gt;Node20</title>
<path fill="none" stroke="#191970" d="M1616.7079,-123.2977C1618.6599,-115.2945 1621.077,-105.3843 1623.1734,-96.7889"/>
<polygon fill="#191970" stroke="#191970" points="1626.629,-97.3915 1625.5983,-86.8469 1619.8284,-95.7328 1626.629,-97.3915"/>
</g>
<!-- Node21 -->
<g id="node22" class="node">
<title>Node21</title>
<polygon fill="none" stroke="#bfbfbf" points="1670.5,-67.5 1670.5,-86.5 1739.5,-86.5 1739.5,-67.5 1670.5,-67.5"/>
<text text-anchor="middle" x="1705" y="-74.5" font-family="Helvetica,sans-Serif" font-size="10.00" fill="#000000">type_traits</text>
</g>
<!-- Node15&#45;&gt;Node21 -->
<g id="edge22" class="edge">
<title>Node15&#45;&gt;Node21</title>
<path fill="none" stroke="#191970" d="M1635.7416,-123.2977C1649.7967,-113.9022 1667.783,-101.8787 1681.9036,-92.4395"/>
<polygon fill="#191970" stroke="#191970" points="1684.1759,-95.1305 1690.5444,-86.6633 1680.2857,-89.311 1684.1759,-95.1305"/>
</g>
<!-- Node22 -->
<g id="node23" class="node">
<title>Node22</title>
<polygon fill="none" stroke="#bfbfbf" points="1758,-67.5 1758,-86.5 1808,-86.5 1808,-67.5 1758,-67.5"/>
<text text-anchor="middle" x="1783" y="-74.5" font-family="Helvetica,sans-Serif" font-size="10.00" fill="#000000">cstring</text>
</g>
<!-- Node15&#45;&gt;Node22 -->
<g id="edge23" class="edge">
<title>Node15&#45;&gt;Node22</title>
<path fill="none" stroke="#191970" d="M1654.5867,-123.4554C1683.3018,-113.0673 1721.0527,-99.4103 1748.1808,-89.5964"/>
<polygon fill="#191970" stroke="#191970" points="1749.4454,-92.8609 1757.6583,-86.1677 1747.0641,-86.2784 1749.4454,-92.8609"/>
</g>
<!-- Node23 -->
<g id="node24" class="node">
<title>Node23</title>
<polygon fill="none" stroke="#bfbfbf" points="1826,-67.5 1826,-86.5 1884,-86.5 1884,-67.5 1826,-67.5"/>
<text text-anchor="middle" x="1855" y="-74.5" font-family="Helvetica,sans-Serif" font-size="10.00" fill="#000000">memory</text>
</g>
<!-- Node15&#45;&gt;Node23 -->
<g id="edge24" class="edge">
<title>Node15&#45;&gt;Node23</title>
<path fill="none" stroke="#191970" d="M1673.293,-123.4477C1711.6245,-113.839 1762.5566,-101.0003 1816.2605,-87.1743"/>
<polygon fill="#191970" stroke="#191970" points="1817.1519,-90.559 1825.9617,-84.6737 1815.4046,-83.7806 1817.1519,-90.559"/>
</g>
<!-- Node16&#45;&gt;Node12 -->
<g id="edge17" class="edge">
<title>Node16&#45;&gt;Node12</title>
<path fill="none" stroke="#191970" d="M1502.8003,-68.044C1505.9089,-67.6741 1508.9885,-67.3234 1512,-67 1721.6248,-44.4874 1779.5845,-78.4749 1985,-31 1987.8617,-30.3386 1990.7893,-29.5012 1993.6909,-28.5595"/>
<polygon fill="#191970" stroke="#191970" points="1995.119,-31.7646 2003.3233,-25.0609 1992.7292,-25.1851 1995.119,-31.7646"/>
</g>
<!-- Node24&#45;&gt;Node2 -->
<g id="edge28" class="edge">
<title>Node24&#45;&gt;Node2</title>
<path fill="none" stroke="#191970" d="M952.1083,-128.9461C960.6472,-126.9498 969.6163,-124.8811 978,-123 1042.0354,-108.6319 1117.0335,-92.8149 1159.3862,-83.9758"/>
<polygon fill="#191970" stroke="#191970" points="1160.3483,-87.3506 1169.424,-81.8841 1158.9202,-80.4978 1160.3483,-87.3506"/>
</g>
<!-- Node24&#45;&gt;Node3 -->
<g id="edge27" class="edge">
<title>Node24&#45;&gt;Node3</title>
<path fill="none" stroke="#191970" d="M872.8676,-128.9301C864.3534,-126.9146 855.3848,-124.8423 847,-123 767.742,-105.5857 745.9247,-109.6458 668,-87 644.2222,-80.0899 639.8381,-73.6991 616,-67 530.3138,-42.9199 503.2369,-59.7422 419,-31 417.5782,-30.5149 416.1405,-29.9716 414.7043,-29.3866"/>
<polygon fill="#191970" stroke="#191970" points="415.9777,-26.1194 405.4324,-25.0964 413.0381,-32.4723 415.9777,-26.1194"/>
</g>
<!-- Node25 -->
<g id="node26" class="node">
<title>Node25</title>
<g id="a_node26"><a xlink:href="../../d7/d0a/MpArea_8h.html" target="_top" xlink:title="Mapping area for MID. ">
<polygon fill="none" stroke="#000000" points="677,-67.5 677,-86.5 785,-86.5 785,-67.5 677,-67.5"/>
<text text-anchor="middle" x="731" y="-74.5" font-family="Helvetica,sans-Serif" font-size="10.00" fill="#000000">MIDBase/MpArea.h</text>
</a>
</g>
</g>
<!-- Node24&#45;&gt;Node25 -->
<g id="edge29" class="edge">
<title>Node24&#45;&gt;Node25</title>
<path fill="none" stroke="#191970" d="M883.7188,-128.8906C852.77,-118.3749 803.0058,-101.466 768.743,-89.8243"/>
<polygon fill="#191970" stroke="#191970" points="769.6771,-86.4452 759.0827,-86.5419 767.425,-93.073 769.6771,-86.4452"/>
</g>
<!-- Node25&#45;&gt;Node3 -->
<g id="edge30" class="edge">
<title>Node25&#45;&gt;Node3</title>
<path fill="none" stroke="#191970" d="M676.7348,-69.0135C587.467,-55.8736 419.3827,-31.1233 419,-31 417.5352,-30.5282 416.0554,-29.9901 414.5791,-29.4044"/>
<polygon fill="#191970" stroke="#191970" points="415.6303,-26.0358 405.082,-25.0439 412.7095,-32.3973 415.6303,-26.0358"/>
</g>
<!-- Node26&#45;&gt;Node3 -->
<g id="edge32" class="edge">
<title>Node26&#45;&gt;Node3</title>
<path fill="none" stroke="#191970" d="M1022.2657,-128.9512C961.4447,-117.828 866.3617,-99.397 832,-87 814.0474,-80.5231 812.2878,-72.4592 794,-67 633.5629,-19.1074 579.6176,-78.2837 419,-31 417.3375,-30.5106 415.6588,-29.9275 413.99,-29.2789"/>
<polygon fill="#191970" stroke="#191970" points="415.2697,-26.0156 404.7195,-25.044 412.3611,-32.3827 415.2697,-26.0156"/>
</g>
<!-- Node26&#45;&gt;Node4 -->
<g id="edge36" class="edge">
<title>Node26&#45;&gt;Node4</title>
<path fill="none" stroke="#191970" d="M1110.6875,-128.8906C1149.2984,-118.1944 1211.786,-100.8836 1253.8548,-89.2294"/>
<polygon fill="#191970" stroke="#191970" points="1254.8535,-92.5847 1263.5561,-86.5419 1252.9846,-85.8387 1254.8535,-92.5847"/>
</g>
<!-- Node27 -->
<g id="node28" class="node">
<title>Node27</title>
<g id="a_node28"><a xlink:href="../../dc/de4/DetectorParameters_8h.html" target="_top" xlink:title="Useful detector parameters for MID. ">
<polygon fill="none" stroke="#000000" points="840.5,-67.5 840.5,-86.5 1009.5,-86.5 1009.5,-67.5 840.5,-67.5"/>
<text text-anchor="middle" x="925" y="-74.5" font-family="Helvetica,sans-Serif" font-size="10.00" fill="#000000">MIDBase/DetectorParameters.h</text>
</a>
</g>
</g>
<!-- Node26&#45;&gt;Node27 -->
<g id="edge33" class="edge">
<title>Node26&#45;&gt;Node27</title>
<path fill="none" stroke="#191970" d="M1052.4063,-128.8906C1027.0304,-118.5554 986.4919,-102.0447 957.9707,-90.4284"/>
<polygon fill="#191970" stroke="#191970" points="959.0096,-87.0725 948.4281,-86.5419 956.3692,-93.5554 959.0096,-87.0725"/>
</g>
<!-- Node27&#45;&gt;Node3 -->
<g id="edge34" class="edge">
<title>Node27&#45;&gt;Node3</title>
<path fill="none" stroke="#191970" d="M840.2823,-68.2824C835.7904,-67.843 831.3415,-67.413 827,-67 645.7804,-49.7599 593.8247,-81.7356 419,-31 417.3356,-30.517 415.6555,-29.9388 413.9856,-29.2939"/>
<polygon fill="#191970" stroke="#191970" points="415.2634,-26.03 404.7123,-25.0686 412.361,-32.3999 415.2634,-26.03"/>
</g>
<!-- Node28 -->
<g id="node29" class="node">
<title>Node28</title>
<polygon fill="none" stroke="#bfbfbf" points="428,-6 428,-25 472,-25 472,-6 428,-6"/>
<text text-anchor="middle" x="450" y="-13" font-family="Helvetica,sans-Serif" font-size="10.00" fill="#000000">string</text>
</g>
<!-- Node27&#45;&gt;Node28 -->
<g id="edge35" class="edge">
<title>Node27&#45;&gt;Node28</title>
<path fill="none" stroke="#191970" d="M840.4225,-68.3322C712.1955,-55.178 483.142,-31.6239 481,-31 479.2921,-30.5025 477.5653,-29.9133 475.8467,-29.26"/>
<polygon fill="#191970" stroke="#191970" points="476.8423,-25.8726 466.2824,-25.013 474.0014,-32.2702 476.8423,-25.8726"/>
</g>
<!-- Node30 -->
<g id="node31" class="node">
<title>Node30</title>
<g id="a_node31"><a xlink:href="../../d8/d17/ChamberResponseParams_8h.html" target="_top" xlink:title="Parameters for MID RPC response. ">
<polygon fill="none" stroke="#000000" points="291,-123.5 291,-153.5 473,-153.5 473,-123.5 291,-123.5"/>
<text text-anchor="start" x="299" y="-141.5" font-family="Helvetica,sans-Serif" font-size="10.00" fill="#000000">MIDSimulation/ChamberResponse</text>
<text text-anchor="middle" x="382" y="-130.5" font-family="Helvetica,sans-Serif" font-size="10.00" fill="#000000">Params.h</text>
</a>
</g>
</g>
<!-- Node29&#45;&gt;Node30 -->
<g id="edge38" class="edge">
<title>Node29&#45;&gt;Node30</title>
<path fill="none" stroke="#191970" d="M671.9318,-195.9717C618.9931,-185.4779 532.8087,-168.394 468.1371,-155.5745"/>
<polygon fill="#191970" stroke="#191970" points="468.4406,-152.0666 457.9509,-153.5553 467.0794,-158.933 468.4406,-152.0666"/>
</g>
<!-- Node31 -->
<g id="node32" class="node">
<title>Node31</title>
<g id="a_node32"><a xlink:href="../../d8/d82/ChamberHV_8h.html" target="_top" xlink:title="HV values for MID RPCs. ">
<polygon fill="none" stroke="#000000" points="680.5,-129 680.5,-148 837.5,-148 837.5,-129 680.5,-129"/>
<text text-anchor="middle" x="759" y="-136" font-family="Helvetica,sans-Serif" font-size="10.00" fill="#000000">MIDSimulation/ChamberHV.h</text>
</a>
</g>
</g>
<!-- Node29&#45;&gt;Node31 -->
<g id="edge40" class="edge">
<title>Node29&#45;&gt;Node31</title>
<path fill="none" stroke="#191970" d="M725.5877,-195.9005C731.4957,-185.751 740.9587,-169.4941 748.3082,-156.8679"/>
<polygon fill="#191970" stroke="#191970" points="751.4167,-158.4849 753.4226,-148.0817 745.367,-154.9634 751.4167,-158.4849"/>
</g>
<!-- Node30&#45;&gt;Node3 -->
<g id="edge39" class="edge">
<title>Node30&#45;&gt;Node3</title>
<path fill="none" stroke="#191970" d="M382.8583,-123.4178C384.119,-101.2662 386.4728,-59.9061 387.8718,-35.3234"/>
<polygon fill="#191970" stroke="#191970" points="391.3826,-35.232 388.4565,-25.0493 384.3939,-34.8342 391.3826,-35.232"/>
</g>
<!-- Node31&#45;&gt;Node3 -->
<g id="edge41" class="edge">
<title>Node31&#45;&gt;Node3</title>
<path fill="none" stroke="#191970" d="M737.1417,-128.8946C702.8832,-114.1055 634.2264,-85.5318 574,-67 506.405,-46.2009 485.3727,-55.4201 419,-31 417.7621,-30.5445 416.51,-30.0494 415.2559,-29.5251"/>
<polygon fill="#191970" stroke="#191970" points="416.3424,-26.1697 405.8008,-25.1088 413.38,-32.5119 416.3424,-26.1697"/>
</g>
<!-- Node31&#45;&gt;Node27 -->
<g id="edge42" class="edge">
<title>Node31&#45;&gt;Node27</title>
<path fill="none" stroke="#191970" d="M784.9375,-128.8906C813.0778,-118.4652 858.1793,-101.7559 889.5726,-90.1252"/>
<polygon fill="#191970" stroke="#191970" points="891.0834,-93.298 899.2446,-86.5419 888.6515,-86.734 891.0834,-93.298"/>
</g>
<!-- Node32&#45;&gt;Node1 -->
<g id="edge44" class="edge">
<title>Node32&#45;&gt;Node1</title>
<path fill="none" stroke="#191970" d="M118.5185,-190.4639C98.898,-179.3234 72.3,-164.2212 52.8351,-153.1691"/>
<polygon fill="#191970" stroke="#191970" points="54.3385,-149.9979 43.9144,-148.1039 50.8822,-156.0851 54.3385,-149.9979"/>
</g>
<!-- Node33 -->
<g id="node34" class="node">
<title>Node33</title>
<g id="a_node34"><a xlink:href="../../d3/dbe/ChamberEfficiency_8h.html" target="_top" xlink:title="Measured values of the RPC efficiency. ">
<polygon fill="none" stroke="#000000" points="73.5,-129 73.5,-148 234.5,-148 234.5,-129 73.5,-129"/>
<text text-anchor="middle" x="154" y="-136" font-family="Helvetica,sans-Serif" font-size="10.00" fill="#000000">MIDBase/ChamberEfficiency.h</text>
</a>
</g>
</g>
<!-- Node32&#45;&gt;Node33 -->
<g id="edge45" class="edge">
<title>Node32&#45;&gt;Node33</title>
<path fill="none" stroke="#191970" d="M147.0422,-190.2967C148.322,-180.7699 149.9842,-168.3954 151.363,-158.1306"/>
<polygon fill="#191970" stroke="#191970" points="154.8539,-158.4319 152.7165,-148.055 147.9162,-157.5 154.8539,-158.4319"/>
</g>
<!-- Node33&#45;&gt;Node3 -->
<g id="edge47" class="edge">
<title>Node33&#45;&gt;Node3</title>
<path fill="none" stroke="#191970" d="M164.6768,-128.7824C181.5363,-113.8433 215.8278,-85.0721 249,-67 284.6009,-47.6048 329.012,-32.6725 358.1464,-23.9974"/>
<polygon fill="#191970" stroke="#191970" points="359.1528,-27.3498 367.775,-21.1928 357.1951,-20.6291 359.1528,-27.3498"/>
</g>
<!-- Node33&#45;&gt;Node17 -->
<g id="edge48" class="edge">
<title>Node33&#45;&gt;Node17</title>
<path fill="none" stroke="#191970" d="M198.684,-128.9581C256.155,-116.6857 354.7764,-95.6259 407.0699,-84.459"/>
<polygon fill="#191970" stroke="#191970" points="407.8363,-87.8744 416.8849,-82.3631 406.3745,-81.0287 407.8363,-87.8744"/>
</g>
<!-- Node34 -->
<g id="node35" class="node">
<title>Node34</title>
<polygon fill="none" stroke="#bfbfbf" points="135,-67.5 135,-86.5 173,-86.5 173,-67.5 135,-67.5"/>
<text text-anchor="middle" x="154" y="-74.5" font-family="Helvetica,sans-Serif" font-size="10.00" fill="#000000">map</text>
</g>
<!-- Node33&#45;&gt;Node34 -->
<g id="edge46" class="edge">
<title>Node33&#45;&gt;Node34</title>
<path fill="none" stroke="#191970" d="M154,-128.8906C154,-120.3657 154,-107.6392 154,-96.9235"/>
<polygon fill="#191970" stroke="#191970" points="157.5001,-96.7448 154,-86.7449 150.5001,-96.7449 157.5001,-96.7448"/>
</g>
<!-- Node36 -->
<g id="node37" class="node">
<title>Node36</title>
<polygon fill="none" stroke="#bfbfbf" points="1694.5,-129 1694.5,-148 1751.5,-148 1751.5,-129 1694.5,-129"/>
<text text-anchor="middle" x="1723" y="-136" font-family="Helvetica,sans-Serif" font-size="10.00" fill="#000000">ostream</text>
</g>
<!-- Node35&#45;&gt;Node36 -->
<g id="edge50" class="edge">
<title>Node35&#45;&gt;Node36</title>
<path fill="none" stroke="#191970" d="M1687.0176,-195.9005C1693.38,-185.751 1703.5709,-169.4941 1711.4858,-156.8679"/>
<polygon fill="#191970" stroke="#191970" points="1714.6477,-158.4135 1716.9936,-148.0817 1708.7167,-154.6956 1714.6477,-158.4135"/>
</g>
<!-- Node37 -->
<g id="node38" class="node">
<title>Node37</title>
<g id="a_node38"><a xlink:href="../../d4/d25/BaseHits_8h.html" target="_top" xlink:title="SimulationDataFormat\l/BaseHits.h">
<polygon fill="none" stroke="#000000" points="1259.5,-123.5 1259.5,-153.5 1386.5,-153.5 1386.5,-123.5 1259.5,-123.5"/>
<text text-anchor="start" x="1267.5" y="-141.5" font-family="Helvetica,sans-Serif" font-size="10.00" fill="#000000">SimulationDataFormat</text>
<text text-anchor="middle" x="1323" y="-130.5" font-family="Helvetica,sans-Serif" font-size="10.00" fill="#000000">/BaseHits.h</text>
</a>
</g>
</g>
<!-- Node35&#45;&gt;Node37 -->
<g id="edge51" class="edge">
<title>Node35&#45;&gt;Node37</title>
<path fill="none" stroke="#191970" d="M1625.4705,-195.9812C1570.0988,-186.3731 1482.3668,-170.8366 1396.5852,-154.0822"/>
<polygon fill="#191970" stroke="#191970" points="1397.1644,-150.6292 1386.6779,-152.1399 1395.8177,-157.4984 1397.1644,-150.6292"/>
</g>
<!-- Node38 -->
<g id="node39" class="node">
<title>Node38</title>
<g id="a_node39"><a xlink:href="../../d0/d91/ShmAllocator_8h.html" target="_top" xlink:title="CommonUtils/ShmAllocator.h">
<polygon fill="none" stroke="#000000" points="1848,-129 1848,-148 2008,-148 2008,-129 1848,-129"/>
<text text-anchor="middle" x="1928" y="-136" font-family="Helvetica,sans-Serif" font-size="10.00" fill="#000000">CommonUtils/ShmAllocator.h</text>
</a>
</g>
</g>
<!-- Node35&#45;&gt;Node38 -->
<g id="edge53" class="edge">
<title>Node35&#45;&gt;Node38</title>
<path fill="none" stroke="#191970" d="M1716.1268,-195.9717C1759.8957,-184.0991 1834.7634,-163.7909 1882.7773,-150.7669"/>
<polygon fill="#191970" stroke="#191970" points="1883.8596,-154.0999 1892.5945,-148.1039 1882.027,-147.344 1883.8596,-154.0999"/>
</g>
<!-- Node37&#45;&gt;Node4 -->
<g id="edge52" class="edge">
<title>Node37&#45;&gt;Node4</title>
<path fill="none" stroke="#191970" d="M1316.8202,-123.2977C1313.4946,-115.1166 1309.3589,-104.943 1305.8121,-96.2179"/>
<polygon fill="#191970" stroke="#191970" points="1309.011,-94.7927 1302.0028,-86.8469 1302.5263,-97.4288 1309.011,-94.7927"/>
</g>
<!-- Node38&#45;&gt;Node18 -->
<g id="edge60" class="edge">
<title>Node38&#45;&gt;Node18</title>
<path fill="none" stroke="#191970" d="M1928,-128.8906C1928,-120.3657 1928,-107.6392 1928,-96.9235"/>
<polygon fill="#191970" stroke="#191970" points="1931.5001,-96.7448 1928,-86.7449 1924.5001,-96.7449 1931.5001,-96.7448"/>
</g>
<!-- Node39 -->
<g id="node40" class="node">
<title>Node39</title>
<g id="a_node40"><a xlink:href="../../de/d61/ShmManager_8h.html" target="_top" xlink:title="CommonUtils/ShmManager.h">
<polygon fill="none" stroke="#000000" points="2105,-67.5 2105,-86.5 2263,-86.5 2263,-67.5 2105,-67.5"/>
<text text-anchor="middle" x="2184" y="-74.5" font-family="Helvetica,sans-Serif" font-size="10.00" fill="#000000">CommonUtils/ShmManager.h</text>
</a>
</g>
</g>
<!-- Node38&#45;&gt;Node39 -->
<g id="edge54" class="edge">
<title>Node38&#45;&gt;Node39</title>
<path fill="none" stroke="#191970" d="M1967.7191,-128.9581C2012.5603,-118.1857 2085.5843,-100.6428 2134.2025,-88.9631"/>
<polygon fill="#191970" stroke="#191970" points="2135.2819,-92.3034 2144.1877,-86.5643 2133.6468,-85.4971 2135.2819,-92.3034"/>
</g>
<!-- Node40 -->
<g id="node41" class="node">
<title>Node40</title>
<polygon fill="none" stroke="#bfbfbf" points="2072,-6 2072,-25 2104,-25 2104,-6 2072,-6"/>
<text text-anchor="middle" x="2088" y="-13" font-family="Helvetica,sans-Serif" font-size="10.00" fill="#000000">list</text>
</g>
<!-- Node39&#45;&gt;Node40 -->
<g id="edge55" class="edge">
<title>Node39&#45;&gt;Node40</title>
<path fill="none" stroke="#191970" d="M2169,-67.3906C2153.6419,-57.5519 2129.5479,-42.1167 2111.6255,-30.6351"/>
<polygon fill="#191970" stroke="#191970" points="2113.203,-27.4891 2102.8947,-25.0419 2109.427,-33.3833 2113.203,-27.4891"/>
</g>
<!-- Node41 -->
<g id="node42" class="node">
<title>Node41</title>
<polygon fill="none" stroke="#bfbfbf" points="2122.5,-6 2122.5,-25 2175.5,-25 2175.5,-6 2122.5,-6"/>
<text text-anchor="middle" x="2149" y="-13" font-family="Helvetica,sans-Serif" font-size="10.00" fill="#000000">cstddef</text>
</g>
<!-- Node39&#45;&gt;Node41 -->
<g id="edge56" class="edge">
<title>Node39&#45;&gt;Node41</title>
<path fill="none" stroke="#191970" d="M2178.5313,-67.3906C2173.4754,-58.5068 2165.8228,-45.0601 2159.5746,-34.0811"/>
<polygon fill="#191970" stroke="#191970" points="2162.534,-32.2048 2154.5459,-25.2449 2156.4502,-35.6672 2162.534,-32.2048"/>
</g>
<!-- Node42 -->
<g id="node43" class="node">
<title>Node42</title>
<polygon fill="none" stroke="#bfbfbf" points="2194,-6 2194,-25 2244,-25 2244,-6 2194,-6"/>
<text text-anchor="middle" x="2219" y="-13" font-family="Helvetica,sans-Serif" font-size="10.00" fill="#000000">atomic</text>
</g>
<!-- Node39&#45;&gt;Node42 -->
<g id="edge57" class="edge">
<title>Node39&#45;&gt;Node42</title>
<path fill="none" stroke="#191970" d="M2189.4688,-67.3906C2194.5246,-58.5068 2202.1772,-45.0601 2208.4254,-34.0811"/>
<polygon fill="#191970" stroke="#191970" points="2211.5498,-35.6672 2213.4541,-25.2449 2205.466,-32.2048 2211.5498,-35.6672"/>
</g>
<!-- Node43 -->
<g id="node44" class="node">
<title>Node43</title>
<polygon fill="none" stroke="#bfbfbf" points="2262.5,-.5 2262.5,-30.5 2427.5,-30.5 2427.5,-.5 2262.5,-.5"/>
<text text-anchor="start" x="2270.5" y="-18.5" font-family="Helvetica,sans-Serif" font-size="10.00" fill="#000000">boost/interprocess</text>
<text text-anchor="middle" x="2345" y="-7.5" font-family="Helvetica,sans-Serif" font-size="10.00" fill="#000000">/managed_external_buffer.hpp</text>
</g>
<!-- Node39&#45;&gt;Node43 -->
<g id="edge58" class="edge">
<title>Node39&#45;&gt;Node43</title>
<path fill="none" stroke="#191970" d="M2209.1563,-67.3906C2232.3579,-58.5279 2267.4479,-45.1239 2296.1518,-34.1594"/>
<polygon fill="#191970" stroke="#191970" points="2297.5223,-37.3826 2305.615,-30.5446 2295.0243,-30.8435 2297.5223,-37.3826"/>
</g>
<!-- Node44 -->
<g id="node45" class="node">
<title>Node44</title>
<polygon fill="none" stroke="#bfbfbf" points="2446,-.5 2446,-30.5 2580,-30.5 2580,-.5 2446,-.5"/>
<text text-anchor="start" x="2454" y="-18.5" font-family="Helvetica,sans-Serif" font-size="10.00" fill="#000000">boost/interprocess</text>
<text text-anchor="middle" x="2513" y="-7.5" font-family="Helvetica,sans-Serif" font-size="10.00" fill="#000000">/allocators/allocator.hpp</text>
</g>
<!-- Node39&#45;&gt;Node44 -->
<g id="edge59" class="edge">
<title>Node39&#45;&gt;Node44</title>
<path fill="none" stroke="#191970" d="M2238.3505,-67.4637C2287.4232,-58.7752 2361.879,-45.3991 2435.9118,-31.1888"/>
<polygon fill="#191970" stroke="#191970" points="2436.7207,-34.5974 2445.8787,-29.2701 2435.3973,-27.7236 2436.7207,-34.5974"/>
</g>
<!-- Node46 -->
<g id="node47" class="node">
<title>Node46</title>
<g id="a_node47"><a xlink:href="../../d3/d53/ColumnData_8h.html" target="_top" xlink:title="Strip pattern (aka digits) ">
<polygon fill="none" stroke="#000000" points="491.5,-129 491.5,-148 662.5,-148 662.5,-129 491.5,-129"/>
<text text-anchor="middle" x="577" y="-136" font-family="Helvetica,sans-Serif" font-size="10.00" fill="#000000">DataFormatsMID/ColumnData.h</text>
</a>
</g>
</g>
<!-- Node45&#45;&gt;Node46 -->
<g id="edge62" class="edge">
<title>Node45&#45;&gt;Node46</title>
<path fill="none" stroke="#191970" d="M872.9363,-195.9717C810.562,-183.8584 702.9709,-162.9639 636.1329,-149.9838"/>
<polygon fill="#191970" stroke="#191970" points="636.6573,-146.5203 626.1734,-148.0496 635.3228,-153.3919 636.6573,-146.5203"/>
</g>
<!-- Node46&#45;&gt;Node3 -->
<g id="edge65" class="edge">
<title>Node46&#45;&gt;Node3</title>
<path fill="none" stroke="#191970" d="M576.692,-128.6369C575.6634,-113.2356 571.3895,-83.5307 554,-67 508.9938,-24.2163 476.9225,-53.3826 419,-31 417.7696,-30.5246 416.5238,-30.0129 415.2747,-29.4752"/>
<polygon fill="#191970" stroke="#191970" points="416.3748,-26.1236 405.8388,-25.008 413.3794,-32.4504 416.3748,-26.1236"/>
</g>
<!-- Node46&#45;&gt;Node17 -->
<g id="edge63" class="edge">
<title>Node46&#45;&gt;Node17</title>
<path fill="none" stroke="#191970" d="M555.9063,-128.8906C533.4173,-118.6457 497.6082,-102.3326 472.1476,-90.7339"/>
<polygon fill="#191970" stroke="#191970" points="473.4968,-87.5025 462.9456,-86.5419 470.5948,-93.8727 473.4968,-87.5025"/>
</g>
<!-- Node47 -->
<g id="node48" class="node">
<title>Node47</title>
<polygon fill="none" stroke="#bfbfbf" points="485,-67.5 485,-86.5 545,-86.5 545,-67.5 485,-67.5"/>
<text text-anchor="middle" x="515" y="-74.5" font-family="Helvetica,sans-Serif" font-size="10.00" fill="#000000">iostream</text>
</g>
<!-- Node46&#45;&gt;Node47 -->
<g id="edge64" class="edge">
<title>Node46&#45;&gt;Node47</title>
<path fill="none" stroke="#191970" d="M567.3125,-128.8906C557.9041,-119.5581 543.4193,-105.1902 532.0751,-93.9374"/>
<polygon fill="#191970" stroke="#191970" points="534.3886,-91.3024 524.8241,-86.7449 529.4589,-96.2722 534.3886,-91.3024"/>
</g>
<!-- Node49 -->
<g id="node50" class="node">
<title>Node49</title>
<g id="a_node50"><a xlink:href="../../d7/dcd/MCCompLabel_8h.html" target="_top" xlink:title="SimulationDataFormat\l/MCCompLabel.h">
<polygon fill="none" stroke="#000000" points="1404.5,-123.5 1404.5,-153.5 1531.5,-153.5 1531.5,-123.5 1404.5,-123.5"/>
<text text-anchor="start" x="1412.5" y="-141.5" font-family="Helvetica,sans-Serif" font-size="10.00" fill="#000000">SimulationDataFormat</text>
<text text-anchor="middle" x="1468" y="-130.5" font-family="Helvetica,sans-Serif" font-size="10.00" fill="#000000">/MCCompLabel.h</text>
</a>
</g>
</g>
<!-- Node48&#45;&gt;Node49 -->
<g id="edge67" class="edge">
<title>Node48&#45;&gt;Node49</title>
<path fill="none" stroke="#191970" d="M1408.886,-195.9005C1418.3289,-186.7313 1432.9051,-172.5776 1445.2202,-160.6195"/>
<polygon fill="#191970" stroke="#191970" points="1447.7937,-162.9991 1452.5298,-153.5218 1442.9173,-157.9771 1447.7937,-162.9991"/>
</g>
<!-- Node49&#45;&gt;Node16 -->
<g id="edge68" class="edge">
<title>Node49&#45;&gt;Node16</title>
<path fill="none" stroke="#191970" d="M1461.0786,-123.2977C1457.3539,-115.1166 1452.722,-104.943 1448.7496,-96.2179"/>
<polygon fill="#191970" stroke="#191970" points="1451.8122,-94.4978 1444.4832,-86.8469 1445.4414,-97.3983 1451.8122,-94.4978"/>
</g>
</g>
</svg>
