<?xml version="1.0" encoding="UTF-8" standalone="no"?>
<!DOCTYPE svg PUBLIC "-//W3C//DTD SVG 1.1//EN"
 "http://www.w3.org/Graphics/SVG/1.1/DTD/svg11.dtd">
<!-- Generated by graphviz version 2.40.1 (20161225.0304)
 -->
<!-- Title: /home/travis/build/AliceO2Group/AliceO2/Detectors/TPC/simulation Pages: 1 -->
<svg width="666pt" height="591pt"
 viewBox="0.00 0.00 666.00 591.00" xmlns="http://www.w3.org/2000/svg" xmlns:xlink="http://www.w3.org/1999/xlink">
<g id="graph0" class="graph" transform="scale(1 1) rotate(0) translate(4 587)">
<title>/home/travis/build/AliceO2Group/AliceO2/Detectors/TPC/simulation</title>
<g id="clust1" class="cluster">
<title>clusterdir_a597e8e061b11201a1dff411feb10d0b</title>
<g id="a_clust1"><a xlink:href="dir_a597e8e061b11201a1dff411feb10d0b.html" target="_top" xlink:title="TPC">
<polygon fill="#ddddee" stroke="#000000" points="263,-416 263,-575 579,-575 579,-416 263,-416"/>
<text text-anchor="middle" x="421" y="-563" font-family="Helvetica,sans-Serif" font-size="10.00" fill="#000000">TPC</text>
</a>
</g>
</g>
<g id="clust2" class="cluster">
<title>clusterdir_7f309bec8670bb3fb666e7e061b24659</title>
<g id="a_clust2"><a xlink:href="dir_7f309bec8670bb3fb666e7e061b24659.html" target="_top">
<polygon fill="#eeeeff" stroke="#000000" points="271,-424 271,-548 571,-548 571,-424 271,-424"/>
</a>
</g>
</g>
<!-- dir_7f309bec8670bb3fb666e7e061b24659 -->
<g id="node1" class="node">
<title>dir_7f309bec8670bb3fb666e7e061b24659</title>
<text text-anchor="middle" x="529" y="-519.5" font-family="Helvetica,sans-Serif" font-size="10.00" fill="#000000">simulation</text>
</g>
<!-- dir_a3959ed40b1558172144f5e1a56e443f -->
<g id="node2" class="node">
<title>dir_a3959ed40b1558172144f5e1a56e443f</title>
<g id="a_node2"><a xlink:href="dir_a3959ed40b1558172144f5e1a56e443f.html" target="_top" xlink:title="include">
<polygon fill="#ffffff" stroke="#ff0000" points="432,-468 378,-468 378,-432 432,-432 432,-468"/>
<text text-anchor="middle" x="405" y="-447.5" font-family="Helvetica,sans-Serif" font-size="10.00" fill="#000000">include</text>
</a>
</g>
</g>
<!-- dir_677b030cc750909e4cd27413873678d8 -->
<g id="node6" class="node">
<title>dir_677b030cc750909e4cd27413873678d8</title>
<g id="a_node6"><a xlink:href="dir_677b030cc750909e4cd27413873678d8.html" target="_top" xlink:title="base">
<polygon fill="none" stroke="#ff0000" points="255,-468 201,-468 201,-432 255,-432 255,-468"/>
<text text-anchor="middle" x="228" y="-447.5" font-family="Helvetica,sans-Serif" font-size="10.00" fill="#000000">base</text>
</a>
</g>
</g>
<!-- dir_a3959ed40b1558172144f5e1a56e443f&#45;&gt;dir_677b030cc750909e4cd27413873678d8 -->
<g id="edge22" class="edge">
<title>dir_a3959ed40b1558172144f5e1a56e443f&#45;&gt;dir_677b030cc750909e4cd27413873678d8</title>
<path fill="none" stroke="#000000" d="M377.8103,-450C340.3267,-450 302.843,-450 265.3594,-450"/>
<polygon fill="#000000" stroke="#000000" points="265.3106,-446.5001 255.3105,-450 265.3105,-453.5001 265.3106,-446.5001"/>
<g id="a_edge22&#45;headlabel"><a xlink:href="dir_000319_000060.html" target="_top" xlink:title="26">
<text text-anchor="middle" x="268.9052" y="-441.1607" font-family="Helvetica,sans-Serif" font-size="10.00" fill="#000000">26</text>
</a>
</g>
</g>
<!-- dir_4ab6b4cc6a7edbff49100e9123df213f -->
<g id="node7" class="node">
<title>dir_4ab6b4cc6a7edbff49100e9123df213f</title>
<g id="a_node7"><a xlink:href="dir_4ab6b4cc6a7edbff49100e9123df213f.html" target="_top" xlink:title="Common">
<polygon fill="none" stroke="#ff0000" points="315.5,-396 254.5,-396 254.5,-360 315.5,-360 315.5,-396"/>
<text text-anchor="middle" x="285" y="-375.5" font-family="Helvetica,sans-Serif" font-size="10.00" fill="#000000">Common</text>
</a>
</g>
</g>
<!-- dir_a3959ed40b1558172144f5e1a56e443f&#45;&gt;dir_4ab6b4cc6a7edbff49100e9123df213f -->
<g id="edge23" class="edge">
<title>dir_a3959ed40b1558172144f5e1a56e443f&#45;&gt;dir_4ab6b4cc6a7edbff49100e9123df213f</title>
<path fill="none" stroke="#000000" d="M377.7701,-433.6621C361.8709,-424.1226 341.5433,-411.926 323.9707,-401.3824"/>
<polygon fill="#000000" stroke="#000000" points="325.4463,-398.1861 315.0706,-396.0423 321.8448,-404.1886 325.4463,-398.1861"/>
<g id="a_edge23&#45;headlabel"><a xlink:href="dir_000319_000036.html" target="_top" xlink:title="5">
<text text-anchor="middle" x="329.9894" y="-395.1008" font-family="Helvetica,sans-Serif" font-size="10.00" fill="#000000">5</text>
</a>
</g>
</g>
<!-- dir_37c90836491b695b472bf98d1be8336b -->
<g id="node8" class="node">
<title>dir_37c90836491b695b472bf98d1be8336b</title>
<g id="a_node8"><a xlink:href="dir_37c90836491b695b472bf98d1be8336b.html" target="_top" xlink:title="Base">
<polygon fill="none" stroke="#ff0000" points="353,-108 299,-108 299,-72 353,-72 353,-108"/>
<text text-anchor="middle" x="326" y="-87.5" font-family="Helvetica,sans-Serif" font-size="10.00" fill="#000000">Base</text>
</a>
</g>
</g>
<!-- dir_a3959ed40b1558172144f5e1a56e443f&#45;&gt;dir_37c90836491b695b472bf98d1be8336b -->
<g id="edge24" class="edge">
<title>dir_a3959ed40b1558172144f5e1a56e443f&#45;&gt;dir_37c90836491b695b472bf98d1be8336b</title>
<path fill="none" stroke="#000000" d="M423.1861,-431.9812C432.1809,-422.1189 442.4794,-409.2345 449,-396 484.4492,-324.0505 474.5215,-295.225 462,-216 456.8334,-183.3103 464.275,-169.3512 443,-144 422.6864,-119.7944 389.1701,-105.8605 363.2047,-98.2324"/>
<polygon fill="#000000" stroke="#000000" points="363.8818,-94.7889 353.3121,-95.5187 362.0299,-101.5395 363.8818,-94.7889"/>
<g id="a_edge24&#45;headlabel"><a xlink:href="dir_000319_000287.html" target="_top" xlink:title="1">
<text text-anchor="middle" x="368.0994" y="-90.5016" font-family="Helvetica,sans-Serif" font-size="10.00" fill="#000000">1</text>
</a>
</g>
</g>
<!-- dir_f511f1e9c03c071966ae594f00bbc5e0 -->
<g id="node9" class="node">
<title>dir_f511f1e9c03c071966ae594f00bbc5e0</title>
<g id="a_node9"><a xlink:href="dir_f511f1e9c03c071966ae594f00bbc5e0.html" target="_top" xlink:title="GPU">
<polygon fill="none" stroke="#ff0000" points="308,-324 254,-324 254,-288 308,-288 308,-324"/>
<text text-anchor="middle" x="281" y="-303.5" font-family="Helvetica,sans-Serif" font-size="10.00" fill="#000000">GPU</text>
</a>
</g>
</g>
<!-- dir_a3959ed40b1558172144f5e1a56e443f&#45;&gt;dir_f511f1e9c03c071966ae594f00bbc5e0 -->
<g id="edge25" class="edge">
<title>dir_a3959ed40b1558172144f5e1a56e443f&#45;&gt;dir_f511f1e9c03c071966ae594f00bbc5e0</title>
<path fill="none" stroke="#000000" d="M389.2953,-431.7623C367.4931,-406.4436 327.9462,-360.5182 303.1521,-331.7251"/>
<polygon fill="#000000" stroke="#000000" points="305.7546,-329.3835 296.5772,-324.0896 300.4502,-333.9512 305.7546,-329.3835"/>
<g id="a_edge25&#45;headlabel"><a xlink:href="dir_000319_000740.html" target="_top" xlink:title="1">
<text text-anchor="middle" x="310.2517" y="-327.7547" font-family="Helvetica,sans-Serif" font-size="10.00" fill="#000000">1</text>
</a>
</g>
</g>
<!-- dir_2171f7ec022c5423887b07c69b2f5b48 -->
<g id="node12" class="node">
<title>dir_2171f7ec022c5423887b07c69b2f5b48</title>
<g id="a_node12"><a xlink:href="dir_2171f7ec022c5423887b07c69b2f5b48.html" target="_top" xlink:title="DataFormats">
<polygon fill="none" stroke="#ff0000" points="434,-180 354,-180 354,-144 434,-144 434,-180"/>
<text text-anchor="middle" x="394" y="-159.5" font-family="Helvetica,sans-Serif" font-size="10.00" fill="#000000">DataFormats</text>
</a>
</g>
</g>
<!-- dir_a3959ed40b1558172144f5e1a56e443f&#45;&gt;dir_2171f7ec022c5423887b07c69b2f5b48 -->
<g id="edge26" class="edge">
<title>dir_a3959ed40b1558172144f5e1a56e443f&#45;&gt;dir_2171f7ec022c5423887b07c69b2f5b48</title>
<path fill="none" stroke="#000000" d="M414.3868,-431.713C433.75,-391.379 473.9032,-292.309 444,-216 439.8242,-205.3439 432.4487,-195.5335 424.6241,-187.2816"/>
<polygon fill="#000000" stroke="#000000" points="426.9729,-184.6825 417.3909,-180.162 422.0625,-189.6713 426.9729,-184.6825"/>
<g id="a_edge26&#45;headlabel"><a xlink:href="dir_000319_000090.html" target="_top" xlink:title="10">
<text text-anchor="middle" x="431.5264" y="-182.6806" font-family="Helvetica,sans-Serif" font-size="10.00" fill="#000000">10</text>
</a>
</g>
</g>
<!-- dir_685cddb227eacf501f568a534e55085f -->
<g id="node3" class="node">
<title>dir_685cddb227eacf501f568a534e55085f</title>
<g id="a_node3"><a xlink:href="dir_685cddb227eacf501f568a534e55085f.html" target="_top" xlink:title="run">
<polygon fill="#ffffff" stroke="#000000" points="333,-540 279,-540 279,-504 333,-504 333,-540"/>
<text text-anchor="middle" x="306" y="-519.5" font-family="Helvetica,sans-Serif" font-size="10.00" fill="#000000">run</text>
</a>
</g>
</g>
<!-- dir_685cddb227eacf501f568a534e55085f&#45;&gt;dir_677b030cc750909e4cd27413873678d8 -->
<g id="edge1" class="edge">
<title>dir_685cddb227eacf501f568a534e55085f&#45;&gt;dir_677b030cc750909e4cd27413873678d8</title>
<path fill="none" stroke="#000000" d="M286.3173,-503.8314C276.8949,-495.1337 265.4599,-484.5783 255.2204,-475.1265"/>
<polygon fill="#000000" stroke="#000000" points="257.3984,-472.3738 247.6764,-468.1628 252.6505,-477.5175 257.3984,-472.3738"/>
<g id="a_edge1&#45;headlabel"><a xlink:href="dir_000673_000060.html" target="_top" xlink:title="2">
<text text-anchor="middle" x="261.9656" y="-470.2257" font-family="Helvetica,sans-Serif" font-size="10.00" fill="#000000">2</text>
</a>
</g>
</g>
<!-- dir_685cddb227eacf501f568a534e55085f&#45;&gt;dir_4ab6b4cc6a7edbff49100e9123df213f -->
<g id="edge2" class="edge">
<title>dir_685cddb227eacf501f568a534e55085f&#45;&gt;dir_4ab6b4cc6a7edbff49100e9123df213f</title>
<path fill="none" stroke="#000000" d="M278.8505,-517.6307C251.5838,-511.6402 210.9717,-497.979 192,-468 179.6413,-448.4709 179.1141,-435.1853 192,-416 203.7595,-398.4918 225.1595,-389.0453 244.4689,-383.9509"/>
<polygon fill="#000000" stroke="#000000" points="245.3651,-387.3359 254.3138,-381.6639 243.7811,-380.5175 245.3651,-387.3359"/>
<g id="a_edge2&#45;headlabel"><a xlink:href="dir_000673_000036.html" target="_top" xlink:title="1">
<text text-anchor="middle" x="242.5062" y="-388.4149" font-family="Helvetica,sans-Serif" font-size="10.00" fill="#000000">1</text>
</a>
</g>
</g>
<!-- dir_685cddb227eacf501f568a534e55085f&#45;&gt;dir_f511f1e9c03c071966ae594f00bbc5e0 -->
<g id="edge3" class="edge">
<title>dir_685cddb227eacf501f568a534e55085f&#45;&gt;dir_f511f1e9c03c071966ae594f00bbc5e0</title>
<path fill="none" stroke="#000000" d="M278.8983,-519.102C248.6768,-514.2602 201.1397,-501.4717 179,-468 147.0942,-419.7635 205.6911,-362.2529 246.4969,-330.363"/>
<polygon fill="#000000" stroke="#000000" points="248.815,-332.9968 254.642,-324.1482 244.5688,-327.4318 248.815,-332.9968"/>
<g id="a_edge3&#45;headlabel"><a xlink:href="dir_000673_000740.html" target="_top" xlink:title="5">
<text text-anchor="middle" x="247.6796" y="-334.9345" font-family="Helvetica,sans-Serif" font-size="10.00" fill="#000000">5</text>
</a>
</g>
</g>
<!-- dir_bcbb2cf9a3d3d83e5515c82071a07177 -->
<g id="node10" class="node">
<title>dir_bcbb2cf9a3d3d83e5515c82071a07177</title>
<g id="a_node10"><a xlink:href="dir_bcbb2cf9a3d3d83e5515c82071a07177.html" target="_top" xlink:title="Framework">
<polygon fill="none" stroke="#ff0000" points="204.5,-36 133.5,-36 133.5,0 204.5,0 204.5,-36"/>
<text text-anchor="middle" x="169" y="-15.5" font-family="Helvetica,sans-Serif" font-size="10.00" fill="#000000">Framework</text>
</a>
</g>
</g>
<!-- dir_685cddb227eacf501f568a534e55085f&#45;&gt;dir_bcbb2cf9a3d3d83e5515c82071a07177 -->
<g id="edge4" class="edge">
<title>dir_685cddb227eacf501f568a534e55085f&#45;&gt;dir_bcbb2cf9a3d3d83e5515c82071a07177</title>
<path fill="none" stroke="#000000" d="M278.8445,-515.4252C203.9549,-496.5077 0,-439.3555 0,-378 0,-378 0,-378 0,-162 0,-96.8168 73.7398,-54.916 123.8013,-33.9804"/>
<polygon fill="#000000" stroke="#000000" points="125.2028,-37.1891 133.1594,-30.1932 122.5767,-30.7003 125.2028,-37.1891"/>
<g id="a_edge4&#45;headlabel"><a xlink:href="dir_000673_000063.html" target="_top" xlink:title="1">
<text text-anchor="middle" x="122.9358" y="-38.6694" font-family="Helvetica,sans-Serif" font-size="10.00" fill="#000000">1</text>
</a>
</g>
</g>
<!-- dir_26637d1bd82229bc9ed97f7e706be743 -->
<g id="node11" class="node">
<title>dir_26637d1bd82229bc9ed97f7e706be743</title>
<g id="a_node11"><a xlink:href="dir_26637d1bd82229bc9ed97f7e706be743.html" target="_top" xlink:title="Raw">
<polygon fill="none" stroke="#ff0000" points="196,-252 142,-252 142,-216 196,-216 196,-252"/>
<text text-anchor="middle" x="169" y="-231.5" font-family="Helvetica,sans-Serif" font-size="10.00" fill="#000000">Raw</text>
</a>
</g>
</g>
<!-- dir_685cddb227eacf501f568a534e55085f&#45;&gt;dir_26637d1bd82229bc9ed97f7e706be743 -->
<g id="edge5" class="edge">
<title>dir_685cddb227eacf501f568a534e55085f&#45;&gt;dir_26637d1bd82229bc9ed97f7e706be743</title>
<path fill="none" stroke="#000000" d="M278.893,-515.4207C242.0293,-505.8617 179.1538,-487.1719 166,-468 122.9414,-405.2411 144.5069,-309.0293 159.1741,-261.9301"/>
<polygon fill="#000000" stroke="#000000" points="162.5992,-262.7142 162.3527,-252.1222 155.9401,-260.5561 162.5992,-262.7142"/>
<g id="a_edge5&#45;headlabel"><a xlink:href="dir_000673_000628.html" target="_top" xlink:title="3">
<text text-anchor="middle" x="164.192" y="-264.509" font-family="Helvetica,sans-Serif" font-size="10.00" fill="#000000">3</text>
</a>
</g>
</g>
<!-- dir_685cddb227eacf501f568a534e55085f&#45;&gt;dir_2171f7ec022c5423887b07c69b2f5b48 -->
<g id="edge6" class="edge">
<title>dir_685cddb227eacf501f568a534e55085f&#45;&gt;dir_2171f7ec022c5423887b07c69b2f5b48</title>
<path fill="none" stroke="#000000" d="M333.3643,-507.9119C336.2586,-506.5439 339.1756,-505.2149 342,-504 385.0089,-485.5005 410.9474,-503.9005 441,-468 513.141,-381.8212 513.6567,-315.8133 462,-216 455.9312,-204.2736 446.0553,-194.2502 435.6879,-186.1371"/>
<polygon fill="#000000" stroke="#000000" points="437.4736,-183.1076 427.3313,-180.0441 433.3495,-188.7638 437.4736,-183.1076"/>
<g id="a_edge6&#45;headlabel"><a xlink:href="dir_000673_000090.html" target="_top" xlink:title="6">
<text text-anchor="middle" x="442.0508" y="-180.4311" font-family="Helvetica,sans-Serif" font-size="10.00" fill="#000000">6</text>
</a>
</g>
</g>
<!-- dir_72815adbd439f00f784a5a4eca496fde -->
<g id="node4" class="node">
<title>dir_72815adbd439f00f784a5a4eca496fde</title>
<g id="a_node4"><a xlink:href="dir_72815adbd439f00f784a5a4eca496fde.html" target="_top" xlink:title="src">
<polygon fill="#ffffff" stroke="#000000" points="405,-540 351,-540 351,-504 405,-504 405,-540"/>
<text text-anchor="middle" x="378" y="-519.5" font-family="Helvetica,sans-Serif" font-size="10.00" fill="#000000">src</text>
</a>
</g>
</g>
<!-- dir_72815adbd439f00f784a5a4eca496fde&#45;&gt;dir_a3959ed40b1558172144f5e1a56e443f -->
<g id="edge9" class="edge">
<title>dir_72815adbd439f00f784a5a4eca496fde&#45;&gt;dir_a3959ed40b1558172144f5e1a56e443f</title>
<path fill="none" stroke="#000000" d="M384.8132,-503.8314C387.7644,-495.9617 391.2858,-486.5712 394.555,-477.8533"/>
<polygon fill="#000000" stroke="#000000" points="397.8609,-479.0055 398.095,-468.4133 391.3066,-476.5476 397.8609,-479.0055"/>
<g id="a_edge9&#45;headlabel"><a xlink:href="dir_000349_000319.html" target="_top" xlink:title="19">
<text text-anchor="middle" x="399.2573" y="-480.8682" font-family="Helvetica,sans-Serif" font-size="10.00" fill="#000000">19</text>
</a>
</g>
</g>
<!-- dir_72815adbd439f00f784a5a4eca496fde&#45;&gt;dir_677b030cc750909e4cd27413873678d8 -->
<g id="edge7" class="edge">
<title>dir_72815adbd439f00f784a5a4eca496fde&#45;&gt;dir_677b030cc750909e4cd27413873678d8</title>
<path fill="none" stroke="#000000" d="M350.9037,-508.3747C347.904,-506.8893 344.8901,-505.4068 342,-504 316.1558,-491.4197 286.8463,-477.5449 264.4182,-467.0097"/>
<polygon fill="#000000" stroke="#000000" points="265.7975,-463.7908 255.2576,-462.7126 262.8247,-470.1282 265.7975,-463.7908"/>
<g id="a_edge7&#45;headlabel"><a xlink:href="dir_000349_000060.html" target="_top" xlink:title="15">
<text text-anchor="middle" x="270.2576" y="-460.2468" font-family="Helvetica,sans-Serif" font-size="10.00" fill="#000000">15</text>
</a>
</g>
</g>
<!-- dir_72815adbd439f00f784a5a4eca496fde&#45;&gt;dir_4ab6b4cc6a7edbff49100e9123df213f -->
<g id="edge8" class="edge">
<title>dir_72815adbd439f00f784a5a4eca496fde&#45;&gt;dir_4ab6b4cc6a7edbff49100e9123df213f</title>
<path fill="none" stroke="#000000" d="M366.2215,-503.7623C350.0795,-478.7682 320.968,-433.6924 302.3347,-404.8409"/>
<polygon fill="#000000" stroke="#000000" points="305.0483,-402.5912 296.6829,-396.0896 299.168,-406.3889 305.0483,-402.5912"/>
<g id="a_edge8&#45;headlabel"><a xlink:href="dir_000349_000036.html" target="_top" xlink:title="3">
<text text-anchor="middle" x="309.3835" y="-401.5704" font-family="Helvetica,sans-Serif" font-size="10.00" fill="#000000">3</text>
</a>
</g>
</g>
<!-- dir_72815adbd439f00f784a5a4eca496fde&#45;&gt;dir_2171f7ec022c5423887b07c69b2f5b48 -->
<g id="edge10" class="edge">
<title>dir_72815adbd439f00f784a5a4eca496fde&#45;&gt;dir_2171f7ec022c5423887b07c69b2f5b48</title>
<path fill="none" stroke="#000000" d="M405.2425,-507.6071C408.1605,-506.2985 411.1164,-505.0667 414,-504 475.872,-481.1121 510.9894,-514.2818 558,-468 587.5004,-438.9569 582,-419.3978 582,-378 582,-378 582,-378 582,-306 582,-236.3817 499.7452,-195.8588 444.0517,-176.4003"/>
<polygon fill="#000000" stroke="#000000" points="444.9249,-173.0012 434.3307,-173.1215 442.6876,-179.634 444.9249,-173.0012"/>
<g id="a_edge10&#45;headlabel"><a xlink:href="dir_000349_000090.html" target="_top" xlink:title="4">
<text text-anchor="middle" x="449.2384" y="-168.9596" font-family="Helvetica,sans-Serif" font-size="10.00" fill="#000000">4</text>
</a>
</g>
</g>
<!-- dir_ac3b77a1b17a4594b18b160ef67742fa -->
<g id="node5" class="node">
<title>dir_ac3b77a1b17a4594b18b160ef67742fa</title>
<g id="a_node5"><a xlink:href="dir_ac3b77a1b17a4594b18b160ef67742fa.html" target="_top" xlink:title="test">
<polygon fill="#ffffff" stroke="#000000" points="477,-540 423,-540 423,-504 477,-504 477,-540"/>
<text text-anchor="middle" x="450" y="-519.5" font-family="Helvetica,sans-Serif" font-size="10.00" fill="#000000">test</text>
</a>
</g>
</g>
<!-- dir_ac3b77a1b17a4594b18b160ef67742fa&#45;&gt;dir_a3959ed40b1558172144f5e1a56e443f -->
<g id="edge28" class="edge">
<title>dir_ac3b77a1b17a4594b18b160ef67742fa&#45;&gt;dir_a3959ed40b1558172144f5e1a56e443f</title>
<path fill="none" stroke="#000000" d="M438.6446,-503.8314C433.5674,-495.7079 427.4773,-485.9637 421.8824,-477.0118"/>
<polygon fill="#000000" stroke="#000000" points="424.7763,-475.0383 416.5083,-468.4133 418.8403,-478.7483 424.7763,-475.0383"/>
<g id="a_edge28&#45;headlabel"><a xlink:href="dir_000674_000319.html" target="_top" xlink:title="8">
<text text-anchor="middle" x="429.0891" y="-474.0817" font-family="Helvetica,sans-Serif" font-size="10.00" fill="#000000">8</text>
</a>
</g>
</g>
<!-- dir_ac3b77a1b17a4594b18b160ef67742fa&#45;&gt;dir_677b030cc750909e4cd27413873678d8 -->
<g id="edge27" class="edge">
<title>dir_ac3b77a1b17a4594b18b160ef67742fa&#45;&gt;dir_677b030cc750909e4cd27413873678d8</title>
<path fill="none" stroke="#000000" d="M422.7628,-507.5928C419.8437,-506.287 416.8862,-505.0598 414,-504 350.8582,-480.8147 330.4962,-490.1962 267,-468 266.2873,-467.7508 265.5699,-467.4932 264.8494,-467.2283"/>
<polygon fill="#000000" stroke="#000000" points="266.0103,-463.923 255.4259,-463.4531 263.4071,-470.4209 266.0103,-463.923"/>
<g id="a_edge27&#45;headlabel"><a xlink:href="dir_000674_000060.html" target="_top" xlink:title="8">
<text text-anchor="middle" x="270.4029" y="-460.124" font-family="Helvetica,sans-Serif" font-size="10.00" fill="#000000">8</text>
</a>
</g>
</g>
<!-- dir_ac3b77a1b17a4594b18b160ef67742fa&#45;&gt;dir_2171f7ec022c5423887b07c69b2f5b48 -->
<g id="edge29" class="edge">
<title>dir_ac3b77a1b17a4594b18b160ef67742fa&#45;&gt;dir_2171f7ec022c5423887b07c69b2f5b48</title>
<path fill="none" stroke="#000000" d="M477.3684,-507.9214C480.2619,-506.5515 483.1776,-505.2195 486,-504 528.5954,-485.5957 550.7257,-500.3405 584,-468 614.8935,-437.9735 620,-421.0813 620,-378 620,-378 620,-378 620,-306 620,-223.1377 510.6068,-185.8732 444.0368,-170.8676"/>
<polygon fill="#000000" stroke="#000000" points="444.6576,-167.4211 434.1439,-168.7295 443.1788,-174.2631 444.6576,-167.4211"/>
<g id="a_edge29&#45;headlabel"><a xlink:href="dir_000674_000090.html" target="_top" xlink:title="1">
<text text-anchor="middle" x="448.7708" y="-162.9051" font-family="Helvetica,sans-Serif" font-size="10.00" fill="#000000">1</text>
</a>
</g>
</g>
<!-- dir_677b030cc750909e4cd27413873678d8&#45;&gt;dir_4ab6b4cc6a7edbff49100e9123df213f -->
<g id="edge11" class="edge">
<title>dir_677b030cc750909e4cd27413873678d8&#45;&gt;dir_4ab6b4cc6a7edbff49100e9123df213f</title>
<path fill="none" stroke="#000000" d="M242.3835,-431.8314C248.9486,-423.5386 256.8507,-413.557 264.0578,-404.4533"/>
<polygon fill="#000000" stroke="#000000" points="266.9599,-406.4262 270.4228,-396.4133 261.4716,-402.0813 266.9599,-406.4262"/>
<g id="a_edge11&#45;headlabel"><a xlink:href="dir_000060_000036.html" target="_top" xlink:title="15">
<text text-anchor="middle" x="266.9549" y="-408.5069" font-family="Helvetica,sans-Serif" font-size="10.00" fill="#000000">15</text>
</a>
</g>
</g>
<!-- dir_677b030cc750909e4cd27413873678d8&#45;&gt;dir_bcbb2cf9a3d3d83e5515c82071a07177 -->
<g id="edge12" class="edge">
<title>dir_677b030cc750909e4cd27413873678d8&#45;&gt;dir_bcbb2cf9a3d3d83e5515c82071a07177</title>
<path fill="none" stroke="#000000" d="M214.0967,-431.9134C189.3952,-398.553 138.6142,-324.1322 119,-252 97.9694,-174.6591 98.6366,-145.758 130,-72 134.1406,-62.2624 140.3036,-52.5871 146.5144,-44.1736"/>
<polygon fill="#000000" stroke="#000000" points="149.3138,-46.2751 152.6678,-36.2251 143.7786,-41.9899 149.3138,-46.2751"/>
<g id="a_edge12&#45;headlabel"><a xlink:href="dir_000060_000063.html" target="_top" xlink:title="3">
<text text-anchor="middle" x="149.3584" y="-48.3555" font-family="Helvetica,sans-Serif" font-size="10.00" fill="#000000">3</text>
</a>
</g>
</g>
<!-- dir_677b030cc750909e4cd27413873678d8&#45;&gt;dir_26637d1bd82229bc9ed97f7e706be743 -->
<g id="edge13" class="edge">
<title>dir_677b030cc750909e4cd27413873678d8&#45;&gt;dir_26637d1bd82229bc9ed97f7e706be743</title>
<path fill="none" stroke="#000000" d="M223.0712,-431.9555C212.7679,-394.235 188.8903,-306.8188 176.6044,-261.8399"/>
<polygon fill="#000000" stroke="#000000" points="179.9676,-260.8694 173.9563,-252.1451 173.215,-262.7139 179.9676,-260.8694"/>
<g id="a_edge13&#45;headlabel"><a xlink:href="dir_000060_000628.html" target="_top" xlink:title="2">
<text text-anchor="middle" x="183.6537" y="-261.0889" font-family="Helvetica,sans-Serif" font-size="10.00" fill="#000000">2</text>
</a>
</g>
</g>
<!-- dir_677b030cc750909e4cd27413873678d8&#45;&gt;dir_2171f7ec022c5423887b07c69b2f5b48 -->
<g id="edge14" class="edge">
<title>dir_677b030cc750909e4cd27413873678d8&#45;&gt;dir_2171f7ec022c5423887b07c69b2f5b48</title>
<path fill="none" stroke="#000000" d="M245.9133,-431.8187C252.1857,-426.1795 259.5361,-420.3186 267,-416 290.6014,-402.3442 302.8221,-411.8634 325,-396 357.9729,-372.4152 361.4296,-359.5029 381,-324 404.834,-280.7626 412.8183,-265.0273 407,-216 405.9932,-207.5166 404.1264,-198.4376 402.1153,-190.1913"/>
<polygon fill="#000000" stroke="#000000" points="405.4472,-189.0971 399.5446,-180.2988 398.6722,-190.8576 405.4472,-189.0971"/>
<g id="a_edge14&#45;headlabel"><a xlink:href="dir_000060_000090.html" target="_top" xlink:title="21">
<text text-anchor="middle" x="409.0992" y="-189.3621" font-family="Helvetica,sans-Serif" font-size="10.00" fill="#000000">21</text>
</a>
</g>
</g>
<!-- dir_4ab6b4cc6a7edbff49100e9123df213f&#45;&gt;dir_f511f1e9c03c071966ae594f00bbc5e0 -->
<g id="edge15" class="edge">
<title>dir_4ab6b4cc6a7edbff49100e9123df213f&#45;&gt;dir_f511f1e9c03c071966ae594f00bbc5e0</title>
<path fill="none" stroke="#000000" d="M278.0382,-359.8314C276.86,-352.131 276.1304,-342.9743 275.9636,-334.4166"/>
<polygon fill="#000000" stroke="#000000" points="279.4634,-334.4421 276.047,-324.4133 272.4637,-334.3837 279.4634,-334.4421"/>
<g id="a_edge15&#45;headlabel"><a xlink:href="dir_000036_000740.html" target="_top" xlink:title="6">
<text text-anchor="middle" x="282.2728" y="-335.5602" font-family="Helvetica,sans-Serif" font-size="10.00" fill="#000000">6</text>
</a>
</g>
</g>
<!-- dir_4ab6b4cc6a7edbff49100e9123df213f&#45;&gt;dir_bcbb2cf9a3d3d83e5515c82071a07177 -->
<g id="edge16" class="edge">
<title>dir_4ab6b4cc6a7edbff49100e9123df213f&#45;&gt;dir_bcbb2cf9a3d3d83e5515c82071a07177</title>
<path fill="none" stroke="#000000" d="M254.374,-366.6975C214.82,-348.551 148.7682,-309.0691 124,-252 93.5216,-181.7736 126.4478,-89.8713 150.1179,-45.0061"/>
<polygon fill="#000000" stroke="#000000" points="153.227,-46.6161 155.0022,-36.171 147.1009,-43.2293 153.227,-46.6161"/>
<g id="a_edge16&#45;headlabel"><a xlink:href="dir_000036_000063.html" target="_top" xlink:title="2">
<text text-anchor="middle" x="153.9728" y="-48.6357" font-family="Helvetica,sans-Serif" font-size="10.00" fill="#000000">2</text>
</a>
</g>
</g>
<!-- dir_4ab6b4cc6a7edbff49100e9123df213f&#45;&gt;dir_2171f7ec022c5423887b07c69b2f5b48 -->
<g id="edge17" class="edge">
<title>dir_4ab6b4cc6a7edbff49100e9123df213f&#45;&gt;dir_2171f7ec022c5423887b07c69b2f5b48</title>
<path fill="none" stroke="#000000" d="M305.9463,-359.8163C317.8323,-350.5299 331.8758,-338.1915 341,-324 367.7372,-282.4136 378.3603,-224.8055 385.1036,-190.6708"/>
<polygon fill="#000000" stroke="#000000" points="388.6163,-190.9589 387.1722,-180.463 381.7558,-189.5686 388.6163,-190.9589"/>
<g id="a_edge17&#45;headlabel"><a xlink:href="dir_000036_000090.html" target="_top" xlink:title="2">
<text text-anchor="middle" x="390.6852" y="-192.5458" font-family="Helvetica,sans-Serif" font-size="10.00" fill="#000000">2</text>
</a>
</g>
</g>
<!-- dir_37c90836491b695b472bf98d1be8336b&#45;&gt;dir_4ab6b4cc6a7edbff49100e9123df213f -->
<g id="edge18" class="edge">
<title>dir_37c90836491b695b472bf98d1be8336b&#45;&gt;dir_4ab6b4cc6a7edbff49100e9123df213f</title>
<path fill="none" stroke="#000000" d="M328.2628,-108.0948C332.6264,-148.0456 339.8785,-246.3987 317,-324 314.239,-333.3649 309.4911,-342.7889 304.4853,-351.0836"/>
<polygon fill="#000000" stroke="#000000" points="301.4857,-349.2775 299.0339,-359.5848 307.3782,-353.0562 301.4857,-349.2775"/>
<g id="a_edge18&#45;headlabel"><a xlink:href="dir_000287_000036.html" target="_top" xlink:title="16">
<text text-anchor="middle" x="301.0359" y="-342.219" font-family="Helvetica,sans-Serif" font-size="10.00" fill="#000000">16</text>
</a>
</g>
</g>
<!-- dir_37c90836491b695b472bf98d1be8336b&#45;&gt;dir_f511f1e9c03c071966ae594f00bbc5e0 -->
<g id="edge19" class="edge">
<title>dir_37c90836491b695b472bf98d1be8336b&#45;&gt;dir_f511f1e9c03c071966ae594f00bbc5e0</title>
<path fill="none" stroke="#000000" d="M328.8357,-108.4226C327.1128,-118.8273 323.6794,-132.0948 321,-144 310.4474,-190.8875 300.407,-245.9266 292.2069,-278.2755"/>
<polygon fill="#000000" stroke="#000000" points="288.8244,-277.3764 289.6108,-287.942 295.5848,-279.192 288.8244,-277.3764"/>
<g id="a_edge19&#45;headlabel"><a xlink:href="dir_000287_000740.html" target="_top" xlink:title="14">
<text text-anchor="middle" x="287.0145" y="-270.6684" font-family="Helvetica,sans-Serif" font-size="10.00" fill="#000000">14</text>
</a>
</g>
</g>
<!-- dir_37c90836491b695b472bf98d1be8336b&#45;&gt;dir_bcbb2cf9a3d3d83e5515c82071a07177 -->
<g id="edge20" class="edge">
<title>dir_37c90836491b695b472bf98d1be8336b&#45;&gt;dir_bcbb2cf9a3d3d83e5515c82071a07177</title>
<path fill="none" stroke="#000000" d="M298.6527,-77.4586C275.3119,-66.7545 241.2844,-51.1495 213.9455,-38.6119"/>
<polygon fill="#000000" stroke="#000000" points="215.1316,-35.3054 204.5828,-34.3182 212.2135,-41.6682 215.1316,-35.3054"/>
<g id="a_edge20&#45;headlabel"><a xlink:href="dir_000287_000063.html" target="_top" xlink:title="1">
<text text-anchor="middle" x="219.5825" y="-31.723" font-family="Helvetica,sans-Serif" font-size="10.00" fill="#000000">1</text>
</a>
</g>
</g>
<!-- dir_37c90836491b695b472bf98d1be8336b&#45;&gt;dir_2171f7ec022c5423887b07c69b2f5b48 -->
<g id="edge21" class="edge">
<title>dir_37c90836491b695b472bf98d1be8336b&#45;&gt;dir_2171f7ec022c5423887b07c69b2f5b48</title>
<path fill="none" stroke="#000000" d="M349.1056,-108.1628C357.9006,-116.6038 367.7127,-126.7956 375.9846,-136.0303"/>
<polygon fill="#000000" stroke="#000000" points="373.5806,-138.5987 382.7931,-143.8314 378.8545,-133.9958 373.5806,-138.5987"/>
<g id="a_edge21&#45;headlabel"><a xlink:href="dir_000287_000090.html" target="_top" xlink:title="15">
<text text-anchor="middle" x="369.0779" y="-135.2575" font-family="Helvetica,sans-Serif" font-size="10.00" fill="#000000">15</text>
</a>
</g>
</g>
<!-- dir_f511f1e9c03c071966ae594f00bbc5e0&#45;&gt;dir_677b030cc750909e4cd27413873678d8 -->
<g id="edge30" class="edge">
<title>dir_f511f1e9c03c071966ae594f00bbc5e0&#45;&gt;dir_677b030cc750909e4cd27413873678d8</title>
<path fill="none" stroke="#000000" d="M266.0032,-324.4353C258.6118,-334.4116 250.1924,-347.2722 245,-360 236.9162,-379.8154 232.6335,-403.6708 230.3895,-421.8416"/>
<polygon fill="#000000" stroke="#000000" points="226.9076,-421.4865 229.2906,-431.8098 233.8654,-422.2536 226.9076,-421.4865"/>
<g id="a_edge30&#45;headlabel"><a xlink:href="dir_000740_000060.html" target="_top" xlink:title="1">
<text text-anchor="middle" x="224.4792" y="-415.1024" font-family="Helvetica,sans-Serif" font-size="10.00" fill="#000000">1</text>
</a>
</g>
</g>
<!-- dir_f511f1e9c03c071966ae594f00bbc5e0&#45;&gt;dir_4ab6b4cc6a7edbff49100e9123df213f -->
<g id="edge31" class="edge">
<title>dir_f511f1e9c03c071966ae594f00bbc5e0&#45;&gt;dir_4ab6b4cc6a7edbff49100e9123df213f</title>
<path fill="none" stroke="#000000" d="M287.999,-324.4133C289.1549,-332.0593 289.8707,-341.1084 290.0362,-349.5726"/>
<polygon fill="#000000" stroke="#000000" points="286.5341,-349.8 289.943,-359.8314 293.5338,-349.8636 286.5341,-349.8"/>
<g id="a_edge31&#45;headlabel"><a xlink:href="dir_000740_000036.html" target="_top" xlink:title="4">
<text text-anchor="middle" x="283.7274" y="-343.6797" font-family="Helvetica,sans-Serif" font-size="10.00" fill="#000000">4</text>
</a>
</g>
</g>
<!-- dir_f511f1e9c03c071966ae594f00bbc5e0&#45;&gt;dir_37c90836491b695b472bf98d1be8336b -->
<g id="edge32" class="edge">
<title>dir_f511f1e9c03c071966ae594f00bbc5e0&#45;&gt;dir_37c90836491b695b472bf98d1be8336b</title>
<path fill="none" stroke="#000000" d="M278.5146,-287.942C280.2398,-257.9354 291.3054,-195.9619 303,-144 304.9049,-135.5361 307.1909,-126.3837 309.7436,-118.061"/>
<polygon fill="#000000" stroke="#000000" points="313.1147,-119.0166 312.9819,-108.4226 306.4792,-116.7872 313.1147,-119.0166"/>
<g id="a_edge32&#45;headlabel"><a xlink:href="dir_000740_000287.html" target="_top" xlink:title="1">
<text text-anchor="middle" x="314.6613" y="-120.8283" font-family="Helvetica,sans-Serif" font-size="10.00" fill="#000000">1</text>
</a>
</g>
</g>
<!-- dir_f511f1e9c03c071966ae594f00bbc5e0&#45;&gt;dir_26637d1bd82229bc9ed97f7e706be743 -->
<g id="edge33" class="edge">
<title>dir_f511f1e9c03c071966ae594f00bbc5e0&#45;&gt;dir_26637d1bd82229bc9ed97f7e706be743</title>
<path fill="none" stroke="#000000" d="M253.9473,-292.1177C237.5904,-282.4438 216.8158,-269.2909 199.8451,-257.9444"/>
<polygon fill="#000000" stroke="#000000" points="201.6044,-254.9089 191.3608,-252.2035 197.6816,-260.7064 201.6044,-254.9089"/>
<g id="a_edge33&#45;headlabel"><a xlink:href="dir_000740_000628.html" target="_top" xlink:title="1">
<text text-anchor="middle" x="206.1727" y="-252.0718" font-family="Helvetica,sans-Serif" font-size="10.00" fill="#000000">1</text>
</a>
</g>
</g>
<!-- dir_f511f1e9c03c071966ae594f00bbc5e0&#45;&gt;dir_2171f7ec022c5423887b07c69b2f5b48 -->
<g id="edge34" class="edge">
<title>dir_f511f1e9c03c071966ae594f00bbc5e0&#45;&gt;dir_2171f7ec022c5423887b07c69b2f5b48</title>
<path fill="none" stroke="#000000" d="M290.6384,-287.7623C307.9708,-262.4436 343.7958,-216.5182 368.4985,-187.7251"/>
<polygon fill="#000000" stroke="#000000" points="371.2196,-189.9299 375.1464,-180.0896 365.9402,-185.3333 371.2196,-189.9299"/>
<g id="a_edge34&#45;headlabel"><a xlink:href="dir_000740_000090.html" target="_top" xlink:title="19">
<text text-anchor="middle" x="371.0006" y="-192.0053" font-family="Helvetica,sans-Serif" font-size="10.00" fill="#000000">19</text>
</a>
</g>
</g>
<!-- dir_bcbb2cf9a3d3d83e5515c82071a07177&#45;&gt;dir_a3959ed40b1558172144f5e1a56e443f -->
<g id="edge36" class="edge">
<title>dir_bcbb2cf9a3d3d83e5515c82071a07177&#45;&gt;dir_a3959ed40b1558172144f5e1a56e443f</title>
<path fill="none" stroke="#000000" d="M204.5616,-20.7433C317.0889,-30.3887 658,-67.4153 658,-162 658,-234 658,-234 658,-234 658,-346.2956 512.0512,-412.6139 441.856,-438.0161"/>
<polygon fill="#000000" stroke="#000000" points="440.3407,-434.8393 432.0754,-441.4677 442.6702,-441.4403 440.3407,-434.8393"/>
<g id="a_edge36&#45;headlabel"><a xlink:href="dir_000063_000319.html" target="_top" xlink:title="1">
<text text-anchor="middle" x="442.7856" y="-428.4656" font-family="Helvetica,sans-Serif" font-size="10.00" fill="#000000">1</text>
</a>
</g>
</g>
<!-- dir_bcbb2cf9a3d3d83e5515c82071a07177&#45;&gt;dir_4ab6b4cc6a7edbff49100e9123df213f -->
<g id="edge35" class="edge">
<title>dir_bcbb2cf9a3d3d83e5515c82071a07177&#45;&gt;dir_4ab6b4cc6a7edbff49100e9123df213f</title>
<path fill="none" stroke="#000000" d="M164.4833,-36.171C149.4526,-76.6877 109.3536,-176.7785 142,-252 162.2936,-298.7593 210.302,-333.7118 245.2138,-354.7959"/>
<polygon fill="#000000" stroke="#000000" points="243.8388,-358.0483 254.2303,-360.1145 247.3954,-352.0191 243.8388,-358.0483"/>
<g id="a_edge35&#45;headlabel"><a xlink:href="dir_000063_000036.html" target="_top" xlink:title="8">
<text text-anchor="middle" x="239.3002" y="-356.1676" font-family="Helvetica,sans-Serif" font-size="10.00" fill="#000000">8</text>
</a>
</g>
</g>
<!-- dir_bcbb2cf9a3d3d83e5515c82071a07177&#45;&gt;dir_2171f7ec022c5423887b07c69b2f5b48 -->
<g id="edge37" class="edge">
<title>dir_bcbb2cf9a3d3d83e5515c82071a07177&#45;&gt;dir_2171f7ec022c5423887b07c69b2f5b48</title>
<path fill="none" stroke="#000000" d="M204.6415,-22.9517C256.1808,-31.4186 347.3459,-49.9198 371,-72 388.1604,-88.0186 396.1273,-113.841 398.2991,-133.7269"/>
<polygon fill="#000000" stroke="#000000" points="394.8106,-134.0203 398.9283,-143.7821 401.7969,-133.583 394.8106,-134.0203"/>
<g id="a_edge37&#45;headlabel"><a xlink:href="dir_000063_000090.html" target="_top" xlink:title="73">
<text text-anchor="middle" x="391.7524" y="-128.11" font-family="Helvetica,sans-Serif" font-size="10.00" fill="#000000">73</text>
</a>
</g>
</g>
<!-- dir_26637d1bd82229bc9ed97f7e706be743&#45;&gt;dir_4ab6b4cc6a7edbff49100e9123df213f -->
<g id="edge38" class="edge">
<title>dir_26637d1bd82229bc9ed97f7e706be743&#45;&gt;dir_4ab6b4cc6a7edbff49100e9123df213f</title>
<path fill="none" stroke="#000000" d="M183.5722,-252.0896C203.8159,-277.2198 240.5769,-322.8541 263.8422,-351.7351"/>
<polygon fill="#000000" stroke="#000000" points="261.3095,-354.1704 270.3085,-359.7623 266.7608,-349.7791 261.3095,-354.1704"/>
<g id="a_edge38&#45;headlabel"><a xlink:href="dir_000628_000036.html" target="_top" xlink:title="10">
<text text-anchor="middle" x="256.8435" y="-350.6523" font-family="Helvetica,sans-Serif" font-size="10.00" fill="#000000">10</text>
</a>
</g>
</g>
<!-- dir_26637d1bd82229bc9ed97f7e706be743&#45;&gt;dir_f511f1e9c03c071966ae594f00bbc5e0 -->
<g id="edge39" class="edge">
<title>dir_26637d1bd82229bc9ed97f7e706be743&#45;&gt;dir_f511f1e9c03c071966ae594f00bbc5e0</title>
<path fill="none" stroke="#000000" d="M196.3778,-248.0747C212.7156,-257.7487 233.3761,-270.8346 250.2526,-282.121"/>
<polygon fill="#000000" stroke="#000000" points="248.4467,-285.125 258.6901,-287.8314 252.3702,-279.3278 248.4467,-285.125"/>
<g id="a_edge39&#45;headlabel"><a xlink:href="dir_000628_000740.html" target="_top" xlink:title="2">
<text text-anchor="middle" x="243.8784" y="-282.9616" font-family="Helvetica,sans-Serif" font-size="10.00" fill="#000000">2</text>
</a>
</g>
</g>
<!-- dir_26637d1bd82229bc9ed97f7e706be743&#45;&gt;dir_bcbb2cf9a3d3d83e5515c82071a07177 -->
<g id="edge40" class="edge">
<title>dir_26637d1bd82229bc9ed97f7e706be743&#45;&gt;dir_bcbb2cf9a3d3d83e5515c82071a07177</title>
<path fill="none" stroke="#000000" d="M169,-215.9555C169,-178.3938 169,-91.5541 169,-46.4103"/>
<polygon fill="#000000" stroke="#000000" points="172.5001,-46.145 169,-36.1451 165.5001,-46.1451 172.5001,-46.145"/>
<g id="a_edge40&#45;headlabel"><a xlink:href="dir_000628_000063.html" target="_top" xlink:title="25">
<text text-anchor="middle" x="175.3393" y="-47.2397" font-family="Helvetica,sans-Serif" font-size="10.00" fill="#000000">25</text>
</a>
</g>
</g>
<!-- dir_26637d1bd82229bc9ed97f7e706be743&#45;&gt;dir_2171f7ec022c5423887b07c69b2f5b48 -->
<g id="edge41" class="edge">
<title>dir_26637d1bd82229bc9ed97f7e706be743&#45;&gt;dir_2171f7ec022c5423887b07c69b2f5b48</title>
<path fill="none" stroke="#000000" d="M196.1403,-225.3151C232.7277,-213.6071 298.5361,-192.5484 344.1585,-177.9493"/>
<polygon fill="#000000" stroke="#000000" points="345.3981,-181.2275 353.8556,-174.8462 343.2646,-174.5605 345.3981,-181.2275"/>
<g id="a_edge41&#45;headlabel"><a xlink:href="dir_000628_000090.html" target="_top" xlink:title="15">
<text text-anchor="middle" x="342.8398" y="-182.5272" font-family="Helvetica,sans-Serif" font-size="10.00" fill="#000000">15</text>
</a>
</g>
</g>
<!-- dir_2171f7ec022c5423887b07c69b2f5b48&#45;&gt;dir_4ab6b4cc6a7edbff49100e9123df213f -->
<g id="edge42" class="edge">
<title>dir_2171f7ec022c5423887b07c69b2f5b48&#45;&gt;dir_4ab6b4cc6a7edbff49100e9123df213f</title>
<path fill="none" stroke="#000000" d="M398.0433,-180.463C398.4709,-212.1486 388.6308,-277.9129 359,-324 350.2787,-337.5648 337.063,-349.4366 324.1079,-358.5683"/>
<polygon fill="#000000" stroke="#000000" points="322.0763,-355.716 315.6821,-364.1637 325.9488,-361.5473 322.0763,-355.716"/>
<g id="a_edge42&#45;headlabel"><a xlink:href="dir_000090_000036.html" target="_top" xlink:title="38">
<text text-anchor="middle" x="323.5001" y="-348.8622" font-family="Helvetica,sans-Serif" font-size="10.00" fill="#000000">38</text>
</a>
</g>
</g>
<!-- dir_2171f7ec022c5423887b07c69b2f5b48&#45;&gt;dir_37c90836491b695b472bf98d1be8336b -->
<g id="edge43" class="edge">
<title>dir_2171f7ec022c5423887b07c69b2f5b48&#45;&gt;dir_37c90836491b695b472bf98d1be8336b</title>
<path fill="none" stroke="#000000" d="M370.8883,-143.8314C362.16,-135.454 352.4306,-125.3531 344.1994,-116.1749"/>
<polygon fill="#000000" stroke="#000000" points="346.631,-113.6386 337.4143,-108.4133 341.3608,-118.2457 346.631,-113.6386"/>
<g id="a_edge43&#45;headlabel"><a xlink:href="dir_000090_000287.html" target="_top" xlink:title="1">
<text text-anchor="middle" x="351.1344" y="-111.9762" font-family="Helvetica,sans-Serif" font-size="10.00" fill="#000000">1</text>
</a>
</g>
</g>
<!-- dir_2171f7ec022c5423887b07c69b2f5b48&#45;&gt;dir_f511f1e9c03c071966ae594f00bbc5e0 -->
<g id="edge44" class="edge">
<title>dir_2171f7ec022c5423887b07c69b2f5b48&#45;&gt;dir_f511f1e9c03c071966ae594f00bbc5e0</title>
<path fill="none" stroke="#000000" d="M384.463,-180.0896C367.2028,-205.3276 331.3924,-251.2462 306.6463,-280.1061"/>
<polygon fill="#000000" stroke="#000000" points="303.9083,-277.9208 299.9847,-287.7623 309.1892,-282.5156 303.9083,-277.9208"/>
<g id="a_edge44&#45;headlabel"><a xlink:href="dir_000090_000740.html" target="_top" xlink:title="24">
<text text-anchor="middle" x="304.1259" y="-270.8453" font-family="Helvetica,sans-Serif" font-size="10.00" fill="#000000">24</text>
</a>
</g>
</g>
<!-- dir_2171f7ec022c5423887b07c69b2f5b48&#45;&gt;dir_bcbb2cf9a3d3d83e5515c82071a07177 -->
<g id="edge45" class="edge">
<title>dir_2171f7ec022c5423887b07c69b2f5b48&#45;&gt;dir_bcbb2cf9a3d3d83e5515c82071a07177</title>
<path fill="none" stroke="#000000" d="M385.9252,-143.7821C380.694,-123.4394 373.2446,-90.8976 353,-72 332.6808,-53.0328 262.5451,-36.7066 214.8795,-27.1132"/>
<polygon fill="#000000" stroke="#000000" points="215.2682,-23.6222 204.7786,-25.1118 213.9076,-30.4887 215.2682,-23.6222"/>
<g id="a_edge45&#45;headlabel"><a xlink:href="dir_000090_000063.html" target="_top" xlink:title="21">
<text text-anchor="middle" x="219.3461" y="-19.0357" font-family="Helvetica,sans-Serif" font-size="10.00" fill="#000000">21</text>
</a>
</g>
</g>
</g>
</svg>
