<?xml version="1.0" encoding="UTF-8" standalone="no"?>
<!DOCTYPE svg PUBLIC "-//W3C//DTD SVG 1.1//EN"
 "http://www.w3.org/Graphics/SVG/1.1/DTD/svg11.dtd">
<!-- Generated by graphviz version 2.40.1 (20161225.0304)
 -->
<!-- Title: /home/travis/build/AliceO2Group/AliceO2/DataFormats/Reconstruction Pages: 1 -->
<svg width="421pt" height="375pt"
 viewBox="0.00 0.00 420.50 375.00" xmlns="http://www.w3.org/2000/svg" xmlns:xlink="http://www.w3.org/1999/xlink">
<g id="graph0" class="graph" transform="scale(1 1) rotate(0) translate(4 371)">
<title>/home/travis/build/AliceO2Group/AliceO2/DataFormats/Reconstruction</title>
<g id="clust1" class="cluster">
<title>clusterdir_2171f7ec022c5423887b07c69b2f5b48</title>
<g id="a_clust1"><a xlink:href="dir_2171f7ec022c5423887b07c69b2f5b48.html" target="_top" xlink:title="DataFormats">
<polygon fill="#ddddee" stroke="#000000" points="8,-200 8,-359 273,-359 273,-200 8,-200"/>
<text text-anchor="middle" x="140.5" y="-347" font-family="Helvetica,sans-Serif" font-size="10.00" fill="#000000">DataFormats</text>
</a>
</g>
</g>
<g id="clust2" class="cluster">
<title>clusterdir_d269712cc31e133b892a3b3f6424741a</title>
<g id="a_clust2"><a xlink:href="dir_d269712cc31e133b892a3b3f6424741a.html" target="_top">
<polygon fill="#eeeeff" stroke="#000000" points="16,-208 16,-332 265,-332 265,-208 16,-208"/>
</a>
</g>
</g>
<!-- dir_d269712cc31e133b892a3b3f6424741a -->
<g id="node1" class="node">
<title>dir_d269712cc31e133b892a3b3f6424741a</title>
<text text-anchor="middle" x="213" y="-303.5" font-family="Helvetica,sans-Serif" font-size="10.00" fill="#000000">Reconstruction</text>
</g>
<!-- dir_99c43ad88135ecdb15d6d5c818628268 -->
<g id="node2" class="node">
<title>dir_99c43ad88135ecdb15d6d5c818628268</title>
<g id="a_node2"><a xlink:href="dir_99c43ad88135ecdb15d6d5c818628268.html" target="_top" xlink:title="include">
<polygon fill="#ffffff" stroke="#ff0000" points="150,-252 96,-252 96,-216 150,-216 150,-252"/>
<text text-anchor="middle" x="123" y="-231.5" font-family="Helvetica,sans-Serif" font-size="10.00" fill="#000000">include</text>
</a>
</g>
</g>
<!-- dir_4ab6b4cc6a7edbff49100e9123df213f -->
<g id="node5" class="node">
<title>dir_4ab6b4cc6a7edbff49100e9123df213f</title>
<g id="a_node5"><a xlink:href="dir_4ab6b4cc6a7edbff49100e9123df213f.html" target="_top" xlink:title="Common">
<polygon fill="none" stroke="#ff0000" points="342.5,-252 281.5,-252 281.5,-216 342.5,-216 342.5,-252"/>
<text text-anchor="middle" x="312" y="-231.5" font-family="Helvetica,sans-Serif" font-size="10.00" fill="#000000">Common</text>
</a>
</g>
</g>
<!-- dir_99c43ad88135ecdb15d6d5c818628268&#45;&gt;dir_4ab6b4cc6a7edbff49100e9123df213f -->
<g id="edge18" class="edge">
<title>dir_99c43ad88135ecdb15d6d5c818628268&#45;&gt;dir_4ab6b4cc6a7edbff49100e9123df213f</title>
<path fill="none" stroke="#000000" d="M150.3164,-234C190.5876,-234 230.8589,-234 271.1301,-234"/>
<polygon fill="#000000" stroke="#000000" points="271.3686,-237.5001 281.3685,-234 271.3685,-230.5001 271.3686,-237.5001"/>
<g id="a_edge18&#45;headlabel"><a xlink:href="dir_000247_000036.html" target="_top" xlink:title="9">
<text text-anchor="middle" x="267.7739" y="-237.8393" font-family="Helvetica,sans-Serif" font-size="10.00" fill="#000000">9</text>
</a>
</g>
</g>
<!-- dir_2801adc79bf3c286b1b479858d2cade4 -->
<g id="node6" class="node">
<title>dir_2801adc79bf3c286b1b479858d2cade4</title>
<g id="a_node6"><a xlink:href="dir_2801adc79bf3c286b1b479858d2cade4.html" target="_top" xlink:title="Detectors">
<polygon fill="none" stroke="#ff0000" points="274,-180 210,-180 210,-144 274,-144 274,-180"/>
<text text-anchor="middle" x="242" y="-159.5" font-family="Helvetica,sans-Serif" font-size="10.00" fill="#000000">Detectors</text>
</a>
</g>
</g>
<!-- dir_99c43ad88135ecdb15d6d5c818628268&#45;&gt;dir_2801adc79bf3c286b1b479858d2cade4 -->
<g id="edge19" class="edge">
<title>dir_99c43ad88135ecdb15d6d5c818628268&#45;&gt;dir_2801adc79bf3c286b1b479858d2cade4</title>
<path fill="none" stroke="#000000" d="M147.0763,-215.8314C162.5255,-205.8983 182.8605,-193.5422 200.7909,-183.1741"/>
<polygon fill="#000000" stroke="#000000" points="202.968,-185.9609 209.9095,-177.9568 199.4916,-179.8851 202.968,-185.9609"/>
<g id="a_edge19&#45;headlabel"><a xlink:href="dir_000247_000100.html" target="_top" xlink:title="1">
<text text-anchor="middle" x="201.2579" y="-187.7104" font-family="Helvetica,sans-Serif" font-size="10.00" fill="#000000">1</text>
</a>
</g>
</g>
<!-- dir_7924ba4398ae4560cd37376e44666c6d -->
<g id="node7" class="node">
<title>dir_7924ba4398ae4560cd37376e44666c6d</title>
<g id="a_node7"><a xlink:href="dir_7924ba4398ae4560cd37376e44666c6d.html" target="_top" xlink:title="common">
<polygon fill="none" stroke="#ff0000" points="204.5,-108 145.5,-108 145.5,-72 204.5,-72 204.5,-108"/>
<text text-anchor="middle" x="175" y="-87.5" font-family="Helvetica,sans-Serif" font-size="10.00" fill="#000000">common</text>
</a>
</g>
</g>
<!-- dir_99c43ad88135ecdb15d6d5c818628268&#45;&gt;dir_7924ba4398ae4560cd37376e44666c6d -->
<g id="edge20" class="edge">
<title>dir_99c43ad88135ecdb15d6d5c818628268&#45;&gt;dir_7924ba4398ae4560cd37376e44666c6d</title>
<path fill="none" stroke="#000000" d="M129.5858,-215.7623C138.5333,-190.9846 154.6076,-146.4714 165.0355,-117.5939"/>
<polygon fill="#000000" stroke="#000000" points="168.3631,-118.6839 168.4676,-108.0896 161.7792,-116.3064 168.3631,-118.6839"/>
<g id="a_edge20&#45;headlabel"><a xlink:href="dir_000247_000091.html" target="_top" xlink:title="6">
<text text-anchor="middle" x="169.8127" y="-120.5292" font-family="Helvetica,sans-Serif" font-size="10.00" fill="#000000">6</text>
</a>
</g>
</g>
<!-- dir_f511f1e9c03c071966ae594f00bbc5e0 -->
<g id="node8" class="node">
<title>dir_f511f1e9c03c071966ae594f00bbc5e0</title>
<g id="a_node8"><a xlink:href="dir_f511f1e9c03c071966ae594f00bbc5e0.html" target="_top" xlink:title="GPU">
<polygon fill="none" stroke="#ff0000" points="269,-36 215,-36 215,0 269,0 269,-36"/>
<text text-anchor="middle" x="242" y="-15.5" font-family="Helvetica,sans-Serif" font-size="10.00" fill="#000000">GPU</text>
</a>
</g>
</g>
<!-- dir_99c43ad88135ecdb15d6d5c818628268&#45;&gt;dir_f511f1e9c03c071966ae594f00bbc5e0 -->
<g id="edge21" class="edge">
<title>dir_99c43ad88135ecdb15d6d5c818628268&#45;&gt;dir_f511f1e9c03c071966ae594f00bbc5e0</title>
<path fill="none" stroke="#000000" d="M109.2037,-215.5772C102.5974,-205.6044 95.3977,-192.743 92,-180 79.6337,-133.6203 64.3994,-111.2709 92,-72 105.2864,-53.0958 165.0485,-35.8802 205.0107,-26.192"/>
<polygon fill="#000000" stroke="#000000" points="206.0289,-29.5477 214.9528,-23.8369 204.4153,-22.7362 206.0289,-29.5477"/>
<g id="a_edge21&#45;headlabel"><a xlink:href="dir_000247_000740.html" target="_top" xlink:title="5">
<text text-anchor="middle" x="203.1855" y="-30.639" font-family="Helvetica,sans-Serif" font-size="10.00" fill="#000000">5</text>
</a>
</g>
</g>
<!-- dir_46bf9eb01275b6b66c6fbadfa4838276 -->
<g id="node3" class="node">
<title>dir_46bf9eb01275b6b66c6fbadfa4838276</title>
<g id="a_node3"><a xlink:href="dir_46bf9eb01275b6b66c6fbadfa4838276.html" target="_top" xlink:title="src">
<polygon fill="#ffffff" stroke="#000000" points="150,-324 96,-324 96,-288 150,-288 150,-324"/>
<text text-anchor="middle" x="123" y="-303.5" font-family="Helvetica,sans-Serif" font-size="10.00" fill="#000000">src</text>
</a>
</g>
</g>
<!-- dir_46bf9eb01275b6b66c6fbadfa4838276&#45;&gt;dir_99c43ad88135ecdb15d6d5c818628268 -->
<g id="edge6" class="edge">
<title>dir_46bf9eb01275b6b66c6fbadfa4838276&#45;&gt;dir_99c43ad88135ecdb15d6d5c818628268</title>
<path fill="none" stroke="#000000" d="M123,-287.8314C123,-280.131 123,-270.9743 123,-262.4166"/>
<polygon fill="#000000" stroke="#000000" points="126.5001,-262.4132 123,-252.4133 119.5001,-262.4133 126.5001,-262.4132"/>
<g id="a_edge6&#45;headlabel"><a xlink:href="dir_000275_000247.html" target="_top" xlink:title="17">
<text text-anchor="middle" x="129.3393" y="-263.5079" font-family="Helvetica,sans-Serif" font-size="10.00" fill="#000000">17</text>
</a>
</g>
</g>
<!-- dir_46bf9eb01275b6b66c6fbadfa4838276&#45;&gt;dir_4ab6b4cc6a7edbff49100e9123df213f -->
<g id="edge5" class="edge">
<title>dir_46bf9eb01275b6b66c6fbadfa4838276&#45;&gt;dir_4ab6b4cc6a7edbff49100e9123df213f</title>
<path fill="none" stroke="#000000" d="M150.2941,-292.217C153.5371,-290.73 156.8233,-289.2906 160,-288 207.2666,-268.7977 221.2113,-269.8634 269,-252 269.8623,-251.6777 270.7329,-251.3485 271.6093,-251.0136"/>
<polygon fill="#000000" stroke="#000000" points="273.0924,-254.1911 281.1113,-247.2666 270.5245,-247.6791 273.0924,-254.1911"/>
<g id="a_edge5&#45;headlabel"><a xlink:href="dir_000275_000036.html" target="_top" xlink:title="2">
<text text-anchor="middle" x="270.7899" y="-255.651" font-family="Helvetica,sans-Serif" font-size="10.00" fill="#000000">2</text>
</a>
</g>
</g>
<!-- dir_bcbb2cf9a3d3d83e5515c82071a07177 -->
<g id="node9" class="node">
<title>dir_bcbb2cf9a3d3d83e5515c82071a07177</title>
<g id="a_node9"><a xlink:href="dir_bcbb2cf9a3d3d83e5515c82071a07177.html" target="_top" xlink:title="Framework">
<polygon fill="none" stroke="#ff0000" points="412.5,-108 341.5,-108 341.5,-72 412.5,-72 412.5,-108"/>
<text text-anchor="middle" x="377" y="-87.5" font-family="Helvetica,sans-Serif" font-size="10.00" fill="#000000">Framework</text>
</a>
</g>
</g>
<!-- dir_46bf9eb01275b6b66c6fbadfa4838276&#45;&gt;dir_bcbb2cf9a3d3d83e5515c82071a07177 -->
<g id="edge7" class="edge">
<title>dir_46bf9eb01275b6b66c6fbadfa4838276&#45;&gt;dir_bcbb2cf9a3d3d83e5515c82071a07177</title>
<path fill="none" stroke="#000000" d="M150.1375,-291.7912C153.4086,-290.3806 156.7442,-289.0755 160,-288 242.4385,-260.7664 289.9964,-312.7728 352,-252 387.5153,-217.1897 386.193,-154.4171 381.7762,-118.0777"/>
<polygon fill="#000000" stroke="#000000" points="385.2396,-117.5714 380.4102,-108.1413 378.3048,-118.5248 385.2396,-117.5714"/>
<g id="a_edge7&#45;headlabel"><a xlink:href="dir_000275_000063.html" target="_top" xlink:title="4">
<text text-anchor="middle" x="388.5419" y="-118.2459" font-family="Helvetica,sans-Serif" font-size="10.00" fill="#000000">4</text>
</a>
</g>
</g>
<!-- dir_c5b7346fd504360471cc9fe5be83ae72 -->
<g id="node4" class="node">
<title>dir_c5b7346fd504360471cc9fe5be83ae72</title>
<g id="a_node4"><a xlink:href="dir_c5b7346fd504360471cc9fe5be83ae72.html" target="_top" xlink:title="test">
<polygon fill="#ffffff" stroke="#000000" points="78,-324 24,-324 24,-288 78,-288 78,-324"/>
<text text-anchor="middle" x="51" y="-303.5" font-family="Helvetica,sans-Serif" font-size="10.00" fill="#000000">test</text>
</a>
</g>
</g>
<!-- dir_c5b7346fd504360471cc9fe5be83ae72&#45;&gt;dir_99c43ad88135ecdb15d6d5c818628268 -->
<g id="edge17" class="edge">
<title>dir_c5b7346fd504360471cc9fe5be83ae72&#45;&gt;dir_99c43ad88135ecdb15d6d5c818628268</title>
<path fill="none" stroke="#000000" d="M69.1686,-287.8314C77.7152,-279.2848 88.0557,-268.9443 97.3802,-259.6198"/>
<polygon fill="#000000" stroke="#000000" points="99.9905,-261.9592 104.5867,-252.4133 95.0408,-257.0095 99.9905,-261.9592"/>
<g id="a_edge17&#45;headlabel"><a xlink:href="dir_000277_000247.html" target="_top" xlink:title="4">
<text text-anchor="middle" x="99.4564" y="-264.0087" font-family="Helvetica,sans-Serif" font-size="10.00" fill="#000000">4</text>
</a>
</g>
</g>
<!-- dir_c5b7346fd504360471cc9fe5be83ae72&#45;&gt;dir_4ab6b4cc6a7edbff49100e9123df213f -->
<g id="edge15" class="edge">
<title>dir_c5b7346fd504360471cc9fe5be83ae72&#45;&gt;dir_4ab6b4cc6a7edbff49100e9123df213f</title>
<path fill="none" stroke="#000000" d="M78.1898,-291.459C81.1181,-290.1793 84.0908,-288.9947 87,-288 165.0213,-261.3224 190.1265,-276.0412 269,-252 269.8806,-251.7316 270.7678,-251.4515 271.6593,-251.1613"/>
<polygon fill="#000000" stroke="#000000" points="273.0256,-254.3901 281.2704,-247.7362 270.6758,-247.7963 273.0256,-254.3901"/>
<g id="a_edge15&#45;headlabel"><a xlink:href="dir_000277_000036.html" target="_top" xlink:title="1">
<text text-anchor="middle" x="270.5927" y="-255.7712" font-family="Helvetica,sans-Serif" font-size="10.00" fill="#000000">1</text>
</a>
</g>
</g>
<!-- dir_c5b7346fd504360471cc9fe5be83ae72&#45;&gt;dir_7924ba4398ae4560cd37376e44666c6d -->
<g id="edge16" class="edge">
<title>dir_c5b7346fd504360471cc9fe5be83ae72&#45;&gt;dir_7924ba4398ae4560cd37376e44666c6d</title>
<path fill="none" stroke="#000000" d="M55.0852,-287.9606C60.4613,-266.2135 71.1289,-228.9781 87,-200 104.2925,-168.4267 130.7924,-136.7951 150.1946,-115.6105"/>
<polygon fill="#000000" stroke="#000000" points="153.0021,-117.7311 157.2491,-108.0247 147.8761,-112.9641 153.0021,-117.7311"/>
<g id="a_edge16&#45;headlabel"><a xlink:href="dir_000277_000091.html" target="_top" xlink:title="1">
<text text-anchor="middle" x="152.6333" y="-119.7969" font-family="Helvetica,sans-Serif" font-size="10.00" fill="#000000">1</text>
</a>
</g>
</g>
<!-- dir_4ab6b4cc6a7edbff49100e9123df213f&#45;&gt;dir_99c43ad88135ecdb15d6d5c818628268 -->
<g id="edge2" class="edge">
<title>dir_4ab6b4cc6a7edbff49100e9123df213f&#45;&gt;dir_99c43ad88135ecdb15d6d5c818628268</title>
<path fill="none" stroke="#000000" d="M281.3685,-234C241.0973,-234 200.8261,-234 160.5549,-234"/>
<polygon fill="#000000" stroke="#000000" points="160.3164,-230.5001 150.3164,-234 160.3164,-237.5001 160.3164,-230.5001"/>
<g id="a_edge2&#45;headlabel"><a xlink:href="dir_000036_000247.html" target="_top" xlink:title="1">
<text text-anchor="middle" x="163.911" y="-225.1607" font-family="Helvetica,sans-Serif" font-size="10.00" fill="#000000">1</text>
</a>
</g>
</g>
<!-- dir_4ab6b4cc6a7edbff49100e9123df213f&#45;&gt;dir_2801adc79bf3c286b1b479858d2cade4 -->
<g id="edge1" class="edge">
<title>dir_4ab6b4cc6a7edbff49100e9123df213f&#45;&gt;dir_2801adc79bf3c286b1b479858d2cade4</title>
<path fill="none" stroke="#000000" d="M288.3837,-215.8314C279.3321,-207.3694 269.2103,-197.1489 260.6698,-187.8971"/>
<polygon fill="#000000" stroke="#000000" points="263.2202,-185.499 253.9258,-180.4133 258.0201,-190.185 263.2202,-185.499"/>
<g id="a_edge1&#45;headlabel"><a xlink:href="dir_000036_000100.html" target="_top" xlink:title="1">
<text text-anchor="middle" x="267.7357" y="-183.7686" font-family="Helvetica,sans-Serif" font-size="10.00" fill="#000000">1</text>
</a>
</g>
</g>
<!-- dir_4ab6b4cc6a7edbff49100e9123df213f&#45;&gt;dir_f511f1e9c03c071966ae594f00bbc5e0 -->
<g id="edge3" class="edge">
<title>dir_4ab6b4cc6a7edbff49100e9123df213f&#45;&gt;dir_f511f1e9c03c071966ae594f00bbc5e0</title>
<path fill="none" stroke="#000000" d="M301.9348,-215.7948C290.8155,-185.5765 274.2939,-123.3057 256,-72 252.9343,-63.4022 249.198,-54.2097 246.0213,-45.8913"/>
<polygon fill="#000000" stroke="#000000" points="249.2273,-44.4673 242.5066,-36.2769 242.6528,-46.8708 249.2273,-44.4673"/>
<g id="a_edge3&#45;headlabel"><a xlink:href="dir_000036_000740.html" target="_top" xlink:title="6">
<text text-anchor="middle" x="253.1281" y="-44.3686" font-family="Helvetica,sans-Serif" font-size="10.00" fill="#000000">6</text>
</a>
</g>
</g>
<!-- dir_4ab6b4cc6a7edbff49100e9123df213f&#45;&gt;dir_bcbb2cf9a3d3d83e5515c82071a07177 -->
<g id="edge4" class="edge">
<title>dir_4ab6b4cc6a7edbff49100e9123df213f&#45;&gt;dir_bcbb2cf9a3d3d83e5515c82071a07177</title>
<path fill="none" stroke="#000000" d="M315.5591,-215.7623C324.3,-190.8764 344.2705,-146.0822 359.2942,-117.2165"/>
<polygon fill="#000000" stroke="#000000" points="362.5458,-118.5582 364.1763,-108.0896 356.3733,-115.2565 362.5458,-118.5582"/>
<g id="a_edge4&#45;headlabel"><a xlink:href="dir_000036_000063.html" target="_top" xlink:title="2">
<text text-anchor="middle" x="363.3539" y="-120.5671" font-family="Helvetica,sans-Serif" font-size="10.00" fill="#000000">2</text>
</a>
</g>
</g>
<!-- dir_2801adc79bf3c286b1b479858d2cade4&#45;&gt;dir_99c43ad88135ecdb15d6d5c818628268 -->
<g id="edge10" class="edge">
<title>dir_2801adc79bf3c286b1b479858d2cade4&#45;&gt;dir_99c43ad88135ecdb15d6d5c818628268</title>
<path fill="none" stroke="#000000" d="M218.1809,-180.0032C201.1836,-190.9405 178.1808,-204.8615 158.9852,-215.8291"/>
<polygon fill="#000000" stroke="#000000" points="157.1779,-212.83 150.1905,-220.7941 160.6193,-218.9257 157.1779,-212.83"/>
<g id="a_edge10&#45;headlabel"><a xlink:href="dir_000100_000247.html" target="_top" xlink:title="6">
<text text-anchor="middle" x="158.9123" y="-206.0904" font-family="Helvetica,sans-Serif" font-size="10.00" fill="#000000">6</text>
</a>
</g>
</g>
<!-- dir_2801adc79bf3c286b1b479858d2cade4&#45;&gt;dir_4ab6b4cc6a7edbff49100e9123df213f -->
<g id="edge8" class="edge">
<title>dir_2801adc79bf3c286b1b479858d2cade4&#45;&gt;dir_4ab6b4cc6a7edbff49100e9123df213f</title>
<path fill="none" stroke="#000000" d="M265.6101,-180.1628C274.7308,-188.6891 284.9389,-199.0016 293.5212,-208.3099"/>
<polygon fill="#000000" stroke="#000000" points="290.998,-210.7384 300.2884,-215.8314 296.2018,-206.0564 290.998,-210.7384"/>
<g id="a_edge8&#45;headlabel"><a xlink:href="dir_000100_000036.html" target="_top" xlink:title="16">
<text text-anchor="middle" x="286.4831" y="-207.4652" font-family="Helvetica,sans-Serif" font-size="10.00" fill="#000000">16</text>
</a>
</g>
</g>
<!-- dir_2801adc79bf3c286b1b479858d2cade4&#45;&gt;dir_7924ba4398ae4560cd37376e44666c6d -->
<g id="edge9" class="edge">
<title>dir_2801adc79bf3c286b1b479858d2cade4&#45;&gt;dir_7924ba4398ae4560cd37376e44666c6d</title>
<path fill="none" stroke="#000000" d="M225.0931,-143.8314C217.2187,-135.3694 207.708,-125.1489 199.0987,-115.8971"/>
<polygon fill="#000000" stroke="#000000" points="201.5092,-113.3497 192.1346,-108.4133 196.3847,-118.1183 201.5092,-113.3497"/>
<g id="a_edge9&#45;headlabel"><a xlink:href="dir_000100_000091.html" target="_top" xlink:title="46">
<text text-anchor="middle" x="206.0364" y="-111.547" font-family="Helvetica,sans-Serif" font-size="10.00" fill="#000000">46</text>
</a>
</g>
</g>
<!-- dir_2801adc79bf3c286b1b479858d2cade4&#45;&gt;dir_f511f1e9c03c071966ae594f00bbc5e0 -->
<g id="edge11" class="edge">
<title>dir_2801adc79bf3c286b1b479858d2cade4&#45;&gt;dir_f511f1e9c03c071966ae594f00bbc5e0</title>
<path fill="none" stroke="#000000" d="M237.3268,-143.7623C234.867,-119.201 234.5923,-75.2474 236.5026,-46.3541"/>
<polygon fill="#000000" stroke="#000000" points="240.0152,-46.3416 237.3417,-36.0896 233.0385,-45.7712 240.0152,-46.3416"/>
<g id="a_edge11&#45;headlabel"><a xlink:href="dir_000100_000740.html" target="_top" xlink:title="10">
<text text-anchor="middle" x="242.5522" y="-47.6556" font-family="Helvetica,sans-Serif" font-size="10.00" fill="#000000">10</text>
</a>
</g>
</g>
<!-- dir_2801adc79bf3c286b1b479858d2cade4&#45;&gt;dir_bcbb2cf9a3d3d83e5515c82071a07177 -->
<g id="edge12" class="edge">
<title>dir_2801adc79bf3c286b1b479858d2cade4&#45;&gt;dir_bcbb2cf9a3d3d83e5515c82071a07177</title>
<path fill="none" stroke="#000000" d="M270.1138,-143.8314C288.0943,-133.716 311.6999,-121.0879 332.1964,-110.6054"/>
<polygon fill="#000000" stroke="#000000" points="334.0277,-113.6011 341.3636,-105.9568 330.8618,-107.3579 334.0277,-113.6011"/>
<g id="a_edge12&#45;headlabel"><a xlink:href="dir_000100_000063.html" target="_top" xlink:title="15">
<text text-anchor="middle" x="332.1058" y="-115.2591" font-family="Helvetica,sans-Serif" font-size="10.00" fill="#000000">15</text>
</a>
</g>
</g>
<!-- dir_7924ba4398ae4560cd37376e44666c6d&#45;&gt;dir_4ab6b4cc6a7edbff49100e9123df213f -->
<g id="edge13" class="edge">
<title>dir_7924ba4398ae4560cd37376e44666c6d&#45;&gt;dir_4ab6b4cc6a7edbff49100e9123df213f</title>
<path fill="none" stroke="#000000" d="M175.2954,-108.0894C176.614,-128.3143 181.8408,-160.7482 201,-180 223.2218,-202.3291 241.022,-185.5215 269,-200 274.0714,-202.6244 279.1276,-205.8863 283.8972,-209.3427"/>
<polygon fill="#000000" stroke="#000000" points="282.0578,-212.3441 292.1143,-215.6786 286.3322,-206.8006 282.0578,-212.3441"/>
<g id="a_edge13&#45;headlabel"><a xlink:href="dir_000091_000036.html" target="_top" xlink:title="2">
<text text-anchor="middle" x="277.4775" y="-209.8976" font-family="Helvetica,sans-Serif" font-size="10.00" fill="#000000">2</text>
</a>
</g>
</g>
<!-- dir_7924ba4398ae4560cd37376e44666c6d&#45;&gt;dir_f511f1e9c03c071966ae594f00bbc5e0 -->
<g id="edge14" class="edge">
<title>dir_7924ba4398ae4560cd37376e44666c6d&#45;&gt;dir_f511f1e9c03c071966ae594f00bbc5e0</title>
<path fill="none" stroke="#000000" d="M191.9069,-71.8314C199.7813,-63.3694 209.292,-53.1489 217.9013,-43.8971"/>
<polygon fill="#000000" stroke="#000000" points="220.6153,-46.1183 224.8654,-36.4133 215.4908,-41.3497 220.6153,-46.1183"/>
<g id="a_edge14&#45;headlabel"><a xlink:href="dir_000091_000740.html" target="_top" xlink:title="4">
<text text-anchor="middle" x="220.2451" y="-48.184" font-family="Helvetica,sans-Serif" font-size="10.00" fill="#000000">4</text>
</a>
</g>
</g>
<!-- dir_f511f1e9c03c071966ae594f00bbc5e0&#45;&gt;dir_99c43ad88135ecdb15d6d5c818628268 -->
<g id="edge24" class="edge">
<title>dir_f511f1e9c03c071966ae594f00bbc5e0&#45;&gt;dir_99c43ad88135ecdb15d6d5c818628268</title>
<path fill="none" stroke="#000000" d="M214.6081,-24.1265C189.9105,-31.2025 154.8177,-45.446 137,-72 109.9873,-112.2574 112.9166,-171.4062 117.7717,-205.9835"/>
<polygon fill="#000000" stroke="#000000" points="114.3151,-206.5335 119.3093,-215.8774 121.2321,-205.4585 114.3151,-206.5335"/>
<g id="a_edge24&#45;headlabel"><a xlink:href="dir_000740_000247.html" target="_top" xlink:title="1">
<text text-anchor="middle" x="110.9576" y="-200.9175" font-family="Helvetica,sans-Serif" font-size="10.00" fill="#000000">1</text>
</a>
</g>
</g>
<!-- dir_f511f1e9c03c071966ae594f00bbc5e0&#45;&gt;dir_4ab6b4cc6a7edbff49100e9123df213f -->
<g id="edge22" class="edge">
<title>dir_f511f1e9c03c071966ae594f00bbc5e0&#45;&gt;dir_4ab6b4cc6a7edbff49100e9123df213f</title>
<path fill="none" stroke="#000000" d="M258.3604,-36.2769C264.0487,-46.6361 269.6878,-59.9065 274,-72 290.4359,-118.095 305.4412,-173.0408 311.3768,-205.6409"/>
<polygon fill="#000000" stroke="#000000" points="307.9685,-206.4877 313.031,-215.7948 314.8774,-205.3621 307.9685,-206.4877"/>
<g id="a_edge22&#45;headlabel"><a xlink:href="dir_000740_000036.html" target="_top" xlink:title="4">
<text text-anchor="middle" x="304.5883" y="-200.8964" font-family="Helvetica,sans-Serif" font-size="10.00" fill="#000000">4</text>
</a>
</g>
</g>
<!-- dir_f511f1e9c03c071966ae594f00bbc5e0&#45;&gt;dir_2801adc79bf3c286b1b479858d2cade4 -->
<g id="edge23" class="edge">
<title>dir_f511f1e9c03c071966ae594f00bbc5e0&#45;&gt;dir_2801adc79bf3c286b1b479858d2cade4</title>
<path fill="none" stroke="#000000" d="M246.6583,-36.0896C249.1269,-60.5727 249.4104,-104.5174 247.5089,-133.4713"/>
<polygon fill="#000000" stroke="#000000" points="243.9942,-133.5118 246.6732,-143.7623 250.9712,-134.0785 243.9942,-133.5118"/>
<g id="a_edge23&#45;headlabel"><a xlink:href="dir_000740_000100.html" target="_top" xlink:title="14">
<text text-anchor="middle" x="241.4551" y="-127.1992" font-family="Helvetica,sans-Serif" font-size="10.00" fill="#000000">14</text>
</a>
</g>
</g>
<!-- dir_bcbb2cf9a3d3d83e5515c82071a07177&#45;&gt;dir_4ab6b4cc6a7edbff49100e9123df213f -->
<g id="edge25" class="edge">
<title>dir_bcbb2cf9a3d3d83e5515c82071a07177&#45;&gt;dir_4ab6b4cc6a7edbff49100e9123df213f</title>
<path fill="none" stroke="#000000" d="M373.4928,-108.0896C364.7966,-132.8962 344.8387,-177.6824 329.7953,-206.6113"/>
<polygon fill="#000000" stroke="#000000" points="326.5315,-205.293 324.9055,-215.7623 332.7053,-208.592 326.5315,-205.293"/>
<g id="a_edge25&#45;headlabel"><a xlink:href="dir_000063_000036.html" target="_top" xlink:title="8">
<text text-anchor="middle" x="325.7214" y="-198.2845" font-family="Helvetica,sans-Serif" font-size="10.00" fill="#000000">8</text>
</a>
</g>
</g>
<!-- dir_bcbb2cf9a3d3d83e5515c82071a07177&#45;&gt;dir_2801adc79bf3c286b1b479858d2cade4 -->
<g id="edge26" class="edge">
<title>dir_bcbb2cf9a3d3d83e5515c82071a07177&#45;&gt;dir_2801adc79bf3c286b1b479858d2cade4</title>
<path fill="none" stroke="#000000" d="M349.1261,-108.0336C330.1002,-118.7433 304.6967,-132.3056 283.3512,-143.1549"/>
<polygon fill="#000000" stroke="#000000" points="281.533,-140.1517 274.1754,-147.7751 284.6811,-146.4039 281.533,-140.1517"/>
<g id="a_edge26&#45;headlabel"><a xlink:href="dir_000063_000100.html" target="_top" xlink:title="2">
<text text-anchor="middle" x="283.4667" y="-133.4992" font-family="Helvetica,sans-Serif" font-size="10.00" fill="#000000">2</text>
</a>
</g>
</g>
</g>
</svg>
