<?xml version="1.0" encoding="UTF-8" standalone="no"?>
<!DOCTYPE svg PUBLIC "-//W3C//DTD SVG 1.1//EN"
 "http://www.w3.org/Graphics/SVG/1.1/DTD/svg11.dtd">
<!-- Generated by graphviz version 2.40.1 (20161225.0304)
 -->
<!-- Title: /home/travis/build/AliceO2Group/AliceO2/Analysis/Tasks Pages: 1 -->
<svg width="799pt" height="447pt"
 viewBox="0.00 0.00 798.52 447.00" xmlns="http://www.w3.org/2000/svg" xmlns:xlink="http://www.w3.org/1999/xlink">
<g id="graph0" class="graph" transform="scale(1 1) rotate(0) translate(4 443)">
<title>/home/travis/build/AliceO2Group/AliceO2/Analysis/Tasks</title>
<g id="clust1" class="cluster">
<title>clusterdir_19b17cb436010079e3d017a29cb7858f</title>
<g id="a_clust1"><a xlink:href="dir_19b17cb436010079e3d017a29cb7858f.html" target="_top" xlink:title="Analysis">
<polygon fill="#ddddee" stroke="#000000" points="8,-344 8,-431 676,-431 676,-344 8,-344"/>
<text text-anchor="middle" x="342" y="-419" font-family="Helvetica,sans-Serif" font-size="10.00" fill="#000000">Analysis</text>
</a>
</g>
</g>
<g id="clust2" class="cluster">
<title>clusterdir_eff7324435ca3301414fec6c28c4adf5</title>
<g id="a_clust2"><a xlink:href="dir_eff7324435ca3301414fec6c28c4adf5.html" target="_top">
<polygon fill="#eeeeff" stroke="#000000" points="16,-352 16,-404 668,-404 668,-352 16,-352"/>
</a>
</g>
</g>
<!-- dir_eff7324435ca3301414fec6c28c4adf5 -->
<g id="node1" class="node">
<title>dir_eff7324435ca3301414fec6c28c4adf5</title>
<text text-anchor="middle" x="633" y="-375.5" font-family="Helvetica,sans-Serif" font-size="10.00" fill="#000000">Tasks</text>
</g>
<!-- dir_6af676bf18881990e4083e191d0e63e0 -->
<g id="node10" class="node">
<title>dir_6af676bf18881990e4083e191d0e63e0</title>
<g id="a_node10"><a xlink:href="dir_6af676bf18881990e4083e191d0e63e0.html" target="_top" xlink:title="CCDB">
<polygon fill="none" stroke="#ff0000" points="648,-252 594,-252 594,-216 648,-216 648,-252"/>
<text text-anchor="middle" x="621" y="-231.5" font-family="Helvetica,sans-Serif" font-size="10.00" fill="#000000">CCDB</text>
</a>
</g>
</g>
<!-- dir_eff7324435ca3301414fec6c28c4adf5&#45;&gt;dir_6af676bf18881990e4083e191d0e63e0 -->
<g id="edge29" class="edge">
<title>dir_eff7324435ca3301414fec6c28c4adf5&#45;&gt;dir_6af676bf18881990e4083e191d0e63e0</title>
<path fill="none" stroke="#000000" d="M631.4802,-359.7623C629.4334,-335.201 625.7706,-291.2474 623.3628,-262.3541"/>
<polygon fill="#000000" stroke="#000000" points="626.8259,-261.7644 622.5075,-252.0896 619.8501,-262.3458 626.8259,-261.7644"/>
<g id="a_edge29&#45;headlabel"><a xlink:href="dir_000015_000028.html" target="_top" xlink:title="5">
<text text-anchor="middle" x="629.9538" y="-262.6108" font-family="Helvetica,sans-Serif" font-size="10.00" fill="#000000">5</text>
</a>
</g>
</g>
<!-- dir_2f40e9aa4d3358d94bd9e1c8e2d49ec5 -->
<g id="node2" class="node">
<title>dir_2f40e9aa4d3358d94bd9e1c8e2d49ec5</title>
<g id="a_node2"><a xlink:href="dir_2f40e9aa4d3358d94bd9e1c8e2d49ec5.html" target="_top" xlink:title="ALICE3">
<polygon fill="#ffffff" stroke="#000000" points="224,-396 170,-396 170,-360 224,-360 224,-396"/>
<text text-anchor="middle" x="197" y="-375.5" font-family="Helvetica,sans-Serif" font-size="10.00" fill="#000000">ALICE3</text>
</a>
</g>
</g>
<!-- dir_f41dd59f861c855ea21b0dc3111cb7b0 -->
<g id="node12" class="node">
<title>dir_f41dd59f861c855ea21b0dc3111cb7b0</title>
<g id="a_node12"><a xlink:href="dir_f41dd59f861c855ea21b0dc3111cb7b0.html" target="_top" xlink:title="DataModel">
<polygon fill="none" stroke="#ff0000" points="419.5,-324 350.5,-324 350.5,-288 419.5,-288 419.5,-324"/>
<text text-anchor="middle" x="385" y="-303.5" font-family="Helvetica,sans-Serif" font-size="10.00" fill="#000000">DataModel</text>
</a>
</g>
</g>
<!-- dir_2f40e9aa4d3358d94bd9e1c8e2d49ec5&#45;&gt;dir_f41dd59f861c855ea21b0dc3111cb7b0 -->
<g id="edge21" class="edge">
<title>dir_2f40e9aa4d3358d94bd9e1c8e2d49ec5&#45;&gt;dir_f41dd59f861c855ea21b0dc3111cb7b0</title>
<path fill="none" stroke="#000000" d="M212.7674,-359.7563C218.6025,-353.9766 225.6101,-348.0458 233,-344 266.3332,-325.7508 308.5534,-316.1026 340.0335,-311.1028"/>
<polygon fill="#000000" stroke="#000000" points="340.8933,-314.5135 350.2692,-309.5798 339.863,-307.5898 340.8933,-314.5135"/>
<g id="a_edge21&#45;headlabel"><a xlink:href="dir_000016_000009.html" target="_top" xlink:title="1">
<text text-anchor="middle" x="337.7557" y="-315.3509" font-family="Helvetica,sans-Serif" font-size="10.00" fill="#000000">1</text>
</a>
</g>
</g>
<!-- dir_8d04f135a1eb0fdc4d561ef87bbea216 -->
<g id="node13" class="node">
<title>dir_8d04f135a1eb0fdc4d561ef87bbea216</title>
<g id="a_node13"><a xlink:href="dir_8d04f135a1eb0fdc4d561ef87bbea216.html" target="_top" xlink:title="Core">
<polygon fill="none" stroke="#ff0000" points="235,-252 181,-252 181,-216 235,-216 235,-252"/>
<text text-anchor="middle" x="208" y="-231.5" font-family="Helvetica,sans-Serif" font-size="10.00" fill="#000000">Core</text>
</a>
</g>
</g>
<!-- dir_2f40e9aa4d3358d94bd9e1c8e2d49ec5&#45;&gt;dir_8d04f135a1eb0fdc4d561ef87bbea216 -->
<g id="edge22" class="edge">
<title>dir_2f40e9aa4d3358d94bd9e1c8e2d49ec5&#45;&gt;dir_8d04f135a1eb0fdc4d561ef87bbea216</title>
<path fill="none" stroke="#000000" d="M194.7159,-359.9914C192.7987,-341.766 190.8358,-312.8129 194,-288 195.0854,-279.4887 197.0962,-270.4011 199.262,-262.1555"/>
<polygon fill="#000000" stroke="#000000" points="202.7045,-262.8414 202.0302,-252.2681 195.9637,-260.9542 202.7045,-262.8414"/>
<g id="a_edge22&#45;headlabel"><a xlink:href="dir_000016_000005.html" target="_top" xlink:title="2">
<text text-anchor="middle" x="204.4696" y="-264.5684" font-family="Helvetica,sans-Serif" font-size="10.00" fill="#000000">2</text>
</a>
</g>
</g>
<!-- dir_bcbb2cf9a3d3d83e5515c82071a07177 -->
<g id="node14" class="node">
<title>dir_bcbb2cf9a3d3d83e5515c82071a07177</title>
<g id="a_node14"><a xlink:href="dir_bcbb2cf9a3d3d83e5515c82071a07177.html" target="_top" xlink:title="Framework">
<polygon fill="none" stroke="#ff0000" points="449.5,-180 378.5,-180 378.5,-144 449.5,-144 449.5,-180"/>
<text text-anchor="middle" x="414" y="-159.5" font-family="Helvetica,sans-Serif" font-size="10.00" fill="#000000">Framework</text>
</a>
</g>
</g>
<!-- dir_2f40e9aa4d3358d94bd9e1c8e2d49ec5&#45;&gt;dir_bcbb2cf9a3d3d83e5515c82071a07177 -->
<g id="edge23" class="edge">
<title>dir_2f40e9aa4d3358d94bd9e1c8e2d49ec5&#45;&gt;dir_bcbb2cf9a3d3d83e5515c82071a07177</title>
<path fill="none" stroke="#000000" d="M186.2693,-359.9193C168.4945,-327.3538 138.0963,-258.3027 172,-216 196.0988,-185.9311 304.8501,-171.5087 368.0642,-165.5544"/>
<polygon fill="#000000" stroke="#000000" points="368.5327,-169.0264 378.1758,-164.6375 367.9005,-162.055 368.5327,-169.0264"/>
<g id="a_edge23&#45;headlabel"><a xlink:href="dir_000016_000063.html" target="_top" xlink:title="3">
<text text-anchor="middle" x="365.2092" y="-169.6786" font-family="Helvetica,sans-Serif" font-size="10.00" fill="#000000">3</text>
</a>
</g>
</g>
<!-- dir_3569a90be80eaa72c08f21910e2b4e5e -->
<g id="node3" class="node">
<title>dir_3569a90be80eaa72c08f21910e2b4e5e</title>
<g id="a_node3"><a xlink:href="dir_3569a90be80eaa72c08f21910e2b4e5e.html" target="_top" xlink:title="PWGCF">
<polygon fill="#ffffff" stroke="#000000" points="152,-396 98,-396 98,-360 152,-360 152,-396"/>
<text text-anchor="middle" x="125" y="-375.5" font-family="Helvetica,sans-Serif" font-size="10.00" fill="#000000">PWGCF</text>
</a>
</g>
</g>
<!-- dir_3569a90be80eaa72c08f21910e2b4e5e&#45;&gt;dir_f41dd59f861c855ea21b0dc3111cb7b0 -->
<g id="edge18" class="edge">
<title>dir_3569a90be80eaa72c08f21910e2b4e5e&#45;&gt;dir_f41dd59f861c855ea21b0dc3111cb7b0</title>
<path fill="none" stroke="#000000" d="M140.241,-359.7834C146.1299,-353.8623 153.3061,-347.8353 161,-344 191.7406,-328.6761 284.3277,-316.6149 340.3839,-310.4694"/>
<polygon fill="#000000" stroke="#000000" points="340.8344,-313.9412 350.4025,-309.3913 340.0854,-306.9814 340.8344,-313.9412"/>
<g id="a_edge18&#45;headlabel"><a xlink:href="dir_000017_000009.html" target="_top" xlink:title="17">
<text text-anchor="middle" x="337.5642" y="-314.6487" font-family="Helvetica,sans-Serif" font-size="10.00" fill="#000000">17</text>
</a>
</g>
</g>
<!-- dir_3569a90be80eaa72c08f21910e2b4e5e&#45;&gt;dir_8d04f135a1eb0fdc4d561ef87bbea216 -->
<g id="edge19" class="edge">
<title>dir_3569a90be80eaa72c08f21910e2b4e5e&#45;&gt;dir_8d04f135a1eb0fdc4d561ef87bbea216</title>
<path fill="none" stroke="#000000" d="M135.512,-359.7623C149.9183,-334.7682 175.8995,-289.6924 192.5292,-260.8409"/>
<polygon fill="#000000" stroke="#000000" points="195.6119,-262.5013 197.5733,-252.0896 189.5472,-259.0057 195.6119,-262.5013"/>
<g id="a_edge19&#45;headlabel"><a xlink:href="dir_000017_000005.html" target="_top" xlink:title="8">
<text text-anchor="middle" x="196.2768" y="-264.5335" font-family="Helvetica,sans-Serif" font-size="10.00" fill="#000000">8</text>
</a>
</g>
</g>
<!-- dir_3569a90be80eaa72c08f21910e2b4e5e&#45;&gt;dir_bcbb2cf9a3d3d83e5515c82071a07177 -->
<g id="edge20" class="edge">
<title>dir_3569a90be80eaa72c08f21910e2b4e5e&#45;&gt;dir_bcbb2cf9a3d3d83e5515c82071a07177</title>
<path fill="none" stroke="#000000" d="M122.1983,-359.8109C118.1791,-326.4439 114.9914,-255.2789 153,-216 182.207,-185.8169 301.2397,-171.2865 368.014,-165.3873"/>
<polygon fill="#000000" stroke="#000000" points="368.594,-168.8506 378.2605,-164.5135 367.9992,-161.8759 368.594,-168.8506"/>
<g id="a_edge20&#45;headlabel"><a xlink:href="dir_000017_000063.html" target="_top" xlink:title="20">
<text text-anchor="middle" x="365.2536" y="-169.4849" font-family="Helvetica,sans-Serif" font-size="10.00" fill="#000000">20</text>
</a>
</g>
</g>
<!-- dir_33cf0c601043fc8ee8b69130538d8a5b -->
<g id="node4" class="node">
<title>dir_33cf0c601043fc8ee8b69130538d8a5b</title>
<g id="a_node4"><a xlink:href="dir_33cf0c601043fc8ee8b69130538d8a5b.html" target="_top" xlink:title="PWGDQ">
<polygon fill="#ffffff" stroke="#000000" points="369.5,-396 314.5,-396 314.5,-360 369.5,-360 369.5,-396"/>
<text text-anchor="middle" x="342" y="-375.5" font-family="Helvetica,sans-Serif" font-size="10.00" fill="#000000">PWGDQ</text>
</a>
</g>
</g>
<!-- dir_33cf0c601043fc8ee8b69130538d8a5b&#45;&gt;dir_f41dd59f861c855ea21b0dc3111cb7b0 -->
<g id="edge7" class="edge">
<title>dir_33cf0c601043fc8ee8b69130538d8a5b&#45;&gt;dir_f41dd59f861c855ea21b0dc3111cb7b0</title>
<path fill="none" stroke="#000000" d="M352.8507,-359.8314C357.7023,-351.7079 363.5217,-341.9637 368.868,-333.0118"/>
<polygon fill="#000000" stroke="#000000" points="371.8806,-334.7933 374.0032,-324.4133 365.8708,-331.2041 371.8806,-334.7933"/>
<g id="a_edge7&#45;headlabel"><a xlink:href="dir_000018_000009.html" target="_top" xlink:title="13">
<text text-anchor="middle" x="372.4752" y="-336.8352" font-family="Helvetica,sans-Serif" font-size="10.00" fill="#000000">13</text>
</a>
</g>
</g>
<!-- dir_33cf0c601043fc8ee8b69130538d8a5b&#45;&gt;dir_8d04f135a1eb0fdc4d561ef87bbea216 -->
<g id="edge8" class="edge">
<title>dir_33cf0c601043fc8ee8b69130538d8a5b&#45;&gt;dir_8d04f135a1eb0fdc4d561ef87bbea216</title>
<path fill="none" stroke="#000000" d="M325.0288,-359.7623C301.4684,-334.4436 258.7322,-288.5182 231.9386,-259.7251"/>
<polygon fill="#000000" stroke="#000000" points="234.208,-257.026 224.8334,-252.0896 229.0835,-261.7946 234.208,-257.026"/>
<g id="a_edge8&#45;headlabel"><a xlink:href="dir_000018_000005.html" target="_top" xlink:title="20">
<text text-anchor="middle" x="238.7352" y="-255.2233" font-family="Helvetica,sans-Serif" font-size="10.00" fill="#000000">20</text>
</a>
</g>
</g>
<!-- dir_33cf0c601043fc8ee8b69130538d8a5b&#45;&gt;dir_bcbb2cf9a3d3d83e5515c82071a07177 -->
<g id="edge9" class="edge">
<title>dir_33cf0c601043fc8ee8b69130538d8a5b&#45;&gt;dir_bcbb2cf9a3d3d83e5515c82071a07177</title>
<path fill="none" stroke="#000000" d="M339.293,-359.717C337.1875,-341.2781 335.5833,-312.1625 342,-288 351.9061,-250.698 375.7378,-212.9215 393.2821,-188.5951"/>
<polygon fill="#000000" stroke="#000000" points="396.3054,-190.3925 399.4239,-180.267 390.6717,-186.2377 396.3054,-190.3925"/>
<g id="a_edge9&#45;headlabel"><a xlink:href="dir_000018_000063.html" target="_top" xlink:title="20">
<text text-anchor="middle" x="396.457" y="-192.4707" font-family="Helvetica,sans-Serif" font-size="10.00" fill="#000000">20</text>
</a>
</g>
</g>
<!-- dir_c7246ec393377c9a789f9275f686142f -->
<g id="node5" class="node">
<title>dir_c7246ec393377c9a789f9275f686142f</title>
<g id="a_node5"><a xlink:href="dir_c7246ec393377c9a789f9275f686142f.html" target="_top" xlink:title="PWGHF">
<polygon fill="#ffffff" stroke="#000000" points="516,-396 462,-396 462,-360 516,-360 516,-396"/>
<text text-anchor="middle" x="489" y="-375.5" font-family="Helvetica,sans-Serif" font-size="10.00" fill="#000000">PWGHF</text>
</a>
</g>
</g>
<!-- dir_051dca18e802f8e9474f2e30d29c04e0 -->
<g id="node11" class="node">
<title>dir_051dca18e802f8e9474f2e30d29c04e0</title>
<g id="a_node11"><a xlink:href="dir_051dca18e802f8e9474f2e30d29c04e0.html" target="_top" xlink:title="Detectors">
<polygon fill="none" stroke="#ff0000" points="590,-108 526,-108 526,-72 590,-72 590,-108"/>
<text text-anchor="middle" x="558" y="-87.5" font-family="Helvetica,sans-Serif" font-size="10.00" fill="#000000">Detectors</text>
</a>
</g>
</g>
<!-- dir_c7246ec393377c9a789f9275f686142f&#45;&gt;dir_051dca18e802f8e9474f2e30d29c04e0 -->
<g id="edge10" class="edge">
<title>dir_c7246ec393377c9a789f9275f686142f&#45;&gt;dir_051dca18e802f8e9474f2e30d29c04e0</title>
<path fill="none" stroke="#000000" d="M507.2082,-359.8099C512.7658,-354.5332 518.9973,-348.8817 525,-344 580.4798,-298.8816 623.9114,-315.3942 657,-252 683.2704,-201.6688 629.3699,-145.7272 591.2903,-114.511"/>
<polygon fill="#000000" stroke="#000000" points="593.436,-111.7454 583.4393,-108.236 589.0656,-117.2134 593.436,-111.7454"/>
<g id="a_edge10&#45;headlabel"><a xlink:href="dir_000019_000049.html" target="_top" xlink:title="3">
<text text-anchor="middle" x="598.0166" y="-109.2717" font-family="Helvetica,sans-Serif" font-size="10.00" fill="#000000">3</text>
</a>
</g>
</g>
<!-- dir_c7246ec393377c9a789f9275f686142f&#45;&gt;dir_f41dd59f861c855ea21b0dc3111cb7b0 -->
<g id="edge11" class="edge">
<title>dir_c7246ec393377c9a789f9275f686142f&#45;&gt;dir_f41dd59f861c855ea21b0dc3111cb7b0</title>
<path fill="none" stroke="#000000" d="M471.4563,-359.7794C465.8183,-354.3875 459.3757,-348.6801 453,-344 445.3942,-338.417 436.8836,-333.0547 428.5263,-328.2076"/>
<polygon fill="#000000" stroke="#000000" points="429.999,-325.0201 419.568,-323.164 426.5648,-331.1199 429.999,-325.0201"/>
<g id="a_edge11&#45;headlabel"><a xlink:href="dir_000019_000009.html" target="_top" xlink:title="9">
<text text-anchor="middle" x="434.5242" y="-321.8095" font-family="Helvetica,sans-Serif" font-size="10.00" fill="#000000">9</text>
</a>
</g>
</g>
<!-- dir_c7246ec393377c9a789f9275f686142f&#45;&gt;dir_8d04f135a1eb0fdc4d561ef87bbea216 -->
<g id="edge12" class="edge">
<title>dir_c7246ec393377c9a789f9275f686142f&#45;&gt;dir_8d04f135a1eb0fdc4d561ef87bbea216</title>
<path fill="none" stroke="#000000" d="M481.7636,-359.8251C472.6025,-339.2068 454.8366,-306.1047 429,-288 399.5242,-267.3452 300.0054,-248.7304 245.1145,-239.7196"/>
<polygon fill="#000000" stroke="#000000" points="245.5187,-236.2396 235.0883,-238.0991 244.4018,-243.1499 245.5187,-236.2396"/>
<g id="a_edge12&#45;headlabel"><a xlink:href="dir_000019_000005.html" target="_top" xlink:title="3">
<text text-anchor="middle" x="249.5203" y="-231.5102" font-family="Helvetica,sans-Serif" font-size="10.00" fill="#000000">3</text>
</a>
</g>
</g>
<!-- dir_c7246ec393377c9a789f9275f686142f&#45;&gt;dir_bcbb2cf9a3d3d83e5515c82071a07177 -->
<g id="edge13" class="edge">
<title>dir_c7246ec393377c9a789f9275f686142f&#45;&gt;dir_bcbb2cf9a3d3d83e5515c82071a07177</title>
<path fill="none" stroke="#000000" d="M483.9979,-359.7928C475.5333,-329.5716 457.4025,-267.2968 438,-216 434.713,-207.3098 430.7482,-198.0103 426.9964,-189.62"/>
<polygon fill="#000000" stroke="#000000" points="430.0726,-187.9298 422.7433,-180.2792 423.7019,-190.8306 430.0726,-187.9298"/>
<g id="a_edge13&#45;headlabel"><a xlink:href="dir_000019_000063.html" target="_top" xlink:title="12">
<text text-anchor="middle" x="434.1461" y="-187.5248" font-family="Helvetica,sans-Serif" font-size="10.00" fill="#000000">12</text>
</a>
</g>
</g>
<!-- dir_2171f7ec022c5423887b07c69b2f5b48 -->
<g id="node15" class="node">
<title>dir_2171f7ec022c5423887b07c69b2f5b48</title>
<g id="a_node15"><a xlink:href="dir_2171f7ec022c5423887b07c69b2f5b48.html" target="_top" xlink:title="DataFormats">
<polygon fill="none" stroke="#ff0000" points="568,-36 488,-36 488,0 568,0 568,-36"/>
<text text-anchor="middle" x="528" y="-15.5" font-family="Helvetica,sans-Serif" font-size="10.00" fill="#000000">DataFormats</text>
</a>
</g>
</g>
<!-- dir_c7246ec393377c9a789f9275f686142f&#45;&gt;dir_2171f7ec022c5423887b07c69b2f5b48 -->
<g id="edge14" class="edge">
<title>dir_c7246ec393377c9a789f9275f686142f&#45;&gt;dir_2171f7ec022c5423887b07c69b2f5b48</title>
<path fill="none" stroke="#000000" d="M504.7607,-359.744C510.5953,-353.9633 517.6043,-348.0351 525,-344 557.5515,-326.2401 573.969,-342.6823 606,-324 644.0211,-301.824 657.7384,-292.9016 674,-252 706.019,-171.465 659.5198,-134.036 599,-72 588.4704,-61.2066 575.6797,-50.812 563.8711,-42.0741"/>
<polygon fill="#000000" stroke="#000000" points="565.6484,-39.0404 555.4925,-36.0224 561.5497,-44.715 565.6484,-39.0404"/>
<g id="a_edge14&#45;headlabel"><a xlink:href="dir_000019_000090.html" target="_top" xlink:title="2">
<text text-anchor="middle" x="570.2248" y="-36.3434" font-family="Helvetica,sans-Serif" font-size="10.00" fill="#000000">2</text>
</a>
</g>
</g>
<!-- dir_2a7d1022434b02d1db0a9dbfc5e026be -->
<g id="node6" class="node">
<title>dir_2a7d1022434b02d1db0a9dbfc5e026be</title>
<g id="a_node6"><a xlink:href="dir_2a7d1022434b02d1db0a9dbfc5e026be.html" target="_top" xlink:title="PWGJE">
<polygon fill="#ffffff" stroke="#000000" points="296,-396 242,-396 242,-360 296,-360 296,-396"/>
<text text-anchor="middle" x="269" y="-375.5" font-family="Helvetica,sans-Serif" font-size="10.00" fill="#000000">PWGJE</text>
</a>
</g>
</g>
<!-- dir_2a7d1022434b02d1db0a9dbfc5e026be&#45;&gt;dir_f41dd59f861c855ea21b0dc3111cb7b0 -->
<g id="edge15" class="edge">
<title>dir_2a7d1022434b02d1db0a9dbfc5e026be&#45;&gt;dir_f41dd59f861c855ea21b0dc3111cb7b0</title>
<path fill="none" stroke="#000000" d="M286.5433,-359.914C292.4207,-354.4079 299.2123,-348.6015 306,-344 316.8349,-336.6548 329.3065,-329.9559 341.0921,-324.298"/>
<polygon fill="#000000" stroke="#000000" points="342.761,-327.3819 350.3524,-319.9913 339.8091,-321.0347 342.761,-327.3819"/>
<g id="a_edge15&#45;headlabel"><a xlink:href="dir_000020_000009.html" target="_top" xlink:title="6">
<text text-anchor="middle" x="340.6989" y="-328.9722" font-family="Helvetica,sans-Serif" font-size="10.00" fill="#000000">6</text>
</a>
</g>
</g>
<!-- dir_2a7d1022434b02d1db0a9dbfc5e026be&#45;&gt;dir_8d04f135a1eb0fdc4d561ef87bbea216 -->
<g id="edge16" class="edge">
<title>dir_2a7d1022434b02d1db0a9dbfc5e026be&#45;&gt;dir_8d04f135a1eb0fdc4d561ef87bbea216</title>
<path fill="none" stroke="#000000" d="M254.3254,-359.9484C246.7478,-349.8749 237.883,-336.8053 232,-324 222.9142,-304.2233 216.7484,-280.366 212.9435,-262.1846"/>
<polygon fill="#000000" stroke="#000000" points="216.3446,-261.3408 210.9719,-252.2093 209.4774,-262.6982 216.3446,-261.3408"/>
<g id="a_edge16&#45;headlabel"><a xlink:href="dir_000020_000005.html" target="_top" xlink:title="4">
<text text-anchor="middle" x="219.8269" y="-261.8167" font-family="Helvetica,sans-Serif" font-size="10.00" fill="#000000">4</text>
</a>
</g>
</g>
<!-- dir_2a7d1022434b02d1db0a9dbfc5e026be&#45;&gt;dir_bcbb2cf9a3d3d83e5515c82071a07177 -->
<g id="edge17" class="edge">
<title>dir_2a7d1022434b02d1db0a9dbfc5e026be&#45;&gt;dir_bcbb2cf9a3d3d83e5515c82071a07177</title>
<path fill="none" stroke="#000000" d="M275.5392,-359.6501C287.3406,-328.1352 314.4141,-262.6212 351,-216 359.4208,-205.2694 370.2312,-195.0892 380.5114,-186.5202"/>
<polygon fill="#000000" stroke="#000000" points="382.9956,-189.0134 388.5864,-180.0138 378.6036,-183.5626 382.9956,-189.0134"/>
<g id="a_edge17&#45;headlabel"><a xlink:href="dir_000020_000063.html" target="_top" xlink:title="20">
<text text-anchor="middle" x="381.9779" y="-190.9796" font-family="Helvetica,sans-Serif" font-size="10.00" fill="#000000">20</text>
</a>
</g>
</g>
<!-- dir_2c68f3f7252dbc78e1323a34bf574d75 -->
<g id="node7" class="node">
<title>dir_2c68f3f7252dbc78e1323a34bf574d75</title>
<g id="a_node7"><a xlink:href="dir_2c68f3f7252dbc78e1323a34bf574d75.html" target="_top" xlink:title="PWGLF">
<polygon fill="#ffffff" stroke="#000000" points="588,-396 534,-396 534,-360 588,-360 588,-396"/>
<text text-anchor="middle" x="561" y="-375.5" font-family="Helvetica,sans-Serif" font-size="10.00" fill="#000000">PWGLF</text>
</a>
</g>
</g>
<!-- dir_2c68f3f7252dbc78e1323a34bf574d75&#45;&gt;dir_051dca18e802f8e9474f2e30d29c04e0 -->
<g id="edge32" class="edge">
<title>dir_2c68f3f7252dbc78e1323a34bf574d75&#45;&gt;dir_051dca18e802f8e9474f2e30d29c04e0</title>
<path fill="none" stroke="#000000" d="M577.3785,-359.836C583.1578,-354.198 589.9763,-348.3334 597,-344 619.1364,-330.3426 632.3934,-341.0916 652,-324 713.633,-270.2729 735.574,-211.884 690,-144 670.099,-114.3568 630.7363,-100.9751 600.1509,-94.9406"/>
<polygon fill="#000000" stroke="#000000" points="600.6141,-91.4682 590.1557,-93.163 599.3883,-98.36 600.6141,-91.4682"/>
<g id="a_edge32&#45;headlabel"><a xlink:href="dir_000021_000049.html" target="_top" xlink:title="4">
<text text-anchor="middle" x="604.6503" y="-86.8021" font-family="Helvetica,sans-Serif" font-size="10.00" fill="#000000">4</text>
</a>
</g>
</g>
<!-- dir_2c68f3f7252dbc78e1323a34bf574d75&#45;&gt;dir_f41dd59f861c855ea21b0dc3111cb7b0 -->
<g id="edge33" class="edge">
<title>dir_2c68f3f7252dbc78e1323a34bf574d75&#45;&gt;dir_f41dd59f861c855ea21b0dc3111cb7b0</title>
<path fill="none" stroke="#000000" d="M545.1858,-359.8407C539.3469,-354.0678 532.3489,-348.1197 525,-344 495.4558,-327.4378 458.3165,-317.7899 429.7153,-312.3624"/>
<polygon fill="#000000" stroke="#000000" points="430.0548,-308.8676 419.5943,-310.5488 428.8201,-315.7578 430.0548,-308.8676"/>
<g id="a_edge33&#45;headlabel"><a xlink:href="dir_000021_000009.html" target="_top" xlink:title="38">
<text text-anchor="middle" x="434.0939" y="-304.2068" font-family="Helvetica,sans-Serif" font-size="10.00" fill="#000000">38</text>
</a>
</g>
</g>
<!-- dir_2c68f3f7252dbc78e1323a34bf574d75&#45;&gt;dir_8d04f135a1eb0fdc4d561ef87bbea216 -->
<g id="edge34" class="edge">
<title>dir_2c68f3f7252dbc78e1323a34bf574d75&#45;&gt;dir_8d04f135a1eb0fdc4d561ef87bbea216</title>
<path fill="none" stroke="#000000" d="M545.8914,-359.9857C527.3964,-339.1968 494.0583,-305.6173 458,-288 387.7891,-253.6965 295.9681,-241.0373 245.4269,-236.4749"/>
<polygon fill="#000000" stroke="#000000" points="245.5501,-232.973 235.2911,-235.6194 244.9613,-239.9482 245.5501,-232.973"/>
<g id="a_edge34&#45;headlabel"><a xlink:href="dir_000021_000005.html" target="_top" xlink:title="22">
<text text-anchor="middle" x="249.3708" y="-227.946" font-family="Helvetica,sans-Serif" font-size="10.00" fill="#000000">22</text>
</a>
</g>
</g>
<!-- dir_2c68f3f7252dbc78e1323a34bf574d75&#45;&gt;dir_bcbb2cf9a3d3d83e5515c82071a07177 -->
<g id="edge35" class="edge">
<title>dir_2c68f3f7252dbc78e1323a34bf574d75&#45;&gt;dir_bcbb2cf9a3d3d83e5515c82071a07177</title>
<path fill="none" stroke="#000000" d="M550.2441,-359.5628C532.209,-329.0109 494.2716,-266.2715 458,-216 451.2437,-206.6359 443.4062,-196.7448 436.2339,-188.0225"/>
<polygon fill="#000000" stroke="#000000" points="438.7055,-185.5208 429.6183,-180.0733 433.325,-189.9986 438.7055,-185.5208"/>
<g id="a_edge35&#45;headlabel"><a xlink:href="dir_000021_000063.html" target="_top" xlink:title="45">
<text text-anchor="middle" x="443.1872" y="-183.9674" font-family="Helvetica,sans-Serif" font-size="10.00" fill="#000000">45</text>
</a>
</g>
</g>
<!-- dir_2c68f3f7252dbc78e1323a34bf574d75&#45;&gt;dir_2171f7ec022c5423887b07c69b2f5b48 -->
<g id="edge36" class="edge">
<title>dir_2c68f3f7252dbc78e1323a34bf574d75&#45;&gt;dir_2171f7ec022c5423887b07c69b2f5b48</title>
<path fill="none" stroke="#000000" d="M576.7355,-359.6975C582.568,-353.9131 589.5822,-347.9944 597,-344 631.1702,-325.5997 647.2751,-341.3307 682,-324 737.9061,-296.0982 790,-296.482 790,-234 790,-234 790,-234 790,-162 790,-120.6022 795.8162,-100.7189 766,-72 739.6047,-46.5762 640.2026,-30.8542 578.5156,-23.3315"/>
<polygon fill="#000000" stroke="#000000" points="578.5526,-19.8114 568.2097,-22.1079 577.7273,-26.7626 578.5526,-19.8114"/>
<g id="a_edge36&#45;headlabel"><a xlink:href="dir_000021_000090.html" target="_top" xlink:title="8">
<text text-anchor="middle" x="582.4569" y="-14.9156" font-family="Helvetica,sans-Serif" font-size="10.00" fill="#000000">8</text>
</a>
</g>
</g>
<!-- dir_032362cb8e4e063119218723e20381d8 -->
<g id="node8" class="node">
<title>dir_032362cb8e4e063119218723e20381d8</title>
<g id="a_node8"><a xlink:href="dir_032362cb8e4e063119218723e20381d8.html" target="_top" xlink:title="PWGMM">
<polygon fill="#ffffff" stroke="#000000" points="444,-396 388,-396 388,-360 444,-360 444,-396"/>
<text text-anchor="middle" x="416" y="-375.5" font-family="Helvetica,sans-Serif" font-size="10.00" fill="#000000">PWGMM</text>
</a>
</g>
</g>
<!-- dir_032362cb8e4e063119218723e20381d8&#45;&gt;dir_f41dd59f861c855ea21b0dc3111cb7b0 -->
<g id="edge1" class="edge">
<title>dir_032362cb8e4e063119218723e20381d8&#45;&gt;dir_f41dd59f861c855ea21b0dc3111cb7b0</title>
<path fill="none" stroke="#000000" d="M408.1774,-359.8314C404.7891,-351.9617 400.7459,-342.5712 396.9924,-333.8533"/>
<polygon fill="#000000" stroke="#000000" points="400.0973,-332.214 392.9279,-324.4133 393.6679,-334.9822 400.0973,-332.214"/>
<g id="a_edge1&#45;headlabel"><a xlink:href="dir_000022_000009.html" target="_top" xlink:title="3">
<text text-anchor="middle" x="404.1266" y="-331.8928" font-family="Helvetica,sans-Serif" font-size="10.00" fill="#000000">3</text>
</a>
</g>
</g>
<!-- dir_032362cb8e4e063119218723e20381d8&#45;&gt;dir_bcbb2cf9a3d3d83e5515c82071a07177 -->
<g id="edge2" class="edge">
<title>dir_032362cb8e4e063119218723e20381d8&#45;&gt;dir_bcbb2cf9a3d3d83e5515c82071a07177</title>
<path fill="none" stroke="#000000" d="M421.5446,-359.7012C424.3965,-349.3353 427.5681,-336.0653 429,-324 434.5625,-277.1284 426.4713,-222.4198 420.1816,-190.0782"/>
<polygon fill="#000000" stroke="#000000" points="423.5578,-189.1161 418.14,-180.0113 416.6975,-190.5075 423.5578,-189.1161"/>
<g id="a_edge2&#45;headlabel"><a xlink:href="dir_000022_000063.html" target="_top" xlink:title="4">
<text text-anchor="middle" x="427.0548" y="-189.5747" font-family="Helvetica,sans-Serif" font-size="10.00" fill="#000000">4</text>
</a>
</g>
</g>
<!-- dir_af4863fa0f8d58f15705286c3835bfad -->
<g id="node9" class="node">
<title>dir_af4863fa0f8d58f15705286c3835bfad</title>
<g id="a_node9"><a xlink:href="dir_af4863fa0f8d58f15705286c3835bfad.html" target="_top" xlink:title="PWGUD">
<polygon fill="#ffffff" stroke="#000000" points="79.5,-396 24.5,-396 24.5,-360 79.5,-360 79.5,-396"/>
<text text-anchor="middle" x="52" y="-375.5" font-family="Helvetica,sans-Serif" font-size="10.00" fill="#000000">PWGUD</text>
</a>
</g>
</g>
<!-- dir_af4863fa0f8d58f15705286c3835bfad&#45;&gt;dir_f41dd59f861c855ea21b0dc3111cb7b0 -->
<g id="edge37" class="edge">
<title>dir_af4863fa0f8d58f15705286c3835bfad&#45;&gt;dir_f41dd59f861c855ea21b0dc3111cb7b0</title>
<path fill="none" stroke="#000000" d="M67.3003,-359.9662C73.4193,-353.9132 80.932,-347.7533 89,-344 132.6549,-323.6916 268.9419,-312.8419 340.3464,-308.4211"/>
<polygon fill="#000000" stroke="#000000" points="340.6209,-311.911 350.392,-307.8151 340.1994,-304.9237 340.6209,-311.911"/>
<g id="a_edge37&#45;headlabel"><a xlink:href="dir_000023_000009.html" target="_top" xlink:title="2">
<text text-anchor="middle" x="337.2038" y="-312.4615" font-family="Helvetica,sans-Serif" font-size="10.00" fill="#000000">2</text>
</a>
</g>
</g>
<!-- dir_af4863fa0f8d58f15705286c3835bfad&#45;&gt;dir_8d04f135a1eb0fdc4d561ef87bbea216 -->
<g id="edge38" class="edge">
<title>dir_af4863fa0f8d58f15705286c3835bfad&#45;&gt;dir_8d04f135a1eb0fdc4d561ef87bbea216</title>
<path fill="none" stroke="#000000" d="M71.7575,-359.7623C99.4205,-334.2272 149.7908,-287.7316 180.9269,-258.9906"/>
<polygon fill="#000000" stroke="#000000" points="183.4288,-261.4443 188.4029,-252.0896 178.6809,-256.3006 183.4288,-261.4443"/>
<g id="a_edge38&#45;headlabel"><a xlink:href="dir_000023_000005.html" target="_top" xlink:title="1">
<text text-anchor="middle" x="182.7133" y="-263.4687" font-family="Helvetica,sans-Serif" font-size="10.00" fill="#000000">1</text>
</a>
</g>
</g>
<!-- dir_af4863fa0f8d58f15705286c3835bfad&#45;&gt;dir_bcbb2cf9a3d3d83e5515c82071a07177 -->
<g id="edge39" class="edge">
<title>dir_af4863fa0f8d58f15705286c3835bfad&#45;&gt;dir_bcbb2cf9a3d3d83e5515c82071a07177</title>
<path fill="none" stroke="#000000" d="M54.8655,-359.8083C61.2396,-325.7843 79.9265,-252.6545 127,-216 163.9844,-187.2014 297.2706,-171.8327 368.4481,-165.5177"/>
<polygon fill="#000000" stroke="#000000" points="368.8185,-168.9988 378.4802,-164.6511 368.216,-162.0248 368.8185,-168.9988"/>
<g id="a_edge39&#45;headlabel"><a xlink:href="dir_000023_000063.html" target="_top" xlink:title="3">
<text text-anchor="middle" x="365.4815" y="-169.6368" font-family="Helvetica,sans-Serif" font-size="10.00" fill="#000000">3</text>
</a>
</g>
</g>
<!-- dir_6af676bf18881990e4083e191d0e63e0&#45;&gt;dir_bcbb2cf9a3d3d83e5515c82071a07177 -->
<g id="edge3" class="edge">
<title>dir_6af676bf18881990e4083e191d0e63e0&#45;&gt;dir_bcbb2cf9a3d3d83e5515c82071a07177</title>
<path fill="none" stroke="#000000" d="M593.9384,-224.5873C559.7477,-212.6949 500.4125,-192.0565 459.2717,-177.7467"/>
<polygon fill="#000000" stroke="#000000" points="460.3451,-174.4144 449.7503,-174.4349 458.0454,-181.0259 460.3451,-174.4144"/>
<g id="a_edge3&#45;headlabel"><a xlink:href="dir_000028_000063.html" target="_top" xlink:title="2">
<text text-anchor="middle" x="464.6729" y="-170.4136" font-family="Helvetica,sans-Serif" font-size="10.00" fill="#000000">2</text>
</a>
</g>
</g>
<!-- dir_051dca18e802f8e9474f2e30d29c04e0&#45;&gt;dir_6af676bf18881990e4083e191d0e63e0 -->
<g id="edge4" class="edge">
<title>dir_051dca18e802f8e9474f2e30d29c04e0&#45;&gt;dir_6af676bf18881990e4083e191d0e63e0</title>
<path fill="none" stroke="#000000" d="M565.9142,-108.0896C576.7199,-132.7884 596.1908,-177.2933 608.852,-206.2331"/>
<polygon fill="#000000" stroke="#000000" points="605.8062,-208.0036 613.021,-215.7623 612.2193,-205.1978 605.8062,-208.0036"/>
<g id="a_edge4&#45;headlabel"><a xlink:href="dir_000049_000028.html" target="_top" xlink:title="32">
<text text-anchor="middle" x="601.7643" y="-203.3484" font-family="Helvetica,sans-Serif" font-size="10.00" fill="#000000">32</text>
</a>
</g>
</g>
<!-- dir_051dca18e802f8e9474f2e30d29c04e0&#45;&gt;dir_bcbb2cf9a3d3d83e5515c82071a07177 -->
<g id="edge5" class="edge">
<title>dir_051dca18e802f8e9474f2e30d29c04e0&#45;&gt;dir_bcbb2cf9a3d3d83e5515c82071a07177</title>
<path fill="none" stroke="#000000" d="M527.6828,-108.133C507.7561,-118.6083 481.4407,-131.7872 459.1017,-142.4875"/>
<polygon fill="#000000" stroke="#000000" points="457.3317,-139.4534 449.8016,-146.9064 460.3359,-145.776 457.3317,-139.4534"/>
<g id="a_edge5&#45;headlabel"><a xlink:href="dir_000049_000063.html" target="_top" xlink:title="971">
<text text-anchor="middle" x="459.36" y="-132.8463" font-family="Helvetica,sans-Serif" font-size="10.00" fill="#000000">971</text>
</a>
</g>
</g>
<!-- dir_051dca18e802f8e9474f2e30d29c04e0&#45;&gt;dir_2171f7ec022c5423887b07c69b2f5b48 -->
<g id="edge6" class="edge">
<title>dir_051dca18e802f8e9474f2e30d29c04e0&#45;&gt;dir_2171f7ec022c5423887b07c69b2f5b48</title>
<path fill="none" stroke="#000000" d="M544.4773,-71.8314C540.4314,-63.9617 536.3048,-54.5712 533.0116,-45.8533"/>
<polygon fill="#000000" stroke="#000000" points="536.3121,-44.6885 529.6962,-36.4133 529.7076,-47.0081 536.3121,-44.6885"/>
<g id="a_edge6&#45;headlabel"><a xlink:href="dir_000049_000090.html" target="_top" xlink:title="1265">
<text text-anchor="middle" x="540.1821" y="-44.6392" font-family="Helvetica,sans-Serif" font-size="10.00" fill="#000000">1265</text>
</a>
</g>
</g>
<!-- dir_f41dd59f861c855ea21b0dc3111cb7b0&#45;&gt;dir_6af676bf18881990e4083e191d0e63e0 -->
<g id="edge24" class="edge">
<title>dir_f41dd59f861c855ea21b0dc3111cb7b0&#45;&gt;dir_6af676bf18881990e4083e191d0e63e0</title>
<path fill="none" stroke="#000000" d="M419.6322,-298.0053C458.9845,-288.5549 524.8972,-271.6111 580,-252 581.419,-251.495 582.858,-250.9633 584.306,-250.4119"/>
<polygon fill="#000000" stroke="#000000" points="585.9037,-253.5417 593.8727,-246.5598 583.2891,-247.0483 585.9037,-253.5417"/>
<g id="a_edge24&#45;headlabel"><a xlink:href="dir_000009_000028.html" target="_top" xlink:title="2">
<text text-anchor="middle" x="583.6298" y="-255.018" font-family="Helvetica,sans-Serif" font-size="10.00" fill="#000000">2</text>
</a>
</g>
</g>
<!-- dir_f41dd59f861c855ea21b0dc3111cb7b0&#45;&gt;dir_051dca18e802f8e9474f2e30d29c04e0 -->
<g id="edge25" class="edge">
<title>dir_f41dd59f861c855ea21b0dc3111cb7b0&#45;&gt;dir_051dca18e802f8e9474f2e30d29c04e0</title>
<path fill="none" stroke="#000000" d="M419.7522,-298.2893C446.2423,-290.7133 481.8302,-276.6103 504,-252 538.2563,-213.9728 550.8676,-153.5598 555.4485,-118.2482"/>
<polygon fill="#000000" stroke="#000000" points="558.9444,-118.4862 556.6274,-108.1478 551.9916,-117.6746 558.9444,-118.4862"/>
<g id="a_edge25&#45;headlabel"><a xlink:href="dir_000009_000049.html" target="_top" xlink:title="1">
<text text-anchor="middle" x="561.3479" y="-119.8857" font-family="Helvetica,sans-Serif" font-size="10.00" fill="#000000">1</text>
</a>
</g>
</g>
<!-- dir_f41dd59f861c855ea21b0dc3111cb7b0&#45;&gt;dir_8d04f135a1eb0fdc4d561ef87bbea216 -->
<g id="edge26" class="edge">
<title>dir_f41dd59f861c855ea21b0dc3111cb7b0&#45;&gt;dir_8d04f135a1eb0fdc4d561ef87bbea216</title>
<path fill="none" stroke="#000000" d="M350.4524,-291.9468C320.0408,-279.5759 275.8842,-261.6139 244.8134,-248.9749"/>
<polygon fill="#000000" stroke="#000000" points="245.801,-245.5982 235.2192,-245.0722 243.1634,-252.0823 245.801,-245.5982"/>
<g id="a_edge26&#45;headlabel"><a xlink:href="dir_000009_000005.html" target="_top" xlink:title="3">
<text text-anchor="middle" x="250.2005" y="-241.8226" font-family="Helvetica,sans-Serif" font-size="10.00" fill="#000000">3</text>
</a>
</g>
</g>
<!-- dir_f41dd59f861c855ea21b0dc3111cb7b0&#45;&gt;dir_bcbb2cf9a3d3d83e5515c82071a07177 -->
<g id="edge27" class="edge">
<title>dir_f41dd59f861c855ea21b0dc3111cb7b0&#45;&gt;dir_bcbb2cf9a3d3d83e5515c82071a07177</title>
<path fill="none" stroke="#000000" d="M387.5233,-287.9822C390.189,-269.7496 394.7312,-240.7911 400,-216 401.7837,-207.6072 404.0095,-198.5561 406.1578,-190.3075"/>
<polygon fill="#000000" stroke="#000000" points="409.6054,-190.9625 408.7985,-180.3985 402.8414,-189.16 409.6054,-190.9625"/>
<g id="a_edge27&#45;headlabel"><a xlink:href="dir_000009_000063.html" target="_top" xlink:title="19">
<text text-anchor="middle" x="411.4234" y="-192.667" font-family="Helvetica,sans-Serif" font-size="10.00" fill="#000000">19</text>
</a>
</g>
</g>
<!-- dir_f41dd59f861c855ea21b0dc3111cb7b0&#45;&gt;dir_2171f7ec022c5423887b07c69b2f5b48 -->
<g id="edge28" class="edge">
<title>dir_f41dd59f861c855ea21b0dc3111cb7b0&#45;&gt;dir_2171f7ec022c5423887b07c69b2f5b48</title>
<path fill="none" stroke="#000000" d="M396.7984,-287.6318C412.0868,-263.461 439.1333,-219.418 459,-180 482.1917,-133.9846 504.7575,-78.3311 517.4669,-45.6819"/>
<polygon fill="#000000" stroke="#000000" points="520.7432,-46.9135 521.0845,-36.3241 514.2141,-44.3894 520.7432,-46.9135"/>
<g id="a_edge28&#45;headlabel"><a xlink:href="dir_000009_000090.html" target="_top" xlink:title="5">
<text text-anchor="middle" x="522.0953" y="-48.79" font-family="Helvetica,sans-Serif" font-size="10.00" fill="#000000">5</text>
</a>
</g>
</g>
<!-- dir_8d04f135a1eb0fdc4d561ef87bbea216&#45;&gt;dir_bcbb2cf9a3d3d83e5515c82071a07177 -->
<g id="edge30" class="edge">
<title>dir_8d04f135a1eb0fdc4d561ef87bbea216&#45;&gt;dir_bcbb2cf9a3d3d83e5515c82071a07177</title>
<path fill="none" stroke="#000000" d="M235.1936,-221.6199C239.7714,-219.6632 244.4977,-217.7204 249,-216 288.8048,-200.7903 334.9665,-185.9109 368.3245,-175.6356"/>
<polygon fill="#000000" stroke="#000000" points="369.7069,-178.8728 378.2447,-172.5992 367.6582,-172.1793 369.7069,-178.8728"/>
<g id="a_edge30&#45;headlabel"><a xlink:href="dir_000005_000063.html" target="_top" xlink:title="9">
<text text-anchor="middle" x="367.1007" y="-180.1397" font-family="Helvetica,sans-Serif" font-size="10.00" fill="#000000">9</text>
</a>
</g>
</g>
<!-- dir_8d04f135a1eb0fdc4d561ef87bbea216&#45;&gt;dir_2171f7ec022c5423887b07c69b2f5b48 -->
<g id="edge31" class="edge">
<title>dir_8d04f135a1eb0fdc4d561ef87bbea216&#45;&gt;dir_2171f7ec022c5423887b07c69b2f5b48</title>
<path fill="none" stroke="#000000" d="M234.325,-215.8885C278.1144,-185.8051 368.7483,-123.7237 446,-72 460.8966,-62.026 477.3932,-51.1331 491.661,-41.7597"/>
<polygon fill="#000000" stroke="#000000" points="493.782,-44.5543 500.2224,-36.1417 489.9415,-38.7018 493.782,-44.5543"/>
<g id="a_edge31&#45;headlabel"><a xlink:href="dir_000005_000090.html" target="_top" xlink:title="2">
<text text-anchor="middle" x="492.3344" y="-46.4001" font-family="Helvetica,sans-Serif" font-size="10.00" fill="#000000">2</text>
</a>
</g>
</g>
<!-- dir_bcbb2cf9a3d3d83e5515c82071a07177&#45;&gt;dir_051dca18e802f8e9474f2e30d29c04e0 -->
<g id="edge40" class="edge">
<title>dir_bcbb2cf9a3d3d83e5515c82071a07177&#45;&gt;dir_051dca18e802f8e9474f2e30d29c04e0</title>
<path fill="none" stroke="#000000" d="M444.3849,-143.8314C465.4224,-132.7738 493.5571,-118.7136 516.619,-107.7358"/>
<polygon fill="#000000" stroke="#000000" points="518.28,-110.8221 525.8305,-103.3897 515.2931,-104.4914 518.28,-110.8221"/>
<g id="a_edge40&#45;headlabel"><a xlink:href="dir_000063_000049.html" target="_top" xlink:title="4">
<text text-anchor="middle" x="516.2406" y="-112.4237" font-family="Helvetica,sans-Serif" font-size="10.00" fill="#000000">4</text>
</a>
</g>
</g>
<!-- dir_bcbb2cf9a3d3d83e5515c82071a07177&#45;&gt;dir_2171f7ec022c5423887b07c69b2f5b48 -->
<g id="edge41" class="edge">
<title>dir_bcbb2cf9a3d3d83e5515c82071a07177&#45;&gt;dir_2171f7ec022c5423887b07c69b2f5b48</title>
<path fill="none" stroke="#000000" d="M418.5327,-143.7911C428.1356,-125.1565 447.6761,-95.659 467,-72 475.0401,-62.1562 484.5131,-51.9646 493.6554,-43.123"/>
<polygon fill="#000000" stroke="#000000" points="496.3048,-45.4374 501.2184,-36.0508 491.5237,-40.3244 496.3048,-45.4374"/>
<g id="a_edge41&#45;headlabel"><a xlink:href="dir_000063_000090.html" target="_top" xlink:title="73">
<text text-anchor="middle" x="495.6185" y="-47.4663" font-family="Helvetica,sans-Serif" font-size="10.00" fill="#000000">73</text>
</a>
</g>
</g>
<!-- dir_2171f7ec022c5423887b07c69b2f5b48&#45;&gt;dir_051dca18e802f8e9474f2e30d29c04e0 -->
<g id="edge42" class="edge">
<title>dir_2171f7ec022c5423887b07c69b2f5b48&#45;&gt;dir_051dca18e802f8e9474f2e30d29c04e0</title>
<path fill="none" stroke="#000000" d="M541.6482,-36.4133C545.6522,-44.2292 549.7259,-53.5113 552.9844,-62.136"/>
<polygon fill="#000000" stroke="#000000" points="549.7717,-63.5517 556.3821,-71.8314 556.3778,-61.2365 549.7717,-63.5517"/>
<g id="a_edge42&#45;headlabel"><a xlink:href="dir_000090_000049.html" target="_top" xlink:title="16">
<text text-anchor="middle" x="545.9035" y="-58.5983" font-family="Helvetica,sans-Serif" font-size="10.00" fill="#000000">16</text>
</a>
</g>
</g>
<!-- dir_2171f7ec022c5423887b07c69b2f5b48&#45;&gt;dir_bcbb2cf9a3d3d83e5515c82071a07177 -->
<g id="edge43" class="edge">
<title>dir_2171f7ec022c5423887b07c69b2f5b48&#45;&gt;dir_bcbb2cf9a3d3d83e5515c82071a07177</title>
<path fill="none" stroke="#000000" d="M516.9016,-36.2957C507.7282,-46.4407 495.209,-59.5007 485,-72 468.3935,-92.332 451.6271,-116.9758 438.3036,-135.3316"/>
<polygon fill="#000000" stroke="#000000" points="435.1812,-133.6679 432.0553,-143.7911 440.8119,-137.8267 435.1812,-133.6679"/>
<g id="a_edge43&#45;headlabel"><a xlink:href="dir_000090_000063.html" target="_top" xlink:title="21">
<text text-anchor="middle" x="435.033" y="-126.5896" font-family="Helvetica,sans-Serif" font-size="10.00" fill="#000000">21</text>
</a>
</g>
</g>
</g>
</svg>
