<?xml version="1.0" encoding="UTF-8" standalone="no"?>
<!DOCTYPE svg PUBLIC "-//W3C//DTD SVG 1.1//EN"
 "http://www.w3.org/Graphics/SVG/1.1/DTD/svg11.dtd">
<!-- Generated by graphviz version 2.40.1 (20161225.0304)
 -->
<!-- Title: /home/travis/build/AliceO2Group/AliceO2/Detectors/MUON/MID/Raw/include/MIDRaw/GBTUserLogicEncoder.h Pages: 1 -->
<svg width="888pt" height="296pt"
 viewBox="0.00 0.00 887.50 296.00" xmlns="http://www.w3.org/2000/svg" xmlns:xlink="http://www.w3.org/1999/xlink">
<g id="graph0" class="graph" transform="scale(1 1) rotate(0) translate(4 292)">
<title>/home/travis/build/AliceO2Group/AliceO2/Detectors/MUON/MID/Raw/include/MIDRaw/GBTUserLogicEncoder.h</title>
<!-- Node0 -->
<g id="node1" class="node">
<title>Node0</title>
<polygon fill="#bfbfbf" stroke="#000000" points="514.5,-235.5 514.5,-287.5 730.5,-287.5 730.5,-235.5 514.5,-235.5"/>
<text text-anchor="start" x="522.5" y="-275.5" font-family="Helvetica,sans-Serif" font-size="10.00" fill="#000000">/home/travis/build</text>
<text text-anchor="start" x="522.5" y="-264.5" font-family="Helvetica,sans-Serif" font-size="10.00" fill="#000000">/AliceO2Group/AliceO2</text>
<text text-anchor="start" x="522.5" y="-253.5" font-family="Helvetica,sans-Serif" font-size="10.00" fill="#000000">/Detectors/MUON/MID/Raw</text>
<text text-anchor="middle" x="622.5" y="-242.5" font-family="Helvetica,sans-Serif" font-size="10.00" fill="#000000">/include/MIDRaw/GBTUserLogicEncoder.h</text>
</g>
<!-- Node1 -->
<g id="node2" class="node">
<title>Node1</title>
<polygon fill="none" stroke="#bfbfbf" points="545.5,-56.5 545.5,-75.5 595.5,-75.5 595.5,-56.5 545.5,-56.5"/>
<text text-anchor="middle" x="570.5" y="-63.5" font-family="Helvetica,sans-Serif" font-size="10.00" fill="#000000">cstdint</text>
</g>
<!-- Node0&#45;&gt;Node1 -->
<g id="edge1" class="edge">
<title>Node0&#45;&gt;Node1</title>
<path fill="none" stroke="#191970" d="M606.6572,-235.2476C600.74,-224.3727 594.4943,-211.4169 590.5,-199 577.9803,-160.0808 573.2306,-112.184 571.4788,-85.7956"/>
<polygon fill="#191970" stroke="#191970" points="574.9601,-85.3711 570.8826,-75.5923 567.972,-85.7795 574.9601,-85.3711"/>
</g>
<!-- Node2 -->
<g id="node3" class="node">
<title>Node2</title>
<polygon fill="none" stroke="#bfbfbf" points="766,-179.5 766,-198.5 813,-198.5 813,-179.5 766,-179.5"/>
<text text-anchor="middle" x="789.5" y="-186.5" font-family="Helvetica,sans-Serif" font-size="10.00" fill="#000000">vector</text>
</g>
<!-- Node0&#45;&gt;Node2 -->
<g id="edge2" class="edge">
<title>Node0&#45;&gt;Node2</title>
<path fill="none" stroke="#191970" d="M682.7908,-235.3258C708.393,-224.2111 737.1574,-211.7236 758.3651,-202.5167"/>
<polygon fill="#191970" stroke="#191970" points="759.7598,-205.7268 767.5389,-198.534 756.9722,-199.3058 759.7598,-205.7268"/>
</g>
<!-- Node3 -->
<g id="node4" class="node">
<title>Node3</title>
<polygon fill="none" stroke="#bfbfbf" points="831.5,-179.5 831.5,-198.5 879.5,-198.5 879.5,-179.5 831.5,-179.5"/>
<text text-anchor="middle" x="855.5" y="-186.5" font-family="Helvetica,sans-Serif" font-size="10.00" fill="#000000">gsl/gsl</text>
</g>
<!-- Node0&#45;&gt;Node3 -->
<g id="edge3" class="edge">
<title>Node0&#45;&gt;Node3</title>
<path fill="none" stroke="#191970" d="M706.2892,-235.4283C746.1426,-223.0275 791.5536,-208.8975 821.7047,-199.5157"/>
<polygon fill="#191970" stroke="#191970" points="822.8062,-202.8386 831.3147,-196.5255 820.7264,-196.1547 822.8062,-202.8386"/>
</g>
<!-- Node4 -->
<g id="node5" class="node">
<title>Node4</title>
<g id="a_node5"><a xlink:href="../../d2/df9/MUON_2MID_2include_2DataFormatsMID_2ROFRecord_8h.html" target="_top" xlink:title="Definition of the MID event record. ">
<polygon fill="none" stroke="#000000" points="282,-179.5 282,-198.5 445,-198.5 445,-179.5 282,-179.5"/>
<text text-anchor="middle" x="363.5" y="-186.5" font-family="Helvetica,sans-Serif" font-size="10.00" fill="#000000">DataFormatsMID/ROFRecord.h</text>
</a>
</g>
</g>
<!-- Node0&#45;&gt;Node4 -->
<g id="edge4" class="edge">
<title>Node0&#45;&gt;Node4</title>
<path fill="none" stroke="#191970" d="M529.361,-235.4283C487.8295,-223.8026 440.8684,-210.6572 407.5445,-201.3291"/>
<polygon fill="#191970" stroke="#191970" points="408.2348,-197.8878 397.6615,-198.5626 406.3478,-204.6287 408.2348,-197.8878"/>
</g>
<!-- Node11 -->
<g id="node12" class="node">
<title>Node11</title>
<g id="a_node12"><a xlink:href="../../d8/de7/ElectronicsDelay_8h.html" target="_top" xlink:title="Delay parameters for MID electronics. ">
<polygon fill="none" stroke="#000000" points="599,-179.5 599,-198.5 748,-198.5 748,-179.5 599,-179.5"/>
<text text-anchor="middle" x="673.5" y="-186.5" font-family="Helvetica,sans-Serif" font-size="10.00" fill="#000000">MIDRaw/ElectronicsDelay.h</text>
</a>
</g>
</g>
<!-- Node0&#45;&gt;Node11 -->
<g id="edge12" class="edge">
<title>Node0&#45;&gt;Node11</title>
<path fill="none" stroke="#191970" d="M640.9122,-235.3258C647.5334,-225.9134 654.8471,-215.5164 660.8654,-206.961"/>
<polygon fill="#191970" stroke="#191970" points="663.9024,-208.7268 666.7933,-198.534 658.1771,-204.6993 663.9024,-208.7268"/>
</g>
<!-- Node13 -->
<g id="node14" class="node">
<title>Node13</title>
<g id="a_node14"><a xlink:href="../../d3/d4a/LocalBoardRO_8h.html" target="_top" xlink:title="Structure to store the FEE local board information. ">
<polygon fill="none" stroke="#000000" points="407.5,-118 407.5,-137 543.5,-137 543.5,-118 407.5,-118"/>
<text text-anchor="middle" x="475.5" y="-125" font-family="Helvetica,sans-Serif" font-size="10.00" fill="#000000">MIDRaw/LocalBoardRO.h</text>
</a>
</g>
</g>
<!-- Node0&#45;&gt;Node13 -->
<g id="edge15" class="edge">
<title>Node0&#45;&gt;Node13</title>
<path fill="none" stroke="#191970" d="M593.808,-235.3453C564.2311,-208.3841 519.0004,-167.1535 493.899,-144.2719"/>
<polygon fill="#191970" stroke="#191970" points="495.958,-141.4128 486.2098,-137.2626 491.2422,-146.586 495.958,-141.4128"/>
</g>
<!-- Node5 -->
<g id="node6" class="node">
<title>Node5</title>
<g id="a_node6"><a xlink:href="../../d9/d80/InteractionRecord_8h.html" target="_top" xlink:title="CommonDataFormat/Interaction\lRecord.h">
<polygon fill="none" stroke="#000000" points="215.5,-112.5 215.5,-142.5 389.5,-142.5 389.5,-112.5 215.5,-112.5"/>
<text text-anchor="start" x="223.5" y="-130.5" font-family="Helvetica,sans-Serif" font-size="10.00" fill="#000000">CommonDataFormat/Interaction</text>
<text text-anchor="middle" x="302.5" y="-119.5" font-family="Helvetica,sans-Serif" font-size="10.00" fill="#000000">Record.h</text>
</a>
</g>
</g>
<!-- Node4&#45;&gt;Node5 -->
<g id="edge5" class="edge">
<title>Node4&#45;&gt;Node5</title>
<path fill="none" stroke="#191970" d="M353.9688,-179.3906C346.0953,-171.4527 334.6087,-159.8718 324.4833,-149.6635"/>
<polygon fill="#191970" stroke="#191970" points="326.9494,-147.1797 317.4223,-142.5446 321.9795,-152.1093 326.9494,-147.1797"/>
</g>
<!-- Node5&#45;&gt;Node1 -->
<g id="edge9" class="edge">
<title>Node5&#45;&gt;Node1</title>
<path fill="none" stroke="#191970" d="M375.9665,-112.4566C421.9681,-102.7419 482.3869,-89.4442 535.5,-76 535.5996,-75.9748 535.6993,-75.9495 535.7991,-75.9242"/>
<polygon fill="#191970" stroke="#191970" points="536.5499,-79.3462 545.3144,-73.3937 534.7508,-72.5814 536.5499,-79.3462"/>
</g>
<!-- Node6 -->
<g id="node7" class="node">
<title>Node6</title>
<g id="a_node7"><a xlink:href="../../d2/d45/GPUCommonRtypes_8h.html" target="_top" xlink:title="GPUCommonRtypes.h">
<polygon fill="none" stroke="#000000" points="0,-56.5 0,-75.5 125,-75.5 125,-56.5 0,-56.5"/>
<text text-anchor="middle" x="62.5" y="-63.5" font-family="Helvetica,sans-Serif" font-size="10.00" fill="#000000">GPUCommonRtypes.h</text>
</a>
</g>
</g>
<!-- Node5&#45;&gt;Node6 -->
<g id="edge6" class="edge">
<title>Node5&#45;&gt;Node6</title>
<path fill="none" stroke="#191970" d="M243.7894,-112.4554C202.5153,-101.8789 148.018,-87.914 109.5881,-78.0663"/>
<polygon fill="#191970" stroke="#191970" points="110.2473,-74.6222 99.6915,-75.5303 108.5097,-81.4031 110.2473,-74.6222"/>
</g>
<!-- Node8 -->
<g id="node9" class="node">
<title>Node8</title>
<polygon fill="none" stroke="#bfbfbf" points="417,-56.5 417,-75.5 466,-75.5 466,-56.5 417,-56.5"/>
<text text-anchor="middle" x="441.5" y="-63.5" font-family="Helvetica,sans-Serif" font-size="10.00" fill="#000000">iosfwd</text>
</g>
<!-- Node5&#45;&gt;Node8 -->
<g id="edge8" class="edge">
<title>Node5&#45;&gt;Node8</title>
<path fill="none" stroke="#191970" d="M336.5032,-112.4554C359.1871,-102.419 388.7673,-89.3314 410.7479,-79.6061"/>
<polygon fill="#191970" stroke="#191970" points="412.2312,-82.7772 419.9599,-75.5303 409.3989,-76.3758 412.2312,-82.7772"/>
</g>
<!-- Node9 -->
<g id="node10" class="node">
<title>Node9</title>
<polygon fill="none" stroke="#bfbfbf" points="143,-56.5 143,-75.5 190,-75.5 190,-56.5 143,-56.5"/>
<text text-anchor="middle" x="166.5" y="-63.5" font-family="Helvetica,sans-Serif" font-size="10.00" fill="#000000">cmath</text>
</g>
<!-- Node5&#45;&gt;Node9 -->
<g id="edge10" class="edge">
<title>Node5&#45;&gt;Node9</title>
<path fill="none" stroke="#191970" d="M269.2307,-112.4554C247.1359,-102.464 218.354,-89.4487 196.8781,-79.7372"/>
<polygon fill="#191970" stroke="#191970" points="198.129,-76.4616 187.5752,-75.5303 195.2447,-82.8398 198.129,-76.4616"/>
</g>
<!-- Node10 -->
<g id="node11" class="node">
<title>Node10</title>
<g id="a_node11"><a xlink:href="../../d4/dc6/LHCConstants_8h.html" target="_top" xlink:title="Header to collect LHC related constants. ">
<polygon fill="none" stroke="#000000" points="208.5,-56.5 208.5,-75.5 398.5,-75.5 398.5,-56.5 208.5,-56.5"/>
<text text-anchor="middle" x="303.5" y="-63.5" font-family="Helvetica,sans-Serif" font-size="10.00" fill="#000000">CommonConstants/LHCConstants.h</text>
</a>
</g>
</g>
<!-- Node5&#45;&gt;Node10 -->
<g id="edge11" class="edge">
<title>Node5&#45;&gt;Node10</title>
<path fill="none" stroke="#191970" d="M302.7472,-112.2977C302.8759,-104.3834 303.0349,-94.6043 303.1736,-86.0759"/>
<polygon fill="#191970" stroke="#191970" points="306.6767,-85.9025 303.3399,-75.8469 299.6777,-85.7887 306.6767,-85.9025"/>
</g>
<!-- Node7 -->
<g id="node8" class="node">
<title>Node7</title>
<polygon fill="none" stroke="#bfbfbf" points="33,-.5 33,-19.5 92,-19.5 92,-.5 33,-.5"/>
<text text-anchor="middle" x="62.5" y="-7.5" font-family="Helvetica,sans-Serif" font-size="10.00" fill="#000000">Rtypes.h</text>
</g>
<!-- Node6&#45;&gt;Node7 -->
<g id="edge7" class="edge">
<title>Node6&#45;&gt;Node7</title>
<path fill="none" stroke="#191970" d="M62.5,-56.2455C62.5,-48.9382 62.5,-38.6944 62.5,-29.7046"/>
<polygon fill="#191970" stroke="#191970" points="66.0001,-29.6426 62.5,-19.6427 59.0001,-29.6427 66.0001,-29.6426"/>
</g>
<!-- Node11&#45;&gt;Node1 -->
<g id="edge13" class="edge">
<title>Node11&#45;&gt;Node1</title>
<path fill="none" stroke="#191970" d="M665.1036,-179.153C657.1865,-169.8548 645.0015,-155.5098 634.5,-143 617.3374,-122.5553 597.7361,-98.9318 584.7974,-83.2996"/>
<polygon fill="#191970" stroke="#191970" points="587.4233,-80.9828 578.3525,-75.5081 582.0294,-85.4445 587.4233,-80.9828"/>
</g>
<!-- Node12 -->
<g id="node13" class="node">
<title>Node12</title>
<polygon fill="none" stroke="#bfbfbf" points="643.5,-118 643.5,-137 703.5,-137 703.5,-118 643.5,-118"/>
<text text-anchor="middle" x="673.5" y="-125" font-family="Helvetica,sans-Serif" font-size="10.00" fill="#000000">iostream</text>
</g>
<!-- Node11&#45;&gt;Node12 -->
<g id="edge14" class="edge">
<title>Node11&#45;&gt;Node12</title>
<path fill="none" stroke="#191970" d="M673.5,-179.3906C673.5,-170.8657 673.5,-158.1392 673.5,-147.4235"/>
<polygon fill="#191970" stroke="#191970" points="677.0001,-147.2448 673.5,-137.2449 670.0001,-147.2449 677.0001,-147.2448"/>
</g>
<!-- Node13&#45;&gt;Node1 -->
<g id="edge16" class="edge">
<title>Node13&#45;&gt;Node1</title>
<path fill="none" stroke="#191970" d="M490.3438,-117.8906C505.5418,-108.0519 529.3848,-92.6167 547.1206,-81.1351"/>
<polygon fill="#191970" stroke="#191970" points="549.268,-83.9144 555.7605,-75.5419 545.4639,-78.0382 549.268,-83.9144"/>
</g>
<!-- Node13&#45;&gt;Node8 -->
<g id="edge18" class="edge">
<title>Node13&#45;&gt;Node8</title>
<path fill="none" stroke="#191970" d="M470.1875,-117.8906C465.2761,-109.0068 457.8421,-95.5601 451.7725,-84.5811"/>
<polygon fill="#191970" stroke="#191970" points="454.7888,-82.8031 446.8874,-75.7449 448.6627,-86.1899 454.7888,-82.8031"/>
</g>
<!-- Node14 -->
<g id="node15" class="node">
<title>Node14</title>
<polygon fill="none" stroke="#bfbfbf" points="484.5,-56.5 484.5,-75.5 526.5,-75.5 526.5,-56.5 484.5,-56.5"/>
<text text-anchor="middle" x="505.5" y="-63.5" font-family="Helvetica,sans-Serif" font-size="10.00" fill="#000000">array</text>
</g>
<!-- Node13&#45;&gt;Node14 -->
<g id="edge17" class="edge">
<title>Node13&#45;&gt;Node14</title>
<path fill="none" stroke="#191970" d="M480.1875,-117.8906C484.4773,-109.0965 490.9482,-95.8312 496.2734,-84.9145"/>
<polygon fill="#191970" stroke="#191970" points="499.5078,-86.2671 500.7464,-75.7449 493.2164,-83.1981 499.5078,-86.2671"/>
</g>
</g>
</svg>
