<?xml version="1.0" encoding="UTF-8" standalone="no"?>
<!DOCTYPE svg PUBLIC "-//W3C//DTD SVG 1.1//EN"
 "http://www.w3.org/Graphics/SVG/1.1/DTD/svg11.dtd">
<!-- Generated by graphviz version 2.40.1 (20161225.0304)
 -->
<!-- Title: /home/travis/build/AliceO2Group/AliceO2/Detectors/MUON/MID/Tracking/test/bench_Tracker.cxx Pages: 1 -->
<!--zoomable 374 -->
<svg id="main" version="1.1" xmlns="http://www.w3.org/2000/svg" xmlns:xlink="http://www.w3.org/1999/xlink" xml:space="preserve" onload="init(evt)">
<style type="text/css"><![CDATA[
.edge:hover path { stroke: red; }
.edge:hover polygon { stroke: red; fill: red; }
]]></style>
<script type="text/javascript"><![CDATA[
var edges = document.getElementsByTagName('g');
if (edges && edges.length) {
  for (var i=0;i<edges.length;i++) {
    if (edges[i].id.substr(0,4)=='edge') {
      edges[i].setAttribute('class','edge');
    }
  }
}
]]></script>
        <defs>
                <circle id="rim" cx="0" cy="0" r="7"/>
                <circle id="rim2" cx="0" cy="0" r="3.5"/>
                <g id="zoomPlus">
                        <use xlink:href="#rim" fill="#404040">
                                <set attributeName="fill" to="#808080" begin="zoomplus.mouseover" end="zoomplus.mouseout"/>
                        </use>
                        <path d="M-4,0h8M0,-4v8" fill="none" stroke="white" stroke-width="1.5" pointer-events="none"/>
                </g>
                <g id="zoomMin">
                        <use xlink:href="#rim" fill="#404040">
                                <set attributeName="fill" to="#808080" begin="zoomminus.mouseover" end="zoomminus.mouseout"/>
                        </use>
                        <path d="M-4,0h8" fill="none" stroke="white" stroke-width="1.5" pointer-events="none"/>
                </g>
                <g id="dirArrow">
                        <path fill="none" stroke="white" stroke-width="1.5" d="M0,-3.0v7 M-2.5,-0.5L0,-3.0L2.5,-0.5"/>
                </g>
               <g id="resetDef">
                       <use xlink:href="#rim2" fill="#404040">
                               <set attributeName="fill" to="#808080" begin="reset.mouseover" end="reset.mouseout"/>
                       </use>
               </g>
        </defs>

<script type="text/javascript">
var viewWidth = 2345;
var viewHeight = 374;
var sectionId = 'dynsection-0';
</script>
<script xlink:href="../../svgpan.js"/>
<svg id="graph" class="graph">
<g id="viewport">
<title>/home/travis/build/AliceO2Group/AliceO2/Detectors/MUON/MID/Tracking/test/bench_Tracker.cxx</title>
<!-- Node0 -->
<g id="node1" class="node">
<title>Node0</title>
<polygon fill="#bfbfbf" stroke="#000000" points="338,-313.5 338,-365.5 504,-365.5 504,-313.5 338,-313.5"/>
<text text-anchor="start" x="346" y="-353.5" font-family="Helvetica,sans-Serif" font-size="10.00" fill="#000000">/home/travis/build</text>
<text text-anchor="start" x="346" y="-342.5" font-family="Helvetica,sans-Serif" font-size="10.00" fill="#000000">/AliceO2Group/AliceO2</text>
<text text-anchor="start" x="346" y="-331.5" font-family="Helvetica,sans-Serif" font-size="10.00" fill="#000000">/Detectors/MUON/MID/Tracking</text>
<text text-anchor="middle" x="421" y="-320.5" font-family="Helvetica,sans-Serif" font-size="10.00" fill="#000000">/test/bench_Tracker.cxx</text>
</g>
<!-- Node1 -->
<g id="node2" class="node">
<title>Node1</title>
<polygon fill="none" stroke="#bfbfbf" points="0,-252 0,-271 138,-271 138,-252 0,-252"/>
<text text-anchor="middle" x="69" y="-259" font-family="Helvetica,sans-Serif" font-size="10.00" fill="#000000">benchmark/benchmark.h</text>
</g>
<!-- Node0&#45;&gt;Node1 -->
<g id="edge1" class="edge">
<title>Node0&#45;&gt;Node1</title>
<path fill="none" stroke="#191970" d="M337.5809,-321.0151C270.8387,-306.2256 179.2653,-285.9338 122.1429,-273.276"/>
<polygon fill="#191970" stroke="#191970" points="122.7596,-269.8278 112.2392,-271.0814 121.2452,-276.662 122.7596,-269.8278"/>
</g>
<!-- Node2 -->
<g id="node3" class="node">
<title>Node2</title>
<polygon fill="none" stroke="#bfbfbf" points="276,-190.5 276,-209.5 330,-209.5 330,-190.5 276,-190.5"/>
<text text-anchor="middle" x="303" y="-197.5" font-family="Helvetica,sans-Serif" font-size="10.00" fill="#000000">random</text>
</g>
<!-- Node0&#45;&gt;Node2 -->
<g id="edge2" class="edge">
<title>Node0&#45;&gt;Node2</title>
<path fill="none" stroke="#191970" d="M390.7185,-313.4133C378.9933,-302.6666 365.8184,-289.7583 355,-277 339.1899,-258.3549 323.8754,-234.8009 314.0103,-218.684"/>
<polygon fill="#191970" stroke="#191970" points="316.7713,-216.484 308.6163,-209.7204 310.7735,-220.0933 316.7713,-216.484"/>
</g>
<!-- Node3 -->
<g id="node4" class="node">
<title>Node3</title>
<g id="a_node4"><a xlink:href="../../d6/d31/Cluster2D_8h.html" target="_top" xlink:title="Reconstructed cluster per RPC. ">
<polygon fill="none" stroke="#000000" points="840,-190.5 840,-209.5 998,-209.5 998,-190.5 840,-190.5"/>
<text text-anchor="middle" x="919" y="-197.5" font-family="Helvetica,sans-Serif" font-size="10.00" fill="#000000">DataFormatsMID/Cluster2D.h</text>
</a>
</g>
</g>
<!-- Node0&#45;&gt;Node3 -->
<g id="edge3" class="edge">
<title>Node0&#45;&gt;Node3</title>
<path fill="none" stroke="#191970" d="M504.3152,-330.5991C574.1274,-321.6307 675.7631,-305.0228 761,-277 810.1757,-260.8328 863.5584,-232.2803 893.9786,-214.8562"/>
<polygon fill="#191970" stroke="#191970" points="896.1169,-217.6624 903.014,-209.6199 892.607,-211.6059 896.1169,-217.6624"/>
</g>
<!-- Node6 -->
<g id="node7" class="node">
<title>Node6</title>
<g id="a_node7"><a xlink:href="../../d4/d54/DataFormats_2Detectors_2MUON_2MID_2include_2DataFormatsMID_2Track_8h.html" target="_top" xlink:title="Reconstructed MID track. ">
<polygon fill="none" stroke="#000000" points="452,-190.5 452,-209.5 588,-209.5 588,-190.5 452,-190.5"/>
<text text-anchor="middle" x="520" y="-197.5" font-family="Helvetica,sans-Serif" font-size="10.00" fill="#000000">DataFormatsMID/Track.h</text>
</a>
</g>
</g>
<!-- Node0&#45;&gt;Node6 -->
<g id="edge6" class="edge">
<title>Node0&#45;&gt;Node6</title>
<path fill="none" stroke="#191970" d="M452.9961,-313.3698C464.4298,-302.911 476.7573,-290.2129 486,-277 498.6431,-258.9263 508.1968,-235.3977 513.909,-219.1296"/>
<polygon fill="#191970" stroke="#191970" points="517.2376,-220.2119 517.1019,-209.6179 510.6015,-217.9842 517.2376,-220.2119"/>
</g>
<!-- Node8 -->
<g id="node9" class="node">
<title>Node8</title>
<g id="a_node9"><a xlink:href="../../d2/d0e/Mapping_8h.html" target="_top" xlink:title="Mapping for MID. ">
<polygon fill="none" stroke="#000000" points="194.5,-252 194.5,-271 307.5,-271 307.5,-252 194.5,-252"/>
<text text-anchor="middle" x="251" y="-259" font-family="Helvetica,sans-Serif" font-size="10.00" fill="#000000">MIDBase/Mapping.h</text>
</a>
</g>
</g>
<!-- Node0&#45;&gt;Node8 -->
<g id="edge9" class="edge">
<title>Node0&#45;&gt;Node8</title>
<path fill="none" stroke="#191970" d="M363.9195,-313.3101C336.2359,-300.6083 304.1075,-285.867 281.2158,-275.3637"/>
<polygon fill="#191970" stroke="#191970" points="282.5591,-272.1293 272.0105,-271.1401 279.6399,-278.4915 282.5591,-272.1293"/>
</g>
<!-- Node10 -->
<g id="node11" class="node">
<title>Node10</title>
<g id="a_node11"><a xlink:href="../../d7/d0a/MpArea_8h.html" target="_top" xlink:title="Mapping area for MID. ">
<polygon fill="none" stroke="#000000" points="112,-190.5 112,-209.5 220,-209.5 220,-190.5 112,-190.5"/>
<text text-anchor="middle" x="166" y="-197.5" font-family="Helvetica,sans-Serif" font-size="10.00" fill="#000000">MIDBase/MpArea.h</text>
</a>
</g>
</g>
<!-- Node0&#45;&gt;Node10 -->
<g id="edge14" class="edge">
<title>Node0&#45;&gt;Node10</title>
<path fill="none" stroke="#191970" d="M337.9082,-326.6863C278.893,-315.9347 206.4692,-298.8366 185,-277 170.1129,-261.8582 166.2671,-237.016 165.5622,-219.6558"/>
<polygon fill="#191970" stroke="#191970" points="169.0608,-219.4723 165.4682,-209.5052 162.0611,-219.5373 169.0608,-219.4723"/>
</g>
<!-- Node11 -->
<g id="node12" class="node">
<title>Node11</title>
<g id="a_node12"><a xlink:href="../../d7/d40/HitFinder_8h.html" target="_top" xlink:title="Hit finder for MID. ">
<polygon fill="none" stroke="#000000" points="638.5,-246.5 638.5,-276.5 751.5,-276.5 751.5,-246.5 638.5,-246.5"/>
<text text-anchor="start" x="646.5" y="-264.5" font-family="Helvetica,sans-Serif" font-size="10.00" fill="#000000">MIDTestingSimTools</text>
<text text-anchor="middle" x="695" y="-253.5" font-family="Helvetica,sans-Serif" font-size="10.00" fill="#000000">/HitFinder.h</text>
</a>
</g>
</g>
<!-- Node0&#45;&gt;Node11 -->
<g id="edge15" class="edge">
<title>Node0&#45;&gt;Node11</title>
<path fill="none" stroke="#191970" d="M504.325,-315.7797C545.5162,-304.0538 594.3968,-290.1389 632.3536,-279.3336"/>
<polygon fill="#191970" stroke="#191970" points="633.5947,-282.6195 642.2543,-276.5152 631.6781,-275.8869 633.5947,-282.6195"/>
</g>
<!-- Node26 -->
<g id="node27" class="node">
<title>Node26</title>
<g id="a_node27"><a xlink:href="../../d3/d93/TrackGenerator_8h.html" target="_top" xlink:title="Fast track generator for MID. ">
<polygon fill="none" stroke="#000000" points="364.5,-246.5 364.5,-276.5 477.5,-276.5 477.5,-246.5 364.5,-246.5"/>
<text text-anchor="start" x="372.5" y="-264.5" font-family="Helvetica,sans-Serif" font-size="10.00" fill="#000000">MIDTestingSimTools</text>
<text text-anchor="middle" x="421" y="-253.5" font-family="Helvetica,sans-Serif" font-size="10.00" fill="#000000">/TrackGenerator.h</text>
</a>
</g>
</g>
<!-- Node0&#45;&gt;Node26 -->
<g id="edge35" class="edge">
<title>Node0&#45;&gt;Node26</title>
<path fill="none" stroke="#191970" d="M421,-313.0928C421,-304.516 421,-295.0289 421,-286.5538"/>
<polygon fill="#191970" stroke="#191970" points="424.5001,-286.5045 421,-276.5046 417.5001,-286.5046 424.5001,-286.5045"/>
</g>
<!-- Node27 -->
<g id="node28" class="node">
<title>Node27</title>
<g id="a_node28"><a xlink:href="../../db/d8e/MUON_2MID_2Tracking_2include_2MIDTracking_2Tracker_8h.html" target="_top" xlink:title="Track reconstruction algorithm for MID. ">
<polygon fill="none" stroke="#000000" points="845,-252 845,-271 967,-271 967,-252 845,-252"/>
<text text-anchor="middle" x="906" y="-259" font-family="Helvetica,sans-Serif" font-size="10.00" fill="#000000">MIDTracking/Tracker.h</text>
</a>
</g>
</g>
<!-- Node0&#45;&gt;Node27 -->
<g id="edge40" class="edge">
<title>Node0&#45;&gt;Node27</title>
<path fill="none" stroke="#191970" d="M504.1694,-326.9483C584.7446,-314.668 710.3532,-295.207 819,-277 826.9603,-275.666 835.3231,-274.2257 843.5867,-272.7791"/>
<polygon fill="#191970" stroke="#191970" points="844.3425,-276.2 853.5836,-271.0182 843.1281,-269.3061 844.3425,-276.2"/>
</g>
<!-- Node4 -->
<g id="node5" class="node">
<title>Node4</title>
<polygon fill="none" stroke="#bfbfbf" points="891.5,-129 891.5,-148 948.5,-148 948.5,-129 891.5,-129"/>
<text text-anchor="middle" x="920" y="-136" font-family="Helvetica,sans-Serif" font-size="10.00" fill="#000000">ostream</text>
</g>
<!-- Node3&#45;&gt;Node4 -->
<g id="edge4" class="edge">
<title>Node3&#45;&gt;Node4</title>
<path fill="none" stroke="#191970" d="M919.1563,-190.3906C919.2949,-181.8657 919.5018,-169.1392 919.676,-158.4235"/>
<polygon fill="#191970" stroke="#191970" points="923.1784,-158.3005 919.8415,-148.2449 916.1793,-158.1866 923.1784,-158.3005"/>
</g>
<!-- Node5 -->
<g id="node6" class="node">
<title>Node5</title>
<polygon fill="none" stroke="#bfbfbf" points="1869,-62 1869,-81 1919,-81 1919,-62 1869,-62"/>
<text text-anchor="middle" x="1894" y="-69" font-family="Helvetica,sans-Serif" font-size="10.00" fill="#000000">cstdint</text>
</g>
<!-- Node3&#45;&gt;Node5 -->
<g id="edge5" class="edge">
<title>Node3&#45;&gt;Node5</title>
<path fill="none" stroke="#191970" d="M976.1194,-190.4379C1072.1135,-174.6273 1271.9863,-142.8183 1442,-123 1627.2114,-101.4102 1679.6503,-134.364 1860,-87 1862.1921,-86.4243 1864.4192,-85.717 1866.6308,-84.9248"/>
<polygon fill="#191970" stroke="#191970" points="1868.1478,-88.0857 1876.0717,-81.0528 1865.4915,-81.6092 1868.1478,-88.0857"/>
</g>
<!-- Node6&#45;&gt;Node4 -->
<g id="edge8" class="edge">
<title>Node6&#45;&gt;Node4</title>
<path fill="none" stroke="#191970" d="M588.0184,-191.1533C591.0537,-190.7627 594.0584,-190.3768 597,-190 723.6385,-173.7786 758.5029,-186.3868 882,-154 884.6232,-153.3121 887.3064,-152.4861 889.9738,-151.5782"/>
<polygon fill="#191970" stroke="#191970" points="891.2946,-154.821 899.429,-148.0327 888.8367,-148.2667 891.2946,-154.821"/>
</g>
<!-- Node7 -->
<g id="node8" class="node">
<title>Node7</title>
<polygon fill="none" stroke="#bfbfbf" points="206,-62 206,-81 248,-81 248,-62 206,-62"/>
<text text-anchor="middle" x="227" y="-69" font-family="Helvetica,sans-Serif" font-size="10.00" fill="#000000">array</text>
</g>
<!-- Node6&#45;&gt;Node7 -->
<g id="edge7" class="edge">
<title>Node6&#45;&gt;Node7</title>
<path fill="none" stroke="#191970" d="M496.9075,-190.4886C476.3407,-181.7578 445.6267,-168.0762 420,-154 397.7412,-141.7737 394.9939,-133.7805 372,-123 323.5081,-100.265 306.5325,-107.3685 257,-87 255.8106,-86.5109 254.6047,-85.9918 253.3939,-85.4514"/>
<polygon fill="#191970" stroke="#191970" points="254.7376,-82.214 244.2082,-81.0378 251.7059,-88.5235 254.7376,-82.214"/>
</g>
<!-- Node8&#45;&gt;Node7 -->
<g id="edge10" class="edge">
<title>Node8&#45;&gt;Node7</title>
<path fill="none" stroke="#191970" d="M249.7768,-251.8167C246.0224,-222.0938 234.6095,-131.742 229.5091,-91.3634"/>
<polygon fill="#191970" stroke="#191970" points="232.9752,-90.8742 228.2495,-81.3917 226.0304,-91.7515 232.9752,-90.8742"/>
</g>
<!-- Node9 -->
<g id="node10" class="node">
<title>Node9</title>
<polygon fill="none" stroke="#bfbfbf" points="386.5,-190.5 386.5,-209.5 433.5,-209.5 433.5,-190.5 386.5,-190.5"/>
<text text-anchor="middle" x="410" y="-197.5" font-family="Helvetica,sans-Serif" font-size="10.00" fill="#000000">vector</text>
</g>
<!-- Node8&#45;&gt;Node9 -->
<g id="edge11" class="edge">
<title>Node8&#45;&gt;Node9</title>
<path fill="none" stroke="#191970" d="M275.8438,-251.8906C302.9946,-241.3889 346.6301,-224.511 376.7244,-212.8708"/>
<polygon fill="#191970" stroke="#191970" points="378.3038,-216.0126 386.3678,-209.1408 375.7785,-209.484 378.3038,-216.0126"/>
</g>
<!-- Node8&#45;&gt;Node10 -->
<g id="edge12" class="edge">
<title>Node8&#45;&gt;Node10</title>
<path fill="none" stroke="#191970" d="M237.7188,-251.8906C224.2452,-242.1421 203.178,-226.8994 187.3565,-215.4521"/>
<polygon fill="#191970" stroke="#191970" points="189.3414,-212.5682 179.188,-209.5419 185.2381,-218.2394 189.3414,-212.5682"/>
</g>
<!-- Node10&#45;&gt;Node7 -->
<g id="edge13" class="edge">
<title>Node10&#45;&gt;Node7</title>
<path fill="none" stroke="#191970" d="M170.5849,-190.3416C180.6531,-169.1323 204.8463,-118.1679 218.0437,-90.3669"/>
<polygon fill="#191970" stroke="#191970" points="221.2352,-91.8052 222.3619,-81.2705 214.9116,-88.8033 221.2352,-91.8052"/>
</g>
<!-- Node11&#45;&gt;Node3 -->
<g id="edge27" class="edge">
<title>Node11&#45;&gt;Node3</title>
<path fill="none" stroke="#191970" d="M749.7966,-246.4554C788.1551,-235.9239 838.7505,-222.0328 874.5924,-212.1923"/>
<polygon fill="#191970" stroke="#191970" points="875.5715,-215.5531 884.288,-209.5303 873.7181,-208.8028 875.5715,-215.5531"/>
</g>
<!-- Node11&#45;&gt;Node6 -->
<g id="edge28" class="edge">
<title>Node11&#45;&gt;Node6</title>
<path fill="none" stroke="#191970" d="M652.1902,-246.4554C622.991,-236.194 584.7157,-222.7429 556.8698,-212.9571"/>
<polygon fill="#191970" stroke="#191970" points="557.7136,-209.5439 547.1188,-209.5303 555.3927,-216.1479 557.7136,-209.5439"/>
</g>
<!-- Node12 -->
<g id="node13" class="node">
<title>Node12</title>
<g id="a_node13"><a xlink:href="../../dc/d73/Cartesian_8h.html" target="_top" xlink:title="MathUtils/Cartesian.h">
<polygon fill="none" stroke="#000000" points="751,-129 751,-148 873,-148 873,-129 751,-129"/>
<text text-anchor="middle" x="812" y="-136" font-family="Helvetica,sans-Serif" font-size="10.00" fill="#000000">MathUtils/Cartesian.h</text>
</a>
</g>
</g>
<!-- Node11&#45;&gt;Node12 -->
<g id="edge16" class="edge">
<title>Node11&#45;&gt;Node12</title>
<path fill="none" stroke="#191970" d="M741.403,-246.4814C759.8678,-238.3604 779.8157,-226.5277 793,-210 804.7302,-195.2951 809.2574,-174.0146 810.984,-158.4947"/>
<polygon fill="#191970" stroke="#191970" points="814.4837,-158.64 811.8092,-148.3883 807.5069,-158.0703 814.4837,-158.64"/>
</g>
<!-- Node23 -->
<g id="node24" class="node">
<title>Node23</title>
<g id="a_node24"><a xlink:href="../../de/d0c/GeometryTransformer_8h.html" target="_top" xlink:title="Geometry transformer for MID. ">
<polygon fill="none" stroke="#000000" points="606,-190.5 606,-209.5 784,-209.5 784,-190.5 606,-190.5"/>
<text text-anchor="middle" x="695" y="-197.5" font-family="Helvetica,sans-Serif" font-size="10.00" fill="#000000">MIDBase/GeometryTransformer.h</text>
</a>
</g>
</g>
<!-- Node11&#45;&gt;Node23 -->
<g id="edge29" class="edge">
<title>Node11&#45;&gt;Node23</title>
<path fill="none" stroke="#191970" d="M695,-246.2977C695,-238.3834 695,-228.6043 695,-220.0759"/>
<polygon fill="#191970" stroke="#191970" points="698.5001,-219.8469 695,-209.8469 691.5001,-219.847 698.5001,-219.8469"/>
</g>
<!-- Node13 -->
<g id="node14" class="node">
<title>Node13</title>
<polygon fill="none" stroke="#bfbfbf" points="466,-56.5 466,-86.5 630,-86.5 630,-56.5 466,-56.5"/>
<text text-anchor="start" x="474" y="-74.5" font-family="Helvetica,sans-Serif" font-size="10.00" fill="#000000">Math/GenVector/Displacement</text>
<text text-anchor="middle" x="548" y="-63.5" font-family="Helvetica,sans-Serif" font-size="10.00" fill="#000000">Vector3D.h</text>
</g>
<!-- Node12&#45;&gt;Node13 -->
<g id="edge17" class="edge">
<title>Node12&#45;&gt;Node13</title>
<path fill="none" stroke="#191970" d="M774.4556,-128.9717C733.6175,-118.6075 667.4496,-101.8148 617.1572,-89.0512"/>
<polygon fill="#191970" stroke="#191970" points="617.8763,-85.6229 607.3226,-86.5553 616.1543,-92.4078 617.8763,-85.6229"/>
</g>
<!-- Node14 -->
<g id="node15" class="node">
<title>Node14</title>
<polygon fill="none" stroke="#bfbfbf" points="648.5,-62 648.5,-81 837.5,-81 837.5,-62 648.5,-62"/>
<text text-anchor="middle" x="743" y="-69" font-family="Helvetica,sans-Serif" font-size="10.00" fill="#000000">Math/GenVector/PositionVector3D.h</text>
</g>
<!-- Node12&#45;&gt;Node14 -->
<g id="edge18" class="edge">
<title>Node12&#45;&gt;Node14</title>
<path fill="none" stroke="#191970" d="M802.114,-128.9005C791.2516,-118.353 773.5965,-101.2096 760.4043,-88.3998"/>
<polygon fill="#191970" stroke="#191970" points="762.4802,-85.537 752.8677,-81.0817 757.6038,-90.559 762.4802,-85.537"/>
</g>
<!-- Node15 -->
<g id="node16" class="node">
<title>Node15</title>
<polygon fill="none" stroke="#bfbfbf" points="856,-62 856,-81 1016,-81 1016,-62 856,-62"/>
<text text-anchor="middle" x="936" y="-69" font-family="Helvetica,sans-Serif" font-size="10.00" fill="#000000">Math/GenVector/Rotation3D.h</text>
</g>
<!-- Node12&#45;&gt;Node15 -->
<g id="edge19" class="edge">
<title>Node12&#45;&gt;Node15</title>
<path fill="none" stroke="#191970" d="M829.7662,-128.9005C850.5762,-117.6564 885.2588,-98.9166 909.3087,-85.9219"/>
<polygon fill="#191970" stroke="#191970" points="911.1327,-88.9147 918.2668,-81.0817 907.8051,-82.7561 911.1327,-88.9147"/>
</g>
<!-- Node16 -->
<g id="node17" class="node">
<title>Node16</title>
<polygon fill="none" stroke="#bfbfbf" points="1034,-62 1034,-81 1202,-81 1202,-62 1034,-62"/>
<text text-anchor="middle" x="1118" y="-69" font-family="Helvetica,sans-Serif" font-size="10.00" fill="#000000">Math/GenVector/Transform3D.h</text>
</g>
<!-- Node12&#45;&gt;Node16 -->
<g id="edge20" class="edge">
<title>Node12&#45;&gt;Node16</title>
<path fill="none" stroke="#191970" d="M855.5174,-128.9717C910.4219,-116.9501 1004.8268,-96.2797 1064.1992,-83.2799"/>
<polygon fill="#191970" stroke="#191970" points="1065.1174,-86.6619 1074.1373,-81.1039 1063.6201,-79.8239 1065.1174,-86.6619"/>
</g>
<!-- Node17 -->
<g id="node18" class="node">
<title>Node17</title>
<polygon fill="none" stroke="#bfbfbf" points="1220.5,-62 1220.5,-81 1393.5,-81 1393.5,-62 1220.5,-62"/>
<text text-anchor="middle" x="1307" y="-69" font-family="Helvetica,sans-Serif" font-size="10.00" fill="#000000">Math/GenVector/Translation3D.h</text>
</g>
<!-- Node12&#45;&gt;Node17 -->
<g id="edge21" class="edge">
<title>Node12&#45;&gt;Node17</title>
<path fill="none" stroke="#191970" d="M852.0351,-128.9859C862.1032,-126.8071 872.9145,-124.6496 883,-123 1027.73,-99.3274 1065.6752,-106.6942 1211,-87 1220.7241,-85.6822 1230.9814,-84.1638 1241.0286,-82.6037"/>
<polygon fill="#191970" stroke="#191970" points="1241.645,-86.0499 1250.9782,-81.0357 1240.5552,-79.1352 1241.645,-86.0499"/>
</g>
<!-- Node18 -->
<g id="node19" class="node">
<title>Node18</title>
<polygon fill="none" stroke="#bfbfbf" points="1412,-56.5 1412,-86.5 1576,-86.5 1576,-56.5 1412,-56.5"/>
<text text-anchor="start" x="1420" y="-74.5" font-family="Helvetica,sans-Serif" font-size="10.00" fill="#000000">Math/GenVector/Displacement</text>
<text text-anchor="middle" x="1494" y="-63.5" font-family="Helvetica,sans-Serif" font-size="10.00" fill="#000000">Vector2D.h</text>
</g>
<!-- Node12&#45;&gt;Node18 -->
<g id="edge22" class="edge">
<title>Node12&#45;&gt;Node18</title>
<path fill="none" stroke="#191970" d="M850.8759,-128.9429C861.258,-126.6847 872.5087,-124.5002 883,-123 1109.0843,-90.6718 1171.2206,-113.8075 1401.6778,-87.0765"/>
<polygon fill="#191970" stroke="#191970" points="1402.192,-90.5402 1411.7135,-85.8935 1401.3725,-83.5884 1402.192,-90.5402"/>
</g>
<!-- Node19 -->
<g id="node20" class="node">
<title>Node19</title>
<polygon fill="none" stroke="#bfbfbf" points="1594.5,-62 1594.5,-81 1783.5,-81 1783.5,-62 1594.5,-62"/>
<text text-anchor="middle" x="1689" y="-69" font-family="Helvetica,sans-Serif" font-size="10.00" fill="#000000">Math/GenVector/PositionVector2D.h</text>
</g>
<!-- Node12&#45;&gt;Node19 -->
<g id="edge23" class="edge">
<title>Node12&#45;&gt;Node19</title>
<path fill="none" stroke="#191970" d="M850.1182,-128.9772C860.7042,-126.6615 872.2456,-124.4398 883,-123 1192.6473,-81.5448 1274.1381,-118.0625 1585,-87 1596.9205,-85.8089 1609.5636,-84.2098 1621.7756,-82.4903"/>
<polygon fill="#191970" stroke="#191970" points="1622.5115,-85.9204 1631.907,-81.0239 1621.5087,-78.9926 1622.5115,-85.9204"/>
</g>
<!-- Node20 -->
<g id="node21" class="node">
<title>Node20</title>
<polygon fill="none" stroke="#bfbfbf" points="1276.5,-.5 1276.5,-19.5 1335.5,-19.5 1335.5,-.5 1276.5,-.5"/>
<text text-anchor="middle" x="1306" y="-7.5" font-family="Helvetica,sans-Serif" font-size="10.00" fill="#000000">Rtypes.h</text>
</g>
<!-- Node12&#45;&gt;Node20 -->
<g id="edge24" class="edge">
<title>Node12&#45;&gt;Node20</title>
<path fill="none" stroke="#191970" d="M750.7422,-132.6272C628.0984,-120.7274 363.5039,-94.2816 357,-87 347.8218,-76.7244 347.4964,-65.9754 357,-56 388.8301,-22.5897 1090.3074,-12.4392 1266.2527,-10.4144"/>
<polygon fill="#191970" stroke="#191970" points="1266.4076,-13.913 1276.3675,-10.3004 1266.3286,-6.9134 1266.4076,-13.913"/>
</g>
<!-- Node21 -->
<g id="node22" class="node">
<title>Node21</title>
<polygon fill="none" stroke="#bfbfbf" points="366,-62 366,-81 448,-81 448,-62 366,-62"/>
<text text-anchor="middle" x="407" y="-69" font-family="Helvetica,sans-Serif" font-size="10.00" fill="#000000">TGeoMatrix.h</text>
</g>
<!-- Node12&#45;&gt;Node21 -->
<g id="edge25" class="edge">
<title>Node12&#45;&gt;Node21</title>
<path fill="none" stroke="#191970" d="M750.8528,-132.572C679.6852,-124.9958 558.8983,-110.0365 457,-87 453.0734,-86.1123 449.0085,-85.0677 444.971,-83.9471"/>
<polygon fill="#191970" stroke="#191970" points="445.6655,-80.5035 435.0848,-81.0511 443.6976,-87.2213 445.6655,-80.5035"/>
</g>
<!-- Node22 -->
<g id="node23" class="node">
<title>Node22</title>
<polygon fill="none" stroke="#bfbfbf" points="1801.5,-62 1801.5,-81 1850.5,-81 1850.5,-62 1801.5,-62"/>
<text text-anchor="middle" x="1826" y="-69" font-family="Helvetica,sans-Serif" font-size="10.00" fill="#000000">iosfwd</text>
</g>
<!-- Node12&#45;&gt;Node22 -->
<g id="edge26" class="edge">
<title>Node12&#45;&gt;Node22</title>
<path fill="none" stroke="#191970" d="M849.7384,-128.9748C860.4246,-126.6292 872.1122,-124.3929 883,-123 1083.7444,-97.3188 1596.3879,-134.9739 1793,-87 1795.1984,-86.4636 1797.4263,-85.7747 1799.6326,-84.9864"/>
<polygon fill="#191970" stroke="#191970" points="1801.1378,-88.1507 1809.0088,-81.0586 1798.4331,-81.6943 1801.1378,-88.1507"/>
</g>
<!-- Node23&#45;&gt;Node7 -->
<g id="edge30" class="edge">
<title>Node23&#45;&gt;Node7</title>
<path fill="none" stroke="#191970" d="M626.1995,-190.4712C565.6811,-181.4554 482.597,-167.3517 452,-154 430.7357,-144.7209 431.055,-132.7447 410,-123 346.6037,-93.6588 322.5256,-111.2155 257,-87 255.7627,-86.5428 254.5112,-86.0462 253.2575,-85.5207"/>
<polygon fill="#191970" stroke="#191970" points="254.3452,-82.1656 243.8041,-81.0998 251.3799,-88.5065 254.3452,-82.1656"/>
</g>
<!-- Node23&#45;&gt;Node12 -->
<g id="edge34" class="edge">
<title>Node23&#45;&gt;Node12</title>
<path fill="none" stroke="#191970" d="M713.2813,-190.3906C732.5141,-180.2811 762.9879,-164.2628 784.9925,-152.6962"/>
<polygon fill="#191970" stroke="#191970" points="786.624,-155.7928 793.8471,-148.0419 783.367,-149.5967 786.624,-155.7928"/>
</g>
<!-- Node24 -->
<g id="node25" class="node">
<title>Node24</title>
<g id="a_node25"><a xlink:href="../../dc/de4/DetectorParameters_8h.html" target="_top" xlink:title="Useful detector parameters for MID. ">
<polygon fill="none" stroke="#000000" points="461.5,-129 461.5,-148 630.5,-148 630.5,-129 461.5,-129"/>
<text text-anchor="middle" x="546" y="-136" font-family="Helvetica,sans-Serif" font-size="10.00" fill="#000000">MIDBase/DetectorParameters.h</text>
</a>
</g>
</g>
<!-- Node23&#45;&gt;Node24 -->
<g id="edge31" class="edge">
<title>Node23&#45;&gt;Node24</title>
<path fill="none" stroke="#191970" d="M671.7188,-190.3906C646.679,-180.0554 606.6775,-163.5447 578.534,-151.9284"/>
<polygon fill="#191970" stroke="#191970" points="579.6967,-148.622 569.1178,-148.0419 577.026,-155.0925 579.6967,-148.622"/>
</g>
<!-- Node24&#45;&gt;Node7 -->
<g id="edge32" class="edge">
<title>Node24&#45;&gt;Node7</title>
<path fill="none" stroke="#191970" d="M487.1849,-128.9892C409.0722,-116.2084 278.4197,-94.256 257,-87 255.5772,-86.518 254.1386,-85.9772 252.7017,-85.3942"/>
<polygon fill="#191970" stroke="#191970" points="253.9737,-82.1264 243.4277,-81.1103 251.0382,-88.4812 253.9737,-82.1264"/>
</g>
<!-- Node25 -->
<g id="node26" class="node">
<title>Node25</title>
<polygon fill="none" stroke="#bfbfbf" points="266,-62 266,-81 310,-81 310,-62 266,-62"/>
<text text-anchor="middle" x="288" y="-69" font-family="Helvetica,sans-Serif" font-size="10.00" fill="#000000">string</text>
</g>
<!-- Node24&#45;&gt;Node25 -->
<g id="edge33" class="edge">
<title>Node24&#45;&gt;Node25</title>
<path fill="none" stroke="#191970" d="M492.7907,-128.9341C447.3559,-120.1099 380.5739,-105.576 324,-87 322.109,-86.3791 320.1801,-85.6977 318.2467,-84.9778"/>
<polygon fill="#191970" stroke="#191970" points="319.2812,-81.622 308.6965,-81.1585 316.6819,-88.1216 319.2812,-81.622"/>
</g>
<!-- Node26&#45;&gt;Node2 -->
<g id="edge38" class="edge">
<title>Node26&#45;&gt;Node2</title>
<path fill="none" stroke="#191970" d="M392.134,-246.4554C373.3089,-236.644 348.889,-223.9167 330.3708,-214.2653"/>
<polygon fill="#191970" stroke="#191970" points="331.7713,-211.0484 321.2858,-209.5303 328.536,-217.2559 331.7713,-211.0484"/>
</g>
<!-- Node26&#45;&gt;Node6 -->
<g id="edge39" class="edge">
<title>Node26&#45;&gt;Node6</title>
<path fill="none" stroke="#191970" d="M445.2181,-246.4554C460.5773,-236.9141 480.3757,-224.6151 495.7425,-215.0691"/>
<polygon fill="#191970" stroke="#191970" points="498.011,-217.7802 504.6585,-209.5303 494.3172,-211.8341 498.011,-217.7802"/>
</g>
<!-- Node26&#45;&gt;Node7 -->
<g id="edge36" class="edge">
<title>Node26&#45;&gt;Node7</title>
<path fill="none" stroke="#191970" d="M405.4521,-246.2727C369.6751,-211.2334 281.7258,-125.0974 244.3053,-88.4484"/>
<polygon fill="#191970" stroke="#191970" points="246.3197,-85.5224 236.7264,-81.0258 241.4218,-90.5234 246.3197,-85.5224"/>
</g>
<!-- Node26&#45;&gt;Node9 -->
<g id="edge37" class="edge">
<title>Node26&#45;&gt;Node9</title>
<path fill="none" stroke="#191970" d="M418.2809,-246.2977C416.8494,-238.2945 415.0769,-228.3843 413.5395,-219.7889"/>
<polygon fill="#191970" stroke="#191970" points="416.9673,-219.0744 411.7612,-209.8469 410.0767,-220.307 416.9673,-219.0744"/>
</g>
<!-- Node27&#45;&gt;Node3 -->
<g id="edge43" class="edge">
<title>Node27&#45;&gt;Node3</title>
<path fill="none" stroke="#191970" d="M908.0313,-251.8906C909.8522,-243.276 912.5802,-230.3708 914.8599,-219.5858"/>
<polygon fill="#191970" stroke="#191970" points="918.2962,-220.2525 916.9401,-209.7449 911.4476,-218.8048 918.2962,-220.2525"/>
</g>
<!-- Node27&#45;&gt;Node6 -->
<g id="edge55" class="edge">
<title>Node27&#45;&gt;Node6</title>
<path fill="none" stroke="#191970" d="M846.111,-251.9581C776.8419,-240.9217 662.9699,-222.7789 589.7629,-211.1151"/>
<polygon fill="#191970" stroke="#191970" points="590.138,-207.6308 579.7119,-209.5137 589.0366,-214.5436 590.138,-207.6308"/>
</g>
<!-- Node27&#45;&gt;Node9 -->
<g id="edge41" class="edge">
<title>Node27&#45;&gt;Node9</title>
<path fill="none" stroke="#191970" d="M844.6415,-254.8223C731.6188,-242.5039 497.7798,-216.9268 443.8497,-209.3659"/>
<polygon fill="#191970" stroke="#191970" points="444.0865,-205.8594 433.6593,-207.7371 442.9815,-212.7717 444.0865,-205.8594"/>
</g>
<!-- Node27&#45;&gt;Node23 -->
<g id="edge56" class="edge">
<title>Node27&#45;&gt;Node23</title>
<path fill="none" stroke="#191970" d="M873.0313,-251.8906C836.4883,-241.2395 777.4429,-224.0296 737.465,-212.3772"/>
<polygon fill="#191970" stroke="#191970" points="738.3172,-208.98 727.7372,-209.5419 736.3583,-215.7004 738.3172,-208.98"/>
</g>
<!-- Node28 -->
<g id="node29" class="node">
<title>Node28</title>
<polygon fill="none" stroke="#bfbfbf" points="1192,-190.5 1192,-209.5 1240,-209.5 1240,-190.5 1192,-190.5"/>
<text text-anchor="middle" x="1216" y="-197.5" font-family="Helvetica,sans-Serif" font-size="10.00" fill="#000000">gsl/gsl</text>
</g>
<!-- Node27&#45;&gt;Node28 -->
<g id="edge42" class="edge">
<title>Node27&#45;&gt;Node28</title>
<path fill="none" stroke="#191970" d="M967.2034,-252.1147C1021.2942,-243.3688 1102.4643,-229.1479 1181.7707,-210.0986"/>
<polygon fill="#191970" stroke="#191970" points="1183.0438,-213.3912 1191.934,-207.628 1181.3902,-206.5892 1183.0438,-213.3912"/>
</g>
<!-- Node29 -->
<g id="node30" class="node">
<title>Node29</title>
<g id="a_node30"><a xlink:href="../../d0/daa/Cluster3D_8h.html" target="_top" xlink:title="Reconstructed MID cluster (global coordinates) ">
<polygon fill="none" stroke="#000000" points="1016,-190.5 1016,-209.5 1174,-209.5 1174,-190.5 1016,-190.5"/>
<text text-anchor="middle" x="1095" y="-197.5" font-family="Helvetica,sans-Serif" font-size="10.00" fill="#000000">DataFormatsMID/Cluster3D.h</text>
</a>
</g>
</g>
<!-- Node27&#45;&gt;Node29 -->
<g id="edge44" class="edge">
<title>Node27&#45;&gt;Node29</title>
<path fill="none" stroke="#191970" d="M935.5313,-251.8906C967.9866,-241.3298 1020.2581,-224.3208 1056.0486,-212.6747"/>
<polygon fill="#191970" stroke="#191970" points="1057.2499,-215.9645 1065.6761,-209.5419 1055.0839,-209.308 1057.2499,-215.9645"/>
</g>
<!-- Node30 -->
<g id="node31" class="node">
<title>Node30</title>
<g id="a_node31"><a xlink:href="../../d2/df9/MUON_2MID_2include_2DataFormatsMID_2ROFRecord_8h.html" target="_top" xlink:title="Definition of the MID event record. ">
<polygon fill="none" stroke="#000000" points="1552.5,-190.5 1552.5,-209.5 1715.5,-209.5 1715.5,-190.5 1552.5,-190.5"/>
<text text-anchor="middle" x="1634" y="-197.5" font-family="Helvetica,sans-Serif" font-size="10.00" fill="#000000">DataFormatsMID/ROFRecord.h</text>
</a>
</g>
</g>
<!-- Node27&#45;&gt;Node30 -->
<g id="edge47" class="edge">
<title>Node27&#45;&gt;Node30</title>
<path fill="none" stroke="#191970" d="M967.1287,-256.336C1095.021,-245.5319 1391.4321,-220.4917 1542.2687,-207.7493"/>
<polygon fill="#191970" stroke="#191970" points="1542.7618,-211.2202 1552.4316,-206.8907 1542.1724,-204.245 1542.7618,-211.2202"/>
</g>
<!-- Node29&#45;&gt;Node4 -->
<g id="edge45" class="edge">
<title>Node29&#45;&gt;Node4</title>
<path fill="none" stroke="#191970" d="M1067.6563,-190.3906C1037.8618,-179.92 990.0315,-163.1111 956.9192,-151.4745"/>
<polygon fill="#191970" stroke="#191970" points="957.7466,-148.0554 947.1517,-148.0419 955.4257,-154.6595 957.7466,-148.0554"/>
</g>
<!-- Node29&#45;&gt;Node5 -->
<g id="edge46" class="edge">
<title>Node29&#45;&gt;Node5</title>
<path fill="none" stroke="#191970" d="M1167.4306,-190.4811C1345.3487,-166.9308 1794.174,-106.4423 1860,-87 1861.9131,-86.4349 1863.8572,-85.782 1865.7972,-85.0704"/>
<polygon fill="#191970" stroke="#191970" points="1867.3853,-88.2017 1875.301,-81.1595 1864.7214,-81.7284 1867.3853,-88.2017"/>
</g>
<!-- Node31 -->
<g id="node32" class="node">
<title>Node31</title>
<g id="a_node32"><a xlink:href="../../d9/d80/InteractionRecord_8h.html" target="_top" xlink:title="CommonDataFormat/Interaction\lRecord.h">
<polygon fill="none" stroke="#000000" points="1840,-123.5 1840,-153.5 2014,-153.5 2014,-123.5 1840,-123.5"/>
<text text-anchor="start" x="1848" y="-141.5" font-family="Helvetica,sans-Serif" font-size="10.00" fill="#000000">CommonDataFormat/Interaction</text>
<text text-anchor="middle" x="1927" y="-130.5" font-family="Helvetica,sans-Serif" font-size="10.00" fill="#000000">Record.h</text>
</a>
</g>
</g>
<!-- Node30&#45;&gt;Node31 -->
<g id="edge48" class="edge">
<title>Node30&#45;&gt;Node31</title>
<path fill="none" stroke="#191970" d="M1679.4598,-190.4581C1723.721,-181.1678 1791.9733,-166.8418 1845.6088,-155.5838"/>
<polygon fill="#191970" stroke="#191970" points="1846.3768,-158.999 1855.4446,-153.5193 1844.9388,-152.1482 1846.3768,-158.999"/>
</g>
<!-- Node31&#45;&gt;Node5 -->
<g id="edge52" class="edge">
<title>Node31&#45;&gt;Node5</title>
<path fill="none" stroke="#191970" d="M1919.5118,-123.2967C1914.6697,-113.4658 1908.3341,-100.6026 1903.188,-90.1545"/>
<polygon fill="#191970" stroke="#191970" points="1906.2645,-88.4794 1898.7062,-81.055 1899.9849,-91.5724 1906.2645,-88.4794"/>
</g>
<!-- Node31&#45;&gt;Node22 -->
<g id="edge51" class="edge">
<title>Node31&#45;&gt;Node22</title>
<path fill="none" stroke="#191970" d="M1904.3336,-123.4639C1887.8451,-112.526 1865.5996,-97.769 1849.0278,-86.7759"/>
<polygon fill="#191970" stroke="#191970" points="1850.7455,-83.7153 1840.4776,-81.1039 1846.8759,-89.5485 1850.7455,-83.7153"/>
</g>
<!-- Node32 -->
<g id="node33" class="node">
<title>Node32</title>
<g id="a_node33"><a xlink:href="../../d2/d45/GPUCommonRtypes_8h.html" target="_top" xlink:title="GPUCommonRtypes.h">
<polygon fill="none" stroke="#000000" points="2211.5,-62 2211.5,-81 2336.5,-81 2336.5,-62 2211.5,-62"/>
<text text-anchor="middle" x="2274" y="-69" font-family="Helvetica,sans-Serif" font-size="10.00" fill="#000000">GPUCommonRtypes.h</text>
</a>
</g>
</g>
<!-- Node31&#45;&gt;Node32 -->
<g id="edge49" class="edge">
<title>Node31&#45;&gt;Node32</title>
<path fill="none" stroke="#191970" d="M2010.451,-123.4749C2065.0258,-113.5003 2137.8342,-99.9126 2202,-87 2208.0873,-85.775 2214.4561,-84.457 2220.7805,-83.1253"/>
<polygon fill="#191970" stroke="#191970" points="2221.5804,-86.5336 2230.6354,-81.0329 2220.1265,-79.6862 2221.5804,-86.5336"/>
</g>
<!-- Node33 -->
<g id="node34" class="node">
<title>Node33</title>
<polygon fill="none" stroke="#bfbfbf" points="1937.5,-62 1937.5,-81 1984.5,-81 1984.5,-62 1937.5,-62"/>
<text text-anchor="middle" x="1961" y="-69" font-family="Helvetica,sans-Serif" font-size="10.00" fill="#000000">cmath</text>
</g>
<!-- Node31&#45;&gt;Node33 -->
<g id="edge53" class="edge">
<title>Node31&#45;&gt;Node33</title>
<path fill="none" stroke="#191970" d="M1934.7151,-123.2967C1939.7039,-113.4658 1946.2315,-100.6026 1951.5336,-90.1545"/>
<polygon fill="#191970" stroke="#191970" points="1954.747,-91.5563 1956.1512,-81.055 1948.5047,-88.3886 1954.747,-91.5563"/>
</g>
<!-- Node34 -->
<g id="node35" class="node">
<title>Node34</title>
<g id="a_node35"><a xlink:href="../../d4/dc6/LHCConstants_8h.html" target="_top" xlink:title="Header to collect LHC related constants. ">
<polygon fill="none" stroke="#000000" points="2003,-62 2003,-81 2193,-81 2193,-62 2003,-62"/>
<text text-anchor="middle" x="2098" y="-69" font-family="Helvetica,sans-Serif" font-size="10.00" fill="#000000">CommonConstants/LHCConstants.h</text>
</a>
</g>
</g>
<!-- Node31&#45;&gt;Node34 -->
<g id="edge54" class="edge">
<title>Node31&#45;&gt;Node34</title>
<path fill="none" stroke="#191970" d="M1965.3757,-123.4639C1994.972,-111.8677 2035.524,-95.9789 2063.9696,-84.8335"/>
<polygon fill="#191970" stroke="#191970" points="2065.4545,-88.0109 2073.4885,-81.1039 2062.9008,-81.4933 2065.4545,-88.0109"/>
</g>
<!-- Node32&#45;&gt;Node20 -->
<g id="edge50" class="edge">
<title>Node32&#45;&gt;Node20</title>
<path fill="none" stroke="#191970" d="M2235.3386,-61.9823C2224.6035,-59.6666 2212.9011,-57.4437 2202,-56 2032.9232,-33.6085 1497.4368,-15.8642 1346.1562,-11.2021"/>
<polygon fill="#191970" stroke="#191970" points="1346.0408,-7.697 1335.9383,-10.8891 1345.8265,-14.6937 1346.0408,-7.697"/>
</g>
</g>
</svg>
        <g id="navigator" transform="translate(0 0)" fill="#404254">
                <rect fill="#f2f5e9" fill-opacity="0.5" stroke="#606060" stroke-width=".5" x="0" y="0" width="60" height="60"/>
                <use id="zoomplus" xlink:href="#zoomPlus" x="17" y="9" onmousedown="handleZoom(evt,'in')"/>
                <use id="zoomminus" xlink:href="#zoomMin" x="42" y="9" onmousedown="handleZoom(evt,'out')"/>
                <use id="reset" xlink:href="#resetDef" x="30" y="36" onmousedown="handleReset()"/>
                <g id="arrowUp" xlink:href="#dirArrow" transform="translate(30 24)" onmousedown="handlePan(0,-1)">
                  <use xlink:href="#rim" fill="#404040">
                        <set attributeName="fill" to="#808080" begin="arrowUp.mouseover" end="arrowUp.mouseout"/>
                  </use>
                  <path fill="none" stroke="white" stroke-width="1.5" d="M0,-3.0v7 M-2.5,-0.5L0,-3.0L2.5,-0.5"/>
                </g>
                <g id="arrowRight" xlink:href="#dirArrow" transform="rotate(90) translate(36 -43)" onmousedown="handlePan(1,0)">
                  <use xlink:href="#rim" fill="#404040">
                        <set attributeName="fill" to="#808080" begin="arrowRight.mouseover" end="arrowRight.mouseout"/>
                  </use>
                  <path fill="none" stroke="white" stroke-width="1.5" d="M0,-3.0v7 M-2.5,-0.5L0,-3.0L2.5,-0.5"/>
                </g>
                <g id="arrowDown" xlink:href="#dirArrow" transform="rotate(180) translate(-30 -48)" onmousedown="handlePan(0,1)">
                  <use xlink:href="#rim" fill="#404040">
                        <set attributeName="fill" to="#808080" begin="arrowDown.mouseover" end="arrowDown.mouseout"/>
                  </use>
                  <path fill="none" stroke="white" stroke-width="1.5" d="M0,-3.0v7 M-2.5,-0.5L0,-3.0L2.5,-0.5"/>
                </g>
                <g id="arrowLeft" xlink:href="#dirArrow" transform="rotate(270) translate(-36 17)" onmousedown="handlePan(-1,0)">
                  <use xlink:href="#rim" fill="#404040">
                        <set attributeName="fill" to="#808080" begin="arrowLeft.mouseover" end="arrowLeft.mouseout"/>
                  </use>
                  <path fill="none" stroke="white" stroke-width="1.5" d="M0,-3.0v7 M-2.5,-0.5L0,-3.0L2.5,-0.5"/>
                </g>
        </g>
        <svg viewBox="0 0 15 15" width="100%" height="30px" preserveAspectRatio="xMaxYMin meet">
         <g id="arrow_out" transform="scale(0.3 0.3)">
          <a xlink:href="bench__Tracker_8cxx__incl_org.svg" target="_base">
           <rect id="button" ry="5" rx="5" y="6" x="6" height="38" width="38"
                fill="#f2f5e9" fill-opacity="0.5" stroke="#606060" stroke-width="1.0"/>
           <path id="arrow"
             d="M 11.500037,31.436501 C 11.940474,20.09759 22.043105,11.32322 32.158766,21.979434 L 37.068811,17.246167 C 37.068811,17.246167 37.088388,32 37.088388,32 L 22.160133,31.978069 C 22.160133,31.978069 26.997745,27.140456 26.997745,27.140456 C 18.528582,18.264221 13.291696,25.230495 11.500037,31.436501 z"
             style="fill:#404040;"/>
          </a>
         </g>
        </svg>
</svg>
