<?xml version="1.0" encoding="UTF-8" standalone="no"?>
<!DOCTYPE svg PUBLIC "-//W3C//DTD SVG 1.1//EN"
 "http://www.w3.org/Graphics/SVG/1.1/DTD/svg11.dtd">
<!-- Generated by graphviz version 2.40.1 (20161225.0304)
 -->
<!-- Title: /home/travis/build/AliceO2Group/AliceO2/Detectors/MUON/MID/Base/include/MIDBase/GeometryTransformer.h Pages: 1 -->
<svg width="1707pt" height="184pt"
 viewBox="0.00 0.00 1707.00 184.00" xmlns="http://www.w3.org/2000/svg" xmlns:xlink="http://www.w3.org/1999/xlink">
<g id="graph0" class="graph" transform="scale(1 1) rotate(0) translate(4 180)">
<title>/home/travis/build/AliceO2Group/AliceO2/Detectors/MUON/MID/Base/include/MIDBase/GeometryTransformer.h</title>
<!-- Node0 -->
<g id="node1" class="node">
<title>Node0</title>
<polygon fill="#bfbfbf" stroke="#000000" points="0,-123.5 0,-175.5 219,-175.5 219,-123.5 0,-123.5"/>
<text text-anchor="start" x="8" y="-163.5" font-family="Helvetica,sans-Serif" font-size="10.00" fill="#000000">/home/travis/build</text>
<text text-anchor="start" x="8" y="-152.5" font-family="Helvetica,sans-Serif" font-size="10.00" fill="#000000">/AliceO2Group/AliceO2</text>
<text text-anchor="start" x="8" y="-141.5" font-family="Helvetica,sans-Serif" font-size="10.00" fill="#000000">/Detectors/MUON/MID/Base</text>
<text text-anchor="middle" x="109.5" y="-130.5" font-family="Helvetica,sans-Serif" font-size="10.00" fill="#000000">/include/MIDBase/GeometryTransformer.h</text>
</g>
<!-- Node1 -->
<g id="node2" class="node">
<title>Node1</title>
<polygon fill="none" stroke="#bfbfbf" points="1.5,-6 1.5,-25 43.5,-25 43.5,-6 1.5,-6"/>
<text text-anchor="middle" x="22.5" y="-13" font-family="Helvetica,sans-Serif" font-size="10.00" fill="#000000">array</text>
</g>
<!-- Node0&#45;&gt;Node1 -->
<g id="edge1" class="edge">
<title>Node0&#45;&gt;Node1</title>
<path fill="none" stroke="#191970" d="M51.2207,-123.396C36.9906,-114.0593 23.5543,-102.0274 15.5,-87 6.9658,-71.0772 10.3297,-50.2835 14.8599,-35.2282"/>
<polygon fill="#191970" stroke="#191970" points="18.2861,-36.026 18.2113,-25.4314 11.6629,-33.7602 18.2861,-36.026"/>
</g>
<!-- Node2 -->
<g id="node3" class="node">
<title>Node2</title>
<g id="a_node3"><a xlink:href="../../dc/de4/DetectorParameters_8h.html" target="_top" xlink:title="Useful detector parameters for MID. ">
<polygon fill="none" stroke="#000000" points="25,-67.5 25,-86.5 194,-86.5 194,-67.5 25,-67.5"/>
<text text-anchor="middle" x="109.5" y="-74.5" font-family="Helvetica,sans-Serif" font-size="10.00" fill="#000000">MIDBase/DetectorParameters.h</text>
</a>
</g>
</g>
<!-- Node0&#45;&gt;Node2 -->
<g id="edge2" class="edge">
<title>Node0&#45;&gt;Node2</title>
<path fill="none" stroke="#191970" d="M109.5,-123.3258C109.5,-114.5142 109.5,-104.8397 109.5,-96.621"/>
<polygon fill="#191970" stroke="#191970" points="113.0001,-96.534 109.5,-86.534 106.0001,-96.534 113.0001,-96.534"/>
</g>
<!-- Node4 -->
<g id="node5" class="node">
<title>Node4</title>
<g id="a_node5"><a xlink:href="../../dc/d73/Cartesian_8h.html" target="_top" xlink:title="MathUtils/Cartesian.h">
<polygon fill="none" stroke="#000000" points="916.5,-67.5 916.5,-86.5 1038.5,-86.5 1038.5,-67.5 916.5,-67.5"/>
<text text-anchor="middle" x="977.5" y="-74.5" font-family="Helvetica,sans-Serif" font-size="10.00" fill="#000000">MathUtils/Cartesian.h</text>
</a>
</g>
</g>
<!-- Node0&#45;&gt;Node4 -->
<g id="edge5" class="edge">
<title>Node0&#45;&gt;Node4</title>
<path fill="none" stroke="#191970" d="M219.4328,-140.3178C400.1494,-125.2234 755.0341,-95.5815 906.3838,-82.94"/>
<polygon fill="#191970" stroke="#191970" points="906.8156,-86.4162 916.4896,-82.0959 906.2329,-79.4405 906.8156,-86.4162"/>
</g>
<!-- Node2&#45;&gt;Node1 -->
<g id="edge3" class="edge">
<title>Node2&#45;&gt;Node1</title>
<path fill="none" stroke="#191970" d="M95.9063,-67.3906C82.1157,-57.6421 60.5528,-42.3994 44.359,-30.9521"/>
<polygon fill="#191970" stroke="#191970" points="46.1844,-27.9563 35.9983,-25.0419 42.1437,-33.6723 46.1844,-27.9563"/>
</g>
<!-- Node3 -->
<g id="node4" class="node">
<title>Node3</title>
<polygon fill="none" stroke="#bfbfbf" points="74.5,-6 74.5,-25 118.5,-25 118.5,-6 74.5,-6"/>
<text text-anchor="middle" x="96.5" y="-13" font-family="Helvetica,sans-Serif" font-size="10.00" fill="#000000">string</text>
</g>
<!-- Node2&#45;&gt;Node3 -->
<g id="edge4" class="edge">
<title>Node2&#45;&gt;Node3</title>
<path fill="none" stroke="#191970" d="M107.4688,-67.3906C105.6478,-58.776 102.9198,-45.8708 100.6401,-35.0858"/>
<polygon fill="#191970" stroke="#191970" points="104.0524,-34.3048 98.5599,-25.2449 97.2038,-35.7525 104.0524,-34.3048"/>
</g>
<!-- Node5 -->
<g id="node6" class="node">
<title>Node5</title>
<polygon fill="none" stroke="#bfbfbf" points="136.5,-.5 136.5,-30.5 300.5,-30.5 300.5,-.5 136.5,-.5"/>
<text text-anchor="start" x="144.5" y="-18.5" font-family="Helvetica,sans-Serif" font-size="10.00" fill="#000000">Math/GenVector/Displacement</text>
<text text-anchor="middle" x="218.5" y="-7.5" font-family="Helvetica,sans-Serif" font-size="10.00" fill="#000000">Vector3D.h</text>
</g>
<!-- Node4&#45;&gt;Node5 -->
<g id="edge6" class="edge">
<title>Node4&#45;&gt;Node5</title>
<path fill="none" stroke="#191970" d="M916.0626,-74.8241C799.8593,-70.2605 539.7537,-57.9103 310.9685,-31.1002"/>
<polygon fill="#191970" stroke="#191970" points="311.1285,-27.5948 300.7863,-29.8949 310.3055,-34.5462 311.1285,-27.5948"/>
</g>
<!-- Node6 -->
<g id="node7" class="node">
<title>Node6</title>
<polygon fill="none" stroke="#bfbfbf" points="319,-6 319,-25 508,-25 508,-6 319,-6"/>
<text text-anchor="middle" x="413.5" y="-13" font-family="Helvetica,sans-Serif" font-size="10.00" fill="#000000">Math/GenVector/PositionVector3D.h</text>
</g>
<!-- Node4&#45;&gt;Node6 -->
<g id="edge7" class="edge">
<title>Node4&#45;&gt;Node6</title>
<path fill="none" stroke="#191970" d="M916.3801,-71.8339C828.1587,-64.1624 660.0647,-48.7415 517.5,-31 506.6818,-29.6537 495.2514,-28.0921 484.0831,-26.4888"/>
<polygon fill="#191970" stroke="#191970" points="484.3253,-22.9872 473.9253,-25.0097 483.3166,-29.9142 484.3253,-22.9872"/>
</g>
<!-- Node7 -->
<g id="node8" class="node">
<title>Node7</title>
<polygon fill="none" stroke="#bfbfbf" points="526.5,-6 526.5,-25 686.5,-25 686.5,-6 526.5,-6"/>
<text text-anchor="middle" x="606.5" y="-13" font-family="Helvetica,sans-Serif" font-size="10.00" fill="#000000">Math/GenVector/Rotation3D.h</text>
</g>
<!-- Node4&#45;&gt;Node7 -->
<g id="edge8" class="edge">
<title>Node4&#45;&gt;Node7</title>
<path fill="none" stroke="#191970" d="M918.053,-67.4929C860.9612,-58.3176 772.2962,-43.9504 695.5,-31 687.4736,-29.6465 679.0438,-28.2047 670.7039,-26.7661"/>
<polygon fill="#191970" stroke="#191970" points="671.0594,-23.2757 660.609,-25.0191 669.8657,-30.1732 671.0594,-23.2757"/>
</g>
<!-- Node8 -->
<g id="node9" class="node">
<title>Node8</title>
<polygon fill="none" stroke="#bfbfbf" points="704.5,-6 704.5,-25 872.5,-25 872.5,-6 704.5,-6"/>
<text text-anchor="middle" x="788.5" y="-13" font-family="Helvetica,sans-Serif" font-size="10.00" fill="#000000">Math/GenVector/Transform3D.h</text>
</g>
<!-- Node4&#45;&gt;Node8 -->
<g id="edge9" class="edge">
<title>Node4&#45;&gt;Node8</title>
<path fill="none" stroke="#191970" d="M947.9688,-67.3906C915.5134,-56.8298 863.2419,-39.8208 827.4514,-28.1747"/>
<polygon fill="#191970" stroke="#191970" points="828.4161,-24.808 817.8239,-25.0419 826.2501,-31.4645 828.4161,-24.808"/>
</g>
<!-- Node9 -->
<g id="node10" class="node">
<title>Node9</title>
<polygon fill="none" stroke="#bfbfbf" points="891,-6 891,-25 1064,-25 1064,-6 891,-6"/>
<text text-anchor="middle" x="977.5" y="-13" font-family="Helvetica,sans-Serif" font-size="10.00" fill="#000000">Math/GenVector/Translation3D.h</text>
</g>
<!-- Node4&#45;&gt;Node9 -->
<g id="edge10" class="edge">
<title>Node4&#45;&gt;Node9</title>
<path fill="none" stroke="#191970" d="M977.5,-67.3906C977.5,-58.8657 977.5,-46.1392 977.5,-35.4235"/>
<polygon fill="#191970" stroke="#191970" points="981.0001,-35.2448 977.5,-25.2449 974.0001,-35.2449 981.0001,-35.2448"/>
</g>
<!-- Node10 -->
<g id="node11" class="node">
<title>Node10</title>
<polygon fill="none" stroke="#bfbfbf" points="1082.5,-.5 1082.5,-30.5 1246.5,-30.5 1246.5,-.5 1082.5,-.5"/>
<text text-anchor="start" x="1090.5" y="-18.5" font-family="Helvetica,sans-Serif" font-size="10.00" fill="#000000">Math/GenVector/Displacement</text>
<text text-anchor="middle" x="1164.5" y="-7.5" font-family="Helvetica,sans-Serif" font-size="10.00" fill="#000000">Vector2D.h</text>
</g>
<!-- Node4&#45;&gt;Node10 -->
<g id="edge11" class="edge">
<title>Node4&#45;&gt;Node10</title>
<path fill="none" stroke="#191970" d="M1006.7188,-67.3906C1034.0188,-58.4123 1075.4895,-44.7735 1109.064,-33.7316"/>
<polygon fill="#191970" stroke="#191970" points="1110.3487,-36.9936 1118.7547,-30.5446 1108.1617,-30.344 1110.3487,-36.9936"/>
</g>
<!-- Node11 -->
<g id="node12" class="node">
<title>Node11</title>
<polygon fill="none" stroke="#bfbfbf" points="1265,-6 1265,-25 1454,-25 1454,-6 1265,-6"/>
<text text-anchor="middle" x="1359.5" y="-13" font-family="Helvetica,sans-Serif" font-size="10.00" fill="#000000">Math/GenVector/PositionVector2D.h</text>
</g>
<!-- Node4&#45;&gt;Node11 -->
<g id="edge12" class="edge">
<title>Node4&#45;&gt;Node11</title>
<path fill="none" stroke="#191970" d="M1036.7684,-67.4581C1105.3197,-56.4217 1218.0116,-38.2789 1290.46,-26.6151"/>
<polygon fill="#191970" stroke="#191970" points="1291.0904,-30.0587 1300.4069,-25.0137 1289.9777,-23.1477 1291.0904,-30.0587"/>
</g>
<!-- Node12 -->
<g id="node13" class="node">
<title>Node12</title>
<polygon fill="none" stroke="#bfbfbf" points="1472,-6 1472,-25 1531,-25 1531,-6 1472,-6"/>
<text text-anchor="middle" x="1501.5" y="-13" font-family="Helvetica,sans-Serif" font-size="10.00" fill="#000000">Rtypes.h</text>
</g>
<!-- Node4&#45;&gt;Node12 -->
<g id="edge13" class="edge">
<title>Node4&#45;&gt;Node12</title>
<path fill="none" stroke="#191970" d="M1038.6224,-73.4511C1150.618,-66.5778 1384.4861,-50.4057 1463.5,-31 1466.1337,-30.3532 1468.8242,-29.5561 1471.4965,-28.6676"/>
<polygon fill="#191970" stroke="#191970" points="1472.8027,-31.9162 1480.9602,-25.1555 1470.3672,-25.3535 1472.8027,-31.9162"/>
</g>
<!-- Node13 -->
<g id="node14" class="node">
<title>Node13</title>
<polygon fill="none" stroke="#bfbfbf" points="1549.5,-6 1549.5,-25 1631.5,-25 1631.5,-6 1549.5,-6"/>
<text text-anchor="middle" x="1590.5" y="-13" font-family="Helvetica,sans-Serif" font-size="10.00" fill="#000000">TGeoMatrix.h</text>
</g>
<!-- Node4&#45;&gt;Node13 -->
<g id="edge14" class="edge">
<title>Node4&#45;&gt;Node13</title>
<path fill="none" stroke="#191970" d="M1038.7931,-73.6926C1164.1044,-66.6518 1445.7805,-49.3211 1540.5,-31 1544.8847,-30.1519 1549.4284,-29.0583 1553.9085,-27.8446"/>
<polygon fill="#191970" stroke="#191970" points="1554.9047,-31.2 1563.5282,-25.0447 1552.9485,-24.4789 1554.9047,-31.2"/>
</g>
<!-- Node14 -->
<g id="node15" class="node">
<title>Node14</title>
<polygon fill="none" stroke="#bfbfbf" points="1650,-6 1650,-25 1699,-25 1699,-6 1650,-6"/>
<text text-anchor="middle" x="1674.5" y="-13" font-family="Helvetica,sans-Serif" font-size="10.00" fill="#000000">iosfwd</text>
</g>
<!-- Node4&#45;&gt;Node14 -->
<g id="edge15" class="edge">
<title>Node4&#45;&gt;Node14</title>
<path fill="none" stroke="#191970" d="M1038.7399,-75.542C1180.4803,-71.7174 1527.615,-59.6443 1640.5,-31 1642.6969,-30.4426 1644.9273,-29.7486 1647.1414,-28.9657"/>
<polygon fill="#191970" stroke="#191970" points="1648.65,-32.1304 1656.5871,-25.1123 1646.0058,-25.6489 1648.65,-32.1304"/>
</g>
</g>
</svg>
