<?xml version="1.0" encoding="UTF-8" standalone="no"?>
<!DOCTYPE svg PUBLIC "-//W3C//DTD SVG 1.1//EN"
 "http://www.w3.org/Graphics/SVG/1.1/DTD/svg11.dtd">
<!-- Generated by graphviz version 2.40.1 (20161225.0304)
 -->
<!-- Title: /home/travis/build/AliceO2Group/AliceO2/Detectors/MUON/MCH/Simulation/test/testResponse.cxx Pages: 1 -->
<svg width="2758pt" height="419pt"
 viewBox="0.00 0.00 2757.50 419.00" xmlns="http://www.w3.org/2000/svg" xmlns:xlink="http://www.w3.org/1999/xlink">
<g id="graph0" class="graph" transform="scale(1 1) rotate(0) translate(4 415)">
<title>/home/travis/build/AliceO2Group/AliceO2/Detectors/MUON/MCH/Simulation/test/testResponse.cxx</title>
<!-- Node0 -->
<g id="node1" class="node">
<title>Node0</title>
<polygon fill="#bfbfbf" stroke="#000000" points="2439,-358.5 2439,-410.5 2621,-410.5 2621,-358.5 2439,-358.5"/>
<text text-anchor="start" x="2447" y="-398.5" font-family="Helvetica,sans-Serif" font-size="10.00" fill="#000000">/home/travis/build</text>
<text text-anchor="start" x="2447" y="-387.5" font-family="Helvetica,sans-Serif" font-size="10.00" fill="#000000">/AliceO2Group/AliceO2</text>
<text text-anchor="start" x="2447" y="-376.5" font-family="Helvetica,sans-Serif" font-size="10.00" fill="#000000">/Detectors/MUON/MCH/Simulation</text>
<text text-anchor="middle" x="2530" y="-365.5" font-family="Helvetica,sans-Serif" font-size="10.00" fill="#000000">/test/testResponse.cxx</text>
</g>
<!-- Node1 -->
<g id="node2" class="node">
<title>Node1</title>
<polygon fill="none" stroke="#bfbfbf" points="2125,-302.5 2125,-321.5 2257,-321.5 2257,-302.5 2125,-302.5"/>
<text text-anchor="middle" x="2191" y="-309.5" font-family="Helvetica,sans-Serif" font-size="10.00" fill="#000000">boost/test/unit_test.hpp</text>
</g>
<!-- Node0&#45;&gt;Node1 -->
<g id="edge1" class="edge">
<title>Node0&#45;&gt;Node1</title>
<path fill="none" stroke="#191970" d="M2438.7083,-364.976C2377.1185,-351.8041 2297.8838,-334.8586 2245.8252,-323.7251"/>
<polygon fill="#191970" stroke="#191970" points="2246.2999,-320.2476 2235.7891,-321.5788 2244.8359,-327.0928 2246.2999,-320.2476"/>
</g>
<!-- Node2 -->
<g id="node3" class="node">
<title>Node2</title>
<polygon fill="none" stroke="#bfbfbf" points="2483,-129 2483,-148 2541,-148 2541,-129 2483,-129"/>
<text text-anchor="middle" x="2512" y="-136" font-family="Helvetica,sans-Serif" font-size="10.00" fill="#000000">memory</text>
</g>
<!-- Node0&#45;&gt;Node2 -->
<g id="edge2" class="edge">
<title>Node0&#45;&gt;Node2</title>
<path fill="none" stroke="#191970" d="M2552.8904,-358.4721C2574.1666,-331.0192 2600.7902,-286.2474 2588,-246 2576.5011,-209.8159 2547.9256,-175.3277 2529.2763,-155.5697"/>
<polygon fill="#191970" stroke="#191970" points="2531.678,-153.0187 2522.2039,-148.276 2526.6526,-157.8916 2531.678,-153.0187"/>
</g>
<!-- Node3 -->
<g id="node4" class="node">
<title>Node3</title>
<polygon fill="none" stroke="#bfbfbf" points="2417.5,-129 2417.5,-148 2464.5,-148 2464.5,-129 2417.5,-129"/>
<text text-anchor="middle" x="2441" y="-136" font-family="Helvetica,sans-Serif" font-size="10.00" fill="#000000">vector</text>
</g>
<!-- Node0&#45;&gt;Node3 -->
<g id="edge3" class="edge">
<title>Node0&#45;&gt;Node3</title>
<path fill="none" stroke="#191970" d="M2515.1734,-358.3933C2502.3032,-334.8481 2483.9127,-298.9578 2472,-266 2458.5765,-228.8624 2449.1181,-183.5585 2444.4099,-158.1759"/>
<polygon fill="#191970" stroke="#191970" points="2447.8498,-157.5294 2442.6343,-148.3072 2440.9605,-158.769 2447.8498,-157.5294"/>
</g>
<!-- Node4 -->
<g id="node5" class="node">
<title>Node4</title>
<g id="a_node5"><a xlink:href="../../df/d3f/Response_8h.html" target="_top" xlink:title="MCHSimulation/Response.h">
<polygon fill="none" stroke="#000000" points="2275,-302.5 2275,-321.5 2425,-321.5 2425,-302.5 2275,-302.5"/>
<text text-anchor="middle" x="2350" y="-309.5" font-family="Helvetica,sans-Serif" font-size="10.00" fill="#000000">MCHSimulation/Response.h</text>
</a>
</g>
</g>
<!-- Node0&#45;&gt;Node4 -->
<g id="edge4" class="edge">
<title>Node0&#45;&gt;Node4</title>
<path fill="none" stroke="#191970" d="M2465.2702,-358.4283C2437.4019,-347.2035 2406.0159,-334.5619 2383.0391,-325.3074"/>
<polygon fill="#191970" stroke="#191970" points="2384.3251,-322.0522 2373.7416,-321.5626 2381.7098,-328.5453 2384.3251,-322.0522"/>
</g>
<!-- Node42 -->
<g id="node43" class="node">
<title>Node42</title>
<polygon fill="none" stroke="#bfbfbf" points="2635.5,-302.5 2635.5,-321.5 2688.5,-321.5 2688.5,-302.5 2635.5,-302.5"/>
<text text-anchor="middle" x="2662" y="-309.5" font-family="Helvetica,sans-Serif" font-size="10.00" fill="#000000">TH1D.h</text>
</g>
<!-- Node0&#45;&gt;Node42 -->
<g id="edge56" class="edge">
<title>Node0&#45;&gt;Node42</title>
<path fill="none" stroke="#191970" d="M2577.655,-358.3258C2597.1623,-347.6116 2618.992,-335.6218 2635.5553,-326.5246"/>
<polygon fill="#191970" stroke="#191970" points="2637.5615,-329.4159 2644.6415,-321.534 2634.1916,-323.2804 2637.5615,-329.4159"/>
</g>
<!-- Node43 -->
<g id="node44" class="node">
<title>Node43</title>
<polygon fill="none" stroke="#bfbfbf" points="2706.5,-302.5 2706.5,-321.5 2749.5,-321.5 2749.5,-302.5 2706.5,-302.5"/>
<text text-anchor="middle" x="2728" y="-309.5" font-family="Helvetica,sans-Serif" font-size="10.00" fill="#000000">TF1.h</text>
</g>
<!-- Node0&#45;&gt;Node43 -->
<g id="edge57" class="edge">
<title>Node0&#45;&gt;Node43</title>
<path fill="none" stroke="#191970" d="M2601.2028,-358.4283C2633.8934,-346.4582 2670.9844,-332.8769 2696.5654,-323.5102"/>
<polygon fill="#191970" stroke="#191970" points="2697.92,-326.7415 2706.1068,-320.0164 2695.5131,-320.1683 2697.92,-326.7415"/>
</g>
<!-- Node5 -->
<g id="node6" class="node">
<title>Node5</title>
<g id="a_node6"><a xlink:href="../../d8/d72/Detectors_2MUON_2MCH_2Base_2include_2MCHBase_2Digit_8h.html" target="_top" xlink:title="MCHBase/Digit.h">
<polygon fill="none" stroke="#000000" points="2481,-246.5 2481,-265.5 2579,-265.5 2579,-246.5 2481,-246.5"/>
<text text-anchor="middle" x="2530" y="-253.5" font-family="Helvetica,sans-Serif" font-size="10.00" fill="#000000">MCHBase/Digit.h</text>
</a>
</g>
</g>
<!-- Node4&#45;&gt;Node5 -->
<g id="edge5" class="edge">
<title>Node4&#45;&gt;Node5</title>
<path fill="none" stroke="#191970" d="M2380.9431,-302.3733C2411.0039,-293.021 2456.8026,-278.7725 2489.6978,-268.5385"/>
<polygon fill="#191970" stroke="#191970" points="2490.9519,-271.8139 2499.4607,-265.5011 2488.8723,-265.1299 2490.9519,-271.8139"/>
</g>
<!-- Node7 -->
<g id="node8" class="node">
<title>Node7</title>
<g id="a_node8"><a xlink:href="../../dc/dab/MUON_2MCH_2Simulation_2include_2MCHSimulation_2Detector_8h.html" target="_top" xlink:title="MCHSimulation/Detector.h">
<polygon fill="none" stroke="#000000" points="2277.5,-246.5 2277.5,-265.5 2422.5,-265.5 2422.5,-246.5 2277.5,-246.5"/>
<text text-anchor="middle" x="2350" y="-253.5" font-family="Helvetica,sans-Serif" font-size="10.00" fill="#000000">MCHSimulation/Detector.h</text>
</a>
</g>
</g>
<!-- Node4&#45;&gt;Node7 -->
<g id="edge7" class="edge">
<title>Node4&#45;&gt;Node7</title>
<path fill="none" stroke="#191970" d="M2350,-302.2455C2350,-294.9382 2350,-284.6944 2350,-275.7046"/>
<polygon fill="#191970" stroke="#191970" points="2353.5001,-275.6426 2350,-265.6427 2346.5001,-275.6427 2353.5001,-275.6426"/>
</g>
<!-- Node31 -->
<g id="node32" class="node">
<title>Node31</title>
<g id="a_node32"><a xlink:href="../../d5/daf/Detectors_2MUON_2MCH_2Simulation_2include_2MCHSimulation_2Hit_8h.html" target="_top" xlink:title="MCHSimulation/Hit.h">
<polygon fill="none" stroke="#000000" points="1402,-190.5 1402,-209.5 1520,-209.5 1520,-190.5 1402,-190.5"/>
<text text-anchor="middle" x="1461" y="-197.5" font-family="Helvetica,sans-Serif" font-size="10.00" fill="#000000">MCHSimulation/Hit.h</text>
</a>
</g>
</g>
<!-- Node4&#45;&gt;Node31 -->
<g id="edge55" class="edge">
<title>Node4&#45;&gt;Node31</title>
<path fill="none" stroke="#191970" d="M2274.9705,-302.5475C2105.3244,-281.1747 1694.2668,-229.3879 1530.2555,-208.7251"/>
<polygon fill="#191970" stroke="#191970" points="1530.6422,-205.2462 1520.2831,-207.4687 1529.7671,-212.1913 1530.6422,-205.2462"/>
</g>
<!-- Node6 -->
<g id="node7" class="node">
<title>Node6</title>
<polygon fill="none" stroke="#bfbfbf" points="2148.5,-6 2148.5,-25 2207.5,-25 2207.5,-6 2148.5,-6"/>
<text text-anchor="middle" x="2178" y="-13" font-family="Helvetica,sans-Serif" font-size="10.00" fill="#000000">Rtypes.h</text>
</g>
<!-- Node5&#45;&gt;Node6 -->
<g id="edge6" class="edge">
<title>Node5&#45;&gt;Node6</title>
<path fill="none" stroke="#191970" d="M2535.6838,-246.4791C2548.9297,-222.9229 2578.6275,-161.0716 2550,-123 2509.5745,-69.2384 2305.0378,-33.8393 2217.6635,-20.946"/>
<polygon fill="#191970" stroke="#191970" points="2218.0071,-17.4593 2207.6078,-19.4855 2217.0009,-24.3866 2218.0071,-17.4593"/>
</g>
<!-- Node7&#45;&gt;Node2 -->
<g id="edge54" class="edge">
<title>Node7&#45;&gt;Node2</title>
<path fill="none" stroke="#191970" d="M2363.2571,-246.3845C2391.1432,-226.1585 2456.1003,-179.0445 2490.2045,-154.3085"/>
<polygon fill="#191970" stroke="#191970" points="2492.5197,-156.953 2498.5597,-148.2484 2488.4098,-151.2865 2492.5197,-156.953"/>
</g>
<!-- Node7&#45;&gt;Node3 -->
<g id="edge53" class="edge">
<title>Node7&#45;&gt;Node3</title>
<path fill="none" stroke="#191970" d="M2355.8298,-246.285C2363.8691,-233.1263 2379.0656,-209.0896 2394,-190 2403.3232,-178.0828 2414.7474,-165.525 2423.998,-155.7934"/>
<polygon fill="#191970" stroke="#191970" points="2426.7434,-157.9885 2431.1634,-148.3596 2421.7035,-153.1305 2426.7434,-157.9885"/>
</g>
<!-- Node8 -->
<g id="node9" class="node">
<title>Node8</title>
<g id="a_node9"><a xlink:href="../../d1/d3a/Base_2include_2DetectorsBase_2Detector_8h.html" target="_top" xlink:title="DetectorsBase/Detector.h">
<polygon fill="none" stroke="#000000" points="1846.5,-190.5 1846.5,-209.5 1987.5,-209.5 1987.5,-190.5 1846.5,-190.5"/>
<text text-anchor="middle" x="1917" y="-197.5" font-family="Helvetica,sans-Serif" font-size="10.00" fill="#000000">DetectorsBase/Detector.h</text>
</a>
</g>
</g>
<!-- Node7&#45;&gt;Node8 -->
<g id="edge8" class="edge">
<title>Node7&#45;&gt;Node8</title>
<path fill="none" stroke="#191970" d="M2277.0371,-246.5637C2199.723,-236.5646 2077.961,-220.8171 1997.7947,-210.4492"/>
<polygon fill="#191970" stroke="#191970" points="1998.11,-206.9609 1987.7436,-209.1493 1997.2121,-213.9031 1998.11,-206.9609"/>
</g>
<!-- Node7&#45;&gt;Node31 -->
<g id="edge39" class="edge">
<title>Node7&#45;&gt;Node31</title>
<path fill="none" stroke="#191970" d="M2277.2494,-251.4173C2108.9886,-240.8182 1694.7807,-214.7263 1530.1211,-204.3541"/>
<polygon fill="#191970" stroke="#191970" points="1530.3116,-200.8592 1520.1113,-203.7235 1529.8715,-207.8454 1530.3116,-200.8592"/>
</g>
<!-- Node8&#45;&gt;Node2 -->
<g id="edge12" class="edge">
<title>Node8&#45;&gt;Node2</title>
<path fill="none" stroke="#191970" d="M1987.5472,-196.8525C2116.0889,-190.6734 2383.5255,-175.647 2474,-154 2476.7934,-153.3316 2479.6493,-152.4894 2482.4788,-151.5447"/>
<polygon fill="#191970" stroke="#191970" points="2483.7224,-154.8165 2491.8678,-148.0413 2481.2751,-148.2582 2483.7224,-154.8165"/>
</g>
<!-- Node8&#45;&gt;Node3 -->
<g id="edge10" class="edge">
<title>Node8&#45;&gt;Node3</title>
<path fill="none" stroke="#191970" d="M1987.9493,-196.3668C2104.378,-189.8996 2330.7697,-175.0637 2408,-154 2409.9694,-153.4629 2411.9663,-152.8151 2413.9525,-152.0931"/>
<polygon fill="#191970" stroke="#191970" points="2415.7541,-155.1326 2423.618,-148.0327 2413.0429,-148.6789 2415.7541,-155.1326"/>
</g>
<!-- Node8&#45;&gt;Node6 -->
<g id="edge21" class="edge">
<title>Node8&#45;&gt;Node6</title>
<path fill="none" stroke="#191970" d="M1987.6368,-198.0676C2072.3951,-194.423 2208.0973,-183.9549 2248,-154 2280.7098,-129.4448 2299.295,-101.9201 2278,-67 2264.8627,-45.4572 2239.5117,-32.5412 2217.6231,-25.0318"/>
<polygon fill="#191970" stroke="#191970" points="2218.4559,-21.6244 2207.8661,-21.9503 2216.3478,-28.2995 2218.4559,-21.6244"/>
</g>
<!-- Node9 -->
<g id="node10" class="node">
<title>Node9</title>
<polygon fill="none" stroke="#bfbfbf" points="1942,-67.5 1942,-86.5 1980,-86.5 1980,-67.5 1942,-67.5"/>
<text text-anchor="middle" x="1961" y="-74.5" font-family="Helvetica,sans-Serif" font-size="10.00" fill="#000000">map</text>
</g>
<!-- Node8&#45;&gt;Node9 -->
<g id="edge9" class="edge">
<title>Node8&#45;&gt;Node9</title>
<path fill="none" stroke="#191970" d="M1942.885,-190.4647C1958.7227,-183.1252 1977.6794,-171.2779 1987,-154 1997.2477,-135.0035 1985.9639,-111.2148 1975.2222,-95.1446"/>
<polygon fill="#191970" stroke="#191970" points="1977.8073,-92.7444 1969.1272,-86.6692 1972.1242,-96.8313 1977.8073,-92.7444"/>
</g>
<!-- Node10 -->
<g id="node11" class="node">
<title>Node10</title>
<polygon fill="none" stroke="#bfbfbf" points="2185.5,-67.5 2185.5,-86.5 2268.5,-86.5 2268.5,-67.5 2185.5,-67.5"/>
<text text-anchor="middle" x="2227" y="-74.5" font-family="Helvetica,sans-Serif" font-size="10.00" fill="#000000">initializer_list</text>
</g>
<!-- Node8&#45;&gt;Node10 -->
<g id="edge11" class="edge">
<title>Node8&#45;&gt;Node10</title>
<path fill="none" stroke="#191970" d="M1987.5849,-194.4626C2074.9971,-186.8762 2214.3599,-172.1067 2230,-154 2243.5426,-138.3217 2239.603,-113.4352 2234.3763,-96.2181"/>
<polygon fill="#191970" stroke="#191970" points="2237.6483,-94.9691 2231.1004,-86.6399 2231.025,-97.2345 2237.6483,-94.9691"/>
</g>
<!-- Node11 -->
<g id="node12" class="node">
<title>Node11</title>
<polygon fill="none" stroke="#bfbfbf" points="2315,-129 2315,-148 2399,-148 2399,-129 2315,-129"/>
<text text-anchor="middle" x="2357" y="-136" font-family="Helvetica,sans-Serif" font-size="10.00" fill="#000000">FairDetector.h</text>
</g>
<!-- Node8&#45;&gt;Node11 -->
<g id="edge13" class="edge">
<title>Node8&#45;&gt;Node11</title>
<path fill="none" stroke="#191970" d="M1987.5698,-194.7579C2064.9795,-188.2635 2192.6345,-175.361 2301,-154 2305.8188,-153.0501 2310.8301,-151.9009 2315.7866,-150.6625"/>
<polygon fill="#191970" stroke="#191970" points="2317.0215,-153.9569 2325.8039,-148.0307 2315.2428,-147.1867 2317.0215,-153.9569"/>
</g>
<!-- Node12 -->
<g id="node13" class="node">
<title>Node12</title>
<polygon fill="none" stroke="#bfbfbf" points="1288,-129 1288,-148 1394,-148 1394,-129 1288,-129"/>
<text text-anchor="middle" x="1341" y="-136" font-family="Helvetica,sans-Serif" font-size="10.00" fill="#000000">FairRootManager.h</text>
</g>
<!-- Node8&#45;&gt;Node12 -->
<g id="edge14" class="edge">
<title>Node8&#45;&gt;Node12</title>
<path fill="none" stroke="#191970" d="M1846.303,-197.1589C1746.799,-192.3708 1560.0325,-180.4899 1403,-154 1397.1827,-153.0187 1391.1072,-151.7763 1385.1318,-150.4237"/>
<polygon fill="#191970" stroke="#191970" points="1385.7717,-146.9783 1375.2332,-148.0699 1384.1522,-153.7884 1385.7717,-146.9783"/>
</g>
<!-- Node13 -->
<g id="node14" class="node">
<title>Node13</title>
<g id="a_node14"><a xlink:href="../../d0/d9a/MaterialManager_8h.html" target="_top" xlink:title="DetectorsBase/MaterialManager.h">
<polygon fill="none" stroke="#000000" points="2039.5,-129 2039.5,-148 2220.5,-148 2220.5,-129 2039.5,-129"/>
<text text-anchor="middle" x="2130" y="-136" font-family="Helvetica,sans-Serif" font-size="10.00" fill="#000000">DetectorsBase/MaterialManager.h</text>
</a>
</g>
</g>
<!-- Node8&#45;&gt;Node13 -->
<g id="edge15" class="edge">
<title>Node8&#45;&gt;Node13</title>
<path fill="none" stroke="#191970" d="M1950.2813,-190.3906C1987.1705,-179.7395 2046.7757,-162.5296 2087.1325,-150.8772"/>
<polygon fill="#191970" stroke="#191970" points="2088.3158,-154.1786 2096.9525,-148.0419 2086.374,-147.4533 2088.3158,-154.1786"/>
</g>
<!-- Node16 -->
<g id="node17" class="node">
<title>Node16</title>
<polygon fill="none" stroke="#bfbfbf" points="1412,-129 1412,-148 1470,-148 1470,-129 1412,-129"/>
<text text-anchor="middle" x="1441" y="-136" font-family="Helvetica,sans-Serif" font-size="10.00" fill="#000000">cxxabi.h</text>
</g>
<!-- Node8&#45;&gt;Node16 -->
<g id="edge22" class="edge">
<title>Node8&#45;&gt;Node16</title>
<path fill="none" stroke="#191970" d="M1846.1513,-195.0029C1740.4545,-187.1329 1546.6697,-170.9885 1479,-154 1476.3697,-153.3397 1473.6815,-152.533 1471.0108,-151.6382"/>
<polygon fill="#191970" stroke="#191970" points="1472.1426,-148.3249 1461.5498,-148.1152 1469.6998,-154.8849 1472.1426,-148.3249"/>
</g>
<!-- Node17 -->
<g id="node18" class="node">
<title>Node17</title>
<polygon fill="none" stroke="#bfbfbf" points="1488.5,-129 1488.5,-148 1545.5,-148 1545.5,-129 1488.5,-129"/>
<text text-anchor="middle" x="1517" y="-136" font-family="Helvetica,sans-Serif" font-size="10.00" fill="#000000">typeinfo</text>
</g>
<!-- Node8&#45;&gt;Node17 -->
<g id="edge23" class="edge">
<title>Node8&#45;&gt;Node17</title>
<path fill="none" stroke="#191970" d="M1846.3269,-196.705C1772.3717,-191.9503 1653.4148,-180.5934 1554,-154 1551.5275,-153.3386 1549.0024,-152.5477 1546.4907,-151.678"/>
<polygon fill="#191970" stroke="#191970" points="1547.6,-148.355 1537.0098,-148.0414 1545.0931,-154.8907 1547.6,-148.355"/>
</g>
<!-- Node18 -->
<g id="node19" class="node">
<title>Node18</title>
<polygon fill="none" stroke="#bfbfbf" points="1563.5,-129 1563.5,-148 1632.5,-148 1632.5,-129 1563.5,-129"/>
<text text-anchor="middle" x="1598" y="-136" font-family="Helvetica,sans-Serif" font-size="10.00" fill="#000000">type_traits</text>
</g>
<!-- Node8&#45;&gt;Node18 -->
<g id="edge24" class="edge">
<title>Node8&#45;&gt;Node18</title>
<path fill="none" stroke="#191970" d="M1846.2197,-191.5884C1790.2588,-184.1183 1710.4373,-171.6367 1642,-154 1638.8629,-153.1915 1635.6319,-152.2573 1632.413,-151.2564"/>
<polygon fill="#191970" stroke="#191970" points="1633.4915,-147.9267 1622.8983,-148.1123 1631.2952,-154.5732 1633.4915,-147.9267"/>
</g>
<!-- Node19 -->
<g id="node20" class="node">
<title>Node19</title>
<polygon fill="none" stroke="#bfbfbf" points="1651,-129 1651,-148 1695,-148 1695,-129 1651,-129"/>
<text text-anchor="middle" x="1673" y="-136" font-family="Helvetica,sans-Serif" font-size="10.00" fill="#000000">string</text>
</g>
<!-- Node8&#45;&gt;Node19 -->
<g id="edge25" class="edge">
<title>Node8&#45;&gt;Node19</title>
<path fill="none" stroke="#191970" d="M1852.938,-190.487C1810.0376,-183.0727 1752.7155,-171.1323 1704,-154 1702.5809,-153.5009 1701.1433,-152.9515 1699.7044,-152.3663"/>
<polygon fill="#191970" stroke="#191970" points="1700.9243,-149.0767 1690.3709,-148.1405 1698.0371,-155.4535 1700.9243,-149.0767"/>
</g>
<!-- Node20 -->
<g id="node21" class="node">
<title>Node20</title>
<polygon fill="none" stroke="#bfbfbf" points="1713,-129 1713,-148 1787,-148 1787,-129 1713,-129"/>
<text text-anchor="middle" x="1750" y="-136" font-family="Helvetica,sans-Serif" font-size="10.00" fill="#000000">TMessage.h</text>
</g>
<!-- Node8&#45;&gt;Node20 -->
<g id="edge26" class="edge">
<title>Node8&#45;&gt;Node20</title>
<path fill="none" stroke="#191970" d="M1890.9063,-190.3906C1862.5964,-179.9652 1817.2232,-163.2559 1785.6408,-151.6252"/>
<polygon fill="#191970" stroke="#191970" points="1786.504,-148.2133 1775.9105,-148.0419 1784.0849,-154.7821 1786.504,-148.2133"/>
</g>
<!-- Node21 -->
<g id="node22" class="node">
<title>Node21</title>
<g id="a_node22"><a xlink:href="../../de/d61/ShmManager_8h.html" target="_top" xlink:title="CommonUtils/ShmManager.h">
<polygon fill="none" stroke="#000000" points="1557,-67.5 1557,-86.5 1715,-86.5 1715,-67.5 1557,-67.5"/>
<text text-anchor="middle" x="1636" y="-74.5" font-family="Helvetica,sans-Serif" font-size="10.00" fill="#000000">CommonUtils/ShmManager.h</text>
</a>
</g>
</g>
<!-- Node8&#45;&gt;Node21 -->
<g id="edge27" class="edge">
<title>Node8&#45;&gt;Node21</title>
<path fill="none" stroke="#191970" d="M1846.363,-197.4634C1684.2897,-191.3008 1298.1014,-174.5282 1279,-154 1269.6145,-143.9134 1269.9014,-133.3462 1279,-123 1296.4554,-103.1512 1446.7702,-89.4463 1546.7076,-82.434"/>
<polygon fill="#191970" stroke="#191970" points="1547.0837,-85.9165 1556.8186,-81.7353 1546.601,-78.9331 1547.0837,-85.9165"/>
</g>
<!-- Node27 -->
<g id="node28" class="node">
<title>Node27</title>
<g id="a_node28"><a xlink:href="../../d0/d91/ShmAllocator_8h.html" target="_top" xlink:title="CommonUtils/ShmAllocator.h">
<polygon fill="none" stroke="#000000" points="1072,-129 1072,-148 1232,-148 1232,-129 1072,-129"/>
<text text-anchor="middle" x="1152" y="-136" font-family="Helvetica,sans-Serif" font-size="10.00" fill="#000000">CommonUtils/ShmAllocator.h</text>
</a>
</g>
</g>
<!-- Node8&#45;&gt;Node27 -->
<g id="edge33" class="edge">
<title>Node8&#45;&gt;Node27</title>
<path fill="none" stroke="#191970" d="M1846.2748,-197.3624C1723.7124,-192.2983 1464.0473,-179.3932 1246,-154 1235.791,-152.8111 1224.9997,-151.2861 1214.5102,-149.6582"/>
<polygon fill="#191970" stroke="#191970" points="1215.0011,-146.1923 1204.5746,-148.0735 1213.8985,-153.105 1215.0011,-146.1923"/>
</g>
<!-- Node28 -->
<g id="node29" class="node">
<title>Node28</title>
<polygon fill="none" stroke="#bfbfbf" points="1826,-67.5 1826,-86.5 1878,-86.5 1878,-67.5 1826,-67.5"/>
<text text-anchor="middle" x="1852" y="-74.5" font-family="Helvetica,sans-Serif" font-size="10.00" fill="#000000">cassert</text>
</g>
<!-- Node8&#45;&gt;Node28 -->
<g id="edge38" class="edge">
<title>Node8&#45;&gt;Node28</title>
<path fill="none" stroke="#191970" d="M1927.9027,-190.3487C1943.4923,-175.3491 1968.7277,-145.7979 1954,-123 1939.4921,-100.5422 1911.1014,-88.9363 1887.9489,-83.005"/>
<polygon fill="#191970" stroke="#191970" points="1888.6074,-79.565 1878.0766,-80.7278 1887.034,-86.3859 1888.6074,-79.565"/>
</g>
<!-- Node29 -->
<g id="node30" class="node">
<title>Node29</title>
<polygon fill="none" stroke="#bfbfbf" points="1805,-129 1805,-148 1871,-148 1871,-129 1805,-129"/>
<text text-anchor="middle" x="1838" y="-136" font-family="Helvetica,sans-Serif" font-size="10.00" fill="#000000">sys/shm.h</text>
</g>
<!-- Node8&#45;&gt;Node29 -->
<g id="edge36" class="edge">
<title>Node8&#45;&gt;Node29</title>
<path fill="none" stroke="#191970" d="M1904.6563,-190.3906C1892.2497,-180.7324 1872.9157,-165.6812 1858.2587,-154.271"/>
<polygon fill="#191970" stroke="#191970" points="1860.2979,-151.423 1850.2571,-148.0419 1855.9979,-156.9466 1860.2979,-151.423"/>
</g>
<!-- Node30 -->
<g id="node31" class="node">
<title>Node30</title>
<polygon fill="none" stroke="#bfbfbf" points="1889,-129 1889,-148 1945,-148 1945,-129 1889,-129"/>
<text text-anchor="middle" x="1917" y="-136" font-family="Helvetica,sans-Serif" font-size="10.00" fill="#000000">unistd.h</text>
</g>
<!-- Node8&#45;&gt;Node30 -->
<g id="edge37" class="edge">
<title>Node8&#45;&gt;Node30</title>
<path fill="none" stroke="#191970" d="M1917,-190.3906C1917,-181.8657 1917,-169.1392 1917,-158.4235"/>
<polygon fill="#191970" stroke="#191970" points="1920.5001,-158.2448 1917,-148.2449 1913.5001,-158.2449 1920.5001,-158.2448"/>
</g>
<!-- Node13&#45;&gt;Node6 -->
<g id="edge16" class="edge">
<title>Node13&#45;&gt;Node6</title>
<path fill="none" stroke="#191970" d="M2110.1085,-128.9278C2085.9529,-115.9454 2050.2697,-91.5467 2066,-67 2081.9027,-42.1843 2113.1086,-29.1641 2138.5503,-22.4301"/>
<polygon fill="#191970" stroke="#191970" points="2139.4295,-25.8185 2148.3279,-20.0679 2137.7856,-19.0143 2139.4295,-25.8185"/>
</g>
<!-- Node13&#45;&gt;Node9 -->
<g id="edge17" class="edge">
<title>Node13&#45;&gt;Node9</title>
<path fill="none" stroke="#191970" d="M2103.5938,-128.8906C2072.7669,-117.6726 2021.947,-99.1789 1990.0341,-87.5657"/>
<polygon fill="#191970" stroke="#191970" points="1990.9805,-84.1856 1980.3864,-84.0548 1988.5867,-90.7636 1990.9805,-84.1856"/>
</g>
<!-- Node13&#45;&gt;Node10 -->
<g id="edge19" class="edge">
<title>Node13&#45;&gt;Node10</title>
<path fill="none" stroke="#191970" d="M2145.1563,-128.8906C2160.6743,-119.0519 2185.0193,-103.6167 2203.1284,-92.1351"/>
<polygon fill="#191970" stroke="#191970" points="2205.3787,-94.8526 2211.9502,-86.5419 2201.6304,-88.9407 2205.3787,-94.8526"/>
</g>
<!-- Node14 -->
<g id="node15" class="node">
<title>Node14</title>
<polygon fill="none" stroke="#bfbfbf" points="2074.5,-67.5 2074.5,-86.5 2167.5,-86.5 2167.5,-67.5 2074.5,-67.5"/>
<text text-anchor="middle" x="2121" y="-74.5" font-family="Helvetica,sans-Serif" font-size="10.00" fill="#000000">unordered_map</text>
</g>
<!-- Node13&#45;&gt;Node14 -->
<g id="edge18" class="edge">
<title>Node13&#45;&gt;Node14</title>
<path fill="none" stroke="#191970" d="M2128.5938,-128.8906C2127.3462,-120.3657 2125.4838,-107.6392 2123.9156,-96.9235"/>
<polygon fill="#191970" stroke="#191970" points="2127.3373,-96.1326 2122.4261,-86.7449 2120.411,-97.1463 2127.3373,-96.1326"/>
</g>
<!-- Node15 -->
<g id="node16" class="node">
<title>Node15</title>
<polygon fill="none" stroke="#bfbfbf" points="1822.5,-6 1822.5,-25 1871.5,-25 1871.5,-6 1822.5,-6"/>
<text text-anchor="middle" x="1847" y="-13" font-family="Helvetica,sans-Serif" font-size="10.00" fill="#000000">iosfwd</text>
</g>
<!-- Node13&#45;&gt;Node15 -->
<g id="edge20" class="edge">
<title>Node13&#45;&gt;Node15</title>
<path fill="none" stroke="#191970" d="M2113.0282,-128.8396C2086.9306,-114.2286 2035.1226,-86.1831 1989,-67 1941.8936,-47.4078 1927.3967,-49.8789 1880,-31 1878.6034,-30.4437 1877.1819,-29.8572 1875.7522,-29.251"/>
<polygon fill="#191970" stroke="#191970" points="1876.9321,-25.945 1866.3732,-25.0727 1874.0835,-32.3392 1876.9321,-25.945"/>
</g>
<!-- Node22 -->
<g id="node23" class="node">
<title>Node22</title>
<polygon fill="none" stroke="#bfbfbf" points="1620,-6 1620,-25 1652,-25 1652,-6 1620,-6"/>
<text text-anchor="middle" x="1636" y="-13" font-family="Helvetica,sans-Serif" font-size="10.00" fill="#000000">list</text>
</g>
<!-- Node21&#45;&gt;Node22 -->
<g id="edge28" class="edge">
<title>Node21&#45;&gt;Node22</title>
<path fill="none" stroke="#191970" d="M1636,-67.3906C1636,-58.8657 1636,-46.1392 1636,-35.4235"/>
<polygon fill="#191970" stroke="#191970" points="1639.5001,-35.2448 1636,-25.2449 1632.5001,-35.2449 1639.5001,-35.2448"/>
</g>
<!-- Node23 -->
<g id="node24" class="node">
<title>Node23</title>
<polygon fill="none" stroke="#bfbfbf" points="1889.5,-6 1889.5,-25 1942.5,-25 1942.5,-6 1889.5,-6"/>
<text text-anchor="middle" x="1916" y="-13" font-family="Helvetica,sans-Serif" font-size="10.00" fill="#000000">cstddef</text>
</g>
<!-- Node21&#45;&gt;Node23 -->
<g id="edge29" class="edge">
<title>Node21&#45;&gt;Node23</title>
<path fill="none" stroke="#191970" d="M1709.3483,-67.4836C1758.332,-60.0821 1823.8283,-48.1578 1880,-31 1882.1151,-30.3539 1884.2733,-29.6221 1886.4297,-28.8367"/>
<polygon fill="#191970" stroke="#191970" points="1887.725,-32.0883 1895.732,-25.1501 1885.1459,-25.5807 1887.725,-32.0883"/>
</g>
<!-- Node24 -->
<g id="node25" class="node">
<title>Node24</title>
<polygon fill="none" stroke="#bfbfbf" points="1961,-6 1961,-25 2011,-25 2011,-6 1961,-6"/>
<text text-anchor="middle" x="1986" y="-13" font-family="Helvetica,sans-Serif" font-size="10.00" fill="#000000">atomic</text>
</g>
<!-- Node21&#45;&gt;Node24 -->
<g id="edge30" class="edge">
<title>Node21&#45;&gt;Node24</title>
<path fill="none" stroke="#191970" d="M1715.252,-71.426C1779.7228,-65.4705 1872.5439,-53.6413 1951,-31 1952.9634,-30.4334 1954.9601,-29.7793 1956.9538,-29.0668"/>
<polygon fill="#191970" stroke="#191970" points="1958.7458,-32.1196 1966.7288,-25.1538 1956.1443,-25.6209 1958.7458,-32.1196"/>
</g>
<!-- Node25 -->
<g id="node26" class="node">
<title>Node25</title>
<polygon fill="none" stroke="#bfbfbf" points="1436.5,-.5 1436.5,-30.5 1601.5,-30.5 1601.5,-.5 1436.5,-.5"/>
<text text-anchor="start" x="1444.5" y="-18.5" font-family="Helvetica,sans-Serif" font-size="10.00" fill="#000000">boost/interprocess</text>
<text text-anchor="middle" x="1519" y="-7.5" font-family="Helvetica,sans-Serif" font-size="10.00" fill="#000000">/managed_external_buffer.hpp</text>
</g>
<!-- Node21&#45;&gt;Node25 -->
<g id="edge31" class="edge">
<title>Node21&#45;&gt;Node25</title>
<path fill="none" stroke="#191970" d="M1617.7188,-67.3906C1601.4444,-58.8361 1577.1212,-46.0509 1556.6913,-35.3121"/>
<polygon fill="#191970" stroke="#191970" points="1558.1016,-32.0994 1547.6214,-30.5446 1554.8446,-38.2955 1558.1016,-32.0994"/>
</g>
<!-- Node26 -->
<g id="node27" class="node">
<title>Node26</title>
<polygon fill="none" stroke="#bfbfbf" points="1670,-.5 1670,-30.5 1804,-30.5 1804,-.5 1670,-.5"/>
<text text-anchor="start" x="1678" y="-18.5" font-family="Helvetica,sans-Serif" font-size="10.00" fill="#000000">boost/interprocess</text>
<text text-anchor="middle" x="1737" y="-7.5" font-family="Helvetica,sans-Serif" font-size="10.00" fill="#000000">/allocators/allocator.hpp</text>
</g>
<!-- Node21&#45;&gt;Node26 -->
<g id="edge32" class="edge">
<title>Node21&#45;&gt;Node26</title>
<path fill="none" stroke="#191970" d="M1651.7813,-67.3906C1665.5769,-58.9903 1686.0726,-46.5103 1703.5066,-35.8945"/>
<polygon fill="#191970" stroke="#191970" points="1705.5717,-38.7349 1712.2926,-30.5446 1701.9311,-32.756 1705.5717,-38.7349"/>
</g>
<!-- Node27&#45;&gt;Node21 -->
<g id="edge34" class="edge">
<title>Node27&#45;&gt;Node21</title>
<path fill="none" stroke="#191970" d="M1207.1076,-128.9776C1219.8611,-126.8949 1233.3897,-124.7824 1246,-123 1348.7235,-108.4806 1467.1224,-94.9693 1546.2673,-86.3978"/>
<polygon fill="#191970" stroke="#191970" points="1547.1186,-89.8263 1556.6853,-85.2735 1546.3675,-82.8667 1547.1186,-89.8263"/>
</g>
<!-- Node27&#45;&gt;Node28 -->
<g id="edge35" class="edge">
<title>Node27&#45;&gt;Node28</title>
<path fill="none" stroke="#191970" d="M1225.8135,-128.9681C1243.239,-126.8629 1261.7624,-124.7431 1279,-123 1305.7465,-120.2954 1693.4893,-89.5487 1815.5158,-79.8871"/>
<polygon fill="#191970" stroke="#191970" points="1816.1285,-83.3496 1825.8211,-79.0712 1815.576,-76.3714 1816.1285,-83.3496"/>
</g>
<!-- Node31&#45;&gt;Node27 -->
<g id="edge52" class="edge">
<title>Node31&#45;&gt;Node27</title>
<path fill="none" stroke="#191970" d="M1413.0578,-190.4581C1358.1736,-179.5345 1268.3104,-161.6492 1209.6543,-149.9749"/>
<polygon fill="#191970" stroke="#191970" points="1210.2913,-146.5331 1199.8004,-148.0137 1208.9248,-153.3984 1210.2913,-146.5331"/>
</g>
<!-- Node32 -->
<g id="node33" class="node">
<title>Node32</title>
<g id="a_node33"><a xlink:href="../../d4/d25/BaseHits_8h.html" target="_top" xlink:title="SimulationDataFormat\l/BaseHits.h">
<polygon fill="none" stroke="#000000" points="926.5,-123.5 926.5,-153.5 1053.5,-153.5 1053.5,-123.5 926.5,-123.5"/>
<text text-anchor="start" x="934.5" y="-141.5" font-family="Helvetica,sans-Serif" font-size="10.00" fill="#000000">SimulationDataFormat</text>
<text text-anchor="middle" x="990" y="-130.5" font-family="Helvetica,sans-Serif" font-size="10.00" fill="#000000">/BaseHits.h</text>
</a>
</g>
</g>
<!-- Node31&#45;&gt;Node32 -->
<g id="edge40" class="edge">
<title>Node31&#45;&gt;Node32</title>
<path fill="none" stroke="#191970" d="M1401.7556,-194.9092C1325.8445,-187.9957 1190.0145,-174.3125 1063.8611,-154.0414"/>
<polygon fill="#191970" stroke="#191970" points="1064.0665,-150.529 1053.6347,-152.38 1062.944,-157.4384 1064.0665,-150.529"/>
</g>
<!-- Node33 -->
<g id="node34" class="node">
<title>Node33</title>
<g id="a_node34"><a xlink:href="../../dc/d73/Cartesian_8h.html" target="_top" xlink:title="MathUtils/Cartesian.h">
<polygon fill="none" stroke="#000000" points="929,-67.5 929,-86.5 1051,-86.5 1051,-67.5 929,-67.5"/>
<text text-anchor="middle" x="990" y="-74.5" font-family="Helvetica,sans-Serif" font-size="10.00" fill="#000000">MathUtils/Cartesian.h</text>
</a>
</g>
</g>
<!-- Node32&#45;&gt;Node33 -->
<g id="edge41" class="edge">
<title>Node32&#45;&gt;Node33</title>
<path fill="none" stroke="#191970" d="M990,-123.2977C990,-115.3834 990,-105.6043 990,-97.0759"/>
<polygon fill="#191970" stroke="#191970" points="993.5001,-96.8469 990,-86.8469 986.5001,-96.847 993.5001,-96.8469"/>
</g>
<!-- Node33&#45;&gt;Node6 -->
<g id="edge49" class="edge">
<title>Node33&#45;&gt;Node6</title>
<path fill="none" stroke="#191970" d="M1051.0144,-75.4075C1210.4549,-71.0006 1652.6456,-57.2034 2020,-31 2060.2613,-28.1282 2106.164,-23.4697 2138.0784,-20.0085"/>
<polygon fill="#191970" stroke="#191970" points="2138.7775,-23.453 2148.337,-18.885 2138.0153,-16.4946 2138.7775,-23.453"/>
</g>
<!-- Node33&#45;&gt;Node15 -->
<g id="edge51" class="edge">
<title>Node33&#45;&gt;Node15</title>
<path fill="none" stroke="#191970" d="M1051.0079,-76.51C1216.0482,-74.7206 1668.5868,-66.6136 1813,-31 1815.2005,-30.4573 1817.4337,-29.7741 1819.6496,-28.9987"/>
<polygon fill="#191970" stroke="#191970" points="1821.1515,-32.1665 1829.0991,-25.1604 1818.5171,-25.6811 1821.1515,-32.1665"/>
</g>
<!-- Node34 -->
<g id="node35" class="node">
<title>Node34</title>
<polygon fill="none" stroke="#bfbfbf" points="0,-.5 0,-30.5 164,-30.5 164,-.5 0,-.5"/>
<text text-anchor="start" x="8" y="-18.5" font-family="Helvetica,sans-Serif" font-size="10.00" fill="#000000">Math/GenVector/Displacement</text>
<text text-anchor="middle" x="82" y="-7.5" font-family="Helvetica,sans-Serif" font-size="10.00" fill="#000000">Vector3D.h</text>
</g>
<!-- Node33&#45;&gt;Node34 -->
<g id="edge42" class="edge">
<title>Node33&#45;&gt;Node34</title>
<path fill="none" stroke="#191970" d="M928.8209,-75.9045C794.2265,-72.9867 462.1781,-63.0089 174.4956,-31.0862"/>
<polygon fill="#191970" stroke="#191970" points="174.6086,-27.577 164.2809,-29.9413 173.8288,-34.5335 174.6086,-27.577"/>
</g>
<!-- Node35 -->
<g id="node36" class="node">
<title>Node35</title>
<polygon fill="none" stroke="#bfbfbf" points="182.5,-6 182.5,-25 371.5,-25 371.5,-6 182.5,-6"/>
<text text-anchor="middle" x="277" y="-13" font-family="Helvetica,sans-Serif" font-size="10.00" fill="#000000">Math/GenVector/PositionVector3D.h</text>
</g>
<!-- Node33&#45;&gt;Node35 -->
<g id="edge43" class="edge">
<title>Node33&#45;&gt;Node35</title>
<path fill="none" stroke="#191970" d="M928.9233,-73.857C819.065,-67.8765 580.9394,-53.4205 381,-31 369.6348,-29.7255 357.6038,-28.1466 345.9135,-26.4885"/>
<polygon fill="#191970" stroke="#191970" points="346.1518,-22.9866 335.7533,-25.0167 345.1482,-29.9143 346.1518,-22.9866"/>
</g>
<!-- Node36 -->
<g id="node37" class="node">
<title>Node36</title>
<polygon fill="none" stroke="#bfbfbf" points="390,-6 390,-25 550,-25 550,-6 390,-6"/>
<text text-anchor="middle" x="470" y="-13" font-family="Helvetica,sans-Serif" font-size="10.00" fill="#000000">Math/GenVector/Rotation3D.h</text>
</g>
<!-- Node33&#45;&gt;Node36 -->
<g id="edge44" class="edge">
<title>Node33&#45;&gt;Node36</title>
<path fill="none" stroke="#191970" d="M928.8184,-71.7534C845.1277,-64.2842 690.3444,-49.4258 559,-31 549.9891,-29.7359 540.4915,-28.2487 531.1905,-26.7044"/>
<polygon fill="#191970" stroke="#191970" points="531.6515,-23.2327 521.2075,-25.0142 530.4829,-30.1345 531.6515,-23.2327"/>
</g>
<!-- Node37 -->
<g id="node38" class="node">
<title>Node37</title>
<polygon fill="none" stroke="#bfbfbf" points="568,-6 568,-25 736,-25 736,-6 568,-6"/>
<text text-anchor="middle" x="652" y="-13" font-family="Helvetica,sans-Serif" font-size="10.00" fill="#000000">Math/GenVector/Transform3D.h</text>
</g>
<!-- Node33&#45;&gt;Node37 -->
<g id="edge45" class="edge">
<title>Node33&#45;&gt;Node37</title>
<path fill="none" stroke="#191970" d="M937.5584,-67.4581C877.2751,-56.4894 778.4133,-38.5012 714.2716,-26.8305"/>
<polygon fill="#191970" stroke="#191970" points="714.7516,-23.3604 704.2866,-25.0137 713.4985,-30.2474 714.7516,-23.3604"/>
</g>
<!-- Node38 -->
<g id="node39" class="node">
<title>Node38</title>
<polygon fill="none" stroke="#bfbfbf" points="754.5,-6 754.5,-25 927.5,-25 927.5,-6 754.5,-6"/>
<text text-anchor="middle" x="841" y="-13" font-family="Helvetica,sans-Serif" font-size="10.00" fill="#000000">Math/GenVector/Translation3D.h</text>
</g>
<!-- Node33&#45;&gt;Node38 -->
<g id="edge46" class="edge">
<title>Node33&#45;&gt;Node38</title>
<path fill="none" stroke="#191970" d="M966.7188,-67.3906C941.679,-57.0554 901.6775,-40.5447 873.534,-28.9284"/>
<polygon fill="#191970" stroke="#191970" points="874.6967,-25.622 864.1178,-25.0419 872.026,-32.0925 874.6967,-25.622"/>
</g>
<!-- Node39 -->
<g id="node40" class="node">
<title>Node39</title>
<polygon fill="none" stroke="#bfbfbf" points="946,-.5 946,-30.5 1110,-30.5 1110,-.5 946,-.5"/>
<text text-anchor="start" x="954" y="-18.5" font-family="Helvetica,sans-Serif" font-size="10.00" fill="#000000">Math/GenVector/Displacement</text>
<text text-anchor="middle" x="1028" y="-7.5" font-family="Helvetica,sans-Serif" font-size="10.00" fill="#000000">Vector2D.h</text>
</g>
<!-- Node33&#45;&gt;Node39 -->
<g id="edge47" class="edge">
<title>Node33&#45;&gt;Node39</title>
<path fill="none" stroke="#191970" d="M995.9375,-67.3906C1000.6041,-59.838 1007.3085,-48.9876 1013.3812,-39.1593"/>
<polygon fill="#191970" stroke="#191970" points="1016.4252,-40.8914 1018.7042,-30.5446 1010.4702,-37.2119 1016.4252,-40.8914"/>
</g>
<!-- Node40 -->
<g id="node41" class="node">
<title>Node40</title>
<polygon fill="none" stroke="#bfbfbf" points="1128.5,-6 1128.5,-25 1317.5,-25 1317.5,-6 1128.5,-6"/>
<text text-anchor="middle" x="1223" y="-13" font-family="Helvetica,sans-Serif" font-size="10.00" fill="#000000">Math/GenVector/PositionVector2D.h</text>
</g>
<!-- Node33&#45;&gt;Node40 -->
<g id="edge48" class="edge">
<title>Node33&#45;&gt;Node40</title>
<path fill="none" stroke="#191970" d="M1026.1506,-67.4581C1066.7069,-56.7533 1132.5931,-39.3628 1176.8407,-27.6837"/>
<polygon fill="#191970" stroke="#191970" points="1177.989,-31.0005 1186.7646,-25.0643 1176.2025,-24.2323 1177.989,-31.0005"/>
</g>
<!-- Node41 -->
<g id="node42" class="node">
<title>Node41</title>
<polygon fill="none" stroke="#bfbfbf" points="1336,-6 1336,-25 1418,-25 1418,-6 1336,-6"/>
<text text-anchor="middle" x="1377" y="-13" font-family="Helvetica,sans-Serif" font-size="10.00" fill="#000000">TGeoMatrix.h</text>
</g>
<!-- Node33&#45;&gt;Node41 -->
<g id="edge50" class="edge">
<title>Node33&#45;&gt;Node41</title>
<path fill="none" stroke="#191970" d="M1051.2111,-71.5716C1118.951,-64.8818 1231.1004,-51.7789 1326,-31 1330.1188,-30.0982 1334.387,-29.0264 1338.6209,-27.8736"/>
<polygon fill="#191970" stroke="#191970" points="1339.7061,-31.2035 1348.3515,-25.0791 1337.7738,-24.4755 1339.7061,-31.2035"/>
</g>
</g>
</svg>
