<?xml version="1.0" encoding="UTF-8" standalone="no"?>
<!DOCTYPE svg PUBLIC "-//W3C//DTD SVG 1.1//EN"
 "http://www.w3.org/Graphics/SVG/1.1/DTD/svg11.dtd">
<!-- Generated by graphviz version 2.40.1 (20161225.0304)
 -->
<!-- Title: /home/travis/build/AliceO2Group/AliceO2/Detectors/TPC/simulation/src/CommonMode.cxx Pages: 1 -->
<svg width="1571pt" height="296pt"
 viewBox="0.00 0.00 1571.00 296.00" xmlns="http://www.w3.org/2000/svg" xmlns:xlink="http://www.w3.org/1999/xlink">
<g id="graph0" class="graph" transform="scale(1 1) rotate(0) translate(4 292)">
<title>/home/travis/build/AliceO2Group/AliceO2/Detectors/TPC/simulation/src/CommonMode.cxx</title>
<!-- Node0 -->
<g id="node1" class="node">
<title>Node0</title>
<polygon fill="#bfbfbf" stroke="#000000" points="180,-235.5 180,-287.5 323,-287.5 323,-235.5 180,-235.5"/>
<text text-anchor="start" x="188" y="-275.5" font-family="Helvetica,sans-Serif" font-size="10.00" fill="#000000">/home/travis/build</text>
<text text-anchor="start" x="188" y="-264.5" font-family="Helvetica,sans-Serif" font-size="10.00" fill="#000000">/AliceO2Group/AliceO2</text>
<text text-anchor="start" x="188" y="-253.5" font-family="Helvetica,sans-Serif" font-size="10.00" fill="#000000">/Detectors/TPC/simulation</text>
<text text-anchor="middle" x="251.5" y="-242.5" font-family="Helvetica,sans-Serif" font-size="10.00" fill="#000000">/src/CommonMode.cxx</text>
</g>
<!-- Node1 -->
<g id="node2" class="node">
<title>Node1</title>
<g id="a_node2"><a xlink:href="../../da/d2a/CommonMode_8h.html" target="_top" xlink:title="TPCSimulation/CommonMode.h">
<polygon fill="none" stroke="#000000" points="166.5,-179.5 166.5,-198.5 336.5,-198.5 336.5,-179.5 166.5,-179.5"/>
<text text-anchor="middle" x="251.5" y="-186.5" font-family="Helvetica,sans-Serif" font-size="10.00" fill="#000000">TPCSimulation/CommonMode.h</text>
</a>
</g>
</g>
<!-- Node0&#45;&gt;Node1 -->
<g id="edge1" class="edge">
<title>Node0&#45;&gt;Node1</title>
<path fill="none" stroke="#191970" d="M251.5,-235.3258C251.5,-226.5142 251.5,-216.8397 251.5,-208.621"/>
<polygon fill="#191970" stroke="#191970" points="255.0001,-208.534 251.5,-198.534 248.0001,-208.534 255.0001,-208.534"/>
</g>
<!-- Node2 -->
<g id="node3" class="node">
<title>Node2</title>
<polygon fill="none" stroke="#bfbfbf" points="0,-6 0,-25 59,-25 59,-6 0,-6"/>
<text text-anchor="middle" x="29.5" y="-13" font-family="Helvetica,sans-Serif" font-size="10.00" fill="#000000">Rtypes.h</text>
</g>
<!-- Node1&#45;&gt;Node2 -->
<g id="edge2" class="edge">
<title>Node1&#45;&gt;Node2</title>
<path fill="none" stroke="#191970" d="M239.2481,-179.4248C202.7846,-150.9274 94.7036,-66.4587 49.6115,-31.2178"/>
<polygon fill="#191970" stroke="#191970" points="51.7485,-28.4458 41.714,-25.0457 47.438,-33.9612 51.7485,-28.4458"/>
</g>
<!-- Node3 -->
<g id="node4" class="node">
<title>Node3</title>
<g id="a_node4"><a xlink:href="../../d1/d73/Defs_8h.html" target="_top" xlink:title="DataFormatsTPC/Defs.h">
<polygon fill="none" stroke="#000000" points="267,-123.5 267,-142.5 400,-142.5 400,-123.5 267,-123.5"/>
<text text-anchor="middle" x="333.5" y="-130.5" font-family="Helvetica,sans-Serif" font-size="10.00" fill="#000000">DataFormatsTPC/Defs.h</text>
</a>
</g>
</g>
<!-- Node1&#45;&gt;Node3 -->
<g id="edge3" class="edge">
<title>Node1&#45;&gt;Node3</title>
<path fill="none" stroke="#191970" d="M265.7833,-179.2455C278.247,-170.7337 296.5451,-158.2375 310.9792,-148.3801"/>
<polygon fill="#191970" stroke="#191970" points="313.0962,-151.1726 319.3804,-142.6427 309.1485,-145.392 313.0962,-151.1726"/>
</g>
<!-- Node4 -->
<g id="node5" class="node">
<title>Node4</title>
<polygon fill="none" stroke="#bfbfbf" points="271,-67.5 271,-86.5 318,-86.5 318,-67.5 271,-67.5"/>
<text text-anchor="middle" x="294.5" y="-74.5" font-family="Helvetica,sans-Serif" font-size="10.00" fill="#000000">cmath</text>
</g>
<!-- Node3&#45;&gt;Node4 -->
<g id="edge4" class="edge">
<title>Node3&#45;&gt;Node4</title>
<path fill="none" stroke="#191970" d="M326.7067,-123.2455C321.2822,-115.4564 313.5339,-104.3308 306.9967,-94.9439"/>
<polygon fill="#191970" stroke="#191970" points="309.8025,-92.8485 301.2154,-86.6427 304.0583,-96.849 309.8025,-92.8485"/>
</g>
<!-- Node5 -->
<g id="node6" class="node">
<title>Node5</title>
<g id="a_node6"><a xlink:href="../../d1/da8/GPUROOTCartesianFwd_8h.html" target="_top" xlink:title="GPUROOTCartesianFwd.h">
<polygon fill="none" stroke="#000000" points="336.5,-67.5 336.5,-86.5 476.5,-86.5 476.5,-67.5 336.5,-67.5"/>
<text text-anchor="middle" x="406.5" y="-74.5" font-family="Helvetica,sans-Serif" font-size="10.00" fill="#000000">GPUROOTCartesianFwd.h</text>
</a>
</g>
</g>
<!-- Node3&#45;&gt;Node5 -->
<g id="edge5" class="edge">
<title>Node3&#45;&gt;Node5</title>
<path fill="none" stroke="#191970" d="M346.2156,-123.2455C357.102,-114.8943 372.9883,-102.7076 385.72,-92.9408"/>
<polygon fill="#191970" stroke="#191970" points="388.1261,-95.5063 393.9301,-86.6427 383.8654,-89.9523 388.1261,-95.5063"/>
</g>
<!-- Node6 -->
<g id="node7" class="node">
<title>Node6</title>
<g id="a_node7"><a xlink:href="../../dc/d73/Cartesian_8h.html" target="_top" xlink:title="MathUtils/Cartesian.h">
<polygon fill="none" stroke="#000000" points="668.5,-67.5 668.5,-86.5 790.5,-86.5 790.5,-67.5 668.5,-67.5"/>
<text text-anchor="middle" x="729.5" y="-74.5" font-family="Helvetica,sans-Serif" font-size="10.00" fill="#000000">MathUtils/Cartesian.h</text>
</a>
</g>
</g>
<!-- Node3&#45;&gt;Node6 -->
<g id="edge6" class="edge">
<title>Node3&#45;&gt;Node6</title>
<path fill="none" stroke="#191970" d="M400.2282,-123.5637C471.8057,-113.4416 585.0392,-97.4288 658.2977,-87.069"/>
<polygon fill="#191970" stroke="#191970" points="658.9495,-90.5117 668.3609,-85.6459 657.9693,-83.5807 658.9495,-90.5117"/>
</g>
<!-- Node6&#45;&gt;Node2 -->
<g id="edge14" class="edge">
<title>Node6&#45;&gt;Node2</title>
<path fill="none" stroke="#191970" d="M668.3746,-73.8237C515.7452,-65.7392 126.0188,-44.0973 68.5,-31 65.6361,-30.3479 62.7072,-29.5168 59.8046,-28.5793"/>
<polygon fill="#191970" stroke="#191970" points="60.7648,-25.2046 50.1706,-25.0871 58.3793,-31.7856 60.7648,-25.2046"/>
</g>
<!-- Node7 -->
<g id="node8" class="node">
<title>Node7</title>
<polygon fill="none" stroke="#bfbfbf" points="77.5,-.5 77.5,-30.5 241.5,-30.5 241.5,-.5 77.5,-.5"/>
<text text-anchor="start" x="85.5" y="-18.5" font-family="Helvetica,sans-Serif" font-size="10.00" fill="#000000">Math/GenVector/Displacement</text>
<text text-anchor="middle" x="159.5" y="-7.5" font-family="Helvetica,sans-Serif" font-size="10.00" fill="#000000">Vector3D.h</text>
</g>
<!-- Node6&#45;&gt;Node7 -->
<g id="edge7" class="edge">
<title>Node6&#45;&gt;Node7</title>
<path fill="none" stroke="#191970" d="M668.4689,-72.5733C579.245,-65.7845 407.7548,-51.5374 252.0323,-31.1467"/>
<polygon fill="#191970" stroke="#191970" points="252.1713,-27.6347 241.799,-29.7947 251.2544,-34.5744 252.1713,-27.6347"/>
</g>
<!-- Node8 -->
<g id="node9" class="node">
<title>Node8</title>
<polygon fill="none" stroke="#bfbfbf" points="260,-6 260,-25 449,-25 449,-6 260,-6"/>
<text text-anchor="middle" x="354.5" y="-13" font-family="Helvetica,sans-Serif" font-size="10.00" fill="#000000">Math/GenVector/PositionVector3D.h</text>
</g>
<!-- Node6&#45;&gt;Node8 -->
<g id="edge8" class="edge">
<title>Node6&#45;&gt;Node8</title>
<path fill="none" stroke="#191970" d="M671.3177,-67.4581C604.1602,-56.4443 493.8479,-38.3531 422.7117,-26.6867"/>
<polygon fill="#191970" stroke="#191970" points="422.9449,-23.1783 412.5102,-25.0137 421.812,-30.086 422.9449,-23.1783"/>
</g>
<!-- Node9 -->
<g id="node10" class="node">
<title>Node9</title>
<polygon fill="none" stroke="#bfbfbf" points="467.5,-6 467.5,-25 627.5,-25 627.5,-6 467.5,-6"/>
<text text-anchor="middle" x="547.5" y="-13" font-family="Helvetica,sans-Serif" font-size="10.00" fill="#000000">Math/GenVector/Rotation3D.h</text>
</g>
<!-- Node6&#45;&gt;Node9 -->
<g id="edge9" class="edge">
<title>Node6&#45;&gt;Node9</title>
<path fill="none" stroke="#191970" d="M701.0625,-67.3906C669.9428,-56.8749 619.9036,-39.966 585.4515,-28.3243"/>
<polygon fill="#191970" stroke="#191970" points="586.332,-24.9274 575.7378,-25.0419 584.0911,-31.5591 586.332,-24.9274"/>
</g>
<!-- Node10 -->
<g id="node11" class="node">
<title>Node10</title>
<polygon fill="none" stroke="#bfbfbf" points="645.5,-6 645.5,-25 813.5,-25 813.5,-6 645.5,-6"/>
<text text-anchor="middle" x="729.5" y="-13" font-family="Helvetica,sans-Serif" font-size="10.00" fill="#000000">Math/GenVector/Transform3D.h</text>
</g>
<!-- Node6&#45;&gt;Node10 -->
<g id="edge10" class="edge">
<title>Node6&#45;&gt;Node10</title>
<path fill="none" stroke="#191970" d="M729.5,-67.3906C729.5,-58.8657 729.5,-46.1392 729.5,-35.4235"/>
<polygon fill="#191970" stroke="#191970" points="733.0001,-35.2448 729.5,-25.2449 726.0001,-35.2449 733.0001,-35.2448"/>
</g>
<!-- Node11 -->
<g id="node12" class="node">
<title>Node11</title>
<polygon fill="none" stroke="#bfbfbf" points="832,-6 832,-25 1005,-25 1005,-6 832,-6"/>
<text text-anchor="middle" x="918.5" y="-13" font-family="Helvetica,sans-Serif" font-size="10.00" fill="#000000">Math/GenVector/Translation3D.h</text>
</g>
<!-- Node6&#45;&gt;Node11 -->
<g id="edge11" class="edge">
<title>Node6&#45;&gt;Node11</title>
<path fill="none" stroke="#191970" d="M759.0313,-67.3906C791.4866,-56.8298 843.7581,-39.8208 879.5486,-28.1747"/>
<polygon fill="#191970" stroke="#191970" points="880.7499,-31.4645 889.1761,-25.0419 878.5839,-24.808 880.7499,-31.4645"/>
</g>
<!-- Node12 -->
<g id="node13" class="node">
<title>Node12</title>
<polygon fill="none" stroke="#bfbfbf" points="1023.5,-.5 1023.5,-30.5 1187.5,-30.5 1187.5,-.5 1023.5,-.5"/>
<text text-anchor="start" x="1031.5" y="-18.5" font-family="Helvetica,sans-Serif" font-size="10.00" fill="#000000">Math/GenVector/Displacement</text>
<text text-anchor="middle" x="1105.5" y="-7.5" font-family="Helvetica,sans-Serif" font-size="10.00" fill="#000000">Vector2D.h</text>
</g>
<!-- Node6&#45;&gt;Node12 -->
<g id="edge12" class="edge">
<title>Node6&#45;&gt;Node12</title>
<path fill="none" stroke="#191970" d="M789.5732,-67.4593C845.0705,-58.61 930.0938,-44.9636 1013.2934,-31.193"/>
<polygon fill="#191970" stroke="#191970" points="1013.8723,-34.6449 1023.1655,-29.557 1012.7278,-27.739 1013.8723,-34.6449"/>
</g>
<!-- Node13 -->
<g id="node14" class="node">
<title>Node13</title>
<polygon fill="none" stroke="#bfbfbf" points="1206,-6 1206,-25 1395,-25 1395,-6 1206,-6"/>
<text text-anchor="middle" x="1300.5" y="-13" font-family="Helvetica,sans-Serif" font-size="10.00" fill="#000000">Math/GenVector/PositionVector2D.h</text>
</g>
<!-- Node6&#45;&gt;Node13 -->
<g id="edge13" class="edge">
<title>Node6&#45;&gt;Node13</title>
<path fill="none" stroke="#191970" d="M790.8035,-71.9409C880.1651,-64.3443 1051.3696,-48.9515 1196.5,-31 1207.3192,-29.6618 1218.7501,-28.1044 1229.9186,-26.503"/>
<polygon fill="#191970" stroke="#191970" points="1230.6848,-29.9284 1240.0766,-25.0249 1229.6768,-23.0014 1230.6848,-29.9284"/>
</g>
<!-- Node14 -->
<g id="node15" class="node">
<title>Node14</title>
<polygon fill="none" stroke="#bfbfbf" points="1413.5,-6 1413.5,-25 1495.5,-25 1495.5,-6 1413.5,-6"/>
<text text-anchor="middle" x="1454.5" y="-13" font-family="Helvetica,sans-Serif" font-size="10.00" fill="#000000">TGeoMatrix.h</text>
</g>
<!-- Node6&#45;&gt;Node14 -->
<g id="edge15" class="edge">
<title>Node6&#45;&gt;Node14</title>
<path fill="none" stroke="#191970" d="M790.5657,-74.6579C933.72,-68.8732 1287.6592,-52.7839 1404.5,-31 1408.9419,-30.1718 1413.5445,-29.0807 1418.0776,-27.86"/>
<polygon fill="#191970" stroke="#191970" points="1419.1765,-31.1855 1427.8015,-25.0325 1417.2219,-24.4639 1419.1765,-31.1855"/>
</g>
<!-- Node15 -->
<g id="node16" class="node">
<title>Node15</title>
<polygon fill="none" stroke="#bfbfbf" points="1514,-6 1514,-25 1563,-25 1563,-6 1514,-6"/>
<text text-anchor="middle" x="1538.5" y="-13" font-family="Helvetica,sans-Serif" font-size="10.00" fill="#000000">iosfwd</text>
</g>
<!-- Node6&#45;&gt;Node15 -->
<g id="edge16" class="edge">
<title>Node6&#45;&gt;Node15</title>
<path fill="none" stroke="#191970" d="M790.6473,-76.2605C949.0211,-73.8842 1369.6033,-64.5138 1504.5,-31 1506.6996,-30.4535 1508.9321,-29.7675 1511.1475,-28.9902"/>
<polygon fill="#191970" stroke="#191970" points="1512.6511,-32.1572 1520.596,-25.148 1510.0142,-25.6728 1512.6511,-32.1572"/>
</g>
</g>
</svg>
