<?xml version="1.0" encoding="UTF-8" standalone="no"?>
<!DOCTYPE svg PUBLIC "-//W3C//DTD SVG 1.1//EN"
 "http://www.w3.org/Graphics/SVG/1.1/DTD/svg11.dtd">
<!-- Generated by graphviz version 2.40.1 (20161225.0304)
 -->
<!-- Title: /home/travis/build/AliceO2Group/AliceO2/Detectors/MUON/MCH/Simulation/src/Geometry.cxx Pages: 1 -->
<!--zoomable 240 -->
<svg id="main" version="1.1" xmlns="http://www.w3.org/2000/svg" xmlns:xlink="http://www.w3.org/1999/xlink" xml:space="preserve" onload="init(evt)">
<style type="text/css"><![CDATA[
.edge:hover path { stroke: red; }
.edge:hover polygon { stroke: red; fill: red; }
]]></style>
<script type="text/javascript"><![CDATA[
var edges = document.getElementsByTagName('g');
if (edges && edges.length) {
  for (var i=0;i<edges.length;i++) {
    if (edges[i].id.substr(0,4)=='edge') {
      edges[i].setAttribute('class','edge');
    }
  }
}
]]></script>
        <defs>
                <circle id="rim" cx="0" cy="0" r="7"/>
                <circle id="rim2" cx="0" cy="0" r="3.5"/>
                <g id="zoomPlus">
                        <use xlink:href="#rim" fill="#404040">
                                <set attributeName="fill" to="#808080" begin="zoomplus.mouseover" end="zoomplus.mouseout"/>
                        </use>
                        <path d="M-4,0h8M0,-4v8" fill="none" stroke="white" stroke-width="1.5" pointer-events="none"/>
                </g>
                <g id="zoomMin">
                        <use xlink:href="#rim" fill="#404040">
                                <set attributeName="fill" to="#808080" begin="zoomminus.mouseover" end="zoomminus.mouseout"/>
                        </use>
                        <path d="M-4,0h8" fill="none" stroke="white" stroke-width="1.5" pointer-events="none"/>
                </g>
                <g id="dirArrow">
                        <path fill="none" stroke="white" stroke-width="1.5" d="M0,-3.0v7 M-2.5,-0.5L0,-3.0L2.5,-0.5"/>
                </g>
               <g id="resetDef">
                       <use xlink:href="#rim2" fill="#404040">
                               <set attributeName="fill" to="#808080" begin="reset.mouseover" end="reset.mouseout"/>
                       </use>
               </g>
        </defs>

<script type="text/javascript">
var viewWidth = 1612;
var viewHeight = 240;
var sectionId = 'dynsection-0';
</script>
<script xlink:href="../../svgpan.js"/>
<svg id="graph" class="graph">
<g id="viewport">
<title>/home/travis/build/AliceO2Group/AliceO2/Detectors/MUON/MCH/Simulation/src/Geometry.cxx</title>
<!-- Node0 -->
<g id="node1" class="node">
<title>Node0</title>
<polygon fill="#bfbfbf" stroke="#000000" points="999,-179.5 999,-231.5 1181,-231.5 1181,-179.5 999,-179.5"/>
<text text-anchor="start" x="1007" y="-219.5" font-family="Helvetica,sans-Serif" font-size="10.00" fill="#000000">/home/travis/build</text>
<text text-anchor="start" x="1007" y="-208.5" font-family="Helvetica,sans-Serif" font-size="10.00" fill="#000000">/AliceO2Group/AliceO2</text>
<text text-anchor="start" x="1007" y="-197.5" font-family="Helvetica,sans-Serif" font-size="10.00" fill="#000000">/Detectors/MUON/MCH/Simulation</text>
<text text-anchor="middle" x="1090" y="-186.5" font-family="Helvetica,sans-Serif" font-size="10.00" fill="#000000">/src/Geometry.cxx</text>
</g>
<!-- Node1 -->
<g id="node2" class="node">
<title>Node1</title>
<g id="a_node2"><a xlink:href="../../d5/dc1/MUON_2MCH_2Simulation_2include_2MCHSimulation_2Geometry_8h.html" target="_top" xlink:title="MCHSimulation/Geometry.h">
<polygon fill="none" stroke="#000000" points="878.5,-123.5 878.5,-142.5 1029.5,-142.5 1029.5,-123.5 878.5,-123.5"/>
<text text-anchor="middle" x="954" y="-130.5" font-family="Helvetica,sans-Serif" font-size="10.00" fill="#000000">MCHSimulation/Geometry.h</text>
</a>
</g>
</g>
<!-- Node0&#45;&gt;Node1 -->
<g id="edge1" class="edge">
<title>Node0&#45;&gt;Node1</title>
<path fill="none" stroke="#191970" d="M1040.9009,-179.3258C1020.6147,-168.5115 997.8906,-156.3976 980.769,-147.2703"/>
<polygon fill="#191970" stroke="#191970" points="982.3554,-144.1497 971.8845,-142.534 979.0624,-150.3268 982.3554,-144.1497"/>
</g>
<!-- Node3 -->
<g id="node4" class="node">
<title>Node3</title>
<polygon fill="none" stroke="#bfbfbf" points="1013,-67.5 1013,-86.5 1073,-86.5 1073,-67.5 1013,-67.5"/>
<text text-anchor="middle" x="1043" y="-74.5" font-family="Helvetica,sans-Serif" font-size="10.00" fill="#000000">iostream</text>
</g>
<!-- Node0&#45;&gt;Node3 -->
<g id="edge23" class="edge">
<title>Node0&#45;&gt;Node3</title>
<path fill="none" stroke="#191970" d="M1080.4888,-179.4961C1071.4527,-154.791 1058.0781,-118.2242 1049.9859,-96.0998"/>
<polygon fill="#191970" stroke="#191970" points="1053.202,-94.7034 1046.4799,-86.5142 1046.6279,-97.108 1053.202,-94.7034"/>
</g>
<!-- Node15 -->
<g id="node16" class="node">
<title>Node15</title>
<g id="a_node16"><a xlink:href="../../dc/d11/Station1Geometry_8h.html" target="_top" xlink:title="Implementation of the station 1 geometry. ">
<polygon fill="none" stroke="#000000" points="473.5,-123.5 473.5,-142.5 586.5,-142.5 586.5,-123.5 473.5,-123.5"/>
<text text-anchor="middle" x="530" y="-130.5" font-family="Helvetica,sans-Serif" font-size="10.00" fill="#000000">Station1Geometry.h</text>
</a>
</g>
</g>
<!-- Node0&#45;&gt;Node15 -->
<g id="edge15" class="edge">
<title>Node0&#45;&gt;Node15</title>
<path fill="none" stroke="#191970" d="M998.6691,-194.7187C901.4975,-183.0767 742.9999,-163.5989 596.7667,-143.2225"/>
<polygon fill="#191970" stroke="#191970" points="597.0952,-139.7344 586.707,-141.8165 596.1263,-146.6671 597.0952,-139.7344"/>
</g>
<!-- Node16 -->
<g id="node17" class="node">
<title>Node16</title>
<g id="a_node17"><a xlink:href="../../d0/df6/Station2Geometry_8h.html" target="_top" xlink:title="Implementation of the station 2 geometry. ">
<polygon fill="none" stroke="#000000" points="604.5,-123.5 604.5,-142.5 717.5,-142.5 717.5,-123.5 604.5,-123.5"/>
<text text-anchor="middle" x="661" y="-130.5" font-family="Helvetica,sans-Serif" font-size="10.00" fill="#000000">Station2Geometry.h</text>
</a>
</g>
</g>
<!-- Node0&#45;&gt;Node16 -->
<g id="edge17" class="edge">
<title>Node0&#45;&gt;Node16</title>
<path fill="none" stroke="#191970" d="M998.7577,-190.0803C917.3419,-176.3212 800.066,-156.5018 727.3005,-144.2046"/>
<polygon fill="#191970" stroke="#191970" points="727.7802,-140.7361 717.3368,-142.5208 726.6137,-147.6383 727.7802,-140.7361"/>
</g>
<!-- Node17 -->
<g id="node18" class="node">
<title>Node17</title>
<g id="a_node18"><a xlink:href="../../d9/d7e/Station345Geometry_8h.html" target="_top" xlink:title="Implementation of the slat&#45;stations geometry. ">
<polygon fill="none" stroke="#000000" points="735.5,-123.5 735.5,-142.5 860.5,-142.5 860.5,-123.5 735.5,-123.5"/>
<text text-anchor="middle" x="798" y="-130.5" font-family="Helvetica,sans-Serif" font-size="10.00" fill="#000000">Station345Geometry.h</text>
</a>
</g>
</g>
<!-- Node0&#45;&gt;Node17 -->
<g id="edge19" class="edge">
<title>Node0&#45;&gt;Node17</title>
<path fill="none" stroke="#191970" d="M998.8105,-182.8588C948.2596,-170.3076 887.4535,-155.2102 846.0919,-144.9406"/>
<polygon fill="#191970" stroke="#191970" points="846.8228,-141.5159 836.2741,-142.503 845.136,-148.3096 846.8228,-141.5159"/>
</g>
<!-- Node18 -->
<g id="node19" class="node">
<title>Node18</title>
<g id="a_node19"><a xlink:href="../../d4/dfa/MCH_2Simulation_2src_2Materials_8h.html" target="_top" xlink:title="Materials.h">
<polygon fill="none" stroke="#000000" points="1086.5,-123.5 1086.5,-142.5 1157.5,-142.5 1157.5,-123.5 1086.5,-123.5"/>
<text text-anchor="middle" x="1122" y="-130.5" font-family="Helvetica,sans-Serif" font-size="10.00" fill="#000000">Materials.h</text>
</a>
</g>
</g>
<!-- Node0&#45;&gt;Node18 -->
<g id="edge21" class="edge">
<title>Node0&#45;&gt;Node18</title>
<path fill="none" stroke="#191970" d="M1101.5527,-179.3258C1105.5746,-170.2138 1110.0037,-160.179 1113.7084,-151.7857"/>
<polygon fill="#191970" stroke="#191970" points="1116.9558,-153.0958 1117.7919,-142.534 1110.5519,-150.2692 1116.9558,-153.0958"/>
</g>
<!-- Node20 -->
<g id="node21" class="node">
<title>Node20</title>
<polygon fill="none" stroke="#bfbfbf" points="1175.5,-123.5 1175.5,-142.5 1254.5,-142.5 1254.5,-123.5 1175.5,-123.5"/>
<text text-anchor="middle" x="1215" y="-130.5" font-family="Helvetica,sans-Serif" font-size="10.00" fill="#000000">fmt/format.h</text>
</g>
<!-- Node0&#45;&gt;Node20 -->
<g id="edge24" class="edge">
<title>Node0&#45;&gt;Node20</title>
<path fill="none" stroke="#191970" d="M1135.1279,-179.3258C1153.428,-168.7118 1173.8865,-156.8458 1189.5166,-147.7804"/>
<polygon fill="#191970" stroke="#191970" points="1191.6678,-150.5788 1198.5621,-142.534 1188.1557,-144.5236 1191.6678,-150.5788"/>
</g>
<!-- Node21 -->
<g id="node22" class="node">
<title>Node21</title>
<polygon fill="none" stroke="#bfbfbf" points="1272,-123.5 1272,-142.5 1360,-142.5 1360,-123.5 1272,-123.5"/>
<text text-anchor="middle" x="1316" y="-130.5" font-family="Helvetica,sans-Serif" font-size="10.00" fill="#000000">TGeoVolume.h</text>
</g>
<!-- Node0&#45;&gt;Node21 -->
<g id="edge25" class="edge">
<title>Node0&#45;&gt;Node21</title>
<path fill="none" stroke="#191970" d="M1171.2719,-179.4283C1207.0431,-167.953 1247.4304,-154.9969 1276.4334,-145.6928"/>
<polygon fill="#191970" stroke="#191970" points="1277.7382,-148.95 1286.1911,-142.5626 1275.5999,-142.2846 1277.7382,-148.95"/>
</g>
<!-- Node22 -->
<g id="node23" class="node">
<title>Node22</title>
<polygon fill="none" stroke="#bfbfbf" points="1378,-123.5 1378,-142.5 1470,-142.5 1470,-123.5 1378,-123.5"/>
<text text-anchor="middle" x="1424" y="-130.5" font-family="Helvetica,sans-Serif" font-size="10.00" fill="#000000">TGeoManager.h</text>
</g>
<!-- Node0&#45;&gt;Node22 -->
<g id="edge26" class="edge">
<title>Node0&#45;&gt;Node22</title>
<path fill="none" stroke="#191970" d="M1181.267,-185.6891C1241.9272,-172.5218 1319.5007,-155.6832 1370.4139,-144.6317"/>
<polygon fill="#191970" stroke="#191970" points="1371.1982,-148.0431 1380.2281,-142.5014 1369.7132,-141.2024 1371.1982,-148.0431"/>
</g>
<!-- Node23 -->
<g id="node24" class="node">
<title>Node23</title>
<g id="a_node24"><a xlink:href="../../dd/da4/Logger_8h.html" target="_top" xlink:title="Framework/Logger.h">
<polygon fill="none" stroke="#000000" points="1488.5,-123.5 1488.5,-142.5 1603.5,-142.5 1603.5,-123.5 1488.5,-123.5"/>
<text text-anchor="middle" x="1546" y="-130.5" font-family="Helvetica,sans-Serif" font-size="10.00" fill="#000000">Framework/Logger.h</text>
</a>
</g>
</g>
<!-- Node0&#45;&gt;Node23 -->
<g id="edge27" class="edge">
<title>Node0&#45;&gt;Node23</title>
<path fill="none" stroke="#191970" d="M1181.1824,-191.0028C1268.7386,-177.0821 1399.0112,-156.3699 1477.885,-143.8297"/>
<polygon fill="#191970" stroke="#191970" points="1478.8631,-147.2182 1488.1895,-142.1914 1477.7639,-140.3051 1478.8631,-147.2182"/>
</g>
<!-- Node2 -->
<g id="node3" class="node">
<title>Node2</title>
<polygon fill="none" stroke="#bfbfbf" points="706.5,-67.5 706.5,-86.5 753.5,-86.5 753.5,-67.5 706.5,-67.5"/>
<text text-anchor="middle" x="730" y="-74.5" font-family="Helvetica,sans-Serif" font-size="10.00" fill="#000000">vector</text>
</g>
<!-- Node1&#45;&gt;Node2 -->
<g id="edge2" class="edge">
<title>Node1&#45;&gt;Node2</title>
<path fill="none" stroke="#191970" d="M915.7475,-123.4369C872.8957,-112.7239 804.1159,-95.529 763.366,-85.3415"/>
<polygon fill="#191970" stroke="#191970" points="764.1929,-81.9406 753.6426,-82.9106 762.4951,-88.7316 764.1929,-81.9406"/>
</g>
<!-- Node1&#45;&gt;Node3 -->
<g id="edge3" class="edge">
<title>Node1&#45;&gt;Node3</title>
<path fill="none" stroke="#191970" d="M969.5026,-123.2455C983.158,-114.6534 1003.2657,-102.0014 1018.9989,-92.1018"/>
<polygon fill="#191970" stroke="#191970" points="1021.0751,-94.9307 1027.675,-86.6427 1017.3471,-89.006 1021.0751,-94.9307"/>
</g>
<!-- Node4 -->
<g id="node5" class="node">
<title>Node4</title>
<g id="a_node5"><a xlink:href="../../dc/d73/Cartesian_8h.html" target="_top" xlink:title="MathUtils/Cartesian.h">
<polygon fill="none" stroke="#000000" points="873,-67.5 873,-86.5 995,-86.5 995,-67.5 873,-67.5"/>
<text text-anchor="middle" x="934" y="-74.5" font-family="Helvetica,sans-Serif" font-size="10.00" fill="#000000">MathUtils/Cartesian.h</text>
</a>
</g>
</g>
<!-- Node1&#45;&gt;Node4 -->
<g id="edge4" class="edge">
<title>Node1&#45;&gt;Node4</title>
<path fill="none" stroke="#191970" d="M950.5163,-123.2455C947.8492,-115.7776 944.0867,-105.2427 940.8263,-96.1137"/>
<polygon fill="#191970" stroke="#191970" points="944.1033,-94.8829 937.4438,-86.6427 937.5111,-97.2373 944.1033,-94.8829"/>
</g>
<!-- Node5 -->
<g id="node6" class="node">
<title>Node5</title>
<polygon fill="none" stroke="#bfbfbf" points="0,-.5 0,-30.5 164,-30.5 164,-.5 0,-.5"/>
<text text-anchor="start" x="8" y="-18.5" font-family="Helvetica,sans-Serif" font-size="10.00" fill="#000000">Math/GenVector/Displacement</text>
<text text-anchor="middle" x="82" y="-7.5" font-family="Helvetica,sans-Serif" font-size="10.00" fill="#000000">Vector3D.h</text>
</g>
<!-- Node4&#45;&gt;Node5 -->
<g id="edge5" class="edge">
<title>Node4&#45;&gt;Node5</title>
<path fill="none" stroke="#191970" d="M872.7001,-73.3833C705.9878,-63.5363 252.1129,-36.6528 174.5757,-30.804"/>
<polygon fill="#191970" stroke="#191970" points="174.544,-27.2887 164.2827,-29.926 173.949,-34.2633 174.544,-27.2887"/>
</g>
<!-- Node6 -->
<g id="node7" class="node">
<title>Node6</title>
<polygon fill="none" stroke="#bfbfbf" points="182.5,-6 182.5,-25 371.5,-25 371.5,-6 182.5,-6"/>
<text text-anchor="middle" x="277" y="-13" font-family="Helvetica,sans-Serif" font-size="10.00" fill="#000000">Math/GenVector/PositionVector3D.h</text>
</g>
<!-- Node4&#45;&gt;Node6 -->
<g id="edge6" class="edge">
<title>Node4&#45;&gt;Node6</title>
<path fill="none" stroke="#191970" d="M872.9082,-73.2203C770.8346,-66.6135 559.2356,-51.6729 381,-31 369.7799,-29.6986 357.9081,-28.1208 346.3551,-26.4763"/>
<polygon fill="#191970" stroke="#191970" points="346.7077,-22.9909 336.3088,-25.0192 345.7028,-29.9184 346.7077,-22.9909"/>
</g>
<!-- Node7 -->
<g id="node8" class="node">
<title>Node7</title>
<polygon fill="none" stroke="#bfbfbf" points="390,-6 390,-25 550,-25 550,-6 390,-6"/>
<text text-anchor="middle" x="470" y="-13" font-family="Helvetica,sans-Serif" font-size="10.00" fill="#000000">Math/GenVector/Rotation3D.h</text>
</g>
<!-- Node4&#45;&gt;Node7 -->
<g id="edge7" class="edge">
<title>Node4&#45;&gt;Node7</title>
<path fill="none" stroke="#191970" d="M872.8166,-70.4527C798.475,-62.2764 669.3001,-47.3592 559,-31 550.3205,-29.7127 541.1841,-28.2478 532.205,-26.7444"/>
<polygon fill="#191970" stroke="#191970" points="532.6121,-23.2634 522.1669,-25.038 531.4389,-30.1644 532.6121,-23.2634"/>
</g>
<!-- Node8 -->
<g id="node9" class="node">
<title>Node8</title>
<polygon fill="none" stroke="#bfbfbf" points="568,-6 568,-25 736,-25 736,-6 568,-6"/>
<text text-anchor="middle" x="652" y="-13" font-family="Helvetica,sans-Serif" font-size="10.00" fill="#000000">Math/GenVector/Transform3D.h</text>
</g>
<!-- Node4&#45;&gt;Node8 -->
<g id="edge8" class="edge">
<title>Node4&#45;&gt;Node8</title>
<path fill="none" stroke="#191970" d="M890.2469,-67.4581C840.5415,-56.6181 759.4001,-38.9224 705.8499,-27.2439"/>
<polygon fill="#191970" stroke="#191970" points="706.3719,-23.7755 695.8557,-25.0643 704.8803,-30.6148 706.3719,-23.7755"/>
</g>
<!-- Node9 -->
<g id="node10" class="node">
<title>Node9</title>
<polygon fill="none" stroke="#bfbfbf" points="754.5,-6 754.5,-25 927.5,-25 927.5,-6 754.5,-6"/>
<text text-anchor="middle" x="841" y="-13" font-family="Helvetica,sans-Serif" font-size="10.00" fill="#000000">Math/GenVector/Translation3D.h</text>
</g>
<!-- Node4&#45;&gt;Node9 -->
<g id="edge9" class="edge">
<title>Node4&#45;&gt;Node9</title>
<path fill="none" stroke="#191970" d="M919.4688,-67.3906C904.5906,-57.5519 881.2496,-42.1167 863.8872,-30.6351"/>
<polygon fill="#191970" stroke="#191970" points="865.701,-27.6385 855.4292,-25.0419 861.8398,-33.4773 865.701,-27.6385"/>
</g>
<!-- Node10 -->
<g id="node11" class="node">
<title>Node10</title>
<polygon fill="none" stroke="#bfbfbf" points="946,-.5 946,-30.5 1110,-30.5 1110,-.5 946,-.5"/>
<text text-anchor="start" x="954" y="-18.5" font-family="Helvetica,sans-Serif" font-size="10.00" fill="#000000">Math/GenVector/Displacement</text>
<text text-anchor="middle" x="1028" y="-7.5" font-family="Helvetica,sans-Serif" font-size="10.00" fill="#000000">Vector2D.h</text>
</g>
<!-- Node4&#45;&gt;Node10 -->
<g id="edge10" class="edge">
<title>Node4&#45;&gt;Node10</title>
<path fill="none" stroke="#191970" d="M948.6875,-67.3906C961.4093,-59.0673 980.2527,-46.7389 996.3806,-36.1872"/>
<polygon fill="#191970" stroke="#191970" points="998.5531,-38.9484 1005.005,-30.5446 994.7206,-33.0907 998.5531,-38.9484"/>
</g>
<!-- Node11 -->
<g id="node12" class="node">
<title>Node11</title>
<polygon fill="none" stroke="#bfbfbf" points="1128.5,-6 1128.5,-25 1317.5,-25 1317.5,-6 1128.5,-6"/>
<text text-anchor="middle" x="1223" y="-13" font-family="Helvetica,sans-Serif" font-size="10.00" fill="#000000">Math/GenVector/PositionVector2D.h</text>
</g>
<!-- Node4&#45;&gt;Node11 -->
<g id="edge11" class="edge">
<title>Node4&#45;&gt;Node11</title>
<path fill="none" stroke="#191970" d="M978.8392,-67.4581C1029.8843,-56.5956 1113.2798,-38.8488 1168.1553,-27.1711"/>
<polygon fill="#191970" stroke="#191970" points="1169.0032,-30.5691 1178.0556,-25.0643 1167.5461,-23.7224 1169.0032,-30.5691"/>
</g>
<!-- Node12 -->
<g id="node13" class="node">
<title>Node12</title>
<polygon fill="none" stroke="#bfbfbf" points="1335.5,-6 1335.5,-25 1394.5,-25 1394.5,-6 1335.5,-6"/>
<text text-anchor="middle" x="1365" y="-13" font-family="Helvetica,sans-Serif" font-size="10.00" fill="#000000">Rtypes.h</text>
</g>
<!-- Node4&#45;&gt;Node12 -->
<g id="edge12" class="edge">
<title>Node4&#45;&gt;Node12</title>
<path fill="none" stroke="#191970" d="M995.0685,-68.1639C998.0874,-67.7622 1001.0773,-67.3721 1004,-67 1146.85,-48.8153 1186.2912,-65.9031 1326,-31 1328.7833,-30.3047 1331.6331,-29.4565 1334.4629,-28.5191"/>
<polygon fill="#191970" stroke="#191970" points="1335.6895,-31.7973 1343.8825,-25.0798 1333.2886,-25.2219 1335.6895,-31.7973"/>
</g>
<!-- Node13 -->
<g id="node14" class="node">
<title>Node13</title>
<polygon fill="none" stroke="#bfbfbf" points="1413,-6 1413,-25 1495,-25 1495,-6 1413,-6"/>
<text text-anchor="middle" x="1454" y="-13" font-family="Helvetica,sans-Serif" font-size="10.00" fill="#000000">TGeoMatrix.h</text>
</g>
<!-- Node4&#45;&gt;Node13 -->
<g id="edge13" class="edge">
<title>Node4&#45;&gt;Node13</title>
<path fill="none" stroke="#191970" d="M995.0591,-68.0869C998.0805,-67.7056 1001.0735,-67.3408 1004,-67 1180.8583,-46.4028 1228.2357,-65.0669 1403,-31 1407.411,-30.1402 1411.9837,-29.0488 1416.4981,-27.8446"/>
<polygon fill="#191970" stroke="#191970" points="1417.5469,-31.1851 1426.2021,-25.0745 1415.6255,-24.454 1417.5469,-31.1851"/>
</g>
<!-- Node14 -->
<g id="node15" class="node">
<title>Node14</title>
<polygon fill="none" stroke="#bfbfbf" points="1513.5,-6 1513.5,-25 1562.5,-25 1562.5,-6 1513.5,-6"/>
<text text-anchor="middle" x="1538" y="-13" font-family="Helvetica,sans-Serif" font-size="10.00" fill="#000000">iosfwd</text>
</g>
<!-- Node4&#45;&gt;Node14 -->
<g id="edge14" class="edge">
<title>Node4&#45;&gt;Node14</title>
<path fill="none" stroke="#191970" d="M995.0518,-68.0216C998.0751,-67.6576 1001.0705,-67.3143 1004,-67 1225.526,-43.2313 1288.118,-86.079 1504,-31 1506.1961,-30.4397 1508.4261,-29.7436 1510.6397,-28.9593"/>
<polygon fill="#191970" stroke="#191970" points="1512.1497,-32.1234 1520.0847,-25.1029 1509.5036,-25.6427 1512.1497,-32.1234"/>
</g>
<!-- Node15&#45;&gt;Node2 -->
<g id="edge16" class="edge">
<title>Node15&#45;&gt;Node2</title>
<path fill="none" stroke="#191970" d="M564.3812,-123.3733C601.439,-112.9971 660.0217,-96.5939 696.6673,-86.3332"/>
<polygon fill="#191970" stroke="#191970" points="697.6995,-89.6788 706.3854,-83.6121 695.812,-82.9381 697.6995,-89.6788"/>
</g>
<!-- Node16&#45;&gt;Node2 -->
<g id="edge18" class="edge">
<title>Node16&#45;&gt;Node2</title>
<path fill="none" stroke="#191970" d="M673.0189,-123.2455C683.2098,-114.9746 698.0362,-102.9416 710.0107,-93.2232"/>
<polygon fill="#191970" stroke="#191970" points="712.5598,-95.662 718.1188,-86.6427 708.1486,-90.2268 712.5598,-95.662"/>
</g>
<!-- Node17&#45;&gt;Node2 -->
<g id="edge20" class="edge">
<title>Node17&#45;&gt;Node2</title>
<path fill="none" stroke="#191970" d="M786.1553,-123.2455C776.112,-114.9746 761.5005,-102.9416 749.6996,-93.2232"/>
<polygon fill="#191970" stroke="#191970" points="751.6533,-90.298 741.709,-86.6427 747.2033,-95.7015 751.6533,-90.298"/>
</g>
<!-- Node19 -->
<g id="node20" class="node">
<title>Node19</title>
<polygon fill="none" stroke="#bfbfbf" points="1091,-67.5 1091,-86.5 1181,-86.5 1181,-67.5 1091,-67.5"/>
<text text-anchor="middle" x="1136" y="-74.5" font-family="Helvetica,sans-Serif" font-size="10.00" fill="#000000">TGeoMedium.h</text>
</g>
<!-- Node18&#45;&gt;Node19 -->
<g id="edge22" class="edge">
<title>Node18&#45;&gt;Node19</title>
<path fill="none" stroke="#191970" d="M1124.4386,-123.2455C1126.2855,-115.8579 1128.8828,-105.4689 1131.1478,-96.4087"/>
<polygon fill="#191970" stroke="#191970" points="1134.5594,-97.193 1133.5893,-86.6427 1127.7684,-95.4952 1134.5594,-97.193"/>
</g>
<!-- Node24 -->
<g id="node25" class="node">
<title>Node24</title>
<polygon fill="none" stroke="#bfbfbf" points="1492,-67.5 1492,-86.5 1600,-86.5 1600,-67.5 1492,-67.5"/>
<text text-anchor="middle" x="1546" y="-74.5" font-family="Helvetica,sans-Serif" font-size="10.00" fill="#000000">fairlogger/Logger.h</text>
</g>
<!-- Node23&#45;&gt;Node24 -->
<g id="edge28" class="edge">
<title>Node23&#45;&gt;Node24</title>
<path fill="none" stroke="#191970" d="M1546,-123.2455C1546,-115.9382 1546,-105.6944 1546,-96.7046"/>
<polygon fill="#191970" stroke="#191970" points="1549.5001,-96.6426 1546,-86.6427 1542.5001,-96.6427 1549.5001,-96.6426"/>
</g>
</g>
</svg>
        <g id="navigator" transform="translate(0 0)" fill="#404254">
                <rect fill="#f2f5e9" fill-opacity="0.5" stroke="#606060" stroke-width=".5" x="0" y="0" width="60" height="60"/>
                <use id="zoomplus" xlink:href="#zoomPlus" x="17" y="9" onmousedown="handleZoom(evt,'in')"/>
                <use id="zoomminus" xlink:href="#zoomMin" x="42" y="9" onmousedown="handleZoom(evt,'out')"/>
                <use id="reset" xlink:href="#resetDef" x="30" y="36" onmousedown="handleReset()"/>
                <g id="arrowUp" xlink:href="#dirArrow" transform="translate(30 24)" onmousedown="handlePan(0,-1)">
                  <use xlink:href="#rim" fill="#404040">
                        <set attributeName="fill" to="#808080" begin="arrowUp.mouseover" end="arrowUp.mouseout"/>
                  </use>
                  <path fill="none" stroke="white" stroke-width="1.5" d="M0,-3.0v7 M-2.5,-0.5L0,-3.0L2.5,-0.5"/>
                </g>
                <g id="arrowRight" xlink:href="#dirArrow" transform="rotate(90) translate(36 -43)" onmousedown="handlePan(1,0)">
                  <use xlink:href="#rim" fill="#404040">
                        <set attributeName="fill" to="#808080" begin="arrowRight.mouseover" end="arrowRight.mouseout"/>
                  </use>
                  <path fill="none" stroke="white" stroke-width="1.5" d="M0,-3.0v7 M-2.5,-0.5L0,-3.0L2.5,-0.5"/>
                </g>
                <g id="arrowDown" xlink:href="#dirArrow" transform="rotate(180) translate(-30 -48)" onmousedown="handlePan(0,1)">
                  <use xlink:href="#rim" fill="#404040">
                        <set attributeName="fill" to="#808080" begin="arrowDown.mouseover" end="arrowDown.mouseout"/>
                  </use>
                  <path fill="none" stroke="white" stroke-width="1.5" d="M0,-3.0v7 M-2.5,-0.5L0,-3.0L2.5,-0.5"/>
                </g>
                <g id="arrowLeft" xlink:href="#dirArrow" transform="rotate(270) translate(-36 17)" onmousedown="handlePan(-1,0)">
                  <use xlink:href="#rim" fill="#404040">
                        <set attributeName="fill" to="#808080" begin="arrowLeft.mouseover" end="arrowLeft.mouseout"/>
                  </use>
                  <path fill="none" stroke="white" stroke-width="1.5" d="M0,-3.0v7 M-2.5,-0.5L0,-3.0L2.5,-0.5"/>
                </g>
        </g>
        <svg viewBox="0 0 15 15" width="100%" height="30px" preserveAspectRatio="xMaxYMin meet">
         <g id="arrow_out" transform="scale(0.3 0.3)">
          <a xlink:href="MUON_2MCH_2Simulation_2src_2Geometry_8cxx__incl_org.svg" target="_base">
           <rect id="button" ry="5" rx="5" y="6" x="6" height="38" width="38"
                fill="#f2f5e9" fill-opacity="0.5" stroke="#606060" stroke-width="1.0"/>
           <path id="arrow"
             d="M 11.500037,31.436501 C 11.940474,20.09759 22.043105,11.32322 32.158766,21.979434 L 37.068811,17.246167 C 37.068811,17.246167 37.088388,32 37.088388,32 L 22.160133,31.978069 C 22.160133,31.978069 26.997745,27.140456 26.997745,27.140456 C 18.528582,18.264221 13.291696,25.230495 11.500037,31.436501 z"
             style="fill:#404040;"/>
          </a>
         </g>
        </svg>
</svg>
