<?xml version="1.0" encoding="UTF-8" standalone="no"?>
<!DOCTYPE svg PUBLIC "-//W3C//DTD SVG 1.1//EN"
 "http://www.w3.org/Graphics/SVG/1.1/DTD/svg11.dtd">
<!-- Generated by graphviz version 2.40.1 (20161225.0304)
 -->
<!-- Title: /home/travis/build/AliceO2Group/AliceO2/Detectors/MUON/MID/Base/src/GeometryTransformer.cxx Pages: 1 -->
<svg width="2277pt" height="240pt"
 viewBox="0.00 0.00 2277.35 240.00" xmlns="http://www.w3.org/2000/svg" xmlns:xlink="http://www.w3.org/1999/xlink">
<g id="graph0" class="graph" transform="scale(1 1) rotate(0) translate(4 236)">
<title>/home/travis/build/AliceO2Group/AliceO2/Detectors/MUON/MID/Base/src/GeometryTransformer.cxx</title>
<!-- Node0 -->
<g id="node1" class="node">
<title>Node0</title>
<polygon fill="#bfbfbf" stroke="#000000" points="1680,-179.5 1680,-231.5 1844,-231.5 1844,-179.5 1680,-179.5"/>
<text text-anchor="start" x="1688" y="-219.5" font-family="Helvetica,sans-Serif" font-size="10.00" fill="#000000">/home/travis/build</text>
<text text-anchor="start" x="1688" y="-208.5" font-family="Helvetica,sans-Serif" font-size="10.00" fill="#000000">/AliceO2Group/AliceO2</text>
<text text-anchor="start" x="1688" y="-197.5" font-family="Helvetica,sans-Serif" font-size="10.00" fill="#000000">/Detectors/MUON/MID/Base</text>
<text text-anchor="middle" x="1762" y="-186.5" font-family="Helvetica,sans-Serif" font-size="10.00" fill="#000000">/src/GeometryTransformer.cxx</text>
</g>
<!-- Node1 -->
<g id="node2" class="node">
<title>Node1</title>
<g id="a_node2"><a xlink:href="../../de/d0c/GeometryTransformer_8h.html" target="_top" xlink:title="Geometry transformer for MID. ">
<polygon fill="none" stroke="#000000" points="1336,-123.5 1336,-142.5 1514,-142.5 1514,-123.5 1336,-123.5"/>
<text text-anchor="middle" x="1425" y="-130.5" font-family="Helvetica,sans-Serif" font-size="10.00" fill="#000000">MIDBase/GeometryTransformer.h</text>
</a>
</g>
</g>
<!-- Node0&#45;&gt;Node1 -->
<g id="edge1" class="edge">
<title>Node0&#45;&gt;Node1</title>
<path fill="none" stroke="#191970" d="M1679.9915,-187.8572C1617.7601,-174.4692 1533.9339,-156.4353 1479.6771,-144.7629"/>
<polygon fill="#191970" stroke="#191970" points="1480.0814,-141.2698 1469.5689,-142.5883 1478.6091,-148.1133 1480.0814,-141.2698"/>
</g>
<!-- Node4 -->
<g id="node5" class="node">
<title>Node4</title>
<polygon fill="none" stroke="#bfbfbf" points="1705,-6 1705,-25 1749,-25 1749,-6 1705,-6"/>
<text text-anchor="middle" x="1727" y="-13" font-family="Helvetica,sans-Serif" font-size="10.00" fill="#000000">string</text>
</g>
<!-- Node0&#45;&gt;Node4 -->
<g id="edge18" class="edge">
<title>Node0&#45;&gt;Node4</title>
<path fill="none" stroke="#191970" d="M1844.0899,-201.1583C1979.5252,-193.1477 2237.6353,-173.9753 2265,-143 2270.8851,-136.3384 2270.6361,-129.8736 2265,-123 2200.1161,-43.8688 1865.1363,-21.8407 1759.1743,-16.8052"/>
<polygon fill="#191970" stroke="#191970" points="1759.2367,-13.3045 1749.0875,-16.3449 1758.9176,-20.2972 1759.2367,-13.3045"/>
</g>
<!-- Node16 -->
<g id="node17" class="node">
<title>Node16</title>
<polygon fill="none" stroke="#bfbfbf" points="1570.5,-123.5 1570.5,-142.5 1625.5,-142.5 1625.5,-123.5 1570.5,-123.5"/>
<text text-anchor="middle" x="1598" y="-130.5" font-family="Helvetica,sans-Serif" font-size="10.00" fill="#000000">fstream</text>
</g>
<!-- Node0&#45;&gt;Node16 -->
<g id="edge17" class="edge">
<title>Node0&#45;&gt;Node16</title>
<path fill="none" stroke="#191970" d="M1702.7922,-179.3258C1677.7632,-168.2612 1649.6567,-155.8361 1628.8575,-146.6413"/>
<polygon fill="#191970" stroke="#191970" points="1630.1279,-143.3762 1619.5666,-142.534 1627.2976,-149.7785 1630.1279,-143.3762"/>
</g>
<!-- Node17 -->
<g id="node18" class="node">
<title>Node17</title>
<polygon fill="none" stroke="#bfbfbf" points="1644,-123.5 1644,-142.5 1700,-142.5 1700,-123.5 1644,-123.5"/>
<text text-anchor="middle" x="1672" y="-130.5" font-family="Helvetica,sans-Serif" font-size="10.00" fill="#000000">TMath.h</text>
</g>
<!-- Node0&#45;&gt;Node17 -->
<g id="edge19" class="edge">
<title>Node0&#45;&gt;Node17</title>
<path fill="none" stroke="#191970" d="M1729.5079,-179.3258C1716.8291,-169.1123 1702.7112,-157.7396 1691.6366,-148.8184"/>
<polygon fill="#191970" stroke="#191970" points="1693.8185,-146.0817 1683.8353,-142.534 1689.4272,-151.533 1693.8185,-146.0817"/>
</g>
<!-- Node18 -->
<g id="node19" class="node">
<title>Node18</title>
<polygon fill="none" stroke="#bfbfbf" points="1718,-123.5 1718,-142.5 1806,-142.5 1806,-123.5 1718,-123.5"/>
<text text-anchor="middle" x="1762" y="-130.5" font-family="Helvetica,sans-Serif" font-size="10.00" fill="#000000">TGeoVolume.h</text>
</g>
<!-- Node0&#45;&gt;Node18 -->
<g id="edge20" class="edge">
<title>Node0&#45;&gt;Node18</title>
<path fill="none" stroke="#191970" d="M1762,-179.3258C1762,-170.5142 1762,-160.8397 1762,-152.621"/>
<polygon fill="#191970" stroke="#191970" points="1765.5001,-152.534 1762,-142.534 1758.5001,-152.534 1765.5001,-152.534"/>
</g>
<!-- Node19 -->
<g id="node20" class="node">
<title>Node19</title>
<polygon fill="none" stroke="#bfbfbf" points="1824,-123.5 1824,-142.5 1916,-142.5 1916,-123.5 1824,-123.5"/>
<text text-anchor="middle" x="1870" y="-130.5" font-family="Helvetica,sans-Serif" font-size="10.00" fill="#000000">TGeoManager.h</text>
</g>
<!-- Node0&#45;&gt;Node19 -->
<g id="edge21" class="edge">
<title>Node0&#45;&gt;Node19</title>
<path fill="none" stroke="#191970" d="M1800.9905,-179.3258C1816.5034,-168.912 1833.8116,-157.2931 1847.2135,-148.2965"/>
<polygon fill="#191970" stroke="#191970" points="1849.4457,-151.0136 1855.7976,-142.534 1845.5441,-145.2017 1849.4457,-151.0136"/>
</g>
<!-- Node20 -->
<g id="node21" class="node">
<title>Node20</title>
<polygon fill="none" stroke="#bfbfbf" points="1934.5,-123.5 1934.5,-142.5 2087.5,-142.5 2087.5,-123.5 1934.5,-123.5"/>
<text text-anchor="middle" x="2011" y="-130.5" font-family="Helvetica,sans-Serif" font-size="10.00" fill="#000000">Math/GenVector/RotationX.h</text>
</g>
<!-- Node0&#45;&gt;Node20 -->
<g id="edge22" class="edge">
<title>Node0&#45;&gt;Node20</title>
<path fill="none" stroke="#191970" d="M1844.222,-181.5599C1885.8663,-169.4345 1934.6718,-155.2241 1968.6855,-145.3205"/>
<polygon fill="#191970" stroke="#191970" points="1969.6818,-148.6758 1978.3047,-142.5197 1967.7249,-141.9549 1969.6818,-148.6758"/>
</g>
<!-- Node21 -->
<g id="node22" class="node">
<title>Node21</title>
<polygon fill="none" stroke="#bfbfbf" points="2106,-123.5 2106,-142.5 2256,-142.5 2256,-123.5 2106,-123.5"/>
<text text-anchor="middle" x="2181" y="-130.5" font-family="Helvetica,sans-Serif" font-size="10.00" fill="#000000">Math/GenVector/RotationY.h</text>
</g>
<!-- Node0&#45;&gt;Node21 -->
<g id="edge23" class="edge">
<title>Node0&#45;&gt;Node21</title>
<path fill="none" stroke="#191970" d="M1844.281,-191.2628C1923.8348,-177.4976 2042.7778,-156.9167 2115.9365,-144.258"/>
<polygon fill="#191970" stroke="#191970" points="2116.69,-147.6797 2125.9468,-142.5259 2115.4964,-140.7822 2116.69,-147.6797"/>
</g>
<!-- Node22 -->
<g id="node23" class="node">
<title>Node22</title>
<g id="a_node23"><a xlink:href="../../db/db5/GeometryParameters_8h.html" target="_top" xlink:title="Useful geometrical parameters for MID. ">
<polygon fill="none" stroke="#000000" points="1639,-67.5 1639,-86.5 1815,-86.5 1815,-67.5 1639,-67.5"/>
<text text-anchor="middle" x="1727" y="-74.5" font-family="Helvetica,sans-Serif" font-size="10.00" fill="#000000">MIDBase/GeometryParameters.h</text>
</a>
</g>
</g>
<!-- Node0&#45;&gt;Node22 -->
<g id="edge24" class="edge">
<title>Node0&#45;&gt;Node22</title>
<path fill="none" stroke="#191970" d="M1679.9432,-190.0704C1631.3678,-179.0827 1576.545,-162.7839 1562,-143 1556.7348,-135.8383 1556.6244,-130.0792 1562,-123 1573.5563,-107.7812 1615.0928,-96.2497 1653.596,-88.5387"/>
<polygon fill="#191970" stroke="#191970" points="1654.6675,-91.8965 1663.822,-86.5632 1653.3396,-85.0236 1654.6675,-91.8965"/>
</g>
<!-- Node2 -->
<g id="node3" class="node">
<title>Node2</title>
<polygon fill="none" stroke="#bfbfbf" points="1581,-6 1581,-25 1623,-25 1623,-6 1581,-6"/>
<text text-anchor="middle" x="1602" y="-13" font-family="Helvetica,sans-Serif" font-size="10.00" fill="#000000">array</text>
</g>
<!-- Node1&#45;&gt;Node2 -->
<g id="edge2" class="edge">
<title>Node1&#45;&gt;Node2</title>
<path fill="none" stroke="#191970" d="M1424.9866,-123.4787C1425.4983,-109.2026 1428.608,-82.2979 1444,-67 1485.9152,-25.3411 1517.0221,-52.6744 1572,-31 1573.1964,-30.5283 1574.4081,-30.0236 1575.6237,-29.4951"/>
<polygon fill="#191970" stroke="#191970" points="1577.2939,-32.5767 1584.8279,-25.1276 1574.293,-26.2525 1577.2939,-32.5767"/>
</g>
<!-- Node3 -->
<g id="node4" class="node">
<title>Node3</title>
<g id="a_node4"><a xlink:href="../../dc/de4/DetectorParameters_8h.html" target="_top" xlink:title="Useful detector parameters for MID. ">
<polygon fill="none" stroke="#000000" points="1452.5,-67.5 1452.5,-86.5 1621.5,-86.5 1621.5,-67.5 1452.5,-67.5"/>
<text text-anchor="middle" x="1537" y="-74.5" font-family="Helvetica,sans-Serif" font-size="10.00" fill="#000000">MIDBase/DetectorParameters.h</text>
</a>
</g>
</g>
<!-- Node1&#45;&gt;Node3 -->
<g id="edge3" class="edge">
<title>Node1&#45;&gt;Node3</title>
<path fill="none" stroke="#191970" d="M1444.2535,-123.3733C1462.0712,-114.4644 1488.7747,-101.1127 1508.9594,-91.0203"/>
<polygon fill="#191970" stroke="#191970" points="1510.6187,-94.1038 1517.9978,-86.5011 1507.4882,-87.8428 1510.6187,-94.1038"/>
</g>
<!-- Node5 -->
<g id="node6" class="node">
<title>Node5</title>
<g id="a_node6"><a xlink:href="../../dc/d73/Cartesian_8h.html" target="_top" xlink:title="MathUtils/Cartesian.h">
<polygon fill="none" stroke="#000000" points="656,-67.5 656,-86.5 778,-86.5 778,-67.5 656,-67.5"/>
<text text-anchor="middle" x="717" y="-74.5" font-family="Helvetica,sans-Serif" font-size="10.00" fill="#000000">MathUtils/Cartesian.h</text>
</a>
</g>
</g>
<!-- Node1&#45;&gt;Node5 -->
<g id="edge6" class="edge">
<title>Node1&#45;&gt;Node5</title>
<path fill="none" stroke="#191970" d="M1335.69,-125.9359C1193.446,-114.685 918.2628,-92.9191 788.2873,-82.6385"/>
<polygon fill="#191970" stroke="#191970" points="788.2975,-79.1285 778.0526,-81.829 787.7455,-86.1067 788.2975,-79.1285"/>
</g>
<!-- Node3&#45;&gt;Node2 -->
<g id="edge4" class="edge">
<title>Node3&#45;&gt;Node2</title>
<path fill="none" stroke="#191970" d="M1547.1563,-67.3906C1557.0199,-58.0581 1572.2055,-43.6902 1584.0987,-32.4374"/>
<polygon fill="#191970" stroke="#191970" points="1586.8421,-34.6601 1591.7006,-25.2449 1582.0311,-29.5753 1586.8421,-34.6601"/>
</g>
<!-- Node3&#45;&gt;Node4 -->
<g id="edge5" class="edge">
<title>Node3&#45;&gt;Node4</title>
<path fill="none" stroke="#191970" d="M1566.6875,-67.3906C1601.55,-56.1062 1659.1566,-37.4598 1694.9927,-25.8602"/>
<polygon fill="#191970" stroke="#191970" points="1696.4898,-29.0545 1704.9259,-22.645 1694.3341,-22.3947 1696.4898,-29.0545"/>
</g>
<!-- Node6 -->
<g id="node7" class="node">
<title>Node6</title>
<polygon fill="none" stroke="#bfbfbf" points="635,-.5 635,-30.5 799,-30.5 799,-.5 635,-.5"/>
<text text-anchor="start" x="643" y="-18.5" font-family="Helvetica,sans-Serif" font-size="10.00" fill="#000000">Math/GenVector/Displacement</text>
<text text-anchor="middle" x="717" y="-7.5" font-family="Helvetica,sans-Serif" font-size="10.00" fill="#000000">Vector3D.h</text>
</g>
<!-- Node5&#45;&gt;Node6 -->
<g id="edge7" class="edge">
<title>Node5&#45;&gt;Node6</title>
<path fill="none" stroke="#191970" d="M717,-67.3906C717,-60.2234 717,-50.0862 717,-40.671"/>
<polygon fill="#191970" stroke="#191970" points="720.5001,-40.5446 717,-30.5446 713.5001,-40.5446 720.5001,-40.5446"/>
</g>
<!-- Node7 -->
<g id="node8" class="node">
<title>Node7</title>
<polygon fill="none" stroke="#bfbfbf" points="817.5,-6 817.5,-25 1006.5,-25 1006.5,-6 817.5,-6"/>
<text text-anchor="middle" x="912" y="-13" font-family="Helvetica,sans-Serif" font-size="10.00" fill="#000000">Math/GenVector/PositionVector3D.h</text>
</g>
<!-- Node5&#45;&gt;Node7 -->
<g id="edge8" class="edge">
<title>Node5&#45;&gt;Node7</title>
<path fill="none" stroke="#191970" d="M747.4688,-67.3906C780.9544,-56.8298 834.8853,-39.8208 871.812,-28.1747"/>
<polygon fill="#191970" stroke="#191970" points="873.261,-31.3877 881.7452,-25.0419 871.1555,-24.7118 873.261,-31.3877"/>
</g>
<!-- Node8 -->
<g id="node9" class="node">
<title>Node8</title>
<polygon fill="none" stroke="#bfbfbf" points="1025,-6 1025,-25 1185,-25 1185,-6 1025,-6"/>
<text text-anchor="middle" x="1105" y="-13" font-family="Helvetica,sans-Serif" font-size="10.00" fill="#000000">Math/GenVector/Rotation3D.h</text>
</g>
<!-- Node5&#45;&gt;Node8 -->
<g id="edge9" class="edge">
<title>Node5&#45;&gt;Node8</title>
<path fill="none" stroke="#191970" d="M778.0433,-67.9699C838.5095,-58.94 933.7227,-44.4923 1016,-31 1024.232,-29.6501 1032.8851,-28.192 1041.429,-26.729"/>
<polygon fill="#191970" stroke="#191970" points="1042.1161,-30.1623 1051.3769,-25.0155 1040.9278,-23.2639 1042.1161,-30.1623"/>
</g>
<!-- Node9 -->
<g id="node10" class="node">
<title>Node9</title>
<polygon fill="none" stroke="#bfbfbf" points="1203,-6 1203,-25 1371,-25 1371,-6 1203,-6"/>
<text text-anchor="middle" x="1287" y="-13" font-family="Helvetica,sans-Serif" font-size="10.00" fill="#000000">Math/GenVector/Transform3D.h</text>
</g>
<!-- Node5&#45;&gt;Node9 -->
<g id="edge10" class="edge">
<title>Node5&#45;&gt;Node9</title>
<path fill="none" stroke="#191970" d="M778.1439,-72.4616C869.0445,-65.4073 1045.1097,-50.563 1194,-31 1203.5156,-29.7497 1213.5508,-28.2591 1223.3685,-26.7038"/>
<polygon fill="#191970" stroke="#191970" points="1224.1771,-30.1186 1233.49,-25.0669 1223.0595,-23.2084 1224.1771,-30.1186"/>
</g>
<!-- Node10 -->
<g id="node11" class="node">
<title>Node10</title>
<polygon fill="none" stroke="#bfbfbf" points="1389.5,-6 1389.5,-25 1562.5,-25 1562.5,-6 1389.5,-6"/>
<text text-anchor="middle" x="1476" y="-13" font-family="Helvetica,sans-Serif" font-size="10.00" fill="#000000">Math/GenVector/Translation3D.h</text>
</g>
<!-- Node5&#45;&gt;Node10 -->
<g id="edge11" class="edge">
<title>Node5&#45;&gt;Node10</title>
<path fill="none" stroke="#191970" d="M778.4129,-74.6043C895.6548,-69.6178 1159.3506,-56.4142 1380,-31 1390.4855,-29.7923 1401.5752,-28.25 1412.3486,-26.6086"/>
<polygon fill="#191970" stroke="#191970" points="1413.212,-30.0162 1422.5507,-25.0122 1412.1298,-23.1003 1413.212,-30.0162"/>
</g>
<!-- Node11 -->
<g id="node12" class="node">
<title>Node11</title>
<polygon fill="none" stroke="#bfbfbf" points="0,-.5 0,-30.5 164,-30.5 164,-.5 0,-.5"/>
<text text-anchor="start" x="8" y="-18.5" font-family="Helvetica,sans-Serif" font-size="10.00" fill="#000000">Math/GenVector/Displacement</text>
<text text-anchor="middle" x="82" y="-7.5" font-family="Helvetica,sans-Serif" font-size="10.00" fill="#000000">Vector2D.h</text>
</g>
<!-- Node5&#45;&gt;Node11 -->
<g id="edge12" class="edge">
<title>Node5&#45;&gt;Node11</title>
<path fill="none" stroke="#191970" d="M655.6354,-73.5038C556.5195,-67.4841 354.869,-53.6978 174.2414,-31.0936"/>
<polygon fill="#191970" stroke="#191970" points="174.6533,-27.6179 164.2935,-29.8369 173.776,-34.5627 174.6533,-27.6179"/>
</g>
<!-- Node12 -->
<g id="node13" class="node">
<title>Node12</title>
<polygon fill="none" stroke="#bfbfbf" points="182.5,-6 182.5,-25 371.5,-25 371.5,-6 182.5,-6"/>
<text text-anchor="middle" x="277" y="-13" font-family="Helvetica,sans-Serif" font-size="10.00" fill="#000000">Math/GenVector/PositionVector2D.h</text>
</g>
<!-- Node5&#45;&gt;Node12 -->
<g id="edge13" class="edge">
<title>Node5&#45;&gt;Node12</title>
<path fill="none" stroke="#191970" d="M655.7778,-68.8997C588.2226,-59.9017 476.2978,-44.8173 380,-31 370.1326,-29.5842 359.7389,-28.0594 349.503,-26.5382"/>
<polygon fill="#191970" stroke="#191970" points="349.7522,-23.0367 339.3451,-25.0224 348.719,-29.9601 349.7522,-23.0367"/>
</g>
<!-- Node13 -->
<g id="node14" class="node">
<title>Node13</title>
<polygon fill="none" stroke="#bfbfbf" points="389.5,-6 389.5,-25 448.5,-25 448.5,-6 389.5,-6"/>
<text text-anchor="middle" x="419" y="-13" font-family="Helvetica,sans-Serif" font-size="10.00" fill="#000000">Rtypes.h</text>
</g>
<!-- Node5&#45;&gt;Node13 -->
<g id="edge14" class="edge">
<title>Node5&#45;&gt;Node13</title>
<path fill="none" stroke="#191970" d="M655.7677,-69.6869C602.781,-62.5177 524.4406,-49.8921 458,-31 455.5471,-30.3025 453.036,-29.5061 450.5284,-28.6507"/>
<polygon fill="#191970" stroke="#191970" points="451.5982,-25.3149 441.0047,-25.1445 449.1797,-31.8839 451.5982,-25.3149"/>
</g>
<!-- Node14 -->
<g id="node15" class="node">
<title>Node14</title>
<polygon fill="none" stroke="#bfbfbf" points="467,-6 467,-25 549,-25 549,-6 467,-6"/>
<text text-anchor="middle" x="508" y="-13" font-family="Helvetica,sans-Serif" font-size="10.00" fill="#000000">TGeoMatrix.h</text>
</g>
<!-- Node5&#45;&gt;Node14 -->
<g id="edge15" class="edge">
<title>Node5&#45;&gt;Node14</title>
<path fill="none" stroke="#191970" d="M683.445,-67.4923C651.2282,-58.3165 601.2176,-43.949 558,-31 554.8224,-30.0479 551.5345,-29.0522 548.2323,-28.0447"/>
<polygon fill="#191970" stroke="#191970" points="548.966,-24.6088 538.3791,-25.0186 546.9109,-31.3003 548.966,-24.6088"/>
</g>
<!-- Node15 -->
<g id="node16" class="node">
<title>Node15</title>
<polygon fill="none" stroke="#bfbfbf" points="567.5,-6 567.5,-25 616.5,-25 616.5,-6 567.5,-6"/>
<text text-anchor="middle" x="592" y="-13" font-family="Helvetica,sans-Serif" font-size="10.00" fill="#000000">iosfwd</text>
</g>
<!-- Node5&#45;&gt;Node15 -->
<g id="edge16" class="edge">
<title>Node5&#45;&gt;Node15</title>
<path fill="none" stroke="#191970" d="M697.4688,-67.3906C676.8292,-57.2359 644.0724,-41.1196 620.5398,-29.5416"/>
<polygon fill="#191970" stroke="#191970" points="621.912,-26.3161 611.3941,-25.0419 618.8218,-32.5971 621.912,-26.3161"/>
</g>
<!-- Node22&#45;&gt;Node2 -->
<g id="edge25" class="edge">
<title>Node22&#45;&gt;Node2</title>
<path fill="none" stroke="#191970" d="M1707.4688,-67.3906C1686.8292,-57.2359 1654.0724,-41.1196 1630.5398,-29.5416"/>
<polygon fill="#191970" stroke="#191970" points="1631.912,-26.3161 1621.3941,-25.0419 1628.8218,-32.5971 1631.912,-26.3161"/>
</g>
<!-- Node22&#45;&gt;Node4 -->
<g id="edge26" class="edge">
<title>Node22&#45;&gt;Node4</title>
<path fill="none" stroke="#191970" d="M1727,-67.3906C1727,-58.8657 1727,-46.1392 1727,-35.4235"/>
<polygon fill="#191970" stroke="#191970" points="1730.5001,-35.2448 1727,-25.2449 1723.5001,-35.2449 1730.5001,-35.2448"/>
</g>
</g>
</svg>
