<?xml version="1.0" encoding="UTF-8" standalone="no"?>
<!DOCTYPE svg PUBLIC "-//W3C//DTD SVG 1.1//EN"
 "http://www.w3.org/Graphics/SVG/1.1/DTD/svg11.dtd">
<!-- Generated by graphviz version 2.40.1 (20161225.0304)
 -->
<!-- Title: /home/travis/build/AliceO2Group/AliceO2/Detectors/EMCAL/calib/test/testBadChannelMap.cxx Pages: 1 -->
<svg width="2219pt" height="240pt"
 viewBox="0.00 0.00 2218.58 240.00" xmlns="http://www.w3.org/2000/svg" xmlns:xlink="http://www.w3.org/1999/xlink">
<g id="graph0" class="graph" transform="scale(1 1) rotate(0) translate(4 236)">
<title>/home/travis/build/AliceO2Group/AliceO2/Detectors/EMCAL/calib/test/testBadChannelMap.cxx</title>
<!-- Node0 -->
<g id="node1" class="node">
<title>Node0</title>
<polygon fill="#bfbfbf" stroke="#000000" points="1618.5,-179.5 1618.5,-231.5 1777.5,-231.5 1777.5,-179.5 1618.5,-179.5"/>
<text text-anchor="start" x="1626.5" y="-219.5" font-family="Helvetica,sans-Serif" font-size="10.00" fill="#000000">/home/travis/build</text>
<text text-anchor="start" x="1626.5" y="-208.5" font-family="Helvetica,sans-Serif" font-size="10.00" fill="#000000">/AliceO2Group/AliceO2</text>
<text text-anchor="start" x="1626.5" y="-197.5" font-family="Helvetica,sans-Serif" font-size="10.00" fill="#000000">/Detectors/EMCAL/calib</text>
<text text-anchor="middle" x="1698" y="-186.5" font-family="Helvetica,sans-Serif" font-size="10.00" fill="#000000">/test/testBadChannelMap.cxx</text>
</g>
<!-- Node1 -->
<g id="node2" class="node">
<title>Node1</title>
<polygon fill="none" stroke="#bfbfbf" points="1491,-123.5 1491,-142.5 1623,-142.5 1623,-123.5 1491,-123.5"/>
<text text-anchor="middle" x="1557" y="-130.5" font-family="Helvetica,sans-Serif" font-size="10.00" fill="#000000">boost/test/unit_test.hpp</text>
</g>
<!-- Node0&#45;&gt;Node1 -->
<g id="edge1" class="edge">
<title>Node0&#45;&gt;Node1</title>
<path fill="none" stroke="#191970" d="M1647.0958,-179.3258C1626.0638,-168.5115 1602.5043,-156.3976 1584.7532,-147.2703"/>
<polygon fill="#191970" stroke="#191970" points="1586.0357,-143.9942 1575.542,-142.534 1582.8348,-150.2195 1586.0357,-143.9942"/>
</g>
<!-- Node2 -->
<g id="node3" class="node">
<title>Node2</title>
<g id="a_node3"><a xlink:href="../../d2/d65/EMCAL_2calib_2include_2EMCALCalib_2BadChannelMap_8h.html" target="_top" xlink:title="EMCALCalib/BadChannelMap.h">
<polygon fill="none" stroke="#000000" points="1351.5,-67.5 1351.5,-86.5 1516.5,-86.5 1516.5,-67.5 1351.5,-67.5"/>
<text text-anchor="middle" x="1434" y="-74.5" font-family="Helvetica,sans-Serif" font-size="10.00" fill="#000000">EMCALCalib/BadChannelMap.h</text>
</a>
</g>
</g>
<!-- Node0&#45;&gt;Node2 -->
<g id="edge2" class="edge">
<title>Node0&#45;&gt;Node2</title>
<path fill="none" stroke="#191970" d="M1683.5029,-179.2497C1671.934,-160.748 1654.0376,-136.883 1632,-123 1610.8138,-109.6534 1552.2757,-96.9689 1504.3055,-88.3135"/>
<polygon fill="#191970" stroke="#191970" points="1504.7045,-84.8297 1494.2468,-86.5289 1503.4816,-91.722 1504.7045,-84.8297"/>
</g>
<!-- Node6 -->
<g id="node7" class="node">
<title>Node6</title>
<g id="a_node7"><a xlink:href="../../dd/da8/EMCAL_2base_2include_2EMCALBase_2Geometry_8h.html" target="_top" xlink:title="EMCALBase/Geometry.h">
<polygon fill="none" stroke="#000000" points="1679.5,-123.5 1679.5,-142.5 1812.5,-142.5 1812.5,-123.5 1679.5,-123.5"/>
<text text-anchor="middle" x="1746" y="-130.5" font-family="Helvetica,sans-Serif" font-size="10.00" fill="#000000">EMCALBase/Geometry.h</text>
</a>
</g>
</g>
<!-- Node0&#45;&gt;Node6 -->
<g id="edge6" class="edge">
<title>Node0&#45;&gt;Node6</title>
<path fill="none" stroke="#191970" d="M1715.3291,-179.3258C1721.5608,-169.9134 1728.4443,-159.5164 1734.1086,-150.961"/>
<polygon fill="#191970" stroke="#191970" points="1737.0857,-152.8043 1739.6878,-142.534 1731.249,-148.94 1737.0857,-152.8043"/>
</g>
<!-- Node27 -->
<g id="node28" class="node">
<title>Node27</title>
<polygon fill="none" stroke="#bfbfbf" points="1831,-123.5 1831,-142.5 1895,-142.5 1895,-123.5 1831,-123.5"/>
<text text-anchor="middle" x="1863" y="-130.5" font-family="Helvetica,sans-Serif" font-size="10.00" fill="#000000">algorithm</text>
</g>
<!-- Node0&#45;&gt;Node27 -->
<g id="edge34" class="edge">
<title>Node0&#45;&gt;Node27</title>
<path fill="none" stroke="#191970" d="M1757.5688,-179.3258C1782.7504,-168.2612 1811.0283,-155.8361 1831.9544,-146.6413"/>
<polygon fill="#191970" stroke="#191970" points="1833.5547,-149.7611 1841.3019,-142.534 1830.7387,-143.3525 1833.5547,-149.7611"/>
</g>
<!-- Node3 -->
<g id="node4" class="node">
<title>Node3</title>
<polygon fill="none" stroke="#bfbfbf" points="1560.5,-6 1560.5,-25 1609.5,-25 1609.5,-6 1560.5,-6"/>
<text text-anchor="middle" x="1585" y="-13" font-family="Helvetica,sans-Serif" font-size="10.00" fill="#000000">iosfwd</text>
</g>
<!-- Node2&#45;&gt;Node3 -->
<g id="edge3" class="edge">
<title>Node2&#45;&gt;Node3</title>
<path fill="none" stroke="#191970" d="M1459.7214,-67.3382C1483.5338,-58.2872 1519.8556,-44.2105 1551,-31 1552.3811,-30.4142 1553.7901,-29.8077 1555.2107,-29.1892"/>
<polygon fill="#191970" stroke="#191970" points="1556.8671,-32.283 1564.5815,-25.0209 1554.0222,-25.8872 1556.8671,-32.283"/>
</g>
<!-- Node4 -->
<g id="node5" class="node">
<title>Node4</title>
<polygon fill="none" stroke="#bfbfbf" points="1498,-6 1498,-25 1542,-25 1542,-6 1498,-6"/>
<text text-anchor="middle" x="1520" y="-13" font-family="Helvetica,sans-Serif" font-size="10.00" fill="#000000">bitset</text>
</g>
<!-- Node2&#45;&gt;Node4 -->
<g id="edge4" class="edge">
<title>Node2&#45;&gt;Node4</title>
<path fill="none" stroke="#191970" d="M1447.4375,-67.3906C1461.0695,-57.6421 1482.3846,-42.3994 1498.3922,-30.9521"/>
<polygon fill="#191970" stroke="#191970" points="1500.5586,-33.7057 1506.6569,-25.0419 1496.4868,-28.0118 1500.5586,-33.7057"/>
</g>
<!-- Node5 -->
<g id="node6" class="node">
<title>Node5</title>
<polygon fill="none" stroke="#bfbfbf" points="1627.5,-6 1627.5,-25 1686.5,-25 1686.5,-6 1627.5,-6"/>
<text text-anchor="middle" x="1657" y="-13" font-family="Helvetica,sans-Serif" font-size="10.00" fill="#000000">Rtypes.h</text>
</g>
<!-- Node2&#45;&gt;Node5 -->
<g id="edge5" class="edge">
<title>Node2&#45;&gt;Node5</title>
<path fill="none" stroke="#191970" d="M1480.1343,-67.4619C1517.879,-59.1985 1572.4356,-46.1988 1619,-31 1621.1463,-30.2995 1623.3434,-29.5348 1625.546,-28.7328"/>
<polygon fill="#191970" stroke="#191970" points="1627.0194,-31.9161 1635.096,-25.059 1624.5061,-25.3828 1627.0194,-31.9161"/>
</g>
<!-- Node7 -->
<g id="node8" class="node">
<title>Node7</title>
<polygon fill="none" stroke="#bfbfbf" points="1980.5,-6 1980.5,-25 2045.5,-25 2045.5,-6 1980.5,-6"/>
<text text-anchor="middle" x="2013" y="-13" font-family="Helvetica,sans-Serif" font-size="10.00" fill="#000000">exception</text>
</g>
<!-- Node6&#45;&gt;Node7 -->
<g id="edge7" class="edge">
<title>Node6&#45;&gt;Node7</title>
<path fill="none" stroke="#191970" d="M1812.7114,-124.0836C1815.8502,-123.7077 1818.9586,-123.3444 1822,-123 1864.032,-118.2401 2172.5382,-118.2934 2201,-87 2245.0261,-38.5938 2123.8789,-22.7432 2055.7703,-17.7238"/>
<polygon fill="#191970" stroke="#191970" points="2055.9467,-14.2277 2045.7301,-17.0334 2055.4664,-21.2112 2055.9467,-14.2277"/>
</g>
<!-- Node8 -->
<g id="node9" class="node">
<title>Node8</title>
<polygon fill="none" stroke="#bfbfbf" points="0,-6 0,-25 44,-25 44,-6 0,-6"/>
<text text-anchor="middle" x="22" y="-13" font-family="Helvetica,sans-Serif" font-size="10.00" fill="#000000">string</text>
</g>
<!-- Node6&#45;&gt;Node8 -->
<g id="edge8" class="edge">
<title>Node6&#45;&gt;Node8</title>
<path fill="none" stroke="#191970" d="M1679.4362,-126.5234C1663.8825,-125.187 1647.3705,-123.9111 1632,-123 1115.3262,-92.3737 983.8193,-129.6642 468,-87 282.5173,-71.6584 230.8645,-85.8034 53,-31 51.3396,-30.4884 49.6593,-29.895 47.9848,-29.2448"/>
<polygon fill="#191970" stroke="#191970" points="49.1942,-25.9518 38.6359,-25.0731 46.3418,-32.3443 49.1942,-25.9518"/>
</g>
<!-- Node9 -->
<g id="node10" class="node">
<title>Node9</title>
<polygon fill="none" stroke="#bfbfbf" points="1725.5,-67.5 1725.5,-86.5 1766.5,-86.5 1766.5,-67.5 1725.5,-67.5"/>
<text text-anchor="middle" x="1746" y="-74.5" font-family="Helvetica,sans-Serif" font-size="10.00" fill="#000000">tuple</text>
</g>
<!-- Node6&#45;&gt;Node9 -->
<g id="edge9" class="edge">
<title>Node6&#45;&gt;Node9</title>
<path fill="none" stroke="#191970" d="M1746,-123.2455C1746,-115.9382 1746,-105.6944 1746,-96.7046"/>
<polygon fill="#191970" stroke="#191970" points="1749.5001,-96.6426 1746,-86.6427 1742.5001,-96.6427 1749.5001,-96.6426"/>
</g>
<!-- Node10 -->
<g id="node11" class="node">
<title>Node10</title>
<polygon fill="none" stroke="#bfbfbf" points="1784.5,-67.5 1784.5,-86.5 1831.5,-86.5 1831.5,-67.5 1784.5,-67.5"/>
<text text-anchor="middle" x="1808" y="-74.5" font-family="Helvetica,sans-Serif" font-size="10.00" fill="#000000">vector</text>
</g>
<!-- Node6&#45;&gt;Node10 -->
<g id="edge10" class="edge">
<title>Node6&#45;&gt;Node10</title>
<path fill="none" stroke="#191970" d="M1756.7996,-123.2455C1765.8678,-115.0549 1779.0206,-103.1749 1789.7245,-93.5069"/>
<polygon fill="#191970" stroke="#191970" points="1792.2491,-95.9429 1797.3242,-86.6427 1787.5571,-90.7482 1792.2491,-95.9429"/>
</g>
<!-- Node11 -->
<g id="node12" class="node">
<title>Node11</title>
<polygon fill="none" stroke="#bfbfbf" points="1850,-67.5 1850,-86.5 1934,-86.5 1934,-67.5 1850,-67.5"/>
<text text-anchor="middle" x="1892" y="-74.5" font-family="Helvetica,sans-Serif" font-size="10.00" fill="#000000">RStringView.h</text>
</g>
<!-- Node6&#45;&gt;Node11 -->
<g id="edge11" class="edge">
<title>Node6&#45;&gt;Node11</title>
<path fill="none" stroke="#191970" d="M1771.0983,-123.3733C1794.9555,-114.2226 1831.0335,-100.3844 1857.571,-90.2057"/>
<polygon fill="#191970" stroke="#191970" points="1859.1459,-93.3503 1867.2292,-86.5011 1856.639,-86.8145 1859.1459,-93.3503"/>
</g>
<!-- Node12 -->
<g id="node13" class="node">
<title>Node12</title>
<polygon fill="none" stroke="#bfbfbf" points="62,-6 62,-25 144,-25 144,-6 62,-6"/>
<text text-anchor="middle" x="103" y="-13" font-family="Helvetica,sans-Serif" font-size="10.00" fill="#000000">TGeoMatrix.h</text>
</g>
<!-- Node6&#45;&gt;Node12 -->
<g id="edge12" class="edge">
<title>Node6&#45;&gt;Node12</title>
<path fill="none" stroke="#191970" d="M1679.4211,-126.7577C1663.868,-125.411 1647.3601,-124.0717 1632,-123 1323.8899,-101.5019 1246.2748,-105.9896 938,-87 916.1804,-85.6559 174.4843,-35.0408 153,-31 148.5594,-30.1648 143.9577,-29.0694 139.4249,-27.8463"/>
<polygon fill="#191970" stroke="#191970" points="140.2812,-24.4503 129.7015,-25.0163 138.325,-31.1715 140.2812,-24.4503"/>
</g>
<!-- Node13 -->
<g id="node14" class="node">
<title>Node13</title>
<polygon fill="none" stroke="#bfbfbf" points="1952.5,-67.5 1952.5,-86.5 2019.5,-86.5 2019.5,-67.5 1952.5,-67.5"/>
<text text-anchor="middle" x="1986" y="-74.5" font-family="Helvetica,sans-Serif" font-size="10.00" fill="#000000">TNamed.h</text>
</g>
<!-- Node6&#45;&gt;Node13 -->
<g id="edge13" class="edge">
<title>Node6&#45;&gt;Node13</title>
<path fill="none" stroke="#191970" d="M1786.9848,-123.4369C1830.2083,-113.3514 1898.053,-97.521 1942.2817,-87.2009"/>
<polygon fill="#191970" stroke="#191970" points="1943.2214,-90.5758 1952.1645,-84.8949 1941.6308,-83.7589 1943.2214,-90.5758"/>
</g>
<!-- Node14 -->
<g id="node15" class="node">
<title>Node14</title>
<polygon fill="none" stroke="#bfbfbf" points="2038,-67.5 2038,-86.5 2106,-86.5 2106,-67.5 2038,-67.5"/>
<text text-anchor="middle" x="2072" y="-74.5" font-family="Helvetica,sans-Serif" font-size="10.00" fill="#000000">TParticle.h</text>
</g>
<!-- Node6&#45;&gt;Node14 -->
<g id="edge14" class="edge">
<title>Node6&#45;&gt;Node14</title>
<path fill="none" stroke="#191970" d="M1812.5558,-123.4759C1867.691,-115.2902 1948.3157,-102.6407 2027.6122,-87.1772"/>
<polygon fill="#191970" stroke="#191970" points="2028.6408,-90.5421 2037.7773,-85.1778 2027.2898,-83.6737 2028.6408,-90.5421"/>
</g>
<!-- Node15 -->
<g id="node16" class="node">
<title>Node15</title>
<polygon fill="none" stroke="#bfbfbf" points="2124,-67.5 2124,-86.5 2192,-86.5 2192,-67.5 2124,-67.5"/>
<text text-anchor="middle" x="2158" y="-74.5" font-family="Helvetica,sans-Serif" font-size="10.00" fill="#000000">TVector3.h</text>
</g>
<!-- Node6&#45;&gt;Node15 -->
<g id="edge15" class="edge">
<title>Node6&#45;&gt;Node15</title>
<path fill="none" stroke="#191970" d="M1812.7239,-124.1877C1815.8593,-123.7839 1818.9636,-123.3863 1822,-123 1948.9749,-106.8462 1984.11,-109.7352 2113.877,-87.0507"/>
<polygon fill="#191970" stroke="#191970" points="2114.5608,-90.4842 2123.8,-85.2989 2113.3437,-83.5908 2114.5608,-90.4842"/>
</g>
<!-- Node16 -->
<g id="node17" class="node">
<title>Node16</title>
<g id="a_node17"><a xlink:href="../../dd/dda/DataFormats_2Detectors_2EMCAL_2include_2DataFormatsEMCAL_2Constants_8h.html" target="_top" xlink:title="DataFormatsEMCAL/Constants.h">
<polygon fill="none" stroke="#000000" points="1534.5,-67.5 1534.5,-86.5 1707.5,-86.5 1707.5,-67.5 1534.5,-67.5"/>
<text text-anchor="middle" x="1621" y="-74.5" font-family="Helvetica,sans-Serif" font-size="10.00" fill="#000000">DataFormatsEMCAL/Constants.h</text>
</a>
</g>
</g>
<!-- Node6&#45;&gt;Node16 -->
<g id="edge16" class="edge">
<title>Node6&#45;&gt;Node16</title>
<path fill="none" stroke="#191970" d="M1724.5117,-123.3733C1704.356,-114.3435 1674.012,-100.7494 1651.382,-90.6111"/>
<polygon fill="#191970" stroke="#191970" points="1652.7649,-87.3955 1642.2079,-86.5011 1649.9029,-93.7838 1652.7649,-87.3955"/>
</g>
<!-- Node18 -->
<g id="node19" class="node">
<title>Node18</title>
<g id="a_node19"><a xlink:href="../../d5/d5e/GeometryBase_8h.html" target="_top" xlink:title="EMCALBase/GeometryBase.h">
<polygon fill="none" stroke="#000000" points="477,-67.5 477,-86.5 635,-86.5 635,-67.5 477,-67.5"/>
<text text-anchor="middle" x="556" y="-74.5" font-family="Helvetica,sans-Serif" font-size="10.00" fill="#000000">EMCALBase/GeometryBase.h</text>
</a>
</g>
</g>
<!-- Node6&#45;&gt;Node18 -->
<g id="edge21" class="edge">
<title>Node6&#45;&gt;Node18</title>
<path fill="none" stroke="#191970" d="M1679.428,-126.6557C1663.8746,-125.3136 1647.3648,-124.0018 1632,-123 1535.0302,-116.6773 885.9822,-90.2887 645.4511,-80.5934"/>
<polygon fill="#191970" stroke="#191970" points="645.475,-77.0917 635.3422,-80.1861 645.1931,-84.086 645.475,-77.0917"/>
</g>
<!-- Node19 -->
<g id="node20" class="node">
<title>Node19</title>
<g id="a_node20"><a xlink:href="../../dc/d73/Cartesian_8h.html" target="_top" xlink:title="MathUtils/Cartesian.h">
<polygon fill="none" stroke="#000000" points="947,-67.5 947,-86.5 1069,-86.5 1069,-67.5 947,-67.5"/>
<text text-anchor="middle" x="1008" y="-74.5" font-family="Helvetica,sans-Serif" font-size="10.00" fill="#000000">MathUtils/Cartesian.h</text>
</a>
</g>
</g>
<!-- Node6&#45;&gt;Node19 -->
<g id="edge23" class="edge">
<title>Node6&#45;&gt;Node19</title>
<path fill="none" stroke="#191970" d="M1679.4027,-127.0013C1663.8505,-125.644 1647.3475,-124.2388 1632,-123 1431.7787,-106.8392 1195.2256,-90.0239 1079.2989,-81.932"/>
<polygon fill="#191970" stroke="#191970" points="1079.3558,-78.4276 1069.1365,-81.2234 1078.8688,-85.4106 1079.3558,-78.4276"/>
</g>
<!-- Node16&#45;&gt;Node3 -->
<g id="edge18" class="edge">
<title>Node16&#45;&gt;Node3</title>
<path fill="none" stroke="#191970" d="M1615.375,-67.3906C1610.1747,-58.5068 1602.3034,-45.0601 1595.8767,-34.0811"/>
<polygon fill="#191970" stroke="#191970" points="1598.7767,-32.1069 1590.7043,-25.2449 1592.7356,-35.6432 1598.7767,-32.1069"/>
</g>
<!-- Node16&#45;&gt;Node5 -->
<g id="edge17" class="edge">
<title>Node16&#45;&gt;Node5</title>
<path fill="none" stroke="#191970" d="M1626.625,-67.3906C1631.8253,-58.5068 1639.6966,-45.0601 1646.1233,-34.0811"/>
<polygon fill="#191970" stroke="#191970" points="1649.2644,-35.6432 1651.2957,-25.2449 1643.2233,-32.1069 1649.2644,-35.6432"/>
</g>
<!-- Node16&#45;&gt;Node7 -->
<g id="edge19" class="edge">
<title>Node16&#45;&gt;Node7</title>
<path fill="none" stroke="#191970" d="M1681.8199,-67.4581C1761.7987,-54.9104 1900.3284,-33.1768 1970.1488,-22.2228"/>
<polygon fill="#191970" stroke="#191970" points="1971.0043,-25.6315 1980.341,-20.6238 1969.9193,-18.7161 1971.0043,-25.6315"/>
</g>
<!-- Node17 -->
<g id="node18" class="node">
<title>Node17</title>
<polygon fill="none" stroke="#bfbfbf" points="1705,-6 1705,-25 1755,-25 1755,-6 1705,-6"/>
<text text-anchor="middle" x="1730" y="-13" font-family="Helvetica,sans-Serif" font-size="10.00" fill="#000000">cstdint</text>
</g>
<!-- Node16&#45;&gt;Node17 -->
<g id="edge20" class="edge">
<title>Node16&#45;&gt;Node17</title>
<path fill="none" stroke="#191970" d="M1638.0313,-67.3906C1655.789,-57.3713 1683.833,-41.5483 1704.2882,-30.0071"/>
<polygon fill="#191970" stroke="#191970" points="1706.0989,-33.0042 1713.0883,-25.0419 1702.6591,-26.9077 1706.0989,-33.0042"/>
</g>
<!-- Node18&#45;&gt;Node8 -->
<g id="edge22" class="edge">
<title>Node18&#45;&gt;Node8</title>
<path fill="none" stroke="#191970" d="M476.9357,-73.3488C355.8819,-67.1539 130.4854,-53.0652 53,-31 51.2892,-30.5128 49.5601,-29.9315 47.8398,-29.2842"/>
<polygon fill="#191970" stroke="#191970" points="48.8322,-25.8961 38.271,-25.0526 46.001,-32.2981 48.8322,-25.8961"/>
</g>
<!-- Node19&#45;&gt;Node3 -->
<g id="edge33" class="edge">
<title>Node19&#45;&gt;Node3</title>
<path fill="none" stroke="#191970" d="M1069.1884,-74.4535C1191.3504,-68.9374 1461.4226,-54.4581 1551,-31 1553.1925,-30.4258 1555.4199,-29.7197 1557.6317,-28.9283"/>
<polygon fill="#191970" stroke="#191970" points="1559.148,-32.0894 1567.073,-25.0578 1556.4927,-25.6126 1559.148,-32.0894"/>
</g>
<!-- Node19&#45;&gt;Node5 -->
<g id="edge31" class="edge">
<title>Node19&#45;&gt;Node5</title>
<path fill="none" stroke="#191970" d="M1069.0549,-74.8205C1202.346,-69.6695 1515.7132,-55.3168 1619,-31 1621.7958,-30.3418 1624.6534,-29.5065 1627.4839,-28.5663"/>
<polygon fill="#191970" stroke="#191970" points="1628.7243,-31.8393 1636.8745,-25.0699 1626.2818,-25.2792 1628.7243,-31.8393"/>
</g>
<!-- Node19&#45;&gt;Node12 -->
<g id="edge32" class="edge">
<title>Node19&#45;&gt;Node12</title>
<path fill="none" stroke="#191970" d="M946.8475,-73.0245C917.0342,-71.1256 880.6493,-68.8658 848,-67 539.2008,-49.3529 457.5152,-85.2112 153,-31 148.4997,-30.1988 143.8378,-29.1142 139.2513,-27.8883"/>
<polygon fill="#191970" stroke="#191970" points="140.003,-24.4621 129.4236,-25.0345 138.0509,-31.1844 140.003,-24.4621"/>
</g>
<!-- Node20 -->
<g id="node21" class="node">
<title>Node20</title>
<polygon fill="none" stroke="#bfbfbf" points="1316,-.5 1316,-30.5 1480,-30.5 1480,-.5 1316,-.5"/>
<text text-anchor="start" x="1324" y="-18.5" font-family="Helvetica,sans-Serif" font-size="10.00" fill="#000000">Math/GenVector/Displacement</text>
<text text-anchor="middle" x="1398" y="-7.5" font-family="Helvetica,sans-Serif" font-size="10.00" fill="#000000">Vector3D.h</text>
</g>
<!-- Node19&#45;&gt;Node20 -->
<g id="edge24" class="edge">
<title>Node19&#45;&gt;Node20</title>
<path fill="none" stroke="#191970" d="M1069.0325,-67.9037C1127.306,-59.1519 1217.8629,-45.379 1305.794,-31.1823"/>
<polygon fill="#191970" stroke="#191970" points="1306.3575,-34.6367 1315.67,-29.5842 1305.2393,-27.7266 1306.3575,-34.6367"/>
</g>
<!-- Node21 -->
<g id="node22" class="node">
<title>Node21</title>
<polygon fill="none" stroke="#bfbfbf" points="162.5,-6 162.5,-25 351.5,-25 351.5,-6 162.5,-6"/>
<text text-anchor="middle" x="257" y="-13" font-family="Helvetica,sans-Serif" font-size="10.00" fill="#000000">Math/GenVector/PositionVector3D.h</text>
</g>
<!-- Node19&#45;&gt;Node21 -->
<g id="edge25" class="edge">
<title>Node19&#45;&gt;Node21</title>
<path fill="none" stroke="#191970" d="M946.9305,-72.9277C796.8928,-62.8843 418.2272,-37.2894 361,-31 349.5618,-29.7429 337.451,-28.1651 325.6923,-26.5008"/>
<polygon fill="#191970" stroke="#191970" points="325.8736,-22.9906 315.4753,-25.0218 324.8707,-29.9184 325.8736,-22.9906"/>
</g>
<!-- Node22 -->
<g id="node23" class="node">
<title>Node22</title>
<polygon fill="none" stroke="#bfbfbf" points="370,-6 370,-25 530,-25 530,-6 370,-6"/>
<text text-anchor="middle" x="450" y="-13" font-family="Helvetica,sans-Serif" font-size="10.00" fill="#000000">Math/GenVector/Rotation3D.h</text>
</g>
<!-- Node19&#45;&gt;Node22 -->
<g id="edge26" class="edge">
<title>Node19&#45;&gt;Node22</title>
<path fill="none" stroke="#191970" d="M946.7462,-72.4599C857.0294,-65.4779 684.7212,-50.8073 539,-31 529.8696,-29.7589 520.2426,-28.2712 510.8278,-26.7153"/>
<polygon fill="#191970" stroke="#191970" points="511.1719,-23.2239 500.7285,-25.0087 510.0056,-30.1261 511.1719,-23.2239"/>
</g>
<!-- Node23 -->
<g id="node24" class="node">
<title>Node23</title>
<polygon fill="none" stroke="#bfbfbf" points="548,-6 548,-25 716,-25 716,-6 548,-6"/>
<text text-anchor="middle" x="632" y="-13" font-family="Helvetica,sans-Serif" font-size="10.00" fill="#000000">Math/GenVector/Transform3D.h</text>
</g>
<!-- Node19&#45;&gt;Node23 -->
<g id="edge27" class="edge">
<title>Node19&#45;&gt;Node23</title>
<path fill="none" stroke="#191970" d="M948.9079,-67.4657C891.6482,-58.2104 802.3574,-43.7334 725,-31 716.6418,-29.6242 707.8624,-28.1712 699.1737,-26.7285"/>
<polygon fill="#191970" stroke="#191970" points="699.4848,-23.2323 689.0462,-25.0449 698.3368,-30.1375 699.4848,-23.2323"/>
</g>
<!-- Node24 -->
<g id="node25" class="node">
<title>Node24</title>
<polygon fill="none" stroke="#bfbfbf" points="734.5,-6 734.5,-25 907.5,-25 907.5,-6 734.5,-6"/>
<text text-anchor="middle" x="821" y="-13" font-family="Helvetica,sans-Serif" font-size="10.00" fill="#000000">Math/GenVector/Translation3D.h</text>
</g>
<!-- Node19&#45;&gt;Node24 -->
<g id="edge28" class="edge">
<title>Node19&#45;&gt;Node24</title>
<path fill="none" stroke="#191970" d="M978.7813,-67.3906C946.6693,-56.8298 894.951,-39.8208 859.5392,-28.1747"/>
<polygon fill="#191970" stroke="#191970" points="860.6065,-24.8413 850.0136,-25.0419 858.4196,-31.4909 860.6065,-24.8413"/>
</g>
<!-- Node25 -->
<g id="node26" class="node">
<title>Node25</title>
<polygon fill="none" stroke="#bfbfbf" points="926,-.5 926,-30.5 1090,-30.5 1090,-.5 926,-.5"/>
<text text-anchor="start" x="934" y="-18.5" font-family="Helvetica,sans-Serif" font-size="10.00" fill="#000000">Math/GenVector/Displacement</text>
<text text-anchor="middle" x="1008" y="-7.5" font-family="Helvetica,sans-Serif" font-size="10.00" fill="#000000">Vector2D.h</text>
</g>
<!-- Node19&#45;&gt;Node25 -->
<g id="edge29" class="edge">
<title>Node19&#45;&gt;Node25</title>
<path fill="none" stroke="#191970" d="M1008,-67.3906C1008,-60.2234 1008,-50.0862 1008,-40.671"/>
<polygon fill="#191970" stroke="#191970" points="1011.5001,-40.5446 1008,-30.5446 1004.5001,-40.5446 1011.5001,-40.5446"/>
</g>
<!-- Node26 -->
<g id="node27" class="node">
<title>Node26</title>
<polygon fill="none" stroke="#bfbfbf" points="1108.5,-6 1108.5,-25 1297.5,-25 1297.5,-6 1108.5,-6"/>
<text text-anchor="middle" x="1203" y="-13" font-family="Helvetica,sans-Serif" font-size="10.00" fill="#000000">Math/GenVector/PositionVector2D.h</text>
</g>
<!-- Node19&#45;&gt;Node26 -->
<g id="edge30" class="edge">
<title>Node19&#45;&gt;Node26</title>
<path fill="none" stroke="#191970" d="M1038.4688,-67.3906C1071.9544,-56.8298 1125.8853,-39.8208 1162.812,-28.1747"/>
<polygon fill="#191970" stroke="#191970" points="1164.261,-31.3877 1172.7452,-25.0419 1162.1555,-24.7118 1164.261,-31.3877"/>
</g>
</g>
</svg>
