<?xml version="1.0" encoding="UTF-8" standalone="no"?>
<!DOCTYPE svg PUBLIC "-//W3C//DTD SVG 1.1//EN"
 "http://www.w3.org/Graphics/SVG/1.1/DTD/svg11.dtd">
<!-- Generated by graphviz version 2.40.1 (20161225.0304)
 -->
<!-- Title: /home/travis/build/AliceO2Group/AliceO2/Detectors/MUON/MID/Base/test/src/Positions.cxx Pages: 1 -->
<svg width="2423pt" height="251pt"
 viewBox="0.00 0.00 2422.50 251.00" xmlns="http://www.w3.org/2000/svg" xmlns:xlink="http://www.w3.org/1999/xlink">
<g id="graph0" class="graph" transform="scale(1 1) rotate(0) translate(4 247)">
<title>/home/travis/build/AliceO2Group/AliceO2/Detectors/MUON/MID/Base/test/src/Positions.cxx</title>
<!-- Node0 -->
<g id="node1" class="node">
<title>Node0</title>
<polygon fill="#bfbfbf" stroke="#000000" points="309.5,-190.5 309.5,-242.5 458.5,-242.5 458.5,-190.5 309.5,-190.5"/>
<text text-anchor="start" x="317.5" y="-230.5" font-family="Helvetica,sans-Serif" font-size="10.00" fill="#000000">/home/travis/build</text>
<text text-anchor="start" x="317.5" y="-219.5" font-family="Helvetica,sans-Serif" font-size="10.00" fill="#000000">/AliceO2Group/AliceO2</text>
<text text-anchor="start" x="317.5" y="-208.5" font-family="Helvetica,sans-Serif" font-size="10.00" fill="#000000">/Detectors/MUON/MID/Base</text>
<text text-anchor="middle" x="384" y="-197.5" font-family="Helvetica,sans-Serif" font-size="10.00" fill="#000000">/test/src/Positions.cxx</text>
</g>
<!-- Node1 -->
<g id="node2" class="node">
<title>Node1</title>
<polygon fill="none" stroke="#bfbfbf" points="0,-129 0,-148 132,-148 132,-129 0,-129"/>
<text text-anchor="middle" x="66" y="-136" font-family="Helvetica,sans-Serif" font-size="10.00" fill="#000000">boost/test/unit_test.hpp</text>
</g>
<!-- Node0&#45;&gt;Node1 -->
<g id="edge1" class="edge">
<title>Node0&#45;&gt;Node1</title>
<path fill="none" stroke="#191970" d="M309.4431,-198.2125C249.3792,-183.4798 166.6667,-163.1918 114.7806,-150.4651"/>
<polygon fill="#191970" stroke="#191970" points="115.3761,-147.0074 104.8302,-148.0244 113.7085,-153.8059 115.3761,-147.0074"/>
</g>
<!-- Node2 -->
<g id="node3" class="node">
<title>Node2</title>
<polygon fill="none" stroke="#bfbfbf" points="150,-123.5 150,-153.5 262,-153.5 262,-123.5 150,-123.5"/>
<text text-anchor="start" x="158" y="-141.5" font-family="Helvetica,sans-Serif" font-size="10.00" fill="#000000">boost/test/data/test</text>
<text text-anchor="middle" x="206" y="-130.5" font-family="Helvetica,sans-Serif" font-size="10.00" fill="#000000">_case.hpp</text>
</g>
<!-- Node0&#45;&gt;Node2 -->
<g id="edge2" class="edge">
<title>Node0&#45;&gt;Node2</title>
<path fill="none" stroke="#191970" d="M324.2334,-190.3101C299.8424,-179.622 272.1561,-167.4898 249.7097,-157.6537"/>
<polygon fill="#191970" stroke="#191970" points="250.9996,-154.3977 240.4356,-153.5897 248.19,-160.8091 250.9996,-154.3977"/>
</g>
<!-- Node3 -->
<g id="node4" class="node">
<title>Node3</title>
<polygon fill="none" stroke="#bfbfbf" points="280.5,-129 280.5,-148 335.5,-148 335.5,-129 280.5,-129"/>
<text text-anchor="middle" x="308" y="-136" font-family="Helvetica,sans-Serif" font-size="10.00" fill="#000000">fstream</text>
</g>
<!-- Node0&#45;&gt;Node3 -->
<g id="edge3" class="edge">
<title>Node0&#45;&gt;Node3</title>
<path fill="none" stroke="#191970" d="M358.2699,-190.0928C347.1247,-178.6543 334.402,-165.5968 324.5445,-155.4799"/>
<polygon fill="#191970" stroke="#191970" points="326.8236,-152.8037 317.3381,-148.0839 321.81,-157.6887 326.8236,-152.8037"/>
</g>
<!-- Node4 -->
<g id="node5" class="node">
<title>Node4</title>
<polygon fill="none" stroke="#bfbfbf" points="354,-129 354,-148 414,-148 414,-129 354,-129"/>
<text text-anchor="middle" x="384" y="-136" font-family="Helvetica,sans-Serif" font-size="10.00" fill="#000000">iostream</text>
</g>
<!-- Node0&#45;&gt;Node4 -->
<g id="edge4" class="edge">
<title>Node0&#45;&gt;Node4</title>
<path fill="none" stroke="#191970" d="M384,-190.0928C384,-179.6735 384,-167.911 384,-158.2512"/>
<polygon fill="#191970" stroke="#191970" points="387.5001,-158.0838 384,-148.0839 380.5001,-158.0839 387.5001,-158.0838"/>
</g>
<!-- Node5 -->
<g id="node6" class="node">
<title>Node5</title>
<polygon fill="none" stroke="#bfbfbf" points="432.5,-129 432.5,-148 577.5,-148 577.5,-129 432.5,-129"/>
<text text-anchor="middle" x="505" y="-136" font-family="Helvetica,sans-Serif" font-size="10.00" fill="#000000">rapidjson/filereadstream.h</text>
</g>
<!-- Node0&#45;&gt;Node5 -->
<g id="edge5" class="edge">
<title>Node0&#45;&gt;Node5</title>
<path fill="none" stroke="#191970" d="M424.6279,-190.3101C443.4524,-178.1753 465.1645,-164.1791 481.2728,-153.7952"/>
<polygon fill="#191970" stroke="#191970" points="483.5368,-156.5 490.0455,-148.1401 479.7441,-150.6165 483.5368,-156.5"/>
</g>
<!-- Node6 -->
<g id="node7" class="node">
<title>Node6</title>
<polygon fill="none" stroke="#bfbfbf" points="596,-129 596,-148 718,-148 718,-129 596,-129"/>
<text text-anchor="middle" x="657" y="-136" font-family="Helvetica,sans-Serif" font-size="10.00" fill="#000000">rapidjson/document.h</text>
</g>
<!-- Node0&#45;&gt;Node6 -->
<g id="edge6" class="edge">
<title>Node0&#45;&gt;Node6</title>
<path fill="none" stroke="#191970" d="M458.5984,-195.1862C508.332,-180.9766 571.9748,-162.7929 613.5827,-150.9049"/>
<polygon fill="#191970" stroke="#191970" points="614.7515,-154.2111 623.4052,-148.0985 612.8284,-147.4805 614.7515,-154.2111"/>
</g>
<!-- Node7 -->
<g id="node8" class="node">
<title>Node7</title>
<g id="a_node8"><a xlink:href="../../de/d0c/GeometryTransformer_8h.html" target="_top" xlink:title="Geometry transformer for MID. ">
<polygon fill="none" stroke="#000000" points="736,-129 736,-148 914,-148 914,-129 736,-129"/>
<text text-anchor="middle" x="825" y="-136" font-family="Helvetica,sans-Serif" font-size="10.00" fill="#000000">MIDBase/GeometryTransformer.h</text>
</a>
</g>
</g>
<!-- Node0&#45;&gt;Node7 -->
<g id="edge7" class="edge">
<title>Node0&#45;&gt;Node7</title>
<path fill="none" stroke="#191970" d="M458.8096,-203.2684C543.7656,-188.2421 680.9487,-163.9785 761.0955,-149.8028"/>
<polygon fill="#191970" stroke="#191970" points="761.82,-153.2291 771.0575,-148.0408 760.6007,-146.3361 761.82,-153.2291"/>
</g>
<!-- Node8 -->
<g id="node9" class="node">
<title>Node8</title>
<polygon fill="none" stroke="#bfbfbf" points="717,-6 717,-25 759,-25 759,-6 717,-6"/>
<text text-anchor="middle" x="738" y="-13" font-family="Helvetica,sans-Serif" font-size="10.00" fill="#000000">array</text>
</g>
<!-- Node7&#45;&gt;Node8 -->
<g id="edge8" class="edge">
<title>Node7&#45;&gt;Node8</title>
<path fill="none" stroke="#191970" d="M789.0138,-128.8314C768.1193,-121.1651 743.5188,-108.1332 731,-87 721.5999,-71.1315 725.3951,-49.7384 730.2779,-34.498"/>
<polygon fill="#191970" stroke="#191970" points="733.5767,-35.6677 733.6833,-25.0734 726.9933,-33.2888 733.5767,-35.6677"/>
</g>
<!-- Node9 -->
<g id="node10" class="node">
<title>Node9</title>
<g id="a_node10"><a xlink:href="../../dc/de4/DetectorParameters_8h.html" target="_top" xlink:title="Useful detector parameters for MID. ">
<polygon fill="none" stroke="#000000" points="740.5,-67.5 740.5,-86.5 909.5,-86.5 909.5,-67.5 740.5,-67.5"/>
<text text-anchor="middle" x="825" y="-74.5" font-family="Helvetica,sans-Serif" font-size="10.00" fill="#000000">MIDBase/DetectorParameters.h</text>
</a>
</g>
</g>
<!-- Node7&#45;&gt;Node9 -->
<g id="edge9" class="edge">
<title>Node7&#45;&gt;Node9</title>
<path fill="none" stroke="#191970" d="M825,-128.8906C825,-120.3657 825,-107.6392 825,-96.9235"/>
<polygon fill="#191970" stroke="#191970" points="828.5001,-96.7448 825,-86.7449 821.5001,-96.7449 828.5001,-96.7448"/>
</g>
<!-- Node11 -->
<g id="node12" class="node">
<title>Node11</title>
<g id="a_node12"><a xlink:href="../../dc/d73/Cartesian_8h.html" target="_top" xlink:title="MathUtils/Cartesian.h">
<polygon fill="none" stroke="#000000" points="1632,-67.5 1632,-86.5 1754,-86.5 1754,-67.5 1632,-67.5"/>
<text text-anchor="middle" x="1693" y="-74.5" font-family="Helvetica,sans-Serif" font-size="10.00" fill="#000000">MathUtils/Cartesian.h</text>
</a>
</g>
</g>
<!-- Node7&#45;&gt;Node11 -->
<g id="edge12" class="edge">
<title>Node7&#45;&gt;Node11</title>
<path fill="none" stroke="#191970" d="M914.2166,-132.1788C1087.0372,-119.934 1464.2716,-93.206 1621.7325,-82.0495"/>
<polygon fill="#191970" stroke="#191970" points="1622.0542,-85.5356 1631.7818,-81.3375 1621.5594,-78.5531 1622.0542,-85.5356"/>
</g>
<!-- Node9&#45;&gt;Node8 -->
<g id="edge10" class="edge">
<title>Node9&#45;&gt;Node8</title>
<path fill="none" stroke="#191970" d="M811.4063,-67.3906C797.6157,-57.6421 776.0528,-42.3994 759.859,-30.9521"/>
<polygon fill="#191970" stroke="#191970" points="761.6844,-27.9563 751.4983,-25.0419 757.6437,-33.6723 761.6844,-27.9563"/>
</g>
<!-- Node10 -->
<g id="node11" class="node">
<title>Node10</title>
<polygon fill="none" stroke="#bfbfbf" points="790,-6 790,-25 834,-25 834,-6 790,-6"/>
<text text-anchor="middle" x="812" y="-13" font-family="Helvetica,sans-Serif" font-size="10.00" fill="#000000">string</text>
</g>
<!-- Node9&#45;&gt;Node10 -->
<g id="edge11" class="edge">
<title>Node9&#45;&gt;Node10</title>
<path fill="none" stroke="#191970" d="M822.9688,-67.3906C821.1478,-58.776 818.4198,-45.8708 816.1401,-35.0858"/>
<polygon fill="#191970" stroke="#191970" points="819.5524,-34.3048 814.0599,-25.2449 812.7038,-35.7525 819.5524,-34.3048"/>
</g>
<!-- Node12 -->
<g id="node13" class="node">
<title>Node12</title>
<polygon fill="none" stroke="#bfbfbf" points="852,-.5 852,-30.5 1016,-30.5 1016,-.5 852,-.5"/>
<text text-anchor="start" x="860" y="-18.5" font-family="Helvetica,sans-Serif" font-size="10.00" fill="#000000">Math/GenVector/Displacement</text>
<text text-anchor="middle" x="934" y="-7.5" font-family="Helvetica,sans-Serif" font-size="10.00" fill="#000000">Vector3D.h</text>
</g>
<!-- Node11&#45;&gt;Node12 -->
<g id="edge13" class="edge">
<title>Node11&#45;&gt;Node12</title>
<path fill="none" stroke="#191970" d="M1631.5626,-74.8241C1515.3593,-70.2605 1255.2537,-57.9103 1026.4685,-31.1002"/>
<polygon fill="#191970" stroke="#191970" points="1026.6285,-27.5948 1016.2863,-29.8949 1025.8055,-34.5462 1026.6285,-27.5948"/>
</g>
<!-- Node13 -->
<g id="node14" class="node">
<title>Node13</title>
<polygon fill="none" stroke="#bfbfbf" points="1034.5,-6 1034.5,-25 1223.5,-25 1223.5,-6 1034.5,-6"/>
<text text-anchor="middle" x="1129" y="-13" font-family="Helvetica,sans-Serif" font-size="10.00" fill="#000000">Math/GenVector/PositionVector3D.h</text>
</g>
<!-- Node11&#45;&gt;Node13 -->
<g id="edge14" class="edge">
<title>Node11&#45;&gt;Node13</title>
<path fill="none" stroke="#191970" d="M1631.8801,-71.8339C1543.6587,-64.1624 1375.5647,-48.7415 1233,-31 1222.1818,-29.6537 1210.7514,-28.0921 1199.5831,-26.4888"/>
<polygon fill="#191970" stroke="#191970" points="1199.8253,-22.9872 1189.4253,-25.0097 1198.8166,-29.9142 1199.8253,-22.9872"/>
</g>
<!-- Node14 -->
<g id="node15" class="node">
<title>Node14</title>
<polygon fill="none" stroke="#bfbfbf" points="1242,-6 1242,-25 1402,-25 1402,-6 1242,-6"/>
<text text-anchor="middle" x="1322" y="-13" font-family="Helvetica,sans-Serif" font-size="10.00" fill="#000000">Math/GenVector/Rotation3D.h</text>
</g>
<!-- Node11&#45;&gt;Node14 -->
<g id="edge15" class="edge">
<title>Node11&#45;&gt;Node14</title>
<path fill="none" stroke="#191970" d="M1633.553,-67.4929C1576.4612,-58.3176 1487.7962,-43.9504 1411,-31 1402.9736,-29.6465 1394.5438,-28.2047 1386.2039,-26.7661"/>
<polygon fill="#191970" stroke="#191970" points="1386.5594,-23.2757 1376.109,-25.0191 1385.3657,-30.1732 1386.5594,-23.2757"/>
</g>
<!-- Node15 -->
<g id="node16" class="node">
<title>Node15</title>
<polygon fill="none" stroke="#bfbfbf" points="1420,-6 1420,-25 1588,-25 1588,-6 1420,-6"/>
<text text-anchor="middle" x="1504" y="-13" font-family="Helvetica,sans-Serif" font-size="10.00" fill="#000000">Math/GenVector/Transform3D.h</text>
</g>
<!-- Node11&#45;&gt;Node15 -->
<g id="edge16" class="edge">
<title>Node11&#45;&gt;Node15</title>
<path fill="none" stroke="#191970" d="M1663.4688,-67.3906C1631.0134,-56.8298 1578.7419,-39.8208 1542.9514,-28.1747"/>
<polygon fill="#191970" stroke="#191970" points="1543.9161,-24.808 1533.3239,-25.0419 1541.7501,-31.4645 1543.9161,-24.808"/>
</g>
<!-- Node16 -->
<g id="node17" class="node">
<title>Node16</title>
<polygon fill="none" stroke="#bfbfbf" points="1606.5,-6 1606.5,-25 1779.5,-25 1779.5,-6 1606.5,-6"/>
<text text-anchor="middle" x="1693" y="-13" font-family="Helvetica,sans-Serif" font-size="10.00" fill="#000000">Math/GenVector/Translation3D.h</text>
</g>
<!-- Node11&#45;&gt;Node16 -->
<g id="edge17" class="edge">
<title>Node11&#45;&gt;Node16</title>
<path fill="none" stroke="#191970" d="M1693,-67.3906C1693,-58.8657 1693,-46.1392 1693,-35.4235"/>
<polygon fill="#191970" stroke="#191970" points="1696.5001,-35.2448 1693,-25.2449 1689.5001,-35.2449 1696.5001,-35.2448"/>
</g>
<!-- Node17 -->
<g id="node18" class="node">
<title>Node17</title>
<polygon fill="none" stroke="#bfbfbf" points="1798,-.5 1798,-30.5 1962,-30.5 1962,-.5 1798,-.5"/>
<text text-anchor="start" x="1806" y="-18.5" font-family="Helvetica,sans-Serif" font-size="10.00" fill="#000000">Math/GenVector/Displacement</text>
<text text-anchor="middle" x="1880" y="-7.5" font-family="Helvetica,sans-Serif" font-size="10.00" fill="#000000">Vector2D.h</text>
</g>
<!-- Node11&#45;&gt;Node17 -->
<g id="edge18" class="edge">
<title>Node11&#45;&gt;Node17</title>
<path fill="none" stroke="#191970" d="M1722.2188,-67.3906C1749.5188,-58.4123 1790.9895,-44.7735 1824.564,-33.7316"/>
<polygon fill="#191970" stroke="#191970" points="1825.8487,-36.9936 1834.2547,-30.5446 1823.6617,-30.344 1825.8487,-36.9936"/>
</g>
<!-- Node18 -->
<g id="node19" class="node">
<title>Node18</title>
<polygon fill="none" stroke="#bfbfbf" points="1980.5,-6 1980.5,-25 2169.5,-25 2169.5,-6 1980.5,-6"/>
<text text-anchor="middle" x="2075" y="-13" font-family="Helvetica,sans-Serif" font-size="10.00" fill="#000000">Math/GenVector/PositionVector2D.h</text>
</g>
<!-- Node11&#45;&gt;Node18 -->
<g id="edge19" class="edge">
<title>Node11&#45;&gt;Node18</title>
<path fill="none" stroke="#191970" d="M1752.2684,-67.4581C1820.8197,-56.4217 1933.5116,-38.2789 2005.96,-26.6151"/>
<polygon fill="#191970" stroke="#191970" points="2006.5904,-30.0587 2015.9069,-25.0137 2005.4777,-23.1477 2006.5904,-30.0587"/>
</g>
<!-- Node19 -->
<g id="node20" class="node">
<title>Node19</title>
<polygon fill="none" stroke="#bfbfbf" points="2187.5,-6 2187.5,-25 2246.5,-25 2246.5,-6 2187.5,-6"/>
<text text-anchor="middle" x="2217" y="-13" font-family="Helvetica,sans-Serif" font-size="10.00" fill="#000000">Rtypes.h</text>
</g>
<!-- Node11&#45;&gt;Node19 -->
<g id="edge20" class="edge">
<title>Node11&#45;&gt;Node19</title>
<path fill="none" stroke="#191970" d="M1754.1224,-73.4511C1866.118,-66.5778 2099.9861,-50.4057 2179,-31 2181.6337,-30.3532 2184.3242,-29.5561 2186.9965,-28.6676"/>
<polygon fill="#191970" stroke="#191970" points="2188.3027,-31.9162 2196.4602,-25.1555 2185.8672,-25.3535 2188.3027,-31.9162"/>
</g>
<!-- Node20 -->
<g id="node21" class="node">
<title>Node20</title>
<polygon fill="none" stroke="#bfbfbf" points="2265,-6 2265,-25 2347,-25 2347,-6 2265,-6"/>
<text text-anchor="middle" x="2306" y="-13" font-family="Helvetica,sans-Serif" font-size="10.00" fill="#000000">TGeoMatrix.h</text>
</g>
<!-- Node11&#45;&gt;Node20 -->
<g id="edge21" class="edge">
<title>Node11&#45;&gt;Node20</title>
<path fill="none" stroke="#191970" d="M1754.2931,-73.6926C1879.6044,-66.6518 2161.2805,-49.3211 2256,-31 2260.3847,-30.1519 2264.9284,-29.0583 2269.4085,-27.8446"/>
<polygon fill="#191970" stroke="#191970" points="2270.4047,-31.2 2279.0282,-25.0447 2268.4485,-24.4789 2270.4047,-31.2"/>
</g>
<!-- Node21 -->
<g id="node22" class="node">
<title>Node21</title>
<polygon fill="none" stroke="#bfbfbf" points="2365.5,-6 2365.5,-25 2414.5,-25 2414.5,-6 2365.5,-6"/>
<text text-anchor="middle" x="2390" y="-13" font-family="Helvetica,sans-Serif" font-size="10.00" fill="#000000">iosfwd</text>
</g>
<!-- Node11&#45;&gt;Node21 -->
<g id="edge22" class="edge">
<title>Node11&#45;&gt;Node21</title>
<path fill="none" stroke="#191970" d="M1754.2399,-75.542C1895.9803,-71.7174 2243.115,-59.6443 2356,-31 2358.1969,-30.4426 2360.4273,-29.7486 2362.6414,-28.9657"/>
<polygon fill="#191970" stroke="#191970" points="2364.15,-32.1304 2372.0871,-25.1123 2361.5058,-25.6489 2364.15,-32.1304"/>
</g>
</g>
</svg>
