<?xml version="1.0" encoding="UTF-8" standalone="no"?>
<!DOCTYPE svg PUBLIC "-//W3C//DTD SVG 1.1//EN"
 "http://www.w3.org/Graphics/SVG/1.1/DTD/svg11.dtd">
<!-- Generated by graphviz version 2.40.1 (20161225.0304)
 -->
<!-- Title: /home/travis/build/AliceO2Group/AliceO2/Detectors/ITSMFT/test/HitAnalysis/include/HitAnalysis/HitAnalysis.h Pages: 1 -->
<svg width="2098pt" height="318pt"
 viewBox="0.00 0.00 2097.50 318.00" xmlns="http://www.w3.org/2000/svg" xmlns:xlink="http://www.w3.org/1999/xlink">
<g id="graph0" class="graph" transform="scale(1 1) rotate(0) translate(4 314)">
<title>/home/travis/build/AliceO2Group/AliceO2/Detectors/ITSMFT/test/HitAnalysis/include/HitAnalysis/HitAnalysis.h</title>
<!-- Node0 -->
<g id="node1" class="node">
<title>Node0</title>
<polygon fill="#bfbfbf" stroke="#000000" points="607.5,-246.5 607.5,-309.5 779.5,-309.5 779.5,-246.5 607.5,-246.5"/>
<text text-anchor="start" x="615.5" y="-297.5" font-family="Helvetica,sans-Serif" font-size="10.00" fill="#000000">/home/travis/build</text>
<text text-anchor="start" x="615.5" y="-286.5" font-family="Helvetica,sans-Serif" font-size="10.00" fill="#000000">/AliceO2Group/AliceO2</text>
<text text-anchor="start" x="615.5" y="-275.5" font-family="Helvetica,sans-Serif" font-size="10.00" fill="#000000">/Detectors/ITSMFT/test</text>
<text text-anchor="start" x="615.5" y="-264.5" font-family="Helvetica,sans-Serif" font-size="10.00" fill="#000000">/HitAnalysis/include/HitAnalysis</text>
<text text-anchor="middle" x="693.5" y="-253.5" font-family="Helvetica,sans-Serif" font-size="10.00" fill="#000000">/HitAnalysis.h</text>
</g>
<!-- Node1 -->
<g id="node2" class="node">
<title>Node1</title>
<polygon fill="none" stroke="#bfbfbf" points="543.5,-190.5 543.5,-209.5 581.5,-209.5 581.5,-190.5 543.5,-190.5"/>
<text text-anchor="middle" x="562.5" y="-197.5" font-family="Helvetica,sans-Serif" font-size="10.00" fill="#000000">map</text>
</g>
<!-- Node0&#45;&gt;Node1 -->
<g id="edge1" class="edge">
<title>Node0&#45;&gt;Node1</title>
<path fill="none" stroke="#191970" d="M640.5949,-246.4992C622.13,-235.5049 602.2773,-223.6842 587.2092,-214.7124"/>
<polygon fill="#191970" stroke="#191970" points="588.8836,-211.6359 578.5007,-209.5271 585.3023,-217.6505 588.8836,-211.6359"/>
</g>
<!-- Node2 -->
<g id="node3" class="node">
<title>Node2</title>
<polygon fill="none" stroke="#bfbfbf" points="600,-190.5 600,-209.5 665,-209.5 665,-190.5 600,-190.5"/>
<text text-anchor="middle" x="632.5" y="-197.5" font-family="Helvetica,sans-Serif" font-size="10.00" fill="#000000">FairTask.h</text>
</g>
<!-- Node0&#45;&gt;Node2 -->
<g id="edge2" class="edge">
<title>Node0&#45;&gt;Node2</title>
<path fill="none" stroke="#191970" d="M668.689,-246.2744C661.0509,-236.5078 652.9194,-226.1101 646.3031,-217.6499"/>
<polygon fill="#191970" stroke="#191970" points="648.9584,-215.3636 640.041,-209.6426 643.4444,-219.6759 648.9584,-215.3636"/>
</g>
<!-- Node3 -->
<g id="node4" class="node">
<title>Node3</title>
<polygon fill="none" stroke="#bfbfbf" points="0,-6 0,-25 59,-25 59,-6 0,-6"/>
<text text-anchor="middle" x="29.5" y="-13" font-family="Helvetica,sans-Serif" font-size="10.00" fill="#000000">Rtypes.h</text>
</g>
<!-- Node0&#45;&gt;Node3 -->
<g id="edge3" class="edge">
<title>Node0&#45;&gt;Node3</title>
<path fill="none" stroke="#191970" d="M694.0565,-246.0995C692.6703,-227.4516 687.7676,-204.754 673.5,-190 480.2328,9.8569 332.6114,-117.8343 68.5,-31 66.363,-30.2974 64.1742,-29.5388 61.9771,-28.748"/>
<polygon fill="#191970" stroke="#191970" points="63.0191,-25.4004 52.4272,-25.1478 60.5497,-31.9504 63.0191,-25.4004"/>
</g>
<!-- Node4 -->
<g id="node5" class="node">
<title>Node4</title>
<g id="a_node5"><a xlink:href="../../d9/d4e/Detectors_2ITSMFT_2common_2simulation_2include_2ITSMFTSimulation_2Hit_8h.html" target="_top" xlink:title="ITSMFTSimulation/Hit.h">
<polygon fill="none" stroke="#000000" points="758.5,-190.5 758.5,-209.5 888.5,-209.5 888.5,-190.5 758.5,-190.5"/>
<text text-anchor="middle" x="823.5" y="-197.5" font-family="Helvetica,sans-Serif" font-size="10.00" fill="#000000">ITSMFTSimulation/Hit.h</text>
</a>
</g>
</g>
<!-- Node0&#45;&gt;Node4 -->
<g id="edge4" class="edge">
<title>Node0&#45;&gt;Node4</title>
<path fill="none" stroke="#191970" d="M746.0013,-246.4992C764.3252,-235.5049 784.0264,-223.6842 798.9794,-214.7124"/>
<polygon fill="#191970" stroke="#191970" points="800.8472,-217.6734 807.6214,-209.5271 797.2457,-211.6709 800.8472,-217.6734"/>
</g>
<!-- Node25 -->
<g id="node26" class="node">
<title>Node25</title>
<polygon fill="none" stroke="#bfbfbf" points="907,-190.5 907,-209.5 954,-209.5 954,-190.5 907,-190.5"/>
<text text-anchor="middle" x="930.5" y="-197.5" font-family="Helvetica,sans-Serif" font-size="10.00" fill="#000000">vector</text>
</g>
<!-- Node0&#45;&gt;Node25 -->
<g id="edge28" class="edge">
<title>Node0&#45;&gt;Node25</title>
<path fill="none" stroke="#191970" d="M779.7329,-249.6196C820.519,-236.1963 866.8255,-220.9562 897.2319,-210.949"/>
<polygon fill="#191970" stroke="#191970" points="898.4985,-214.2169 906.9031,-207.7661 896.3101,-207.5677 898.4985,-214.2169"/>
</g>
<!-- Node4&#45;&gt;Node3 -->
<g id="edge17" class="edge">
<title>Node4&#45;&gt;Node3</title>
<path fill="none" stroke="#191970" d="M802.1031,-190.4889C786.2376,-182.572 764.9457,-170.0198 750.5,-154 721.6156,-121.9682 743.4828,-90.782 707.5,-67 648.174,-27.7899 137.9405,-46.3305 68.5,-31 65.6319,-30.3668 62.7,-29.5487 59.7955,-28.6196"/>
<polygon fill="#191970" stroke="#191970" points="60.753,-25.2442 50.1587,-25.1405 58.376,-31.8283 60.753,-25.2442"/>
</g>
<!-- Node5 -->
<g id="node6" class="node">
<title>Node5</title>
<g id="a_node6"><a xlink:href="../../d4/d25/BaseHits_8h.html" target="_top" xlink:title="SimulationDataFormat\l/BaseHits.h">
<polygon fill="none" stroke="#000000" points="760,-123.5 760,-153.5 887,-153.5 887,-123.5 760,-123.5"/>
<text text-anchor="start" x="768" y="-141.5" font-family="Helvetica,sans-Serif" font-size="10.00" fill="#000000">SimulationDataFormat</text>
<text text-anchor="middle" x="823.5" y="-130.5" font-family="Helvetica,sans-Serif" font-size="10.00" fill="#000000">/BaseHits.h</text>
</a>
</g>
</g>
<!-- Node4&#45;&gt;Node5 -->
<g id="edge5" class="edge">
<title>Node4&#45;&gt;Node5</title>
<path fill="none" stroke="#191970" d="M823.5,-190.3906C823.5,-183.2234 823.5,-173.0862 823.5,-163.671"/>
<polygon fill="#191970" stroke="#191970" points="827.0001,-163.5446 823.5,-153.5446 820.0001,-163.5446 827.0001,-163.5446"/>
</g>
<!-- Node15 -->
<g id="node16" class="node">
<title>Node15</title>
<polygon fill="none" stroke="#bfbfbf" points="1514,-6 1514,-25 1563,-25 1563,-6 1514,-6"/>
<text text-anchor="middle" x="1538.5" y="-13" font-family="Helvetica,sans-Serif" font-size="10.00" fill="#000000">iosfwd</text>
</g>
<!-- Node4&#45;&gt;Node15 -->
<g id="edge19" class="edge">
<title>Node4&#45;&gt;Node15</title>
<path fill="none" stroke="#191970" d="M839.5407,-190.4081C854.3408,-181.4053 876.7884,-167.3602 895.5,-154 913.5201,-141.1335 914.2447,-131.944 934.5,-123 1169.2454,-19.3454 1258.8897,-105.3321 1504.5,-31 1506.4093,-30.4222 1508.3505,-29.7595 1510.2883,-29.0407"/>
<polygon fill="#191970" stroke="#191970" points="1511.8837,-32.1685 1519.7868,-25.1123 1509.2083,-25.6999 1511.8837,-32.1685"/>
</g>
<!-- Node16 -->
<g id="node17" class="node">
<title>Node16</title>
<polygon fill="none" stroke="#bfbfbf" points="943.5,-129 943.5,-148 1011.5,-148 1011.5,-129 943.5,-129"/>
<text text-anchor="middle" x="977.5" y="-136" font-family="Helvetica,sans-Serif" font-size="10.00" fill="#000000">TVector3.h</text>
</g>
<!-- Node4&#45;&gt;Node16 -->
<g id="edge18" class="edge">
<title>Node4&#45;&gt;Node16</title>
<path fill="none" stroke="#191970" d="M847.5625,-190.3906C873.5556,-180.0103 915.1478,-163.4004 944.2547,-151.7766"/>
<polygon fill="#191970" stroke="#191970" points="945.6177,-155.0011 953.6065,-148.0419 943.0215,-148.5003 945.6177,-155.0011"/>
</g>
<!-- Node17 -->
<g id="node18" class="node">
<title>Node17</title>
<g id="a_node18"><a xlink:href="../../d0/d91/ShmAllocator_8h.html" target="_top" xlink:title="CommonUtils/ShmAllocator.h">
<polygon fill="none" stroke="#000000" points="1613.5,-129 1613.5,-148 1773.5,-148 1773.5,-129 1613.5,-129"/>
<text text-anchor="middle" x="1693.5" y="-136" font-family="Helvetica,sans-Serif" font-size="10.00" fill="#000000">CommonUtils/ShmAllocator.h</text>
</a>
</g>
</g>
<!-- Node4&#45;&gt;Node17 -->
<g id="edge20" class="edge">
<title>Node4&#45;&gt;Node17</title>
<path fill="none" stroke="#191970" d="M888.8409,-190.9187C891.7653,-190.5916 894.662,-190.2832 897.5,-190 1152.6769,-164.5348 1455.1923,-148.9632 1603.0385,-142.2966"/>
<polygon fill="#191970" stroke="#191970" points="1603.58,-145.776 1613.4134,-141.832 1603.2668,-138.783 1603.58,-145.776"/>
</g>
<!-- Node6 -->
<g id="node7" class="node">
<title>Node6</title>
<g id="a_node7"><a xlink:href="../../dc/d73/Cartesian_8h.html" target="_top" xlink:title="MathUtils/Cartesian.h">
<polygon fill="none" stroke="#000000" points="762.5,-67.5 762.5,-86.5 884.5,-86.5 884.5,-67.5 762.5,-67.5"/>
<text text-anchor="middle" x="823.5" y="-74.5" font-family="Helvetica,sans-Serif" font-size="10.00" fill="#000000">MathUtils/Cartesian.h</text>
</a>
</g>
</g>
<!-- Node5&#45;&gt;Node6 -->
<g id="edge6" class="edge">
<title>Node5&#45;&gt;Node6</title>
<path fill="none" stroke="#191970" d="M823.5,-123.2977C823.5,-115.3834 823.5,-105.6043 823.5,-97.0759"/>
<polygon fill="#191970" stroke="#191970" points="827.0001,-96.8469 823.5,-86.8469 820.0001,-96.847 827.0001,-96.8469"/>
</g>
<!-- Node6&#45;&gt;Node3 -->
<g id="edge14" class="edge">
<title>Node6&#45;&gt;Node3</title>
<path fill="none" stroke="#191970" d="M762.2335,-68.7081C756.5822,-68.0753 750.9387,-67.4926 745.5,-67 445.4141,-39.823 362.831,-95.4935 68.5,-31 65.6309,-30.3713 62.6983,-29.5563 59.7934,-28.6292"/>
<polygon fill="#191970" stroke="#191970" points="60.7502,-25.2537 50.1559,-25.1533 58.3753,-31.8385 60.7502,-25.2537"/>
</g>
<!-- Node7 -->
<g id="node8" class="node">
<title>Node7</title>
<polygon fill="none" stroke="#bfbfbf" points="77.5,-.5 77.5,-30.5 241.5,-30.5 241.5,-.5 77.5,-.5"/>
<text text-anchor="start" x="85.5" y="-18.5" font-family="Helvetica,sans-Serif" font-size="10.00" fill="#000000">Math/GenVector/Displacement</text>
<text text-anchor="middle" x="159.5" y="-7.5" font-family="Helvetica,sans-Serif" font-size="10.00" fill="#000000">Vector3D.h</text>
</g>
<!-- Node6&#45;&gt;Node7 -->
<g id="edge7" class="edge">
<title>Node6&#45;&gt;Node7</title>
<path fill="none" stroke="#191970" d="M762.2228,-68.8211C756.5736,-68.1646 750.9337,-67.5455 745.5,-67 529.3443,-45.3002 471.2266,-57.1767 252.011,-31.1096"/>
<polygon fill="#191970" stroke="#191970" points="252.1344,-27.5993 241.7881,-29.8806 251.2988,-34.5493 252.1344,-27.5993"/>
</g>
<!-- Node8 -->
<g id="node9" class="node">
<title>Node8</title>
<polygon fill="none" stroke="#bfbfbf" points="260,-6 260,-25 449,-25 449,-6 260,-6"/>
<text text-anchor="middle" x="354.5" y="-13" font-family="Helvetica,sans-Serif" font-size="10.00" fill="#000000">Math/GenVector/PositionVector3D.h</text>
</g>
<!-- Node6&#45;&gt;Node8 -->
<g id="edge8" class="edge">
<title>Node6&#45;&gt;Node8</title>
<path fill="none" stroke="#191970" d="M762.1884,-69.1235C756.5465,-68.4036 750.9176,-67.6871 745.5,-67 617.9664,-50.8262 585.8617,-48.4763 458.5,-31 448.2895,-29.5989 437.5244,-28.062 426.9459,-26.5172"/>
<polygon fill="#191970" stroke="#191970" points="427.2879,-23.0299 416.8851,-25.0379 426.2695,-29.9555 427.2879,-23.0299"/>
</g>
<!-- Node9 -->
<g id="node10" class="node">
<title>Node9</title>
<polygon fill="none" stroke="#bfbfbf" points="467.5,-6 467.5,-25 627.5,-25 627.5,-6 467.5,-6"/>
<text text-anchor="middle" x="547.5" y="-13" font-family="Helvetica,sans-Serif" font-size="10.00" fill="#000000">Math/GenVector/Rotation3D.h</text>
</g>
<!-- Node6&#45;&gt;Node9 -->
<g id="edge9" class="edge">
<title>Node6&#45;&gt;Node9</title>
<path fill="none" stroke="#191970" d="M780.6778,-67.4581C732.03,-56.6181 652.615,-38.9224 600.2042,-27.2439"/>
<polygon fill="#191970" stroke="#191970" points="600.9445,-23.8231 590.4226,-25.0643 599.422,-30.6555 600.9445,-23.8231"/>
</g>
<!-- Node10 -->
<g id="node11" class="node">
<title>Node10</title>
<polygon fill="none" stroke="#bfbfbf" points="645.5,-6 645.5,-25 813.5,-25 813.5,-6 645.5,-6"/>
<text text-anchor="middle" x="729.5" y="-13" font-family="Helvetica,sans-Serif" font-size="10.00" fill="#000000">Math/GenVector/Transform3D.h</text>
</g>
<!-- Node6&#45;&gt;Node10 -->
<g id="edge10" class="edge">
<title>Node6&#45;&gt;Node10</title>
<path fill="none" stroke="#191970" d="M808.8125,-67.3906C793.7744,-57.5519 770.1824,-42.1167 752.6333,-30.6351"/>
<polygon fill="#191970" stroke="#191970" points="754.3687,-27.588 744.0844,-25.0419 750.5363,-33.4457 754.3687,-27.588"/>
</g>
<!-- Node11 -->
<g id="node12" class="node">
<title>Node11</title>
<polygon fill="none" stroke="#bfbfbf" points="832,-6 832,-25 1005,-25 1005,-6 832,-6"/>
<text text-anchor="middle" x="918.5" y="-13" font-family="Helvetica,sans-Serif" font-size="10.00" fill="#000000">Math/GenVector/Translation3D.h</text>
</g>
<!-- Node6&#45;&gt;Node11 -->
<g id="edge11" class="edge">
<title>Node6&#45;&gt;Node11</title>
<path fill="none" stroke="#191970" d="M838.3438,-67.3906C853.5418,-57.5519 877.3848,-42.1167 895.1206,-30.6351"/>
<polygon fill="#191970" stroke="#191970" points="897.268,-33.4144 903.7605,-25.0419 893.4639,-27.5382 897.268,-33.4144"/>
</g>
<!-- Node12 -->
<g id="node13" class="node">
<title>Node12</title>
<polygon fill="none" stroke="#bfbfbf" points="1023.5,-.5 1023.5,-30.5 1187.5,-30.5 1187.5,-.5 1023.5,-.5"/>
<text text-anchor="start" x="1031.5" y="-18.5" font-family="Helvetica,sans-Serif" font-size="10.00" fill="#000000">Math/GenVector/Displacement</text>
<text text-anchor="middle" x="1105.5" y="-7.5" font-family="Helvetica,sans-Serif" font-size="10.00" fill="#000000">Vector2D.h</text>
</g>
<!-- Node6&#45;&gt;Node12 -->
<g id="edge12" class="edge">
<title>Node6&#45;&gt;Node12</title>
<path fill="none" stroke="#191970" d="M867.2531,-67.4581C909.7643,-58.187 975.2701,-43.9012 1026.843,-32.6539"/>
<polygon fill="#191970" stroke="#191970" points="1027.6064,-36.0698 1036.631,-30.5193 1026.1148,-29.2305 1027.6064,-36.0698"/>
</g>
<!-- Node13 -->
<g id="node14" class="node">
<title>Node13</title>
<polygon fill="none" stroke="#bfbfbf" points="1206,-6 1206,-25 1395,-25 1395,-6 1206,-6"/>
<text text-anchor="middle" x="1300.5" y="-13" font-family="Helvetica,sans-Serif" font-size="10.00" fill="#000000">Math/GenVector/PositionVector2D.h</text>
</g>
<!-- Node6&#45;&gt;Node13 -->
<g id="edge13" class="edge">
<title>Node6&#45;&gt;Node13</title>
<path fill="none" stroke="#191970" d="M884.8091,-69.1041C890.4516,-68.3882 896.0812,-67.678 901.5,-67 1032.5619,-50.6018 1065.6125,-48.7368 1196.5,-31 1206.7814,-29.6067 1217.6238,-28.0681 1228.2713,-26.5174"/>
<polygon fill="#191970" stroke="#191970" points="1229.0098,-29.9466 1238.3954,-25.0312 1227.993,-23.0208 1229.0098,-29.9466"/>
</g>
<!-- Node14 -->
<g id="node15" class="node">
<title>Node14</title>
<polygon fill="none" stroke="#bfbfbf" points="1413.5,-6 1413.5,-25 1495.5,-25 1495.5,-6 1413.5,-6"/>
<text text-anchor="middle" x="1454.5" y="-13" font-family="Helvetica,sans-Serif" font-size="10.00" fill="#000000">TGeoMatrix.h</text>
</g>
<!-- Node6&#45;&gt;Node14 -->
<g id="edge15" class="edge">
<title>Node6&#45;&gt;Node14</title>
<path fill="none" stroke="#191970" d="M884.7767,-68.8153C890.4259,-68.16 896.066,-67.5427 901.5,-67 1124.0766,-44.769 1183.564,-71.7766 1403.5,-31 1408.0239,-30.1613 1412.7143,-29.0637 1417.3358,-27.8394"/>
<polygon fill="#191970" stroke="#191970" points="1418.597,-31.1193 1427.2518,-25.0082 1416.6751,-24.3882 1418.597,-31.1193"/>
</g>
<!-- Node6&#45;&gt;Node15 -->
<g id="edge16" class="edge">
<title>Node6&#45;&gt;Node15</title>
<path fill="none" stroke="#191970" d="M884.7699,-68.7459C890.4206,-68.1052 896.0629,-67.5102 901.5,-67 1168.8027,-41.9152 1243.9547,-95.7777 1504.5,-31 1506.6995,-30.4531 1508.9319,-29.7669 1511.1473,-28.9894"/>
<polygon fill="#191970" stroke="#191970" points="1512.6511,-32.1563 1520.5957,-25.1468 1510.0139,-25.672 1512.6511,-32.1563"/>
</g>
<!-- Node18 -->
<g id="node19" class="node">
<title>Node18</title>
<g id="a_node19"><a xlink:href="../../de/d61/ShmManager_8h.html" target="_top" xlink:title="CommonUtils/ShmManager.h">
<polygon fill="none" stroke="#000000" points="1614.5,-67.5 1614.5,-86.5 1772.5,-86.5 1772.5,-67.5 1614.5,-67.5"/>
<text text-anchor="middle" x="1693.5" y="-74.5" font-family="Helvetica,sans-Serif" font-size="10.00" fill="#000000">CommonUtils/ShmManager.h</text>
</a>
</g>
</g>
<!-- Node17&#45;&gt;Node18 -->
<g id="edge21" class="edge">
<title>Node17&#45;&gt;Node18</title>
<path fill="none" stroke="#191970" d="M1693.5,-128.8906C1693.5,-120.3657 1693.5,-107.6392 1693.5,-96.9235"/>
<polygon fill="#191970" stroke="#191970" points="1697.0001,-96.7448 1693.5,-86.7449 1690.0001,-96.7449 1697.0001,-96.7448"/>
</g>
<!-- Node24 -->
<g id="node25" class="node">
<title>Node24</title>
<polygon fill="none" stroke="#bfbfbf" points="1790.5,-67.5 1790.5,-86.5 1842.5,-86.5 1842.5,-67.5 1790.5,-67.5"/>
<text text-anchor="middle" x="1816.5" y="-74.5" font-family="Helvetica,sans-Serif" font-size="10.00" fill="#000000">cassert</text>
</g>
<!-- Node17&#45;&gt;Node24 -->
<g id="edge27" class="edge">
<title>Node17&#45;&gt;Node24</title>
<path fill="none" stroke="#191970" d="M1712.7188,-128.8906C1733.0281,-118.7359 1765.2607,-102.6196 1788.4168,-91.0416"/>
<polygon fill="#191970" stroke="#191970" points="1790.0372,-94.1446 1797.4162,-86.5419 1786.9067,-87.8836 1790.0372,-94.1446"/>
</g>
<!-- Node19 -->
<g id="node20" class="node">
<title>Node19</title>
<polygon fill="none" stroke="#bfbfbf" points="1581.5,-6 1581.5,-25 1613.5,-25 1613.5,-6 1581.5,-6"/>
<text text-anchor="middle" x="1597.5" y="-13" font-family="Helvetica,sans-Serif" font-size="10.00" fill="#000000">list</text>
</g>
<!-- Node18&#45;&gt;Node19 -->
<g id="edge22" class="edge">
<title>Node18&#45;&gt;Node19</title>
<path fill="none" stroke="#191970" d="M1678.5,-67.3906C1663.1419,-57.5519 1639.0479,-42.1167 1621.1255,-30.6351"/>
<polygon fill="#191970" stroke="#191970" points="1622.703,-27.4891 1612.3947,-25.0419 1618.927,-33.3833 1622.703,-27.4891"/>
</g>
<!-- Node20 -->
<g id="node21" class="node">
<title>Node20</title>
<polygon fill="none" stroke="#bfbfbf" points="1632,-6 1632,-25 1685,-25 1685,-6 1632,-6"/>
<text text-anchor="middle" x="1658.5" y="-13" font-family="Helvetica,sans-Serif" font-size="10.00" fill="#000000">cstddef</text>
</g>
<!-- Node18&#45;&gt;Node20 -->
<g id="edge23" class="edge">
<title>Node18&#45;&gt;Node20</title>
<path fill="none" stroke="#191970" d="M1688.0313,-67.3906C1682.9754,-58.5068 1675.3228,-45.0601 1669.0746,-34.0811"/>
<polygon fill="#191970" stroke="#191970" points="1672.034,-32.2048 1664.0459,-25.2449 1665.9502,-35.6672 1672.034,-32.2048"/>
</g>
<!-- Node21 -->
<g id="node22" class="node">
<title>Node21</title>
<polygon fill="none" stroke="#bfbfbf" points="1703.5,-6 1703.5,-25 1753.5,-25 1753.5,-6 1703.5,-6"/>
<text text-anchor="middle" x="1728.5" y="-13" font-family="Helvetica,sans-Serif" font-size="10.00" fill="#000000">atomic</text>
</g>
<!-- Node18&#45;&gt;Node21 -->
<g id="edge24" class="edge">
<title>Node18&#45;&gt;Node21</title>
<path fill="none" stroke="#191970" d="M1698.9688,-67.3906C1704.0246,-58.5068 1711.6772,-45.0601 1717.9254,-34.0811"/>
<polygon fill="#191970" stroke="#191970" points="1721.0498,-35.6672 1722.9541,-25.2449 1714.966,-32.2048 1721.0498,-35.6672"/>
</g>
<!-- Node22 -->
<g id="node23" class="node">
<title>Node22</title>
<polygon fill="none" stroke="#bfbfbf" points="1772,-.5 1772,-30.5 1937,-30.5 1937,-.5 1772,-.5"/>
<text text-anchor="start" x="1780" y="-18.5" font-family="Helvetica,sans-Serif" font-size="10.00" fill="#000000">boost/interprocess</text>
<text text-anchor="middle" x="1854.5" y="-7.5" font-family="Helvetica,sans-Serif" font-size="10.00" fill="#000000">/managed_external_buffer.hpp</text>
</g>
<!-- Node18&#45;&gt;Node22 -->
<g id="edge25" class="edge">
<title>Node18&#45;&gt;Node22</title>
<path fill="none" stroke="#191970" d="M1718.6563,-67.3906C1741.8579,-58.5279 1776.9479,-45.1239 1805.6518,-34.1594"/>
<polygon fill="#191970" stroke="#191970" points="1807.0223,-37.3826 1815.115,-30.5446 1804.5243,-30.8435 1807.0223,-37.3826"/>
</g>
<!-- Node23 -->
<g id="node24" class="node">
<title>Node23</title>
<polygon fill="none" stroke="#bfbfbf" points="1955.5,-.5 1955.5,-30.5 2089.5,-30.5 2089.5,-.5 1955.5,-.5"/>
<text text-anchor="start" x="1963.5" y="-18.5" font-family="Helvetica,sans-Serif" font-size="10.00" fill="#000000">boost/interprocess</text>
<text text-anchor="middle" x="2022.5" y="-7.5" font-family="Helvetica,sans-Serif" font-size="10.00" fill="#000000">/allocators/allocator.hpp</text>
</g>
<!-- Node18&#45;&gt;Node23 -->
<g id="edge26" class="edge">
<title>Node18&#45;&gt;Node23</title>
<path fill="none" stroke="#191970" d="M1747.8505,-67.4637C1796.9232,-58.7752 1871.379,-45.3991 1945.4118,-31.1888"/>
<polygon fill="#191970" stroke="#191970" points="1946.2207,-34.5974 1955.3787,-29.2701 1944.8973,-27.7236 1946.2207,-34.5974"/>
</g>
</g>
</svg>
