<?xml version="1.0" encoding="UTF-8" standalone="no"?>
<!DOCTYPE svg PUBLIC "-//W3C//DTD SVG 1.1//EN"
 "http://www.w3.org/Graphics/SVG/1.1/DTD/svg11.dtd">
<!-- Generated by graphviz version 2.40.1 (20161225.0304)
 -->
<!-- Title: /home/travis/build/AliceO2Group/AliceO2/Detectors/TPC/simulation/include/TPCSimulation/Detector.h Pages: 1 -->
<svg width="2917pt" height="307pt"
 viewBox="0.00 0.00 2917.00 307.00" xmlns="http://www.w3.org/2000/svg" xmlns:xlink="http://www.w3.org/1999/xlink">
<g id="graph0" class="graph" transform="scale(1 1) rotate(0) translate(4 303)">
<title>/home/travis/build/AliceO2Group/AliceO2/Detectors/TPC/simulation/include/TPCSimulation/Detector.h</title>
<!-- Node0 -->
<g id="node1" class="node">
<title>Node0</title>
<polygon fill="#bfbfbf" stroke="#000000" points="2278,-246.5 2278,-298.5 2460,-298.5 2460,-246.5 2278,-246.5"/>
<text text-anchor="start" x="2286" y="-286.5" font-family="Helvetica,sans-Serif" font-size="10.00" fill="#000000">/home/travis/build</text>
<text text-anchor="start" x="2286" y="-275.5" font-family="Helvetica,sans-Serif" font-size="10.00" fill="#000000">/AliceO2Group/AliceO2</text>
<text text-anchor="start" x="2286" y="-264.5" font-family="Helvetica,sans-Serif" font-size="10.00" fill="#000000">/Detectors/TPC/simulation</text>
<text text-anchor="middle" x="2369" y="-253.5" font-family="Helvetica,sans-Serif" font-size="10.00" fill="#000000">/include/TPCSimulation/Detector.h</text>
</g>
<!-- Node1 -->
<g id="node2" class="node">
<title>Node1</title>
<g id="a_node2"><a xlink:href="../../d1/d3a/Base_2include_2DetectorsBase_2Detector_8h.html" target="_top" xlink:title="DetectorsBase/Detector.h">
<polygon fill="none" stroke="#000000" points="1963.5,-190.5 1963.5,-209.5 2104.5,-209.5 2104.5,-190.5 1963.5,-190.5"/>
<text text-anchor="middle" x="2034" y="-197.5" font-family="Helvetica,sans-Serif" font-size="10.00" fill="#000000">DetectorsBase/Detector.h</text>
</a>
</g>
</g>
<!-- Node0&#45;&gt;Node1 -->
<g id="edge1" class="edge">
<title>Node0&#45;&gt;Node1</title>
<path fill="none" stroke="#191970" d="M2277.9023,-252.7848C2217.0526,-239.6159 2139.0822,-222.7417 2087.8903,-211.6628"/>
<polygon fill="#191970" stroke="#191970" points="2088.5361,-208.2216 2078.022,-209.5272 2087.0554,-215.0633 2088.5361,-208.2216"/>
</g>
<!-- Node9 -->
<g id="node10" class="node">
<title>Node9</title>
<polygon fill="none" stroke="#bfbfbf" points="2133.5,-6 2133.5,-25 2192.5,-25 2192.5,-6 2133.5,-6"/>
<text text-anchor="middle" x="2163" y="-13" font-family="Helvetica,sans-Serif" font-size="10.00" fill="#000000">Rtypes.h</text>
</g>
<!-- Node0&#45;&gt;Node9 -->
<g id="edge32" class="edge">
<title>Node0&#45;&gt;Node9</title>
<path fill="none" stroke="#191970" d="M2460.376,-262.423C2576.4657,-245.9847 2754.0591,-206.4712 2686,-123 2624.7131,-47.8347 2314.192,-23.7247 2202.8228,-17.4256"/>
<polygon fill="#191970" stroke="#191970" points="2202.8583,-13.9224 2192.6819,-16.8705 2202.4756,-20.9119 2202.8583,-13.9224"/>
</g>
<!-- Node27 -->
<g id="node28" class="node">
<title>Node27</title>
<polygon fill="none" stroke="#bfbfbf" points="2733,-190.5 2733,-209.5 2831,-209.5 2831,-190.5 2733,-190.5"/>
<text text-anchor="middle" x="2782" y="-197.5" font-family="Helvetica,sans-Serif" font-size="10.00" fill="#000000">TLorentzVector.h</text>
</g>
<!-- Node0&#45;&gt;Node27 -->
<g id="edge33" class="edge">
<title>Node0&#45;&gt;Node27</title>
<path fill="none" stroke="#191970" d="M2460.1459,-256.4998C2540.1315,-242.4588 2654.1141,-222.4497 2722.784,-210.3951"/>
<polygon fill="#191970" stroke="#191970" points="2723.7463,-213.7797 2732.9905,-208.6034 2722.5359,-206.8852 2723.7463,-213.7797"/>
</g>
<!-- Node28 -->
<g id="node29" class="node">
<title>Node28</title>
<polygon fill="none" stroke="#bfbfbf" points="2849,-190.5 2849,-209.5 2909,-209.5 2909,-190.5 2849,-190.5"/>
<text text-anchor="middle" x="2879" y="-197.5" font-family="Helvetica,sans-Serif" font-size="10.00" fill="#000000">TString.h</text>
</g>
<!-- Node0&#45;&gt;Node28 -->
<g id="edge34" class="edge">
<title>Node0&#45;&gt;Node28</title>
<path fill="none" stroke="#191970" d="M2460.2532,-263.6477C2553.2877,-253.8809 2701.8513,-236.2413 2838.9932,-210.013"/>
<polygon fill="#191970" stroke="#191970" points="2839.692,-213.4427 2848.8467,-208.1097 2838.3644,-206.5698 2839.692,-213.4427"/>
</g>
<!-- Node29 -->
<g id="node30" class="node">
<title>Node29</title>
<g id="a_node30"><a xlink:href="../../d4/de5/Point_8h.html" target="_top" xlink:title="Class for TPC Point. ">
<polygon fill="none" stroke="#000000" points="1248.5,-190.5 1248.5,-209.5 1373.5,-209.5 1373.5,-190.5 1248.5,-190.5"/>
<text text-anchor="middle" x="1311" y="-197.5" font-family="Helvetica,sans-Serif" font-size="10.00" fill="#000000">TPCSimulation/Point.h</text>
</a>
</g>
</g>
<!-- Node0&#45;&gt;Node29 -->
<g id="edge35" class="edge">
<title>Node0&#45;&gt;Node29</title>
<path fill="none" stroke="#191970" d="M2277.8798,-266.2559C2071.4105,-252.1075 1571.3278,-217.8391 1383.7176,-204.983"/>
<polygon fill="#191970" stroke="#191970" points="1383.8992,-201.4873 1373.6833,-204.2954 1383.4206,-208.471 1383.8992,-201.4873"/>
</g>
<!-- Node40 -->
<g id="node41" class="node">
<title>Node40</title>
<g id="a_node41"><a xlink:href="../../d3/dd6/Sector_8h.html" target="_top" xlink:title="TPCBase/Sector.h">
<polygon fill="none" stroke="#000000" points="914.5,-190.5 914.5,-209.5 1015.5,-209.5 1015.5,-190.5 914.5,-190.5"/>
<text text-anchor="middle" x="965" y="-197.5" font-family="Helvetica,sans-Serif" font-size="10.00" fill="#000000">TPCBase/Sector.h</text>
</a>
</g>
</g>
<!-- Node0&#45;&gt;Node40 -->
<g id="edge50" class="edge">
<title>Node0&#45;&gt;Node40</title>
<path fill="none" stroke="#191970" d="M2277.9614,-267.7989C2013.1262,-254.1233 1247.7928,-214.6029 1025.9434,-203.147"/>
<polygon fill="#191970" stroke="#191970" points="1025.9613,-199.6434 1015.7941,-202.6229 1025.6003,-206.634 1025.9613,-199.6434"/>
</g>
<!-- Node2 -->
<g id="node3" class="node">
<title>Node2</title>
<polygon fill="none" stroke="#bfbfbf" points="1438,-67.5 1438,-86.5 1476,-86.5 1476,-67.5 1438,-67.5"/>
<text text-anchor="middle" x="1457" y="-74.5" font-family="Helvetica,sans-Serif" font-size="10.00" fill="#000000">map</text>
</g>
<!-- Node1&#45;&gt;Node2 -->
<g id="edge2" class="edge">
<title>Node1&#45;&gt;Node2</title>
<path fill="none" stroke="#191970" d="M1963.3344,-198.5434C1846.8702,-195.2782 1620.2052,-185.0321 1547,-154 1515.8059,-140.7766 1487.4841,-112.6782 1471.2592,-94.3301"/>
<polygon fill="#191970" stroke="#191970" points="1473.8576,-91.9835 1464.6889,-86.6744 1468.5456,-96.5424 1473.8576,-91.9835"/>
</g>
<!-- Node3 -->
<g id="node4" class="node">
<title>Node3</title>
<polygon fill="none" stroke="#bfbfbf" points="1207.5,-129 1207.5,-148 1254.5,-148 1254.5,-129 1207.5,-129"/>
<text text-anchor="middle" x="1231" y="-136" font-family="Helvetica,sans-Serif" font-size="10.00" fill="#000000">vector</text>
</g>
<!-- Node1&#45;&gt;Node3 -->
<g id="edge3" class="edge">
<title>Node1&#45;&gt;Node3</title>
<path fill="none" stroke="#191970" d="M1963.4327,-198.6957C1800.0889,-195.2017 1399.9542,-183.7898 1269,-154 1266.1993,-153.3629 1263.3384,-152.5421 1260.5057,-151.6112"/>
<polygon fill="#191970" stroke="#191970" points="1261.7047,-148.323 1251.1117,-148.1295 1259.272,-154.8867 1261.7047,-148.323"/>
</g>
<!-- Node4 -->
<g id="node5" class="node">
<title>Node4</title>
<polygon fill="none" stroke="#bfbfbf" points="1857.5,-67.5 1857.5,-86.5 1940.5,-86.5 1940.5,-67.5 1857.5,-67.5"/>
<text text-anchor="middle" x="1899" y="-74.5" font-family="Helvetica,sans-Serif" font-size="10.00" fill="#000000">initializer_list</text>
</g>
<!-- Node1&#45;&gt;Node4 -->
<g id="edge4" class="edge">
<title>Node1&#45;&gt;Node4</title>
<path fill="none" stroke="#191970" d="M1963.302,-196.1756C1900.4056,-191.1189 1815.1836,-179.6293 1794,-154 1785.2224,-143.3802 1786.4616,-134.5326 1794,-123 1806.0715,-104.5324 1827.3784,-93.4331 1847.6583,-86.7837"/>
<polygon fill="#191970" stroke="#191970" points="1848.8971,-90.0669 1857.4864,-83.8641 1846.9037,-83.3567 1848.8971,-90.0669"/>
</g>
<!-- Node5 -->
<g id="node6" class="node">
<title>Node5</title>
<polygon fill="none" stroke="#bfbfbf" points="1803,-129 1803,-148 1861,-148 1861,-129 1803,-129"/>
<text text-anchor="middle" x="1832" y="-136" font-family="Helvetica,sans-Serif" font-size="10.00" fill="#000000">memory</text>
</g>
<!-- Node1&#45;&gt;Node5 -->
<g id="edge5" class="edge">
<title>Node1&#45;&gt;Node5</title>
<path fill="none" stroke="#191970" d="M1995.1803,-190.4429C1961.7061,-181.8865 1912.2375,-168.4852 1870,-154 1868.0792,-153.3413 1866.1151,-152.6371 1864.1412,-151.9058"/>
<polygon fill="#191970" stroke="#191970" points="1864.9333,-148.4591 1854.3443,-148.1075 1862.4029,-154.9858 1864.9333,-148.4591"/>
</g>
<!-- Node6 -->
<g id="node7" class="node">
<title>Node6</title>
<polygon fill="none" stroke="#bfbfbf" points="1879,-129 1879,-148 1963,-148 1963,-129 1879,-129"/>
<text text-anchor="middle" x="1921" y="-136" font-family="Helvetica,sans-Serif" font-size="10.00" fill="#000000">FairDetector.h</text>
</g>
<!-- Node1&#45;&gt;Node6 -->
<g id="edge6" class="edge">
<title>Node1&#45;&gt;Node6</title>
<path fill="none" stroke="#191970" d="M2016.3438,-190.3906C1997.8514,-180.3262 1968.599,-164.4057 1947.3692,-152.8514"/>
<polygon fill="#191970" stroke="#191970" points="1948.9888,-149.7481 1938.5323,-148.0419 1945.6425,-155.8965 1948.9888,-149.7481"/>
</g>
<!-- Node7 -->
<g id="node8" class="node">
<title>Node7</title>
<polygon fill="none" stroke="#bfbfbf" points="1981,-129 1981,-148 2087,-148 2087,-129 1981,-129"/>
<text text-anchor="middle" x="2034" y="-136" font-family="Helvetica,sans-Serif" font-size="10.00" fill="#000000">FairRootManager.h</text>
</g>
<!-- Node1&#45;&gt;Node7 -->
<g id="edge7" class="edge">
<title>Node1&#45;&gt;Node7</title>
<path fill="none" stroke="#191970" d="M2034,-190.3906C2034,-181.8657 2034,-169.1392 2034,-158.4235"/>
<polygon fill="#191970" stroke="#191970" points="2037.5001,-158.2448 2034,-148.2449 2030.5001,-158.2449 2037.5001,-158.2448"/>
</g>
<!-- Node8 -->
<g id="node9" class="node">
<title>Node8</title>
<g id="a_node9"><a xlink:href="../../d0/d9a/MaterialManager_8h.html" target="_top" xlink:title="DetectorsBase/MaterialManager.h">
<polygon fill="none" stroke="#000000" points="1565.5,-129 1565.5,-148 1746.5,-148 1746.5,-129 1565.5,-129"/>
<text text-anchor="middle" x="1656" y="-136" font-family="Helvetica,sans-Serif" font-size="10.00" fill="#000000">DetectorsBase/MaterialManager.h</text>
</a>
</g>
</g>
<!-- Node1&#45;&gt;Node8 -->
<g id="edge8" class="edge">
<title>Node1&#45;&gt;Node8</title>
<path fill="none" stroke="#191970" d="M1975.3522,-190.4581C1907.6574,-179.4443 1796.4627,-161.3531 1724.7574,-149.6867"/>
<polygon fill="#191970" stroke="#191970" points="1724.9066,-146.1651 1714.4743,-148.0137 1723.7825,-153.0742 1724.9066,-146.1651"/>
</g>
<!-- Node1&#45;&gt;Node9 -->
<g id="edge14" class="edge">
<title>Node1&#45;&gt;Node9</title>
<path fill="none" stroke="#191970" d="M2104.7496,-194.2436C2159.931,-188.1124 2230.119,-176.1331 2248,-154 2281.179,-112.9312 2220.4262,-57.8938 2185.3428,-31.2571"/>
<polygon fill="#191970" stroke="#191970" points="2187.1703,-28.2554 2177.0492,-25.1227 2183.0076,-33.8833 2187.1703,-28.2554"/>
</g>
<!-- Node12 -->
<g id="node13" class="node">
<title>Node12</title>
<polygon fill="none" stroke="#bfbfbf" points="2105,-129 2105,-148 2163,-148 2163,-129 2105,-129"/>
<text text-anchor="middle" x="2134" y="-136" font-family="Helvetica,sans-Serif" font-size="10.00" fill="#000000">cxxabi.h</text>
</g>
<!-- Node1&#45;&gt;Node12 -->
<g id="edge15" class="edge">
<title>Node1&#45;&gt;Node12</title>
<path fill="none" stroke="#191970" d="M2049.625,-190.3906C2065.7698,-180.4616 2091.1822,-164.833 2109.9023,-153.3201"/>
<polygon fill="#191970" stroke="#191970" points="2111.8002,-156.2619 2118.4847,-148.0419 2108.1331,-150.2992 2111.8002,-156.2619"/>
</g>
<!-- Node13 -->
<g id="node14" class="node">
<title>Node13</title>
<polygon fill="none" stroke="#bfbfbf" points="2181.5,-129 2181.5,-148 2238.5,-148 2238.5,-129 2181.5,-129"/>
<text text-anchor="middle" x="2210" y="-136" font-family="Helvetica,sans-Serif" font-size="10.00" fill="#000000">typeinfo</text>
</g>
<!-- Node1&#45;&gt;Node13 -->
<g id="edge16" class="edge">
<title>Node1&#45;&gt;Node13</title>
<path fill="none" stroke="#191970" d="M2064.6219,-190.4282C2092.7202,-181.4952 2135.4085,-167.5448 2172,-154 2173.8542,-153.3136 2175.7529,-152.594 2177.6648,-151.8562"/>
<polygon fill="#191970" stroke="#191970" points="2179.1767,-155.0221 2187.1873,-148.0881 2176.601,-148.5132 2179.1767,-155.0221"/>
</g>
<!-- Node14 -->
<g id="node15" class="node">
<title>Node14</title>
<polygon fill="none" stroke="#bfbfbf" points="2295.5,-129 2295.5,-148 2364.5,-148 2364.5,-129 2295.5,-129"/>
<text text-anchor="middle" x="2330" y="-136" font-family="Helvetica,sans-Serif" font-size="10.00" fill="#000000">type_traits</text>
</g>
<!-- Node1&#45;&gt;Node14 -->
<g id="edge17" class="edge">
<title>Node1&#45;&gt;Node14</title>
<path fill="none" stroke="#191970" d="M2096.8875,-190.4674C2147.0799,-182.3372 2219.0099,-169.5152 2281,-154 2284.6326,-153.0908 2288.391,-152.0632 2292.1365,-150.9803"/>
<polygon fill="#191970" stroke="#191970" points="2293.3615,-154.2666 2301.9251,-148.0285 2291.3404,-147.5647 2293.3615,-154.2666"/>
</g>
<!-- Node15 -->
<g id="node16" class="node">
<title>Node15</title>
<polygon fill="none" stroke="#bfbfbf" points="2383,-129 2383,-148 2427,-148 2427,-129 2383,-129"/>
<text text-anchor="middle" x="2405" y="-136" font-family="Helvetica,sans-Serif" font-size="10.00" fill="#000000">string</text>
</g>
<!-- Node1&#45;&gt;Node15 -->
<g id="edge18" class="edge">
<title>Node1&#45;&gt;Node15</title>
<path fill="none" stroke="#191970" d="M2104.7976,-197.1901C2174.5998,-192.856 2283.6369,-181.8598 2374,-154 2375.6603,-153.4881 2377.3405,-152.8945 2379.015,-152.2441"/>
<polygon fill="#191970" stroke="#191970" points="2380.6582,-155.3435 2388.3638,-148.072 2377.8055,-148.9512 2380.6582,-155.3435"/>
</g>
<!-- Node16 -->
<g id="node17" class="node">
<title>Node16</title>
<polygon fill="none" stroke="#bfbfbf" points="2445,-129 2445,-148 2519,-148 2519,-129 2445,-129"/>
<text text-anchor="middle" x="2482" y="-136" font-family="Helvetica,sans-Serif" font-size="10.00" fill="#000000">TMessage.h</text>
</g>
<!-- Node1&#45;&gt;Node16 -->
<g id="edge19" class="edge">
<title>Node1&#45;&gt;Node16</title>
<path fill="none" stroke="#191970" d="M2104.8263,-196.4242C2185.7233,-191.2986 2321.6727,-179.5022 2436,-154 2439.6705,-153.1813 2443.4591,-152.177 2447.2131,-151.0767"/>
<polygon fill="#191970" stroke="#191970" points="2448.48,-154.3471 2456.9644,-148.0016 2446.3747,-147.6712 2448.48,-154.3471"/>
</g>
<!-- Node17 -->
<g id="node18" class="node">
<title>Node17</title>
<g id="a_node18"><a xlink:href="../../de/d61/ShmManager_8h.html" target="_top" xlink:title="CommonUtils/ShmManager.h">
<polygon fill="none" stroke="#000000" points="1532,-67.5 1532,-86.5 1690,-86.5 1690,-67.5 1532,-67.5"/>
<text text-anchor="middle" x="1611" y="-74.5" font-family="Helvetica,sans-Serif" font-size="10.00" fill="#000000">CommonUtils/ShmManager.h</text>
</a>
</g>
</g>
<!-- Node1&#45;&gt;Node17 -->
<g id="edge20" class="edge">
<title>Node1&#45;&gt;Node17</title>
<path fill="none" stroke="#191970" d="M1963.0231,-198.3117C1836.7489,-194.5691 1583.7435,-183.4467 1557,-154 1539.1687,-134.3663 1565.7074,-108.6471 1587.4879,-92.47"/>
<polygon fill="#191970" stroke="#191970" points="1589.6696,-95.2134 1595.7951,-86.5687 1585.6157,-89.5067 1589.6696,-95.2134"/>
</g>
<!-- Node23 -->
<g id="node24" class="node">
<title>Node23</title>
<g id="a_node24"><a xlink:href="../../d0/d91/ShmAllocator_8h.html" target="_top" xlink:title="CommonUtils/ShmAllocator.h">
<polygon fill="none" stroke="#000000" points="1311,-129 1311,-148 1471,-148 1471,-129 1311,-129"/>
<text text-anchor="middle" x="1391" y="-136" font-family="Helvetica,sans-Serif" font-size="10.00" fill="#000000">CommonUtils/ShmAllocator.h</text>
</a>
</g>
</g>
<!-- Node1&#45;&gt;Node23 -->
<g id="edge26" class="edge">
<title>Node1&#45;&gt;Node23</title>
<path fill="none" stroke="#191970" d="M1963.1817,-195.8796C1858.4219,-189.3741 1656.0895,-175.2391 1485,-154 1475.0286,-152.7621 1464.4962,-151.2389 1454.2307,-149.6355"/>
<polygon fill="#191970" stroke="#191970" points="1454.512,-146.1361 1444.0848,-148.0129 1453.4065,-153.0483 1454.512,-146.1361"/>
</g>
<!-- Node24 -->
<g id="node25" class="node">
<title>Node24</title>
<polygon fill="none" stroke="#bfbfbf" points="1311,-67.5 1311,-86.5 1363,-86.5 1363,-67.5 1311,-67.5"/>
<text text-anchor="middle" x="1337" y="-74.5" font-family="Helvetica,sans-Serif" font-size="10.00" fill="#000000">cassert</text>
</g>
<!-- Node1&#45;&gt;Node24 -->
<g id="edge31" class="edge">
<title>Node1&#45;&gt;Node24</title>
<path fill="none" stroke="#191970" d="M1963.3796,-198.1472C1784.1956,-193.1039 1324.4325,-177.8865 1302,-154 1285.9318,-136.8903 1303.5744,-111.1275 1319.0949,-94.1877"/>
<polygon fill="#191970" stroke="#191970" points="1321.9447,-96.276 1326.3865,-86.6572 1316.9158,-91.4066 1321.9447,-96.276"/>
</g>
<!-- Node25 -->
<g id="node26" class="node">
<title>Node25</title>
<polygon fill="none" stroke="#bfbfbf" points="2537,-129 2537,-148 2603,-148 2603,-129 2537,-129"/>
<text text-anchor="middle" x="2570" y="-136" font-family="Helvetica,sans-Serif" font-size="10.00" fill="#000000">sys/shm.h</text>
</g>
<!-- Node1&#45;&gt;Node25 -->
<g id="edge29" class="edge">
<title>Node1&#45;&gt;Node25</title>
<path fill="none" stroke="#191970" d="M2104.7324,-195.6913C2221.4638,-188.1981 2449.3566,-171.8503 2528,-154 2531.1834,-153.2774 2534.4528,-152.3748 2537.6942,-151.3705"/>
<polygon fill="#191970" stroke="#191970" points="2538.8795,-154.6643 2547.2207,-148.1316 2536.6262,-148.0369 2538.8795,-154.6643"/>
</g>
<!-- Node26 -->
<g id="node27" class="node">
<title>Node26</title>
<polygon fill="none" stroke="#bfbfbf" points="2621,-129 2621,-148 2677,-148 2677,-129 2621,-129"/>
<text text-anchor="middle" x="2649" y="-136" font-family="Helvetica,sans-Serif" font-size="10.00" fill="#000000">unistd.h</text>
</g>
<!-- Node1&#45;&gt;Node26 -->
<g id="edge30" class="edge">
<title>Node1&#45;&gt;Node26</title>
<path fill="none" stroke="#191970" d="M2104.6343,-197.1756C2237.0162,-191.4202 2517.5985,-176.9079 2612,-154 2614.6374,-153.36 2617.3293,-152.5557 2619.9978,-151.6519"/>
<polygon fill="#191970" stroke="#191970" points="2621.3245,-154.8919 2629.4215,-148.059 2618.8307,-148.3512 2621.3245,-154.8919"/>
</g>
<!-- Node8&#45;&gt;Node2 -->
<g id="edge10" class="edge">
<title>Node8&#45;&gt;Node2</title>
<path fill="none" stroke="#191970" d="M1624.9063,-128.8906C1586.8368,-117.1254 1522.8729,-97.3577 1485.8541,-85.9172"/>
<polygon fill="#191970" stroke="#191970" points="1486.7589,-82.5336 1476.1713,-82.9248 1484.692,-89.2215 1486.7589,-82.5336"/>
</g>
<!-- Node8&#45;&gt;Node4 -->
<g id="edge12" class="edge">
<title>Node8&#45;&gt;Node4</title>
<path fill="none" stroke="#191970" d="M1693.7021,-128.9581C1736.1772,-118.2082 1805.292,-100.7162 1851.4413,-89.0365"/>
<polygon fill="#191970" stroke="#191970" points="1852.3738,-92.4109 1861.2094,-86.5643 1850.6563,-85.6248 1852.3738,-92.4109"/>
</g>
<!-- Node8&#45;&gt;Node9 -->
<g id="edge9" class="edge">
<title>Node8&#45;&gt;Node9</title>
<path fill="none" stroke="#191970" d="M1689.2783,-128.9628C1720.8351,-119.5481 1769.3337,-104.1114 1810,-87 1827.9549,-79.445 1830.4983,-73.0945 1849,-67 1899.322,-50.4238 2050.5206,-29.7748 2123.1735,-20.4626"/>
<polygon fill="#191970" stroke="#191970" points="2123.8238,-23.9081 2133.3015,-19.1727 2122.9394,-16.9642 2123.8238,-23.9081"/>
</g>
<!-- Node10 -->
<g id="node11" class="node">
<title>Node10</title>
<polygon fill="none" stroke="#bfbfbf" points="1707.5,-67.5 1707.5,-86.5 1800.5,-86.5 1800.5,-67.5 1707.5,-67.5"/>
<text text-anchor="middle" x="1754" y="-74.5" font-family="Helvetica,sans-Serif" font-size="10.00" fill="#000000">unordered_map</text>
</g>
<!-- Node8&#45;&gt;Node10 -->
<g id="edge11" class="edge">
<title>Node8&#45;&gt;Node10</title>
<path fill="none" stroke="#191970" d="M1671.3125,-128.8906C1687.0624,-119.0067 1711.8123,-103.4749 1730.1337,-91.9773"/>
<polygon fill="#191970" stroke="#191970" points="1732.1852,-94.8221 1738.795,-86.5419 1728.4643,-88.8929 1732.1852,-94.8221"/>
</g>
<!-- Node11 -->
<g id="node12" class="node">
<title>Node11</title>
<polygon fill="none" stroke="#bfbfbf" points="1436.5,-6 1436.5,-25 1485.5,-25 1485.5,-6 1436.5,-6"/>
<text text-anchor="middle" x="1461" y="-13" font-family="Helvetica,sans-Serif" font-size="10.00" fill="#000000">iosfwd</text>
</g>
<!-- Node8&#45;&gt;Node11 -->
<g id="edge13" class="edge">
<title>Node8&#45;&gt;Node11</title>
<path fill="none" stroke="#191970" d="M1617.4762,-128.9909C1589.5355,-120.86 1551.7599,-107.2269 1523,-87 1502.3288,-72.4619 1484.1156,-49.5824 1472.8689,-33.6332"/>
<polygon fill="#191970" stroke="#191970" points="1475.6138,-31.4462 1467.0861,-25.1589 1469.8317,-35.3918 1475.6138,-31.4462"/>
</g>
<!-- Node18 -->
<g id="node19" class="node">
<title>Node18</title>
<polygon fill="none" stroke="#bfbfbf" points="1908,-6 1908,-25 1940,-25 1940,-6 1908,-6"/>
<text text-anchor="middle" x="1924" y="-13" font-family="Helvetica,sans-Serif" font-size="10.00" fill="#000000">list</text>
</g>
<!-- Node17&#45;&gt;Node18 -->
<g id="edge21" class="edge">
<title>Node17&#45;&gt;Node18</title>
<path fill="none" stroke="#191970" d="M1690.1894,-67.9095C1761.872,-59.0356 1861.7543,-44.8788 1899,-31 1899.8793,-30.6723 1900.7612,-30.3119 1901.6407,-29.925"/>
<polygon fill="#191970" stroke="#191970" points="1903.5793,-32.8576 1910.7522,-25.0602 1900.2823,-26.6826 1903.5793,-32.8576"/>
</g>
<!-- Node19 -->
<g id="node20" class="node">
<title>Node19</title>
<polygon fill="none" stroke="#bfbfbf" points="1958.5,-6 1958.5,-25 2011.5,-25 2011.5,-6 1958.5,-6"/>
<text text-anchor="middle" x="1985" y="-13" font-family="Helvetica,sans-Serif" font-size="10.00" fill="#000000">cstddef</text>
</g>
<!-- Node17&#45;&gt;Node19 -->
<g id="edge22" class="edge">
<title>Node17&#45;&gt;Node19</title>
<path fill="none" stroke="#191970" d="M1689.1697,-67.4942C1781.1564,-56.1304 1924.5349,-37.795 1949,-31 1951.3235,-30.3547 1953.6935,-29.591 1956.0527,-28.7541"/>
<polygon fill="#191970" stroke="#191970" points="1957.5206,-31.9377 1965.5428,-25.0172 1954.9558,-25.4245 1957.5206,-31.9377"/>
</g>
<!-- Node20 -->
<g id="node21" class="node">
<title>Node20</title>
<polygon fill="none" stroke="#bfbfbf" points="1504,-6 1504,-25 1554,-25 1554,-6 1504,-6"/>
<text text-anchor="middle" x="1529" y="-13" font-family="Helvetica,sans-Serif" font-size="10.00" fill="#000000">atomic</text>
</g>
<!-- Node17&#45;&gt;Node20 -->
<g id="edge23" class="edge">
<title>Node17&#45;&gt;Node20</title>
<path fill="none" stroke="#191970" d="M1598.1875,-67.3906C1585.3099,-57.7324 1565.2416,-42.6812 1550.028,-31.271"/>
<polygon fill="#191970" stroke="#191970" points="1551.8226,-28.2419 1541.7225,-25.0419 1547.6225,-33.8419 1551.8226,-28.2419"/>
</g>
<!-- Node21 -->
<g id="node22" class="node">
<title>Node21</title>
<polygon fill="none" stroke="#bfbfbf" points="1572.5,-.5 1572.5,-30.5 1737.5,-30.5 1737.5,-.5 1572.5,-.5"/>
<text text-anchor="start" x="1580.5" y="-18.5" font-family="Helvetica,sans-Serif" font-size="10.00" fill="#000000">boost/interprocess</text>
<text text-anchor="middle" x="1655" y="-7.5" font-family="Helvetica,sans-Serif" font-size="10.00" fill="#000000">/managed_external_buffer.hpp</text>
</g>
<!-- Node17&#45;&gt;Node21 -->
<g id="edge24" class="edge">
<title>Node17&#45;&gt;Node21</title>
<path fill="none" stroke="#191970" d="M1617.875,-67.3906C1623.3336,-59.761 1631.2001,-48.7658 1638.288,-38.8588"/>
<polygon fill="#191970" stroke="#191970" points="1641.2642,-40.714 1644.2364,-30.5446 1635.5712,-36.6409 1641.2642,-40.714"/>
</g>
<!-- Node22 -->
<g id="node23" class="node">
<title>Node22</title>
<polygon fill="none" stroke="#bfbfbf" points="1756,-.5 1756,-30.5 1890,-30.5 1890,-.5 1756,-.5"/>
<text text-anchor="start" x="1764" y="-18.5" font-family="Helvetica,sans-Serif" font-size="10.00" fill="#000000">boost/interprocess</text>
<text text-anchor="middle" x="1823" y="-7.5" font-family="Helvetica,sans-Serif" font-size="10.00" fill="#000000">/allocators/allocator.hpp</text>
</g>
<!-- Node17&#45;&gt;Node22 -->
<g id="edge25" class="edge">
<title>Node17&#45;&gt;Node22</title>
<path fill="none" stroke="#191970" d="M1644.125,-67.3906C1675.3404,-58.3352 1722.898,-44.539 1761.131,-33.4479"/>
<polygon fill="#191970" stroke="#191970" points="1762.5101,-36.6922 1771.139,-30.5446 1760.5598,-29.9693 1762.5101,-36.6922"/>
</g>
<!-- Node23&#45;&gt;Node17 -->
<g id="edge27" class="edge">
<title>Node23&#45;&gt;Node17</title>
<path fill="none" stroke="#191970" d="M1425.375,-128.8906C1463.5573,-118.2169 1525.3016,-100.9566 1566.9884,-89.3033"/>
<polygon fill="#191970" stroke="#191970" points="1568.1779,-92.605 1576.8664,-86.5419 1566.2933,-85.8634 1568.1779,-92.605"/>
</g>
<!-- Node23&#45;&gt;Node24 -->
<g id="edge28" class="edge">
<title>Node23&#45;&gt;Node24</title>
<path fill="none" stroke="#191970" d="M1382.5625,-128.8906C1374.4469,-119.6478 1361.9945,-105.466 1352.1576,-94.2628"/>
<polygon fill="#191970" stroke="#191970" points="1354.7846,-91.95 1345.5565,-86.7449 1349.5245,-96.5686 1354.7846,-91.95"/>
</g>
<!-- Node29&#45;&gt;Node3 -->
<g id="edge48" class="edge">
<title>Node29&#45;&gt;Node3</title>
<path fill="none" stroke="#191970" d="M1298.5,-190.3906C1285.9364,-180.7324 1266.3577,-165.6812 1251.5151,-154.271"/>
<polygon fill="#191970" stroke="#191970" points="1253.4735,-151.3618 1243.4122,-148.0419 1249.2072,-156.9115 1253.4735,-151.3618"/>
</g>
<!-- Node29&#45;&gt;Node23 -->
<g id="edge49" class="edge">
<title>Node29&#45;&gt;Node23</title>
<path fill="none" stroke="#191970" d="M1323.5,-190.3906C1336.0636,-180.7324 1355.6423,-165.6812 1370.4849,-154.271"/>
<polygon fill="#191970" stroke="#191970" points="1372.7928,-156.9115 1378.5878,-148.0419 1368.5265,-151.3618 1372.7928,-156.9115"/>
</g>
<!-- Node30 -->
<g id="node31" class="node">
<title>Node30</title>
<g id="a_node31"><a xlink:href="../../d4/d25/BaseHits_8h.html" target="_top" xlink:title="SimulationDataFormat\l/BaseHits.h">
<polygon fill="none" stroke="#000000" points="1062.5,-123.5 1062.5,-153.5 1189.5,-153.5 1189.5,-123.5 1062.5,-123.5"/>
<text text-anchor="start" x="1070.5" y="-141.5" font-family="Helvetica,sans-Serif" font-size="10.00" fill="#000000">SimulationDataFormat</text>
<text text-anchor="middle" x="1126" y="-130.5" font-family="Helvetica,sans-Serif" font-size="10.00" fill="#000000">/BaseHits.h</text>
</a>
</g>
</g>
<!-- Node29&#45;&gt;Node30 -->
<g id="edge36" class="edge">
<title>Node29&#45;&gt;Node30</title>
<path fill="none" stroke="#191970" d="M1282.0938,-190.3906C1255.0857,-181.4123 1214.0585,-167.7735 1180.8431,-156.7316"/>
<polygon fill="#191970" stroke="#191970" points="1181.8496,-153.378 1171.2561,-153.5446 1179.6414,-160.0205 1181.8496,-153.378"/>
</g>
<!-- Node31 -->
<g id="node32" class="node">
<title>Node31</title>
<g id="a_node32"><a xlink:href="../../dc/d73/Cartesian_8h.html" target="_top" xlink:title="MathUtils/Cartesian.h">
<polygon fill="none" stroke="#000000" points="889,-67.5 889,-86.5 1011,-86.5 1011,-67.5 889,-67.5"/>
<text text-anchor="middle" x="950" y="-74.5" font-family="Helvetica,sans-Serif" font-size="10.00" fill="#000000">MathUtils/Cartesian.h</text>
</a>
</g>
</g>
<!-- Node30&#45;&gt;Node31 -->
<g id="edge37" class="edge">
<title>Node30&#45;&gt;Node31</title>
<path fill="none" stroke="#191970" d="M1082.9456,-123.4554C1053.5795,-113.194 1015.0855,-99.7429 987.0805,-89.9571"/>
<polygon fill="#191970" stroke="#191970" points="987.8686,-86.525 977.2738,-86.5303 985.5594,-93.1332 987.8686,-86.525"/>
</g>
<!-- Node31&#45;&gt;Node9 -->
<g id="edge45" class="edge">
<title>Node31&#45;&gt;Node9</title>
<path fill="none" stroke="#191970" d="M1011.3344,-74.8979C1208.1587,-68.0684 1822.5516,-46.0761 2021,-31 2055.6868,-28.3648 2094.9951,-23.9638 2123.4459,-20.5232"/>
<polygon fill="#191970" stroke="#191970" points="2123.907,-23.993 2133.4078,-19.3041 2123.0567,-17.0448 2123.907,-23.993"/>
</g>
<!-- Node31&#45;&gt;Node11 -->
<g id="edge47" class="edge">
<title>Node31&#45;&gt;Node11</title>
<path fill="none" stroke="#191970" d="M1011.3617,-73.6141C1121.9078,-67.0947 1350.1568,-51.6014 1427,-31 1429.1892,-30.4131 1431.4141,-29.6977 1433.6242,-28.8998"/>
<polygon fill="#191970" stroke="#191970" points="1435.1462,-32.0583 1443.062,-25.0163 1432.4825,-25.5849 1435.1462,-32.0583"/>
</g>
<!-- Node32 -->
<g id="node33" class="node">
<title>Node32</title>
<polygon fill="none" stroke="#bfbfbf" points="868,-.5 868,-30.5 1032,-30.5 1032,-.5 868,-.5"/>
<text text-anchor="start" x="876" y="-18.5" font-family="Helvetica,sans-Serif" font-size="10.00" fill="#000000">Math/GenVector/Displacement</text>
<text text-anchor="middle" x="950" y="-7.5" font-family="Helvetica,sans-Serif" font-size="10.00" fill="#000000">Vector3D.h</text>
</g>
<!-- Node31&#45;&gt;Node32 -->
<g id="edge38" class="edge">
<title>Node31&#45;&gt;Node32</title>
<path fill="none" stroke="#191970" d="M950,-67.3906C950,-60.2234 950,-50.0862 950,-40.671"/>
<polygon fill="#191970" stroke="#191970" points="953.5001,-40.5446 950,-30.5446 946.5001,-40.5446 953.5001,-40.5446"/>
</g>
<!-- Node33 -->
<g id="node34" class="node">
<title>Node33</title>
<polygon fill="none" stroke="#bfbfbf" points="1050.5,-6 1050.5,-25 1239.5,-25 1239.5,-6 1050.5,-6"/>
<text text-anchor="middle" x="1145" y="-13" font-family="Helvetica,sans-Serif" font-size="10.00" fill="#000000">Math/GenVector/PositionVector3D.h</text>
</g>
<!-- Node31&#45;&gt;Node33 -->
<g id="edge39" class="edge">
<title>Node31&#45;&gt;Node33</title>
<path fill="none" stroke="#191970" d="M980.4688,-67.3906C1013.9544,-56.8298 1067.8853,-39.8208 1104.812,-28.1747"/>
<polygon fill="#191970" stroke="#191970" points="1106.261,-31.3877 1114.7452,-25.0419 1104.1555,-24.7118 1106.261,-31.3877"/>
</g>
<!-- Node34 -->
<g id="node35" class="node">
<title>Node34</title>
<polygon fill="none" stroke="#bfbfbf" points="1258,-6 1258,-25 1418,-25 1418,-6 1258,-6"/>
<text text-anchor="middle" x="1338" y="-13" font-family="Helvetica,sans-Serif" font-size="10.00" fill="#000000">Math/GenVector/Rotation3D.h</text>
</g>
<!-- Node31&#45;&gt;Node34 -->
<g id="edge40" class="edge">
<title>Node31&#45;&gt;Node34</title>
<path fill="none" stroke="#191970" d="M1011.0433,-67.9699C1071.5095,-58.94 1166.7227,-44.4923 1249,-31 1257.232,-29.6501 1265.8851,-28.192 1274.429,-26.729"/>
<polygon fill="#191970" stroke="#191970" points="1275.1161,-30.1623 1284.3769,-25.0155 1273.9278,-23.2639 1275.1161,-30.1623"/>
</g>
<!-- Node35 -->
<g id="node36" class="node">
<title>Node35</title>
<polygon fill="none" stroke="#bfbfbf" points="0,-6 0,-25 168,-25 168,-6 0,-6"/>
<text text-anchor="middle" x="84" y="-13" font-family="Helvetica,sans-Serif" font-size="10.00" fill="#000000">Math/GenVector/Transform3D.h</text>
</g>
<!-- Node31&#45;&gt;Node35 -->
<g id="edge41" class="edge">
<title>Node31&#45;&gt;Node35</title>
<path fill="none" stroke="#191970" d="M888.9558,-67.9468C885.9305,-67.6026 882.9326,-67.284 880,-67 568.6026,-36.8469 488.0258,-64.7713 177,-31 166.6413,-29.8752 155.6839,-28.3515 145.066,-26.6967"/>
<polygon fill="#191970" stroke="#191970" points="145.45,-23.2135 135.0206,-25.0787 144.3368,-30.1244 145.45,-23.2135"/>
</g>
<!-- Node36 -->
<g id="node37" class="node">
<title>Node36</title>
<polygon fill="none" stroke="#bfbfbf" points="186.5,-6 186.5,-25 359.5,-25 359.5,-6 186.5,-6"/>
<text text-anchor="middle" x="273" y="-13" font-family="Helvetica,sans-Serif" font-size="10.00" fill="#000000">Math/GenVector/Translation3D.h</text>
</g>
<!-- Node31&#45;&gt;Node36 -->
<g id="edge42" class="edge">
<title>Node31&#45;&gt;Node36</title>
<path fill="none" stroke="#191970" d="M888.9488,-68.0161C885.9253,-67.6535 882.9297,-67.3121 880,-67 653.6066,-42.8856 595.1648,-57.1713 369,-31 358.5151,-29.7867 347.4258,-28.2416 336.6525,-26.5991"/>
<polygon fill="#191970" stroke="#191970" points="336.8715,-23.0908 326.4505,-25.0021 335.7889,-30.0066 336.8715,-23.0908"/>
</g>
<!-- Node37 -->
<g id="node38" class="node">
<title>Node37</title>
<polygon fill="none" stroke="#bfbfbf" points="378,-.5 378,-30.5 542,-30.5 542,-.5 378,-.5"/>
<text text-anchor="start" x="386" y="-18.5" font-family="Helvetica,sans-Serif" font-size="10.00" fill="#000000">Math/GenVector/Displacement</text>
<text text-anchor="middle" x="460" y="-7.5" font-family="Helvetica,sans-Serif" font-size="10.00" fill="#000000">Vector2D.h</text>
</g>
<!-- Node31&#45;&gt;Node37 -->
<g id="edge43" class="edge">
<title>Node31&#45;&gt;Node37</title>
<path fill="none" stroke="#191970" d="M888.9325,-68.1554C885.9134,-67.756 882.9231,-67.3686 880,-67 737.3388,-49.0097 698.4133,-51.2451 552.5333,-31.1656"/>
<polygon fill="#191970" stroke="#191970" points="552.692,-27.6541 542.3057,-29.7456 551.7293,-34.5876 552.692,-27.6541"/>
</g>
<!-- Node38 -->
<g id="node39" class="node">
<title>Node38</title>
<polygon fill="none" stroke="#bfbfbf" points="560.5,-6 560.5,-25 749.5,-25 749.5,-6 560.5,-6"/>
<text text-anchor="middle" x="655" y="-13" font-family="Helvetica,sans-Serif" font-size="10.00" fill="#000000">Math/GenVector/PositionVector2D.h</text>
</g>
<!-- Node31&#45;&gt;Node38 -->
<g id="edge44" class="edge">
<title>Node31&#45;&gt;Node38</title>
<path fill="none" stroke="#191970" d="M904.2299,-67.4581C852.1251,-56.5956 766.9981,-38.8488 710.9833,-27.1711"/>
<polygon fill="#191970" stroke="#191970" points="711.3813,-23.6789 700.8775,-25.0643 709.9527,-30.5316 711.3813,-23.6789"/>
</g>
<!-- Node39 -->
<g id="node40" class="node">
<title>Node39</title>
<polygon fill="none" stroke="#bfbfbf" points="768,-6 768,-25 850,-25 850,-6 768,-6"/>
<text text-anchor="middle" x="809" y="-13" font-family="Helvetica,sans-Serif" font-size="10.00" fill="#000000">TGeoMatrix.h</text>
</g>
<!-- Node31&#45;&gt;Node39 -->
<g id="edge46" class="edge">
<title>Node31&#45;&gt;Node39</title>
<path fill="none" stroke="#191970" d="M927.9688,-67.3906C904.3769,-57.1005 866.7499,-40.6888 840.1367,-29.0809"/>
<polygon fill="#191970" stroke="#191970" points="841.4419,-25.8318 830.8765,-25.0419 838.6433,-32.248 841.4419,-25.8318"/>
</g>
<!-- Node41 -->
<g id="node42" class="node">
<title>Node41</title>
<g id="a_node42"><a xlink:href="../../d0/dda/DataFormats_2Detectors_2TPC_2include_2DataFormatsTPC_2Constants_8h.html" target="_top" xlink:title="DataFormatsTPC/Constants.h">
<polygon fill="none" stroke="#000000" points="885.5,-129 885.5,-148 1044.5,-148 1044.5,-129 885.5,-129"/>
<text text-anchor="middle" x="965" y="-136" font-family="Helvetica,sans-Serif" font-size="10.00" fill="#000000">DataFormatsTPC/Constants.h</text>
</a>
</g>
</g>
<!-- Node40&#45;&gt;Node41 -->
<g id="edge51" class="edge">
<title>Node40&#45;&gt;Node41</title>
<path fill="none" stroke="#191970" d="M965,-190.3906C965,-181.8657 965,-169.1392 965,-158.4235"/>
<polygon fill="#191970" stroke="#191970" points="968.5001,-158.2448 965,-148.2449 961.5001,-158.2449 968.5001,-158.2448"/>
</g>
<!-- Node42 -->
<g id="node43" class="node">
<title>Node42</title>
<g id="a_node43"><a xlink:href="../../d1/d73/Defs_8h.html" target="_top" xlink:title="DataFormatsTPC/Defs.h">
<polygon fill="none" stroke="#000000" points="734.5,-129 734.5,-148 867.5,-148 867.5,-129 734.5,-129"/>
<text text-anchor="middle" x="801" y="-136" font-family="Helvetica,sans-Serif" font-size="10.00" fill="#000000">DataFormatsTPC/Defs.h</text>
</a>
</g>
</g>
<!-- Node40&#45;&gt;Node42 -->
<g id="edge52" class="edge">
<title>Node40&#45;&gt;Node42</title>
<path fill="none" stroke="#191970" d="M939.375,-190.3906C911.5737,-179.9652 867.0156,-163.2559 836.0006,-151.6252"/>
<polygon fill="#191970" stroke="#191970" points="837.0373,-148.276 826.4451,-148.0419 834.5794,-154.8303 837.0373,-148.276"/>
</g>
<!-- Node42&#45;&gt;Node31 -->
<g id="edge55" class="edge">
<title>Node42&#45;&gt;Node31</title>
<path fill="none" stroke="#191970" d="M824.2813,-128.8906C849.321,-118.5554 889.3225,-102.0447 917.466,-90.4284"/>
<polygon fill="#191970" stroke="#191970" points="918.974,-93.5925 926.8822,-86.5419 916.3033,-87.122 918.974,-93.5925"/>
</g>
<!-- Node43 -->
<g id="node44" class="node">
<title>Node43</title>
<polygon fill="none" stroke="#bfbfbf" points="665.5,-67.5 665.5,-86.5 712.5,-86.5 712.5,-67.5 665.5,-67.5"/>
<text text-anchor="middle" x="689" y="-74.5" font-family="Helvetica,sans-Serif" font-size="10.00" fill="#000000">cmath</text>
</g>
<!-- Node42&#45;&gt;Node43 -->
<g id="edge53" class="edge">
<title>Node42&#45;&gt;Node43</title>
<path fill="none" stroke="#191970" d="M783.5,-128.8906C765.2535,-118.8713 736.4376,-103.0483 715.4194,-91.5071"/>
<polygon fill="#191970" stroke="#191970" points="716.8272,-88.2872 706.3771,-86.5419 713.458,-94.423 716.8272,-88.2872"/>
</g>
<!-- Node44 -->
<g id="node45" class="node">
<title>Node44</title>
<g id="a_node45"><a xlink:href="../../d1/da8/GPUROOTCartesianFwd_8h.html" target="_top" xlink:title="GPUROOTCartesianFwd.h">
<polygon fill="none" stroke="#000000" points="731,-67.5 731,-86.5 871,-86.5 871,-67.5 731,-67.5"/>
<text text-anchor="middle" x="801" y="-74.5" font-family="Helvetica,sans-Serif" font-size="10.00" fill="#000000">GPUROOTCartesianFwd.h</text>
</a>
</g>
</g>
<!-- Node42&#45;&gt;Node44 -->
<g id="edge54" class="edge">
<title>Node42&#45;&gt;Node44</title>
<path fill="none" stroke="#191970" d="M801,-128.8906C801,-120.3657 801,-107.6392 801,-96.9235"/>
<polygon fill="#191970" stroke="#191970" points="804.5001,-96.7448 801,-86.7449 797.5001,-96.7449 804.5001,-96.7448"/>
</g>
</g>
</svg>
