<?xml version="1.0" encoding="UTF-8" standalone="no"?>
<!DOCTYPE svg PUBLIC "-//W3C//DTD SVG 1.1//EN"
 "http://www.w3.org/Graphics/SVG/1.1/DTD/svg11.dtd">
<!-- Generated by graphviz version 2.40.1 (20161225.0304)
 -->
<!-- Title: /home/travis/build/AliceO2Group/AliceO2/Detectors/MUON/MCH/Simulation/test/testDigitization.cxx Pages: 1 -->
<svg width="2098pt" height="385pt"
 viewBox="0.00 0.00 2098.00 385.00" xmlns="http://www.w3.org/2000/svg" xmlns:xlink="http://www.w3.org/1999/xlink">
<g id="graph0" class="graph" transform="scale(1 1) rotate(0) translate(4 381)">
<title>/home/travis/build/AliceO2Group/AliceO2/Detectors/MUON/MCH/Simulation/test/testDigitization.cxx</title>
<!-- Node0 -->
<g id="node1" class="node">
<title>Node0</title>
<polygon fill="#bfbfbf" stroke="#000000" points="988,-324.5 988,-376.5 1170,-376.5 1170,-324.5 988,-324.5"/>
<text text-anchor="start" x="996" y="-364.5" font-family="Helvetica,sans-Serif" font-size="10.00" fill="#000000">/home/travis/build</text>
<text text-anchor="start" x="996" y="-353.5" font-family="Helvetica,sans-Serif" font-size="10.00" fill="#000000">/AliceO2Group/AliceO2</text>
<text text-anchor="start" x="996" y="-342.5" font-family="Helvetica,sans-Serif" font-size="10.00" fill="#000000">/Detectors/MUON/MCH/Simulation</text>
<text text-anchor="middle" x="1079" y="-331.5" font-family="Helvetica,sans-Serif" font-size="10.00" fill="#000000">/test/testDigitization.cxx</text>
</g>
<!-- Node1 -->
<g id="node2" class="node">
<title>Node1</title>
<polygon fill="none" stroke="#bfbfbf" points="552,-263 552,-282 684,-282 684,-263 552,-263"/>
<text text-anchor="middle" x="618" y="-270" font-family="Helvetica,sans-Serif" font-size="10.00" fill="#000000">boost/test/unit_test.hpp</text>
</g>
<!-- Node0&#45;&gt;Node1 -->
<g id="edge1" class="edge">
<title>Node0&#45;&gt;Node1</title>
<path fill="none" stroke="#191970" d="M987.9489,-336.8946C909.6088,-324.917 793.6459,-306.5392 693,-288 686.4109,-286.7863 679.5099,-285.4498 672.6751,-284.086"/>
<polygon fill="#191970" stroke="#191970" points="673.248,-280.631 662.7526,-282.0793 671.8603,-287.4921 673.248,-280.631"/>
</g>
<!-- Node2 -->
<g id="node3" class="node">
<title>Node2</title>
<polygon fill="none" stroke="#bfbfbf" points="702,-263 702,-282 794,-282 794,-263 702,-263"/>
<text text-anchor="middle" x="748" y="-270" font-family="Helvetica,sans-Serif" font-size="10.00" fill="#000000">TGeoManager.h</text>
</g>
<!-- Node0&#45;&gt;Node2 -->
<g id="edge2" class="edge">
<title>Node0&#45;&gt;Node2</title>
<path fill="none" stroke="#191970" d="M987.9079,-330.1159C935.2564,-318.1778 867.801,-302.6175 808,-288 803.5894,-286.9219 799.0023,-285.778 794.4169,-284.6193"/>
<polygon fill="#191970" stroke="#191970" points="795.005,-281.1574 784.4503,-282.0789 793.276,-287.9405 795.005,-281.1574"/>
</g>
<!-- Node3 -->
<g id="node4" class="node">
<title>Node3</title>
<g id="a_node4"><a xlink:href="../../d8/d72/Detectors_2MUON_2MCH_2Base_2include_2MCHBase_2Digit_8h.html" target="_top" xlink:title="MCHBase/Digit.h">
<polygon fill="none" stroke="#000000" points="641,-196 641,-215 739,-215 739,-196 641,-196"/>
<text text-anchor="middle" x="690" y="-203" font-family="Helvetica,sans-Serif" font-size="10.00" fill="#000000">MCHBase/Digit.h</text>
</a>
</g>
</g>
<!-- Node0&#45;&gt;Node3 -->
<g id="edge3" class="edge">
<title>Node0&#45;&gt;Node3</title>
<path fill="none" stroke="#191970" d="M987.8593,-334.4736C943.3731,-324.5977 889.9019,-309.6026 845,-288 824.0931,-277.9415 822.9974,-268.7634 803,-257 777.6346,-242.0789 747.1925,-228.428 724.299,-218.9349"/>
<polygon fill="#191970" stroke="#191970" points="725.5674,-215.6723 714.9865,-215.1294 722.9195,-222.1522 725.5674,-215.6723"/>
</g>
<!-- Node5 -->
<g id="node6" class="node">
<title>Node5</title>
<g id="a_node6"><a xlink:href="../../da/d5e/MUON_2MCH_2Simulation_2include_2MCHSimulation_2Digitizer_8h.html" target="_top" xlink:title="MCHSimulation/Digitizer.h">
<polygon fill="none" stroke="#000000" points="888,-263 888,-282 1032,-282 1032,-263 888,-263"/>
<text text-anchor="middle" x="960" y="-270" font-family="Helvetica,sans-Serif" font-size="10.00" fill="#000000">MCHSimulation/Digitizer.h</text>
</a>
</g>
</g>
<!-- Node0&#45;&gt;Node5 -->
<g id="edge5" class="edge">
<title>Node0&#45;&gt;Node5</title>
<path fill="none" stroke="#191970" d="M1039.0437,-324.3101C1020.5303,-312.1753 999.1771,-298.1791 983.335,-287.7952"/>
<polygon fill="#191970" stroke="#191970" points="984.9896,-284.6949 974.7074,-282.1401 981.1522,-290.5493 984.9896,-284.6949"/>
</g>
<!-- Node6 -->
<g id="node7" class="node">
<title>Node6</title>
<g id="a_node7"><a xlink:href="../../d5/daf/Detectors_2MUON_2MCH_2Simulation_2include_2MCHSimulation_2Hit_8h.html" target="_top" xlink:title="MCHSimulation/Hit.h">
<polygon fill="none" stroke="#000000" points="757,-196 757,-215 875,-215 875,-196 757,-196"/>
<text text-anchor="middle" x="816" y="-203" font-family="Helvetica,sans-Serif" font-size="10.00" fill="#000000">MCHSimulation/Hit.h</text>
</a>
</g>
</g>
<!-- Node0&#45;&gt;Node6 -->
<g id="edge41" class="edge">
<title>Node0&#45;&gt;Node6</title>
<path fill="none" stroke="#191970" d="M987.7738,-334.5119C951.6223,-325.1077 911.1112,-310.4792 879,-288 855.1131,-271.2782 836.2549,-242.7389 825.6106,-223.9994"/>
<polygon fill="#191970" stroke="#191970" points="828.6743,-222.307 820.8098,-215.2076 822.5305,-225.6618 828.6743,-222.307"/>
</g>
<!-- Node26 -->
<g id="node27" class="node">
<title>Node26</title>
<g id="a_node27"><a xlink:href="../../d7/dcd/MCCompLabel_8h.html" target="_top" xlink:title="SimulationDataFormat\l/MCCompLabel.h">
<polygon fill="none" stroke="#000000" points="893.5,-190.5 893.5,-220.5 1020.5,-220.5 1020.5,-190.5 893.5,-190.5"/>
<text text-anchor="start" x="901.5" y="-208.5" font-family="Helvetica,sans-Serif" font-size="10.00" fill="#000000">SimulationDataFormat</text>
<text text-anchor="middle" x="957" y="-197.5" font-family="Helvetica,sans-Serif" font-size="10.00" fill="#000000">/MCCompLabel.h</text>
</a>
</g>
</g>
<!-- Node0&#45;&gt;Node26 -->
<g id="edge59" class="edge">
<title>Node0&#45;&gt;Node26</title>
<path fill="none" stroke="#191970" d="M1073.1468,-324.3528C1067.58,-304.1778 1057.5472,-276.5099 1041,-257 1030.1991,-244.2652 1015.4215,-233.7541 1001.2704,-225.6226"/>
<polygon fill="#191970" stroke="#191970" points="1002.5643,-222.3415 992.1097,-220.6232 999.2109,-228.486 1002.5643,-222.3415"/>
</g>
<!-- Node28 -->
<g id="node29" class="node">
<title>Node28</title>
<g id="a_node29"><a xlink:href="../../db/d14/MCTruthContainer_8h.html" target="_top" xlink:title="Definition of a container to keep Monte Carlo truth external to simulation objects. ">
<polygon fill="none" stroke="#000000" points="1038.5,-190.5 1038.5,-220.5 1165.5,-220.5 1165.5,-190.5 1038.5,-190.5"/>
<text text-anchor="start" x="1046.5" y="-208.5" font-family="Helvetica,sans-Serif" font-size="10.00" fill="#000000">SimulationDataFormat</text>
<text text-anchor="middle" x="1102" y="-197.5" font-family="Helvetica,sans-Serif" font-size="10.00" fill="#000000">/MCTruthContainer.h</text>
</a>
</g>
</g>
<!-- Node0&#45;&gt;Node28 -->
<g id="edge60" class="edge">
<title>Node0&#45;&gt;Node28</title>
<path fill="none" stroke="#191970" d="M1083.1651,-324.2416C1087.3749,-297.702 1093.8352,-256.9737 1097.989,-230.787"/>
<polygon fill="#191970" stroke="#191970" points="1101.4527,-231.2912 1099.5626,-220.8663 1094.5391,-230.1945 1101.4527,-231.2912"/>
</g>
<!-- Node36 -->
<g id="node37" class="node">
<title>Node36</title>
<g id="a_node37"><a xlink:href="../../d5/dc1/MUON_2MCH_2Simulation_2include_2MCHSimulation_2Geometry_8h.html" target="_top" xlink:title="MCHSimulation/Geometry.h">
<polygon fill="none" stroke="#000000" points="1183.5,-196 1183.5,-215 1334.5,-215 1334.5,-196 1183.5,-196"/>
<text text-anchor="middle" x="1259" y="-203" font-family="Helvetica,sans-Serif" font-size="10.00" fill="#000000">MCHSimulation/Geometry.h</text>
</a>
</g>
</g>
<!-- Node0&#45;&gt;Node36 -->
<g id="edge42" class="edge">
<title>Node0&#45;&gt;Node36</title>
<path fill="none" stroke="#191970" d="M1095.8201,-324.1048C1109.774,-303.793 1131.1378,-276.0622 1155,-257 1175.3402,-240.7513 1201.642,-227.7853 1222.7058,-218.9276"/>
<polygon fill="#191970" stroke="#191970" points="1224.0354,-222.1653 1231.9749,-215.1499 1221.3934,-215.683 1224.0354,-222.1653"/>
</g>
<!-- Node38 -->
<g id="node39" class="node">
<title>Node38</title>
<g id="a_node39"><a xlink:href="../../de/d04/GeometryTest_8h.html" target="_top" xlink:title="MCHSimulation/GeometryTest.h">
<polygon fill="none" stroke="#000000" points="1164,-263 1164,-282 1336,-282 1336,-263 1164,-263"/>
<text text-anchor="middle" x="1250" y="-270" font-family="Helvetica,sans-Serif" font-size="10.00" fill="#000000">MCHSimulation/GeometryTest.h</text>
</a>
</g>
</g>
<!-- Node0&#45;&gt;Node38 -->
<g id="edge46" class="edge">
<title>Node0&#45;&gt;Node38</title>
<path fill="none" stroke="#191970" d="M1136.4162,-324.3101C1164.2627,-311.6083 1196.5801,-296.867 1219.6064,-286.3637"/>
<polygon fill="#191970" stroke="#191970" points="1221.2202,-289.4746 1228.8659,-282.1401 1218.3152,-283.1059 1221.2202,-289.4746"/>
</g>
<!-- Node39 -->
<g id="node40" class="node">
<title>Node39</title>
<g id="a_node40"><a xlink:href="../../d6/d1f/MUON_2MCH_2Mapping_2Interface_2include_2MCHMappingInterface_2Segmentation_8h.html" target="_top" xlink:title="MCHMappingInterface\l/Segmentation.h">
<polygon fill="none" stroke="#000000" points="1354,-257.5 1354,-287.5 1478,-287.5 1478,-257.5 1354,-257.5"/>
<text text-anchor="start" x="1362" y="-275.5" font-family="Helvetica,sans-Serif" font-size="10.00" fill="#000000">MCHMappingInterface</text>
<text text-anchor="middle" x="1416" y="-264.5" font-family="Helvetica,sans-Serif" font-size="10.00" fill="#000000">/Segmentation.h</text>
</a>
</g>
</g>
<!-- Node0&#45;&gt;Node39 -->
<g id="edge48" class="edge">
<title>Node0&#45;&gt;Node39</title>
<path fill="none" stroke="#191970" d="M1170.1971,-329.3921C1224.7469,-316.7663 1293.097,-300.9464 1343.8655,-289.1958"/>
<polygon fill="#191970" stroke="#191970" points="1344.8223,-292.567 1353.7755,-286.9021 1343.2438,-285.7472 1344.8223,-292.567"/>
</g>
<!-- Node46 -->
<g id="node47" class="node">
<title>Node46</title>
<polygon fill="none" stroke="#bfbfbf" points="1496.5,-263 1496.5,-282 1597.5,-282 1597.5,-263 1496.5,-263"/>
<text text-anchor="middle" x="1547" y="-270" font-family="Helvetica,sans-Serif" font-size="10.00" fill="#000000">boost/format.hpp</text>
</g>
<!-- Node0&#45;&gt;Node46 -->
<g id="edge61" class="edge">
<title>Node0&#45;&gt;Node46</title>
<path fill="none" stroke="#191970" d="M1170.2138,-339.206C1253.2095,-328.2955 1378.897,-310.1844 1487,-288 1492.0735,-286.9588 1497.3607,-285.7611 1502.6017,-284.5026"/>
<polygon fill="#191970" stroke="#191970" points="1503.6926,-287.8381 1512.5552,-282.0325 1502.0066,-281.0442 1503.6926,-287.8381"/>
</g>
<!-- Node47 -->
<g id="node48" class="node">
<title>Node47</title>
<polygon fill="none" stroke="#bfbfbf" points="1616,-257.5 1616,-287.5 1728,-287.5 1728,-257.5 1616,-257.5"/>
<text text-anchor="start" x="1624" y="-275.5" font-family="Helvetica,sans-Serif" font-size="10.00" fill="#000000">boost/test/data/test</text>
<text text-anchor="middle" x="1672" y="-264.5" font-family="Helvetica,sans-Serif" font-size="10.00" fill="#000000">_case.hpp</text>
</g>
<!-- Node0&#45;&gt;Node47 -->
<g id="edge62" class="edge">
<title>Node0&#45;&gt;Node47</title>
<path fill="none" stroke="#191970" d="M1170.098,-342.9599C1273.5448,-333.6641 1447.4602,-315.8162 1605.79,-288.0992"/>
<polygon fill="#191970" stroke="#191970" points="1606.4755,-291.5324 1615.7136,-286.3453 1605.2571,-284.6392 1606.4755,-291.5324"/>
</g>
<!-- Node4 -->
<g id="node5" class="node">
<title>Node4</title>
<polygon fill="none" stroke="#bfbfbf" points="526.5,-6 526.5,-25 585.5,-25 585.5,-6 526.5,-6"/>
<text text-anchor="middle" x="556" y="-13" font-family="Helvetica,sans-Serif" font-size="10.00" fill="#000000">Rtypes.h</text>
</g>
<!-- Node3&#45;&gt;Node4 -->
<g id="edge4" class="edge">
<title>Node3&#45;&gt;Node4</title>
<path fill="none" stroke="#191970" d="M640.6799,-200.8165C557.2679,-192.394 395.725,-173.7223 379,-154 370.0889,-143.4919 372.244,-135.0076 379,-123 395.212,-94.1859 479.4866,-51.2885 525.6598,-29.4156"/>
<polygon fill="#191970" stroke="#191970" points="527.3311,-32.4975 534.8961,-25.0799 524.3565,-26.1609 527.3311,-32.4975"/>
</g>
<!-- Node5&#45;&gt;Node3 -->
<g id="edge6" class="edge">
<title>Node5&#45;&gt;Node3</title>
<path fill="none" stroke="#191970" d="M919.6846,-262.9958C876.9852,-252.8618 807.6393,-236.2109 748,-221 743.8529,-219.9423 739.5439,-218.8251 735.2318,-217.6947"/>
<polygon fill="#191970" stroke="#191970" points="735.8011,-214.2251 725.2388,-215.0551 734.0133,-220.993 735.8011,-214.2251"/>
</g>
<!-- Node5&#45;&gt;Node6 -->
<g id="edge7" class="edge">
<title>Node5&#45;&gt;Node6</title>
<path fill="none" stroke="#191970" d="M939.3683,-262.9005C914.8811,-251.5072 873.8532,-232.4178 845.8907,-219.4075"/>
<polygon fill="#191970" stroke="#191970" points="847.1366,-216.1269 836.5934,-215.0817 844.1836,-222.4736 847.1366,-216.1269"/>
</g>
<!-- Node5&#45;&gt;Node26 -->
<g id="edge28" class="edge">
<title>Node5&#45;&gt;Node26</title>
<path fill="none" stroke="#191970" d="M959.5702,-262.9005C959.1945,-254.5099 958.6319,-241.9451 958.1287,-230.7085"/>
<polygon fill="#191970" stroke="#191970" points="961.6165,-230.3552 957.6726,-220.5218 954.6235,-230.6683 961.6165,-230.3552"/>
</g>
<!-- Node5&#45;&gt;Node28 -->
<g id="edge31" class="edge">
<title>Node5&#45;&gt;Node28</title>
<path fill="none" stroke="#191970" d="M980.3451,-262.9005C1001.245,-253.0393 1034.3639,-237.4128 1060.7721,-224.9526"/>
<polygon fill="#191970" stroke="#191970" points="1062.6125,-227.9543 1070.1628,-220.5218 1059.6254,-221.6236 1062.6125,-227.9543"/>
</g>
<!-- Node7 -->
<g id="node8" class="node">
<title>Node7</title>
<g id="a_node8"><a xlink:href="../../d4/d25/BaseHits_8h.html" target="_top" xlink:title="SimulationDataFormat\l/BaseHits.h">
<polygon fill="none" stroke="#000000" points="566.5,-123.5 566.5,-153.5 693.5,-153.5 693.5,-123.5 566.5,-123.5"/>
<text text-anchor="start" x="574.5" y="-141.5" font-family="Helvetica,sans-Serif" font-size="10.00" fill="#000000">SimulationDataFormat</text>
<text text-anchor="middle" x="630" y="-130.5" font-family="Helvetica,sans-Serif" font-size="10.00" fill="#000000">/BaseHits.h</text>
</a>
</g>
</g>
<!-- Node6&#45;&gt;Node7 -->
<g id="edge8" class="edge">
<title>Node6&#45;&gt;Node7</title>
<path fill="none" stroke="#191970" d="M789.3507,-195.9005C761.2544,-185.7798 716.2995,-169.5864 681.2905,-156.9756"/>
<polygon fill="#191970" stroke="#191970" points="682.2966,-153.6179 671.7022,-153.5218 679.9243,-160.2037 682.2966,-153.6179"/>
</g>
<!-- Node18 -->
<g id="node19" class="node">
<title>Node18</title>
<g id="a_node19"><a xlink:href="../../d0/d91/ShmAllocator_8h.html" target="_top" xlink:title="CommonUtils/ShmAllocator.h">
<polygon fill="none" stroke="#000000" points="388,-129 388,-148 548,-148 548,-129 388,-129"/>
<text text-anchor="middle" x="468" y="-136" font-family="Helvetica,sans-Serif" font-size="10.00" fill="#000000">CommonUtils/ShmAllocator.h</text>
</a>
</g>
</g>
<!-- Node6&#45;&gt;Node18 -->
<g id="edge20" class="edge">
<title>Node6&#45;&gt;Node18</title>
<path fill="none" stroke="#191970" d="M775.429,-195.9574C766.4143,-193.9194 756.8948,-191.8309 748,-190 707.5678,-181.6775 600.6933,-162.2904 531.2944,-149.8207"/>
<polygon fill="#191970" stroke="#191970" points="531.8007,-146.3557 521.3395,-148.0332 530.5635,-153.2455 531.8007,-146.3557"/>
</g>
<!-- Node8 -->
<g id="node9" class="node">
<title>Node8</title>
<g id="a_node9"><a xlink:href="../../dc/d73/Cartesian_8h.html" target="_top" xlink:title="MathUtils/Cartesian.h">
<polygon fill="none" stroke="#000000" points="1198,-67.5 1198,-86.5 1320,-86.5 1320,-67.5 1198,-67.5"/>
<text text-anchor="middle" x="1259" y="-74.5" font-family="Helvetica,sans-Serif" font-size="10.00" fill="#000000">MathUtils/Cartesian.h</text>
</a>
</g>
</g>
<!-- Node7&#45;&gt;Node8 -->
<g id="edge9" class="edge">
<title>Node7&#45;&gt;Node8</title>
<path fill="none" stroke="#191970" d="M693.5216,-124.358C696.3814,-123.8688 699.2174,-123.4126 702,-123 875.2358,-97.3104 1081.0688,-84.9794 1187.4226,-79.9402"/>
<polygon fill="#191970" stroke="#191970" points="1187.8852,-83.4226 1197.7114,-79.4608 1187.5593,-76.4301 1187.8852,-83.4226"/>
</g>
<!-- Node8&#45;&gt;Node4 -->
<g id="edge17" class="edge">
<title>Node8&#45;&gt;Node4</title>
<path fill="none" stroke="#191970" d="M1197.7582,-75.1711C1055.999,-70.5477 708.7304,-56.8782 595,-31 592.136,-30.3483 589.207,-29.5176 586.3043,-28.5802"/>
<polygon fill="#191970" stroke="#191970" points="587.2646,-25.2055 576.6704,-25.0884 584.8792,-31.7866 587.2646,-25.2055"/>
</g>
<!-- Node9 -->
<g id="node10" class="node">
<title>Node9</title>
<polygon fill="none" stroke="#bfbfbf" points="1540,-.5 1540,-30.5 1704,-30.5 1704,-.5 1540,-.5"/>
<text text-anchor="start" x="1548" y="-18.5" font-family="Helvetica,sans-Serif" font-size="10.00" fill="#000000">Math/GenVector/Displacement</text>
<text text-anchor="middle" x="1622" y="-7.5" font-family="Helvetica,sans-Serif" font-size="10.00" fill="#000000">Vector3D.h</text>
</g>
<!-- Node8&#45;&gt;Node9 -->
<g id="edge10" class="edge">
<title>Node8&#45;&gt;Node9</title>
<path fill="none" stroke="#191970" d="M1315.5258,-67.4604C1368.2871,-58.5517 1449.5142,-44.825 1529.418,-31.2675"/>
<polygon fill="#191970" stroke="#191970" points="1530.3874,-34.6531 1539.6609,-29.5293 1529.2162,-27.7518 1530.3874,-34.6531"/>
</g>
<!-- Node10 -->
<g id="node11" class="node">
<title>Node10</title>
<polygon fill="none" stroke="#bfbfbf" points="1722.5,-6 1722.5,-25 1911.5,-25 1911.5,-6 1722.5,-6"/>
<text text-anchor="middle" x="1817" y="-13" font-family="Helvetica,sans-Serif" font-size="10.00" fill="#000000">Math/GenVector/PositionVector3D.h</text>
</g>
<!-- Node8&#45;&gt;Node10 -->
<g id="edge11" class="edge">
<title>Node8&#45;&gt;Node10</title>
<path fill="none" stroke="#191970" d="M1320.0523,-71.7318C1407.3157,-63.9934 1572.6809,-48.5553 1713,-31 1723.748,-29.6553 1735.1007,-28.1013 1746.2005,-26.5072"/>
<polygon fill="#191970" stroke="#191970" points="1746.9072,-29.9413 1756.2985,-25.0368 1745.8985,-23.0143 1746.9072,-29.9413"/>
</g>
<!-- Node11 -->
<g id="node12" class="node">
<title>Node11</title>
<polygon fill="none" stroke="#bfbfbf" points="1930,-6 1930,-25 2090,-25 2090,-6 1930,-6"/>
<text text-anchor="middle" x="2010" y="-13" font-family="Helvetica,sans-Serif" font-size="10.00" fill="#000000">Math/GenVector/Rotation3D.h</text>
</g>
<!-- Node8&#45;&gt;Node11 -->
<g id="edge12" class="edge">
<title>Node8&#45;&gt;Node11</title>
<path fill="none" stroke="#191970" d="M1320.3499,-74.8504C1437.4651,-70.2793 1700.8441,-57.7476 1921,-31 1930.591,-29.8347 1940.7197,-28.3328 1950.5718,-26.7236"/>
<polygon fill="#191970" stroke="#191970" points="1951.4245,-30.1294 1960.7046,-25.0175 1950.2622,-23.2266 1951.4245,-30.1294"/>
</g>
<!-- Node12 -->
<g id="node13" class="node">
<title>Node12</title>
<polygon fill="none" stroke="#bfbfbf" points="604,-6 604,-25 772,-25 772,-6 604,-6"/>
<text text-anchor="middle" x="688" y="-13" font-family="Helvetica,sans-Serif" font-size="10.00" fill="#000000">Math/GenVector/Transform3D.h</text>
</g>
<!-- Node8&#45;&gt;Node12 -->
<g id="edge13" class="edge">
<title>Node8&#45;&gt;Node12</title>
<path fill="none" stroke="#191970" d="M1197.7277,-72.4683C1106.6362,-65.4225 930.2015,-50.5887 781,-31 771.4843,-29.7507 761.449,-28.2606 751.6312,-26.7055"/>
<polygon fill="#191970" stroke="#191970" points="751.9402,-23.21 741.5097,-25.0688 750.8228,-30.1203 751.9402,-23.21"/>
</g>
<!-- Node13 -->
<g id="node14" class="node">
<title>Node13</title>
<polygon fill="none" stroke="#bfbfbf" points="790.5,-6 790.5,-25 963.5,-25 963.5,-6 790.5,-6"/>
<text text-anchor="middle" x="877" y="-13" font-family="Helvetica,sans-Serif" font-size="10.00" fill="#000000">Math/GenVector/Translation3D.h</text>
</g>
<!-- Node8&#45;&gt;Node13 -->
<g id="edge14" class="edge">
<title>Node8&#45;&gt;Node13</title>
<path fill="none" stroke="#191970" d="M1199.8413,-67.4956C1142.0047,-58.2012 1051.4476,-43.6417 973,-31 964.2808,-29.5949 955.1164,-28.1168 946.0528,-26.6543"/>
<polygon fill="#191970" stroke="#191970" points="946.3216,-23.1524 935.8917,-25.0143 945.2062,-30.063 946.3216,-23.1524"/>
</g>
<!-- Node14 -->
<g id="node15" class="node">
<title>Node14</title>
<polygon fill="none" stroke="#bfbfbf" points="982,-.5 982,-30.5 1146,-30.5 1146,-.5 982,-.5"/>
<text text-anchor="start" x="990" y="-18.5" font-family="Helvetica,sans-Serif" font-size="10.00" fill="#000000">Math/GenVector/Displacement</text>
<text text-anchor="middle" x="1064" y="-7.5" font-family="Helvetica,sans-Serif" font-size="10.00" fill="#000000">Vector2D.h</text>
</g>
<!-- Node8&#45;&gt;Node14 -->
<g id="edge15" class="edge">
<title>Node8&#45;&gt;Node14</title>
<path fill="none" stroke="#191970" d="M1228.5313,-67.3906C1199.9411,-58.3737 1156.447,-44.6563 1121.3572,-33.5896"/>
<polygon fill="#191970" stroke="#191970" points="1122.2921,-30.2145 1111.7024,-30.5446 1120.1866,-36.8904 1122.2921,-30.2145"/>
</g>
<!-- Node15 -->
<g id="node16" class="node">
<title>Node15</title>
<polygon fill="none" stroke="#bfbfbf" points="1164.5,-6 1164.5,-25 1353.5,-25 1353.5,-6 1164.5,-6"/>
<text text-anchor="middle" x="1259" y="-13" font-family="Helvetica,sans-Serif" font-size="10.00" fill="#000000">Math/GenVector/PositionVector2D.h</text>
</g>
<!-- Node8&#45;&gt;Node15 -->
<g id="edge16" class="edge">
<title>Node8&#45;&gt;Node15</title>
<path fill="none" stroke="#191970" d="M1259,-67.3906C1259,-58.8657 1259,-46.1392 1259,-35.4235"/>
<polygon fill="#191970" stroke="#191970" points="1262.5001,-35.2448 1259,-25.2449 1255.5001,-35.2449 1262.5001,-35.2448"/>
</g>
<!-- Node16 -->
<g id="node17" class="node">
<title>Node16</title>
<polygon fill="none" stroke="#bfbfbf" points="1372,-6 1372,-25 1454,-25 1454,-6 1372,-6"/>
<text text-anchor="middle" x="1413" y="-13" font-family="Helvetica,sans-Serif" font-size="10.00" fill="#000000">TGeoMatrix.h</text>
</g>
<!-- Node8&#45;&gt;Node16 -->
<g id="edge18" class="edge">
<title>Node8&#45;&gt;Node16</title>
<path fill="none" stroke="#191970" d="M1283.0625,-67.3906C1309.0556,-57.0103 1350.6478,-40.4004 1379.7547,-28.7766"/>
<polygon fill="#191970" stroke="#191970" points="1381.1177,-32.0011 1389.1065,-25.0419 1378.5215,-25.5003 1381.1177,-32.0011"/>
</g>
<!-- Node17 -->
<g id="node18" class="node">
<title>Node17</title>
<polygon fill="none" stroke="#bfbfbf" points="1472.5,-6 1472.5,-25 1521.5,-25 1521.5,-6 1472.5,-6"/>
<text text-anchor="middle" x="1497" y="-13" font-family="Helvetica,sans-Serif" font-size="10.00" fill="#000000">iosfwd</text>
</g>
<!-- Node8&#45;&gt;Node17 -->
<g id="edge19" class="edge">
<title>Node8&#45;&gt;Node17</title>
<path fill="none" stroke="#191970" d="M1315.7038,-67.4627C1357.1224,-59.7169 1414.3125,-47.392 1463,-31 1464.8444,-30.379 1466.7235,-29.6907 1468.6038,-28.9594"/>
<polygon fill="#191970" stroke="#191970" points="1470.0052,-32.167 1477.86,-25.0569 1467.2857,-25.7168 1470.0052,-32.167"/>
</g>
<!-- Node19 -->
<g id="node20" class="node">
<title>Node19</title>
<g id="a_node20"><a xlink:href="../../de/d61/ShmManager_8h.html" target="_top" xlink:title="CommonUtils/ShmManager.h">
<polygon fill="none" stroke="#000000" points="121,-67.5 121,-86.5 279,-86.5 279,-67.5 121,-67.5"/>
<text text-anchor="middle" x="200" y="-74.5" font-family="Helvetica,sans-Serif" font-size="10.00" fill="#000000">CommonUtils/ShmManager.h</text>
</a>
</g>
</g>
<!-- Node18&#45;&gt;Node19 -->
<g id="edge21" class="edge">
<title>Node18&#45;&gt;Node19</title>
<path fill="none" stroke="#191970" d="M426.419,-128.9581C379.2795,-118.1406 302.3887,-100.4959 251.4943,-88.8168"/>
<polygon fill="#191970" stroke="#191970" points="252.208,-85.3897 241.6785,-86.5643 250.6423,-92.2123 252.208,-85.3897"/>
</g>
<!-- Node25 -->
<g id="node26" class="node">
<title>Node25</title>
<polygon fill="none" stroke="#bfbfbf" points="856,-67.5 856,-86.5 908,-86.5 908,-67.5 856,-67.5"/>
<text text-anchor="middle" x="882" y="-74.5" font-family="Helvetica,sans-Serif" font-size="10.00" fill="#000000">cassert</text>
</g>
<!-- Node18&#45;&gt;Node25 -->
<g id="edge27" class="edge">
<title>Node18&#45;&gt;Node25</title>
<path fill="none" stroke="#191970" d="M521.1341,-128.9614C532.9308,-126.9232 545.3808,-124.8336 557,-123 661.6092,-106.4919 785.611,-89.71 845.7209,-81.7514"/>
<polygon fill="#191970" stroke="#191970" points="846.3834,-85.1944 855.8391,-80.4153 845.467,-78.2547 846.3834,-85.1944"/>
</g>
<!-- Node20 -->
<g id="node21" class="node">
<title>Node20</title>
<polygon fill="none" stroke="#bfbfbf" points="0,-6 0,-25 32,-25 32,-6 0,-6"/>
<text text-anchor="middle" x="16" y="-13" font-family="Helvetica,sans-Serif" font-size="10.00" fill="#000000">list</text>
</g>
<!-- Node19&#45;&gt;Node20 -->
<g id="edge22" class="edge">
<title>Node19&#45;&gt;Node20</title>
<path fill="none" stroke="#191970" d="M154.984,-67.456C122.4984,-59.7419 78.0245,-47.459 41,-31 40.3,-30.6888 39.5963,-30.3609 38.8915,-30.0193"/>
<polygon fill="#191970" stroke="#191970" points="40.353,-26.828 29.9081,-25.0518 36.9657,-32.9539 40.353,-26.828"/>
</g>
<!-- Node21 -->
<g id="node22" class="node">
<title>Node21</title>
<polygon fill="none" stroke="#bfbfbf" points="50.5,-6 50.5,-25 103.5,-25 103.5,-6 50.5,-6"/>
<text text-anchor="middle" x="77" y="-13" font-family="Helvetica,sans-Serif" font-size="10.00" fill="#000000">cstddef</text>
</g>
<!-- Node19&#45;&gt;Node21 -->
<g id="edge23" class="edge">
<title>Node19&#45;&gt;Node21</title>
<path fill="none" stroke="#191970" d="M180.7813,-67.3906C160.4719,-57.2359 128.2393,-41.1196 105.0832,-29.5416"/>
<polygon fill="#191970" stroke="#191970" points="106.5933,-26.3836 96.0838,-25.0419 103.4628,-32.6446 106.5933,-26.3836"/>
</g>
<!-- Node22 -->
<g id="node23" class="node">
<title>Node22</title>
<polygon fill="none" stroke="#bfbfbf" points="122,-6 122,-25 172,-25 172,-6 122,-6"/>
<text text-anchor="middle" x="147" y="-13" font-family="Helvetica,sans-Serif" font-size="10.00" fill="#000000">atomic</text>
</g>
<!-- Node19&#45;&gt;Node22 -->
<g id="edge24" class="edge">
<title>Node19&#45;&gt;Node22</title>
<path fill="none" stroke="#191970" d="M191.7188,-67.3906C183.8307,-58.2376 171.7686,-44.2409 162.1588,-33.09"/>
<polygon fill="#191970" stroke="#191970" points="164.5775,-30.5352 155.398,-25.2449 159.2749,-35.1049 164.5775,-30.5352"/>
</g>
<!-- Node23 -->
<g id="node24" class="node">
<title>Node23</title>
<polygon fill="none" stroke="#bfbfbf" points="190.5,-.5 190.5,-30.5 355.5,-30.5 355.5,-.5 190.5,-.5"/>
<text text-anchor="start" x="198.5" y="-18.5" font-family="Helvetica,sans-Serif" font-size="10.00" fill="#000000">boost/interprocess</text>
<text text-anchor="middle" x="273" y="-7.5" font-family="Helvetica,sans-Serif" font-size="10.00" fill="#000000">/managed_external_buffer.hpp</text>
</g>
<!-- Node19&#45;&gt;Node23 -->
<g id="edge25" class="edge">
<title>Node19&#45;&gt;Node23</title>
<path fill="none" stroke="#191970" d="M211.4063,-67.3906C221.0115,-59.2986 235.1104,-47.4207 247.396,-37.0705"/>
<polygon fill="#191970" stroke="#191970" points="249.7495,-39.6643 255.1422,-30.5446 245.2394,-34.3109 249.7495,-39.6643"/>
</g>
<!-- Node24 -->
<g id="node25" class="node">
<title>Node24</title>
<polygon fill="none" stroke="#bfbfbf" points="374,-.5 374,-30.5 508,-30.5 508,-.5 374,-.5"/>
<text text-anchor="start" x="382" y="-18.5" font-family="Helvetica,sans-Serif" font-size="10.00" fill="#000000">boost/interprocess</text>
<text text-anchor="middle" x="441" y="-7.5" font-family="Helvetica,sans-Serif" font-size="10.00" fill="#000000">/allocators/allocator.hpp</text>
</g>
<!-- Node19&#45;&gt;Node24 -->
<g id="edge26" class="edge">
<title>Node19&#45;&gt;Node24</title>
<path fill="none" stroke="#191970" d="M237.3918,-67.4581C273.2832,-58.2991 328.3538,-44.2458 372.1756,-33.0631"/>
<polygon fill="#191970" stroke="#191970" points="373.0882,-36.4424 381.9122,-30.5784 371.3573,-29.6598 373.0882,-36.4424"/>
</g>
<!-- Node27 -->
<g id="node28" class="node">
<title>Node27</title>
<g id="a_node28"><a xlink:href="../../d2/d45/GPUCommonRtypes_8h.html" target="_top" xlink:title="GPUCommonRtypes.h">
<polygon fill="none" stroke="#000000" points="711.5,-129 711.5,-148 836.5,-148 836.5,-129 711.5,-129"/>
<text text-anchor="middle" x="774" y="-136" font-family="Helvetica,sans-Serif" font-size="10.00" fill="#000000">GPUCommonRtypes.h</text>
</a>
</g>
</g>
<!-- Node26&#45;&gt;Node27 -->
<g id="edge29" class="edge">
<title>Node26&#45;&gt;Node27</title>
<path fill="none" stroke="#191970" d="M915.9312,-190.4639C884.025,-178.7824 840.2212,-162.7449 809.7488,-151.5884"/>
<polygon fill="#191970" stroke="#191970" points="810.556,-148.1567 799.9622,-148.0053 808.1493,-154.73 810.556,-148.1567"/>
</g>
<!-- Node27&#45;&gt;Node4 -->
<g id="edge30" class="edge">
<title>Node27&#45;&gt;Node4</title>
<path fill="none" stroke="#191970" d="M756.8939,-128.8484C718.8483,-107.3823 627.0319,-55.5776 581.9102,-30.1191"/>
<polygon fill="#191970" stroke="#191970" points="583.4559,-26.9725 573.0266,-25.1068 580.0161,-33.0691 583.4559,-26.9725"/>
</g>
<!-- Node28&#45;&gt;Node25 -->
<g id="edge34" class="edge">
<title>Node28&#45;&gt;Node25</title>
<path fill="none" stroke="#191970" d="M1116.9261,-190.3539C1132.5892,-172.612 1152.7822,-143.0945 1136,-123 1108.7085,-90.322 982.004,-80.8116 918.4933,-78.0798"/>
<polygon fill="#191970" stroke="#191970" points="918.2672,-74.5683 908.1368,-77.6706 917.9908,-81.5628 918.2672,-74.5683"/>
</g>
<!-- Node28&#45;&gt;Node27 -->
<g id="edge32" class="edge">
<title>Node28&#45;&gt;Node27</title>
<path fill="none" stroke="#191970" d="M1038.3105,-191.9182C1035.1632,-191.2655 1032.0464,-190.623 1029,-190 947.7888,-173.3912 927.1877,-170.7232 846,-154 840.1433,-152.7936 834.0237,-151.5108 827.9326,-150.2196"/>
<polygon fill="#191970" stroke="#191970" points="828.2702,-146.713 817.7602,-148.0509 826.8106,-153.5591 828.2702,-146.713"/>
</g>
<!-- Node29 -->
<g id="node30" class="node">
<title>Node29</title>
<polygon fill="none" stroke="#bfbfbf" points="855,-129 855,-148 905,-148 905,-129 855,-129"/>
<text text-anchor="middle" x="880" y="-136" font-family="Helvetica,sans-Serif" font-size="10.00" fill="#000000">cstdint</text>
</g>
<!-- Node28&#45;&gt;Node29 -->
<g id="edge33" class="edge">
<title>Node28&#45;&gt;Node29</title>
<path fill="none" stroke="#191970" d="M1038.1133,-190.7075C1001.3598,-181.5282 954.5679,-168.6962 914,-154 912.3646,-153.4076 910.6988,-152.7692 909.0269,-152.101"/>
<polygon fill="#191970" stroke="#191970" points="910.1256,-148.7646 899.5541,-148.0604 907.3791,-155.2033 910.1256,-148.7646"/>
</g>
<!-- Node30 -->
<g id="node31" class="node">
<title>Node30</title>
<polygon fill="none" stroke="#bfbfbf" points="1287.5,-129 1287.5,-148 1352.5,-148 1352.5,-129 1287.5,-129"/>
<text text-anchor="middle" x="1320" y="-136" font-family="Helvetica,sans-Serif" font-size="10.00" fill="#000000">stdexcept</text>
</g>
<!-- Node28&#45;&gt;Node30 -->
<g id="edge35" class="edge">
<title>Node28&#45;&gt;Node30</title>
<path fill="none" stroke="#191970" d="M1150.9235,-190.4639C1189.593,-178.5792 1242.9328,-162.1858 1279.2934,-151.0108"/>
<polygon fill="#191970" stroke="#191970" points="1280.5419,-154.2887 1289.0724,-148.0053 1278.4854,-147.5976 1280.5419,-154.2887"/>
</g>
<!-- Node31 -->
<g id="node32" class="node">
<title>Node31</title>
<polygon fill="none" stroke="#bfbfbf" points="923,-129 923,-148 971,-148 971,-129 923,-129"/>
<text text-anchor="middle" x="947" y="-136" font-family="Helvetica,sans-Serif" font-size="10.00" fill="#000000">gsl/gsl</text>
</g>
<!-- Node28&#45;&gt;Node31 -->
<g id="edge36" class="edge">
<title>Node28&#45;&gt;Node31</title>
<path fill="none" stroke="#191970" d="M1065.2679,-190.4401C1040.9654,-180.3668 1008.4537,-166.6819 980,-154 978.8293,-153.4782 977.6373,-152.942 976.4347,-152.3968"/>
<polygon fill="#191970" stroke="#191970" points="977.7331,-149.1415 967.186,-148.1361 974.8041,-155.4993 977.7331,-149.1415"/>
</g>
<!-- Node32 -->
<g id="node33" class="node">
<title>Node32</title>
<polygon fill="none" stroke="#bfbfbf" points="989.5,-129 989.5,-148 1058.5,-148 1058.5,-129 989.5,-129"/>
<text text-anchor="middle" x="1024" y="-136" font-family="Helvetica,sans-Serif" font-size="10.00" fill="#000000">type_traits</text>
</g>
<!-- Node28&#45;&gt;Node32 -->
<g id="edge37" class="edge">
<title>Node28&#45;&gt;Node32</title>
<path fill="none" stroke="#191970" d="M1084.3006,-190.2967C1071.9119,-179.6551 1055.3865,-165.4602 1042.7685,-154.6217"/>
<polygon fill="#191970" stroke="#191970" points="1044.99,-151.9159 1035.1237,-148.055 1040.4288,-157.2259 1044.99,-151.9159"/>
</g>
<!-- Node33 -->
<g id="node34" class="node">
<title>Node33</title>
<polygon fill="none" stroke="#bfbfbf" points="1077,-129 1077,-148 1127,-148 1127,-129 1077,-129"/>
<text text-anchor="middle" x="1102" y="-136" font-family="Helvetica,sans-Serif" font-size="10.00" fill="#000000">cstring</text>
</g>
<!-- Node28&#45;&gt;Node33 -->
<g id="edge38" class="edge">
<title>Node28&#45;&gt;Node33</title>
<path fill="none" stroke="#191970" d="M1102,-190.2967C1102,-180.7699 1102,-168.3954 1102,-158.1306"/>
<polygon fill="#191970" stroke="#191970" points="1105.5001,-158.0549 1102,-148.055 1098.5001,-158.055 1105.5001,-158.0549"/>
</g>
<!-- Node34 -->
<g id="node35" class="node">
<title>Node34</title>
<polygon fill="none" stroke="#bfbfbf" points="1371,-129 1371,-148 1429,-148 1429,-129 1371,-129"/>
<text text-anchor="middle" x="1400" y="-136" font-family="Helvetica,sans-Serif" font-size="10.00" fill="#000000">memory</text>
</g>
<!-- Node28&#45;&gt;Node34 -->
<g id="edge39" class="edge">
<title>Node28&#45;&gt;Node34</title>
<path fill="none" stroke="#191970" d="M1165.6864,-191.903C1168.8345,-191.2543 1171.9523,-190.6169 1175,-190 1257.9551,-173.2097 1280.8665,-178.1 1362,-154 1364.3051,-153.3153 1366.6629,-152.5417 1369.0194,-151.7146"/>
<polygon fill="#191970" stroke="#191970" points="1370.4474,-154.9165 1378.5612,-148.1036 1367.9697,-148.3696 1370.4474,-154.9165"/>
</g>
<!-- Node35 -->
<g id="node36" class="node">
<title>Node35</title>
<polygon fill="none" stroke="#bfbfbf" points="1183.5,-129 1183.5,-148 1230.5,-148 1230.5,-129 1183.5,-129"/>
<text text-anchor="middle" x="1207" y="-136" font-family="Helvetica,sans-Serif" font-size="10.00" fill="#000000">vector</text>
</g>
<!-- Node28&#45;&gt;Node35 -->
<g id="edge40" class="edge">
<title>Node28&#45;&gt;Node35</title>
<path fill="none" stroke="#191970" d="M1125.564,-190.4639C1142.7056,-179.526 1165.8321,-164.769 1183.0602,-153.7759"/>
<polygon fill="#191970" stroke="#191970" points="1185.4018,-156.4336 1191.9491,-148.1039 1181.6364,-150.5326 1185.4018,-156.4336"/>
</g>
<!-- Node36&#45;&gt;Node8 -->
<g id="edge45" class="edge">
<title>Node36&#45;&gt;Node8</title>
<path fill="none" stroke="#191970" d="M1259,-195.8416C1259,-174.9114 1259,-125.004 1259,-96.9762"/>
<polygon fill="#191970" stroke="#191970" points="1262.5001,-96.7704 1259,-86.7705 1255.5001,-96.7705 1262.5001,-96.7704"/>
</g>
<!-- Node36&#45;&gt;Node35 -->
<g id="edge43" class="edge">
<title>Node36&#45;&gt;Node35</title>
<path fill="none" stroke="#191970" d="M1251.5497,-195.9005C1243.5179,-185.552 1230.5585,-168.8542 1220.6826,-156.1295"/>
<polygon fill="#191970" stroke="#191970" points="1223.3328,-153.8356 1214.4365,-148.0817 1217.8028,-158.1275 1223.3328,-153.8356"/>
</g>
<!-- Node37 -->
<g id="node38" class="node">
<title>Node37</title>
<polygon fill="none" stroke="#bfbfbf" points="1447,-129 1447,-148 1507,-148 1507,-129 1447,-129"/>
<text text-anchor="middle" x="1477" y="-136" font-family="Helvetica,sans-Serif" font-size="10.00" fill="#000000">iostream</text>
</g>
<!-- Node36&#45;&gt;Node37 -->
<g id="edge44" class="edge">
<title>Node36&#45;&gt;Node37</title>
<path fill="none" stroke="#191970" d="M1296.0101,-195.9903C1332.4384,-186.3639 1389.4984,-170.5707 1438,-154 1440.1287,-153.2727 1442.3113,-152.4954 1444.5037,-151.6907"/>
<polygon fill="#191970" stroke="#191970" points="1445.9432,-154.8878 1454.0426,-148.0576 1443.4517,-148.3462 1445.9432,-154.8878"/>
</g>
<!-- Node38&#45;&gt;Node37 -->
<g id="edge47" class="edge">
<title>Node38&#45;&gt;Node37</title>
<path fill="none" stroke="#191970" d="M1268.1825,-262.9137C1287.2368,-252.7805 1317.9632,-236.1929 1344,-221 1364.8261,-208.8477 1420.7007,-173.8924 1453.0169,-153.5929"/>
<polygon fill="#191970" stroke="#191970" points="1455.238,-156.3309 1461.8419,-148.046 1451.5129,-150.4044 1455.238,-156.3309"/>
</g>
<!-- Node40 -->
<g id="node41" class="node">
<title>Node40</title>
<g id="a_node41"><a xlink:href="../../df/db6/CathodeSegmentation_8h.html" target="_top" xlink:title="MCHMappingInterface\l/CathodeSegmentation.h">
<polygon fill="none" stroke="#000000" points="1403.5,-190.5 1403.5,-220.5 1540.5,-220.5 1540.5,-190.5 1403.5,-190.5"/>
<text text-anchor="start" x="1411.5" y="-208.5" font-family="Helvetica,sans-Serif" font-size="10.00" fill="#000000">MCHMappingInterface</text>
<text text-anchor="middle" x="1472" y="-197.5" font-family="Helvetica,sans-Serif" font-size="10.00" fill="#000000">/CathodeSegmentation.h</text>
</a>
</g>
</g>
<!-- Node39&#45;&gt;Node40 -->
<g id="edge49" class="edge">
<title>Node39&#45;&gt;Node40</title>
<path fill="none" stroke="#191970" d="M1428.7073,-257.2967C1435.7956,-248.816 1444.7702,-238.0785 1452.7079,-228.5817"/>
<polygon fill="#191970" stroke="#191970" points="1455.6154,-230.5606 1459.343,-220.6432 1450.2444,-226.0714 1455.6154,-230.5606"/>
</g>
<!-- Node45 -->
<g id="node46" class="node">
<title>Node45</title>
<g id="a_node46"><a xlink:href="../../d0/d5f/Segmentation_8inl.html" target="_top" xlink:title="Segmentation.inl">
<polygon fill="none" stroke="#000000" points="1559,-196 1559,-215 1659,-215 1659,-196 1559,-196"/>
<text text-anchor="middle" x="1609" y="-203" font-family="Helvetica,sans-Serif" font-size="10.00" fill="#000000">Segmentation.inl</text>
</a>
</g>
</g>
<!-- Node39&#45;&gt;Node45 -->
<g id="edge58" class="edge">
<title>Node39&#45;&gt;Node45</title>
<path fill="none" stroke="#191970" d="M1459.313,-257.4639C1493.2553,-245.6808 1539.9645,-229.4657 1572.1329,-218.2984"/>
<polygon fill="#191970" stroke="#191970" points="1573.32,-221.5913 1581.6191,-215.0053 1571.0243,-214.9784 1573.32,-221.5913"/>
</g>
<!-- Node40&#45;&gt;Node30 -->
<g id="edge51" class="edge">
<title>Node40&#45;&gt;Node30</title>
<path fill="none" stroke="#191970" d="M1437.8882,-190.4639C1411.9251,-179.0196 1376.477,-163.3945 1351.2485,-152.274"/>
<polygon fill="#191970" stroke="#191970" points="1352.3502,-148.9347 1341.788,-148.1039 1349.5268,-155.3401 1352.3502,-148.9347"/>
</g>
<!-- Node40&#45;&gt;Node34 -->
<g id="edge52" class="edge">
<title>Node40&#45;&gt;Node34</title>
<path fill="none" stroke="#191970" d="M1455.6621,-190.2967C1444.3352,-179.7564 1429.2624,-165.7303 1417.6586,-154.9323"/>
<polygon fill="#191970" stroke="#191970" points="1419.9731,-152.3051 1410.268,-148.055 1415.2044,-157.4296 1419.9731,-152.3051"/>
</g>
<!-- Node40&#45;&gt;Node35 -->
<g id="edge54" class="edge">
<title>Node40&#45;&gt;Node35</title>
<path fill="none" stroke="#191970" d="M1412.5288,-190.4639C1359.41,-177.0338 1283.5187,-157.8462 1240.3723,-146.9375"/>
<polygon fill="#191970" stroke="#191970" points="1241.2082,-143.5388 1230.6553,-144.4808 1239.4923,-150.3253 1241.2082,-143.5388"/>
</g>
<!-- Node40&#45;&gt;Node37 -->
<g id="edge53" class="edge">
<title>Node40&#45;&gt;Node37</title>
<path fill="none" stroke="#191970" d="M1473.1346,-190.2967C1473.8455,-180.7699 1474.769,-168.3954 1475.535,-158.1306"/>
<polygon fill="#191970" stroke="#191970" points="1479.0329,-158.2877 1476.2869,-148.055 1472.0524,-157.7667 1479.0329,-158.2877"/>
</g>
<!-- Node41 -->
<g id="node42" class="node">
<title>Node41</title>
<g id="a_node42"><a xlink:href="../../d0/dc7/CathodeSegmentationCInterface_8h.html" target="_top" xlink:title="CathodeSegmentationCInterface.h">
<polygon fill="none" stroke="#000000" points="1525.5,-129 1525.5,-148 1710.5,-148 1710.5,-129 1525.5,-129"/>
<text text-anchor="middle" x="1618" y="-136" font-family="Helvetica,sans-Serif" font-size="10.00" fill="#000000">CathodeSegmentationCInterface.h</text>
</a>
</g>
</g>
<!-- Node40&#45;&gt;Node41 -->
<g id="edge50" class="edge">
<title>Node40&#45;&gt;Node41</title>
<path fill="none" stroke="#191970" d="M1504.7652,-190.4639C1529.5932,-179.0702 1563.4512,-163.5327 1587.6628,-152.4219"/>
<polygon fill="#191970" stroke="#191970" points="1589.4432,-155.4559 1597.0721,-148.1039 1586.5236,-149.0938 1589.4432,-155.4559"/>
</g>
<!-- Node42 -->
<g id="node43" class="node">
<title>Node42</title>
<polygon fill="none" stroke="#bfbfbf" points="1728,-129 1728,-148 1784,-148 1784,-129 1728,-129"/>
<text text-anchor="middle" x="1756" y="-136" font-family="Helvetica,sans-Serif" font-size="10.00" fill="#000000">sstream</text>
</g>
<!-- Node40&#45;&gt;Node42 -->
<g id="edge55" class="edge">
<title>Node40&#45;&gt;Node42</title>
<path fill="none" stroke="#191970" d="M1540.7732,-191.5736C1611.131,-177.2721 1711.3638,-156.7251 1720,-154 1722.109,-153.3345 1724.2628,-152.5882 1726.4159,-151.7922"/>
<polygon fill="#191970" stroke="#191970" points="1727.7209,-155.0399 1735.7109,-148.0822 1725.1259,-148.5387 1727.7209,-155.0399"/>
</g>
<!-- Node43 -->
<g id="node44" class="node">
<title>Node43</title>
<polygon fill="none" stroke="#bfbfbf" points="1802.5,-129 1802.5,-148 1867.5,-148 1867.5,-129 1802.5,-129"/>
<text text-anchor="middle" x="1835" y="-136" font-family="Helvetica,sans-Serif" font-size="10.00" fill="#000000">functional</text>
</g>
<!-- Node40&#45;&gt;Node43 -->
<g id="edge56" class="edge">
<title>Node40&#45;&gt;Node43</title>
<path fill="none" stroke="#191970" d="M1540.8693,-191.6239C1543.9527,-191.0628 1547.0072,-190.5187 1550,-190 1657.5748,-171.3545 1687.2237,-181.0441 1793,-154 1795.9909,-153.2353 1799.0647,-152.3348 1802.1237,-151.359"/>
<polygon fill="#191970" stroke="#191970" points="1803.4049,-154.6197 1811.7247,-148.0599 1801.1301,-147.9996 1803.4049,-154.6197"/>
</g>
<!-- Node44 -->
<g id="node45" class="node">
<title>Node44</title>
<polygon fill="none" stroke="#bfbfbf" points="1886,-129 1886,-148 1942,-148 1942,-129 1886,-129"/>
<text text-anchor="middle" x="1914" y="-136" font-family="Helvetica,sans-Serif" font-size="10.00" fill="#000000">iomanip</text>
</g>
<!-- Node40&#45;&gt;Node44 -->
<g id="edge57" class="edge">
<title>Node40&#45;&gt;Node44</title>
<path fill="none" stroke="#191970" d="M1540.8463,-191.4833C1543.936,-190.9602 1546.998,-190.4626 1550,-190 1694.5055,-167.7304 1735.4497,-190.6235 1877,-154 1879.4779,-153.3589 1882.0068,-152.5824 1884.5211,-151.7227"/>
<polygon fill="#191970" stroke="#191970" points="1885.9109,-154.9386 1894.0067,-148.1042 1883.4159,-148.3983 1885.9109,-154.9386"/>
</g>
</g>
</svg>
