<?xml version="1.0" encoding="UTF-8" standalone="no"?>
<!DOCTYPE svg PUBLIC "-//W3C//DTD SVG 1.1//EN"
 "http://www.w3.org/Graphics/SVG/1.1/DTD/svg11.dtd">
<!-- Generated by graphviz version 2.40.1 (20161225.0304)
 -->
<!-- Title: /home/travis/build/AliceO2Group/AliceO2/DataFormats/Detectors/ITSMFT/common/src/TopologyDictionary.cxx Pages: 1 -->
<!--zoomable 318 -->
<svg id="main" version="1.1" xmlns="http://www.w3.org/2000/svg" xmlns:xlink="http://www.w3.org/1999/xlink" xml:space="preserve" onload="init(evt)">
<style type="text/css"><![CDATA[
.edge:hover path { stroke: red; }
.edge:hover polygon { stroke: red; fill: red; }
]]></style>
<script type="text/javascript"><![CDATA[
var edges = document.getElementsByTagName('g');
if (edges && edges.length) {
  for (var i=0;i<edges.length;i++) {
    if (edges[i].id.substr(0,4)=='edge') {
      edges[i].setAttribute('class','edge');
    }
  }
}
]]></script>
        <defs>
                <circle id="rim" cx="0" cy="0" r="7"/>
                <circle id="rim2" cx="0" cy="0" r="3.5"/>
                <g id="zoomPlus">
                        <use xlink:href="#rim" fill="#404040">
                                <set attributeName="fill" to="#808080" begin="zoomplus.mouseover" end="zoomplus.mouseout"/>
                        </use>
                        <path d="M-4,0h8M0,-4v8" fill="none" stroke="white" stroke-width="1.5" pointer-events="none"/>
                </g>
                <g id="zoomMin">
                        <use xlink:href="#rim" fill="#404040">
                                <set attributeName="fill" to="#808080" begin="zoomminus.mouseover" end="zoomminus.mouseout"/>
                        </use>
                        <path d="M-4,0h8" fill="none" stroke="white" stroke-width="1.5" pointer-events="none"/>
                </g>
                <g id="dirArrow">
                        <path fill="none" stroke="white" stroke-width="1.5" d="M0,-3.0v7 M-2.5,-0.5L0,-3.0L2.5,-0.5"/>
                </g>
               <g id="resetDef">
                       <use xlink:href="#rim2" fill="#404040">
                               <set attributeName="fill" to="#808080" begin="reset.mouseover" end="reset.mouseout"/>
                       </use>
               </g>
        </defs>

<script type="text/javascript">
var viewWidth = 2223;
var viewHeight = 318;
var sectionId = 'dynsection-0';
</script>
<script xlink:href="../../svgpan.js"/>
<svg id="graph" class="graph">
<g id="viewport">
<title>/home/travis/build/AliceO2Group/AliceO2/DataFormats/Detectors/ITSMFT/common/src/TopologyDictionary.cxx</title>
<!-- Node0 -->
<g id="node1" class="node">
<title>Node0</title>
<polygon fill="#bfbfbf" stroke="#000000" points="686,-257.5 686,-309.5 919,-309.5 919,-257.5 686,-257.5"/>
<text text-anchor="start" x="694" y="-297.5" font-family="Helvetica,sans-Serif" font-size="10.00" fill="#000000">/home/travis/build</text>
<text text-anchor="start" x="694" y="-286.5" font-family="Helvetica,sans-Serif" font-size="10.00" fill="#000000">/AliceO2Group/AliceO2</text>
<text text-anchor="start" x="694" y="-275.5" font-family="Helvetica,sans-Serif" font-size="10.00" fill="#000000">/DataFormats/Detectors</text>
<text text-anchor="middle" x="802.5" y="-264.5" font-family="Helvetica,sans-Serif" font-size="10.00" fill="#000000">/ITSMFT/common/src/TopologyDictionary.cxx</text>
</g>
<!-- Node1 -->
<g id="node2" class="node">
<title>Node1</title>
<g id="a_node2"><a xlink:href="../../d1/d08/TopologyDictionary_8h.html" target="_top" xlink:title="Definition of the ClusterTopology class. ">
<polygon fill="none" stroke="#000000" points="318,-190.5 318,-220.5 479,-220.5 479,-190.5 318,-190.5"/>
<text text-anchor="start" x="326" y="-208.5" font-family="Helvetica,sans-Serif" font-size="10.00" fill="#000000">DataFormatsITSMFT/Topology</text>
<text text-anchor="middle" x="398.5" y="-197.5" font-family="Helvetica,sans-Serif" font-size="10.00" fill="#000000">Dictionary.h</text>
</a>
</g>
</g>
<!-- Node0&#45;&gt;Node1 -->
<g id="edge1" class="edge">
<title>Node0&#45;&gt;Node1</title>
<path fill="none" stroke="#191970" d="M685.9176,-260.9915C622.2432,-248.6979 544.6887,-233.7246 486.1955,-222.4313"/>
<polygon fill="#191970" stroke="#191970" points="486.7238,-218.9687 476.2416,-220.5095 485.3967,-225.8418 486.7238,-218.9687"/>
</g>
<!-- Node24 -->
<g id="node25" class="node">
<title>Node24</title>
<g id="a_node25"><a xlink:href="../../d8/ddb/ClusterTopology_8h.html" target="_top" xlink:title="Definition of the ClusterTopology class. ">
<polygon fill="none" stroke="#000000" points="664.5,-190.5 664.5,-220.5 816.5,-220.5 816.5,-190.5 664.5,-190.5"/>
<text text-anchor="start" x="672.5" y="-208.5" font-family="Helvetica,sans-Serif" font-size="10.00" fill="#000000">DataFormatsITSMFT/Cluster</text>
<text text-anchor="middle" x="740.5" y="-197.5" font-family="Helvetica,sans-Serif" font-size="10.00" fill="#000000">Topology.h</text>
</a>
</g>
</g>
<!-- Node0&#45;&gt;Node24 -->
<g id="edge28" class="edge">
<title>Node0&#45;&gt;Node24</title>
<path fill="none" stroke="#191970" d="M781.5096,-257.0928C774.1619,-247.8489 765.9738,-237.5476 758.858,-228.5955"/>
<polygon fill="#191970" stroke="#191970" points="761.3891,-226.1549 752.4267,-220.5046 755.9093,-230.5107 761.3891,-226.1549"/>
</g>
<!-- Node26 -->
<g id="node27" class="node">
<title>Node26</title>
<polygon fill="none" stroke="#bfbfbf" points="834.5,-196 834.5,-215 894.5,-215 894.5,-196 834.5,-196"/>
<text text-anchor="middle" x="864.5" y="-203" font-family="Helvetica,sans-Serif" font-size="10.00" fill="#000000">iostream</text>
</g>
<!-- Node0&#45;&gt;Node26 -->
<g id="edge32" class="edge">
<title>Node0&#45;&gt;Node26</title>
<path fill="none" stroke="#191970" d="M823.4904,-257.0928C832.4025,-245.8808 842.551,-233.1133 850.5227,-223.0843"/>
<polygon fill="#191970" stroke="#191970" points="853.3995,-225.09 856.8821,-215.0839 847.9197,-220.7343 853.3995,-225.09"/>
</g>
<!-- Node27 -->
<g id="node28" class="node">
<title>Node27</title>
<g id="a_node28"><a xlink:href="../../d3/dba/SegmentationAlpide_8h.html" target="_top" xlink:title="Definition of the SegmentationAlpide class. ">
<polygon fill="none" stroke="#000000" points="1282.5,-196 1282.5,-215 1468.5,-215 1468.5,-196 1282.5,-196"/>
<text text-anchor="middle" x="1375.5" y="-203" font-family="Helvetica,sans-Serif" font-size="10.00" fill="#000000">ITSMFTBase/SegmentationAlpide.h</text>
</a>
</g>
</g>
<!-- Node0&#45;&gt;Node27 -->
<g id="edge33" class="edge">
<title>Node0&#45;&gt;Node27</title>
<path fill="none" stroke="#191970" d="M919.1458,-267.6215C1031.1805,-252.3707 1197.4499,-229.7372 1295.3186,-216.4147"/>
<polygon fill="#191970" stroke="#191970" points="1296.0102,-219.853 1305.4467,-215.036 1295.066,-212.9169 1296.0102,-219.853"/>
</g>
<!-- Node2 -->
<g id="node3" class="node">
<title>Node2</title>
<g id="a_node3"><a xlink:href="../../de/dc1/ClusterPattern_8h.html" target="_top" xlink:title="DataFormatsITSMFT/Cluster\lPattern.h">
<polygon fill="none" stroke="#000000" points="551.5,-123.5 551.5,-153.5 703.5,-153.5 703.5,-123.5 551.5,-123.5"/>
<text text-anchor="start" x="559.5" y="-141.5" font-family="Helvetica,sans-Serif" font-size="10.00" fill="#000000">DataFormatsITSMFT/Cluster</text>
<text text-anchor="middle" x="627.5" y="-130.5" font-family="Helvetica,sans-Serif" font-size="10.00" fill="#000000">Pattern.h</text>
</a>
</g>
</g>
<!-- Node1&#45;&gt;Node2 -->
<g id="edge2" class="edge">
<title>Node1&#45;&gt;Node2</title>
<path fill="none" stroke="#191970" d="M449.8921,-190.4639C484.2449,-180.4131 529.6195,-167.1375 565.9066,-156.5208"/>
<polygon fill="#191970" stroke="#191970" points="567.269,-159.769 575.8838,-153.6017 565.3033,-153.0506 567.269,-159.769"/>
</g>
<!-- Node7 -->
<g id="node8" class="node">
<title>Node7</title>
<g id="a_node8"><a xlink:href="../../df/de4/CompCluster_8h.html" target="_top" xlink:title="Definition of the ITSMFT compact cluster. ">
<polygon fill="none" stroke="#000000" points="299.5,-62 299.5,-81 487.5,-81 487.5,-62 299.5,-62"/>
<text text-anchor="middle" x="393.5" y="-69" font-family="Helvetica,sans-Serif" font-size="10.00" fill="#000000">DataFormatsITSMFT/CompCluster.h</text>
</a>
</g>
</g>
<!-- Node1&#45;&gt;Node7 -->
<g id="edge26" class="edge">
<title>Node1&#45;&gt;Node7</title>
<path fill="none" stroke="#191970" d="M317.71,-198.5697C257.2892,-191.5152 181.8986,-178.0882 162.5,-154 153.8584,-143.2692 153.8826,-133.7502 162.5,-123 178.8609,-102.5899 236.0898,-89.7427 289.487,-81.9842"/>
<polygon fill="#191970" stroke="#191970" points="289.985,-85.4487 299.4021,-80.5941 289.013,-78.5165 289.985,-85.4487"/>
</g>
<!-- Node8 -->
<g id="node9" class="node">
<title>Node8</title>
<g id="a_node9"><a xlink:href="../../dd/da4/Logger_8h.html" target="_top" xlink:title="Framework/Logger.h">
<polygon fill="none" stroke="#000000" points="0,-129 0,-148 115,-148 115,-129 0,-129"/>
<text text-anchor="middle" x="57.5" y="-136" font-family="Helvetica,sans-Serif" font-size="10.00" fill="#000000">Framework/Logger.h</text>
</a>
</g>
</g>
<!-- Node1&#45;&gt;Node8 -->
<g id="edge9" class="edge">
<title>Node1&#45;&gt;Node8</title>
<path fill="none" stroke="#191970" d="M317.7744,-190.5439C264.2999,-180.5139 192.6376,-166.8382 129.5,-154 123.4151,-152.7627 117.0479,-151.4371 110.7244,-150.1012"/>
<polygon fill="#191970" stroke="#191970" points="111.3798,-146.6623 100.8704,-148.0046 109.923,-153.5091 111.3798,-146.6623"/>
</g>
<!-- Node10 -->
<g id="node11" class="node">
<title>Node10</title>
<polygon fill="none" stroke="#bfbfbf" points="172,-129 172,-148 227,-148 227,-129 172,-129"/>
<text text-anchor="middle" x="199.5" y="-136" font-family="Helvetica,sans-Serif" font-size="10.00" fill="#000000">fstream</text>
</g>
<!-- Node1&#45;&gt;Node10 -->
<g id="edge11" class="edge">
<title>Node1&#45;&gt;Node10</title>
<path fill="none" stroke="#191970" d="M347.0314,-190.4167C314.992,-180.7125 273.0638,-167.4403 236.5,-154 234.637,-153.3152 232.7302,-152.5908 230.8125,-151.844"/>
<polygon fill="#191970" stroke="#191970" points="231.8684,-148.496 221.2849,-148.0044 229.2518,-154.9886 231.8684,-148.496"/>
</g>
<!-- Node11 -->
<g id="node12" class="node">
<title>Node11</title>
<polygon fill="none" stroke="#bfbfbf" points="245.5,-129 245.5,-148 289.5,-148 289.5,-129 245.5,-129"/>
<text text-anchor="middle" x="267.5" y="-136" font-family="Helvetica,sans-Serif" font-size="10.00" fill="#000000">string</text>
</g>
<!-- Node1&#45;&gt;Node11 -->
<g id="edge12" class="edge">
<title>Node1&#45;&gt;Node11</title>
<path fill="none" stroke="#191970" d="M369.101,-190.4639C347.0219,-179.1715 316.9839,-163.8086 295.3017,-152.7192"/>
<polygon fill="#191970" stroke="#191970" points="296.7747,-149.5414 286.2778,-148.1039 293.5872,-155.7736 296.7747,-149.5414"/>
</g>
<!-- Node12 -->
<g id="node13" class="node">
<title>Node12</title>
<polygon fill="none" stroke="#bfbfbf" points="308,-129 308,-148 401,-148 401,-129 308,-129"/>
<text text-anchor="middle" x="354.5" y="-136" font-family="Helvetica,sans-Serif" font-size="10.00" fill="#000000">unordered_map</text>
</g>
<!-- Node1&#45;&gt;Node12 -->
<g id="edge13" class="edge">
<title>Node1&#45;&gt;Node12</title>
<path fill="none" stroke="#191970" d="M388.5157,-190.2967C381.9265,-180.2631 373.263,-167.0709 366.3283,-156.5113"/>
<polygon fill="#191970" stroke="#191970" points="369.1898,-154.4924 360.7749,-148.055 363.3387,-158.3349 369.1898,-154.4924"/>
</g>
<!-- Node13 -->
<g id="node14" class="node">
<title>Node13</title>
<polygon fill="none" stroke="#bfbfbf" points="419,-129 419,-148 466,-148 466,-129 419,-129"/>
<text text-anchor="middle" x="442.5" y="-136" font-family="Helvetica,sans-Serif" font-size="10.00" fill="#000000">vector</text>
</g>
<!-- Node1&#45;&gt;Node13 -->
<g id="edge14" class="edge">
<title>Node1&#45;&gt;Node13</title>
<path fill="none" stroke="#191970" d="M408.4843,-190.2967C415.0735,-180.2631 423.737,-167.0709 430.6717,-156.5113"/>
<polygon fill="#191970" stroke="#191970" points="433.6613,-158.3349 436.2251,-148.055 427.8102,-154.4924 433.6613,-158.3349"/>
</g>
<!-- Node14 -->
<g id="node15" class="node">
<title>Node14</title>
<g id="a_node15"><a xlink:href="../../dc/d73/Cartesian_8h.html" target="_top" xlink:title="MathUtils/Cartesian.h">
<polygon fill="none" stroke="#000000" points="1314.5,-129 1314.5,-148 1436.5,-148 1436.5,-129 1314.5,-129"/>
<text text-anchor="middle" x="1375.5" y="-136" font-family="Helvetica,sans-Serif" font-size="10.00" fill="#000000">MathUtils/Cartesian.h</text>
</a>
</g>
</g>
<!-- Node1&#45;&gt;Node14 -->
<g id="edge15" class="edge">
<title>Node1&#45;&gt;Node14</title>
<path fill="none" stroke="#191970" d="M479.2832,-199.9601C666.4095,-187.1275 1127.1008,-155.5345 1304.3811,-143.3771"/>
<polygon fill="#191970" stroke="#191970" points="1304.6439,-146.8674 1314.381,-142.6914 1304.165,-139.8838 1304.6439,-146.8674"/>
</g>
<!-- Node23 -->
<g id="node24" class="node">
<title>Node23</title>
<polygon fill="none" stroke="#bfbfbf" points="484,-129 484,-148 533,-148 533,-129 484,-129"/>
<text text-anchor="middle" x="508.5" y="-136" font-family="Helvetica,sans-Serif" font-size="10.00" fill="#000000">TH1F.h</text>
</g>
<!-- Node1&#45;&gt;Node23 -->
<g id="edge27" class="edge">
<title>Node1&#45;&gt;Node23</title>
<path fill="none" stroke="#191970" d="M423.1861,-190.4639C441.3102,-179.4247 465.8209,-164.4954 483.92,-153.4715"/>
<polygon fill="#191970" stroke="#191970" points="486.0126,-156.2951 492.7324,-148.1039 482.3712,-150.3167 486.0126,-156.2951"/>
</g>
<!-- Node3 -->
<g id="node4" class="node">
<title>Node3</title>
<polygon fill="none" stroke="#bfbfbf" points="1125,-.5 1125,-19.5 1184,-19.5 1184,-.5 1125,-.5"/>
<text text-anchor="middle" x="1154.5" y="-7.5" font-family="Helvetica,sans-Serif" font-size="10.00" fill="#000000">Rtypes.h</text>
</g>
<!-- Node2&#45;&gt;Node3 -->
<g id="edge3" class="edge">
<title>Node2&#45;&gt;Node3</title>
<path fill="none" stroke="#191970" d="M588.8156,-123.3687C553.7348,-107.5297 510.8553,-81.464 534.5,-56 554.2985,-34.6781 980.7366,-16.6353 1114.6407,-11.4784"/>
<polygon fill="#191970" stroke="#191970" points="1115.003,-14.9672 1124.862,-11.088 1114.7357,-7.9723 1115.003,-14.9672"/>
</g>
<!-- Node4 -->
<g id="node5" class="node">
<title>Node4</title>
<polygon fill="none" stroke="#bfbfbf" points="543.5,-62 543.5,-81 585.5,-81 585.5,-62 543.5,-62"/>
<text text-anchor="middle" x="564.5" y="-69" font-family="Helvetica,sans-Serif" font-size="10.00" fill="#000000">array</text>
</g>
<!-- Node2&#45;&gt;Node4 -->
<g id="edge4" class="edge">
<title>Node2&#45;&gt;Node4</title>
<path fill="none" stroke="#191970" d="M613.2043,-123.2967C603.4839,-112.9591 590.6106,-99.2684 580.5403,-88.5588"/>
<polygon fill="#191970" stroke="#191970" points="582.8846,-85.9426 573.4845,-81.055 577.785,-90.7378 582.8846,-85.9426"/>
</g>
<!-- Node5 -->
<g id="node6" class="node">
<title>Node5</title>
<polygon fill="none" stroke="#bfbfbf" points="670,-62 670,-81 719,-81 719,-62 670,-62"/>
<text text-anchor="middle" x="694.5" y="-69" font-family="Helvetica,sans-Serif" font-size="10.00" fill="#000000">iosfwd</text>
</g>
<!-- Node2&#45;&gt;Node5 -->
<g id="edge5" class="edge">
<title>Node2&#45;&gt;Node5</title>
<path fill="none" stroke="#191970" d="M642.7033,-123.2967C653.1422,-112.8578 667.0003,-98.9997 677.7554,-88.2446"/>
<polygon fill="#191970" stroke="#191970" points="680.3488,-90.601 684.945,-81.055 675.399,-85.6512 680.3488,-90.601"/>
</g>
<!-- Node6 -->
<g id="node7" class="node">
<title>Node6</title>
<polygon fill="none" stroke="#bfbfbf" points="603.5,-62 603.5,-81 651.5,-81 651.5,-62 603.5,-62"/>
<text text-anchor="middle" x="627.5" y="-69" font-family="Helvetica,sans-Serif" font-size="10.00" fill="#000000">gsl/gsl</text>
</g>
<!-- Node2&#45;&gt;Node6 -->
<g id="edge6" class="edge">
<title>Node2&#45;&gt;Node6</title>
<path fill="none" stroke="#191970" d="M627.5,-123.2967C627.5,-113.7699 627.5,-101.3954 627.5,-91.1306"/>
<polygon fill="#191970" stroke="#191970" points="631.0001,-91.0549 627.5,-81.055 624.0001,-91.055 631.0001,-91.0549"/>
</g>
<!-- Node2&#45;&gt;Node7 -->
<g id="edge7" class="edge">
<title>Node2&#45;&gt;Node7</title>
<path fill="none" stroke="#191970" d="M574.9858,-123.4639C533.3008,-111.5284 475.7338,-95.0456 436.6949,-83.8678"/>
<polygon fill="#191970" stroke="#191970" points="437.2747,-80.3932 426.6976,-81.0053 435.3478,-87.1228 437.2747,-80.3932"/>
</g>
<!-- Node7&#45;&gt;Node3 -->
<g id="edge8" class="edge">
<title>Node7&#45;&gt;Node3</title>
<path fill="none" stroke="#191970" d="M454.2343,-61.9987C469.6269,-59.8068 486.1495,-57.64 501.5,-56 733.1568,-31.2497 1012.5268,-16.6415 1114.6528,-11.8029"/>
<polygon fill="#191970" stroke="#191970" points="1114.9944,-15.2909 1124.8194,-11.3259 1114.6663,-8.2985 1114.9944,-15.2909"/>
</g>
<!-- Node9 -->
<g id="node10" class="node">
<title>Node9</title>
<polygon fill="none" stroke="#bfbfbf" points="3.5,-62 3.5,-81 111.5,-81 111.5,-62 3.5,-62"/>
<text text-anchor="middle" x="57.5" y="-69" font-family="Helvetica,sans-Serif" font-size="10.00" fill="#000000">fairlogger/Logger.h</text>
</g>
<!-- Node8&#45;&gt;Node9 -->
<g id="edge10" class="edge">
<title>Node8&#45;&gt;Node9</title>
<path fill="none" stroke="#191970" d="M57.5,-128.9005C57.5,-119.149 57.5,-103.7597 57.5,-91.3695"/>
<polygon fill="#191970" stroke="#191970" points="61.0001,-91.0816 57.5,-81.0817 54.0001,-91.0817 61.0001,-91.0816"/>
</g>
<!-- Node14&#45;&gt;Node3 -->
<g id="edge23" class="edge">
<title>Node14&#45;&gt;Node3</title>
<path fill="none" stroke="#191970" d="M1436.5991,-134.9907C1542.8676,-128.2584 1752.5647,-111.9485 1774.5,-87 1783.5975,-76.6528 1783.875,-66.0963 1774.5,-56 1754.7015,-34.6781 1328.2634,-16.6353 1194.3593,-11.4784"/>
<polygon fill="#191970" stroke="#191970" points="1194.2643,-7.9723 1184.138,-11.088 1193.997,-14.9672 1194.2643,-7.9723"/>
</g>
<!-- Node14&#45;&gt;Node5 -->
<g id="edge25" class="edge">
<title>Node14&#45;&gt;Node5</title>
<path fill="none" stroke="#191970" d="M1314.4393,-136.3441C1175.2972,-130.9944 838.2598,-115.4456 728.5,-87 726.306,-86.4314 724.0776,-85.7293 721.865,-84.9407"/>
<polygon fill="#191970" stroke="#191970" points="723.0029,-81.6247 712.4223,-81.0759 720.3513,-88.1031 723.0029,-81.6247"/>
</g>
<!-- Node15 -->
<g id="node16" class="node">
<title>Node15</title>
<polygon fill="none" stroke="#bfbfbf" points="1821.5,-56.5 1821.5,-86.5 1985.5,-86.5 1985.5,-56.5 1821.5,-56.5"/>
<text text-anchor="start" x="1829.5" y="-74.5" font-family="Helvetica,sans-Serif" font-size="10.00" fill="#000000">Math/GenVector/Displacement</text>
<text text-anchor="middle" x="1903.5" y="-63.5" font-family="Helvetica,sans-Serif" font-size="10.00" fill="#000000">Vector3D.h</text>
</g>
<!-- Node14&#45;&gt;Node15 -->
<g id="edge16" class="edge">
<title>Node14&#45;&gt;Node15</title>
<path fill="none" stroke="#191970" d="M1436.7701,-132.0042C1520.594,-122.9328 1675.6672,-105.4927 1807.5,-87 1808.7696,-86.8219 1810.0483,-86.6407 1811.3345,-86.4568"/>
<polygon fill="#191970" stroke="#191970" points="1811.9256,-89.9077 1821.3147,-84.9991 1810.9138,-82.9812 1811.9256,-89.9077"/>
</g>
<!-- Node16 -->
<g id="node17" class="node">
<title>Node16</title>
<polygon fill="none" stroke="#bfbfbf" points="2004,-62 2004,-81 2193,-81 2193,-62 2004,-62"/>
<text text-anchor="middle" x="2098.5" y="-69" font-family="Helvetica,sans-Serif" font-size="10.00" fill="#000000">Math/GenVector/PositionVector3D.h</text>
</g>
<!-- Node14&#45;&gt;Node16 -->
<g id="edge17" class="edge">
<title>Node14&#45;&gt;Node16</title>
<path fill="none" stroke="#191970" d="M1436.6928,-134.7315C1547.9482,-127.5857 1790.7073,-110.6388 1994.5,-87 2005.72,-85.6985 2017.5919,-84.1207 2029.1449,-82.4761"/>
<polygon fill="#191970" stroke="#191970" points="2029.7971,-85.9183 2039.1912,-81.019 2028.7923,-78.9907 2029.7971,-85.9183"/>
</g>
<!-- Node17 -->
<g id="node18" class="node">
<title>Node17</title>
<polygon fill="none" stroke="#bfbfbf" points="737.5,-62 737.5,-81 897.5,-81 897.5,-62 737.5,-62"/>
<text text-anchor="middle" x="817.5" y="-69" font-family="Helvetica,sans-Serif" font-size="10.00" fill="#000000">Math/GenVector/Rotation3D.h</text>
</g>
<!-- Node14&#45;&gt;Node17 -->
<g id="edge18" class="edge">
<title>Node14&#45;&gt;Node17</title>
<path fill="none" stroke="#191970" d="M1314.2617,-133.0183C1224.5642,-124.7076 1052.2796,-107.6772 906.5,-87 897.6051,-85.7384 888.2348,-84.2653 879.0473,-82.7386"/>
<polygon fill="#191970" stroke="#191970" points="879.6246,-79.2866 869.1807,-81.0683 878.4562,-86.1884 879.6246,-79.2866"/>
</g>
<!-- Node18 -->
<g id="node19" class="node">
<title>Node18</title>
<polygon fill="none" stroke="#bfbfbf" points="915.5,-62 915.5,-81 1083.5,-81 1083.5,-62 915.5,-62"/>
<text text-anchor="middle" x="999.5" y="-69" font-family="Helvetica,sans-Serif" font-size="10.00" fill="#000000">Math/GenVector/Transform3D.h</text>
</g>
<!-- Node14&#45;&gt;Node18 -->
<g id="edge19" class="edge">
<title>Node14&#45;&gt;Node18</title>
<path fill="none" stroke="#191970" d="M1322.0277,-128.9717C1253.7696,-116.8087 1135.8261,-95.7921 1063.0511,-82.8243"/>
<polygon fill="#191970" stroke="#191970" points="1063.5509,-79.3583 1053.0919,-81.0496 1062.3228,-86.2497 1063.5509,-79.3583"/>
</g>
<!-- Node19 -->
<g id="node20" class="node">
<title>Node19</title>
<polygon fill="none" stroke="#bfbfbf" points="1102,-62 1102,-81 1275,-81 1275,-62 1102,-62"/>
<text text-anchor="middle" x="1188.5" y="-69" font-family="Helvetica,sans-Serif" font-size="10.00" fill="#000000">Math/GenVector/Translation3D.h</text>
</g>
<!-- Node14&#45;&gt;Node19 -->
<g id="edge20" class="edge">
<title>Node14&#45;&gt;Node19</title>
<path fill="none" stroke="#191970" d="M1348.7075,-128.9005C1316.2137,-117.2584 1261.2919,-97.5805 1224.9625,-84.5641"/>
<polygon fill="#191970" stroke="#191970" points="1225.8374,-81.1598 1215.2428,-81.0817 1223.4763,-87.7496 1225.8374,-81.1598"/>
</g>
<!-- Node20 -->
<g id="node21" class="node">
<title>Node20</title>
<polygon fill="none" stroke="#bfbfbf" points="1293.5,-56.5 1293.5,-86.5 1457.5,-86.5 1457.5,-56.5 1293.5,-56.5"/>
<text text-anchor="start" x="1301.5" y="-74.5" font-family="Helvetica,sans-Serif" font-size="10.00" fill="#000000">Math/GenVector/Displacement</text>
<text text-anchor="middle" x="1375.5" y="-63.5" font-family="Helvetica,sans-Serif" font-size="10.00" fill="#000000">Vector2D.h</text>
</g>
<!-- Node14&#45;&gt;Node20 -->
<g id="edge21" class="edge">
<title>Node14&#45;&gt;Node20</title>
<path fill="none" stroke="#191970" d="M1375.5,-128.9005C1375.5,-120.5099 1375.5,-107.9451 1375.5,-96.7085"/>
<polygon fill="#191970" stroke="#191970" points="1379.0001,-96.5217 1375.5,-86.5218 1372.0001,-96.5218 1379.0001,-96.5217"/>
</g>
<!-- Node21 -->
<g id="node22" class="node">
<title>Node21</title>
<polygon fill="none" stroke="#bfbfbf" points="1476,-62 1476,-81 1665,-81 1665,-62 1476,-62"/>
<text text-anchor="middle" x="1570.5" y="-69" font-family="Helvetica,sans-Serif" font-size="10.00" fill="#000000">Math/GenVector/PositionVector2D.h</text>
</g>
<!-- Node14&#45;&gt;Node21 -->
<g id="edge22" class="edge">
<title>Node14&#45;&gt;Node21</title>
<path fill="none" stroke="#191970" d="M1403.4387,-128.9005C1437.4674,-117.2086 1495.0839,-97.4122 1532.9622,-84.3976"/>
<polygon fill="#191970" stroke="#191970" points="1534.2931,-87.6412 1542.6131,-81.0817 1532.0184,-81.0211 1534.2931,-87.6412"/>
</g>
<!-- Node22 -->
<g id="node23" class="node">
<title>Node22</title>
<polygon fill="none" stroke="#bfbfbf" points="1683.5,-62 1683.5,-81 1765.5,-81 1765.5,-62 1683.5,-62"/>
<text text-anchor="middle" x="1724.5" y="-69" font-family="Helvetica,sans-Serif" font-size="10.00" fill="#000000">TGeoMatrix.h</text>
</g>
<!-- Node14&#45;&gt;Node22 -->
<g id="edge24" class="edge">
<title>Node14&#45;&gt;Node22</title>
<path fill="none" stroke="#191970" d="M1436.675,-130.3415C1497.4435,-121.6808 1593.0616,-106.5488 1674.5,-87 1678.3179,-86.0835 1682.2712,-85.035 1686.2054,-83.9249"/>
<polygon fill="#191970" stroke="#191970" points="1687.2556,-87.2644 1695.8578,-81.0795 1685.2762,-80.55 1687.2556,-87.2644"/>
</g>
<!-- Node24&#45;&gt;Node2 -->
<g id="edge29" class="edge">
<title>Node24&#45;&gt;Node2</title>
<path fill="none" stroke="#191970" d="M715.1406,-190.4639C699.4037,-181.1332 678.9795,-169.0232 661.8072,-158.8415"/>
<polygon fill="#191970" stroke="#191970" points="663.5525,-155.8073 653.1657,-153.7177 659.9824,-161.8285 663.5525,-155.8073"/>
</g>
<!-- Node24&#45;&gt;Node5 -->
<g id="edge31" class="edge">
<title>Node24&#45;&gt;Node5</title>
<path fill="none" stroke="#191970" d="M752.7594,-190.3312C764.901,-173.3366 780.1255,-145.2545 768.5,-123 763.182,-112.8199 739.6419,-97.3867 720.5198,-86.0689"/>
<polygon fill="#191970" stroke="#191970" points="722.2624,-83.0335 711.857,-81.0386 718.7472,-89.087 722.2624,-83.0335"/>
</g>
<!-- Node25 -->
<g id="node26" class="node">
<title>Node25</title>
<polygon fill="none" stroke="#bfbfbf" points="721.5,-129 721.5,-148 759.5,-148 759.5,-129 721.5,-129"/>
<text text-anchor="middle" x="740.5" y="-136" font-family="Helvetica,sans-Serif" font-size="10.00" fill="#000000">map</text>
</g>
<!-- Node24&#45;&gt;Node25 -->
<g id="edge30" class="edge">
<title>Node24&#45;&gt;Node25</title>
<path fill="none" stroke="#191970" d="M740.5,-190.2967C740.5,-180.7699 740.5,-168.3954 740.5,-158.1306"/>
<polygon fill="#191970" stroke="#191970" points="744.0001,-158.0549 740.5,-148.055 737.0001,-158.055 744.0001,-158.0549"/>
</g>
<!-- Node27&#45;&gt;Node3 -->
<g id="edge34" class="edge">
<title>Node27&#45;&gt;Node3</title>
<path fill="none" stroke="#191970" d="M1468.8463,-203.072C1706.1341,-195.2887 2306.5345,-164.7011 2202.5,-56 2167.0252,-18.9339 1381.7574,-11.4792 1194.3829,-10.2261"/>
<polygon fill="#191970" stroke="#191970" points="1194.1789,-6.7248 1184.1564,-10.1599 1194.1335,-13.7246 1194.1789,-6.7248"/>
</g>
<!-- Node27&#45;&gt;Node14 -->
<g id="edge35" class="edge">
<title>Node27&#45;&gt;Node14</title>
<path fill="none" stroke="#191970" d="M1375.5,-195.9005C1375.5,-186.149 1375.5,-170.7597 1375.5,-158.3695"/>
<polygon fill="#191970" stroke="#191970" points="1379.0001,-158.0816 1375.5,-148.0817 1372.0001,-158.0817 1379.0001,-158.0816"/>
</g>
</g>
</svg>
        <g id="navigator" transform="translate(0 0)" fill="#404254">
                <rect fill="#f2f5e9" fill-opacity="0.5" stroke="#606060" stroke-width=".5" x="0" y="0" width="60" height="60"/>
                <use id="zoomplus" xlink:href="#zoomPlus" x="17" y="9" onmousedown="handleZoom(evt,'in')"/>
                <use id="zoomminus" xlink:href="#zoomMin" x="42" y="9" onmousedown="handleZoom(evt,'out')"/>
                <use id="reset" xlink:href="#resetDef" x="30" y="36" onmousedown="handleReset()"/>
                <g id="arrowUp" xlink:href="#dirArrow" transform="translate(30 24)" onmousedown="handlePan(0,-1)">
                  <use xlink:href="#rim" fill="#404040">
                        <set attributeName="fill" to="#808080" begin="arrowUp.mouseover" end="arrowUp.mouseout"/>
                  </use>
                  <path fill="none" stroke="white" stroke-width="1.5" d="M0,-3.0v7 M-2.5,-0.5L0,-3.0L2.5,-0.5"/>
                </g>
                <g id="arrowRight" xlink:href="#dirArrow" transform="rotate(90) translate(36 -43)" onmousedown="handlePan(1,0)">
                  <use xlink:href="#rim" fill="#404040">
                        <set attributeName="fill" to="#808080" begin="arrowRight.mouseover" end="arrowRight.mouseout"/>
                  </use>
                  <path fill="none" stroke="white" stroke-width="1.5" d="M0,-3.0v7 M-2.5,-0.5L0,-3.0L2.5,-0.5"/>
                </g>
                <g id="arrowDown" xlink:href="#dirArrow" transform="rotate(180) translate(-30 -48)" onmousedown="handlePan(0,1)">
                  <use xlink:href="#rim" fill="#404040">
                        <set attributeName="fill" to="#808080" begin="arrowDown.mouseover" end="arrowDown.mouseout"/>
                  </use>
                  <path fill="none" stroke="white" stroke-width="1.5" d="M0,-3.0v7 M-2.5,-0.5L0,-3.0L2.5,-0.5"/>
                </g>
                <g id="arrowLeft" xlink:href="#dirArrow" transform="rotate(270) translate(-36 17)" onmousedown="handlePan(-1,0)">
                  <use xlink:href="#rim" fill="#404040">
                        <set attributeName="fill" to="#808080" begin="arrowLeft.mouseover" end="arrowLeft.mouseout"/>
                  </use>
                  <path fill="none" stroke="white" stroke-width="1.5" d="M0,-3.0v7 M-2.5,-0.5L0,-3.0L2.5,-0.5"/>
                </g>
        </g>
        <svg viewBox="0 0 15 15" width="100%" height="30px" preserveAspectRatio="xMaxYMin meet">
         <g id="arrow_out" transform="scale(0.3 0.3)">
          <a xlink:href="TopologyDictionary_8cxx__incl_org.svg" target="_base">
           <rect id="button" ry="5" rx="5" y="6" x="6" height="38" width="38"
                fill="#f2f5e9" fill-opacity="0.5" stroke="#606060" stroke-width="1.0"/>
           <path id="arrow"
             d="M 11.500037,31.436501 C 11.940474,20.09759 22.043105,11.32322 32.158766,21.979434 L 37.068811,17.246167 C 37.068811,17.246167 37.088388,32 37.088388,32 L 22.160133,31.978069 C 22.160133,31.978069 26.997745,27.140456 26.997745,27.140456 C 18.528582,18.264221 13.291696,25.230495 11.500037,31.436501 z"
             style="fill:#404040;"/>
          </a>
         </g>
        </svg>
</svg>
