<?xml version="1.0" encoding="UTF-8" standalone="no"?>
<!DOCTYPE svg PUBLIC "-//W3C//DTD SVG 1.1//EN"
 "http://www.w3.org/Graphics/SVG/1.1/DTD/svg11.dtd">
<!-- Generated by graphviz version 2.40.1 (20161225.0304)
 -->
<!-- Title: /home/travis/build/AliceO2Group/AliceO2/Common/Field/test/testMagneticField.cxx Pages: 1 -->
<!--zoomable 352 -->
<svg id="main" version="1.1" xmlns="http://www.w3.org/2000/svg" xmlns:xlink="http://www.w3.org/1999/xlink" xml:space="preserve" onload="init(evt)">
<style type="text/css"><![CDATA[
.edge:hover path { stroke: red; }
.edge:hover polygon { stroke: red; fill: red; }
]]></style>
<script type="text/javascript"><![CDATA[
var edges = document.getElementsByTagName('g');
if (edges && edges.length) {
  for (var i=0;i<edges.length;i++) {
    if (edges[i].id.substr(0,4)=='edge') {
      edges[i].setAttribute('class','edge');
    }
  }
}
]]></script>
        <defs>
                <circle id="rim" cx="0" cy="0" r="7"/>
                <circle id="rim2" cx="0" cy="0" r="3.5"/>
                <g id="zoomPlus">
                        <use xlink:href="#rim" fill="#404040">
                                <set attributeName="fill" to="#808080" begin="zoomplus.mouseover" end="zoomplus.mouseout"/>
                        </use>
                        <path d="M-4,0h8M0,-4v8" fill="none" stroke="white" stroke-width="1.5" pointer-events="none"/>
                </g>
                <g id="zoomMin">
                        <use xlink:href="#rim" fill="#404040">
                                <set attributeName="fill" to="#808080" begin="zoomminus.mouseover" end="zoomminus.mouseout"/>
                        </use>
                        <path d="M-4,0h8" fill="none" stroke="white" stroke-width="1.5" pointer-events="none"/>
                </g>
                <g id="dirArrow">
                        <path fill="none" stroke="white" stroke-width="1.5" d="M0,-3.0v7 M-2.5,-0.5L0,-3.0L2.5,-0.5"/>
                </g>
               <g id="resetDef">
                       <use xlink:href="#rim2" fill="#404040">
                               <set attributeName="fill" to="#808080" begin="reset.mouseover" end="reset.mouseout"/>
                       </use>
               </g>
        </defs>

<script type="text/javascript">
var viewWidth = 2327;
var viewHeight = 352;
var sectionId = 'dynsection-0';
</script>
<script xlink:href="../../svgpan.js"/>
<svg id="graph" class="graph">
<g id="viewport">
<title>/home/travis/build/AliceO2Group/AliceO2/Common/Field/test/testMagneticField.cxx</title>
<!-- Node0 -->
<g id="node1" class="node">
<title>Node0</title>
<polygon fill="#bfbfbf" stroke="#000000" points="769,-291.5 769,-343.5 946,-343.5 946,-291.5 769,-291.5"/>
<text text-anchor="start" x="777" y="-331.5" font-family="Helvetica,sans-Serif" font-size="10.00" fill="#000000">/home/travis/build</text>
<text text-anchor="start" x="777" y="-320.5" font-family="Helvetica,sans-Serif" font-size="10.00" fill="#000000">/AliceO2Group/AliceO2</text>
<text text-anchor="start" x="777" y="-309.5" font-family="Helvetica,sans-Serif" font-size="10.00" fill="#000000">/Common/Field/test/testMagnetic</text>
<text text-anchor="middle" x="857.5" y="-298.5" font-family="Helvetica,sans-Serif" font-size="10.00" fill="#000000">Field.cxx</text>
</g>
<!-- Node1 -->
<g id="node2" class="node">
<title>Node1</title>
<polygon fill="none" stroke="#bfbfbf" points="464.5,-235.5 464.5,-254.5 596.5,-254.5 596.5,-235.5 464.5,-235.5"/>
<text text-anchor="middle" x="530.5" y="-242.5" font-family="Helvetica,sans-Serif" font-size="10.00" fill="#000000">boost/test/unit_test.hpp</text>
</g>
<!-- Node0&#45;&gt;Node1 -->
<g id="edge1" class="edge">
<title>Node0&#45;&gt;Node1</title>
<path fill="none" stroke="#191970" d="M768.5777,-297.7848C709.3049,-284.6433 633.3898,-267.812 583.416,-256.7322"/>
<polygon fill="#191970" stroke="#191970" points="583.9913,-253.2748 573.4708,-254.5272 582.4761,-260.1088 583.9913,-253.2748"/>
</g>
<!-- Node2 -->
<g id="node3" class="node">
<title>Node2</title>
<polygon fill="none" stroke="#bfbfbf" points="614.5,-235.5 614.5,-254.5 674.5,-254.5 674.5,-235.5 614.5,-235.5"/>
<text text-anchor="middle" x="644.5" y="-242.5" font-family="Helvetica,sans-Serif" font-size="10.00" fill="#000000">iostream</text>
</g>
<!-- Node0&#45;&gt;Node2 -->
<g id="edge2" class="edge">
<title>Node0&#45;&gt;Node2</title>
<path fill="none" stroke="#191970" d="M780.903,-291.4283C747.3367,-280.0031 709.4577,-267.11 682.1493,-257.8149"/>
<polygon fill="#191970" stroke="#191970" points="683.1886,-254.4715 672.5942,-254.5626 680.9331,-261.0982 683.1886,-254.4715"/>
</g>
<!-- Node3 -->
<g id="node4" class="node">
<title>Node3</title>
<g id="a_node4"><a xlink:href="../../db/d4b/MagneticField_8h.html" target="_top" xlink:title="Definition of the MagF class. ">
<polygon fill="none" stroke="#000000" points="692.5,-235.5 692.5,-254.5 810.5,-254.5 810.5,-235.5 692.5,-235.5"/>
<text text-anchor="middle" x="751.5" y="-242.5" font-family="Helvetica,sans-Serif" font-size="10.00" fill="#000000">Field/MagneticField.h</text>
</a>
</g>
</g>
<!-- Node0&#45;&gt;Node3 -->
<g id="edge3" class="edge">
<title>Node0&#45;&gt;Node3</title>
<path fill="none" stroke="#191970" d="M819.2316,-291.3258C804.0059,-280.912 787.0182,-269.2931 773.8645,-260.2965"/>
<polygon fill="#191970" stroke="#191970" points="775.6693,-257.2906 765.4394,-254.534 771.7175,-263.0684 775.6693,-257.2906"/>
</g>
<!-- Node16 -->
<g id="node17" class="node">
<title>Node16</title>
<g id="a_node17"><a xlink:href="../../da/df4/MagFieldFast_8h.html" target="_top" xlink:title="Definition of the fast magnetic field parametrization MagFieldFast. ">
<polygon fill="none" stroke="#000000" points="835,-179.5 835,-198.5 948,-198.5 948,-179.5 835,-179.5"/>
<text text-anchor="middle" x="891.5" y="-186.5" font-family="Helvetica,sans-Serif" font-size="10.00" fill="#000000">Field/MagFieldFast.h</text>
</a>
</g>
</g>
<!-- Node0&#45;&gt;Node16 -->
<g id="edge42" class="edge">
<title>Node0&#45;&gt;Node16</title>
<path fill="none" stroke="#191970" d="M855.8026,-291.2466C855.5295,-274.7241 856.6506,-253.1659 862.5,-235 865.6956,-225.0758 871.531,-215.1533 877.134,-207.0781"/>
<polygon fill="#191970" stroke="#191970" points="880.0882,-208.9693 883.208,-198.8442 874.455,-204.8138 880.0882,-208.9693"/>
</g>
<!-- Node29 -->
<g id="node30" class="node">
<title>Node29</title>
<polygon fill="none" stroke="#bfbfbf" points="966.5,-179.5 966.5,-198.5 1024.5,-198.5 1024.5,-179.5 966.5,-179.5"/>
<text text-anchor="middle" x="995.5" y="-186.5" font-family="Helvetica,sans-Serif" font-size="10.00" fill="#000000">memory</text>
</g>
<!-- Node0&#45;&gt;Node29 -->
<g id="edge43" class="edge">
<title>Node0&#45;&gt;Node29</title>
<path fill="none" stroke="#191970" d="M864.7027,-291.2795C870.7219,-273.5083 880.8771,-250.5197 896.5,-235 913.1389,-218.471 936.8251,-207.1731 956.8572,-199.9114"/>
<polygon fill="#191970" stroke="#191970" points="958.0208,-203.2126 966.3507,-196.6656 955.7562,-196.589 958.0208,-203.2126"/>
</g>
<!-- Node30 -->
<g id="node31" class="node">
<title>Node30</title>
<polygon fill="none" stroke="#bfbfbf" points="905,-235.5 905,-254.5 980,-254.5 980,-235.5 905,-235.5"/>
<text text-anchor="middle" x="942.5" y="-242.5" font-family="Helvetica,sans-Serif" font-size="10.00" fill="#000000">FairLogger.h</text>
</g>
<!-- Node0&#45;&gt;Node30 -->
<g id="edge44" class="edge">
<title>Node0&#45;&gt;Node30</title>
<path fill="none" stroke="#191970" d="M888.187,-291.3258C900.044,-281.2124 913.2337,-269.9624 923.6458,-261.0815"/>
<polygon fill="#191970" stroke="#191970" points="925.9852,-263.6864 931.3222,-254.534 921.4425,-258.3606 925.9852,-263.6864"/>
</g>
<!-- Node31 -->
<g id="node32" class="node">
<title>Node31</title>
<polygon fill="none" stroke="#bfbfbf" points="998,-235.5 998,-254.5 1081,-254.5 1081,-235.5 998,-235.5"/>
<text text-anchor="middle" x="1039.5" y="-242.5" font-family="Helvetica,sans-Serif" font-size="10.00" fill="#000000">TStopwatch.h</text>
</g>
<!-- Node0&#45;&gt;Node31 -->
<g id="edge45" class="edge">
<title>Node0&#45;&gt;Node31</title>
<path fill="none" stroke="#191970" d="M922.949,-291.4283C951.127,-280.2035 982.8617,-267.5619 1006.0938,-258.3074"/>
<polygon fill="#191970" stroke="#191970" points="1007.4998,-261.5149 1015.4946,-254.5626 1004.9093,-255.0118 1007.4998,-261.5149"/>
</g>
<!-- Node32 -->
<g id="node33" class="node">
<title>Node32</title>
<polygon fill="none" stroke="#bfbfbf" points="1099.5,-235.5 1099.5,-254.5 1171.5,-254.5 1171.5,-235.5 1099.5,-235.5"/>
<text text-anchor="middle" x="1135.5" y="-242.5" font-family="Helvetica,sans-Serif" font-size="10.00" fill="#000000">TRandom.h</text>
</g>
<!-- Node0&#45;&gt;Node32 -->
<g id="edge46" class="edge">
<title>Node0&#45;&gt;Node32</title>
<path fill="none" stroke="#191970" d="M946.2253,-294.3612C993.7784,-281.9598 1050.4043,-267.1922 1089.2517,-257.0612"/>
<polygon fill="#191970" stroke="#191970" points="1090.4279,-260.3716 1099.221,-254.4612 1088.6614,-253.5981 1090.4279,-260.3716"/>
</g>
<!-- Node4 -->
<g id="node5" class="node">
<title>Node4</title>
<polygon fill="none" stroke="#bfbfbf" points="0,-179.5 0,-198.5 65,-198.5 65,-179.5 0,-179.5"/>
<text text-anchor="middle" x="32.5" y="-186.5" font-family="Helvetica,sans-Serif" font-size="10.00" fill="#000000">FairField.h</text>
</g>
<!-- Node3&#45;&gt;Node4 -->
<g id="edge4" class="edge">
<title>Node3&#45;&gt;Node4</title>
<path fill="none" stroke="#191970" d="M692.1997,-235.9711C689.2609,-235.6204 686.3487,-235.2938 683.5,-235 415.9981,-207.411 345.989,-235.0838 79.5,-199 78.0275,-198.8006 76.5323,-198.5806 75.0248,-198.3437"/>
<polygon fill="#191970" stroke="#191970" points="75.4612,-194.8667 65.0053,-196.5768 74.2455,-201.7603 75.4612,-194.8667"/>
</g>
<!-- Node5 -->
<g id="node6" class="node">
<title>Node5</title>
<g id="a_node6"><a xlink:href="../../d3/d91/MagFieldParam_8h.html" target="_top" xlink:title="Definition of the MagFieldParam: container for ALICE mag. field parameters. ">
<polygon fill="none" stroke="#000000" points="199,-179.5 199,-198.5 324,-198.5 324,-179.5 199,-179.5"/>
<text text-anchor="middle" x="261.5" y="-186.5" font-family="Helvetica,sans-Serif" font-size="10.00" fill="#000000">Field/MagFieldParam.h</text>
</a>
</g>
</g>
<!-- Node3&#45;&gt;Node5 -->
<g id="edge5" class="edge">
<title>Node3&#45;&gt;Node5</title>
<path fill="none" stroke="#191970" d="M692.1799,-236.143C689.2463,-235.7468 686.3406,-235.3636 683.5,-235 561.0963,-219.334 418.2772,-204.482 334.1153,-196.0813"/>
<polygon fill="#191970" stroke="#191970" points="334.4453,-192.597 324.1478,-195.0892 333.7519,-199.5626 334.4453,-192.597"/>
</g>
<!-- Node8 -->
<g id="node9" class="node">
<title>Node8</title>
<g id="a_node9"><a xlink:href="../../dd/dfb/MagneticWrapperChebyshev_8h.html" target="_top" xlink:title="Field/MagneticWrapperChebyshev.h">
<polygon fill="none" stroke="#000000" points="494,-179.5 494,-198.5 683,-198.5 683,-179.5 494,-179.5"/>
<text text-anchor="middle" x="588.5" y="-186.5" font-family="Helvetica,sans-Serif" font-size="10.00" fill="#000000">Field/MagneticWrapperChebyshev.h</text>
</a>
</g>
</g>
<!-- Node3&#45;&gt;Node8 -->
<g id="edge8" class="edge">
<title>Node3&#45;&gt;Node8</title>
<path fill="none" stroke="#191970" d="M723.4793,-235.3733C696.4922,-226.1016 655.4983,-212.0178 625.7689,-201.804"/>
<polygon fill="#191970" stroke="#191970" points="626.7497,-198.4403 616.1551,-198.5011 624.4752,-205.0605 626.7497,-198.4403"/>
</g>
<!-- Node10 -->
<g id="node11" class="node">
<title>Node10</title>
<polygon fill="none" stroke="#bfbfbf" points="232,-.5 232,-19.5 299,-19.5 299,-.5 232,-.5"/>
<text text-anchor="middle" x="265.5" y="-7.5" font-family="Helvetica,sans-Serif" font-size="10.00" fill="#000000">TNamed.h</text>
</g>
<!-- Node3&#45;&gt;Node10 -->
<g id="edge40" class="edge">
<title>Node3&#45;&gt;Node10</title>
<path fill="none" stroke="#191970" d="M692.1948,-236.0174C689.2573,-235.6545 686.3467,-235.3126 683.5,-235 574.0889,-222.9848 292.8666,-236.8221 189.5,-199 144.3437,-182.4772 91.5142,-166.2631 112.5,-123 136.4457,-73.6348 193.7586,-40.7484 231.0389,-23.7449"/>
<polygon fill="#191970" stroke="#191970" points="232.7772,-26.8037 240.5151,-19.5666 229.953,-20.3986 232.7772,-26.8037"/>
</g>
<!-- Node15 -->
<g id="node16" class="node">
<title>Node15</title>
<polygon fill="none" stroke="#bfbfbf" points="681,-.5 681,-19.5 740,-19.5 740,-.5 681,-.5"/>
<text text-anchor="middle" x="710.5" y="-7.5" font-family="Helvetica,sans-Serif" font-size="10.00" fill="#000000">Rtypes.h</text>
</g>
<!-- Node3&#45;&gt;Node15 -->
<g id="edge39" class="edge">
<title>Node3&#45;&gt;Node15</title>
<path fill="none" stroke="#191970" d="M748.6297,-235.1985C745.9911,-225.9323 742.1048,-211.609 739.5,-199 726.8288,-137.6627 717.083,-64.0777 712.8332,-29.6146"/>
<polygon fill="#191970" stroke="#191970" points="716.2853,-29.0068 711.6064,-19.5011 709.3362,-29.8498 716.2853,-29.0068"/>
</g>
<!-- Node3&#45;&gt;Node16 -->
<g id="edge24" class="edge">
<title>Node3&#45;&gt;Node16</title>
<path fill="none" stroke="#191970" d="M775.5669,-235.3733C798.3428,-226.2629 832.7344,-212.5062 858.149,-202.3404"/>
<polygon fill="#191970" stroke="#191970" points="859.7623,-205.4648 867.7472,-198.5011 857.1625,-198.9654 859.7623,-205.4648"/>
</g>
<!-- Node28 -->
<g id="node29" class="node">
<title>Node28</title>
<polygon fill="none" stroke="#bfbfbf" points="748.5,-179.5 748.5,-198.5 816.5,-198.5 816.5,-179.5 748.5,-179.5"/>
<text text-anchor="middle" x="782.5" y="-186.5" font-family="Helvetica,sans-Serif" font-size="10.00" fill="#000000">TSystem.h</text>
</g>
<!-- Node3&#45;&gt;Node28 -->
<g id="edge38" class="edge">
<title>Node3&#45;&gt;Node28</title>
<path fill="none" stroke="#191970" d="M756.8998,-235.2455C761.1227,-227.617 767.1173,-216.7881 772.2441,-207.5267"/>
<polygon fill="#191970" stroke="#191970" points="775.381,-209.0867 777.1621,-198.6427 769.2568,-205.6965 775.381,-209.0867"/>
</g>
<!-- Node3&#45;&gt;Node29 -->
<g id="edge41" class="edge">
<title>Node3&#45;&gt;Node29</title>
<path fill="none" stroke="#191970" d="M796.6211,-235.4357C836.3093,-226.908 895.8781,-213.8313 956.7111,-199.1294"/>
<polygon fill="#191970" stroke="#191970" points="957.5909,-202.5176 966.4824,-196.7563 955.9388,-195.7153 957.5909,-202.5176"/>
</g>
<!-- Node6 -->
<g id="node7" class="node">
<title>Node6</title>
<polygon fill="none" stroke="#bfbfbf" points="122,-123.5 122,-142.5 233,-142.5 233,-123.5 122,-123.5"/>
<text text-anchor="middle" x="177.5" y="-130.5" font-family="Helvetica,sans-Serif" font-size="10.00" fill="#000000">FairParGenericSet.h</text>
</g>
<!-- Node5&#45;&gt;Node6 -->
<g id="edge6" class="edge">
<title>Node5&#45;&gt;Node6</title>
<path fill="none" stroke="#191970" d="M246.8683,-179.2455C234.1006,-170.7337 215.3562,-158.2375 200.5701,-148.3801"/>
<polygon fill="#191970" stroke="#191970" points="202.226,-145.2775 191.964,-142.6427 198.3431,-151.1019 202.226,-145.2775"/>
</g>
<!-- Node7 -->
<g id="node8" class="node">
<title>Node7</title>
<polygon fill="none" stroke="#bfbfbf" points="215.5,-62 215.5,-81 275.5,-81 275.5,-62 215.5,-62"/>
<text text-anchor="middle" x="245.5" y="-69" font-family="Helvetica,sans-Serif" font-size="10.00" fill="#000000">TString.h</text>
</g>
<!-- Node5&#45;&gt;Node7 -->
<g id="edge7" class="edge">
<title>Node5&#45;&gt;Node7</title>
<path fill="none" stroke="#191970" d="M260.1907,-179.3845C257.5771,-160.1913 251.6666,-116.786 248.1916,-91.2663"/>
<polygon fill="#191970" stroke="#191970" points="251.6448,-90.6847 246.8274,-81.2484 244.7088,-91.6292 251.6448,-90.6847"/>
</g>
<!-- Node9 -->
<g id="node10" class="node">
<title>Node9</title>
<polygon fill="none" stroke="#bfbfbf" points="504.5,-123.5 504.5,-142.5 560.5,-142.5 560.5,-123.5 504.5,-123.5"/>
<text text-anchor="middle" x="532.5" y="-130.5" font-family="Helvetica,sans-Serif" font-size="10.00" fill="#000000">TMath.h</text>
</g>
<!-- Node8&#45;&gt;Node9 -->
<g id="edge9" class="edge">
<title>Node8&#45;&gt;Node9</title>
<path fill="none" stroke="#191970" d="M578.7455,-179.2455C570.6352,-171.1352 558.9075,-159.4075 549.2919,-149.7919"/>
<polygon fill="#191970" stroke="#191970" points="551.6887,-147.2389 542.1427,-142.6427 546.7389,-152.1887 551.6887,-147.2389"/>
</g>
<!-- Node8&#45;&gt;Node10 -->
<g id="edge10" class="edge">
<title>Node8&#45;&gt;Node10</title>
<path fill="none" stroke="#191970" d="M504.2992,-179.4719C401.9792,-165.8341 238.9277,-136.739 206.5,-87 198.9754,-75.4584 200.454,-68.3803 206.5,-56 212.9041,-42.8865 225.0521,-32.4229 236.6685,-24.8092"/>
<polygon fill="#191970" stroke="#191970" points="238.6098,-27.7252 245.3439,-19.5457 234.9789,-21.7405 238.6098,-27.7252"/>
</g>
<!-- Node11 -->
<g id="node12" class="node">
<title>Node11</title>
<polygon fill="none" stroke="#bfbfbf" points="590,-62 590,-81 663,-81 663,-62 590,-62"/>
<text text-anchor="middle" x="626.5" y="-69" font-family="Helvetica,sans-Serif" font-size="10.00" fill="#000000">TObjArray.h</text>
</g>
<!-- Node8&#45;&gt;Node11 -->
<g id="edge11" class="edge">
<title>Node8&#45;&gt;Node11</title>
<path fill="none" stroke="#191970" d="M591.6097,-179.3845C597.8447,-160.1053 611.9804,-116.3963 620.2182,-90.9241"/>
<polygon fill="#191970" stroke="#191970" points="623.6003,-91.8402 623.3473,-81.2484 616.94,-89.6862 623.6003,-91.8402"/>
</g>
<!-- Node12 -->
<g id="node13" class="node">
<title>Node12</title>
<g id="a_node13"><a xlink:href="../../d8/d64/Chebyshev3D_8h.html" target="_top" xlink:title="MathUtils/Chebyshev3D.h">
<polygon fill="none" stroke="#000000" points="343,-123.5 343,-142.5 486,-142.5 486,-123.5 343,-123.5"/>
<text text-anchor="middle" x="414.5" y="-130.5" font-family="Helvetica,sans-Serif" font-size="10.00" fill="#000000">MathUtils/Chebyshev3D.h</text>
</a>
</g>
</g>
<!-- Node8&#45;&gt;Node12 -->
<g id="edge12" class="edge">
<title>Node8&#45;&gt;Node12</title>
<path fill="none" stroke="#191970" d="M558.5883,-179.3733C529.6548,-170.0613 485.6389,-155.8953 453.8707,-145.671"/>
<polygon fill="#191970" stroke="#191970" points="454.6128,-142.2331 444.0213,-142.5011 452.4682,-148.8965 454.6128,-142.2331"/>
</g>
<!-- Node14 -->
<g id="node15" class="node">
<title>Node14</title>
<g id="a_node15"><a xlink:href="../../d4/d08/Chebyshev3DCalc_8h.html" target="_top" xlink:title="MathUtils/Chebyshev3DCalc.h">
<polygon fill="none" stroke="#000000" points="369.5,-62 369.5,-81 533.5,-81 533.5,-62 369.5,-62"/>
<text text-anchor="middle" x="451.5" y="-69" font-family="Helvetica,sans-Serif" font-size="10.00" fill="#000000">MathUtils/Chebyshev3DCalc.h</text>
</a>
</g>
</g>
<!-- Node8&#45;&gt;Node14 -->
<g id="edge22" class="edge">
<title>Node8&#45;&gt;Node14</title>
<path fill="none" stroke="#191970" d="M588.2116,-179.2702C587.2941,-165.2118 583.6487,-139.1387 569.5,-123 553.0061,-104.1863 528.3762,-91.979 505.8784,-84.1978"/>
<polygon fill="#191970" stroke="#191970" points="506.6558,-80.7708 496.064,-81.027 504.5038,-87.4319 506.6558,-80.7708"/>
</g>
<!-- Node8&#45;&gt;Node15 -->
<g id="edge23" class="edge">
<title>Node8&#45;&gt;Node15</title>
<path fill="none" stroke="#191970" d="M597.495,-179.411C613.5987,-161.9443 647.8754,-123.38 671.5,-87 683.6844,-68.237 694.9215,-45.1702 702.1721,-29.201"/>
<polygon fill="#191970" stroke="#191970" points="705.4658,-30.4079 706.3311,-19.8485 699.0697,-27.5636 705.4658,-30.4079"/>
</g>
<!-- Node12&#45;&gt;Node7 -->
<g id="edge21" class="edge">
<title>Node12&#45;&gt;Node7</title>
<path fill="none" stroke="#191970" d="M388.0938,-123.3906C359.3209,-112.92 313.1304,-96.1111 281.1534,-84.4745"/>
<polygon fill="#191970" stroke="#191970" points="282.3149,-81.1726 271.7208,-81.0419 279.921,-87.7506 282.3149,-81.1726"/>
</g>
<!-- Node12&#45;&gt;Node10 -->
<g id="edge13" class="edge">
<title>Node12&#45;&gt;Node10</title>
<path fill="none" stroke="#191970" d="M401.1985,-123.4006C388.6962,-114.2773 369.5571,-100.0506 353.5,-87 328.8604,-66.9739 301.4804,-42.676 283.9058,-26.8014"/>
<polygon fill="#191970" stroke="#191970" points="285.8795,-23.8664 276.121,-19.7407 281.1768,-29.0514 285.8795,-23.8664"/>
</g>
<!-- Node12&#45;&gt;Node11 -->
<g id="edge14" class="edge">
<title>Node12&#45;&gt;Node11</title>
<path fill="none" stroke="#191970" d="M448.4699,-123.4727C481.0868,-114.2827 531.7229,-99.9053 575.5,-87 578.8411,-86.0151 582.3023,-84.9846 585.776,-83.9435"/>
<polygon fill="#191970" stroke="#191970" points="586.9452,-87.2466 595.5095,-81.0093 584.9248,-80.5445 586.9452,-87.2466"/>
</g>
<!-- Node13 -->
<g id="node14" class="node">
<title>Node13</title>
<polygon fill="none" stroke="#bfbfbf" points="356.5,-.5 356.5,-19.5 402.5,-19.5 402.5,-.5 356.5,-.5"/>
<text text-anchor="middle" x="379.5" y="-7.5" font-family="Helvetica,sans-Serif" font-size="10.00" fill="#000000">cstdio</text>
</g>
<!-- Node12&#45;&gt;Node13 -->
<g id="edge15" class="edge">
<title>Node12&#45;&gt;Node13</title>
<path fill="none" stroke="#191970" d="M396.5401,-123.3701C383.8676,-115.4681 367.8833,-102.9885 360.5,-87 351.7518,-68.0559 360.0195,-44.5569 368.2227,-28.5347"/>
<polygon fill="#191970" stroke="#191970" points="371.3716,-30.0735 373.1692,-19.6323 365.2527,-26.6736 371.3716,-30.0735"/>
</g>
<!-- Node12&#45;&gt;Node14 -->
<g id="edge16" class="edge">
<title>Node12&#45;&gt;Node14</title>
<path fill="none" stroke="#191970" d="M420.2813,-123.3906C425.626,-114.5068 433.7159,-101.0601 440.3211,-90.0811"/>
<polygon fill="#191970" stroke="#191970" points="443.4811,-91.618 445.6372,-81.2449 437.4829,-88.0093 443.4811,-91.618"/>
</g>
<!-- Node12&#45;&gt;Node15 -->
<g id="edge20" class="edge">
<title>Node12&#45;&gt;Node15</title>
<path fill="none" stroke="#191970" d="M450.9574,-123.4957C477.3765,-115.7661 513.4148,-103.447 542.5,-87 561.4726,-76.2714 561.5011,-66.682 580.5,-56 609.1818,-39.8738 644.5375,-27.8042 671.1337,-20.0836"/>
<polygon fill="#191970" stroke="#191970" points="672.1917,-23.4218 680.8658,-17.3382 670.2912,-16.6847 672.1917,-23.4218"/>
</g>
<!-- Node14&#45;&gt;Node10 -->
<g id="edge17" class="edge">
<title>Node14&#45;&gt;Node10</title>
<path fill="none" stroke="#191970" d="M422.4375,-61.8906C390.6338,-51.3749 339.4949,-34.466 304.2856,-22.8243"/>
<polygon fill="#191970" stroke="#191970" points="304.9517,-19.3582 294.3584,-19.5419 302.7541,-26.0043 304.9517,-19.3582"/>
</g>
<!-- Node14&#45;&gt;Node13 -->
<g id="edge18" class="edge">
<title>Node14&#45;&gt;Node13</title>
<path fill="none" stroke="#191970" d="M440.25,-61.8906C429.114,-52.3786 411.854,-37.6357 398.5732,-26.2917"/>
<polygon fill="#191970" stroke="#191970" points="400.7856,-23.5784 390.9086,-19.7449 396.2392,-28.9011 400.7856,-23.5784"/>
</g>
<!-- Node14&#45;&gt;Node15 -->
<g id="edge19" class="edge">
<title>Node14&#45;&gt;Node15</title>
<path fill="none" stroke="#191970" d="M491.6846,-61.9581C540.5002,-50.3668 622.3289,-30.9364 670.8857,-19.4065"/>
<polygon fill="#191970" stroke="#191970" points="671.7975,-22.7874 680.7183,-17.0717 670.1802,-15.9767 671.7975,-22.7874"/>
</g>
<!-- Node16&#45;&gt;Node15 -->
<g id="edge25" class="edge">
<title>Node16&#45;&gt;Node15</title>
<path fill="none" stroke="#191970" d="M880.62,-179.4243C860.5691,-161.6659 816.625,-122.2235 781.5,-87 761.7829,-67.2277 740.1731,-43.4699 726.0359,-27.6226"/>
<polygon fill="#191970" stroke="#191970" points="728.2663,-24.863 719.0101,-19.7079 723.0313,-29.51 728.2663,-24.863"/>
</g>
<!-- Node17 -->
<g id="node18" class="node">
<title>Node17</title>
<polygon fill="none" stroke="#bfbfbf" points="869.5,-123.5 869.5,-142.5 913.5,-142.5 913.5,-123.5 869.5,-123.5"/>
<text text-anchor="middle" x="891.5" y="-130.5" font-family="Helvetica,sans-Serif" font-size="10.00" fill="#000000">string</text>
</g>
<!-- Node16&#45;&gt;Node17 -->
<g id="edge26" class="edge">
<title>Node16&#45;&gt;Node17</title>
<path fill="none" stroke="#191970" d="M891.5,-179.2455C891.5,-171.9382 891.5,-161.6944 891.5,-152.7046"/>
<polygon fill="#191970" stroke="#191970" points="895.0001,-152.6426 891.5,-142.6427 888.0001,-152.6427 895.0001,-152.6426"/>
</g>
<!-- Node18 -->
<g id="node19" class="node">
<title>Node18</title>
<g id="a_node19"><a xlink:href="../../dc/d73/Cartesian_8h.html" target="_top" xlink:title="MathUtils/Cartesian.h">
<polygon fill="none" stroke="#000000" points="1424.5,-123.5 1424.5,-142.5 1546.5,-142.5 1546.5,-123.5 1424.5,-123.5"/>
<text text-anchor="middle" x="1485.5" y="-130.5" font-family="Helvetica,sans-Serif" font-size="10.00" fill="#000000">MathUtils/Cartesian.h</text>
</a>
</g>
</g>
<!-- Node16&#45;&gt;Node18 -->
<g id="edge27" class="edge">
<title>Node16&#45;&gt;Node18</title>
<path fill="none" stroke="#191970" d="M948.3506,-180.1521C951.443,-179.744 954.508,-179.3566 957.5,-179 1120.4752,-159.574 1312.6773,-144.8863 1414.2538,-137.7651"/>
<polygon fill="#191970" stroke="#191970" points="1414.6614,-141.2453 1424.3938,-137.0583 1414.1746,-134.2622 1414.6614,-141.2453"/>
</g>
<!-- Node18&#45;&gt;Node15 -->
<g id="edge35" class="edge">
<title>Node18&#45;&gt;Node15</title>
<path fill="none" stroke="#191970" d="M1424.4121,-130.6604C1271.4091,-124.5297 880.0077,-107.077 824.5,-87 802.3449,-78.9866 800.9479,-69.2982 781.5,-56 765.9851,-45.3911 748.24,-33.8941 734.3712,-25.0479"/>
<polygon fill="#191970" stroke="#191970" points="736.1971,-22.0613 725.8795,-19.6534 732.4435,-27.9699 736.1971,-22.0613"/>
</g>
<!-- Node19 -->
<g id="node20" class="node">
<title>Node19</title>
<polygon fill="none" stroke="#bfbfbf" points="833.5,-56.5 833.5,-86.5 997.5,-86.5 997.5,-56.5 833.5,-56.5"/>
<text text-anchor="start" x="841.5" y="-74.5" font-family="Helvetica,sans-Serif" font-size="10.00" fill="#000000">Math/GenVector/Displacement</text>
<text text-anchor="middle" x="915.5" y="-63.5" font-family="Helvetica,sans-Serif" font-size="10.00" fill="#000000">Vector3D.h</text>
</g>
<!-- Node18&#45;&gt;Node19 -->
<g id="edge28" class="edge">
<title>Node18&#45;&gt;Node19</title>
<path fill="none" stroke="#191970" d="M1424.2232,-128.5026C1335.0831,-121.6505 1164.2263,-107.3517 1007.9844,-86.998"/>
<polygon fill="#191970" stroke="#191970" points="1008.086,-83.4814 997.7152,-85.6486 1007.1739,-90.4217 1008.086,-83.4814"/>
</g>
<!-- Node20 -->
<g id="node21" class="node">
<title>Node20</title>
<polygon fill="none" stroke="#bfbfbf" points="1016,-62 1016,-81 1205,-81 1205,-62 1016,-62"/>
<text text-anchor="middle" x="1110.5" y="-69" font-family="Helvetica,sans-Serif" font-size="10.00" fill="#000000">Math/GenVector/PositionVector3D.h</text>
</g>
<!-- Node18&#45;&gt;Node20 -->
<g id="edge29" class="edge">
<title>Node18&#45;&gt;Node20</title>
<path fill="none" stroke="#191970" d="M1427.3177,-123.4581C1360.1602,-112.4443 1249.8479,-94.3531 1178.7117,-82.6867"/>
<polygon fill="#191970" stroke="#191970" points="1178.9449,-79.1783 1168.5102,-81.0137 1177.812,-86.086 1178.9449,-79.1783"/>
</g>
<!-- Node21 -->
<g id="node22" class="node">
<title>Node21</title>
<polygon fill="none" stroke="#bfbfbf" points="1223.5,-62 1223.5,-81 1383.5,-81 1383.5,-62 1223.5,-62"/>
<text text-anchor="middle" x="1303.5" y="-69" font-family="Helvetica,sans-Serif" font-size="10.00" fill="#000000">Math/GenVector/Rotation3D.h</text>
</g>
<!-- Node18&#45;&gt;Node21 -->
<g id="edge30" class="edge">
<title>Node18&#45;&gt;Node21</title>
<path fill="none" stroke="#191970" d="M1457.0625,-123.3906C1425.9428,-112.8749 1375.9036,-95.966 1341.4515,-84.3243"/>
<polygon fill="#191970" stroke="#191970" points="1342.332,-80.9274 1331.7378,-81.0419 1340.0911,-87.5591 1342.332,-80.9274"/>
</g>
<!-- Node22 -->
<g id="node23" class="node">
<title>Node22</title>
<polygon fill="none" stroke="#bfbfbf" points="1401.5,-62 1401.5,-81 1569.5,-81 1569.5,-62 1401.5,-62"/>
<text text-anchor="middle" x="1485.5" y="-69" font-family="Helvetica,sans-Serif" font-size="10.00" fill="#000000">Math/GenVector/Transform3D.h</text>
</g>
<!-- Node18&#45;&gt;Node22 -->
<g id="edge31" class="edge">
<title>Node18&#45;&gt;Node22</title>
<path fill="none" stroke="#191970" d="M1485.5,-123.3906C1485.5,-114.8657 1485.5,-102.1392 1485.5,-91.4235"/>
<polygon fill="#191970" stroke="#191970" points="1489.0001,-91.2448 1485.5,-81.2449 1482.0001,-91.2449 1489.0001,-91.2448"/>
</g>
<!-- Node23 -->
<g id="node24" class="node">
<title>Node23</title>
<polygon fill="none" stroke="#bfbfbf" points="1588,-62 1588,-81 1761,-81 1761,-62 1588,-62"/>
<text text-anchor="middle" x="1674.5" y="-69" font-family="Helvetica,sans-Serif" font-size="10.00" fill="#000000">Math/GenVector/Translation3D.h</text>
</g>
<!-- Node18&#45;&gt;Node23 -->
<g id="edge32" class="edge">
<title>Node18&#45;&gt;Node23</title>
<path fill="none" stroke="#191970" d="M1515.0313,-123.3906C1547.4866,-112.8298 1599.7581,-95.8208 1635.5486,-84.1747"/>
<polygon fill="#191970" stroke="#191970" points="1636.7499,-87.4645 1645.1761,-81.0419 1634.5839,-80.808 1636.7499,-87.4645"/>
</g>
<!-- Node24 -->
<g id="node25" class="node">
<title>Node24</title>
<polygon fill="none" stroke="#bfbfbf" points="1779.5,-56.5 1779.5,-86.5 1943.5,-86.5 1943.5,-56.5 1779.5,-56.5"/>
<text text-anchor="start" x="1787.5" y="-74.5" font-family="Helvetica,sans-Serif" font-size="10.00" fill="#000000">Math/GenVector/Displacement</text>
<text text-anchor="middle" x="1861.5" y="-63.5" font-family="Helvetica,sans-Serif" font-size="10.00" fill="#000000">Vector2D.h</text>
</g>
<!-- Node18&#45;&gt;Node24 -->
<g id="edge33" class="edge">
<title>Node18&#45;&gt;Node24</title>
<path fill="none" stroke="#191970" d="M1545.5732,-123.4593C1601.0705,-114.61 1686.0938,-100.9636 1769.2934,-87.193"/>
<polygon fill="#191970" stroke="#191970" points="1769.8723,-90.6449 1779.1655,-85.557 1768.7278,-83.739 1769.8723,-90.6449"/>
</g>
<!-- Node25 -->
<g id="node26" class="node">
<title>Node25</title>
<polygon fill="none" stroke="#bfbfbf" points="1962,-62 1962,-81 2151,-81 2151,-62 1962,-62"/>
<text text-anchor="middle" x="2056.5" y="-69" font-family="Helvetica,sans-Serif" font-size="10.00" fill="#000000">Math/GenVector/PositionVector2D.h</text>
</g>
<!-- Node18&#45;&gt;Node25 -->
<g id="edge34" class="edge">
<title>Node18&#45;&gt;Node25</title>
<path fill="none" stroke="#191970" d="M1546.8035,-127.9409C1636.1651,-120.3443 1807.3696,-104.9515 1952.5,-87 1963.3192,-85.6618 1974.7501,-84.1044 1985.9186,-82.503"/>
<polygon fill="#191970" stroke="#191970" points="1986.6848,-85.9284 1996.0766,-81.0249 1985.6768,-79.0014 1986.6848,-85.9284"/>
</g>
<!-- Node26 -->
<g id="node27" class="node">
<title>Node26</title>
<polygon fill="none" stroke="#bfbfbf" points="2169.5,-62 2169.5,-81 2251.5,-81 2251.5,-62 2169.5,-62"/>
<text text-anchor="middle" x="2210.5" y="-69" font-family="Helvetica,sans-Serif" font-size="10.00" fill="#000000">TGeoMatrix.h</text>
</g>
<!-- Node18&#45;&gt;Node26 -->
<g id="edge36" class="edge">
<title>Node18&#45;&gt;Node26</title>
<path fill="none" stroke="#191970" d="M1546.5657,-130.6579C1689.72,-124.8732 2043.6592,-108.7839 2160.5,-87 2164.9419,-86.1718 2169.5445,-85.0807 2174.0776,-83.86"/>
<polygon fill="#191970" stroke="#191970" points="2175.1765,-87.1855 2183.8015,-81.0325 2173.2219,-80.4639 2175.1765,-87.1855"/>
</g>
<!-- Node27 -->
<g id="node28" class="node">
<title>Node27</title>
<polygon fill="none" stroke="#bfbfbf" points="2270,-62 2270,-81 2319,-81 2319,-62 2270,-62"/>
<text text-anchor="middle" x="2294.5" y="-69" font-family="Helvetica,sans-Serif" font-size="10.00" fill="#000000">iosfwd</text>
</g>
<!-- Node18&#45;&gt;Node27 -->
<g id="edge37" class="edge">
<title>Node18&#45;&gt;Node27</title>
<path fill="none" stroke="#191970" d="M1546.6473,-132.2605C1705.0211,-129.8842 2125.6033,-120.5138 2260.5,-87 2262.6996,-86.4535 2264.9321,-85.7675 2267.1475,-84.9902"/>
<polygon fill="#191970" stroke="#191970" points="2268.6511,-88.1572 2276.596,-81.148 2266.0142,-81.6728 2268.6511,-88.1572"/>
</g>
</g>
</svg>
        <g id="navigator" transform="translate(0 0)" fill="#404254">
                <rect fill="#f2f5e9" fill-opacity="0.5" stroke="#606060" stroke-width=".5" x="0" y="0" width="60" height="60"/>
                <use id="zoomplus" xlink:href="#zoomPlus" x="17" y="9" onmousedown="handleZoom(evt,'in')"/>
                <use id="zoomminus" xlink:href="#zoomMin" x="42" y="9" onmousedown="handleZoom(evt,'out')"/>
                <use id="reset" xlink:href="#resetDef" x="30" y="36" onmousedown="handleReset()"/>
                <g id="arrowUp" xlink:href="#dirArrow" transform="translate(30 24)" onmousedown="handlePan(0,-1)">
                  <use xlink:href="#rim" fill="#404040">
                        <set attributeName="fill" to="#808080" begin="arrowUp.mouseover" end="arrowUp.mouseout"/>
                  </use>
                  <path fill="none" stroke="white" stroke-width="1.5" d="M0,-3.0v7 M-2.5,-0.5L0,-3.0L2.5,-0.5"/>
                </g>
                <g id="arrowRight" xlink:href="#dirArrow" transform="rotate(90) translate(36 -43)" onmousedown="handlePan(1,0)">
                  <use xlink:href="#rim" fill="#404040">
                        <set attributeName="fill" to="#808080" begin="arrowRight.mouseover" end="arrowRight.mouseout"/>
                  </use>
                  <path fill="none" stroke="white" stroke-width="1.5" d="M0,-3.0v7 M-2.5,-0.5L0,-3.0L2.5,-0.5"/>
                </g>
                <g id="arrowDown" xlink:href="#dirArrow" transform="rotate(180) translate(-30 -48)" onmousedown="handlePan(0,1)">
                  <use xlink:href="#rim" fill="#404040">
                        <set attributeName="fill" to="#808080" begin="arrowDown.mouseover" end="arrowDown.mouseout"/>
                  </use>
                  <path fill="none" stroke="white" stroke-width="1.5" d="M0,-3.0v7 M-2.5,-0.5L0,-3.0L2.5,-0.5"/>
                </g>
                <g id="arrowLeft" xlink:href="#dirArrow" transform="rotate(270) translate(-36 17)" onmousedown="handlePan(-1,0)">
                  <use xlink:href="#rim" fill="#404040">
                        <set attributeName="fill" to="#808080" begin="arrowLeft.mouseover" end="arrowLeft.mouseout"/>
                  </use>
                  <path fill="none" stroke="white" stroke-width="1.5" d="M0,-3.0v7 M-2.5,-0.5L0,-3.0L2.5,-0.5"/>
                </g>
        </g>
        <svg viewBox="0 0 15 15" width="100%" height="30px" preserveAspectRatio="xMaxYMin meet">
         <g id="arrow_out" transform="scale(0.3 0.3)">
          <a xlink:href="testMagneticField_8cxx__incl_org.svg" target="_base">
           <rect id="button" ry="5" rx="5" y="6" x="6" height="38" width="38"
                fill="#f2f5e9" fill-opacity="0.5" stroke="#606060" stroke-width="1.0"/>
           <path id="arrow"
             d="M 11.500037,31.436501 C 11.940474,20.09759 22.043105,11.32322 32.158766,21.979434 L 37.068811,17.246167 C 37.068811,17.246167 37.088388,32 37.088388,32 L 22.160133,31.978069 C 22.160133,31.978069 26.997745,27.140456 26.997745,27.140456 C 18.528582,18.264221 13.291696,25.230495 11.500037,31.436501 z"
             style="fill:#404040;"/>
          </a>
         </g>
        </svg>
</svg>
