<?xml version="1.0" encoding="UTF-8" standalone="no"?>
<!DOCTYPE svg PUBLIC "-//W3C//DTD SVG 1.1//EN"
 "http://www.w3.org/Graphics/SVG/1.1/DTD/svg11.dtd">
<!-- Generated by graphviz version 2.40.1 (20161225.0304)
 -->
<!-- Title: /home/travis/build/AliceO2Group/AliceO2/Detectors/TPC/base/src/Mapper.cxx Pages: 1 -->
<!--zoomable 520 -->
<svg id="main" version="1.1" xmlns="http://www.w3.org/2000/svg" xmlns:xlink="http://www.w3.org/1999/xlink" xml:space="preserve" onload="init(evt)">
<style type="text/css"><![CDATA[
.edge:hover path { stroke: red; }
.edge:hover polygon { stroke: red; fill: red; }
]]></style>
<script type="text/javascript"><![CDATA[
var edges = document.getElementsByTagName('g');
if (edges && edges.length) {
  for (var i=0;i<edges.length;i++) {
    if (edges[i].id.substr(0,4)=='edge') {
      edges[i].setAttribute('class','edge');
    }
  }
}
]]></script>
        <defs>
                <circle id="rim" cx="0" cy="0" r="7"/>
                <circle id="rim2" cx="0" cy="0" r="3.5"/>
                <g id="zoomPlus">
                        <use xlink:href="#rim" fill="#404040">
                                <set attributeName="fill" to="#808080" begin="zoomplus.mouseover" end="zoomplus.mouseout"/>
                        </use>
                        <path d="M-4,0h8M0,-4v8" fill="none" stroke="white" stroke-width="1.5" pointer-events="none"/>
                </g>
                <g id="zoomMin">
                        <use xlink:href="#rim" fill="#404040">
                                <set attributeName="fill" to="#808080" begin="zoomminus.mouseover" end="zoomminus.mouseout"/>
                        </use>
                        <path d="M-4,0h8" fill="none" stroke="white" stroke-width="1.5" pointer-events="none"/>
                </g>
                <g id="dirArrow">
                        <path fill="none" stroke="white" stroke-width="1.5" d="M0,-3.0v7 M-2.5,-0.5L0,-3.0L2.5,-0.5"/>
                </g>
               <g id="resetDef">
                       <use xlink:href="#rim2" fill="#404040">
                               <set attributeName="fill" to="#808080" begin="reset.mouseover" end="reset.mouseout"/>
                       </use>
               </g>
        </defs>

<script type="text/javascript">
var viewWidth = 1600;
var viewHeight = 520;
var sectionId = 'dynsection-0';
</script>
<script xlink:href="../../svgpan.js"/>
<svg id="graph" class="graph">
<g id="viewport">
<title>/home/travis/build/AliceO2Group/AliceO2/Detectors/TPC/base/src/Mapper.cxx</title>
<!-- Node0 -->
<g id="node1" class="node">
<title>Node0</title>
<polygon fill="#bfbfbf" stroke="#000000" points="315.5,-459.5 315.5,-511.5 447.5,-511.5 447.5,-459.5 315.5,-459.5"/>
<text text-anchor="start" x="323.5" y="-499.5" font-family="Helvetica,sans-Serif" font-size="10.00" fill="#000000">/home/travis/build</text>
<text text-anchor="start" x="323.5" y="-488.5" font-family="Helvetica,sans-Serif" font-size="10.00" fill="#000000">/AliceO2Group/AliceO2</text>
<text text-anchor="start" x="323.5" y="-477.5" font-family="Helvetica,sans-Serif" font-size="10.00" fill="#000000">/Detectors/TPC/base/src</text>
<text text-anchor="middle" x="381.5" y="-466.5" font-family="Helvetica,sans-Serif" font-size="10.00" fill="#000000">/Mapper.cxx</text>
</g>
<!-- Node1 -->
<g id="node2" class="node">
<title>Node1</title>
<polygon fill="none" stroke="#bfbfbf" points="170,-403.5 170,-422.5 225,-422.5 225,-403.5 170,-403.5"/>
<text text-anchor="middle" x="197.5" y="-410.5" font-family="Helvetica,sans-Serif" font-size="10.00" fill="#000000">fstream</text>
</g>
<!-- Node0&#45;&gt;Node1 -->
<g id="edge1" class="edge">
<title>Node0&#45;&gt;Node1</title>
<path fill="none" stroke="#191970" d="M315.3317,-459.4283C286.8441,-448.2035 254.7607,-435.5619 231.2733,-426.3074"/>
<polygon fill="#191970" stroke="#191970" points="232.3561,-422.9722 221.7692,-422.5626 229.7899,-429.4849 232.3561,-422.9722"/>
</g>
<!-- Node2 -->
<g id="node3" class="node">
<title>Node2</title>
<polygon fill="none" stroke="#bfbfbf" points="243.5,-403.5 243.5,-422.5 303.5,-422.5 303.5,-403.5 243.5,-403.5"/>
<text text-anchor="middle" x="273.5" y="-410.5" font-family="Helvetica,sans-Serif" font-size="10.00" fill="#000000">iostream</text>
</g>
<!-- Node0&#45;&gt;Node2 -->
<g id="edge2" class="edge">
<title>Node0&#45;&gt;Node2</title>
<path fill="none" stroke="#191970" d="M342.5095,-459.3258C326.9966,-448.912 309.6884,-437.2931 296.2865,-428.2965"/>
<polygon fill="#191970" stroke="#191970" points="297.9559,-425.2017 287.7024,-422.534 294.0543,-431.0136 297.9559,-425.2017"/>
</g>
<!-- Node3 -->
<g id="node4" class="node">
<title>Node3</title>
<polygon fill="none" stroke="#bfbfbf" points="359.5,-347.5 359.5,-366.5 403.5,-366.5 403.5,-347.5 359.5,-347.5"/>
<text text-anchor="middle" x="381.5" y="-354.5" font-family="Helvetica,sans-Serif" font-size="10.00" fill="#000000">string</text>
</g>
<!-- Node0&#45;&gt;Node3 -->
<g id="edge3" class="edge">
<title>Node0&#45;&gt;Node3</title>
<path fill="none" stroke="#191970" d="M381.5,-459.4961C381.5,-435.0156 381.5,-398.8881 381.5,-376.7068"/>
<polygon fill="#191970" stroke="#191970" points="385.0001,-376.5141 381.5,-366.5142 378.0001,-376.5142 385.0001,-376.5141"/>
</g>
<!-- Node4 -->
<g id="node5" class="node">
<title>Node4</title>
<polygon fill="none" stroke="#bfbfbf" points="966.5,-403.5 966.5,-422.5 1022.5,-422.5 1022.5,-403.5 966.5,-403.5"/>
<text text-anchor="middle" x="994.5" y="-410.5" font-family="Helvetica,sans-Serif" font-size="10.00" fill="#000000">sstream</text>
</g>
<!-- Node0&#45;&gt;Node4 -->
<g id="edge4" class="edge">
<title>Node0&#45;&gt;Node4</title>
<path fill="none" stroke="#191970" d="M447.6411,-481.6863C553.4165,-474.8491 767.1593,-458.0059 956.4711,-422.9465"/>
<polygon fill="#191970" stroke="#191970" points="957.1383,-426.3825 966.323,-421.1012 955.8495,-419.5022 957.1383,-426.3825"/>
</g>
<!-- Node5 -->
<g id="node6" class="node">
<title>Node5</title>
<polygon fill="none" stroke="#bfbfbf" points="1041,-403.5 1041,-422.5 1090,-422.5 1090,-403.5 1041,-403.5"/>
<text text-anchor="middle" x="1065.5" y="-410.5" font-family="Helvetica,sans-Serif" font-size="10.00" fill="#000000">cstdlib</text>
</g>
<!-- Node0&#45;&gt;Node5 -->
<g id="edge5" class="edge">
<title>Node0&#45;&gt;Node5</title>
<path fill="none" stroke="#191970" d="M447.5965,-483.2931C563.9629,-478.5039 812.8901,-464.2158 1030.7303,-422.7993"/>
<polygon fill="#191970" stroke="#191970" points="1031.5936,-426.1974 1040.7518,-420.8704 1030.2705,-419.3236 1031.5936,-426.1974"/>
</g>
<!-- Node6 -->
<g id="node7" class="node">
<title>Node6</title>
<polygon fill="none" stroke="#bfbfbf" points="408,-67.5 408,-86.5 455,-86.5 455,-67.5 408,-67.5"/>
<text text-anchor="middle" x="431.5" y="-74.5" font-family="Helvetica,sans-Serif" font-size="10.00" fill="#000000">cmath</text>
</g>
<!-- Node0&#45;&gt;Node6 -->
<g id="edge6" class="edge">
<title>Node0&#45;&gt;Node6</title>
<path fill="none" stroke="#191970" d="M364.5723,-459.0904C350.0669,-433.8918 331.5,-394.3438 331.5,-357 331.5,-357 331.5,-357 331.5,-189 331.5,-145.0606 374.8553,-110.4269 404.4715,-91.8942"/>
<polygon fill="#191970" stroke="#191970" points="406.3945,-94.8219 413.1585,-86.6672 402.7855,-88.824 406.3945,-94.8219"/>
</g>
<!-- Node7 -->
<g id="node8" class="node">
<title>Node7</title>
<g id="a_node8"><a xlink:href="../../d5/d1d/TPC_2base_2include_2TPCBase_2Mapper_8h.html" target="_top" xlink:title="TPCBase/Mapper.h">
<polygon fill="none" stroke="#000000" points="841,-403.5 841,-422.5 948,-422.5 948,-403.5 841,-403.5"/>
<text text-anchor="middle" x="894.5" y="-410.5" font-family="Helvetica,sans-Serif" font-size="10.00" fill="#000000">TPCBase/Mapper.h</text>
</a>
</g>
</g>
<!-- Node0&#45;&gt;Node7 -->
<g id="edge7" class="edge">
<title>Node0&#45;&gt;Node7</title>
<path fill="none" stroke="#191970" d="M447.5156,-476.1703C546.7025,-462.1527 732.9485,-435.8314 830.7752,-422.0059"/>
<polygon fill="#191970" stroke="#191970" points="831.4095,-425.4512 840.8213,-420.5862 830.4299,-418.52 831.4095,-425.4512"/>
</g>
<!-- Node7&#45;&gt;Node3 -->
<g id="edge11" class="edge">
<title>Node7&#45;&gt;Node3</title>
<path fill="none" stroke="#191970" d="M840.7801,-410.8811C752.0187,-406.6977 569.4421,-395.2053 417.5,-367 416.2444,-366.7669 414.969,-366.5105 413.6843,-366.2358"/>
<polygon fill="#191970" stroke="#191970" points="414.3693,-362.8007 403.8269,-363.8534 412.7248,-369.6048 414.3693,-362.8007"/>
</g>
<!-- Node7&#45;&gt;Node6 -->
<g id="edge12" class="edge">
<title>Node7&#45;&gt;Node6</title>
<path fill="none" stroke="#191970" d="M840.9357,-411.2819C719.0598,-405.9183 431.5,-384.424 431.5,-301 431.5,-301 431.5,-301 431.5,-189 431.5,-156.7116 431.5,-119.1872 431.5,-96.8048"/>
<polygon fill="#191970" stroke="#191970" points="435.0001,-96.5883 431.5,-86.5884 428.0001,-96.5884 435.0001,-96.5883"/>
</g>
<!-- Node8 -->
<g id="node9" class="node">
<title>Node8</title>
<polygon fill="none" stroke="#bfbfbf" points="1179.5,-347.5 1179.5,-366.5 1217.5,-366.5 1217.5,-347.5 1179.5,-347.5"/>
<text text-anchor="middle" x="1198.5" y="-354.5" font-family="Helvetica,sans-Serif" font-size="10.00" fill="#000000">map</text>
</g>
<!-- Node7&#45;&gt;Node8 -->
<g id="edge8" class="edge">
<title>Node7&#45;&gt;Node8</title>
<path fill="none" stroke="#191970" d="M948.2727,-404.2467C1021.1945,-392.3187 1144.7708,-371.8796 1165.5,-367 1166.7783,-366.6991 1168.0799,-366.3763 1169.3914,-366.0376"/>
<polygon fill="#191970" stroke="#191970" points="1170.7311,-369.2971 1179.416,-363.2289 1168.8425,-362.5567 1170.7311,-369.2971"/>
</g>
<!-- Node9 -->
<g id="node10" class="node">
<title>Node9</title>
<polygon fill="none" stroke="#bfbfbf" points="1086,-291.5 1086,-310.5 1133,-310.5 1133,-291.5 1086,-291.5"/>
<text text-anchor="middle" x="1109.5" y="-298.5" font-family="Helvetica,sans-Serif" font-size="10.00" fill="#000000">vector</text>
</g>
<!-- Node7&#45;&gt;Node9 -->
<g id="edge9" class="edge">
<title>Node7&#45;&gt;Node9</title>
<path fill="none" stroke="#191970" d="M948.1613,-403.6854C1003.7944,-393.556 1084.1055,-377.4215 1094.5,-367 1106.5349,-354.9339 1109.7478,-335.3564 1110.272,-320.651"/>
<polygon fill="#191970" stroke="#191970" points="1113.7719,-320.5529 1110.2503,-310.5605 1106.7719,-320.568 1113.7719,-320.5529"/>
</g>
<!-- Node10 -->
<g id="node11" class="node">
<title>Node10</title>
<polygon fill="none" stroke="#bfbfbf" points="1235.5,-347.5 1235.5,-366.5 1277.5,-366.5 1277.5,-347.5 1235.5,-347.5"/>
<text text-anchor="middle" x="1256.5" y="-354.5" font-family="Helvetica,sans-Serif" font-size="10.00" fill="#000000">array</text>
</g>
<!-- Node7&#45;&gt;Node10 -->
<g id="edge10" class="edge">
<title>Node7&#45;&gt;Node10</title>
<path fill="none" stroke="#191970" d="M948.1027,-404.4006C951.2811,-403.919 954.4318,-403.4487 957.5,-403 1073.7047,-386.0042 1107.2286,-393.7549 1225.5348,-366.8664"/>
<polygon fill="#191970" stroke="#191970" points="1226.3795,-370.2636 1235.3363,-364.6045 1224.8054,-363.4428 1226.3795,-370.2636"/>
</g>
<!-- Node11 -->
<g id="node12" class="node">
<title>Node11</title>
<g id="a_node12"><a xlink:href="../../d1/d73/Defs_8h.html" target="_top" xlink:title="DataFormatsTPC/Defs.h">
<polygon fill="none" stroke="#000000" points="720,-123.5 720,-142.5 853,-142.5 853,-123.5 720,-123.5"/>
<text text-anchor="middle" x="786.5" y="-130.5" font-family="Helvetica,sans-Serif" font-size="10.00" fill="#000000">DataFormatsTPC/Defs.h</text>
</a>
</g>
</g>
<!-- Node7&#45;&gt;Node11 -->
<g id="edge13" class="edge">
<title>Node7&#45;&gt;Node11</title>
<path fill="none" stroke="#191970" d="M948.1241,-404.2061C1008.6362,-393.8988 1100.3942,-376.9631 1113.5,-367 1142.2811,-345.1205 1159.8973,-322.6922 1142.5,-291 1087.569,-190.9337 950.2758,-154.1348 863.133,-140.6761"/>
<polygon fill="#191970" stroke="#191970" points="863.43,-137.1821 853.0261,-139.1848 862.4081,-144.1071 863.43,-137.1821"/>
</g>
<!-- Node13 -->
<g id="node14" class="node">
<title>Node13</title>
<g id="a_node14"><a xlink:href="../../dc/d73/Cartesian_8h.html" target="_top" xlink:title="MathUtils/Cartesian.h">
<polygon fill="none" stroke="#000000" points="924.5,-67.5 924.5,-86.5 1046.5,-86.5 1046.5,-67.5 924.5,-67.5"/>
<text text-anchor="middle" x="985.5" y="-74.5" font-family="Helvetica,sans-Serif" font-size="10.00" fill="#000000">MathUtils/Cartesian.h</text>
</a>
</g>
</g>
<!-- Node7&#45;&gt;Node13 -->
<g id="edge55" class="edge">
<title>Node7&#45;&gt;Node13</title>
<path fill="none" stroke="#191970" d="M948.0748,-404.1883C951.2602,-403.7601 954.4201,-403.3596 957.5,-403 1010.5123,-396.8112 1395.0918,-400.6744 1436.5,-367 1460.1821,-347.741 1455.5,-331.5246 1455.5,-301 1455.5,-301 1455.5,-301 1455.5,-189 1455.5,-108.0653 1188.4396,-85.5078 1056.9388,-79.3062"/>
<polygon fill="#191970" stroke="#191970" points="1057.0923,-75.8097 1046.9443,-78.8541 1056.7759,-82.8025 1057.0923,-75.8097"/>
</g>
<!-- Node24 -->
<g id="node25" class="node">
<title>Node24</title>
<g id="a_node25"><a xlink:href="../../de/d41/PadPos_8h.html" target="_top" xlink:title="TPCBase/PadPos.h">
<polygon fill="none" stroke="#000000" points="890.5,-235.5 890.5,-254.5 996.5,-254.5 996.5,-235.5 890.5,-235.5"/>
<text text-anchor="middle" x="943.5" y="-242.5" font-family="Helvetica,sans-Serif" font-size="10.00" fill="#000000">TPCBase/PadPos.h</text>
</a>
</g>
</g>
<!-- Node7&#45;&gt;Node24 -->
<g id="edge27" class="edge">
<title>Node7&#45;&gt;Node24</title>
<path fill="none" stroke="#191970" d="M900.9386,-403.414C912.235,-385.9521 935.2115,-347.3949 943.5,-311 946.9635,-295.7917 946.7437,-278.0959 945.7783,-264.858"/>
<polygon fill="#191970" stroke="#191970" points="949.2299,-264.1767 944.8119,-254.5469 942.2604,-264.8299 949.2299,-264.1767"/>
</g>
<!-- Node25 -->
<g id="node26" class="node">
<title>Node25</title>
<g id="a_node26"><a xlink:href="../../dd/d0b/PadSecPos_8h.html" target="_top" xlink:title="TPCBase/PadSecPos.h">
<polygon fill="none" stroke="#000000" points="498,-291.5 498,-310.5 621,-310.5 621,-291.5 498,-291.5"/>
<text text-anchor="middle" x="559.5" y="-298.5" font-family="Helvetica,sans-Serif" font-size="10.00" fill="#000000">TPCBase/PadSecPos.h</text>
</a>
</g>
</g>
<!-- Node7&#45;&gt;Node25 -->
<g id="edge28" class="edge">
<title>Node7&#45;&gt;Node25</title>
<path fill="none" stroke="#191970" d="M840.9225,-404.1257C800.0978,-396.5423 742.8617,-384.1288 694.5,-367 654.8575,-352.9594 611.6103,-330.4311 585.0173,-315.6719"/>
<polygon fill="#191970" stroke="#191970" points="586.4442,-312.4592 576.0109,-310.6159 583.0175,-318.5631 586.4442,-312.4592"/>
</g>
<!-- Node26 -->
<g id="node27" class="node">
<title>Node26</title>
<g id="a_node27"><a xlink:href="../../d3/dd6/Sector_8h.html" target="_top" xlink:title="TPCBase/Sector.h">
<polygon fill="none" stroke="#000000" points="509,-179.5 509,-198.5 610,-198.5 610,-179.5 509,-179.5"/>
<text text-anchor="middle" x="559.5" y="-186.5" font-family="Helvetica,sans-Serif" font-size="10.00" fill="#000000">TPCBase/Sector.h</text>
</a>
</g>
</g>
<!-- Node7&#45;&gt;Node26 -->
<g id="edge54" class="edge">
<title>Node7&#45;&gt;Node26</title>
<path fill="none" stroke="#191970" d="M840.9626,-408.0057C740.2406,-397.3355 529.0162,-368.468 488.5,-311 462.9242,-274.7234 509.0783,-228.7099 538.2662,-204.896"/>
<polygon fill="#191970" stroke="#191970" points="540.6535,-207.4703 546.3285,-198.5235 536.3129,-201.9786 540.6535,-207.4703"/>
</g>
<!-- Node28 -->
<g id="node29" class="node">
<title>Node28</title>
<g id="a_node29"><a xlink:href="../../da/d61/PadROCPos_8h.html" target="_top" xlink:title="TPCBase/PadROCPos.h">
<polygon fill="none" stroke="#000000" points="788,-291.5 788,-310.5 915,-310.5 915,-291.5 788,-291.5"/>
<text text-anchor="middle" x="851.5" y="-298.5" font-family="Helvetica,sans-Serif" font-size="10.00" fill="#000000">TPCBase/PadROCPos.h</text>
</a>
</g>
</g>
<!-- Node7&#45;&gt;Node28 -->
<g id="edge33" class="edge">
<title>Node7&#45;&gt;Node28</title>
<path fill="none" stroke="#191970" d="M890.8338,-403.4509C883.7572,-385.0186 868.0955,-344.2254 858.8112,-320.043"/>
<polygon fill="#191970" stroke="#191970" points="862.0086,-318.606 855.1569,-310.5249 855.4737,-321.115 862.0086,-318.606"/>
</g>
<!-- Node30 -->
<g id="node31" class="node">
<title>Node30</title>
<g id="a_node31"><a xlink:href="../../d3/d54/DigitPos_8h.html" target="_top" xlink:title="TPCBase/DigitPos.h">
<polygon fill="none" stroke="#000000" points="703.5,-347.5 703.5,-366.5 815.5,-366.5 815.5,-347.5 703.5,-347.5"/>
<text text-anchor="middle" x="759.5" y="-354.5" font-family="Helvetica,sans-Serif" font-size="10.00" fill="#000000">TPCBase/DigitPos.h</text>
</a>
</g>
</g>
<!-- Node7&#45;&gt;Node30 -->
<g id="edge39" class="edge">
<title>Node7&#45;&gt;Node30</title>
<path fill="none" stroke="#191970" d="M871.2927,-403.3733C849.3301,-394.2629 816.1668,-380.5062 791.6599,-370.3404"/>
<polygon fill="#191970" stroke="#191970" points="792.9824,-367.0999 782.4045,-366.5011 790.3003,-373.5657 792.9824,-367.0999"/>
</g>
<!-- Node32 -->
<g id="node33" class="node">
<title>Node32</title>
<g id="a_node33"><a xlink:href="../../d1/d1f/FECInfo_8h.html" target="_top" xlink:title="TPCBase/FECInfo.h">
<polygon fill="none" stroke="#000000" points="1483.5,-179.5 1483.5,-198.5 1591.5,-198.5 1591.5,-179.5 1483.5,-179.5"/>
<text text-anchor="middle" x="1537.5" y="-186.5" font-family="Helvetica,sans-Serif" font-size="10.00" fill="#000000">TPCBase/FECInfo.h</text>
</a>
</g>
</g>
<!-- Node7&#45;&gt;Node32 -->
<g id="edge47" class="edge">
<title>Node7&#45;&gt;Node32</title>
<path fill="none" stroke="#191970" d="M948.0727,-404.1707C951.2587,-403.7469 954.4192,-403.3521 957.5,-403 1014.1604,-396.5237 1423.6903,-400.9679 1469.5,-367 1520.7938,-328.9655 1533.3956,-247.0858 1536.4916,-209.1067"/>
<polygon fill="#191970" stroke="#191970" points="1540.004,-209.0381 1537.1796,-198.8266 1533.0196,-208.5706 1540.004,-209.0381"/>
</g>
<!-- Node33 -->
<g id="node34" class="node">
<title>Node33</title>
<g id="a_node34"><a xlink:href="../../da/d9d/PadRegionInfo_8h.html" target="_top" xlink:title="TPCBase/PadRegionInfo.h">
<polygon fill="none" stroke="#000000" points="945.5,-347.5 945.5,-366.5 1085.5,-366.5 1085.5,-347.5 945.5,-347.5"/>
<text text-anchor="middle" x="1015.5" y="-354.5" font-family="Helvetica,sans-Serif" font-size="10.00" fill="#000000">TPCBase/PadRegionInfo.h</text>
</a>
</g>
</g>
<!-- Node7&#45;&gt;Node33 -->
<g id="edge49" class="edge">
<title>Node7&#45;&gt;Node33</title>
<path fill="none" stroke="#191970" d="M915.3006,-403.3733C934.7243,-394.3838 963.9224,-380.8706 985.7964,-370.7471"/>
<polygon fill="#191970" stroke="#191970" points="987.3656,-373.8776 994.9708,-366.5011 984.4255,-367.5249 987.3656,-373.8776"/>
</g>
<!-- Node34 -->
<g id="node35" class="node">
<title>Node34</title>
<g id="a_node35"><a xlink:href="../../d6/d42/PartitionInfo_8h.html" target="_top" xlink:title="TPCBase/PartitionInfo.h">
<polygon fill="none" stroke="#000000" points="1296,-347.5 1296,-366.5 1427,-366.5 1427,-347.5 1296,-347.5"/>
<text text-anchor="middle" x="1361.5" y="-354.5" font-family="Helvetica,sans-Serif" font-size="10.00" fill="#000000">TPCBase/PartitionInfo.h</text>
</a>
</g>
</g>
<!-- Node7&#45;&gt;Node34 -->
<g id="edge53" class="edge">
<title>Node7&#45;&gt;Node34</title>
<path fill="none" stroke="#191970" d="M948.0904,-404.3127C951.2719,-403.8532 954.4266,-403.4118 957.5,-403 1100.0173,-383.9032 1138.7512,-384.6756 1285.3803,-367.1082"/>
<polygon fill="#191970" stroke="#191970" points="1286.1524,-370.5405 1295.6611,-365.8678 1285.3138,-363.5909 1286.1524,-370.5405"/>
</g>
<!-- Node11&#45;&gt;Node6 -->
<g id="edge14" class="edge">
<title>Node11&#45;&gt;Node6</title>
<path fill="none" stroke="#191970" d="M725.8767,-123.4369C650.777,-111.5902 525.4286,-91.8169 465.4691,-82.3585"/>
<polygon fill="#191970" stroke="#191970" points="465.8244,-78.8714 455.4012,-80.7703 464.7336,-85.7859 465.8244,-78.8714"/>
</g>
<!-- Node12 -->
<g id="node13" class="node">
<title>Node12</title>
<g id="a_node13"><a xlink:href="../../d1/da8/GPUROOTCartesianFwd_8h.html" target="_top" xlink:title="GPUROOTCartesianFwd.h">
<polygon fill="none" stroke="#000000" points="716.5,-67.5 716.5,-86.5 856.5,-86.5 856.5,-67.5 716.5,-67.5"/>
<text text-anchor="middle" x="786.5" y="-74.5" font-family="Helvetica,sans-Serif" font-size="10.00" fill="#000000">GPUROOTCartesianFwd.h</text>
</a>
</g>
</g>
<!-- Node11&#45;&gt;Node12 -->
<g id="edge15" class="edge">
<title>Node11&#45;&gt;Node12</title>
<path fill="none" stroke="#191970" d="M786.5,-123.2455C786.5,-115.9382 786.5,-105.6944 786.5,-96.7046"/>
<polygon fill="#191970" stroke="#191970" points="790.0001,-96.6426 786.5,-86.6427 783.0001,-96.6427 790.0001,-96.6426"/>
</g>
<!-- Node11&#45;&gt;Node13 -->
<g id="edge16" class="edge">
<title>Node11&#45;&gt;Node13</title>
<path fill="none" stroke="#191970" d="M820.7093,-123.3733C854.2297,-113.9404 905.4505,-99.5265 941.881,-89.2747"/>
<polygon fill="#191970" stroke="#191970" points="943.0591,-92.5792 951.7371,-86.5011 941.1628,-85.8409 943.0591,-92.5792"/>
</g>
<!-- Node14 -->
<g id="node15" class="node">
<title>Node14</title>
<polygon fill="none" stroke="#bfbfbf" points="1330.5,-.5 1330.5,-30.5 1494.5,-30.5 1494.5,-.5 1330.5,-.5"/>
<text text-anchor="start" x="1338.5" y="-18.5" font-family="Helvetica,sans-Serif" font-size="10.00" fill="#000000">Math/GenVector/Displacement</text>
<text text-anchor="middle" x="1412.5" y="-7.5" font-family="Helvetica,sans-Serif" font-size="10.00" fill="#000000">Vector3D.h</text>
</g>
<!-- Node13&#45;&gt;Node14 -->
<g id="edge17" class="edge">
<title>Node13&#45;&gt;Node14</title>
<path fill="none" stroke="#191970" d="M1046.5922,-69.2454C1111.8198,-60.8286 1218.4744,-46.6734 1320.0509,-31.1959"/>
<polygon fill="#191970" stroke="#191970" points="1320.8244,-34.6183 1330.1796,-29.6455 1319.7652,-27.6989 1320.8244,-34.6183"/>
</g>
<!-- Node15 -->
<g id="node16" class="node">
<title>Node15</title>
<polygon fill="none" stroke="#bfbfbf" points="0,-6 0,-25 189,-25 189,-6 0,-6"/>
<text text-anchor="middle" x="94.5" y="-13" font-family="Helvetica,sans-Serif" font-size="10.00" fill="#000000">Math/GenVector/PositionVector3D.h</text>
</g>
<!-- Node13&#45;&gt;Node15 -->
<g id="edge18" class="edge">
<title>Node13&#45;&gt;Node15</title>
<path fill="none" stroke="#191970" d="M924.4792,-71.5678C905.5826,-69.979 884.688,-68.317 865.5,-67 569.321,-46.6707 493.8649,-60.9143 198.5,-31 186.6521,-29.8001 174.0892,-28.2052 161.9451,-26.4945"/>
<polygon fill="#191970" stroke="#191970" points="162.2656,-23.0046 151.8675,-25.0365 161.2633,-29.9324 162.2656,-23.0046"/>
</g>
<!-- Node16 -->
<g id="node17" class="node">
<title>Node16</title>
<polygon fill="none" stroke="#bfbfbf" points="207.5,-6 207.5,-25 367.5,-25 367.5,-6 207.5,-6"/>
<text text-anchor="middle" x="287.5" y="-13" font-family="Helvetica,sans-Serif" font-size="10.00" fill="#000000">Math/GenVector/Rotation3D.h</text>
</g>
<!-- Node13&#45;&gt;Node16 -->
<g id="edge19" class="edge">
<title>Node13&#45;&gt;Node16</title>
<path fill="none" stroke="#191970" d="M924.4622,-71.7988C905.5649,-70.2194 884.6742,-68.5047 865.5,-67 648.2464,-49.9511 592.7762,-57.7276 376.5,-31 367.0269,-29.8293 357.028,-28.3392 347.2886,-26.7478"/>
<polygon fill="#191970" stroke="#191970" points="347.7081,-23.2693 337.266,-25.0618 346.5468,-30.1723 347.7081,-23.2693"/>
</g>
<!-- Node17 -->
<g id="node18" class="node">
<title>Node17</title>
<polygon fill="none" stroke="#bfbfbf" points="385.5,-6 385.5,-25 553.5,-25 553.5,-6 385.5,-6"/>
<text text-anchor="middle" x="469.5" y="-13" font-family="Helvetica,sans-Serif" font-size="10.00" fill="#000000">Math/GenVector/Transform3D.h</text>
</g>
<!-- Node13&#45;&gt;Node17 -->
<g id="edge20" class="edge">
<title>Node13&#45;&gt;Node17</title>
<path fill="none" stroke="#191970" d="M924.4238,-71.4572C842.0713,-63.7325 690.9326,-48.6715 562.5,-31 553.1126,-29.7084 543.2151,-28.2083 533.5182,-26.66"/>
<polygon fill="#191970" stroke="#191970" points="533.9472,-23.1839 523.5155,-25.0359 532.8252,-30.0934 533.9472,-23.1839"/>
</g>
<!-- Node18 -->
<g id="node19" class="node">
<title>Node18</title>
<polygon fill="none" stroke="#bfbfbf" points="572,-6 572,-25 745,-25 745,-6 572,-6"/>
<text text-anchor="middle" x="658.5" y="-13" font-family="Helvetica,sans-Serif" font-size="10.00" fill="#000000">Math/GenVector/Translation3D.h</text>
</g>
<!-- Node13&#45;&gt;Node18 -->
<g id="edge21" class="edge">
<title>Node13&#45;&gt;Node18</title>
<path fill="none" stroke="#191970" d="M934.765,-67.4581C876.5637,-56.512 781.1927,-38.5752 719.1285,-26.9026"/>
<polygon fill="#191970" stroke="#191970" points="719.5596,-23.4224 709.0849,-25.0137 718.2657,-30.3018 719.5596,-23.4224"/>
</g>
<!-- Node19 -->
<g id="node20" class="node">
<title>Node19</title>
<polygon fill="none" stroke="#bfbfbf" points="763.5,-.5 763.5,-30.5 927.5,-30.5 927.5,-.5 763.5,-.5"/>
<text text-anchor="start" x="771.5" y="-18.5" font-family="Helvetica,sans-Serif" font-size="10.00" fill="#000000">Math/GenVector/Displacement</text>
<text text-anchor="middle" x="845.5" y="-7.5" font-family="Helvetica,sans-Serif" font-size="10.00" fill="#000000">Vector2D.h</text>
</g>
<!-- Node13&#45;&gt;Node19 -->
<g id="edge22" class="edge">
<title>Node13&#45;&gt;Node19</title>
<path fill="none" stroke="#191970" d="M963.625,-67.3906C943.7128,-58.6435 913.7309,-45.4728 888.9562,-34.5897"/>
<polygon fill="#191970" stroke="#191970" points="890.3111,-31.3621 879.7479,-30.5446 887.4957,-37.771 890.3111,-31.3621"/>
</g>
<!-- Node20 -->
<g id="node21" class="node">
<title>Node20</title>
<polygon fill="none" stroke="#bfbfbf" points="946,-6 946,-25 1135,-25 1135,-6 946,-6"/>
<text text-anchor="middle" x="1040.5" y="-13" font-family="Helvetica,sans-Serif" font-size="10.00" fill="#000000">Math/GenVector/PositionVector2D.h</text>
</g>
<!-- Node13&#45;&gt;Node20 -->
<g id="edge23" class="edge">
<title>Node13&#45;&gt;Node20</title>
<path fill="none" stroke="#191970" d="M994.0938,-67.3906C1002.3597,-58.1478 1015.0426,-43.966 1025.0617,-32.7628"/>
<polygon fill="#191970" stroke="#191970" points="1027.7278,-35.0321 1031.7851,-25.2449 1022.51,-30.3657 1027.7278,-35.0321"/>
</g>
<!-- Node21 -->
<g id="node22" class="node">
<title>Node21</title>
<polygon fill="none" stroke="#bfbfbf" points="1153,-6 1153,-25 1212,-25 1212,-6 1153,-6"/>
<text text-anchor="middle" x="1182.5" y="-13" font-family="Helvetica,sans-Serif" font-size="10.00" fill="#000000">Rtypes.h</text>
</g>
<!-- Node13&#45;&gt;Node21 -->
<g id="edge24" class="edge">
<title>Node13&#45;&gt;Node21</title>
<path fill="none" stroke="#191970" d="M1022.4748,-67.4919C1054.9236,-58.8663 1103.2413,-45.3379 1144.5,-31 1146.4181,-30.3334 1148.3801,-29.6232 1150.3524,-28.8872"/>
<polygon fill="#191970" stroke="#191970" points="1152.095,-31.9648 1160.145,-25.0766 1149.5565,-25.4414 1152.095,-31.9648"/>
</g>
<!-- Node22 -->
<g id="node23" class="node">
<title>Node22</title>
<polygon fill="none" stroke="#bfbfbf" points="1230.5,-6 1230.5,-25 1312.5,-25 1312.5,-6 1230.5,-6"/>
<text text-anchor="middle" x="1271.5" y="-13" font-family="Helvetica,sans-Serif" font-size="10.00" fill="#000000">TGeoMatrix.h</text>
</g>
<!-- Node13&#45;&gt;Node22 -->
<g id="edge25" class="edge">
<title>Node13&#45;&gt;Node22</title>
<path fill="none" stroke="#191970" d="M1043.5941,-67.4815C1091.6017,-59.1847 1161.3858,-46.1292 1221.5,-31 1225.152,-30.0809 1228.9317,-29.0532 1232.7022,-27.9762"/>
<polygon fill="#191970" stroke="#191970" points="1233.9748,-31.2495 1242.567,-25.0508 1231.9846,-24.5384 1233.9748,-31.2495"/>
</g>
<!-- Node23 -->
<g id="node24" class="node">
<title>Node23</title>
<polygon fill="none" stroke="#bfbfbf" points="1513,-6 1513,-25 1562,-25 1562,-6 1513,-6"/>
<text text-anchor="middle" x="1537.5" y="-13" font-family="Helvetica,sans-Serif" font-size="10.00" fill="#000000">iosfwd</text>
</g>
<!-- Node13&#45;&gt;Node23 -->
<g id="edge26" class="edge">
<title>Node13&#45;&gt;Node23</title>
<path fill="none" stroke="#191970" d="M1046.5777,-74.1695C1164.3547,-68.2847 1418.7169,-53.3865 1503.5,-31 1505.6914,-30.4214 1507.9179,-29.712 1510.1291,-28.9183"/>
<polygon fill="#191970" stroke="#191970" points="1511.6474,-32.0786 1519.5692,-25.0433 1508.9892,-25.6029 1511.6474,-32.0786"/>
</g>
<!-- Node25&#45;&gt;Node24 -->
<g id="edge32" class="edge">
<title>Node25&#45;&gt;Node24</title>
<path fill="none" stroke="#191970" d="M621.1962,-292.0026C692.2238,-281.6445 808.2976,-264.717 880.0548,-254.2524"/>
<polygon fill="#191970" stroke="#191970" points="880.9195,-257.6634 890.3097,-252.7569 879.9093,-250.7367 880.9195,-257.6634"/>
</g>
<!-- Node25&#45;&gt;Node26 -->
<g id="edge29" class="edge">
<title>Node25&#45;&gt;Node26</title>
<path fill="none" stroke="#191970" d="M559.5,-291.4509C559.5,-273.184 559.5,-232.9553 559.5,-208.6976"/>
<polygon fill="#191970" stroke="#191970" points="563.0001,-208.5249 559.5,-198.5249 556.0001,-208.5249 563.0001,-208.5249"/>
</g>
<!-- Node26&#45;&gt;Node11 -->
<g id="edge31" class="edge">
<title>Node26&#45;&gt;Node11</title>
<path fill="none" stroke="#191970" d="M598.2648,-179.4369C636.8692,-169.9133 696.2384,-155.2672 737.9572,-144.9753"/>
<polygon fill="#191970" stroke="#191970" points="739.0245,-148.317 747.8951,-142.5237 737.3479,-141.5208 739.0245,-148.317"/>
</g>
<!-- Node27 -->
<g id="node28" class="node">
<title>Node27</title>
<g id="a_node28"><a xlink:href="../../d0/dda/DataFormats_2Detectors_2TPC_2include_2DataFormatsTPC_2Constants_8h.html" target="_top" xlink:title="DataFormatsTPC/Constants.h">
<polygon fill="none" stroke="#000000" points="480,-123.5 480,-142.5 639,-142.5 639,-123.5 480,-123.5"/>
<text text-anchor="middle" x="559.5" y="-130.5" font-family="Helvetica,sans-Serif" font-size="10.00" fill="#000000">DataFormatsTPC/Constants.h</text>
</a>
</g>
</g>
<!-- Node26&#45;&gt;Node27 -->
<g id="edge30" class="edge">
<title>Node26&#45;&gt;Node27</title>
<path fill="none" stroke="#191970" d="M559.5,-179.2455C559.5,-171.9382 559.5,-161.6944 559.5,-152.7046"/>
<polygon fill="#191970" stroke="#191970" points="563.0001,-152.6426 559.5,-142.6427 556.0001,-152.6427 563.0001,-152.6426"/>
</g>
<!-- Node28&#45;&gt;Node11 -->
<g id="edge34" class="edge">
<title>Node28&#45;&gt;Node11</title>
<path fill="none" stroke="#191970" d="M847.8191,-291.4862C837.4551,-264.6994 807.879,-188.2565 793.9398,-152.2289"/>
<polygon fill="#191970" stroke="#191970" points="797.1751,-150.8912 790.3025,-142.8279 790.6467,-153.4171 797.1751,-150.8912"/>
</g>
<!-- Node28&#45;&gt;Node24 -->
<g id="edge38" class="edge">
<title>Node28&#45;&gt;Node24</title>
<path fill="none" stroke="#191970" d="M867.5252,-291.2455C881.6408,-282.6534 902.4263,-270.0014 918.6899,-260.1018"/>
<polygon fill="#191970" stroke="#191970" points="920.9363,-262.8319 927.6585,-254.6427 917.2966,-256.8525 920.9363,-262.8319"/>
</g>
<!-- Node29 -->
<g id="node30" class="node">
<title>Node29</title>
<g id="a_node30"><a xlink:href="../../dc/d14/ROC_8h.html" target="_top" xlink:title="TPCBase/ROC.h">
<polygon fill="none" stroke="#000000" points="666.5,-235.5 666.5,-254.5 758.5,-254.5 758.5,-235.5 666.5,-235.5"/>
<text text-anchor="middle" x="712.5" y="-242.5" font-family="Helvetica,sans-Serif" font-size="10.00" fill="#000000">TPCBase/ROC.h</text>
</a>
</g>
</g>
<!-- Node28&#45;&gt;Node29 -->
<g id="edge35" class="edge">
<title>Node28&#45;&gt;Node29</title>
<path fill="none" stroke="#191970" d="M827.605,-291.3733C804.9918,-282.2629 770.8458,-268.5062 745.6127,-258.3404"/>
<polygon fill="#191970" stroke="#191970" points="746.6666,-254.9917 736.0831,-254.5011 744.0507,-261.4845 746.6666,-254.9917"/>
</g>
<!-- Node29&#45;&gt;Node11 -->
<g id="edge36" class="edge">
<title>Node29&#45;&gt;Node11</title>
<path fill="none" stroke="#191970" d="M718.8092,-235.4509C731.1515,-216.7707 758.6682,-175.1238 774.5568,-151.0761"/>
<polygon fill="#191970" stroke="#191970" points="777.6143,-152.7977 780.2068,-142.5249 771.774,-148.9388 777.6143,-152.7977"/>
</g>
<!-- Node29&#45;&gt;Node26 -->
<g id="edge37" class="edge">
<title>Node29&#45;&gt;Node26</title>
<path fill="none" stroke="#191970" d="M686.1984,-235.3733C661.0872,-226.1822 623.0562,-212.2624 595.2128,-202.0713"/>
<polygon fill="#191970" stroke="#191970" points="596.0522,-198.6516 585.4584,-198.5011 593.6462,-205.2251 596.0522,-198.6516"/>
</g>
<!-- Node30&#45;&gt;Node11 -->
<g id="edge40" class="edge">
<title>Node30&#45;&gt;Node11</title>
<path fill="none" stroke="#191970" d="M760.6602,-347.375C764.7538,-313.4133 778.5751,-198.7472 784.1448,-152.5392"/>
<polygon fill="#191970" stroke="#191970" points="787.6222,-152.9362 785.3442,-142.5891 780.6725,-152.0984 787.6222,-152.9362"/>
</g>
<!-- Node30&#45;&gt;Node24 -->
<g id="edge45" class="edge">
<title>Node30&#45;&gt;Node24</title>
<path fill="none" stroke="#191970" d="M815.3246,-347.4539C856.8783,-339.2734 908.9795,-326.3905 924.5,-311 936.7794,-298.8235 941.2437,-279.2607 942.8067,-264.5888"/>
<polygon fill="#191970" stroke="#191970" points="946.3041,-264.7476 943.5178,-254.5258 939.3215,-264.2541 946.3041,-264.7476"/>
</g>
<!-- Node30&#45;&gt;Node25 -->
<g id="edge46" class="edge">
<title>Node30&#45;&gt;Node25</title>
<path fill="none" stroke="#191970" d="M725.1188,-347.3733C691.4299,-337.9404 639.9518,-323.5265 603.3382,-313.2747"/>
<polygon fill="#191970" stroke="#191970" points="604.006,-309.8271 593.4326,-310.5011 602.1185,-316.5679 604.006,-309.8271"/>
</g>
<!-- Node31 -->
<g id="node32" class="node">
<title>Node31</title>
<g id="a_node32"><a xlink:href="../../df/d26/CRU_8h.html" target="_top" xlink:title="TPCBase/CRU.h">
<polygon fill="none" stroke="#000000" points="639.5,-291.5 639.5,-310.5 731.5,-310.5 731.5,-291.5 639.5,-291.5"/>
<text text-anchor="middle" x="685.5" y="-298.5" font-family="Helvetica,sans-Serif" font-size="10.00" fill="#000000">TPCBase/CRU.h</text>
</a>
</g>
</g>
<!-- Node30&#45;&gt;Node31 -->
<g id="edge41" class="edge">
<title>Node30&#45;&gt;Node31</title>
<path fill="none" stroke="#191970" d="M746.6102,-347.2455C735.5746,-338.8943 719.4708,-326.7076 706.5647,-316.9408"/>
<polygon fill="#191970" stroke="#191970" points="708.3283,-313.8862 698.2421,-310.6427 704.1041,-319.4681 708.3283,-313.8862"/>
</g>
<!-- Node31&#45;&gt;Node11 -->
<g id="edge42" class="edge">
<title>Node31&#45;&gt;Node11</title>
<path fill="none" stroke="#191970" d="M676.2092,-291.4689C664.7682,-278.5186 647.9542,-254.7172 657.5,-235 677.7384,-193.197 724.344,-163.3348 755.6355,-147.1173"/>
<polygon fill="#191970" stroke="#191970" points="757.4341,-150.131 764.8089,-142.5243 754.3001,-143.8718 757.4341,-150.131"/>
</g>
<!-- Node31&#45;&gt;Node26 -->
<g id="edge43" class="edge">
<title>Node31&#45;&gt;Node26</title>
<path fill="none" stroke="#191970" d="M671.4816,-291.323C658.8165,-282.3742 639.8624,-268.4624 624.5,-255 606.8712,-239.5516 588.2465,-220.3004 575.4742,-206.584"/>
<polygon fill="#191970" stroke="#191970" points="577.6899,-203.8237 568.3391,-198.8424 572.5426,-208.5677 577.6899,-203.8237"/>
</g>
<!-- Node31&#45;&gt;Node29 -->
<g id="edge44" class="edge">
<title>Node31&#45;&gt;Node29</title>
<path fill="none" stroke="#191970" d="M690.203,-291.2455C693.8424,-283.6973 698.9924,-273.0158 703.4262,-263.8197"/>
<polygon fill="#191970" stroke="#191970" points="706.6605,-265.1704 707.8509,-254.6427 700.3551,-262.1303 706.6605,-265.1704"/>
</g>
<!-- Node32&#45;&gt;Node23 -->
<g id="edge48" class="edge">
<title>Node32&#45;&gt;Node23</title>
<path fill="none" stroke="#191970" d="M1537.5,-179.4248C1537.5,-151.999 1537.5,-72.732 1537.5,-35.3964"/>
<polygon fill="#191970" stroke="#191970" points="1541.0001,-35.2595 1537.5,-25.2595 1534.0001,-35.2596 1541.0001,-35.2595"/>
</g>
<!-- Node33&#45;&gt;Node9 -->
<g id="edge50" class="edge">
<title>Node33&#45;&gt;Node9</title>
<path fill="none" stroke="#191970" d="M1031.8736,-347.2455C1046.4308,-338.5731 1067.931,-325.7645 1084.6152,-315.825"/>
<polygon fill="#191970" stroke="#191970" points="1086.5144,-318.7676 1093.3141,-310.6427 1082.9317,-312.7539 1086.5144,-318.7676"/>
</g>
<!-- Node33&#45;&gt;Node11 -->
<g id="edge51" class="edge">
<title>Node33&#45;&gt;Node11</title>
<path fill="none" stroke="#191970" d="M1017.8384,-347.2759C1022.6024,-324.9488 1030.955,-269.3026 1005.5,-235 968.0086,-184.4775 899.2648,-158.1421 848.7641,-144.9951"/>
<polygon fill="#191970" stroke="#191970" points="849.4718,-141.5645 838.9218,-142.5383 847.7765,-148.3561 849.4718,-141.5645"/>
</g>
<!-- Node33&#45;&gt;Node24 -->
<g id="edge52" class="edge">
<title>Node33&#45;&gt;Node24</title>
<path fill="none" stroke="#191970" d="M1014.2662,-347.3482C1012.1816,-333.8392 1007.0075,-308.9379 995.5,-291 987.9749,-279.2698 976.6395,-268.7519 966.4709,-260.7441"/>
<polygon fill="#191970" stroke="#191970" points="968.4156,-257.8279 958.3129,-254.6364 964.2203,-263.4314 968.4156,-257.8279"/>
</g>
</g>
</svg>
        <g id="navigator" transform="translate(0 0)" fill="#404254">
                <rect fill="#f2f5e9" fill-opacity="0.5" stroke="#606060" stroke-width=".5" x="0" y="0" width="60" height="60"/>
                <use id="zoomplus" xlink:href="#zoomPlus" x="17" y="9" onmousedown="handleZoom(evt,'in')"/>
                <use id="zoomminus" xlink:href="#zoomMin" x="42" y="9" onmousedown="handleZoom(evt,'out')"/>
                <use id="reset" xlink:href="#resetDef" x="30" y="36" onmousedown="handleReset()"/>
                <g id="arrowUp" xlink:href="#dirArrow" transform="translate(30 24)" onmousedown="handlePan(0,-1)">
                  <use xlink:href="#rim" fill="#404040">
                        <set attributeName="fill" to="#808080" begin="arrowUp.mouseover" end="arrowUp.mouseout"/>
                  </use>
                  <path fill="none" stroke="white" stroke-width="1.5" d="M0,-3.0v7 M-2.5,-0.5L0,-3.0L2.5,-0.5"/>
                </g>
                <g id="arrowRight" xlink:href="#dirArrow" transform="rotate(90) translate(36 -43)" onmousedown="handlePan(1,0)">
                  <use xlink:href="#rim" fill="#404040">
                        <set attributeName="fill" to="#808080" begin="arrowRight.mouseover" end="arrowRight.mouseout"/>
                  </use>
                  <path fill="none" stroke="white" stroke-width="1.5" d="M0,-3.0v7 M-2.5,-0.5L0,-3.0L2.5,-0.5"/>
                </g>
                <g id="arrowDown" xlink:href="#dirArrow" transform="rotate(180) translate(-30 -48)" onmousedown="handlePan(0,1)">
                  <use xlink:href="#rim" fill="#404040">
                        <set attributeName="fill" to="#808080" begin="arrowDown.mouseover" end="arrowDown.mouseout"/>
                  </use>
                  <path fill="none" stroke="white" stroke-width="1.5" d="M0,-3.0v7 M-2.5,-0.5L0,-3.0L2.5,-0.5"/>
                </g>
                <g id="arrowLeft" xlink:href="#dirArrow" transform="rotate(270) translate(-36 17)" onmousedown="handlePan(-1,0)">
                  <use xlink:href="#rim" fill="#404040">
                        <set attributeName="fill" to="#808080" begin="arrowLeft.mouseover" end="arrowLeft.mouseout"/>
                  </use>
                  <path fill="none" stroke="white" stroke-width="1.5" d="M0,-3.0v7 M-2.5,-0.5L0,-3.0L2.5,-0.5"/>
                </g>
        </g>
        <svg viewBox="0 0 15 15" width="100%" height="30px" preserveAspectRatio="xMaxYMin meet">
         <g id="arrow_out" transform="scale(0.3 0.3)">
          <a xlink:href="TPC_2base_2src_2Mapper_8cxx__incl_org.svg" target="_base">
           <rect id="button" ry="5" rx="5" y="6" x="6" height="38" width="38"
                fill="#f2f5e9" fill-opacity="0.5" stroke="#606060" stroke-width="1.0"/>
           <path id="arrow"
             d="M 11.500037,31.436501 C 11.940474,20.09759 22.043105,11.32322 32.158766,21.979434 L 37.068811,17.246167 C 37.068811,17.246167 37.088388,32 37.088388,32 L 22.160133,31.978069 C 22.160133,31.978069 26.997745,27.140456 26.997745,27.140456 C 18.528582,18.264221 13.291696,25.230495 11.500037,31.436501 z"
             style="fill:#404040;"/>
          </a>
         </g>
        </svg>
</svg>
