<?xml version="1.0" encoding="UTF-8" standalone="no"?>
<!DOCTYPE svg PUBLIC "-//W3C//DTD SVG 1.1//EN"
 "http://www.w3.org/Graphics/SVG/1.1/DTD/svg11.dtd">
<!-- Generated by graphviz version 2.40.1 (20161225.0304)
 -->
<!-- Title: /home/travis/build/AliceO2Group/AliceO2/DataFormats/Detectors/ITSMFT/MFT/src/TrackMFT.cxx Pages: 1 -->
<svg width="894pt" height="464pt"
 viewBox="0.00 0.00 894.00 464.00" xmlns="http://www.w3.org/2000/svg" xmlns:xlink="http://www.w3.org/1999/xlink">
<g id="graph0" class="graph" transform="scale(1 1) rotate(0) translate(4 460)">
<title>/home/travis/build/AliceO2Group/AliceO2/DataFormats/Detectors/ITSMFT/MFT/src/TrackMFT.cxx</title>
<!-- Node0 -->
<g id="node1" class="node">
<title>Node0</title>
<polygon fill="#bfbfbf" stroke="#000000" points="638,-403.5 638,-455.5 799,-455.5 799,-403.5 638,-403.5"/>
<text text-anchor="start" x="646" y="-443.5" font-family="Helvetica,sans-Serif" font-size="10.00" fill="#000000">/home/travis/build</text>
<text text-anchor="start" x="646" y="-432.5" font-family="Helvetica,sans-Serif" font-size="10.00" fill="#000000">/AliceO2Group/AliceO2</text>
<text text-anchor="start" x="646" y="-421.5" font-family="Helvetica,sans-Serif" font-size="10.00" fill="#000000">/DataFormats/Detectors</text>
<text text-anchor="middle" x="718.5" y="-410.5" font-family="Helvetica,sans-Serif" font-size="10.00" fill="#000000">/ITSMFT/MFT/src/TrackMFT.cxx</text>
</g>
<!-- Node1 -->
<g id="node2" class="node">
<title>Node1</title>
<g id="a_node2"><a xlink:href="../../db/dd0/TrackMFT_8h.html" target="_top" xlink:title="DataFormatsMFT/TrackMFT.h">
<polygon fill="none" stroke="#000000" points="371,-347.5 371,-366.5 526,-366.5 526,-347.5 371,-347.5"/>
<text text-anchor="middle" x="448.5" y="-354.5" font-family="Helvetica,sans-Serif" font-size="10.00" fill="#000000">DataFormatsMFT/TrackMFT.h</text>
</a>
</g>
</g>
<!-- Node0&#45;&gt;Node1 -->
<g id="edge1" class="edge">
<title>Node0&#45;&gt;Node1</title>
<path fill="none" stroke="#191970" d="M637.8568,-407.8458C590.8272,-395.2175 533.2321,-379.7521 493.9958,-369.2165"/>
<polygon fill="#191970" stroke="#191970" points="494.7513,-365.7954 484.1857,-366.5823 492.9359,-372.5559 494.7513,-365.7954"/>
</g>
<!-- Node10 -->
<g id="node11" class="node">
<title>Node10</title>
<g id="a_node11"><a xlink:href="../../d9/d52/Common_2MathUtils_2include_2MathUtils_2Utils_8h.html" target="_top" xlink:title="MathUtils/Utils.h">
<polygon fill="none" stroke="#000000" points="596.5,-224.5 596.5,-243.5 694.5,-243.5 694.5,-224.5 596.5,-224.5"/>
<text text-anchor="middle" x="645.5" y="-231.5" font-family="Helvetica,sans-Serif" font-size="10.00" fill="#000000">MathUtils/Utils.h</text>
</a>
</g>
</g>
<!-- Node0&#45;&gt;Node10 -->
<g id="edge33" class="edge">
<title>Node0&#45;&gt;Node10</title>
<path fill="none" stroke="#191970" d="M708.6549,-403.134C693.7713,-363.2745 665.8861,-288.5958 652.7264,-253.353"/>
<polygon fill="#191970" stroke="#191970" points="655.9229,-251.9077 649.1458,-243.7639 649.3651,-254.3564 655.9229,-251.9077"/>
</g>
<!-- Node23 -->
<g id="node24" class="node">
<title>Node23</title>
<g id="a_node24"><a xlink:href="../../d6/d84/MathConstants_8h.html" target="_top" xlink:title="useful math constants ">
<polygon fill="none" stroke="#000000" points="645.5,-112.5 645.5,-131.5 839.5,-131.5 839.5,-112.5 645.5,-112.5"/>
<text text-anchor="middle" x="742.5" y="-119.5" font-family="Helvetica,sans-Serif" font-size="10.00" fill="#000000">CommonConstants/MathConstants.h</text>
</a>
</g>
</g>
<!-- Node0&#45;&gt;Node23 -->
<g id="edge30" class="edge">
<title>Node0&#45;&gt;Node23</title>
<path fill="none" stroke="#191970" d="M726.0938,-403.0546C733.125,-376.2046 742.5,-333.3145 742.5,-295.5 742.5,-295.5 742.5,-295.5 742.5,-234 742.5,-201.7116 742.5,-164.1872 742.5,-141.8048"/>
<polygon fill="#191970" stroke="#191970" points="746.0001,-141.5883 742.5,-131.5884 739.0001,-141.5884 746.0001,-141.5883"/>
</g>
<!-- Node24 -->
<g id="node25" class="node">
<title>Node24</title>
<g id="a_node25"><a xlink:href="../../dd/da4/Logger_8h.html" target="_top" xlink:title="Framework/Logger.h">
<polygon fill="none" stroke="#000000" points="771,-347.5 771,-366.5 886,-366.5 886,-347.5 771,-347.5"/>
<text text-anchor="middle" x="828.5" y="-354.5" font-family="Helvetica,sans-Serif" font-size="10.00" fill="#000000">Framework/Logger.h</text>
</a>
</g>
</g>
<!-- Node0&#45;&gt;Node24 -->
<g id="edge31" class="edge">
<title>Node0&#45;&gt;Node24</title>
<path fill="none" stroke="#191970" d="M758.2125,-403.3258C774.1647,-392.8119 791.9806,-381.0696 805.6842,-372.0377"/>
<polygon fill="#191970" stroke="#191970" points="807.6111,-374.9595 814.0346,-366.534 803.7589,-369.1148 807.6111,-374.9595"/>
</g>
<!-- Node2 -->
<g id="node3" class="node">
<title>Node2</title>
<polygon fill="none" stroke="#bfbfbf" points="0,-286 0,-305 47,-305 47,-286 0,-286"/>
<text text-anchor="middle" x="23.5" y="-293" font-family="Helvetica,sans-Serif" font-size="10.00" fill="#000000">vector</text>
</g>
<!-- Node1&#45;&gt;Node2 -->
<g id="edge2" class="edge">
<title>Node1&#45;&gt;Node2</title>
<path fill="none" stroke="#191970" d="M370.606,-350.9807C273.3492,-342.9273 112.7916,-327.71 55.5,-311 53.7889,-310.5009 52.0566,-309.9172 50.3298,-309.2744"/>
<polygon fill="#191970" stroke="#191970" points="51.2528,-305.8613 40.6838,-305.1225 48.4853,-312.291 51.2528,-305.8613"/>
</g>
<!-- Node3 -->
<g id="node4" class="node">
<title>Node3</title>
<polygon fill="none" stroke="#bfbfbf" points="522.5,-224.5 522.5,-243.5 578.5,-243.5 578.5,-224.5 522.5,-224.5"/>
<text text-anchor="middle" x="550.5" y="-231.5" font-family="Helvetica,sans-Serif" font-size="10.00" fill="#000000">TMath.h</text>
</g>
<!-- Node1&#45;&gt;Node3 -->
<g id="edge3" class="edge">
<title>Node1&#45;&gt;Node3</title>
<path fill="none" stroke="#191970" d="M526.0709,-347.8574C571.8184,-340.6916 623.4418,-328.8901 637.5,-311 646.0128,-300.1668 644.6098,-291.8016 637.5,-280 631.3559,-269.8013 606.1144,-257.0729 584.3912,-247.5922"/>
<polygon fill="#191970" stroke="#191970" points="585.6236,-244.3129 575.0517,-243.6154 582.8812,-250.7534 585.6236,-244.3129"/>
</g>
<!-- Node4 -->
<g id="node5" class="node">
<title>Node4</title>
<polygon fill="none" stroke="#bfbfbf" points="410,-224.5 410,-243.5 499,-243.5 499,-224.5 410,-224.5"/>
<text text-anchor="middle" x="454.5" y="-231.5" font-family="Helvetica,sans-Serif" font-size="10.00" fill="#000000">Math/SMatrix.h</text>
</g>
<!-- Node1&#45;&gt;Node4 -->
<g id="edge4" class="edge">
<title>Node1&#45;&gt;Node4</title>
<path fill="none" stroke="#191970" d="M448.9708,-347.3484C449.9522,-327.2295 452.2336,-280.4608 453.5385,-253.7098"/>
<polygon fill="#191970" stroke="#191970" points="457.0399,-253.7655 454.0314,-243.6068 450.0482,-253.4243 457.0399,-253.7655"/>
</g>
<!-- Node5 -->
<g id="node6" class="node">
<title>Node5</title>
<g id="a_node6"><a xlink:href="../../de/d64/RangeReference_8h.html" target="_top" xlink:title="Class to refer to the 1st entry and N elements of some group in the continuous container. ">
<polygon fill="none" stroke="#000000" points="210.5,-286 210.5,-305 420.5,-305 420.5,-286 210.5,-286"/>
<text text-anchor="middle" x="315.5" y="-293" font-family="Helvetica,sans-Serif" font-size="10.00" fill="#000000">CommonDataFormat/RangeReference.h</text>
</a>
</g>
</g>
<!-- Node1&#45;&gt;Node5 -->
<g id="edge5" class="edge">
<title>Node1&#45;&gt;Node5</title>
<path fill="none" stroke="#191970" d="M427.7188,-347.3906C405.6606,-337.1908 370.595,-320.9763 345.5331,-309.3875"/>
<polygon fill="#191970" stroke="#191970" points="346.6809,-306.0622 336.1353,-305.0419 343.7429,-312.4158 346.6809,-306.0622"/>
</g>
<!-- Node8 -->
<g id="node9" class="node">
<title>Node8</title>
<g id="a_node9"><a xlink:href="../../d7/dcd/MCCompLabel_8h.html" target="_top" xlink:title="SimulationDataFormat\l/MCCompLabel.h">
<polygon fill="none" stroke="#000000" points="65,-280.5 65,-310.5 192,-310.5 192,-280.5 65,-280.5"/>
<text text-anchor="start" x="73" y="-298.5" font-family="Helvetica,sans-Serif" font-size="10.00" fill="#000000">SimulationDataFormat</text>
<text text-anchor="middle" x="128.5" y="-287.5" font-family="Helvetica,sans-Serif" font-size="10.00" fill="#000000">/MCCompLabel.h</text>
</a>
</g>
</g>
<!-- Node1&#45;&gt;Node8 -->
<g id="edge8" class="edge">
<title>Node1&#45;&gt;Node8</title>
<path fill="none" stroke="#191970" d="M394.9433,-347.4261C347.1121,-338.7852 274.8701,-325.5129 202.4058,-311.1529"/>
<polygon fill="#191970" stroke="#191970" points="202.6725,-307.6374 192.1819,-309.1198 201.3072,-314.503 202.6725,-307.6374"/>
</g>
<!-- Node9 -->
<g id="node10" class="node">
<title>Node9</title>
<g id="a_node10"><a xlink:href="../../d7/df7/TrackFwd_8h.html" target="_top" xlink:title="Base forward track model, params only, w/o covariance. ">
<polygon fill="none" stroke="#000000" points="476.5,-280.5 476.5,-310.5 628.5,-310.5 628.5,-280.5 476.5,-280.5"/>
<text text-anchor="start" x="484.5" y="-298.5" font-family="Helvetica,sans-Serif" font-size="10.00" fill="#000000">ReconstructionDataFormats</text>
<text text-anchor="middle" x="552.5" y="-287.5" font-family="Helvetica,sans-Serif" font-size="10.00" fill="#000000">/TrackFwd.h</text>
</a>
</g>
</g>
<!-- Node1&#45;&gt;Node9 -->
<g id="edge10" class="edge">
<title>Node1&#45;&gt;Node9</title>
<path fill="none" stroke="#191970" d="M464.75,-347.3906C478.9555,-338.9903 500.0599,-326.5103 518.0117,-315.8945"/>
<polygon fill="#191970" stroke="#191970" points="520.2327,-318.6474 527.0587,-310.5446 516.6696,-312.622 520.2327,-318.6474"/>
</g>
<!-- Node6 -->
<g id="node7" class="node">
<title>Node6</title>
<g id="a_node7"><a xlink:href="../../d2/d45/GPUCommonRtypes_8h.html" target="_top" xlink:title="GPUCommonRtypes.h">
<polygon fill="none" stroke="#000000" points="70,-224.5 70,-243.5 195,-243.5 195,-224.5 70,-224.5"/>
<text text-anchor="middle" x="132.5" y="-231.5" font-family="Helvetica,sans-Serif" font-size="10.00" fill="#000000">GPUCommonRtypes.h</text>
</a>
</g>
</g>
<!-- Node5&#45;&gt;Node6 -->
<g id="edge6" class="edge">
<title>Node5&#45;&gt;Node6</title>
<path fill="none" stroke="#191970" d="M286.9063,-285.8906C255.6155,-275.3749 205.3014,-258.466 170.66,-246.8243"/>
<polygon fill="#191970" stroke="#191970" points="171.487,-243.4099 160.893,-243.5419 169.257,-250.0452 171.487,-243.4099"/>
</g>
<!-- Node7 -->
<g id="node8" class="node">
<title>Node7</title>
<polygon fill="none" stroke="#bfbfbf" points="103,-168.5 103,-187.5 162,-187.5 162,-168.5 103,-168.5"/>
<text text-anchor="middle" x="132.5" y="-175.5" font-family="Helvetica,sans-Serif" font-size="10.00" fill="#000000">Rtypes.h</text>
</g>
<!-- Node6&#45;&gt;Node7 -->
<g id="edge7" class="edge">
<title>Node6&#45;&gt;Node7</title>
<path fill="none" stroke="#191970" d="M132.5,-224.2455C132.5,-216.9382 132.5,-206.6944 132.5,-197.7046"/>
<polygon fill="#191970" stroke="#191970" points="136.0001,-197.6426 132.5,-187.6427 129.0001,-197.6427 136.0001,-197.6426"/>
</g>
<!-- Node8&#45;&gt;Node6 -->
<g id="edge9" class="edge">
<title>Node8&#45;&gt;Node6</title>
<path fill="none" stroke="#191970" d="M129.4888,-280.2977C130.0035,-272.3834 130.6396,-262.6043 131.1943,-254.0759"/>
<polygon fill="#191970" stroke="#191970" points="134.703,-254.053 131.8595,-243.8469 127.7178,-253.5986 134.703,-254.053"/>
</g>
<!-- Node9&#45;&gt;Node3 -->
<g id="edge11" class="edge">
<title>Node9&#45;&gt;Node3</title>
<path fill="none" stroke="#191970" d="M552.0056,-280.2977C551.7482,-272.3834 551.4302,-262.6043 551.1529,-254.0759"/>
<polygon fill="#191970" stroke="#191970" points="554.6435,-253.7279 550.8202,-243.8469 547.6472,-253.9554 554.6435,-253.7279"/>
</g>
<!-- Node9&#45;&gt;Node4 -->
<g id="edge12" class="edge">
<title>Node9&#45;&gt;Node4</title>
<path fill="none" stroke="#191970" d="M528.5265,-280.4554C513.3224,-270.9141 493.7241,-258.6151 478.5125,-249.0691"/>
<polygon fill="#191970" stroke="#191970" points="480.0172,-245.8813 469.6865,-243.5303 476.2963,-251.8105 480.0172,-245.8813"/>
</g>
<!-- Node9&#45;&gt;Node10 -->
<g id="edge13" class="edge">
<title>Node9&#45;&gt;Node10</title>
<path fill="none" stroke="#191970" d="M575.4888,-280.2977C589.6966,-270.9022 607.8785,-258.8787 622.1525,-249.4395"/>
<polygon fill="#191970" stroke="#191970" points="624.4767,-252.0986 630.8872,-243.6633 620.6155,-246.2598 624.4767,-252.0986"/>
</g>
<!-- Node11 -->
<g id="node12" class="node">
<title>Node11</title>
<g id="a_node12"><a xlink:href="../../de/def/bitOps_8h.html" target="_top" xlink:title="MathUtils/detail/bitOps.h">
<polygon fill="none" stroke="#000000" points="577,-168.5 577,-187.5 714,-187.5 714,-168.5 577,-168.5"/>
<text text-anchor="middle" x="645.5" y="-175.5" font-family="Helvetica,sans-Serif" font-size="10.00" fill="#000000">MathUtils/detail/bitOps.h</text>
</a>
</g>
</g>
<!-- Node10&#45;&gt;Node11 -->
<g id="edge14" class="edge">
<title>Node10&#45;&gt;Node11</title>
<path fill="none" stroke="#191970" d="M645.5,-224.2455C645.5,-216.9382 645.5,-206.6944 645.5,-197.7046"/>
<polygon fill="#191970" stroke="#191970" points="649.0001,-197.6426 645.5,-187.6427 642.0001,-197.6427 649.0001,-197.6426"/>
</g>
<!-- Node13 -->
<g id="node14" class="node">
<title>Node13</title>
<g id="a_node14"><a xlink:href="../../d3/dfc/StatAccumulator_8h.html" target="_top" xlink:title="MathUtils/detail/StatAccumulator.h">
<polygon fill="none" stroke="#000000" points="372.5,-168.5 372.5,-187.5 558.5,-187.5 558.5,-168.5 372.5,-168.5"/>
<text text-anchor="middle" x="465.5" y="-175.5" font-family="Helvetica,sans-Serif" font-size="10.00" fill="#000000">MathUtils/detail/StatAccumulator.h</text>
</a>
</g>
</g>
<!-- Node10&#45;&gt;Node13 -->
<g id="edge16" class="edge">
<title>Node10&#45;&gt;Node13</title>
<path fill="none" stroke="#191970" d="M614.5569,-224.3733C584.4961,-215.021 538.6974,-200.7725 505.8022,-190.5385"/>
<polygon fill="#191970" stroke="#191970" points="506.6277,-187.1299 496.0393,-187.5011 504.5481,-193.8139 506.6277,-187.1299"/>
</g>
<!-- Node15 -->
<g id="node16" class="node">
<title>Node15</title>
<g id="a_node16"><a xlink:href="../../dd/d7d/trigonometric_8h.html" target="_top" xlink:title="MathUtils/detail/trigonometric.h">
<polygon fill="none" stroke="#000000" points="182.5,-168.5 182.5,-187.5 354.5,-187.5 354.5,-168.5 182.5,-168.5"/>
<text text-anchor="middle" x="268.5" y="-175.5" font-family="Helvetica,sans-Serif" font-size="10.00" fill="#000000">MathUtils/detail/trigonometric.h</text>
</a>
</g>
</g>
<!-- Node10&#45;&gt;Node15 -->
<g id="edge18" class="edge">
<title>Node10&#45;&gt;Node15</title>
<path fill="none" stroke="#191970" d="M596.468,-225.4486C593.4348,-224.9499 590.4268,-224.4632 587.5,-224 506.3177,-211.1508 413.2715,-197.9021 348.7049,-188.9429"/>
<polygon fill="#191970" stroke="#191970" points="348.9787,-185.4475 338.5931,-187.5425 348.0184,-192.3813 348.9787,-185.4475"/>
</g>
<!-- Node12 -->
<g id="node13" class="node">
<title>Node12</title>
<polygon fill="none" stroke="#bfbfbf" points="577.5,-112.5 577.5,-131.5 627.5,-131.5 627.5,-112.5 577.5,-112.5"/>
<text text-anchor="middle" x="602.5" y="-119.5" font-family="Helvetica,sans-Serif" font-size="10.00" fill="#000000">cstdint</text>
</g>
<!-- Node11&#45;&gt;Node12 -->
<g id="edge15" class="edge">
<title>Node11&#45;&gt;Node12</title>
<path fill="none" stroke="#191970" d="M638.01,-168.2455C631.9674,-160.3761 623.3097,-149.101 616.0559,-139.6542"/>
<polygon fill="#191970" stroke="#191970" points="618.7705,-137.4426 609.9042,-131.6427 613.2185,-141.7058 618.7705,-137.4426"/>
</g>
<!-- Node14 -->
<g id="node15" class="node">
<title>Node14</title>
<polygon fill="none" stroke="#bfbfbf" points="401,-112.5 401,-131.5 442,-131.5 442,-112.5 401,-112.5"/>
<text text-anchor="middle" x="421.5" y="-119.5" font-family="Helvetica,sans-Serif" font-size="10.00" fill="#000000">tuple</text>
</g>
<!-- Node13&#45;&gt;Node14 -->
<g id="edge17" class="edge">
<title>Node13&#45;&gt;Node14</title>
<path fill="none" stroke="#191970" d="M457.8358,-168.2455C451.6527,-160.3761 442.7937,-149.101 435.3711,-139.6542"/>
<polygon fill="#191970" stroke="#191970" points="438.0068,-137.3435 429.0764,-131.6427 432.5025,-141.6683 438.0068,-137.3435"/>
</g>
<!-- Node15&#45;&gt;Node14 -->
<g id="edge21" class="edge">
<title>Node15&#45;&gt;Node14</title>
<path fill="none" stroke="#191970" d="M294.8016,-168.3733C321.5869,-158.5695 363.072,-143.3854 391.2132,-133.0854"/>
<polygon fill="#191970" stroke="#191970" points="392.7376,-136.2546 400.9253,-129.5306 390.3316,-129.681 392.7376,-136.2546"/>
</g>
<!-- Node16 -->
<g id="node17" class="node">
<title>Node16</title>
<polygon fill="none" stroke="#bfbfbf" points="318.5,-112.5 318.5,-131.5 360.5,-131.5 360.5,-112.5 318.5,-112.5"/>
<text text-anchor="middle" x="339.5" y="-119.5" font-family="Helvetica,sans-Serif" font-size="10.00" fill="#000000">array</text>
</g>
<!-- Node15&#45;&gt;Node16 -->
<g id="edge19" class="edge">
<title>Node15&#45;&gt;Node16</title>
<path fill="none" stroke="#191970" d="M280.8673,-168.2455C291.4554,-159.8943 306.9064,-147.7076 319.2893,-137.9408"/>
<polygon fill="#191970" stroke="#191970" points="321.5903,-140.5837 327.2745,-131.6427 317.2553,-135.0875 321.5903,-140.5837"/>
</g>
<!-- Node17 -->
<g id="node18" class="node">
<title>Node17</title>
<polygon fill="none" stroke="#bfbfbf" points="95,-56.5 95,-75.5 142,-75.5 142,-56.5 95,-56.5"/>
<text text-anchor="middle" x="118.5" y="-63.5" font-family="Helvetica,sans-Serif" font-size="10.00" fill="#000000">cmath</text>
</g>
<!-- Node15&#45;&gt;Node17 -->
<g id="edge20" class="edge">
<title>Node15&#45;&gt;Node17</title>
<path fill="none" stroke="#191970" d="M205.0205,-168.4493C180.9972,-161.8661 155.2067,-150.7533 137.5,-132 125.7583,-119.5643 121.2096,-100.3441 119.4795,-85.8463"/>
<polygon fill="#191970" stroke="#191970" points="122.9661,-85.5391 118.6335,-75.8707 115.9912,-86.1307 122.9661,-85.5391"/>
</g>
<!-- Node18 -->
<g id="node19" class="node">
<title>Node18</title>
<g id="a_node19"><a xlink:href="../../df/d21/GPUCommonDef_8h.html" target="_top" xlink:title="GPUCommonDef.h">
<polygon fill="none" stroke="#000000" points="243,-56.5 243,-75.5 350,-75.5 350,-56.5 243,-56.5"/>
<text text-anchor="middle" x="296.5" y="-63.5" font-family="Helvetica,sans-Serif" font-size="10.00" fill="#000000">GPUCommonDef.h</text>
</a>
</g>
</g>
<!-- Node15&#45;&gt;Node18 -->
<g id="edge22" class="edge">
<title>Node15&#45;&gt;Node18</title>
<path fill="none" stroke="#191970" d="M270.8873,-168.4509C275.4747,-150.1013 285.6023,-109.5908 291.6577,-85.3693"/>
<polygon fill="#191970" stroke="#191970" points="295.0888,-86.0752 294.1188,-75.5249 288.2978,-84.3774 295.0888,-86.0752"/>
</g>
<!-- Node21 -->
<g id="node22" class="node">
<title>Node21</title>
<g id="a_node22"><a xlink:href="../../d6/da2/GPUCommonMath_8h.html" target="_top" xlink:title="GPUCommonMath.h">
<polygon fill="none" stroke="#000000" points="147,-112.5 147,-131.5 262,-131.5 262,-112.5 147,-112.5"/>
<text text-anchor="middle" x="204.5" y="-119.5" font-family="Helvetica,sans-Serif" font-size="10.00" fill="#000000">GPUCommonMath.h</text>
</a>
</g>
</g>
<!-- Node15&#45;&gt;Node21 -->
<g id="edge25" class="edge">
<title>Node15&#45;&gt;Node21</title>
<path fill="none" stroke="#191970" d="M257.3521,-168.2455C247.9913,-160.0549 234.4142,-148.1749 223.3651,-138.5069"/>
<polygon fill="#191970" stroke="#191970" points="225.3508,-135.5937 215.5202,-131.6427 220.7412,-140.8618 225.3508,-135.5937"/>
</g>
<!-- Node15&#45;&gt;Node23 -->
<g id="edge29" class="edge">
<title>Node15&#45;&gt;Node23</title>
<path fill="none" stroke="#191970" d="M349.1761,-168.4686C433.0645,-158.5578 564.1198,-143.0745 651.6115,-132.7379"/>
<polygon fill="#191970" stroke="#191970" points="652.2732,-136.1841 661.7934,-131.535 651.4518,-129.2325 652.2732,-136.1841"/>
</g>
<!-- Node19 -->
<g id="node20" class="node">
<title>Node19</title>
<g id="a_node20"><a xlink:href="../../d5/d93/GPUCommonDefSettings_8h.html" target="_top" xlink:title="GPUCommonDefSettings.h">
<polygon fill="none" stroke="#000000" points="145.5,-.5 145.5,-19.5 293.5,-19.5 293.5,-.5 145.5,-.5"/>
<text text-anchor="middle" x="219.5" y="-7.5" font-family="Helvetica,sans-Serif" font-size="10.00" fill="#000000">GPUCommonDefSettings.h</text>
</a>
</g>
</g>
<!-- Node18&#45;&gt;Node19 -->
<g id="edge23" class="edge">
<title>Node18&#45;&gt;Node19</title>
<path fill="none" stroke="#191970" d="M283.0876,-56.2455C271.4943,-47.814 254.5252,-35.4729 241.0322,-25.6598"/>
<polygon fill="#191970" stroke="#191970" points="242.9047,-22.6938 232.7587,-19.6427 238.7874,-28.355 242.9047,-22.6938"/>
</g>
<!-- Node20 -->
<g id="node21" class="node">
<title>Node20</title>
<g id="a_node21"><a xlink:href="../../da/d5a/GPUCommonDefAPI_8h.html" target="_top" xlink:title="GPUCommonDefAPI.h">
<polygon fill="none" stroke="#000000" points="311.5,-.5 311.5,-19.5 435.5,-19.5 435.5,-.5 311.5,-.5"/>
<text text-anchor="middle" x="373.5" y="-7.5" font-family="Helvetica,sans-Serif" font-size="10.00" fill="#000000">GPUCommonDefAPI.h</text>
</a>
</g>
</g>
<!-- Node18&#45;&gt;Node20 -->
<g id="edge24" class="edge">
<title>Node18&#45;&gt;Node20</title>
<path fill="none" stroke="#191970" d="M309.9124,-56.2455C321.5057,-47.814 338.4748,-35.4729 351.9678,-25.6598"/>
<polygon fill="#191970" stroke="#191970" points="354.2126,-28.355 360.2413,-19.6427 350.0953,-22.6938 354.2126,-28.355"/>
</g>
<!-- Node21&#45;&gt;Node17 -->
<g id="edge27" class="edge">
<title>Node21&#45;&gt;Node17</title>
<path fill="none" stroke="#191970" d="M189.5199,-112.2455C176.3249,-103.6534 156.8949,-91.0014 141.6921,-81.1018"/>
<polygon fill="#191970" stroke="#191970" points="143.5983,-78.1665 133.3084,-75.6427 139.7785,-84.0325 143.5983,-78.1665"/>
</g>
<!-- Node21&#45;&gt;Node18 -->
<g id="edge26" class="edge">
<title>Node21&#45;&gt;Node18</title>
<path fill="none" stroke="#191970" d="M220.5252,-112.2455C234.6408,-103.6534 255.4263,-91.0014 271.6899,-81.1018"/>
<polygon fill="#191970" stroke="#191970" points="273.9363,-83.8319 280.6585,-75.6427 270.2966,-77.8525 273.9363,-83.8319"/>
</g>
<!-- Node22 -->
<g id="node23" class="node">
<title>Node22</title>
<polygon fill="none" stroke="#bfbfbf" points="160.5,-56.5 160.5,-75.5 224.5,-75.5 224.5,-56.5 160.5,-56.5"/>
<text text-anchor="middle" x="192.5" y="-63.5" font-family="Helvetica,sans-Serif" font-size="10.00" fill="#000000">algorithm</text>
</g>
<!-- Node21&#45;&gt;Node22 -->
<g id="edge28" class="edge">
<title>Node21&#45;&gt;Node22</title>
<path fill="none" stroke="#191970" d="M202.4098,-112.2455C200.8439,-104.9382 198.6488,-94.6944 196.7224,-85.7046"/>
<polygon fill="#191970" stroke="#191970" points="200.084,-84.6873 194.5663,-75.6427 193.2393,-86.1541 200.084,-84.6873"/>
</g>
<!-- Node25 -->
<g id="node26" class="node">
<title>Node25</title>
<polygon fill="none" stroke="#bfbfbf" points="774.5,-286 774.5,-305 882.5,-305 882.5,-286 774.5,-286"/>
<text text-anchor="middle" x="828.5" y="-293" font-family="Helvetica,sans-Serif" font-size="10.00" fill="#000000">fairlogger/Logger.h</text>
</g>
<!-- Node24&#45;&gt;Node25 -->
<g id="edge32" class="edge">
<title>Node24&#45;&gt;Node25</title>
<path fill="none" stroke="#191970" d="M828.5,-347.3906C828.5,-338.8657 828.5,-326.1392 828.5,-315.4235"/>
<polygon fill="#191970" stroke="#191970" points="832.0001,-315.2448 828.5,-305.2449 825.0001,-315.2449 832.0001,-315.2448"/>
</g>
</g>
</svg>
