<?xml version="1.0" encoding="UTF-8" standalone="no"?>
<!DOCTYPE svg PUBLIC "-//W3C//DTD SVG 1.1//EN"
 "http://www.w3.org/Graphics/SVG/1.1/DTD/svg11.dtd">
<!-- Generated by graphviz version 2.40.1 (20161225.0304)
 -->
<!-- Title: /home/travis/build/AliceO2Group/AliceO2/DataFormats/Reconstruction/include/ReconstructionDataFormats/PrimaryVertex.h Pages: 1 -->
<svg width="2142pt" height="329pt"
 viewBox="0.00 0.00 2142.00 329.00" xmlns="http://www.w3.org/2000/svg" xmlns:xlink="http://www.w3.org/1999/xlink">
<g id="graph0" class="graph" transform="scale(1 1) rotate(0) translate(4 325)">
<title>/home/travis/build/AliceO2Group/AliceO2/DataFormats/Reconstruction/include/ReconstructionDataFormats/PrimaryVertex.h</title>
<!-- Node0 -->
<g id="node1" class="node">
<title>Node0</title>
<polygon fill="#bfbfbf" stroke="#000000" points="1446.5,-257.5 1446.5,-320.5 1639.5,-320.5 1639.5,-257.5 1446.5,-257.5"/>
<text text-anchor="start" x="1454.5" y="-308.5" font-family="Helvetica,sans-Serif" font-size="10.00" fill="#000000">/home/travis/build</text>
<text text-anchor="start" x="1454.5" y="-297.5" font-family="Helvetica,sans-Serif" font-size="10.00" fill="#000000">/AliceO2Group/AliceO2</text>
<text text-anchor="start" x="1454.5" y="-286.5" font-family="Helvetica,sans-Serif" font-size="10.00" fill="#000000">/DataFormats/Reconstruction</text>
<text text-anchor="start" x="1454.5" y="-275.5" font-family="Helvetica,sans-Serif" font-size="10.00" fill="#000000">/include/ReconstructionDataFormats</text>
<text text-anchor="middle" x="1543" y="-264.5" font-family="Helvetica,sans-Serif" font-size="10.00" fill="#000000">/PrimaryVertex.h</text>
</g>
<!-- Node1 -->
<g id="node2" class="node">
<title>Node1</title>
<g id="a_node2"><a xlink:href="../../d9/d80/InteractionRecord_8h.html" target="_top" xlink:title="CommonDataFormat/Interaction\lRecord.h">
<polygon fill="none" stroke="#000000" points="1740,-123.5 1740,-153.5 1914,-153.5 1914,-123.5 1740,-123.5"/>
<text text-anchor="start" x="1748" y="-141.5" font-family="Helvetica,sans-Serif" font-size="10.00" fill="#000000">CommonDataFormat/Interaction</text>
<text text-anchor="middle" x="1827" y="-130.5" font-family="Helvetica,sans-Serif" font-size="10.00" fill="#000000">Record.h</text>
</a>
</g>
</g>
<!-- Node0&#45;&gt;Node1 -->
<g id="edge1" class="edge">
<title>Node0&#45;&gt;Node1</title>
<path fill="none" stroke="#191970" d="M1602.5357,-257.4503C1658.9557,-227.5517 1741.9552,-183.5677 1789.6232,-158.3071"/>
<polygon fill="#191970" stroke="#191970" points="1791.4702,-161.2894 1798.6673,-153.5143 1788.1925,-155.1042 1791.4702,-161.2894"/>
</g>
<!-- Node8 -->
<g id="node9" class="node">
<title>Node8</title>
<g id="a_node9"><a xlink:href="../../d3/d6f/DataFormats_2Reconstruction_2include_2ReconstructionDataFormats_2Vertex_8h.html" target="_top" xlink:title="ReconstructionDataFormats\l/Vertex.h">
<polygon fill="none" stroke="#000000" points="1415,-190.5 1415,-220.5 1567,-220.5 1567,-190.5 1415,-190.5"/>
<text text-anchor="start" x="1423" y="-208.5" font-family="Helvetica,sans-Serif" font-size="10.00" fill="#000000">ReconstructionDataFormats</text>
<text text-anchor="middle" x="1491" y="-197.5" font-family="Helvetica,sans-Serif" font-size="10.00" fill="#000000">/Vertex.h</text>
</a>
</g>
</g>
<!-- Node0&#45;&gt;Node8 -->
<g id="edge8" class="edge">
<title>Node0&#45;&gt;Node8</title>
<path fill="none" stroke="#191970" d="M1523.341,-257.4322C1517.535,-248.109 1511.2796,-238.0643 1505.8319,-229.3165"/>
<polygon fill="#191970" stroke="#191970" points="1508.7571,-227.3928 1500.4998,-220.7545 1502.8151,-231.0932 1508.7571,-227.3928"/>
</g>
<!-- Node2 -->
<g id="node3" class="node">
<title>Node2</title>
<g id="a_node3"><a xlink:href="../../d2/d45/GPUCommonRtypes_8h.html" target="_top" xlink:title="GPUCommonRtypes.h">
<polygon fill="none" stroke="#000000" points="1541.5,-62 1541.5,-81 1666.5,-81 1666.5,-62 1541.5,-62"/>
<text text-anchor="middle" x="1604" y="-69" font-family="Helvetica,sans-Serif" font-size="10.00" fill="#000000">GPUCommonRtypes.h</text>
</a>
</g>
</g>
<!-- Node1&#45;&gt;Node2 -->
<g id="edge2" class="edge">
<title>Node1&#45;&gt;Node2</title>
<path fill="none" stroke="#191970" d="M1776.9544,-123.4639C1737.398,-111.5792 1682.8348,-95.1858 1645.6403,-84.0108"/>
<polygon fill="#191970" stroke="#191970" points="1646.2212,-80.5308 1635.637,-81.0053 1644.207,-87.2348 1646.2212,-80.5308"/>
</g>
<!-- Node4 -->
<g id="node5" class="node">
<title>Node4</title>
<polygon fill="none" stroke="#bfbfbf" points="1474.5,-62 1474.5,-81 1523.5,-81 1523.5,-62 1474.5,-62"/>
<text text-anchor="middle" x="1499" y="-69" font-family="Helvetica,sans-Serif" font-size="10.00" fill="#000000">iosfwd</text>
</g>
<!-- Node1&#45;&gt;Node4 -->
<g id="edge4" class="edge">
<title>Node1&#45;&gt;Node4</title>
<path fill="none" stroke="#191970" d="M1739.8403,-125.7348C1667.528,-114.6819 1570.6786,-98.679 1533,-87 1531.0946,-86.4094 1529.1564,-85.737 1527.2208,-85.0111"/>
<polygon fill="#191970" stroke="#191970" points="1528.3051,-81.6715 1517.7276,-81.0651 1525.6183,-88.1354 1528.3051,-81.6715"/>
</g>
<!-- Node5 -->
<g id="node6" class="node">
<title>Node5</title>
<polygon fill="none" stroke="#bfbfbf" points="1810,-62 1810,-81 1860,-81 1860,-62 1810,-62"/>
<text text-anchor="middle" x="1835" y="-69" font-family="Helvetica,sans-Serif" font-size="10.00" fill="#000000">cstdint</text>
</g>
<!-- Node1&#45;&gt;Node5 -->
<g id="edge5" class="edge">
<title>Node1&#45;&gt;Node5</title>
<path fill="none" stroke="#191970" d="M1828.8153,-123.2967C1829.9528,-113.7699 1831.4304,-101.3954 1832.656,-91.1306"/>
<polygon fill="#191970" stroke="#191970" points="1836.1487,-91.3994 1833.8591,-81.055 1829.1981,-90.5694 1836.1487,-91.3994"/>
</g>
<!-- Node6 -->
<g id="node7" class="node">
<title>Node6</title>
<polygon fill="none" stroke="#bfbfbf" points="1878.5,-62 1878.5,-81 1925.5,-81 1925.5,-62 1878.5,-62"/>
<text text-anchor="middle" x="1902" y="-69" font-family="Helvetica,sans-Serif" font-size="10.00" fill="#000000">cmath</text>
</g>
<!-- Node1&#45;&gt;Node6 -->
<g id="edge6" class="edge">
<title>Node1&#45;&gt;Node6</title>
<path fill="none" stroke="#191970" d="M1844.0187,-123.2967C1855.8175,-112.7564 1871.5184,-98.7303 1883.6057,-87.9323"/>
<polygon fill="#191970" stroke="#191970" points="1886.1783,-90.3273 1891.3041,-81.055 1881.5147,-85.107 1886.1783,-90.3273"/>
</g>
<!-- Node7 -->
<g id="node8" class="node">
<title>Node7</title>
<g id="a_node8"><a xlink:href="../../d4/dc6/LHCConstants_8h.html" target="_top" xlink:title="Header to collect LHC related constants. ">
<polygon fill="none" stroke="#000000" points="1944,-62 1944,-81 2134,-81 2134,-62 1944,-62"/>
<text text-anchor="middle" x="2039" y="-69" font-family="Helvetica,sans-Serif" font-size="10.00" fill="#000000">CommonConstants/LHCConstants.h</text>
</a>
</g>
</g>
<!-- Node1&#45;&gt;Node7 -->
<g id="edge7" class="edge">
<title>Node1&#45;&gt;Node7</title>
<path fill="none" stroke="#191970" d="M1874.5769,-123.4639C1912.0215,-111.63 1963.6109,-95.3258 1998.9595,-84.1543"/>
<polygon fill="#191970" stroke="#191970" points="2000.4432,-87.3561 2008.9236,-81.0053 1998.3337,-80.6815 2000.4432,-87.3561"/>
</g>
<!-- Node3 -->
<g id="node4" class="node">
<title>Node3</title>
<polygon fill="none" stroke="#bfbfbf" points="1499.5,-.5 1499.5,-19.5 1558.5,-19.5 1558.5,-.5 1499.5,-.5"/>
<text text-anchor="middle" x="1529" y="-7.5" font-family="Helvetica,sans-Serif" font-size="10.00" fill="#000000">Rtypes.h</text>
</g>
<!-- Node2&#45;&gt;Node3 -->
<g id="edge3" class="edge">
<title>Node2&#45;&gt;Node3</title>
<path fill="none" stroke="#191970" d="M1592.2813,-61.8906C1580.6812,-52.3786 1562.7021,-37.6357 1548.8679,-26.2917"/>
<polygon fill="#191970" stroke="#191970" points="1550.836,-23.3792 1540.884,-19.7449 1546.3974,-28.7921 1550.836,-23.3792"/>
</g>
<!-- Node8&#45;&gt;Node4 -->
<g id="edge26" class="edge">
<title>Node8&#45;&gt;Node4</title>
<path fill="none" stroke="#191970" d="M1491.9022,-190.389C1493.3538,-166.0735 1496.2081,-118.2644 1497.8197,-91.2698"/>
<polygon fill="#191970" stroke="#191970" points="1501.3244,-91.295 1498.4266,-81.1042 1494.3368,-90.8778 1501.3244,-91.295"/>
</g>
<!-- Node9 -->
<g id="node10" class="node">
<title>Node9</title>
<g id="a_node10"><a xlink:href="../../dc/d73/Cartesian_8h.html" target="_top" xlink:title="MathUtils/Cartesian.h">
<polygon fill="none" stroke="#000000" points="1061,-129 1061,-148 1183,-148 1183,-129 1061,-129"/>
<text text-anchor="middle" x="1122" y="-136" font-family="Helvetica,sans-Serif" font-size="10.00" fill="#000000">MathUtils/Cartesian.h</text>
</a>
</g>
</g>
<!-- Node8&#45;&gt;Node9 -->
<g id="edge9" class="edge">
<title>Node8&#45;&gt;Node9</title>
<path fill="none" stroke="#191970" d="M1414.9904,-191.6988C1346.8009,-179.3175 1247.9468,-161.3684 1184.3166,-149.8149"/>
<polygon fill="#191970" stroke="#191970" points="1184.8813,-146.3603 1174.4168,-148.0174 1183.6307,-153.2477 1184.8813,-146.3603"/>
</g>
<!-- Node18 -->
<g id="node19" class="node">
<title>Node18</title>
<g id="a_node19"><a xlink:href="../../df/d5d/common_2include_2CommonDataFormat_2TimeStamp_8h.html" target="_top" xlink:title="CommonDataFormat/TimeStamp.h">
<polygon fill="none" stroke="#000000" points="1518.5,-129 1518.5,-148 1705.5,-148 1705.5,-129 1518.5,-129"/>
<text text-anchor="middle" x="1612" y="-136" font-family="Helvetica,sans-Serif" font-size="10.00" fill="#000000">CommonDataFormat/TimeStamp.h</text>
</a>
</g>
</g>
<!-- Node8&#45;&gt;Node18 -->
<g id="edge20" class="edge">
<title>Node8&#45;&gt;Node18</title>
<path fill="none" stroke="#191970" d="M1518.1548,-190.4639C1538.3656,-179.2728 1565.7964,-164.0838 1585.7799,-153.0186"/>
<polygon fill="#191970" stroke="#191970" points="1587.6027,-156.0101 1594.6556,-148.1039 1584.2117,-149.8862 1587.6027,-156.0101"/>
</g>
<!-- Node22 -->
<g id="node23" class="node">
<title>Node22</title>
<polygon fill="none" stroke="#bfbfbf" points="1001,-129 1001,-148 1043,-148 1043,-129 1001,-129"/>
<text text-anchor="middle" x="1022" y="-136" font-family="Helvetica,sans-Serif" font-size="10.00" fill="#000000">array</text>
</g>
<!-- Node8&#45;&gt;Node22 -->
<g id="edge25" class="edge">
<title>Node8&#45;&gt;Node22</title>
<path fill="none" stroke="#191970" d="M1414.9149,-199.8841C1307.7203,-191.4072 1117.952,-174.1729 1052,-154 1050.5284,-153.5499 1049.0432,-153.0291 1047.5626,-152.4569"/>
<polygon fill="#191970" stroke="#191970" points="1048.6048,-149.0862 1038.0525,-148.1381 1045.7103,-155.4598 1048.6048,-149.0862"/>
</g>
<!-- Node9&#45;&gt;Node3 -->
<g id="edge17" class="edge">
<title>Node9&#45;&gt;Node3</title>
<path fill="none" stroke="#191970" d="M1183.0639,-131.9348C1259.2008,-123.1054 1384.5127,-106.2692 1427,-87 1446.8499,-77.9975 1447.6982,-69.2555 1465,-56 1478.6352,-45.5536 1494.287,-34.2914 1506.699,-25.5254"/>
<polygon fill="#191970" stroke="#191970" points="1508.9187,-28.2434 1515.0892,-19.6308 1504.8947,-22.5156 1508.9187,-28.2434"/>
</g>
<!-- Node9&#45;&gt;Node4 -->
<g id="edge19" class="edge">
<title>Node9&#45;&gt;Node4</title>
<path fill="none" stroke="#191970" d="M1183.3094,-133.3796C1251.6988,-126.6986 1365.1856,-112.7054 1460,-87 1462.6129,-86.2916 1465.2889,-85.4623 1467.9546,-84.5622"/>
<polygon fill="#191970" stroke="#191970" points="1469.2523,-87.8142 1477.4325,-81.0812 1466.8389,-81.2434 1469.2523,-87.8142"/>
</g>
<!-- Node10 -->
<g id="node11" class="node">
<title>Node10</title>
<polygon fill="none" stroke="#bfbfbf" points="768,-56.5 768,-86.5 932,-86.5 932,-56.5 768,-56.5"/>
<text text-anchor="start" x="776" y="-74.5" font-family="Helvetica,sans-Serif" font-size="10.00" fill="#000000">Math/GenVector/Displacement</text>
<text text-anchor="middle" x="850" y="-63.5" font-family="Helvetica,sans-Serif" font-size="10.00" fill="#000000">Vector3D.h</text>
</g>
<!-- Node9&#45;&gt;Node10 -->
<g id="edge10" class="edge">
<title>Node9&#45;&gt;Node10</title>
<path fill="none" stroke="#191970" d="M1083.3179,-128.9717C1041.1547,-118.5859 972.7851,-101.7449 920.9292,-88.9715"/>
<polygon fill="#191970" stroke="#191970" points="921.6671,-85.5487 911.1202,-86.5553 919.9929,-92.3456 921.6671,-85.5487"/>
</g>
<!-- Node11 -->
<g id="node12" class="node">
<title>Node11</title>
<polygon fill="none" stroke="#bfbfbf" points="950.5,-62 950.5,-81 1139.5,-81 1139.5,-62 950.5,-62"/>
<text text-anchor="middle" x="1045" y="-69" font-family="Helvetica,sans-Serif" font-size="10.00" fill="#000000">Math/GenVector/PositionVector3D.h</text>
</g>
<!-- Node9&#45;&gt;Node11 -->
<g id="edge11" class="edge">
<title>Node9&#45;&gt;Node11</title>
<path fill="none" stroke="#191970" d="M1110.9678,-128.9005C1098.6172,-118.1539 1078.3977,-100.5603 1063.5943,-87.6794"/>
<polygon fill="#191970" stroke="#191970" points="1065.8532,-85.0055 1056.0118,-81.0817 1061.2582,-90.2863 1065.8532,-85.0055"/>
</g>
<!-- Node12 -->
<g id="node13" class="node">
<title>Node12</title>
<polygon fill="none" stroke="#bfbfbf" points="1258,-62 1258,-81 1418,-81 1418,-62 1258,-62"/>
<text text-anchor="middle" x="1338" y="-69" font-family="Helvetica,sans-Serif" font-size="10.00" fill="#000000">Math/GenVector/Rotation3D.h</text>
</g>
<!-- Node9&#45;&gt;Node12 -->
<g id="edge12" class="edge">
<title>Node9&#45;&gt;Node12</title>
<path fill="none" stroke="#191970" d="M1152.9475,-128.9005C1190.9616,-117.1091 1255.5504,-97.0746 1297.4862,-84.0668"/>
<polygon fill="#191970" stroke="#191970" points="1298.5957,-87.3872 1307.1099,-81.0817 1296.5219,-80.7015 1298.5957,-87.3872"/>
</g>
<!-- Node13 -->
<g id="node14" class="node">
<title>Node13</title>
<polygon fill="none" stroke="#bfbfbf" points="0,-62 0,-81 168,-81 168,-62 0,-62"/>
<text text-anchor="middle" x="84" y="-69" font-family="Helvetica,sans-Serif" font-size="10.00" fill="#000000">Math/GenVector/Transform3D.h</text>
</g>
<!-- Node9&#45;&gt;Node13 -->
<g id="edge13" class="edge">
<title>Node9&#45;&gt;Node13</title>
<path fill="none" stroke="#191970" d="M1084.7982,-128.9823C1074.2625,-126.6368 1062.7383,-124.3986 1052,-123 666.042,-72.7308 564.1497,-127.0705 177,-87 166.2796,-85.8904 154.9216,-84.3262 143.9632,-82.6147"/>
<polygon fill="#191970" stroke="#191970" points="144.4719,-79.1516 134.0414,-81.0103 143.3544,-86.0618 144.4719,-79.1516"/>
</g>
<!-- Node14 -->
<g id="node15" class="node">
<title>Node14</title>
<polygon fill="none" stroke="#bfbfbf" points="186.5,-62 186.5,-81 359.5,-81 359.5,-62 186.5,-62"/>
<text text-anchor="middle" x="273" y="-69" font-family="Helvetica,sans-Serif" font-size="10.00" fill="#000000">Math/GenVector/Translation3D.h</text>
</g>
<!-- Node9&#45;&gt;Node14 -->
<g id="edge14" class="edge">
<title>Node9&#45;&gt;Node14</title>
<path fill="none" stroke="#191970" d="M1084.4237,-128.9825C1073.9868,-126.6667 1062.6067,-124.4438 1052,-123 750.8006,-82.0014 671.2589,-119.2726 369,-87 358.2038,-85.8473 346.7733,-84.2955 335.7086,-82.6179"/>
<polygon fill="#191970" stroke="#191970" points="336.0993,-79.1366 325.6787,-81.0497 335.018,-86.0525 336.0993,-79.1366"/>
</g>
<!-- Node15 -->
<g id="node16" class="node">
<title>Node15</title>
<polygon fill="none" stroke="#bfbfbf" points="378,-56.5 378,-86.5 542,-86.5 542,-56.5 378,-56.5"/>
<text text-anchor="start" x="386" y="-74.5" font-family="Helvetica,sans-Serif" font-size="10.00" fill="#000000">Math/GenVector/Displacement</text>
<text text-anchor="middle" x="460" y="-63.5" font-family="Helvetica,sans-Serif" font-size="10.00" fill="#000000">Vector2D.h</text>
</g>
<!-- Node9&#45;&gt;Node15 -->
<g id="edge15" class="edge">
<title>Node9&#45;&gt;Node15</title>
<path fill="none" stroke="#191970" d="M1083.6752,-128.9548C1073.4393,-126.6964 1062.3461,-124.5089 1052,-123 834.3321,-91.2545 774.3772,-113.1121 552.3005,-87.077"/>
<polygon fill="#191970" stroke="#191970" points="552.6316,-83.5918 542.2877,-85.8838 551.8032,-90.5426 552.6316,-83.5918"/>
</g>
<!-- Node16 -->
<g id="node17" class="node">
<title>Node16</title>
<polygon fill="none" stroke="#bfbfbf" points="560.5,-62 560.5,-81 749.5,-81 749.5,-62 560.5,-62"/>
<text text-anchor="middle" x="655" y="-69" font-family="Helvetica,sans-Serif" font-size="10.00" fill="#000000">Math/GenVector/PositionVector2D.h</text>
</g>
<!-- Node9&#45;&gt;Node16 -->
<g id="edge16" class="edge">
<title>Node9&#45;&gt;Node16</title>
<path fill="none" stroke="#191970" d="M1082.1513,-128.9849C1072.3302,-126.8312 1061.814,-124.6855 1052,-123 922.6917,-100.7922 889.0059,-104.6717 759,-87 748.7192,-85.6025 737.8771,-84.0616 727.2297,-82.5097"/>
<polygon fill="#191970" stroke="#191970" points="727.5082,-79.0132 717.1058,-81.0228 726.491,-85.9389 727.5082,-79.0132"/>
</g>
<!-- Node17 -->
<g id="node18" class="node">
<title>Node17</title>
<polygon fill="none" stroke="#bfbfbf" points="1158,-62 1158,-81 1240,-81 1240,-62 1158,-62"/>
<text text-anchor="middle" x="1199" y="-69" font-family="Helvetica,sans-Serif" font-size="10.00" fill="#000000">TGeoMatrix.h</text>
</g>
<!-- Node9&#45;&gt;Node17 -->
<g id="edge18" class="edge">
<title>Node9&#45;&gt;Node17</title>
<path fill="none" stroke="#191970" d="M1133.0322,-128.9005C1145.3828,-118.1539 1165.6023,-100.5603 1180.4057,-87.6794"/>
<polygon fill="#191970" stroke="#191970" points="1182.7418,-90.2863 1187.9882,-81.0817 1178.1468,-85.0055 1182.7418,-90.2863"/>
</g>
<!-- Node18&#45;&gt;Node2 -->
<g id="edge21" class="edge">
<title>Node18&#45;&gt;Node2</title>
<path fill="none" stroke="#191970" d="M1610.8538,-128.9005C1609.6894,-119.149 1607.8519,-103.7597 1606.3725,-91.3695"/>
<polygon fill="#191970" stroke="#191970" points="1609.8051,-90.5961 1605.1441,-81.0817 1602.8545,-91.4261 1609.8051,-90.5961"/>
</g>
<!-- Node19 -->
<g id="node20" class="node">
<title>Node19</title>
<g id="a_node20"><a xlink:href="../../df/d21/GPUCommonDef_8h.html" target="_top" xlink:title="GPUCommonDef.h">
<polygon fill="none" stroke="#000000" points="1684.5,-62 1684.5,-81 1791.5,-81 1791.5,-62 1684.5,-62"/>
<text text-anchor="middle" x="1738" y="-69" font-family="Helvetica,sans-Serif" font-size="10.00" fill="#000000">GPUCommonDef.h</text>
</a>
</g>
</g>
<!-- Node18&#45;&gt;Node19 -->
<g id="edge22" class="edge">
<title>Node18&#45;&gt;Node19</title>
<path fill="none" stroke="#191970" d="M1630.0527,-128.9005C1651.1984,-117.6564 1686.4404,-98.9166 1710.8782,-85.9219"/>
<polygon fill="#191970" stroke="#191970" points="1712.7947,-88.867 1719.9808,-81.0817 1709.5082,-82.6864 1712.7947,-88.867"/>
</g>
<!-- Node20 -->
<g id="node21" class="node">
<title>Node20</title>
<g id="a_node21"><a xlink:href="../../d5/d93/GPUCommonDefSettings_8h.html" target="_top" xlink:title="GPUCommonDefSettings.h">
<polygon fill="none" stroke="#000000" points="1585,-.5 1585,-19.5 1733,-19.5 1733,-.5 1585,-.5"/>
<text text-anchor="middle" x="1659" y="-7.5" font-family="Helvetica,sans-Serif" font-size="10.00" fill="#000000">GPUCommonDefSettings.h</text>
</a>
</g>
</g>
<!-- Node19&#45;&gt;Node20 -->
<g id="edge23" class="edge">
<title>Node19&#45;&gt;Node20</title>
<path fill="none" stroke="#191970" d="M1725.6563,-61.8906C1713.2497,-52.2324 1693.9157,-37.1812 1679.2587,-25.771"/>
<polygon fill="#191970" stroke="#191970" points="1681.2979,-22.923 1671.2571,-19.5419 1676.9979,-28.4466 1681.2979,-22.923"/>
</g>
<!-- Node21 -->
<g id="node22" class="node">
<title>Node21</title>
<g id="a_node22"><a xlink:href="../../da/d5a/GPUCommonDefAPI_8h.html" target="_top" xlink:title="GPUCommonDefAPI.h">
<polygon fill="none" stroke="#000000" points="1751,-.5 1751,-19.5 1875,-19.5 1875,-.5 1751,-.5"/>
<text text-anchor="middle" x="1813" y="-7.5" font-family="Helvetica,sans-Serif" font-size="10.00" fill="#000000">GPUCommonDefAPI.h</text>
</a>
</g>
</g>
<!-- Node19&#45;&gt;Node21 -->
<g id="edge24" class="edge">
<title>Node19&#45;&gt;Node21</title>
<path fill="none" stroke="#191970" d="M1749.7188,-61.8906C1761.3188,-52.3786 1779.2979,-37.6357 1793.1321,-26.2917"/>
<polygon fill="#191970" stroke="#191970" points="1795.6026,-28.7921 1801.116,-19.7449 1791.164,-23.3792 1795.6026,-28.7921"/>
</g>
</g>
</svg>
