<?xml version="1.0" encoding="UTF-8" standalone="no"?>
<!DOCTYPE svg PUBLIC "-//W3C//DTD SVG 1.1//EN"
 "http://www.w3.org/Graphics/SVG/1.1/DTD/svg11.dtd">
<!-- Generated by graphviz version 2.40.1 (20161225.0304)
 -->
<!-- Title: /home/travis/build/AliceO2Group/AliceO2/Detectors/MUON/MCH/Tracking/src/TrackFinderOriginal.cxx Pages: 1 -->
<svg width="2704pt" height="408pt"
 viewBox="0.00 0.00 2703.58 408.00" xmlns="http://www.w3.org/2000/svg" xmlns:xlink="http://www.w3.org/1999/xlink">
<g id="graph0" class="graph" transform="scale(1 1) rotate(0) translate(4 404)">
<title>/home/travis/build/AliceO2Group/AliceO2/Detectors/MUON/MCH/Tracking/src/TrackFinderOriginal.cxx</title>
<!-- Node0 -->
<g id="node1" class="node">
<title>Node0</title>
<polygon fill="#bfbfbf" stroke="#000000" points="552.0848,-347.5 552.0848,-399.5 722.0848,-399.5 722.0848,-347.5 552.0848,-347.5"/>
<text text-anchor="start" x="560.0848" y="-387.5" font-family="Helvetica,sans-Serif" font-size="10.00" fill="#000000">/home/travis/build</text>
<text text-anchor="start" x="560.0848" y="-376.5" font-family="Helvetica,sans-Serif" font-size="10.00" fill="#000000">/AliceO2Group/AliceO2</text>
<text text-anchor="start" x="560.0848" y="-365.5" font-family="Helvetica,sans-Serif" font-size="10.00" fill="#000000">/Detectors/MUON/MCH/Tracking</text>
<text text-anchor="middle" x="637.0848" y="-354.5" font-family="Helvetica,sans-Serif" font-size="10.00" fill="#000000">/src/TrackFinderOriginal.cxx</text>
</g>
<!-- Node1 -->
<g id="node2" class="node">
<title>Node1</title>
<g id="a_node2"><a xlink:href="../../d7/d7f/TrackFinderOriginal_8h.html" target="_top" xlink:title="Definition of a class to reconstruct tracks with the original algorithm. ">
<polygon fill="none" stroke="#000000" points="229.5848,-291.5 229.5848,-310.5 348.5848,-310.5 348.5848,-291.5 229.5848,-291.5"/>
<text text-anchor="middle" x="289.0848" y="-298.5" font-family="Helvetica,sans-Serif" font-size="10.00" fill="#000000">TrackFinderOriginal.h</text>
</a>
</g>
</g>
<!-- Node0&#45;&gt;Node1 -->
<g id="edge1" class="edge">
<title>Node0&#45;&gt;Node1</title>
<path fill="none" stroke="#191970" d="M551.9544,-355.7645C487.5482,-342.3465 400.9358,-324.3023 345.0527,-312.66"/>
<polygon fill="#191970" stroke="#191970" points="345.4917,-309.1764 334.988,-310.5632 344.0639,-316.0292 345.4917,-309.1764"/>
</g>
<!-- Node4 -->
<g id="node5" class="node">
<title>Node4</title>
<polygon fill="none" stroke="#bfbfbf" points="142.0848,-.5 142.0848,-19.5 202.0848,-19.5 202.0848,-.5 142.0848,-.5"/>
<text text-anchor="middle" x="172.0848" y="-7.5" font-family="Helvetica,sans-Serif" font-size="10.00" fill="#000000">iostream</text>
</g>
<!-- Node0&#45;&gt;Node4 -->
<g id="edge20" class="edge">
<title>Node0&#45;&gt;Node4</title>
<path fill="none" stroke="#191970" d="M551.8371,-365.0933C378.2604,-346.823 .0848,-300.6334 .0848,-245 .0848,-245 .0848,-245 .0848,-133 .0848,-97.154 -1.2723,-81.3368 24.0848,-56 39.3731,-40.7239 93.7533,-26.5061 132.1434,-18.0337"/>
<polygon fill="#191970" stroke="#191970" points="132.9765,-21.4346 142.0129,-15.9034 131.4995,-14.5922 132.9765,-21.4346"/>
</g>
<!-- Node11 -->
<g id="node12" class="node">
<title>Node11</title>
<polygon fill="none" stroke="#bfbfbf" points="439.0848,-62 439.0848,-81 509.0848,-81 509.0848,-62 439.0848,-62"/>
<text text-anchor="middle" x="474.0848" y="-69" font-family="Helvetica,sans-Serif" font-size="10.00" fill="#000000">TMatrixD.h</text>
</g>
<!-- Node0&#45;&gt;Node11 -->
<g id="edge23" class="edge">
<title>Node0&#45;&gt;Node11</title>
<path fill="none" stroke="#191970" d="M551.883,-356.3591C499.7858,-340.4128 439.8391,-310.4016 422.0848,-255 410.3688,-218.4406 444.8301,-175.9096 455.0848,-143 460.5047,-125.6065 465.7515,-105.537 469.3532,-91.0969"/>
<polygon fill="#191970" stroke="#191970" points="472.7757,-91.8355 471.7623,-81.2892 465.9778,-90.1656 472.7757,-91.8355"/>
</g>
<!-- Node14 -->
<g id="node15" class="node">
<title>Node14</title>
<polygon fill="none" stroke="#bfbfbf" points="1224.5848,-291.5 1224.5848,-310.5 1289.5848,-310.5 1289.5848,-291.5 1224.5848,-291.5"/>
<text text-anchor="middle" x="1257.0848" y="-298.5" font-family="Helvetica,sans-Serif" font-size="10.00" fill="#000000">stdexcept</text>
</g>
<!-- Node0&#45;&gt;Node14 -->
<g id="edge21" class="edge">
<title>Node0&#45;&gt;Node14</title>
<path fill="none" stroke="#191970" d="M722.3913,-366.9038C834.6536,-357.6048 1037.9177,-338.6328 1210.0848,-311 1211.552,-310.7645 1213.0426,-310.5134 1214.5462,-310.2499"/>
<polygon fill="#191970" stroke="#191970" points="1215.3685,-313.6567 1224.5486,-308.3675 1214.0737,-306.7775 1215.3685,-313.6567"/>
</g>
<!-- Node15 -->
<g id="node16" class="node">
<title>Node15</title>
<polygon fill="none" stroke="#bfbfbf" points="1307.5848,-291.5 1307.5848,-310.5 1432.5848,-310.5 1432.5848,-291.5 1307.5848,-291.5"/>
<text text-anchor="middle" x="1370.0848" y="-298.5" font-family="Helvetica,sans-Serif" font-size="10.00" fill="#000000">TGeoGlobalMagField.h</text>
</g>
<!-- Node0&#45;&gt;Node15 -->
<g id="edge22" class="edge">
<title>Node0&#45;&gt;Node15</title>
<path fill="none" stroke="#191970" d="M722.1237,-366.725C846.2825,-356.554 1084.6842,-335.9691 1297.2815,-311.1735"/>
<polygon fill="#191970" stroke="#191970" points="1297.8604,-314.6297 1307.3851,-309.9896 1297.0457,-307.6773 1297.8604,-314.6297"/>
</g>
<!-- Node16 -->
<g id="node17" class="node">
<title>Node16</title>
<polygon fill="none" stroke="#bfbfbf" points="1168.0848,-179.5 1168.0848,-198.5 1224.0848,-198.5 1224.0848,-179.5 1168.0848,-179.5"/>
<text text-anchor="middle" x="1196.0848" y="-186.5" font-family="Helvetica,sans-Serif" font-size="10.00" fill="#000000">TMath.h</text>
</g>
<!-- Node0&#45;&gt;Node16 -->
<g id="edge24" class="edge">
<title>Node0&#45;&gt;Node16</title>
<path fill="none" stroke="#191970" d="M722.1482,-366.9242C824.4008,-355.9926 998.5213,-327.5383 1129.0848,-255 1150.7997,-242.9357 1170.3681,-221.9004 1182.6719,-206.818"/>
<polygon fill="#191970" stroke="#191970" points="1185.5982,-208.7593 1189.038,-198.7384 1180.0998,-204.427 1185.5982,-208.7593"/>
</g>
<!-- Node17 -->
<g id="node18" class="node">
<title>Node17</title>
<g id="a_node18"><a xlink:href="../../db/d4b/MagneticField_8h.html" target="_top" xlink:title="Definition of the MagF class. ">
<polygon fill="none" stroke="#000000" points="704.0848,-291.5 704.0848,-310.5 822.0848,-310.5 822.0848,-291.5 704.0848,-291.5"/>
<text text-anchor="middle" x="763.0848" y="-298.5" font-family="Helvetica,sans-Serif" font-size="10.00" fill="#000000">Field/MagneticField.h</text>
</a>
</g>
</g>
<!-- Node0&#45;&gt;Node17 -->
<g id="edge25" class="edge">
<title>Node0&#45;&gt;Node17</title>
<path fill="none" stroke="#191970" d="M682.5737,-347.3258C701.1942,-336.6116 722.0318,-324.6218 737.8421,-315.5246"/>
<polygon fill="#191970" stroke="#191970" points="739.5934,-318.555 746.5154,-310.534 736.1022,-312.4877 739.5934,-318.555"/>
</g>
<!-- Node41 -->
<g id="node42" class="node">
<title>Node41</title>
<g id="a_node42"><a xlink:href="../../d8/d9c/TrackExtrap_8h.html" target="_top" xlink:title="Definition of tools for track extrapolation. ">
<polygon fill="none" stroke="#000000" points="470.5848,-291.5 470.5848,-310.5 553.5848,-310.5 553.5848,-291.5 470.5848,-291.5"/>
<text text-anchor="middle" x="512.0848" y="-298.5" font-family="Helvetica,sans-Serif" font-size="10.00" fill="#000000">TrackExtrap.h</text>
</a>
</g>
</g>
<!-- Node0&#45;&gt;Node41 -->
<g id="edge64" class="edge">
<title>Node0&#45;&gt;Node41</title>
<path fill="none" stroke="#191970" d="M591.957,-347.3258C573.6568,-336.7118 553.1983,-324.8458 537.5682,-315.7804"/>
<polygon fill="#191970" stroke="#191970" points="538.9291,-312.5236 528.5228,-310.534 535.417,-318.5788 538.9291,-312.5236"/>
</g>
<!-- Node2 -->
<g id="node3" class="node">
<title>Node2</title>
<polygon fill="none" stroke="#bfbfbf" points="183.0848,-235.5 183.0848,-254.5 233.0848,-254.5 233.0848,-235.5 183.0848,-235.5"/>
<text text-anchor="middle" x="208.0848" y="-242.5" font-family="Helvetica,sans-Serif" font-size="10.00" fill="#000000">chrono</text>
</g>
<!-- Node1&#45;&gt;Node2 -->
<g id="edge2" class="edge">
<title>Node1&#45;&gt;Node2</title>
<path fill="none" stroke="#191970" d="M274.9757,-291.2455C262.664,-282.7337 244.589,-270.2375 230.331,-260.3801"/>
<polygon fill="#191970" stroke="#191970" points="232.2483,-257.4506 222.0323,-254.6427 228.2675,-263.2085 232.2483,-257.4506"/>
</g>
<!-- Node3 -->
<g id="node4" class="node">
<title>Node3</title>
<g id="a_node4"><a xlink:href="../../d3/d5c/Detectors_2MUON_2MCH_2Tracking_2include_2MCHTracking_2Cluster_8h.html" target="_top" xlink:title="MCHTracking/Cluster.h">
<polygon fill="none" stroke="#000000" points="244.5848,-123.5 244.5848,-142.5 369.5848,-142.5 369.5848,-123.5 244.5848,-123.5"/>
<text text-anchor="middle" x="307.0848" y="-130.5" font-family="Helvetica,sans-Serif" font-size="10.00" fill="#000000">MCHTracking/Cluster.h</text>
</a>
</g>
</g>
<!-- Node1&#45;&gt;Node3 -->
<g id="edge3" class="edge">
<title>Node1&#45;&gt;Node3</title>
<path fill="none" stroke="#191970" d="M303.7701,-291.2577C314.7002,-283.0536 328.7746,-270.2342 335.0848,-255 349.63,-219.8848 331.2305,-175.8048 318.1133,-151.4008"/>
<polygon fill="#191970" stroke="#191970" points="321.0571,-149.4959 313.0924,-142.5092 314.9618,-152.9378 321.0571,-149.4959"/>
</g>
<!-- Node7 -->
<g id="node8" class="node">
<title>Node7</title>
<g id="a_node8"><a xlink:href="../../df/d7a/Detectors_2MUON_2MCH_2Tracking_2include_2MCHTracking_2Track_8h.html" target="_top" xlink:title="MCHTracking/Track.h">
<polygon fill="none" stroke="#000000" points="153.5848,-179.5 153.5848,-198.5 270.5848,-198.5 270.5848,-179.5 153.5848,-179.5"/>
<text text-anchor="middle" x="212.0848" y="-186.5" font-family="Helvetica,sans-Serif" font-size="10.00" fill="#000000">MCHTracking/Track.h</text>
</a>
</g>
</g>
<!-- Node1&#45;&gt;Node7 -->
<g id="edge8" class="edge">
<title>Node1&#45;&gt;Node7</title>
<path fill="none" stroke="#191970" d="M229.7669,-291.4757C208.5698,-284.9 186.8032,-273.7855 174.0848,-255 163.0772,-238.7414 177.6268,-219.1369 191.7872,-205.5392"/>
<polygon fill="#191970" stroke="#191970" points="194.345,-207.9465 199.4493,-198.6623 189.6693,-202.737 194.345,-207.9465"/>
</g>
<!-- Node13 -->
<g id="node14" class="node">
<title>Node13</title>
<g id="a_node14"><a xlink:href="../../de/d6b/MUON_2MCH_2Tracking_2src_2TrackFitter_8h.html" target="_top" xlink:title="TrackFitter.h">
<polygon fill="none" stroke="#000000" points="251.5848,-235.5 251.5848,-254.5 326.5848,-254.5 326.5848,-235.5 251.5848,-235.5"/>
<text text-anchor="middle" x="289.0848" y="-242.5" font-family="Helvetica,sans-Serif" font-size="10.00" fill="#000000">TrackFitter.h</text>
</a>
</g>
</g>
<!-- Node1&#45;&gt;Node13 -->
<g id="edge16" class="edge">
<title>Node1&#45;&gt;Node13</title>
<path fill="none" stroke="#191970" d="M289.0848,-291.2455C289.0848,-283.9382 289.0848,-273.6944 289.0848,-264.7046"/>
<polygon fill="#191970" stroke="#191970" points="292.5849,-264.6426 289.0848,-254.6427 285.5849,-264.6427 292.5849,-264.6426"/>
</g>
<!-- Node3&#45;&gt;Node4 -->
<g id="edge4" class="edge">
<title>Node3&#45;&gt;Node4</title>
<path fill="none" stroke="#191970" d="M314.0015,-123.4838C324.422,-107.8794 341.3847,-76.5379 326.0848,-56 312.4078,-37.6406 252.9906,-23.9176 212.0907,-16.4306"/>
<polygon fill="#191970" stroke="#191970" points="212.5884,-12.9643 202.1305,-14.6624 211.3648,-19.8565 212.5884,-12.9643"/>
</g>
<!-- Node5 -->
<g id="node6" class="node">
<title>Node5</title>
<polygon fill="none" stroke="#bfbfbf" points="1027.0848,-62 1027.0848,-81 1071.0848,-81 1071.0848,-62 1027.0848,-62"/>
<text text-anchor="middle" x="1049.0848" y="-69" font-family="Helvetica,sans-Serif" font-size="10.00" fill="#000000">string</text>
</g>
<!-- Node3&#45;&gt;Node5 -->
<g id="edge5" class="edge">
<title>Node3&#45;&gt;Node5</title>
<path fill="none" stroke="#191970" d="M369.8791,-123.9853C372.9892,-123.6308 376.0709,-123.2996 379.0848,-123 644.0383,-96.6656 713.2875,-123.1221 977.0848,-87 990.2478,-85.1976 1004.5869,-82.3048 1016.9789,-79.5037"/>
<polygon fill="#191970" stroke="#191970" points="1017.9183,-82.8787 1026.8617,-77.1983 1016.328,-76.0617 1017.9183,-82.8787"/>
</g>
<!-- Node6 -->
<g id="node7" class="node">
<title>Node6</title>
<g id="a_node7"><a xlink:href="../../d3/db8/ClusterBlock_8h.html" target="_top" xlink:title="Definition of the MCH cluster minimal structure. ">
<polygon fill="none" stroke="#000000" points="179.5848,-62 179.5848,-81 316.5848,-81 316.5848,-62 179.5848,-62"/>
<text text-anchor="middle" x="248.0848" y="-69" font-family="Helvetica,sans-Serif" font-size="10.00" fill="#000000">MCHBase/ClusterBlock.h</text>
</a>
</g>
</g>
<!-- Node3&#45;&gt;Node6 -->
<g id="edge6" class="edge">
<title>Node3&#45;&gt;Node6</title>
<path fill="none" stroke="#191970" d="M297.8661,-123.3906C288.999,-114.1478 275.3937,-99.966 264.6459,-88.7628"/>
<polygon fill="#191970" stroke="#191970" points="266.8821,-86.0381 257.4335,-81.2449 261.8308,-90.8841 266.8821,-86.0381"/>
</g>
<!-- Node6&#45;&gt;Node4 -->
<g id="edge7" class="edge">
<title>Node6&#45;&gt;Node4</title>
<path fill="none" stroke="#191970" d="M236.2098,-61.8906C224.4551,-52.3786 206.2362,-37.6357 192.2177,-26.2917"/>
<polygon fill="#191970" stroke="#191970" points="194.1026,-23.3146 184.1272,-19.7449 189.6992,-28.7562 194.1026,-23.3146"/>
</g>
<!-- Node7&#45;&gt;Node3 -->
<g id="edge11" class="edge">
<title>Node7&#45;&gt;Node3</title>
<path fill="none" stroke="#191970" d="M228.6326,-179.2455C243.3447,-170.5731 265.0736,-157.7645 281.9353,-147.825"/>
<polygon fill="#191970" stroke="#191970" points="283.8894,-150.736 290.7267,-142.6427 280.3347,-144.7057 283.8894,-150.736"/>
</g>
<!-- Node8 -->
<g id="node9" class="node">
<title>Node8</title>
<polygon fill="none" stroke="#bfbfbf" points="194.0848,-123.5 194.0848,-142.5 226.0848,-142.5 226.0848,-123.5 194.0848,-123.5"/>
<text text-anchor="middle" x="210.0848" y="-130.5" font-family="Helvetica,sans-Serif" font-size="10.00" fill="#000000">list</text>
</g>
<!-- Node7&#45;&gt;Node8 -->
<g id="edge9" class="edge">
<title>Node7&#45;&gt;Node8</title>
<path fill="none" stroke="#191970" d="M211.7364,-179.2455C211.4755,-171.9382 211.1096,-161.6944 210.7886,-152.7046"/>
<polygon fill="#191970" stroke="#191970" points="214.284,-152.5113 210.4292,-142.6427 207.2884,-152.7613 214.284,-152.5113"/>
</g>
<!-- Node9 -->
<g id="node10" class="node">
<title>Node9</title>
<polygon fill="none" stroke="#bfbfbf" points="388.0848,-123.5 388.0848,-142.5 446.0848,-142.5 446.0848,-123.5 388.0848,-123.5"/>
<text text-anchor="middle" x="417.0848" y="-130.5" font-family="Helvetica,sans-Serif" font-size="10.00" fill="#000000">memory</text>
</g>
<!-- Node7&#45;&gt;Node9 -->
<g id="edge10" class="edge">
<title>Node7&#45;&gt;Node9</title>
<path fill="none" stroke="#191970" d="M247.3256,-179.3733C283.6355,-169.4544 340.1065,-154.0282 377.8247,-143.7247"/>
<polygon fill="#191970" stroke="#191970" points="379.2093,-146.9748 387.9336,-140.9633 377.3647,-140.2222 379.2093,-146.9748"/>
</g>
<!-- Node10 -->
<g id="node11" class="node">
<title>Node10</title>
<g id="a_node11"><a xlink:href="../../de/d4b/TrackParam_8h.html" target="_top" xlink:title="Definition of the MCH track parameters for internal use. ">
<polygon fill="none" stroke="#000000" points="28.0848,-123.5 28.0848,-142.5 176.0848,-142.5 176.0848,-123.5 28.0848,-123.5"/>
<text text-anchor="middle" x="102.0848" y="-130.5" font-family="Helvetica,sans-Serif" font-size="10.00" fill="#000000">MCHTracking/TrackParam.h</text>
</a>
</g>
</g>
<!-- Node7&#45;&gt;Node10 -->
<g id="edge12" class="edge">
<title>Node7&#45;&gt;Node10</title>
<path fill="none" stroke="#191970" d="M192.9243,-179.2455C175.5737,-170.4125 149.7948,-157.2887 130.1265,-147.2758"/>
<polygon fill="#191970" stroke="#191970" points="131.5253,-144.0605 121.0258,-142.6427 128.3495,-150.2986 131.5253,-144.0605"/>
</g>
<!-- Node10&#45;&gt;Node11 -->
<g id="edge13" class="edge">
<title>Node10&#45;&gt;Node11</title>
<path fill="none" stroke="#191970" d="M159.8017,-123.4581C234.0499,-111.1832 361.4723,-90.1174 429.0075,-78.9523"/>
<polygon fill="#191970" stroke="#191970" points="429.6243,-82.3979 438.9195,-77.3136 428.4825,-75.4917 429.6243,-82.3979"/>
</g>
<!-- Node12 -->
<g id="node13" class="node">
<title>Node12</title>
<g id="a_node13"><a xlink:href="../../d6/d45/TrackBlock_8h.html" target="_top" xlink:title="Definition of the MCH track parameters minimal structure. ">
<polygon fill="none" stroke="#000000" points="33.0848,-62 33.0848,-81 161.0848,-81 161.0848,-62 33.0848,-62"/>
<text text-anchor="middle" x="97.0848" y="-69" font-family="Helvetica,sans-Serif" font-size="10.00" fill="#000000">MCHBase/TrackBlock.h</text>
</a>
</g>
</g>
<!-- Node10&#45;&gt;Node12 -->
<g id="edge14" class="edge">
<title>Node10&#45;&gt;Node12</title>
<path fill="none" stroke="#191970" d="M101.3036,-123.3906C100.6105,-114.8657 99.5758,-102.1392 98.7046,-91.4235"/>
<polygon fill="#191970" stroke="#191970" points="102.176,-90.9283 97.8771,-81.2449 95.199,-91.4956 102.176,-90.9283"/>
</g>
<!-- Node12&#45;&gt;Node4 -->
<g id="edge15" class="edge">
<title>Node12&#45;&gt;Node4</title>
<path fill="none" stroke="#191970" d="M108.8036,-61.8906C120.4036,-52.3786 138.3828,-37.6357 152.2169,-26.2917"/>
<polygon fill="#191970" stroke="#191970" points="154.6874,-28.7921 160.2008,-19.7449 150.2489,-23.3792 154.6874,-28.7921"/>
</g>
<!-- Node13&#45;&gt;Node3 -->
<g id="edge17" class="edge">
<title>Node13&#45;&gt;Node3</title>
<path fill="none" stroke="#191970" d="M290.6195,-235.4509C293.5553,-217.184 300.0206,-176.9553 303.9191,-152.6976"/>
<polygon fill="#191970" stroke="#191970" points="307.4228,-152.9536 305.554,-142.5249 300.5115,-151.8428 307.4228,-152.9536"/>
</g>
<!-- Node13&#45;&gt;Node7 -->
<g id="edge18" class="edge">
<title>Node13&#45;&gt;Node7</title>
<path fill="none" stroke="#191970" d="M275.6724,-235.2455C264.0791,-226.814 247.1101,-214.4729 233.617,-204.6598"/>
<polygon fill="#191970" stroke="#191970" points="235.4895,-201.6938 225.3435,-198.6427 231.3723,-207.355 235.4895,-201.6938"/>
</g>
<!-- Node13&#45;&gt;Node10 -->
<g id="edge19" class="edge">
<title>Node13&#45;&gt;Node10</title>
<path fill="none" stroke="#191970" d="M251.3073,-236.1382C214.2726,-226.9061 160.9892,-212.0017 144.0848,-199 128.1651,-186.7556 116.6231,-166.635 109.7132,-151.8229"/>
<polygon fill="#191970" stroke="#191970" points="112.8847,-150.3397 105.6726,-142.5785 106.4706,-153.1432 112.8847,-150.3397"/>
</g>
<!-- Node17&#45;&gt;Node9 -->
<g id="edge63" class="edge">
<title>Node17&#45;&gt;Node9</title>
<path fill="none" stroke="#191970" d="M703.811,-293.7551C664.4134,-287.3118 612.3491,-275.6019 570.0848,-255 513.9039,-227.6144 459.4561,-176.5849 433.2638,-150.0365"/>
<polygon fill="#191970" stroke="#191970" points="435.5513,-147.3682 426.0717,-142.6366 430.5315,-152.247 435.5513,-147.3682"/>
</g>
<!-- Node18 -->
<g id="node19" class="node">
<title>Node18</title>
<polygon fill="none" stroke="#bfbfbf" points="578.5848,-235.5 578.5848,-254.5 643.5848,-254.5 643.5848,-235.5 578.5848,-235.5"/>
<text text-anchor="middle" x="611.0848" y="-242.5" font-family="Helvetica,sans-Serif" font-size="10.00" fill="#000000">FairField.h</text>
</g>
<!-- Node17&#45;&gt;Node18 -->
<g id="edge26" class="edge">
<title>Node17&#45;&gt;Node18</title>
<path fill="none" stroke="#191970" d="M736.9551,-291.3733C712.008,-282.1822 674.2256,-268.2624 646.5642,-258.0713"/>
<polygon fill="#191970" stroke="#191970" points="647.467,-254.674 636.8736,-254.5011 645.047,-261.2424 647.467,-254.674"/>
</g>
<!-- Node19 -->
<g id="node20" class="node">
<title>Node19</title>
<g id="a_node20"><a xlink:href="../../d3/d91/MagFieldParam_8h.html" target="_top" xlink:title="Definition of the MagFieldParam: container for ALICE mag. field parameters. ">
<polygon fill="none" stroke="#000000" points="700.5848,-235.5 700.5848,-254.5 825.5848,-254.5 825.5848,-235.5 700.5848,-235.5"/>
<text text-anchor="middle" x="763.0848" y="-242.5" font-family="Helvetica,sans-Serif" font-size="10.00" fill="#000000">Field/MagFieldParam.h</text>
</a>
</g>
</g>
<!-- Node17&#45;&gt;Node19 -->
<g id="edge27" class="edge">
<title>Node17&#45;&gt;Node19</title>
<path fill="none" stroke="#191970" d="M763.0848,-291.2455C763.0848,-283.9382 763.0848,-273.6944 763.0848,-264.7046"/>
<polygon fill="#191970" stroke="#191970" points="766.5849,-264.6426 763.0848,-254.6427 759.5849,-264.6427 766.5849,-264.6426"/>
</g>
<!-- Node22 -->
<g id="node23" class="node">
<title>Node22</title>
<g id="a_node23"><a xlink:href="../../dd/dfb/MagneticWrapperChebyshev_8h.html" target="_top" xlink:title="Field/MagneticWrapperChebyshev.h">
<polygon fill="none" stroke="#000000" points="930.5848,-235.5 930.5848,-254.5 1119.5848,-254.5 1119.5848,-235.5 930.5848,-235.5"/>
<text text-anchor="middle" x="1025.0848" y="-242.5" font-family="Helvetica,sans-Serif" font-size="10.00" fill="#000000">Field/MagneticWrapperChebyshev.h</text>
</a>
</g>
</g>
<!-- Node17&#45;&gt;Node22 -->
<g id="edge30" class="edge">
<title>Node17&#45;&gt;Node22</title>
<path fill="none" stroke="#191970" d="M807.8265,-291.4369C852.8542,-281.8127 922.3576,-266.957 970.5775,-256.6504"/>
<polygon fill="#191970" stroke="#191970" points="971.4801,-260.0366 980.5276,-254.5237 970.0169,-253.1912 971.4801,-260.0366"/>
</g>
<!-- Node23 -->
<g id="node24" class="node">
<title>Node23</title>
<polygon fill="none" stroke="#bfbfbf" points="728.5848,-62 728.5848,-81 795.5848,-81 795.5848,-62 728.5848,-62"/>
<text text-anchor="middle" x="762.0848" y="-69" font-family="Helvetica,sans-Serif" font-size="10.00" fill="#000000">TNamed.h</text>
</g>
<!-- Node17&#45;&gt;Node23 -->
<g id="edge62" class="edge">
<title>Node17&#45;&gt;Node23</title>
<path fill="none" stroke="#191970" d="M747.0258,-291.3588C709.6578,-268.7595 619.481,-213.2055 612.0848,-199 583.8527,-144.7759 668.2994,-104.0814 721.7499,-84.4814"/>
<polygon fill="#191970" stroke="#191970" points="723.0887,-87.7201 731.3355,-81.0687 720.7408,-81.1256 723.0887,-87.7201"/>
</g>
<!-- Node28 -->
<g id="node29" class="node">
<title>Node28</title>
<polygon fill="none" stroke="#bfbfbf" points="1132.5848,-62 1132.5848,-81 1191.5848,-81 1191.5848,-62 1132.5848,-62"/>
<text text-anchor="middle" x="1162.0848" y="-69" font-family="Helvetica,sans-Serif" font-size="10.00" fill="#000000">Rtypes.h</text>
</g>
<!-- Node17&#45;&gt;Node28 -->
<g id="edge61" class="edge">
<title>Node17&#45;&gt;Node28</title>
<path fill="none" stroke="#191970" d="M822.1421,-296.2344C910.672,-288.6412 1073.347,-272.8227 1129.0848,-255 1135.3352,-253.0014 1229.7198,-204.6337 1233.0848,-199 1256.6161,-159.6036 1211.3105,-112.1317 1182.7939,-87.7316"/>
<polygon fill="#191970" stroke="#191970" points="1184.8558,-84.8947 1174.9222,-81.2102 1180.39,-90.2852 1184.8558,-84.8947"/>
</g>
<!-- Node29 -->
<g id="node30" class="node">
<title>Node29</title>
<g id="a_node30"><a xlink:href="../../da/df4/MagFieldFast_8h.html" target="_top" xlink:title="Definition of the fast magnetic field parametrization MagFieldFast. ">
<polygon fill="none" stroke="#000000" points="1280.5848,-179.5 1280.5848,-198.5 1393.5848,-198.5 1393.5848,-179.5 1280.5848,-179.5"/>
<text text-anchor="middle" x="1337.0848" y="-186.5" font-family="Helvetica,sans-Serif" font-size="10.00" fill="#000000">Field/MagFieldFast.h</text>
</a>
</g>
</g>
<!-- Node17&#45;&gt;Node29 -->
<g id="edge46" class="edge">
<title>Node17&#45;&gt;Node29</title>
<path fill="none" stroke="#191970" d="M822.2133,-299.3125C902.5395,-295.9026 1050.1185,-285.6567 1172.0848,-255 1221.7082,-242.527 1276.284,-218.5158 1308.5697,-203.1506"/>
<polygon fill="#191970" stroke="#191970" points="1310.3542,-206.1759 1317.8436,-198.682 1307.3156,-199.8698 1310.3542,-206.1759"/>
</g>
<!-- Node40 -->
<g id="node41" class="node">
<title>Node40</title>
<polygon fill="none" stroke="#bfbfbf" points="844.0848,-235.5 844.0848,-254.5 912.0848,-254.5 912.0848,-235.5 844.0848,-235.5"/>
<text text-anchor="middle" x="878.0848" y="-242.5" font-family="Helvetica,sans-Serif" font-size="10.00" fill="#000000">TSystem.h</text>
</g>
<!-- Node17&#45;&gt;Node40 -->
<g id="edge60" class="edge">
<title>Node17&#45;&gt;Node40</title>
<path fill="none" stroke="#191970" d="M782.854,-291.3733C801.2317,-282.4241 828.8161,-268.9917 849.5741,-258.8835"/>
<polygon fill="#191970" stroke="#191970" points="851.1152,-262.026 858.5736,-254.5011 848.0505,-255.7325 851.1152,-262.026"/>
</g>
<!-- Node20 -->
<g id="node21" class="node">
<title>Node20</title>
<polygon fill="none" stroke="#bfbfbf" points="620.5848,-179.5 620.5848,-198.5 731.5848,-198.5 731.5848,-179.5 620.5848,-179.5"/>
<text text-anchor="middle" x="676.0848" y="-186.5" font-family="Helvetica,sans-Serif" font-size="10.00" fill="#000000">FairParGenericSet.h</text>
</g>
<!-- Node19&#45;&gt;Node20 -->
<g id="edge28" class="edge">
<title>Node19&#45;&gt;Node20</title>
<path fill="none" stroke="#191970" d="M747.9306,-235.2455C734.5821,-226.6534 714.9262,-214.0014 699.5466,-204.1018"/>
<polygon fill="#191970" stroke="#191970" points="701.3684,-201.1121 691.0654,-198.6427 697.5797,-206.9982 701.3684,-201.1121"/>
</g>
<!-- Node21 -->
<g id="node22" class="node">
<title>Node21</title>
<polygon fill="none" stroke="#bfbfbf" points="705.0848,-123.5 705.0848,-142.5 765.0848,-142.5 765.0848,-123.5 705.0848,-123.5"/>
<text text-anchor="middle" x="735.0848" y="-130.5" font-family="Helvetica,sans-Serif" font-size="10.00" fill="#000000">TString.h</text>
</g>
<!-- Node19&#45;&gt;Node21 -->
<g id="edge29" class="edge">
<title>Node19&#45;&gt;Node21</title>
<path fill="none" stroke="#191970" d="M760.6976,-235.4509C756.1101,-217.1013 745.9825,-176.5908 739.9272,-152.3693"/>
<polygon fill="#191970" stroke="#191970" points="743.287,-151.3774 737.466,-142.5249 736.496,-153.0752 743.287,-151.3774"/>
</g>
<!-- Node22&#45;&gt;Node16 -->
<g id="edge31" class="edge">
<title>Node22&#45;&gt;Node16</title>
<path fill="none" stroke="#191970" d="M1054.4808,-235.3733C1083.174,-225.9767 1126.9602,-211.6373 1158.2414,-201.3932"/>
<polygon fill="#191970" stroke="#191970" points="1159.5092,-204.661 1167.9232,-198.2225 1157.3306,-198.0086 1159.5092,-204.661"/>
</g>
<!-- Node22&#45;&gt;Node23 -->
<g id="edge32" class="edge">
<title>Node22&#45;&gt;Node23</title>
<path fill="none" stroke="#191970" d="M965.0573,-235.4869C878.6819,-220.3812 726.3555,-187.9518 696.0848,-143 681.4426,-121.2563 708.8013,-99.6019 732.6227,-85.9177"/>
<polygon fill="#191970" stroke="#191970" points="734.3843,-88.9436 741.4843,-81.0797 731.03,-82.7996 734.3843,-88.9436"/>
</g>
<!-- Node24 -->
<g id="node25" class="node">
<title>Node24</title>
<polygon fill="none" stroke="#bfbfbf" points="783.5848,-123.5 783.5848,-142.5 856.5848,-142.5 856.5848,-123.5 783.5848,-123.5"/>
<text text-anchor="middle" x="820.0848" y="-130.5" font-family="Helvetica,sans-Serif" font-size="10.00" fill="#000000">TObjArray.h</text>
</g>
<!-- Node22&#45;&gt;Node24 -->
<g id="edge33" class="edge">
<title>Node22&#45;&gt;Node24</title>
<path fill="none" stroke="#191970" d="M973.0504,-235.4858C930.3979,-226.8563 874.2189,-213.3255 856.0848,-199 841.0854,-187.1508 831.4657,-167.2586 825.9795,-152.404"/>
<polygon fill="#191970" stroke="#191970" points="829.2078,-151.0235 822.6974,-142.6649 822.5743,-153.259 829.2078,-151.0235"/>
</g>
<!-- Node25 -->
<g id="node26" class="node">
<title>Node25</title>
<g id="a_node26"><a xlink:href="../../d8/d64/Chebyshev3D_8h.html" target="_top" xlink:title="MathUtils/Chebyshev3D.h">
<polygon fill="none" stroke="#000000" points="864.5848,-179.5 864.5848,-198.5 1007.5848,-198.5 1007.5848,-179.5 864.5848,-179.5"/>
<text text-anchor="middle" x="936.0848" y="-186.5" font-family="Helvetica,sans-Serif" font-size="10.00" fill="#000000">MathUtils/Chebyshev3D.h</text>
</a>
</g>
</g>
<!-- Node22&#45;&gt;Node25 -->
<g id="edge34" class="edge">
<title>Node22&#45;&gt;Node25</title>
<path fill="none" stroke="#191970" d="M1009.5822,-235.2455C995.9269,-226.6534 975.8191,-214.0014 960.0859,-204.1018"/>
<polygon fill="#191970" stroke="#191970" points="961.7377,-201.006 951.4098,-198.6427 958.0097,-206.9307 961.7377,-201.006"/>
</g>
<!-- Node27 -->
<g id="node28" class="node">
<title>Node27</title>
<g id="a_node28"><a xlink:href="../../d4/d08/Chebyshev3DCalc_8h.html" target="_top" xlink:title="MathUtils/Chebyshev3DCalc.h">
<polygon fill="none" stroke="#000000" points="951.0848,-123.5 951.0848,-142.5 1115.0848,-142.5 1115.0848,-123.5 951.0848,-123.5"/>
<text text-anchor="middle" x="1033.0848" y="-130.5" font-family="Helvetica,sans-Serif" font-size="10.00" fill="#000000">MathUtils/Chebyshev3DCalc.h</text>
</a>
</g>
</g>
<!-- Node22&#45;&gt;Node27 -->
<g id="edge44" class="edge">
<title>Node22&#45;&gt;Node27</title>
<path fill="none" stroke="#191970" d="M1025.7669,-235.4509C1027.0717,-217.184 1029.9452,-176.9553 1031.6778,-152.6976"/>
<polygon fill="#191970" stroke="#191970" points="1035.183,-152.7489 1032.4045,-142.5249 1028.2008,-152.2501 1035.183,-152.7489"/>
</g>
<!-- Node22&#45;&gt;Node28 -->
<g id="edge45" class="edge">
<title>Node22&#45;&gt;Node28</title>
<path fill="none" stroke="#191970" d="M1042.6291,-235.3347C1069.3814,-219.6388 1120.0074,-185.9881 1146.0848,-143 1155.653,-127.227 1159.5152,-106.3775 1161.0656,-91.2658"/>
<polygon fill="#191970" stroke="#191970" points="1164.5774,-91.247 1161.8568,-81.0074 1157.5981,-90.7086 1164.5774,-91.247"/>
</g>
<!-- Node25&#45;&gt;Node21 -->
<g id="edge43" class="edge">
<title>Node25&#45;&gt;Node21</title>
<path fill="none" stroke="#191970" d="M901.5317,-179.3733C866.4432,-169.5974 812.1526,-154.4716 775.1889,-144.1733"/>
<polygon fill="#191970" stroke="#191970" points="775.8255,-140.7174 765.253,-141.4051 773.9467,-147.4606 775.8255,-140.7174"/>
</g>
<!-- Node25&#45;&gt;Node23 -->
<g id="edge35" class="edge">
<title>Node25&#45;&gt;Node23</title>
<path fill="none" stroke="#191970" d="M927.3464,-179.0816C914.7986,-165.2559 890.4896,-139.9806 866.0848,-123 843.9981,-107.6323 816.653,-94.2832 795.5463,-85.0287"/>
<polygon fill="#191970" stroke="#191970" points="796.8988,-81.8005 786.329,-81.0723 794.1377,-88.233 796.8988,-81.8005"/>
</g>
<!-- Node25&#45;&gt;Node24 -->
<g id="edge36" class="edge">
<title>Node25&#45;&gt;Node24</title>
<path fill="none" stroke="#191970" d="M916.1437,-179.3733C897.6062,-170.4241 869.782,-156.9917 848.8435,-146.8835"/>
<polygon fill="#191970" stroke="#191970" points="850.2929,-143.6967 839.7657,-142.5011 847.2496,-150.0006 850.2929,-143.6967"/>
</g>
<!-- Node26 -->
<g id="node27" class="node">
<title>Node26</title>
<polygon fill="none" stroke="#bfbfbf" points="922.0848,-62 922.0848,-81 968.0848,-81 968.0848,-62 922.0848,-62"/>
<text text-anchor="middle" x="945.0848" y="-69" font-family="Helvetica,sans-Serif" font-size="10.00" fill="#000000">cstdio</text>
</g>
<!-- Node25&#45;&gt;Node26 -->
<g id="edge37" class="edge">
<title>Node25&#45;&gt;Node26</title>
<path fill="none" stroke="#191970" d="M936.8213,-179.3845C938.2914,-160.1913 941.6161,-116.786 943.5708,-91.2663"/>
<polygon fill="#191970" stroke="#191970" points="947.0641,-91.4865 944.3381,-81.2484 940.0845,-90.9518 947.0641,-91.4865"/>
</g>
<!-- Node25&#45;&gt;Node27 -->
<g id="edge38" class="edge">
<title>Node25&#45;&gt;Node27</title>
<path fill="none" stroke="#191970" d="M952.9809,-179.2455C968.0028,-170.5731 990.1891,-157.7645 1007.4058,-147.825"/>
<polygon fill="#191970" stroke="#191970" points="1009.4719,-150.6737 1016.3823,-142.6427 1005.972,-144.6114 1009.4719,-150.6737"/>
</g>
<!-- Node25&#45;&gt;Node28 -->
<g id="edge42" class="edge">
<title>Node25&#45;&gt;Node28</title>
<path fill="none" stroke="#191970" d="M997.7538,-179.4986C1044.6903,-171.2565 1104.4587,-158.2675 1124.0848,-143 1141.0141,-129.8304 1151.262,-106.9605 1156.7791,-90.6315"/>
<polygon fill="#191970" stroke="#191970" points="1160.1429,-91.6005 1159.7441,-81.0131 1153.4535,-89.5383 1160.1429,-91.6005"/>
</g>
<!-- Node27&#45;&gt;Node23 -->
<g id="edge39" class="edge">
<title>Node27&#45;&gt;Node23</title>
<path fill="none" stroke="#191970" d="M991.0384,-123.4581C940.6888,-112.0319 856.7736,-92.9884 805.7269,-81.404"/>
<polygon fill="#191970" stroke="#191970" points="806.193,-77.9209 795.6663,-79.1209 804.6438,-84.7473 806.193,-77.9209"/>
</g>
<!-- Node27&#45;&gt;Node26 -->
<g id="edge40" class="edge">
<title>Node27&#45;&gt;Node26</title>
<path fill="none" stroke="#191970" d="M1019.3348,-123.3906C1005.3858,-113.6421 983.575,-98.3994 967.1951,-86.9521"/>
<polygon fill="#191970" stroke="#191970" points="968.9399,-83.9015 958.7383,-81.0419 964.93,-89.6392 968.9399,-83.9015"/>
</g>
<!-- Node27&#45;&gt;Node28 -->
<g id="edge41" class="edge">
<title>Node27&#45;&gt;Node28</title>
<path fill="none" stroke="#191970" d="M1053.2411,-123.3906C1074.6358,-113.1908 1108.6468,-96.9763 1132.955,-85.3875"/>
<polygon fill="#191970" stroke="#191970" points="1134.5496,-88.5047 1142.0701,-81.0419 1131.5372,-82.186 1134.5496,-88.5047"/>
</g>
<!-- Node29&#45;&gt;Node5 -->
<g id="edge48" class="edge">
<title>Node29&#45;&gt;Node5</title>
<path fill="none" stroke="#191970" d="M1313.5166,-179.3845C1261.9567,-158.3488 1139.1102,-108.2291 1080.8222,-84.4484"/>
<polygon fill="#191970" stroke="#191970" points="1081.9618,-81.1333 1071.3806,-80.5964 1079.3175,-87.6147 1081.9618,-81.1333"/>
</g>
<!-- Node29&#45;&gt;Node28 -->
<g id="edge47" class="edge">
<title>Node29&#45;&gt;Node28</title>
<path fill="none" stroke="#191970" d="M1329.3942,-179.4426C1317.8756,-165.5988 1294.9356,-139.7905 1271.0848,-123 1257.9765,-113.772 1221.5264,-97.1473 1194.3631,-85.2824"/>
<polygon fill="#191970" stroke="#191970" points="1195.4031,-81.9184 1184.8362,-81.149 1192.6169,-88.34 1195.4031,-81.9184"/>
</g>
<!-- Node30 -->
<g id="node31" class="node">
<title>Node30</title>
<g id="a_node31"><a xlink:href="../../dc/d73/Cartesian_8h.html" target="_top" xlink:title="MathUtils/Cartesian.h">
<polygon fill="none" stroke="#000000" points="1801.0848,-123.5 1801.0848,-142.5 1923.0848,-142.5 1923.0848,-123.5 1801.0848,-123.5"/>
<text text-anchor="middle" x="1862.0848" y="-130.5" font-family="Helvetica,sans-Serif" font-size="10.00" fill="#000000">MathUtils/Cartesian.h</text>
</a>
</g>
</g>
<!-- Node29&#45;&gt;Node30 -->
<g id="edge49" class="edge">
<title>Node29&#45;&gt;Node30</title>
<path fill="none" stroke="#191970" d="M1393.7678,-182.9538C1489.9924,-172.6899 1685.099,-151.8785 1790.5633,-140.629"/>
<polygon fill="#191970" stroke="#191970" points="1791.2216,-144.0787 1800.7939,-139.5377 1790.479,-137.1182 1791.2216,-144.0787"/>
</g>
<!-- Node30&#45;&gt;Node28 -->
<g id="edge57" class="edge">
<title>Node30&#45;&gt;Node28</title>
<path fill="none" stroke="#191970" d="M1800.8572,-131.1492C1659.5723,-126.489 1314.2297,-112.7636 1201.0848,-87 1198.221,-86.3479 1195.292,-85.5168 1192.3894,-84.5793"/>
<polygon fill="#191970" stroke="#191970" points="1193.3497,-81.2046 1182.7555,-81.0871 1190.9641,-87.7856 1193.3497,-81.2046"/>
</g>
<!-- Node31 -->
<g id="node32" class="node">
<title>Node31</title>
<polygon fill="none" stroke="#bfbfbf" points="1210.0848,-56.5 1210.0848,-86.5 1374.0848,-86.5 1374.0848,-56.5 1210.0848,-56.5"/>
<text text-anchor="start" x="1218.0848" y="-74.5" font-family="Helvetica,sans-Serif" font-size="10.00" fill="#000000">Math/GenVector/Displacement</text>
<text text-anchor="middle" x="1292.0848" y="-63.5" font-family="Helvetica,sans-Serif" font-size="10.00" fill="#000000">Vector3D.h</text>
</g>
<!-- Node30&#45;&gt;Node31 -->
<g id="edge50" class="edge">
<title>Node30&#45;&gt;Node31</title>
<path fill="none" stroke="#191970" d="M1800.808,-128.5026C1711.668,-121.6505 1540.8111,-107.3517 1384.5692,-86.998"/>
<polygon fill="#191970" stroke="#191970" points="1384.6708,-83.4814 1374.3,-85.6486 1383.7588,-90.4217 1384.6708,-83.4814"/>
</g>
<!-- Node32 -->
<g id="node33" class="node">
<title>Node32</title>
<polygon fill="none" stroke="#bfbfbf" points="1392.5848,-62 1392.5848,-81 1581.5848,-81 1581.5848,-62 1392.5848,-62"/>
<text text-anchor="middle" x="1487.0848" y="-69" font-family="Helvetica,sans-Serif" font-size="10.00" fill="#000000">Math/GenVector/PositionVector3D.h</text>
</g>
<!-- Node30&#45;&gt;Node32 -->
<g id="edge51" class="edge">
<title>Node30&#45;&gt;Node32</title>
<path fill="none" stroke="#191970" d="M1803.9025,-123.4581C1736.745,-112.4443 1626.4328,-94.3531 1555.2965,-82.6867"/>
<polygon fill="#191970" stroke="#191970" points="1555.5297,-79.1783 1545.0951,-81.0137 1554.3968,-86.086 1555.5297,-79.1783"/>
</g>
<!-- Node33 -->
<g id="node34" class="node">
<title>Node33</title>
<polygon fill="none" stroke="#bfbfbf" points="1600.0848,-62 1600.0848,-81 1760.0848,-81 1760.0848,-62 1600.0848,-62"/>
<text text-anchor="middle" x="1680.0848" y="-69" font-family="Helvetica,sans-Serif" font-size="10.00" fill="#000000">Math/GenVector/Rotation3D.h</text>
</g>
<!-- Node30&#45;&gt;Node33 -->
<g id="edge52" class="edge">
<title>Node30&#45;&gt;Node33</title>
<path fill="none" stroke="#191970" d="M1833.6473,-123.3906C1802.5276,-112.8749 1752.4884,-95.966 1718.0363,-84.3243"/>
<polygon fill="#191970" stroke="#191970" points="1718.9168,-80.9274 1708.3226,-81.0419 1716.6759,-87.5591 1718.9168,-80.9274"/>
</g>
<!-- Node34 -->
<g id="node35" class="node">
<title>Node34</title>
<polygon fill="none" stroke="#bfbfbf" points="1778.0848,-62 1778.0848,-81 1946.0848,-81 1946.0848,-62 1778.0848,-62"/>
<text text-anchor="middle" x="1862.0848" y="-69" font-family="Helvetica,sans-Serif" font-size="10.00" fill="#000000">Math/GenVector/Transform3D.h</text>
</g>
<!-- Node30&#45;&gt;Node34 -->
<g id="edge53" class="edge">
<title>Node30&#45;&gt;Node34</title>
<path fill="none" stroke="#191970" d="M1862.0848,-123.3906C1862.0848,-114.8657 1862.0848,-102.1392 1862.0848,-91.4235"/>
<polygon fill="#191970" stroke="#191970" points="1865.5849,-91.2448 1862.0848,-81.2449 1858.5849,-91.2449 1865.5849,-91.2448"/>
</g>
<!-- Node35 -->
<g id="node36" class="node">
<title>Node35</title>
<polygon fill="none" stroke="#bfbfbf" points="1964.5848,-62 1964.5848,-81 2137.5848,-81 2137.5848,-62 1964.5848,-62"/>
<text text-anchor="middle" x="2051.0848" y="-69" font-family="Helvetica,sans-Serif" font-size="10.00" fill="#000000">Math/GenVector/Translation3D.h</text>
</g>
<!-- Node30&#45;&gt;Node35 -->
<g id="edge54" class="edge">
<title>Node30&#45;&gt;Node35</title>
<path fill="none" stroke="#191970" d="M1891.6161,-123.3906C1924.0714,-112.8298 1976.3429,-95.8208 2012.1334,-84.1747"/>
<polygon fill="#191970" stroke="#191970" points="2013.3347,-87.4645 2021.7609,-81.0419 2011.1687,-80.808 2013.3347,-87.4645"/>
</g>
<!-- Node36 -->
<g id="node37" class="node">
<title>Node36</title>
<polygon fill="none" stroke="#bfbfbf" points="2156.0848,-56.5 2156.0848,-86.5 2320.0848,-86.5 2320.0848,-56.5 2156.0848,-56.5"/>
<text text-anchor="start" x="2164.0848" y="-74.5" font-family="Helvetica,sans-Serif" font-size="10.00" fill="#000000">Math/GenVector/Displacement</text>
<text text-anchor="middle" x="2238.0848" y="-63.5" font-family="Helvetica,sans-Serif" font-size="10.00" fill="#000000">Vector2D.h</text>
</g>
<!-- Node30&#45;&gt;Node36 -->
<g id="edge55" class="edge">
<title>Node30&#45;&gt;Node36</title>
<path fill="none" stroke="#191970" d="M1922.158,-123.4593C1977.6553,-114.61 2062.6786,-100.9636 2145.8783,-87.193"/>
<polygon fill="#191970" stroke="#191970" points="2146.4571,-90.6449 2155.7503,-85.557 2145.3126,-83.739 2146.4571,-90.6449"/>
</g>
<!-- Node37 -->
<g id="node38" class="node">
<title>Node37</title>
<polygon fill="none" stroke="#bfbfbf" points="2338.5848,-62 2338.5848,-81 2527.5848,-81 2527.5848,-62 2338.5848,-62"/>
<text text-anchor="middle" x="2433.0848" y="-69" font-family="Helvetica,sans-Serif" font-size="10.00" fill="#000000">Math/GenVector/PositionVector2D.h</text>
</g>
<!-- Node30&#45;&gt;Node37 -->
<g id="edge56" class="edge">
<title>Node30&#45;&gt;Node37</title>
<path fill="none" stroke="#191970" d="M1923.3884,-127.9409C2012.7499,-120.3443 2183.9544,-104.9515 2329.0848,-87 2339.904,-85.6618 2351.3349,-84.1044 2362.5034,-82.503"/>
<polygon fill="#191970" stroke="#191970" points="2363.2696,-85.9284 2372.6614,-81.0249 2362.2616,-79.0014 2363.2696,-85.9284"/>
</g>
<!-- Node38 -->
<g id="node39" class="node">
<title>Node38</title>
<polygon fill="none" stroke="#bfbfbf" points="2546.0848,-62 2546.0848,-81 2628.0848,-81 2628.0848,-62 2546.0848,-62"/>
<text text-anchor="middle" x="2587.0848" y="-69" font-family="Helvetica,sans-Serif" font-size="10.00" fill="#000000">TGeoMatrix.h</text>
</g>
<!-- Node30&#45;&gt;Node38 -->
<g id="edge58" class="edge">
<title>Node30&#45;&gt;Node38</title>
<path fill="none" stroke="#191970" d="M1923.1505,-130.6579C2066.3048,-124.8732 2420.244,-108.7839 2537.0848,-87 2541.5268,-86.1718 2546.1293,-85.0807 2550.6625,-83.86"/>
<polygon fill="#191970" stroke="#191970" points="2551.7613,-87.1855 2560.3863,-81.0325 2549.8068,-80.4639 2551.7613,-87.1855"/>
</g>
<!-- Node39 -->
<g id="node40" class="node">
<title>Node39</title>
<polygon fill="none" stroke="#bfbfbf" points="2646.5848,-62 2646.5848,-81 2695.5848,-81 2695.5848,-62 2646.5848,-62"/>
<text text-anchor="middle" x="2671.0848" y="-69" font-family="Helvetica,sans-Serif" font-size="10.00" fill="#000000">iosfwd</text>
</g>
<!-- Node30&#45;&gt;Node39 -->
<g id="edge59" class="edge">
<title>Node30&#45;&gt;Node39</title>
<path fill="none" stroke="#191970" d="M1923.2321,-132.2605C2081.606,-129.8842 2502.1881,-120.5138 2637.0848,-87 2639.2844,-86.4535 2641.5169,-85.7675 2643.7323,-84.9902"/>
<polygon fill="#191970" stroke="#191970" points="2645.2359,-88.1572 2653.1809,-81.148 2642.599,-81.6728 2645.2359,-88.1572"/>
</g>
<!-- Node41&#45;&gt;Node11 -->
<g id="edge66" class="edge">
<title>Node41&#45;&gt;Node11</title>
<path fill="none" stroke="#191970" d="M511.2272,-291.2779C508.7541,-264.3466 500.953,-186.5701 488.0848,-123 485.9211,-112.3111 482.7875,-100.5643 480.0333,-90.9921"/>
<polygon fill="#191970" stroke="#191970" points="483.3528,-89.8751 477.1568,-81.281 476.6411,-91.8632 483.3528,-89.8751"/>
</g>
<!-- Node42 -->
<g id="node43" class="node">
<title>Node42</title>
<polygon fill="none" stroke="#bfbfbf" points="430.5848,-235.5 430.5848,-254.5 483.5848,-254.5 483.5848,-235.5 430.5848,-235.5"/>
<text text-anchor="middle" x="457.0848" y="-242.5" font-family="Helvetica,sans-Serif" font-size="10.00" fill="#000000">cstddef</text>
</g>
<!-- Node41&#45;&gt;Node42 -->
<g id="edge65" class="edge">
<title>Node41&#45;&gt;Node42</title>
<path fill="none" stroke="#191970" d="M502.5046,-291.2455C494.5391,-283.1352 483.0208,-271.4075 473.5769,-261.7919"/>
<polygon fill="#191970" stroke="#191970" points="476.0595,-259.3247 466.5553,-254.6427 471.0653,-264.2297 476.0595,-259.3247"/>
</g>
</g>
</svg>
