<?xml version="1.0" encoding="UTF-8" standalone="no"?>
<!DOCTYPE svg PUBLIC "-//W3C//DTD SVG 1.1//EN"
 "http://www.w3.org/Graphics/SVG/1.1/DTD/svg11.dtd">
<!-- Generated by graphviz version 2.40.1 (20161225.0304)
 -->
<!-- Title: /home/travis/build/AliceO2Group/AliceO2/Detectors/HMPID/simulation/include/HMPIDSimulation/Detector.h Pages: 1 -->
<!--zoomable 307 -->
<svg id="main" version="1.1" xmlns="http://www.w3.org/2000/svg" xmlns:xlink="http://www.w3.org/1999/xlink" xml:space="preserve" onload="init(evt)">
<style type="text/css"><![CDATA[
.edge:hover path { stroke: red; }
.edge:hover polygon { stroke: red; fill: red; }
]]></style>
<script type="text/javascript"><![CDATA[
var edges = document.getElementsByTagName('g');
if (edges && edges.length) {
  for (var i=0;i<edges.length;i++) {
    if (edges[i].id.substr(0,4)=='edge') {
      edges[i].setAttribute('class','edge');
    }
  }
}
]]></script>
        <defs>
                <circle id="rim" cx="0" cy="0" r="7"/>
                <circle id="rim2" cx="0" cy="0" r="3.5"/>
                <g id="zoomPlus">
                        <use xlink:href="#rim" fill="#404040">
                                <set attributeName="fill" to="#808080" begin="zoomplus.mouseover" end="zoomplus.mouseout"/>
                        </use>
                        <path d="M-4,0h8M0,-4v8" fill="none" stroke="white" stroke-width="1.5" pointer-events="none"/>
                </g>
                <g id="zoomMin">
                        <use xlink:href="#rim" fill="#404040">
                                <set attributeName="fill" to="#808080" begin="zoomminus.mouseover" end="zoomminus.mouseout"/>
                        </use>
                        <path d="M-4,0h8" fill="none" stroke="white" stroke-width="1.5" pointer-events="none"/>
                </g>
                <g id="dirArrow">
                        <path fill="none" stroke="white" stroke-width="1.5" d="M0,-3.0v7 M-2.5,-0.5L0,-3.0L2.5,-0.5"/>
                </g>
               <g id="resetDef">
                       <use xlink:href="#rim2" fill="#404040">
                               <set attributeName="fill" to="#808080" begin="reset.mouseover" end="reset.mouseout"/>
                       </use>
               </g>
        </defs>

<script type="text/javascript">
var viewWidth = 2307;
var viewHeight = 307;
var sectionId = 'dynsection-0';
</script>
<script xlink:href="../../svgpan.js"/>
<svg id="graph" class="graph">
<g id="viewport">
<title>/home/travis/build/AliceO2Group/AliceO2/Detectors/HMPID/simulation/include/HMPIDSimulation/Detector.h</title>
<!-- Node0 -->
<g id="node1" class="node">
<title>Node0</title>
<polygon fill="#bfbfbf" stroke="#000000" points="934,-246.5 934,-298.5 1130,-298.5 1130,-246.5 934,-246.5"/>
<text text-anchor="start" x="942" y="-286.5" font-family="Helvetica,sans-Serif" font-size="10.00" fill="#000000">/home/travis/build</text>
<text text-anchor="start" x="942" y="-275.5" font-family="Helvetica,sans-Serif" font-size="10.00" fill="#000000">/AliceO2Group/AliceO2</text>
<text text-anchor="start" x="942" y="-264.5" font-family="Helvetica,sans-Serif" font-size="10.00" fill="#000000">/Detectors/HMPID/simulation</text>
<text text-anchor="middle" x="1032" y="-253.5" font-family="Helvetica,sans-Serif" font-size="10.00" fill="#000000">/include/HMPIDSimulation/Detector.h</text>
</g>
<!-- Node1 -->
<g id="node2" class="node">
<title>Node1</title>
<polygon fill="none" stroke="#bfbfbf" points="1008.5,-129 1008.5,-148 1055.5,-148 1055.5,-129 1008.5,-129"/>
<text text-anchor="middle" x="1032" y="-136" font-family="Helvetica,sans-Serif" font-size="10.00" fill="#000000">vector</text>
</g>
<!-- Node0&#45;&gt;Node1 -->
<g id="edge1" class="edge">
<title>Node0&#45;&gt;Node1</title>
<path fill="none" stroke="#191970" d="M1032,-246.3453C1032,-220.5564 1032,-181.7118 1032,-158.3578"/>
<polygon fill="#191970" stroke="#191970" points="1035.5001,-158.2626 1032,-148.2626 1028.5001,-158.2627 1035.5001,-158.2626"/>
</g>
<!-- Node2 -->
<g id="node3" class="node">
<title>Node2</title>
<g id="a_node3"><a xlink:href="../../d1/d3a/Base_2include_2DetectorsBase_2Detector_8h.html" target="_top" xlink:title="DetectorsBase/Detector.h">
<polygon fill="none" stroke="#000000" points="1503.5,-190.5 1503.5,-209.5 1644.5,-209.5 1644.5,-190.5 1503.5,-190.5"/>
<text text-anchor="middle" x="1574" y="-197.5" font-family="Helvetica,sans-Serif" font-size="10.00" fill="#000000">DetectorsBase/Detector.h</text>
</a>
</g>
</g>
<!-- Node0&#45;&gt;Node2 -->
<g id="edge2" class="edge">
<title>Node0&#45;&gt;Node2</title>
<path fill="none" stroke="#191970" d="M1130.1521,-259.3708C1234.1568,-245.4587 1396.4557,-223.749 1493.2976,-210.7951"/>
<polygon fill="#191970" stroke="#191970" points="1493.88,-214.2484 1503.3276,-209.4534 1492.9519,-207.3102 1493.88,-214.2484"/>
</g>
<!-- Node27 -->
<g id="node28" class="node">
<title>Node27</title>
<g id="a_node28"><a xlink:href="../../d5/deb/Detectors_2HMPID_2base_2include_2HMPIDBase_2Hit_8h.html" target="_top" xlink:title="HMPIDBase/Hit.h">
<polygon fill="none" stroke="#000000" points="860.5,-190.5 860.5,-209.5 959.5,-209.5 959.5,-190.5 860.5,-190.5"/>
<text text-anchor="middle" x="910" y="-197.5" font-family="Helvetica,sans-Serif" font-size="10.00" fill="#000000">HMPIDBase/Hit.h</text>
</a>
</g>
</g>
<!-- Node0&#45;&gt;Node27 -->
<g id="edge33" class="edge">
<title>Node0&#45;&gt;Node27</title>
<path fill="none" stroke="#191970" d="M987.9552,-246.3258C970.0943,-235.7118 950.1267,-223.8458 934.8718,-214.7804"/>
<polygon fill="#191970" stroke="#191970" points="936.4281,-211.6339 926.0434,-209.534 932.852,-217.6515 936.4281,-211.6339"/>
</g>
<!-- Node2&#45;&gt;Node1 -->
<g id="edge4" class="edge">
<title>Node2&#45;&gt;Node1</title>
<path fill="none" stroke="#191970" d="M1503.1945,-196.1286C1384.4387,-189.2018 1150.2412,-173.5646 1070,-154 1067.2095,-153.3196 1064.3556,-152.4692 1061.5274,-151.5191"/>
<polygon fill="#191970" stroke="#191970" points="1062.7329,-148.2332 1052.1404,-148.0073 1060.2801,-154.7894 1062.7329,-148.2332"/>
</g>
<!-- Node3 -->
<g id="node4" class="node">
<title>Node3</title>
<polygon fill="none" stroke="#bfbfbf" points="2045,-67.5 2045,-86.5 2083,-86.5 2083,-67.5 2045,-67.5"/>
<text text-anchor="middle" x="2064" y="-74.5" font-family="Helvetica,sans-Serif" font-size="10.00" fill="#000000">map</text>
</g>
<!-- Node2&#45;&gt;Node3 -->
<g id="edge3" class="edge">
<title>Node2&#45;&gt;Node3</title>
<path fill="none" stroke="#191970" d="M1644.5704,-198.0168C1770.8859,-193.7791 2025.188,-181.8597 2054,-154 2069.0163,-139.4801 2069.518,-114.327 2067.5745,-96.7327"/>
<polygon fill="#191970" stroke="#191970" points="2071.016,-96.0763 2066.1145,-86.6835 2064.0887,-97.0828 2071.016,-96.0763"/>
</g>
<!-- Node4 -->
<g id="node5" class="node">
<title>Node4</title>
<polygon fill="none" stroke="#bfbfbf" points="1755.5,-67.5 1755.5,-86.5 1838.5,-86.5 1838.5,-67.5 1755.5,-67.5"/>
<text text-anchor="middle" x="1797" y="-74.5" font-family="Helvetica,sans-Serif" font-size="10.00" fill="#000000">initializer_list</text>
</g>
<!-- Node2&#45;&gt;Node4 -->
<g id="edge5" class="edge">
<title>Node2&#45;&gt;Node4</title>
<path fill="none" stroke="#191970" d="M1644.7225,-194.8183C1702.2703,-188.9661 1776.9649,-177.076 1796,-154 1809.05,-138.1797 1806.8196,-113.6716 1802.9355,-96.5677"/>
<polygon fill="#191970" stroke="#191970" points="1806.2299,-95.3349 1800.2883,-86.5629 1799.4628,-97.1255 1806.2299,-95.3349"/>
</g>
<!-- Node5 -->
<g id="node6" class="node">
<title>Node5</title>
<polygon fill="none" stroke="#bfbfbf" points="2139,-129 2139,-148 2197,-148 2197,-129 2139,-129"/>
<text text-anchor="middle" x="2168" y="-136" font-family="Helvetica,sans-Serif" font-size="10.00" fill="#000000">memory</text>
</g>
<!-- Node2&#45;&gt;Node5 -->
<g id="edge6" class="edge">
<title>Node2&#45;&gt;Node5</title>
<path fill="none" stroke="#191970" d="M1644.7042,-196.4124C1772.1103,-189.5631 2035.3133,-173.5505 2125,-154 2128.4381,-153.2505 2131.9754,-152.2956 2135.4742,-151.229"/>
<polygon fill="#191970" stroke="#191970" points="2136.7447,-154.4947 2145.119,-148.0046 2134.5252,-147.8559 2136.7447,-154.4947"/>
</g>
<!-- Node6 -->
<g id="node7" class="node">
<title>Node6</title>
<polygon fill="none" stroke="#bfbfbf" points="2215,-129 2215,-148 2299,-148 2299,-129 2215,-129"/>
<text text-anchor="middle" x="2257" y="-136" font-family="Helvetica,sans-Serif" font-size="10.00" fill="#000000">FairDetector.h</text>
</g>
<!-- Node2&#45;&gt;Node6 -->
<g id="edge7" class="edge">
<title>Node2&#45;&gt;Node6</title>
<path fill="none" stroke="#191970" d="M1644.6802,-196.8393C1786.2486,-190.1825 2100.0724,-173.6976 2206,-154 2210.5235,-153.1588 2215.2136,-152.0598 2219.8349,-150.8347"/>
<polygon fill="#191970" stroke="#191970" points="2221.0964,-154.1144 2229.7508,-148.0027 2219.1741,-147.3836 2221.0964,-154.1144"/>
</g>
<!-- Node7 -->
<g id="node8" class="node">
<title>Node7</title>
<polygon fill="none" stroke="#bfbfbf" points="1112,-129 1112,-148 1218,-148 1218,-129 1112,-129"/>
<text text-anchor="middle" x="1165" y="-136" font-family="Helvetica,sans-Serif" font-size="10.00" fill="#000000">FairRootManager.h</text>
</g>
<!-- Node2&#45;&gt;Node7 -->
<g id="edge8" class="edge">
<title>Node2&#45;&gt;Node7</title>
<path fill="none" stroke="#191970" d="M1503.1778,-192.986C1432.7855,-185.4577 1321.9149,-172.0954 1227,-154 1221.5506,-152.9611 1215.8647,-151.7367 1210.2427,-150.439"/>
<polygon fill="#191970" stroke="#191970" points="1210.7969,-146.9728 1200.2567,-148.048 1209.1668,-153.7804 1210.7969,-146.9728"/>
</g>
<!-- Node8 -->
<g id="node9" class="node">
<title>Node8</title>
<g id="a_node9"><a xlink:href="../../d0/d9a/MaterialManager_8h.html" target="_top" xlink:title="DetectorsBase/MaterialManager.h">
<polygon fill="none" stroke="#000000" points="1863.5,-129 1863.5,-148 2044.5,-148 2044.5,-129 1863.5,-129"/>
<text text-anchor="middle" x="1954" y="-136" font-family="Helvetica,sans-Serif" font-size="10.00" fill="#000000">DetectorsBase/MaterialManager.h</text>
</a>
</g>
</g>
<!-- Node2&#45;&gt;Node8 -->
<g id="edge9" class="edge">
<title>Node2&#45;&gt;Node8</title>
<path fill="none" stroke="#191970" d="M1632.9581,-190.4581C1701.1505,-179.4217 1813.2524,-161.2789 1885.3215,-149.6151"/>
<polygon fill="#191970" stroke="#191970" points="1885.9039,-153.0664 1895.2163,-148.0137 1884.7855,-146.1564 1885.9039,-153.0664"/>
</g>
<!-- Node9 -->
<g id="node10" class="node">
<title>Node9</title>
<polygon fill="none" stroke="#bfbfbf" points="2029.5,-6 2029.5,-25 2088.5,-25 2088.5,-6 2029.5,-6"/>
<text text-anchor="middle" x="2059" y="-13" font-family="Helvetica,sans-Serif" font-size="10.00" fill="#000000">Rtypes.h</text>
</g>
<!-- Node2&#45;&gt;Node9 -->
<g id="edge15" class="edge">
<title>Node2&#45;&gt;Node9</title>
<path fill="none" stroke="#191970" d="M1644.6001,-197.9195C1774.6732,-193.4501 2041.873,-181.0623 2074,-154 2104.1992,-128.5615 2103.0991,-104.8936 2092,-67 2088.426,-54.798 2080.9763,-42.7442 2074.0582,-33.3692"/>
<polygon fill="#191970" stroke="#191970" points="2076.6509,-31.003 2067.732,-25.2842 2071.1379,-35.3167 2076.6509,-31.003"/>
</g>
<!-- Node12 -->
<g id="node13" class="node">
<title>Node12</title>
<polygon fill="none" stroke="#bfbfbf" points="1236,-129 1236,-148 1294,-148 1294,-129 1236,-129"/>
<text text-anchor="middle" x="1265" y="-136" font-family="Helvetica,sans-Serif" font-size="10.00" fill="#000000">cxxabi.h</text>
</g>
<!-- Node2&#45;&gt;Node12 -->
<g id="edge16" class="edge">
<title>Node2&#45;&gt;Node12</title>
<path fill="none" stroke="#191970" d="M1503.4625,-192.0965C1448.4569,-184.9509 1370.4995,-172.6567 1304,-154 1301.3934,-153.2687 1298.7219,-152.4232 1296.0593,-151.512"/>
<polygon fill="#191970" stroke="#191970" points="1297.18,-148.1949 1286.5868,-148.0112 1294.7534,-154.7608 1297.18,-148.1949"/>
</g>
<!-- Node13 -->
<g id="node14" class="node">
<title>Node13</title>
<polygon fill="none" stroke="#bfbfbf" points="1312.5,-129 1312.5,-148 1369.5,-148 1369.5,-129 1312.5,-129"/>
<text text-anchor="middle" x="1341" y="-136" font-family="Helvetica,sans-Serif" font-size="10.00" fill="#000000">typeinfo</text>
</g>
<!-- Node2&#45;&gt;Node13 -->
<g id="edge17" class="edge">
<title>Node2&#45;&gt;Node13</title>
<path fill="none" stroke="#191970" d="M1524.1309,-190.4699C1484.3818,-182.3411 1427.5368,-169.5197 1379,-154 1376.8495,-153.3124 1374.6492,-152.5575 1372.4444,-151.7626"/>
<polygon fill="#191970" stroke="#191970" points="1373.4795,-148.4112 1362.8891,-148.1052 1370.9772,-154.9487 1373.4795,-148.4112"/>
</g>
<!-- Node14 -->
<g id="node15" class="node">
<title>Node14</title>
<polygon fill="none" stroke="#bfbfbf" points="1387.5,-129 1387.5,-148 1456.5,-148 1456.5,-129 1387.5,-129"/>
<text text-anchor="middle" x="1422" y="-136" font-family="Helvetica,sans-Serif" font-size="10.00" fill="#000000">type_traits</text>
</g>
<!-- Node2&#45;&gt;Node14 -->
<g id="edge18" class="edge">
<title>Node2&#45;&gt;Node14</title>
<path fill="none" stroke="#191970" d="M1550.25,-190.3906C1524.7061,-180.0554 1483.8991,-163.5447 1455.189,-151.9284"/>
<polygon fill="#191970" stroke="#191970" points="1456.166,-148.5481 1445.5832,-148.0419 1453.5404,-155.0371 1456.166,-148.5481"/>
</g>
<!-- Node15 -->
<g id="node16" class="node">
<title>Node15</title>
<polygon fill="none" stroke="#bfbfbf" points="1475,-129 1475,-148 1519,-148 1519,-129 1475,-129"/>
<text text-anchor="middle" x="1497" y="-136" font-family="Helvetica,sans-Serif" font-size="10.00" fill="#000000">string</text>
</g>
<!-- Node2&#45;&gt;Node15 -->
<g id="edge19" class="edge">
<title>Node2&#45;&gt;Node15</title>
<path fill="none" stroke="#191970" d="M1561.9688,-190.3906C1549.9893,-180.8227 1531.3834,-165.9621 1517.1475,-154.5919"/>
<polygon fill="#191970" stroke="#191970" points="1518.9447,-151.5479 1508.9468,-148.0419 1514.5761,-157.0175 1518.9447,-151.5479"/>
</g>
<!-- Node16 -->
<g id="node17" class="node">
<title>Node16</title>
<polygon fill="none" stroke="#bfbfbf" points="1537,-129 1537,-148 1611,-148 1611,-129 1537,-129"/>
<text text-anchor="middle" x="1574" y="-136" font-family="Helvetica,sans-Serif" font-size="10.00" fill="#000000">TMessage.h</text>
</g>
<!-- Node2&#45;&gt;Node16 -->
<g id="edge20" class="edge">
<title>Node2&#45;&gt;Node16</title>
<path fill="none" stroke="#191970" d="M1574,-190.3906C1574,-181.8657 1574,-169.1392 1574,-158.4235"/>
<polygon fill="#191970" stroke="#191970" points="1577.5001,-158.2448 1574,-148.2449 1570.5001,-158.2449 1577.5001,-158.2448"/>
</g>
<!-- Node17 -->
<g id="node18" class="node">
<title>Node17</title>
<g id="a_node18"><a xlink:href="../../de/d61/ShmManager_8h.html" target="_top" xlink:title="CommonUtils/ShmManager.h">
<polygon fill="none" stroke="#000000" points="1504,-67.5 1504,-86.5 1662,-86.5 1662,-67.5 1504,-67.5"/>
<text text-anchor="middle" x="1583" y="-74.5" font-family="Helvetica,sans-Serif" font-size="10.00" fill="#000000">CommonUtils/ShmManager.h</text>
</a>
</g>
</g>
<!-- Node2&#45;&gt;Node17 -->
<g id="edge21" class="edge">
<title>Node2&#45;&gt;Node17</title>
<path fill="none" stroke="#191970" d="M1644.6585,-193.3852C1696.7646,-186.874 1761.3633,-174.8058 1778,-154 1812.2153,-111.2104 1738.7792,-92.1192 1672.4566,-83.6512"/>
<polygon fill="#191970" stroke="#191970" points="1672.6613,-80.1507 1662.3144,-82.4293 1671.8239,-87.1004 1672.6613,-80.1507"/>
</g>
<!-- Node23 -->
<g id="node24" class="node">
<title>Node23</title>
<g id="a_node24"><a xlink:href="../../d0/d91/ShmAllocator_8h.html" target="_top" xlink:title="CommonUtils/ShmAllocator.h">
<polygon fill="none" stroke="#000000" points="830,-129 830,-148 990,-148 990,-129 830,-129"/>
<text text-anchor="middle" x="910" y="-136" font-family="Helvetica,sans-Serif" font-size="10.00" fill="#000000">CommonUtils/ShmAllocator.h</text>
</a>
</g>
</g>
<!-- Node2&#45;&gt;Node23 -->
<g id="edge27" class="edge">
<title>Node2&#45;&gt;Node23</title>
<path fill="none" stroke="#191970" d="M1503.4135,-196.463C1394.747,-190.5424 1180.065,-176.9594 999,-154 989.5307,-152.7993 979.5337,-151.2934 969.7951,-149.6954"/>
<polygon fill="#191970" stroke="#191970" points="970.2157,-146.217 959.773,-148.0057 969.0519,-153.1196 970.2157,-146.217"/>
</g>
<!-- Node24 -->
<g id="node25" class="node">
<title>Node24</title>
<polygon fill="none" stroke="#bfbfbf" points="916,-67.5 916,-86.5 968,-86.5 968,-67.5 916,-67.5"/>
<text text-anchor="middle" x="942" y="-74.5" font-family="Helvetica,sans-Serif" font-size="10.00" fill="#000000">cassert</text>
</g>
<!-- Node2&#45;&gt;Node24 -->
<g id="edge32" class="edge">
<title>Node2&#45;&gt;Node24</title>
<path fill="none" stroke="#191970" d="M1503.4578,-198.0919C1390.2728,-194.2015 1173.6471,-183.108 1103,-154 1082.8476,-145.6968 1083.9031,-133.8505 1065,-123 1037.3683,-107.1392 1003.2514,-94.8873 977.9635,-87.0304"/>
<polygon fill="#191970" stroke="#191970" points="978.639,-83.5783 968.0541,-84.0353 976.6137,-90.2789 978.639,-83.5783"/>
</g>
<!-- Node25 -->
<g id="node26" class="node">
<title>Node25</title>
<polygon fill="none" stroke="#bfbfbf" points="1629,-129 1629,-148 1695,-148 1695,-129 1629,-129"/>
<text text-anchor="middle" x="1662" y="-136" font-family="Helvetica,sans-Serif" font-size="10.00" fill="#000000">sys/shm.h</text>
</g>
<!-- Node2&#45;&gt;Node25 -->
<g id="edge30" class="edge">
<title>Node2&#45;&gt;Node25</title>
<path fill="none" stroke="#191970" d="M1587.75,-190.3906C1601.6991,-180.6421 1623.5098,-165.3994 1639.8897,-153.9521"/>
<polygon fill="#191970" stroke="#191970" points="1642.1548,-156.6392 1648.3466,-148.0419 1638.1449,-150.9015 1642.1548,-156.6392"/>
</g>
<!-- Node26 -->
<g id="node27" class="node">
<title>Node26</title>
<polygon fill="none" stroke="#bfbfbf" points="1713,-129 1713,-148 1769,-148 1769,-129 1713,-129"/>
<text text-anchor="middle" x="1741" y="-136" font-family="Helvetica,sans-Serif" font-size="10.00" fill="#000000">unistd.h</text>
</g>
<!-- Node2&#45;&gt;Node26 -->
<g id="edge31" class="edge">
<title>Node2&#45;&gt;Node26</title>
<path fill="none" stroke="#191970" d="M1602.3175,-190.4967C1628.7666,-181.4986 1669.27,-167.4067 1704,-154 1705.803,-153.304 1707.6498,-152.5768 1709.5099,-151.8332"/>
<polygon fill="#191970" stroke="#191970" points="1710.8428,-155.0696 1718.7777,-148.0491 1708.1967,-148.589 1710.8428,-155.0696"/>
</g>
<!-- Node8&#45;&gt;Node3 -->
<g id="edge11" class="edge">
<title>Node8&#45;&gt;Node3</title>
<path fill="none" stroke="#191970" d="M1971.1875,-128.8906C1989.1082,-118.8713 2017.4095,-103.0483 2038.0523,-91.5071"/>
<polygon fill="#191970" stroke="#191970" points="2039.9128,-94.4769 2046.9332,-86.5419 2036.4967,-88.367 2039.9128,-94.4769"/>
</g>
<!-- Node8&#45;&gt;Node4 -->
<g id="edge13" class="edge">
<title>Node8&#45;&gt;Node4</title>
<path fill="none" stroke="#191970" d="M1929.4688,-128.8906C1902.9693,-118.5103 1860.5669,-101.9004 1830.893,-90.2766"/>
<polygon fill="#191970" stroke="#191970" points="1831.9467,-86.9304 1821.359,-86.5419 1829.3935,-93.4482 1831.9467,-86.9304"/>
</g>
<!-- Node8&#45;&gt;Node9 -->
<g id="edge10" class="edge">
<title>Node8&#45;&gt;Node9</title>
<path fill="none" stroke="#191970" d="M1944.2276,-128.5829C1931.203,-114.1295 1911.3004,-86.8417 1925,-67 1950.6543,-29.8439 1977.9077,-47.3387 2020,-31 2021.8339,-30.2881 2023.7148,-29.554 2025.6123,-28.8103"/>
<polygon fill="#191970" stroke="#191970" points="2027.0799,-31.9939 2035.0988,-25.0695 2024.512,-25.4819 2027.0799,-31.9939"/>
</g>
<!-- Node10 -->
<g id="node11" class="node">
<title>Node10</title>
<polygon fill="none" stroke="#bfbfbf" points="1933.5,-67.5 1933.5,-86.5 2026.5,-86.5 2026.5,-67.5 1933.5,-67.5"/>
<text text-anchor="middle" x="1980" y="-74.5" font-family="Helvetica,sans-Serif" font-size="10.00" fill="#000000">unordered_map</text>
</g>
<!-- Node8&#45;&gt;Node10 -->
<g id="edge12" class="edge">
<title>Node8&#45;&gt;Node10</title>
<path fill="none" stroke="#191970" d="M1958.0625,-128.8906C1961.7424,-120.1862 1967.2742,-107.1015 1971.862,-96.2494"/>
<polygon fill="#191970" stroke="#191970" points="1975.21,-97.3185 1975.8802,-86.7449 1968.7625,-94.5927 1975.21,-97.3185"/>
</g>
<!-- Node11 -->
<g id="node12" class="node">
<title>Node11</title>
<polygon fill="none" stroke="#bfbfbf" points="1809.5,-6 1809.5,-25 1858.5,-25 1858.5,-6 1809.5,-6"/>
<text text-anchor="middle" x="1834" y="-13" font-family="Helvetica,sans-Serif" font-size="10.00" fill="#000000">iosfwd</text>
</g>
<!-- Node8&#45;&gt;Node11 -->
<g id="edge14" class="edge">
<title>Node8&#45;&gt;Node11</title>
<path fill="none" stroke="#191970" d="M1944.5838,-128.8484C1924.2546,-108.011 1876.0353,-58.5862 1850.5096,-32.4224"/>
<polygon fill="#191970" stroke="#191970" points="1852.861,-29.8205 1843.3725,-25.1068 1847.8505,-34.7088 1852.861,-29.8205"/>
</g>
<!-- Node18 -->
<g id="node19" class="node">
<title>Node18</title>
<polygon fill="none" stroke="#bfbfbf" points="1436,-6 1436,-25 1468,-25 1468,-6 1436,-6"/>
<text text-anchor="middle" x="1452" y="-13" font-family="Helvetica,sans-Serif" font-size="10.00" fill="#000000">list</text>
</g>
<!-- Node17&#45;&gt;Node18 -->
<g id="edge22" class="edge">
<title>Node17&#45;&gt;Node18</title>
<path fill="none" stroke="#191970" d="M1558.8341,-67.4188C1537.2924,-58.6422 1505.0752,-44.9325 1478,-31 1477.3341,-30.6574 1476.6618,-30.3048 1475.9859,-29.9446"/>
<polygon fill="#191970" stroke="#191970" points="1477.6489,-26.8643 1467.2189,-25.0025 1474.2114,-32.9621 1477.6489,-26.8643"/>
</g>
<!-- Node19 -->
<g id="node20" class="node">
<title>Node19</title>
<polygon fill="none" stroke="#bfbfbf" points="1486.5,-6 1486.5,-25 1539.5,-25 1539.5,-6 1486.5,-6"/>
<text text-anchor="middle" x="1513" y="-13" font-family="Helvetica,sans-Serif" font-size="10.00" fill="#000000">cstddef</text>
</g>
<!-- Node17&#45;&gt;Node19 -->
<g id="edge23" class="edge">
<title>Node17&#45;&gt;Node19</title>
<path fill="none" stroke="#191970" d="M1572.0625,-67.3906C1561.338,-57.9683 1544.7713,-43.4134 1531.9099,-32.1137"/>
<polygon fill="#191970" stroke="#191970" points="1533.9143,-29.2158 1524.0917,-25.2449 1529.2941,-34.4745 1533.9143,-29.2158"/>
</g>
<!-- Node20 -->
<g id="node21" class="node">
<title>Node20</title>
<polygon fill="none" stroke="#bfbfbf" points="1558,-6 1558,-25 1608,-25 1608,-6 1558,-6"/>
<text text-anchor="middle" x="1583" y="-13" font-family="Helvetica,sans-Serif" font-size="10.00" fill="#000000">atomic</text>
</g>
<!-- Node17&#45;&gt;Node20 -->
<g id="edge24" class="edge">
<title>Node17&#45;&gt;Node20</title>
<path fill="none" stroke="#191970" d="M1583,-67.3906C1583,-58.8657 1583,-46.1392 1583,-35.4235"/>
<polygon fill="#191970" stroke="#191970" points="1586.5001,-35.2448 1583,-25.2449 1579.5001,-35.2449 1586.5001,-35.2448"/>
</g>
<!-- Node21 -->
<g id="node22" class="node">
<title>Node21</title>
<polygon fill="none" stroke="#bfbfbf" points="1626.5,-.5 1626.5,-30.5 1791.5,-30.5 1791.5,-.5 1626.5,-.5"/>
<text text-anchor="start" x="1634.5" y="-18.5" font-family="Helvetica,sans-Serif" font-size="10.00" fill="#000000">boost/interprocess</text>
<text text-anchor="middle" x="1709" y="-7.5" font-family="Helvetica,sans-Serif" font-size="10.00" fill="#000000">/managed_external_buffer.hpp</text>
</g>
<!-- Node17&#45;&gt;Node21 -->
<g id="edge25" class="edge">
<title>Node17&#45;&gt;Node21</title>
<path fill="none" stroke="#191970" d="M1602.6875,-67.3906C1620.3716,-58.7591 1646.8806,-45.8202 1669.003,-35.0224"/>
<polygon fill="#191970" stroke="#191970" points="1670.7255,-38.0763 1678.1769,-30.5446 1667.655,-31.7857 1670.7255,-38.0763"/>
</g>
<!-- Node22 -->
<g id="node23" class="node">
<title>Node22</title>
<polygon fill="none" stroke="#bfbfbf" points="1877,-.5 1877,-30.5 2011,-30.5 2011,-.5 1877,-.5"/>
<text text-anchor="start" x="1885" y="-18.5" font-family="Helvetica,sans-Serif" font-size="10.00" fill="#000000">boost/interprocess</text>
<text text-anchor="middle" x="1944" y="-7.5" font-family="Helvetica,sans-Serif" font-size="10.00" fill="#000000">/allocators/allocator.hpp</text>
</g>
<!-- Node17&#45;&gt;Node22 -->
<g id="edge26" class="edge">
<title>Node17&#45;&gt;Node22</title>
<path fill="none" stroke="#191970" d="M1646.7995,-67.4714C1702.3845,-58.9941 1785.4,-45.9128 1866.9556,-31.1508"/>
<polygon fill="#191970" stroke="#191970" points="1867.6806,-34.5764 1876.8923,-29.3424 1866.4272,-27.6896 1867.6806,-34.5764"/>
</g>
<!-- Node23&#45;&gt;Node17 -->
<g id="edge28" class="edge">
<title>Node23&#45;&gt;Node17</title>
<path fill="none" stroke="#191970" d="M959.7716,-128.9835C972.5234,-126.7789 986.2403,-124.61 999,-123 1173.59,-100.9703 1378.9599,-87.7058 1493.7445,-81.4217"/>
<polygon fill="#191970" stroke="#191970" points="1494.0908,-84.9082 1503.8866,-80.8718 1493.7117,-77.9185 1494.0908,-84.9082"/>
</g>
<!-- Node23&#45;&gt;Node24 -->
<g id="edge29" class="edge">
<title>Node23&#45;&gt;Node24</title>
<path fill="none" stroke="#191970" d="M915,-128.8906C919.5758,-120.0965 926.4781,-106.8312 932.1583,-95.9145"/>
<polygon fill="#191970" stroke="#191970" points="935.4185,-97.2314 936.9295,-86.7449 929.2088,-94.0003 935.4185,-97.2314"/>
</g>
<!-- Node27&#45;&gt;Node23 -->
<g id="edge46" class="edge">
<title>Node27&#45;&gt;Node23</title>
<path fill="none" stroke="#191970" d="M910,-190.3906C910,-181.8657 910,-169.1392 910,-158.4235"/>
<polygon fill="#191970" stroke="#191970" points="913.5001,-158.2448 910,-148.2449 906.5001,-158.2449 913.5001,-158.2448"/>
</g>
<!-- Node28 -->
<g id="node29" class="node">
<title>Node28</title>
<g id="a_node29"><a xlink:href="../../d4/d25/BaseHits_8h.html" target="_top" xlink:title="SimulationDataFormat\l/BaseHits.h">
<polygon fill="none" stroke="#000000" points="684.5,-123.5 684.5,-153.5 811.5,-153.5 811.5,-123.5 684.5,-123.5"/>
<text text-anchor="start" x="692.5" y="-141.5" font-family="Helvetica,sans-Serif" font-size="10.00" fill="#000000">SimulationDataFormat</text>
<text text-anchor="middle" x="748" y="-130.5" font-family="Helvetica,sans-Serif" font-size="10.00" fill="#000000">/BaseHits.h</text>
</a>
</g>
</g>
<!-- Node27&#45;&gt;Node28 -->
<g id="edge34" class="edge">
<title>Node27&#45;&gt;Node28</title>
<path fill="none" stroke="#191970" d="M884.6875,-190.3906C861.3417,-181.5279 826.0338,-168.1239 797.1516,-157.1594"/>
<polygon fill="#191970" stroke="#191970" points="798.2209,-153.8217 787.6297,-153.5446 795.7364,-160.366 798.2209,-153.8217"/>
</g>
<!-- Node29 -->
<g id="node30" class="node">
<title>Node29</title>
<g id="a_node30"><a xlink:href="../../dc/d73/Cartesian_8h.html" target="_top" xlink:title="MathUtils/Cartesian.h">
<polygon fill="none" stroke="#000000" points="748,-67.5 748,-86.5 870,-86.5 870,-67.5 748,-67.5"/>
<text text-anchor="middle" x="809" y="-74.5" font-family="Helvetica,sans-Serif" font-size="10.00" fill="#000000">MathUtils/Cartesian.h</text>
</a>
</g>
</g>
<!-- Node28&#45;&gt;Node29 -->
<g id="edge35" class="edge">
<title>Node28&#45;&gt;Node29</title>
<path fill="none" stroke="#191970" d="M763.0787,-123.2977C771.8989,-114.4052 783.0541,-103.1586 792.1612,-93.9769"/>
<polygon fill="#191970" stroke="#191970" points="794.6759,-96.4116 799.2331,-86.8469 789.706,-91.4821 794.6759,-96.4116"/>
</g>
<!-- Node29&#45;&gt;Node9 -->
<g id="edge43" class="edge">
<title>Node29&#45;&gt;Node9</title>
<path fill="none" stroke="#191970" d="M870.1087,-70.1037C882.3156,-68.9125 895.0553,-67.8016 907,-67 1153.9073,-50.4296 1777.7348,-81.4513 2020,-31 2023.0404,-30.3668 2026.1496,-29.5148 2029.2203,-28.5343"/>
<polygon fill="#191970" stroke="#191970" points="2030.557,-31.7728 2038.7668,-25.0757 2028.1725,-25.1914 2030.557,-31.7728"/>
</g>
<!-- Node29&#45;&gt;Node11 -->
<g id="edge45" class="edge">
<title>Node29&#45;&gt;Node11</title>
<path fill="none" stroke="#191970" d="M870.1139,-70.1785C882.3203,-68.9812 895.0586,-67.8489 907,-67 1105.3272,-52.9015 1607.856,-78.2 1801,-31 1803.1982,-30.4628 1805.426,-29.7734 1807.6322,-28.9847"/>
<polygon fill="#191970" stroke="#191970" points="1809.1377,-32.1488 1817.0082,-25.0562 1806.4325,-25.6926 1809.1377,-32.1488"/>
</g>
<!-- Node30 -->
<g id="node31" class="node">
<title>Node30</title>
<polygon fill="none" stroke="#bfbfbf" points="868,-.5 868,-30.5 1032,-30.5 1032,-.5 868,-.5"/>
<text text-anchor="start" x="876" y="-18.5" font-family="Helvetica,sans-Serif" font-size="10.00" fill="#000000">Math/GenVector/Displacement</text>
<text text-anchor="middle" x="950" y="-7.5" font-family="Helvetica,sans-Serif" font-size="10.00" fill="#000000">Vector3D.h</text>
</g>
<!-- Node29&#45;&gt;Node30 -->
<g id="edge36" class="edge">
<title>Node29&#45;&gt;Node30</title>
<path fill="none" stroke="#191970" d="M831.0313,-67.3906C851.0857,-58.6435 881.2818,-45.4728 906.2334,-34.5897"/>
<polygon fill="#191970" stroke="#191970" points="907.7408,-37.7507 915.5075,-30.5446 904.9422,-31.3345 907.7408,-37.7507"/>
</g>
<!-- Node31 -->
<g id="node32" class="node">
<title>Node31</title>
<polygon fill="none" stroke="#bfbfbf" points="1050.5,-6 1050.5,-25 1239.5,-25 1239.5,-6 1050.5,-6"/>
<text text-anchor="middle" x="1145" y="-13" font-family="Helvetica,sans-Serif" font-size="10.00" fill="#000000">Math/GenVector/PositionVector3D.h</text>
</g>
<!-- Node29&#45;&gt;Node31 -->
<g id="edge37" class="edge">
<title>Node29&#45;&gt;Node31</title>
<path fill="none" stroke="#191970" d="M861.1313,-67.4581C921.0579,-56.4894 1019.3347,-38.5012 1083.0969,-26.8305"/>
<polygon fill="#191970" stroke="#191970" points="1083.8164,-30.257 1093.0228,-25.0137 1082.5561,-23.3714 1083.8164,-30.257"/>
</g>
<!-- Node32 -->
<g id="node33" class="node">
<title>Node32</title>
<polygon fill="none" stroke="#bfbfbf" points="1258,-6 1258,-25 1418,-25 1418,-6 1258,-6"/>
<text text-anchor="middle" x="1338" y="-13" font-family="Helvetica,sans-Serif" font-size="10.00" fill="#000000">Math/GenVector/Rotation3D.h</text>
</g>
<!-- Node29&#45;&gt;Node32 -->
<g id="edge38" class="edge">
<title>Node29&#45;&gt;Node32</title>
<path fill="none" stroke="#191970" d="M870.2269,-70.7107C986.7543,-58.7253 1230.5288,-33.5709 1249,-31 1258.0123,-29.7456 1267.5106,-28.2637 1276.8119,-26.7219"/>
<polygon fill="#191970" stroke="#191970" points="1277.519,-30.1521 1286.7951,-25.0332 1276.3514,-23.2501 1277.519,-30.1521"/>
</g>
<!-- Node33 -->
<g id="node34" class="node">
<title>Node33</title>
<polygon fill="none" stroke="#bfbfbf" points="0,-6 0,-25 168,-25 168,-6 0,-6"/>
<text text-anchor="middle" x="84" y="-13" font-family="Helvetica,sans-Serif" font-size="10.00" fill="#000000">Math/GenVector/Transform3D.h</text>
</g>
<!-- Node29&#45;&gt;Node33 -->
<g id="edge39" class="edge">
<title>Node29&#45;&gt;Node33</title>
<path fill="none" stroke="#191970" d="M747.8104,-74.43C634.7566,-69.2636 385.6402,-55.9255 177,-31 167.0044,-29.8059 156.4441,-28.2909 146.1673,-26.6782"/>
<polygon fill="#191970" stroke="#191970" points="146.4462,-23.1781 136.0165,-25.0412 145.3316,-30.0888 146.4462,-23.1781"/>
</g>
<!-- Node34 -->
<g id="node35" class="node">
<title>Node34</title>
<polygon fill="none" stroke="#bfbfbf" points="186.5,-6 186.5,-25 359.5,-25 359.5,-6 186.5,-6"/>
<text text-anchor="middle" x="273" y="-13" font-family="Helvetica,sans-Serif" font-size="10.00" fill="#000000">Math/GenVector/Translation3D.h</text>
</g>
<!-- Node29&#45;&gt;Node34 -->
<g id="edge40" class="edge">
<title>Node29&#45;&gt;Node34</title>
<path fill="none" stroke="#191970" d="M747.6569,-71.6784C662.5112,-64.0433 503.7604,-48.9091 369,-31 359.1471,-29.6906 348.7485,-28.1636 338.5765,-26.5885"/>
<polygon fill="#191970" stroke="#191970" points="338.9313,-23.1013 328.5086,-25.0035 337.8426,-30.0161 338.9313,-23.1013"/>
</g>
<!-- Node35 -->
<g id="node36" class="node">
<title>Node35</title>
<polygon fill="none" stroke="#bfbfbf" points="378,-.5 378,-30.5 542,-30.5 542,-.5 378,-.5"/>
<text text-anchor="start" x="386" y="-18.5" font-family="Helvetica,sans-Serif" font-size="10.00" fill="#000000">Math/GenVector/Displacement</text>
<text text-anchor="middle" x="460" y="-7.5" font-family="Helvetica,sans-Serif" font-size="10.00" fill="#000000">Vector2D.h</text>
</g>
<!-- Node29&#45;&gt;Node35 -->
<g id="edge41" class="edge">
<title>Node29&#45;&gt;Node35</title>
<path fill="none" stroke="#191970" d="M754.8517,-67.4581C700.8756,-57.9466 616.9461,-43.1567 552.4138,-31.7849"/>
<polygon fill="#191970" stroke="#191970" points="552.6865,-28.2792 542.2308,-29.9905 551.4717,-35.1729 552.6865,-28.2792"/>
</g>
<!-- Node36 -->
<g id="node37" class="node">
<title>Node36</title>
<polygon fill="none" stroke="#bfbfbf" points="560.5,-6 560.5,-25 749.5,-25 749.5,-6 560.5,-6"/>
<text text-anchor="middle" x="655" y="-13" font-family="Helvetica,sans-Serif" font-size="10.00" fill="#000000">Math/GenVector/PositionVector2D.h</text>
</g>
<!-- Node29&#45;&gt;Node36 -->
<g id="edge42" class="edge">
<title>Node29&#45;&gt;Node36</title>
<path fill="none" stroke="#191970" d="M784.9375,-67.3906C758.9444,-57.0103 717.3522,-40.4004 688.2453,-28.7766"/>
<polygon fill="#191970" stroke="#191970" points="689.4785,-25.5003 678.8935,-25.0419 686.8823,-32.0011 689.4785,-25.5003"/>
</g>
<!-- Node37 -->
<g id="node38" class="node">
<title>Node37</title>
<polygon fill="none" stroke="#bfbfbf" points="768,-6 768,-25 850,-25 850,-6 768,-6"/>
<text text-anchor="middle" x="809" y="-13" font-family="Helvetica,sans-Serif" font-size="10.00" fill="#000000">TGeoMatrix.h</text>
</g>
<!-- Node29&#45;&gt;Node37 -->
<g id="edge44" class="edge">
<title>Node29&#45;&gt;Node37</title>
<path fill="none" stroke="#191970" d="M809,-67.3906C809,-58.8657 809,-46.1392 809,-35.4235"/>
<polygon fill="#191970" stroke="#191970" points="812.5001,-35.2448 809,-25.2449 805.5001,-35.2449 812.5001,-35.2448"/>
</g>
</g>
</svg>
        <g id="navigator" transform="translate(0 0)" fill="#404254">
                <rect fill="#f2f5e9" fill-opacity="0.5" stroke="#606060" stroke-width=".5" x="0" y="0" width="60" height="60"/>
                <use id="zoomplus" xlink:href="#zoomPlus" x="17" y="9" onmousedown="handleZoom(evt,'in')"/>
                <use id="zoomminus" xlink:href="#zoomMin" x="42" y="9" onmousedown="handleZoom(evt,'out')"/>
                <use id="reset" xlink:href="#resetDef" x="30" y="36" onmousedown="handleReset()"/>
                <g id="arrowUp" xlink:href="#dirArrow" transform="translate(30 24)" onmousedown="handlePan(0,-1)">
                  <use xlink:href="#rim" fill="#404040">
                        <set attributeName="fill" to="#808080" begin="arrowUp.mouseover" end="arrowUp.mouseout"/>
                  </use>
                  <path fill="none" stroke="white" stroke-width="1.5" d="M0,-3.0v7 M-2.5,-0.5L0,-3.0L2.5,-0.5"/>
                </g>
                <g id="arrowRight" xlink:href="#dirArrow" transform="rotate(90) translate(36 -43)" onmousedown="handlePan(1,0)">
                  <use xlink:href="#rim" fill="#404040">
                        <set attributeName="fill" to="#808080" begin="arrowRight.mouseover" end="arrowRight.mouseout"/>
                  </use>
                  <path fill="none" stroke="white" stroke-width="1.5" d="M0,-3.0v7 M-2.5,-0.5L0,-3.0L2.5,-0.5"/>
                </g>
                <g id="arrowDown" xlink:href="#dirArrow" transform="rotate(180) translate(-30 -48)" onmousedown="handlePan(0,1)">
                  <use xlink:href="#rim" fill="#404040">
                        <set attributeName="fill" to="#808080" begin="arrowDown.mouseover" end="arrowDown.mouseout"/>
                  </use>
                  <path fill="none" stroke="white" stroke-width="1.5" d="M0,-3.0v7 M-2.5,-0.5L0,-3.0L2.5,-0.5"/>
                </g>
                <g id="arrowLeft" xlink:href="#dirArrow" transform="rotate(270) translate(-36 17)" onmousedown="handlePan(-1,0)">
                  <use xlink:href="#rim" fill="#404040">
                        <set attributeName="fill" to="#808080" begin="arrowLeft.mouseover" end="arrowLeft.mouseout"/>
                  </use>
                  <path fill="none" stroke="white" stroke-width="1.5" d="M0,-3.0v7 M-2.5,-0.5L0,-3.0L2.5,-0.5"/>
                </g>
        </g>
        <svg viewBox="0 0 15 15" width="100%" height="30px" preserveAspectRatio="xMaxYMin meet">
         <g id="arrow_out" transform="scale(0.3 0.3)">
          <a xlink:href="HMPID_2simulation_2include_2HMPIDSimulation_2Detector_8h__incl_org.svg" target="_base">
           <rect id="button" ry="5" rx="5" y="6" x="6" height="38" width="38"
                fill="#f2f5e9" fill-opacity="0.5" stroke="#606060" stroke-width="1.0"/>
           <path id="arrow"
             d="M 11.500037,31.436501 C 11.940474,20.09759 22.043105,11.32322 32.158766,21.979434 L 37.068811,17.246167 C 37.068811,17.246167 37.088388,32 37.088388,32 L 22.160133,31.978069 C 22.160133,31.978069 26.997745,27.140456 26.997745,27.140456 C 18.528582,18.264221 13.291696,25.230495 11.500037,31.436501 z"
             style="fill:#404040;"/>
          </a>
         </g>
        </svg>
</svg>
