<?xml version="1.0" encoding="UTF-8" standalone="no"?>
<!DOCTYPE svg PUBLIC "-//W3C//DTD SVG 1.1//EN"
 "http://www.w3.org/Graphics/SVG/1.1/DTD/svg11.dtd">
<!-- Generated by graphviz version 2.40.1 (20161225.0304)
 -->
<!-- Title: /home/travis/build/AliceO2Group/AliceO2/Detectors/EMCAL/reconstruction/include/EMCALReconstruction/Clusterizer.h Pages: 1 -->
<svg width="2770pt" height="318pt"
 viewBox="0.00 0.00 2769.50 318.00" xmlns="http://www.w3.org/2000/svg" xmlns:xlink="http://www.w3.org/1999/xlink">
<g id="graph0" class="graph" transform="scale(1 1) rotate(0) translate(4 314)">
<title>/home/travis/build/AliceO2Group/AliceO2/Detectors/EMCAL/reconstruction/include/EMCALReconstruction/Clusterizer.h</title>
<!-- Node0 -->
<g id="node1" class="node">
<title>Node0</title>
<polygon fill="#bfbfbf" stroke="#000000" points="874,-246.5 874,-309.5 1050,-309.5 1050,-246.5 874,-246.5"/>
<text text-anchor="start" x="882" y="-297.5" font-family="Helvetica,sans-Serif" font-size="10.00" fill="#000000">/home/travis/build</text>
<text text-anchor="start" x="882" y="-286.5" font-family="Helvetica,sans-Serif" font-size="10.00" fill="#000000">/AliceO2Group/AliceO2</text>
<text text-anchor="start" x="882" y="-275.5" font-family="Helvetica,sans-Serif" font-size="10.00" fill="#000000">/Detectors/EMCAL/reconstruction</text>
<text text-anchor="start" x="882" y="-264.5" font-family="Helvetica,sans-Serif" font-size="10.00" fill="#000000">/include/EMCALReconstruction</text>
<text text-anchor="middle" x="962" y="-253.5" font-family="Helvetica,sans-Serif" font-size="10.00" fill="#000000">/Clusterizer.h</text>
</g>
<!-- Node1 -->
<g id="node2" class="node">
<title>Node1</title>
<polygon fill="none" stroke="#bfbfbf" points="0,-129 0,-148 42,-148 42,-129 0,-129"/>
<text text-anchor="middle" x="21" y="-136" font-family="Helvetica,sans-Serif" font-size="10.00" fill="#000000">array</text>
</g>
<!-- Node0&#45;&gt;Node1 -->
<g id="edge1" class="edge">
<title>Node0&#45;&gt;Node1</title>
<path fill="none" stroke="#191970" d="M873.7898,-267.8311C765.5851,-255.1735 576.6073,-232.4716 415,-210 252.8787,-187.4569 206.639,-204.6754 51,-154 49.5367,-153.5236 48.0581,-152.9819 46.5827,-152.3933"/>
<polygon fill="#191970" stroke="#191970" points="47.6359,-149.0252 37.0885,-148.024 44.7095,-155.3841 47.6359,-149.0252"/>
</g>
<!-- Node2 -->
<g id="node3" class="node">
<title>Node2</title>
<polygon fill="none" stroke="#bfbfbf" points="2704.5,-190.5 2704.5,-209.5 2761.5,-209.5 2761.5,-190.5 2704.5,-190.5"/>
<text text-anchor="middle" x="2733" y="-197.5" font-family="Helvetica,sans-Serif" font-size="10.00" fill="#000000">gsl/span</text>
</g>
<!-- Node0&#45;&gt;Node2 -->
<g id="edge2" class="edge">
<title>Node0&#45;&gt;Node2</title>
<path fill="none" stroke="#191970" d="M1050.2472,-276.7339C1355.8849,-272.0036 2368.0944,-253.3672 2690,-210 2691.4717,-209.8017 2692.9669,-209.5762 2694.4737,-209.3287"/>
<polygon fill="#191970" stroke="#191970" points="2695.2876,-212.7367 2704.4584,-207.4314 2693.9808,-205.8598 2695.2876,-212.7367"/>
</g>
<!-- Node3 -->
<g id="node4" class="node">
<title>Node3</title>
<polygon fill="none" stroke="#bfbfbf" points="935.5,-.5 935.5,-19.5 994.5,-19.5 994.5,-.5 935.5,-.5"/>
<text text-anchor="middle" x="965" y="-7.5" font-family="Helvetica,sans-Serif" font-size="10.00" fill="#000000">Rtypes.h</text>
</g>
<!-- Node0&#45;&gt;Node3 -->
<g id="edge3" class="edge">
<title>Node0&#45;&gt;Node3</title>
<path fill="none" stroke="#191970" d="M1050.0226,-269.9943C1181.2428,-257.9082 1435.8924,-233.8699 1652,-210 1876.5744,-185.1949 2814.5779,-217.9202 2657,-56 2627.23,-25.4097 1256.9559,-12.4492 1004.6901,-10.3205"/>
<polygon fill="#191970" stroke="#191970" points="1004.548,-6.8193 994.5191,-10.2355 1004.4894,-13.8191 1004.548,-6.8193"/>
</g>
<!-- Node4 -->
<g id="node5" class="node">
<title>Node4</title>
<g id="a_node5"><a xlink:href="../../dc/d27/DataFormats_2Detectors_2EMCAL_2include_2DataFormatsEMCAL_2Cluster_8h.html" target="_top" xlink:title="DataFormatsEMCAL/Cluster.h">
<polygon fill="none" stroke="#000000" points="424,-190.5 424,-209.5 582,-209.5 582,-190.5 424,-190.5"/>
<text text-anchor="middle" x="503" y="-197.5" font-family="Helvetica,sans-Serif" font-size="10.00" fill="#000000">DataFormatsEMCAL/Cluster.h</text>
</a>
</g>
</g>
<!-- Node0&#45;&gt;Node4 -->
<g id="edge4" class="edge">
<title>Node0&#45;&gt;Node4</title>
<path fill="none" stroke="#191970" d="M873.7719,-263.007C784.7437,-247.878 649.2954,-224.8607 569.1137,-211.235"/>
<polygon fill="#191970" stroke="#191970" points="569.5819,-207.7645 559.1368,-209.5396 568.4091,-214.6655 569.5819,-207.7645"/>
</g>
<!-- Node14 -->
<g id="node15" class="node">
<title>Node14</title>
<g id="a_node15"><a xlink:href="../../d3/d6e/DataFormats_2Detectors_2EMCAL_2include_2DataFormatsEMCAL_2Digit_8h.html" target="_top" xlink:title="DataFormatsEMCAL/Digit.h">
<polygon fill="none" stroke="#000000" points="669,-190.5 669,-209.5 817,-209.5 817,-190.5 669,-190.5"/>
<text text-anchor="middle" x="743" y="-197.5" font-family="Helvetica,sans-Serif" font-size="10.00" fill="#000000">DataFormatsEMCAL/Digit.h</text>
</a>
</g>
</g>
<!-- Node0&#45;&gt;Node14 -->
<g id="edge17" class="edge">
<title>Node0&#45;&gt;Node14</title>
<path fill="none" stroke="#191970" d="M873.871,-246.6116C840.9237,-234.8769 805.2907,-222.1857 779.5379,-213.0135"/>
<polygon fill="#191970" stroke="#191970" points="780.4287,-209.6154 769.834,-209.5573 778.08,-216.2097 780.4287,-209.6154"/>
</g>
<!-- Node20 -->
<g id="node21" class="node">
<title>Node20</title>
<g id="a_node21"><a xlink:href="../../d5/dd3/DataFormats_2Detectors_2EMCAL_2include_2DataFormatsEMCAL_2Cell_8h.html" target="_top" xlink:title="DataFormatsEMCAL/Cell.h">
<polygon fill="none" stroke="#000000" points="890.5,-190.5 890.5,-209.5 1033.5,-209.5 1033.5,-190.5 890.5,-190.5"/>
<text text-anchor="middle" x="962" y="-197.5" font-family="Helvetica,sans-Serif" font-size="10.00" fill="#000000">DataFormatsEMCAL/Cell.h</text>
</a>
</g>
</g>
<!-- Node0&#45;&gt;Node20 -->
<g id="edge28" class="edge">
<title>Node0&#45;&gt;Node20</title>
<path fill="none" stroke="#191970" d="M962,-246.2744C962,-237.3302 962,-227.8568 962,-219.8269"/>
<polygon fill="#191970" stroke="#191970" points="965.5001,-219.6425 962,-209.6426 958.5001,-219.6426 965.5001,-219.6425"/>
</g>
<!-- Node22 -->
<g id="node23" class="node">
<title>Node22</title>
<g id="a_node23"><a xlink:href="../../dd/da8/EMCAL_2base_2include_2EMCALBase_2Geometry_8h.html" target="_top" xlink:title="EMCALBase/Geometry.h">
<polygon fill="none" stroke="#000000" points="1509.5,-190.5 1509.5,-209.5 1642.5,-209.5 1642.5,-190.5 1509.5,-190.5"/>
<text text-anchor="middle" x="1576" y="-197.5" font-family="Helvetica,sans-Serif" font-size="10.00" fill="#000000">EMCALBase/Geometry.h</text>
</a>
</g>
</g>
<!-- Node0&#45;&gt;Node22 -->
<g id="edge32" class="edge">
<title>Node0&#45;&gt;Node22</title>
<path fill="none" stroke="#191970" d="M1050.298,-266.783C1170.7732,-251.4783 1384.7094,-224.3008 1498.9939,-209.7825"/>
<polygon fill="#191970" stroke="#191970" points="1499.5848,-213.2357 1509.064,-208.5033 1498.7026,-206.2915 1499.5848,-213.2357"/>
</g>
<!-- Node4&#45;&gt;Node1 -->
<g id="edge5" class="edge">
<title>Node4&#45;&gt;Node1</title>
<path fill="none" stroke="#191970" d="M423.7504,-195.5109C313.2326,-188.6395 118.7591,-174.1579 51,-154 49.3389,-153.5058 47.6613,-152.9191 45.9933,-152.2677"/>
<polygon fill="#191970" stroke="#191970" points="47.2744,-149.005 36.7249,-148.0257 44.3612,-155.37 47.2744,-149.005"/>
</g>
<!-- Node5 -->
<g id="node6" class="node">
<title>Node5</title>
<polygon fill="none" stroke="#bfbfbf" points="784.5,-62 784.5,-81 833.5,-81 833.5,-62 784.5,-62"/>
<text text-anchor="middle" x="809" y="-69" font-family="Helvetica,sans-Serif" font-size="10.00" fill="#000000">iosfwd</text>
</g>
<!-- Node4&#45;&gt;Node5 -->
<g id="edge6" class="edge">
<title>Node4&#45;&gt;Node5</title>
<path fill="none" stroke="#191970" d="M503.0085,-190.2812C503.5857,-173.7967 507.2899,-140.4496 527,-123 563.2552,-90.9028 707.3272,-77.8453 774.3619,-73.4277"/>
<polygon fill="#191970" stroke="#191970" points="774.6715,-76.9153 784.4308,-72.7913 774.2299,-69.9292 774.6715,-76.9153"/>
</g>
<!-- Node6 -->
<g id="node7" class="node">
<title>Node6</title>
<polygon fill="none" stroke="#bfbfbf" points="1046,-62 1046,-81 1090,-81 1090,-62 1046,-62"/>
<text text-anchor="middle" x="1068" y="-69" font-family="Helvetica,sans-Serif" font-size="10.00" fill="#000000">string</text>
</g>
<!-- Node4&#45;&gt;Node6 -->
<g id="edge7" class="edge">
<title>Node4&#45;&gt;Node6</title>
<path fill="none" stroke="#191970" d="M506.9058,-190.3485C514.3628,-173.3366 532.3846,-138.3633 560,-123 645.537,-75.4132 902.2366,-101.7625 999,-87 1011.0804,-85.157 1024.1973,-82.4041 1035.7186,-79.7274"/>
<polygon fill="#191970" stroke="#191970" points="1036.8656,-83.0518 1045.7754,-77.3189 1035.2352,-76.2443 1036.8656,-83.0518"/>
</g>
<!-- Node7 -->
<g id="node8" class="node">
<title>Node7</title>
<polygon fill="none" stroke="#bfbfbf" points="836.5,-129 836.5,-148 883.5,-148 883.5,-129 836.5,-129"/>
<text text-anchor="middle" x="860" y="-136" font-family="Helvetica,sans-Serif" font-size="10.00" fill="#000000">vector</text>
</g>
<!-- Node4&#45;&gt;Node7 -->
<g id="edge8" class="edge">
<title>Node4&#45;&gt;Node7</title>
<path fill="none" stroke="#191970" d="M582.3099,-195.354C648.7859,-189.901 745.6113,-178.2939 827,-154 828.9105,-153.4297 830.8506,-152.7651 832.7839,-152.038"/>
<polygon fill="#191970" stroke="#191970" points="834.3897,-155.1587 842.2269,-148.0292 831.6543,-148.7152 834.3897,-155.1587"/>
</g>
<!-- Node8 -->
<g id="node9" class="node">
<title>Node8</title>
<g id="a_node9"><a xlink:href="../../df/d5d/common_2include_2CommonDataFormat_2TimeStamp_8h.html" target="_top" xlink:title="CommonDataFormat/TimeStamp.h">
<polygon fill="none" stroke="#000000" points="288.5,-129 288.5,-148 475.5,-148 475.5,-129 288.5,-129"/>
<text text-anchor="middle" x="382" y="-136" font-family="Helvetica,sans-Serif" font-size="10.00" fill="#000000">CommonDataFormat/TimeStamp.h</text>
</a>
</g>
</g>
<!-- Node4&#45;&gt;Node8 -->
<g id="edge9" class="edge">
<title>Node4&#45;&gt;Node8</title>
<path fill="none" stroke="#191970" d="M484.0938,-190.3906C464.2034,-180.2811 432.6877,-164.2628 409.9308,-152.6962"/>
<polygon fill="#191970" stroke="#191970" points="411.274,-149.4528 400.7735,-148.0419 408.1022,-155.693 411.274,-149.4528"/>
</g>
<!-- Node13 -->
<g id="node14" class="node">
<title>Node13</title>
<g id="a_node14"><a xlink:href="../../de/d64/RangeReference_8h.html" target="_top" xlink:title="Class to refer to the 1st entry and N elements of some group in the continuous container. ">
<polygon fill="none" stroke="#000000" points="60,-129 60,-148 270,-148 270,-129 60,-129"/>
<text text-anchor="middle" x="165" y="-136" font-family="Helvetica,sans-Serif" font-size="10.00" fill="#000000">CommonDataFormat/RangeReference.h</text>
</a>
</g>
</g>
<!-- Node4&#45;&gt;Node13 -->
<g id="edge15" class="edge">
<title>Node4&#45;&gt;Node13</title>
<path fill="none" stroke="#191970" d="M450.5584,-190.4581C390.2751,-179.4894 291.4133,-161.5012 227.2716,-149.8305"/>
<polygon fill="#191970" stroke="#191970" points="227.7516,-146.3604 217.2866,-148.0137 226.4985,-153.2474 227.7516,-146.3604"/>
</g>
<!-- Node9 -->
<g id="node10" class="node">
<title>Node9</title>
<g id="a_node10"><a xlink:href="../../d2/d45/GPUCommonRtypes_8h.html" target="_top" xlink:title="GPUCommonRtypes.h">
<polygon fill="none" stroke="#000000" points="386.5,-62 386.5,-81 511.5,-81 511.5,-62 386.5,-62"/>
<text text-anchor="middle" x="449" y="-69" font-family="Helvetica,sans-Serif" font-size="10.00" fill="#000000">GPUCommonRtypes.h</text>
</a>
</g>
</g>
<!-- Node8&#45;&gt;Node9 -->
<g id="edge10" class="edge">
<title>Node8&#45;&gt;Node9</title>
<path fill="none" stroke="#191970" d="M391.5995,-128.9005C402.147,-118.353 419.2904,-101.2096 432.1002,-88.3998"/>
<polygon fill="#191970" stroke="#191970" points="434.8221,-90.6276 439.4183,-81.0817 429.8724,-85.6779 434.8221,-90.6276"/>
</g>
<!-- Node10 -->
<g id="node11" class="node">
<title>Node10</title>
<g id="a_node11"><a xlink:href="../../df/d21/GPUCommonDef_8h.html" target="_top" xlink:title="GPUCommonDef.h">
<polygon fill="none" stroke="#000000" points="261.5,-62 261.5,-81 368.5,-81 368.5,-62 261.5,-62"/>
<text text-anchor="middle" x="315" y="-69" font-family="Helvetica,sans-Serif" font-size="10.00" fill="#000000">GPUCommonDef.h</text>
</a>
</g>
</g>
<!-- Node8&#45;&gt;Node10 -->
<g id="edge12" class="edge">
<title>Node8&#45;&gt;Node10</title>
<path fill="none" stroke="#191970" d="M372.4005,-128.9005C361.853,-118.353 344.7096,-101.2096 331.8998,-88.3998"/>
<polygon fill="#191970" stroke="#191970" points="334.1276,-85.6779 324.5817,-81.0817 329.1779,-90.6276 334.1276,-85.6779"/>
</g>
<!-- Node9&#45;&gt;Node3 -->
<g id="edge11" class="edge">
<title>Node9&#45;&gt;Node3</title>
<path fill="none" stroke="#191970" d="M511.7559,-64.0204C619.3605,-51.1954 836.0854,-25.3648 925.2725,-14.735"/>
<polygon fill="#191970" stroke="#191970" points="925.7363,-18.2045 935.2518,-13.5456 924.9078,-11.2537 925.7363,-18.2045"/>
</g>
<!-- Node11 -->
<g id="node12" class="node">
<title>Node11</title>
<g id="a_node12"><a xlink:href="../../d5/d93/GPUCommonDefSettings_8h.html" target="_top" xlink:title="GPUCommonDefSettings.h">
<polygon fill="none" stroke="#000000" points="318,-.5 318,-19.5 466,-19.5 466,-.5 318,-.5"/>
<text text-anchor="middle" x="392" y="-7.5" font-family="Helvetica,sans-Serif" font-size="10.00" fill="#000000">GPUCommonDefSettings.h</text>
</a>
</g>
</g>
<!-- Node10&#45;&gt;Node11 -->
<g id="edge13" class="edge">
<title>Node10&#45;&gt;Node11</title>
<path fill="none" stroke="#191970" d="M327.0313,-61.8906C339.0107,-52.3227 357.6166,-37.4621 371.8525,-26.0919"/>
<polygon fill="#191970" stroke="#191970" points="374.4239,-28.5175 380.0532,-19.5419 370.0553,-23.0479 374.4239,-28.5175"/>
</g>
<!-- Node12 -->
<g id="node13" class="node">
<title>Node12</title>
<g id="a_node13"><a xlink:href="../../da/d5a/GPUCommonDefAPI_8h.html" target="_top" xlink:title="GPUCommonDefAPI.h">
<polygon fill="none" stroke="#000000" points="176,-.5 176,-19.5 300,-19.5 300,-.5 176,-.5"/>
<text text-anchor="middle" x="238" y="-7.5" font-family="Helvetica,sans-Serif" font-size="10.00" fill="#000000">GPUCommonDefAPI.h</text>
</a>
</g>
</g>
<!-- Node10&#45;&gt;Node12 -->
<g id="edge14" class="edge">
<title>Node10&#45;&gt;Node12</title>
<path fill="none" stroke="#191970" d="M302.9688,-61.8906C290.9893,-52.3227 272.3834,-37.4621 258.1475,-26.0919"/>
<polygon fill="#191970" stroke="#191970" points="259.9447,-23.0479 249.9468,-19.5419 255.5761,-28.5175 259.9447,-23.0479"/>
</g>
<!-- Node13&#45;&gt;Node9 -->
<g id="edge16" class="edge">
<title>Node13&#45;&gt;Node9</title>
<path fill="none" stroke="#191970" d="M205.3887,-128.9717C256.1352,-116.9998 343.24,-96.4504 398.3825,-83.4415"/>
<polygon fill="#191970" stroke="#191970" points="399.3617,-86.8066 408.2908,-81.1039 397.7544,-79.9936 399.3617,-86.8066"/>
</g>
<!-- Node14&#45;&gt;Node3 -->
<g id="edge20" class="edge">
<title>Node14&#45;&gt;Node3</title>
<path fill="none" stroke="#191970" d="M741.6788,-190.357C738.6774,-164.0263 734.473,-90.5701 775,-56 797.3587,-36.9278 876.4181,-22.6085 925.2309,-15.3397"/>
<polygon fill="#191970" stroke="#191970" points="925.7643,-18.799 935.1566,-13.8965 924.757,-11.8719 925.7643,-18.799"/>
</g>
<!-- Node14&#45;&gt;Node5 -->
<g id="edge18" class="edge">
<title>Node14&#45;&gt;Node5</title>
<path fill="none" stroke="#191970" d="M743.8295,-190.456C745.4672,-175.3468 750.0581,-145.344 762,-123 768.9538,-109.9892 779.9389,-97.6943 789.5409,-88.3825"/>
<polygon fill="#191970" stroke="#191970" points="792.2117,-90.679 797.1624,-81.312 787.4509,-85.5472 792.2117,-90.679"/>
</g>
<!-- Node14&#45;&gt;Node8 -->
<g id="edge21" class="edge">
<title>Node14&#45;&gt;Node8</title>
<path fill="none" stroke="#191970" d="M686.9898,-190.4581C622.472,-179.4668 516.5807,-161.4272 448.0866,-149.7585"/>
<polygon fill="#191970" stroke="#191970" points="448.2903,-146.2429 437.8445,-148.0137 447.1147,-153.1435 448.2903,-146.2429"/>
</g>
<!-- Node15 -->
<g id="node16" class="node">
<title>Node15</title>
<polygon fill="none" stroke="#bfbfbf" points="771.5,-129 771.5,-148 818.5,-148 818.5,-129 771.5,-129"/>
<text text-anchor="middle" x="795" y="-136" font-family="Helvetica,sans-Serif" font-size="10.00" fill="#000000">cmath</text>
</g>
<!-- Node14&#45;&gt;Node15 -->
<g id="edge19" class="edge">
<title>Node14&#45;&gt;Node15</title>
<path fill="none" stroke="#191970" d="M751.125,-190.3906C758.8642,-181.2376 770.6987,-167.2409 780.1272,-156.09"/>
<polygon fill="#191970" stroke="#191970" points="782.9765,-158.1409 786.7604,-148.2449 777.6311,-153.6213 782.9765,-158.1409"/>
</g>
<!-- Node16 -->
<g id="node17" class="node">
<title>Node16</title>
<g id="a_node17"><a xlink:href="../../dd/dda/DataFormats_2Detectors_2EMCAL_2include_2DataFormatsEMCAL_2Constants_8h.html" target="_top" xlink:title="DataFormatsEMCAL/Constants.h">
<polygon fill="none" stroke="#000000" points="1002.5,-129 1002.5,-148 1175.5,-148 1175.5,-129 1002.5,-129"/>
<text text-anchor="middle" x="1089" y="-136" font-family="Helvetica,sans-Serif" font-size="10.00" fill="#000000">DataFormatsEMCAL/Constants.h</text>
</a>
</g>
</g>
<!-- Node14&#45;&gt;Node16 -->
<g id="edge22" class="edge">
<title>Node14&#45;&gt;Node16</title>
<path fill="none" stroke="#191970" d="M796.6829,-190.4581C858.3929,-179.4894 959.5947,-161.5012 1025.2545,-149.8305"/>
<polygon fill="#191970" stroke="#191970" points="1026.2427,-153.2098 1035.4759,-148.0137 1025.0177,-146.3178 1026.2427,-153.2098"/>
</g>
<!-- Node19 -->
<g id="node20" class="node">
<title>Node19</title>
<polygon fill="none" stroke="#bfbfbf" points="569.5,-123.5 569.5,-153.5 676.5,-153.5 676.5,-123.5 569.5,-123.5"/>
<text text-anchor="start" x="577.5" y="-141.5" font-family="Helvetica,sans-Serif" font-size="10.00" fill="#000000">boost/serialization</text>
<text text-anchor="middle" x="623" y="-130.5" font-family="Helvetica,sans-Serif" font-size="10.00" fill="#000000">/base_object.hpp</text>
</g>
<!-- Node14&#45;&gt;Node19 -->
<g id="edge27" class="edge">
<title>Node14&#45;&gt;Node19</title>
<path fill="none" stroke="#191970" d="M724.25,-190.3906C707.4831,-181.7976 682.3866,-168.9356 661.3748,-158.1671"/>
<polygon fill="#191970" stroke="#191970" points="662.851,-154.9908 652.3553,-153.5446 659.6583,-161.2203 662.851,-154.9908"/>
</g>
<!-- Node16&#45;&gt;Node3 -->
<g id="edge23" class="edge">
<title>Node16&#45;&gt;Node3</title>
<path fill="none" stroke="#191970" d="M1078.9178,-128.7395C1068.3577,-118.4643 1051.3444,-101.7623 1037,-87 1017.233,-66.6571 995.0109,-42.7238 980.5513,-27.0034"/>
<polygon fill="#191970" stroke="#191970" points="983.0917,-24.5951 973.7515,-19.5938 977.9342,-29.3281 983.0917,-24.5951"/>
</g>
<!-- Node16&#45;&gt;Node5 -->
<g id="edge24" class="edge">
<title>Node16&#45;&gt;Node5</title>
<path fill="none" stroke="#191970" d="M1049.1802,-128.9717C994.1188,-115.7963 895.6419,-92.2322 843.5325,-79.7631"/>
<polygon fill="#191970" stroke="#191970" points="844.2955,-76.347 833.7555,-77.4236 842.6664,-83.1548 844.2955,-76.347"/>
</g>
<!-- Node17 -->
<g id="node18" class="node">
<title>Node17</title>
<polygon fill="none" stroke="#bfbfbf" points="1108.5,-62 1108.5,-81 1173.5,-81 1173.5,-62 1108.5,-62"/>
<text text-anchor="middle" x="1141" y="-69" font-family="Helvetica,sans-Serif" font-size="10.00" fill="#000000">exception</text>
</g>
<!-- Node16&#45;&gt;Node17 -->
<g id="edge25" class="edge">
<title>Node16&#45;&gt;Node17</title>
<path fill="none" stroke="#191970" d="M1096.4503,-128.9005C1104.4821,-118.552 1117.4415,-101.8542 1127.3174,-89.1295"/>
<polygon fill="#191970" stroke="#191970" points="1130.1972,-91.1275 1133.5635,-81.0817 1124.6672,-86.8356 1130.1972,-91.1275"/>
</g>
<!-- Node18 -->
<g id="node19" class="node">
<title>Node18</title>
<polygon fill="none" stroke="#bfbfbf" points="940,-62 940,-81 990,-81 990,-62 940,-62"/>
<text text-anchor="middle" x="965" y="-69" font-family="Helvetica,sans-Serif" font-size="10.00" fill="#000000">cstdint</text>
</g>
<!-- Node16&#45;&gt;Node18 -->
<g id="edge26" class="edge">
<title>Node16&#45;&gt;Node18</title>
<path fill="none" stroke="#191970" d="M1071.2338,-128.9005C1050.4238,-117.6564 1015.7412,-98.9166 991.6913,-85.9219"/>
<polygon fill="#191970" stroke="#191970" points="993.1949,-82.7561 982.7332,-81.0817 989.8673,-88.9147 993.1949,-82.7561"/>
</g>
<!-- Node20&#45;&gt;Node3 -->
<g id="edge30" class="edge">
<title>Node20&#45;&gt;Node3</title>
<path fill="none" stroke="#191970" d="M952.9259,-190.3243C945.4037,-181.5913 935.2769,-167.9994 931,-154 918.2741,-112.345 917.3711,-97.3683 931,-56 934.5056,-45.3594 941.5241,-35.164 948.2787,-27.0877"/>
<polygon fill="#191970" stroke="#191970" points="951.0014,-29.2937 955.0638,-19.5087 945.786,-24.6247 951.0014,-29.2937"/>
</g>
<!-- Node20&#45;&gt;Node16 -->
<g id="edge31" class="edge">
<title>Node20&#45;&gt;Node16</title>
<path fill="none" stroke="#191970" d="M981.8438,-190.3906C1002.8136,-180.2359 1036.0944,-164.1196 1060.0036,-152.5416"/>
<polygon fill="#191970" stroke="#191970" points="1061.8208,-155.5504 1069.2956,-148.0419 1058.7699,-149.2502 1061.8208,-155.5504"/>
</g>
<!-- Node21 -->
<g id="node22" class="node">
<title>Node21</title>
<polygon fill="none" stroke="#bfbfbf" points="940,-129 940,-148 984,-148 984,-129 940,-129"/>
<text text-anchor="middle" x="962" y="-136" font-family="Helvetica,sans-Serif" font-size="10.00" fill="#000000">bitset</text>
</g>
<!-- Node20&#45;&gt;Node21 -->
<g id="edge29" class="edge">
<title>Node20&#45;&gt;Node21</title>
<path fill="none" stroke="#191970" d="M962,-190.3906C962,-181.8657 962,-169.1392 962,-158.4235"/>
<polygon fill="#191970" stroke="#191970" points="965.5001,-158.2448 962,-148.2449 958.5001,-158.2449 965.5001,-158.2448"/>
</g>
<!-- Node22&#45;&gt;Node6 -->
<g id="edge34" class="edge">
<title>Node22&#45;&gt;Node6</title>
<path fill="none" stroke="#191970" d="M1588.5472,-190.2961C1607.2628,-174.6999 1638.324,-143.7108 1619,-123 1579.5651,-80.735 1155.86,-101.8696 1100,-87 1098.0762,-86.4879 1096.1293,-85.8588 1094.1956,-85.1504"/>
<polygon fill="#191970" stroke="#191970" points="1095.3754,-81.8481 1084.8056,-81.1209 1092.615,-88.2808 1095.3754,-81.8481"/>
</g>
<!-- Node22&#45;&gt;Node7 -->
<g id="edge36" class="edge">
<title>Node22&#45;&gt;Node7</title>
<path fill="none" stroke="#191970" d="M1509.2736,-198.3993C1391.8253,-194.8797 1140.7326,-184.2123 931,-154 918.6371,-152.2191 905.218,-149.4976 893.4084,-146.8293"/>
<polygon fill="#191970" stroke="#191970" points="894.0451,-143.3839 883.5117,-144.5231 892.4564,-150.2013 894.0451,-143.3839"/>
</g>
<!-- Node22&#45;&gt;Node16 -->
<g id="edge42" class="edge">
<title>Node22&#45;&gt;Node16</title>
<path fill="none" stroke="#191970" d="M1509.4729,-193.0538C1431.577,-184.7167 1298.7271,-169.8635 1185,-154 1175.3438,-152.6531 1165.1589,-151.1251 1155.1752,-149.5662"/>
<polygon fill="#191970" stroke="#191970" points="1155.7095,-146.1073 1145.2856,-148.0027 1154.6163,-153.0214 1155.7095,-146.1073"/>
</g>
<!-- Node22&#45;&gt;Node17 -->
<g id="edge33" class="edge">
<title>Node22&#45;&gt;Node17</title>
<path fill="none" stroke="#191970" d="M1605.5685,-190.3976C1622.4108,-183.2338 1642.0794,-171.6009 1652,-154 1658.7651,-141.9975 1661.3621,-133.1083 1652,-123 1616.4858,-84.6553 1234.0602,-98.1543 1183,-87 1179.7349,-86.2867 1176.3817,-85.3758 1173.0621,-84.3536"/>
<polygon fill="#191970" stroke="#191970" points="1173.9203,-80.9486 1163.3259,-81.0403 1171.6651,-87.5754 1173.9203,-80.9486"/>
</g>
<!-- Node23 -->
<g id="node24" class="node">
<title>Node23</title>
<polygon fill="none" stroke="#bfbfbf" points="1882.5,-129 1882.5,-148 1923.5,-148 1923.5,-129 1882.5,-129"/>
<text text-anchor="middle" x="1903" y="-136" font-family="Helvetica,sans-Serif" font-size="10.00" fill="#000000">tuple</text>
</g>
<!-- Node22&#45;&gt;Node23 -->
<g id="edge35" class="edge">
<title>Node22&#45;&gt;Node23</title>
<path fill="none" stroke="#191970" d="M1642.6024,-195.8544C1703.7511,-190.6137 1796.2355,-179.0372 1873,-154 1874.463,-153.5228 1875.9415,-152.9805 1877.4167,-152.3915"/>
<polygon fill="#191970" stroke="#191970" points="1879.2905,-155.382 1886.9105,-148.0208 1876.3632,-149.0235 1879.2905,-155.382"/>
</g>
<!-- Node24 -->
<g id="node25" class="node">
<title>Node24</title>
<polygon fill="none" stroke="#bfbfbf" points="1942,-129 1942,-148 2026,-148 2026,-129 1942,-129"/>
<text text-anchor="middle" x="1984" y="-136" font-family="Helvetica,sans-Serif" font-size="10.00" fill="#000000">RStringView.h</text>
</g>
<!-- Node22&#45;&gt;Node24 -->
<g id="edge37" class="edge">
<title>Node22&#45;&gt;Node24</title>
<path fill="none" stroke="#191970" d="M1642.6882,-194.7575C1714.8288,-188.31 1832.9524,-175.4916 1933,-154 1937.1732,-153.1035 1941.4983,-152.0269 1945.7849,-150.8642"/>
<polygon fill="#191970" stroke="#191970" points="1946.9816,-154.1621 1955.628,-148.0391 1945.0504,-147.4338 1946.9816,-154.1621"/>
</g>
<!-- Node25 -->
<g id="node26" class="node">
<title>Node25</title>
<polygon fill="none" stroke="#bfbfbf" points="1192,-62 1192,-81 1274,-81 1274,-62 1192,-62"/>
<text text-anchor="middle" x="1233" y="-69" font-family="Helvetica,sans-Serif" font-size="10.00" fill="#000000">TGeoMatrix.h</text>
</g>
<!-- Node22&#45;&gt;Node25 -->
<g id="edge38" class="edge">
<title>Node22&#45;&gt;Node25</title>
<path fill="none" stroke="#191970" d="M1634.5167,-190.4429C1655.6253,-183.8619 1677.3454,-172.7523 1690,-154 1697.707,-142.5794 1699.3022,-133.1635 1690,-123 1659.4234,-89.5922 1328.4581,-95.6306 1284,-87 1279.5358,-86.1334 1274.9063,-85.0283 1270.3394,-83.8083"/>
<polygon fill="#191970" stroke="#191970" points="1271.1073,-80.3876 1260.5303,-81.0018 1269.1817,-87.1176 1271.1073,-80.3876"/>
</g>
<!-- Node26 -->
<g id="node27" class="node">
<title>Node26</title>
<polygon fill="none" stroke="#bfbfbf" points="1370.5,-129 1370.5,-148 1437.5,-148 1437.5,-129 1370.5,-129"/>
<text text-anchor="middle" x="1404" y="-136" font-family="Helvetica,sans-Serif" font-size="10.00" fill="#000000">TNamed.h</text>
</g>
<!-- Node22&#45;&gt;Node26 -->
<g id="edge39" class="edge">
<title>Node22&#45;&gt;Node26</title>
<path fill="none" stroke="#191970" d="M1548.8105,-190.3351C1522.6972,-181.0454 1482.1399,-166.5986 1447,-154 1444.731,-153.1865 1442.3951,-152.3479 1440.0401,-151.5015"/>
<polygon fill="#191970" stroke="#191970" points="1440.9683,-148.1158 1430.3738,-148.023 1438.598,-154.7023 1440.9683,-148.1158"/>
</g>
<!-- Node27 -->
<g id="node28" class="node">
<title>Node27</title>
<polygon fill="none" stroke="#bfbfbf" points="1456,-129 1456,-148 1524,-148 1524,-129 1456,-129"/>
<text text-anchor="middle" x="1490" y="-136" font-family="Helvetica,sans-Serif" font-size="10.00" fill="#000000">TParticle.h</text>
</g>
<!-- Node22&#45;&gt;Node27 -->
<g id="edge40" class="edge">
<title>Node22&#45;&gt;Node27</title>
<path fill="none" stroke="#191970" d="M1562.5625,-190.3906C1548.9305,-180.6421 1527.6154,-165.3994 1511.6078,-153.9521"/>
<polygon fill="#191970" stroke="#191970" points="1513.5132,-151.0118 1503.3431,-148.0419 1509.4414,-156.7057 1513.5132,-151.0118"/>
</g>
<!-- Node28 -->
<g id="node29" class="node">
<title>Node28</title>
<polygon fill="none" stroke="#bfbfbf" points="1542,-129 1542,-148 1610,-148 1610,-129 1542,-129"/>
<text text-anchor="middle" x="1576" y="-136" font-family="Helvetica,sans-Serif" font-size="10.00" fill="#000000">TVector3.h</text>
</g>
<!-- Node22&#45;&gt;Node28 -->
<g id="edge41" class="edge">
<title>Node22&#45;&gt;Node28</title>
<path fill="none" stroke="#191970" d="M1576,-190.3906C1576,-181.8657 1576,-169.1392 1576,-158.4235"/>
<polygon fill="#191970" stroke="#191970" points="1579.5001,-158.2448 1576,-148.2449 1572.5001,-158.2449 1579.5001,-158.2448"/>
</g>
<!-- Node29 -->
<g id="node30" class="node">
<title>Node29</title>
<g id="a_node30"><a xlink:href="../../d5/d5e/GeometryBase_8h.html" target="_top" xlink:title="EMCALBase/GeometryBase.h">
<polygon fill="none" stroke="#000000" points="1194,-129 1194,-148 1352,-148 1352,-129 1194,-129"/>
<text text-anchor="middle" x="1273" y="-136" font-family="Helvetica,sans-Serif" font-size="10.00" fill="#000000">EMCALBase/GeometryBase.h</text>
</a>
</g>
</g>
<!-- Node22&#45;&gt;Node29 -->
<g id="edge43" class="edge">
<title>Node22&#45;&gt;Node29</title>
<path fill="none" stroke="#191970" d="M1528.9887,-190.4581C1475.3598,-179.573 1387.6724,-161.7751 1330.1438,-150.0985"/>
<polygon fill="#191970" stroke="#191970" points="1330.618,-146.6234 1320.1216,-148.0643 1329.2255,-153.4836 1330.618,-146.6234"/>
</g>
<!-- Node30 -->
<g id="node31" class="node">
<title>Node30</title>
<g id="a_node31"><a xlink:href="../../dc/d73/Cartesian_8h.html" target="_top" xlink:title="MathUtils/Cartesian.h">
<polygon fill="none" stroke="#000000" points="1742,-129 1742,-148 1864,-148 1864,-129 1742,-129"/>
<text text-anchor="middle" x="1803" y="-136" font-family="Helvetica,sans-Serif" font-size="10.00" fill="#000000">MathUtils/Cartesian.h</text>
</a>
</g>
</g>
<!-- Node22&#45;&gt;Node30 -->
<g id="edge45" class="edge">
<title>Node22&#45;&gt;Node30</title>
<path fill="none" stroke="#191970" d="M1611.4688,-190.3906C1650.9493,-179.6944 1714.8443,-162.3836 1757.8605,-150.7294"/>
<polygon fill="#191970" stroke="#191970" points="1759.0435,-154.0352 1767.7803,-148.0419 1757.213,-147.2787 1759.0435,-154.0352"/>
</g>
<!-- Node29&#45;&gt;Node6 -->
<g id="edge44" class="edge">
<title>Node29&#45;&gt;Node6</title>
<path fill="none" stroke="#191970" d="M1234.6084,-128.983C1199.151,-119.7463 1145.2822,-104.5738 1100,-87 1098.5973,-86.4556 1097.1716,-85.8744 1095.74,-85.2682"/>
<polygon fill="#191970" stroke="#191970" points="1096.9412,-81.9701 1086.3878,-81.0334 1094.0536,-88.3468 1096.9412,-81.9701"/>
</g>
<!-- Node30&#45;&gt;Node3 -->
<g id="edge53" class="edge">
<title>Node30&#45;&gt;Node3</title>
<path fill="none" stroke="#191970" d="M1842.6455,-128.9596C1852.8194,-126.7555 1863.7777,-124.5928 1874,-123 1916.0149,-116.4534 2226.3816,-118.4499 2255,-87 2264.2728,-76.8097 2264.5672,-65.9144 2255,-56 2232.7508,-32.9433 1220.1604,-14.3614 1004.9446,-10.6683"/>
<polygon fill="#191970" stroke="#191970" points="1004.7936,-7.1653 994.7352,-10.4941 1004.674,-14.1643 1004.7936,-7.1653"/>
</g>
<!-- Node30&#45;&gt;Node5 -->
<g id="edge55" class="edge">
<title>Node30&#45;&gt;Node5</title>
<path fill="none" stroke="#191970" d="M1741.7038,-132.846C1705.9384,-129.6697 1659.9384,-125.7947 1619,-123 1313.5149,-102.146 1235.9753,-114.3146 931,-87 901.5462,-84.362 868.2521,-80.0414 843.8946,-76.6311"/>
<polygon fill="#191970" stroke="#191970" points="844.1024,-73.1256 833.7098,-75.1853 843.1186,-80.0561 844.1024,-73.1256"/>
</g>
<!-- Node30&#45;&gt;Node25 -->
<g id="edge54" class="edge">
<title>Node30&#45;&gt;Node25</title>
<path fill="none" stroke="#191970" d="M1761.5057,-128.9764C1750.6484,-126.7454 1738.9241,-124.5656 1728,-123 1532.0216,-94.9123 1478.4933,-123.9971 1284,-87 1279.5326,-86.1502 1274.9011,-85.0555 1270.3331,-83.8413"/>
<polygon fill="#191970" stroke="#191970" points="1271.0994,-80.4203 1260.5228,-81.0408 1269.1779,-87.1514 1271.0994,-80.4203"/>
</g>
<!-- Node31 -->
<g id="node32" class="node">
<title>Node31</title>
<polygon fill="none" stroke="#bfbfbf" points="1874,-56.5 1874,-86.5 2038,-86.5 2038,-56.5 1874,-56.5"/>
<text text-anchor="start" x="1882" y="-74.5" font-family="Helvetica,sans-Serif" font-size="10.00" fill="#000000">Math/GenVector/Displacement</text>
<text text-anchor="middle" x="1956" y="-63.5" font-family="Helvetica,sans-Serif" font-size="10.00" fill="#000000">Vector3D.h</text>
</g>
<!-- Node30&#45;&gt;Node31 -->
<g id="edge46" class="edge">
<title>Node30&#45;&gt;Node31</title>
<path fill="none" stroke="#191970" d="M1824.9212,-128.9005C1847.6376,-118.9528 1883.7515,-103.1382 1912.3255,-90.6254"/>
<polygon fill="#191970" stroke="#191970" points="1913.9403,-93.7392 1921.6966,-86.5218 1911.1324,-87.3271 1913.9403,-93.7392"/>
</g>
<!-- Node32 -->
<g id="node33" class="node">
<title>Node32</title>
<polygon fill="none" stroke="#bfbfbf" points="2056.5,-62 2056.5,-81 2245.5,-81 2245.5,-62 2056.5,-62"/>
<text text-anchor="middle" x="2151" y="-69" font-family="Helvetica,sans-Serif" font-size="10.00" fill="#000000">Math/GenVector/PositionVector3D.h</text>
</g>
<!-- Node30&#45;&gt;Node32 -->
<g id="edge47" class="edge">
<title>Node30&#45;&gt;Node32</title>
<path fill="none" stroke="#191970" d="M1845.7559,-128.9405C1855.0553,-126.9244 1864.8486,-124.8492 1874,-123 1946.7819,-108.2934 2030.6468,-92.9197 2086.8592,-82.8411"/>
<polygon fill="#191970" stroke="#191970" points="2087.7974,-86.2289 2097.0246,-81.0222 2086.5644,-79.3384 2087.7974,-86.2289"/>
</g>
<!-- Node33 -->
<g id="node34" class="node">
<title>Node33</title>
<polygon fill="none" stroke="#bfbfbf" points="2302,-62 2302,-81 2462,-81 2462,-62 2302,-62"/>
<text text-anchor="middle" x="2382" y="-69" font-family="Helvetica,sans-Serif" font-size="10.00" fill="#000000">Math/GenVector/Rotation3D.h</text>
</g>
<!-- Node30&#45;&gt;Node33 -->
<g id="edge48" class="edge">
<title>Node30&#45;&gt;Node33</title>
<path fill="none" stroke="#191970" d="M1842.2655,-128.9873C1852.544,-126.7561 1863.647,-124.5736 1874,-123 2056.5972,-95.2466 2104.7486,-110.0415 2288,-87 2297.8464,-85.7619 2308.2408,-84.2528 2318.3856,-82.6676"/>
<polygon fill="#191970" stroke="#191970" points="2319.0952,-86.0987 2328.4175,-81.0643 2317.9905,-79.1864 2319.0952,-86.0987"/>
</g>
<!-- Node34 -->
<g id="node35" class="node">
<title>Node34</title>
<polygon fill="none" stroke="#bfbfbf" points="2480,-62 2480,-81 2648,-81 2648,-62 2480,-62"/>
<text text-anchor="middle" x="2564" y="-69" font-family="Helvetica,sans-Serif" font-size="10.00" fill="#000000">Math/GenVector/Transform3D.h</text>
</g>
<!-- Node30&#45;&gt;Node34 -->
<g id="edge49" class="edge">
<title>Node30&#45;&gt;Node34</title>
<path fill="none" stroke="#191970" d="M1841.4965,-128.9604C1851.9811,-126.6737 1863.3771,-124.4708 1874,-123 2137.3035,-86.5436 2206.8707,-116.891 2471,-87 2481.2303,-85.8423 2492.0476,-84.3177 2502.5459,-82.6766"/>
<polygon fill="#191970" stroke="#191970" points="2503.168,-86.1216 2512.4839,-81.0755 2502.0545,-79.2107 2503.168,-86.1216"/>
</g>
<!-- Node35 -->
<g id="node36" class="node">
<title>Node35</title>
<polygon fill="none" stroke="#bfbfbf" points="1292.5,-62 1292.5,-81 1465.5,-81 1465.5,-62 1292.5,-62"/>
<text text-anchor="middle" x="1379" y="-69" font-family="Helvetica,sans-Serif" font-size="10.00" fill="#000000">Math/GenVector/Translation3D.h</text>
</g>
<!-- Node30&#45;&gt;Node35 -->
<g id="edge50" class="edge">
<title>Node30&#45;&gt;Node35</title>
<path fill="none" stroke="#191970" d="M1759.067,-128.9418C1748.8896,-126.8607 1738.0858,-124.758 1728,-123 1616.1099,-103.4971 1587.2896,-104.0525 1475,-87 1465.9294,-85.6225 1456.3838,-84.1314 1446.9736,-82.6369"/>
<polygon fill="#191970" stroke="#191970" points="1447.2714,-79.1402 1436.8445,-81.0192 1446.1673,-86.0526 1447.2714,-79.1402"/>
</g>
<!-- Node36 -->
<g id="node37" class="node">
<title>Node36</title>
<polygon fill="none" stroke="#bfbfbf" points="1484,-56.5 1484,-86.5 1648,-86.5 1648,-56.5 1484,-56.5"/>
<text text-anchor="start" x="1492" y="-74.5" font-family="Helvetica,sans-Serif" font-size="10.00" fill="#000000">Math/GenVector/Displacement</text>
<text text-anchor="middle" x="1566" y="-63.5" font-family="Helvetica,sans-Serif" font-size="10.00" fill="#000000">Vector2D.h</text>
</g>
<!-- Node30&#45;&gt;Node36 -->
<g id="edge51" class="edge">
<title>Node30&#45;&gt;Node36</title>
<path fill="none" stroke="#191970" d="M1769.2954,-128.9717C1732.8631,-118.6723 1673.9747,-102.0245 1628.9325,-89.291"/>
<polygon fill="#191970" stroke="#191970" points="1629.8305,-85.9078 1619.2555,-86.5553 1627.9262,-92.6438 1629.8305,-85.9078"/>
</g>
<!-- Node37 -->
<g id="node38" class="node">
<title>Node37</title>
<polygon fill="none" stroke="#bfbfbf" points="1666.5,-62 1666.5,-81 1855.5,-81 1855.5,-62 1666.5,-62"/>
<text text-anchor="middle" x="1761" y="-69" font-family="Helvetica,sans-Serif" font-size="10.00" fill="#000000">Math/GenVector/PositionVector2D.h</text>
</g>
<!-- Node30&#45;&gt;Node37 -->
<g id="edge52" class="edge">
<title>Node30&#45;&gt;Node37</title>
<path fill="none" stroke="#191970" d="M1796.9824,-128.9005C1790.62,-118.751 1780.4291,-102.4941 1772.5142,-89.8679"/>
<polygon fill="#191970" stroke="#191970" points="1775.2833,-87.6956 1767.0064,-81.0817 1769.3523,-91.4135 1775.2833,-87.6956"/>
</g>
</g>
</svg>
