<?xml version="1.0" encoding="UTF-8" standalone="no"?>
<!DOCTYPE svg PUBLIC "-//W3C//DTD SVG 1.1//EN"
 "http://www.w3.org/Graphics/SVG/1.1/DTD/svg11.dtd">
<!-- Generated by graphviz version 2.40.1 (20161225.0304)
 -->
<!-- Title: /home/travis/build/AliceO2Group/AliceO2/Detectors/ITSMFT/common/simulation/src/AlpideChip.cxx Pages: 1 -->
<!--zoomable 307 -->
<svg id="main" version="1.1" xmlns="http://www.w3.org/2000/svg" xmlns:xlink="http://www.w3.org/1999/xlink" xml:space="preserve" onload="init(evt)">
<style type="text/css"><![CDATA[
.edge:hover path { stroke: red; }
.edge:hover polygon { stroke: red; fill: red; }
]]></style>
<script type="text/javascript"><![CDATA[
var edges = document.getElementsByTagName('g');
if (edges && edges.length) {
  for (var i=0;i<edges.length;i++) {
    if (edges[i].id.substr(0,4)=='edge') {
      edges[i].setAttribute('class','edge');
    }
  }
}
]]></script>
        <defs>
                <circle id="rim" cx="0" cy="0" r="7"/>
                <circle id="rim2" cx="0" cy="0" r="3.5"/>
                <g id="zoomPlus">
                        <use xlink:href="#rim" fill="#404040">
                                <set attributeName="fill" to="#808080" begin="zoomplus.mouseover" end="zoomplus.mouseout"/>
                        </use>
                        <path d="M-4,0h8M0,-4v8" fill="none" stroke="white" stroke-width="1.5" pointer-events="none"/>
                </g>
                <g id="zoomMin">
                        <use xlink:href="#rim" fill="#404040">
                                <set attributeName="fill" to="#808080" begin="zoomminus.mouseover" end="zoomminus.mouseout"/>
                        </use>
                        <path d="M-4,0h8" fill="none" stroke="white" stroke-width="1.5" pointer-events="none"/>
                </g>
                <g id="dirArrow">
                        <path fill="none" stroke="white" stroke-width="1.5" d="M0,-3.0v7 M-2.5,-0.5L0,-3.0L2.5,-0.5"/>
                </g>
               <g id="resetDef">
                       <use xlink:href="#rim2" fill="#404040">
                               <set attributeName="fill" to="#808080" begin="reset.mouseover" end="reset.mouseout"/>
                       </use>
               </g>
        </defs>

<script type="text/javascript">
var viewWidth = 2909;
var viewHeight = 307;
var sectionId = 'dynsection-0';
</script>
<script xlink:href="../../svgpan.js"/>
<svg id="graph" class="graph">
<g id="viewport">
<title>/home/travis/build/AliceO2Group/AliceO2/Detectors/ITSMFT/common/simulation/src/AlpideChip.cxx</title>
<!-- Node0 -->
<g id="node1" class="node">
<title>Node0</title>
<polygon fill="#bfbfbf" stroke="#000000" points="1479,-246.5 1479,-298.5 1643,-298.5 1643,-246.5 1479,-246.5"/>
<text text-anchor="start" x="1487" y="-286.5" font-family="Helvetica,sans-Serif" font-size="10.00" fill="#000000">/home/travis/build</text>
<text text-anchor="start" x="1487" y="-275.5" font-family="Helvetica,sans-Serif" font-size="10.00" fill="#000000">/AliceO2Group/AliceO2</text>
<text text-anchor="start" x="1487" y="-264.5" font-family="Helvetica,sans-Serif" font-size="10.00" fill="#000000">/Detectors/ITSMFT/common</text>
<text text-anchor="middle" x="1561" y="-253.5" font-family="Helvetica,sans-Serif" font-size="10.00" fill="#000000">/simulation/src/AlpideChip.cxx</text>
</g>
<!-- Node1 -->
<g id="node2" class="node">
<title>Node1</title>
<g id="a_node2"><a xlink:href="../../da/d2d/AlpideChip_8h.html" target="_top" xlink:title="Creates an ALPIDE chip in simulation. ">
<polygon fill="none" stroke="#000000" points="1361,-190.5 1361,-209.5 1529,-209.5 1529,-190.5 1361,-190.5"/>
<text text-anchor="middle" x="1445" y="-197.5" font-family="Helvetica,sans-Serif" font-size="10.00" fill="#000000">ITSMFTSimulation/AlpideChip.h</text>
</a>
</g>
</g>
<!-- Node0&#45;&gt;Node1 -->
<g id="edge1" class="edge">
<title>Node0&#45;&gt;Node1</title>
<path fill="none" stroke="#191970" d="M1519.1213,-246.3258C1502.2991,-235.8119 1483.5113,-224.0696 1469.0603,-215.0377"/>
<polygon fill="#191970" stroke="#191970" points="1470.5894,-211.866 1460.2544,-209.534 1466.8794,-217.802 1470.5894,-211.866"/>
</g>
<!-- Node2 -->
<g id="node3" class="node">
<title>Node2</title>
<polygon fill="none" stroke="#bfbfbf" points="1284,-134.5 1284,-153.5 1376,-153.5 1376,-134.5 1284,-134.5"/>
<text text-anchor="middle" x="1330" y="-141.5" font-family="Helvetica,sans-Serif" font-size="10.00" fill="#000000">TGeoManager.h</text>
</g>
<!-- Node0&#45;&gt;Node2 -->
<g id="edge50" class="edge">
<title>Node0&#45;&gt;Node2</title>
<path fill="none" stroke="#191970" d="M1478.7501,-256.0548C1428.5342,-244.5039 1370.5259,-227.9572 1352,-210 1339.422,-197.8081 1334.0346,-178.2473 1331.7274,-163.5801"/>
<polygon fill="#191970" stroke="#191970" points="1335.1852,-163.0212 1330.4954,-153.5209 1328.2371,-163.8723 1335.1852,-163.0212"/>
</g>
<!-- Node4 -->
<g id="node5" class="node">
<title>Node4</title>
<g id="a_node5"><a xlink:href="../../d3/dba/SegmentationAlpide_8h.html" target="_top" xlink:title="Definition of the SegmentationAlpide class. ">
<polygon fill="none" stroke="#000000" points="1119,-190.5 1119,-209.5 1305,-209.5 1305,-190.5 1119,-190.5"/>
<text text-anchor="middle" x="1212" y="-197.5" font-family="Helvetica,sans-Serif" font-size="10.00" fill="#000000">ITSMFTBase/SegmentationAlpide.h</text>
</a>
</g>
</g>
<!-- Node0&#45;&gt;Node4 -->
<g id="edge4" class="edge">
<title>Node0&#45;&gt;Node4</title>
<path fill="none" stroke="#191970" d="M1478.7338,-255.4103C1413.7167,-241.9039 1324.7268,-223.4175 1267.7925,-211.5901"/>
<polygon fill="#191970" stroke="#191970" points="1268.399,-208.1415 1257.8961,-209.5343 1266.9752,-214.9952 1268.399,-208.1415"/>
</g>
<!-- Node13 -->
<g id="node14" class="node">
<title>Node13</title>
<polygon fill="none" stroke="#bfbfbf" points="0,-73 0,-92 82,-92 82,-73 0,-73"/>
<text text-anchor="middle" x="41" y="-80" font-family="Helvetica,sans-Serif" font-size="10.00" fill="#000000">TGeoMatrix.h</text>
</g>
<!-- Node0&#45;&gt;Node13 -->
<g id="edge52" class="edge">
<title>Node0&#45;&gt;Node13</title>
<path fill="none" stroke="#191970" d="M1478.8736,-268.0188C1254.4181,-254.6433 612.6286,-208.8432 91,-98 86.8497,-97.1181 82.5502,-96.0423 78.2939,-94.8727"/>
<polygon fill="#191970" stroke="#191970" points="79.1121,-91.4655 68.5318,-92.0205 77.1489,-98.1846 79.1121,-91.4655"/>
</g>
<!-- Node15 -->
<g id="node16" class="node">
<title>Node15</title>
<g id="a_node16"><a xlink:href="../../d0/d9a/MaterialManager_8h.html" target="_top" xlink:title="DetectorsBase/MaterialManager.h">
<polygon fill="none" stroke="#000000" points="1470.5,-134.5 1470.5,-153.5 1651.5,-153.5 1651.5,-134.5 1470.5,-134.5"/>
<text text-anchor="middle" x="1561" y="-141.5" font-family="Helvetica,sans-Serif" font-size="10.00" fill="#000000">DetectorsBase/MaterialManager.h</text>
</a>
</g>
</g>
<!-- Node0&#45;&gt;Node15 -->
<g id="edge17" class="edge">
<title>Node0&#45;&gt;Node15</title>
<path fill="none" stroke="#191970" d="M1561,-246.4961C1561,-222.0156 1561,-185.8881 1561,-163.7068"/>
<polygon fill="#191970" stroke="#191970" points="1564.5001,-163.5141 1561,-153.5142 1557.5001,-163.5142 1564.5001,-163.5141"/>
</g>
<!-- Node19 -->
<g id="node20" class="node">
<title>Node19</title>
<g id="a_node20"><a xlink:href="../../d1/d3a/Base_2include_2DetectorsBase_2Detector_8h.html" target="_top" xlink:title="DetectorsBase/Detector.h">
<polygon fill="none" stroke="#000000" points="1916.5,-190.5 1916.5,-209.5 2057.5,-209.5 2057.5,-190.5 1916.5,-190.5"/>
<text text-anchor="middle" x="1987" y="-197.5" font-family="Helvetica,sans-Serif" font-size="10.00" fill="#000000">DetectorsBase/Detector.h</text>
</a>
</g>
</g>
<!-- Node0&#45;&gt;Node19 -->
<g id="edge23" class="edge">
<title>Node0&#45;&gt;Node19</title>
<path fill="none" stroke="#191970" d="M1643.1371,-258.5213C1723.9582,-244.7665 1845.8203,-224.0271 1920.6824,-211.2864"/>
<polygon fill="#191970" stroke="#191970" points="1921.6537,-214.6716 1930.9247,-209.5433 1920.4792,-207.7708 1921.6537,-214.6716"/>
</g>
<!-- Node39 -->
<g id="node40" class="node">
<title>Node39</title>
<polygon fill="none" stroke="#bfbfbf" points="2075.5,-190.5 2075.5,-209.5 2152.5,-209.5 2152.5,-190.5 2075.5,-190.5"/>
<text text-anchor="middle" x="2114" y="-197.5" font-family="Helvetica,sans-Serif" font-size="10.00" fill="#000000">TGeoBBox.h</text>
</g>
<!-- Node0&#45;&gt;Node39 -->
<g id="edge49" class="edge">
<title>Node0&#45;&gt;Node39</title>
<path fill="none" stroke="#191970" d="M1643.0795,-264.4391C1741.0961,-254.3408 1910.1631,-235.4298 2065.095,-210.0342"/>
<polygon fill="#191970" stroke="#191970" points="2065.9828,-213.4351 2075.2787,-208.3521 2064.842,-206.5286 2065.9828,-213.4351"/>
</g>
<!-- Node40 -->
<g id="node41" class="node">
<title>Node40</title>
<polygon fill="none" stroke="#bfbfbf" points="2171,-190.5 2171,-209.5 2259,-209.5 2259,-190.5 2171,-190.5"/>
<text text-anchor="middle" x="2215" y="-197.5" font-family="Helvetica,sans-Serif" font-size="10.00" fill="#000000">TGeoVolume.h</text>
</g>
<!-- Node0&#45;&gt;Node40 -->
<g id="edge51" class="edge">
<title>Node0&#45;&gt;Node40</title>
<path fill="none" stroke="#191970" d="M1643.2623,-266.011C1757.1241,-256.565 1969.3446,-237.2865 2160.872,-209.9076"/>
<polygon fill="#191970" stroke="#191970" points="2161.4436,-213.3615 2170.8428,-208.4722 2160.4461,-206.4329 2161.4436,-213.3615"/>
</g>
<!-- Node41 -->
<g id="node42" class="node">
<title>Node41</title>
<polygon fill="none" stroke="#bfbfbf" points="2276.5,-190.5 2276.5,-209.5 2351.5,-209.5 2351.5,-190.5 2276.5,-190.5"/>
<text text-anchor="middle" x="2314" y="-197.5" font-family="Helvetica,sans-Serif" font-size="10.00" fill="#000000">FairLogger.h</text>
</g>
<!-- Node0&#45;&gt;Node41 -->
<g id="edge53" class="edge">
<title>Node0&#45;&gt;Node41</title>
<path fill="none" stroke="#191970" d="M1643.0486,-268.6064C1773.3576,-261.6806 2035.6837,-244.7143 2266.4905,-210.0774"/>
<polygon fill="#191970" stroke="#191970" points="2267.0531,-213.5322 2276.4161,-208.574 2266.0047,-206.6112 2267.0531,-213.5322"/>
</g>
<!-- Node1&#45;&gt;Node2 -->
<g id="edge2" class="edge">
<title>Node1&#45;&gt;Node2</title>
<path fill="none" stroke="#191970" d="M1425.2308,-190.3733C1406.8531,-181.4241 1379.2688,-167.9917 1358.5107,-157.8835"/>
<polygon fill="#191970" stroke="#191970" points="1360.0343,-154.7325 1349.5112,-153.5011 1356.9696,-161.026 1360.0343,-154.7325"/>
</g>
<!-- Node3 -->
<g id="node4" class="node">
<title>Node3</title>
<polygon fill="none" stroke="#bfbfbf" points="1436.5,-73 1436.5,-92 1495.5,-92 1495.5,-73 1436.5,-73"/>
<text text-anchor="middle" x="1466" y="-80" font-family="Helvetica,sans-Serif" font-size="10.00" fill="#000000">Rtypes.h</text>
</g>
<!-- Node1&#45;&gt;Node3 -->
<g id="edge3" class="edge">
<title>Node1&#45;&gt;Node3</title>
<path fill="none" stroke="#191970" d="M1439.1504,-190.4878C1431.9675,-177.5589 1421.4918,-153.7818 1428,-134 1432.2436,-121.1016 1441.0948,-108.7822 1449.1876,-99.4282"/>
<polygon fill="#191970" stroke="#191970" points="1451.7913,-101.7675 1455.9695,-92.0313 1446.6317,-97.0369 1451.7913,-101.7675"/>
</g>
<!-- Node4&#45;&gt;Node3 -->
<g id="edge5" class="edge">
<title>Node4&#45;&gt;Node3</title>
<path fill="none" stroke="#191970" d="M1218.4796,-190.2385C1228.6987,-175.6488 1249.9896,-148.34 1275,-134 1335.227,-99.468 1360.7886,-118.8759 1427,-98 1429.2866,-97.2791 1431.6297,-96.4874 1433.9771,-95.655"/>
<polygon fill="#191970" stroke="#191970" points="1435.3798,-98.8671 1443.5165,-92.0815 1432.9242,-92.312 1435.3798,-98.8671"/>
</g>
<!-- Node5 -->
<g id="node6" class="node">
<title>Node5</title>
<g id="a_node6"><a xlink:href="../../dc/d73/Cartesian_8h.html" target="_top" xlink:title="MathUtils/Cartesian.h">
<polygon fill="none" stroke="#000000" points="885,-134.5 885,-153.5 1007,-153.5 1007,-134.5 885,-134.5"/>
<text text-anchor="middle" x="946" y="-141.5" font-family="Helvetica,sans-Serif" font-size="10.00" fill="#000000">MathUtils/Cartesian.h</text>
</a>
</g>
</g>
<!-- Node4&#45;&gt;Node5 -->
<g id="edge6" class="edge">
<title>Node4&#45;&gt;Node5</title>
<path fill="none" stroke="#191970" d="M1166.5752,-190.4369C1120.7645,-180.7925 1050.0002,-165.8948 1001.0325,-155.5858"/>
<polygon fill="#191970" stroke="#191970" points="1001.744,-152.1589 991.2374,-153.5237 1000.3019,-159.0088 1001.744,-152.1589"/>
</g>
<!-- Node5&#45;&gt;Node3 -->
<g id="edge14" class="edge">
<title>Node5&#45;&gt;Node3</title>
<path fill="none" stroke="#191970" d="M1007.3461,-140.3C1118.4994,-133.2363 1348.9192,-116.8446 1427,-98 1429.7888,-97.3269 1432.6423,-96.4942 1435.4747,-95.5669"/>
<polygon fill="#191970" stroke="#191970" points="1436.694,-98.8479 1444.8983,-92.1442 1434.3042,-92.2684 1436.694,-98.8479"/>
</g>
<!-- Node6 -->
<g id="node7" class="node">
<title>Node6</title>
<polygon fill="none" stroke="#bfbfbf" points="1254,-67.5 1254,-97.5 1418,-97.5 1418,-67.5 1254,-67.5"/>
<text text-anchor="start" x="1262" y="-85.5" font-family="Helvetica,sans-Serif" font-size="10.00" fill="#000000">Math/GenVector/Displacement</text>
<text text-anchor="middle" x="1336" y="-74.5" font-family="Helvetica,sans-Serif" font-size="10.00" fill="#000000">Vector3D.h</text>
</g>
<!-- Node5&#45;&gt;Node6 -->
<g id="edge7" class="edge">
<title>Node5&#45;&gt;Node6</title>
<path fill="none" stroke="#191970" d="M1007.1068,-134.8187C1065.1941,-126.034 1155.2876,-112.2613 1243.8042,-98.0184"/>
<polygon fill="#191970" stroke="#191970" points="1244.4351,-101.462 1253.7505,-96.4149 1243.3209,-94.5512 1244.4351,-101.462"/>
</g>
<!-- Node7 -->
<g id="node8" class="node">
<title>Node7</title>
<polygon fill="none" stroke="#bfbfbf" points="100.5,-73 100.5,-92 289.5,-92 289.5,-73 100.5,-73"/>
<text text-anchor="middle" x="195" y="-80" font-family="Helvetica,sans-Serif" font-size="10.00" fill="#000000">Math/GenVector/PositionVector3D.h</text>
</g>
<!-- Node5&#45;&gt;Node7 -->
<g id="edge8" class="edge">
<title>Node5&#45;&gt;Node7</title>
<path fill="none" stroke="#191970" d="M884.754,-141.2195C769.7282,-135.6484 513.6372,-121.5893 299,-98 287.5618,-96.7429 275.451,-95.1651 263.6923,-93.5008"/>
<polygon fill="#191970" stroke="#191970" points="263.8736,-89.9906 253.4753,-92.0218 262.8707,-96.9184 263.8736,-89.9906"/>
</g>
<!-- Node8 -->
<g id="node9" class="node">
<title>Node8</title>
<polygon fill="none" stroke="#bfbfbf" points="308,-73 308,-92 468,-92 468,-73 308,-73"/>
<text text-anchor="middle" x="388" y="-80" font-family="Helvetica,sans-Serif" font-size="10.00" fill="#000000">Math/GenVector/Rotation3D.h</text>
</g>
<!-- Node5&#45;&gt;Node8 -->
<g id="edge9" class="edge">
<title>Node5&#45;&gt;Node8</title>
<path fill="none" stroke="#191970" d="M884.7462,-139.4599C795.0294,-132.4779 622.7212,-117.8073 477,-98 467.8696,-96.7589 458.2426,-95.2712 448.8278,-93.7153"/>
<polygon fill="#191970" stroke="#191970" points="449.1719,-90.2239 438.7285,-92.0087 448.0056,-97.1261 449.1719,-90.2239"/>
</g>
<!-- Node9 -->
<g id="node10" class="node">
<title>Node9</title>
<polygon fill="none" stroke="#bfbfbf" points="486,-73 486,-92 654,-92 654,-73 486,-73"/>
<text text-anchor="middle" x="570" y="-80" font-family="Helvetica,sans-Serif" font-size="10.00" fill="#000000">Math/GenVector/Transform3D.h</text>
</g>
<!-- Node5&#45;&gt;Node9 -->
<g id="edge10" class="edge">
<title>Node5&#45;&gt;Node9</title>
<path fill="none" stroke="#191970" d="M886.9079,-134.4657C829.6482,-125.2104 740.3574,-110.7334 663,-98 654.6418,-96.6242 645.8624,-95.1712 637.1737,-93.7285"/>
<polygon fill="#191970" stroke="#191970" points="637.4848,-90.2323 627.0462,-92.0449 636.3368,-97.1375 637.4848,-90.2323"/>
</g>
<!-- Node10 -->
<g id="node11" class="node">
<title>Node10</title>
<polygon fill="none" stroke="#bfbfbf" points="672.5,-73 672.5,-92 845.5,-92 845.5,-73 672.5,-73"/>
<text text-anchor="middle" x="759" y="-80" font-family="Helvetica,sans-Serif" font-size="10.00" fill="#000000">Math/GenVector/Translation3D.h</text>
</g>
<!-- Node5&#45;&gt;Node10 -->
<g id="edge11" class="edge">
<title>Node5&#45;&gt;Node10</title>
<path fill="none" stroke="#191970" d="M916.7813,-134.3906C884.6693,-123.8298 832.951,-106.8208 797.5392,-95.1747"/>
<polygon fill="#191970" stroke="#191970" points="798.6065,-91.8413 788.0136,-92.0419 796.4196,-98.4909 798.6065,-91.8413"/>
</g>
<!-- Node11 -->
<g id="node12" class="node">
<title>Node11</title>
<polygon fill="none" stroke="#bfbfbf" points="864,-67.5 864,-97.5 1028,-97.5 1028,-67.5 864,-67.5"/>
<text text-anchor="start" x="872" y="-85.5" font-family="Helvetica,sans-Serif" font-size="10.00" fill="#000000">Math/GenVector/Displacement</text>
<text text-anchor="middle" x="946" y="-74.5" font-family="Helvetica,sans-Serif" font-size="10.00" fill="#000000">Vector2D.h</text>
</g>
<!-- Node5&#45;&gt;Node11 -->
<g id="edge12" class="edge">
<title>Node5&#45;&gt;Node11</title>
<path fill="none" stroke="#191970" d="M946,-134.3906C946,-127.2234 946,-117.0862 946,-107.671"/>
<polygon fill="#191970" stroke="#191970" points="949.5001,-107.5446 946,-97.5446 942.5001,-107.5446 949.5001,-107.5446"/>
</g>
<!-- Node12 -->
<g id="node13" class="node">
<title>Node12</title>
<polygon fill="none" stroke="#bfbfbf" points="1046.5,-73 1046.5,-92 1235.5,-92 1235.5,-73 1046.5,-73"/>
<text text-anchor="middle" x="1141" y="-80" font-family="Helvetica,sans-Serif" font-size="10.00" fill="#000000">Math/GenVector/PositionVector2D.h</text>
</g>
<!-- Node5&#45;&gt;Node12 -->
<g id="edge13" class="edge">
<title>Node5&#45;&gt;Node12</title>
<path fill="none" stroke="#191970" d="M976.4688,-134.3906C1009.9544,-123.8298 1063.8853,-106.8208 1100.812,-95.1747"/>
<polygon fill="#191970" stroke="#191970" points="1102.261,-98.3877 1110.7452,-92.0419 1100.1555,-91.7118 1102.261,-98.3877"/>
</g>
<!-- Node5&#45;&gt;Node13 -->
<g id="edge15" class="edge">
<title>Node5&#45;&gt;Node13</title>
<path fill="none" stroke="#191970" d="M884.9805,-142.6721C715.889,-138.6813 243.7268,-125.3465 91,-98 86.5005,-97.1943 81.839,-96.107 77.2529,-94.8796"/>
<polygon fill="#191970" stroke="#191970" points="78.0049,-91.4534 67.4255,-92.0243 76.0518,-98.1755 78.0049,-91.4534"/>
</g>
<!-- Node14 -->
<g id="node15" class="node">
<title>Node14</title>
<polygon fill="none" stroke="#bfbfbf" points="1513.5,-73 1513.5,-92 1562.5,-92 1562.5,-73 1513.5,-73"/>
<text text-anchor="middle" x="1538" y="-80" font-family="Helvetica,sans-Serif" font-size="10.00" fill="#000000">iosfwd</text>
</g>
<!-- Node5&#45;&gt;Node14 -->
<g id="edge16" class="edge">
<title>Node5&#45;&gt;Node14</title>
<path fill="none" stroke="#191970" d="M1007.4408,-141.6043C1132.2814,-136.2999 1411.5855,-122.0894 1504,-98 1506.1932,-97.4283 1508.421,-96.724 1510.6332,-95.9338"/>
<polygon fill="#191970" stroke="#191970" points="1512.1483,-99.0955 1520.0751,-92.0659 1509.4947,-92.618 1512.1483,-99.0955"/>
</g>
<!-- Node15&#45;&gt;Node3 -->
<g id="edge18" class="edge">
<title>Node15&#45;&gt;Node3</title>
<path fill="none" stroke="#191970" d="M1546.1563,-134.3906C1530.9582,-124.5519 1507.1152,-109.1167 1489.3794,-97.6351"/>
<polygon fill="#191970" stroke="#191970" points="1491.0361,-94.5382 1480.7395,-92.0419 1487.232,-100.4144 1491.0361,-94.5382"/>
</g>
<!-- Node15&#45;&gt;Node14 -->
<g id="edge22" class="edge">
<title>Node15&#45;&gt;Node14</title>
<path fill="none" stroke="#191970" d="M1557.4063,-134.3906C1554.1509,-125.6862 1549.2575,-112.6015 1545.199,-101.7494"/>
<polygon fill="#191970" stroke="#191970" points="1548.4256,-100.3852 1541.6444,-92.2449 1541.8691,-102.8373 1548.4256,-100.3852"/>
</g>
<!-- Node16 -->
<g id="node17" class="node">
<title>Node16</title>
<polygon fill="none" stroke="#bfbfbf" points="1723,-73 1723,-92 1761,-92 1761,-73 1723,-73"/>
<text text-anchor="middle" x="1742" y="-80" font-family="Helvetica,sans-Serif" font-size="10.00" fill="#000000">map</text>
</g>
<!-- Node15&#45;&gt;Node16 -->
<g id="edge19" class="edge">
<title>Node15&#45;&gt;Node16</title>
<path fill="none" stroke="#191970" d="M1589.2813,-134.3906C1622.9805,-122.9403 1678.9883,-103.91 1713.0008,-92.3533"/>
<polygon fill="#191970" stroke="#191970" points="1714.4588,-95.5545 1722.8012,-89.0234 1712.2068,-88.9266 1714.4588,-95.5545"/>
</g>
<!-- Node17 -->
<g id="node18" class="node">
<title>Node17</title>
<polygon fill="none" stroke="#bfbfbf" points="1580.5,-73 1580.5,-92 1673.5,-92 1673.5,-73 1580.5,-73"/>
<text text-anchor="middle" x="1627" y="-80" font-family="Helvetica,sans-Serif" font-size="10.00" fill="#000000">unordered_map</text>
</g>
<!-- Node15&#45;&gt;Node17 -->
<g id="edge20" class="edge">
<title>Node15&#45;&gt;Node17</title>
<path fill="none" stroke="#191970" d="M1571.3125,-134.3906C1581.4242,-124.9683 1597.0442,-110.4134 1609.1707,-99.1137"/>
<polygon fill="#191970" stroke="#191970" points="1611.612,-101.6228 1616.5421,-92.2449 1606.8399,-96.5015 1611.612,-101.6228"/>
</g>
<!-- Node18 -->
<g id="node19" class="node">
<title>Node18</title>
<polygon fill="none" stroke="#bfbfbf" points="1853.5,-73 1853.5,-92 1936.5,-92 1936.5,-73 1853.5,-73"/>
<text text-anchor="middle" x="1895" y="-80" font-family="Helvetica,sans-Serif" font-size="10.00" fill="#000000">initializer_list</text>
</g>
<!-- Node15&#45;&gt;Node18 -->
<g id="edge21" class="edge">
<title>Node15&#45;&gt;Node18</title>
<path fill="none" stroke="#191970" d="M1612.821,-134.4581C1675.5661,-122.9047 1780.6055,-103.5637 1843.2974,-92.0201"/>
<polygon fill="#191970" stroke="#191970" points="1844.1584,-95.4205 1853.3592,-90.1674 1842.8907,-88.5362 1844.1584,-95.4205"/>
</g>
<!-- Node19&#45;&gt;Node3 -->
<g id="edge31" class="edge">
<title>Node19&#45;&gt;Node3</title>
<path fill="none" stroke="#191970" d="M1916.2551,-199.0112C1779.8398,-196.367 1491.1528,-186.9048 1461,-154 1448.3109,-140.1527 1452.3229,-117.7788 1457.7532,-101.7465"/>
<polygon fill="#191970" stroke="#191970" points="1461.0702,-102.8708 1461.3652,-92.2801 1454.5301,-100.3754 1461.0702,-102.8708"/>
</g>
<!-- Node19&#45;&gt;Node15 -->
<g id="edge30" class="edge">
<title>Node19&#45;&gt;Node15</title>
<path fill="none" stroke="#191970" d="M1916.1766,-190.6899C1841.0768,-180.8176 1722.58,-165.2406 1643.3612,-154.8268"/>
<polygon fill="#191970" stroke="#191970" points="1643.7896,-151.3531 1633.4187,-153.5198 1642.8772,-158.2934 1643.7896,-151.3531"/>
</g>
<!-- Node19&#45;&gt;Node16 -->
<g id="edge24" class="edge">
<title>Node19&#45;&gt;Node16</title>
<path fill="none" stroke="#191970" d="M1925.143,-190.4873C1876.2051,-182.0551 1812.6318,-168.8073 1791,-154 1771.8727,-140.907 1758.0234,-117.685 1750.0253,-101.2629"/>
<polygon fill="#191970" stroke="#191970" points="1753.1579,-99.6974 1745.8066,-92.0679 1746.7955,-102.6165 1753.1579,-99.6974"/>
</g>
<!-- Node19&#45;&gt;Node18 -->
<g id="edge26" class="edge">
<title>Node19&#45;&gt;Node18</title>
<path fill="none" stroke="#191970" d="M1982.3973,-190.054C1975.944,-176.6335 1963.3729,-152.3012 1949,-134 1938.9255,-121.172 1925.6987,-108.5049 1914.8573,-98.9434"/>
<polygon fill="#191970" stroke="#191970" points="1916.9856,-96.1574 1907.1235,-92.2858 1912.4188,-101.4625 1916.9856,-96.1574"/>
</g>
<!-- Node20 -->
<g id="node21" class="node">
<title>Node20</title>
<polygon fill="none" stroke="#bfbfbf" points="2212.5,-134.5 2212.5,-153.5 2259.5,-153.5 2259.5,-134.5 2212.5,-134.5"/>
<text text-anchor="middle" x="2236" y="-141.5" font-family="Helvetica,sans-Serif" font-size="10.00" fill="#000000">vector</text>
</g>
<!-- Node19&#45;&gt;Node20 -->
<g id="edge25" class="edge">
<title>Node19&#45;&gt;Node20</title>
<path fill="none" stroke="#191970" d="M2037.9084,-190.4188C2079.6269,-182.2825 2140.3794,-169.7868 2202.3251,-154.0109"/>
<polygon fill="#191970" stroke="#191970" points="2203.4621,-157.3325 2212.2745,-151.451 2201.7178,-150.5532 2203.4621,-157.3325"/>
</g>
<!-- Node21 -->
<g id="node22" class="node">
<title>Node21</title>
<polygon fill="none" stroke="#bfbfbf" points="2278,-134.5 2278,-153.5 2336,-153.5 2336,-134.5 2278,-134.5"/>
<text text-anchor="middle" x="2307" y="-141.5" font-family="Helvetica,sans-Serif" font-size="10.00" fill="#000000">memory</text>
</g>
<!-- Node19&#45;&gt;Node21 -->
<g id="edge27" class="edge">
<title>Node19&#45;&gt;Node21</title>
<path fill="none" stroke="#191970" d="M2055.7398,-190.4875C2110.484,-182.5126 2189.2495,-170.1518 2267.6256,-153.9196"/>
<polygon fill="#191970" stroke="#191970" points="2268.6071,-157.2901 2277.678,-151.8157 2267.173,-150.4386 2268.6071,-157.2901"/>
</g>
<!-- Node22 -->
<g id="node23" class="node">
<title>Node22</title>
<polygon fill="none" stroke="#bfbfbf" points="2354,-134.5 2354,-153.5 2438,-153.5 2438,-134.5 2354,-134.5"/>
<text text-anchor="middle" x="2396" y="-141.5" font-family="Helvetica,sans-Serif" font-size="10.00" fill="#000000">FairDetector.h</text>
</g>
<!-- Node19&#45;&gt;Node22 -->
<g id="edge28" class="edge">
<title>Node19&#45;&gt;Node22</title>
<path fill="none" stroke="#191970" d="M2057.5742,-191.0529C2148.6341,-179.4928 2299.827,-160.2393 2343.8471,-153.9856"/>
<polygon fill="#191970" stroke="#191970" points="2344.3641,-157.4473 2353.7377,-152.5091 2343.3305,-150.524 2344.3641,-157.4473"/>
</g>
<!-- Node23 -->
<g id="node24" class="node">
<title>Node23</title>
<polygon fill="none" stroke="#bfbfbf" points="2494,-134.5 2494,-153.5 2600,-153.5 2600,-134.5 2494,-134.5"/>
<text text-anchor="middle" x="2547" y="-141.5" font-family="Helvetica,sans-Serif" font-size="10.00" fill="#000000">FairRootManager.h</text>
</g>
<!-- Node19&#45;&gt;Node23 -->
<g id="edge29" class="edge">
<title>Node19&#45;&gt;Node23</title>
<path fill="none" stroke="#191970" d="M2057.6192,-190.9217C2060.4487,-190.602 2063.2507,-190.2934 2066,-190 2249.6513,-170.3993 2296.5781,-175.6424 2480,-154 2481.1096,-153.8691 2482.2291,-153.7341 2483.3562,-153.5956"/>
<polygon fill="#191970" stroke="#191970" points="2484.1773,-157.0186 2493.6459,-152.2651 2483.2797,-150.0764 2484.1773,-157.0186"/>
</g>
<!-- Node24 -->
<g id="node25" class="node">
<title>Node24</title>
<polygon fill="none" stroke="#bfbfbf" points="2618,-134.5 2618,-153.5 2676,-153.5 2676,-134.5 2618,-134.5"/>
<text text-anchor="middle" x="2647" y="-141.5" font-family="Helvetica,sans-Serif" font-size="10.00" fill="#000000">cxxabi.h</text>
</g>
<!-- Node19&#45;&gt;Node24 -->
<g id="edge32" class="edge">
<title>Node19&#45;&gt;Node24</title>
<path fill="none" stroke="#191970" d="M2057.6119,-190.8497C2060.4435,-190.55 2063.2478,-190.2652 2066,-190 2303.4567,-167.1202 2368.5237,-192.2482 2607.6172,-153.9432"/>
<polygon fill="#191970" stroke="#191970" points="2608.3506,-157.37 2617.6609,-152.3134 2607.2294,-150.4604 2608.3506,-157.37"/>
</g>
<!-- Node25 -->
<g id="node26" class="node">
<title>Node25</title>
<polygon fill="none" stroke="#bfbfbf" points="2694.5,-134.5 2694.5,-153.5 2751.5,-153.5 2751.5,-134.5 2694.5,-134.5"/>
<text text-anchor="middle" x="2723" y="-141.5" font-family="Helvetica,sans-Serif" font-size="10.00" fill="#000000">typeinfo</text>
</g>
<!-- Node19&#45;&gt;Node25 -->
<g id="edge33" class="edge">
<title>Node19&#45;&gt;Node25</title>
<path fill="none" stroke="#191970" d="M2057.6092,-190.8212C2060.4415,-190.5294 2063.2467,-190.254 2066,-190 2337.0608,-164.9911 2411.0455,-196.4934 2684.2745,-153.7706"/>
<polygon fill="#191970" stroke="#191970" points="2685.1664,-157.1731 2694.4961,-152.1525 2684.0718,-150.2592 2685.1664,-157.1731"/>
</g>
<!-- Node26 -->
<g id="node27" class="node">
<title>Node26</title>
<polygon fill="none" stroke="#bfbfbf" points="2769.5,-134.5 2769.5,-153.5 2838.5,-153.5 2838.5,-134.5 2769.5,-134.5"/>
<text text-anchor="middle" x="2804" y="-141.5" font-family="Helvetica,sans-Serif" font-size="10.00" fill="#000000">type_traits</text>
</g>
<!-- Node19&#45;&gt;Node26 -->
<g id="edge34" class="edge">
<title>Node19&#45;&gt;Node26</title>
<path fill="none" stroke="#191970" d="M2057.6072,-190.799C2060.4401,-190.5133 2063.246,-190.2453 2066,-190 2370.7739,-162.8547 2452.9697,-196.4622 2759.306,-154.0183"/>
<polygon fill="#191970" stroke="#191970" points="2759.9478,-157.4626 2769.3652,-152.6085 2758.9762,-150.5304 2759.9478,-157.4626"/>
</g>
<!-- Node27 -->
<g id="node28" class="node">
<title>Node27</title>
<polygon fill="none" stroke="#bfbfbf" points="2857,-134.5 2857,-153.5 2901,-153.5 2901,-134.5 2857,-134.5"/>
<text text-anchor="middle" x="2879" y="-141.5" font-family="Helvetica,sans-Serif" font-size="10.00" fill="#000000">string</text>
</g>
<!-- Node19&#45;&gt;Node27 -->
<g id="edge35" class="edge">
<title>Node19&#45;&gt;Node27</title>
<path fill="none" stroke="#191970" d="M2057.6054,-190.7788C2060.4388,-190.4987 2063.2453,-190.2374 2066,-190 2409.3386,-160.4144 2503.8429,-214.8988 2846.8681,-153.7286"/>
<polygon fill="#191970" stroke="#191970" points="2847.6098,-157.1514 2856.83,-151.9323 2846.3676,-150.2625 2847.6098,-157.1514"/>
</g>
<!-- Node28 -->
<g id="node29" class="node">
<title>Node28</title>
<polygon fill="none" stroke="#bfbfbf" points="1670,-134.5 1670,-153.5 1744,-153.5 1744,-134.5 1670,-134.5"/>
<text text-anchor="middle" x="1707" y="-141.5" font-family="Helvetica,sans-Serif" font-size="10.00" fill="#000000">TMessage.h</text>
</g>
<!-- Node19&#45;&gt;Node28 -->
<g id="edge36" class="edge">
<title>Node19&#45;&gt;Node28</title>
<path fill="none" stroke="#191970" d="M1939.1844,-190.4369C1887.494,-180.0988 1805.6221,-163.7244 1754.1804,-153.4361"/>
<polygon fill="#191970" stroke="#191970" points="1754.8081,-149.9924 1744.3158,-151.4632 1753.4352,-156.8564 1754.8081,-149.9924"/>
</g>
<!-- Node29 -->
<g id="node30" class="node">
<title>Node29</title>
<g id="a_node30"><a xlink:href="../../de/d61/ShmManager_8h.html" target="_top" xlink:title="CommonUtils/ShmManager.h">
<polygon fill="none" stroke="#000000" points="1995,-73 1995,-92 2153,-92 2153,-73 1995,-73"/>
<text text-anchor="middle" x="2074" y="-80" font-family="Helvetica,sans-Serif" font-size="10.00" fill="#000000">CommonUtils/ShmManager.h</text>
</a>
</g>
</g>
<!-- Node19&#45;&gt;Node29 -->
<g id="edge37" class="edge">
<title>Node19&#45;&gt;Node29</title>
<path fill="none" stroke="#191970" d="M1991.7341,-190.1547C1998.3364,-176.8483 2011.0757,-152.6447 2025,-134 2034.3232,-121.5162 2046.368,-108.8202 2056.1825,-99.1574"/>
<polygon fill="#191970" stroke="#191970" points="2058.7114,-101.5811 2063.4808,-92.1204 2053.8526,-96.5419 2058.7114,-101.5811"/>
</g>
<!-- Node35 -->
<g id="node36" class="node">
<title>Node35</title>
<g id="a_node36"><a xlink:href="../../d0/d91/ShmAllocator_8h.html" target="_top" xlink:title="CommonUtils/ShmAllocator.h">
<polygon fill="none" stroke="#000000" points="2034,-134.5 2034,-153.5 2194,-153.5 2194,-134.5 2034,-134.5"/>
<text text-anchor="middle" x="2114" y="-141.5" font-family="Helvetica,sans-Serif" font-size="10.00" fill="#000000">CommonUtils/ShmAllocator.h</text>
</a>
</g>
</g>
<!-- Node19&#45;&gt;Node35 -->
<g id="edge43" class="edge">
<title>Node19&#45;&gt;Node35</title>
<path fill="none" stroke="#191970" d="M2008.8321,-190.3733C2029.3103,-181.3435 2060.1399,-167.7494 2083.1319,-157.6111"/>
<polygon fill="#191970" stroke="#191970" points="2084.715,-160.7383 2092.4528,-153.5011 2081.8907,-154.3333 2084.715,-160.7383"/>
</g>
<!-- Node36 -->
<g id="node37" class="node">
<title>Node36</title>
<polygon fill="none" stroke="#bfbfbf" points="2306,-73 2306,-92 2358,-92 2358,-73 2306,-73"/>
<text text-anchor="middle" x="2332" y="-80" font-family="Helvetica,sans-Serif" font-size="10.00" fill="#000000">cassert</text>
</g>
<!-- Node19&#45;&gt;Node36 -->
<g id="edge48" class="edge">
<title>Node19&#45;&gt;Node36</title>
<path fill="none" stroke="#191970" d="M2057.6221,-190.9479C2060.4508,-190.621 2063.2518,-190.3037 2066,-190 2108.2646,-185.3295 2418.3816,-185.4499 2447,-154 2474.5387,-123.7366 2411.4761,-101.5745 2368.2775,-90.4866"/>
<polygon fill="#191970" stroke="#191970" points="2368.8749,-87.0292 2358.3279,-88.0349 2367.2001,-93.8259 2368.8749,-87.0292"/>
</g>
<!-- Node37 -->
<g id="node38" class="node">
<title>Node37</title>
<polygon fill="none" stroke="#bfbfbf" points="1800,-134.5 1800,-153.5 1866,-153.5 1866,-134.5 1800,-134.5"/>
<text text-anchor="middle" x="1833" y="-141.5" font-family="Helvetica,sans-Serif" font-size="10.00" fill="#000000">sys/shm.h</text>
</g>
<!-- Node19&#45;&gt;Node37 -->
<g id="edge46" class="edge">
<title>Node19&#45;&gt;Node37</title>
<path fill="none" stroke="#191970" d="M1960.5265,-190.3733C1935.1403,-181.1419 1896.6355,-167.1402 1868.578,-156.9375"/>
<polygon fill="#191970" stroke="#191970" points="1869.7222,-153.6293 1859.1281,-153.5011 1867.3299,-160.2079 1869.7222,-153.6293"/>
</g>
<!-- Node38 -->
<g id="node39" class="node">
<title>Node38</title>
<polygon fill="none" stroke="#bfbfbf" points="1884,-134.5 1884,-153.5 1940,-153.5 1940,-134.5 1884,-134.5"/>
<text text-anchor="middle" x="1912" y="-141.5" font-family="Helvetica,sans-Serif" font-size="10.00" fill="#000000">unistd.h</text>
</g>
<!-- Node19&#45;&gt;Node38 -->
<g id="edge47" class="edge">
<title>Node19&#45;&gt;Node38</title>
<path fill="none" stroke="#191970" d="M1973.936,-190.2455C1962.6438,-181.814 1946.1155,-169.4729 1932.9729,-159.6598"/>
<polygon fill="#191970" stroke="#191970" points="1935.0211,-156.8211 1924.9143,-153.6427 1930.8331,-162.4301 1935.0211,-156.8211"/>
</g>
<!-- Node30 -->
<g id="node31" class="node">
<title>Node30</title>
<polygon fill="none" stroke="#bfbfbf" points="1927,-6 1927,-25 1959,-25 1959,-6 1927,-6"/>
<text text-anchor="middle" x="1943" y="-13" font-family="Helvetica,sans-Serif" font-size="10.00" fill="#000000">list</text>
</g>
<!-- Node29&#45;&gt;Node30 -->
<g id="edge38" class="edge">
<title>Node29&#45;&gt;Node30</title>
<path fill="none" stroke="#191970" d="M2052.5566,-72.8701C2030.9096,-62.966 1996.6711,-46.7985 1968,-31 1967.5863,-30.772 1967.1698,-30.5403 1966.7513,-30.3054"/>
<polygon fill="#191970" stroke="#191970" points="1968.3138,-27.1635 1957.9222,-25.0979 1964.7576,-33.1929 1968.3138,-27.1635"/>
</g>
<!-- Node31 -->
<g id="node32" class="node">
<title>Node31</title>
<polygon fill="none" stroke="#bfbfbf" points="1977.5,-6 1977.5,-25 2030.5,-25 2030.5,-6 1977.5,-6"/>
<text text-anchor="middle" x="2004" y="-13" font-family="Helvetica,sans-Serif" font-size="10.00" fill="#000000">cstddef</text>
</g>
<!-- Node29&#45;&gt;Node31 -->
<g id="edge39" class="edge">
<title>Node29&#45;&gt;Node31</title>
<path fill="none" stroke="#191970" d="M2063.9707,-72.9005C2052.8469,-62.2535 2034.7013,-44.8856 2021.279,-32.0385"/>
<polygon fill="#191970" stroke="#191970" points="2023.655,-29.4678 2014.0107,-25.0817 2018.8148,-34.5247 2023.655,-29.4678"/>
</g>
<!-- Node32 -->
<g id="node33" class="node">
<title>Node32</title>
<polygon fill="none" stroke="#bfbfbf" points="2049,-6 2049,-25 2099,-25 2099,-6 2049,-6"/>
<text text-anchor="middle" x="2074" y="-13" font-family="Helvetica,sans-Serif" font-size="10.00" fill="#000000">atomic</text>
</g>
<!-- Node29&#45;&gt;Node32 -->
<g id="edge40" class="edge">
<title>Node29&#45;&gt;Node32</title>
<path fill="none" stroke="#191970" d="M2074,-72.9005C2074,-63.149 2074,-47.7597 2074,-35.3695"/>
<polygon fill="#191970" stroke="#191970" points="2077.5001,-35.0816 2074,-25.0817 2070.5001,-35.0817 2077.5001,-35.0816"/>
</g>
<!-- Node33 -->
<g id="node34" class="node">
<title>Node33</title>
<polygon fill="none" stroke="#bfbfbf" points="2117.5,-.5 2117.5,-30.5 2282.5,-30.5 2282.5,-.5 2117.5,-.5"/>
<text text-anchor="start" x="2125.5" y="-18.5" font-family="Helvetica,sans-Serif" font-size="10.00" fill="#000000">boost/interprocess</text>
<text text-anchor="middle" x="2200" y="-7.5" font-family="Helvetica,sans-Serif" font-size="10.00" fill="#000000">/managed_external_buffer.hpp</text>
</g>
<!-- Node29&#45;&gt;Node33 -->
<g id="edge41" class="edge">
<title>Node29&#45;&gt;Node33</title>
<path fill="none" stroke="#191970" d="M2092.0527,-72.9005C2110.435,-63.1258 2139.4701,-47.6865 2162.7995,-35.2812"/>
<polygon fill="#191970" stroke="#191970" points="2164.564,-38.3071 2171.7501,-30.5218 2161.2775,-32.1265 2164.564,-38.3071"/>
</g>
<!-- Node34 -->
<g id="node35" class="node">
<title>Node34</title>
<polygon fill="none" stroke="#bfbfbf" points="2301,-.5 2301,-30.5 2435,-30.5 2435,-.5 2301,-.5"/>
<text text-anchor="start" x="2309" y="-18.5" font-family="Helvetica,sans-Serif" font-size="10.00" fill="#000000">boost/interprocess</text>
<text text-anchor="middle" x="2368" y="-7.5" font-family="Helvetica,sans-Serif" font-size="10.00" fill="#000000">/allocators/allocator.hpp</text>
</g>
<!-- Node29&#45;&gt;Node34 -->
<g id="edge42" class="edge">
<title>Node29&#45;&gt;Node34</title>
<path fill="none" stroke="#191970" d="M2115.8108,-72.9717C2161.5738,-62.5427 2235.8988,-45.6047 2292.0321,-32.8124"/>
<polygon fill="#191970" stroke="#191970" points="2292.9639,-36.1899 2301.9362,-30.5553 2291.4085,-29.3649 2292.9639,-36.1899"/>
</g>
<!-- Node35&#45;&gt;Node29 -->
<g id="edge44" class="edge">
<title>Node35&#45;&gt;Node29</title>
<path fill="none" stroke="#191970" d="M2107.75,-134.3906C2101.9135,-125.417 2093.0491,-111.7879 2085.8694,-100.7491"/>
<polygon fill="#191970" stroke="#191970" points="2088.7245,-98.7194 2080.3381,-92.2449 2082.8564,-102.5361 2088.7245,-98.7194"/>
</g>
<!-- Node35&#45;&gt;Node36 -->
<g id="edge45" class="edge">
<title>Node35&#45;&gt;Node36</title>
<path fill="none" stroke="#191970" d="M2148.0625,-134.3906C2188.2464,-123.0543 2254.7667,-104.2883 2295.8412,-92.7008"/>
<polygon fill="#191970" stroke="#191970" points="2297.0301,-96.0021 2305.7041,-89.9183 2295.1294,-89.265 2297.0301,-96.0021"/>
</g>
</g>
</svg>
        <g id="navigator" transform="translate(0 0)" fill="#404254">
                <rect fill="#f2f5e9" fill-opacity="0.5" stroke="#606060" stroke-width=".5" x="0" y="0" width="60" height="60"/>
                <use id="zoomplus" xlink:href="#zoomPlus" x="17" y="9" onmousedown="handleZoom(evt,'in')"/>
                <use id="zoomminus" xlink:href="#zoomMin" x="42" y="9" onmousedown="handleZoom(evt,'out')"/>
                <use id="reset" xlink:href="#resetDef" x="30" y="36" onmousedown="handleReset()"/>
                <g id="arrowUp" xlink:href="#dirArrow" transform="translate(30 24)" onmousedown="handlePan(0,-1)">
                  <use xlink:href="#rim" fill="#404040">
                        <set attributeName="fill" to="#808080" begin="arrowUp.mouseover" end="arrowUp.mouseout"/>
                  </use>
                  <path fill="none" stroke="white" stroke-width="1.5" d="M0,-3.0v7 M-2.5,-0.5L0,-3.0L2.5,-0.5"/>
                </g>
                <g id="arrowRight" xlink:href="#dirArrow" transform="rotate(90) translate(36 -43)" onmousedown="handlePan(1,0)">
                  <use xlink:href="#rim" fill="#404040">
                        <set attributeName="fill" to="#808080" begin="arrowRight.mouseover" end="arrowRight.mouseout"/>
                  </use>
                  <path fill="none" stroke="white" stroke-width="1.5" d="M0,-3.0v7 M-2.5,-0.5L0,-3.0L2.5,-0.5"/>
                </g>
                <g id="arrowDown" xlink:href="#dirArrow" transform="rotate(180) translate(-30 -48)" onmousedown="handlePan(0,1)">
                  <use xlink:href="#rim" fill="#404040">
                        <set attributeName="fill" to="#808080" begin="arrowDown.mouseover" end="arrowDown.mouseout"/>
                  </use>
                  <path fill="none" stroke="white" stroke-width="1.5" d="M0,-3.0v7 M-2.5,-0.5L0,-3.0L2.5,-0.5"/>
                </g>
                <g id="arrowLeft" xlink:href="#dirArrow" transform="rotate(270) translate(-36 17)" onmousedown="handlePan(-1,0)">
                  <use xlink:href="#rim" fill="#404040">
                        <set attributeName="fill" to="#808080" begin="arrowLeft.mouseover" end="arrowLeft.mouseout"/>
                  </use>
                  <path fill="none" stroke="white" stroke-width="1.5" d="M0,-3.0v7 M-2.5,-0.5L0,-3.0L2.5,-0.5"/>
                </g>
        </g>
        <svg viewBox="0 0 15 15" width="100%" height="30px" preserveAspectRatio="xMaxYMin meet">
         <g id="arrow_out" transform="scale(0.3 0.3)">
          <a xlink:href="AlpideChip_8cxx__incl_org.svg" target="_base">
           <rect id="button" ry="5" rx="5" y="6" x="6" height="38" width="38"
                fill="#f2f5e9" fill-opacity="0.5" stroke="#606060" stroke-width="1.0"/>
           <path id="arrow"
             d="M 11.500037,31.436501 C 11.940474,20.09759 22.043105,11.32322 32.158766,21.979434 L 37.068811,17.246167 C 37.068811,17.246167 37.088388,32 37.088388,32 L 22.160133,31.978069 C 22.160133,31.978069 26.997745,27.140456 26.997745,27.140456 C 18.528582,18.264221 13.291696,25.230495 11.500037,31.436501 z"
             style="fill:#404040;"/>
          </a>
         </g>
        </svg>
</svg>
