<?xml version="1.0" encoding="UTF-8" standalone="no"?>
<!DOCTYPE svg PUBLIC "-//W3C//DTD SVG 1.1//EN"
 "http://www.w3.org/Graphics/SVG/1.1/DTD/svg11.dtd">
<!-- Generated by graphviz version 2.40.1 (20161225.0304)
 -->
<!-- Title: /home/travis/build/AliceO2Group/AliceO2/Analysis/Core/include/Analysis/trackUtilities.h Pages: 1 -->
<svg width="2046pt" height="150pt"
 viewBox="0.00 0.00 2045.50 150.00" xmlns="http://www.w3.org/2000/svg" xmlns:xlink="http://www.w3.org/1999/xlink">
<g id="graph0" class="graph" transform="scale(1 1) rotate(0) translate(4 146)">
<title>/home/travis/build/AliceO2Group/AliceO2/Analysis/Core/include/Analysis/trackUtilities.h</title>
<!-- Node66 -->
<g id="node1" class="node">
<title>Node66</title>
<polygon fill="#bfbfbf" stroke="#000000" points="943,-89.5 943,-141.5 1079,-141.5 1079,-89.5 943,-89.5"/>
<text text-anchor="start" x="951" y="-129.5" font-family="Helvetica,sans-Serif" font-size="10.00" fill="#000000">/home/travis/build</text>
<text text-anchor="start" x="951" y="-118.5" font-family="Helvetica,sans-Serif" font-size="10.00" fill="#000000">/AliceO2Group/AliceO2</text>
<text text-anchor="start" x="951" y="-107.5" font-family="Helvetica,sans-Serif" font-size="10.00" fill="#000000">/Analysis/Core/include</text>
<text text-anchor="middle" x="1011" y="-96.5" font-family="Helvetica,sans-Serif" font-size="10.00" fill="#000000">/Analysis/trackUtilities.h</text>
</g>
<!-- Node67 -->
<g id="node2" class="node">
<title>Node67</title>
<g id="a_node2"><a xlink:href="../../d0/df9/alice3-trackselection_8cxx.html" target="_top" xlink:title="/home/travis/build\l/AliceO2Group/AliceO2\l/Analysis/Tasks/ALICE3\l/alice3&#45;trackselection.cxx">
<polygon fill="none" stroke="#000000" points="0,-.5 0,-52.5 142,-52.5 142,-.5 0,-.5"/>
<text text-anchor="start" x="8" y="-40.5" font-family="Helvetica,sans-Serif" font-size="10.00" fill="#000000">/home/travis/build</text>
<text text-anchor="start" x="8" y="-29.5" font-family="Helvetica,sans-Serif" font-size="10.00" fill="#000000">/AliceO2Group/AliceO2</text>
<text text-anchor="start" x="8" y="-18.5" font-family="Helvetica,sans-Serif" font-size="10.00" fill="#000000">/Analysis/Tasks/ALICE3</text>
<text text-anchor="middle" x="71" y="-7.5" font-family="Helvetica,sans-Serif" font-size="10.00" fill="#000000">/alice3&#45;trackselection.cxx</text>
</a>
</g>
</g>
<!-- Node66&#45;&gt;Node67 -->
<g id="edge1" class="edge">
<title>Node66&#45;&gt;Node67</title>
<path fill="none" stroke="#191970" d="M932.6249,-112.2859C749.8066,-104.3875 299.4257,-82.5023 151,-53 148.1299,-52.4295 145.22,-51.7864 142.2941,-51.0856"/>
<polygon fill="#191970" stroke="#191970" points="932.5619,-115.7864 942.7029,-112.7189 932.8624,-108.7928 932.5619,-115.7864"/>
</g>
<!-- Node68 -->
<g id="node3" class="node">
<title>Node68</title>
<g id="a_node3"><a xlink:href="../../d3/d9f/HFCandidateCreator2Prong_8cxx.html" target="_top" xlink:title="Reconstruction of heavy&#45;flavour 2&#45;prong decay candidates. ">
<polygon fill="none" stroke="#000000" points="160,-.5 160,-52.5 332,-52.5 332,-.5 160,-.5"/>
<text text-anchor="start" x="168" y="-40.5" font-family="Helvetica,sans-Serif" font-size="10.00" fill="#000000">/home/travis/build</text>
<text text-anchor="start" x="168" y="-29.5" font-family="Helvetica,sans-Serif" font-size="10.00" fill="#000000">/AliceO2Group/AliceO2</text>
<text text-anchor="start" x="168" y="-18.5" font-family="Helvetica,sans-Serif" font-size="10.00" fill="#000000">/Analysis/Tasks/PWGHF</text>
<text text-anchor="middle" x="246" y="-7.5" font-family="Helvetica,sans-Serif" font-size="10.00" fill="#000000">/HFCandidateCreator2Prong.cxx</text>
</a>
</g>
</g>
<!-- Node66&#45;&gt;Node68 -->
<g id="edge2" class="edge">
<title>Node66&#45;&gt;Node68</title>
<path fill="none" stroke="#191970" d="M932.6328,-112.7367C806.9057,-107.2874 552.752,-92.0847 341,-53 338.0533,-52.4561 335.0655,-51.8627 332.0561,-51.2292"/>
<polygon fill="#191970" stroke="#191970" points="932.7887,-116.2463 942.9281,-113.1734 933.0854,-109.2526 932.7887,-116.2463"/>
</g>
<!-- Node69 -->
<g id="node4" class="node">
<title>Node69</title>
<g id="a_node4"><a xlink:href="../../da/d3e/HFCandidateCreator3Prong_8cxx.html" target="_top" xlink:title="Reconstruction of heavy&#45;flavour 3&#45;prong decay candidates. ">
<polygon fill="none" stroke="#000000" points="350,-.5 350,-52.5 522,-52.5 522,-.5 350,-.5"/>
<text text-anchor="start" x="358" y="-40.5" font-family="Helvetica,sans-Serif" font-size="10.00" fill="#000000">/home/travis/build</text>
<text text-anchor="start" x="358" y="-29.5" font-family="Helvetica,sans-Serif" font-size="10.00" fill="#000000">/AliceO2Group/AliceO2</text>
<text text-anchor="start" x="358" y="-18.5" font-family="Helvetica,sans-Serif" font-size="10.00" fill="#000000">/Analysis/Tasks/PWGHF</text>
<text text-anchor="middle" x="436" y="-7.5" font-family="Helvetica,sans-Serif" font-size="10.00" fill="#000000">/HFCandidateCreator3Prong.cxx</text>
</a>
</g>
</g>
<!-- Node66&#45;&gt;Node69 -->
<g id="edge3" class="edge">
<title>Node66&#45;&gt;Node69</title>
<path fill="none" stroke="#191970" d="M932.7787,-108.7708C837.303,-99.7649 671.2362,-81.5377 531,-53 528.0637,-52.4025 525.0849,-51.7628 522.0832,-51.0895"/>
<polygon fill="#191970" stroke="#191970" points="932.6474,-112.2737 942.9295,-109.7185 933.2982,-105.304 932.6474,-112.2737"/>
</g>
<!-- Node70 -->
<g id="node5" class="node">
<title>Node70</title>
<g id="a_node5"><a xlink:href="../../d2/d43/HFTrackIndexSkimsCreator_8cxx.html" target="_top" xlink:title="Pre&#45;selection of 2&#45;prong and 3&#45;prong secondary vertices of heavy&#45;flavour decay candidates. ">
<polygon fill="none" stroke="#000000" points="540,-.5 540,-52.5 710,-52.5 710,-.5 540,-.5"/>
<text text-anchor="start" x="548" y="-40.5" font-family="Helvetica,sans-Serif" font-size="10.00" fill="#000000">/home/travis/build</text>
<text text-anchor="start" x="548" y="-29.5" font-family="Helvetica,sans-Serif" font-size="10.00" fill="#000000">/AliceO2Group/AliceO2</text>
<text text-anchor="start" x="548" y="-18.5" font-family="Helvetica,sans-Serif" font-size="10.00" fill="#000000">/Analysis/Tasks/PWGHF</text>
<text text-anchor="middle" x="625" y="-7.5" font-family="Helvetica,sans-Serif" font-size="10.00" fill="#000000">/HFTrackIndexSkimsCreator.cxx</text>
</a>
</g>
</g>
<!-- Node66&#45;&gt;Node70 -->
<g id="edge4" class="edge">
<title>Node66&#45;&gt;Node70</title>
<path fill="none" stroke="#191970" d="M932.8743,-100.1908C873.8877,-88.2903 791.0683,-70.852 719,-53 716.1198,-52.2866 713.1942,-51.5468 710.2427,-50.7877"/>
<polygon fill="#191970" stroke="#191970" points="932.3719,-103.6597 942.8656,-102.1995 933.7517,-96.7971 932.3719,-103.6597"/>
</g>
<!-- Node71 -->
<g id="node6" class="node">
<title>Node71</title>
<g id="a_node6"><a xlink:href="../../d2/d15/cascadeconsumer_8cxx.html" target="_top" xlink:title="/home/travis/build\l/AliceO2Group/AliceO2\l/Analysis/Tasks/PWGLF\l/cascadeconsumer.cxx">
<polygon fill="none" stroke="#000000" points="728,-.5 728,-52.5 856,-52.5 856,-.5 728,-.5"/>
<text text-anchor="start" x="736" y="-40.5" font-family="Helvetica,sans-Serif" font-size="10.00" fill="#000000">/home/travis/build</text>
<text text-anchor="start" x="736" y="-29.5" font-family="Helvetica,sans-Serif" font-size="10.00" fill="#000000">/AliceO2Group/AliceO2</text>
<text text-anchor="start" x="736" y="-18.5" font-family="Helvetica,sans-Serif" font-size="10.00" fill="#000000">/Analysis/Tasks/PWGLF</text>
<text text-anchor="middle" x="792" y="-7.5" font-family="Helvetica,sans-Serif" font-size="10.00" fill="#000000">/cascadeconsumer.cxx</text>
</a>
</g>
</g>
<!-- Node66&#45;&gt;Node71 -->
<g id="edge5" class="edge">
<title>Node66&#45;&gt;Node71</title>
<path fill="none" stroke="#191970" d="M937.2476,-85.5276C910.9803,-74.8527 881.6303,-62.9251 856.2263,-52.6011"/>
<polygon fill="#191970" stroke="#191970" points="936.1906,-88.8759 946.7725,-89.3984 938.826,-82.391 936.1906,-88.8759"/>
</g>
<!-- Node72 -->
<g id="node7" class="node">
<title>Node72</title>
<g id="a_node7"><a xlink:href="../../d0/dd5/cascadefinder_8cxx.html" target="_top" xlink:title="/home/travis/build\l/AliceO2Group/AliceO2\l/Analysis/Tasks/PWGLF\l/cascadefinder.cxx">
<polygon fill="none" stroke="#000000" points="874,-.5 874,-52.5 1002,-52.5 1002,-.5 874,-.5"/>
<text text-anchor="start" x="882" y="-40.5" font-family="Helvetica,sans-Serif" font-size="10.00" fill="#000000">/home/travis/build</text>
<text text-anchor="start" x="882" y="-29.5" font-family="Helvetica,sans-Serif" font-size="10.00" fill="#000000">/AliceO2Group/AliceO2</text>
<text text-anchor="start" x="882" y="-18.5" font-family="Helvetica,sans-Serif" font-size="10.00" fill="#000000">/Analysis/Tasks/PWGLF</text>
<text text-anchor="middle" x="938" y="-7.5" font-family="Helvetica,sans-Serif" font-size="10.00" fill="#000000">/cascadefinder.cxx</text>
</a>
</g>
</g>
<!-- Node66&#45;&gt;Node72 -->
<g id="edge6" class="edge">
<title>Node66&#45;&gt;Node72</title>
<path fill="none" stroke="#191970" d="M983.0537,-81.4285C975.1903,-71.8416 966.7656,-61.5704 959.3539,-52.5341"/>
<polygon fill="#191970" stroke="#191970" points="980.4444,-83.7662 989.4924,-89.2784 985.8567,-79.3269 980.4444,-83.7662"/>
</g>
<!-- Node73 -->
<g id="node8" class="node">
<title>Node73</title>
<g id="a_node8"><a xlink:href="../../d1/db8/cascadeproducer_8cxx.html" target="_top" xlink:title="/home/travis/build\l/AliceO2Group/AliceO2\l/Analysis/Tasks/PWGLF\l/cascadeproducer.cxx">
<polygon fill="none" stroke="#000000" points="1020,-.5 1020,-52.5 1148,-52.5 1148,-.5 1020,-.5"/>
<text text-anchor="start" x="1028" y="-40.5" font-family="Helvetica,sans-Serif" font-size="10.00" fill="#000000">/home/travis/build</text>
<text text-anchor="start" x="1028" y="-29.5" font-family="Helvetica,sans-Serif" font-size="10.00" fill="#000000">/AliceO2Group/AliceO2</text>
<text text-anchor="start" x="1028" y="-18.5" font-family="Helvetica,sans-Serif" font-size="10.00" fill="#000000">/Analysis/Tasks/PWGLF</text>
<text text-anchor="middle" x="1084" y="-7.5" font-family="Helvetica,sans-Serif" font-size="10.00" fill="#000000">/cascadeproducer.cxx</text>
</a>
</g>
</g>
<!-- Node66&#45;&gt;Node73 -->
<g id="edge7" class="edge">
<title>Node66&#45;&gt;Node73</title>
<path fill="none" stroke="#191970" d="M1038.9463,-81.4285C1046.8097,-71.8416 1055.2344,-61.5704 1062.6461,-52.5341"/>
<polygon fill="#191970" stroke="#191970" points="1036.1433,-79.3269 1032.5076,-89.2784 1041.5556,-83.7662 1036.1433,-79.3269"/>
</g>
<!-- Node74 -->
<g id="node9" class="node">
<title>Node74</title>
<g id="a_node9"><a xlink:href="../../d4/d77/lambdakzeroconsumer_8cxx.html" target="_top" xlink:title="/home/travis/build\l/AliceO2Group/AliceO2\l/Analysis/Tasks/PWGLF\l/lambdakzeroconsumer.cxx">
<polygon fill="none" stroke="#000000" points="1166.5,-.5 1166.5,-52.5 1317.5,-52.5 1317.5,-.5 1166.5,-.5"/>
<text text-anchor="start" x="1174.5" y="-40.5" font-family="Helvetica,sans-Serif" font-size="10.00" fill="#000000">/home/travis/build</text>
<text text-anchor="start" x="1174.5" y="-29.5" font-family="Helvetica,sans-Serif" font-size="10.00" fill="#000000">/AliceO2Group/AliceO2</text>
<text text-anchor="start" x="1174.5" y="-18.5" font-family="Helvetica,sans-Serif" font-size="10.00" fill="#000000">/Analysis/Tasks/PWGLF</text>
<text text-anchor="middle" x="1242" y="-7.5" font-family="Helvetica,sans-Serif" font-size="10.00" fill="#000000">/lambdakzeroconsumer.cxx</text>
</a>
</g>
</g>
<!-- Node66&#45;&gt;Node74 -->
<g id="edge8" class="edge">
<title>Node66&#45;&gt;Node74</title>
<path fill="none" stroke="#191970" d="M1088.4293,-85.6679C1116.2286,-74.9574 1147.3409,-62.9704 1174.2544,-52.6011"/>
<polygon fill="#191970" stroke="#191970" points="1086.8198,-82.5372 1078.7468,-89.3984 1089.3365,-89.0691 1086.8198,-82.5372"/>
</g>
<!-- Node75 -->
<g id="node10" class="node">
<title>Node75</title>
<g id="a_node10"><a xlink:href="../../d5/d6e/lambdakzerofinder_8cxx.html" target="_top" xlink:title="/home/travis/build\l/AliceO2Group/AliceO2\l/Analysis/Tasks/PWGLF\l/lambdakzerofinder.cxx">
<polygon fill="none" stroke="#000000" points="1335.5,-.5 1335.5,-52.5 1466.5,-52.5 1466.5,-.5 1335.5,-.5"/>
<text text-anchor="start" x="1343.5" y="-40.5" font-family="Helvetica,sans-Serif" font-size="10.00" fill="#000000">/home/travis/build</text>
<text text-anchor="start" x="1343.5" y="-29.5" font-family="Helvetica,sans-Serif" font-size="10.00" fill="#000000">/AliceO2Group/AliceO2</text>
<text text-anchor="start" x="1343.5" y="-18.5" font-family="Helvetica,sans-Serif" font-size="10.00" fill="#000000">/Analysis/Tasks/PWGLF</text>
<text text-anchor="middle" x="1401" y="-7.5" font-family="Helvetica,sans-Serif" font-size="10.00" fill="#000000">/lambdakzerofinder.cxx</text>
</a>
</g>
</g>
<!-- Node66&#45;&gt;Node75 -->
<g id="edge9" class="edge">
<title>Node66&#45;&gt;Node75</title>
<path fill="none" stroke="#191970" d="M1089.2624,-103.3528C1153.6738,-92.562 1247.0518,-75.0895 1327,-53 1329.7622,-52.2368 1332.5692,-51.4205 1335.395,-50.5649"/>
<polygon fill="#191970" stroke="#191970" points="1088.4715,-99.9362 1079.1799,-105.027 1089.6182,-106.8416 1088.4715,-99.9362"/>
</g>
<!-- Node76 -->
<g id="node11" class="node">
<title>Node76</title>
<g id="a_node11"><a xlink:href="../../d6/d2a/lambdakzeroproducer_8cxx.html" target="_top" xlink:title="/home/travis/build\l/AliceO2Group/AliceO2\l/Analysis/Tasks/PWGLF\l/lambdakzeroproducer.cxx">
<polygon fill="none" stroke="#000000" points="1485,-.5 1485,-52.5 1631,-52.5 1631,-.5 1485,-.5"/>
<text text-anchor="start" x="1493" y="-40.5" font-family="Helvetica,sans-Serif" font-size="10.00" fill="#000000">/home/travis/build</text>
<text text-anchor="start" x="1493" y="-29.5" font-family="Helvetica,sans-Serif" font-size="10.00" fill="#000000">/AliceO2Group/AliceO2</text>
<text text-anchor="start" x="1493" y="-18.5" font-family="Helvetica,sans-Serif" font-size="10.00" fill="#000000">/Analysis/Tasks/PWGLF</text>
<text text-anchor="middle" x="1558" y="-7.5" font-family="Helvetica,sans-Serif" font-size="10.00" fill="#000000">/lambdakzeroproducer.cxx</text>
</a>
</g>
</g>
<!-- Node66&#45;&gt;Node76 -->
<g id="edge10" class="edge">
<title>Node66&#45;&gt;Node76</title>
<path fill="none" stroke="#191970" d="M1089.233,-109.2916C1182.2591,-100.9218 1341.8177,-83.4417 1476,-53 1478.9181,-52.338 1481.8807,-51.6177 1484.863,-50.8522"/>
<polygon fill="#191970" stroke="#191970" points="1088.7079,-105.8243 1079.0565,-110.1946 1089.3267,-112.7969 1088.7079,-105.8243"/>
</g>
<!-- Node77 -->
<g id="node12" class="node">
<title>Node77</title>
<g id="a_node12"><a xlink:href="../../d4/d30/trackextension_8cxx.html" target="_top" xlink:title="/home/travis/build\l/AliceO2Group/AliceO2\l/Analysis/Tasks/trackextension.cxx">
<polygon fill="none" stroke="#000000" points="1649.5,-6 1649.5,-47 1836.5,-47 1836.5,-6 1649.5,-6"/>
<text text-anchor="start" x="1657.5" y="-35" font-family="Helvetica,sans-Serif" font-size="10.00" fill="#000000">/home/travis/build</text>
<text text-anchor="start" x="1657.5" y="-24" font-family="Helvetica,sans-Serif" font-size="10.00" fill="#000000">/AliceO2Group/AliceO2</text>
<text text-anchor="middle" x="1743" y="-13" font-family="Helvetica,sans-Serif" font-size="10.00" fill="#000000">/Analysis/Tasks/trackextension.cxx</text>
</a>
</g>
</g>
<!-- Node66&#45;&gt;Node77 -->
<g id="edge11" class="edge">
<title>Node66&#45;&gt;Node77</title>
<path fill="none" stroke="#191970" d="M1089.5738,-111.5567C1209.1531,-104.687 1443.6599,-87.8016 1640,-53 1649.3632,-51.3404 1659.1275,-49.276 1668.7528,-47.0369"/>
<polygon fill="#191970" stroke="#191970" points="1089.2009,-108.0721 1079.4148,-112.132 1089.5968,-115.0609 1089.2009,-108.0721"/>
</g>
<!-- Node78 -->
<g id="node13" class="node">
<title>Node78</title>
<g id="a_node13"><a xlink:href="../../db/d90/trackselection_8cxx.html" target="_top" xlink:title="/home/travis/build\l/AliceO2Group/AliceO2\l/Analysis/Tasks/trackselection.cxx">
<polygon fill="none" stroke="#000000" points="1854.5,-6 1854.5,-47 2037.5,-47 2037.5,-6 1854.5,-6"/>
<text text-anchor="start" x="1862.5" y="-35" font-family="Helvetica,sans-Serif" font-size="10.00" fill="#000000">/home/travis/build</text>
<text text-anchor="start" x="1862.5" y="-24" font-family="Helvetica,sans-Serif" font-size="10.00" fill="#000000">/AliceO2Group/AliceO2</text>
<text text-anchor="middle" x="1946" y="-13" font-family="Helvetica,sans-Serif" font-size="10.00" fill="#000000">/Analysis/Tasks/trackselection.cxx</text>
</a>
</g>
</g>
<!-- Node66&#45;&gt;Node78 -->
<g id="edge12" class="edge">
<title>Node66&#45;&gt;Node78</title>
<path fill="none" stroke="#191970" d="M1089.5401,-114.4339C1238.2155,-111.3545 1570.5667,-99.3953 1846,-53 1855.4753,-51.4039 1865.3577,-49.3176 1875.0631,-47.0156"/>
<polygon fill="#191970" stroke="#191970" points="1089.0845,-110.9422 1079.1562,-114.6406 1089.2239,-117.9408 1089.0845,-110.9422"/>
</g>
</g>
</svg>
