<?xml version="1.0" encoding="UTF-8" standalone="no"?>
<!DOCTYPE svg PUBLIC "-//W3C//DTD SVG 1.1//EN"
 "http://www.w3.org/Graphics/SVG/1.1/DTD/svg11.dtd">
<!-- Generated by graphviz version 2.40.1 (20161225.0304)
 -->
<!-- Title: /home/travis/build/AliceO2Group/AliceO2/Detectors/TPC/base/src/DigitPos.cxx Pages: 1 -->
<!--zoomable 520 -->
<svg id="main" version="1.1" xmlns="http://www.w3.org/2000/svg" xmlns:xlink="http://www.w3.org/1999/xlink" xml:space="preserve" onload="init(evt)">
<style type="text/css"><![CDATA[
.edge:hover path { stroke: red; }
.edge:hover polygon { stroke: red; fill: red; }
]]></style>
<script type="text/javascript"><![CDATA[
var edges = document.getElementsByTagName('g');
if (edges && edges.length) {
  for (var i=0;i<edges.length;i++) {
    if (edges[i].id.substr(0,4)=='edge') {
      edges[i].setAttribute('class','edge');
    }
  }
}
]]></script>
        <defs>
                <circle id="rim" cx="0" cy="0" r="7"/>
                <circle id="rim2" cx="0" cy="0" r="3.5"/>
                <g id="zoomPlus">
                        <use xlink:href="#rim" fill="#404040">
                                <set attributeName="fill" to="#808080" begin="zoomplus.mouseover" end="zoomplus.mouseout"/>
                        </use>
                        <path d="M-4,0h8M0,-4v8" fill="none" stroke="white" stroke-width="1.5" pointer-events="none"/>
                </g>
                <g id="zoomMin">
                        <use xlink:href="#rim" fill="#404040">
                                <set attributeName="fill" to="#808080" begin="zoomminus.mouseover" end="zoomminus.mouseout"/>
                        </use>
                        <path d="M-4,0h8" fill="none" stroke="white" stroke-width="1.5" pointer-events="none"/>
                </g>
                <g id="dirArrow">
                        <path fill="none" stroke="white" stroke-width="1.5" d="M0,-3.0v7 M-2.5,-0.5L0,-3.0L2.5,-0.5"/>
                </g>
               <g id="resetDef">
                       <use xlink:href="#rim2" fill="#404040">
                               <set attributeName="fill" to="#808080" begin="reset.mouseover" end="reset.mouseout"/>
                       </use>
               </g>
        </defs>

<script type="text/javascript">
var viewWidth = 1570;
var viewHeight = 520;
var sectionId = 'dynsection-0';
</script>
<script xlink:href="../../svgpan.js"/>
<svg id="graph" class="graph">
<g id="viewport">
<title>/home/travis/build/AliceO2Group/AliceO2/Detectors/TPC/base/src/DigitPos.cxx</title>
<!-- Node0 -->
<g id="node1" class="node">
<title>Node0</title>
<polygon fill="#bfbfbf" stroke="#000000" points="719,-459.5 719,-511.5 851,-511.5 851,-459.5 719,-459.5"/>
<text text-anchor="start" x="727" y="-499.5" font-family="Helvetica,sans-Serif" font-size="10.00" fill="#000000">/home/travis/build</text>
<text text-anchor="start" x="727" y="-488.5" font-family="Helvetica,sans-Serif" font-size="10.00" fill="#000000">/AliceO2Group/AliceO2</text>
<text text-anchor="start" x="727" y="-477.5" font-family="Helvetica,sans-Serif" font-size="10.00" fill="#000000">/Detectors/TPC/base/src</text>
<text text-anchor="middle" x="785" y="-466.5" font-family="Helvetica,sans-Serif" font-size="10.00" fill="#000000">/DigitPos.cxx</text>
</g>
<!-- Node1 -->
<g id="node2" class="node">
<title>Node1</title>
<g id="a_node2"><a xlink:href="../../d3/d54/DigitPos_8h.html" target="_top" xlink:title="TPCBase/DigitPos.h">
<polygon fill="none" stroke="#000000" points="512,-347.5 512,-366.5 624,-366.5 624,-347.5 512,-347.5"/>
<text text-anchor="middle" x="568" y="-354.5" font-family="Helvetica,sans-Serif" font-size="10.00" fill="#000000">TPCBase/DigitPos.h</text>
</a>
</g>
</g>
<!-- Node0&#45;&gt;Node1 -->
<g id="edge1" class="edge">
<title>Node0&#45;&gt;Node1</title>
<path fill="none" stroke="#191970" d="M741.0868,-459.4961C696.5224,-433.1066 629.1023,-393.1827 592.9662,-371.7841"/>
<polygon fill="#191970" stroke="#191970" points="594.4546,-368.5979 584.0667,-366.5142 590.8879,-374.6211 594.4546,-368.5979"/>
</g>
<!-- Node22 -->
<g id="node23" class="node">
<title>Node22</title>
<g id="a_node23"><a xlink:href="../../d5/d1d/TPC_2base_2include_2TPCBase_2Mapper_8h.html" target="_top" xlink:title="TPCBase/Mapper.h">
<polygon fill="none" stroke="#000000" points="924.5,-403.5 924.5,-422.5 1031.5,-422.5 1031.5,-403.5 924.5,-403.5"/>
<text text-anchor="middle" x="978" y="-410.5" font-family="Helvetica,sans-Serif" font-size="10.00" fill="#000000">TPCBase/Mapper.h</text>
</a>
</g>
</g>
<!-- Node0&#45;&gt;Node22 -->
<g id="edge28" class="edge">
<title>Node0&#45;&gt;Node22</title>
<path fill="none" stroke="#191970" d="M851.1496,-460.651C881.9761,-449.0711 917.403,-435.7631 942.969,-426.1593"/>
<polygon fill="#191970" stroke="#191970" points="944.4645,-429.3364 952.595,-422.5433 942.0029,-422.7835 944.4645,-429.3364"/>
</g>
<!-- Node2 -->
<g id="node3" class="node">
<title>Node2</title>
<g id="a_node3"><a xlink:href="../../d1/d73/Defs_8h.html" target="_top" xlink:title="DataFormatsTPC/Defs.h">
<polygon fill="none" stroke="#000000" points="634.5,-123.5 634.5,-142.5 767.5,-142.5 767.5,-123.5 634.5,-123.5"/>
<text text-anchor="middle" x="701" y="-130.5" font-family="Helvetica,sans-Serif" font-size="10.00" fill="#000000">DataFormatsTPC/Defs.h</text>
</a>
</g>
</g>
<!-- Node1&#45;&gt;Node2 -->
<g id="edge2" class="edge">
<title>Node1&#45;&gt;Node2</title>
<path fill="none" stroke="#191970" d="M511.8805,-350.714C463.144,-343.9622 397.9423,-331.3653 382,-311 353.902,-275.1065 305.4088,-275.9872 419,-179 434.4796,-165.7831 546.0278,-150.6053 624.0955,-141.4139"/>
<polygon fill="#191970" stroke="#191970" points="624.8693,-144.8475 634.3966,-140.2128 624.0585,-137.8946 624.8693,-144.8475"/>
</g>
<!-- Node16 -->
<g id="node17" class="node">
<title>Node16</title>
<g id="a_node17"><a xlink:href="../../df/d26/CRU_8h.html" target="_top" xlink:title="TPCBase/CRU.h">
<polygon fill="none" stroke="#000000" points="391,-291.5 391,-310.5 483,-310.5 483,-291.5 391,-291.5"/>
<text text-anchor="middle" x="437" y="-298.5" font-family="Helvetica,sans-Serif" font-size="10.00" fill="#000000">TPCBase/CRU.h</text>
</a>
</g>
</g>
<!-- Node1&#45;&gt;Node16 -->
<g id="edge16" class="edge">
<title>Node1&#45;&gt;Node16</title>
<path fill="none" stroke="#191970" d="M545.4803,-347.3733C524.2628,-338.3032 492.2724,-324.6279 468.5231,-314.4755"/>
<polygon fill="#191970" stroke="#191970" points="469.7967,-311.2136 459.2258,-310.5011 467.0452,-317.6502 469.7967,-311.2136"/>
</g>
<!-- Node20 -->
<g id="node21" class="node">
<title>Node20</title>
<g id="a_node21"><a xlink:href="../../de/d41/PadPos_8h.html" target="_top" xlink:title="TPCBase/PadPos.h">
<polygon fill="none" stroke="#000000" points="745,-235.5 745,-254.5 851,-254.5 851,-235.5 745,-235.5"/>
<text text-anchor="middle" x="798" y="-242.5" font-family="Helvetica,sans-Serif" font-size="10.00" fill="#000000">TPCBase/PadPos.h</text>
</a>
</g>
</g>
<!-- Node1&#45;&gt;Node20 -->
<g id="edge24" class="edge">
<title>Node1&#45;&gt;Node20</title>
<path fill="none" stroke="#191970" d="M624.1792,-351.1228C678.5652,-344.3301 755.9369,-331.3939 778,-311 790.7514,-299.2134 795.4738,-279.5987 797.1719,-264.8085"/>
<polygon fill="#191970" stroke="#191970" points="800.6761,-264.8902 797.9639,-254.6484 793.6973,-264.3461 800.6761,-264.8902"/>
</g>
<!-- Node21 -->
<g id="node22" class="node">
<title>Node21</title>
<g id="a_node22"><a xlink:href="../../dd/d0b/PadSecPos_8h.html" target="_top" xlink:title="TPCBase/PadSecPos.h">
<polygon fill="none" stroke="#000000" points="501.5,-291.5 501.5,-310.5 624.5,-310.5 624.5,-291.5 501.5,-291.5"/>
<text text-anchor="middle" x="563" y="-298.5" font-family="Helvetica,sans-Serif" font-size="10.00" fill="#000000">TPCBase/PadSecPos.h</text>
</a>
</g>
</g>
<!-- Node1&#45;&gt;Node21 -->
<g id="edge25" class="edge">
<title>Node1&#45;&gt;Node21</title>
<path fill="none" stroke="#191970" d="M567.1291,-347.2455C566.4766,-339.9382 565.562,-329.6944 564.7593,-320.7046"/>
<polygon fill="#191970" stroke="#191970" points="568.2365,-320.2918 563.861,-310.6427 561.2642,-320.9143 568.2365,-320.2918"/>
</g>
<!-- Node3 -->
<g id="node4" class="node">
<title>Node3</title>
<polygon fill="none" stroke="#bfbfbf" points="1104.5,-67.5 1104.5,-86.5 1151.5,-86.5 1151.5,-67.5 1104.5,-67.5"/>
<text text-anchor="middle" x="1128" y="-74.5" font-family="Helvetica,sans-Serif" font-size="10.00" fill="#000000">cmath</text>
</g>
<!-- Node2&#45;&gt;Node3 -->
<g id="edge3" class="edge">
<title>Node2&#45;&gt;Node3</title>
<path fill="none" stroke="#191970" d="M767.7188,-124.25C860.0843,-112.1365 1023.4891,-90.7063 1094.0218,-81.4562"/>
<polygon fill="#191970" stroke="#191970" points="1094.6677,-84.9015 1104.1277,-80.1308 1093.7574,-77.9609 1094.6677,-84.9015"/>
</g>
<!-- Node4 -->
<g id="node5" class="node">
<title>Node4</title>
<g id="a_node5"><a xlink:href="../../d1/da8/GPUROOTCartesianFwd_8h.html" target="_top" xlink:title="GPUROOTCartesianFwd.h">
<polygon fill="none" stroke="#000000" points="625,-67.5 625,-86.5 765,-86.5 765,-67.5 625,-67.5"/>
<text text-anchor="middle" x="695" y="-74.5" font-family="Helvetica,sans-Serif" font-size="10.00" fill="#000000">GPUROOTCartesianFwd.h</text>
</a>
</g>
</g>
<!-- Node2&#45;&gt;Node4 -->
<g id="edge4" class="edge">
<title>Node2&#45;&gt;Node4</title>
<path fill="none" stroke="#191970" d="M699.9549,-123.2455C699.172,-115.9382 698.0744,-105.6944 697.1112,-96.7046"/>
<polygon fill="#191970" stroke="#191970" points="700.5786,-96.2129 696.0331,-86.6427 693.6185,-96.9587 700.5786,-96.2129"/>
</g>
<!-- Node5 -->
<g id="node6" class="node">
<title>Node5</title>
<g id="a_node6"><a xlink:href="../../dc/d73/Cartesian_8h.html" target="_top" xlink:title="MathUtils/Cartesian.h">
<polygon fill="none" stroke="#000000" points="783,-67.5 783,-86.5 905,-86.5 905,-67.5 783,-67.5"/>
<text text-anchor="middle" x="844" y="-74.5" font-family="Helvetica,sans-Serif" font-size="10.00" fill="#000000">MathUtils/Cartesian.h</text>
</a>
</g>
</g>
<!-- Node2&#45;&gt;Node5 -->
<g id="edge5" class="edge">
<title>Node2&#45;&gt;Node5</title>
<path fill="none" stroke="#191970" d="M725.5826,-123.3733C748.9496,-114.2226 784.2862,-100.3844 810.2784,-90.2057"/>
<polygon fill="#191970" stroke="#191970" points="811.703,-93.4066 819.7382,-86.5011 809.1505,-86.8886 811.703,-93.4066"/>
</g>
<!-- Node6 -->
<g id="node7" class="node">
<title>Node6</title>
<polygon fill="none" stroke="#bfbfbf" points="567,-.5 567,-30.5 731,-30.5 731,-.5 567,-.5"/>
<text text-anchor="start" x="575" y="-18.5" font-family="Helvetica,sans-Serif" font-size="10.00" fill="#000000">Math/GenVector/Displacement</text>
<text text-anchor="middle" x="649" y="-7.5" font-family="Helvetica,sans-Serif" font-size="10.00" fill="#000000">Vector3D.h</text>
</g>
<!-- Node5&#45;&gt;Node6 -->
<g id="edge6" class="edge">
<title>Node5&#45;&gt;Node6</title>
<path fill="none" stroke="#191970" d="M813.5313,-67.3906C784.9411,-58.3737 741.447,-44.6563 706.3572,-33.5896"/>
<polygon fill="#191970" stroke="#191970" points="707.2921,-30.2145 696.7024,-30.5446 705.1866,-36.8904 707.2921,-30.2145"/>
</g>
<!-- Node7 -->
<g id="node8" class="node">
<title>Node7</title>
<polygon fill="none" stroke="#bfbfbf" points="749.5,-6 749.5,-25 938.5,-25 938.5,-6 749.5,-6"/>
<text text-anchor="middle" x="844" y="-13" font-family="Helvetica,sans-Serif" font-size="10.00" fill="#000000">Math/GenVector/PositionVector3D.h</text>
</g>
<!-- Node5&#45;&gt;Node7 -->
<g id="edge7" class="edge">
<title>Node5&#45;&gt;Node7</title>
<path fill="none" stroke="#191970" d="M844,-67.3906C844,-58.8657 844,-46.1392 844,-35.4235"/>
<polygon fill="#191970" stroke="#191970" points="847.5001,-35.2448 844,-25.2449 840.5001,-35.2449 847.5001,-35.2448"/>
</g>
<!-- Node8 -->
<g id="node9" class="node">
<title>Node8</title>
<polygon fill="none" stroke="#bfbfbf" points="957,-6 957,-25 1117,-25 1117,-6 957,-6"/>
<text text-anchor="middle" x="1037" y="-13" font-family="Helvetica,sans-Serif" font-size="10.00" fill="#000000">Math/GenVector/Rotation3D.h</text>
</g>
<!-- Node5&#45;&gt;Node8 -->
<g id="edge8" class="edge">
<title>Node5&#45;&gt;Node8</title>
<path fill="none" stroke="#191970" d="M874.1563,-67.3906C907.2985,-56.8298 960.6762,-39.8208 997.2242,-28.1747"/>
<polygon fill="#191970" stroke="#191970" points="998.5902,-31.4129 1007.0555,-25.0419 996.4649,-24.7433 998.5902,-31.4129"/>
</g>
<!-- Node9 -->
<g id="node10" class="node">
<title>Node9</title>
<polygon fill="none" stroke="#bfbfbf" points="1135,-6 1135,-25 1303,-25 1303,-6 1135,-6"/>
<text text-anchor="middle" x="1219" y="-13" font-family="Helvetica,sans-Serif" font-size="10.00" fill="#000000">Math/GenVector/Transform3D.h</text>
</g>
<!-- Node5&#45;&gt;Node9 -->
<g id="edge9" class="edge">
<title>Node5&#45;&gt;Node9</title>
<path fill="none" stroke="#191970" d="M902.6103,-67.4999C959.6555,-58.2393 1048.7901,-43.7314 1126,-31 1134.3579,-29.6218 1143.137,-28.1675 1151.8256,-26.724"/>
<polygon fill="#191970" stroke="#191970" points="1152.6627,-30.133 1161.953,-25.0398 1151.5142,-23.2278 1152.6627,-30.133"/>
</g>
<!-- Node10 -->
<g id="node11" class="node">
<title>Node10</title>
<polygon fill="none" stroke="#bfbfbf" points="1321.5,-6 1321.5,-25 1494.5,-25 1494.5,-6 1321.5,-6"/>
<text text-anchor="middle" x="1408" y="-13" font-family="Helvetica,sans-Serif" font-size="10.00" fill="#000000">Math/GenVector/Translation3D.h</text>
</g>
<!-- Node5&#45;&gt;Node10 -->
<g id="edge10" class="edge">
<title>Node5&#45;&gt;Node10</title>
<path fill="none" stroke="#191970" d="M905.0912,-72.2137C994.577,-64.9268 1166.4692,-49.8822 1312,-31 1321.9197,-29.7129 1332.3901,-28.1914 1342.625,-26.6128"/>
<polygon fill="#191970" stroke="#191970" points="1343.4165,-30.0314 1352.7521,-25.0217 1342.3301,-23.1162 1343.4165,-30.0314"/>
</g>
<!-- Node11 -->
<g id="node12" class="node">
<title>Node11</title>
<polygon fill="none" stroke="#bfbfbf" points="0,-.5 0,-30.5 164,-30.5 164,-.5 0,-.5"/>
<text text-anchor="start" x="8" y="-18.5" font-family="Helvetica,sans-Serif" font-size="10.00" fill="#000000">Math/GenVector/Displacement</text>
<text text-anchor="middle" x="82" y="-7.5" font-family="Helvetica,sans-Serif" font-size="10.00" fill="#000000">Vector2D.h</text>
</g>
<!-- Node5&#45;&gt;Node11 -->
<g id="edge11" class="edge">
<title>Node5&#45;&gt;Node11</title>
<path fill="none" stroke="#191970" d="M782.9527,-67.9781C779.9282,-67.6256 776.9313,-67.2967 774,-67 511.02,-40.3848 440.5569,-60.9943 174.246,-31.0611"/>
<polygon fill="#191970" stroke="#191970" points="174.6139,-27.5805 164.2825,-29.928 173.8229,-34.5356 174.6139,-27.5805"/>
</g>
<!-- Node12 -->
<g id="node13" class="node">
<title>Node12</title>
<polygon fill="none" stroke="#bfbfbf" points="182.5,-6 182.5,-25 371.5,-25 371.5,-6 182.5,-6"/>
<text text-anchor="middle" x="277" y="-13" font-family="Helvetica,sans-Serif" font-size="10.00" fill="#000000">Math/GenVector/PositionVector2D.h</text>
</g>
<!-- Node5&#45;&gt;Node12 -->
<g id="edge12" class="edge">
<title>Node5&#45;&gt;Node12</title>
<path fill="none" stroke="#191970" d="M782.9404,-68.091C779.9192,-67.7086 776.9263,-67.3425 774,-67 599.3515,-46.5596 554.5709,-52.0924 380,-31 369.1414,-29.688 357.6642,-28.1308 346.4668,-26.5173"/>
<polygon fill="#191970" stroke="#191970" points="346.6899,-23.0127 336.288,-25.0253 345.6746,-29.9387 346.6899,-23.0127"/>
</g>
<!-- Node13 -->
<g id="node14" class="node">
<title>Node13</title>
<polygon fill="none" stroke="#bfbfbf" points="389.5,-6 389.5,-25 448.5,-25 448.5,-6 389.5,-6"/>
<text text-anchor="middle" x="419" y="-13" font-family="Helvetica,sans-Serif" font-size="10.00" fill="#000000">Rtypes.h</text>
</g>
<!-- Node5&#45;&gt;Node13 -->
<g id="edge13" class="edge">
<title>Node5&#45;&gt;Node13</title>
<path fill="none" stroke="#191970" d="M782.9305,-68.1714C779.9119,-67.7678 776.9223,-67.3751 774,-67 633.7975,-49.003 595.102,-65.4046 458,-31 455.2174,-30.3017 452.3682,-29.4516 449.5386,-28.5128"/>
<polygon fill="#191970" stroke="#191970" points="450.7135,-25.2158 440.1196,-25.0714 448.3111,-31.7907 450.7135,-25.2158"/>
</g>
<!-- Node14 -->
<g id="node15" class="node">
<title>Node14</title>
<polygon fill="none" stroke="#bfbfbf" points="467,-6 467,-25 549,-25 549,-6 467,-6"/>
<text text-anchor="middle" x="508" y="-13" font-family="Helvetica,sans-Serif" font-size="10.00" fill="#000000">TGeoMatrix.h</text>
</g>
<!-- Node5&#45;&gt;Node14 -->
<g id="edge14" class="edge">
<title>Node5&#45;&gt;Node14</title>
<path fill="none" stroke="#191970" d="M782.9482,-68.214C712.0842,-57.8338 599.6212,-40.7471 558,-31 554.1287,-30.0934 550.1203,-29.044 546.1347,-27.927"/>
<polygon fill="#191970" stroke="#191970" points="546.9468,-24.5177 536.3656,-25.0543 544.972,-31.2334 546.9468,-24.5177"/>
</g>
<!-- Node15 -->
<g id="node16" class="node">
<title>Node15</title>
<polygon fill="none" stroke="#bfbfbf" points="1512.5,-6 1512.5,-25 1561.5,-25 1561.5,-6 1512.5,-6"/>
<text text-anchor="middle" x="1537" y="-13" font-family="Helvetica,sans-Serif" font-size="10.00" fill="#000000">iosfwd</text>
</g>
<!-- Node5&#45;&gt;Node15 -->
<g id="edge15" class="edge">
<title>Node5&#45;&gt;Node15</title>
<path fill="none" stroke="#191970" d="M905.0832,-74.0279C1057.6001,-66.4242 1446.9927,-45.8207 1504,-31 1505.9756,-30.4864 1507.9772,-29.8562 1509.9669,-29.1469"/>
<polygon fill="#191970" stroke="#191970" points="1511.756,-32.1931 1519.6401,-25.1156 1509.0632,-25.7318 1511.756,-32.1931"/>
</g>
<!-- Node16&#45;&gt;Node2 -->
<g id="edge17" class="edge">
<title>Node16&#45;&gt;Node2</title>
<path fill="none" stroke="#191970" d="M451.9502,-291.4862C495.7728,-263.5991 624.1686,-181.8927 677.4284,-148.0001"/>
<polygon fill="#191970" stroke="#191970" points="679.329,-150.9393 685.8865,-142.6177 675.5708,-145.0336 679.329,-150.9393"/>
</g>
<!-- Node17 -->
<g id="node18" class="node">
<title>Node17</title>
<g id="a_node18"><a xlink:href="../../d3/dd6/Sector_8h.html" target="_top" xlink:title="TPCBase/Sector.h">
<polygon fill="none" stroke="#000000" points="428.5,-179.5 428.5,-198.5 529.5,-198.5 529.5,-179.5 428.5,-179.5"/>
<text text-anchor="middle" x="479" y="-186.5" font-family="Helvetica,sans-Serif" font-size="10.00" fill="#000000">TPCBase/Sector.h</text>
</a>
</g>
</g>
<!-- Node16&#45;&gt;Node17 -->
<g id="edge18" class="edge">
<title>Node16&#45;&gt;Node17</title>
<path fill="none" stroke="#191970" d="M440.5809,-291.4509C447.493,-273.0186 462.7905,-232.2254 471.8589,-208.043"/>
<polygon fill="#191970" stroke="#191970" points="475.194,-209.1171 475.4282,-198.5249 468.6397,-206.6592 475.194,-209.1171"/>
</g>
<!-- Node19 -->
<g id="node20" class="node">
<title>Node19</title>
<g id="a_node20"><a xlink:href="../../dc/d14/ROC_8h.html" target="_top" xlink:title="TPCBase/ROC.h">
<polygon fill="none" stroke="#000000" points="586,-235.5 586,-254.5 678,-254.5 678,-235.5 586,-235.5"/>
<text text-anchor="middle" x="632" y="-242.5" font-family="Helvetica,sans-Serif" font-size="10.00" fill="#000000">TPCBase/ROC.h</text>
</a>
</g>
</g>
<!-- Node16&#45;&gt;Node19 -->
<g id="edge21" class="edge">
<title>Node16&#45;&gt;Node19</title>
<path fill="none" stroke="#191970" d="M470.5217,-291.3733C503.3683,-281.9404 553.5595,-267.5265 589.2578,-257.2747"/>
<polygon fill="#191970" stroke="#191970" points="590.2703,-260.6255 598.9157,-254.5011 588.3381,-253.8974 590.2703,-260.6255"/>
</g>
<!-- Node17&#45;&gt;Node2 -->
<g id="edge20" class="edge">
<title>Node17&#45;&gt;Node2</title>
<path fill="none" stroke="#191970" d="M516.9109,-179.4369C554.665,-169.9133 612.7265,-155.2672 653.5264,-144.9753"/>
<polygon fill="#191970" stroke="#191970" points="654.4053,-148.3633 663.2454,-142.5237 652.6931,-141.576 654.4053,-148.3633"/>
</g>
<!-- Node18 -->
<g id="node19" class="node">
<title>Node18</title>
<g id="a_node19"><a xlink:href="../../d0/dda/DataFormats_2Detectors_2TPC_2include_2DataFormatsTPC_2Constants_8h.html" target="_top" xlink:title="DataFormatsTPC/Constants.h">
<polygon fill="none" stroke="#000000" points="399.5,-123.5 399.5,-142.5 558.5,-142.5 558.5,-123.5 399.5,-123.5"/>
<text text-anchor="middle" x="479" y="-130.5" font-family="Helvetica,sans-Serif" font-size="10.00" fill="#000000">DataFormatsTPC/Constants.h</text>
</a>
</g>
</g>
<!-- Node17&#45;&gt;Node18 -->
<g id="edge19" class="edge">
<title>Node17&#45;&gt;Node18</title>
<path fill="none" stroke="#191970" d="M479,-179.2455C479,-171.9382 479,-161.6944 479,-152.7046"/>
<polygon fill="#191970" stroke="#191970" points="482.5001,-152.6426 479,-142.6427 475.5001,-152.6427 482.5001,-152.6426"/>
</g>
<!-- Node19&#45;&gt;Node2 -->
<g id="edge22" class="edge">
<title>Node19&#45;&gt;Node2</title>
<path fill="none" stroke="#191970" d="M637.8829,-235.4509C649.3913,-216.7707 675.0488,-175.1238 689.8638,-151.0761"/>
<polygon fill="#191970" stroke="#191970" points="692.8666,-152.8747 695.132,-142.5249 686.9068,-149.203 692.8666,-152.8747"/>
</g>
<!-- Node19&#45;&gt;Node17 -->
<g id="edge23" class="edge">
<title>Node19&#45;&gt;Node17</title>
<path fill="none" stroke="#191970" d="M605.6984,-235.3733C580.5872,-226.1822 542.5562,-212.2624 514.7128,-202.0713"/>
<polygon fill="#191970" stroke="#191970" points="515.5522,-198.6516 504.9584,-198.5011 513.1462,-205.2251 515.5522,-198.6516"/>
</g>
<!-- Node21&#45;&gt;Node17 -->
<g id="edge26" class="edge">
<title>Node21&#45;&gt;Node17</title>
<path fill="none" stroke="#191970" d="M555.8382,-291.4509C541.766,-272.688 510.3161,-230.7548 492.3185,-206.758"/>
<polygon fill="#191970" stroke="#191970" points="494.9437,-204.4249 486.1437,-198.5249 489.3437,-208.6249 494.9437,-204.4249"/>
</g>
<!-- Node21&#45;&gt;Node20 -->
<g id="edge27" class="edge">
<title>Node21&#45;&gt;Node20</title>
<path fill="none" stroke="#191970" d="M603.1309,-291.4369C643.2649,-281.8731 705.0775,-267.1432 748.2933,-256.845"/>
<polygon fill="#191970" stroke="#191970" points="749.1183,-260.2465 758.0346,-254.5237 747.4956,-253.4372 749.1183,-260.2465"/>
</g>
<!-- Node22&#45;&gt;Node1 -->
<g id="edge41" class="edge">
<title>Node22&#45;&gt;Node1</title>
<path fill="none" stroke="#191970" d="M924.3997,-405.679C849.879,-395.5005 715.0507,-377.085 634.2984,-366.0554"/>
<polygon fill="#191970" stroke="#191970" points="634.6245,-362.5675 624.2429,-364.682 633.6772,-369.5031 634.6245,-362.5675"/>
</g>
<!-- Node22&#45;&gt;Node2 -->
<g id="edge34" class="edge">
<title>Node22&#45;&gt;Node2</title>
<path fill="none" stroke="#191970" d="M1031.5029,-409.7962C1103.9783,-404.5665 1228.6087,-392.1526 1266,-367 1294.4601,-347.8553 1306,-335.3001 1306,-301 1306,-301 1306,-301 1306,-245 1306,-191.9212 941.2983,-153.7492 778.2111,-139.333"/>
<polygon fill="#191970" stroke="#191970" points="778.0338,-135.8042 767.7664,-138.4179 777.4228,-142.7774 778.0338,-135.8042"/>
</g>
<!-- Node22&#45;&gt;Node3 -->
<g id="edge33" class="edge">
<title>Node22&#45;&gt;Node3</title>
<path fill="none" stroke="#191970" d="M1031.8123,-410.2179C1115.3659,-405.1632 1271.8132,-392.5467 1321,-367 1356.4472,-348.5894 1382,-340.9432 1382,-301 1382,-301 1382,-301 1382,-189 1382,-141.4403 1231.024,-100.6426 1161.8677,-84.4496"/>
<polygon fill="#191970" stroke="#191970" points="1162.4262,-80.9866 1151.8957,-82.1527 1160.8549,-87.808 1162.4262,-80.9866"/>
</g>
<!-- Node22&#45;&gt;Node5 -->
<g id="edge50" class="edge">
<title>Node22&#45;&gt;Node5</title>
<path fill="none" stroke="#191970" d="M1031.6257,-409.9198C1109.3603,-404.6601 1248.7808,-392.0032 1292,-367 1324.3244,-348.2997 1344,-338.3439 1344,-301 1344,-301 1344,-301 1344,-189 1344,-145.6076 1053.5435,-103.2983 915.3887,-85.6282"/>
<polygon fill="#191970" stroke="#191970" points="915.6711,-82.1361 905.3098,-84.3483 914.7892,-89.0803 915.6711,-82.1361"/>
</g>
<!-- Node22&#45;&gt;Node17 -->
<g id="edge49" class="edge">
<title>Node22&#45;&gt;Node17</title>
<path fill="none" stroke="#191970" d="M924.4577,-410.0846C817.5636,-403.8925 581.2599,-388.2382 503,-367 445.8106,-351.4799 413.9111,-360.9318 382,-311 355.6706,-269.8019 414.8307,-225.9834 451.918,-203.767"/>
<polygon fill="#191970" stroke="#191970" points="453.9204,-206.6514 460.8059,-198.599 450.4017,-200.6 453.9204,-206.6514"/>
</g>
<!-- Node22&#45;&gt;Node20 -->
<g id="edge35" class="edge">
<title>Node22&#45;&gt;Node20</title>
<path fill="none" stroke="#191970" d="M924.3515,-409.0756C867.4088,-403.6631 782.9217,-391.6349 763,-367 741.2369,-340.0881 797.8856,-313.6903 799,-311 805.0299,-296.4424 804.2939,-278.4828 802.3205,-264.9753"/>
<polygon fill="#191970" stroke="#191970" points="805.7134,-264.068 800.4932,-254.8485 798.8247,-265.3111 805.7134,-264.068"/>
</g>
<!-- Node22&#45;&gt;Node21 -->
<g id="edge36" class="edge">
<title>Node22&#45;&gt;Node21</title>
<path fill="none" stroke="#191970" d="M924.3668,-407.6454C869.9993,-401.3109 783.8779,-388.7713 712,-367 667.7243,-353.5892 619.2203,-330.3836 589.9531,-315.367"/>
<polygon fill="#191970" stroke="#191970" points="591.287,-312.116 580.7991,-310.6144 588.0614,-318.3286 591.287,-312.116"/>
</g>
<!-- Node23 -->
<g id="node24" class="node">
<title>Node23</title>
<polygon fill="none" stroke="#bfbfbf" points="930,-347.5 930,-366.5 968,-366.5 968,-347.5 930,-347.5"/>
<text text-anchor="middle" x="949" y="-354.5" font-family="Helvetica,sans-Serif" font-size="10.00" fill="#000000">map</text>
</g>
<!-- Node22&#45;&gt;Node23 -->
<g id="edge29" class="edge">
<title>Node22&#45;&gt;Node23</title>
<path fill="none" stroke="#191970" d="M972.9486,-403.2455C968.9981,-395.617 963.3903,-384.7881 958.5942,-375.5267"/>
<polygon fill="#191970" stroke="#191970" points="961.7001,-373.9131 953.9935,-366.6427 955.4841,-377.1321 961.7001,-373.9131"/>
</g>
<!-- Node24 -->
<g id="node25" class="node">
<title>Node24</title>
<polygon fill="none" stroke="#bfbfbf" points="1085.5,-291.5 1085.5,-310.5 1132.5,-310.5 1132.5,-291.5 1085.5,-291.5"/>
<text text-anchor="middle" x="1109" y="-298.5" font-family="Helvetica,sans-Serif" font-size="10.00" fill="#000000">vector</text>
</g>
<!-- Node22&#45;&gt;Node24 -->
<g id="edge30" class="edge">
<title>Node22&#45;&gt;Node24</title>
<path fill="none" stroke="#191970" d="M1031.8085,-407.5825C1106.7946,-399.483 1235.1438,-383.4064 1249,-367 1281.1168,-328.9723 1193.454,-311.4211 1142.538,-304.6239"/>
<polygon fill="#191970" stroke="#191970" points="1142.9484,-301.148 1132.589,-303.369 1142.0724,-308.093 1142.9484,-301.148"/>
</g>
<!-- Node25 -->
<g id="node26" class="node">
<title>Node25</title>
<polygon fill="none" stroke="#bfbfbf" points="986,-347.5 986,-366.5 1028,-366.5 1028,-347.5 986,-347.5"/>
<text text-anchor="middle" x="1007" y="-354.5" font-family="Helvetica,sans-Serif" font-size="10.00" fill="#000000">array</text>
</g>
<!-- Node22&#45;&gt;Node25 -->
<g id="edge31" class="edge">
<title>Node22&#45;&gt;Node25</title>
<path fill="none" stroke="#191970" d="M983.0514,-403.2455C987.0019,-395.617 992.6097,-384.7881 997.4058,-375.5267"/>
<polygon fill="#191970" stroke="#191970" points="1000.5159,-377.1321 1002.0065,-366.6427 994.2999,-373.9131 1000.5159,-377.1321"/>
</g>
<!-- Node26 -->
<g id="node27" class="node">
<title>Node26</title>
<polygon fill="none" stroke="#bfbfbf" points="1046,-347.5 1046,-366.5 1090,-366.5 1090,-347.5 1046,-347.5"/>
<text text-anchor="middle" x="1068" y="-354.5" font-family="Helvetica,sans-Serif" font-size="10.00" fill="#000000">string</text>
</g>
<!-- Node22&#45;&gt;Node26 -->
<g id="edge32" class="edge">
<title>Node22&#45;&gt;Node26</title>
<path fill="none" stroke="#191970" d="M993.6768,-403.2455C1007.4856,-394.6534 1027.8193,-382.0014 1043.7292,-372.1018"/>
<polygon fill="#191970" stroke="#191970" points="1045.8613,-374.8974 1052.5028,-366.6427 1042.1632,-368.954 1045.8613,-374.8974"/>
</g>
<!-- Node27 -->
<g id="node28" class="node">
<title>Node27</title>
<g id="a_node28"><a xlink:href="../../da/d61/PadROCPos_8h.html" target="_top" xlink:title="TPCBase/PadROCPos.h">
<polygon fill="none" stroke="#000000" points="642.5,-291.5 642.5,-310.5 769.5,-310.5 769.5,-291.5 642.5,-291.5"/>
<text text-anchor="middle" x="706" y="-298.5" font-family="Helvetica,sans-Serif" font-size="10.00" fill="#000000">TPCBase/PadROCPos.h</text>
</a>
</g>
</g>
<!-- Node22&#45;&gt;Node27 -->
<g id="edge37" class="edge">
<title>Node22&#45;&gt;Node27</title>
<path fill="none" stroke="#191970" d="M924.4225,-409.2296C860.5136,-403.7014 758.6958,-391.3035 730,-367 716.5064,-355.5718 710.5989,-335.9094 708.0129,-321.0106"/>
<polygon fill="#191970" stroke="#191970" points="711.434,-320.1951 706.6121,-310.7611 704.4985,-321.143 711.434,-320.1951"/>
</g>
<!-- Node28 -->
<g id="node29" class="node">
<title>Node28</title>
<g id="a_node29"><a xlink:href="../../d1/d1f/FECInfo_8h.html" target="_top" xlink:title="TPCBase/FECInfo.h">
<polygon fill="none" stroke="#000000" points="1452,-179.5 1452,-198.5 1560,-198.5 1560,-179.5 1452,-179.5"/>
<text text-anchor="middle" x="1506" y="-186.5" font-family="Helvetica,sans-Serif" font-size="10.00" fill="#000000">TPCBase/FECInfo.h</text>
</a>
</g>
</g>
<!-- Node22&#45;&gt;Node28 -->
<g id="edge42" class="edge">
<title>Node22&#45;&gt;Node28</title>
<path fill="none" stroke="#191970" d="M1031.542,-409.7264C1137.3829,-402.8776 1365.7946,-386.0821 1396,-367 1455.5396,-329.3861 1487.9849,-246.6628 1500.2275,-208.7214"/>
<polygon fill="#191970" stroke="#191970" points="1503.6598,-209.4686 1503.269,-198.881 1496.972,-207.4014 1503.6598,-209.4686"/>
</g>
<!-- Node29 -->
<g id="node30" class="node">
<title>Node29</title>
<g id="a_node30"><a xlink:href="../../da/d9d/PadRegionInfo_8h.html" target="_top" xlink:title="TPCBase/PadRegionInfo.h">
<polygon fill="none" stroke="#000000" points="772,-347.5 772,-366.5 912,-366.5 912,-347.5 772,-347.5"/>
<text text-anchor="middle" x="842" y="-354.5" font-family="Helvetica,sans-Serif" font-size="10.00" fill="#000000">TPCBase/PadRegionInfo.h</text>
</a>
</g>
</g>
<!-- Node22&#45;&gt;Node29 -->
<g id="edge44" class="edge">
<title>Node22&#45;&gt;Node29</title>
<path fill="none" stroke="#191970" d="M954.6208,-403.3733C932.4955,-394.2629 899.0866,-380.5062 874.3981,-370.3404"/>
<polygon fill="#191970" stroke="#191970" points="875.6536,-367.0723 865.0742,-366.5011 872.9883,-373.5451 875.6536,-367.0723"/>
</g>
<!-- Node30 -->
<g id="node31" class="node">
<title>Node30</title>
<g id="a_node31"><a xlink:href="../../d6/d42/PartitionInfo_8h.html" target="_top" xlink:title="TPCBase/PartitionInfo.h">
<polygon fill="none" stroke="#000000" points="1108.5,-347.5 1108.5,-366.5 1239.5,-366.5 1239.5,-347.5 1108.5,-347.5"/>
<text text-anchor="middle" x="1174" y="-354.5" font-family="Helvetica,sans-Serif" font-size="10.00" fill="#000000">TPCBase/PartitionInfo.h</text>
</a>
</g>
</g>
<!-- Node22&#45;&gt;Node30 -->
<g id="edge48" class="edge">
<title>Node22&#45;&gt;Node30</title>
<path fill="none" stroke="#191970" d="M1011.6936,-403.3733C1044.7087,-393.9404 1095.1573,-379.5265 1131.0386,-369.2747"/>
<polygon fill="#191970" stroke="#191970" points="1132.0924,-372.6137 1140.7461,-366.5011 1130.1693,-365.8831 1132.0924,-372.6137"/>
</g>
<!-- Node27&#45;&gt;Node2 -->
<g id="edge38" class="edge">
<title>Node27&#45;&gt;Node2</title>
<path fill="none" stroke="#191970" d="M705.7169,-291.4862C704.9265,-264.9293 702.6835,-189.5651 701.6002,-153.1655"/>
<polygon fill="#191970" stroke="#191970" points="705.0885,-152.7193 701.2925,-142.8279 698.0916,-152.9276 705.0885,-152.7193"/>
</g>
<!-- Node27&#45;&gt;Node19 -->
<g id="edge39" class="edge">
<title>Node27&#45;&gt;Node19</title>
<path fill="none" stroke="#191970" d="M693.1102,-291.2455C682.0746,-282.8943 665.9708,-270.7076 653.0647,-260.9408"/>
<polygon fill="#191970" stroke="#191970" points="654.8283,-257.8862 644.7421,-254.6427 650.6041,-263.4681 654.8283,-257.8862"/>
</g>
<!-- Node27&#45;&gt;Node20 -->
<g id="edge40" class="edge">
<title>Node27&#45;&gt;Node20</title>
<path fill="none" stroke="#191970" d="M722.0252,-291.2455C736.1408,-282.6534 756.9263,-270.0014 773.1899,-260.1018"/>
<polygon fill="#191970" stroke="#191970" points="775.4363,-262.8319 782.1585,-254.6427 771.7966,-256.8525 775.4363,-262.8319"/>
</g>
<!-- Node28&#45;&gt;Node15 -->
<g id="edge43" class="edge">
<title>Node28&#45;&gt;Node15</title>
<path fill="none" stroke="#191970" d="M1507.7109,-179.4248C1512.6111,-151.999 1526.7741,-72.732 1533.445,-35.3964"/>
<polygon fill="#191970" stroke="#191970" points="1536.9427,-35.7193 1535.2562,-25.2595 1530.0518,-34.488 1536.9427,-35.7193"/>
</g>
<!-- Node29&#45;&gt;Node2 -->
<g id="edge46" class="edge">
<title>Node29&#45;&gt;Node2</title>
<path fill="none" stroke="#191970" d="M848.8208,-347.328C854.6826,-338.3825 862.6966,-324.4728 866,-311 870.7722,-291.5364 864.4918,-242.2678 860,-235 832.3019,-190.1835 776.7551,-161.4479 739.2177,-146.2589"/>
<polygon fill="#191970" stroke="#191970" points="740.2067,-142.8877 729.6186,-142.5096 737.6599,-149.408 740.2067,-142.8877"/>
</g>
<!-- Node29&#45;&gt;Node20 -->
<g id="edge47" class="edge">
<title>Node29&#45;&gt;Node20</title>
<path fill="none" stroke="#191970" d="M846.3,-347.1186C851.4338,-333.7713 858.344,-309.5215 850,-291 844.4303,-278.6369 833.7137,-268.2563 823.4494,-260.5033"/>
<polygon fill="#191970" stroke="#191970" points="825.2549,-257.4948 815.0567,-254.623 821.2382,-263.2277 825.2549,-257.4948"/>
</g>
<!-- Node29&#45;&gt;Node24 -->
<g id="edge45" class="edge">
<title>Node29&#45;&gt;Node24</title>
<path fill="none" stroke="#191970" d="M887.5956,-347.4369C940.9064,-336.2556 1027.8836,-318.0132 1075.4024,-308.0467"/>
<polygon fill="#191970" stroke="#191970" points="1076.4066,-311.4123 1085.4752,-305.934 1074.9697,-304.5614 1076.4066,-311.4123"/>
</g>
</g>
</svg>
        <g id="navigator" transform="translate(0 0)" fill="#404254">
                <rect fill="#f2f5e9" fill-opacity="0.5" stroke="#606060" stroke-width=".5" x="0" y="0" width="60" height="60"/>
                <use id="zoomplus" xlink:href="#zoomPlus" x="17" y="9" onmousedown="handleZoom(evt,'in')"/>
                <use id="zoomminus" xlink:href="#zoomMin" x="42" y="9" onmousedown="handleZoom(evt,'out')"/>
                <use id="reset" xlink:href="#resetDef" x="30" y="36" onmousedown="handleReset()"/>
                <g id="arrowUp" xlink:href="#dirArrow" transform="translate(30 24)" onmousedown="handlePan(0,-1)">
                  <use xlink:href="#rim" fill="#404040">
                        <set attributeName="fill" to="#808080" begin="arrowUp.mouseover" end="arrowUp.mouseout"/>
                  </use>
                  <path fill="none" stroke="white" stroke-width="1.5" d="M0,-3.0v7 M-2.5,-0.5L0,-3.0L2.5,-0.5"/>
                </g>
                <g id="arrowRight" xlink:href="#dirArrow" transform="rotate(90) translate(36 -43)" onmousedown="handlePan(1,0)">
                  <use xlink:href="#rim" fill="#404040">
                        <set attributeName="fill" to="#808080" begin="arrowRight.mouseover" end="arrowRight.mouseout"/>
                  </use>
                  <path fill="none" stroke="white" stroke-width="1.5" d="M0,-3.0v7 M-2.5,-0.5L0,-3.0L2.5,-0.5"/>
                </g>
                <g id="arrowDown" xlink:href="#dirArrow" transform="rotate(180) translate(-30 -48)" onmousedown="handlePan(0,1)">
                  <use xlink:href="#rim" fill="#404040">
                        <set attributeName="fill" to="#808080" begin="arrowDown.mouseover" end="arrowDown.mouseout"/>
                  </use>
                  <path fill="none" stroke="white" stroke-width="1.5" d="M0,-3.0v7 M-2.5,-0.5L0,-3.0L2.5,-0.5"/>
                </g>
                <g id="arrowLeft" xlink:href="#dirArrow" transform="rotate(270) translate(-36 17)" onmousedown="handlePan(-1,0)">
                  <use xlink:href="#rim" fill="#404040">
                        <set attributeName="fill" to="#808080" begin="arrowLeft.mouseover" end="arrowLeft.mouseout"/>
                  </use>
                  <path fill="none" stroke="white" stroke-width="1.5" d="M0,-3.0v7 M-2.5,-0.5L0,-3.0L2.5,-0.5"/>
                </g>
        </g>
        <svg viewBox="0 0 15 15" width="100%" height="30px" preserveAspectRatio="xMaxYMin meet">
         <g id="arrow_out" transform="scale(0.3 0.3)">
          <a xlink:href="DigitPos_8cxx__incl_org.svg" target="_base">
           <rect id="button" ry="5" rx="5" y="6" x="6" height="38" width="38"
                fill="#f2f5e9" fill-opacity="0.5" stroke="#606060" stroke-width="1.0"/>
           <path id="arrow"
             d="M 11.500037,31.436501 C 11.940474,20.09759 22.043105,11.32322 32.158766,21.979434 L 37.068811,17.246167 C 37.068811,17.246167 37.088388,32 37.088388,32 L 22.160133,31.978069 C 22.160133,31.978069 26.997745,27.140456 26.997745,27.140456 C 18.528582,18.264221 13.291696,25.230495 11.500037,31.436501 z"
             style="fill:#404040;"/>
          </a>
         </g>
        </svg>
</svg>
