<?xml version="1.0" encoding="UTF-8" standalone="no"?>
<!DOCTYPE svg PUBLIC "-//W3C//DTD SVG 1.1//EN"
 "http://www.w3.org/Graphics/SVG/1.1/DTD/svg11.dtd">
<!-- Generated by graphviz version 2.40.1 (20161225.0304)
 -->
<!-- Title: /home/travis/build/AliceO2Group/AliceO2/Detectors/MUON/MID/Simulation/include/MIDSimulation/Geometry.h Pages: 1 -->
<svg width="1816pt" height="240pt"
 viewBox="0.00 0.00 1815.50 240.00" xmlns="http://www.w3.org/2000/svg" xmlns:xlink="http://www.w3.org/1999/xlink">
<g id="graph0" class="graph" transform="scale(1 1) rotate(0) translate(4 236)">
<title>/home/travis/build/AliceO2Group/AliceO2/Detectors/MUON/MID/Simulation/include/MIDSimulation/Geometry.h</title>
<!-- Node0 -->
<g id="node1" class="node">
<title>Node0</title>
<polygon fill="#bfbfbf" stroke="#000000" points="0,-179.5 0,-231.5 188,-231.5 188,-179.5 0,-179.5"/>
<text text-anchor="start" x="8" y="-219.5" font-family="Helvetica,sans-Serif" font-size="10.00" fill="#000000">/home/travis/build</text>
<text text-anchor="start" x="8" y="-208.5" font-family="Helvetica,sans-Serif" font-size="10.00" fill="#000000">/AliceO2Group/AliceO2</text>
<text text-anchor="start" x="8" y="-197.5" font-family="Helvetica,sans-Serif" font-size="10.00" fill="#000000">/Detectors/MUON/MID/Simulation</text>
<text text-anchor="middle" x="94" y="-186.5" font-family="Helvetica,sans-Serif" font-size="10.00" fill="#000000">/include/MIDSimulation/Geometry.h</text>
</g>
<!-- Node1 -->
<g id="node2" class="node">
<title>Node1</title>
<polygon fill="none" stroke="#bfbfbf" points="18.5,-123.5 18.5,-142.5 65.5,-142.5 65.5,-123.5 18.5,-123.5"/>
<text text-anchor="middle" x="42" y="-130.5" font-family="Helvetica,sans-Serif" font-size="10.00" fill="#000000">vector</text>
</g>
<!-- Node0&#45;&gt;Node1 -->
<g id="edge1" class="edge">
<title>Node0&#45;&gt;Node1</title>
<path fill="none" stroke="#191970" d="M75.2268,-179.3258C68.404,-169.8132 60.8599,-159.2951 54.687,-150.6886"/>
<polygon fill="#191970" stroke="#191970" points="57.5106,-148.6201 48.8382,-142.534 51.8224,-152.6999 57.5106,-148.6201"/>
</g>
<!-- Node2 -->
<g id="node3" class="node">
<title>Node2</title>
<polygon fill="none" stroke="#bfbfbf" points="98,-6 98,-25 142,-25 142,-6 98,-6"/>
<text text-anchor="middle" x="120" y="-13" font-family="Helvetica,sans-Serif" font-size="10.00" fill="#000000">string</text>
</g>
<!-- Node0&#45;&gt;Node2 -->
<g id="edge2" class="edge">
<title>Node0&#45;&gt;Node2</title>
<path fill="none" stroke="#191970" d="M97.1911,-179.4367C100.6479,-151.5778 106.4193,-106.1272 112,-67 113.4876,-56.5701 115.277,-44.9739 116.7859,-35.4301"/>
<polygon fill="#191970" stroke="#191970" points="120.2728,-35.7888 118.3934,-25.362 113.3604,-34.6851 120.2728,-35.7888"/>
</g>
<!-- Node3 -->
<g id="node4" class="node">
<title>Node3</title>
<g id="a_node4"><a xlink:href="../../de/d0c/GeometryTransformer_8h.html" target="_top" xlink:title="Geometry transformer for MID. ">
<polygon fill="none" stroke="#000000" points="175,-123.5 175,-142.5 353,-142.5 353,-123.5 175,-123.5"/>
<text text-anchor="middle" x="264" y="-130.5" font-family="Helvetica,sans-Serif" font-size="10.00" fill="#000000">MIDBase/GeometryTransformer.h</text>
</a>
</g>
</g>
<!-- Node0&#45;&gt;Node3 -->
<g id="edge3" class="edge">
<title>Node0&#45;&gt;Node3</title>
<path fill="none" stroke="#191970" d="M155.3739,-179.3258C181.436,-168.2111 210.7171,-155.7236 232.3058,-146.5167"/>
<polygon fill="#191970" stroke="#191970" points="233.819,-149.6764 241.6444,-142.534 231.0729,-143.2375 233.819,-149.6764"/>
</g>
<!-- Node4 -->
<g id="node5" class="node">
<title>Node4</title>
<polygon fill="none" stroke="#bfbfbf" points="185,-6 185,-25 227,-25 227,-6 185,-6"/>
<text text-anchor="middle" x="206" y="-13" font-family="Helvetica,sans-Serif" font-size="10.00" fill="#000000">array</text>
</g>
<!-- Node3&#45;&gt;Node4 -->
<g id="edge4" class="edge">
<title>Node3&#45;&gt;Node4</title>
<path fill="none" stroke="#191970" d="M275.5131,-123.4539C289.7005,-110.4865 310.5896,-86.6659 299,-67 297.093,-63.7642 259.9987,-43.8154 233.2434,-29.7197"/>
<polygon fill="#191970" stroke="#191970" points="234.7662,-26.5662 224.2856,-25.015 231.5114,-32.7635 234.7662,-26.5662"/>
</g>
<!-- Node5 -->
<g id="node6" class="node">
<title>Node5</title>
<g id="a_node6"><a xlink:href="../../dc/de4/DetectorParameters_8h.html" target="_top" xlink:title="Useful detector parameters for MID. ">
<polygon fill="none" stroke="#000000" points="121.5,-67.5 121.5,-86.5 290.5,-86.5 290.5,-67.5 121.5,-67.5"/>
<text text-anchor="middle" x="206" y="-74.5" font-family="Helvetica,sans-Serif" font-size="10.00" fill="#000000">MIDBase/DetectorParameters.h</text>
</a>
</g>
</g>
<!-- Node3&#45;&gt;Node5 -->
<g id="edge5" class="edge">
<title>Node3&#45;&gt;Node5</title>
<path fill="none" stroke="#191970" d="M253.8972,-123.2455C245.4972,-115.1352 233.3506,-103.4075 223.3916,-93.7919"/>
<polygon fill="#191970" stroke="#191970" points="225.6122,-91.0707 215.9871,-86.6427 220.75,-96.1066 225.6122,-91.0707"/>
</g>
<!-- Node6 -->
<g id="node7" class="node">
<title>Node6</title>
<g id="a_node7"><a xlink:href="../../dc/d73/Cartesian_8h.html" target="_top" xlink:title="MathUtils/Cartesian.h">
<polygon fill="none" stroke="#000000" points="1025,-67.5 1025,-86.5 1147,-86.5 1147,-67.5 1025,-67.5"/>
<text text-anchor="middle" x="1086" y="-74.5" font-family="Helvetica,sans-Serif" font-size="10.00" fill="#000000">MathUtils/Cartesian.h</text>
</a>
</g>
</g>
<!-- Node3&#45;&gt;Node6 -->
<g id="edge8" class="edge">
<title>Node3&#45;&gt;Node6</title>
<path fill="none" stroke="#191970" d="M353.1409,-126.9271C517.4838,-115.731 865.0897,-92.0499 1014.8724,-81.8457"/>
<polygon fill="#191970" stroke="#191970" points="1015.1402,-85.3356 1024.8791,-81.164 1014.6643,-78.3518 1015.1402,-85.3356"/>
</g>
<!-- Node5&#45;&gt;Node2 -->
<g id="edge7" class="edge">
<title>Node5&#45;&gt;Node2</title>
<path fill="none" stroke="#191970" d="M192.5625,-67.3906C178.9305,-57.6421 157.6154,-42.3994 141.6078,-30.9521"/>
<polygon fill="#191970" stroke="#191970" points="143.5132,-28.0118 133.3431,-25.0419 139.4414,-33.7057 143.5132,-28.0118"/>
</g>
<!-- Node5&#45;&gt;Node4 -->
<g id="edge6" class="edge">
<title>Node5&#45;&gt;Node4</title>
<path fill="none" stroke="#191970" d="M206,-67.3906C206,-58.8657 206,-46.1392 206,-35.4235"/>
<polygon fill="#191970" stroke="#191970" points="209.5001,-35.2448 206,-25.2449 202.5001,-35.2449 209.5001,-35.2448"/>
</g>
<!-- Node7 -->
<g id="node8" class="node">
<title>Node7</title>
<polygon fill="none" stroke="#bfbfbf" points="245,-.5 245,-30.5 409,-30.5 409,-.5 245,-.5"/>
<text text-anchor="start" x="253" y="-18.5" font-family="Helvetica,sans-Serif" font-size="10.00" fill="#000000">Math/GenVector/Displacement</text>
<text text-anchor="middle" x="327" y="-7.5" font-family="Helvetica,sans-Serif" font-size="10.00" fill="#000000">Vector3D.h</text>
</g>
<!-- Node6&#45;&gt;Node7 -->
<g id="edge9" class="edge">
<title>Node6&#45;&gt;Node7</title>
<path fill="none" stroke="#191970" d="M1024.5626,-74.8241C908.3593,-70.2605 648.2537,-57.9103 419.4685,-31.1002"/>
<polygon fill="#191970" stroke="#191970" points="419.6285,-27.5948 409.2863,-29.8949 418.8055,-34.5462 419.6285,-27.5948"/>
</g>
<!-- Node8 -->
<g id="node9" class="node">
<title>Node8</title>
<polygon fill="none" stroke="#bfbfbf" points="427.5,-6 427.5,-25 616.5,-25 616.5,-6 427.5,-6"/>
<text text-anchor="middle" x="522" y="-13" font-family="Helvetica,sans-Serif" font-size="10.00" fill="#000000">Math/GenVector/PositionVector3D.h</text>
</g>
<!-- Node6&#45;&gt;Node8 -->
<g id="edge10" class="edge">
<title>Node6&#45;&gt;Node8</title>
<path fill="none" stroke="#191970" d="M1024.8801,-71.8339C936.6587,-64.1624 768.5647,-48.7415 626,-31 615.1818,-29.6537 603.7514,-28.0921 592.5831,-26.4888"/>
<polygon fill="#191970" stroke="#191970" points="592.8253,-22.9872 582.4253,-25.0097 591.8166,-29.9142 592.8253,-22.9872"/>
</g>
<!-- Node9 -->
<g id="node10" class="node">
<title>Node9</title>
<polygon fill="none" stroke="#bfbfbf" points="635,-6 635,-25 795,-25 795,-6 635,-6"/>
<text text-anchor="middle" x="715" y="-13" font-family="Helvetica,sans-Serif" font-size="10.00" fill="#000000">Math/GenVector/Rotation3D.h</text>
</g>
<!-- Node6&#45;&gt;Node9 -->
<g id="edge11" class="edge">
<title>Node6&#45;&gt;Node9</title>
<path fill="none" stroke="#191970" d="M1026.553,-67.4929C969.4612,-58.3176 880.7962,-43.9504 804,-31 795.9736,-29.6465 787.5438,-28.2047 779.2039,-26.7661"/>
<polygon fill="#191970" stroke="#191970" points="779.5594,-23.2757 769.109,-25.0191 778.3657,-30.1732 779.5594,-23.2757"/>
</g>
<!-- Node10 -->
<g id="node11" class="node">
<title>Node10</title>
<polygon fill="none" stroke="#bfbfbf" points="813,-6 813,-25 981,-25 981,-6 813,-6"/>
<text text-anchor="middle" x="897" y="-13" font-family="Helvetica,sans-Serif" font-size="10.00" fill="#000000">Math/GenVector/Transform3D.h</text>
</g>
<!-- Node6&#45;&gt;Node10 -->
<g id="edge12" class="edge">
<title>Node6&#45;&gt;Node10</title>
<path fill="none" stroke="#191970" d="M1056.4688,-67.3906C1024.0134,-56.8298 971.7419,-39.8208 935.9514,-28.1747"/>
<polygon fill="#191970" stroke="#191970" points="936.9161,-24.808 926.3239,-25.0419 934.7501,-31.4645 936.9161,-24.808"/>
</g>
<!-- Node11 -->
<g id="node12" class="node">
<title>Node11</title>
<polygon fill="none" stroke="#bfbfbf" points="999.5,-6 999.5,-25 1172.5,-25 1172.5,-6 999.5,-6"/>
<text text-anchor="middle" x="1086" y="-13" font-family="Helvetica,sans-Serif" font-size="10.00" fill="#000000">Math/GenVector/Translation3D.h</text>
</g>
<!-- Node6&#45;&gt;Node11 -->
<g id="edge13" class="edge">
<title>Node6&#45;&gt;Node11</title>
<path fill="none" stroke="#191970" d="M1086,-67.3906C1086,-58.8657 1086,-46.1392 1086,-35.4235"/>
<polygon fill="#191970" stroke="#191970" points="1089.5001,-35.2448 1086,-25.2449 1082.5001,-35.2449 1089.5001,-35.2448"/>
</g>
<!-- Node12 -->
<g id="node13" class="node">
<title>Node12</title>
<polygon fill="none" stroke="#bfbfbf" points="1191,-.5 1191,-30.5 1355,-30.5 1355,-.5 1191,-.5"/>
<text text-anchor="start" x="1199" y="-18.5" font-family="Helvetica,sans-Serif" font-size="10.00" fill="#000000">Math/GenVector/Displacement</text>
<text text-anchor="middle" x="1273" y="-7.5" font-family="Helvetica,sans-Serif" font-size="10.00" fill="#000000">Vector2D.h</text>
</g>
<!-- Node6&#45;&gt;Node12 -->
<g id="edge14" class="edge">
<title>Node6&#45;&gt;Node12</title>
<path fill="none" stroke="#191970" d="M1115.2188,-67.3906C1142.5188,-58.4123 1183.9895,-44.7735 1217.564,-33.7316"/>
<polygon fill="#191970" stroke="#191970" points="1218.8487,-36.9936 1227.2547,-30.5446 1216.6617,-30.344 1218.8487,-36.9936"/>
</g>
<!-- Node13 -->
<g id="node14" class="node">
<title>Node13</title>
<polygon fill="none" stroke="#bfbfbf" points="1373.5,-6 1373.5,-25 1562.5,-25 1562.5,-6 1373.5,-6"/>
<text text-anchor="middle" x="1468" y="-13" font-family="Helvetica,sans-Serif" font-size="10.00" fill="#000000">Math/GenVector/PositionVector2D.h</text>
</g>
<!-- Node6&#45;&gt;Node13 -->
<g id="edge15" class="edge">
<title>Node6&#45;&gt;Node13</title>
<path fill="none" stroke="#191970" d="M1145.2684,-67.4581C1213.8197,-56.4217 1326.5116,-38.2789 1398.96,-26.6151"/>
<polygon fill="#191970" stroke="#191970" points="1399.5904,-30.0587 1408.9069,-25.0137 1398.4777,-23.1477 1399.5904,-30.0587"/>
</g>
<!-- Node14 -->
<g id="node15" class="node">
<title>Node14</title>
<polygon fill="none" stroke="#bfbfbf" points="1580.5,-6 1580.5,-25 1639.5,-25 1639.5,-6 1580.5,-6"/>
<text text-anchor="middle" x="1610" y="-13" font-family="Helvetica,sans-Serif" font-size="10.00" fill="#000000">Rtypes.h</text>
</g>
<!-- Node6&#45;&gt;Node14 -->
<g id="edge16" class="edge">
<title>Node6&#45;&gt;Node14</title>
<path fill="none" stroke="#191970" d="M1147.1224,-73.4511C1259.118,-66.5778 1492.9861,-50.4057 1572,-31 1574.6337,-30.3532 1577.3242,-29.5561 1579.9965,-28.6676"/>
<polygon fill="#191970" stroke="#191970" points="1581.3027,-31.9162 1589.4602,-25.1555 1578.8672,-25.3535 1581.3027,-31.9162"/>
</g>
<!-- Node15 -->
<g id="node16" class="node">
<title>Node15</title>
<polygon fill="none" stroke="#bfbfbf" points="1658,-6 1658,-25 1740,-25 1740,-6 1658,-6"/>
<text text-anchor="middle" x="1699" y="-13" font-family="Helvetica,sans-Serif" font-size="10.00" fill="#000000">TGeoMatrix.h</text>
</g>
<!-- Node6&#45;&gt;Node15 -->
<g id="edge17" class="edge">
<title>Node6&#45;&gt;Node15</title>
<path fill="none" stroke="#191970" d="M1147.2931,-73.6926C1272.6044,-66.6518 1554.2805,-49.3211 1649,-31 1653.3847,-30.1519 1657.9284,-29.0583 1662.4085,-27.8446"/>
<polygon fill="#191970" stroke="#191970" points="1663.4047,-31.2 1672.0282,-25.0447 1661.4485,-24.4789 1663.4047,-31.2"/>
</g>
<!-- Node16 -->
<g id="node17" class="node">
<title>Node16</title>
<polygon fill="none" stroke="#bfbfbf" points="1758.5,-6 1758.5,-25 1807.5,-25 1807.5,-6 1758.5,-6"/>
<text text-anchor="middle" x="1783" y="-13" font-family="Helvetica,sans-Serif" font-size="10.00" fill="#000000">iosfwd</text>
</g>
<!-- Node6&#45;&gt;Node16 -->
<g id="edge18" class="edge">
<title>Node6&#45;&gt;Node16</title>
<path fill="none" stroke="#191970" d="M1147.2399,-75.542C1288.9803,-71.7174 1636.115,-59.6443 1749,-31 1751.1969,-30.4426 1753.4273,-29.7486 1755.6414,-28.9657"/>
<polygon fill="#191970" stroke="#191970" points="1757.15,-32.1304 1765.0871,-25.1123 1754.5058,-25.6489 1757.15,-32.1304"/>
</g>
</g>
</svg>
