<?xml version="1.0" encoding="UTF-8" standalone="no"?>
<!DOCTYPE svg PUBLIC "-//W3C//DTD SVG 1.1//EN"
 "http://www.w3.org/Graphics/SVG/1.1/DTD/svg11.dtd">
<!-- Generated by graphviz version 2.40.1 (20161225.0304)
 -->
<!-- Title: /home/travis/build/AliceO2Group/AliceO2/Detectors/MUON/MCH/Simulation/include/MCHSimulation/Response.h Pages: 1 -->
<svg width="2682pt" height="363pt"
 viewBox="0.00 0.00 2682.00 363.00" xmlns="http://www.w3.org/2000/svg" xmlns:xlink="http://www.w3.org/1999/xlink">
<g id="graph0" class="graph" transform="scale(1 1) rotate(0) translate(4 359)">
<title>/home/travis/build/AliceO2Group/AliceO2/Detectors/MUON/MCH/Simulation/include/MCHSimulation/Response.h</title>
<!-- Node0 -->
<g id="node1" class="node">
<title>Node0</title>
<polygon fill="#bfbfbf" stroke="#000000" points="778.5,-302.5 778.5,-354.5 969.5,-354.5 969.5,-302.5 778.5,-302.5"/>
<text text-anchor="start" x="786.5" y="-342.5" font-family="Helvetica,sans-Serif" font-size="10.00" fill="#000000">/home/travis/build</text>
<text text-anchor="start" x="786.5" y="-331.5" font-family="Helvetica,sans-Serif" font-size="10.00" fill="#000000">/AliceO2Group/AliceO2</text>
<text text-anchor="start" x="786.5" y="-320.5" font-family="Helvetica,sans-Serif" font-size="10.00" fill="#000000">/Detectors/MUON/MCH/Simulation</text>
<text text-anchor="middle" x="874" y="-309.5" font-family="Helvetica,sans-Serif" font-size="10.00" fill="#000000">/include/MCHSimulation/Response.h</text>
</g>
<!-- Node1 -->
<g id="node2" class="node">
<title>Node1</title>
<g id="a_node2"><a xlink:href="../../d8/d72/Detectors_2MUON_2MCH_2Base_2include_2MCHBase_2Digit_8h.html" target="_top" xlink:title="MCHBase/Digit.h">
<polygon fill="none" stroke="#000000" points="1248,-246.5 1248,-265.5 1346,-265.5 1346,-246.5 1248,-246.5"/>
<text text-anchor="middle" x="1297" y="-253.5" font-family="Helvetica,sans-Serif" font-size="10.00" fill="#000000">MCHBase/Digit.h</text>
</a>
</g>
</g>
<!-- Node0&#45;&gt;Node1 -->
<g id="edge1" class="edge">
<title>Node0&#45;&gt;Node1</title>
<path fill="none" stroke="#191970" d="M969.721,-312.0939C1052.1837,-297.9602 1168.5878,-278.0092 1238.0582,-266.1023"/>
<polygon fill="#191970" stroke="#191970" points="1238.6928,-269.5447 1247.9577,-264.4056 1237.5102,-262.6453 1238.6928,-269.5447"/>
</g>
<!-- Node3 -->
<g id="node4" class="node">
<title>Node3</title>
<g id="a_node4"><a xlink:href="../../dc/dab/MUON_2MCH_2Simulation_2include_2MCHSimulation_2Detector_8h.html" target="_top" xlink:title="MCHSimulation/Detector.h">
<polygon fill="none" stroke="#000000" points="502.5,-246.5 502.5,-265.5 647.5,-265.5 647.5,-246.5 502.5,-246.5"/>
<text text-anchor="middle" x="575" y="-253.5" font-family="Helvetica,sans-Serif" font-size="10.00" fill="#000000">MCHSimulation/Detector.h</text>
</a>
</g>
</g>
<!-- Node0&#45;&gt;Node3 -->
<g id="edge3" class="edge">
<title>Node0&#45;&gt;Node3</title>
<path fill="none" stroke="#191970" d="M778.1608,-305.2614C726.8751,-292.8259 665.8755,-278.035 624.1909,-267.9276"/>
<polygon fill="#191970" stroke="#191970" points="624.8333,-264.482 614.2901,-265.5269 623.1837,-271.2848 624.8333,-264.482"/>
</g>
<!-- Node29 -->
<g id="node30" class="node">
<title>Node29</title>
<g id="a_node30"><a xlink:href="../../d5/daf/Detectors_2MUON_2MCH_2Simulation_2include_2MCHSimulation_2Hit_8h.html" target="_top" xlink:title="MCHSimulation/Hit.h">
<polygon fill="none" stroke="#000000" points="815,-190.5 815,-209.5 933,-209.5 933,-190.5 815,-190.5"/>
<text text-anchor="middle" x="874" y="-197.5" font-family="Helvetica,sans-Serif" font-size="10.00" fill="#000000">MCHSimulation/Hit.h</text>
</a>
</g>
</g>
<!-- Node0&#45;&gt;Node29 -->
<g id="edge51" class="edge">
<title>Node0&#45;&gt;Node29</title>
<path fill="none" stroke="#191970" d="M874,-302.4961C874,-278.0156 874,-241.8881 874,-219.7068"/>
<polygon fill="#191970" stroke="#191970" points="877.5001,-219.5141 874,-209.5142 870.5001,-219.5142 877.5001,-219.5141"/>
</g>
<!-- Node2 -->
<g id="node3" class="node">
<title>Node2</title>
<polygon fill="none" stroke="#bfbfbf" points="1105.5,-6 1105.5,-25 1164.5,-25 1164.5,-6 1105.5,-6"/>
<text text-anchor="middle" x="1135" y="-13" font-family="Helvetica,sans-Serif" font-size="10.00" fill="#000000">Rtypes.h</text>
</g>
<!-- Node1&#45;&gt;Node2 -->
<g id="edge2" class="edge">
<title>Node1&#45;&gt;Node2</title>
<path fill="none" stroke="#191970" d="M1346.1633,-253.7665C1454.5865,-247.0229 1698.8736,-220.8208 1624,-123 1501.7764,36.6826 1376.4123,-78.4463 1181,-31 1177.6219,-30.1798 1174.1381,-29.2215 1170.6704,-28.1908"/>
<polygon fill="#191970" stroke="#191970" points="1171.6311,-24.8239 1161.0412,-25.1495 1169.5227,-31.4989 1171.6311,-24.8239"/>
</g>
<!-- Node4 -->
<g id="node5" class="node">
<title>Node4</title>
<g id="a_node5"><a xlink:href="../../d1/d3a/Base_2include_2DetectorsBase_2Detector_8h.html" target="_top" xlink:title="DetectorsBase/Detector.h">
<polygon fill="none" stroke="#000000" points="504.5,-190.5 504.5,-209.5 645.5,-209.5 645.5,-190.5 504.5,-190.5"/>
<text text-anchor="middle" x="575" y="-197.5" font-family="Helvetica,sans-Serif" font-size="10.00" fill="#000000">DetectorsBase/Detector.h</text>
</a>
</g>
</g>
<!-- Node3&#45;&gt;Node4 -->
<g id="edge4" class="edge">
<title>Node3&#45;&gt;Node4</title>
<path fill="none" stroke="#191970" d="M575,-246.2455C575,-238.9382 575,-228.6944 575,-219.7046"/>
<polygon fill="#191970" stroke="#191970" points="578.5001,-219.6426 575,-209.6427 571.5001,-219.6427 578.5001,-219.6426"/>
</g>
<!-- Node6 -->
<g id="node7" class="node">
<title>Node6</title>
<polygon fill="none" stroke="#bfbfbf" points="76.5,-129 76.5,-148 123.5,-148 123.5,-129 76.5,-129"/>
<text text-anchor="middle" x="100" y="-136" font-family="Helvetica,sans-Serif" font-size="10.00" fill="#000000">vector</text>
</g>
<!-- Node3&#45;&gt;Node6 -->
<g id="edge49" class="edge">
<title>Node3&#45;&gt;Node6</title>
<path fill="none" stroke="#191970" d="M534.2667,-246.4343C459.407,-228.7713 294.9724,-189.5869 157,-154 149.3359,-152.0232 141.1122,-149.8295 133.3628,-147.7294"/>
<polygon fill="#191970" stroke="#191970" points="134.1044,-144.3039 123.5358,-145.0486 132.2621,-151.0571 134.1044,-144.3039"/>
</g>
<!-- Node8 -->
<g id="node9" class="node">
<title>Node8</title>
<polygon fill="none" stroke="#bfbfbf" points="0,-129 0,-148 58,-148 58,-129 0,-129"/>
<text text-anchor="middle" x="29" y="-136" font-family="Helvetica,sans-Serif" font-size="10.00" fill="#000000">memory</text>
</g>
<!-- Node3&#45;&gt;Node8 -->
<g id="edge50" class="edge">
<title>Node3&#45;&gt;Node8</title>
<path fill="none" stroke="#191970" d="M502.1914,-246.6389C402.3677,-232.6251 218.1722,-202.527 67,-154 64.8503,-153.3099 62.6506,-152.5532 60.4462,-151.757"/>
<polygon fill="#191970" stroke="#191970" points="61.4822,-148.4058 50.8919,-148.0964 58.9778,-154.9425 61.4822,-148.4058"/>
</g>
<!-- Node3&#45;&gt;Node29 -->
<g id="edge35" class="edge">
<title>Node3&#45;&gt;Node29</title>
<path fill="none" stroke="#191970" d="M626.0602,-246.4369C677.8768,-236.7321 758.095,-221.708 813.1715,-211.3926"/>
<polygon fill="#191970" stroke="#191970" points="813.9656,-214.8048 823.1504,-209.5237 812.677,-207.9245 813.9656,-214.8048"/>
</g>
<!-- Node4&#45;&gt;Node2 -->
<g id="edge17" class="edge">
<title>Node4&#45;&gt;Node2</title>
<path fill="none" stroke="#191970" d="M645.5557,-195.3945C750.4688,-187.986 937.9917,-172.3757 963,-154 997.147,-128.9094 971.2685,-96.1742 1002,-67 1027.7823,-42.5243 1066.478,-29.3037 1095.4935,-22.4121"/>
<polygon fill="#191970" stroke="#191970" points="1096.3127,-25.8156 1105.3159,-20.2304 1094.7948,-18.9821 1096.3127,-25.8156"/>
</g>
<!-- Node5 -->
<g id="node6" class="node">
<title>Node5</title>
<polygon fill="none" stroke="#bfbfbf" points="1370,-67.5 1370,-86.5 1408,-86.5 1408,-67.5 1370,-67.5"/>
<text text-anchor="middle" x="1389" y="-74.5" font-family="Helvetica,sans-Serif" font-size="10.00" fill="#000000">map</text>
</g>
<!-- Node4&#45;&gt;Node5 -->
<g id="edge5" class="edge">
<title>Node4&#45;&gt;Node5</title>
<path fill="none" stroke="#191970" d="M645.5185,-196.8864C850.666,-187.7477 1433.181,-161.1912 1440,-154 1457.9392,-135.0815 1432.5163,-109.1323 1411.5771,-92.7155"/>
<polygon fill="#191970" stroke="#191970" points="1413.4043,-89.7111 1403.3027,-86.516 1409.207,-95.3132 1413.4043,-89.7111"/>
</g>
<!-- Node4&#45;&gt;Node6 -->
<g id="edge6" class="edge">
<title>Node4&#45;&gt;Node6</title>
<path fill="none" stroke="#191970" d="M504.313,-194.9954C398.8574,-187.1155 205.5149,-170.9581 138,-154 135.3698,-153.3393 132.6816,-152.5325 130.011,-151.6375"/>
<polygon fill="#191970" stroke="#191970" points="131.1428,-148.3243 120.5501,-148.1142 128.6998,-154.8842 131.1428,-148.3243"/>
</g>
<!-- Node7 -->
<g id="node8" class="node">
<title>Node7</title>
<polygon fill="none" stroke="#bfbfbf" points="1010.5,-67.5 1010.5,-86.5 1093.5,-86.5 1093.5,-67.5 1010.5,-67.5"/>
<text text-anchor="middle" x="1052" y="-74.5" font-family="Helvetica,sans-Serif" font-size="10.00" fill="#000000">initializer_list</text>
</g>
<!-- Node4&#45;&gt;Node7 -->
<g id="edge7" class="edge">
<title>Node4&#45;&gt;Node7</title>
<path fill="none" stroke="#191970" d="M568.392,-190.3474C558.2682,-174.2603 541.8051,-141.874 559,-123 588.3216,-90.8151 879.9968,-80.7621 1000.4149,-77.9684"/>
<polygon fill="#191970" stroke="#191970" points="1000.5778,-81.4658 1010.4967,-77.7423 1000.4207,-74.4675 1000.5778,-81.4658"/>
</g>
<!-- Node4&#45;&gt;Node8 -->
<g id="edge8" class="edge">
<title>Node4&#45;&gt;Node8</title>
<path fill="none" stroke="#191970" d="M504.1099,-196.1826C384.5632,-189.3097 147.9873,-173.7159 67,-154 64.2093,-153.3206 61.3552,-152.4708 58.5269,-151.5212"/>
<polygon fill="#191970" stroke="#191970" points="59.7322,-148.2353 49.1398,-148.0101 57.2799,-154.7917 59.7322,-148.2353"/>
</g>
<!-- Node9 -->
<g id="node10" class="node">
<title>Node9</title>
<polygon fill="none" stroke="#bfbfbf" points="568,-129 568,-148 652,-148 652,-129 568,-129"/>
<text text-anchor="middle" x="610" y="-136" font-family="Helvetica,sans-Serif" font-size="10.00" fill="#000000">FairDetector.h</text>
</g>
<!-- Node4&#45;&gt;Node9 -->
<g id="edge9" class="edge">
<title>Node4&#45;&gt;Node9</title>
<path fill="none" stroke="#191970" d="M580.4688,-190.3906C585.5246,-181.5068 593.1772,-168.0601 599.4254,-157.0811"/>
<polygon fill="#191970" stroke="#191970" points="602.5498,-158.6672 604.4541,-148.2449 596.466,-155.2048 602.5498,-158.6672"/>
</g>
<!-- Node10 -->
<g id="node11" class="node">
<title>Node10</title>
<polygon fill="none" stroke="#bfbfbf" points="670,-129 670,-148 776,-148 776,-129 670,-129"/>
<text text-anchor="middle" x="723" y="-136" font-family="Helvetica,sans-Serif" font-size="10.00" fill="#000000">FairRootManager.h</text>
</g>
<!-- Node4&#45;&gt;Node10 -->
<g id="edge10" class="edge">
<title>Node4&#45;&gt;Node10</title>
<path fill="none" stroke="#191970" d="M598.125,-190.3906C622.9967,-180.0554 662.7298,-163.5447 690.6844,-151.9284"/>
<polygon fill="#191970" stroke="#191970" points="692.146,-155.1113 700.0374,-148.0419 689.4598,-148.6472 692.146,-155.1113"/>
</g>
<!-- Node11 -->
<g id="node12" class="node">
<title>Node11</title>
<g id="a_node12"><a xlink:href="../../d0/d9a/MaterialManager_8h.html" target="_top" xlink:title="DetectorsBase/MaterialManager.h">
<polygon fill="none" stroke="#000000" points="1010.5,-129 1010.5,-148 1191.5,-148 1191.5,-129 1010.5,-129"/>
<text text-anchor="middle" x="1101" y="-136" font-family="Helvetica,sans-Serif" font-size="10.00" fill="#000000">DetectorsBase/MaterialManager.h</text>
</a>
</g>
</g>
<!-- Node4&#45;&gt;Node11 -->
<g id="edge11" class="edge">
<title>Node4&#45;&gt;Node11</title>
<path fill="none" stroke="#191970" d="M645.8618,-193.0813C729.6087,-184.7139 873.1186,-169.7773 996,-154 1006.7047,-152.6256 1018.0074,-151.0687 1029.0741,-149.4848"/>
<polygon fill="#191970" stroke="#191970" points="1029.7515,-152.9233 1039.1471,-148.0271 1028.7488,-145.9955 1029.7515,-152.9233"/>
</g>
<!-- Node14 -->
<g id="node15" class="node">
<title>Node14</title>
<polygon fill="none" stroke="#bfbfbf" points="1210,-129 1210,-148 1268,-148 1268,-129 1210,-129"/>
<text text-anchor="middle" x="1239" y="-136" font-family="Helvetica,sans-Serif" font-size="10.00" fill="#000000">cxxabi.h</text>
</g>
<!-- Node4&#45;&gt;Node14 -->
<g id="edge18" class="edge">
<title>Node4&#45;&gt;Node14</title>
<path fill="none" stroke="#191970" d="M645.5714,-196.0639C797.91,-187.3865 1148.1178,-166.4 1201,-154 1203.7964,-153.3443 1206.6544,-152.5107 1209.4852,-151.5716"/>
<polygon fill="#191970" stroke="#191970" points="1210.7248,-154.8449 1218.8762,-148.077 1208.2834,-148.2844 1210.7248,-154.8449"/>
</g>
<!-- Node15 -->
<g id="node16" class="node">
<title>Node15</title>
<polygon fill="none" stroke="#bfbfbf" points="1286.5,-129 1286.5,-148 1343.5,-148 1343.5,-129 1286.5,-129"/>
<text text-anchor="middle" x="1315" y="-136" font-family="Helvetica,sans-Serif" font-size="10.00" fill="#000000">typeinfo</text>
</g>
<!-- Node4&#45;&gt;Node15 -->
<g id="edge19" class="edge">
<title>Node4&#45;&gt;Node15</title>
<path fill="none" stroke="#191970" d="M645.6542,-196.6606C811.5717,-188.6338 1216.6715,-167.8943 1277,-154 1279.799,-153.3554 1282.6587,-152.5294 1285.4907,-151.5952"/>
<polygon fill="#191970" stroke="#191970" points="1286.7268,-154.8698 1294.8835,-148.1082 1284.2905,-148.3074 1286.7268,-154.8698"/>
</g>
<!-- Node16 -->
<g id="node17" class="node">
<title>Node16</title>
<polygon fill="none" stroke="#bfbfbf" points="1361.5,-129 1361.5,-148 1430.5,-148 1430.5,-129 1361.5,-129"/>
<text text-anchor="middle" x="1396" y="-136" font-family="Helvetica,sans-Serif" font-size="10.00" fill="#000000">type_traits</text>
</g>
<!-- Node4&#45;&gt;Node16 -->
<g id="edge20" class="edge">
<title>Node4&#45;&gt;Node16</title>
<path fill="none" stroke="#191970" d="M645.6049,-196.9826C824.2459,-189.1834 1284.866,-167.9897 1353,-154 1356.447,-153.2922 1359.99,-152.3646 1363.4923,-151.3145"/>
<polygon fill="#191970" stroke="#191970" points="1364.7534,-154.5838 1373.1416,-148.1117 1362.5482,-147.9402 1364.7534,-154.5838"/>
</g>
<!-- Node17 -->
<g id="node18" class="node">
<title>Node17</title>
<polygon fill="none" stroke="#bfbfbf" points="180,-129 180,-148 224,-148 224,-129 180,-129"/>
<text text-anchor="middle" x="202" y="-136" font-family="Helvetica,sans-Serif" font-size="10.00" fill="#000000">string</text>
</g>
<!-- Node4&#45;&gt;Node17 -->
<g id="edge21" class="edge">
<title>Node4&#45;&gt;Node17</title>
<path fill="none" stroke="#191970" d="M504.4488,-197.2848C434.2652,-193.0204 324.1823,-182.0736 233,-154 231.3395,-153.4887 229.6591,-152.8956 227.9846,-152.2456"/>
<polygon fill="#191970" stroke="#191970" points="229.1939,-148.9526 218.6355,-148.0745 226.3418,-155.3453 229.1939,-148.9526"/>
</g>
<!-- Node18 -->
<g id="node19" class="node">
<title>Node18</title>
<polygon fill="none" stroke="#bfbfbf" points="242,-129 242,-148 316,-148 316,-129 242,-129"/>
<text text-anchor="middle" x="279" y="-136" font-family="Helvetica,sans-Serif" font-size="10.00" fill="#000000">TMessage.h</text>
</g>
<!-- Node4&#45;&gt;Node18 -->
<g id="edge22" class="edge">
<title>Node4&#45;&gt;Node18</title>
<path fill="none" stroke="#191970" d="M508.9044,-190.4826C458.1782,-182.5431 386.6252,-169.9646 325,-154 321.6348,-153.1282 318.1598,-152.135 314.6977,-151.082"/>
<polygon fill="#191970" stroke="#191970" points="315.6677,-147.7176 305.0768,-148.0076 313.537,-154.3855 315.6677,-147.7176"/>
</g>
<!-- Node19 -->
<g id="node20" class="node">
<title>Node19</title>
<g id="a_node20"><a xlink:href="../../de/d61/ShmManager_8h.html" target="_top" xlink:title="CommonUtils/ShmManager.h">
<polygon fill="none" stroke="#000000" points="535,-67.5 535,-86.5 693,-86.5 693,-67.5 535,-67.5"/>
<text text-anchor="middle" x="614" y="-74.5" font-family="Helvetica,sans-Serif" font-size="10.00" fill="#000000">CommonUtils/ShmManager.h</text>
</a>
</g>
</g>
<!-- Node4&#45;&gt;Node19 -->
<g id="edge23" class="edge">
<title>Node4&#45;&gt;Node19</title>
<path fill="none" stroke="#191970" d="M559.382,-190.4791C547.7528,-182.3972 532.7668,-169.6339 526,-154 520.5272,-141.3558 518.8625,-134.7849 526,-123 535.1826,-107.8386 551.1848,-97.4355 567.0472,-90.4143"/>
<polygon fill="#191970" stroke="#191970" points="568.3624,-93.6579 576.318,-86.6607 565.7353,-87.1695 568.3624,-93.6579"/>
</g>
<!-- Node25 -->
<g id="node26" class="node">
<title>Node25</title>
<g id="a_node26"><a xlink:href="../../d0/d91/ShmAllocator_8h.html" target="_top" xlink:title="CommonUtils/ShmAllocator.h">
<polygon fill="none" stroke="#000000" points="794,-129 794,-148 954,-148 954,-129 794,-129"/>
<text text-anchor="middle" x="874" y="-136" font-family="Helvetica,sans-Serif" font-size="10.00" fill="#000000">CommonUtils/ShmAllocator.h</text>
</a>
</g>
</g>
<!-- Node4&#45;&gt;Node25 -->
<g id="edge29" class="edge">
<title>Node4&#45;&gt;Node25</title>
<path fill="none" stroke="#191970" d="M621.3907,-190.4581C674.3116,-179.573 760.8414,-161.7751 817.6106,-150.0985"/>
<polygon fill="#191970" stroke="#191970" points="818.4107,-153.5073 827.5005,-148.0643 817.0004,-146.6508 818.4107,-153.5073"/>
</g>
<!-- Node26 -->
<g id="node27" class="node">
<title>Node26</title>
<polygon fill="none" stroke="#bfbfbf" points="352,-67.5 352,-86.5 404,-86.5 404,-67.5 352,-67.5"/>
<text text-anchor="middle" x="378" y="-74.5" font-family="Helvetica,sans-Serif" font-size="10.00" fill="#000000">cassert</text>
</g>
<!-- Node4&#45;&gt;Node26 -->
<g id="edge34" class="edge">
<title>Node4&#45;&gt;Node26</title>
<path fill="none" stroke="#191970" d="M504.473,-196.9904C394.5857,-191.5688 192.7705,-178.39 171,-154 120.7456,-97.6988 270.1227,-82.4551 341.8715,-78.416"/>
<polygon fill="#191970" stroke="#191970" points="342.0559,-81.9112 351.8611,-77.8978 341.6932,-74.9206 342.0559,-81.9112"/>
</g>
<!-- Node27 -->
<g id="node28" class="node">
<title>Node27</title>
<polygon fill="none" stroke="#bfbfbf" points="334,-129 334,-148 400,-148 400,-129 334,-129"/>
<text text-anchor="middle" x="367" y="-136" font-family="Helvetica,sans-Serif" font-size="10.00" fill="#000000">sys/shm.h</text>
</g>
<!-- Node4&#45;&gt;Node27 -->
<g id="edge32" class="edge">
<title>Node4&#45;&gt;Node27</title>
<path fill="none" stroke="#191970" d="M537.1556,-190.4721C503.336,-181.7306 452.5473,-168.0423 409,-154 406.4526,-153.1785 403.8305,-152.2976 401.1999,-151.3881"/>
<polygon fill="#191970" stroke="#191970" points="402.3494,-148.0822 391.7547,-148.0241 400.0007,-154.6764 402.3494,-148.0822"/>
</g>
<!-- Node28 -->
<g id="node29" class="node">
<title>Node28</title>
<polygon fill="none" stroke="#bfbfbf" points="418,-129 418,-148 474,-148 474,-129 418,-129"/>
<text text-anchor="middle" x="446" y="-136" font-family="Helvetica,sans-Serif" font-size="10.00" fill="#000000">unistd.h</text>
</g>
<!-- Node4&#45;&gt;Node28 -->
<g id="edge33" class="edge">
<title>Node4&#45;&gt;Node28</title>
<path fill="none" stroke="#191970" d="M554.8438,-190.3906C533.449,-180.1908 499.438,-163.9763 475.1298,-152.3875"/>
<polygon fill="#191970" stroke="#191970" points="476.5476,-149.186 466.0147,-148.0419 473.5352,-155.5047 476.5476,-149.186"/>
</g>
<!-- Node11&#45;&gt;Node2 -->
<g id="edge12" class="edge">
<title>Node11&#45;&gt;Node2</title>
<path fill="none" stroke="#191970" d="M1103.6679,-128.8484C1109.2541,-108.6397 1122.2727,-61.5427 1129.6505,-34.8528"/>
<polygon fill="#191970" stroke="#191970" points="1133.0536,-35.6778 1132.3445,-25.1068 1126.3066,-33.8128 1133.0536,-35.6778"/>
</g>
<!-- Node11&#45;&gt;Node5 -->
<g id="edge13" class="edge">
<title>Node11&#45;&gt;Node5</title>
<path fill="none" stroke="#191970" d="M1145.684,-128.9581C1205.4231,-116.2013 1309.6247,-93.9499 1360.0393,-83.1843"/>
<polygon fill="#191970" stroke="#191970" points="1360.8969,-86.5802 1369.9455,-81.0689 1359.435,-79.7345 1360.8969,-86.5802"/>
</g>
<!-- Node11&#45;&gt;Node7 -->
<g id="edge15" class="edge">
<title>Node11&#45;&gt;Node7</title>
<path fill="none" stroke="#191970" d="M1093.3438,-128.8906C1086.0511,-119.7376 1074.8993,-105.7409 1066.0148,-94.59"/>
<polygon fill="#191970" stroke="#191970" points="1068.733,-92.3849 1059.7642,-86.7449 1063.2583,-96.747 1068.733,-92.3849"/>
</g>
<!-- Node12 -->
<g id="node13" class="node">
<title>Node12</title>
<polygon fill="none" stroke="#bfbfbf" points="1150.5,-67.5 1150.5,-86.5 1243.5,-86.5 1243.5,-67.5 1150.5,-67.5"/>
<text text-anchor="middle" x="1197" y="-74.5" font-family="Helvetica,sans-Serif" font-size="10.00" fill="#000000">unordered_map</text>
</g>
<!-- Node11&#45;&gt;Node12 -->
<g id="edge14" class="edge">
<title>Node11&#45;&gt;Node12</title>
<path fill="none" stroke="#191970" d="M1116,-128.8906C1131.3581,-119.0519 1155.4521,-103.6167 1173.3745,-92.1351"/>
<polygon fill="#191970" stroke="#191970" points="1175.573,-94.8833 1182.1053,-86.5419 1171.797,-88.9891 1175.573,-94.8833"/>
</g>
<!-- Node13 -->
<g id="node14" class="node">
<title>Node13</title>
<polygon fill="none" stroke="#bfbfbf" points="1189.5,-6 1189.5,-25 1238.5,-25 1238.5,-6 1189.5,-6"/>
<text text-anchor="middle" x="1214" y="-13" font-family="Helvetica,sans-Serif" font-size="10.00" fill="#000000">iosfwd</text>
</g>
<!-- Node11&#45;&gt;Node13 -->
<g id="edge16" class="edge">
<title>Node11&#45;&gt;Node13</title>
<path fill="none" stroke="#191970" d="M1147.4341,-128.9712C1187.3494,-119.7264 1240.4173,-104.5485 1253,-87 1265.6294,-69.3864 1249.1532,-47.2319 1233.8979,-32.289"/>
<polygon fill="#191970" stroke="#191970" points="1235.9197,-29.3929 1226.1922,-25.1944 1231.1783,-34.5427 1235.9197,-29.3929"/>
</g>
<!-- Node20 -->
<g id="node21" class="node">
<title>Node20</title>
<polygon fill="none" stroke="#bfbfbf" points="467,-6 467,-25 499,-25 499,-6 467,-6"/>
<text text-anchor="middle" x="483" y="-13" font-family="Helvetica,sans-Serif" font-size="10.00" fill="#000000">list</text>
</g>
<!-- Node19&#45;&gt;Node20 -->
<g id="edge24" class="edge">
<title>Node19&#45;&gt;Node20</title>
<path fill="none" stroke="#191970" d="M589.8341,-67.4188C568.2924,-58.6422 536.0752,-44.9325 509,-31 508.3341,-30.6574 507.6618,-30.3048 506.9859,-29.9446"/>
<polygon fill="#191970" stroke="#191970" points="508.6489,-26.8643 498.2189,-25.0025 505.2114,-32.9621 508.6489,-26.8643"/>
</g>
<!-- Node21 -->
<g id="node22" class="node">
<title>Node21</title>
<polygon fill="none" stroke="#bfbfbf" points="517.5,-6 517.5,-25 570.5,-25 570.5,-6 517.5,-6"/>
<text text-anchor="middle" x="544" y="-13" font-family="Helvetica,sans-Serif" font-size="10.00" fill="#000000">cstddef</text>
</g>
<!-- Node19&#45;&gt;Node21 -->
<g id="edge25" class="edge">
<title>Node19&#45;&gt;Node21</title>
<path fill="none" stroke="#191970" d="M603.0625,-67.3906C592.338,-57.9683 575.7713,-43.4134 562.9099,-32.1137"/>
<polygon fill="#191970" stroke="#191970" points="564.9143,-29.2158 555.0917,-25.2449 560.2941,-34.4745 564.9143,-29.2158"/>
</g>
<!-- Node22 -->
<g id="node23" class="node">
<title>Node22</title>
<polygon fill="none" stroke="#bfbfbf" points="589,-6 589,-25 639,-25 639,-6 589,-6"/>
<text text-anchor="middle" x="614" y="-13" font-family="Helvetica,sans-Serif" font-size="10.00" fill="#000000">atomic</text>
</g>
<!-- Node19&#45;&gt;Node22 -->
<g id="edge26" class="edge">
<title>Node19&#45;&gt;Node22</title>
<path fill="none" stroke="#191970" d="M614,-67.3906C614,-58.8657 614,-46.1392 614,-35.4235"/>
<polygon fill="#191970" stroke="#191970" points="617.5001,-35.2448 614,-25.2449 610.5001,-35.2449 617.5001,-35.2448"/>
</g>
<!-- Node23 -->
<g id="node24" class="node">
<title>Node23</title>
<polygon fill="none" stroke="#bfbfbf" points="657.5,-.5 657.5,-30.5 822.5,-30.5 822.5,-.5 657.5,-.5"/>
<text text-anchor="start" x="665.5" y="-18.5" font-family="Helvetica,sans-Serif" font-size="10.00" fill="#000000">boost/interprocess</text>
<text text-anchor="middle" x="740" y="-7.5" font-family="Helvetica,sans-Serif" font-size="10.00" fill="#000000">/managed_external_buffer.hpp</text>
</g>
<!-- Node19&#45;&gt;Node23 -->
<g id="edge27" class="edge">
<title>Node19&#45;&gt;Node23</title>
<path fill="none" stroke="#191970" d="M633.6875,-67.3906C651.3716,-58.7591 677.8806,-45.8202 700.003,-35.0224"/>
<polygon fill="#191970" stroke="#191970" points="701.7255,-38.0763 709.1769,-30.5446 698.655,-31.7857 701.7255,-38.0763"/>
</g>
<!-- Node24 -->
<g id="node25" class="node">
<title>Node24</title>
<polygon fill="none" stroke="#bfbfbf" points="841,-.5 841,-30.5 975,-30.5 975,-.5 841,-.5"/>
<text text-anchor="start" x="849" y="-18.5" font-family="Helvetica,sans-Serif" font-size="10.00" fill="#000000">boost/interprocess</text>
<text text-anchor="middle" x="908" y="-7.5" font-family="Helvetica,sans-Serif" font-size="10.00" fill="#000000">/allocators/allocator.hpp</text>
</g>
<!-- Node19&#45;&gt;Node24 -->
<g id="edge28" class="edge">
<title>Node19&#45;&gt;Node24</title>
<path fill="none" stroke="#191970" d="M659.6149,-67.4581C705.3178,-57.8978 776.5131,-43.0049 830.9848,-31.6103"/>
<polygon fill="#191970" stroke="#191970" points="831.8799,-34.9989 840.9513,-29.5255 830.4465,-28.1472 831.8799,-34.9989"/>
</g>
<!-- Node25&#45;&gt;Node19 -->
<g id="edge30" class="edge">
<title>Node25&#45;&gt;Node19</title>
<path fill="none" stroke="#191970" d="M833.6603,-128.9581C788.0232,-118.1632 713.643,-100.5694 664.266,-88.8899"/>
<polygon fill="#191970" stroke="#191970" points="664.9715,-85.4602 654.4344,-86.5643 663.3602,-92.2722 664.9715,-85.4602"/>
</g>
<!-- Node25&#45;&gt;Node26 -->
<g id="edge31" class="edge">
<title>Node25&#45;&gt;Node26</title>
<path fill="none" stroke="#191970" d="M822.3154,-128.9596C810.1021,-126.8547 797.1095,-124.7372 785,-123 648.7527,-103.4542 485.8593,-87.1677 414.5069,-80.3861"/>
<polygon fill="#191970" stroke="#191970" points="414.5429,-76.874 404.258,-79.4177 413.8843,-83.8429 414.5429,-76.874"/>
</g>
<!-- Node29&#45;&gt;Node25 -->
<g id="edge48" class="edge">
<title>Node29&#45;&gt;Node25</title>
<path fill="none" stroke="#191970" d="M874,-190.3906C874,-181.8657 874,-169.1392 874,-158.4235"/>
<polygon fill="#191970" stroke="#191970" points="877.5001,-158.2448 874,-148.2449 870.5001,-158.2449 877.5001,-158.2448"/>
</g>
<!-- Node30 -->
<g id="node31" class="node">
<title>Node30</title>
<g id="a_node31"><a xlink:href="../../d4/d25/BaseHits_8h.html" target="_top" xlink:title="SimulationDataFormat\l/BaseHits.h">
<polygon fill="none" stroke="#000000" points="1487.5,-123.5 1487.5,-153.5 1614.5,-153.5 1614.5,-123.5 1487.5,-123.5"/>
<text text-anchor="start" x="1495.5" y="-141.5" font-family="Helvetica,sans-Serif" font-size="10.00" fill="#000000">SimulationDataFormat</text>
<text text-anchor="middle" x="1551" y="-130.5" font-family="Helvetica,sans-Serif" font-size="10.00" fill="#000000">/BaseHits.h</text>
</a>
</g>
</g>
<!-- Node29&#45;&gt;Node30 -->
<g id="edge36" class="edge">
<title>Node29&#45;&gt;Node30</title>
<path fill="none" stroke="#191970" d="M933.3387,-197.7952C1041.1958,-193.2657 1276.4138,-180.9826 1473,-154 1474.308,-153.8205 1475.6271,-153.6327 1476.9546,-153.4376"/>
<polygon fill="#191970" stroke="#191970" points="1477.9219,-156.8284 1487.254,-151.8123 1476.8307,-149.914 1477.9219,-156.8284"/>
</g>
<!-- Node31 -->
<g id="node32" class="node">
<title>Node31</title>
<g id="a_node32"><a xlink:href="../../dc/d73/Cartesian_8h.html" target="_top" xlink:title="MathUtils/Cartesian.h">
<polygon fill="none" stroke="#000000" points="1671,-67.5 1671,-86.5 1793,-86.5 1793,-67.5 1671,-67.5"/>
<text text-anchor="middle" x="1732" y="-74.5" font-family="Helvetica,sans-Serif" font-size="10.00" fill="#000000">MathUtils/Cartesian.h</text>
</a>
</g>
</g>
<!-- Node30&#45;&gt;Node31 -->
<g id="edge37" class="edge">
<title>Node30&#45;&gt;Node31</title>
<path fill="none" stroke="#191970" d="M1595.2776,-123.4554C1625.6104,-113.149 1665.4129,-99.6249 1694.2444,-89.8286"/>
<polygon fill="#191970" stroke="#191970" points="1695.6091,-93.0615 1703.9514,-86.5303 1693.357,-86.4336 1695.6091,-93.0615"/>
</g>
<!-- Node31&#45;&gt;Node2 -->
<g id="edge45" class="edge">
<title>Node31&#45;&gt;Node2</title>
<path fill="none" stroke="#191970" d="M1670.639,-68.5285C1666.0272,-67.9807 1661.4421,-67.4637 1657,-67 1445.987,-44.9711 1388.9202,-73.201 1181,-31 1177.1157,-30.2116 1173.1061,-29.1898 1169.1483,-28.0468"/>
<polygon fill="#191970" stroke="#191970" points="1170.107,-24.6794 1159.5177,-25.0204 1168.0084,-31.3575 1170.107,-24.6794"/>
</g>
<!-- Node31&#45;&gt;Node13 -->
<g id="edge47" class="edge">
<title>Node31&#45;&gt;Node13</title>
<path fill="none" stroke="#191970" d="M1670.6324,-68.5902C1666.0221,-68.0281 1661.4392,-67.4911 1657,-67 1475.6258,-46.9363 1424.4518,-77.5178 1248,-31 1245.8084,-30.4222 1243.5817,-29.7135 1241.3704,-28.9202"/>
<polygon fill="#191970" stroke="#191970" points="1242.5102,-25.6048 1231.9301,-25.0461 1239.8525,-32.0807 1242.5102,-25.6048"/>
</g>
<!-- Node32 -->
<g id="node33" class="node">
<title>Node32</title>
<polygon fill="none" stroke="#bfbfbf" points="1938,-.5 1938,-30.5 2102,-30.5 2102,-.5 1938,-.5"/>
<text text-anchor="start" x="1946" y="-18.5" font-family="Helvetica,sans-Serif" font-size="10.00" fill="#000000">Math/GenVector/Displacement</text>
<text text-anchor="middle" x="2020" y="-7.5" font-family="Helvetica,sans-Serif" font-size="10.00" fill="#000000">Vector3D.h</text>
</g>
<!-- Node31&#45;&gt;Node32 -->
<g id="edge38" class="edge">
<title>Node31&#45;&gt;Node32</title>
<path fill="none" stroke="#191970" d="M1776.684,-67.4581C1820.0997,-58.187 1886.9993,-43.9012 1939.6694,-32.6539"/>
<polygon fill="#191970" stroke="#191970" points="1940.6171,-36.0306 1949.6657,-30.5193 1939.1552,-29.1849 1940.6171,-36.0306"/>
</g>
<!-- Node33 -->
<g id="node34" class="node">
<title>Node33</title>
<polygon fill="none" stroke="#bfbfbf" points="2120.5,-6 2120.5,-25 2309.5,-25 2309.5,-6 2120.5,-6"/>
<text text-anchor="middle" x="2215" y="-13" font-family="Helvetica,sans-Serif" font-size="10.00" fill="#000000">Math/GenVector/PositionVector3D.h</text>
</g>
<!-- Node31&#45;&gt;Node33 -->
<g id="edge39" class="edge">
<title>Node31&#45;&gt;Node33</title>
<path fill="none" stroke="#191970" d="M1793.112,-70.1002C1868.0777,-61.5169 1999.0087,-46.139 2111,-31 2121.2819,-29.6101 2132.1245,-28.0733 2142.7721,-26.5235"/>
<polygon fill="#191970" stroke="#191970" points="2143.5104,-29.9527 2152.8963,-25.0378 2142.494,-23.0269 2143.5104,-29.9527"/>
</g>
<!-- Node34 -->
<g id="node35" class="node">
<title>Node34</title>
<polygon fill="none" stroke="#bfbfbf" points="2328,-6 2328,-25 2488,-25 2488,-6 2328,-6"/>
<text text-anchor="middle" x="2408" y="-13" font-family="Helvetica,sans-Serif" font-size="10.00" fill="#000000">Math/GenVector/Rotation3D.h</text>
</g>
<!-- Node31&#45;&gt;Node34 -->
<g id="edge40" class="edge">
<title>Node31&#45;&gt;Node34</title>
<path fill="none" stroke="#191970" d="M1793.0352,-74.1155C1899.9245,-68.6407 2127.8223,-55.0839 2319,-31 2328.4703,-29.807 2338.4678,-28.3052 2348.2066,-26.7088"/>
<polygon fill="#191970" stroke="#191970" points="2348.9494,-30.1331 2358.2288,-25.0201 2347.7862,-23.2304 2348.9494,-30.1331"/>
</g>
<!-- Node35 -->
<g id="node36" class="node">
<title>Node35</title>
<polygon fill="none" stroke="#bfbfbf" points="2506,-6 2506,-25 2674,-25 2674,-6 2506,-6"/>
<text text-anchor="middle" x="2590" y="-13" font-family="Helvetica,sans-Serif" font-size="10.00" fill="#000000">Math/GenVector/Transform3D.h</text>
</g>
<!-- Node31&#45;&gt;Node35 -->
<g id="edge41" class="edge">
<title>Node31&#45;&gt;Node35</title>
<path fill="none" stroke="#191970" d="M1793.1737,-75.5034C1923.1374,-71.8448 2236.2163,-60.4899 2497,-31 2507.2304,-29.8431 2518.0477,-28.3191 2528.546,-26.678"/>
<polygon fill="#191970" stroke="#191970" points="2529.1681,-30.123 2538.4841,-25.077 2528.0547,-23.2121 2529.1681,-30.123"/>
</g>
<!-- Node36 -->
<g id="node37" class="node">
<title>Node36</title>
<polygon fill="none" stroke="#bfbfbf" points="1256.5,-6 1256.5,-25 1429.5,-25 1429.5,-6 1256.5,-6"/>
<text text-anchor="middle" x="1343" y="-13" font-family="Helvetica,sans-Serif" font-size="10.00" fill="#000000">Math/GenVector/Translation3D.h</text>
</g>
<!-- Node31&#45;&gt;Node36 -->
<g id="edge42" class="edge">
<title>Node31&#45;&gt;Node36</title>
<path fill="none" stroke="#191970" d="M1670.8193,-67.4742C1611.5359,-58.225 1519.0896,-43.7524 1439,-31 1430.1232,-29.5866 1420.7863,-28.0906 1411.5647,-26.6076"/>
<polygon fill="#191970" stroke="#191970" points="1412.0599,-23.1424 1401.6307,-25.008 1410.947,-30.0533 1412.0599,-23.1424"/>
</g>
<!-- Node37 -->
<g id="node38" class="node">
<title>Node37</title>
<polygon fill="none" stroke="#bfbfbf" points="1448,-.5 1448,-30.5 1612,-30.5 1612,-.5 1448,-.5"/>
<text text-anchor="start" x="1456" y="-18.5" font-family="Helvetica,sans-Serif" font-size="10.00" fill="#000000">Math/GenVector/Displacement</text>
<text text-anchor="middle" x="1530" y="-7.5" font-family="Helvetica,sans-Serif" font-size="10.00" fill="#000000">Vector2D.h</text>
</g>
<!-- Node31&#45;&gt;Node37 -->
<g id="edge43" class="edge">
<title>Node31&#45;&gt;Node37</title>
<path fill="none" stroke="#191970" d="M1700.4375,-67.3906C1670.8211,-58.3737 1625.7656,-44.6563 1589.4162,-33.5896"/>
<polygon fill="#191970" stroke="#191970" points="1590.0006,-30.109 1579.4148,-30.5446 1587.9618,-36.8055 1590.0006,-30.109"/>
</g>
<!-- Node38 -->
<g id="node39" class="node">
<title>Node38</title>
<polygon fill="none" stroke="#bfbfbf" points="1630.5,-6 1630.5,-25 1819.5,-25 1819.5,-6 1630.5,-6"/>
<text text-anchor="middle" x="1725" y="-13" font-family="Helvetica,sans-Serif" font-size="10.00" fill="#000000">Math/GenVector/PositionVector2D.h</text>
</g>
<!-- Node31&#45;&gt;Node38 -->
<g id="edge44" class="edge">
<title>Node31&#45;&gt;Node38</title>
<path fill="none" stroke="#191970" d="M1730.9063,-67.3906C1729.9359,-58.8657 1728.4874,-46.1392 1727.2677,-35.4235"/>
<polygon fill="#191970" stroke="#191970" points="1730.7177,-34.7849 1726.1092,-25.2449 1723.7626,-35.5766 1730.7177,-34.7849"/>
</g>
<!-- Node39 -->
<g id="node40" class="node">
<title>Node39</title>
<polygon fill="none" stroke="#bfbfbf" points="1838,-6 1838,-25 1920,-25 1920,-6 1838,-6"/>
<text text-anchor="middle" x="1879" y="-13" font-family="Helvetica,sans-Serif" font-size="10.00" fill="#000000">TGeoMatrix.h</text>
</g>
<!-- Node31&#45;&gt;Node39 -->
<g id="edge46" class="edge">
<title>Node31&#45;&gt;Node39</title>
<path fill="none" stroke="#191970" d="M1754.9688,-67.3906C1779.6724,-57.0554 1819.137,-40.5447 1846.9027,-28.9284"/>
<polygon fill="#191970" stroke="#191970" points="1848.3182,-32.1303 1856.1925,-25.0419 1845.6165,-25.6727 1848.3182,-32.1303"/>
</g>
</g>
</svg>
