<?xml version="1.0" encoding="UTF-8" standalone="no"?>
<!DOCTYPE svg PUBLIC "-//W3C//DTD SVG 1.1//EN"
 "http://www.w3.org/Graphics/SVG/1.1/DTD/svg11.dtd">
<!-- Generated by graphviz version 2.40.1 (20161225.0304)
 -->
<!-- Title: /home/travis/build/AliceO2Group/AliceO2/Detectors/EMCAL/base/src/Geometry.cxx Pages: 1 -->
<svg width="2044pt" height="251pt"
 viewBox="0.00 0.00 2043.57 251.00" xmlns="http://www.w3.org/2000/svg" xmlns:xlink="http://www.w3.org/1999/xlink">
<g id="graph0" class="graph" transform="scale(1 1) rotate(0) translate(4 247)">
<title>/home/travis/build/AliceO2Group/AliceO2/Detectors/EMCAL/base/src/Geometry.cxx</title>
<!-- Node0 -->
<g id="node1" class="node">
<title>Node0</title>
<polygon fill="#bfbfbf" stroke="#000000" points="1269.0743,-190.5 1269.0743,-242.5 1398.0743,-242.5 1398.0743,-190.5 1269.0743,-190.5"/>
<text text-anchor="start" x="1277.0743" y="-230.5" font-family="Helvetica,sans-Serif" font-size="10.00" fill="#000000">/home/travis/build</text>
<text text-anchor="start" x="1277.0743" y="-219.5" font-family="Helvetica,sans-Serif" font-size="10.00" fill="#000000">/AliceO2Group/AliceO2</text>
<text text-anchor="start" x="1277.0743" y="-208.5" font-family="Helvetica,sans-Serif" font-size="10.00" fill="#000000">/Detectors/EMCAL/base</text>
<text text-anchor="middle" x="1333.5743" y="-197.5" font-family="Helvetica,sans-Serif" font-size="10.00" fill="#000000">/src/Geometry.cxx</text>
</g>
<!-- Node1 -->
<g id="node2" class="node">
<title>Node1</title>
<polygon fill="none" stroke="#bfbfbf" points="1192.5743,-67.5 1192.5743,-86.5 1248.5743,-86.5 1248.5743,-67.5 1192.5743,-67.5"/>
<text text-anchor="middle" x="1220.5743" y="-74.5" font-family="Helvetica,sans-Serif" font-size="10.00" fill="#000000">iomanip</text>
</g>
<!-- Node0&#45;&gt;Node1 -->
<g id="edge1" class="edge">
<title>Node0&#45;&gt;Node1</title>
<path fill="none" stroke="#191970" d="M1279.5494,-190.2567C1264.6775,-180.7009 1249.8341,-168.587 1239.5743,-154 1227.732,-137.1629 1223.2414,-113.7311 1221.5547,-97.1491"/>
<polygon fill="#191970" stroke="#191970" points="1225.0258,-96.6352 1220.779,-86.9288 1218.0459,-97.165 1225.0258,-96.6352"/>
</g>
<!-- Node2 -->
<g id="node3" class="node">
<title>Node2</title>
<polygon fill="none" stroke="#bfbfbf" points="1428.0743,-129 1428.0743,-148 1505.0743,-148 1505.0743,-129 1428.0743,-129"/>
<text text-anchor="middle" x="1466.5743" y="-136" font-family="Helvetica,sans-Serif" font-size="10.00" fill="#000000">TGeoBBox.h</text>
</g>
<!-- Node0&#45;&gt;Node2 -->
<g id="edge2" class="edge">
<title>Node0&#45;&gt;Node2</title>
<path fill="none" stroke="#191970" d="M1378.2314,-190.3101C1399.3096,-177.9485 1423.6815,-163.6552 1441.4804,-153.2167"/>
<polygon fill="#191970" stroke="#191970" points="1443.2813,-156.2181 1450.1367,-148.1401 1439.7401,-150.1799 1443.2813,-156.2181"/>
</g>
<!-- Node3 -->
<g id="node4" class="node">
<title>Node3</title>
<polygon fill="none" stroke="#bfbfbf" points="1523.5743,-129 1523.5743,-148 1615.5743,-148 1615.5743,-129 1523.5743,-129"/>
<text text-anchor="middle" x="1569.5743" y="-136" font-family="Helvetica,sans-Serif" font-size="10.00" fill="#000000">TGeoManager.h</text>
</g>
<!-- Node0&#45;&gt;Node3 -->
<g id="edge3" class="edge">
<title>Node0&#45;&gt;Node3</title>
<path fill="none" stroke="#191970" d="M1398.3745,-195.083C1440.9072,-181.0256 1495.1026,-163.1135 1530.9976,-151.2499"/>
<polygon fill="#191970" stroke="#191970" points="1532.2152,-154.5338 1540.6116,-148.0724 1530.0184,-147.8874 1532.2152,-154.5338"/>
</g>
<!-- Node4 -->
<g id="node5" class="node">
<title>Node4</title>
<polygon fill="none" stroke="#bfbfbf" points="1953.5743,-6 1953.5743,-25 2035.5743,-25 2035.5743,-6 1953.5743,-6"/>
<text text-anchor="middle" x="1994.5743" y="-13" font-family="Helvetica,sans-Serif" font-size="10.00" fill="#000000">TGeoMatrix.h</text>
</g>
<!-- Node0&#45;&gt;Node4 -->
<g id="edge4" class="edge">
<title>Node0&#45;&gt;Node4</title>
<path fill="none" stroke="#191970" d="M1268.9211,-201.6987C1180.1729,-178.6248 1038.1004,-130.1021 1098.5743,-67 1131.1237,-33.0362 1898.2225,-39.0314 1944.5743,-31 1949.13,-30.2106 1953.8497,-29.1229 1958.4882,-27.8865"/>
<polygon fill="#191970" stroke="#191970" points="1959.7923,-31.1524 1968.4181,-25.0005 1957.8386,-24.4305 1959.7923,-31.1524"/>
</g>
<!-- Node5 -->
<g id="node6" class="node">
<title>Node5</title>
<polygon fill="none" stroke="#bfbfbf" points="1634.0743,-129 1634.0743,-148 1683.0743,-148 1683.0743,-129 1634.0743,-129"/>
<text text-anchor="middle" x="1658.5743" y="-136" font-family="Helvetica,sans-Serif" font-size="10.00" fill="#000000">TList.h</text>
</g>
<!-- Node0&#45;&gt;Node5 -->
<g id="edge5" class="edge">
<title>Node0&#45;&gt;Node5</title>
<path fill="none" stroke="#191970" d="M1398.2139,-206.7436C1457.8988,-196.7711 1548.5383,-179.1679 1624.5743,-154 1626.4219,-153.3884 1628.3034,-152.7074 1630.1855,-151.9815"/>
<polygon fill="#191970" stroke="#191970" points="1631.5813,-155.1914 1639.4463,-148.0926 1628.8711,-148.7374 1631.5813,-155.1914"/>
</g>
<!-- Node6 -->
<g id="node7" class="node">
<title>Node6</title>
<polygon fill="none" stroke="#bfbfbf" points="1267.0743,-67.5 1267.0743,-86.5 1342.0743,-86.5 1342.0743,-67.5 1267.0743,-67.5"/>
<text text-anchor="middle" x="1304.5743" y="-74.5" font-family="Helvetica,sans-Serif" font-size="10.00" fill="#000000">FairLogger.h</text>
</g>
<!-- Node0&#45;&gt;Node6 -->
<g id="edge6" class="edge">
<title>Node0&#45;&gt;Node6</title>
<path fill="none" stroke="#191970" d="M1282.0922,-190.2977C1268.7316,-180.8013 1256.0165,-168.7096 1248.5743,-154 1242.3544,-141.7061 1242.6864,-135.4563 1248.5743,-123 1254.5989,-110.2547 1266.0775,-99.8542 1277.0817,-92.1874"/>
<polygon fill="#191970" stroke="#191970" points="1279.1865,-94.9948 1285.692,-86.6324 1275.3915,-89.1127 1279.1865,-94.9948"/>
</g>
<!-- Node7 -->
<g id="node8" class="node">
<title>Node7</title>
<g id="a_node8"><a xlink:href="../../dd/da8/EMCAL_2base_2include_2EMCALBase_2Geometry_8h.html" target="_top" xlink:title="EMCALBase/Geometry.h">
<polygon fill="none" stroke="#000000" points="452.0743,-129 452.0743,-148 585.0743,-148 585.0743,-129 452.0743,-129"/>
<text text-anchor="middle" x="518.5743" y="-136" font-family="Helvetica,sans-Serif" font-size="10.00" fill="#000000">EMCALBase/Geometry.h</text>
</a>
</g>
</g>
<!-- Node0&#45;&gt;Node7 -->
<g id="edge7" class="edge">
<title>Node0&#45;&gt;Node7</title>
<path fill="none" stroke="#191970" d="M1268.9414,-210.3143C1120.3821,-196.0963 755.1303,-161.1397 595.4214,-145.8547"/>
<polygon fill="#191970" stroke="#191970" points="595.4913,-142.3455 585.2034,-144.8768 594.8244,-149.3136 595.4913,-142.3455"/>
</g>
<!-- Node29 -->
<g id="node30" class="node">
<title>Node29</title>
<g id="a_node30"><a xlink:href="../../d8/d00/ShishKebabTrd1Module_8h.html" target="_top" xlink:title="EMCALBase/ShishKebabTrd1\lModule.h">
<polygon fill="none" stroke="#000000" points="1257.0743,-123.5 1257.0743,-153.5 1410.0743,-153.5 1410.0743,-123.5 1257.0743,-123.5"/>
<text text-anchor="start" x="1265.0743" y="-141.5" font-family="Helvetica,sans-Serif" font-size="10.00" fill="#000000">EMCALBase/ShishKebabTrd1</text>
<text text-anchor="middle" x="1333.5743" y="-130.5" font-family="Helvetica,sans-Serif" font-size="10.00" fill="#000000">Module.h</text>
</a>
</g>
</g>
<!-- Node0&#45;&gt;Node29 -->
<g id="edge35" class="edge">
<title>Node0&#45;&gt;Node29</title>
<path fill="none" stroke="#191970" d="M1333.5743,-190.0928C1333.5743,-181.516 1333.5743,-172.0289 1333.5743,-163.5538"/>
<polygon fill="#191970" stroke="#191970" points="1337.0744,-163.5045 1333.5743,-153.5046 1330.0744,-163.5046 1337.0744,-163.5045"/>
</g>
<!-- Node33 -->
<g id="node34" class="node">
<title>Node33</title>
<polygon fill="none" stroke="#bfbfbf" points="1701.0743,-123.5 1701.0743,-153.5 1826.0743,-153.5 1826.0743,-123.5 1701.0743,-123.5"/>
<text text-anchor="start" x="1709.0743" y="-141.5" font-family="Helvetica,sans-Serif" font-size="10.00" fill="#000000">boost/algorithm/string</text>
<text text-anchor="middle" x="1763.5743" y="-130.5" font-family="Helvetica,sans-Serif" font-size="10.00" fill="#000000">/predicate.hpp</text>
</g>
<!-- Node0&#45;&gt;Node33 -->
<g id="edge42" class="edge">
<title>Node0&#45;&gt;Node33</title>
<path fill="none" stroke="#191970" d="M1398.2548,-206.0909C1468.0722,-194.6632 1582.7792,-175.3334 1690.7899,-154.311"/>
<polygon fill="#191970" stroke="#191970" points="1691.742,-157.6912 1700.8845,-152.3374 1690.3988,-150.8213 1691.742,-157.6912"/>
</g>
<!-- Node7&#45;&gt;Node4 -->
<g id="edge13" class="edge">
<title>Node7&#45;&gt;Node4</title>
<path fill="none" stroke="#191970" d="M585.2267,-133.6811C691.1257,-125.5326 892.858,-107.865 961.5743,-87 980.2137,-81.3404 981.7294,-71.9322 1000.5743,-67 1203.6639,-13.8461 1737.6476,-66.3844 1944.5743,-31 1949.1318,-30.2207 1953.8525,-29.139 1958.4916,-27.9058"/>
<polygon fill="#191970" stroke="#191970" points="1959.7943,-31.1722 1968.422,-25.0229 1957.8426,-24.4498 1959.7943,-31.1722"/>
</g>
<!-- Node8 -->
<g id="node9" class="node">
<title>Node8</title>
<polygon fill="none" stroke="#bfbfbf" points="322.0743,-6 322.0743,-25 387.0743,-25 387.0743,-6 322.0743,-6"/>
<text text-anchor="middle" x="354.5743" y="-13" font-family="Helvetica,sans-Serif" font-size="10.00" fill="#000000">exception</text>
</g>
<!-- Node7&#45;&gt;Node8 -->
<g id="edge8" class="edge">
<title>Node7&#45;&gt;Node8</title>
<path fill="none" stroke="#191970" d="M508.5607,-128.6627C493.7079,-114.3086 464.6706,-87.1434 437.5743,-67 419.3163,-53.4269 397.4004,-39.9365 380.6747,-30.1696"/>
<polygon fill="#191970" stroke="#191970" points="382.3837,-27.1149 371.9727,-25.1498 378.8859,-33.1784 382.3837,-27.1149"/>
</g>
<!-- Node9 -->
<g id="node10" class="node">
<title>Node9</title>
<polygon fill="none" stroke="#bfbfbf" points="113.5743,-6 113.5743,-25 157.5743,-25 157.5743,-6 113.5743,-6"/>
<text text-anchor="middle" x="135.5743" y="-13" font-family="Helvetica,sans-Serif" font-size="10.00" fill="#000000">string</text>
</g>
<!-- Node7&#45;&gt;Node9 -->
<g id="edge9" class="edge">
<title>Node7&#45;&gt;Node9</title>
<path fill="none" stroke="#191970" d="M451.8472,-136.663C320.1255,-132.3455 36.8411,-119.3646 7.5743,-87 -23.839,-52.2616 56.0284,-30.5228 103.4393,-21.0424"/>
<polygon fill="#191970" stroke="#191970" points="104.1324,-24.4734 113.2947,-19.1533 102.8145,-17.5986 104.1324,-24.4734"/>
</g>
<!-- Node10 -->
<g id="node11" class="node">
<title>Node10</title>
<polygon fill="none" stroke="#bfbfbf" points="1009.0743,-67.5 1009.0743,-86.5 1050.0743,-86.5 1050.0743,-67.5 1009.0743,-67.5"/>
<text text-anchor="middle" x="1029.5743" y="-74.5" font-family="Helvetica,sans-Serif" font-size="10.00" fill="#000000">tuple</text>
</g>
<!-- Node7&#45;&gt;Node10 -->
<g id="edge10" class="edge">
<title>Node7&#45;&gt;Node10</title>
<path fill="none" stroke="#191970" d="M585.3348,-134.8773C677.9093,-129.0389 850.1826,-115.2244 994.5743,-87 996.0474,-86.7121 997.5483,-86.3915 999.0593,-86.0468"/>
<polygon fill="#191970" stroke="#191970" points="1000.1642,-89.3771 1008.988,-83.5127 998.433,-82.5945 1000.1642,-89.3771"/>
</g>
<!-- Node11 -->
<g id="node12" class="node">
<title>Node11</title>
<polygon fill="none" stroke="#bfbfbf" points="17.0743,-67.5 17.0743,-86.5 64.0743,-86.5 64.0743,-67.5 17.0743,-67.5"/>
<text text-anchor="middle" x="40.5743" y="-74.5" font-family="Helvetica,sans-Serif" font-size="10.00" fill="#000000">vector</text>
</g>
<!-- Node7&#45;&gt;Node11 -->
<g id="edge11" class="edge">
<title>Node7&#45;&gt;Node11</title>
<path fill="none" stroke="#191970" d="M452.0124,-134.5275C366.5403,-128.5984 213.641,-115.1983 74.2482,-86.7953"/>
<polygon fill="#191970" stroke="#191970" points="74.7381,-83.3226 64.2364,-84.7242 73.32,-90.1774 74.7381,-83.3226"/>
</g>
<!-- Node12 -->
<g id="node13" class="node">
<title>Node12</title>
<polygon fill="none" stroke="#bfbfbf" points="82.5743,-67.5 82.5743,-86.5 166.5743,-86.5 166.5743,-67.5 82.5743,-67.5"/>
<text text-anchor="middle" x="124.5743" y="-74.5" font-family="Helvetica,sans-Serif" font-size="10.00" fill="#000000">RStringView.h</text>
</g>
<!-- Node7&#45;&gt;Node12 -->
<g id="edge12" class="edge">
<title>Node7&#45;&gt;Node12</title>
<path fill="none" stroke="#191970" d="M452.0371,-129.4059C385.059,-120.0485 278.5377,-104.6146 176.9761,-87.1871"/>
<polygon fill="#191970" stroke="#191970" points="177.2978,-83.691 166.8483,-85.4397 176.1075,-90.5891 177.2978,-83.691"/>
</g>
<!-- Node13 -->
<g id="node14" class="node">
<title>Node13</title>
<polygon fill="none" stroke="#bfbfbf" points="1107.0743,-67.5 1107.0743,-86.5 1174.0743,-86.5 1174.0743,-67.5 1107.0743,-67.5"/>
<text text-anchor="middle" x="1140.5743" y="-74.5" font-family="Helvetica,sans-Serif" font-size="10.00" fill="#000000">TNamed.h</text>
</g>
<!-- Node7&#45;&gt;Node13 -->
<g id="edge14" class="edge">
<title>Node7&#45;&gt;Node13</title>
<path fill="none" stroke="#191970" d="M585.2649,-132.7552C687.4513,-123.8163 888.8773,-105.6579 1059.5743,-87 1071.5579,-85.6901 1084.5226,-84.1464 1096.4927,-82.669"/>
<polygon fill="#191970" stroke="#191970" points="1097.2162,-86.106 1106.7062,-81.3952 1096.3499,-79.1598 1097.2162,-86.106"/>
</g>
<!-- Node14 -->
<g id="node15" class="node">
<title>Node14</title>
<polygon fill="none" stroke="#bfbfbf" points="184.5743,-67.5 184.5743,-86.5 252.5743,-86.5 252.5743,-67.5 184.5743,-67.5"/>
<text text-anchor="middle" x="218.5743" y="-74.5" font-family="Helvetica,sans-Serif" font-size="10.00" fill="#000000">TParticle.h</text>
</g>
<!-- Node7&#45;&gt;Node14 -->
<g id="edge15" class="edge">
<title>Node7&#45;&gt;Node14</title>
<path fill="none" stroke="#191970" d="M468.7316,-128.9828C419.0118,-119.3833 340.1972,-103.8818 262.7481,-87.2094"/>
<polygon fill="#191970" stroke="#191970" points="263.3342,-83.7554 252.8205,-85.0642 261.8557,-90.5975 263.3342,-83.7554"/>
</g>
<!-- Node15 -->
<g id="node16" class="node">
<title>Node15</title>
<polygon fill="none" stroke="#bfbfbf" points="484.5743,-67.5 484.5743,-86.5 552.5743,-86.5 552.5743,-67.5 484.5743,-67.5"/>
<text text-anchor="middle" x="518.5743" y="-74.5" font-family="Helvetica,sans-Serif" font-size="10.00" fill="#000000">TVector3.h</text>
</g>
<!-- Node7&#45;&gt;Node15 -->
<g id="edge16" class="edge">
<title>Node7&#45;&gt;Node15</title>
<path fill="none" stroke="#191970" d="M518.5743,-128.8906C518.5743,-120.3657 518.5743,-107.6392 518.5743,-96.9235"/>
<polygon fill="#191970" stroke="#191970" points="522.0744,-96.7448 518.5743,-86.7449 515.0744,-96.7449 522.0744,-96.7448"/>
</g>
<!-- Node16 -->
<g id="node17" class="node">
<title>Node16</title>
<g id="a_node17"><a xlink:href="../../dd/dda/DataFormats_2Detectors_2EMCAL_2include_2DataFormatsEMCAL_2Constants_8h.html" target="_top" xlink:title="DataFormatsEMCAL/Constants.h">
<polygon fill="none" stroke="#000000" points="571.0743,-67.5 571.0743,-86.5 744.0743,-86.5 744.0743,-67.5 571.0743,-67.5"/>
<text text-anchor="middle" x="657.5743" y="-74.5" font-family="Helvetica,sans-Serif" font-size="10.00" fill="#000000">DataFormatsEMCAL/Constants.h</text>
</a>
</g>
</g>
<!-- Node7&#45;&gt;Node16 -->
<g id="edge17" class="edge">
<title>Node7&#45;&gt;Node16</title>
<path fill="none" stroke="#191970" d="M540.2931,-128.8906C563.4483,-118.6457 600.3184,-102.3326 626.5335,-90.7339"/>
<polygon fill="#191970" stroke="#191970" points="628.2794,-93.7888 636.0081,-86.5419 625.447,-87.3874 628.2794,-93.7888"/>
</g>
<!-- Node20 -->
<g id="node21" class="node">
<title>Node20</title>
<g id="a_node21"><a xlink:href="../../d5/d5e/GeometryBase_8h.html" target="_top" xlink:title="EMCALBase/GeometryBase.h">
<polygon fill="none" stroke="#000000" points="270.5743,-67.5 270.5743,-86.5 428.5743,-86.5 428.5743,-67.5 270.5743,-67.5"/>
<text text-anchor="middle" x="349.5743" y="-74.5" font-family="Helvetica,sans-Serif" font-size="10.00" fill="#000000">EMCALBase/GeometryBase.h</text>
</a>
</g>
</g>
<!-- Node7&#45;&gt;Node20 -->
<g id="edge22" class="edge">
<title>Node7&#45;&gt;Node20</title>
<path fill="none" stroke="#191970" d="M492.1681,-128.8906C463.3952,-118.42 417.2048,-101.6111 385.2277,-89.9745"/>
<polygon fill="#191970" stroke="#191970" points="386.3892,-86.6726 375.7952,-86.5419 383.9954,-93.2506 386.3892,-86.6726"/>
</g>
<!-- Node21 -->
<g id="node22" class="node">
<title>Node21</title>
<g id="a_node22"><a xlink:href="../../dc/d73/Cartesian_8h.html" target="_top" xlink:title="MathUtils/Cartesian.h">
<polygon fill="none" stroke="#000000" points="830.5743,-67.5 830.5743,-86.5 952.5743,-86.5 952.5743,-67.5 830.5743,-67.5"/>
<text text-anchor="middle" x="891.5743" y="-74.5" font-family="Helvetica,sans-Serif" font-size="10.00" fill="#000000">MathUtils/Cartesian.h</text>
</a>
</g>
</g>
<!-- Node7&#45;&gt;Node21 -->
<g id="edge24" class="edge">
<title>Node7&#45;&gt;Node21</title>
<path fill="none" stroke="#191970" d="M576.4463,-128.9581C643.2457,-117.9443 752.9696,-99.8531 823.7264,-88.1867"/>
<polygon fill="#191970" stroke="#191970" points="824.5761,-91.594 833.8735,-86.5137 823.4373,-84.6872 824.5761,-91.594"/>
</g>
<!-- Node16&#45;&gt;Node8 -->
<g id="edge20" class="edge">
<title>Node16&#45;&gt;Node8</title>
<path fill="none" stroke="#191970" d="M583.1099,-67.497C530.4702,-59.9031 458.5358,-47.7486 396.5743,-31 393.7607,-30.2394 390.8701,-29.3691 387.9855,-28.4375"/>
<polygon fill="#191970" stroke="#191970" points="388.9165,-25.0563 378.3218,-25.1044 386.6341,-31.6738 388.9165,-25.0563"/>
</g>
<!-- Node17 -->
<g id="node18" class="node">
<title>Node17</title>
<polygon fill="none" stroke="#bfbfbf" points="474.0743,-6 474.0743,-25 533.0743,-25 533.0743,-6 474.0743,-6"/>
<text text-anchor="middle" x="503.5743" y="-13" font-family="Helvetica,sans-Serif" font-size="10.00" fill="#000000">Rtypes.h</text>
</g>
<!-- Node16&#45;&gt;Node17 -->
<g id="edge18" class="edge">
<title>Node16&#45;&gt;Node17</title>
<path fill="none" stroke="#191970" d="M633.5118,-67.3906C607.5188,-57.0103 565.9266,-40.4004 536.8197,-28.7766"/>
<polygon fill="#191970" stroke="#191970" points="538.0528,-25.5003 527.4679,-25.0419 535.4567,-32.0011 538.0528,-25.5003"/>
</g>
<!-- Node18 -->
<g id="node19" class="node">
<title>Node18</title>
<polygon fill="none" stroke="#bfbfbf" points="551.0743,-6 551.0743,-25 600.0743,-25 600.0743,-6 551.0743,-6"/>
<text text-anchor="middle" x="575.5743" y="-13" font-family="Helvetica,sans-Serif" font-size="10.00" fill="#000000">iosfwd</text>
</g>
<!-- Node16&#45;&gt;Node18 -->
<g id="edge19" class="edge">
<title>Node16&#45;&gt;Node18</title>
<path fill="none" stroke="#191970" d="M644.7618,-67.3906C631.8842,-57.7324 611.8159,-42.6812 596.6024,-31.271"/>
<polygon fill="#191970" stroke="#191970" points="598.3969,-28.2419 588.2969,-25.0419 594.1969,-33.8419 598.3969,-28.2419"/>
</g>
<!-- Node19 -->
<g id="node20" class="node">
<title>Node19</title>
<polygon fill="none" stroke="#bfbfbf" points="405.5743,-6 405.5743,-25 455.5743,-25 455.5743,-6 405.5743,-6"/>
<text text-anchor="middle" x="430.5743" y="-13" font-family="Helvetica,sans-Serif" font-size="10.00" fill="#000000">cstdint</text>
</g>
<!-- Node16&#45;&gt;Node19 -->
<g id="edge21" class="edge">
<title>Node16&#45;&gt;Node19</title>
<path fill="none" stroke="#191970" d="M606.7367,-67.4505C567.6193,-59.4744 512.495,-46.8634 465.5743,-31 463.7329,-30.3774 461.8553,-29.6948 459.974,-28.9739"/>
<polygon fill="#191970" stroke="#191970" points="461.2642,-25.7201 450.6846,-25.1521 458.6009,-32.1937 461.2642,-25.7201"/>
</g>
<!-- Node20&#45;&gt;Node9 -->
<g id="edge23" class="edge">
<title>Node20&#45;&gt;Node9</title>
<path fill="none" stroke="#191970" d="M316.1368,-67.3906C275.4761,-55.7054 207.3463,-36.1261 167.4191,-24.6516"/>
<polygon fill="#191970" stroke="#191970" points="168.2478,-21.2482 157.6701,-21.8499 166.3143,-27.9759 168.2478,-21.2482"/>
</g>
<!-- Node21&#45;&gt;Node4 -->
<g id="edge33" class="edge">
<title>Node21&#45;&gt;Node4</title>
<path fill="none" stroke="#191970" d="M952.917,-68.3345C957.533,-67.8315 962.1241,-67.3777 966.5743,-67 1399.9771,-30.2148 1515.788,-104.0301 1944.5743,-31 1949.1323,-30.2237 1953.8533,-29.1438 1958.4926,-27.9116"/>
<polygon fill="#191970" stroke="#191970" points="1959.7949,-31.1782 1968.4231,-25.0297 1957.8438,-24.4555 1959.7949,-31.1782"/>
</g>
<!-- Node21&#45;&gt;Node17 -->
<g id="edge32" class="edge">
<title>Node21&#45;&gt;Node17</title>
<path fill="none" stroke="#191970" d="M830.4874,-73.5321C760.1221,-68.4884 641.4912,-56.7505 542.5743,-31 539.798,-30.2773 536.9531,-29.4102 534.1264,-28.4602"/>
<polygon fill="#191970" stroke="#191970" points="535.3056,-25.1647 524.712,-25.0006 532.8911,-31.7352 535.3056,-25.1647"/>
</g>
<!-- Node21&#45;&gt;Node18 -->
<g id="edge34" class="edge">
<title>Node21&#45;&gt;Node18</title>
<path fill="none" stroke="#191970" d="M830.5539,-71.7742C772.7092,-65.7201 683.8597,-53.5497 609.5743,-31 607.6655,-30.4206 605.7247,-29.7567 603.7871,-29.037"/>
<polygon fill="#191970" stroke="#191970" points="604.8677,-25.6964 594.2893,-25.1064 602.1909,-32.1644 604.8677,-25.6964"/>
</g>
<!-- Node22 -->
<g id="node23" class="node">
<title>Node22</title>
<polygon fill="none" stroke="#bfbfbf" points="1199.5743,-.5 1199.5743,-30.5 1363.5743,-30.5 1363.5743,-.5 1199.5743,-.5"/>
<text text-anchor="start" x="1207.5743" y="-18.5" font-family="Helvetica,sans-Serif" font-size="10.00" fill="#000000">Math/GenVector/Displacement</text>
<text text-anchor="middle" x="1281.5743" y="-7.5" font-family="Helvetica,sans-Serif" font-size="10.00" fill="#000000">Vector3D.h</text>
</g>
<!-- Node21&#45;&gt;Node22 -->
<g id="edge25" class="edge">
<title>Node21&#45;&gt;Node22</title>
<path fill="none" stroke="#191970" d="M952.6068,-67.9037C1010.8804,-59.1519 1101.4373,-45.379 1189.3683,-31.1823"/>
<polygon fill="#191970" stroke="#191970" points="1189.9319,-34.6367 1199.2443,-29.5842 1188.8136,-27.7266 1189.9319,-34.6367"/>
</g>
<!-- Node23 -->
<g id="node24" class="node">
<title>Node23</title>
<polygon fill="none" stroke="#bfbfbf" points="1382.0743,-6 1382.0743,-25 1571.0743,-25 1571.0743,-6 1382.0743,-6"/>
<text text-anchor="middle" x="1476.5743" y="-13" font-family="Helvetica,sans-Serif" font-size="10.00" fill="#000000">Math/GenVector/PositionVector3D.h</text>
</g>
<!-- Node21&#45;&gt;Node23 -->
<g id="edge26" class="edge">
<title>Node21&#45;&gt;Node23</title>
<path fill="none" stroke="#191970" d="M952.9423,-68.5934C957.5525,-68.0306 962.1353,-67.4925 966.5743,-67 1146.622,-47.0243 1192.6858,-52.3613 1372.5743,-31 1383.7207,-29.6764 1395.5124,-28.0944 1406.9965,-26.4545"/>
<polygon fill="#191970" stroke="#191970" points="1407.5923,-29.9048 1416.9853,-25.0036 1406.586,-22.9775 1407.5923,-29.9048"/>
</g>
<!-- Node24 -->
<g id="node25" class="node">
<title>Node24</title>
<polygon fill="none" stroke="#bfbfbf" points="1589.5743,-6 1589.5743,-25 1749.5743,-25 1749.5743,-6 1589.5743,-6"/>
<text text-anchor="middle" x="1669.5743" y="-13" font-family="Helvetica,sans-Serif" font-size="10.00" fill="#000000">Math/GenVector/Rotation3D.h</text>
</g>
<!-- Node21&#45;&gt;Node24 -->
<g id="edge27" class="edge">
<title>Node21&#45;&gt;Node24</title>
<path fill="none" stroke="#191970" d="M952.9268,-68.4437C957.5406,-67.9155 962.1285,-67.4261 966.5743,-67 1238.6848,-40.9182 1309.038,-62.5017 1580.5743,-31 1590.3894,-29.8613 1600.7637,-28.3444 1610.8274,-26.7043"/>
<polygon fill="#191970" stroke="#191970" points="1611.4755,-30.1445 1620.7555,-25.0326 1610.3132,-23.2417 1611.4755,-30.1445"/>
</g>
<!-- Node25 -->
<g id="node26" class="node">
<title>Node25</title>
<polygon fill="none" stroke="#bfbfbf" points="1767.5743,-6 1767.5743,-25 1935.5743,-25 1935.5743,-6 1767.5743,-6"/>
<text text-anchor="middle" x="1851.5743" y="-13" font-family="Helvetica,sans-Serif" font-size="10.00" fill="#000000">Math/GenVector/Transform3D.h</text>
</g>
<!-- Node21&#45;&gt;Node25 -->
<g id="edge28" class="edge">
<title>Node21&#45;&gt;Node25</title>
<path fill="none" stroke="#191970" d="M952.9207,-68.3778C957.5359,-67.8648 962.1258,-67.3969 966.5743,-67 1317.5436,-35.6855 1408.1621,-68.0304 1758.5743,-31 1769.0596,-29.892 1780.1563,-28.3602 1790.8928,-26.6881"/>
<polygon fill="#191970" stroke="#191970" points="1791.7293,-30.0985 1801.0446,-25.0512 1790.6149,-23.1878 1791.7293,-30.0985"/>
</g>
<!-- Node26 -->
<g id="node27" class="node">
<title>Node26</title>
<polygon fill="none" stroke="#bfbfbf" points="618.0743,-6 618.0743,-25 791.0743,-25 791.0743,-6 618.0743,-6"/>
<text text-anchor="middle" x="704.5743" y="-13" font-family="Helvetica,sans-Serif" font-size="10.00" fill="#000000">Math/GenVector/Translation3D.h</text>
</g>
<!-- Node21&#45;&gt;Node26 -->
<g id="edge29" class="edge">
<title>Node21&#45;&gt;Node26</title>
<path fill="none" stroke="#191970" d="M862.3556,-67.3906C830.2437,-56.8298 778.5254,-39.8208 743.1136,-28.1747"/>
<polygon fill="#191970" stroke="#191970" points="744.1809,-24.8413 733.5879,-25.0419 741.9939,-31.4909 744.1809,-24.8413"/>
</g>
<!-- Node27 -->
<g id="node28" class="node">
<title>Node27</title>
<polygon fill="none" stroke="#bfbfbf" points="809.5743,-.5 809.5743,-30.5 973.5743,-30.5 973.5743,-.5 809.5743,-.5"/>
<text text-anchor="start" x="817.5743" y="-18.5" font-family="Helvetica,sans-Serif" font-size="10.00" fill="#000000">Math/GenVector/Displacement</text>
<text text-anchor="middle" x="891.5743" y="-7.5" font-family="Helvetica,sans-Serif" font-size="10.00" fill="#000000">Vector2D.h</text>
</g>
<!-- Node21&#45;&gt;Node27 -->
<g id="edge30" class="edge">
<title>Node21&#45;&gt;Node27</title>
<path fill="none" stroke="#191970" d="M891.5743,-67.3906C891.5743,-60.2234 891.5743,-50.0862 891.5743,-40.671"/>
<polygon fill="#191970" stroke="#191970" points="895.0744,-40.5446 891.5743,-30.5446 888.0744,-40.5446 895.0744,-40.5446"/>
</g>
<!-- Node28 -->
<g id="node29" class="node">
<title>Node28</title>
<polygon fill="none" stroke="#bfbfbf" points="992.0743,-6 992.0743,-25 1181.0743,-25 1181.0743,-6 992.0743,-6"/>
<text text-anchor="middle" x="1086.5743" y="-13" font-family="Helvetica,sans-Serif" font-size="10.00" fill="#000000">Math/GenVector/PositionVector2D.h</text>
</g>
<!-- Node21&#45;&gt;Node28 -->
<g id="edge31" class="edge">
<title>Node21&#45;&gt;Node28</title>
<path fill="none" stroke="#191970" d="M922.0431,-67.3906C955.5288,-56.8298 1009.4597,-39.8208 1046.3864,-28.1747"/>
<polygon fill="#191970" stroke="#191970" points="1047.8354,-31.3877 1056.3195,-25.0419 1045.7299,-24.7118 1047.8354,-31.3877"/>
</g>
<!-- Node29&#45;&gt;Node1 -->
<g id="edge36" class="edge">
<title>Node29&#45;&gt;Node1</title>
<path fill="none" stroke="#191970" d="M1305.9314,-123.4554C1288.0694,-113.734 1264.9475,-101.15 1247.2749,-91.5317"/>
<polygon fill="#191970" stroke="#191970" points="1248.5419,-88.2365 1238.0853,-86.5303 1245.1956,-94.3849 1248.5419,-88.2365"/>
</g>
<!-- Node29&#45;&gt;Node6 -->
<g id="edge41" class="edge">
<title>Node29&#45;&gt;Node6</title>
<path fill="none" stroke="#191970" d="M1326.4058,-123.2977C1322.5061,-115.0277 1317.6463,-104.7215 1313.5025,-95.9339"/>
<polygon fill="#191970" stroke="#191970" points="1316.6484,-94.399 1309.2176,-86.8469 1310.317,-97.3846 1316.6484,-94.399"/>
</g>
<!-- Node29&#45;&gt;Node13 -->
<g id="edge39" class="edge">
<title>Node29&#45;&gt;Node13</title>
<path fill="none" stroke="#191970" d="M1286.3612,-123.4554C1253.735,-113.059 1210.8339,-99.3884 1180.0303,-89.5727"/>
<polygon fill="#191970" stroke="#191970" points="1181.0731,-86.2317 1170.4825,-86.5303 1178.9478,-92.9013 1181.0731,-86.2317"/>
</g>
<!-- Node30 -->
<g id="node31" class="node">
<title>Node30</title>
<polygon fill="none" stroke="#bfbfbf" points="1446.5743,-67.5 1446.5743,-86.5 1504.5743,-86.5 1504.5743,-67.5 1446.5743,-67.5"/>
<text text-anchor="middle" x="1475.5743" y="-74.5" font-family="Helvetica,sans-Serif" font-size="10.00" fill="#000000">memory</text>
</g>
<!-- Node29&#45;&gt;Node30 -->
<g id="edge37" class="edge">
<title>Node29&#45;&gt;Node30</title>
<path fill="none" stroke="#191970" d="M1368.3115,-123.4554C1391.4849,-113.419 1421.7035,-100.3314 1444.1586,-90.6061"/>
<polygon fill="#191970" stroke="#191970" points="1445.784,-93.7164 1453.5694,-86.5303 1443.002,-87.2929 1445.784,-93.7164"/>
</g>
<!-- Node31 -->
<g id="node32" class="node">
<title>Node31</title>
<polygon fill="none" stroke="#bfbfbf" points="1522.5743,-67.5 1522.5743,-86.5 1578.5743,-86.5 1578.5743,-67.5 1522.5743,-67.5"/>
<text text-anchor="middle" x="1550.5743" y="-74.5" font-family="Helvetica,sans-Serif" font-size="10.00" fill="#000000">TMath.h</text>
</g>
<!-- Node29&#45;&gt;Node31 -->
<g id="edge38" class="edge">
<title>Node29&#45;&gt;Node31</title>
<path fill="none" stroke="#191970" d="M1386.6585,-123.4554C1425.7152,-112.3864 1477.8674,-97.6059 1512.7563,-87.718"/>
<polygon fill="#191970" stroke="#191970" points="1513.8877,-91.0353 1522.5544,-84.9411 1511.979,-84.3005 1513.8877,-91.0353"/>
</g>
<!-- Node32 -->
<g id="node33" class="node">
<title>Node32</title>
<polygon fill="none" stroke="#bfbfbf" points="1360.5743,-67.5 1360.5743,-86.5 1428.5743,-86.5 1428.5743,-67.5 1360.5743,-67.5"/>
<text text-anchor="middle" x="1394.5743" y="-74.5" font-family="Helvetica,sans-Serif" font-size="10.00" fill="#000000">TVector2.h</text>
</g>
<!-- Node29&#45;&gt;Node32 -->
<g id="edge40" class="edge">
<title>Node29&#45;&gt;Node32</title>
<path fill="none" stroke="#191970" d="M1348.653,-123.2977C1357.4732,-114.4052 1368.6285,-103.1586 1377.7355,-93.9769"/>
<polygon fill="#191970" stroke="#191970" points="1380.2503,-96.4116 1384.8075,-86.8469 1375.2803,-91.4821 1380.2503,-96.4116"/>
</g>
</g>
</svg>
