<?xml version="1.0" encoding="UTF-8" standalone="no"?>
<!DOCTYPE svg PUBLIC "-//W3C//DTD SVG 1.1//EN"
 "http://www.w3.org/Graphics/SVG/1.1/DTD/svg11.dtd">
<!-- Generated by graphviz version 2.40.1 (20161225.0304)
 -->
<!-- Title: /home/travis/build/AliceO2Group/AliceO2/Detectors/ITSMFT/MFT/base/src/HalfDiskSegmentation.cxx Pages: 1 -->
<svg width="2178pt" height="352pt"
 viewBox="0.00 0.00 2178.00 352.00" xmlns="http://www.w3.org/2000/svg" xmlns:xlink="http://www.w3.org/1999/xlink">
<g id="graph0" class="graph" transform="scale(1 1) rotate(0) translate(4 348)">
<title>/home/travis/build/AliceO2Group/AliceO2/Detectors/ITSMFT/MFT/base/src/HalfDiskSegmentation.cxx</title>
<!-- Node0 -->
<g id="node1" class="node">
<title>Node0</title>
<polygon fill="#bfbfbf" stroke="#000000" points="1670,-291.5 1670,-343.5 1864,-343.5 1864,-291.5 1670,-291.5"/>
<text text-anchor="start" x="1678" y="-331.5" font-family="Helvetica,sans-Serif" font-size="10.00" fill="#000000">/home/travis/build</text>
<text text-anchor="start" x="1678" y="-320.5" font-family="Helvetica,sans-Serif" font-size="10.00" fill="#000000">/AliceO2Group/AliceO2</text>
<text text-anchor="start" x="1678" y="-309.5" font-family="Helvetica,sans-Serif" font-size="10.00" fill="#000000">/Detectors/ITSMFT/MFT</text>
<text text-anchor="middle" x="1767" y="-298.5" font-family="Helvetica,sans-Serif" font-size="10.00" fill="#000000">/base/src/HalfDiskSegmentation.cxx</text>
</g>
<!-- Node1 -->
<g id="node2" class="node">
<title>Node1</title>
<polygon fill="none" stroke="#bfbfbf" points="1518.5,-118 1518.5,-137 1607.5,-137 1607.5,-118 1518.5,-118"/>
<text text-anchor="middle" x="1563" y="-125" font-family="Helvetica,sans-Serif" font-size="10.00" fill="#000000">TClonesArray.h</text>
</g>
<!-- Node0&#45;&gt;Node1 -->
<g id="edge1" class="edge">
<title>Node0&#45;&gt;Node1</title>
<path fill="none" stroke="#191970" d="M1739.0624,-291.4797C1696.6327,-251.9618 1617.1066,-177.8934 1581.299,-144.5432"/>
<polygon fill="#191970" stroke="#191970" points="1583.2748,-141.6005 1573.5716,-137.3461 1578.5039,-146.7229 1583.2748,-141.6005"/>
</g>
<!-- Node2 -->
<g id="node3" class="node">
<title>Node2</title>
<polygon fill="none" stroke="#bfbfbf" points="1553.5,-235.5 1553.5,-254.5 1628.5,-254.5 1628.5,-235.5 1553.5,-235.5"/>
<text text-anchor="middle" x="1591" y="-242.5" font-family="Helvetica,sans-Serif" font-size="10.00" fill="#000000">FairLogger.h</text>
</g>
<!-- Node0&#45;&gt;Node2 -->
<g id="edge2" class="edge">
<title>Node0&#45;&gt;Node2</title>
<path fill="none" stroke="#191970" d="M1703.46,-291.3258C1676.3565,-280.161 1645.8903,-267.6111 1623.5113,-258.3924"/>
<polygon fill="#191970" stroke="#191970" points="1624.724,-255.1067 1614.1446,-254.534 1622.0577,-261.5791 1624.724,-255.1067"/>
</g>
<!-- Node3 -->
<g id="node4" class="node">
<title>Node3</title>
<g id="a_node4"><a xlink:href="../../d3/dba/SegmentationAlpide_8h.html" target="_top" xlink:title="Definition of the SegmentationAlpide class. ">
<polygon fill="none" stroke="#000000" points="1350,-235.5 1350,-254.5 1536,-254.5 1536,-235.5 1350,-235.5"/>
<text text-anchor="middle" x="1443" y="-242.5" font-family="Helvetica,sans-Serif" font-size="10.00" fill="#000000">ITSMFTBase/SegmentationAlpide.h</text>
</a>
</g>
</g>
<!-- Node0&#45;&gt;Node3 -->
<g id="edge3" class="edge">
<title>Node0&#45;&gt;Node3</title>
<path fill="none" stroke="#191970" d="M1669.7893,-295.7476C1612.6562,-282.9632 1542.6511,-267.2985 1495.6613,-256.7838"/>
<polygon fill="#191970" stroke="#191970" points="1496.2265,-253.3238 1485.7036,-254.5556 1494.6979,-260.1548 1496.2265,-253.3238"/>
</g>
<!-- Node15 -->
<g id="node16" class="node">
<title>Node15</title>
<g id="a_node16"><a xlink:href="../../dc/d53/HalfDiskSegmentation_8h.html" target="_top" xlink:title="Class for the description of the structure of a half&#45;disk. ">
<polygon fill="none" stroke="#000000" points="1736,-235.5 1736,-254.5 1918,-254.5 1918,-235.5 1736,-235.5"/>
<text text-anchor="middle" x="1827" y="-242.5" font-family="Helvetica,sans-Serif" font-size="10.00" fill="#000000">MFTBase/HalfDiskSegmentation.h</text>
</a>
</g>
</g>
<!-- Node0&#45;&gt;Node15 -->
<g id="edge16" class="edge">
<title>Node0&#45;&gt;Node15</title>
<path fill="none" stroke="#191970" d="M1788.6614,-291.3258C1796.6167,-281.7131 1805.4219,-271.0735 1812.5856,-262.4174"/>
<polygon fill="#191970" stroke="#191970" points="1815.4305,-264.4695 1819.1098,-254.534 1810.0377,-260.0065 1815.4305,-264.4695"/>
</g>
<!-- Node21 -->
<g id="node22" class="node">
<title>Node21</title>
<g id="a_node22"><a xlink:href="../../d6/d2e/ITSMFT_2MFT_2base_2include_2MFTBase_2Geometry_8h.html" target="_top" xlink:title="MFTBase/Geometry.h">
<polygon fill="none" stroke="#000000" points="1886.5,-56.5 1886.5,-75.5 2005.5,-75.5 2005.5,-56.5 1886.5,-56.5"/>
<text text-anchor="middle" x="1946" y="-63.5" font-family="Helvetica,sans-Serif" font-size="10.00" fill="#000000">MFTBase/Geometry.h</text>
</a>
</g>
</g>
<!-- Node0&#45;&gt;Node21 -->
<g id="edge27" class="edge">
<title>Node0&#45;&gt;Node21</title>
<path fill="none" stroke="#191970" d="M1864.0007,-296.0497C1887.3243,-286.8115 1910.2936,-273.6659 1927,-255 1970.3086,-206.6115 1964.6039,-176.4924 1957,-112 1955.9571,-103.1546 1953.8232,-93.5467 1951.71,-85.4104"/>
<polygon fill="#191970" stroke="#191970" points="1955.0772,-84.4548 1949.0375,-75.7501 1948.3306,-86.3213 1955.0772,-84.4548"/>
</g>
<!-- Node22 -->
<g id="node23" class="node">
<title>Node22</title>
<polygon fill="none" stroke="#bfbfbf" points="2024,-235.5 2024,-254.5 2170,-254.5 2170,-235.5 2024,-235.5"/>
<text text-anchor="middle" x="2097" y="-242.5" font-family="Helvetica,sans-Serif" font-size="10.00" fill="#000000">MFTBase/GeometryTGeo.h</text>
</g>
<!-- Node0&#45;&gt;Node22 -->
<g id="edge29" class="edge">
<title>Node0&#45;&gt;Node22</title>
<path fill="none" stroke="#191970" d="M1864.226,-296.1397C1922.7996,-283.2713 1995.1648,-267.3729 2043.5157,-256.7503"/>
<polygon fill="#191970" stroke="#191970" points="2044.4392,-260.131 2053.4552,-254.5667 2042.9371,-253.2941 2044.4392,-260.131"/>
</g>
<!-- Node4 -->
<g id="node5" class="node">
<title>Node4</title>
<polygon fill="none" stroke="#bfbfbf" points="1441.5,-118 1441.5,-137 1500.5,-137 1500.5,-118 1441.5,-118"/>
<text text-anchor="middle" x="1471" y="-125" font-family="Helvetica,sans-Serif" font-size="10.00" fill="#000000">Rtypes.h</text>
</g>
<!-- Node3&#45;&gt;Node4 -->
<g id="edge4" class="edge">
<title>Node3&#45;&gt;Node4</title>
<path fill="none" stroke="#191970" d="M1445.2914,-235.3845C1449.865,-216.1913 1460.2084,-172.786 1466.2897,-147.2663"/>
<polygon fill="#191970" stroke="#191970" points="1469.7635,-147.7874 1468.677,-137.2484 1462.9542,-146.1646 1469.7635,-147.7874"/>
</g>
<!-- Node5 -->
<g id="node6" class="node">
<title>Node5</title>
<g id="a_node6"><a xlink:href="../../dc/d73/Cartesian_8h.html" target="_top" xlink:title="MathUtils/Cartesian.h">
<polygon fill="none" stroke="#000000" points="712,-179.5 712,-198.5 834,-198.5 834,-179.5 712,-179.5"/>
<text text-anchor="middle" x="773" y="-186.5" font-family="Helvetica,sans-Serif" font-size="10.00" fill="#000000">MathUtils/Cartesian.h</text>
</a>
</g>
</g>
<!-- Node3&#45;&gt;Node5 -->
<g id="edge5" class="edge">
<title>Node3&#45;&gt;Node5</title>
<path fill="none" stroke="#191970" d="M1349.8394,-237.2134C1214.4536,-225.8976 966.2297,-205.1505 844.3493,-194.9635"/>
<polygon fill="#191970" stroke="#191970" points="844.2771,-191.4454 834.0203,-194.1002 843.694,-198.421 844.2771,-191.4454"/>
</g>
<!-- Node5&#45;&gt;Node4 -->
<g id="edge13" class="edge">
<title>Node5&#45;&gt;Node4</title>
<path fill="none" stroke="#191970" d="M834.0425,-187.1404C974.9002,-182.4611 1319.1985,-168.6978 1432,-143 1434.8638,-142.3476 1437.7927,-141.5163 1440.6953,-140.5786"/>
<polygon fill="#191970" stroke="#191970" points="1442.1207,-143.7849 1450.3292,-137.0863 1439.735,-137.2039 1442.1207,-143.7849"/>
</g>
<!-- Node6 -->
<g id="node7" class="node">
<title>Node6</title>
<polygon fill="none" stroke="#bfbfbf" points="496,-112.5 496,-142.5 660,-142.5 660,-112.5 496,-112.5"/>
<text text-anchor="start" x="504" y="-130.5" font-family="Helvetica,sans-Serif" font-size="10.00" fill="#000000">Math/GenVector/Displacement</text>
<text text-anchor="middle" x="578" y="-119.5" font-family="Helvetica,sans-Serif" font-size="10.00" fill="#000000">Vector3D.h</text>
</g>
<!-- Node5&#45;&gt;Node6 -->
<g id="edge6" class="edge">
<title>Node5&#45;&gt;Node6</title>
<path fill="none" stroke="#191970" d="M742.5313,-179.3906C713.9411,-170.3737 670.447,-156.6563 635.3572,-145.5896"/>
<polygon fill="#191970" stroke="#191970" points="636.2921,-142.2145 625.7024,-142.5446 634.1866,-148.8904 636.2921,-142.2145"/>
</g>
<!-- Node7 -->
<g id="node8" class="node">
<title>Node7</title>
<polygon fill="none" stroke="#bfbfbf" points="678.5,-118 678.5,-137 867.5,-137 867.5,-118 678.5,-118"/>
<text text-anchor="middle" x="773" y="-125" font-family="Helvetica,sans-Serif" font-size="10.00" fill="#000000">Math/GenVector/PositionVector3D.h</text>
</g>
<!-- Node5&#45;&gt;Node7 -->
<g id="edge7" class="edge">
<title>Node5&#45;&gt;Node7</title>
<path fill="none" stroke="#191970" d="M773,-179.3906C773,-170.8657 773,-158.1392 773,-147.4235"/>
<polygon fill="#191970" stroke="#191970" points="776.5001,-147.2448 773,-137.2449 769.5001,-147.2449 776.5001,-147.2448"/>
</g>
<!-- Node8 -->
<g id="node9" class="node">
<title>Node8</title>
<polygon fill="none" stroke="#bfbfbf" points="886,-118 886,-137 1046,-137 1046,-118 886,-118"/>
<text text-anchor="middle" x="966" y="-125" font-family="Helvetica,sans-Serif" font-size="10.00" fill="#000000">Math/GenVector/Rotation3D.h</text>
</g>
<!-- Node5&#45;&gt;Node8 -->
<g id="edge8" class="edge">
<title>Node5&#45;&gt;Node8</title>
<path fill="none" stroke="#191970" d="M803.1563,-179.3906C836.2985,-168.8298 889.6762,-151.8208 926.2242,-140.1747"/>
<polygon fill="#191970" stroke="#191970" points="927.5902,-143.4129 936.0555,-137.0419 925.4649,-136.7433 927.5902,-143.4129"/>
</g>
<!-- Node9 -->
<g id="node10" class="node">
<title>Node9</title>
<polygon fill="none" stroke="#bfbfbf" points="1064,-118 1064,-137 1232,-137 1232,-118 1064,-118"/>
<text text-anchor="middle" x="1148" y="-125" font-family="Helvetica,sans-Serif" font-size="10.00" fill="#000000">Math/GenVector/Transform3D.h</text>
</g>
<!-- Node5&#45;&gt;Node9 -->
<g id="edge9" class="edge">
<title>Node5&#45;&gt;Node9</title>
<path fill="none" stroke="#191970" d="M831.6103,-179.4999C888.6555,-170.2393 977.7901,-155.7314 1055,-143 1063.3579,-141.6218 1072.137,-140.1675 1080.8256,-138.724"/>
<polygon fill="#191970" stroke="#191970" points="1081.6627,-142.133 1090.953,-137.0398 1080.5142,-135.2278 1081.6627,-142.133"/>
</g>
<!-- Node10 -->
<g id="node11" class="node">
<title>Node10</title>
<polygon fill="none" stroke="#bfbfbf" points="1250.5,-118 1250.5,-137 1423.5,-137 1423.5,-118 1250.5,-118"/>
<text text-anchor="middle" x="1337" y="-125" font-family="Helvetica,sans-Serif" font-size="10.00" fill="#000000">Math/GenVector/Translation3D.h</text>
</g>
<!-- Node5&#45;&gt;Node10 -->
<g id="edge10" class="edge">
<title>Node5&#45;&gt;Node10</title>
<path fill="none" stroke="#191970" d="M834.0912,-184.2137C923.577,-176.9268 1095.4692,-161.8822 1241,-143 1250.9197,-141.7129 1261.3901,-140.1914 1271.625,-138.6128"/>
<polygon fill="#191970" stroke="#191970" points="1272.4165,-142.0314 1281.7521,-137.0217 1271.3301,-135.1162 1272.4165,-142.0314"/>
</g>
<!-- Node11 -->
<g id="node12" class="node">
<title>Node11</title>
<polygon fill="none" stroke="#bfbfbf" points="0,-112.5 0,-142.5 164,-142.5 164,-112.5 0,-112.5"/>
<text text-anchor="start" x="8" y="-130.5" font-family="Helvetica,sans-Serif" font-size="10.00" fill="#000000">Math/GenVector/Displacement</text>
<text text-anchor="middle" x="82" y="-119.5" font-family="Helvetica,sans-Serif" font-size="10.00" fill="#000000">Vector2D.h</text>
</g>
<!-- Node5&#45;&gt;Node11 -->
<g id="edge11" class="edge">
<title>Node5&#45;&gt;Node11</title>
<path fill="none" stroke="#191970" d="M711.9195,-186.1808C604.9832,-180.837 376.7381,-167.6169 174.2186,-143.0807"/>
<polygon fill="#191970" stroke="#191970" points="174.6409,-139.6063 164.2898,-141.866 173.7908,-146.5545 174.6409,-139.6063"/>
</g>
<!-- Node12 -->
<g id="node13" class="node">
<title>Node12</title>
<polygon fill="none" stroke="#bfbfbf" points="182.5,-118 182.5,-137 371.5,-137 371.5,-118 182.5,-118"/>
<text text-anchor="middle" x="277" y="-125" font-family="Helvetica,sans-Serif" font-size="10.00" fill="#000000">Math/GenVector/PositionVector2D.h</text>
</g>
<!-- Node5&#45;&gt;Node12 -->
<g id="edge12" class="edge">
<title>Node5&#45;&gt;Node12</title>
<path fill="none" stroke="#191970" d="M711.9507,-182.1817C635.6426,-173.5583 501.0618,-158.0173 386,-143 375.0056,-141.5651 363.3972,-139.9846 352.0176,-138.3982"/>
<polygon fill="#191970" stroke="#191970" points="352.4867,-134.9298 342.0973,-137.0061 351.5138,-141.8619 352.4867,-134.9298"/>
</g>
<!-- Node13 -->
<g id="node14" class="node">
<title>Node13</title>
<polygon fill="none" stroke="#bfbfbf" points="1085,-.5 1085,-19.5 1167,-19.5 1167,-.5 1085,-.5"/>
<text text-anchor="middle" x="1126" y="-7.5" font-family="Helvetica,sans-Serif" font-size="10.00" fill="#000000">TGeoMatrix.h</text>
</g>
<!-- Node5&#45;&gt;Node13 -->
<g id="edge14" class="edge">
<title>Node5&#45;&gt;Node13</title>
<path fill="none" stroke="#191970" d="M711.9493,-185.3938C615.7965,-179.0845 437.9939,-164.6217 419,-143 409.907,-132.649 409.98,-122.4147 419,-112 462.0558,-62.2867 919.1887,-24.9261 1074.6136,-13.5804"/>
<polygon fill="#191970" stroke="#191970" points="1075.1196,-17.053 1084.8407,-12.8397 1074.6139,-10.0713 1075.1196,-17.053"/>
</g>
<!-- Node14 -->
<g id="node15" class="node">
<title>Node14</title>
<polygon fill="none" stroke="#bfbfbf" points="428.5,-118 428.5,-137 477.5,-137 477.5,-118 428.5,-118"/>
<text text-anchor="middle" x="453" y="-125" font-family="Helvetica,sans-Serif" font-size="10.00" fill="#000000">iosfwd</text>
</g>
<!-- Node5&#45;&gt;Node14 -->
<g id="edge15" class="edge">
<title>Node5&#45;&gt;Node14</title>
<path fill="none" stroke="#191970" d="M711.9544,-183.963C653.3115,-178.0132 562.6983,-165.8868 487,-143 485.0905,-142.4227 483.1492,-141.7604 481.2113,-141.042"/>
<polygon fill="#191970" stroke="#191970" points="482.2911,-137.7011 471.7126,-137.1143 479.6163,-144.1699 482.2911,-137.7011"/>
</g>
<!-- Node16 -->
<g id="node17" class="node">
<title>Node16</title>
<polygon fill="none" stroke="#bfbfbf" points="1844.5,-118 1844.5,-137 1929.5,-137 1929.5,-118 1844.5,-118"/>
<text text-anchor="middle" x="1887" y="-125" font-family="Helvetica,sans-Serif" font-size="10.00" fill="#000000">TXMLEngine.h</text>
</g>
<!-- Node15&#45;&gt;Node16 -->
<g id="edge17" class="edge">
<title>Node15&#45;&gt;Node16</title>
<path fill="none" stroke="#191970" d="M1837.9855,-235.4819C1847.2831,-226.85 1860.2919,-213.3178 1868,-199 1876.7331,-182.7783 1881.6447,-162.2881 1884.2755,-147.4053"/>
<polygon fill="#191970" stroke="#191970" points="1887.7716,-147.7034 1885.8682,-137.2809 1880.8566,-146.6155 1887.7716,-147.7034"/>
</g>
<!-- Node17 -->
<g id="node18" class="node">
<title>Node17</title>
<g id="a_node18"><a xlink:href="../../d9/de7/LadderSegmentation_8h.html" target="_top" xlink:title="Description of the virtual segmentation of a ladder. ">
<polygon fill="none" stroke="#000000" points="1685.5,-179.5 1685.5,-198.5 1858.5,-198.5 1858.5,-179.5 1685.5,-179.5"/>
<text text-anchor="middle" x="1772" y="-186.5" font-family="Helvetica,sans-Serif" font-size="10.00" fill="#000000">MFTBase/LadderSegmentation.h</text>
</a>
</g>
</g>
<!-- Node15&#45;&gt;Node17 -->
<g id="edge18" class="edge">
<title>Node15&#45;&gt;Node17</title>
<path fill="none" stroke="#191970" d="M1817.4197,-235.2455C1809.4542,-227.1352 1797.9359,-215.4075 1788.4921,-205.7919"/>
<polygon fill="#191970" stroke="#191970" points="1790.9747,-203.3247 1781.4705,-198.6427 1785.9805,-208.2297 1790.9747,-203.3247"/>
</g>
<!-- Node18 -->
<g id="node19" class="node">
<title>Node18</title>
<g id="a_node19"><a xlink:href="../../d3/de7/VSegmentation_8h.html" target="_top" xlink:title="Abstract base class for MFT Segmentation description. ">
<polygon fill="none" stroke="#000000" points="1671.5,-56.5 1671.5,-75.5 1818.5,-75.5 1818.5,-56.5 1671.5,-56.5"/>
<text text-anchor="middle" x="1745" y="-63.5" font-family="Helvetica,sans-Serif" font-size="10.00" fill="#000000">MFTBase/VSegmentation.h</text>
</a>
</g>
</g>
<!-- Node15&#45;&gt;Node18 -->
<g id="edge26" class="edge">
<title>Node15&#45;&gt;Node18</title>
<path fill="none" stroke="#191970" d="M1846.1086,-235.4903C1887.0222,-213.8968 1976.4435,-159.36 1939,-112 1924.9499,-94.2288 1874.5486,-82.6047 1828.6429,-75.4875"/>
<polygon fill="#191970" stroke="#191970" points="1829.0337,-72.0072 1818.6267,-73.993 1828.0006,-78.9305 1829.0337,-72.0072"/>
</g>
<!-- Node17&#45;&gt;Node1 -->
<g id="edge19" class="edge">
<title>Node17&#45;&gt;Node1</title>
<path fill="none" stroke="#191970" d="M1739.3438,-179.3906C1703.1472,-168.7395 1644.6614,-151.5296 1605.0625,-139.8772"/>
<polygon fill="#191970" stroke="#191970" points="1606.0083,-136.5072 1595.4269,-137.0419 1604.0322,-143.2225 1606.0083,-136.5072"/>
</g>
<!-- Node17&#45;&gt;Node16 -->
<g id="edge20" class="edge">
<title>Node17&#45;&gt;Node16</title>
<path fill="none" stroke="#191970" d="M1789.9688,-179.3906C1808.7884,-169.3262 1838.5585,-153.4057 1860.1641,-141.8514"/>
<polygon fill="#191970" stroke="#191970" points="1861.9898,-144.8442 1869.1574,-137.0419 1858.6886,-138.6714 1861.9898,-144.8442"/>
</g>
<!-- Node17&#45;&gt;Node18 -->
<g id="edge21" class="edge">
<title>Node17&#45;&gt;Node18</title>
<path fill="none" stroke="#191970" d="M1735.2865,-179.44C1704.6184,-170.6241 1664.4323,-156.8435 1655,-143 1647.2421,-131.6139 1647.8085,-123.752 1655,-112 1664.3409,-96.7354 1680.5228,-86.3326 1696.6126,-79.3404"/>
<polygon fill="#191970" stroke="#191970" points="1698.0187,-82.548 1706.023,-75.6067 1695.4371,-76.0414 1698.0187,-82.548"/>
</g>
<!-- Node20 -->
<g id="node21" class="node">
<title>Node20</title>
<g id="a_node21"><a xlink:href="../../d3/dbd/ChipSegmentation_8h.html" target="_top" xlink:title="Chip (sensor) segmentation description. ">
<polygon fill="none" stroke="#000000" points="1664,-118 1664,-137 1826,-137 1826,-118 1664,-118"/>
<text text-anchor="middle" x="1745" y="-125" font-family="Helvetica,sans-Serif" font-size="10.00" fill="#000000">MFTBase/ChipSegmentation.h</text>
</a>
</g>
</g>
<!-- Node17&#45;&gt;Node20 -->
<g id="edge24" class="edge">
<title>Node17&#45;&gt;Node20</title>
<path fill="none" stroke="#191970" d="M1767.7813,-179.3906C1763.9204,-170.5965 1758.0966,-157.3312 1753.3039,-146.4145"/>
<polygon fill="#191970" stroke="#191970" points="1756.5029,-144.9943 1749.2782,-137.2449 1750.0934,-147.8083 1756.5029,-144.9943"/>
</g>
<!-- Node18&#45;&gt;Node13 -->
<g id="edge23" class="edge">
<title>Node18&#45;&gt;Node13</title>
<path fill="none" stroke="#191970" d="M1671.2556,-59.3285C1544.0821,-47.8233 1286.6451,-24.5333 1177.1501,-14.6275"/>
<polygon fill="#191970" stroke="#191970" points="1177.2997,-11.1268 1167.025,-13.7115 1176.6689,-18.0983 1177.2997,-11.1268"/>
</g>
<!-- Node19 -->
<g id="node20" class="node">
<title>Node19</title>
<polygon fill="none" stroke="#bfbfbf" points="1811.5,-.5 1811.5,-19.5 1878.5,-19.5 1878.5,-.5 1811.5,-.5"/>
<text text-anchor="middle" x="1845" y="-7.5" font-family="Helvetica,sans-Serif" font-size="10.00" fill="#000000">TNamed.h</text>
</g>
<!-- Node18&#45;&gt;Node19 -->
<g id="edge22" class="edge">
<title>Node18&#45;&gt;Node19</title>
<path fill="none" stroke="#191970" d="M1762.4187,-56.2455C1778.0485,-47.4928 1801.2019,-34.527 1819.0185,-24.5496"/>
<polygon fill="#191970" stroke="#191970" points="1820.766,-27.5825 1827.7809,-19.6427 1817.3457,-21.475 1820.766,-27.5825"/>
</g>
<!-- Node20&#45;&gt;Node18 -->
<g id="edge25" class="edge">
<title>Node20&#45;&gt;Node18</title>
<path fill="none" stroke="#191970" d="M1745,-117.8906C1745,-109.3657 1745,-96.6392 1745,-85.9235"/>
<polygon fill="#191970" stroke="#191970" points="1748.5001,-85.7448 1745,-75.7449 1741.5001,-85.7449 1748.5001,-85.7448"/>
</g>
<!-- Node21&#45;&gt;Node19 -->
<g id="edge28" class="edge">
<title>Node21&#45;&gt;Node19</title>
<path fill="none" stroke="#191970" d="M1928.4071,-56.2455C1912.621,-47.4928 1889.2361,-34.527 1871.2413,-24.5496"/>
<polygon fill="#191970" stroke="#191970" points="1872.8341,-21.4308 1862.3913,-19.6427 1869.4397,-27.5528 1872.8341,-21.4308"/>
</g>
</g>
</svg>
