<?xml version="1.0" encoding="UTF-8" standalone="no"?>
<!DOCTYPE svg PUBLIC "-//W3C//DTD SVG 1.1//EN"
 "http://www.w3.org/Graphics/SVG/1.1/DTD/svg11.dtd">
<!-- Generated by graphviz version 2.40.1 (20161225.0304)
 -->
<!-- Title: /home/travis/build/AliceO2Group/AliceO2/DataFormats/Detectors/ZDC/src/RecEvent.cxx Pages: 1 -->
<svg width="2502pt" height="307pt"
 viewBox="0.00 0.00 2502.00 307.00" xmlns="http://www.w3.org/2000/svg" xmlns:xlink="http://www.w3.org/1999/xlink">
<g id="graph0" class="graph" transform="scale(1 1) rotate(0) translate(4 303)">
<title>/home/travis/build/AliceO2Group/AliceO2/DataFormats/Detectors/ZDC/src/RecEvent.cxx</title>
<!-- Node0 -->
<g id="node1" class="node">
<title>Node0</title>
<polygon fill="#bfbfbf" stroke="#000000" points="1661,-246.5 1661,-298.5 1794,-298.5 1794,-246.5 1661,-246.5"/>
<text text-anchor="start" x="1669" y="-286.5" font-family="Helvetica,sans-Serif" font-size="10.00" fill="#000000">/home/travis/build</text>
<text text-anchor="start" x="1669" y="-275.5" font-family="Helvetica,sans-Serif" font-size="10.00" fill="#000000">/AliceO2Group/AliceO2</text>
<text text-anchor="start" x="1669" y="-264.5" font-family="Helvetica,sans-Serif" font-size="10.00" fill="#000000">/DataFormats/Detectors</text>
<text text-anchor="middle" x="1727.5" y="-253.5" font-family="Helvetica,sans-Serif" font-size="10.00" fill="#000000">/ZDC/src/RecEvent.cxx</text>
</g>
<!-- Node1 -->
<g id="node2" class="node">
<title>Node1</title>
<g id="a_node2"><a xlink:href="../../d0/dad/RecEvent_8h.html" target="_top" xlink:title="Class to describe reconstructed ZDC event (single BC with signal in one of detectors) ...">
<polygon fill="none" stroke="#000000" points="1648.5,-190.5 1648.5,-209.5 1806.5,-209.5 1806.5,-190.5 1648.5,-190.5"/>
<text text-anchor="middle" x="1727.5" y="-197.5" font-family="Helvetica,sans-Serif" font-size="10.00" fill="#000000">DataFormatsZDC/RecEvent.h</text>
</a>
</g>
</g>
<!-- Node0&#45;&gt;Node1 -->
<g id="edge1" class="edge">
<title>Node0&#45;&gt;Node1</title>
<path fill="none" stroke="#191970" d="M1727.5,-246.3258C1727.5,-237.5142 1727.5,-227.8397 1727.5,-219.621"/>
<polygon fill="#191970" stroke="#191970" points="1731.0001,-219.534 1727.5,-209.534 1724.0001,-219.534 1731.0001,-219.534"/>
</g>
<!-- Node2 -->
<g id="node3" class="node">
<title>Node2</title>
<g id="a_node3"><a xlink:href="../../d9/d80/InteractionRecord_8h.html" target="_top" xlink:title="CommonDataFormat/Interaction\lRecord.h">
<polygon fill="none" stroke="#000000" points="1640.5,-123.5 1640.5,-153.5 1814.5,-153.5 1814.5,-123.5 1640.5,-123.5"/>
<text text-anchor="start" x="1648.5" y="-141.5" font-family="Helvetica,sans-Serif" font-size="10.00" fill="#000000">CommonDataFormat/Interaction</text>
<text text-anchor="middle" x="1727.5" y="-130.5" font-family="Helvetica,sans-Serif" font-size="10.00" fill="#000000">Record.h</text>
</a>
</g>
</g>
<!-- Node1&#45;&gt;Node2 -->
<g id="edge2" class="edge">
<title>Node1&#45;&gt;Node2</title>
<path fill="none" stroke="#191970" d="M1727.5,-190.3906C1727.5,-183.2234 1727.5,-173.0862 1727.5,-163.671"/>
<polygon fill="#191970" stroke="#191970" points="1731.0001,-163.5446 1727.5,-153.5446 1724.0001,-163.5446 1731.0001,-163.5446"/>
</g>
<!-- Node4 -->
<g id="node5" class="node">
<title>Node4</title>
<polygon fill="none" stroke="#bfbfbf" points="0,-.5 0,-19.5 59,-19.5 59,-.5 0,-.5"/>
<text text-anchor="middle" x="29.5" y="-7.5" font-family="Helvetica,sans-Serif" font-size="10.00" fill="#000000">Rtypes.h</text>
</g>
<!-- Node1&#45;&gt;Node4 -->
<g id="edge26" class="edge">
<title>Node1&#45;&gt;Node4</title>
<path fill="none" stroke="#191970" d="M1648.446,-197.7466C1320.6846,-188.0243 83.069,-147.4111 27.5,-87 13.4803,-71.7587 17.1541,-46.7805 22.2452,-29.4227"/>
<polygon fill="#191970" stroke="#191970" points="25.6256,-30.3484 25.4528,-19.7549 18.9818,-28.144 25.6256,-30.3484"/>
</g>
<!-- Node9 -->
<g id="node10" class="node">
<title>Node9</title>
<g id="a_node10"><a xlink:href="../../dc/d73/Cartesian_8h.html" target="_top" xlink:title="MathUtils/Cartesian.h">
<polygon fill="none" stroke="#000000" points="837.5,-129 837.5,-148 959.5,-148 959.5,-129 837.5,-129"/>
<text text-anchor="middle" x="898.5" y="-136" font-family="Helvetica,sans-Serif" font-size="10.00" fill="#000000">MathUtils/Cartesian.h</text>
</a>
</g>
</g>
<!-- Node1&#45;&gt;Node9 -->
<g id="edge9" class="edge">
<title>Node1&#45;&gt;Node9</title>
<path fill="none" stroke="#191970" d="M1648.3875,-194.131C1487.4682,-182.1931 1124.2345,-155.2463 969.9661,-143.8018"/>
<polygon fill="#191970" stroke="#191970" points="969.8997,-140.2873 959.6682,-143.0378 969.3818,-147.2681 969.8997,-140.2873"/>
</g>
<!-- Node18 -->
<g id="node19" class="node">
<title>Node18</title>
<g id="a_node19"><a xlink:href="../../d3/dd7/Detectors_2ZDC_2base_2include_2ZDCBase_2Constants_8h.html" target="_top" xlink:title="ZDCBase/Constants.h">
<polygon fill="none" stroke="#000000" points="2088.5,-129 2088.5,-148 2210.5,-148 2210.5,-129 2088.5,-129"/>
<text text-anchor="middle" x="2149.5" y="-136" font-family="Helvetica,sans-Serif" font-size="10.00" fill="#000000">ZDCBase/Constants.h</text>
</a>
</g>
</g>
<!-- Node1&#45;&gt;Node18 -->
<g id="edge20" class="edge">
<title>Node1&#45;&gt;Node18</title>
<path fill="none" stroke="#191970" d="M1792.9745,-190.4581C1870.3458,-179.1824 1998.617,-160.4889 2078.3725,-148.8657"/>
<polygon fill="#191970" stroke="#191970" points="2078.9411,-152.3199 2088.3318,-147.4143 2077.9316,-145.3931 2078.9411,-152.3199"/>
</g>
<!-- Node23 -->
<g id="node24" class="node">
<title>Node23</title>
<polygon fill="none" stroke="#bfbfbf" points="2228.5,-129 2228.5,-148 2270.5,-148 2270.5,-129 2228.5,-129"/>
<text text-anchor="middle" x="2249.5" y="-136" font-family="Helvetica,sans-Serif" font-size="10.00" fill="#000000">array</text>
</g>
<!-- Node1&#45;&gt;Node23 -->
<g id="edge27" class="edge">
<title>Node1&#45;&gt;Node23</title>
<path fill="none" stroke="#191970" d="M1806.8148,-196.2713C1925.7241,-190.0571 2144.2735,-176.0443 2219.5,-154 2221.1631,-153.5126 2222.8422,-152.9311 2224.5114,-152.2837"/>
<polygon fill="#191970" stroke="#191970" points="2226.139,-155.3883 2233.7828,-148.0519 2223.2323,-149.0202 2226.139,-155.3883"/>
</g>
<!-- Node3 -->
<g id="node4" class="node">
<title>Node3</title>
<g id="a_node4"><a xlink:href="../../d2/d45/GPUCommonRtypes_8h.html" target="_top" xlink:title="GPUCommonRtypes.h">
<polygon fill="none" stroke="#000000" points="1561,-62 1561,-81 1686,-81 1686,-62 1561,-62"/>
<text text-anchor="middle" x="1623.5" y="-69" font-family="Helvetica,sans-Serif" font-size="10.00" fill="#000000">GPUCommonRtypes.h</text>
</a>
</g>
</g>
<!-- Node2&#45;&gt;Node3 -->
<g id="edge3" class="edge">
<title>Node2&#45;&gt;Node3</title>
<path fill="none" stroke="#191970" d="M1704.1604,-123.4639C1687.1821,-112.526 1664.2758,-97.769 1647.2118,-86.7759"/>
<polygon fill="#191970" stroke="#191970" points="1648.7096,-83.5774 1638.4076,-81.1039 1644.9186,-89.462 1648.7096,-83.5774"/>
</g>
<!-- Node5 -->
<g id="node6" class="node">
<title>Node5</title>
<polygon fill="none" stroke="#bfbfbf" points="1494,-62 1494,-81 1543,-81 1543,-62 1494,-62"/>
<text text-anchor="middle" x="1518.5" y="-69" font-family="Helvetica,sans-Serif" font-size="10.00" fill="#000000">iosfwd</text>
</g>
<!-- Node2&#45;&gt;Node5 -->
<g id="edge5" class="edge">
<title>Node2&#45;&gt;Node5</title>
<path fill="none" stroke="#191970" d="M1667.6793,-123.4619C1633.268,-114.202 1589.4628,-101.3713 1551.5,-87 1549.9128,-86.3991 1548.296,-85.7541 1546.6734,-85.0808"/>
<polygon fill="#191970" stroke="#191970" points="1548.0413,-81.8588 1537.4793,-81.0249 1545.2159,-88.2633 1548.0413,-81.8588"/>
</g>
<!-- Node6 -->
<g id="node7" class="node">
<title>Node6</title>
<polygon fill="none" stroke="#bfbfbf" points="1977.5,-62 1977.5,-81 2027.5,-81 2027.5,-62 1977.5,-62"/>
<text text-anchor="middle" x="2002.5" y="-69" font-family="Helvetica,sans-Serif" font-size="10.00" fill="#000000">cstdint</text>
</g>
<!-- Node2&#45;&gt;Node6 -->
<g id="edge6" class="edge">
<title>Node2&#45;&gt;Node6</title>
<path fill="none" stroke="#191970" d="M1814.5957,-124.6114C1860.9449,-116.0445 1918.5317,-103.5108 1968.5,-87 1970.3479,-86.3894 1972.2296,-85.7091 1974.1119,-84.9837"/>
<polygon fill="#191970" stroke="#191970" points="1975.5072,-88.1939 1983.3731,-81.0962 1972.7978,-81.7395 1975.5072,-88.1939"/>
</g>
<!-- Node7 -->
<g id="node8" class="node">
<title>Node7</title>
<polygon fill="none" stroke="#bfbfbf" points="1704,-62 1704,-81 1751,-81 1751,-62 1704,-62"/>
<text text-anchor="middle" x="1727.5" y="-69" font-family="Helvetica,sans-Serif" font-size="10.00" fill="#000000">cmath</text>
</g>
<!-- Node2&#45;&gt;Node7 -->
<g id="edge7" class="edge">
<title>Node2&#45;&gt;Node7</title>
<path fill="none" stroke="#191970" d="M1727.5,-123.2967C1727.5,-113.7699 1727.5,-101.3954 1727.5,-91.1306"/>
<polygon fill="#191970" stroke="#191970" points="1731.0001,-91.0549 1727.5,-81.055 1724.0001,-91.055 1731.0001,-91.0549"/>
</g>
<!-- Node8 -->
<g id="node9" class="node">
<title>Node8</title>
<g id="a_node9"><a xlink:href="../../d4/dc6/LHCConstants_8h.html" target="_top" xlink:title="Header to collect LHC related constants. ">
<polygon fill="none" stroke="#000000" points="1769.5,-62 1769.5,-81 1959.5,-81 1959.5,-62 1769.5,-62"/>
<text text-anchor="middle" x="1864.5" y="-69" font-family="Helvetica,sans-Serif" font-size="10.00" fill="#000000">CommonConstants/LHCConstants.h</text>
</a>
</g>
</g>
<!-- Node2&#45;&gt;Node8 -->
<g id="edge8" class="edge">
<title>Node2&#45;&gt;Node8</title>
<path fill="none" stroke="#191970" d="M1758.2455,-123.4639C1781.4394,-112.1209 1813.0316,-96.6707 1835.7294,-85.5703"/>
<polygon fill="#191970" stroke="#191970" points="1837.4165,-88.6414 1844.8621,-81.1039 1834.3412,-82.3531 1837.4165,-88.6414"/>
</g>
<!-- Node3&#45;&gt;Node4 -->
<g id="edge4" class="edge">
<title>Node3&#45;&gt;Node4</title>
<path fill="none" stroke="#191970" d="M1585.6053,-61.992C1574.6679,-59.616 1562.6696,-57.3596 1551.5,-56 1252.2953,-19.5797 278.4888,-11.544 69.3065,-10.223"/>
<polygon fill="#191970" stroke="#191970" points="69.1177,-6.7219 59.0963,-10.1601 69.0745,-13.7217 69.1177,-6.7219"/>
</g>
<!-- Node9&#45;&gt;Node4 -->
<g id="edge17" class="edge">
<title>Node9&#45;&gt;Node4</title>
<path fill="none" stroke="#191970" d="M837.1714,-136.7619C647.0934,-131.1171 78.7401,-112.1979 48.5,-87 32.0218,-73.2694 28.5625,-47.7376 28.3794,-29.851"/>
<polygon fill="#191970" stroke="#191970" points="31.8833,-29.7168 28.6148,-19.6388 24.8852,-29.5554 31.8833,-29.7168"/>
</g>
<!-- Node9&#45;&gt;Node5 -->
<g id="edge19" class="edge">
<title>Node9&#45;&gt;Node5</title>
<path fill="none" stroke="#191970" d="M959.5637,-135.7589C1088.8997,-129.5257 1386.6082,-112.8001 1484.5,-87 1486.6916,-86.4224 1488.9183,-85.7137 1491.1297,-84.9206"/>
<polygon fill="#191970" stroke="#191970" points="1492.6475,-88.081 1500.5701,-81.0466 1489.99,-81.6051 1492.6475,-88.081"/>
</g>
<!-- Node10 -->
<g id="node11" class="node">
<title>Node10</title>
<polygon fill="none" stroke="#bfbfbf" points="57.5,-56.5 57.5,-86.5 221.5,-86.5 221.5,-56.5 57.5,-56.5"/>
<text text-anchor="start" x="65.5" y="-74.5" font-family="Helvetica,sans-Serif" font-size="10.00" fill="#000000">Math/GenVector/Displacement</text>
<text text-anchor="middle" x="139.5" y="-63.5" font-family="Helvetica,sans-Serif" font-size="10.00" fill="#000000">Vector3D.h</text>
</g>
<!-- Node9&#45;&gt;Node10 -->
<g id="edge10" class="edge">
<title>Node9&#45;&gt;Node10</title>
<path fill="none" stroke="#191970" d="M837.0667,-135.6526C720.8703,-129.8551 460.7758,-114.9148 231.973,-87.1129"/>
<polygon fill="#191970" stroke="#191970" points="232.1417,-83.6075 221.79,-85.8645 231.2898,-90.5555 232.1417,-83.6075"/>
</g>
<!-- Node11 -->
<g id="node12" class="node">
<title>Node11</title>
<polygon fill="none" stroke="#bfbfbf" points="240,-62 240,-81 429,-81 429,-62 240,-62"/>
<text text-anchor="middle" x="334.5" y="-69" font-family="Helvetica,sans-Serif" font-size="10.00" fill="#000000">Math/GenVector/PositionVector3D.h</text>
</g>
<!-- Node9&#45;&gt;Node11 -->
<g id="edge11" class="edge">
<title>Node9&#45;&gt;Node11</title>
<path fill="none" stroke="#191970" d="M837.3994,-132.3754C749.2016,-123.3722 581.1359,-105.6073 438.5,-87 427.8978,-85.6169 416.7031,-84.0553 405.742,-82.4694"/>
<polygon fill="#191970" stroke="#191970" points="406.1662,-78.9943 395.765,-81.0104 405.1533,-85.9206 406.1662,-78.9943"/>
</g>
<!-- Node12 -->
<g id="node13" class="node">
<title>Node12</title>
<polygon fill="none" stroke="#bfbfbf" points="447.5,-62 447.5,-81 607.5,-81 607.5,-62 447.5,-62"/>
<text text-anchor="middle" x="527.5" y="-69" font-family="Helvetica,sans-Serif" font-size="10.00" fill="#000000">Math/GenVector/Rotation3D.h</text>
</g>
<!-- Node9&#45;&gt;Node12 -->
<g id="edge12" class="edge">
<title>Node9&#45;&gt;Node12</title>
<path fill="none" stroke="#191970" d="M845.7387,-128.9717C778.526,-116.8335 662.489,-95.8781 590.6471,-82.9039"/>
<polygon fill="#191970" stroke="#191970" points="590.8421,-79.3826 580.3793,-81.0496 589.598,-86.2712 590.8421,-79.3826"/>
</g>
<!-- Node13 -->
<g id="node14" class="node">
<title>Node13</title>
<polygon fill="none" stroke="#bfbfbf" points="625.5,-62 625.5,-81 793.5,-81 793.5,-62 625.5,-62"/>
<text text-anchor="middle" x="709.5" y="-69" font-family="Helvetica,sans-Serif" font-size="10.00" fill="#000000">Math/GenVector/Transform3D.h</text>
</g>
<!-- Node9&#45;&gt;Node13 -->
<g id="edge13" class="edge">
<title>Node9&#45;&gt;Node13</title>
<path fill="none" stroke="#191970" d="M871.4209,-128.9005C838.5797,-117.2584 783.0704,-97.5805 746.3525,-84.5641"/>
<polygon fill="#191970" stroke="#191970" points="747.1236,-81.1241 736.5289,-81.0817 744.7847,-87.7218 747.1236,-81.1241"/>
</g>
<!-- Node14 -->
<g id="node15" class="node">
<title>Node14</title>
<polygon fill="none" stroke="#bfbfbf" points="812,-62 812,-81 985,-81 985,-62 812,-62"/>
<text text-anchor="middle" x="898.5" y="-69" font-family="Helvetica,sans-Serif" font-size="10.00" fill="#000000">Math/GenVector/Translation3D.h</text>
</g>
<!-- Node9&#45;&gt;Node14 -->
<g id="edge14" class="edge">
<title>Node9&#45;&gt;Node14</title>
<path fill="none" stroke="#191970" d="M898.5,-128.9005C898.5,-119.149 898.5,-103.7597 898.5,-91.3695"/>
<polygon fill="#191970" stroke="#191970" points="902.0001,-91.0816 898.5,-81.0817 895.0001,-91.0817 902.0001,-91.0816"/>
</g>
<!-- Node15 -->
<g id="node16" class="node">
<title>Node15</title>
<polygon fill="none" stroke="#bfbfbf" points="1003.5,-56.5 1003.5,-86.5 1167.5,-86.5 1167.5,-56.5 1003.5,-56.5"/>
<text text-anchor="start" x="1011.5" y="-74.5" font-family="Helvetica,sans-Serif" font-size="10.00" fill="#000000">Math/GenVector/Displacement</text>
<text text-anchor="middle" x="1085.5" y="-63.5" font-family="Helvetica,sans-Serif" font-size="10.00" fill="#000000">Vector2D.h</text>
</g>
<!-- Node9&#45;&gt;Node15 -->
<g id="edge15" class="edge">
<title>Node9&#45;&gt;Node15</title>
<path fill="none" stroke="#191970" d="M925.2925,-128.9005C953.5399,-118.7798 998.7365,-102.5864 1033.9337,-89.9756"/>
<polygon fill="#191970" stroke="#191970" points="1035.3401,-93.1897 1043.5736,-86.5218 1032.979,-86.5999 1035.3401,-93.1897"/>
</g>
<!-- Node16 -->
<g id="node17" class="node">
<title>Node16</title>
<polygon fill="none" stroke="#bfbfbf" points="1186,-62 1186,-81 1375,-81 1375,-62 1186,-62"/>
<text text-anchor="middle" x="1280.5" y="-69" font-family="Helvetica,sans-Serif" font-size="10.00" fill="#000000">Math/GenVector/PositionVector2D.h</text>
</g>
<!-- Node9&#45;&gt;Node16 -->
<g id="edge16" class="edge">
<title>Node9&#45;&gt;Node16</title>
<path fill="none" stroke="#191970" d="M952.8256,-128.9717C1022.173,-116.8087 1141.9985,-95.7921 1215.9348,-82.8243"/>
<polygon fill="#191970" stroke="#191970" points="1216.8079,-86.2246 1226.0529,-81.0496 1215.5986,-79.3299 1216.8079,-86.2246"/>
</g>
<!-- Node17 -->
<g id="node18" class="node">
<title>Node17</title>
<polygon fill="none" stroke="#bfbfbf" points="1393.5,-62 1393.5,-81 1475.5,-81 1475.5,-62 1393.5,-62"/>
<text text-anchor="middle" x="1434.5" y="-69" font-family="Helvetica,sans-Serif" font-size="10.00" fill="#000000">TGeoMatrix.h</text>
</g>
<!-- Node9&#45;&gt;Node17 -->
<g id="edge18" class="edge">
<title>Node9&#45;&gt;Node17</title>
<path fill="none" stroke="#191970" d="M959.5522,-135.7274C1052.0517,-130.6946 1232.8916,-117.5957 1383.5,-87 1387.734,-86.1399 1392.1199,-85.0779 1396.4615,-83.9164"/>
<polygon fill="#191970" stroke="#191970" points="1397.7643,-87.1844 1406.4192,-81.0736 1395.8425,-80.4534 1397.7643,-87.1844"/>
</g>
<!-- Node18&#45;&gt;Node6 -->
<g id="edge22" class="edge">
<title>Node18&#45;&gt;Node6</title>
<path fill="none" stroke="#191970" d="M2128.4385,-128.9005C2103.3319,-117.4574 2061.1923,-98.2509 2032.6402,-85.2374"/>
<polygon fill="#191970" stroke="#191970" points="2034.0735,-82.0443 2023.5224,-81.0817 2031.1703,-88.4139 2034.0735,-82.0443"/>
</g>
<!-- Node19 -->
<g id="node20" class="node">
<title>Node19</title>
<g id="a_node20"><a xlink:href="../../d3/d9d/PhysicsConstants_8h.html" target="_top" xlink:title="Header to collect physics constants. ">
<polygon fill="none" stroke="#000000" points="2046,-62 2046,-81 2253,-81 2253,-62 2046,-62"/>
<text text-anchor="middle" x="2149.5" y="-69" font-family="Helvetica,sans-Serif" font-size="10.00" fill="#000000">CommonConstants/PhysicsConstants.h</text>
</a>
</g>
</g>
<!-- Node18&#45;&gt;Node19 -->
<g id="edge21" class="edge">
<title>Node18&#45;&gt;Node19</title>
<path fill="none" stroke="#191970" d="M2149.5,-128.9005C2149.5,-119.149 2149.5,-103.7597 2149.5,-91.3695"/>
<polygon fill="#191970" stroke="#191970" points="2153.0001,-91.0816 2149.5,-81.0817 2146.0001,-91.0817 2153.0001,-91.0816"/>
</g>
<!-- Node20 -->
<g id="node21" class="node">
<title>Node20</title>
<polygon fill="none" stroke="#bfbfbf" points="2271,-62 2271,-81 2344,-81 2344,-62 2271,-62"/>
<text text-anchor="middle" x="2307.5" y="-69" font-family="Helvetica,sans-Serif" font-size="10.00" fill="#000000">string_view</text>
</g>
<!-- Node18&#45;&gt;Node20 -->
<g id="edge23" class="edge">
<title>Node18&#45;&gt;Node20</title>
<path fill="none" stroke="#191970" d="M2172.1375,-128.9005C2199.2401,-117.4077 2244.8099,-98.0838 2275.5039,-85.068"/>
<polygon fill="#191970" stroke="#191970" points="2277.0644,-88.208 2284.9044,-81.0817 2274.3316,-81.7635 2277.0644,-88.208"/>
</g>
<!-- Node21 -->
<g id="node22" class="node">
<title>Node21</title>
<polygon fill="none" stroke="#bfbfbf" points="2362.5,-62 2362.5,-81 2406.5,-81 2406.5,-62 2362.5,-62"/>
<text text-anchor="middle" x="2384.5" y="-69" font-family="Helvetica,sans-Serif" font-size="10.00" fill="#000000">string</text>
</g>
<!-- Node18&#45;&gt;Node21 -->
<g id="edge24" class="edge">
<title>Node18&#45;&gt;Node21</title>
<path fill="none" stroke="#191970" d="M2191.9077,-128.9342C2242.5606,-117.3094 2324.1355,-97.9011 2353.5,-87 2354.9103,-86.4765 2356.3407,-85.9074 2357.774,-85.3066"/>
<polygon fill="#191970" stroke="#191970" points="2359.4617,-88.383 2367.089,-81.0295 2356.5407,-82.0216 2359.4617,-88.383"/>
</g>
<!-- Node22 -->
<g id="node23" class="node">
<title>Node22</title>
<polygon fill="none" stroke="#bfbfbf" points="2425,-62 2425,-81 2494,-81 2494,-62 2425,-62"/>
<text text-anchor="middle" x="2459.5" y="-69" font-family="Helvetica,sans-Serif" font-size="10.00" fill="#000000">type_traits</text>
</g>
<!-- Node18&#45;&gt;Node22 -->
<g id="edge25" class="edge">
<title>Node18&#45;&gt;Node22</title>
<path fill="none" stroke="#191970" d="M2191.2744,-128.99C2200.5536,-126.9501 2210.3503,-124.8526 2219.5,-123 2306.3067,-105.4232 2329.9124,-109.784 2415.5,-87 2418.6306,-86.1666 2421.8571,-85.2152 2425.0731,-84.2031"/>
<polygon fill="#191970" stroke="#191970" points="2426.1979,-87.5176 2434.5832,-81.0416 2423.9897,-80.875 2426.1979,-87.5176"/>
</g>
</g>
</svg>
