<?xml version="1.0" encoding="UTF-8" standalone="no"?>
<!DOCTYPE svg PUBLIC "-//W3C//DTD SVG 1.1//EN"
 "http://www.w3.org/Graphics/SVG/1.1/DTD/svg11.dtd">
<!-- Generated by graphviz version 2.40.1 (20161225.0304)
 -->
<!-- Title: /home/travis/build/AliceO2Group/AliceO2/Detectors/TPC/base/src/CalArray.cxx Pages: 1 -->
<svg width="1684pt" height="576pt"
 viewBox="0.00 0.00 1684.00 576.00" xmlns="http://www.w3.org/2000/svg" xmlns:xlink="http://www.w3.org/1999/xlink">
<g id="graph0" class="graph" transform="scale(1 1) rotate(0) translate(4 572)">
<title>/home/travis/build/AliceO2Group/AliceO2/Detectors/TPC/base/src/CalArray.cxx</title>
<!-- Node0 -->
<g id="node1" class="node">
<title>Node0</title>
<polygon fill="#bfbfbf" stroke="#000000" points="1142,-515.5 1142,-567.5 1274,-567.5 1274,-515.5 1142,-515.5"/>
<text text-anchor="start" x="1150" y="-555.5" font-family="Helvetica,sans-Serif" font-size="10.00" fill="#000000">/home/travis/build</text>
<text text-anchor="start" x="1150" y="-544.5" font-family="Helvetica,sans-Serif" font-size="10.00" fill="#000000">/AliceO2Group/AliceO2</text>
<text text-anchor="start" x="1150" y="-533.5" font-family="Helvetica,sans-Serif" font-size="10.00" fill="#000000">/Detectors/TPC/base/src</text>
<text text-anchor="middle" x="1208" y="-522.5" font-family="Helvetica,sans-Serif" font-size="10.00" fill="#000000">/CalArray.cxx</text>
</g>
<!-- Node1 -->
<g id="node2" class="node">
<title>Node1</title>
<g id="a_node2"><a xlink:href="../../d5/d1d/TPC_2base_2include_2TPCBase_2Mapper_8h.html" target="_top" xlink:title="TPCBase/Mapper.h">
<polygon fill="none" stroke="#000000" points="980.5,-403.5 980.5,-422.5 1087.5,-422.5 1087.5,-403.5 980.5,-403.5"/>
<text text-anchor="middle" x="1034" y="-410.5" font-family="Helvetica,sans-Serif" font-size="10.00" fill="#000000">TPCBase/Mapper.h</text>
</a>
</g>
</g>
<!-- Node0&#45;&gt;Node1 -->
<g id="edge1" class="edge">
<title>Node0&#45;&gt;Node1</title>
<path fill="none" stroke="#191970" d="M1172.7885,-515.4961C1137.511,-489.4435 1084.3717,-450.1998 1055.1408,-428.6126"/>
<polygon fill="#191970" stroke="#191970" points="1057.0064,-425.6394 1046.883,-422.5142 1052.8479,-431.2703 1057.0064,-425.6394"/>
</g>
<!-- Node31 -->
<g id="node32" class="node">
<title>Node31</title>
<g id="a_node32"><a xlink:href="../../db/d9b/CalArray_8h.html" target="_top" xlink:title="TPCBase/CalArray.h">
<polygon fill="none" stroke="#000000" points="1280,-459.5 1280,-478.5 1392,-478.5 1392,-459.5 1280,-459.5"/>
<text text-anchor="middle" x="1336" y="-466.5" font-family="Helvetica,sans-Serif" font-size="10.00" fill="#000000">TPCBase/CalArray.h</text>
</a>
</g>
</g>
<!-- Node0&#45;&gt;Node31 -->
<g id="edge50" class="edge">
<title>Node0&#45;&gt;Node31</title>
<path fill="none" stroke="#191970" d="M1254.2109,-515.3258C1273.127,-504.6116 1294.2953,-492.6218 1310.3566,-483.5246"/>
<polygon fill="#191970" stroke="#191970" points="1312.1913,-486.5079 1319.1676,-478.534 1308.7414,-480.417 1312.1913,-486.5079"/>
</g>
<!-- Node2 -->
<g id="node3" class="node">
<title>Node2</title>
<polygon fill="none" stroke="#bfbfbf" points="1118,-347.5 1118,-366.5 1156,-366.5 1156,-347.5 1118,-347.5"/>
<text text-anchor="middle" x="1137" y="-354.5" font-family="Helvetica,sans-Serif" font-size="10.00" fill="#000000">map</text>
</g>
<!-- Node1&#45;&gt;Node2 -->
<g id="edge2" class="edge">
<title>Node1&#45;&gt;Node2</title>
<path fill="none" stroke="#191970" d="M1051.9412,-403.2455C1068.04,-394.4928 1091.8879,-381.527 1110.2391,-371.5496"/>
<polygon fill="#191970" stroke="#191970" points="1112.1507,-374.4942 1119.2644,-366.6427 1108.8071,-368.3444 1112.1507,-374.4942"/>
</g>
<!-- Node3 -->
<g id="node4" class="node">
<title>Node3</title>
<polygon fill="none" stroke="#bfbfbf" points="1342.5,-291.5 1342.5,-310.5 1389.5,-310.5 1389.5,-291.5 1342.5,-291.5"/>
<text text-anchor="middle" x="1366" y="-298.5" font-family="Helvetica,sans-Serif" font-size="10.00" fill="#000000">vector</text>
</g>
<!-- Node1&#45;&gt;Node3 -->
<g id="edge3" class="edge">
<title>Node1&#45;&gt;Node3</title>
<path fill="none" stroke="#191970" d="M1087.604,-404.4097C1090.7821,-403.9258 1093.9324,-403.4526 1097,-403 1155.5756,-394.3584 1320.4053,-410.1028 1361,-367 1372.4262,-354.8678 1372.5107,-335.2991 1370.4369,-320.6137"/>
<polygon fill="#191970" stroke="#191970" points="1373.8351,-319.7408 1368.5825,-310.5397 1366.9508,-321.0081 1373.8351,-319.7408"/>
</g>
<!-- Node4 -->
<g id="node5" class="node">
<title>Node4</title>
<polygon fill="none" stroke="#bfbfbf" points="908,-347.5 908,-366.5 950,-366.5 950,-347.5 908,-347.5"/>
<text text-anchor="middle" x="929" y="-354.5" font-family="Helvetica,sans-Serif" font-size="10.00" fill="#000000">array</text>
</g>
<!-- Node1&#45;&gt;Node4 -->
<g id="edge4" class="edge">
<title>Node1&#45;&gt;Node4</title>
<path fill="none" stroke="#191970" d="M1015.7104,-403.2455C999.2238,-394.4527 974.7648,-381.4079 956.0235,-371.4125"/>
<polygon fill="#191970" stroke="#191970" points="957.5506,-368.2604 947.08,-366.6427 954.2565,-374.4368 957.5506,-368.2604"/>
</g>
<!-- Node5 -->
<g id="node6" class="node">
<title>Node5</title>
<polygon fill="none" stroke="#bfbfbf" points="1530,-347.5 1530,-366.5 1574,-366.5 1574,-347.5 1530,-347.5"/>
<text text-anchor="middle" x="1552" y="-354.5" font-family="Helvetica,sans-Serif" font-size="10.00" fill="#000000">string</text>
</g>
<!-- Node1&#45;&gt;Node5 -->
<g id="edge5" class="edge">
<title>Node1&#45;&gt;Node5</title>
<path fill="none" stroke="#191970" d="M1087.5799,-404.2313C1090.7641,-403.7922 1093.9222,-403.3776 1097,-403 1280.3198,-380.5089 1328.7534,-396.9693 1511,-367 1514.0116,-366.5048 1517.1287,-365.9059 1520.2372,-365.2503"/>
<polygon fill="#191970" stroke="#191970" points="1521.0286,-368.6598 1529.9976,-363.02 1519.4692,-361.8357 1521.0286,-368.6598"/>
</g>
<!-- Node6 -->
<g id="node7" class="node">
<title>Node6</title>
<polygon fill="none" stroke="#bfbfbf" points="1340.5,-67.5 1340.5,-86.5 1387.5,-86.5 1387.5,-67.5 1340.5,-67.5"/>
<text text-anchor="middle" x="1364" y="-74.5" font-family="Helvetica,sans-Serif" font-size="10.00" fill="#000000">cmath</text>
</g>
<!-- Node1&#45;&gt;Node6 -->
<g id="edge6" class="edge">
<title>Node1&#45;&gt;Node6</title>
<path fill="none" stroke="#191970" d="M1087.594,-404.3396C1090.7746,-403.8733 1093.9282,-403.4231 1097,-403 1165.2658,-393.5966 1345.0153,-400.9187 1405,-367 1437.2689,-348.7534 1456,-338.0705 1456,-301 1456,-301 1456,-301 1456,-189 1456,-146.5397 1416.0299,-111.3942 1388.781,-92.3678"/>
<polygon fill="#191970" stroke="#191970" points="1390.7,-89.4405 1380.4478,-86.768 1386.7957,-95.2506 1390.7,-89.4405"/>
</g>
<!-- Node7 -->
<g id="node8" class="node">
<title>Node7</title>
<g id="a_node8"><a xlink:href="../../d1/d73/Defs_8h.html" target="_top" xlink:title="DataFormatsTPC/Defs.h">
<polygon fill="none" stroke="#000000" points="1112.5,-123.5 1112.5,-142.5 1245.5,-142.5 1245.5,-123.5 1112.5,-123.5"/>
<text text-anchor="middle" x="1179" y="-130.5" font-family="Helvetica,sans-Serif" font-size="10.00" fill="#000000">DataFormatsTPC/Defs.h</text>
</a>
</g>
</g>
<!-- Node1&#45;&gt;Node7 -->
<g id="edge7" class="edge">
<title>Node1&#45;&gt;Node7</title>
<path fill="none" stroke="#191970" d="M1087.5995,-404.3784C1090.7787,-403.9024 1093.9305,-403.4394 1097,-403 1159.5376,-394.047 1326.2267,-401.7288 1379,-367 1407.4618,-348.27 1418,-335.0718 1418,-301 1418,-301 1418,-301 1418,-245 1418,-203.2902 1297.1395,-164.2642 1227.3113,-145.1974"/>
<polygon fill="#191970" stroke="#191970" points="1227.9654,-141.749 1217.3995,-142.5311 1226.147,-148.5087 1227.9654,-141.749"/>
</g>
<!-- Node9 -->
<g id="node10" class="node">
<title>Node9</title>
<g id="a_node10"><a xlink:href="../../dc/d73/Cartesian_8h.html" target="_top" xlink:title="MathUtils/Cartesian.h">
<polygon fill="none" stroke="#000000" points="780,-67.5 780,-86.5 902,-86.5 902,-67.5 780,-67.5"/>
<text text-anchor="middle" x="841" y="-74.5" font-family="Helvetica,sans-Serif" font-size="10.00" fill="#000000">MathUtils/Cartesian.h</text>
</a>
</g>
</g>
<!-- Node1&#45;&gt;Node9 -->
<g id="edge49" class="edge">
<title>Node1&#45;&gt;Node9</title>
<path fill="none" stroke="#191970" d="M980.2314,-408.5547C902.9807,-401.5933 764.8402,-386.8365 719,-367 675.7461,-348.2827 636,-348.13 636,-301 636,-301 636,-301 636,-189 636,-126.4137 710.4957,-98.5841 769.6719,-86.3504"/>
<polygon fill="#191970" stroke="#191970" points="770.6262,-89.7303 779.7709,-84.3801 769.2857,-82.8598 770.6262,-89.7303"/>
</g>
<!-- Node20 -->
<g id="node21" class="node">
<title>Node20</title>
<g id="a_node21"><a xlink:href="../../de/d41/PadPos_8h.html" target="_top" xlink:title="TPCBase/PadPos.h">
<polygon fill="none" stroke="#000000" points="839,-235.5 839,-254.5 945,-254.5 945,-235.5 839,-235.5"/>
<text text-anchor="middle" x="892" y="-242.5" font-family="Helvetica,sans-Serif" font-size="10.00" fill="#000000">TPCBase/PadPos.h</text>
</a>
</g>
</g>
<!-- Node1&#45;&gt;Node20 -->
<g id="edge21" class="edge">
<title>Node1&#45;&gt;Node20</title>
<path fill="none" stroke="#191970" d="M980.4506,-409.5377C911.1748,-404.13 795.3024,-391.6423 761,-367 738.0685,-350.5264 737.8734,-338.386 731,-311 728.8361,-302.3785 725.6472,-298.0964 731,-291 743.1036,-274.9539 789.107,-262.8212 828.856,-255.0559"/>
<polygon fill="#191970" stroke="#191970" points="829.6265,-258.4724 838.8025,-253.1761 828.3265,-251.5941 829.6265,-258.4724"/>
</g>
<!-- Node21 -->
<g id="node22" class="node">
<title>Node21</title>
<g id="a_node22"><a xlink:href="../../dd/d0b/PadSecPos_8h.html" target="_top" xlink:title="TPCBase/PadSecPos.h">
<polygon fill="none" stroke="#000000" points="740.5,-291.5 740.5,-310.5 863.5,-310.5 863.5,-291.5 740.5,-291.5"/>
<text text-anchor="middle" x="802" y="-298.5" font-family="Helvetica,sans-Serif" font-size="10.00" fill="#000000">TPCBase/PadSecPos.h</text>
</a>
</g>
</g>
<!-- Node1&#45;&gt;Node21 -->
<g id="edge22" class="edge">
<title>Node1&#45;&gt;Node21</title>
<path fill="none" stroke="#191970" d="M980.2881,-411.5428C910.7883,-408.3939 795.455,-398.4428 769,-367 756.613,-352.2776 770.1182,-332.1136 783.3986,-317.96"/>
<polygon fill="#191970" stroke="#191970" points="785.9801,-320.3285 790.5876,-310.788 781.0361,-315.3729 785.9801,-320.3285"/>
</g>
<!-- Node22 -->
<g id="node23" class="node">
<title>Node22</title>
<g id="a_node23"><a xlink:href="../../d3/dd6/Sector_8h.html" target="_top" xlink:title="TPCBase/Sector.h">
<polygon fill="none" stroke="#000000" points="901.5,-179.5 901.5,-198.5 1002.5,-198.5 1002.5,-179.5 901.5,-179.5"/>
<text text-anchor="middle" x="952" y="-186.5" font-family="Helvetica,sans-Serif" font-size="10.00" fill="#000000">TPCBase/Sector.h</text>
</a>
</g>
</g>
<!-- Node1&#45;&gt;Node22 -->
<g id="edge48" class="edge">
<title>Node1&#45;&gt;Node22</title>
<path fill="none" stroke="#191970" d="M980.2309,-411.5509C904.9275,-408.3962 773.3944,-398.421 739,-367 713.6423,-343.8344 708.4723,-321.108 725,-291 757.6863,-231.4562 835.8376,-206.5779 891.2845,-196.244"/>
<polygon fill="#191970" stroke="#191970" points="892.1118,-199.6525 901.3574,-194.4786 890.9033,-192.7576 892.1118,-199.6525"/>
</g>
<!-- Node24 -->
<g id="node25" class="node">
<title>Node24</title>
<g id="a_node25"><a xlink:href="../../da/d61/PadROCPos_8h.html" target="_top" xlink:title="TPCBase/PadROCPos.h">
<polygon fill="none" stroke="#000000" points="1068.5,-291.5 1068.5,-310.5 1195.5,-310.5 1195.5,-291.5 1068.5,-291.5"/>
<text text-anchor="middle" x="1132" y="-298.5" font-family="Helvetica,sans-Serif" font-size="10.00" fill="#000000">TPCBase/PadROCPos.h</text>
</a>
</g>
</g>
<!-- Node1&#45;&gt;Node24 -->
<g id="edge27" class="edge">
<title>Node1&#45;&gt;Node24</title>
<path fill="none" stroke="#191970" d="M1077.403,-403.4577C1111.368,-395.0075 1154.5467,-381.7497 1165,-367 1175.8983,-351.6224 1163.3704,-332.121 1150.7432,-318.3148"/>
<polygon fill="#191970" stroke="#191970" points="1152.9792,-315.5968 1143.4733,-310.9183 1147.9869,-320.5036 1152.9792,-315.5968"/>
</g>
<!-- Node26 -->
<g id="node27" class="node">
<title>Node26</title>
<g id="a_node27"><a xlink:href="../../d3/d54/DigitPos_8h.html" target="_top" xlink:title="TPCBase/DigitPos.h">
<polygon fill="none" stroke="#000000" points="778,-347.5 778,-366.5 890,-366.5 890,-347.5 778,-347.5"/>
<text text-anchor="middle" x="834" y="-354.5" font-family="Helvetica,sans-Serif" font-size="10.00" fill="#000000">TPCBase/DigitPos.h</text>
</a>
</g>
</g>
<!-- Node1&#45;&gt;Node26 -->
<g id="edge33" class="edge">
<title>Node1&#45;&gt;Node26</title>
<path fill="none" stroke="#191970" d="M999.6188,-403.3733C965.9299,-393.9404 914.4518,-379.5265 877.8382,-369.2747"/>
<polygon fill="#191970" stroke="#191970" points="878.506,-365.8271 867.9326,-366.5011 876.6185,-372.5679 878.506,-365.8271"/>
</g>
<!-- Node28 -->
<g id="node29" class="node">
<title>Node28</title>
<g id="a_node29"><a xlink:href="../../d1/d1f/FECInfo_8h.html" target="_top" xlink:title="TPCBase/FECInfo.h">
<polygon fill="none" stroke="#000000" points="1484,-179.5 1484,-198.5 1592,-198.5 1592,-179.5 1484,-179.5"/>
<text text-anchor="middle" x="1538" y="-186.5" font-family="Helvetica,sans-Serif" font-size="10.00" fill="#000000">TPCBase/FECInfo.h</text>
</a>
</g>
</g>
<!-- Node1&#45;&gt;Node28 -->
<g id="edge41" class="edge">
<title>Node1&#45;&gt;Node28</title>
<path fill="none" stroke="#191970" d="M1087.5843,-404.266C1090.7673,-403.8182 1093.9241,-403.3922 1097,-403 1179.6053,-392.4677 1403.7598,-417.4659 1470,-367 1520.7947,-328.3015 1533.6501,-246.7591 1536.901,-208.9862"/>
<polygon fill="#191970" stroke="#191970" points="1540.4097,-208.9891 1537.633,-198.7646 1533.4276,-208.4891 1540.4097,-208.9891"/>
</g>
<!-- Node29 -->
<g id="node30" class="node">
<title>Node29</title>
<g id="a_node30"><a xlink:href="../../da/d9d/PadRegionInfo_8h.html" target="_top" xlink:title="TPCBase/PadRegionInfo.h">
<polygon fill="none" stroke="#000000" points="1212,-347.5 1212,-366.5 1352,-366.5 1352,-347.5 1212,-347.5"/>
<text text-anchor="middle" x="1282" y="-354.5" font-family="Helvetica,sans-Serif" font-size="10.00" fill="#000000">TPCBase/PadRegionInfo.h</text>
</a>
</g>
</g>
<!-- Node1&#45;&gt;Node29 -->
<g id="edge43" class="edge">
<title>Node1&#45;&gt;Node29</title>
<path fill="none" stroke="#191970" d="M1076.3509,-403.4369C1118.7942,-393.8529 1184.2119,-379.0812 1229.8313,-368.78"/>
<polygon fill="#191970" stroke="#191970" points="1230.8403,-372.1404 1239.8237,-366.5237 1229.2984,-365.3123 1230.8403,-372.1404"/>
</g>
<!-- Node30 -->
<g id="node31" class="node">
<title>Node30</title>
<g id="a_node31"><a xlink:href="../../d6/d42/PartitionInfo_8h.html" target="_top" xlink:title="TPCBase/PartitionInfo.h">
<polygon fill="none" stroke="#000000" points="968.5,-347.5 968.5,-366.5 1099.5,-366.5 1099.5,-347.5 968.5,-347.5"/>
<text text-anchor="middle" x="1034" y="-354.5" font-family="Helvetica,sans-Serif" font-size="10.00" fill="#000000">TPCBase/PartitionInfo.h</text>
</a>
</g>
</g>
<!-- Node1&#45;&gt;Node30 -->
<g id="edge47" class="edge">
<title>Node1&#45;&gt;Node30</title>
<path fill="none" stroke="#191970" d="M1034,-403.2455C1034,-395.9382 1034,-385.6944 1034,-376.7046"/>
<polygon fill="#191970" stroke="#191970" points="1037.5001,-376.6426 1034,-366.6427 1030.5001,-376.6427 1037.5001,-376.6426"/>
</g>
<!-- Node7&#45;&gt;Node6 -->
<g id="edge8" class="edge">
<title>Node7&#45;&gt;Node6</title>
<path fill="none" stroke="#191970" d="M1210.8026,-123.3733C1244.1327,-113.2842 1296.287,-97.4969 1330.3081,-87.1986"/>
<polygon fill="#191970" stroke="#191970" points="1331.6863,-90.4384 1340.2433,-84.1912 1329.6582,-83.7386 1331.6863,-90.4384"/>
</g>
<!-- Node8 -->
<g id="node9" class="node">
<title>Node8</title>
<g id="a_node9"><a xlink:href="../../d1/da8/GPUROOTCartesianFwd_8h.html" target="_top" xlink:title="GPUROOTCartesianFwd.h">
<polygon fill="none" stroke="#000000" points="1109,-67.5 1109,-86.5 1249,-86.5 1249,-67.5 1109,-67.5"/>
<text text-anchor="middle" x="1179" y="-74.5" font-family="Helvetica,sans-Serif" font-size="10.00" fill="#000000">GPUROOTCartesianFwd.h</text>
</a>
</g>
</g>
<!-- Node7&#45;&gt;Node8 -->
<g id="edge9" class="edge">
<title>Node7&#45;&gt;Node8</title>
<path fill="none" stroke="#191970" d="M1179,-123.2455C1179,-115.9382 1179,-105.6944 1179,-96.7046"/>
<polygon fill="#191970" stroke="#191970" points="1182.5001,-96.6426 1179,-86.6427 1175.5001,-96.6427 1182.5001,-96.6426"/>
</g>
<!-- Node7&#45;&gt;Node9 -->
<g id="edge10" class="edge">
<title>Node7&#45;&gt;Node9</title>
<path fill="none" stroke="#191970" d="M1121.2798,-123.4369C1062.34,-113.6717 970.893,-98.5207 908.6034,-88.2006"/>
<polygon fill="#191970" stroke="#191970" points="908.9198,-84.7053 898.4822,-86.5237 907.7756,-91.6112 908.9198,-84.7053"/>
</g>
<!-- Node10 -->
<g id="node11" class="node">
<title>Node10</title>
<polygon fill="none" stroke="#bfbfbf" points="945,-.5 945,-30.5 1109,-30.5 1109,-.5 945,-.5"/>
<text text-anchor="start" x="953" y="-18.5" font-family="Helvetica,sans-Serif" font-size="10.00" fill="#000000">Math/GenVector/Displacement</text>
<text text-anchor="middle" x="1027" y="-7.5" font-family="Helvetica,sans-Serif" font-size="10.00" fill="#000000">Vector3D.h</text>
</g>
<!-- Node9&#45;&gt;Node10 -->
<g id="edge11" class="edge">
<title>Node9&#45;&gt;Node10</title>
<path fill="none" stroke="#191970" d="M870.0625,-67.3906C897.2165,-58.4123 938.4655,-44.7735 971.8605,-33.7316"/>
<polygon fill="#191970" stroke="#191970" points="973.1036,-37.007 981.4993,-30.5446 970.906,-30.3609 973.1036,-37.007"/>
</g>
<!-- Node11 -->
<g id="node12" class="node">
<title>Node11</title>
<polygon fill="none" stroke="#bfbfbf" points="1127.5,-6 1127.5,-25 1316.5,-25 1316.5,-6 1127.5,-6"/>
<text text-anchor="middle" x="1222" y="-13" font-family="Helvetica,sans-Serif" font-size="10.00" fill="#000000">Math/GenVector/PositionVector3D.h</text>
</g>
<!-- Node9&#45;&gt;Node11 -->
<g id="edge12" class="edge">
<title>Node9&#45;&gt;Node11</title>
<path fill="none" stroke="#191970" d="M900.1132,-67.4581C968.4851,-56.4217 1080.882,-38.2789 1153.1407,-26.6151"/>
<polygon fill="#191970" stroke="#191970" points="1153.7471,-30.0626 1163.0616,-25.0137 1152.6316,-23.152 1153.7471,-30.0626"/>
</g>
<!-- Node12 -->
<g id="node13" class="node">
<title>Node12</title>
<polygon fill="none" stroke="#bfbfbf" points="1335,-6 1335,-25 1495,-25 1495,-6 1335,-6"/>
<text text-anchor="middle" x="1415" y="-13" font-family="Helvetica,sans-Serif" font-size="10.00" fill="#000000">Math/GenVector/Rotation3D.h</text>
</g>
<!-- Node9&#45;&gt;Node12 -->
<g id="edge13" class="edge">
<title>Node9&#45;&gt;Node12</title>
<path fill="none" stroke="#191970" d="M902.0423,-72.7435C994.1534,-65.9743 1174.064,-51.4041 1326,-31 1335.1323,-29.7736 1344.7604,-28.2937 1354.1757,-26.7414"/>
<polygon fill="#191970" stroke="#191970" points="1354.9972,-30.1523 1364.2753,-25.037 1353.8323,-23.2499 1354.9972,-30.1523"/>
</g>
<!-- Node13 -->
<g id="node14" class="node">
<title>Node13</title>
<polygon fill="none" stroke="#bfbfbf" points="0,-6 0,-25 168,-25 168,-6 0,-6"/>
<text text-anchor="middle" x="84" y="-13" font-family="Helvetica,sans-Serif" font-size="10.00" fill="#000000">Math/GenVector/Transform3D.h</text>
</g>
<!-- Node9&#45;&gt;Node13 -->
<g id="edge14" class="edge">
<title>Node9&#45;&gt;Node13</title>
<path fill="none" stroke="#191970" d="M779.9392,-74.7313C662.7294,-69.9425 398.2036,-57.0349 177,-31 167.0024,-29.8233 156.441,-28.3174 146.1638,-26.7085"/>
<polygon fill="#191970" stroke="#191970" points="146.442,-23.2082 136.0126,-25.0735 145.3288,-30.1192 146.442,-23.2082"/>
</g>
<!-- Node14 -->
<g id="node15" class="node">
<title>Node14</title>
<polygon fill="none" stroke="#bfbfbf" points="186.5,-6 186.5,-25 359.5,-25 359.5,-6 186.5,-6"/>
<text text-anchor="middle" x="273" y="-13" font-family="Helvetica,sans-Serif" font-size="10.00" fill="#000000">Math/GenVector/Translation3D.h</text>
</g>
<!-- Node9&#45;&gt;Node14 -->
<g id="edge15" class="edge">
<title>Node9&#45;&gt;Node14</title>
<path fill="none" stroke="#191970" d="M779.7617,-72.2704C689.6159,-65.0276 515.9748,-50.0079 369,-31 359.0797,-29.717 348.609,-28.1977 338.3741,-26.62"/>
<polygon fill="#191970" stroke="#191970" points="338.6688,-23.1235 328.2469,-25.0296 337.5827,-30.0387 338.6688,-23.1235"/>
</g>
<!-- Node15 -->
<g id="node16" class="node">
<title>Node15</title>
<polygon fill="none" stroke="#bfbfbf" points="378,-.5 378,-30.5 542,-30.5 542,-.5 378,-.5"/>
<text text-anchor="start" x="386" y="-18.5" font-family="Helvetica,sans-Serif" font-size="10.00" fill="#000000">Math/GenVector/Displacement</text>
<text text-anchor="middle" x="460" y="-7.5" font-family="Helvetica,sans-Serif" font-size="10.00" fill="#000000">Vector2D.h</text>
</g>
<!-- Node9&#45;&gt;Node15 -->
<g id="edge16" class="edge">
<title>Node9&#45;&gt;Node15</title>
<path fill="none" stroke="#191970" d="M779.8655,-67.51C723.3893,-58.6961 636.8707,-45.0747 552.3598,-31.2142"/>
<polygon fill="#191970" stroke="#191970" points="552.768,-27.7344 542.3328,-29.567 551.6332,-34.6418 552.768,-27.7344"/>
</g>
<!-- Node16 -->
<g id="node17" class="node">
<title>Node16</title>
<polygon fill="none" stroke="#bfbfbf" points="560.5,-6 560.5,-25 749.5,-25 749.5,-6 560.5,-6"/>
<text text-anchor="middle" x="655" y="-13" font-family="Helvetica,sans-Serif" font-size="10.00" fill="#000000">Math/GenVector/PositionVector2D.h</text>
</g>
<!-- Node9&#45;&gt;Node16 -->
<g id="edge17" class="edge">
<title>Node9&#45;&gt;Node16</title>
<path fill="none" stroke="#191970" d="M811.9375,-67.3906C780.1338,-56.8749 728.9949,-39.966 693.7856,-28.3243"/>
<polygon fill="#191970" stroke="#191970" points="694.4517,-24.8582 683.8584,-25.0419 692.2541,-31.5043 694.4517,-24.8582"/>
</g>
<!-- Node17 -->
<g id="node18" class="node">
<title>Node17</title>
<polygon fill="none" stroke="#bfbfbf" points="767.5,-6 767.5,-25 826.5,-25 826.5,-6 767.5,-6"/>
<text text-anchor="middle" x="797" y="-13" font-family="Helvetica,sans-Serif" font-size="10.00" fill="#000000">Rtypes.h</text>
</g>
<!-- Node9&#45;&gt;Node17 -->
<g id="edge18" class="edge">
<title>Node9&#45;&gt;Node17</title>
<path fill="none" stroke="#191970" d="M834.125,-67.3906C827.6407,-58.3273 817.7586,-44.5149 809.8199,-33.4188"/>
<polygon fill="#191970" stroke="#191970" points="812.6371,-31.3412 803.9719,-25.2449 806.9441,-35.4143 812.6371,-31.3412"/>
</g>
<!-- Node18 -->
<g id="node19" class="node">
<title>Node18</title>
<polygon fill="none" stroke="#bfbfbf" points="845,-6 845,-25 927,-25 927,-6 845,-6"/>
<text text-anchor="middle" x="886" y="-13" font-family="Helvetica,sans-Serif" font-size="10.00" fill="#000000">TGeoMatrix.h</text>
</g>
<!-- Node9&#45;&gt;Node18 -->
<g id="edge19" class="edge">
<title>Node9&#45;&gt;Node18</title>
<path fill="none" stroke="#191970" d="M848.0313,-67.3906C854.663,-58.3273 864.7696,-44.5149 872.8887,-33.4188"/>
<polygon fill="#191970" stroke="#191970" points="875.7891,-35.382 878.8696,-25.2449 870.1399,-31.2484 875.7891,-35.382"/>
</g>
<!-- Node19 -->
<g id="node20" class="node">
<title>Node19</title>
<polygon fill="none" stroke="#bfbfbf" points="1513.5,-6 1513.5,-25 1562.5,-25 1562.5,-6 1513.5,-6"/>
<text text-anchor="middle" x="1538" y="-13" font-family="Helvetica,sans-Serif" font-size="10.00" fill="#000000">iosfwd</text>
</g>
<!-- Node9&#45;&gt;Node19 -->
<g id="edge20" class="edge">
<title>Node9&#45;&gt;Node19</title>
<path fill="none" stroke="#191970" d="M902.0711,-74.0102C1055.0606,-66.343 1446.6139,-45.5616 1504,-31 1506.1969,-30.4426 1508.4273,-29.7486 1510.6414,-28.9657"/>
<polygon fill="#191970" stroke="#191970" points="1512.15,-32.1304 1520.0871,-25.1123 1509.5058,-25.6489 1512.15,-32.1304"/>
</g>
<!-- Node21&#45;&gt;Node20 -->
<g id="edge26" class="edge">
<title>Node21&#45;&gt;Node20</title>
<path fill="none" stroke="#191970" d="M817.6768,-291.2455C831.4856,-282.6534 851.8193,-270.0014 867.7292,-260.1018"/>
<polygon fill="#191970" stroke="#191970" points="869.8613,-262.8974 876.5028,-254.6427 866.1632,-256.954 869.8613,-262.8974"/>
</g>
<!-- Node21&#45;&gt;Node22 -->
<g id="edge23" class="edge">
<title>Node21&#45;&gt;Node22</title>
<path fill="none" stroke="#191970" d="M803.665,-291.1058C806.5616,-276.8425 813.839,-250.5169 830,-235 846.85,-218.8216 869.9397,-208.2117 891.5005,-201.3098"/>
<polygon fill="#191970" stroke="#191970" points="892.6904,-204.6072 901.2713,-198.3929 890.688,-197.8998 892.6904,-204.6072"/>
</g>
<!-- Node22&#45;&gt;Node7 -->
<g id="edge25" class="edge">
<title>Node22&#45;&gt;Node7</title>
<path fill="none" stroke="#191970" d="M990.7648,-179.4369C1029.3692,-169.9133 1088.7384,-155.2672 1130.4572,-144.9753"/>
<polygon fill="#191970" stroke="#191970" points="1131.5245,-148.317 1140.3951,-142.5237 1129.8479,-141.5208 1131.5245,-148.317"/>
</g>
<!-- Node23 -->
<g id="node24" class="node">
<title>Node23</title>
<g id="a_node24"><a xlink:href="../../d0/dda/DataFormats_2Detectors_2TPC_2include_2DataFormatsTPC_2Constants_8h.html" target="_top" xlink:title="DataFormatsTPC/Constants.h">
<polygon fill="none" stroke="#000000" points="872.5,-123.5 872.5,-142.5 1031.5,-142.5 1031.5,-123.5 872.5,-123.5"/>
<text text-anchor="middle" x="952" y="-130.5" font-family="Helvetica,sans-Serif" font-size="10.00" fill="#000000">DataFormatsTPC/Constants.h</text>
</a>
</g>
</g>
<!-- Node22&#45;&gt;Node23 -->
<g id="edge24" class="edge">
<title>Node22&#45;&gt;Node23</title>
<path fill="none" stroke="#191970" d="M952,-179.2455C952,-171.9382 952,-161.6944 952,-152.7046"/>
<polygon fill="#191970" stroke="#191970" points="955.5001,-152.6426 952,-142.6427 948.5001,-152.6427 955.5001,-152.6426"/>
</g>
<!-- Node24&#45;&gt;Node7 -->
<g id="edge28" class="edge">
<title>Node24&#45;&gt;Node7</title>
<path fill="none" stroke="#191970" d="M1139.4376,-291.3513C1145.9263,-282.4215 1155.0543,-268.5218 1160,-255 1172.586,-220.5892 1176.8353,-177.7407 1178.2696,-153.063"/>
<polygon fill="#191970" stroke="#191970" points="1181.7781,-152.9674 1178.7612,-142.8112 1174.7861,-152.632 1181.7781,-152.9674"/>
</g>
<!-- Node24&#45;&gt;Node20 -->
<g id="edge32" class="edge">
<title>Node24&#45;&gt;Node20</title>
<path fill="none" stroke="#191970" d="M1091.0152,-291.4369C1050.0274,-281.8731 986.8996,-267.1432 942.7643,-256.845"/>
<polygon fill="#191970" stroke="#191970" points="943.3495,-253.3876 932.8157,-254.5237 941.7588,-260.2045 943.3495,-253.3876"/>
</g>
<!-- Node25 -->
<g id="node26" class="node">
<title>Node25</title>
<g id="a_node26"><a xlink:href="../../dc/d14/ROC_8h.html" target="_top" xlink:title="TPCBase/ROC.h">
<polygon fill="none" stroke="#000000" points="1059,-235.5 1059,-254.5 1151,-254.5 1151,-235.5 1059,-235.5"/>
<text text-anchor="middle" x="1105" y="-242.5" font-family="Helvetica,sans-Serif" font-size="10.00" fill="#000000">TPCBase/ROC.h</text>
</a>
</g>
</g>
<!-- Node24&#45;&gt;Node25 -->
<g id="edge29" class="edge">
<title>Node24&#45;&gt;Node25</title>
<path fill="none" stroke="#191970" d="M1127.297,-291.2455C1123.6576,-283.6973 1118.5076,-273.0158 1114.0738,-263.8197"/>
<polygon fill="#191970" stroke="#191970" points="1117.1449,-262.1303 1109.6491,-254.6427 1110.8395,-265.1704 1117.1449,-262.1303"/>
</g>
<!-- Node25&#45;&gt;Node7 -->
<g id="edge30" class="edge">
<title>Node25&#45;&gt;Node7</title>
<path fill="none" stroke="#191970" d="M1111.3092,-235.4509C1123.6515,-216.7707 1151.1682,-175.1238 1167.0568,-151.0761"/>
<polygon fill="#191970" stroke="#191970" points="1170.1143,-152.7977 1172.7068,-142.5249 1164.274,-148.9388 1170.1143,-152.7977"/>
</g>
<!-- Node25&#45;&gt;Node22 -->
<g id="edge31" class="edge">
<title>Node25&#45;&gt;Node22</title>
<path fill="none" stroke="#191970" d="M1078.6984,-235.3733C1053.5872,-226.1822 1015.5562,-212.2624 987.7128,-202.0713"/>
<polygon fill="#191970" stroke="#191970" points="988.5522,-198.6516 977.9584,-198.5011 986.1462,-205.2251 988.5522,-198.6516"/>
</g>
<!-- Node26&#45;&gt;Node7 -->
<g id="edge34" class="edge">
<title>Node26&#45;&gt;Node7</title>
<path fill="none" stroke="#191970" d="M890.0015,-348.2551C893.0439,-347.8204 896.0584,-347.3992 899,-347 966.8471,-337.7929 1159.5014,-362.1652 1205,-311 1245.2159,-265.7755 1209.6507,-187.0257 1189.9875,-151.418"/>
<polygon fill="#191970" stroke="#191970" points="1192.9392,-149.529 1184.9393,-142.5826 1186.8613,-153.0017 1192.9392,-149.529"/>
</g>
<!-- Node26&#45;&gt;Node20 -->
<g id="edge39" class="edge">
<title>Node26&#45;&gt;Node20</title>
<path fill="none" stroke="#191970" d="M844.0339,-347.2627C852.5564,-338.4903 864.5574,-324.8751 872,-311 879.7818,-296.4926 884.9739,-278.5292 888.1134,-265.0075"/>
<polygon fill="#191970" stroke="#191970" points="891.6131,-265.3779 890.2795,-254.8673 884.7676,-263.9155 891.6131,-265.3779"/>
</g>
<!-- Node26&#45;&gt;Node21 -->
<g id="edge40" class="edge">
<title>Node26&#45;&gt;Node21</title>
<path fill="none" stroke="#191970" d="M828.426,-347.2455C824.0669,-339.617 817.8789,-328.7881 812.5867,-319.5267"/>
<polygon fill="#191970" stroke="#191970" points="815.5104,-317.5886 807.5101,-310.6427 809.4327,-321.0616 815.5104,-317.5886"/>
</g>
<!-- Node27 -->
<g id="node28" class="node">
<title>Node27</title>
<g id="a_node28"><a xlink:href="../../df/d26/CRU_8h.html" target="_top" xlink:title="TPCBase/CRU.h">
<polygon fill="none" stroke="#000000" points="958,-291.5 958,-310.5 1050,-310.5 1050,-291.5 958,-291.5"/>
<text text-anchor="middle" x="1004" y="-298.5" font-family="Helvetica,sans-Serif" font-size="10.00" fill="#000000">TPCBase/CRU.h</text>
</a>
</g>
</g>
<!-- Node26&#45;&gt;Node27 -->
<g id="edge35" class="edge">
<title>Node26&#45;&gt;Node27</title>
<path fill="none" stroke="#191970" d="M863.224,-347.3733C891.4925,-338.0613 934.4965,-323.8953 965.5344,-313.671"/>
<polygon fill="#191970" stroke="#191970" points="966.7544,-316.9542 975.1573,-310.5011 964.5643,-310.3056 966.7544,-316.9542"/>
</g>
<!-- Node27&#45;&gt;Node7 -->
<g id="edge36" class="edge">
<title>Node27&#45;&gt;Node7</title>
<path fill="none" stroke="#191970" d="M1009.4629,-291.3938C1017.3766,-277.9391 1032.9591,-253.1017 1050,-235 1082.8796,-200.0736 1128.1635,-167.0584 1155.409,-148.4888"/>
<polygon fill="#191970" stroke="#191970" points="1157.5728,-151.2514 1163.9133,-142.7632 1153.6634,-145.4448 1157.5728,-151.2514"/>
</g>
<!-- Node27&#45;&gt;Node22 -->
<g id="edge37" class="edge">
<title>Node27&#45;&gt;Node22</title>
<path fill="none" stroke="#191970" d="M999.5665,-291.4509C990.9703,-272.936 971.8989,-231.8591 960.6908,-207.7187"/>
<polygon fill="#191970" stroke="#191970" points="963.808,-206.1211 956.4223,-198.5249 957.4589,-209.0689 963.808,-206.1211"/>
</g>
<!-- Node27&#45;&gt;Node25 -->
<g id="edge38" class="edge">
<title>Node27&#45;&gt;Node25</title>
<path fill="none" stroke="#191970" d="M1021.5929,-291.2455C1037.379,-282.4928 1060.7639,-269.527 1078.7587,-259.5496"/>
<polygon fill="#191970" stroke="#191970" points="1080.5603,-262.5528 1087.6087,-254.6427 1077.1659,-256.4308 1080.5603,-262.5528"/>
</g>
<!-- Node28&#45;&gt;Node19 -->
<g id="edge42" class="edge">
<title>Node28&#45;&gt;Node19</title>
<path fill="none" stroke="#191970" d="M1538,-179.4248C1538,-151.999 1538,-72.732 1538,-35.3964"/>
<polygon fill="#191970" stroke="#191970" points="1541.5001,-35.2595 1538,-25.2595 1534.5001,-35.2596 1541.5001,-35.2595"/>
</g>
<!-- Node29&#45;&gt;Node3 -->
<g id="edge44" class="edge">
<title>Node29&#45;&gt;Node3</title>
<path fill="none" stroke="#191970" d="M1296.6317,-347.2455C1309.3994,-338.7337 1328.1438,-326.2375 1342.9299,-316.3801"/>
<polygon fill="#191970" stroke="#191970" points="1345.1569,-319.1019 1351.536,-310.6427 1341.274,-313.2775 1345.1569,-319.1019"/>
</g>
<!-- Node29&#45;&gt;Node7 -->
<g id="edge45" class="edge">
<title>Node29&#45;&gt;Node7</title>
<path fill="none" stroke="#191970" d="M1281.7725,-347.2561C1280.6824,-318.9331 1274.3805,-235.0826 1238,-179 1229.8326,-166.4094 1217.0184,-155.8133 1205.416,-147.9762"/>
<polygon fill="#191970" stroke="#191970" points="1207.1908,-144.9569 1196.8769,-142.5336 1203.4284,-150.8599 1207.1908,-144.9569"/>
</g>
<!-- Node29&#45;&gt;Node20 -->
<g id="edge46" class="edge">
<title>Node29&#45;&gt;Node20</title>
<path fill="none" stroke="#191970" d="M1211.763,-349.9642C1120.9191,-340.4552 971.5939,-323.2802 949,-311 928.7308,-299.9833 912.3967,-278.6987 902.4941,-263.2724"/>
<polygon fill="#191970" stroke="#191970" points="905.3791,-261.2809 897.1819,-254.5686 899.4041,-264.9277 905.3791,-261.2809"/>
</g>
<!-- Node31&#45;&gt;Node1 -->
<g id="edge57" class="edge">
<title>Node31&#45;&gt;Node1</title>
<path fill="none" stroke="#191970" d="M1284.4275,-459.4369C1232.091,-449.7321 1151.068,-434.708 1095.4388,-424.3926"/>
<polygon fill="#191970" stroke="#191970" points="1095.8303,-420.9056 1085.3598,-422.5237 1094.554,-427.7883 1095.8303,-420.9056"/>
</g>
<!-- Node31&#45;&gt;Node3 -->
<g id="edge53" class="edge">
<title>Node31&#45;&gt;Node3</title>
<path fill="none" stroke="#191970" d="M1392.2391,-464.1988C1451.5963,-458.0295 1539.9729,-445.3529 1565,-423 1584.4982,-405.5852 1578.9511,-392.8276 1583,-367 1584.3767,-358.2184 1588.5959,-353.9064 1583,-347 1560.3282,-319.0184 1454.9575,-307.3699 1399.8273,-303.1244"/>
<polygon fill="#191970" stroke="#191970" points="1399.7388,-299.6087 1389.5106,-302.3714 1399.2292,-306.5902 1399.7388,-299.6087"/>
</g>
<!-- Node31&#45;&gt;Node5 -->
<g id="edge54" class="edge">
<title>Node31&#45;&gt;Node5</title>
<path fill="none" stroke="#191970" d="M1392.1353,-464.2443C1447.6237,-458.2861 1527.0388,-445.9491 1547,-423 1557.8172,-410.5636 1558.0823,-391.3435 1556.2241,-376.8458"/>
<polygon fill="#191970" stroke="#191970" points="1559.6549,-376.1427 1554.5288,-366.8705 1552.7538,-377.3156 1559.6549,-376.1427"/>
</g>
<!-- Node32 -->
<g id="node33" class="node">
<title>Node32</title>
<polygon fill="none" stroke="#bfbfbf" points="1632,-403.5 1632,-422.5 1676,-422.5 1676,-403.5 1632,-403.5"/>
<text text-anchor="middle" x="1654" y="-410.5" font-family="Helvetica,sans-Serif" font-size="10.00" fill="#000000">Vc/Vc</text>
</g>
<!-- Node31&#45;&gt;Node32 -->
<g id="edge51" class="edge">
<title>Node31&#45;&gt;Node32</title>
<path fill="none" stroke="#191970" d="M1392.2555,-461.6691C1449.4209,-453.7883 1540.36,-440.0622 1618,-423 1619.2473,-422.7259 1620.5157,-422.4348 1621.7945,-422.131"/>
<polygon fill="#191970" stroke="#191970" points="1622.802,-425.4861 1631.6263,-419.6224 1621.0714,-418.7034 1622.802,-425.4861"/>
</g>
<!-- Node33 -->
<g id="node34" class="node">
<title>Node33</title>
<polygon fill="none" stroke="#bfbfbf" points="1106,-403.5 1106,-422.5 1164,-422.5 1164,-403.5 1106,-403.5"/>
<text text-anchor="middle" x="1135" y="-410.5" font-family="Helvetica,sans-Serif" font-size="10.00" fill="#000000">memory</text>
</g>
<!-- Node31&#45;&gt;Node33 -->
<g id="edge52" class="edge">
<title>Node31&#45;&gt;Node33</title>
<path fill="none" stroke="#191970" d="M1301.4469,-459.3733C1266.0506,-449.5116 1211.1139,-434.2059 1174.1353,-423.9034"/>
<polygon fill="#191970" stroke="#191970" points="1174.7853,-420.4512 1164.2129,-421.1389 1172.9066,-427.1944 1174.7853,-420.4512"/>
</g>
<!-- Node34 -->
<g id="node35" class="node">
<title>Node34</title>
<polygon fill="none" stroke="#bfbfbf" points="1182,-403.5 1182,-422.5 1238,-422.5 1238,-403.5 1182,-403.5"/>
<text text-anchor="middle" x="1210" y="-410.5" font-family="Helvetica,sans-Serif" font-size="10.00" fill="#000000">numeric</text>
</g>
<!-- Node31&#45;&gt;Node34 -->
<g id="edge55" class="edge">
<title>Node31&#45;&gt;Node34</title>
<path fill="none" stroke="#191970" d="M1314.3398,-459.3733C1294.0228,-450.3435 1263.436,-436.7494 1240.625,-426.6111"/>
<polygon fill="#191970" stroke="#191970" points="1241.9372,-423.3642 1231.3775,-422.5011 1239.0941,-429.7609 1241.9372,-423.3642"/>
</g>
<!-- Node35 -->
<g id="node36" class="node">
<title>Node35</title>
<polygon fill="none" stroke="#bfbfbf" points="1256.5,-403.5 1256.5,-422.5 1325.5,-422.5 1325.5,-403.5 1256.5,-403.5"/>
<text text-anchor="middle" x="1291" y="-410.5" font-family="Helvetica,sans-Serif" font-size="10.00" fill="#000000">type_traits</text>
</g>
<!-- Node31&#45;&gt;Node35 -->
<g id="edge56" class="edge">
<title>Node31&#45;&gt;Node35</title>
<path fill="none" stroke="#191970" d="M1328.1616,-459.2455C1321.838,-451.3761 1312.7776,-440.101 1305.1864,-430.6542"/>
<polygon fill="#191970" stroke="#191970" points="1307.7408,-428.2454 1298.7486,-422.6427 1302.2842,-432.6302 1307.7408,-428.2454"/>
</g>
<!-- Node36 -->
<g id="node37" class="node">
<title>Node36</title>
<polygon fill="none" stroke="#bfbfbf" points="1343.5,-403.5 1343.5,-422.5 1418.5,-422.5 1418.5,-403.5 1343.5,-403.5"/>
<text text-anchor="middle" x="1381" y="-410.5" font-family="Helvetica,sans-Serif" font-size="10.00" fill="#000000">FairLogger.h</text>
</g>
<!-- Node31&#45;&gt;Node36 -->
<g id="edge58" class="edge">
<title>Node31&#45;&gt;Node36</title>
<path fill="none" stroke="#191970" d="M1343.8384,-459.2455C1350.162,-451.3761 1359.2224,-440.101 1366.8136,-430.6542"/>
<polygon fill="#191970" stroke="#191970" points="1369.7158,-432.6302 1373.2514,-422.6427 1364.2592,-428.2454 1369.7158,-432.6302"/>
</g>
<!-- Node37 -->
<g id="node38" class="node">
<title>Node37</title>
<polygon fill="none" stroke="#bfbfbf" points="1436.5,-403.5 1436.5,-422.5 1537.5,-422.5 1537.5,-403.5 1436.5,-403.5"/>
<text text-anchor="middle" x="1487" y="-410.5" font-family="Helvetica,sans-Serif" font-size="10.00" fill="#000000">boost/format.hpp</text>
</g>
<!-- Node31&#45;&gt;Node37 -->
<g id="edge59" class="edge">
<title>Node31&#45;&gt;Node37</title>
<path fill="none" stroke="#191970" d="M1361.9578,-459.3733C1386.7407,-450.1822 1424.2746,-436.2624 1451.754,-426.0713"/>
<polygon fill="#191970" stroke="#191970" points="1453.2219,-429.26 1461.3809,-422.5011 1450.7879,-422.6968 1453.2219,-429.26"/>
</g>
</g>
</svg>
