<?xml version="1.0" encoding="UTF-8" standalone="no"?>
<!DOCTYPE svg PUBLIC "-//W3C//DTD SVG 1.1//EN"
 "http://www.w3.org/Graphics/SVG/1.1/DTD/svg11.dtd">
<!-- Generated by graphviz version 2.40.1 (20161225.0304)
 -->
<!-- Title: /home/travis/build/AliceO2Group/AliceO2/Common/Field/include/Field/MagFieldFact.h Pages: 1 -->
<svg width="2155pt" height="352pt"
 viewBox="0.00 0.00 2155.00 352.00" xmlns="http://www.w3.org/2000/svg" xmlns:xlink="http://www.w3.org/1999/xlink">
<g id="graph0" class="graph" transform="scale(1 1) rotate(0) translate(4 348)">
<title>/home/travis/build/AliceO2Group/AliceO2/Common/Field/include/Field/MagFieldFact.h</title>
<!-- Node0 -->
<g id="node1" class="node">
<title>Node0</title>
<polygon fill="#bfbfbf" stroke="#000000" points="522.5,-291.5 522.5,-343.5 650.5,-343.5 650.5,-291.5 522.5,-291.5"/>
<text text-anchor="start" x="530.5" y="-331.5" font-family="Helvetica,sans-Serif" font-size="10.00" fill="#000000">/home/travis/build</text>
<text text-anchor="start" x="530.5" y="-320.5" font-family="Helvetica,sans-Serif" font-size="10.00" fill="#000000">/AliceO2Group/AliceO2</text>
<text text-anchor="start" x="530.5" y="-309.5" font-family="Helvetica,sans-Serif" font-size="10.00" fill="#000000">/Common/Field/include</text>
<text text-anchor="middle" x="586.5" y="-298.5" font-family="Helvetica,sans-Serif" font-size="10.00" fill="#000000">/Field/MagFieldFact.h</text>
</g>
<!-- Node1 -->
<g id="node2" class="node">
<title>Node1</title>
<polygon fill="none" stroke="#bfbfbf" points="474,-235.5 474,-254.5 573,-254.5 573,-235.5 474,-235.5"/>
<text text-anchor="middle" x="523.5" y="-242.5" font-family="Helvetica,sans-Serif" font-size="10.00" fill="#000000">FairFieldFactory.h</text>
</g>
<!-- Node0&#45;&gt;Node1 -->
<g id="edge1" class="edge">
<title>Node0&#45;&gt;Node1</title>
<path fill="none" stroke="#191970" d="M563.7556,-291.3258C555.3154,-281.613 545.9643,-270.8518 538.4007,-262.1476"/>
<polygon fill="#191970" stroke="#191970" points="540.9859,-259.7866 531.7847,-254.534 535.7021,-264.3781 540.9859,-259.7866"/>
</g>
<!-- Node2 -->
<g id="node3" class="node">
<title>Node2</title>
<g id="a_node3"><a xlink:href="../../db/d4b/MagneticField_8h.html" target="_top" xlink:title="Definition of the MagF class. ">
<polygon fill="none" stroke="#000000" points="591.5,-235.5 591.5,-254.5 709.5,-254.5 709.5,-235.5 591.5,-235.5"/>
<text text-anchor="middle" x="650.5" y="-242.5" font-family="Helvetica,sans-Serif" font-size="10.00" fill="#000000">Field/MagneticField.h</text>
</a>
</g>
</g>
<!-- Node0&#45;&gt;Node2 -->
<g id="edge2" class="edge">
<title>Node0&#45;&gt;Node2</title>
<path fill="none" stroke="#191970" d="M609.6055,-291.3258C618.1796,-281.613 627.6791,-270.8518 635.3628,-262.1476"/>
<polygon fill="#191970" stroke="#191970" points="638.0897,-264.3472 642.0838,-254.534 632.8419,-259.7146 638.0897,-264.3472"/>
</g>
<!-- Node3 -->
<g id="node4" class="node">
<title>Node3</title>
<polygon fill="none" stroke="#bfbfbf" points="0,-179.5 0,-198.5 65,-198.5 65,-179.5 0,-179.5"/>
<text text-anchor="middle" x="32.5" y="-186.5" font-family="Helvetica,sans-Serif" font-size="10.00" fill="#000000">FairField.h</text>
</g>
<!-- Node2&#45;&gt;Node3 -->
<g id="edge3" class="edge">
<title>Node2&#45;&gt;Node3</title>
<path fill="none" stroke="#191970" d="M591.4406,-236.154C588.0806,-235.7401 584.7492,-235.3515 581.5,-235 359.1133,-210.9429 300.9763,-230.3498 79.5,-199 78.0287,-198.7917 76.5346,-198.564 75.028,-198.3206"/>
<polygon fill="#191970" stroke="#191970" points="75.4731,-194.8447 65.0124,-196.5254 74.238,-201.7349 75.4731,-194.8447"/>
</g>
<!-- Node4 -->
<g id="node5" class="node">
<title>Node4</title>
<g id="a_node5"><a xlink:href="../../d3/d91/MagFieldParam_8h.html" target="_top" xlink:title="Definition of the MagFieldParam: container for ALICE mag. field parameters. ">
<polygon fill="none" stroke="#000000" points="199,-179.5 199,-198.5 324,-198.5 324,-179.5 199,-179.5"/>
<text text-anchor="middle" x="261.5" y="-186.5" font-family="Helvetica,sans-Serif" font-size="10.00" fill="#000000">Field/MagFieldParam.h</text>
</a>
</g>
</g>
<!-- Node2&#45;&gt;Node4 -->
<g id="edge4" class="edge">
<title>Node2&#45;&gt;Node4</title>
<path fill="none" stroke="#191970" d="M591.4056,-236.431C588.0545,-235.9465 584.7346,-235.4669 581.5,-235 496.6047,-222.7463 399.03,-208.7296 334.1686,-199.4218"/>
<polygon fill="#191970" stroke="#191970" points="334.4424,-195.9253 324.0466,-197.9693 333.4481,-202.8543 334.4424,-195.9253"/>
</g>
<!-- Node7 -->
<g id="node8" class="node">
<title>Node7</title>
<g id="a_node8"><a xlink:href="../../dd/dfb/MagneticWrapperChebyshev_8h.html" target="_top" xlink:title="Field/MagneticWrapperChebyshev.h">
<polygon fill="none" stroke="#000000" points="490,-179.5 490,-198.5 679,-198.5 679,-179.5 490,-179.5"/>
<text text-anchor="middle" x="584.5" y="-186.5" font-family="Helvetica,sans-Serif" font-size="10.00" fill="#000000">Field/MagneticWrapperChebyshev.h</text>
</a>
</g>
</g>
<!-- Node2&#45;&gt;Node7 -->
<g id="edge7" class="edge">
<title>Node2&#45;&gt;Node7</title>
<path fill="none" stroke="#191970" d="M639.0037,-235.2455C629.2558,-226.9746 615.0741,-214.9416 603.6202,-205.2232"/>
<polygon fill="#191970" stroke="#191970" points="605.7541,-202.4437 595.8646,-198.6427 601.2253,-207.7813 605.7541,-202.4437"/>
</g>
<!-- Node9 -->
<g id="node10" class="node">
<title>Node9</title>
<polygon fill="none" stroke="#bfbfbf" points="199,-6 199,-25 266,-25 266,-6 199,-6"/>
<text text-anchor="middle" x="232.5" y="-13" font-family="Helvetica,sans-Serif" font-size="10.00" fill="#000000">TNamed.h</text>
</g>
<!-- Node2&#45;&gt;Node9 -->
<g id="edge39" class="edge">
<title>Node2&#45;&gt;Node9</title>
<path fill="none" stroke="#191970" d="M591.4318,-236.2319C588.074,-235.7981 584.7455,-235.3839 581.5,-235 407.7562,-214.4461 353.2286,-260.6631 189.5,-199 144.5013,-182.0527 92.8868,-166.9024 112.5,-123 131.4423,-80.5993 176.2897,-47.9797 205.4726,-30.2889"/>
<polygon fill="#191970" stroke="#191970" points="207.4955,-33.1598 214.3444,-25.0762 203.9494,-27.1244 207.4955,-33.1598"/>
</g>
<!-- Node14 -->
<g id="node15" class="node">
<title>Node14</title>
<polygon fill="none" stroke="#bfbfbf" points="584,-6 584,-25 643,-25 643,-6 584,-6"/>
<text text-anchor="middle" x="613.5" y="-13" font-family="Helvetica,sans-Serif" font-size="10.00" fill="#000000">Rtypes.h</text>
</g>
<!-- Node2&#45;&gt;Node14 -->
<g id="edge38" class="edge">
<title>Node2&#45;&gt;Node14</title>
<path fill="none" stroke="#191970" d="M661.6502,-235.3293C670.5671,-226.8007 682.3921,-213.5 687.5,-199 699.2711,-165.5846 720.1621,-153.8708 673.5,-67 665.5303,-52.1629 651.4188,-39.7186 638.8829,-30.7815"/>
<polygon fill="#191970" stroke="#191970" points="640.7998,-27.8527 630.5507,-25.1682 636.8887,-33.6582 640.7998,-27.8527"/>
</g>
<!-- Node15 -->
<g id="node16" class="node">
<title>Node15</title>
<g id="a_node16"><a xlink:href="../../da/df4/MagFieldFast_8h.html" target="_top" xlink:title="Definition of the fast magnetic field parametrization MagFieldFast. ">
<polygon fill="none" stroke="#000000" points="747,-123.5 747,-142.5 860,-142.5 860,-123.5 747,-123.5"/>
<text text-anchor="middle" x="803.5" y="-130.5" font-family="Helvetica,sans-Serif" font-size="10.00" fill="#000000">Field/MagFieldFast.h</text>
</a>
</g>
</g>
<!-- Node2&#45;&gt;Node15 -->
<g id="edge23" class="edge">
<title>Node2&#45;&gt;Node15</title>
<path fill="none" stroke="#191970" d="M669.6283,-235.4814C686.2911,-226.8491 710.8006,-213.3166 730.5,-199 751.2575,-183.9144 772.7846,-163.8133 787.034,-149.7739"/>
<polygon fill="#191970" stroke="#191970" points="789.5471,-152.2106 794.1505,-142.6681 784.6011,-147.2571 789.5471,-152.2106"/>
</g>
<!-- Node27 -->
<g id="node28" class="node">
<title>Node27</title>
<polygon fill="none" stroke="#bfbfbf" points="782.5,-179.5 782.5,-198.5 850.5,-198.5 850.5,-179.5 782.5,-179.5"/>
<text text-anchor="middle" x="816.5" y="-186.5" font-family="Helvetica,sans-Serif" font-size="10.00" fill="#000000">TSystem.h</text>
</g>
<!-- Node2&#45;&gt;Node27 -->
<g id="edge37" class="edge">
<title>Node2&#45;&gt;Node27</title>
<path fill="none" stroke="#191970" d="M679.0364,-235.3733C706.5202,-226.1016 748.2686,-212.0178 778.5452,-201.804"/>
<polygon fill="#191970" stroke="#191970" points="779.9794,-205.0141 788.336,-198.5011 777.7418,-198.3813 779.9794,-205.0141"/>
</g>
<!-- Node28 -->
<g id="node29" class="node">
<title>Node28</title>
<polygon fill="none" stroke="#bfbfbf" points="868.5,-179.5 868.5,-198.5 926.5,-198.5 926.5,-179.5 868.5,-179.5"/>
<text text-anchor="middle" x="897.5" y="-186.5" font-family="Helvetica,sans-Serif" font-size="10.00" fill="#000000">memory</text>
</g>
<!-- Node2&#45;&gt;Node28 -->
<g id="edge40" class="edge">
<title>Node2&#45;&gt;Node28</title>
<path fill="none" stroke="#191970" d="M696.2862,-235.4827C736.5577,-226.9858 796.9975,-213.9298 858.5921,-199.1517"/>
<polygon fill="#191970" stroke="#191970" points="859.5841,-202.5128 868.4846,-196.7655 857.9427,-195.708 859.5841,-202.5128"/>
</g>
<!-- Node5 -->
<g id="node6" class="node">
<title>Node5</title>
<polygon fill="none" stroke="#bfbfbf" points="122,-123.5 122,-142.5 233,-142.5 233,-123.5 122,-123.5"/>
<text text-anchor="middle" x="177.5" y="-130.5" font-family="Helvetica,sans-Serif" font-size="10.00" fill="#000000">FairParGenericSet.h</text>
</g>
<!-- Node4&#45;&gt;Node5 -->
<g id="edge5" class="edge">
<title>Node4&#45;&gt;Node5</title>
<path fill="none" stroke="#191970" d="M246.8683,-179.2455C234.1006,-170.7337 215.3562,-158.2375 200.5701,-148.3801"/>
<polygon fill="#191970" stroke="#191970" points="202.226,-145.2775 191.964,-142.6427 198.3431,-151.1019 202.226,-145.2775"/>
</g>
<!-- Node6 -->
<g id="node7" class="node">
<title>Node6</title>
<polygon fill="none" stroke="#bfbfbf" points="202.5,-67.5 202.5,-86.5 262.5,-86.5 262.5,-67.5 202.5,-67.5"/>
<text text-anchor="middle" x="232.5" y="-74.5" font-family="Helvetica,sans-Serif" font-size="10.00" fill="#000000">TString.h</text>
</g>
<!-- Node4&#45;&gt;Node6 -->
<g id="edge6" class="edge">
<title>Node4&#45;&gt;Node6</title>
<path fill="none" stroke="#191970" d="M259.0275,-179.4509C254.2762,-161.1013 243.7869,-120.5908 237.5153,-96.3693"/>
<polygon fill="#191970" stroke="#191970" points="240.8612,-95.3283 234.9663,-86.5249 234.0847,-97.083 240.8612,-95.3283"/>
</g>
<!-- Node8 -->
<g id="node9" class="node">
<title>Node8</title>
<polygon fill="none" stroke="#bfbfbf" points="556.5,-123.5 556.5,-142.5 612.5,-142.5 612.5,-123.5 556.5,-123.5"/>
<text text-anchor="middle" x="584.5" y="-130.5" font-family="Helvetica,sans-Serif" font-size="10.00" fill="#000000">TMath.h</text>
</g>
<!-- Node7&#45;&gt;Node8 -->
<g id="edge8" class="edge">
<title>Node7&#45;&gt;Node8</title>
<path fill="none" stroke="#191970" d="M584.5,-179.2455C584.5,-171.9382 584.5,-161.6944 584.5,-152.7046"/>
<polygon fill="#191970" stroke="#191970" points="588.0001,-152.6426 584.5,-142.6427 581.0001,-152.6427 588.0001,-152.6426"/>
</g>
<!-- Node7&#45;&gt;Node9 -->
<g id="edge9" class="edge">
<title>Node7&#45;&gt;Node9</title>
<path fill="none" stroke="#191970" d="M501.4686,-179.4711C397.8675,-165.6397 229.8501,-136.1375 193.5,-87 180.5387,-69.4791 197.3225,-47.1374 212.7319,-32.1312"/>
<polygon fill="#191970" stroke="#191970" points="215.4892,-34.352 220.5,-25.017 210.7615,-29.1898 215.4892,-34.352"/>
</g>
<!-- Node10 -->
<g id="node11" class="node">
<title>Node10</title>
<polygon fill="none" stroke="#bfbfbf" points="577,-67.5 577,-86.5 650,-86.5 650,-67.5 577,-67.5"/>
<text text-anchor="middle" x="613.5" y="-74.5" font-family="Helvetica,sans-Serif" font-size="10.00" fill="#000000">TObjArray.h</text>
</g>
<!-- Node7&#45;&gt;Node10 -->
<g id="edge10" class="edge">
<title>Node7&#45;&gt;Node10</title>
<path fill="none" stroke="#191970" d="M595.6502,-179.3293C604.5671,-170.8007 616.3921,-157.5 621.5,-143 626.8258,-127.8814 624.019,-109.7431 620.3359,-96.3105"/>
<polygon fill="#191970" stroke="#191970" points="623.6547,-95.1963 617.3329,-86.6943 616.973,-97.283 623.6547,-95.1963"/>
</g>
<!-- Node11 -->
<g id="node12" class="node">
<title>Node11</title>
<g id="a_node12"><a xlink:href="../../d8/d64/Chebyshev3D_8h.html" target="_top" xlink:title="MathUtils/Chebyshev3D.h">
<polygon fill="none" stroke="#000000" points="395,-123.5 395,-142.5 538,-142.5 538,-123.5 395,-123.5"/>
<text text-anchor="middle" x="466.5" y="-130.5" font-family="Helvetica,sans-Serif" font-size="10.00" fill="#000000">MathUtils/Chebyshev3D.h</text>
</a>
</g>
</g>
<!-- Node7&#45;&gt;Node11 -->
<g id="edge11" class="edge">
<title>Node7&#45;&gt;Node11</title>
<path fill="none" stroke="#191970" d="M564.2151,-179.3733C545.3579,-170.4241 517.054,-156.9917 495.7545,-146.8835"/>
<polygon fill="#191970" stroke="#191970" points="497.0551,-143.6266 486.5202,-142.5011 494.0539,-149.9506 497.0551,-143.6266"/>
</g>
<!-- Node13 -->
<g id="node14" class="node">
<title>Node13</title>
<g id="a_node14"><a xlink:href="../../d4/d08/Chebyshev3DCalc_8h.html" target="_top" xlink:title="MathUtils/Chebyshev3DCalc.h">
<polygon fill="none" stroke="#000000" points="318.5,-67.5 318.5,-86.5 482.5,-86.5 482.5,-67.5 318.5,-67.5"/>
<text text-anchor="middle" x="400.5" y="-74.5" font-family="Helvetica,sans-Serif" font-size="10.00" fill="#000000">MathUtils/Chebyshev3DCalc.h</text>
</a>
</g>
</g>
<!-- Node7&#45;&gt;Node13 -->
<g id="edge21" class="edge">
<title>Node7&#45;&gt;Node13</title>
<path fill="none" stroke="#191970" d="M496.6764,-179.4866C450.1545,-172.4419 399.7354,-160.9013 385.5,-143 374.8038,-129.5493 381.2244,-109.9266 388.6955,-95.5738"/>
<polygon fill="#191970" stroke="#191970" points="391.8927,-97.0345 393.8381,-86.6198 385.8226,-93.5482 391.8927,-97.0345"/>
</g>
<!-- Node7&#45;&gt;Node14 -->
<g id="edge22" class="edge">
<title>Node7&#45;&gt;Node14</title>
<path fill="none" stroke="#191970" d="M599.3448,-179.2527C611.1027,-170.8678 627.2089,-157.8069 637.5,-143 652.6704,-121.1728 653.7572,-113.1548 658.5,-87 660.086,-78.2537 661.6236,-75.322 658.5,-67 653.4801,-53.6259 643.2394,-41.4478 633.7938,-32.2954"/>
<polygon fill="#191970" stroke="#191970" points="635.9285,-29.5055 626.1787,-25.3593 631.2148,-34.6806 635.9285,-29.5055"/>
</g>
<!-- Node11&#45;&gt;Node6 -->
<g id="edge20" class="edge">
<title>Node11&#45;&gt;Node6</title>
<path fill="none" stroke="#191970" d="M426.5398,-123.4369C383.5188,-113.1413 315.4815,-96.8588 272.4604,-86.5632"/>
<polygon fill="#191970" stroke="#191970" points="273.1617,-83.1322 262.6217,-84.2086 271.5324,-89.94 273.1617,-83.1322"/>
</g>
<!-- Node11&#45;&gt;Node9 -->
<g id="edge12" class="edge">
<title>Node11&#45;&gt;Node9</title>
<path fill="none" stroke="#191970" d="M411.7072,-123.4701C380.3596,-116.4601 341.1096,-104.9601 309.5,-87 284.6476,-72.8792 261.372,-49.2588 247.0531,-33.0573"/>
<polygon fill="#191970" stroke="#191970" points="249.5967,-30.6474 240.4208,-25.3509 244.291,-35.2135 249.5967,-30.6474"/>
</g>
<!-- Node11&#45;&gt;Node10 -->
<g id="edge13" class="edge">
<title>Node11&#45;&gt;Node10</title>
<path fill="none" stroke="#191970" d="M491.7702,-123.3733C515.8966,-114.1822 552.4362,-100.2624 579.1877,-90.0713"/>
<polygon fill="#191970" stroke="#191970" points="580.4607,-93.3318 588.5596,-86.5011 577.9687,-86.7904 580.4607,-93.3318"/>
</g>
<!-- Node12 -->
<g id="node13" class="node">
<title>Node12</title>
<polygon fill="none" stroke="#bfbfbf" points="415.5,-6 415.5,-25 461.5,-25 461.5,-6 415.5,-6"/>
<text text-anchor="middle" x="438.5" y="-13" font-family="Helvetica,sans-Serif" font-size="10.00" fill="#000000">cstdio</text>
</g>
<!-- Node11&#45;&gt;Node12 -->
<g id="edge14" class="edge">
<title>Node11&#45;&gt;Node12</title>
<path fill="none" stroke="#191970" d="M475.1065,-123.0678C485.2678,-110.0709 499.7999,-86.638 491.5,-67 485.4501,-52.6858 473.2603,-40.3878 462.095,-31.4027"/>
<polygon fill="#191970" stroke="#191970" points="463.9656,-28.4295 453.8753,-25.1989 459.7486,-34.0168 463.9656,-28.4295"/>
</g>
<!-- Node11&#45;&gt;Node13 -->
<g id="edge15" class="edge">
<title>Node11&#45;&gt;Node13</title>
<path fill="none" stroke="#191970" d="M455.0037,-123.2455C445.2558,-114.9746 431.0741,-102.9416 419.6202,-93.2232"/>
<polygon fill="#191970" stroke="#191970" points="421.7541,-90.4437 411.8646,-86.6427 417.2253,-95.7813 421.7541,-90.4437"/>
</g>
<!-- Node11&#45;&gt;Node14 -->
<g id="edge19" class="edge">
<title>Node11&#45;&gt;Node14</title>
<path fill="none" stroke="#191970" d="M478.5296,-123.3845C503.7259,-103.2446 562.2752,-56.445 593.326,-31.6255"/>
<polygon fill="#191970" stroke="#191970" points="595.6782,-34.2261 601.3042,-25.2484 591.3075,-28.7582 595.6782,-34.2261"/>
</g>
<!-- Node13&#45;&gt;Node9 -->
<g id="edge16" class="edge">
<title>Node13&#45;&gt;Node9</title>
<path fill="none" stroke="#191970" d="M374.25,-67.3906C345.7707,-56.9652 300.1257,-40.2559 268.3543,-28.6252"/>
<polygon fill="#191970" stroke="#191970" points="269.1594,-25.1929 258.5657,-25.0419 266.7531,-31.7663 269.1594,-25.1929"/>
</g>
<!-- Node13&#45;&gt;Node12 -->
<g id="edge17" class="edge">
<title>Node13&#45;&gt;Node12</title>
<path fill="none" stroke="#191970" d="M406.4375,-67.3906C411.9267,-58.5068 420.2353,-45.0601 427.019,-34.0811"/>
<polygon fill="#191970" stroke="#191970" points="430.1998,-35.5917 432.4788,-25.2449 424.2449,-31.9122 430.1998,-35.5917"/>
</g>
<!-- Node13&#45;&gt;Node14 -->
<g id="edge18" class="edge">
<title>Node13&#45;&gt;Node14</title>
<path fill="none" stroke="#191970" d="M433.7813,-67.3906C471.7492,-56.4281 533.7808,-38.5175 574.1222,-26.8697"/>
<polygon fill="#191970" stroke="#191970" points="575.2466,-30.188 583.8833,-24.0513 573.3048,-23.4628 575.2466,-30.188"/>
</g>
<!-- Node15&#45;&gt;Node14 -->
<g id="edge24" class="edge">
<title>Node15&#45;&gt;Node14</title>
<path fill="none" stroke="#191970" d="M794.843,-123.4243C781.9152,-109.5578 756.3107,-83.7216 730.5,-67 716.0667,-57.6493 676.2285,-40.7455 647.0351,-28.8609"/>
<polygon fill="#191970" stroke="#191970" points="648.1776,-25.5476 637.5949,-25.041 645.5519,-32.0365 648.1776,-25.5476"/>
</g>
<!-- Node16 -->
<g id="node17" class="node">
<title>Node16</title>
<polygon fill="none" stroke="#bfbfbf" points="782.5,-67.5 782.5,-86.5 826.5,-86.5 826.5,-67.5 782.5,-67.5"/>
<text text-anchor="middle" x="804.5" y="-74.5" font-family="Helvetica,sans-Serif" font-size="10.00" fill="#000000">string</text>
</g>
<!-- Node15&#45;&gt;Node16 -->
<g id="edge25" class="edge">
<title>Node15&#45;&gt;Node16</title>
<path fill="none" stroke="#191970" d="M803.6742,-123.2455C803.8047,-115.9382 803.9876,-105.6944 804.1481,-96.7046"/>
<polygon fill="#191970" stroke="#191970" points="807.6486,-96.7036 804.3278,-86.6427 800.6497,-96.5786 807.6486,-96.7036"/>
</g>
<!-- Node17 -->
<g id="node18" class="node">
<title>Node17</title>
<g id="a_node18"><a xlink:href="../../dc/d73/Cartesian_8h.html" target="_top" xlink:title="MathUtils/Cartesian.h">
<polygon fill="none" stroke="#000000" points="1252.5,-67.5 1252.5,-86.5 1374.5,-86.5 1374.5,-67.5 1252.5,-67.5"/>
<text text-anchor="middle" x="1313.5" y="-74.5" font-family="Helvetica,sans-Serif" font-size="10.00" fill="#000000">MathUtils/Cartesian.h</text>
</a>
</g>
</g>
<!-- Node15&#45;&gt;Node17 -->
<g id="edge26" class="edge">
<title>Node15&#45;&gt;Node17</title>
<path fill="none" stroke="#191970" d="M860.0275,-126.7931C953.426,-116.5375 1139.7889,-96.0742 1242.1285,-84.8369"/>
<polygon fill="#191970" stroke="#191970" points="1242.8099,-88.2832 1252.3681,-83.7125 1242.0458,-81.325 1242.8099,-88.2832"/>
</g>
<!-- Node17&#45;&gt;Node14 -->
<g id="edge34" class="edge">
<title>Node17&#45;&gt;Node14</title>
<path fill="none" stroke="#191970" d="M1252.2723,-75.1492C1110.9875,-70.489 765.6449,-56.7636 652.5,-31 649.6361,-30.3479 646.7072,-29.5168 643.8046,-28.5793"/>
<polygon fill="#191970" stroke="#191970" points="644.7648,-25.2046 634.1706,-25.0871 642.3793,-31.7856 644.7648,-25.2046"/>
</g>
<!-- Node18 -->
<g id="node19" class="node">
<title>Node18</title>
<polygon fill="none" stroke="#bfbfbf" points="661.5,-.5 661.5,-30.5 825.5,-30.5 825.5,-.5 661.5,-.5"/>
<text text-anchor="start" x="669.5" y="-18.5" font-family="Helvetica,sans-Serif" font-size="10.00" fill="#000000">Math/GenVector/Displacement</text>
<text text-anchor="middle" x="743.5" y="-7.5" font-family="Helvetica,sans-Serif" font-size="10.00" fill="#000000">Vector3D.h</text>
</g>
<!-- Node17&#45;&gt;Node18 -->
<g id="edge27" class="edge">
<title>Node17&#45;&gt;Node18</title>
<path fill="none" stroke="#191970" d="M1252.4689,-72.5733C1163.245,-65.7845 991.7548,-51.5374 836.0323,-31.1467"/>
<polygon fill="#191970" stroke="#191970" points="836.1713,-27.6347 825.799,-29.7947 835.2544,-34.5744 836.1713,-27.6347"/>
</g>
<!-- Node19 -->
<g id="node20" class="node">
<title>Node19</title>
<polygon fill="none" stroke="#bfbfbf" points="844,-6 844,-25 1033,-25 1033,-6 844,-6"/>
<text text-anchor="middle" x="938.5" y="-13" font-family="Helvetica,sans-Serif" font-size="10.00" fill="#000000">Math/GenVector/PositionVector3D.h</text>
</g>
<!-- Node17&#45;&gt;Node19 -->
<g id="edge28" class="edge">
<title>Node17&#45;&gt;Node19</title>
<path fill="none" stroke="#191970" d="M1255.3177,-67.4581C1188.1602,-56.4443 1077.8479,-38.3531 1006.7117,-26.6867"/>
<polygon fill="#191970" stroke="#191970" points="1006.9449,-23.1783 996.5102,-25.0137 1005.812,-30.086 1006.9449,-23.1783"/>
</g>
<!-- Node20 -->
<g id="node21" class="node">
<title>Node20</title>
<polygon fill="none" stroke="#bfbfbf" points="1051.5,-6 1051.5,-25 1211.5,-25 1211.5,-6 1051.5,-6"/>
<text text-anchor="middle" x="1131.5" y="-13" font-family="Helvetica,sans-Serif" font-size="10.00" fill="#000000">Math/GenVector/Rotation3D.h</text>
</g>
<!-- Node17&#45;&gt;Node20 -->
<g id="edge29" class="edge">
<title>Node17&#45;&gt;Node20</title>
<path fill="none" stroke="#191970" d="M1285.0625,-67.3906C1253.9428,-56.8749 1203.9036,-39.966 1169.4515,-28.3243"/>
<polygon fill="#191970" stroke="#191970" points="1170.332,-24.9274 1159.7378,-25.0419 1168.0911,-31.5591 1170.332,-24.9274"/>
</g>
<!-- Node21 -->
<g id="node22" class="node">
<title>Node21</title>
<polygon fill="none" stroke="#bfbfbf" points="1229.5,-6 1229.5,-25 1397.5,-25 1397.5,-6 1229.5,-6"/>
<text text-anchor="middle" x="1313.5" y="-13" font-family="Helvetica,sans-Serif" font-size="10.00" fill="#000000">Math/GenVector/Transform3D.h</text>
</g>
<!-- Node17&#45;&gt;Node21 -->
<g id="edge30" class="edge">
<title>Node17&#45;&gt;Node21</title>
<path fill="none" stroke="#191970" d="M1313.5,-67.3906C1313.5,-58.8657 1313.5,-46.1392 1313.5,-35.4235"/>
<polygon fill="#191970" stroke="#191970" points="1317.0001,-35.2448 1313.5,-25.2449 1310.0001,-35.2449 1317.0001,-35.2448"/>
</g>
<!-- Node22 -->
<g id="node23" class="node">
<title>Node22</title>
<polygon fill="none" stroke="#bfbfbf" points="1416,-6 1416,-25 1589,-25 1589,-6 1416,-6"/>
<text text-anchor="middle" x="1502.5" y="-13" font-family="Helvetica,sans-Serif" font-size="10.00" fill="#000000">Math/GenVector/Translation3D.h</text>
</g>
<!-- Node17&#45;&gt;Node22 -->
<g id="edge31" class="edge">
<title>Node17&#45;&gt;Node22</title>
<path fill="none" stroke="#191970" d="M1343.0313,-67.3906C1375.4866,-56.8298 1427.7581,-39.8208 1463.5486,-28.1747"/>
<polygon fill="#191970" stroke="#191970" points="1464.7499,-31.4645 1473.1761,-25.0419 1462.5839,-24.808 1464.7499,-31.4645"/>
</g>
<!-- Node23 -->
<g id="node24" class="node">
<title>Node23</title>
<polygon fill="none" stroke="#bfbfbf" points="1607.5,-.5 1607.5,-30.5 1771.5,-30.5 1771.5,-.5 1607.5,-.5"/>
<text text-anchor="start" x="1615.5" y="-18.5" font-family="Helvetica,sans-Serif" font-size="10.00" fill="#000000">Math/GenVector/Displacement</text>
<text text-anchor="middle" x="1689.5" y="-7.5" font-family="Helvetica,sans-Serif" font-size="10.00" fill="#000000">Vector2D.h</text>
</g>
<!-- Node17&#45;&gt;Node23 -->
<g id="edge32" class="edge">
<title>Node17&#45;&gt;Node23</title>
<path fill="none" stroke="#191970" d="M1373.5732,-67.4593C1429.0705,-58.61 1514.0938,-44.9636 1597.2934,-31.193"/>
<polygon fill="#191970" stroke="#191970" points="1597.8723,-34.6449 1607.1655,-29.557 1596.7278,-27.739 1597.8723,-34.6449"/>
</g>
<!-- Node24 -->
<g id="node25" class="node">
<title>Node24</title>
<polygon fill="none" stroke="#bfbfbf" points="1790,-6 1790,-25 1979,-25 1979,-6 1790,-6"/>
<text text-anchor="middle" x="1884.5" y="-13" font-family="Helvetica,sans-Serif" font-size="10.00" fill="#000000">Math/GenVector/PositionVector2D.h</text>
</g>
<!-- Node17&#45;&gt;Node24 -->
<g id="edge33" class="edge">
<title>Node17&#45;&gt;Node24</title>
<path fill="none" stroke="#191970" d="M1374.8035,-71.9409C1464.1651,-64.3443 1635.3696,-48.9515 1780.5,-31 1791.3192,-29.6618 1802.7501,-28.1044 1813.9186,-26.503"/>
<polygon fill="#191970" stroke="#191970" points="1814.6848,-29.9284 1824.0766,-25.0249 1813.6768,-23.0014 1814.6848,-29.9284"/>
</g>
<!-- Node25 -->
<g id="node26" class="node">
<title>Node25</title>
<polygon fill="none" stroke="#bfbfbf" points="1997.5,-6 1997.5,-25 2079.5,-25 2079.5,-6 1997.5,-6"/>
<text text-anchor="middle" x="2038.5" y="-13" font-family="Helvetica,sans-Serif" font-size="10.00" fill="#000000">TGeoMatrix.h</text>
</g>
<!-- Node17&#45;&gt;Node25 -->
<g id="edge35" class="edge">
<title>Node17&#45;&gt;Node25</title>
<path fill="none" stroke="#191970" d="M1374.5657,-74.6579C1517.72,-68.8732 1871.6592,-52.7839 1988.5,-31 1992.9419,-30.1718 1997.5445,-29.0807 2002.0776,-27.86"/>
<polygon fill="#191970" stroke="#191970" points="2003.1765,-31.1855 2011.8015,-25.0325 2001.2219,-24.4639 2003.1765,-31.1855"/>
</g>
<!-- Node26 -->
<g id="node27" class="node">
<title>Node26</title>
<polygon fill="none" stroke="#bfbfbf" points="2098,-6 2098,-25 2147,-25 2147,-6 2098,-6"/>
<text text-anchor="middle" x="2122.5" y="-13" font-family="Helvetica,sans-Serif" font-size="10.00" fill="#000000">iosfwd</text>
</g>
<!-- Node17&#45;&gt;Node26 -->
<g id="edge36" class="edge">
<title>Node17&#45;&gt;Node26</title>
<path fill="none" stroke="#191970" d="M1374.6473,-76.2605C1533.0211,-73.8842 1953.6033,-64.5138 2088.5,-31 2090.6996,-30.4535 2092.9321,-29.7675 2095.1475,-28.9902"/>
<polygon fill="#191970" stroke="#191970" points="2096.6511,-32.1572 2104.596,-25.148 2094.0142,-25.6728 2096.6511,-32.1572"/>
</g>
</g>
</svg>
