<?xml version="1.0" encoding="UTF-8" standalone="no"?>
<!DOCTYPE svg PUBLIC "-//W3C//DTD SVG 1.1//EN"
 "http://www.w3.org/Graphics/SVG/1.1/DTD/svg11.dtd">
<!-- Generated by graphviz version 2.40.1 (20161225.0304)
 -->
<!-- Title: /home/travis/build/AliceO2Group/AliceO2/Detectors/TPC/base/test/testTPCBase.cxx Pages: 1 -->
<!--zoomable 296 -->
<svg id="main" version="1.1" xmlns="http://www.w3.org/2000/svg" xmlns:xlink="http://www.w3.org/1999/xlink" xml:space="preserve" onload="init(evt)">
<style type="text/css"><![CDATA[
.edge:hover path { stroke: red; }
.edge:hover polygon { stroke: red; fill: red; }
]]></style>
<script type="text/javascript"><![CDATA[
var edges = document.getElementsByTagName('g');
if (edges && edges.length) {
  for (var i=0;i<edges.length;i++) {
    if (edges[i].id.substr(0,4)=='edge') {
      edges[i].setAttribute('class','edge');
    }
  }
}
]]></script>
        <defs>
                <circle id="rim" cx="0" cy="0" r="7"/>
                <circle id="rim2" cx="0" cy="0" r="3.5"/>
                <g id="zoomPlus">
                        <use xlink:href="#rim" fill="#404040">
                                <set attributeName="fill" to="#808080" begin="zoomplus.mouseover" end="zoomplus.mouseout"/>
                        </use>
                        <path d="M-4,0h8M0,-4v8" fill="none" stroke="white" stroke-width="1.5" pointer-events="none"/>
                </g>
                <g id="zoomMin">
                        <use xlink:href="#rim" fill="#404040">
                                <set attributeName="fill" to="#808080" begin="zoomminus.mouseover" end="zoomminus.mouseout"/>
                        </use>
                        <path d="M-4,0h8" fill="none" stroke="white" stroke-width="1.5" pointer-events="none"/>
                </g>
                <g id="dirArrow">
                        <path fill="none" stroke="white" stroke-width="1.5" d="M0,-3.0v7 M-2.5,-0.5L0,-3.0L2.5,-0.5"/>
                </g>
               <g id="resetDef">
                       <use xlink:href="#rim2" fill="#404040">
                               <set attributeName="fill" to="#808080" begin="reset.mouseover" end="reset.mouseout"/>
                       </use>
               </g>
        </defs>

<script type="text/javascript">
var viewWidth = 1571;
var viewHeight = 296;
var sectionId = 'dynsection-0';
</script>
<script xlink:href="../../svgpan.js"/>
<svg id="graph" class="graph">
<g id="viewport">
<title>/home/travis/build/AliceO2Group/AliceO2/Detectors/TPC/base/test/testTPCBase.cxx</title>
<!-- Node0 -->
<g id="node1" class="node">
<title>Node0</title>
<polygon fill="#bfbfbf" stroke="#000000" points="631.5,-235.5 631.5,-287.5 768.5,-287.5 768.5,-235.5 631.5,-235.5"/>
<text text-anchor="start" x="639.5" y="-275.5" font-family="Helvetica,sans-Serif" font-size="10.00" fill="#000000">/home/travis/build</text>
<text text-anchor="start" x="639.5" y="-264.5" font-family="Helvetica,sans-Serif" font-size="10.00" fill="#000000">/AliceO2Group/AliceO2</text>
<text text-anchor="start" x="639.5" y="-253.5" font-family="Helvetica,sans-Serif" font-size="10.00" fill="#000000">/Detectors/TPC/base/test</text>
<text text-anchor="middle" x="700" y="-242.5" font-family="Helvetica,sans-Serif" font-size="10.00" fill="#000000">/testTPCBase.cxx</text>
</g>
<!-- Node1 -->
<g id="node2" class="node">
<title>Node1</title>
<polygon fill="none" stroke="#bfbfbf" points="521,-179.5 521,-198.5 653,-198.5 653,-179.5 521,-179.5"/>
<text text-anchor="middle" x="587" y="-186.5" font-family="Helvetica,sans-Serif" font-size="10.00" fill="#000000">boost/test/unit_test.hpp</text>
</g>
<!-- Node0&#45;&gt;Node1 -->
<g id="edge1" class="edge">
<title>Node0&#45;&gt;Node1</title>
<path fill="none" stroke="#191970" d="M659.2044,-235.3258C642.8172,-224.8119 624.5153,-213.0696 610.4381,-204.0377"/>
<polygon fill="#191970" stroke="#191970" points="612.1666,-200.9883 601.8599,-198.534 608.3865,-206.8799 612.1666,-200.9883"/>
</g>
<!-- Node2 -->
<g id="node3" class="node">
<title>Node2</title>
<g id="a_node3"><a xlink:href="../../d1/d73/Defs_8h.html" target="_top" xlink:title="DataFormatsTPC/Defs.h">
<polygon fill="none" stroke="#000000" points="713.5,-123.5 713.5,-142.5 846.5,-142.5 846.5,-123.5 713.5,-123.5"/>
<text text-anchor="middle" x="780" y="-130.5" font-family="Helvetica,sans-Serif" font-size="10.00" fill="#000000">DataFormatsTPC/Defs.h</text>
</a>
</g>
</g>
<!-- Node0&#45;&gt;Node2 -->
<g id="edge2" class="edge">
<title>Node0&#45;&gt;Node2</title>
<path fill="none" stroke="#191970" d="M710.1453,-235.2089C717.1448,-218.4756 727.281,-196.7015 739,-179 745.8919,-168.5899 755.0207,-158.1114 762.9147,-149.7904"/>
<polygon fill="#191970" stroke="#191970" points="765.5072,-152.1452 769.9915,-142.5462 760.4999,-147.2537 765.5072,-152.1452"/>
</g>
<!-- Node3 -->
<g id="node4" class="node">
<title>Node3</title>
<polygon fill="none" stroke="#bfbfbf" points="649.5,-67.5 649.5,-86.5 696.5,-86.5 696.5,-67.5 649.5,-67.5"/>
<text text-anchor="middle" x="673" y="-74.5" font-family="Helvetica,sans-Serif" font-size="10.00" fill="#000000">cmath</text>
</g>
<!-- Node0&#45;&gt;Node3 -->
<g id="edge19" class="edge">
<title>Node0&#45;&gt;Node3</title>
<path fill="none" stroke="#191970" d="M696.1888,-235.457C690.7298,-198.1535 680.8033,-130.3224 675.9,-96.8167"/>
<polygon fill="#191970" stroke="#191970" points="679.3546,-96.2512 674.4434,-86.8635 672.4284,-97.2649 679.3546,-96.2512"/>
</g>
<!-- Node16 -->
<g id="node17" class="node">
<title>Node16</title>
<g id="a_node17"><a xlink:href="../../d3/dd6/Sector_8h.html" target="_top" xlink:title="TPCBase/Sector.h">
<polygon fill="none" stroke="#000000" points="747.5,-179.5 747.5,-198.5 848.5,-198.5 848.5,-179.5 747.5,-179.5"/>
<text text-anchor="middle" x="798" y="-186.5" font-family="Helvetica,sans-Serif" font-size="10.00" fill="#000000">TPCBase/Sector.h</text>
</a>
</g>
</g>
<!-- Node0&#45;&gt;Node16 -->
<g id="edge16" class="edge">
<title>Node0&#45;&gt;Node16</title>
<path fill="none" stroke="#191970" d="M735.3802,-235.3258C749.3215,-225.0122 764.8605,-213.5165 776.9716,-204.5567"/>
<polygon fill="#191970" stroke="#191970" points="779.155,-207.2951 785.1127,-198.534 774.9918,-201.6677 779.155,-207.2951"/>
</g>
<!-- Node2&#45;&gt;Node3 -->
<g id="edge3" class="edge">
<title>Node2&#45;&gt;Node3</title>
<path fill="none" stroke="#191970" d="M761.362,-123.2455C744.5614,-114.4527 719.6366,-101.4079 700.5382,-91.4125"/>
<polygon fill="#191970" stroke="#191970" points="701.9073,-88.1787 691.4244,-86.6427 698.6614,-94.3807 701.9073,-88.1787"/>
</g>
<!-- Node4 -->
<g id="node5" class="node">
<title>Node4</title>
<g id="a_node5"><a xlink:href="../../d1/da8/GPUROOTCartesianFwd_8h.html" target="_top" xlink:title="GPUROOTCartesianFwd.h">
<polygon fill="none" stroke="#000000" points="715,-67.5 715,-86.5 855,-86.5 855,-67.5 715,-67.5"/>
<text text-anchor="middle" x="785" y="-74.5" font-family="Helvetica,sans-Serif" font-size="10.00" fill="#000000">GPUROOTCartesianFwd.h</text>
</a>
</g>
</g>
<!-- Node2&#45;&gt;Node4 -->
<g id="edge4" class="edge">
<title>Node2&#45;&gt;Node4</title>
<path fill="none" stroke="#191970" d="M780.8709,-123.2455C781.5234,-115.9382 782.438,-105.6944 783.2407,-96.7046"/>
<polygon fill="#191970" stroke="#191970" points="786.7358,-96.9143 784.139,-86.6427 779.7635,-96.2918 786.7358,-96.9143"/>
</g>
<!-- Node5 -->
<g id="node6" class="node">
<title>Node5</title>
<g id="a_node6"><a xlink:href="../../dc/d73/Cartesian_8h.html" target="_top" xlink:title="MathUtils/Cartesian.h">
<polygon fill="none" stroke="#000000" points="873,-67.5 873,-86.5 995,-86.5 995,-67.5 873,-67.5"/>
<text text-anchor="middle" x="934" y="-74.5" font-family="Helvetica,sans-Serif" font-size="10.00" fill="#000000">MathUtils/Cartesian.h</text>
</a>
</g>
</g>
<!-- Node2&#45;&gt;Node5 -->
<g id="edge5" class="edge">
<title>Node2&#45;&gt;Node5</title>
<path fill="none" stroke="#191970" d="M806.4735,-123.3733C831.8597,-114.1419 870.3645,-100.1402 898.422,-89.9375"/>
<polygon fill="#191970" stroke="#191970" points="899.6701,-93.2079 907.8719,-86.5011 897.2778,-86.6293 899.6701,-93.2079"/>
</g>
<!-- Node6 -->
<g id="node7" class="node">
<title>Node6</title>
<polygon fill="none" stroke="#bfbfbf" points="0,-.5 0,-30.5 164,-30.5 164,-.5 0,-.5"/>
<text text-anchor="start" x="8" y="-18.5" font-family="Helvetica,sans-Serif" font-size="10.00" fill="#000000">Math/GenVector/Displacement</text>
<text text-anchor="middle" x="82" y="-7.5" font-family="Helvetica,sans-Serif" font-size="10.00" fill="#000000">Vector3D.h</text>
</g>
<!-- Node5&#45;&gt;Node6 -->
<g id="edge6" class="edge">
<title>Node5&#45;&gt;Node6</title>
<path fill="none" stroke="#191970" d="M872.9555,-67.95C869.9303,-67.6049 866.9324,-67.2853 864,-67 561.2052,-37.5443 480.3851,-64.2888 174.3297,-31.0607"/>
<polygon fill="#191970" stroke="#191970" points="174.6016,-27.5696 164.2792,-29.9569 173.8373,-34.5278 174.6016,-27.5696"/>
</g>
<!-- Node7 -->
<g id="node8" class="node">
<title>Node7</title>
<polygon fill="none" stroke="#bfbfbf" points="182.5,-6 182.5,-25 371.5,-25 371.5,-6 182.5,-6"/>
<text text-anchor="middle" x="277" y="-13" font-family="Helvetica,sans-Serif" font-size="10.00" fill="#000000">Math/GenVector/PositionVector3D.h</text>
</g>
<!-- Node5&#45;&gt;Node7 -->
<g id="edge7" class="edge">
<title>Node5&#45;&gt;Node7</title>
<path fill="none" stroke="#191970" d="M872.9472,-68.0307C869.9242,-67.6643 866.9291,-67.318 864,-67 649.9955,-43.7654 594.9332,-54.8821 381,-31 369.6341,-29.7312 357.6028,-28.1551 345.9125,-26.4982"/>
<polygon fill="#191970" stroke="#191970" points="346.1505,-22.9962 335.7522,-25.0269 345.1473,-29.924 346.1505,-22.9962"/>
</g>
<!-- Node8 -->
<g id="node9" class="node">
<title>Node8</title>
<polygon fill="none" stroke="#bfbfbf" points="390,-6 390,-25 550,-25 550,-6 390,-6"/>
<text text-anchor="middle" x="470" y="-13" font-family="Helvetica,sans-Serif" font-size="10.00" fill="#000000">Math/GenVector/Rotation3D.h</text>
</g>
<!-- Node5&#45;&gt;Node8 -->
<g id="edge8" class="edge">
<title>Node5&#45;&gt;Node8</title>
<path fill="none" stroke="#191970" d="M872.9286,-68.186C869.9105,-67.7785 866.9215,-67.381 864,-67 728.6498,-49.3469 694.065,-50.7171 559,-31 550.3176,-29.7325 541.1795,-28.2788 532.1997,-26.7807"/>
<polygon fill="#191970" stroke="#191970" points="532.6055,-23.2996 522.161,-25.0781 531.4349,-30.2011 532.6055,-23.2996"/>
</g>
<!-- Node9 -->
<g id="node10" class="node">
<title>Node9</title>
<polygon fill="none" stroke="#bfbfbf" points="568,-6 568,-25 736,-25 736,-6 568,-6"/>
<text text-anchor="middle" x="652" y="-13" font-family="Helvetica,sans-Serif" font-size="10.00" fill="#000000">Math/GenVector/Transform3D.h</text>
</g>
<!-- Node5&#45;&gt;Node9 -->
<g id="edge9" class="edge">
<title>Node5&#45;&gt;Node9</title>
<path fill="none" stroke="#191970" d="M890.2469,-67.4581C840.5415,-56.6181 759.4001,-38.9224 705.8499,-27.2439"/>
<polygon fill="#191970" stroke="#191970" points="706.3719,-23.7755 695.8557,-25.0643 704.8803,-30.6148 706.3719,-23.7755"/>
</g>
<!-- Node10 -->
<g id="node11" class="node">
<title>Node10</title>
<polygon fill="none" stroke="#bfbfbf" points="754.5,-6 754.5,-25 927.5,-25 927.5,-6 754.5,-6"/>
<text text-anchor="middle" x="841" y="-13" font-family="Helvetica,sans-Serif" font-size="10.00" fill="#000000">Math/GenVector/Translation3D.h</text>
</g>
<!-- Node5&#45;&gt;Node10 -->
<g id="edge10" class="edge">
<title>Node5&#45;&gt;Node10</title>
<path fill="none" stroke="#191970" d="M919.4688,-67.3906C904.5906,-57.5519 881.2496,-42.1167 863.8872,-30.6351"/>
<polygon fill="#191970" stroke="#191970" points="865.701,-27.6385 855.4292,-25.0419 861.8398,-33.4773 865.701,-27.6385"/>
</g>
<!-- Node11 -->
<g id="node12" class="node">
<title>Node11</title>
<polygon fill="none" stroke="#bfbfbf" points="946,-.5 946,-30.5 1110,-30.5 1110,-.5 946,-.5"/>
<text text-anchor="start" x="954" y="-18.5" font-family="Helvetica,sans-Serif" font-size="10.00" fill="#000000">Math/GenVector/Displacement</text>
<text text-anchor="middle" x="1028" y="-7.5" font-family="Helvetica,sans-Serif" font-size="10.00" fill="#000000">Vector2D.h</text>
</g>
<!-- Node5&#45;&gt;Node11 -->
<g id="edge11" class="edge">
<title>Node5&#45;&gt;Node11</title>
<path fill="none" stroke="#191970" d="M948.6875,-67.3906C961.4093,-59.0673 980.2527,-46.7389 996.3806,-36.1872"/>
<polygon fill="#191970" stroke="#191970" points="998.5531,-38.9484 1005.005,-30.5446 994.7206,-33.0907 998.5531,-38.9484"/>
</g>
<!-- Node12 -->
<g id="node13" class="node">
<title>Node12</title>
<polygon fill="none" stroke="#bfbfbf" points="1128.5,-6 1128.5,-25 1317.5,-25 1317.5,-6 1128.5,-6"/>
<text text-anchor="middle" x="1223" y="-13" font-family="Helvetica,sans-Serif" font-size="10.00" fill="#000000">Math/GenVector/PositionVector2D.h</text>
</g>
<!-- Node5&#45;&gt;Node12 -->
<g id="edge12" class="edge">
<title>Node5&#45;&gt;Node12</title>
<path fill="none" stroke="#191970" d="M978.8392,-67.4581C1029.8843,-56.5956 1113.2798,-38.8488 1168.1553,-27.1711"/>
<polygon fill="#191970" stroke="#191970" points="1169.0032,-30.5691 1178.0556,-25.0643 1167.5461,-23.7224 1169.0032,-30.5691"/>
</g>
<!-- Node13 -->
<g id="node14" class="node">
<title>Node13</title>
<polygon fill="none" stroke="#bfbfbf" points="1335.5,-6 1335.5,-25 1394.5,-25 1394.5,-6 1335.5,-6"/>
<text text-anchor="middle" x="1365" y="-13" font-family="Helvetica,sans-Serif" font-size="10.00" fill="#000000">Rtypes.h</text>
</g>
<!-- Node5&#45;&gt;Node13 -->
<g id="edge13" class="edge">
<title>Node5&#45;&gt;Node13</title>
<path fill="none" stroke="#191970" d="M995.1903,-74.9541C1073.2967,-71.1843 1212.0748,-60.5786 1327,-31 1329.6263,-30.3241 1332.3117,-29.5065 1334.9806,-28.6043"/>
<polygon fill="#191970" stroke="#191970" points="1336.2971,-31.8488 1344.4383,-25.0685 1333.8458,-25.292 1336.2971,-31.8488"/>
</g>
<!-- Node14 -->
<g id="node15" class="node">
<title>Node14</title>
<polygon fill="none" stroke="#bfbfbf" points="1413,-6 1413,-25 1495,-25 1495,-6 1413,-6"/>
<text text-anchor="middle" x="1454" y="-13" font-family="Helvetica,sans-Serif" font-size="10.00" fill="#000000">TGeoMatrix.h</text>
</g>
<!-- Node5&#45;&gt;Node14 -->
<g id="edge14" class="edge">
<title>Node5&#45;&gt;Node14</title>
<path fill="none" stroke="#191970" d="M995.0498,-74.9778C1085.2639,-71.1013 1259.1372,-60.227 1404,-31 1408.2093,-30.1507 1412.5681,-29.087 1416.8778,-27.9168"/>
<polygon fill="#191970" stroke="#191970" points="1418.1272,-31.1985 1426.7512,-25.0441 1416.1716,-24.4772 1418.1272,-31.1985"/>
</g>
<!-- Node15 -->
<g id="node16" class="node">
<title>Node15</title>
<polygon fill="none" stroke="#bfbfbf" points="1513.5,-6 1513.5,-25 1562.5,-25 1562.5,-6 1513.5,-6"/>
<text text-anchor="middle" x="1538" y="-13" font-family="Helvetica,sans-Serif" font-size="10.00" fill="#000000">iosfwd</text>
</g>
<!-- Node5&#45;&gt;Node15 -->
<g id="edge15" class="edge">
<title>Node5&#45;&gt;Node15</title>
<path fill="none" stroke="#191970" d="M995.3076,-74.7333C1122.1031,-69.6079 1409.2299,-55.6163 1504,-31 1506.1937,-30.4302 1508.4219,-29.7272 1510.6343,-28.9381"/>
<polygon fill="#191970" stroke="#191970" points="1512.1485,-32.1001 1520.0767,-25.072 1509.4962,-25.6221 1512.1485,-32.1001"/>
</g>
<!-- Node16&#45;&gt;Node2 -->
<g id="edge18" class="edge">
<title>Node16&#45;&gt;Node2</title>
<path fill="none" stroke="#191970" d="M794.8646,-179.2455C792.49,-171.8579 789.1507,-161.4689 786.2385,-152.4087"/>
<polygon fill="#191970" stroke="#191970" points="789.4917,-151.0919 783.0994,-142.6427 782.8275,-153.234 789.4917,-151.0919"/>
</g>
<!-- Node17 -->
<g id="node18" class="node">
<title>Node17</title>
<g id="a_node18"><a xlink:href="../../d0/dda/DataFormats_2Detectors_2TPC_2include_2DataFormatsTPC_2Constants_8h.html" target="_top" xlink:title="DataFormatsTPC/Constants.h">
<polygon fill="none" stroke="#000000" points="864.5,-123.5 864.5,-142.5 1023.5,-142.5 1023.5,-123.5 864.5,-123.5"/>
<text text-anchor="middle" x="944" y="-130.5" font-family="Helvetica,sans-Serif" font-size="10.00" fill="#000000">DataFormatsTPC/Constants.h</text>
</a>
</g>
</g>
<!-- Node16&#45;&gt;Node17 -->
<g id="edge17" class="edge">
<title>Node16&#45;&gt;Node17</title>
<path fill="none" stroke="#191970" d="M823.0983,-179.3733C846.9555,-170.2226 883.0335,-156.3844 909.571,-146.2057"/>
<polygon fill="#191970" stroke="#191970" points="911.1459,-149.3503 919.2292,-142.5011 908.639,-142.8145 911.1459,-149.3503"/>
</g>
</g>
</svg>
        <g id="navigator" transform="translate(0 0)" fill="#404254">
                <rect fill="#f2f5e9" fill-opacity="0.5" stroke="#606060" stroke-width=".5" x="0" y="0" width="60" height="60"/>
                <use id="zoomplus" xlink:href="#zoomPlus" x="17" y="9" onmousedown="handleZoom(evt,'in')"/>
                <use id="zoomminus" xlink:href="#zoomMin" x="42" y="9" onmousedown="handleZoom(evt,'out')"/>
                <use id="reset" xlink:href="#resetDef" x="30" y="36" onmousedown="handleReset()"/>
                <g id="arrowUp" xlink:href="#dirArrow" transform="translate(30 24)" onmousedown="handlePan(0,-1)">
                  <use xlink:href="#rim" fill="#404040">
                        <set attributeName="fill" to="#808080" begin="arrowUp.mouseover" end="arrowUp.mouseout"/>
                  </use>
                  <path fill="none" stroke="white" stroke-width="1.5" d="M0,-3.0v7 M-2.5,-0.5L0,-3.0L2.5,-0.5"/>
                </g>
                <g id="arrowRight" xlink:href="#dirArrow" transform="rotate(90) translate(36 -43)" onmousedown="handlePan(1,0)">
                  <use xlink:href="#rim" fill="#404040">
                        <set attributeName="fill" to="#808080" begin="arrowRight.mouseover" end="arrowRight.mouseout"/>
                  </use>
                  <path fill="none" stroke="white" stroke-width="1.5" d="M0,-3.0v7 M-2.5,-0.5L0,-3.0L2.5,-0.5"/>
                </g>
                <g id="arrowDown" xlink:href="#dirArrow" transform="rotate(180) translate(-30 -48)" onmousedown="handlePan(0,1)">
                  <use xlink:href="#rim" fill="#404040">
                        <set attributeName="fill" to="#808080" begin="arrowDown.mouseover" end="arrowDown.mouseout"/>
                  </use>
                  <path fill="none" stroke="white" stroke-width="1.5" d="M0,-3.0v7 M-2.5,-0.5L0,-3.0L2.5,-0.5"/>
                </g>
                <g id="arrowLeft" xlink:href="#dirArrow" transform="rotate(270) translate(-36 17)" onmousedown="handlePan(-1,0)">
                  <use xlink:href="#rim" fill="#404040">
                        <set attributeName="fill" to="#808080" begin="arrowLeft.mouseover" end="arrowLeft.mouseout"/>
                  </use>
                  <path fill="none" stroke="white" stroke-width="1.5" d="M0,-3.0v7 M-2.5,-0.5L0,-3.0L2.5,-0.5"/>
                </g>
        </g>
        <svg viewBox="0 0 15 15" width="100%" height="30px" preserveAspectRatio="xMaxYMin meet">
         <g id="arrow_out" transform="scale(0.3 0.3)">
          <a xlink:href="testTPCBase_8cxx__incl_org.svg" target="_base">
           <rect id="button" ry="5" rx="5" y="6" x="6" height="38" width="38"
                fill="#f2f5e9" fill-opacity="0.5" stroke="#606060" stroke-width="1.0"/>
           <path id="arrow"
             d="M 11.500037,31.436501 C 11.940474,20.09759 22.043105,11.32322 32.158766,21.979434 L 37.068811,17.246167 C 37.068811,17.246167 37.088388,32 37.088388,32 L 22.160133,31.978069 C 22.160133,31.978069 26.997745,27.140456 26.997745,27.140456 C 18.528582,18.264221 13.291696,25.230495 11.500037,31.436501 z"
             style="fill:#404040;"/>
          </a>
         </g>
        </svg>
</svg>
