<?xml version="1.0" encoding="UTF-8" standalone="no"?>
<!DOCTYPE svg PUBLIC "-//W3C//DTD SVG 1.1//EN"
 "http://www.w3.org/Graphics/SVG/1.1/DTD/svg11.dtd">
<!-- Generated by graphviz version 2.40.1 (20161225.0304)
 -->
<!-- Title: /home/travis/build/AliceO2Group/AliceO2/Common/Field/src/MagneticField.cxx Pages: 1 -->
<!--zoomable 341 -->
<svg id="main" version="1.1" xmlns="http://www.w3.org/2000/svg" xmlns:xlink="http://www.w3.org/1999/xlink" xml:space="preserve" onload="init(evt)">
<style type="text/css"><![CDATA[
.edge:hover path { stroke: red; }
.edge:hover polygon { stroke: red; fill: red; }
]]></style>
<script type="text/javascript"><![CDATA[
var edges = document.getElementsByTagName('g');
if (edges && edges.length) {
  for (var i=0;i<edges.length;i++) {
    if (edges[i].id.substr(0,4)=='edge') {
      edges[i].setAttribute('class','edge');
    }
  }
}
]]></script>
        <defs>
                <circle id="rim" cx="0" cy="0" r="7"/>
                <circle id="rim2" cx="0" cy="0" r="3.5"/>
                <g id="zoomPlus">
                        <use xlink:href="#rim" fill="#404040">
                                <set attributeName="fill" to="#808080" begin="zoomplus.mouseover" end="zoomplus.mouseout"/>
                        </use>
                        <path d="M-4,0h8M0,-4v8" fill="none" stroke="white" stroke-width="1.5" pointer-events="none"/>
                </g>
                <g id="zoomMin">
                        <use xlink:href="#rim" fill="#404040">
                                <set attributeName="fill" to="#808080" begin="zoomminus.mouseover" end="zoomminus.mouseout"/>
                        </use>
                        <path d="M-4,0h8" fill="none" stroke="white" stroke-width="1.5" pointer-events="none"/>
                </g>
                <g id="dirArrow">
                        <path fill="none" stroke="white" stroke-width="1.5" d="M0,-3.0v7 M-2.5,-0.5L0,-3.0L2.5,-0.5"/>
                </g>
               <g id="resetDef">
                       <use xlink:href="#rim2" fill="#404040">
                               <set attributeName="fill" to="#808080" begin="reset.mouseover" end="reset.mouseout"/>
                       </use>
               </g>
        </defs>

<script type="text/javascript">
var viewWidth = 2143;
var viewHeight = 341;
var sectionId = 'dynsection-0';
</script>
<script xlink:href="../../svgpan.js"/>
<svg id="graph" class="graph">
<g id="viewport">
<title>/home/travis/build/AliceO2Group/AliceO2/Common/Field/src/MagneticField.cxx</title>
<!-- Node0 -->
<g id="node1" class="node">
<title>Node0</title>
<polygon fill="#bfbfbf" stroke="#000000" points="939.1791,-291.5 939.1791,-332.5 1136.1791,-332.5 1136.1791,-291.5 939.1791,-291.5"/>
<text text-anchor="start" x="947.1791" y="-320.5" font-family="Helvetica,sans-Serif" font-size="10.00" fill="#000000">/home/travis/build</text>
<text text-anchor="start" x="947.1791" y="-309.5" font-family="Helvetica,sans-Serif" font-size="10.00" fill="#000000">/AliceO2Group/AliceO2</text>
<text text-anchor="middle" x="1037.6791" y="-298.5" font-family="Helvetica,sans-Serif" font-size="10.00" fill="#000000">/Common/Field/src/MagneticField.cxx</text>
</g>
<!-- Node1 -->
<g id="node2" class="node">
<title>Node1</title>
<g id="a_node2"><a xlink:href="../../db/d4b/MagneticField_8h.html" target="_top" xlink:title="Definition of the MagF class. ">
<polygon fill="none" stroke="#000000" points="656.6791,-235.5 656.6791,-254.5 774.6791,-254.5 774.6791,-235.5 656.6791,-235.5"/>
<text text-anchor="middle" x="715.6791" y="-242.5" font-family="Helvetica,sans-Serif" font-size="10.00" fill="#000000">Field/MagneticField.h</text>
</a>
</g>
</g>
<!-- Node0&#45;&gt;Node1 -->
<g id="edge1" class="edge">
<title>Node0&#45;&gt;Node1</title>
<path fill="none" stroke="#191970" d="M938.8802,-291.4425C883.8815,-279.9986 817.4391,-266.1737 771.4208,-256.5984"/>
<polygon fill="#191970" stroke="#191970" points="771.8473,-253.1123 761.3439,-254.5017 770.4212,-259.9655 771.8473,-253.1123"/>
</g>
<!-- Node26 -->
<g id="node27" class="node">
<title>Node26</title>
<polygon fill="none" stroke="#bfbfbf" points="884.6791,-179.5 884.6791,-198.5 952.6791,-198.5 952.6791,-179.5 884.6791,-179.5"/>
<text text-anchor="middle" x="918.6791" y="-186.5" font-family="Helvetica,sans-Serif" font-size="10.00" fill="#000000">TSystem.h</text>
</g>
<!-- Node0&#45;&gt;Node26 -->
<g id="edge42" class="edge">
<title>Node0&#45;&gt;Node26</title>
<path fill="none" stroke="#191970" d="M954.5878,-291.3982C921.6091,-281.3932 889.2323,-268.6022 879.6791,-255 868.3198,-238.8261 883.2622,-219.2081 897.8145,-205.584"/>
<polygon fill="#191970" stroke="#191970" points="900.4696,-207.9114 905.6895,-198.6917 895.8594,-202.644 900.4696,-207.9114"/>
</g>
<!-- Node28 -->
<g id="node29" class="node">
<title>Node28</title>
<polygon fill="none" stroke="#bfbfbf" points="888.6791,-235.5 888.6791,-254.5 936.6791,-254.5 936.6791,-235.5 888.6791,-235.5"/>
<text text-anchor="middle" x="912.6791" y="-242.5" font-family="Helvetica,sans-Serif" font-size="10.00" fill="#000000">TFile.h</text>
</g>
<!-- Node0&#45;&gt;Node28 -->
<g id="edge40" class="edge">
<title>Node0&#45;&gt;Node28</title>
<path fill="none" stroke="#191970" d="M999.155,-291.3511C979.9078,-281.0346 957.085,-268.8015 939.7199,-259.4939"/>
<polygon fill="#191970" stroke="#191970" points="941.1588,-256.294 930.6915,-254.6546 937.8518,-262.4637 941.1588,-256.294"/>
</g>
<!-- Node29 -->
<g id="node30" class="node">
<title>Node29</title>
<polygon fill="none" stroke="#bfbfbf" points="954.6791,-235.5 954.6791,-254.5 1028.6791,-254.5 1028.6791,-235.5 954.6791,-235.5"/>
<text text-anchor="middle" x="991.6791" y="-242.5" font-family="Helvetica,sans-Serif" font-size="10.00" fill="#000000">TPRegexp.h</text>
</g>
<!-- Node0&#45;&gt;Node29 -->
<g id="edge41" class="edge">
<title>Node0&#45;&gt;Node29</title>
<path fill="none" stroke="#191970" d="M1023.3766,-291.168C1017.1911,-282.1587 1010.0214,-271.7159 1004.067,-263.0432"/>
<polygon fill="#191970" stroke="#191970" points="1006.9396,-261.0435 998.3941,-254.7805 1001.1688,-265.0055 1006.9396,-261.0435"/>
</g>
<!-- Node30 -->
<g id="node31" class="node">
<title>Node30</title>
<polygon fill="none" stroke="#bfbfbf" points="1047.1791,-235.5 1047.1791,-254.5 1122.1791,-254.5 1122.1791,-235.5 1047.1791,-235.5"/>
<text text-anchor="middle" x="1084.6791" y="-242.5" font-family="Helvetica,sans-Serif" font-size="10.00" fill="#000000">FairLogger.h</text>
</g>
<!-- Node0&#45;&gt;Node30 -->
<g id="edge43" class="edge">
<title>Node0&#45;&gt;Node30</title>
<path fill="none" stroke="#191970" d="M1052.2926,-291.168C1058.6125,-282.1587 1065.9381,-271.7159 1072.0219,-263.0432"/>
<polygon fill="#191970" stroke="#191970" points="1074.9406,-264.9771 1077.8182,-254.7805 1069.21,-260.9571 1074.9406,-264.9771"/>
</g>
<!-- Node31 -->
<g id="node32" class="node">
<title>Node31</title>
<polygon fill="none" stroke="#bfbfbf" points="1140.1791,-235.5 1140.1791,-254.5 1231.1791,-254.5 1231.1791,-235.5 1140.1791,-235.5"/>
<text text-anchor="middle" x="1185.6791" y="-242.5" font-family="Helvetica,sans-Serif" font-size="10.00" fill="#000000">FairParamList.h</text>
</g>
<!-- Node0&#45;&gt;Node31 -->
<g id="edge44" class="edge">
<title>Node0&#45;&gt;Node31</title>
<path fill="none" stroke="#191970" d="M1083.2916,-291.3511C1106.6079,-280.7958 1134.3559,-268.2342 1155.0801,-258.8523"/>
<polygon fill="#191970" stroke="#191970" points="1156.6859,-261.9673 1164.3525,-254.6546 1153.799,-255.5903 1156.6859,-261.9673"/>
</g>
<!-- Node32 -->
<g id="node33" class="node">
<title>Node32</title>
<polygon fill="none" stroke="#bfbfbf" points="1249.1791,-235.5 1249.1791,-254.5 1310.1791,-254.5 1310.1791,-235.5 1249.1791,-235.5"/>
<text text-anchor="middle" x="1279.6791" y="-242.5" font-family="Helvetica,sans-Serif" font-size="10.00" fill="#000000">FairRun.h</text>
</g>
<!-- Node0&#45;&gt;Node32 -->
<g id="edge45" class="edge">
<title>Node0&#45;&gt;Node32</title>
<path fill="none" stroke="#191970" d="M1111.9317,-291.4425C1153.9153,-279.8189 1204.7716,-265.7389 1239.4042,-256.1505"/>
<polygon fill="#191970" stroke="#191970" points="1240.4583,-259.4904 1249.1619,-253.449 1238.5905,-252.7442 1240.4583,-259.4904"/>
</g>
<!-- Node33 -->
<g id="node34" class="node">
<title>Node33</title>
<polygon fill="none" stroke="#bfbfbf" points="1328.1791,-235.5 1328.1791,-254.5 1425.1791,-254.5 1425.1791,-235.5 1328.1791,-235.5"/>
<text text-anchor="middle" x="1376.6791" y="-242.5" font-family="Helvetica,sans-Serif" font-size="10.00" fill="#000000">FairRuntimeDb.h</text>
</g>
<!-- Node0&#45;&gt;Node33 -->
<g id="edge46" class="edge">
<title>Node0&#45;&gt;Node33</title>
<path fill="none" stroke="#191970" d="M1136.1873,-292.5308C1195.2607,-280.8556 1268.3756,-266.4051 1318.3801,-256.5222"/>
<polygon fill="#191970" stroke="#191970" points="1319.2423,-259.9196 1328.3739,-254.5471 1317.885,-253.0524 1319.2423,-259.9196"/>
</g>
<!-- Node2 -->
<g id="node3" class="node">
<title>Node2</title>
<polygon fill="none" stroke="#bfbfbf" points="763.1791,-179.5 763.1791,-198.5 828.1791,-198.5 828.1791,-179.5 763.1791,-179.5"/>
<text text-anchor="middle" x="795.6791" y="-186.5" font-family="Helvetica,sans-Serif" font-size="10.00" fill="#000000">FairField.h</text>
</g>
<!-- Node1&#45;&gt;Node2 -->
<g id="edge2" class="edge">
<title>Node1&#45;&gt;Node2</title>
<path fill="none" stroke="#191970" d="M729.6141,-235.2455C741.7738,-226.7337 759.6256,-214.2375 773.7076,-204.3801"/>
<polygon fill="#191970" stroke="#191970" points="775.7187,-207.2447 781.9039,-198.6427 771.7044,-201.51 775.7187,-207.2447"/>
</g>
<!-- Node3 -->
<g id="node4" class="node">
<title>Node3</title>
<g id="a_node4"><a xlink:href="../../d3/d91/MagFieldParam_8h.html" target="_top" xlink:title="Definition of the MagFieldParam: container for ALICE mag. field parameters. ">
<polygon fill="none" stroke="#000000" points="94.1791,-179.5 94.1791,-198.5 219.1791,-198.5 219.1791,-179.5 94.1791,-179.5"/>
<text text-anchor="middle" x="156.6791" y="-186.5" font-family="Helvetica,sans-Serif" font-size="10.00" fill="#000000">Field/MagFieldParam.h</text>
</a>
</g>
</g>
<!-- Node1&#45;&gt;Node3 -->
<g id="edge3" class="edge">
<title>Node1&#45;&gt;Node3</title>
<path fill="none" stroke="#191970" d="M656.6495,-239.0865C553.6387,-228.767 341.3785,-207.503 229.4445,-196.2896"/>
<polygon fill="#191970" stroke="#191970" points="229.5601,-192.7837 219.261,-195.2694 228.8623,-199.7488 229.5601,-192.7837"/>
</g>
<!-- Node6 -->
<g id="node7" class="node">
<title>Node6</title>
<g id="a_node7"><a xlink:href="../../dd/dfb/MagneticWrapperChebyshev_8h.html" target="_top" xlink:title="Field/MagneticWrapperChebyshev.h">
<polygon fill="none" stroke="#000000" points="373.1791,-179.5 373.1791,-198.5 562.1791,-198.5 562.1791,-179.5 373.1791,-179.5"/>
<text text-anchor="middle" x="467.6791" y="-186.5" font-family="Helvetica,sans-Serif" font-size="10.00" fill="#000000">Field/MagneticWrapperChebyshev.h</text>
</a>
</g>
</g>
<!-- Node1&#45;&gt;Node6 -->
<g id="edge6" class="edge">
<title>Node1&#45;&gt;Node6</title>
<path fill="none" stroke="#191970" d="M673.3282,-235.4369C630.8849,-225.8529 565.4672,-211.0812 519.8478,-200.78"/>
<polygon fill="#191970" stroke="#191970" points="520.3807,-197.3123 509.8554,-198.5237 518.8389,-204.1404 520.3807,-197.3123"/>
</g>
<!-- Node8 -->
<g id="node9" class="node">
<title>Node8</title>
<polygon fill="none" stroke="#bfbfbf" points="249.1791,-6 249.1791,-25 316.1791,-25 316.1791,-6 249.1791,-6"/>
<text text-anchor="middle" x="282.6791" y="-13" font-family="Helvetica,sans-Serif" font-size="10.00" fill="#000000">TNamed.h</text>
</g>
<!-- Node1&#45;&gt;Node8 -->
<g id="edge38" class="edge">
<title>Node1&#45;&gt;Node8</title>
<path fill="none" stroke="#191970" d="M656.5538,-242.542C509.917,-236.1831 137.5115,-218.3323 84.6791,-199 44.9403,-184.4589 26.881,-180.7081 7.6791,-143 -39.5252,-50.3015 150.1334,-24.7397 239.0068,-17.9037"/>
<polygon fill="#191970" stroke="#191970" points="239.3466,-21.3884 249.0684,-17.1768 238.8422,-14.4066 239.3466,-21.3884"/>
</g>
<!-- Node13 -->
<g id="node14" class="node">
<title>Node13</title>
<polygon fill="none" stroke="#bfbfbf" points="572.1791,-6 572.1791,-25 631.1791,-25 631.1791,-6 572.1791,-6"/>
<text text-anchor="middle" x="601.6791" y="-13" font-family="Helvetica,sans-Serif" font-size="10.00" fill="#000000">Rtypes.h</text>
</g>
<!-- Node1&#45;&gt;Node13 -->
<g id="edge37" class="edge">
<title>Node1&#45;&gt;Node13</title>
<path fill="none" stroke="#191970" d="M706.3048,-235.4217C697.9831,-226.5394 685.902,-212.6697 677.6791,-199 643.9982,-143.0091 618.5382,-69.3676 607.5827,-34.8831"/>
<polygon fill="#191970" stroke="#191970" points="610.8613,-33.6397 604.5433,-25.1347 604.1786,-35.7233 610.8613,-33.6397"/>
</g>
<!-- Node14 -->
<g id="node15" class="node">
<title>Node14</title>
<g id="a_node15"><a xlink:href="../../da/df4/MagFieldFast_8h.html" target="_top" xlink:title="Definition of the fast magnetic field parametrization MagFieldFast. ">
<polygon fill="none" stroke="#000000" points="800.1791,-123.5 800.1791,-142.5 913.1791,-142.5 913.1791,-123.5 800.1791,-123.5"/>
<text text-anchor="middle" x="856.6791" y="-130.5" font-family="Helvetica,sans-Serif" font-size="10.00" fill="#000000">Field/MagFieldFast.h</text>
</a>
</g>
</g>
<!-- Node1&#45;&gt;Node14 -->
<g id="edge22" class="edge">
<title>Node1&#45;&gt;Node14</title>
<path fill="none" stroke="#191970" d="M770.2383,-235.4432C793.5197,-228.8032 819.2759,-217.6486 836.6791,-199 848.3962,-186.4445 853.2619,-167.2387 855.2754,-152.7767"/>
<polygon fill="#191970" stroke="#191970" points="858.7561,-153.1432 856.3254,-142.831 851.7947,-152.4082 858.7561,-153.1432"/>
</g>
<!-- Node1&#45;&gt;Node26 -->
<g id="edge36" class="edge">
<title>Node1&#45;&gt;Node26</title>
<path fill="none" stroke="#191970" d="M750.5761,-235.3733C784.8739,-225.9118 837.3374,-211.4391 874.5208,-201.1816"/>
<polygon fill="#191970" stroke="#191970" points="875.8663,-204.4413 884.5754,-198.4079 874.0047,-197.6933 875.8663,-204.4413"/>
</g>
<!-- Node27 -->
<g id="node28" class="node">
<title>Node27</title>
<polygon fill="none" stroke="#bfbfbf" points="686.6791,-179.5 686.6791,-198.5 744.6791,-198.5 744.6791,-179.5 686.6791,-179.5"/>
<text text-anchor="middle" x="715.6791" y="-186.5" font-family="Helvetica,sans-Serif" font-size="10.00" fill="#000000">memory</text>
</g>
<!-- Node1&#45;&gt;Node27 -->
<g id="edge39" class="edge">
<title>Node1&#45;&gt;Node27</title>
<path fill="none" stroke="#191970" d="M715.6791,-235.2455C715.6791,-227.9382 715.6791,-217.6944 715.6791,-208.7046"/>
<polygon fill="#191970" stroke="#191970" points="719.1792,-208.6426 715.6791,-198.6427 712.1792,-208.6427 719.1792,-208.6426"/>
</g>
<!-- Node4 -->
<g id="node5" class="node">
<title>Node4</title>
<polygon fill="none" stroke="#bfbfbf" points="17.1791,-123.5 17.1791,-142.5 128.1791,-142.5 128.1791,-123.5 17.1791,-123.5"/>
<text text-anchor="middle" x="72.6791" y="-130.5" font-family="Helvetica,sans-Serif" font-size="10.00" fill="#000000">FairParGenericSet.h</text>
</g>
<!-- Node3&#45;&gt;Node4 -->
<g id="edge4" class="edge">
<title>Node3&#45;&gt;Node4</title>
<path fill="none" stroke="#191970" d="M142.0474,-179.2455C129.2797,-170.7337 110.5354,-158.2375 95.7493,-148.3801"/>
<polygon fill="#191970" stroke="#191970" points="97.4051,-145.2775 87.1431,-142.6427 93.5222,-151.1019 97.4051,-145.2775"/>
</g>
<!-- Node5 -->
<g id="node6" class="node">
<title>Node5</title>
<polygon fill="none" stroke="#bfbfbf" points="106.6791,-67.5 106.6791,-86.5 166.6791,-86.5 166.6791,-67.5 106.6791,-67.5"/>
<text text-anchor="middle" x="136.6791" y="-74.5" font-family="Helvetica,sans-Serif" font-size="10.00" fill="#000000">TString.h</text>
</g>
<!-- Node3&#45;&gt;Node5 -->
<g id="edge5" class="edge">
<title>Node3&#45;&gt;Node5</title>
<path fill="none" stroke="#191970" d="M154.9739,-179.4509C151.6972,-161.1013 144.4632,-120.5908 140.1379,-96.3693"/>
<polygon fill="#191970" stroke="#191970" points="143.5835,-95.7539 138.38,-86.5249 136.6925,-96.9845 143.5835,-95.7539"/>
</g>
<!-- Node7 -->
<g id="node8" class="node">
<title>Node7</title>
<polygon fill="none" stroke="#bfbfbf" points="495.6791,-123.5 495.6791,-142.5 551.6791,-142.5 551.6791,-123.5 495.6791,-123.5"/>
<text text-anchor="middle" x="523.6791" y="-130.5" font-family="Helvetica,sans-Serif" font-size="10.00" fill="#000000">TMath.h</text>
</g>
<!-- Node6&#45;&gt;Node7 -->
<g id="edge7" class="edge">
<title>Node6&#45;&gt;Node7</title>
<path fill="none" stroke="#191970" d="M477.4336,-179.2455C485.5439,-171.1352 497.2716,-159.4075 506.8872,-149.7919"/>
<polygon fill="#191970" stroke="#191970" points="509.4402,-152.1887 514.0365,-142.6427 504.4905,-147.2389 509.4402,-152.1887"/>
</g>
<!-- Node6&#45;&gt;Node8 -->
<g id="edge8" class="edge">
<title>Node6&#45;&gt;Node8</title>
<path fill="none" stroke="#191970" d="M407.9619,-179.4152C357.4532,-170.5828 289.5917,-156.792 265.6791,-143 230.2259,-122.5517 195.3333,-103.5854 213.6791,-67 221.704,-50.9968 237.3222,-38.6956 251.6725,-30.135"/>
<polygon fill="#191970" stroke="#191970" points="253.7857,-32.9649 260.8271,-25.0484 250.3858,-26.846 253.7857,-32.9649"/>
</g>
<!-- Node9 -->
<g id="node10" class="node">
<title>Node9</title>
<polygon fill="none" stroke="#bfbfbf" points="223.1791,-67.5 223.1791,-86.5 296.1791,-86.5 296.1791,-67.5 223.1791,-67.5"/>
<text text-anchor="middle" x="259.6791" y="-74.5" font-family="Helvetica,sans-Serif" font-size="10.00" fill="#000000">TObjArray.h</text>
</g>
<!-- Node6&#45;&gt;Node9 -->
<g id="edge9" class="edge">
<title>Node6&#45;&gt;Node9</title>
<path fill="none" stroke="#191970" d="M401.1643,-179.4574C355.1401,-171.6001 299.1505,-159.138 281.6791,-143 268.8114,-131.1143 263.4625,-111.5128 261.2432,-96.7527"/>
<polygon fill="#191970" stroke="#191970" points="264.6977,-96.1544 260.0834,-86.6172 257.7431,-96.9503 264.6977,-96.1544"/>
</g>
<!-- Node10 -->
<g id="node11" class="node">
<title>Node10</title>
<g id="a_node11"><a xlink:href="../../d8/d64/Chebyshev3D_8h.html" target="_top" xlink:title="MathUtils/Chebyshev3D.h">
<polygon fill="none" stroke="#000000" points="291.1791,-123.5 291.1791,-142.5 434.1791,-142.5 434.1791,-123.5 291.1791,-123.5"/>
<text text-anchor="middle" x="362.6791" y="-130.5" font-family="Helvetica,sans-Serif" font-size="10.00" fill="#000000">MathUtils/Chebyshev3D.h</text>
</a>
</g>
</g>
<!-- Node6&#45;&gt;Node10 -->
<g id="edge10" class="edge">
<title>Node6&#45;&gt;Node10</title>
<path fill="none" stroke="#191970" d="M449.3895,-179.2455C432.9029,-170.4527 408.444,-157.4079 389.7026,-147.4125"/>
<polygon fill="#191970" stroke="#191970" points="391.2298,-144.2604 380.7591,-142.6427 387.9356,-150.4368 391.2298,-144.2604"/>
</g>
<!-- Node12 -->
<g id="node13" class="node">
<title>Node12</title>
<g id="a_node13"><a xlink:href="../../d4/d08/Chebyshev3DCalc_8h.html" target="_top" xlink:title="MathUtils/Chebyshev3DCalc.h">
<polygon fill="none" stroke="#000000" points="390.6791,-67.5 390.6791,-86.5 554.6791,-86.5 554.6791,-67.5 390.6791,-67.5"/>
<text text-anchor="middle" x="472.6791" y="-74.5" font-family="Helvetica,sans-Serif" font-size="10.00" fill="#000000">MathUtils/Chebyshev3DCalc.h</text>
</a>
</g>
</g>
<!-- Node6&#45;&gt;Node12 -->
<g id="edge20" class="edge">
<title>Node6&#45;&gt;Node12</title>
<path fill="none" stroke="#191970" d="M468.1054,-179.4509C468.9209,-161.184 470.7168,-120.9553 471.7998,-96.6976"/>
<polygon fill="#191970" stroke="#191970" points="475.3044,-96.6711 472.2539,-86.5249 468.3113,-96.3588 475.3044,-96.6711"/>
</g>
<!-- Node6&#45;&gt;Node13 -->
<g id="edge21" class="edge">
<title>Node6&#45;&gt;Node13</title>
<path fill="none" stroke="#191970" d="M499.4275,-179.3874C519.1326,-172.0704 543.8233,-160.2769 560.6791,-143 589.6496,-113.3059 598.1535,-63.0712 600.647,-35.3507"/>
<polygon fill="#191970" stroke="#191970" points="604.1443,-35.5136 601.3732,-25.2876 597.1624,-35.0097 604.1443,-35.5136"/>
</g>
<!-- Node10&#45;&gt;Node5 -->
<g id="edge19" class="edge">
<title>Node10&#45;&gt;Node5</title>
<path fill="none" stroke="#191970" d="M324.0851,-123.4369C282.972,-113.2496 218.2034,-97.2007 176.5925,-86.89"/>
<polygon fill="#191970" stroke="#191970" points="177.3466,-83.4711 166.7983,-84.4632 175.663,-90.2656 177.3466,-83.4711"/>
</g>
<!-- Node10&#45;&gt;Node8 -->
<g id="edge11" class="edge">
<title>Node10&#45;&gt;Node8</title>
<path fill="none" stroke="#191970" d="M356.1324,-123.3845C342.7717,-103.761 312.1787,-58.8274 294.987,-33.5772"/>
<polygon fill="#191970" stroke="#191970" points="297.8374,-31.5446 289.3163,-25.2484 292.0512,-35.4842 297.8374,-31.5446"/>
</g>
<!-- Node10&#45;&gt;Node9 -->
<g id="edge12" class="edge">
<title>Node10&#45;&gt;Node9</title>
<path fill="none" stroke="#191970" d="M344.7379,-123.2455C328.6391,-114.4928 304.7912,-101.527 286.44,-91.5496"/>
<polygon fill="#191970" stroke="#191970" points="287.8721,-88.3444 277.4148,-86.6427 284.5284,-94.4942 287.8721,-88.3444"/>
</g>
<!-- Node11 -->
<g id="node12" class="node">
<title>Node11</title>
<polygon fill="none" stroke="#bfbfbf" points="380.6791,-6 380.6791,-25 426.6791,-25 426.6791,-6 380.6791,-6"/>
<text text-anchor="middle" x="403.6791" y="-13" font-family="Helvetica,sans-Serif" font-size="10.00" fill="#000000">cstdio</text>
</g>
<!-- Node10&#45;&gt;Node11 -->
<g id="edge13" class="edge">
<title>Node10&#45;&gt;Node11</title>
<path fill="none" stroke="#191970" d="M365.0239,-123.4844C368.2998,-110.5517 374.6409,-86.7702 381.6791,-67 385.5584,-56.1031 390.5834,-44.2119 394.8514,-34.6041"/>
<polygon fill="#191970" stroke="#191970" points="398.1596,-35.7831 399.0955,-25.2297 391.7826,-32.896 398.1596,-35.7831"/>
</g>
<!-- Node10&#45;&gt;Node12 -->
<g id="edge14" class="edge">
<title>Node10&#45;&gt;Node12</title>
<path fill="none" stroke="#191970" d="M381.8397,-123.2455C399.1902,-114.4125 424.9692,-101.2887 444.6374,-91.2758"/>
<polygon fill="#191970" stroke="#191970" points="446.4144,-94.2986 453.7382,-86.6427 443.2386,-88.0605 446.4144,-94.2986"/>
</g>
<!-- Node10&#45;&gt;Node13 -->
<g id="edge18" class="edge">
<title>Node10&#45;&gt;Node13</title>
<path fill="none" stroke="#191970" d="M431.3977,-123.4976C481.1146,-115.4869 543.0397,-102.809 563.6791,-87 580.7066,-73.9576 590.9357,-51.0633 596.4215,-34.6938"/>
<polygon fill="#191970" stroke="#191970" points="599.7938,-35.6341 599.3653,-25.0479 593.0987,-33.5908 599.7938,-35.6341"/>
</g>
<!-- Node12&#45;&gt;Node8 -->
<g id="edge15" class="edge">
<title>Node12&#45;&gt;Node8</title>
<path fill="none" stroke="#191970" d="M442.9916,-67.3906C410.3646,-56.8298 357.8165,-39.8208 321.8367,-28.1747"/>
<polygon fill="#191970" stroke="#191970" points="322.75,-24.7916 312.1582,-25.0419 320.5943,-31.4514 322.75,-24.7916"/>
</g>
<!-- Node12&#45;&gt;Node11 -->
<g id="edge16" class="edge">
<title>Node12&#45;&gt;Node11</title>
<path fill="none" stroke="#191970" d="M461.8979,-67.3906C451.3265,-57.9683 434.9966,-43.4134 422.3188,-32.1137"/>
<polygon fill="#191970" stroke="#191970" points="424.4064,-29.2858 414.6124,-25.2449 419.7487,-34.5114 424.4064,-29.2858"/>
</g>
<!-- Node12&#45;&gt;Node13 -->
<g id="edge17" class="edge">
<title>Node12&#45;&gt;Node13</title>
<path fill="none" stroke="#191970" d="M492.8354,-67.3906C514.2301,-57.1908 548.2411,-40.9763 572.5493,-29.3875"/>
<polygon fill="#191970" stroke="#191970" points="574.144,-32.5047 581.6644,-25.0419 571.1315,-26.186 574.144,-32.5047"/>
</g>
<!-- Node14&#45;&gt;Node13 -->
<g id="edge23" class="edge">
<title>Node14&#45;&gt;Node13</title>
<path fill="none" stroke="#191970" d="M835.8114,-123.3845C790.6841,-102.5905 683.8805,-53.3771 631.5815,-29.2785"/>
<polygon fill="#191970" stroke="#191970" points="633.0245,-26.0898 622.4776,-25.0836 630.095,-32.4474 633.0245,-26.0898"/>
</g>
<!-- Node15 -->
<g id="node16" class="node">
<title>Node15</title>
<polygon fill="none" stroke="#bfbfbf" points="834.6791,-67.5 834.6791,-86.5 878.6791,-86.5 878.6791,-67.5 834.6791,-67.5"/>
<text text-anchor="middle" x="856.6791" y="-74.5" font-family="Helvetica,sans-Serif" font-size="10.00" fill="#000000">string</text>
</g>
<!-- Node14&#45;&gt;Node15 -->
<g id="edge24" class="edge">
<title>Node14&#45;&gt;Node15</title>
<path fill="none" stroke="#191970" d="M856.6791,-123.2455C856.6791,-115.9382 856.6791,-105.6944 856.6791,-96.7046"/>
<polygon fill="#191970" stroke="#191970" points="860.1792,-96.6426 856.6791,-86.6427 853.1792,-96.6427 860.1792,-96.6426"/>
</g>
<!-- Node16 -->
<g id="node17" class="node">
<title>Node16</title>
<g id="a_node17"><a xlink:href="../../dc/d73/Cartesian_8h.html" target="_top" xlink:title="MathUtils/Cartesian.h">
<polygon fill="none" stroke="#000000" points="1045.6791,-67.5 1045.6791,-86.5 1167.6791,-86.5 1167.6791,-67.5 1045.6791,-67.5"/>
<text text-anchor="middle" x="1106.6791" y="-74.5" font-family="Helvetica,sans-Serif" font-size="10.00" fill="#000000">MathUtils/Cartesian.h</text>
</a>
</g>
</g>
<!-- Node14&#45;&gt;Node16 -->
<g id="edge25" class="edge">
<title>Node14&#45;&gt;Node16</title>
<path fill="none" stroke="#191970" d="M899.3716,-123.4369C942.2471,-113.8328 1008.3796,-99.0191 1054.3793,-88.7152"/>
<polygon fill="#191970" stroke="#191970" points="1055.1696,-92.1249 1064.1627,-86.5237 1053.6395,-85.2942 1055.1696,-92.1249"/>
</g>
<!-- Node16&#45;&gt;Node13 -->
<g id="edge33" class="edge">
<title>Node16&#45;&gt;Node13</title>
<path fill="none" stroke="#191970" d="M1045.4012,-73.17C936.8229,-66.0168 715.0032,-49.6519 639.6791,-31 637.0467,-30.3482 634.357,-29.5475 631.6853,-28.6567"/>
<polygon fill="#191970" stroke="#191970" points="632.8156,-25.3429 622.2226,-25.1405 630.3773,-31.9045 632.8156,-25.3429"/>
</g>
<!-- Node17 -->
<g id="node18" class="node">
<title>Node17</title>
<polygon fill="none" stroke="#bfbfbf" points="1024.6791,-.5 1024.6791,-30.5 1188.6791,-30.5 1188.6791,-.5 1024.6791,-.5"/>
<text text-anchor="start" x="1032.6791" y="-18.5" font-family="Helvetica,sans-Serif" font-size="10.00" fill="#000000">Math/GenVector/Displacement</text>
<text text-anchor="middle" x="1106.6791" y="-7.5" font-family="Helvetica,sans-Serif" font-size="10.00" fill="#000000">Vector3D.h</text>
</g>
<!-- Node16&#45;&gt;Node17 -->
<g id="edge26" class="edge">
<title>Node16&#45;&gt;Node17</title>
<path fill="none" stroke="#191970" d="M1106.6791,-67.3906C1106.6791,-60.2234 1106.6791,-50.0862 1106.6791,-40.671"/>
<polygon fill="#191970" stroke="#191970" points="1110.1792,-40.5446 1106.6791,-30.5446 1103.1792,-40.5446 1110.1792,-40.5446"/>
</g>
<!-- Node18 -->
<g id="node19" class="node">
<title>Node18</title>
<polygon fill="none" stroke="#bfbfbf" points="1207.1791,-6 1207.1791,-25 1396.1791,-25 1396.1791,-6 1207.1791,-6"/>
<text text-anchor="middle" x="1301.6791" y="-13" font-family="Helvetica,sans-Serif" font-size="10.00" fill="#000000">Math/GenVector/PositionVector3D.h</text>
</g>
<!-- Node16&#45;&gt;Node18 -->
<g id="edge27" class="edge">
<title>Node16&#45;&gt;Node18</title>
<path fill="none" stroke="#191970" d="M1137.1479,-67.3906C1170.6336,-56.8298 1224.5644,-39.8208 1261.4911,-28.1747"/>
<polygon fill="#191970" stroke="#191970" points="1262.9402,-31.3877 1271.4243,-25.0419 1260.8346,-24.7118 1262.9402,-31.3877"/>
</g>
<!-- Node19 -->
<g id="node20" class="node">
<title>Node19</title>
<polygon fill="none" stroke="#bfbfbf" points="1414.6791,-6 1414.6791,-25 1574.6791,-25 1574.6791,-6 1414.6791,-6"/>
<text text-anchor="middle" x="1494.6791" y="-13" font-family="Helvetica,sans-Serif" font-size="10.00" fill="#000000">Math/GenVector/Rotation3D.h</text>
</g>
<!-- Node16&#45;&gt;Node19 -->
<g id="edge28" class="edge">
<title>Node16&#45;&gt;Node19</title>
<path fill="none" stroke="#191970" d="M1167.7224,-67.9699C1228.1886,-58.94 1323.4019,-44.4923 1405.6791,-31 1413.9111,-29.6501 1422.5642,-28.192 1431.1081,-26.729"/>
<polygon fill="#191970" stroke="#191970" points="1431.7953,-30.1623 1441.056,-25.0155 1430.607,-23.2639 1431.7953,-30.1623"/>
</g>
<!-- Node20 -->
<g id="node21" class="node">
<title>Node20</title>
<polygon fill="none" stroke="#bfbfbf" points="1592.6791,-6 1592.6791,-25 1760.6791,-25 1760.6791,-6 1592.6791,-6"/>
<text text-anchor="middle" x="1676.6791" y="-13" font-family="Helvetica,sans-Serif" font-size="10.00" fill="#000000">Math/GenVector/Transform3D.h</text>
</g>
<!-- Node16&#45;&gt;Node20 -->
<g id="edge29" class="edge">
<title>Node16&#45;&gt;Node20</title>
<path fill="none" stroke="#191970" d="M1167.823,-72.4616C1258.7236,-65.4073 1434.7888,-50.563 1583.6791,-31 1593.1947,-29.7497 1603.2299,-28.2591 1613.0477,-26.7038"/>
<polygon fill="#191970" stroke="#191970" points="1613.8562,-30.1186 1623.1692,-25.0669 1612.7386,-23.2084 1613.8562,-30.1186"/>
</g>
<!-- Node21 -->
<g id="node22" class="node">
<title>Node21</title>
<polygon fill="none" stroke="#bfbfbf" points="1779.1791,-6 1779.1791,-25 1952.1791,-25 1952.1791,-6 1779.1791,-6"/>
<text text-anchor="middle" x="1865.6791" y="-13" font-family="Helvetica,sans-Serif" font-size="10.00" fill="#000000">Math/GenVector/Translation3D.h</text>
</g>
<!-- Node16&#45;&gt;Node21 -->
<g id="edge30" class="edge">
<title>Node16&#45;&gt;Node21</title>
<path fill="none" stroke="#191970" d="M1168.092,-74.6043C1285.3339,-69.6178 1549.0297,-56.4142 1769.6791,-31 1780.1647,-29.7923 1791.2543,-28.25 1802.0277,-26.6086"/>
<polygon fill="#191970" stroke="#191970" points="1802.8911,-30.0162 1812.2298,-25.0122 1801.8089,-23.1003 1802.8911,-30.0162"/>
</g>
<!-- Node22 -->
<g id="node23" class="node">
<title>Node22</title>
<polygon fill="none" stroke="#bfbfbf" points="1970.6791,-.5 1970.6791,-30.5 2134.6791,-30.5 2134.6791,-.5 1970.6791,-.5"/>
<text text-anchor="start" x="1978.6791" y="-18.5" font-family="Helvetica,sans-Serif" font-size="10.00" fill="#000000">Math/GenVector/Displacement</text>
<text text-anchor="middle" x="2052.6791" y="-7.5" font-family="Helvetica,sans-Serif" font-size="10.00" fill="#000000">Vector2D.h</text>
</g>
<!-- Node16&#45;&gt;Node22 -->
<g id="edge31" class="edge">
<title>Node16&#45;&gt;Node22</title>
<path fill="none" stroke="#191970" d="M1167.7833,-76.121C1306.7598,-73.6019 1657.2985,-64.3159 1960.1004,-31.092"/>
<polygon fill="#191970" stroke="#191970" points="1960.8456,-34.5309 1970.3992,-29.9506 1960.0745,-27.5735 1960.8456,-34.5309"/>
</g>
<!-- Node23 -->
<g id="node24" class="node">
<title>Node23</title>
<polygon fill="none" stroke="#bfbfbf" points="649.1791,-6 649.1791,-25 838.1791,-25 838.1791,-6 649.1791,-6"/>
<text text-anchor="middle" x="743.6791" y="-13" font-family="Helvetica,sans-Serif" font-size="10.00" fill="#000000">Math/GenVector/PositionVector2D.h</text>
</g>
<!-- Node16&#45;&gt;Node23 -->
<g id="edge32" class="edge">
<title>Node16&#45;&gt;Node23</title>
<path fill="none" stroke="#191970" d="M1050.3587,-67.4581C985.3502,-56.4443 878.5679,-38.3531 809.7081,-26.6867"/>
<polygon fill="#191970" stroke="#191970" points="810.2772,-23.2333 799.833,-25.0137 809.1079,-30.135 810.2772,-23.2333"/>
</g>
<!-- Node24 -->
<g id="node25" class="node">
<title>Node24</title>
<polygon fill="none" stroke="#bfbfbf" points="856.6791,-6 856.6791,-25 938.6791,-25 938.6791,-6 856.6791,-6"/>
<text text-anchor="middle" x="897.6791" y="-13" font-family="Helvetica,sans-Serif" font-size="10.00" fill="#000000">TGeoMatrix.h</text>
</g>
<!-- Node16&#45;&gt;Node24 -->
<g id="edge34" class="edge">
<title>Node16&#45;&gt;Node24</title>
<path fill="none" stroke="#191970" d="M1073.1242,-67.4923C1040.9073,-58.3165 990.8967,-43.949 947.6791,-31 944.5015,-30.0479 941.2136,-29.0522 937.9115,-28.0447"/>
<polygon fill="#191970" stroke="#191970" points="938.6451,-24.6088 928.0582,-25.0186 936.59,-31.3003 938.6451,-24.6088"/>
</g>
<!-- Node25 -->
<g id="node26" class="node">
<title>Node25</title>
<polygon fill="none" stroke="#bfbfbf" points="957.1791,-6 957.1791,-25 1006.1791,-25 1006.1791,-6 957.1791,-6"/>
<text text-anchor="middle" x="981.6791" y="-13" font-family="Helvetica,sans-Serif" font-size="10.00" fill="#000000">iosfwd</text>
</g>
<!-- Node16&#45;&gt;Node25 -->
<g id="edge35" class="edge">
<title>Node16&#45;&gt;Node25</title>
<path fill="none" stroke="#191970" d="M1087.1479,-67.3906C1066.5083,-57.2359 1033.7515,-41.1196 1010.2189,-29.5416"/>
<polygon fill="#191970" stroke="#191970" points="1011.5912,-26.3161 1001.0732,-25.0419 1008.5009,-32.5971 1011.5912,-26.3161"/>
</g>
</g>
</svg>
        <g id="navigator" transform="translate(0 0)" fill="#404254">
                <rect fill="#f2f5e9" fill-opacity="0.5" stroke="#606060" stroke-width=".5" x="0" y="0" width="60" height="60"/>
                <use id="zoomplus" xlink:href="#zoomPlus" x="17" y="9" onmousedown="handleZoom(evt,'in')"/>
                <use id="zoomminus" xlink:href="#zoomMin" x="42" y="9" onmousedown="handleZoom(evt,'out')"/>
                <use id="reset" xlink:href="#resetDef" x="30" y="36" onmousedown="handleReset()"/>
                <g id="arrowUp" xlink:href="#dirArrow" transform="translate(30 24)" onmousedown="handlePan(0,-1)">
                  <use xlink:href="#rim" fill="#404040">
                        <set attributeName="fill" to="#808080" begin="arrowUp.mouseover" end="arrowUp.mouseout"/>
                  </use>
                  <path fill="none" stroke="white" stroke-width="1.5" d="M0,-3.0v7 M-2.5,-0.5L0,-3.0L2.5,-0.5"/>
                </g>
                <g id="arrowRight" xlink:href="#dirArrow" transform="rotate(90) translate(36 -43)" onmousedown="handlePan(1,0)">
                  <use xlink:href="#rim" fill="#404040">
                        <set attributeName="fill" to="#808080" begin="arrowRight.mouseover" end="arrowRight.mouseout"/>
                  </use>
                  <path fill="none" stroke="white" stroke-width="1.5" d="M0,-3.0v7 M-2.5,-0.5L0,-3.0L2.5,-0.5"/>
                </g>
                <g id="arrowDown" xlink:href="#dirArrow" transform="rotate(180) translate(-30 -48)" onmousedown="handlePan(0,1)">
                  <use xlink:href="#rim" fill="#404040">
                        <set attributeName="fill" to="#808080" begin="arrowDown.mouseover" end="arrowDown.mouseout"/>
                  </use>
                  <path fill="none" stroke="white" stroke-width="1.5" d="M0,-3.0v7 M-2.5,-0.5L0,-3.0L2.5,-0.5"/>
                </g>
                <g id="arrowLeft" xlink:href="#dirArrow" transform="rotate(270) translate(-36 17)" onmousedown="handlePan(-1,0)">
                  <use xlink:href="#rim" fill="#404040">
                        <set attributeName="fill" to="#808080" begin="arrowLeft.mouseover" end="arrowLeft.mouseout"/>
                  </use>
                  <path fill="none" stroke="white" stroke-width="1.5" d="M0,-3.0v7 M-2.5,-0.5L0,-3.0L2.5,-0.5"/>
                </g>
        </g>
        <svg viewBox="0 0 15 15" width="100%" height="30px" preserveAspectRatio="xMaxYMin meet">
         <g id="arrow_out" transform="scale(0.3 0.3)">
          <a xlink:href="MagneticField_8cxx__incl_org.svg" target="_base">
           <rect id="button" ry="5" rx="5" y="6" x="6" height="38" width="38"
                fill="#f2f5e9" fill-opacity="0.5" stroke="#606060" stroke-width="1.0"/>
           <path id="arrow"
             d="M 11.500037,31.436501 C 11.940474,20.09759 22.043105,11.32322 32.158766,21.979434 L 37.068811,17.246167 C 37.068811,17.246167 37.088388,32 37.088388,32 L 22.160133,31.978069 C 22.160133,31.978069 26.997745,27.140456 26.997745,27.140456 C 18.528582,18.264221 13.291696,25.230495 11.500037,31.436501 z"
             style="fill:#404040;"/>
          </a>
         </g>
        </svg>
</svg>
