<?xml version="1.0" encoding="UTF-8" standalone="no"?>
<!DOCTYPE svg PUBLIC "-//W3C//DTD SVG 1.1//EN"
 "http://www.w3.org/Graphics/SVG/1.1/DTD/svg11.dtd">
<!-- Generated by graphviz version 2.40.1 (20161225.0304)
 -->
<!-- Title: /home/travis/build/AliceO2Group/AliceO2/Detectors/TPC/simulation/src/PadResponse.cxx Pages: 1 -->
<!--zoomable 576 -->
<svg id="main" version="1.1" xmlns="http://www.w3.org/2000/svg" xmlns:xlink="http://www.w3.org/1999/xlink" xml:space="preserve" onload="init(evt)">
<style type="text/css"><![CDATA[
.edge:hover path { stroke: red; }
.edge:hover polygon { stroke: red; fill: red; }
]]></style>
<script type="text/javascript"><![CDATA[
var edges = document.getElementsByTagName('g');
if (edges && edges.length) {
  for (var i=0;i<edges.length;i++) {
    if (edges[i].id.substr(0,4)=='edge') {
      edges[i].setAttribute('class','edge');
    }
  }
}
]]></script>
        <defs>
                <circle id="rim" cx="0" cy="0" r="7"/>
                <circle id="rim2" cx="0" cy="0" r="3.5"/>
                <g id="zoomPlus">
                        <use xlink:href="#rim" fill="#404040">
                                <set attributeName="fill" to="#808080" begin="zoomplus.mouseover" end="zoomplus.mouseout"/>
                        </use>
                        <path d="M-4,0h8M0,-4v8" fill="none" stroke="white" stroke-width="1.5" pointer-events="none"/>
                </g>
                <g id="zoomMin">
                        <use xlink:href="#rim" fill="#404040">
                                <set attributeName="fill" to="#808080" begin="zoomminus.mouseover" end="zoomminus.mouseout"/>
                        </use>
                        <path d="M-4,0h8" fill="none" stroke="white" stroke-width="1.5" pointer-events="none"/>
                </g>
                <g id="dirArrow">
                        <path fill="none" stroke="white" stroke-width="1.5" d="M0,-3.0v7 M-2.5,-0.5L0,-3.0L2.5,-0.5"/>
                </g>
               <g id="resetDef">
                       <use xlink:href="#rim2" fill="#404040">
                               <set attributeName="fill" to="#808080" begin="reset.mouseover" end="reset.mouseout"/>
                       </use>
               </g>
        </defs>

<script type="text/javascript">
var viewWidth = 1570;
var viewHeight = 576;
var sectionId = 'dynsection-0';
</script>
<script xlink:href="../../svgpan.js"/>
<svg id="graph" class="graph">
<g id="viewport">
<title>/home/travis/build/AliceO2Group/AliceO2/Detectors/TPC/simulation/src/PadResponse.cxx</title>
<!-- Node0 -->
<g id="node1" class="node">
<title>Node0</title>
<polygon fill="#bfbfbf" stroke="#000000" points="1012.5,-515.5 1012.5,-567.5 1155.5,-567.5 1155.5,-515.5 1012.5,-515.5"/>
<text text-anchor="start" x="1020.5" y="-555.5" font-family="Helvetica,sans-Serif" font-size="10.00" fill="#000000">/home/travis/build</text>
<text text-anchor="start" x="1020.5" y="-544.5" font-family="Helvetica,sans-Serif" font-size="10.00" fill="#000000">/AliceO2Group/AliceO2</text>
<text text-anchor="start" x="1020.5" y="-533.5" font-family="Helvetica,sans-Serif" font-size="10.00" fill="#000000">/Detectors/TPC/simulation</text>
<text text-anchor="middle" x="1084" y="-522.5" font-family="Helvetica,sans-Serif" font-size="10.00" fill="#000000">/src/PadResponse.cxx</text>
</g>
<!-- Node1 -->
<g id="node2" class="node">
<title>Node1</title>
<g id="a_node2"><a xlink:href="../../d4/d43/TPC_2simulation_2include_2TPCSimulation_2PadResponse_8h.html" target="_top" xlink:title="TPCSimulation/PadResponse.h">
<polygon fill="none" stroke="#000000" points="826,-459.5 826,-478.5 990,-478.5 990,-459.5 826,-459.5"/>
<text text-anchor="middle" x="908" y="-466.5" font-family="Helvetica,sans-Serif" font-size="10.00" fill="#000000">TPCSimulation/PadResponse.h</text>
</a>
</g>
</g>
<!-- Node0&#45;&gt;Node1 -->
<g id="edge1" class="edge">
<title>Node0&#45;&gt;Node1</title>
<path fill="none" stroke="#191970" d="M1020.46,-515.3258C993.3565,-504.161 962.8903,-491.6111 940.5113,-482.3924"/>
<polygon fill="#191970" stroke="#191970" points="941.724,-479.1067 931.1446,-478.534 939.0577,-485.5791 941.724,-479.1067"/>
</g>
<!-- Node3 -->
<g id="node4" class="node">
<title>Node3</title>
<g id="a_node4"><a xlink:href="../../d5/d1d/TPC_2base_2include_2TPCBase_2Mapper_8h.html" target="_top" xlink:title="TPCBase/Mapper.h">
<polygon fill="none" stroke="#000000" points="920.5,-403.5 920.5,-422.5 1027.5,-422.5 1027.5,-403.5 920.5,-403.5"/>
<text text-anchor="middle" x="974" y="-410.5" font-family="Helvetica,sans-Serif" font-size="10.00" fill="#000000">TPCBase/Mapper.h</text>
</a>
</g>
</g>
<!-- Node0&#45;&gt;Node3 -->
<g id="edge52" class="edge">
<title>Node0&#45;&gt;Node3</title>
<path fill="none" stroke="#191970" d="M1061.7399,-515.4961C1040.0148,-490.1172 1007.5742,-452.2208 988.8285,-430.3224"/>
<polygon fill="#191970" stroke="#191970" points="991.3064,-427.8348 982.1444,-422.5142 985.9886,-432.387 991.3064,-427.8348"/>
</g>
<!-- Node7 -->
<g id="node8" class="node">
<title>Node7</title>
<polygon fill="none" stroke="#bfbfbf" points="1382,-347.5 1382,-366.5 1426,-366.5 1426,-347.5 1382,-347.5"/>
<text text-anchor="middle" x="1404" y="-354.5" font-family="Helvetica,sans-Serif" font-size="10.00" fill="#000000">string</text>
</g>
<!-- Node0&#45;&gt;Node7 -->
<g id="edge55" class="edge">
<title>Node0&#45;&gt;Node7</title>
<path fill="none" stroke="#191970" d="M1072.9632,-515.267C1067.4706,-497.7157 1064.2261,-474.9915 1076,-459 1080.5562,-452.8117 1290.5352,-390.4277 1372.0878,-366.3818"/>
<polygon fill="#191970" stroke="#191970" points="1373.2176,-369.6978 1381.8208,-363.5143 1371.2393,-362.9831 1373.2176,-369.6978"/>
</g>
<!-- Node8 -->
<g id="node9" class="node">
<title>Node8</title>
<polygon fill="none" stroke="#bfbfbf" points="368.5,-67.5 368.5,-86.5 415.5,-86.5 415.5,-67.5 368.5,-67.5"/>
<text text-anchor="middle" x="392" y="-74.5" font-family="Helvetica,sans-Serif" font-size="10.00" fill="#000000">cmath</text>
</g>
<!-- Node0&#45;&gt;Node8 -->
<g id="edge57" class="edge">
<title>Node0&#45;&gt;Node8</title>
<path fill="none" stroke="#191970" d="M1012.3415,-536.3707C828.4136,-522.2501 354,-479.3932 354,-413 354,-413 354,-413 354,-189 354,-154.6118 370.2634,-117.2832 381.511,-95.5791"/>
<polygon fill="#191970" stroke="#191970" points="384.7317,-96.9804 386.393,-86.5166 378.569,-93.6605 384.7317,-96.9804"/>
</g>
<!-- Node33 -->
<g id="node34" class="node">
<title>Node33</title>
<polygon fill="none" stroke="#bfbfbf" points="1084.5,-459.5 1084.5,-478.5 1139.5,-478.5 1139.5,-459.5 1084.5,-459.5"/>
<text text-anchor="middle" x="1112" y="-466.5" font-family="Helvetica,sans-Serif" font-size="10.00" fill="#000000">fstream</text>
</g>
<!-- Node0&#45;&gt;Node33 -->
<g id="edge53" class="edge">
<title>Node0&#45;&gt;Node33</title>
<path fill="none" stroke="#191970" d="M1094.1086,-515.3258C1097.5891,-506.3139 1101.4181,-496.3995 1104.6378,-488.063"/>
<polygon fill="#191970" stroke="#191970" points="1107.9801,-489.1235 1108.3179,-478.534 1101.4502,-486.6015 1107.9801,-489.1235"/>
</g>
<!-- Node34 -->
<g id="node35" class="node">
<title>Node34</title>
<polygon fill="none" stroke="#bfbfbf" points="1158,-459.5 1158,-478.5 1218,-478.5 1218,-459.5 1158,-459.5"/>
<text text-anchor="middle" x="1188" y="-466.5" font-family="Helvetica,sans-Serif" font-size="10.00" fill="#000000">iostream</text>
</g>
<!-- Node0&#45;&gt;Node34 -->
<g id="edge54" class="edge">
<title>Node0&#45;&gt;Node34</title>
<path fill="none" stroke="#191970" d="M1121.5464,-515.3258C1136.4848,-504.912 1153.1519,-493.2931 1166.0575,-484.2965"/>
<polygon fill="#191970" stroke="#191970" points="1168.1218,-487.124 1174.3236,-478.534 1164.1186,-481.3816 1168.1218,-487.124"/>
</g>
<!-- Node35 -->
<g id="node36" class="node">
<title>Node35</title>
<polygon fill="none" stroke="#bfbfbf" points="1236,-459.5 1236,-478.5 1292,-478.5 1292,-459.5 1236,-459.5"/>
<text text-anchor="middle" x="1264" y="-466.5" font-family="Helvetica,sans-Serif" font-size="10.00" fill="#000000">sstream</text>
</g>
<!-- Node0&#45;&gt;Node35 -->
<g id="edge56" class="edge">
<title>Node0&#45;&gt;Node35</title>
<path fill="none" stroke="#191970" d="M1148.7298,-515.4283C1176.5981,-504.2035 1207.9841,-491.5619 1230.9609,-482.3074"/>
<polygon fill="#191970" stroke="#191970" points="1232.2902,-485.5453 1240.2584,-478.5626 1229.6749,-479.0522 1232.2902,-485.5453"/>
</g>
<!-- Node36 -->
<g id="node37" class="node">
<title>Node36</title>
<polygon fill="none" stroke="#bfbfbf" points="1310.5,-459.5 1310.5,-478.5 1385.5,-478.5 1385.5,-459.5 1310.5,-459.5"/>
<text text-anchor="middle" x="1348" y="-466.5" font-family="Helvetica,sans-Serif" font-size="10.00" fill="#000000">FairLogger.h</text>
</g>
<!-- Node0&#45;&gt;Node36 -->
<g id="edge58" class="edge">
<title>Node0&#45;&gt;Node36</title>
<path fill="none" stroke="#191970" d="M1155.7904,-521.7848C1202.9444,-508.8353 1263.1446,-492.3031 1303.4967,-481.2216"/>
<polygon fill="#191970" stroke="#191970" points="1304.5919,-484.5504 1313.308,-478.5272 1302.7381,-477.8003 1304.5919,-484.5504"/>
</g>
<!-- Node2 -->
<g id="node3" class="node">
<title>Node2</title>
<polygon fill="none" stroke="#bfbfbf" points="828,-403.5 828,-422.5 902,-422.5 902,-403.5 828,-403.5"/>
<text text-anchor="middle" x="865" y="-410.5" font-family="Helvetica,sans-Serif" font-size="10.00" fill="#000000">TGraph2D.h</text>
</g>
<!-- Node1&#45;&gt;Node2 -->
<g id="edge2" class="edge">
<title>Node1&#45;&gt;Node2</title>
<path fill="none" stroke="#191970" d="M900.51,-459.2455C894.4674,-451.3761 885.8097,-440.101 878.5559,-430.6542"/>
<polygon fill="#191970" stroke="#191970" points="881.2705,-428.4426 872.4042,-422.6427 875.7185,-432.7058 881.2705,-428.4426"/>
</g>
<!-- Node1&#45;&gt;Node3 -->
<g id="edge3" class="edge">
<title>Node1&#45;&gt;Node3</title>
<path fill="none" stroke="#191970" d="M919.4963,-459.2455C929.2442,-450.9746 943.4259,-438.9416 954.8798,-429.2232"/>
<polygon fill="#191970" stroke="#191970" points="957.2747,-431.7813 962.6354,-422.6427 952.7459,-426.4437 957.2747,-431.7813"/>
</g>
<!-- Node4 -->
<g id="node5" class="node">
<title>Node4</title>
<polygon fill="none" stroke="#bfbfbf" points="1212,-347.5 1212,-366.5 1250,-366.5 1250,-347.5 1212,-347.5"/>
<text text-anchor="middle" x="1231" y="-354.5" font-family="Helvetica,sans-Serif" font-size="10.00" fill="#000000">map</text>
</g>
<!-- Node3&#45;&gt;Node4 -->
<g id="edge4" class="edge">
<title>Node3&#45;&gt;Node4</title>
<path fill="none" stroke="#191970" d="M1027.7292,-404.473C1072.1863,-396.9072 1137.0842,-384.6904 1201.865,-367.0207"/>
<polygon fill="#191970" stroke="#191970" points="1203.1361,-370.3004 1211.8378,-364.2563 1201.2662,-363.5548 1203.1361,-370.3004"/>
</g>
<!-- Node5 -->
<g id="node6" class="node">
<title>Node5</title>
<polygon fill="none" stroke="#bfbfbf" points="1046.5,-291.5 1046.5,-310.5 1093.5,-310.5 1093.5,-291.5 1046.5,-291.5"/>
<text text-anchor="middle" x="1070" y="-298.5" font-family="Helvetica,sans-Serif" font-size="10.00" fill="#000000">vector</text>
</g>
<!-- Node3&#45;&gt;Node5 -->
<g id="edge5" class="edge">
<title>Node3&#45;&gt;Node5</title>
<path fill="none" stroke="#191970" d="M974.5667,-403.499C975.8308,-389.7255 979.9038,-364.004 993,-347 1004.2521,-332.3904 1021.571,-321.4538 1036.936,-313.9184"/>
<polygon fill="#191970" stroke="#191970" points="1038.5586,-317.0245 1046.1787,-309.6636 1035.6314,-310.6659 1038.5586,-317.0245"/>
</g>
<!-- Node6 -->
<g id="node7" class="node">
<title>Node6</title>
<polygon fill="none" stroke="#bfbfbf" points="1002,-347.5 1002,-366.5 1044,-366.5 1044,-347.5 1002,-347.5"/>
<text text-anchor="middle" x="1023" y="-354.5" font-family="Helvetica,sans-Serif" font-size="10.00" fill="#000000">array</text>
</g>
<!-- Node3&#45;&gt;Node6 -->
<g id="edge6" class="edge">
<title>Node3&#45;&gt;Node6</title>
<path fill="none" stroke="#191970" d="M982.5351,-403.2455C989.4912,-395.2958 999.4883,-383.8706 1007.8051,-374.3656"/>
<polygon fill="#191970" stroke="#191970" points="1010.6116,-376.4732 1014.5627,-366.6427 1005.3436,-371.8637 1010.6116,-376.4732"/>
</g>
<!-- Node3&#45;&gt;Node7 -->
<g id="edge7" class="edge">
<title>Node3&#45;&gt;Node7</title>
<path fill="none" stroke="#191970" d="M1027.797,-404.906C1032.5969,-404.2392 1037.3844,-403.594 1042,-403 1186.5772,-384.3927 1224.8664,-394.5965 1368,-367 1369.254,-366.7582 1370.528,-366.4945 1371.8115,-366.2136"/>
<polygon fill="#191970" stroke="#191970" points="1372.7814,-369.5797 1381.6639,-363.8045 1371.1187,-362.78 1372.7814,-369.5797"/>
</g>
<!-- Node3&#45;&gt;Node8 -->
<g id="edge8" class="edge">
<title>Node3&#45;&gt;Node8</title>
<path fill="none" stroke="#191970" d="M920.4205,-404.2275C917.2363,-403.7894 914.078,-403.376 911,-403 725.471,-380.3349 668.5463,-428.3686 492,-367 441.7004,-349.5156 392,-354.2518 392,-301 392,-301 392,-301 392,-189 392,-156.7116 392,-119.1872 392,-96.8048"/>
<polygon fill="#191970" stroke="#191970" points="395.5001,-96.5883 392,-86.5884 388.5001,-96.5884 395.5001,-96.5883"/>
</g>
<!-- Node9 -->
<g id="node10" class="node">
<title>Node9</title>
<g id="a_node10"><a xlink:href="../../d1/d73/Defs_8h.html" target="_top" xlink:title="DataFormatsTPC/Defs.h">
<polygon fill="none" stroke="#000000" points="834.5,-123.5 834.5,-142.5 967.5,-142.5 967.5,-123.5 834.5,-123.5"/>
<text text-anchor="middle" x="901" y="-130.5" font-family="Helvetica,sans-Serif" font-size="10.00" fill="#000000">DataFormatsTPC/Defs.h</text>
</a>
</g>
</g>
<!-- Node3&#45;&gt;Node9 -->
<g id="edge9" class="edge">
<title>Node3&#45;&gt;Node9</title>
<path fill="none" stroke="#191970" d="M1027.6473,-411.0475C1100.5224,-407.2997 1225.573,-396.6303 1259,-367 1281.8424,-346.7521 1278,-331.5246 1278,-301 1278,-301 1278,-301 1278,-245 1278,-182.9266 1087.821,-152.5296 977.6119,-140.1258"/>
<polygon fill="#191970" stroke="#191970" points="977.8551,-136.6315 967.5322,-139.0163 977.0892,-143.5895 977.8551,-136.6315"/>
</g>
<!-- Node11 -->
<g id="node12" class="node">
<title>Node11</title>
<g id="a_node12"><a xlink:href="../../dc/d73/Cartesian_8h.html" target="_top" xlink:title="MathUtils/Cartesian.h">
<polygon fill="none" stroke="#000000" points="914,-67.5 914,-86.5 1036,-86.5 1036,-67.5 914,-67.5"/>
<text text-anchor="middle" x="975" y="-74.5" font-family="Helvetica,sans-Serif" font-size="10.00" fill="#000000">MathUtils/Cartesian.h</text>
</a>
</g>
</g>
<!-- Node3&#45;&gt;Node11 -->
<g id="edge51" class="edge">
<title>Node3&#45;&gt;Node11</title>
<path fill="none" stroke="#191970" d="M1027.7804,-410.6078C1104.4417,-406.2588 1240.2693,-394.788 1280,-367 1307.3808,-347.8496 1316,-334.4132 1316,-301 1316,-301 1316,-301 1316,-189 1316,-132.7473 1146.3843,-100.1318 1046.4028,-85.7927"/>
<polygon fill="#191970" stroke="#191970" points="1046.7479,-82.3069 1036.3578,-84.3798 1045.7728,-89.2386 1046.7479,-82.3069"/>
</g>
<!-- Node22 -->
<g id="node23" class="node">
<title>Node22</title>
<g id="a_node23"><a xlink:href="../../de/d41/PadPos_8h.html" target="_top" xlink:title="TPCBase/PadPos.h">
<polygon fill="none" stroke="#000000" points="595,-235.5 595,-254.5 701,-254.5 701,-235.5 595,-235.5"/>
<text text-anchor="middle" x="648" y="-242.5" font-family="Helvetica,sans-Serif" font-size="10.00" fill="#000000">TPCBase/PadPos.h</text>
</a>
</g>
</g>
<!-- Node3&#45;&gt;Node22 -->
<g id="edge23" class="edge">
<title>Node3&#45;&gt;Node22</title>
<path fill="none" stroke="#191970" d="M920.4005,-404.3784C917.2213,-403.9024 914.0695,-403.4394 911,-403 848.4624,-394.047 670.7475,-414.4158 629,-367 603.6276,-338.1826 623.0615,-289.9662 637.0229,-263.6043"/>
<polygon fill="#191970" stroke="#191970" points="640.1976,-265.0971 642.001,-254.6569 634.0806,-261.6938 640.1976,-265.0971"/>
</g>
<!-- Node23 -->
<g id="node24" class="node">
<title>Node23</title>
<g id="a_node24"><a xlink:href="../../dd/d0b/PadSecPos_8h.html" target="_top" xlink:title="TPCBase/PadSecPos.h">
<polygon fill="none" stroke="#000000" points="458.5,-291.5 458.5,-310.5 581.5,-310.5 581.5,-291.5 458.5,-291.5"/>
<text text-anchor="middle" x="520" y="-298.5" font-family="Helvetica,sans-Serif" font-size="10.00" fill="#000000">TPCBase/PadSecPos.h</text>
</a>
</g>
</g>
<!-- Node3&#45;&gt;Node23 -->
<g id="edge24" class="edge">
<title>Node3&#45;&gt;Node23</title>
<path fill="none" stroke="#191970" d="M920.4073,-404.3303C917.2263,-403.8663 914.0724,-403.4192 911,-403 771.3823,-383.9503 724.9819,-423.742 596,-367 571.1664,-356.0751 548.5023,-334.1277 534.5095,-318.5448"/>
<polygon fill="#191970" stroke="#191970" points="536.8636,-315.9171 527.6691,-310.6528 531.574,-320.5018 536.8636,-315.9171"/>
</g>
<!-- Node24 -->
<g id="node25" class="node">
<title>Node24</title>
<g id="a_node25"><a xlink:href="../../d3/dd6/Sector_8h.html" target="_top" xlink:title="TPCBase/Sector.h">
<polygon fill="none" stroke="#000000" points="648.5,-179.5 648.5,-198.5 749.5,-198.5 749.5,-179.5 648.5,-179.5"/>
<text text-anchor="middle" x="699" y="-186.5" font-family="Helvetica,sans-Serif" font-size="10.00" fill="#000000">TPCBase/Sector.h</text>
</a>
</g>
</g>
<!-- Node3&#45;&gt;Node24 -->
<g id="edge50" class="edge">
<title>Node3&#45;&gt;Node24</title>
<path fill="none" stroke="#191970" d="M920.4126,-404.29C917.2304,-403.8362 914.0746,-403.4023 911,-403 807.2022,-389.4189 504.1926,-399.9505 449,-311 402.4016,-235.9002 550.182,-205.8271 638.247,-194.7829"/>
<polygon fill="#191970" stroke="#191970" points="638.9011,-198.2295 648.4109,-193.559 638.0641,-191.2798 638.9011,-198.2295"/>
</g>
<!-- Node26 -->
<g id="node27" class="node">
<title>Node26</title>
<g id="a_node27"><a xlink:href="../../da/d61/PadROCPos_8h.html" target="_top" xlink:title="TPCBase/PadROCPos.h">
<polygon fill="none" stroke="#000000" points="714.5,-291.5 714.5,-310.5 841.5,-310.5 841.5,-291.5 714.5,-291.5"/>
<text text-anchor="middle" x="778" y="-298.5" font-family="Helvetica,sans-Serif" font-size="10.00" fill="#000000">TPCBase/PadROCPos.h</text>
</a>
</g>
</g>
<!-- Node3&#45;&gt;Node26 -->
<g id="edge29" class="edge">
<title>Node3&#45;&gt;Node26</title>
<path fill="none" stroke="#191970" d="M927.6956,-403.4458C878.4912,-392.907 806.4659,-376.2226 797,-367 784.6138,-354.9322 780.1637,-335.3549 778.6331,-320.65"/>
<polygon fill="#191970" stroke="#191970" points="782.1175,-320.3001 777.9486,-310.5599 775.1336,-320.7739 782.1175,-320.3001"/>
</g>
<!-- Node28 -->
<g id="node29" class="node">
<title>Node28</title>
<g id="a_node29"><a xlink:href="../../d3/d54/DigitPos_8h.html" target="_top" xlink:title="TPCBase/DigitPos.h">
<polygon fill="none" stroke="#000000" points="638,-347.5 638,-366.5 750,-366.5 750,-347.5 638,-347.5"/>
<text text-anchor="middle" x="694" y="-354.5" font-family="Helvetica,sans-Serif" font-size="10.00" fill="#000000">TPCBase/DigitPos.h</text>
</a>
</g>
</g>
<!-- Node3&#45;&gt;Node28 -->
<g id="edge35" class="edge">
<title>Node3&#45;&gt;Node28</title>
<path fill="none" stroke="#191970" d="M926.1844,-403.4369C877.8619,-393.7724 803.1628,-378.8326 751.6064,-368.5213"/>
<polygon fill="#191970" stroke="#191970" points="752.1106,-365.0529 741.6184,-366.5237 750.7377,-371.9169 752.1106,-365.0529"/>
</g>
<!-- Node30 -->
<g id="node31" class="node">
<title>Node30</title>
<g id="a_node31"><a xlink:href="../../d1/d1f/FECInfo_8h.html" target="_top" xlink:title="TPCBase/FECInfo.h">
<polygon fill="none" stroke="#000000" points="1370,-179.5 1370,-198.5 1478,-198.5 1478,-179.5 1370,-179.5"/>
<text text-anchor="middle" x="1424" y="-186.5" font-family="Helvetica,sans-Serif" font-size="10.00" fill="#000000">TPCBase/FECInfo.h</text>
</a>
</g>
</g>
<!-- Node3&#45;&gt;Node30 -->
<g id="edge43" class="edge">
<title>Node3&#45;&gt;Node30</title>
<path fill="none" stroke="#191970" d="M1027.5625,-412.0065C1114.6881,-409.4295 1282.1949,-400.1787 1330,-367 1385.6581,-328.3709 1410.9251,-246.17 1419.9117,-208.5419"/>
<polygon fill="#191970" stroke="#191970" points="1423.326,-209.3115 1422.1107,-198.7866 1416.4973,-207.7722 1423.326,-209.3115"/>
</g>
<!-- Node31 -->
<g id="node32" class="node">
<title>Node31</title>
<g id="a_node32"><a xlink:href="../../da/d9d/PadRegionInfo_8h.html" target="_top" xlink:title="TPCBase/PadRegionInfo.h">
<polygon fill="none" stroke="#000000" points="806,-347.5 806,-366.5 946,-366.5 946,-347.5 806,-347.5"/>
<text text-anchor="middle" x="876" y="-354.5" font-family="Helvetica,sans-Serif" font-size="10.00" fill="#000000">TPCBase/PadRegionInfo.h</text>
</a>
</g>
</g>
<!-- Node3&#45;&gt;Node31 -->
<g id="edge45" class="edge">
<title>Node3&#45;&gt;Node31</title>
<path fill="none" stroke="#191970" d="M956.9297,-403.2455C941.753,-394.5731 919.3379,-381.7645 901.9437,-371.825"/>
<polygon fill="#191970" stroke="#191970" points="903.2936,-368.5653 892.8747,-366.6427 899.8206,-374.643 903.2936,-368.5653"/>
</g>
<!-- Node32 -->
<g id="node33" class="node">
<title>Node32</title>
<g id="a_node33"><a xlink:href="../../d6/d42/PartitionInfo_8h.html" target="_top" xlink:title="TPCBase/PartitionInfo.h">
<polygon fill="none" stroke="#000000" points="1062.5,-347.5 1062.5,-366.5 1193.5,-366.5 1193.5,-347.5 1062.5,-347.5"/>
<text text-anchor="middle" x="1128" y="-354.5" font-family="Helvetica,sans-Serif" font-size="10.00" fill="#000000">TPCBase/PartitionInfo.h</text>
</a>
</g>
</g>
<!-- Node3&#45;&gt;Node32 -->
<g id="edge49" class="edge">
<title>Node3&#45;&gt;Node32</title>
<path fill="none" stroke="#191970" d="M1000.4735,-403.3733C1025.8597,-394.1419 1064.3645,-380.1402 1092.422,-369.9375"/>
<polygon fill="#191970" stroke="#191970" points="1093.6701,-373.2079 1101.8719,-366.5011 1091.2778,-366.6293 1093.6701,-373.2079"/>
</g>
<!-- Node9&#45;&gt;Node8 -->
<g id="edge10" class="edge">
<title>Node9&#45;&gt;Node8</title>
<path fill="none" stroke="#191970" d="M834.4571,-125.679C724.4819,-113.5795 508.7096,-89.8403 425.6737,-80.7048"/>
<polygon fill="#191970" stroke="#191970" points="425.8626,-77.2045 415.5398,-79.5898 425.0971,-84.1625 425.8626,-77.2045"/>
</g>
<!-- Node10 -->
<g id="node11" class="node">
<title>Node10</title>
<g id="a_node11"><a xlink:href="../../d1/da8/GPUROOTCartesianFwd_8h.html" target="_top" xlink:title="GPUROOTCartesianFwd.h">
<polygon fill="none" stroke="#000000" points="756,-67.5 756,-86.5 896,-86.5 896,-67.5 756,-67.5"/>
<text text-anchor="middle" x="826" y="-74.5" font-family="Helvetica,sans-Serif" font-size="10.00" fill="#000000">GPUROOTCartesianFwd.h</text>
</a>
</g>
</g>
<!-- Node9&#45;&gt;Node10 -->
<g id="edge11" class="edge">
<title>Node9&#45;&gt;Node10</title>
<path fill="none" stroke="#191970" d="M887.936,-123.2455C876.6438,-114.814 860.1155,-102.4729 846.9729,-92.6598"/>
<polygon fill="#191970" stroke="#191970" points="849.0211,-89.8211 838.9143,-86.6427 844.8331,-95.4301 849.0211,-89.8211"/>
</g>
<!-- Node9&#45;&gt;Node11 -->
<g id="edge12" class="edge">
<title>Node9&#45;&gt;Node11</title>
<path fill="none" stroke="#191970" d="M913.8898,-123.2455C924.9254,-114.8943 941.0292,-102.7076 953.9353,-92.9408"/>
<polygon fill="#191970" stroke="#191970" points="956.3959,-95.4681 962.2579,-86.6427 952.1717,-89.8862 956.3959,-95.4681"/>
</g>
<!-- Node12 -->
<g id="node13" class="node">
<title>Node12</title>
<polygon fill="none" stroke="#bfbfbf" points="1123,-.5 1123,-30.5 1287,-30.5 1287,-.5 1123,-.5"/>
<text text-anchor="start" x="1131" y="-18.5" font-family="Helvetica,sans-Serif" font-size="10.00" fill="#000000">Math/GenVector/Displacement</text>
<text text-anchor="middle" x="1205" y="-7.5" font-family="Helvetica,sans-Serif" font-size="10.00" fill="#000000">Vector3D.h</text>
</g>
<!-- Node11&#45;&gt;Node12 -->
<g id="edge13" class="edge">
<title>Node11&#45;&gt;Node12</title>
<path fill="none" stroke="#191970" d="M1010.6851,-67.4581C1044.7944,-58.3376 1097.054,-44.3638 1138.7893,-33.2042"/>
<polygon fill="#191970" stroke="#191970" points="1139.8527,-36.5429 1148.6092,-30.5784 1138.0444,-29.7804 1139.8527,-36.5429"/>
</g>
<!-- Node13 -->
<g id="node14" class="node">
<title>Node13</title>
<polygon fill="none" stroke="#bfbfbf" points="1305.5,-6 1305.5,-25 1494.5,-25 1494.5,-6 1305.5,-6"/>
<text text-anchor="middle" x="1400" y="-13" font-family="Helvetica,sans-Serif" font-size="10.00" fill="#000000">Math/GenVector/PositionVector3D.h</text>
</g>
<!-- Node11&#45;&gt;Node13 -->
<g id="edge14" class="edge">
<title>Node11&#45;&gt;Node13</title>
<path fill="none" stroke="#191970" d="M1036.2538,-68.3265C1100.8589,-59.1539 1205.6162,-44.2113 1296,-31 1305.8218,-29.5644 1316.1632,-28.0393 1326.3603,-26.5276"/>
<polygon fill="#191970" stroke="#191970" points="1327.1074,-29.9551 1336.4848,-25.0241 1326.0791,-23.031 1327.1074,-29.9551"/>
</g>
<!-- Node14 -->
<g id="node15" class="node">
<title>Node14</title>
<polygon fill="none" stroke="#bfbfbf" points="0,-6 0,-25 160,-25 160,-6 0,-6"/>
<text text-anchor="middle" x="80" y="-13" font-family="Helvetica,sans-Serif" font-size="10.00" fill="#000000">Math/GenVector/Rotation3D.h</text>
</g>
<!-- Node11&#45;&gt;Node14 -->
<g id="edge15" class="edge">
<title>Node11&#45;&gt;Node14</title>
<path fill="none" stroke="#191970" d="M913.9566,-67.9386C910.9311,-67.5965 907.9329,-67.2806 905,-67 578.9866,-35.8084 494.4993,-67.1645 169,-31 159.0626,-29.8959 148.5554,-28.3805 138.3784,-26.7271"/>
<polygon fill="#191970" stroke="#191970" points="138.7871,-23.2468 128.3448,-25.0379 137.6249,-30.1496 138.7871,-23.2468"/>
</g>
<!-- Node15 -->
<g id="node16" class="node">
<title>Node15</title>
<polygon fill="none" stroke="#bfbfbf" points="178,-6 178,-25 346,-25 346,-6 178,-6"/>
<text text-anchor="middle" x="262" y="-13" font-family="Helvetica,sans-Serif" font-size="10.00" fill="#000000">Math/GenVector/Transform3D.h</text>
</g>
<!-- Node11&#45;&gt;Node15 -->
<g id="edge16" class="edge">
<title>Node11&#45;&gt;Node15</title>
<path fill="none" stroke="#191970" d="M913.9506,-67.9981C910.9267,-67.6403 907.9305,-67.3048 905,-67 661.3467,-41.6596 598.3423,-59.1713 355,-31 344.7727,-29.816 333.957,-28.2781 323.4593,-26.6318"/>
<polygon fill="#191970" stroke="#191970" points="323.9514,-23.166 313.5215,-25.028 322.8361,-30.0766 323.9514,-23.166"/>
</g>
<!-- Node16 -->
<g id="node17" class="node">
<title>Node16</title>
<polygon fill="none" stroke="#bfbfbf" points="364.5,-6 364.5,-25 537.5,-25 537.5,-6 364.5,-6"/>
<text text-anchor="middle" x="451" y="-13" font-family="Helvetica,sans-Serif" font-size="10.00" fill="#000000">Math/GenVector/Translation3D.h</text>
</g>
<!-- Node11&#45;&gt;Node16 -->
<g id="edge17" class="edge">
<title>Node11&#45;&gt;Node16</title>
<path fill="none" stroke="#191970" d="M913.9365,-68.1238C910.9163,-67.7328 907.9247,-67.3558 905,-67 746.2568,-47.6882 705.5611,-51.7539 547,-31 537.0817,-29.7018 526.6121,-28.1742 516.3776,-26.593"/>
<polygon fill="#191970" stroke="#191970" points="516.673,-23.0965 506.2507,-25.0004 515.5855,-30.0116 516.673,-23.0965"/>
</g>
<!-- Node17 -->
<g id="node18" class="node">
<title>Node17</title>
<polygon fill="none" stroke="#bfbfbf" points="556,-.5 556,-30.5 720,-30.5 720,-.5 556,-.5"/>
<text text-anchor="start" x="564" y="-18.5" font-family="Helvetica,sans-Serif" font-size="10.00" fill="#000000">Math/GenVector/Displacement</text>
<text text-anchor="middle" x="638" y="-7.5" font-family="Helvetica,sans-Serif" font-size="10.00" fill="#000000">Vector2D.h</text>
</g>
<!-- Node11&#45;&gt;Node17 -->
<g id="edge18" class="edge">
<title>Node11&#45;&gt;Node17</title>
<path fill="none" stroke="#191970" d="M922.7135,-67.4581C871.4887,-58.11 792.3255,-43.6633 730.4638,-32.374"/>
<polygon fill="#191970" stroke="#191970" points="730.7669,-28.8715 720.3009,-30.5193 729.5101,-35.7578 730.7669,-28.8715"/>
</g>
<!-- Node18 -->
<g id="node19" class="node">
<title>Node18</title>
<polygon fill="none" stroke="#bfbfbf" points="738.5,-6 738.5,-25 927.5,-25 927.5,-6 738.5,-6"/>
<text text-anchor="middle" x="833" y="-13" font-family="Helvetica,sans-Serif" font-size="10.00" fill="#000000">Math/GenVector/PositionVector2D.h</text>
</g>
<!-- Node11&#45;&gt;Node18 -->
<g id="edge19" class="edge">
<title>Node11&#45;&gt;Node18</title>
<path fill="none" stroke="#191970" d="M952.8125,-67.3906C929.0533,-57.1005 891.1595,-40.6888 864.3575,-29.0809"/>
<polygon fill="#191970" stroke="#191970" points="865.5991,-25.8045 855.0317,-25.0419 862.817,-32.2279 865.5991,-25.8045"/>
</g>
<!-- Node19 -->
<g id="node20" class="node">
<title>Node19</title>
<polygon fill="none" stroke="#bfbfbf" points="945.5,-6 945.5,-25 1004.5,-25 1004.5,-6 945.5,-6"/>
<text text-anchor="middle" x="975" y="-13" font-family="Helvetica,sans-Serif" font-size="10.00" fill="#000000">Rtypes.h</text>
</g>
<!-- Node11&#45;&gt;Node19 -->
<g id="edge20" class="edge">
<title>Node11&#45;&gt;Node19</title>
<path fill="none" stroke="#191970" d="M975,-67.3906C975,-58.8657 975,-46.1392 975,-35.4235"/>
<polygon fill="#191970" stroke="#191970" points="978.5001,-35.2448 975,-25.2449 971.5001,-35.2449 978.5001,-35.2448"/>
</g>
<!-- Node20 -->
<g id="node21" class="node">
<title>Node20</title>
<polygon fill="none" stroke="#bfbfbf" points="1023,-6 1023,-25 1105,-25 1105,-6 1023,-6"/>
<text text-anchor="middle" x="1064" y="-13" font-family="Helvetica,sans-Serif" font-size="10.00" fill="#000000">TGeoMatrix.h</text>
</g>
<!-- Node11&#45;&gt;Node20 -->
<g id="edge21" class="edge">
<title>Node11&#45;&gt;Node20</title>
<path fill="none" stroke="#191970" d="M988.9063,-67.3906C1003.0138,-57.6421 1025.0724,-42.3994 1041.6385,-30.9521"/>
<polygon fill="#191970" stroke="#191970" points="1043.9542,-33.6063 1050.1914,-25.0419 1039.9747,-27.8474 1043.9542,-33.6063"/>
</g>
<!-- Node21 -->
<g id="node22" class="node">
<title>Node21</title>
<polygon fill="none" stroke="#bfbfbf" points="1512.5,-6 1512.5,-25 1561.5,-25 1561.5,-6 1512.5,-6"/>
<text text-anchor="middle" x="1537" y="-13" font-family="Helvetica,sans-Serif" font-size="10.00" fill="#000000">iosfwd</text>
</g>
<!-- Node11&#45;&gt;Node21 -->
<g id="edge22" class="edge">
<title>Node11&#45;&gt;Node21</title>
<path fill="none" stroke="#191970" d="M1036.009,-74.3885C1155.7036,-68.8229 1417.2067,-54.361 1504,-31 1505.9712,-30.4694 1507.9694,-29.8266 1509.9566,-29.1081"/>
<polygon fill="#191970" stroke="#191970" points="1511.7547,-32.1495 1519.6243,-25.0559 1509.0487,-25.6937 1511.7547,-32.1495"/>
</g>
<!-- Node23&#45;&gt;Node22 -->
<g id="edge28" class="edge">
<title>Node23&#45;&gt;Node22</title>
<path fill="none" stroke="#191970" d="M542.004,-291.3733C562.6435,-282.3435 593.7158,-268.7494 616.8889,-258.6111"/>
<polygon fill="#191970" stroke="#191970" points="618.5245,-261.7159 626.2831,-254.5011 615.7187,-255.3028 618.5245,-261.7159"/>
</g>
<!-- Node23&#45;&gt;Node24 -->
<g id="edge25" class="edge">
<title>Node23&#45;&gt;Node24</title>
<path fill="none" stroke="#191970" d="M527.5714,-291.2682C538.9414,-277.2071 561.6982,-251.1309 586,-235 607.5781,-220.677 634.3223,-209.5422 656.375,-201.8176"/>
<polygon fill="#191970" stroke="#191970" points="657.7933,-205.0325 666.1417,-198.5091 655.5474,-198.4026 657.7933,-205.0325"/>
</g>
<!-- Node24&#45;&gt;Node9 -->
<g id="edge27" class="edge">
<title>Node24&#45;&gt;Node9</title>
<path fill="none" stroke="#191970" d="M733.725,-179.3733C767.7508,-169.9404 819.7437,-155.5265 856.7234,-145.2747"/>
<polygon fill="#191970" stroke="#191970" points="858.0266,-148.5455 866.7281,-142.5011 856.1565,-141.7999 858.0266,-148.5455"/>
</g>
<!-- Node25 -->
<g id="node26" class="node">
<title>Node25</title>
<g id="a_node26"><a xlink:href="../../d0/dda/DataFormats_2Detectors_2TPC_2include_2DataFormatsTPC_2Constants_8h.html" target="_top" xlink:title="DataFormatsTPC/Constants.h">
<polygon fill="none" stroke="#000000" points="619.5,-123.5 619.5,-142.5 778.5,-142.5 778.5,-123.5 619.5,-123.5"/>
<text text-anchor="middle" x="699" y="-130.5" font-family="Helvetica,sans-Serif" font-size="10.00" fill="#000000">DataFormatsTPC/Constants.h</text>
</a>
</g>
</g>
<!-- Node24&#45;&gt;Node25 -->
<g id="edge26" class="edge">
<title>Node24&#45;&gt;Node25</title>
<path fill="none" stroke="#191970" d="M699,-179.2455C699,-171.9382 699,-161.6944 699,-152.7046"/>
<polygon fill="#191970" stroke="#191970" points="702.5001,-152.6426 699,-142.6427 695.5001,-152.6427 702.5001,-152.6426"/>
</g>
<!-- Node26&#45;&gt;Node9 -->
<g id="edge30" class="edge">
<title>Node26&#45;&gt;Node9</title>
<path fill="none" stroke="#191970" d="M779.1893,-291.4293C781.1902,-278.0167 786.1297,-253.2292 797,-235 818.4569,-199.0173 855.6926,-166.8924 879.3017,-148.6997"/>
<polygon fill="#191970" stroke="#191970" points="881.452,-151.4617 887.3287,-142.6461 877.2372,-145.8729 881.452,-151.4617"/>
</g>
<!-- Node26&#45;&gt;Node22 -->
<g id="edge34" class="edge">
<title>Node26&#45;&gt;Node22</title>
<path fill="none" stroke="#191970" d="M755.6522,-291.3733C734.5967,-282.3032 702.8505,-268.6279 679.2825,-258.4755"/>
<polygon fill="#191970" stroke="#191970" points="680.625,-255.243 670.0562,-254.5011 677.8556,-261.6719 680.625,-255.243"/>
</g>
<!-- Node27 -->
<g id="node28" class="node">
<title>Node27</title>
<g id="a_node28"><a xlink:href="../../dc/d14/ROC_8h.html" target="_top" xlink:title="TPCBase/ROC.h">
<polygon fill="none" stroke="#000000" points="806,-235.5 806,-254.5 898,-254.5 898,-235.5 806,-235.5"/>
<text text-anchor="middle" x="852" y="-242.5" font-family="Helvetica,sans-Serif" font-size="10.00" fill="#000000">TPCBase/ROC.h</text>
</a>
</g>
</g>
<!-- Node26&#45;&gt;Node27 -->
<g id="edge31" class="edge">
<title>Node26&#45;&gt;Node27</title>
<path fill="none" stroke="#191970" d="M790.8898,-291.2455C801.9254,-282.8943 818.0292,-270.7076 830.9353,-260.9408"/>
<polygon fill="#191970" stroke="#191970" points="833.3959,-263.4681 839.2579,-254.6427 829.1717,-257.8862 833.3959,-263.4681"/>
</g>
<!-- Node27&#45;&gt;Node9 -->
<g id="edge32" class="edge">
<title>Node27&#45;&gt;Node9</title>
<path fill="none" stroke="#191970" d="M856.1777,-235.4509C864.278,-216.936 882.2492,-175.8591 892.8106,-151.7187"/>
<polygon fill="#191970" stroke="#191970" points="896.0312,-153.0894 896.8329,-142.5249 889.6181,-150.2836 896.0312,-153.0894"/>
</g>
<!-- Node27&#45;&gt;Node24 -->
<g id="edge33" class="edge">
<title>Node27&#45;&gt;Node24</title>
<path fill="none" stroke="#191970" d="M825.6984,-235.3733C800.5872,-226.1822 762.5562,-212.2624 734.7128,-202.0713"/>
<polygon fill="#191970" stroke="#191970" points="735.5522,-198.6516 724.9584,-198.5011 733.1462,-205.2251 735.5522,-198.6516"/>
</g>
<!-- Node28&#45;&gt;Node9 -->
<g id="edge36" class="edge">
<title>Node28&#45;&gt;Node9</title>
<path fill="none" stroke="#191970" d="M750.1265,-351.1797C824.3931,-342.9042 947.5519,-326.9631 961,-311 1001.8697,-262.4869 945.9914,-184.931 916.793,-150.4757"/>
<polygon fill="#191970" stroke="#191970" points="919.2233,-147.9366 910.0196,-142.6884 913.9416,-152.5306 919.2233,-147.9366"/>
</g>
<!-- Node28&#45;&gt;Node22 -->
<g id="edge41" class="edge">
<title>Node28&#45;&gt;Node22</title>
<path fill="none" stroke="#191970" d="M688.9986,-347.2554C684.3454,-338.0295 677.3452,-323.7334 672,-311 665.4463,-295.3876 658.9402,-277.2912 654.3588,-264.0004"/>
<polygon fill="#191970" stroke="#191970" points="657.6654,-262.8524 651.1331,-254.5109 651.0378,-265.1053 657.6654,-262.8524"/>
</g>
<!-- Node28&#45;&gt;Node23 -->
<g id="edge42" class="edge">
<title>Node28&#45;&gt;Node23</title>
<path fill="none" stroke="#191970" d="M664.0883,-347.3733C635.1548,-338.0613 591.1389,-323.8953 559.3707,-313.671"/>
<polygon fill="#191970" stroke="#191970" points="560.1128,-310.2331 549.5213,-310.5011 557.9682,-316.8965 560.1128,-310.2331"/>
</g>
<!-- Node29 -->
<g id="node30" class="node">
<title>Node29</title>
<g id="a_node30"><a xlink:href="../../df/d26/CRU_8h.html" target="_top" xlink:title="TPCBase/CRU.h">
<polygon fill="none" stroke="#000000" points="860,-291.5 860,-310.5 952,-310.5 952,-291.5 860,-291.5"/>
<text text-anchor="middle" x="906" y="-298.5" font-family="Helvetica,sans-Serif" font-size="10.00" fill="#000000">TPCBase/CRU.h</text>
</a>
</g>
</g>
<!-- Node28&#45;&gt;Node29 -->
<g id="edge37" class="edge">
<title>Node28&#45;&gt;Node29</title>
<path fill="none" stroke="#191970" d="M730.4441,-347.3733C766.3069,-337.9001 821.1878,-323.4032 860.0282,-313.1435"/>
<polygon fill="#191970" stroke="#191970" points="861.257,-316.439 870.0315,-310.5011 859.4692,-309.6712 861.257,-316.439"/>
</g>
<!-- Node29&#45;&gt;Node9 -->
<g id="edge38" class="edge">
<title>Node29&#45;&gt;Node9</title>
<path fill="none" stroke="#191970" d="M906.2671,-291.4862C906.5141,-282.1847 906.8628,-267.6203 907,-255 907.0966,-246.1116 907.2611,-243.8851 907,-235 906.1559,-206.2753 903.9774,-173.0592 902.4914,-152.539"/>
<polygon fill="#191970" stroke="#191970" points="905.9809,-152.2676 901.7499,-142.5542 899.0002,-152.786 905.9809,-152.2676"/>
</g>
<!-- Node29&#45;&gt;Node24 -->
<g id="edge39" class="edge">
<title>Node29&#45;&gt;Node24</title>
<path fill="none" stroke="#191970" d="M879.3494,-291.4132C856.8615,-282.9358 824.0966,-269.6632 797,-255 768.9964,-239.846 738.9218,-218.8035 719.5837,-204.5851"/>
<polygon fill="#191970" stroke="#191970" points="721.6142,-201.7334 711.5001,-198.5782 717.439,-207.352 721.6142,-201.7334"/>
</g>
<!-- Node29&#45;&gt;Node27 -->
<g id="edge40" class="edge">
<title>Node29&#45;&gt;Node27</title>
<path fill="none" stroke="#191970" d="M896.5939,-291.2455C888.8507,-283.2155 877.688,-271.6394 868.4682,-262.0781"/>
<polygon fill="#191970" stroke="#191970" points="870.7591,-259.4117 861.2983,-254.6427 865.7202,-264.2706 870.7591,-259.4117"/>
</g>
<!-- Node30&#45;&gt;Node21 -->
<g id="edge44" class="edge">
<title>Node30&#45;&gt;Node21</title>
<path fill="none" stroke="#191970" d="M1430.2363,-179.4248C1448.3296,-151.6443 1501.0658,-70.6733 1524.971,-33.9693"/>
<polygon fill="#191970" stroke="#191970" points="1528.1189,-35.5492 1530.6437,-25.2595 1522.2533,-31.7289 1528.1189,-35.5492"/>
</g>
<!-- Node31&#45;&gt;Node5 -->
<g id="edge46" class="edge">
<title>Node31&#45;&gt;Node5</title>
<path fill="none" stroke="#191970" d="M909.3498,-347.3733C944.8464,-337.1268 1000.7034,-321.0031 1036.3241,-310.7209"/>
<polygon fill="#191970" stroke="#191970" points="1037.6051,-313.9941 1046.2421,-307.8579 1035.6637,-307.2687 1037.6051,-313.9941"/>
</g>
<!-- Node31&#45;&gt;Node9 -->
<g id="edge47" class="edge">
<title>Node31&#45;&gt;Node9</title>
<path fill="none" stroke="#191970" d="M913.0228,-347.4827C943.95,-338.6952 984.4777,-324.9323 994,-311 1027.1036,-262.5652 1024.9504,-228.8383 994,-179 984.4673,-163.6499 968.1258,-153.2666 951.7752,-146.3145"/>
<polygon fill="#191970" stroke="#191970" points="952.7877,-142.9534 942.1985,-142.6061 950.2599,-149.481 952.7877,-142.9534"/>
</g>
<!-- Node31&#45;&gt;Node22 -->
<g id="edge48" class="edge">
<title>Node31&#45;&gt;Node22</title>
<path fill="none" stroke="#191970" d="M805.6104,-347.7877C773.1447,-341.184 735.203,-329.9615 705,-311 685.674,-298.8671 669.3468,-278.1436 659.1861,-263.1504"/>
<polygon fill="#191970" stroke="#191970" points="662.0682,-261.162 653.6849,-254.6835 656.1983,-264.9759 662.0682,-261.162"/>
</g>
</g>
</svg>
        <g id="navigator" transform="translate(0 0)" fill="#404254">
                <rect fill="#f2f5e9" fill-opacity="0.5" stroke="#606060" stroke-width=".5" x="0" y="0" width="60" height="60"/>
                <use id="zoomplus" xlink:href="#zoomPlus" x="17" y="9" onmousedown="handleZoom(evt,'in')"/>
                <use id="zoomminus" xlink:href="#zoomMin" x="42" y="9" onmousedown="handleZoom(evt,'out')"/>
                <use id="reset" xlink:href="#resetDef" x="30" y="36" onmousedown="handleReset()"/>
                <g id="arrowUp" xlink:href="#dirArrow" transform="translate(30 24)" onmousedown="handlePan(0,-1)">
                  <use xlink:href="#rim" fill="#404040">
                        <set attributeName="fill" to="#808080" begin="arrowUp.mouseover" end="arrowUp.mouseout"/>
                  </use>
                  <path fill="none" stroke="white" stroke-width="1.5" d="M0,-3.0v7 M-2.5,-0.5L0,-3.0L2.5,-0.5"/>
                </g>
                <g id="arrowRight" xlink:href="#dirArrow" transform="rotate(90) translate(36 -43)" onmousedown="handlePan(1,0)">
                  <use xlink:href="#rim" fill="#404040">
                        <set attributeName="fill" to="#808080" begin="arrowRight.mouseover" end="arrowRight.mouseout"/>
                  </use>
                  <path fill="none" stroke="white" stroke-width="1.5" d="M0,-3.0v7 M-2.5,-0.5L0,-3.0L2.5,-0.5"/>
                </g>
                <g id="arrowDown" xlink:href="#dirArrow" transform="rotate(180) translate(-30 -48)" onmousedown="handlePan(0,1)">
                  <use xlink:href="#rim" fill="#404040">
                        <set attributeName="fill" to="#808080" begin="arrowDown.mouseover" end="arrowDown.mouseout"/>
                  </use>
                  <path fill="none" stroke="white" stroke-width="1.5" d="M0,-3.0v7 M-2.5,-0.5L0,-3.0L2.5,-0.5"/>
                </g>
                <g id="arrowLeft" xlink:href="#dirArrow" transform="rotate(270) translate(-36 17)" onmousedown="handlePan(-1,0)">
                  <use xlink:href="#rim" fill="#404040">
                        <set attributeName="fill" to="#808080" begin="arrowLeft.mouseover" end="arrowLeft.mouseout"/>
                  </use>
                  <path fill="none" stroke="white" stroke-width="1.5" d="M0,-3.0v7 M-2.5,-0.5L0,-3.0L2.5,-0.5"/>
                </g>
        </g>
        <svg viewBox="0 0 15 15" width="100%" height="30px" preserveAspectRatio="xMaxYMin meet">
         <g id="arrow_out" transform="scale(0.3 0.3)">
          <a xlink:href="TPC_2simulation_2src_2PadResponse_8cxx__incl_org.svg" target="_base">
           <rect id="button" ry="5" rx="5" y="6" x="6" height="38" width="38"
                fill="#f2f5e9" fill-opacity="0.5" stroke="#606060" stroke-width="1.0"/>
           <path id="arrow"
             d="M 11.500037,31.436501 C 11.940474,20.09759 22.043105,11.32322 32.158766,21.979434 L 37.068811,17.246167 C 37.068811,17.246167 37.088388,32 37.088388,32 L 22.160133,31.978069 C 22.160133,31.978069 26.997745,27.140456 26.997745,27.140456 C 18.528582,18.264221 13.291696,25.230495 11.500037,31.436501 z"
             style="fill:#404040;"/>
          </a>
         </g>
        </svg>
</svg>
