<?xml version="1.0" encoding="UTF-8" standalone="no"?>
<!DOCTYPE svg PUBLIC "-//W3C//DTD SVG 1.1//EN"
 "http://www.w3.org/Graphics/SVG/1.1/DTD/svg11.dtd">
<!-- Generated by graphviz version 2.40.1 (20161225.0304)
 -->
<!-- Title: /home/travis/build/AliceO2Group/AliceO2/DataFormats/simulation/test/testBasicHits.cxx Pages: 1 -->
<svg width="1571pt" height="251pt"
 viewBox="0.00 0.00 1570.50 251.00" xmlns="http://www.w3.org/2000/svg" xmlns:xlink="http://www.w3.org/1999/xlink">
<g id="graph0" class="graph" transform="scale(1 1) rotate(0) translate(4 247)">
<title>/home/travis/build/AliceO2Group/AliceO2/DataFormats/simulation/test/testBasicHits.cxx</title>
<!-- Node0 -->
<g id="node1" class="node">
<title>Node0</title>
<polygon fill="#bfbfbf" stroke="#000000" points="394.5,-190.5 394.5,-242.5 531.5,-242.5 531.5,-190.5 394.5,-190.5"/>
<text text-anchor="start" x="402.5" y="-230.5" font-family="Helvetica,sans-Serif" font-size="10.00" fill="#000000">/home/travis/build</text>
<text text-anchor="start" x="402.5" y="-219.5" font-family="Helvetica,sans-Serif" font-size="10.00" fill="#000000">/AliceO2Group/AliceO2</text>
<text text-anchor="start" x="402.5" y="-208.5" font-family="Helvetica,sans-Serif" font-size="10.00" fill="#000000">/DataFormats/simulation</text>
<text text-anchor="middle" x="463" y="-197.5" font-family="Helvetica,sans-Serif" font-size="10.00" fill="#000000">/test/testBasicHits.cxx</text>
</g>
<!-- Node1 -->
<g id="node2" class="node">
<title>Node1</title>
<polygon fill="none" stroke="#bfbfbf" points="257,-129 257,-148 389,-148 389,-129 257,-129"/>
<text text-anchor="middle" x="323" y="-136" font-family="Helvetica,sans-Serif" font-size="10.00" fill="#000000">boost/test/unit_test.hpp</text>
</g>
<!-- Node0&#45;&gt;Node1 -->
<g id="edge1" class="edge">
<title>Node0&#45;&gt;Node1</title>
<path fill="none" stroke="#191970" d="M415.9926,-190.3101C393.7032,-177.8918 367.9149,-163.524 349.1573,-153.0733"/>
<polygon fill="#191970" stroke="#191970" points="350.7419,-149.9497 340.3028,-148.1401 347.335,-156.0647 350.7419,-149.9497"/>
</g>
<!-- Node2 -->
<g id="node3" class="node">
<title>Node2</title>
<polygon fill="none" stroke="#bfbfbf" points="0,-6 0,-25 168,-25 168,-6 0,-6"/>
<text text-anchor="middle" x="84" y="-13" font-family="Helvetica,sans-Serif" font-size="10.00" fill="#000000">Math/GenVector/Transform3D.h</text>
</g>
<!-- Node0&#45;&gt;Node2 -->
<g id="edge2" class="edge">
<title>Node0&#45;&gt;Node2</title>
<path fill="none" stroke="#191970" d="M450.7483,-190.4525C439.6732,-169.5091 421.5111,-140.7466 398,-123 326.1506,-68.7667 225.0526,-40.6911 157.1644,-27.0447"/>
<polygon fill="#191970" stroke="#191970" points="157.4659,-23.5376 146.9804,-25.0556 156.124,-30.4077 157.4659,-23.5376"/>
</g>
<!-- Node3 -->
<g id="node4" class="node">
<title>Node3</title>
<g id="a_node4"><a xlink:href="../../d4/d25/BaseHits_8h.html" target="_top" xlink:title="SimulationDataFormat\l/BaseHits.h">
<polygon fill="none" stroke="#000000" points="445.5,-123.5 445.5,-153.5 572.5,-153.5 572.5,-123.5 445.5,-123.5"/>
<text text-anchor="start" x="453.5" y="-141.5" font-family="Helvetica,sans-Serif" font-size="10.00" fill="#000000">SimulationDataFormat</text>
<text text-anchor="middle" x="509" y="-130.5" font-family="Helvetica,sans-Serif" font-size="10.00" fill="#000000">/BaseHits.h</text>
</a>
</g>
</g>
<!-- Node0&#45;&gt;Node3 -->
<g id="edge3" class="edge">
<title>Node0&#45;&gt;Node3</title>
<path fill="none" stroke="#191970" d="M478.5735,-190.0928C483.9126,-181.0395 489.8499,-170.972 495.052,-162.151"/>
<polygon fill="#191970" stroke="#191970" points="498.086,-163.8962 500.1512,-153.5046 492.0565,-160.3403 498.086,-163.8962"/>
</g>
<!-- Node14 -->
<g id="node15" class="node">
<title>Node14</title>
<polygon fill="none" stroke="#bfbfbf" points="591,-129 591,-148 639,-148 639,-129 591,-129"/>
<text text-anchor="middle" x="615" y="-136" font-family="Helvetica,sans-Serif" font-size="10.00" fill="#000000">TFile.h</text>
</g>
<!-- Node0&#45;&gt;Node14 -->
<g id="edge15" class="edge">
<title>Node0&#45;&gt;Node14</title>
<path fill="none" stroke="#191970" d="M514.0366,-190.3101C538.4575,-177.7784 566.7469,-163.2615 587.1567,-152.788"/>
<polygon fill="#191970" stroke="#191970" points="588.9151,-155.8196 596.2141,-148.1401 585.7192,-149.5918 588.9151,-155.8196"/>
</g>
<!-- Node4 -->
<g id="node5" class="node">
<title>Node4</title>
<g id="a_node5"><a xlink:href="../../dc/d73/Cartesian_8h.html" target="_top" xlink:title="MathUtils/Cartesian.h">
<polygon fill="none" stroke="#000000" points="780,-67.5 780,-86.5 902,-86.5 902,-67.5 780,-67.5"/>
<text text-anchor="middle" x="841" y="-74.5" font-family="Helvetica,sans-Serif" font-size="10.00" fill="#000000">MathUtils/Cartesian.h</text>
</a>
</g>
</g>
<!-- Node3&#45;&gt;Node4 -->
<g id="edge4" class="edge">
<title>Node3&#45;&gt;Node4</title>
<path fill="none" stroke="#191970" d="M572.6757,-124.8488C575.8266,-124.2144 578.948,-123.5949 582,-123 647.137,-110.3041 721.7768,-97.2001 774.1442,-88.2418"/>
<polygon fill="#191970" stroke="#191970" points="775.0426,-91.6392 784.3113,-86.5068 773.865,-84.739 775.0426,-91.6392"/>
</g>
<!-- Node4&#45;&gt;Node2 -->
<g id="edge8" class="edge">
<title>Node4&#45;&gt;Node2</title>
<path fill="none" stroke="#191970" d="M779.9392,-74.7313C662.7294,-69.9425 398.2036,-57.0349 177,-31 167.0024,-29.8233 156.441,-28.3174 146.1638,-26.7085"/>
<polygon fill="#191970" stroke="#191970" points="146.442,-23.2082 136.0126,-25.0735 145.3288,-30.1192 146.442,-23.2082"/>
</g>
<!-- Node5 -->
<g id="node6" class="node">
<title>Node5</title>
<polygon fill="none" stroke="#bfbfbf" points="186,-.5 186,-30.5 350,-30.5 350,-.5 186,-.5"/>
<text text-anchor="start" x="194" y="-18.5" font-family="Helvetica,sans-Serif" font-size="10.00" fill="#000000">Math/GenVector/Displacement</text>
<text text-anchor="middle" x="268" y="-7.5" font-family="Helvetica,sans-Serif" font-size="10.00" fill="#000000">Vector3D.h</text>
</g>
<!-- Node4&#45;&gt;Node5 -->
<g id="edge5" class="edge">
<title>Node4&#45;&gt;Node5</title>
<path fill="none" stroke="#191970" d="M779.9663,-72.6224C690.2931,-65.8708 517.4575,-51.6432 360.606,-31.1555"/>
<polygon fill="#191970" stroke="#191970" points="360.6703,-27.6337 350.2987,-29.7969 359.7556,-34.5737 360.6703,-27.6337"/>
</g>
<!-- Node6 -->
<g id="node7" class="node">
<title>Node6</title>
<polygon fill="none" stroke="#bfbfbf" points="368.5,-6 368.5,-25 557.5,-25 557.5,-6 368.5,-6"/>
<text text-anchor="middle" x="463" y="-13" font-family="Helvetica,sans-Serif" font-size="10.00" fill="#000000">Math/GenVector/PositionVector3D.h</text>
</g>
<!-- Node4&#45;&gt;Node6 -->
<g id="edge6" class="edge">
<title>Node4&#45;&gt;Node6</title>
<path fill="none" stroke="#191970" d="M782.3522,-67.4581C714.6574,-56.4443 603.4627,-38.3531 531.7574,-26.6867"/>
<polygon fill="#191970" stroke="#191970" points="531.9066,-23.1651 521.4743,-25.0137 530.7825,-30.0742 531.9066,-23.1651"/>
</g>
<!-- Node7 -->
<g id="node8" class="node">
<title>Node7</title>
<polygon fill="none" stroke="#bfbfbf" points="576,-6 576,-25 736,-25 736,-6 576,-6"/>
<text text-anchor="middle" x="656" y="-13" font-family="Helvetica,sans-Serif" font-size="10.00" fill="#000000">Math/GenVector/Rotation3D.h</text>
</g>
<!-- Node4&#45;&gt;Node7 -->
<g id="edge7" class="edge">
<title>Node4&#45;&gt;Node7</title>
<path fill="none" stroke="#191970" d="M812.0938,-67.3906C780.461,-56.8749 729.597,-39.966 694.5771,-28.3243"/>
<polygon fill="#191970" stroke="#191970" points="695.2968,-24.8753 684.7033,-25.0419 693.0885,-31.5178 695.2968,-24.8753"/>
</g>
<!-- Node8 -->
<g id="node9" class="node">
<title>Node8</title>
<polygon fill="none" stroke="#bfbfbf" points="754.5,-6 754.5,-25 927.5,-25 927.5,-6 754.5,-6"/>
<text text-anchor="middle" x="841" y="-13" font-family="Helvetica,sans-Serif" font-size="10.00" fill="#000000">Math/GenVector/Translation3D.h</text>
</g>
<!-- Node4&#45;&gt;Node8 -->
<g id="edge9" class="edge">
<title>Node4&#45;&gt;Node8</title>
<path fill="none" stroke="#191970" d="M841,-67.3906C841,-58.8657 841,-46.1392 841,-35.4235"/>
<polygon fill="#191970" stroke="#191970" points="844.5001,-35.2448 841,-25.2449 837.5001,-35.2449 844.5001,-35.2448"/>
</g>
<!-- Node9 -->
<g id="node10" class="node">
<title>Node9</title>
<polygon fill="none" stroke="#bfbfbf" points="946,-.5 946,-30.5 1110,-30.5 1110,-.5 946,-.5"/>
<text text-anchor="start" x="954" y="-18.5" font-family="Helvetica,sans-Serif" font-size="10.00" fill="#000000">Math/GenVector/Displacement</text>
<text text-anchor="middle" x="1028" y="-7.5" font-family="Helvetica,sans-Serif" font-size="10.00" fill="#000000">Vector2D.h</text>
</g>
<!-- Node4&#45;&gt;Node9 -->
<g id="edge10" class="edge">
<title>Node4&#45;&gt;Node9</title>
<path fill="none" stroke="#191970" d="M870.2188,-67.3906C897.5188,-58.4123 938.9895,-44.7735 972.564,-33.7316"/>
<polygon fill="#191970" stroke="#191970" points="973.8487,-36.9936 982.2547,-30.5446 971.6617,-30.344 973.8487,-36.9936"/>
</g>
<!-- Node10 -->
<g id="node11" class="node">
<title>Node10</title>
<polygon fill="none" stroke="#bfbfbf" points="1128.5,-6 1128.5,-25 1317.5,-25 1317.5,-6 1128.5,-6"/>
<text text-anchor="middle" x="1223" y="-13" font-family="Helvetica,sans-Serif" font-size="10.00" fill="#000000">Math/GenVector/PositionVector2D.h</text>
</g>
<!-- Node4&#45;&gt;Node10 -->
<g id="edge11" class="edge">
<title>Node4&#45;&gt;Node10</title>
<path fill="none" stroke="#191970" d="M900.2684,-67.4581C968.8197,-56.4217 1081.5116,-38.2789 1153.96,-26.6151"/>
<polygon fill="#191970" stroke="#191970" points="1154.5904,-30.0587 1163.9069,-25.0137 1153.4777,-23.1477 1154.5904,-30.0587"/>
</g>
<!-- Node11 -->
<g id="node12" class="node">
<title>Node11</title>
<polygon fill="none" stroke="#bfbfbf" points="1335.5,-6 1335.5,-25 1394.5,-25 1394.5,-6 1335.5,-6"/>
<text text-anchor="middle" x="1365" y="-13" font-family="Helvetica,sans-Serif" font-size="10.00" fill="#000000">Rtypes.h</text>
</g>
<!-- Node4&#45;&gt;Node11 -->
<g id="edge12" class="edge">
<title>Node4&#45;&gt;Node11</title>
<path fill="none" stroke="#191970" d="M902.1224,-73.4511C1014.118,-66.5778 1247.9861,-50.4057 1327,-31 1329.6337,-30.3532 1332.3242,-29.5561 1334.9965,-28.6676"/>
<polygon fill="#191970" stroke="#191970" points="1336.3027,-31.9162 1344.4602,-25.1555 1333.8672,-25.3535 1336.3027,-31.9162"/>
</g>
<!-- Node12 -->
<g id="node13" class="node">
<title>Node12</title>
<polygon fill="none" stroke="#bfbfbf" points="1413,-6 1413,-25 1495,-25 1495,-6 1413,-6"/>
<text text-anchor="middle" x="1454" y="-13" font-family="Helvetica,sans-Serif" font-size="10.00" fill="#000000">TGeoMatrix.h</text>
</g>
<!-- Node4&#45;&gt;Node12 -->
<g id="edge13" class="edge">
<title>Node4&#45;&gt;Node12</title>
<path fill="none" stroke="#191970" d="M902.2931,-73.6926C1027.6044,-66.6518 1309.2805,-49.3211 1404,-31 1408.3847,-30.1519 1412.9284,-29.0583 1417.4085,-27.8446"/>
<polygon fill="#191970" stroke="#191970" points="1418.4047,-31.2 1427.0282,-25.0447 1416.4485,-24.4789 1418.4047,-31.2"/>
</g>
<!-- Node13 -->
<g id="node14" class="node">
<title>Node13</title>
<polygon fill="none" stroke="#bfbfbf" points="1513.5,-6 1513.5,-25 1562.5,-25 1562.5,-6 1513.5,-6"/>
<text text-anchor="middle" x="1538" y="-13" font-family="Helvetica,sans-Serif" font-size="10.00" fill="#000000">iosfwd</text>
</g>
<!-- Node4&#45;&gt;Node13 -->
<g id="edge14" class="edge">
<title>Node4&#45;&gt;Node13</title>
<path fill="none" stroke="#191970" d="M902.2399,-75.542C1043.9803,-71.7174 1391.115,-59.6443 1504,-31 1506.1969,-30.4426 1508.4273,-29.7486 1510.6414,-28.9657"/>
<polygon fill="#191970" stroke="#191970" points="1512.15,-32.1304 1520.0871,-25.1123 1509.5058,-25.6489 1512.15,-32.1304"/>
</g>
</g>
</svg>
