<?xml version="1.0" encoding="UTF-8" standalone="no"?>
<!DOCTYPE svg PUBLIC "-//W3C//DTD SVG 1.1//EN"
 "http://www.w3.org/Graphics/SVG/1.1/DTD/svg11.dtd">
<!-- Generated by graphviz version 2.40.1 (20161225.0304)
 -->
<!-- Title: /home/travis/build/AliceO2Group/AliceO2/Detectors/TPC/base/test/testTPCCalDet.cxx Pages: 1 -->
<svg width="1823pt" height="632pt"
 viewBox="0.00 0.00 1822.50 632.00" xmlns="http://www.w3.org/2000/svg" xmlns:xlink="http://www.w3.org/1999/xlink">
<g id="graph0" class="graph" transform="scale(1 1) rotate(0) translate(4 628)">
<title>/home/travis/build/AliceO2Group/AliceO2/Detectors/TPC/base/test/testTPCCalDet.cxx</title>
<!-- Node0 -->
<g id="node1" class="node">
<title>Node0</title>
<polygon fill="#bfbfbf" stroke="#000000" points="1384,-571.5 1384,-623.5 1521,-623.5 1521,-571.5 1384,-571.5"/>
<text text-anchor="start" x="1392" y="-611.5" font-family="Helvetica,sans-Serif" font-size="10.00" fill="#000000">/home/travis/build</text>
<text text-anchor="start" x="1392" y="-600.5" font-family="Helvetica,sans-Serif" font-size="10.00" fill="#000000">/AliceO2Group/AliceO2</text>
<text text-anchor="start" x="1392" y="-589.5" font-family="Helvetica,sans-Serif" font-size="10.00" fill="#000000">/Detectors/TPC/base/test</text>
<text text-anchor="middle" x="1452.5" y="-578.5" font-family="Helvetica,sans-Serif" font-size="10.00" fill="#000000">/testTPCCalDet.cxx</text>
</g>
<!-- Node1 -->
<g id="node2" class="node">
<title>Node1</title>
<polygon fill="none" stroke="#bfbfbf" points="601.5,-459.5 601.5,-478.5 741.5,-478.5 741.5,-459.5 601.5,-459.5"/>
<text text-anchor="middle" x="671.5" y="-466.5" font-family="Helvetica,sans-Serif" font-size="10.00" fill="#000000">boost/range/combine.hpp</text>
</g>
<!-- Node0&#45;&gt;Node1 -->
<g id="edge1" class="edge">
<title>Node0&#45;&gt;Node1</title>
<path fill="none" stroke="#191970" d="M1383.876,-586.2091C1235.7499,-561.8375 887.5314,-504.5442 739.7463,-480.2287"/>
<polygon fill="#191970" stroke="#191970" points="739.8932,-476.7059 729.4576,-478.5359 738.7567,-483.6131 739.8932,-476.7059"/>
</g>
<!-- Node2 -->
<g id="node3" class="node">
<title>Node2</title>
<polygon fill="none" stroke="#bfbfbf" points="1480.5,-515.5 1480.5,-534.5 1612.5,-534.5 1612.5,-515.5 1480.5,-515.5"/>
<text text-anchor="middle" x="1546.5" y="-522.5" font-family="Helvetica,sans-Serif" font-size="10.00" fill="#000000">boost/test/unit_test.hpp</text>
</g>
<!-- Node0&#45;&gt;Node2 -->
<g id="edge2" class="edge">
<title>Node0&#45;&gt;Node2</title>
<path fill="none" stroke="#191970" d="M1486.4362,-571.3258C1499.6785,-561.1123 1514.4239,-549.7396 1525.9906,-540.8184"/>
<polygon fill="#191970" stroke="#191970" points="1528.3578,-543.4128 1534.1387,-534.534 1524.0827,-537.8699 1528.3578,-543.4128"/>
</g>
<!-- Node3 -->
<g id="node4" class="node">
<title>Node3</title>
<polygon fill="none" stroke="#bfbfbf" points="1104,-291.5 1104,-310.5 1151,-310.5 1151,-291.5 1104,-291.5"/>
<text text-anchor="middle" x="1127.5" y="-298.5" font-family="Helvetica,sans-Serif" font-size="10.00" fill="#000000">vector</text>
</g>
<!-- Node0&#45;&gt;Node3 -->
<g id="edge3" class="edge">
<title>Node0&#45;&gt;Node3</title>
<path fill="none" stroke="#191970" d="M1452.2812,-571.1299C1453.5038,-553.2901 1457.9399,-530.281 1471.5,-515 1505.3098,-476.8993 1597.8778,-502.5772 1571.5,-459 1515.9108,-367.1643 1458.7123,-382.7774 1357.5,-347 1290.0025,-323.1404 1206.7406,-310.3573 1161.1991,-304.6899"/>
<polygon fill="#191970" stroke="#191970" points="1161.6156,-301.2148 1151.2687,-303.4931 1160.778,-308.1645 1161.6156,-301.2148"/>
</g>
<!-- Node4 -->
<g id="node5" class="node">
<title>Node4</title>
<polygon fill="none" stroke="#bfbfbf" points="1630.5,-515.5 1630.5,-534.5 1674.5,-534.5 1674.5,-515.5 1630.5,-515.5"/>
<text text-anchor="middle" x="1652.5" y="-522.5" font-family="Helvetica,sans-Serif" font-size="10.00" fill="#000000">limits</text>
</g>
<!-- Node0&#45;&gt;Node4 -->
<g id="edge4" class="edge">
<title>Node0&#45;&gt;Node4</title>
<path fill="none" stroke="#191970" d="M1521.0488,-572.651C1554.739,-560.4383 1593.7317,-546.3035 1620.4477,-536.619"/>
<polygon fill="#191970" stroke="#191970" points="1621.8405,-539.837 1630.0491,-533.1385 1619.4549,-533.256 1621.8405,-539.837"/>
</g>
<!-- Node5 -->
<g id="node6" class="node">
<title>Node5</title>
<polygon fill="none" stroke="#bfbfbf" points="1692.5,-515.5 1692.5,-534.5 1748.5,-534.5 1748.5,-515.5 1692.5,-515.5"/>
<text text-anchor="middle" x="1720.5" y="-522.5" font-family="Helvetica,sans-Serif" font-size="10.00" fill="#000000">TMath.h</text>
</g>
<!-- Node0&#45;&gt;Node5 -->
<g id="edge5" class="edge">
<title>Node0&#45;&gt;Node5</title>
<path fill="none" stroke="#191970" d="M1521.1686,-578.9236C1572.4607,-565.0479 1640.6611,-546.5982 1682.5234,-535.2735"/>
<polygon fill="#191970" stroke="#191970" points="1683.5779,-538.6141 1692.317,-532.6241 1681.7499,-531.857 1683.5779,-538.6141"/>
</g>
<!-- Node6 -->
<g id="node7" class="node">
<title>Node6</title>
<g id="a_node7"><a xlink:href="../../d5/d1d/TPC_2base_2include_2TPCBase_2Mapper_8h.html" target="_top" xlink:title="TPCBase/Mapper.h">
<polygon fill="none" stroke="#000000" points="520,-403.5 520,-422.5 627,-422.5 627,-403.5 520,-403.5"/>
<text text-anchor="middle" x="573.5" y="-410.5" font-family="Helvetica,sans-Serif" font-size="10.00" fill="#000000">TPCBase/Mapper.h</text>
</a>
</g>
</g>
<!-- Node0&#45;&gt;Node6 -->
<g id="edge6" class="edge">
<title>Node0&#45;&gt;Node6</title>
<path fill="none" stroke="#191970" d="M1383.9054,-592.3698C1190.6548,-577.324 651.8835,-531.0787 592.5,-479 579.4985,-467.5978 575.1303,-447.9319 573.7863,-433.0252"/>
<polygon fill="#191970" stroke="#191970" points="577.2677,-432.5749 573.2551,-422.7693 570.2771,-432.937 577.2677,-432.5749"/>
</g>
<!-- Node35 -->
<g id="node36" class="node">
<title>Node35</title>
<g id="a_node36"><a xlink:href="../../db/d9b/CalArray_8h.html" target="_top" xlink:title="TPCBase/CalArray.h">
<polygon fill="none" stroke="#000000" points="914.5,-459.5 914.5,-478.5 1026.5,-478.5 1026.5,-459.5 914.5,-459.5"/>
<text text-anchor="middle" x="970.5" y="-466.5" font-family="Helvetica,sans-Serif" font-size="10.00" fill="#000000">TPCBase/CalArray.h</text>
</a>
</g>
</g>
<!-- Node0&#45;&gt;Node35 -->
<g id="edge55" class="edge">
<title>Node0&#45;&gt;Node35</title>
<path fill="none" stroke="#191970" d="M1383.8349,-583.9948C1327.0883,-572.3856 1244.5935,-554.4738 1173.5,-535 1114.5196,-518.8442 1047.2295,-496.0933 1006.8487,-481.9623"/>
<polygon fill="#191970" stroke="#191970" points="1007.7785,-478.5792 997.1836,-478.5646 1005.4569,-485.183 1007.7785,-478.5792"/>
</g>
<!-- Node42 -->
<g id="node43" class="node">
<title>Node42</title>
<g id="a_node43"><a xlink:href="../../d6/d2b/TPC_2base_2include_2TPCBase_2CalDet_8h.html" target="_top" xlink:title="TPCBase/CalDet.h">
<polygon fill="none" stroke="#000000" points="1182.5,-515.5 1182.5,-534.5 1286.5,-534.5 1286.5,-515.5 1182.5,-515.5"/>
<text text-anchor="middle" x="1234.5" y="-522.5" font-family="Helvetica,sans-Serif" font-size="10.00" fill="#000000">TPCBase/CalDet.h</text>
</a>
</g>
</g>
<!-- Node0&#45;&gt;Node42 -->
<g id="edge65" class="edge">
<title>Node0&#45;&gt;Node42</title>
<path fill="none" stroke="#191970" d="M1383.8227,-574.6601C1347.2685,-562.5033 1303.6712,-548.0042 1273.051,-537.8209"/>
<polygon fill="#191970" stroke="#191970" points="1273.7867,-534.3771 1263.1932,-534.5425 1271.5777,-541.0194 1273.7867,-534.3771"/>
</g>
<!-- Node46 -->
<g id="node47" class="node">
<title>Node46</title>
<polygon fill="none" stroke="#bfbfbf" points="1766.5,-515.5 1766.5,-534.5 1814.5,-534.5 1814.5,-515.5 1766.5,-515.5"/>
<text text-anchor="middle" x="1790.5" y="-522.5" font-family="Helvetica,sans-Serif" font-size="10.00" fill="#000000">TFile.h</text>
</g>
<!-- Node0&#45;&gt;Node46 -->
<g id="edge79" class="edge">
<title>Node0&#45;&gt;Node46</title>
<path fill="none" stroke="#191970" d="M1521.0479,-585.3226C1580.8899,-574.2654 1670.204,-556.7369 1756.7065,-535.0345"/>
<polygon fill="#191970" stroke="#191970" points="1757.5853,-538.4225 1766.4212,-532.5763 1755.8681,-531.6364 1757.5853,-538.4225"/>
</g>
<!-- Node6&#45;&gt;Node3 -->
<g id="edge8" class="edge">
<title>Node6&#45;&gt;Node3</title>
<path fill="none" stroke="#191970" d="M627.2328,-404.0759C630.026,-403.6926 632.7944,-403.331 635.5,-403 730.6804,-391.3571 979.1597,-408.7159 1065.5,-367 1087.2729,-356.4803 1105.264,-334.7759 1116.1578,-319.1246"/>
<polygon fill="#191970" stroke="#191970" points="1119.11,-321.0058 1121.7266,-310.7391 1113.2787,-317.1332 1119.11,-321.0058"/>
</g>
<!-- Node7 -->
<g id="node8" class="node">
<title>Node7</title>
<polygon fill="none" stroke="#bfbfbf" points="447.5,-347.5 447.5,-366.5 485.5,-366.5 485.5,-347.5 447.5,-347.5"/>
<text text-anchor="middle" x="466.5" y="-354.5" font-family="Helvetica,sans-Serif" font-size="10.00" fill="#000000">map</text>
</g>
<!-- Node6&#45;&gt;Node7 -->
<g id="edge7" class="edge">
<title>Node6&#45;&gt;Node7</title>
<path fill="none" stroke="#191970" d="M554.862,-403.2455C538.0614,-394.4527 513.1366,-381.4079 494.0382,-371.4125"/>
<polygon fill="#191970" stroke="#191970" points="495.4073,-368.1787 484.9244,-366.6427 492.1614,-374.3807 495.4073,-368.1787"/>
</g>
<!-- Node8 -->
<g id="node9" class="node">
<title>Node8</title>
<polygon fill="none" stroke="#bfbfbf" points="503.5,-347.5 503.5,-366.5 545.5,-366.5 545.5,-347.5 503.5,-347.5"/>
<text text-anchor="middle" x="524.5" y="-354.5" font-family="Helvetica,sans-Serif" font-size="10.00" fill="#000000">array</text>
</g>
<!-- Node6&#45;&gt;Node8 -->
<g id="edge9" class="edge">
<title>Node6&#45;&gt;Node8</title>
<path fill="none" stroke="#191970" d="M564.9649,-403.2455C558.0088,-395.2958 548.0117,-383.8706 539.6949,-374.3656"/>
<polygon fill="#191970" stroke="#191970" points="542.1564,-371.8637 532.9373,-366.6427 536.8884,-376.4732 542.1564,-371.8637"/>
</g>
<!-- Node9 -->
<g id="node10" class="node">
<title>Node9</title>
<polygon fill="none" stroke="#bfbfbf" points="1155.5,-347.5 1155.5,-366.5 1199.5,-366.5 1199.5,-347.5 1155.5,-347.5"/>
<text text-anchor="middle" x="1177.5" y="-354.5" font-family="Helvetica,sans-Serif" font-size="10.00" fill="#000000">string</text>
</g>
<!-- Node6&#45;&gt;Node9 -->
<g id="edge10" class="edge">
<title>Node6&#45;&gt;Node9</title>
<path fill="none" stroke="#191970" d="M627.2301,-404.0536C630.024,-403.6762 632.7933,-403.3218 635.5,-403 842.6554,-378.3696 896.0464,-388.9777 1103.5,-367 1117.0969,-365.5595 1132.0506,-363.6086 1144.9352,-361.8124"/>
<polygon fill="#191970" stroke="#191970" points="1145.7883,-365.2264 1155.1965,-360.3545 1144.8036,-358.296 1145.7883,-365.2264"/>
</g>
<!-- Node10 -->
<g id="node11" class="node">
<title>Node10</title>
<polygon fill="none" stroke="#bfbfbf" points="419,-67.5 419,-86.5 466,-86.5 466,-67.5 419,-67.5"/>
<text text-anchor="middle" x="442.5" y="-74.5" font-family="Helvetica,sans-Serif" font-size="10.00" fill="#000000">cmath</text>
</g>
<!-- Node6&#45;&gt;Node10 -->
<g id="edge11" class="edge">
<title>Node6&#45;&gt;Node10</title>
<path fill="none" stroke="#191970" d="M519.7035,-409.4201C446.4042,-403.7276 319.7682,-390.7495 280.5,-367 249.239,-348.0933 231.5,-337.5338 231.5,-301 231.5,-301 231.5,-301 231.5,-189 231.5,-109.7746 348.9916,-86.4218 408.6276,-79.6713"/>
<polygon fill="#191970" stroke="#191970" points="409.1201,-83.1391 418.7058,-78.6265 408.3981,-76.1765 409.1201,-83.1391"/>
</g>
<!-- Node11 -->
<g id="node12" class="node">
<title>Node11</title>
<g id="a_node12"><a xlink:href="../../d1/d73/Defs_8h.html" target="_top" xlink:title="DataFormatsTPC/Defs.h">
<polygon fill="none" stroke="#000000" points="700,-123.5 700,-142.5 833,-142.5 833,-123.5 700,-123.5"/>
<text text-anchor="middle" x="766.5" y="-130.5" font-family="Helvetica,sans-Serif" font-size="10.00" fill="#000000">DataFormatsTPC/Defs.h</text>
</a>
</g>
</g>
<!-- Node6&#45;&gt;Node11 -->
<g id="edge12" class="edge">
<title>Node6&#45;&gt;Node11</title>
<path fill="none" stroke="#191970" d="M573.581,-403.4095C573.1575,-389.043 570.1615,-362.0218 554.5,-347 505.6445,-300.14 448.3305,-364.2252 406.5,-311 383.1053,-281.2325 312.7499,-287.7706 422.5,-179 441.1588,-160.5078 594.0383,-145.863 689.6084,-138.4055"/>
<polygon fill="#191970" stroke="#191970" points="690.1162,-141.8768 699.8179,-137.6191 689.5786,-134.8975 690.1162,-141.8768"/>
</g>
<!-- Node13 -->
<g id="node14" class="node">
<title>Node13</title>
<g id="a_node14"><a xlink:href="../../dc/d73/Cartesian_8h.html" target="_top" xlink:title="MathUtils/Cartesian.h">
<polygon fill="none" stroke="#000000" points="779.5,-67.5 779.5,-86.5 901.5,-86.5 901.5,-67.5 779.5,-67.5"/>
<text text-anchor="middle" x="840.5" y="-74.5" font-family="Helvetica,sans-Serif" font-size="10.00" fill="#000000">MathUtils/Cartesian.h</text>
</a>
</g>
</g>
<!-- Node6&#45;&gt;Node13 -->
<g id="edge54" class="edge">
<title>Node6&#45;&gt;Node13</title>
<path fill="none" stroke="#191970" d="M627.2397,-404.1301C630.0311,-403.7327 632.7972,-403.3532 635.5,-403 715.0021,-392.6119 932.9304,-418.3583 994.5,-367 1017.9402,-347.4473 1013.5,-331.5246 1013.5,-301 1013.5,-301 1013.5,-301 1013.5,-189 1013.5,-132.9828 948.7944,-103.5924 898.5276,-89.212"/>
<polygon fill="#191970" stroke="#191970" points="899.2585,-85.7836 888.6901,-86.5326 897.4189,-92.5376 899.2585,-85.7836"/>
</g>
<!-- Node24 -->
<g id="node25" class="node">
<title>Node24</title>
<g id="a_node25"><a xlink:href="../../de/d41/PadPos_8h.html" target="_top" xlink:title="TPCBase/PadPos.h">
<polygon fill="none" stroke="#000000" points="594.5,-235.5 594.5,-254.5 700.5,-254.5 700.5,-235.5 594.5,-235.5"/>
<text text-anchor="middle" x="647.5" y="-242.5" font-family="Helvetica,sans-Serif" font-size="10.00" fill="#000000">TPCBase/PadPos.h</text>
</a>
</g>
</g>
<!-- Node6&#45;&gt;Node24 -->
<g id="edge26" class="edge">
<title>Node6&#45;&gt;Node24</title>
<path fill="none" stroke="#191970" d="M626.2786,-403.4438C678.5817,-393.4396 752.0954,-377.7226 760.5,-367 797.1214,-320.2784 722.3461,-359.2363 674.5,-311 661.9945,-298.3925 655.0264,-279.1931 651.3164,-264.7466"/>
<polygon fill="#191970" stroke="#191970" points="654.6907,-263.7989 649.0767,-254.8137 647.8621,-265.3387 654.6907,-263.7989"/>
</g>
<!-- Node25 -->
<g id="node26" class="node">
<title>Node25</title>
<g id="a_node26"><a xlink:href="../../dd/d0b/PadSecPos_8h.html" target="_top" xlink:title="TPCBase/PadSecPos.h">
<polygon fill="none" stroke="#000000" points="416,-291.5 416,-310.5 539,-310.5 539,-291.5 416,-291.5"/>
<text text-anchor="middle" x="477.5" y="-298.5" font-family="Helvetica,sans-Serif" font-size="10.00" fill="#000000">TPCBase/PadSecPos.h</text>
</a>
</g>
</g>
<!-- Node6&#45;&gt;Node25 -->
<g id="edge27" class="edge">
<title>Node6&#45;&gt;Node25</title>
<path fill="none" stroke="#191970" d="M579.8249,-403.186C587.7724,-389.4843 599.0541,-364.3554 587.5,-347 576.9502,-331.1532 559.7836,-320.7555 542.116,-313.9369"/>
<polygon fill="#191970" stroke="#191970" points="542.8828,-310.4975 532.288,-310.5052 540.5751,-317.1062 542.8828,-310.4975"/>
</g>
<!-- Node26 -->
<g id="node27" class="node">
<title>Node26</title>
<g id="a_node27"><a xlink:href="../../d3/dd6/Sector_8h.html" target="_top" xlink:title="TPCBase/Sector.h">
<polygon fill="none" stroke="#000000" points="432,-179.5 432,-198.5 533,-198.5 533,-179.5 432,-179.5"/>
<text text-anchor="middle" x="482.5" y="-186.5" font-family="Helvetica,sans-Serif" font-size="10.00" fill="#000000">TPCBase/Sector.h</text>
</a>
</g>
</g>
<!-- Node6&#45;&gt;Node26 -->
<g id="edge53" class="edge">
<title>Node6&#45;&gt;Node26</title>
<path fill="none" stroke="#191970" d="M519.855,-408.0754C441.4744,-400.3312 303.305,-384.3862 288.5,-367 258.3307,-331.5708 398.8694,-239.9011 457.6579,-203.8631"/>
<polygon fill="#191970" stroke="#191970" points="459.6281,-206.7614 466.3526,-198.574 455.9901,-200.781 459.6281,-206.7614"/>
</g>
<!-- Node28 -->
<g id="node29" class="node">
<title>Node28</title>
<g id="a_node29"><a xlink:href="../../da/d61/PadROCPos_8h.html" target="_top" xlink:title="TPCBase/PadROCPos.h">
<polygon fill="none" stroke="#000000" points="820,-291.5 820,-310.5 947,-310.5 947,-291.5 820,-291.5"/>
<text text-anchor="middle" x="883.5" y="-298.5" font-family="Helvetica,sans-Serif" font-size="10.00" fill="#000000">TPCBase/PadROCPos.h</text>
</a>
</g>
</g>
<!-- Node6&#45;&gt;Node28 -->
<g id="edge32" class="edge">
<title>Node6&#45;&gt;Node28</title>
<path fill="none" stroke="#191970" d="M624.8532,-403.4505C684.9505,-392.089 778.2424,-373.8033 793.5,-367 821.3306,-354.5905 848.9324,-332.5202 866.0835,-317.3419"/>
<polygon fill="#191970" stroke="#191970" points="868.5567,-319.8241 873.6189,-310.5169 863.8575,-314.6359 868.5567,-319.8241"/>
</g>
<!-- Node30 -->
<g id="node31" class="node">
<title>Node30</title>
<g id="a_node31"><a xlink:href="../../d3/d54/DigitPos_8h.html" target="_top" xlink:title="TPCBase/DigitPos.h">
<polygon fill="none" stroke="#000000" points="639.5,-347.5 639.5,-366.5 751.5,-366.5 751.5,-347.5 639.5,-347.5"/>
<text text-anchor="middle" x="695.5" y="-354.5" font-family="Helvetica,sans-Serif" font-size="10.00" fill="#000000">TPCBase/DigitPos.h</text>
</a>
</g>
</g>
<!-- Node6&#45;&gt;Node30 -->
<g id="edge38" class="edge">
<title>Node6&#45;&gt;Node30</title>
<path fill="none" stroke="#191970" d="M594.4725,-403.3733C614.0567,-394.3838 643.4961,-380.8706 665.551,-370.7471"/>
<polygon fill="#191970" stroke="#191970" points="667.1729,-373.8538 674.8011,-366.5011 664.2527,-367.4919 667.1729,-373.8538"/>
</g>
<!-- Node32 -->
<g id="node33" class="node">
<title>Node32</title>
<g id="a_node33"><a xlink:href="../../d1/d1f/FECInfo_8h.html" target="_top" xlink:title="TPCBase/FECInfo.h">
<polygon fill="none" stroke="#000000" points="1212.5,-179.5 1212.5,-198.5 1320.5,-198.5 1320.5,-179.5 1212.5,-179.5"/>
<text text-anchor="middle" x="1266.5" y="-186.5" font-family="Helvetica,sans-Serif" font-size="10.00" fill="#000000">TPCBase/FECInfo.h</text>
</a>
</g>
</g>
<!-- Node6&#45;&gt;Node32 -->
<g id="edge46" class="edge">
<title>Node6&#45;&gt;Node32</title>
<path fill="none" stroke="#191970" d="M627.2361,-404.1025C630.0284,-403.7123 632.7958,-403.3419 635.5,-403 722.287,-392.029 949.3592,-406.3238 1027.5,-367 1067.9869,-346.6253 1060.5253,-319.8286 1095.5,-291 1140.8503,-253.619 1201.3855,-220.9011 1236.9341,-203.1398"/>
<polygon fill="#191970" stroke="#191970" points="1238.8459,-206.0993 1246.2646,-198.5354 1235.7482,-199.8221 1238.8459,-206.0993"/>
</g>
<!-- Node33 -->
<g id="node34" class="node">
<title>Node33</title>
<g id="a_node34"><a xlink:href="../../da/d9d/PadRegionInfo_8h.html" target="_top" xlink:title="TPCBase/PadRegionInfo.h">
<polygon fill="none" stroke="#000000" points="845.5,-347.5 845.5,-366.5 985.5,-366.5 985.5,-347.5 845.5,-347.5"/>
<text text-anchor="middle" x="915.5" y="-354.5" font-family="Helvetica,sans-Serif" font-size="10.00" fill="#000000">TPCBase/PadRegionInfo.h</text>
</a>
</g>
</g>
<!-- Node6&#45;&gt;Node33 -->
<g id="edge48" class="edge">
<title>Node6&#45;&gt;Node33</title>
<path fill="none" stroke="#191970" d="M627.3137,-404.1884C686.7731,-394.4524 782.6549,-378.7524 847.3253,-368.1631"/>
<polygon fill="#191970" stroke="#191970" points="848.1231,-371.5792 857.4261,-366.5092 846.9919,-364.6712 848.1231,-371.5792"/>
</g>
<!-- Node34 -->
<g id="node35" class="node">
<title>Node34</title>
<g id="a_node35"><a xlink:href="../../d6/d42/PartitionInfo_8h.html" target="_top" xlink:title="TPCBase/PartitionInfo.h">
<polygon fill="none" stroke="#000000" points="298,-347.5 298,-366.5 429,-366.5 429,-347.5 298,-347.5"/>
<text text-anchor="middle" x="363.5" y="-354.5" font-family="Helvetica,sans-Serif" font-size="10.00" fill="#000000">TPCBase/PartitionInfo.h</text>
</a>
</g>
</g>
<!-- Node6&#45;&gt;Node34 -->
<g id="edge52" class="edge">
<title>Node6&#45;&gt;Node34</title>
<path fill="none" stroke="#191970" d="M537.3997,-403.3733C501.8752,-393.9001 447.512,-379.4032 409.0381,-369.1435"/>
<polygon fill="#191970" stroke="#191970" points="409.6934,-365.696 399.1292,-366.5011 407.8897,-372.4596 409.6934,-365.696"/>
</g>
<!-- Node11&#45;&gt;Node10 -->
<g id="edge13" class="edge">
<title>Node11&#45;&gt;Node10</title>
<path fill="none" stroke="#191970" d="M711.1706,-123.4369C643.7617,-111.786 531.9954,-92.4683 476.2645,-82.8358"/>
<polygon fill="#191970" stroke="#191970" points="476.6643,-79.3531 466.2142,-81.0988 475.472,-86.2508 476.6643,-79.3531"/>
</g>
<!-- Node12 -->
<g id="node13" class="node">
<title>Node12</title>
<g id="a_node13"><a xlink:href="../../d1/da8/GPUROOTCartesianFwd_8h.html" target="_top" xlink:title="GPUROOTCartesianFwd.h">
<polygon fill="none" stroke="#000000" points="621.5,-67.5 621.5,-86.5 761.5,-86.5 761.5,-67.5 621.5,-67.5"/>
<text text-anchor="middle" x="691.5" y="-74.5" font-family="Helvetica,sans-Serif" font-size="10.00" fill="#000000">GPUROOTCartesianFwd.h</text>
</a>
</g>
</g>
<!-- Node11&#45;&gt;Node12 -->
<g id="edge14" class="edge">
<title>Node11&#45;&gt;Node12</title>
<path fill="none" stroke="#191970" d="M753.436,-123.2455C742.1438,-114.814 725.6155,-102.4729 712.4729,-92.6598"/>
<polygon fill="#191970" stroke="#191970" points="714.5211,-89.8211 704.4143,-86.6427 710.3331,-95.4301 714.5211,-89.8211"/>
</g>
<!-- Node11&#45;&gt;Node13 -->
<g id="edge15" class="edge">
<title>Node11&#45;&gt;Node13</title>
<path fill="none" stroke="#191970" d="M779.3898,-123.2455C790.4254,-114.8943 806.5292,-102.7076 819.4353,-92.9408"/>
<polygon fill="#191970" stroke="#191970" points="821.8959,-95.4681 827.7579,-86.6427 817.6717,-89.8862 821.8959,-95.4681"/>
</g>
<!-- Node14 -->
<g id="node15" class="node">
<title>Node14</title>
<polygon fill="none" stroke="#bfbfbf" points="758.5,-.5 758.5,-30.5 922.5,-30.5 922.5,-.5 758.5,-.5"/>
<text text-anchor="start" x="766.5" y="-18.5" font-family="Helvetica,sans-Serif" font-size="10.00" fill="#000000">Math/GenVector/Displacement</text>
<text text-anchor="middle" x="840.5" y="-7.5" font-family="Helvetica,sans-Serif" font-size="10.00" fill="#000000">Vector3D.h</text>
</g>
<!-- Node13&#45;&gt;Node14 -->
<g id="edge16" class="edge">
<title>Node13&#45;&gt;Node14</title>
<path fill="none" stroke="#191970" d="M840.5,-67.3906C840.5,-60.2234 840.5,-50.0862 840.5,-40.671"/>
<polygon fill="#191970" stroke="#191970" points="844.0001,-40.5446 840.5,-30.5446 837.0001,-40.5446 844.0001,-40.5446"/>
</g>
<!-- Node15 -->
<g id="node16" class="node">
<title>Node15</title>
<polygon fill="none" stroke="#bfbfbf" points="941,-6 941,-25 1130,-25 1130,-6 941,-6"/>
<text text-anchor="middle" x="1035.5" y="-13" font-family="Helvetica,sans-Serif" font-size="10.00" fill="#000000">Math/GenVector/PositionVector3D.h</text>
</g>
<!-- Node13&#45;&gt;Node15 -->
<g id="edge17" class="edge">
<title>Node13&#45;&gt;Node15</title>
<path fill="none" stroke="#191970" d="M870.9688,-67.3906C904.4544,-56.8298 958.3853,-39.8208 995.312,-28.1747"/>
<polygon fill="#191970" stroke="#191970" points="996.761,-31.3877 1005.2452,-25.0419 994.6555,-24.7118 996.761,-31.3877"/>
</g>
<!-- Node16 -->
<g id="node17" class="node">
<title>Node16</title>
<polygon fill="none" stroke="#bfbfbf" points="1148.5,-6 1148.5,-25 1308.5,-25 1308.5,-6 1148.5,-6"/>
<text text-anchor="middle" x="1228.5" y="-13" font-family="Helvetica,sans-Serif" font-size="10.00" fill="#000000">Math/GenVector/Rotation3D.h</text>
</g>
<!-- Node13&#45;&gt;Node16 -->
<g id="edge18" class="edge">
<title>Node13&#45;&gt;Node16</title>
<path fill="none" stroke="#191970" d="M901.5433,-67.9699C962.0095,-58.94 1057.2227,-44.4923 1139.5,-31 1147.732,-29.6501 1156.3851,-28.192 1164.929,-26.729"/>
<polygon fill="#191970" stroke="#191970" points="1165.6161,-30.1623 1174.8769,-25.0155 1164.4278,-23.2639 1165.6161,-30.1623"/>
</g>
<!-- Node17 -->
<g id="node18" class="node">
<title>Node17</title>
<polygon fill="none" stroke="#bfbfbf" points="1326.5,-6 1326.5,-25 1494.5,-25 1494.5,-6 1326.5,-6"/>
<text text-anchor="middle" x="1410.5" y="-13" font-family="Helvetica,sans-Serif" font-size="10.00" fill="#000000">Math/GenVector/Transform3D.h</text>
</g>
<!-- Node13&#45;&gt;Node17 -->
<g id="edge19" class="edge">
<title>Node13&#45;&gt;Node17</title>
<path fill="none" stroke="#191970" d="M901.6439,-72.4616C992.5445,-65.4073 1168.6097,-50.563 1317.5,-31 1327.0156,-29.7497 1337.0508,-28.2591 1346.8685,-26.7038"/>
<polygon fill="#191970" stroke="#191970" points="1347.6771,-30.1186 1356.99,-25.0669 1346.5595,-23.2084 1347.6771,-30.1186"/>
</g>
<!-- Node18 -->
<g id="node19" class="node">
<title>Node18</title>
<polygon fill="none" stroke="#bfbfbf" points="0,-6 0,-25 173,-25 173,-6 0,-6"/>
<text text-anchor="middle" x="86.5" y="-13" font-family="Helvetica,sans-Serif" font-size="10.00" fill="#000000">Math/GenVector/Translation3D.h</text>
</g>
<!-- Node13&#45;&gt;Node18 -->
<g id="edge20" class="edge">
<title>Node13&#45;&gt;Node18</title>
<path fill="none" stroke="#191970" d="M779.4522,-67.9829C776.4279,-67.6291 773.4311,-67.2986 770.5,-67 510.0255,-40.4647 442.7226,-59.9018 182.5,-31 171.773,-29.8086 160.4168,-28.2456 149.4146,-26.571"/>
<polygon fill="#191970" stroke="#191970" points="149.8593,-23.098 139.4383,-25.009 148.7765,-30.0138 149.8593,-23.098"/>
</g>
<!-- Node19 -->
<g id="node20" class="node">
<title>Node19</title>
<polygon fill="none" stroke="#bfbfbf" points="191.5,-.5 191.5,-30.5 355.5,-30.5 355.5,-.5 191.5,-.5"/>
<text text-anchor="start" x="199.5" y="-18.5" font-family="Helvetica,sans-Serif" font-size="10.00" fill="#000000">Math/GenVector/Displacement</text>
<text text-anchor="middle" x="273.5" y="-7.5" font-family="Helvetica,sans-Serif" font-size="10.00" fill="#000000">Vector2D.h</text>
</g>
<!-- Node13&#45;&gt;Node19 -->
<g id="edge21" class="edge">
<title>Node13&#45;&gt;Node19</title>
<path fill="none" stroke="#191970" d="M779.4415,-68.0814C776.42,-67.7015 773.4268,-67.3386 770.5,-67 593.7987,-46.5592 545.8769,-53.9462 365.8671,-31.1132"/>
<polygon fill="#191970" stroke="#191970" points="366.1594,-27.6221 355.7954,-29.8218 365.2691,-34.5652 366.1594,-27.6221"/>
</g>
<!-- Node20 -->
<g id="node21" class="node">
<title>Node20</title>
<polygon fill="none" stroke="#bfbfbf" points="374,-6 374,-25 563,-25 563,-6 374,-6"/>
<text text-anchor="middle" x="468.5" y="-13" font-family="Helvetica,sans-Serif" font-size="10.00" fill="#000000">Math/GenVector/PositionVector2D.h</text>
</g>
<!-- Node13&#45;&gt;Node20 -->
<g id="edge22" class="edge">
<title>Node13&#45;&gt;Node20</title>
<path fill="none" stroke="#191970" d="M782.7832,-67.4581C716.1629,-56.4443 606.7331,-38.3531 536.166,-26.6867"/>
<polygon fill="#191970" stroke="#191970" points="536.4832,-23.1917 526.0462,-25.0137 535.3413,-30.098 536.4832,-23.1917"/>
</g>
<!-- Node21 -->
<g id="node22" class="node">
<title>Node21</title>
<polygon fill="none" stroke="#bfbfbf" points="581,-6 581,-25 640,-25 640,-6 581,-6"/>
<text text-anchor="middle" x="610.5" y="-13" font-family="Helvetica,sans-Serif" font-size="10.00" fill="#000000">Rtypes.h</text>
</g>
<!-- Node13&#45;&gt;Node21 -->
<g id="edge23" class="edge">
<title>Node13&#45;&gt;Node21</title>
<path fill="none" stroke="#191970" d="M792.4953,-67.4163C753.5539,-59.1709 697.452,-46.2185 649.5,-31 647.2148,-30.2747 644.8727,-29.4798 642.526,-28.6452"/>
<polygon fill="#191970" stroke="#191970" points="643.5804,-25.3026 632.9882,-25.0667 641.1214,-31.8565 643.5804,-25.3026"/>
</g>
<!-- Node22 -->
<g id="node23" class="node">
<title>Node22</title>
<polygon fill="none" stroke="#bfbfbf" points="658.5,-6 658.5,-25 740.5,-25 740.5,-6 658.5,-6"/>
<text text-anchor="middle" x="699.5" y="-13" font-family="Helvetica,sans-Serif" font-size="10.00" fill="#000000">TGeoMatrix.h</text>
</g>
<!-- Node13&#45;&gt;Node22 -->
<g id="edge24" class="edge">
<title>Node13&#45;&gt;Node22</title>
<path fill="none" stroke="#191970" d="M818.4688,-67.3906C794.8769,-57.1005 757.2499,-40.6888 730.6367,-29.0809"/>
<polygon fill="#191970" stroke="#191970" points="731.9419,-25.8318 721.3765,-25.0419 729.1433,-32.248 731.9419,-25.8318"/>
</g>
<!-- Node23 -->
<g id="node24" class="node">
<title>Node23</title>
<polygon fill="none" stroke="#bfbfbf" points="1512,-6 1512,-25 1561,-25 1561,-6 1512,-6"/>
<text text-anchor="middle" x="1536.5" y="-13" font-family="Helvetica,sans-Serif" font-size="10.00" fill="#000000">iosfwd</text>
</g>
<!-- Node13&#45;&gt;Node23 -->
<g id="edge25" class="edge">
<title>Node13&#45;&gt;Node23</title>
<path fill="none" stroke="#191970" d="M901.762,-75.6281C1043.55,-71.9887 1390.7797,-60.286 1503.5,-31 1505.4757,-30.4867 1507.4774,-29.8567 1509.4671,-29.1476"/>
<polygon fill="#191970" stroke="#191970" points="1511.256,-32.1939 1519.1404,-25.1167 1508.5635,-25.7325 1511.256,-32.1939"/>
</g>
<!-- Node25&#45;&gt;Node24 -->
<g id="edge31" class="edge">
<title>Node25&#45;&gt;Node24</title>
<path fill="none" stroke="#191970" d="M506.724,-291.3733C534.9925,-282.0613 577.9965,-267.8953 609.0344,-257.671"/>
<polygon fill="#191970" stroke="#191970" points="610.2544,-260.9542 618.6573,-254.5011 608.0643,-254.3056 610.2544,-260.9542"/>
</g>
<!-- Node25&#45;&gt;Node26 -->
<g id="edge28" class="edge">
<title>Node25&#45;&gt;Node26</title>
<path fill="none" stroke="#191970" d="M477.9263,-291.4509C478.7418,-273.184 480.5377,-232.9553 481.6206,-208.6976"/>
<polygon fill="#191970" stroke="#191970" points="485.1252,-208.6711 482.0748,-198.5249 478.1322,-208.3588 485.1252,-208.6711"/>
</g>
<!-- Node26&#45;&gt;Node11 -->
<g id="edge30" class="edge">
<title>Node26&#45;&gt;Node11</title>
<path fill="none" stroke="#191970" d="M530.9986,-179.4369C580.0115,-169.7724 655.7777,-154.8326 708.0707,-144.5213"/>
<polygon fill="#191970" stroke="#191970" points="709.0674,-147.8922 718.2014,-142.5237 707.7132,-141.0244 709.0674,-147.8922"/>
</g>
<!-- Node27 -->
<g id="node28" class="node">
<title>Node27</title>
<g id="a_node28"><a xlink:href="../../d0/dda/DataFormats_2Detectors_2TPC_2include_2DataFormatsTPC_2Constants_8h.html" target="_top" xlink:title="DataFormatsTPC/Constants.h">
<polygon fill="none" stroke="#000000" points="403,-123.5 403,-142.5 562,-142.5 562,-123.5 403,-123.5"/>
<text text-anchor="middle" x="482.5" y="-130.5" font-family="Helvetica,sans-Serif" font-size="10.00" fill="#000000">DataFormatsTPC/Constants.h</text>
</a>
</g>
</g>
<!-- Node26&#45;&gt;Node27 -->
<g id="edge29" class="edge">
<title>Node26&#45;&gt;Node27</title>
<path fill="none" stroke="#191970" d="M482.5,-179.2455C482.5,-171.9382 482.5,-161.6944 482.5,-152.7046"/>
<polygon fill="#191970" stroke="#191970" points="486.0001,-152.6426 482.5,-142.6427 479.0001,-152.6427 486.0001,-152.6426"/>
</g>
<!-- Node28&#45;&gt;Node11 -->
<g id="edge33" class="edge">
<title>Node28&#45;&gt;Node11</title>
<path fill="none" stroke="#191970" d="M888.8999,-291.0973C895.4105,-277.7259 904.4318,-253.4489 895.5,-235 875.2616,-193.197 828.656,-163.3348 797.3645,-147.1173"/>
<polygon fill="#191970" stroke="#191970" points="798.6999,-143.8718 788.1911,-142.5243 795.5659,-150.131 798.6999,-143.8718"/>
</g>
<!-- Node28&#45;&gt;Node24 -->
<g id="edge37" class="edge">
<title>Node28&#45;&gt;Node24</title>
<path fill="none" stroke="#191970" d="M843.1983,-291.4369C802.8936,-281.8731 740.8179,-267.1432 697.4182,-256.845"/>
<polygon fill="#191970" stroke="#191970" points="698.1734,-253.4271 687.6355,-254.5237 696.5572,-260.238 698.1734,-253.4271"/>
</g>
<!-- Node29 -->
<g id="node30" class="node">
<title>Node29</title>
<g id="a_node30"><a xlink:href="../../dc/d14/ROC_8h.html" target="_top" xlink:title="TPCBase/ROC.h">
<polygon fill="none" stroke="#000000" points="794.5,-235.5 794.5,-254.5 886.5,-254.5 886.5,-235.5 794.5,-235.5"/>
<text text-anchor="middle" x="840.5" y="-242.5" font-family="Helvetica,sans-Serif" font-size="10.00" fill="#000000">TPCBase/ROC.h</text>
</a>
</g>
</g>
<!-- Node28&#45;&gt;Node29 -->
<g id="edge34" class="edge">
<title>Node28&#45;&gt;Node29</title>
<path fill="none" stroke="#191970" d="M876.01,-291.2455C869.9674,-283.3761 861.3097,-272.101 854.0559,-262.6542"/>
<polygon fill="#191970" stroke="#191970" points="856.7705,-260.4426 847.9042,-254.6427 851.2185,-264.7058 856.7705,-260.4426"/>
</g>
<!-- Node29&#45;&gt;Node11 -->
<g id="edge35" class="edge">
<title>Node29&#45;&gt;Node11</title>
<path fill="none" stroke="#191970" d="M834.1908,-235.4509C821.8485,-216.7707 794.3318,-175.1238 778.4432,-151.0761"/>
<polygon fill="#191970" stroke="#191970" points="781.226,-148.9388 772.7932,-142.5249 775.3857,-152.7977 781.226,-148.9388"/>
</g>
<!-- Node29&#45;&gt;Node26 -->
<g id="edge36" class="edge">
<title>Node29&#45;&gt;Node26</title>
<path fill="none" stroke="#191970" d="M794.4307,-237.7936C730.3522,-227.7702 614.2067,-209.6022 543.149,-198.487"/>
<polygon fill="#191970" stroke="#191970" points="543.4246,-194.9876 533.0038,-196.9 542.3427,-201.9035 543.4246,-194.9876"/>
</g>
<!-- Node30&#45;&gt;Node11 -->
<g id="edge39" class="edge">
<title>Node30&#45;&gt;Node11</title>
<path fill="none" stroke="#191970" d="M674.3575,-347.4042C635.1506,-328.2004 557.5875,-282.7693 585.5,-235 613.6936,-186.7498 674.0563,-159.5423 717.324,-145.58"/>
<polygon fill="#191970" stroke="#191970" points="718.5822,-148.8545 727.1006,-142.5546 716.5128,-142.1673 718.5822,-148.8545"/>
</g>
<!-- Node30&#45;&gt;Node24 -->
<g id="edge44" class="edge">
<title>Node30&#45;&gt;Node24</title>
<path fill="none" stroke="#191970" d="M671.7141,-347.4178C656.6331,-339.9442 638.3538,-327.9629 629.5,-311 621.7169,-296.0884 628.0544,-277.4761 635.2708,-263.8214"/>
<polygon fill="#191970" stroke="#191970" points="638.4724,-265.2793 640.4915,-254.8787 632.4272,-261.7501 638.4724,-265.2793"/>
</g>
<!-- Node30&#45;&gt;Node25 -->
<g id="edge45" class="edge">
<title>Node30&#45;&gt;Node25</title>
<path fill="none" stroke="#191970" d="M658.0245,-347.3733C620.9897,-337.8598 564.2318,-323.2797 524.2639,-313.0127"/>
<polygon fill="#191970" stroke="#191970" points="525.0429,-309.5993 514.4865,-310.5011 523.3012,-316.3792 525.0429,-309.5993"/>
</g>
<!-- Node31 -->
<g id="node32" class="node">
<title>Node31</title>
<g id="a_node32"><a xlink:href="../../df/d26/CRU_8h.html" target="_top" xlink:title="TPCBase/CRU.h">
<polygon fill="none" stroke="#000000" points="709.5,-291.5 709.5,-310.5 801.5,-310.5 801.5,-291.5 709.5,-291.5"/>
<text text-anchor="middle" x="755.5" y="-298.5" font-family="Helvetica,sans-Serif" font-size="10.00" fill="#000000">TPCBase/CRU.h</text>
</a>
</g>
</g>
<!-- Node30&#45;&gt;Node31 -->
<g id="edge40" class="edge">
<title>Node30&#45;&gt;Node31</title>
<path fill="none" stroke="#191970" d="M705.9512,-347.2455C714.7269,-339.0549 727.4554,-327.1749 737.814,-317.5069"/>
<polygon fill="#191970" stroke="#191970" points="740.2461,-320.0246 745.1686,-310.6427 735.4699,-314.9072 740.2461,-320.0246"/>
</g>
<!-- Node31&#45;&gt;Node11 -->
<g id="edge41" class="edge">
<title>Node31&#45;&gt;Node11</title>
<path fill="none" stroke="#191970" d="M756.1229,-291.4862C757.8618,-264.9293 762.7963,-189.5651 765.1796,-153.1655"/>
<polygon fill="#191970" stroke="#191970" points="768.6956,-153.0352 765.8565,-142.8279 761.7105,-152.5778 768.6956,-153.0352"/>
</g>
<!-- Node31&#45;&gt;Node26 -->
<g id="edge42" class="edge">
<title>Node31&#45;&gt;Node26</title>
<path fill="none" stroke="#191970" d="M751.5175,-291.1413C745.034,-276.4247 730.7483,-248.9522 709.5,-235 682.6667,-217.3805 601.0051,-203.8458 543.3443,-196.1543"/>
<polygon fill="#191970" stroke="#191970" points="543.6042,-192.6586 533.2348,-194.8325 542.6966,-199.5995 543.6042,-192.6586"/>
</g>
<!-- Node31&#45;&gt;Node29 -->
<g id="edge43" class="edge">
<title>Node31&#45;&gt;Node29</title>
<path fill="none" stroke="#191970" d="M770.3059,-291.2455C783.2256,-282.7337 802.1931,-270.2375 817.1552,-260.3801"/>
<polygon fill="#191970" stroke="#191970" points="819.4387,-263.067 825.8638,-254.6427 815.5876,-257.2216 819.4387,-263.067"/>
</g>
<!-- Node32&#45;&gt;Node23 -->
<g id="edge47" class="edge">
<title>Node32&#45;&gt;Node23</title>
<path fill="none" stroke="#191970" d="M1281.401,-179.4248C1326.025,-150.7497 1458.8414,-65.4029 1513.0572,-30.5642"/>
<polygon fill="#191970" stroke="#191970" points="1515.1244,-33.3962 1521.6451,-25.0457 1511.3402,-27.5072 1515.1244,-33.3962"/>
</g>
<!-- Node33&#45;&gt;Node3 -->
<g id="edge49" class="edge">
<title>Node33&#45;&gt;Node3</title>
<path fill="none" stroke="#191970" d="M951.9441,-347.3733C991.9366,-336.8092 1055.5793,-319.9979 1094.2542,-309.7819"/>
<polygon fill="#191970" stroke="#191970" points="1095.215,-313.1482 1103.9895,-307.2103 1093.4273,-306.3804 1095.215,-313.1482"/>
</g>
<!-- Node33&#45;&gt;Node11 -->
<g id="edge50" class="edge">
<title>Node33&#45;&gt;Node11</title>
<path fill="none" stroke="#191970" d="M928.2248,-347.2466C938.0407,-338.8582 950.8633,-325.7955 956.5,-311 959.6645,-302.6935 959.3349,-299.4247 956.5,-291 936.5704,-231.7733 920.5872,-217.6709 871.5,-179 853.0943,-164.5 829.4098,-153.6077 809.1949,-146.0716"/>
<polygon fill="#191970" stroke="#191970" points="810.1829,-142.708 799.5883,-142.6406 807.8285,-149.3002 810.1829,-142.708"/>
</g>
<!-- Node33&#45;&gt;Node24 -->
<g id="edge51" class="edge">
<title>Node33&#45;&gt;Node24</title>
<path fill="none" stroke="#191970" d="M847.1726,-347.4732C793.7998,-339.1028 724.7472,-325.9494 700.5,-311 681.8243,-299.4857 666.9057,-278.9541 657.7138,-263.8389"/>
<polygon fill="#191970" stroke="#191970" points="660.5486,-261.7489 652.5184,-254.8375 654.486,-265.2481 660.5486,-261.7489"/>
</g>
<!-- Node35&#45;&gt;Node3 -->
<g id="edge58" class="edge">
<title>Node35&#45;&gt;Node3</title>
<path fill="none" stroke="#191970" d="M972.691,-459.1367C976.331,-444.9119 984.9221,-418.6337 1001.5,-403 1032.8426,-373.4425 1059.2816,-395.6003 1091.5,-367 1105.6382,-354.4495 1115.3022,-334.9728 1121.029,-320.4253"/>
<polygon fill="#191970" stroke="#191970" points="1124.3745,-321.467 1124.5108,-310.8731 1117.7978,-319.0697 1124.3745,-321.467"/>
</g>
<!-- Node35&#45;&gt;Node6 -->
<g id="edge62" class="edge">
<title>Node35&#45;&gt;Node6</title>
<path fill="none" stroke="#191970" d="M914.429,-461.7093C849.931,-453.2313 740.5813,-438.5783 637.2371,-423.2362"/>
<polygon fill="#191970" stroke="#191970" points="637.6631,-419.7611 627.2565,-421.7495 636.6317,-426.6847 637.6631,-419.7611"/>
</g>
<!-- Node35&#45;&gt;Node9 -->
<g id="edge59" class="edge">
<title>Node35&#45;&gt;Node9</title>
<path fill="none" stroke="#191970" d="M976.3956,-459.4265C985.7126,-445.0822 1005.1964,-418.0896 1028.5,-403 1038.4771,-396.5396 1104.8853,-377.2952 1145.6053,-365.8469"/>
<polygon fill="#191970" stroke="#191970" points="1146.6687,-369.1838 1155.3544,-363.1168 1144.781,-362.4431 1146.6687,-369.1838"/>
</g>
<!-- Node36 -->
<g id="node37" class="node">
<title>Node36</title>
<polygon fill="none" stroke="#bfbfbf" points="824.5,-403.5 824.5,-422.5 868.5,-422.5 868.5,-403.5 824.5,-403.5"/>
<text text-anchor="middle" x="846.5" y="-410.5" font-family="Helvetica,sans-Serif" font-size="10.00" fill="#000000">Vc/Vc</text>
</g>
<!-- Node35&#45;&gt;Node36 -->
<g id="edge56" class="edge">
<title>Node35&#45;&gt;Node36</title>
<path fill="none" stroke="#191970" d="M949.1836,-459.3733C929.2784,-450.3838 899.3564,-436.8706 876.94,-426.7471"/>
<polygon fill="#191970" stroke="#191970" points="878.0925,-423.4272 867.5382,-422.5011 875.2113,-429.8068 878.0925,-423.4272"/>
</g>
<!-- Node37 -->
<g id="node38" class="node">
<title>Node37</title>
<polygon fill="none" stroke="#bfbfbf" points="1156.5,-403.5 1156.5,-422.5 1214.5,-422.5 1214.5,-403.5 1156.5,-403.5"/>
<text text-anchor="middle" x="1185.5" y="-410.5" font-family="Helvetica,sans-Serif" font-size="10.00" fill="#000000">memory</text>
</g>
<!-- Node35&#45;&gt;Node37 -->
<g id="edge57" class="edge">
<title>Node35&#45;&gt;Node37</title>
<path fill="none" stroke="#191970" d="M1007.4602,-459.4297C1041.2454,-450.6736 1092.8587,-437.2776 1146.7314,-423.1959"/>
<polygon fill="#191970" stroke="#191970" points="1147.6671,-426.569 1156.4563,-420.6529 1145.8961,-419.7967 1147.6671,-426.569"/>
</g>
<!-- Node38 -->
<g id="node39" class="node">
<title>Node38</title>
<polygon fill="none" stroke="#bfbfbf" points="886.5,-403.5 886.5,-422.5 942.5,-422.5 942.5,-403.5 886.5,-403.5"/>
<text text-anchor="middle" x="914.5" y="-410.5" font-family="Helvetica,sans-Serif" font-size="10.00" fill="#000000">numeric</text>
</g>
<!-- Node35&#45;&gt;Node38 -->
<g id="edge60" class="edge">
<title>Node35&#45;&gt;Node38</title>
<path fill="none" stroke="#191970" d="M960.7455,-459.2455C952.6352,-451.1352 940.9075,-439.4075 931.2919,-429.7919"/>
<polygon fill="#191970" stroke="#191970" points="933.6887,-427.2389 924.1427,-422.6427 928.7389,-432.1887 933.6887,-427.2389"/>
</g>
<!-- Node39 -->
<g id="node40" class="node">
<title>Node39</title>
<polygon fill="none" stroke="#bfbfbf" points="645,-403.5 645,-422.5 714,-422.5 714,-403.5 645,-403.5"/>
<text text-anchor="middle" x="679.5" y="-410.5" font-family="Helvetica,sans-Serif" font-size="10.00" fill="#000000">type_traits</text>
</g>
<!-- Node35&#45;&gt;Node39 -->
<g id="edge61" class="edge">
<title>Node35&#45;&gt;Node39</title>
<path fill="none" stroke="#191970" d="M915.2001,-459.4792C867.1103,-451.0329 795.3174,-438.0243 724.2279,-423.3008"/>
<polygon fill="#191970" stroke="#191970" points="724.7078,-419.8257 714.2041,-421.2122 723.2798,-426.6786 724.7078,-419.8257"/>
</g>
<!-- Node40 -->
<g id="node41" class="node">
<title>Node40</title>
<polygon fill="none" stroke="#bfbfbf" points="732,-403.5 732,-422.5 807,-422.5 807,-403.5 732,-403.5"/>
<text text-anchor="middle" x="769.5" y="-410.5" font-family="Helvetica,sans-Serif" font-size="10.00" fill="#000000">FairLogger.h</text>
</g>
<!-- Node35&#45;&gt;Node40 -->
<g id="edge63" class="edge">
<title>Node35&#45;&gt;Node40</title>
<path fill="none" stroke="#191970" d="M935.9469,-459.3733C902.0896,-449.9404 850.354,-435.5265 813.5574,-425.2747"/>
<polygon fill="#191970" stroke="#191970" points="814.1747,-421.8135 803.6022,-422.5011 812.296,-428.5566 814.1747,-421.8135"/>
</g>
<!-- Node41 -->
<g id="node42" class="node">
<title>Node41</title>
<polygon fill="none" stroke="#bfbfbf" points="1037,-403.5 1037,-422.5 1138,-422.5 1138,-403.5 1037,-403.5"/>
<text text-anchor="middle" x="1087.5" y="-410.5" font-family="Helvetica,sans-Serif" font-size="10.00" fill="#000000">boost/format.hpp</text>
</g>
<!-- Node35&#45;&gt;Node41 -->
<g id="edge64" class="edge">
<title>Node35&#45;&gt;Node41</title>
<path fill="none" stroke="#191970" d="M990.613,-459.3733C1009.3103,-450.4241 1037.3744,-436.9917 1058.4934,-426.8835"/>
<polygon fill="#191970" stroke="#191970" points="1060.1405,-429.9755 1067.6494,-422.5011 1057.1183,-423.6614 1060.1405,-429.9755"/>
</g>
<!-- Node42&#45;&gt;Node1 -->
<g id="edge78" class="edge">
<title>Node42&#45;&gt;Node1</title>
<path fill="none" stroke="#191970" d="M1182.3639,-520.3846C1094.327,-512.5032 910.6211,-495.6796 755.5,-479 754.2269,-478.8631 752.943,-478.7239 751.6507,-478.5828"/>
<polygon fill="#191970" stroke="#191970" points="751.9382,-475.0933 741.6128,-477.4676 751.1652,-482.0505 751.9382,-475.0933"/>
</g>
<!-- Node42&#45;&gt;Node3 -->
<g id="edge67" class="edge">
<title>Node42&#45;&gt;Node3</title>
<path fill="none" stroke="#191970" d="M1286.8672,-519.6081C1337.3449,-513.2019 1408.5094,-500.5684 1425.5,-479 1446.4021,-452.4662 1445.14,-430.4811 1425.5,-403 1393.972,-358.8848 1232.4518,-321.9064 1161.2665,-307.4824"/>
<polygon fill="#191970" stroke="#191970" points="1161.5395,-303.9679 1151.0476,-305.4415 1160.1684,-310.8323 1161.5395,-303.9679"/>
</g>
<!-- Node42&#45;&gt;Node6 -->
<g id="edge71" class="edge">
<title>Node42&#45;&gt;Node6</title>
<path fill="none" stroke="#191970" d="M1182.2201,-518.63C1117.2014,-510.4917 1002.8826,-495.4736 905.5,-479 806.9105,-462.3223 692.7146,-438.6587 627.2089,-424.6628"/>
<polygon fill="#191970" stroke="#191970" points="627.6349,-421.1747 617.1236,-422.502 626.1685,-428.0193 627.6349,-421.1747"/>
</g>
<!-- Node42&#45;&gt;Node9 -->
<g id="edge68" class="edge">
<title>Node42&#45;&gt;Node9</title>
<path fill="none" stroke="#191970" d="M1235.7744,-515.2496C1238.1341,-493.7896 1241.4362,-441.3314 1223.5,-403 1218.0761,-391.4086 1208.4415,-381.0663 1199.3863,-373.1383"/>
<polygon fill="#191970" stroke="#191970" points="1201.3238,-370.2009 1191.3707,-366.5696 1196.8869,-375.6152 1201.3238,-370.2009"/>
</g>
<!-- Node42&#45;&gt;Node11 -->
<g id="edge70" class="edge">
<title>Node42&#45;&gt;Node11</title>
<path fill="none" stroke="#191970" d="M1286.6836,-518.2854C1340.3449,-510.5637 1419.4969,-496.649 1444.5,-479 1496.6903,-442.1603 1520.5,-420.8826 1520.5,-357 1520.5,-357 1520.5,-357 1520.5,-245 1520.5,-177.0277 1034.8769,-146.0207 843.0898,-136.4255"/>
<polygon fill="#191970" stroke="#191970" points="843.2423,-132.9289 833.0817,-135.9309 842.8967,-139.9203 843.2423,-132.9289"/>
</g>
<!-- Node42&#45;&gt;Node26 -->
<g id="edge73" class="edge">
<title>Node42&#45;&gt;Node26</title>
<path fill="none" stroke="#191970" d="M1182.2488,-521.268C1083.1966,-513.8953 871.6521,-496.6424 800.5,-479 777.2694,-473.2399 773.6005,-465.2616 750.5,-459 646.3966,-430.7819 616.3395,-443.7791 510.5,-423 407.2622,-402.7317 345.5012,-449.7265 280.5,-367 224.0956,-295.2145 371.3386,-229.3549 444.3181,-202.164"/>
<polygon fill="#191970" stroke="#191970" points="445.9055,-205.3102 454.0941,-198.5873 443.5003,-198.7363 445.9055,-205.3102"/>
</g>
<!-- Node42&#45;&gt;Node29 -->
<g id="edge72" class="edge">
<title>Node42&#45;&gt;Node29</title>
<path fill="none" stroke="#191970" d="M1238.911,-515.3802C1242.8419,-506.2426 1248.3026,-492.0061 1250.5,-479 1251.9808,-470.2353 1251.2844,-467.8542 1250.5,-459 1243.0256,-374.6244 1234.736,-331.7938 1160.5,-291 1116.3079,-266.7157 976.5056,-253.8594 897.0789,-248.3523"/>
<polygon fill="#191970" stroke="#191970" points="896.9732,-244.8373 886.7598,-247.6546 896.5009,-251.8213 896.9732,-244.8373"/>
</g>
<!-- Node42&#45;&gt;Node35 -->
<g id="edge74" class="edge">
<title>Node42&#45;&gt;Node35</title>
<path fill="none" stroke="#191970" d="M1189.4167,-515.4369C1144.0454,-505.8127 1074.0114,-490.957 1025.4234,-480.6504"/>
<polygon fill="#191970" stroke="#191970" points="1025.9059,-477.175 1015.3973,-478.5237 1024.4534,-484.0226 1025.9059,-477.175"/>
</g>
<!-- Node42&#45;&gt;Node37 -->
<g id="edge66" class="edge">
<title>Node42&#45;&gt;Node37</title>
<path fill="none" stroke="#191970" d="M1230.3223,-515.4509C1222.222,-496.936 1204.2508,-455.8591 1193.6894,-431.7187"/>
<polygon fill="#191970" stroke="#191970" points="1196.8819,-430.2836 1189.6671,-422.5249 1190.4688,-433.0894 1196.8819,-430.2836"/>
</g>
<!-- Node42&#45;&gt;Node41 -->
<g id="edge77" class="edge">
<title>Node42&#45;&gt;Node41</title>
<path fill="none" stroke="#191970" d="M1221.9669,-515.4509C1196.5811,-496.1094 1138.8798,-452.1465 1107.9624,-428.5904"/>
<polygon fill="#191970" stroke="#191970" points="1110.0769,-425.8013 1100.0014,-422.5249 1105.8346,-431.3694 1110.0769,-425.8013"/>
</g>
<!-- Node43 -->
<g id="node44" class="node">
<title>Node43</title>
<polygon fill="none" stroke="#bfbfbf" points="1510.5,-459.5 1510.5,-478.5 1562.5,-478.5 1562.5,-459.5 1510.5,-459.5"/>
<text text-anchor="middle" x="1536.5" y="-466.5" font-family="Helvetica,sans-Serif" font-size="10.00" fill="#000000">cassert</text>
</g>
<!-- Node42&#45;&gt;Node43 -->
<g id="edge69" class="edge">
<title>Node42&#45;&gt;Node43</title>
<path fill="none" stroke="#191970" d="M1286.9066,-516.925C1339.9485,-508.4882 1424.223,-494.3592 1496.5,-479 1497.7603,-478.7322 1499.0412,-478.4526 1500.3334,-478.1642"/>
<polygon fill="#191970" stroke="#191970" points="1501.3717,-481.5159 1510.312,-475.8305 1499.7776,-474.6998 1501.3717,-481.5159"/>
</g>
<!-- Node44 -->
<g id="node45" class="node">
<title>Node44</title>
<g id="a_node45"><a xlink:href="../../dd/da4/Logger_8h.html" target="_top" xlink:title="Framework/Logger.h">
<polygon fill="none" stroke="#000000" points="1301,-459.5 1301,-478.5 1416,-478.5 1416,-459.5 1301,-459.5"/>
<text text-anchor="middle" x="1358.5" y="-466.5" font-family="Helvetica,sans-Serif" font-size="10.00" fill="#000000">Framework/Logger.h</text>
</a>
</g>
</g>
<!-- Node42&#45;&gt;Node44 -->
<g id="edge75" class="edge">
<title>Node42&#45;&gt;Node44</title>
<path fill="none" stroke="#191970" d="M1255.8164,-515.3733C1275.7216,-506.3838 1305.6436,-492.8706 1328.06,-482.7471"/>
<polygon fill="#191970" stroke="#191970" points="1329.7887,-485.8068 1337.4618,-478.5011 1326.9075,-479.4272 1329.7887,-485.8068"/>
</g>
<!-- Node45 -->
<g id="node46" class="node">
<title>Node45</title>
<polygon fill="none" stroke="#bfbfbf" points="1308.5,-403.5 1308.5,-422.5 1416.5,-422.5 1416.5,-403.5 1308.5,-403.5"/>
<text text-anchor="middle" x="1362.5" y="-410.5" font-family="Helvetica,sans-Serif" font-size="10.00" fill="#000000">fairlogger/Logger.h</text>
</g>
<!-- Node44&#45;&gt;Node45 -->
<g id="edge76" class="edge">
<title>Node44&#45;&gt;Node45</title>
<path fill="none" stroke="#191970" d="M1359.1967,-459.2455C1359.7187,-451.9382 1360.4504,-441.6944 1361.0925,-432.7046"/>
<polygon fill="#191970" stroke="#191970" points="1364.5898,-432.8667 1361.8112,-422.6427 1357.6076,-432.3679 1364.5898,-432.8667"/>
</g>
</g>
</svg>
