<?xml version="1.0" encoding="UTF-8" standalone="no"?>
<!DOCTYPE svg PUBLIC "-//W3C//DTD SVG 1.1//EN"
 "http://www.w3.org/Graphics/SVG/1.1/DTD/svg11.dtd">
<!-- Generated by graphviz version 2.40.1 (20161225.0304)
 -->
<!-- Title: /home/travis/build/AliceO2Group/AliceO2/Common/Utils/include/CommonUtils/MemFileHelper.h Pages: 1 -->
<svg width="1298pt" height="350pt"
 viewBox="0.00 0.00 1297.50 350.00" xmlns="http://www.w3.org/2000/svg" xmlns:xlink="http://www.w3.org/1999/xlink">
<g id="graph0" class="graph" transform="scale(1 1) rotate(0) translate(4 346)">
<title>/home/travis/build/AliceO2Group/AliceO2/Common/Utils/include/CommonUtils/MemFileHelper.h</title>
<!-- Node8 -->
<g id="node1" class="node">
<title>Node8</title>
<polygon fill="#bfbfbf" stroke="#000000" points="513,-289.5 513,-341.5 683,-341.5 683,-289.5 513,-289.5"/>
<text text-anchor="start" x="521" y="-329.5" font-family="Helvetica,sans-Serif" font-size="10.00" fill="#000000">/home/travis/build</text>
<text text-anchor="start" x="521" y="-318.5" font-family="Helvetica,sans-Serif" font-size="10.00" fill="#000000">/AliceO2Group/AliceO2</text>
<text text-anchor="start" x="521" y="-307.5" font-family="Helvetica,sans-Serif" font-size="10.00" fill="#000000">/Common/Utils/include</text>
<text text-anchor="middle" x="598" y="-296.5" font-family="Helvetica,sans-Serif" font-size="10.00" fill="#000000">/CommonUtils/MemFileHelper.h</text>
</g>
<!-- Node9 -->
<g id="node2" class="node">
<title>Node9</title>
<g id="a_node2"><a xlink:href="../../dc/d5f/CcdbApi_8cxx.html" target="_top" xlink:title="/home/travis/build\l/AliceO2Group/AliceO2\l/CCDB/src/CcdbApi.cxx">
<polygon fill="none" stroke="#000000" points="0,-200.5 0,-241.5 128,-241.5 128,-200.5 0,-200.5"/>
<text text-anchor="start" x="8" y="-229.5" font-family="Helvetica,sans-Serif" font-size="10.00" fill="#000000">/home/travis/build</text>
<text text-anchor="start" x="8" y="-218.5" font-family="Helvetica,sans-Serif" font-size="10.00" fill="#000000">/AliceO2Group/AliceO2</text>
<text text-anchor="middle" x="64" y="-207.5" font-family="Helvetica,sans-Serif" font-size="10.00" fill="#000000">/CCDB/src/CcdbApi.cxx</text>
</a>
</g>
</g>
<!-- Node8&#45;&gt;Node9 -->
<g id="edge1" class="edge">
<title>Node8&#45;&gt;Node9</title>
<path fill="none" stroke="#191970" d="M502.7735,-310.3384C408.4451,-303.4287 260.5983,-287.7318 137,-253 126.609,-250.0801 115.7731,-245.9688 105.728,-241.6632"/>
<polygon fill="#191970" stroke="#191970" points="502.6438,-313.838 512.8677,-311.0592 503.1424,-306.8557 502.6438,-313.838"/>
</g>
<!-- Node10 -->
<g id="node3" class="node">
<title>Node10</title>
<g id="a_node3"><a xlink:href="../../d0/ddd/testMemFileHelper_8cxx.html" target="_top" xlink:title="unit tests for TMemFile and its binary image creation ">
<polygon fill="none" stroke="#000000" points="146.5,-195 146.5,-247 319.5,-247 319.5,-195 146.5,-195"/>
<text text-anchor="start" x="154.5" y="-235" font-family="Helvetica,sans-Serif" font-size="10.00" fill="#000000">/home/travis/build</text>
<text text-anchor="start" x="154.5" y="-224" font-family="Helvetica,sans-Serif" font-size="10.00" fill="#000000">/AliceO2Group/AliceO2</text>
<text text-anchor="start" x="154.5" y="-213" font-family="Helvetica,sans-Serif" font-size="10.00" fill="#000000">/Common/Utils/test/testMemFile</text>
<text text-anchor="middle" x="233" y="-202" font-family="Helvetica,sans-Serif" font-size="10.00" fill="#000000">Helper.cxx</text>
</a>
</g>
</g>
<!-- Node8&#45;&gt;Node10 -->
<g id="edge2" class="edge">
<title>Node8&#45;&gt;Node10</title>
<path fill="none" stroke="#191970" d="M503.1383,-295.7298C451.3727,-284.3729 386.33,-269.1769 329,-253 322.4904,-251.1632 315.7675,-249.1551 309.0427,-247.0688"/>
<polygon fill="#191970" stroke="#191970" points="502.4597,-299.164 512.976,-297.877 503.9524,-292.325 502.4597,-299.164"/>
</g>
<!-- Node11 -->
<g id="node4" class="node">
<title>Node11</title>
<g id="a_node4"><a xlink:href="../../d7/da7/DCSProcessor_8h.html" target="_top" xlink:title="/home/travis/build\l/AliceO2Group/AliceO2\l/Detectors/DCS/include\l/DetectorsDCS/DCSProcessor.h">
<polygon fill="none" stroke="#000000" points="338,-195 338,-247 504,-247 504,-195 338,-195"/>
<text text-anchor="start" x="346" y="-235" font-family="Helvetica,sans-Serif" font-size="10.00" fill="#000000">/home/travis/build</text>
<text text-anchor="start" x="346" y="-224" font-family="Helvetica,sans-Serif" font-size="10.00" fill="#000000">/AliceO2Group/AliceO2</text>
<text text-anchor="start" x="346" y="-213" font-family="Helvetica,sans-Serif" font-size="10.00" fill="#000000">/Detectors/DCS/include</text>
<text text-anchor="middle" x="421" y="-202" font-family="Helvetica,sans-Serif" font-size="10.00" fill="#000000">/DetectorsDCS/DCSProcessor.h</text>
</a>
</g>
</g>
<!-- Node8&#45;&gt;Node11 -->
<g id="edge3" class="edge">
<title>Node8&#45;&gt;Node11</title>
<path fill="none" stroke="#191970" d="M540.2989,-284.6935C517.5816,-272.5648 491.771,-258.7845 469.9822,-247.1515"/>
<polygon fill="#191970" stroke="#191970" points="538.6955,-287.805 549.1654,-289.4273 541.9924,-281.63 538.6955,-287.805"/>
</g>
<!-- Node15 -->
<g id="node8" class="node">
<title>Node15</title>
<g id="a_node8"><a xlink:href="../../d1/dff/LHCClockCalibrator_8cxx.html" target="_top" xlink:title="/home/travis/build\l/AliceO2Group/AliceO2\l/Detectors/TOF/calibration\l/src/LHCClockCalibrator.cxx">
<polygon fill="none" stroke="#000000" points="522.5,-195 522.5,-247 673.5,-247 673.5,-195 522.5,-195"/>
<text text-anchor="start" x="530.5" y="-235" font-family="Helvetica,sans-Serif" font-size="10.00" fill="#000000">/home/travis/build</text>
<text text-anchor="start" x="530.5" y="-224" font-family="Helvetica,sans-Serif" font-size="10.00" fill="#000000">/AliceO2Group/AliceO2</text>
<text text-anchor="start" x="530.5" y="-213" font-family="Helvetica,sans-Serif" font-size="10.00" fill="#000000">/Detectors/TOF/calibration</text>
<text text-anchor="middle" x="598" y="-202" font-family="Helvetica,sans-Serif" font-size="10.00" fill="#000000">/src/LHCClockCalibrator.cxx</text>
</a>
</g>
</g>
<!-- Node8&#45;&gt;Node15 -->
<g id="edge7" class="edge">
<title>Node8&#45;&gt;Node15</title>
<path fill="none" stroke="#191970" d="M598,-279.1645C598,-268.5577 598,-257.1746 598,-247.3157"/>
<polygon fill="#191970" stroke="#191970" points="594.5001,-279.4273 598,-289.4273 601.5001,-279.4273 594.5001,-279.4273"/>
</g>
<!-- Node16 -->
<g id="node9" class="node">
<title>Node16</title>
<g id="a_node9"><a xlink:href="../../d9/dff/TOFChannelCalibrator_8cxx.html" target="_top" xlink:title="/home/travis/build\l/AliceO2Group/AliceO2\l/Detectors/TOF/calibration\l/src/TOFChannelCalibrator.cxx">
<polygon fill="none" stroke="#000000" points="691.5,-195 691.5,-247 854.5,-247 854.5,-195 691.5,-195"/>
<text text-anchor="start" x="699.5" y="-235" font-family="Helvetica,sans-Serif" font-size="10.00" fill="#000000">/home/travis/build</text>
<text text-anchor="start" x="699.5" y="-224" font-family="Helvetica,sans-Serif" font-size="10.00" fill="#000000">/AliceO2Group/AliceO2</text>
<text text-anchor="start" x="699.5" y="-213" font-family="Helvetica,sans-Serif" font-size="10.00" fill="#000000">/Detectors/TOF/calibration</text>
<text text-anchor="middle" x="773" y="-202" font-family="Helvetica,sans-Serif" font-size="10.00" fill="#000000">/src/TOFChannelCalibrator.cxx</text>
</a>
</g>
</g>
<!-- Node8&#45;&gt;Node16 -->
<g id="edge8" class="edge">
<title>Node8&#45;&gt;Node16</title>
<path fill="none" stroke="#191970" d="M655.3475,-284.5324C677.7355,-272.4429 703.124,-258.7331 724.5713,-247.1515"/>
<polygon fill="#191970" stroke="#191970" points="653.4188,-281.5961 646.2828,-289.4273 656.7449,-287.7554 653.4188,-281.5961"/>
</g>
<!-- Node17 -->
<g id="node10" class="node">
<title>Node17</title>
<g id="a_node10"><a xlink:href="../../d0/d37/LHCClockCalibratorSpec_8h.html" target="_top" xlink:title="Device to calibrate LHC clock phase using TOF data. ">
<polygon fill="none" stroke="#000000" points="872.5,-189.5 872.5,-252.5 1053.5,-252.5 1053.5,-189.5 872.5,-189.5"/>
<text text-anchor="start" x="880.5" y="-240.5" font-family="Helvetica,sans-Serif" font-size="10.00" fill="#000000">/home/travis/build</text>
<text text-anchor="start" x="880.5" y="-229.5" font-family="Helvetica,sans-Serif" font-size="10.00" fill="#000000">/AliceO2Group/AliceO2</text>
<text text-anchor="start" x="880.5" y="-218.5" font-family="Helvetica,sans-Serif" font-size="10.00" fill="#000000">/Detectors/TOF/calibration</text>
<text text-anchor="start" x="880.5" y="-207.5" font-family="Helvetica,sans-Serif" font-size="10.00" fill="#000000">/testWorkflow/LHCClockCalibrator</text>
<text text-anchor="middle" x="963" y="-196.5" font-family="Helvetica,sans-Serif" font-size="10.00" fill="#000000">Spec.h</text>
</a>
</g>
</g>
<!-- Node8&#45;&gt;Node17 -->
<g id="edge9" class="edge">
<title>Node8&#45;&gt;Node17</title>
<path fill="none" stroke="#191970" d="M693.1266,-294.955C743.8049,-283.5345 807.0609,-268.5213 863,-253 866.0738,-252.1471 869.1947,-251.2613 872.3418,-250.351"/>
<polygon fill="#191970" stroke="#191970" points="692.1556,-291.5858 683.1645,-297.1903 693.6882,-298.4159 692.1556,-291.5858"/>
</g>
<!-- Node20 -->
<g id="node13" class="node">
<title>Node20</title>
<g id="a_node13"><a xlink:href="../../df/de3/TOFChannelCalibratorSpec_8h.html" target="_top" xlink:title="Device to calibrate TOF channles (offsets) ">
<polygon fill="none" stroke="#000000" points="1071.5,-189.5 1071.5,-252.5 1264.5,-252.5 1264.5,-189.5 1071.5,-189.5"/>
<text text-anchor="start" x="1079.5" y="-240.5" font-family="Helvetica,sans-Serif" font-size="10.00" fill="#000000">/home/travis/build</text>
<text text-anchor="start" x="1079.5" y="-229.5" font-family="Helvetica,sans-Serif" font-size="10.00" fill="#000000">/AliceO2Group/AliceO2</text>
<text text-anchor="start" x="1079.5" y="-218.5" font-family="Helvetica,sans-Serif" font-size="10.00" fill="#000000">/Detectors/TOF/calibration</text>
<text text-anchor="start" x="1079.5" y="-207.5" font-family="Helvetica,sans-Serif" font-size="10.00" fill="#000000">/testWorkflow/TOFChannelCalibrator</text>
<text text-anchor="middle" x="1168" y="-196.5" font-family="Helvetica,sans-Serif" font-size="10.00" fill="#000000">Spec.h</text>
</a>
</g>
</g>
<!-- Node8&#45;&gt;Node20 -->
<g id="edge12" class="edge">
<title>Node8&#45;&gt;Node20</title>
<path fill="none" stroke="#191970" d="M693.2615,-307.2588C787.808,-298.0126 936.4938,-280.5879 1063,-253 1065.7929,-252.3909 1068.619,-251.7434 1071.4648,-251.0639"/>
<polygon fill="#191970" stroke="#191970" points="692.7625,-303.7906 683.1458,-308.237 693.4363,-310.7581 692.7625,-303.7906"/>
</g>
<!-- Node12 -->
<g id="node5" class="node">
<title>Node12</title>
<g id="a_node5"><a xlink:href="../../d0/d0b/DCSProcessor_8cxx.html" target="_top" xlink:title="/home/travis/build\l/AliceO2Group/AliceO2\l/Detectors/DCS/src/DCSProcessor.cxx">
<polygon fill="none" stroke="#000000" points="272.5,-100.5 272.5,-141.5 469.5,-141.5 469.5,-100.5 272.5,-100.5"/>
<text text-anchor="start" x="280.5" y="-129.5" font-family="Helvetica,sans-Serif" font-size="10.00" fill="#000000">/home/travis/build</text>
<text text-anchor="start" x="280.5" y="-118.5" font-family="Helvetica,sans-Serif" font-size="10.00" fill="#000000">/AliceO2Group/AliceO2</text>
<text text-anchor="middle" x="371" y="-107.5" font-family="Helvetica,sans-Serif" font-size="10.00" fill="#000000">/Detectors/DCS/src/DCSProcessor.cxx</text>
</a>
</g>
</g>
<!-- Node11&#45;&gt;Node12 -->
<g id="edge4" class="edge">
<title>Node11&#45;&gt;Node12</title>
<path fill="none" stroke="#191970" d="M403.517,-186.0339C396.0813,-171.1625 387.6674,-154.3349 381.2616,-141.5232"/>
<polygon fill="#191970" stroke="#191970" points="400.3909,-187.6082 407.9936,-194.9872 406.6519,-184.4777 400.3909,-187.6082"/>
</g>
<!-- Node13 -->
<g id="node6" class="node">
<title>Node13</title>
<g id="a_node6"><a xlink:href="../../d8/d4e/DCSDataProcessorSpec_8h.html" target="_top" xlink:title="/home/travis/build\l/AliceO2Group/AliceO2\l/Detectors/DCS/testWorkflow\l/DCSDataProcessorSpec.h">
<polygon fill="none" stroke="#000000" points="487.5,-95 487.5,-147 644.5,-147 644.5,-95 487.5,-95"/>
<text text-anchor="start" x="495.5" y="-135" font-family="Helvetica,sans-Serif" font-size="10.00" fill="#000000">/home/travis/build</text>
<text text-anchor="start" x="495.5" y="-124" font-family="Helvetica,sans-Serif" font-size="10.00" fill="#000000">/AliceO2Group/AliceO2</text>
<text text-anchor="start" x="495.5" y="-113" font-family="Helvetica,sans-Serif" font-size="10.00" fill="#000000">/Detectors/DCS/testWorkflow</text>
<text text-anchor="middle" x="566" y="-102" font-family="Helvetica,sans-Serif" font-size="10.00" fill="#000000">/DCSDataProcessorSpec.h</text>
</a>
</g>
</g>
<!-- Node11&#45;&gt;Node13 -->
<g id="edge5" class="edge">
<title>Node11&#45;&gt;Node13</title>
<path fill="none" stroke="#191970" d="M466.9702,-189.2964C486.7071,-175.6847 509.4868,-159.9746 528.2187,-147.0561"/>
<polygon fill="#191970" stroke="#191970" points="464.9636,-186.4286 458.7185,-194.9872 468.9377,-192.1911 464.9636,-186.4286"/>
</g>
<!-- Node14 -->
<g id="node7" class="node">
<title>Node14</title>
<g id="a_node7"><a xlink:href="../../da/dd6/dcs-data-workflow_8cxx.html" target="_top" xlink:title="/home/travis/build\l/AliceO2Group/AliceO2\l/Detectors/DCS/testWorkflow\l/dcs&#45;data&#45;workflow.cxx">
<polygon fill="none" stroke="#000000" points="487.5,-.5 487.5,-52.5 644.5,-52.5 644.5,-.5 487.5,-.5"/>
<text text-anchor="start" x="495.5" y="-40.5" font-family="Helvetica,sans-Serif" font-size="10.00" fill="#000000">/home/travis/build</text>
<text text-anchor="start" x="495.5" y="-29.5" font-family="Helvetica,sans-Serif" font-size="10.00" fill="#000000">/AliceO2Group/AliceO2</text>
<text text-anchor="start" x="495.5" y="-18.5" font-family="Helvetica,sans-Serif" font-size="10.00" fill="#000000">/Detectors/DCS/testWorkflow</text>
<text text-anchor="middle" x="566" y="-7.5" font-family="Helvetica,sans-Serif" font-size="10.00" fill="#000000">/dcs&#45;data&#45;workflow.cxx</text>
</a>
</g>
</g>
<!-- Node13&#45;&gt;Node14 -->
<g id="edge6" class="edge">
<title>Node13&#45;&gt;Node14</title>
<path fill="none" stroke="#191970" d="M566,-84.6645C566,-74.0577 566,-62.6746 566,-52.8157"/>
<polygon fill="#191970" stroke="#191970" points="562.5001,-84.9273 566,-94.9273 569.5001,-84.9273 562.5001,-84.9273"/>
</g>
<!-- Node18 -->
<g id="node11" class="node">
<title>Node18</title>
<g id="a_node11"><a xlink:href="../../d1/d1b/lhc-clockphase-workflow_8cxx.html" target="_top" xlink:title="/home/travis/build\l/AliceO2Group/AliceO2\l/Detectors/TOF/calibration\l/testWorkflow/lhc&#45;clockphase\l&#45;workflow.cxx">
<polygon fill="none" stroke="#000000" points="757.5,-89.5 757.5,-152.5 916.5,-152.5 916.5,-89.5 757.5,-89.5"/>
<text text-anchor="start" x="765.5" y="-140.5" font-family="Helvetica,sans-Serif" font-size="10.00" fill="#000000">/home/travis/build</text>
<text text-anchor="start" x="765.5" y="-129.5" font-family="Helvetica,sans-Serif" font-size="10.00" fill="#000000">/AliceO2Group/AliceO2</text>
<text text-anchor="start" x="765.5" y="-118.5" font-family="Helvetica,sans-Serif" font-size="10.00" fill="#000000">/Detectors/TOF/calibration</text>
<text text-anchor="start" x="765.5" y="-107.5" font-family="Helvetica,sans-Serif" font-size="10.00" fill="#000000">/testWorkflow/lhc&#45;clockphase</text>
<text text-anchor="middle" x="837" y="-96.5" font-family="Helvetica,sans-Serif" font-size="10.00" fill="#000000">&#45;workflow.cxx</text>
</a>
</g>
</g>
<!-- Node17&#45;&gt;Node18 -->
<g id="edge10" class="edge">
<title>Node17&#45;&gt;Node18</title>
<path fill="none" stroke="#191970" d="M915.0377,-182.9347C902.4998,-172.9839 889.1179,-162.3634 877.0403,-152.778"/>
<polygon fill="#191970" stroke="#191970" points="913.1241,-185.8843 923.1328,-189.3594 917.4757,-180.4012 913.1241,-185.8843"/>
</g>
<!-- Node19 -->
<g id="node12" class="node">
<title>Node19</title>
<g id="a_node12"><a xlink:href="../../dc/da8/tof-calib-workflow_8cxx.html" target="_top" xlink:title="/home/travis/build\l/AliceO2Group/AliceO2\l/Detectors/TOF/calibration\l/testWorkflow/tof&#45;calib&#45;workflow.cxx">
<polygon fill="none" stroke="#000000" points="934,-95 934,-147 1128,-147 1128,-95 934,-95"/>
<text text-anchor="start" x="942" y="-135" font-family="Helvetica,sans-Serif" font-size="10.00" fill="#000000">/home/travis/build</text>
<text text-anchor="start" x="942" y="-124" font-family="Helvetica,sans-Serif" font-size="10.00" fill="#000000">/AliceO2Group/AliceO2</text>
<text text-anchor="start" x="942" y="-113" font-family="Helvetica,sans-Serif" font-size="10.00" fill="#000000">/Detectors/TOF/calibration</text>
<text text-anchor="middle" x="1031" y="-102" font-family="Helvetica,sans-Serif" font-size="10.00" fill="#000000">/testWorkflow/tof&#45;calib&#45;workflow.cxx</text>
</a>
</g>
</g>
<!-- Node17&#45;&gt;Node19 -->
<g id="edge11" class="edge">
<title>Node17&#45;&gt;Node19</title>
<path fill="none" stroke="#191970" d="M990.3084,-180.8405C998.0428,-169.4664 1006.2582,-157.385 1013.267,-147.078"/>
<polygon fill="#191970" stroke="#191970" points="987.2445,-179.122 984.5156,-189.3594 993.033,-183.0582 987.2445,-179.122"/>
</g>
<!-- Node20&#45;&gt;Node19 -->
<g id="edge13" class="edge">
<title>Node20&#45;&gt;Node19</title>
<path fill="none" stroke="#191970" d="M1116.1749,-183.1715C1099.6823,-171.133 1081.8165,-158.0923 1066.7268,-147.078"/>
<polygon fill="#191970" stroke="#191970" points="1114.5117,-186.2906 1124.6523,-189.3594 1118.6387,-180.6366 1114.5117,-186.2906"/>
</g>
<!-- Node21 -->
<g id="node14" class="node">
<title>Node21</title>
<g id="a_node14"><a xlink:href="../../db/d97/tof-channel-calib-workflow_8cxx.html" target="_top" xlink:title="/home/travis/build\l/AliceO2Group/AliceO2\l/Detectors/TOF/calibration\l/testWorkflow/tof&#45;channel\l&#45;calib&#45;workflow.cxx">
<polygon fill="none" stroke="#000000" points="1146.5,-89.5 1146.5,-152.5 1289.5,-152.5 1289.5,-89.5 1146.5,-89.5"/>
<text text-anchor="start" x="1154.5" y="-140.5" font-family="Helvetica,sans-Serif" font-size="10.00" fill="#000000">/home/travis/build</text>
<text text-anchor="start" x="1154.5" y="-129.5" font-family="Helvetica,sans-Serif" font-size="10.00" fill="#000000">/AliceO2Group/AliceO2</text>
<text text-anchor="start" x="1154.5" y="-118.5" font-family="Helvetica,sans-Serif" font-size="10.00" fill="#000000">/Detectors/TOF/calibration</text>
<text text-anchor="start" x="1154.5" y="-107.5" font-family="Helvetica,sans-Serif" font-size="10.00" fill="#000000">/testWorkflow/tof&#45;channel</text>
<text text-anchor="middle" x="1218" y="-96.5" font-family="Helvetica,sans-Serif" font-size="10.00" fill="#000000">&#45;calib&#45;workflow.cxx</text>
</a>
</g>
</g>
<!-- Node20&#45;&gt;Node21 -->
<g id="edge14" class="edge">
<title>Node20&#45;&gt;Node21</title>
<path fill="none" stroke="#191970" d="M1188.3189,-180.3622C1192.9146,-171.1709 1197.7291,-161.5418 1202.111,-152.778"/>
<polygon fill="#191970" stroke="#191970" points="1185.162,-178.8498 1183.8203,-189.3594 1191.423,-181.9804 1185.162,-178.8498"/>
</g>
</g>
</svg>
