<?xml version="1.0" encoding="UTF-8" standalone="no"?>
<!DOCTYPE svg PUBLIC "-//W3C//DTD SVG 1.1//EN"
 "http://www.w3.org/Graphics/SVG/1.1/DTD/svg11.dtd">
<!-- Generated by graphviz version 2.40.1 (20161225.0304)
 -->
<!-- Title: /home/travis/build/AliceO2Group/AliceO2/Detectors/MUON/MCH/Tracking/src/TrackFinder.cxx Pages: 1 -->
<svg width="2459pt" height="408pt"
 viewBox="0.00 0.00 2458.57 408.00" xmlns="http://www.w3.org/2000/svg" xmlns:xlink="http://www.w3.org/1999/xlink">
<g id="graph0" class="graph" transform="scale(1 1) rotate(0) translate(4 404)">
<title>/home/travis/build/AliceO2Group/AliceO2/Detectors/MUON/MCH/Tracking/src/TrackFinder.cxx</title>
<!-- Node0 -->
<g id="node1" class="node">
<title>Node0</title>
<polygon fill="#bfbfbf" stroke="#000000" points="1761.0734,-347.5 1761.0734,-399.5 1931.0734,-399.5 1931.0734,-347.5 1761.0734,-347.5"/>
<text text-anchor="start" x="1769.0734" y="-387.5" font-family="Helvetica,sans-Serif" font-size="10.00" fill="#000000">/home/travis/build</text>
<text text-anchor="start" x="1769.0734" y="-376.5" font-family="Helvetica,sans-Serif" font-size="10.00" fill="#000000">/AliceO2Group/AliceO2</text>
<text text-anchor="start" x="1769.0734" y="-365.5" font-family="Helvetica,sans-Serif" font-size="10.00" fill="#000000">/Detectors/MUON/MCH/Tracking</text>
<text text-anchor="middle" x="1846.0734" y="-354.5" font-family="Helvetica,sans-Serif" font-size="10.00" fill="#000000">/src/TrackFinder.cxx</text>
</g>
<!-- Node1 -->
<g id="node2" class="node">
<title>Node1</title>
<g id="a_node2"><a xlink:href="../../d5/d91/TrackFinder_8h.html" target="_top" xlink:title="Definition of a class to reconstruct tracks. ">
<polygon fill="none" stroke="#000000" points="530.0734,-291.5 530.0734,-310.5 610.0734,-310.5 610.0734,-291.5 530.0734,-291.5"/>
<text text-anchor="middle" x="570.0734" y="-298.5" font-family="Helvetica,sans-Serif" font-size="10.00" fill="#000000">TrackFinder.h</text>
</a>
</g>
</g>
<!-- Node0&#45;&gt;Node1 -->
<g id="edge1" class="edge">
<title>Node0&#45;&gt;Node1</title>
<path fill="none" stroke="#191970" d="M1760.8673,-368.6587C1515.8049,-354.7347 814.288,-314.8758 620.3093,-303.8543"/>
<polygon fill="#191970" stroke="#191970" points="620.3063,-300.3486 610.1238,-303.2756 619.9092,-307.3373 620.3063,-300.3486"/>
</g>
<!-- Node10 -->
<g id="node11" class="node">
<title>Node10</title>
<polygon fill="none" stroke="#bfbfbf" points="109.0734,-.5 109.0734,-19.5 169.0734,-19.5 169.0734,-.5 109.0734,-.5"/>
<text text-anchor="middle" x="139.0734" y="-7.5" font-family="Helvetica,sans-Serif" font-size="10.00" fill="#000000">iostream</text>
</g>
<!-- Node0&#45;&gt;Node10 -->
<g id="edge27" class="edge">
<title>Node0&#45;&gt;Node10</title>
<path fill="none" stroke="#191970" d="M1760.7855,-372.0845C1397.9301,-365.5117 1.0734,-334.4031 1.0734,-245 1.0734,-245 1.0734,-245 1.0734,-133 1.0734,-97.7513 -3.2201,-82.4553 20.0734,-56 40.1668,-33.1791 72.9293,-21.6057 98.9955,-15.7793"/>
<polygon fill="#191970" stroke="#191970" points="99.8745,-19.1723 108.9766,-13.75 98.4798,-12.3126 99.8745,-19.1723"/>
</g>
<!-- Node16 -->
<g id="node17" class="node">
<title>Node16</title>
<polygon fill="none" stroke="#bfbfbf" points="369.0734,-62 369.0734,-81 439.0734,-81 439.0734,-62 369.0734,-62"/>
<text text-anchor="middle" x="404.0734" y="-69" font-family="Helvetica,sans-Serif" font-size="10.00" fill="#000000">TMatrixD.h</text>
</g>
<!-- Node0&#45;&gt;Node16 -->
<g id="edge30" class="edge">
<title>Node0&#45;&gt;Node16</title>
<path fill="none" stroke="#191970" d="M1760.9108,-369.6422C1568.4075,-360.5217 1111.3715,-336.4747 1046.0734,-311 1001.8416,-293.7439 962.0734,-292.4787 962.0734,-245 962.0734,-245 962.0734,-245 962.0734,-189 962.0734,-72.5505 561.1922,-114.6517 448.0734,-87 444.8477,-86.2115 441.5267,-85.278 438.2236,-84.2662"/>
<polygon fill="#191970" stroke="#191970" points="439.0742,-80.8615 428.4813,-81.0623 436.8873,-87.5112 439.0742,-80.8615"/>
</g>
<!-- Node19 -->
<g id="node20" class="node">
<title>Node19</title>
<polygon fill="none" stroke="#bfbfbf" points="2172.0734,-291.5 2172.0734,-310.5 2224.0734,-310.5 2224.0734,-291.5 2172.0734,-291.5"/>
<text text-anchor="middle" x="2198.0734" y="-298.5" font-family="Helvetica,sans-Serif" font-size="10.00" fill="#000000">cassert</text>
</g>
<!-- Node0&#45;&gt;Node19 -->
<g id="edge26" class="edge">
<title>Node0&#45;&gt;Node19</title>
<path fill="none" stroke="#191970" d="M1931.3849,-357.5382C1994.2258,-345.5068 2081.6771,-328.1913 2158.0734,-311 2159.3304,-310.7171 2160.6084,-310.4246 2161.8983,-310.1252"/>
<polygon fill="#191970" stroke="#191970" points="2162.9546,-313.4713 2171.8656,-307.7403 2161.3256,-306.6635 2162.9546,-313.4713"/>
</g>
<!-- Node20 -->
<g id="node21" class="node">
<title>Node20</title>
<polygon fill="none" stroke="#bfbfbf" points="2242.5734,-291.5 2242.5734,-310.5 2307.5734,-310.5 2307.5734,-291.5 2242.5734,-291.5"/>
<text text-anchor="middle" x="2275.0734" y="-298.5" font-family="Helvetica,sans-Serif" font-size="10.00" fill="#000000">stdexcept</text>
</g>
<!-- Node0&#45;&gt;Node20 -->
<g id="edge28" class="edge">
<title>Node0&#45;&gt;Node20</title>
<path fill="none" stroke="#191970" d="M1931.3296,-361.5739C2007.6563,-350.4735 2122.8033,-332.6866 2232.637,-310.9668"/>
<polygon fill="#191970" stroke="#191970" points="2233.4421,-314.3753 2242.566,-308.9895 2232.0749,-307.5101 2233.4421,-314.3753"/>
</g>
<!-- Node21 -->
<g id="node22" class="node">
<title>Node21</title>
<polygon fill="none" stroke="#bfbfbf" points="2325.5734,-291.5 2325.5734,-310.5 2450.5734,-310.5 2450.5734,-291.5 2325.5734,-291.5"/>
<text text-anchor="middle" x="2388.0734" y="-298.5" font-family="Helvetica,sans-Serif" font-size="10.00" fill="#000000">TGeoGlobalMagField.h</text>
</g>
<!-- Node0&#45;&gt;Node21 -->
<g id="edge29" class="edge">
<title>Node0&#45;&gt;Node21</title>
<path fill="none" stroke="#191970" d="M1931.1882,-362.4137C2023.3296,-350.3649 2174.9139,-330.4057 2315.2719,-311.2395"/>
<polygon fill="#191970" stroke="#191970" points="2315.9234,-314.683 2325.3573,-309.861 2314.9754,-307.7475 2315.9234,-314.683"/>
</g>
<!-- Node22 -->
<g id="node23" class="node">
<title>Node22</title>
<polygon fill="none" stroke="#bfbfbf" points="2227.0734,-179.5 2227.0734,-198.5 2283.0734,-198.5 2283.0734,-179.5 2227.0734,-179.5"/>
<text text-anchor="middle" x="2255.0734" y="-186.5" font-family="Helvetica,sans-Serif" font-size="10.00" fill="#000000">TMath.h</text>
</g>
<!-- Node0&#45;&gt;Node22 -->
<g id="edge31" class="edge">
<title>Node0&#45;&gt;Node22</title>
<path fill="none" stroke="#191970" d="M1931.1098,-352.512C2039.7595,-324.9835 2216.4472,-277.542 2238.0734,-255 2249.823,-242.7528 2253.7429,-223.5099 2254.9184,-208.9556"/>
<polygon fill="#191970" stroke="#191970" points="2258.4163,-209.0797 2255.3667,-198.9333 2251.4233,-208.7669 2258.4163,-209.0797"/>
</g>
<!-- Node23 -->
<g id="node24" class="node">
<title>Node23</title>
<g id="a_node24"><a xlink:href="../../db/d4b/MagneticField_8h.html" target="_top" xlink:title="Definition of the MagF class. ">
<polygon fill="none" stroke="#000000" points="1787.0734,-291.5 1787.0734,-310.5 1905.0734,-310.5 1905.0734,-291.5 1787.0734,-291.5"/>
<text text-anchor="middle" x="1846.0734" y="-298.5" font-family="Helvetica,sans-Serif" font-size="10.00" fill="#000000">Field/MagneticField.h</text>
</a>
</g>
</g>
<!-- Node0&#45;&gt;Node23 -->
<g id="edge32" class="edge">
<title>Node0&#45;&gt;Node23</title>
<path fill="none" stroke="#191970" d="M1846.0734,-347.3258C1846.0734,-338.5142 1846.0734,-328.8397 1846.0734,-320.621"/>
<polygon fill="#191970" stroke="#191970" points="1849.5735,-320.534 1846.0734,-310.534 1842.5735,-320.534 1849.5735,-320.534"/>
</g>
<!-- Node47 -->
<g id="node48" class="node">
<title>Node47</title>
<g id="a_node48"><a xlink:href="../../d8/d9c/TrackExtrap_8h.html" target="_top" xlink:title="Definition of tools for track extrapolation. ">
<polygon fill="none" stroke="#000000" points="1054.5734,-291.5 1054.5734,-310.5 1137.5734,-310.5 1137.5734,-291.5 1054.5734,-291.5"/>
<text text-anchor="middle" x="1096.0734" y="-298.5" font-family="Helvetica,sans-Serif" font-size="10.00" fill="#000000">TrackExtrap.h</text>
</a>
</g>
</g>
<!-- Node0&#45;&gt;Node47 -->
<g id="edge71" class="edge">
<title>Node0&#45;&gt;Node47</title>
<path fill="none" stroke="#191970" d="M1760.769,-365.2539C1604.2993,-350.1285 1275.7807,-318.3717 1148.2463,-306.0434"/>
<polygon fill="#191970" stroke="#191970" points="1148.2656,-302.529 1137.9752,-305.0505 1147.592,-309.4965 1148.2656,-302.529"/>
</g>
<!-- Node2 -->
<g id="node3" class="node">
<title>Node2</title>
<polygon fill="none" stroke="#bfbfbf" points="380.0734,-235.5 380.0734,-254.5 430.0734,-254.5 430.0734,-235.5 380.0734,-235.5"/>
<text text-anchor="middle" x="405.0734" y="-242.5" font-family="Helvetica,sans-Serif" font-size="10.00" fill="#000000">chrono</text>
</g>
<!-- Node1&#45;&gt;Node2 -->
<g id="edge2" class="edge">
<title>Node1&#45;&gt;Node2</title>
<path fill="none" stroke="#191970" d="M541.7089,-291.3733C513.48,-281.7926 470.1115,-267.0736 439.8291,-256.7959"/>
<polygon fill="#191970" stroke="#191970" points="440.6962,-253.3941 430.1018,-253.4945 438.4464,-260.0228 440.6962,-253.3941"/>
</g>
<!-- Node3 -->
<g id="node4" class="node">
<title>Node3</title>
<polygon fill="none" stroke="#bfbfbf" points="674.5734,-235.5 674.5734,-254.5 767.5734,-254.5 767.5734,-235.5 674.5734,-235.5"/>
<text text-anchor="middle" x="721.0734" y="-242.5" font-family="Helvetica,sans-Serif" font-size="10.00" fill="#000000">unordered_map</text>
</g>
<!-- Node1&#45;&gt;Node3 -->
<g id="edge3" class="edge">
<title>Node1&#45;&gt;Node3</title>
<path fill="none" stroke="#191970" d="M596.0312,-291.3733C620.8141,-282.1822 658.348,-268.2624 685.8274,-258.0713"/>
<polygon fill="#191970" stroke="#191970" points="687.2953,-261.26 695.4543,-254.5011 684.8612,-254.6968 687.2953,-261.26"/>
</g>
<!-- Node4 -->
<g id="node5" class="node">
<title>Node4</title>
<polygon fill="none" stroke="#bfbfbf" points="786.0734,-235.5 786.0734,-254.5 872.0734,-254.5 872.0734,-235.5 786.0734,-235.5"/>
<text text-anchor="middle" x="829.0734" y="-242.5" font-family="Helvetica,sans-Serif" font-size="10.00" fill="#000000">unordered_set</text>
</g>
<!-- Node1&#45;&gt;Node4 -->
<g id="edge4" class="edge">
<title>Node1&#45;&gt;Node4</title>
<path fill="none" stroke="#191970" d="M610.2579,-292.3114C654.789,-282.6831 726.7925,-267.1148 775.9496,-256.4862"/>
<polygon fill="#191970" stroke="#191970" points="776.7332,-259.8978 785.7676,-254.3634 775.2538,-253.0559 776.7332,-259.8978"/>
</g>
<!-- Node5 -->
<g id="node6" class="node">
<title>Node5</title>
<polygon fill="none" stroke="#bfbfbf" points="200.0734,-123.5 200.0734,-142.5 232.0734,-142.5 232.0734,-123.5 200.0734,-123.5"/>
<text text-anchor="middle" x="216.0734" y="-130.5" font-family="Helvetica,sans-Serif" font-size="10.00" fill="#000000">list</text>
</g>
<!-- Node1&#45;&gt;Node5 -->
<g id="edge5" class="edge">
<title>Node1&#45;&gt;Node5</title>
<path fill="none" stroke="#191970" d="M529.8425,-299.1774C459.2039,-295.2576 316.6098,-283.9137 277.0734,-255 242.8017,-229.9365 226.614,-180.1362 219.9903,-152.5438"/>
<polygon fill="#191970" stroke="#191970" points="223.3517,-151.5346 217.7748,-142.5264 216.5169,-153.0462 223.3517,-151.5346"/>
</g>
<!-- Node6 -->
<g id="node7" class="node">
<title>Node6</title>
<polygon fill="none" stroke="#bfbfbf" points="486.0734,-235.5 486.0734,-254.5 528.0734,-254.5 528.0734,-235.5 486.0734,-235.5"/>
<text text-anchor="middle" x="507.0734" y="-242.5" font-family="Helvetica,sans-Serif" font-size="10.00" fill="#000000">array</text>
</g>
<!-- Node1&#45;&gt;Node6 -->
<g id="edge6" class="edge">
<title>Node1&#45;&gt;Node6</title>
<path fill="none" stroke="#191970" d="M559.0996,-291.2455C549.8852,-283.0549 536.5202,-271.1749 525.6437,-261.5069"/>
<polygon fill="#191970" stroke="#191970" points="527.7208,-258.6704 517.9214,-254.6427 523.0702,-263.9023 527.7208,-258.6704"/>
</g>
<!-- Node7 -->
<g id="node8" class="node">
<title>Node7</title>
<polygon fill="none" stroke="#bfbfbf" points="546.5734,-235.5 546.5734,-254.5 593.5734,-254.5 593.5734,-235.5 546.5734,-235.5"/>
<text text-anchor="middle" x="570.0734" y="-242.5" font-family="Helvetica,sans-Serif" font-size="10.00" fill="#000000">vector</text>
</g>
<!-- Node1&#45;&gt;Node7 -->
<g id="edge7" class="edge">
<title>Node1&#45;&gt;Node7</title>
<path fill="none" stroke="#191970" d="M570.0734,-291.2455C570.0734,-283.9382 570.0734,-273.6944 570.0734,-264.7046"/>
<polygon fill="#191970" stroke="#191970" points="573.5735,-264.6426 570.0734,-254.6427 566.5735,-264.6427 573.5735,-264.6426"/>
</g>
<!-- Node8 -->
<g id="node9" class="node">
<title>Node8</title>
<polygon fill="none" stroke="#bfbfbf" points="611.5734,-235.5 611.5734,-254.5 656.5734,-254.5 656.5734,-235.5 611.5734,-235.5"/>
<text text-anchor="middle" x="634.0734" y="-242.5" font-family="Helvetica,sans-Serif" font-size="10.00" fill="#000000">utility</text>
</g>
<!-- Node1&#45;&gt;Node8 -->
<g id="edge8" class="edge">
<title>Node1&#45;&gt;Node8</title>
<path fill="none" stroke="#191970" d="M581.2213,-291.2455C590.582,-283.0549 604.1592,-271.1749 615.2083,-261.5069"/>
<polygon fill="#191970" stroke="#191970" points="617.8322,-263.8618 623.0532,-254.6427 613.2226,-258.5937 617.8322,-263.8618"/>
</g>
<!-- Node9 -->
<g id="node10" class="node">
<title>Node9</title>
<g id="a_node10"><a xlink:href="../../d3/d5c/Detectors_2MUON_2MCH_2Tracking_2include_2MCHTracking_2Cluster_8h.html" target="_top" xlink:title="MCHTracking/Cluster.h">
<polygon fill="none" stroke="#000000" points="416.5734,-123.5 416.5734,-142.5 541.5734,-142.5 541.5734,-123.5 416.5734,-123.5"/>
<text text-anchor="middle" x="479.0734" y="-130.5" font-family="Helvetica,sans-Serif" font-size="10.00" fill="#000000">MCHTracking/Cluster.h</text>
</a>
</g>
</g>
<!-- Node1&#45;&gt;Node9 -->
<g id="edge9" class="edge">
<title>Node1&#45;&gt;Node9</title>
<path fill="none" stroke="#191970" d="M610.1309,-297.9653C690.1388,-291.4967 863.5781,-275.2733 881.0734,-255 886.8808,-248.2705 886.5314,-242.0159 881.0734,-235 841.0673,-183.5755 656.7256,-153.8836 552.111,-140.8968"/>
<polygon fill="#191970" stroke="#191970" points="552.284,-137.392 541.9336,-139.6548 551.436,-144.3405 552.284,-137.392"/>
</g>
<!-- Node13 -->
<g id="node14" class="node">
<title>Node13</title>
<g id="a_node14"><a xlink:href="../../df/d7a/Detectors_2MUON_2MCH_2Tracking_2include_2MCHTracking_2Track_8h.html" target="_top" xlink:title="MCHTracking/Track.h">
<polygon fill="none" stroke="#000000" points="395.5734,-179.5 395.5734,-198.5 512.5734,-198.5 512.5734,-179.5 395.5734,-179.5"/>
<text text-anchor="middle" x="454.0734" y="-186.5" font-family="Helvetica,sans-Serif" font-size="10.00" fill="#000000">MCHTracking/Track.h</text>
</a>
</g>
</g>
<!-- Node1&#45;&gt;Node13 -->
<g id="edge14" class="edge">
<title>Node1&#45;&gt;Node13</title>
<path fill="none" stroke="#191970" d="M536.3798,-291.4595C516.6794,-284.3183 492.6929,-272.6874 477.0734,-255 465.6655,-242.0818 459.8363,-223.1822 456.9071,-208.9146"/>
<polygon fill="#191970" stroke="#191970" points="460.2872,-207.9222 455.1284,-198.6682 453.3903,-209.1195 460.2872,-207.9222"/>
</g>
<!-- Node18 -->
<g id="node19" class="node">
<title>Node18</title>
<g id="a_node19"><a xlink:href="../../de/d6b/MUON_2MCH_2Tracking_2src_2TrackFitter_8h.html" target="_top" xlink:title="TrackFitter.h">
<polygon fill="none" stroke="#000000" points="286.5734,-235.5 286.5734,-254.5 361.5734,-254.5 361.5734,-235.5 286.5734,-235.5"/>
<text text-anchor="middle" x="324.0734" y="-242.5" font-family="Helvetica,sans-Serif" font-size="10.00" fill="#000000">TrackFitter.h</text>
</a>
</g>
</g>
<!-- Node1&#45;&gt;Node18 -->
<g id="edge22" class="edge">
<title>Node1&#45;&gt;Node18</title>
<path fill="none" stroke="#191970" d="M530.0017,-291.878C486.7135,-282.0238 417.7745,-266.3303 371.7369,-255.8502"/>
<polygon fill="#191970" stroke="#191970" points="372.2328,-252.3737 361.7054,-253.5666 370.679,-259.199 372.2328,-252.3737"/>
</g>
<!-- Node9&#45;&gt;Node10 -->
<g id="edge10" class="edge">
<title>Node9&#45;&gt;Node10</title>
<path fill="none" stroke="#191970" d="M416.33,-123.6217C338.0463,-111.7562 213.2614,-92.233 204.0734,-87 179.8315,-73.1933 160.5691,-46.7089 149.4891,-28.6989"/>
<polygon fill="#191970" stroke="#191970" points="152.2826,-26.5445 144.1958,-19.6995 146.2489,-30.0935 152.2826,-26.5445"/>
</g>
<!-- Node11 -->
<g id="node12" class="node">
<title>Node11</title>
<polygon fill="none" stroke="#bfbfbf" points="457.0734,-62 457.0734,-81 501.0734,-81 501.0734,-62 457.0734,-62"/>
<text text-anchor="middle" x="479.0734" y="-69" font-family="Helvetica,sans-Serif" font-size="10.00" fill="#000000">string</text>
</g>
<!-- Node9&#45;&gt;Node11 -->
<g id="edge11" class="edge">
<title>Node9&#45;&gt;Node11</title>
<path fill="none" stroke="#191970" d="M479.0734,-123.3906C479.0734,-114.8657 479.0734,-102.1392 479.0734,-91.4235"/>
<polygon fill="#191970" stroke="#191970" points="482.5735,-91.2448 479.0734,-81.2449 475.5735,-91.2449 482.5735,-91.2448"/>
</g>
<!-- Node12 -->
<g id="node13" class="node">
<title>Node12</title>
<g id="a_node13"><a xlink:href="../../d3/db8/ClusterBlock_8h.html" target="_top" xlink:title="Definition of the MCH cluster minimal structure. ">
<polygon fill="none" stroke="#000000" points="213.5734,-62 213.5734,-81 350.5734,-81 350.5734,-62 213.5734,-62"/>
<text text-anchor="middle" x="282.0734" y="-69" font-family="Helvetica,sans-Serif" font-size="10.00" fill="#000000">MCHBase/ClusterBlock.h</text>
</a>
</g>
</g>
<!-- Node9&#45;&gt;Node12 -->
<g id="edge12" class="edge">
<title>Node9&#45;&gt;Node12</title>
<path fill="none" stroke="#191970" d="M448.2921,-123.3906C414.3184,-112.7846 359.5129,-95.6753 322.1962,-84.0257"/>
<polygon fill="#191970" stroke="#191970" points="323.2272,-80.681 312.6385,-81.0419 321.1411,-87.3629 323.2272,-80.681"/>
</g>
<!-- Node12&#45;&gt;Node10 -->
<g id="edge13" class="edge">
<title>Node12&#45;&gt;Node10</title>
<path fill="none" stroke="#191970" d="M259.7296,-61.8906C235.8031,-51.6005 197.6425,-35.1888 170.6517,-23.5809"/>
<polygon fill="#191970" stroke="#191970" points="171.8295,-20.2775 161.2602,-19.5419 169.0639,-26.708 171.8295,-20.2775"/>
</g>
<!-- Node13&#45;&gt;Node5 -->
<g id="edge15" class="edge">
<title>Node13&#45;&gt;Node5</title>
<path fill="none" stroke="#191970" d="M397.3543,-179.4329C356.3378,-171.9057 299.5445,-160.2346 241.9608,-142.9084"/>
<polygon fill="#191970" stroke="#191970" points="242.9255,-139.5435 232.339,-139.9619 240.8758,-146.2367 242.9255,-139.5435"/>
</g>
<!-- Node13&#45;&gt;Node9 -->
<g id="edge17" class="edge">
<title>Node13&#45;&gt;Node9</title>
<path fill="none" stroke="#191970" d="M458.428,-179.2455C461.7978,-171.6973 466.5663,-161.0158 470.6717,-151.8197"/>
<polygon fill="#191970" stroke="#191970" points="473.888,-153.2009 474.7686,-142.6427 467.496,-150.3473 473.888,-153.2009"/>
</g>
<!-- Node14 -->
<g id="node15" class="node">
<title>Node14</title>
<polygon fill="none" stroke="#bfbfbf" points="635.0734,-123.5 635.0734,-142.5 693.0734,-142.5 693.0734,-123.5 635.0734,-123.5"/>
<text text-anchor="middle" x="664.0734" y="-130.5" font-family="Helvetica,sans-Serif" font-size="10.00" fill="#000000">memory</text>
</g>
<!-- Node13&#45;&gt;Node14 -->
<g id="edge16" class="edge">
<title>Node13&#45;&gt;Node14</title>
<path fill="none" stroke="#191970" d="M490.1737,-179.3733C527.7435,-169.3546 586.3838,-153.7172 625.0162,-143.4153"/>
<polygon fill="#191970" stroke="#191970" points="626.1038,-146.7476 634.8643,-140.7891 624.3001,-139.984 626.1038,-146.7476"/>
</g>
<!-- Node15 -->
<g id="node16" class="node">
<title>Node15</title>
<g id="a_node16"><a xlink:href="../../de/d4b/TrackParam_8h.html" target="_top" xlink:title="Definition of the MCH track parameters for internal use. ">
<polygon fill="none" stroke="#000000" points="250.0734,-123.5 250.0734,-142.5 398.0734,-142.5 398.0734,-123.5 250.0734,-123.5"/>
<text text-anchor="middle" x="324.0734" y="-130.5" font-family="Helvetica,sans-Serif" font-size="10.00" fill="#000000">MCHTracking/TrackParam.h</text>
</a>
</g>
</g>
<!-- Node13&#45;&gt;Node15 -->
<g id="edge18" class="edge">
<title>Node13&#45;&gt;Node15</title>
<path fill="none" stroke="#191970" d="M431.7256,-179.3733C410.67,-170.3032 378.9238,-156.6279 355.3559,-146.4755"/>
<polygon fill="#191970" stroke="#191970" points="356.6984,-143.243 346.1295,-142.5011 353.929,-149.6719 356.6984,-143.243"/>
</g>
<!-- Node15&#45;&gt;Node16 -->
<g id="edge19" class="edge">
<title>Node15&#45;&gt;Node16</title>
<path fill="none" stroke="#191970" d="M336.5734,-123.3906C349.1369,-113.7324 368.7157,-98.6812 383.5582,-87.271"/>
<polygon fill="#191970" stroke="#191970" points="385.8662,-89.9115 391.6611,-81.0419 381.5999,-84.3618 385.8662,-89.9115"/>
</g>
<!-- Node17 -->
<g id="node18" class="node">
<title>Node17</title>
<g id="a_node18"><a xlink:href="../../d6/d45/TrackBlock_8h.html" target="_top" xlink:title="Definition of the MCH track parameters minimal structure. ">
<polygon fill="none" stroke="#000000" points="29.0734,-62 29.0734,-81 157.0734,-81 157.0734,-62 29.0734,-62"/>
<text text-anchor="middle" x="93.0734" y="-69" font-family="Helvetica,sans-Serif" font-size="10.00" fill="#000000">MCHBase/TrackBlock.h</text>
</a>
</g>
</g>
<!-- Node15&#45;&gt;Node17 -->
<g id="edge20" class="edge">
<title>Node15&#45;&gt;Node17</title>
<path fill="none" stroke="#191970" d="M288.2331,-123.4581C248.0249,-112.7533 182.7043,-95.3628 138.8365,-83.6837"/>
<polygon fill="#191970" stroke="#191970" points="139.5616,-80.2549 128.9977,-81.0643 137.7607,-87.0193 139.5616,-80.2549"/>
</g>
<!-- Node17&#45;&gt;Node10 -->
<g id="edge21" class="edge">
<title>Node17&#45;&gt;Node10</title>
<path fill="none" stroke="#191970" d="M100.2609,-61.8906C107.0399,-52.8273 117.3712,-39.0149 125.6707,-27.9188"/>
<polygon fill="#191970" stroke="#191970" points="128.5977,-29.849 131.7845,-19.7449 122.9922,-25.6563 128.5977,-29.849"/>
</g>
<!-- Node18&#45;&gt;Node9 -->
<g id="edge23" class="edge">
<title>Node18&#45;&gt;Node9</title>
<path fill="none" stroke="#191970" d="M331.2116,-235.4593C341.9245,-221.6363 363.3416,-195.8538 386.0734,-179 403.9808,-165.7231 426.3087,-154.5327 444.5981,-146.5143"/>
<polygon fill="#191970" stroke="#191970" points="446.1882,-149.6414 454.0188,-142.5047 443.4468,-143.2006 446.1882,-149.6414"/>
</g>
<!-- Node18&#45;&gt;Node13 -->
<g id="edge24" class="edge">
<title>Node18&#45;&gt;Node13</title>
<path fill="none" stroke="#191970" d="M346.4212,-235.3733C367.4767,-226.3032 399.2229,-212.6279 422.7909,-202.4755"/>
<polygon fill="#191970" stroke="#191970" points="424.2178,-205.6719 432.0172,-198.5011 421.4484,-199.243 424.2178,-205.6719"/>
</g>
<!-- Node18&#45;&gt;Node15 -->
<g id="edge25" class="edge">
<title>Node18&#45;&gt;Node15</title>
<path fill="none" stroke="#191970" d="M324.0734,-235.4509C324.0734,-217.184 324.0734,-176.9553 324.0734,-152.6976"/>
<polygon fill="#191970" stroke="#191970" points="327.5735,-152.5249 324.0734,-142.5249 320.5735,-152.5249 327.5735,-152.5249"/>
</g>
<!-- Node23&#45;&gt;Node14 -->
<g id="edge70" class="edge">
<title>Node23&#45;&gt;Node14</title>
<path fill="none" stroke="#191970" d="M1787.0534,-292.6114C1578.1417,-262.9183 876.9731,-163.2599 703.2607,-138.5698"/>
<polygon fill="#191970" stroke="#191970" points="703.6768,-135.0938 693.2838,-137.1517 702.6917,-142.0242 703.6768,-135.0938"/>
</g>
<!-- Node24 -->
<g id="node25" class="node">
<title>Node24</title>
<polygon fill="none" stroke="#bfbfbf" points="2020.5734,-235.5 2020.5734,-254.5 2085.5734,-254.5 2085.5734,-235.5 2020.5734,-235.5"/>
<text text-anchor="middle" x="2053.0734" y="-242.5" font-family="Helvetica,sans-Serif" font-size="10.00" fill="#000000">FairField.h</text>
</g>
<!-- Node23&#45;&gt;Node24 -->
<g id="edge33" class="edge">
<title>Node23&#45;&gt;Node24</title>
<path fill="none" stroke="#191970" d="M1881.6579,-291.3733C1917.4177,-281.6991 1972.5432,-266.7859 2010.5777,-256.4964"/>
<polygon fill="#191970" stroke="#191970" points="2011.5998,-259.8458 2020.3388,-253.8557 2009.7717,-253.0887 2011.5998,-259.8458"/>
</g>
<!-- Node25 -->
<g id="node26" class="node">
<title>Node25</title>
<g id="a_node26"><a xlink:href="../../d3/d91/MagFieldParam_8h.html" target="_top" xlink:title="Definition of the MagFieldParam: container for ALICE mag. field parameters. ">
<polygon fill="none" stroke="#000000" points="2103.5734,-235.5 2103.5734,-254.5 2228.5734,-254.5 2228.5734,-235.5 2103.5734,-235.5"/>
<text text-anchor="middle" x="2166.0734" y="-242.5" font-family="Helvetica,sans-Serif" font-size="10.00" fill="#000000">Field/MagFieldParam.h</text>
</a>
</g>
</g>
<!-- Node23&#45;&gt;Node25 -->
<g id="edge34" class="edge">
<title>Node23&#45;&gt;Node25</title>
<path fill="none" stroke="#191970" d="M1900.7197,-291.4369C1956.4057,-281.6918 2042.7408,-266.5832 2101.705,-256.2645"/>
<polygon fill="#191970" stroke="#191970" points="2102.4054,-259.6952 2111.6524,-254.5237 2101.1987,-252.7999 2102.4054,-259.6952"/>
</g>
<!-- Node28 -->
<g id="node29" class="node">
<title>Node28</title>
<g id="a_node29"><a xlink:href="../../dd/dfb/MagneticWrapperChebyshev_8h.html" target="_top" xlink:title="Field/MagneticWrapperChebyshev.h">
<polygon fill="none" stroke="#000000" points="1813.5734,-235.5 1813.5734,-254.5 2002.5734,-254.5 2002.5734,-235.5 1813.5734,-235.5"/>
<text text-anchor="middle" x="1908.0734" y="-242.5" font-family="Helvetica,sans-Serif" font-size="10.00" fill="#000000">Field/MagneticWrapperChebyshev.h</text>
</a>
</g>
</g>
<!-- Node23&#45;&gt;Node28 -->
<g id="edge37" class="edge">
<title>Node23&#45;&gt;Node28</title>
<path fill="none" stroke="#191970" d="M1856.8729,-291.2455C1865.9411,-283.0549 1879.094,-271.1749 1889.7978,-261.5069"/>
<polygon fill="#191970" stroke="#191970" points="1892.3225,-263.9429 1897.3975,-254.6427 1887.6305,-258.7482 1892.3225,-263.9429"/>
</g>
<!-- Node29 -->
<g id="node30" class="node">
<title>Node29</title>
<polygon fill="none" stroke="#bfbfbf" points="2250.5734,-62 2250.5734,-81 2317.5734,-81 2317.5734,-62 2250.5734,-62"/>
<text text-anchor="middle" x="2284.0734" y="-69" font-family="Helvetica,sans-Serif" font-size="10.00" fill="#000000">TNamed.h</text>
</g>
<!-- Node23&#45;&gt;Node29 -->
<g id="edge69" class="edge">
<title>Node23&#45;&gt;Node29</title>
<path fill="none" stroke="#191970" d="M1905.3767,-297.3521C1982.6147,-291.8479 2121.5358,-279.3676 2238.0734,-255 2321.7452,-237.5045 2371.1837,-267.6826 2422.0734,-199 2457.6475,-150.9878 2371.6407,-106.4001 2319.8425,-84.922"/>
<polygon fill="#191970" stroke="#191970" points="2320.8783,-81.5656 2310.2954,-81.0625 2318.2547,-88.0553 2320.8783,-81.5656"/>
</g>
<!-- Node34 -->
<g id="node35" class="node">
<title>Node34</title>
<polygon fill="none" stroke="#bfbfbf" points="2023.5734,-62 2023.5734,-81 2082.5734,-81 2082.5734,-62 2023.5734,-62"/>
<text text-anchor="middle" x="2053.0734" y="-69" font-family="Helvetica,sans-Serif" font-size="10.00" fill="#000000">Rtypes.h</text>
</g>
<!-- Node23&#45;&gt;Node34 -->
<g id="edge68" class="edge">
<title>Node23&#45;&gt;Node34</title>
<path fill="none" stroke="#191970" d="M1833.3486,-291.2466C1823.5327,-282.8582 1810.71,-269.7955 1805.0734,-255 1786.0977,-205.1914 1810.9952,-159.7342 1856.0734,-123 1911.905,-77.5029 1945.2929,-108.3637 2014.0734,-87 2016.363,-86.2888 2018.7084,-85.5044 2021.0574,-84.6772"/>
<polygon fill="#191970" stroke="#191970" points="2022.4558,-87.8912 2030.6004,-81.1151 2020.0078,-81.3332 2022.4558,-87.8912"/>
</g>
<!-- Node35 -->
<g id="node36" class="node">
<title>Node35</title>
<g id="a_node36"><a xlink:href="../../da/df4/MagFieldFast_8h.html" target="_top" xlink:title="Definition of the fast magnetic field parametrization MagFieldFast. ">
<polygon fill="none" stroke="#000000" points="1540.5734,-179.5 1540.5734,-198.5 1653.5734,-198.5 1653.5734,-179.5 1540.5734,-179.5"/>
<text text-anchor="middle" x="1597.0734" y="-186.5" font-family="Helvetica,sans-Serif" font-size="10.00" fill="#000000">Field/MagFieldFast.h</text>
</a>
</g>
</g>
<!-- Node23&#45;&gt;Node35 -->
<g id="edge53" class="edge">
<title>Node23&#45;&gt;Node35</title>
<path fill="none" stroke="#191970" d="M1830.8637,-291.3688C1808.8035,-277.6626 1766.3721,-252.2796 1728.0734,-235 1698.9467,-221.8587 1664.858,-209.9925 1638.7565,-201.6047"/>
<polygon fill="#191970" stroke="#191970" points="1639.7611,-198.2515 1629.1709,-198.5649 1637.6451,-204.9241 1639.7611,-198.2515"/>
</g>
<!-- Node46 -->
<g id="node47" class="node">
<title>Node46</title>
<polygon fill="none" stroke="#bfbfbf" points="1651.0734,-235.5 1651.0734,-254.5 1719.0734,-254.5 1719.0734,-235.5 1651.0734,-235.5"/>
<text text-anchor="middle" x="1685.0734" y="-242.5" font-family="Helvetica,sans-Serif" font-size="10.00" fill="#000000">TSystem.h</text>
</g>
<!-- Node23&#45;&gt;Node46 -->
<g id="edge67" class="edge">
<title>Node23&#45;&gt;Node46</title>
<path fill="none" stroke="#191970" d="M1818.3965,-291.3733C1791.7405,-282.1016 1751.2496,-268.0178 1721.8849,-257.804"/>
<polygon fill="#191970" stroke="#191970" points="1722.9839,-254.4807 1712.3891,-254.5011 1720.6842,-261.0921 1722.9839,-254.4807"/>
</g>
<!-- Node26 -->
<g id="node27" class="node">
<title>Node26</title>
<polygon fill="none" stroke="#bfbfbf" points="2301.5734,-179.5 2301.5734,-198.5 2412.5734,-198.5 2412.5734,-179.5 2301.5734,-179.5"/>
<text text-anchor="middle" x="2357.0734" y="-186.5" font-family="Helvetica,sans-Serif" font-size="10.00" fill="#000000">FairParGenericSet.h</text>
</g>
<!-- Node25&#45;&gt;Node26 -->
<g id="edge35" class="edge">
<title>Node25&#45;&gt;Node26</title>
<path fill="none" stroke="#191970" d="M2198.9074,-235.3733C2230.9428,-225.9807 2279.8221,-211.6496 2314.7588,-201.4064"/>
<polygon fill="#191970" stroke="#191970" points="2316.0564,-204.6733 2324.6678,-198.5011 2314.0869,-197.9561 2316.0564,-204.6733"/>
</g>
<!-- Node27 -->
<g id="node28" class="node">
<title>Node27</title>
<polygon fill="none" stroke="#bfbfbf" points="2239.0734,-123.5 2239.0734,-142.5 2299.0734,-142.5 2299.0734,-123.5 2239.0734,-123.5"/>
<text text-anchor="middle" x="2269.0734" y="-130.5" font-family="Helvetica,sans-Serif" font-size="10.00" fill="#000000">TString.h</text>
</g>
<!-- Node25&#45;&gt;Node27 -->
<g id="edge36" class="edge">
<title>Node25&#45;&gt;Node27</title>
<path fill="none" stroke="#191970" d="M2172.9953,-235.1851C2182.5329,-221.9131 2200.5336,-197.7485 2218.0734,-179 2227.874,-168.524 2239.7271,-157.7347 2249.5388,-149.2404"/>
<polygon fill="#191970" stroke="#191970" points="2251.8698,-151.8525 2257.2106,-142.7023 2247.3293,-146.5248 2251.8698,-151.8525"/>
</g>
<!-- Node28&#45;&gt;Node22 -->
<g id="edge38" class="edge">
<title>Node28&#45;&gt;Node22</title>
<path fill="none" stroke="#191970" d="M1982.9542,-235.4939C2044.8812,-227.2043 2135.0082,-214.1525 2213.0734,-199 2214.3151,-198.759 2215.5755,-198.5063 2216.847,-198.2445"/>
<polygon fill="#191970" stroke="#191970" points="2217.6515,-201.6514 2226.6771,-196.1026 2216.1612,-194.8119 2217.6515,-201.6514"/>
</g>
<!-- Node28&#45;&gt;Node29 -->
<g id="edge39" class="edge">
<title>Node28&#45;&gt;Node29</title>
<path fill="none" stroke="#191970" d="M1963.0135,-235.4836C2008.8061,-227.1425 2075.5976,-214.0245 2133.0734,-199 2152.8254,-193.8367 2296.0365,-159.4899 2308.0734,-143 2319.8185,-126.9097 2309.1268,-104.6911 2298.5184,-89.3112"/>
<polygon fill="#191970" stroke="#191970" points="2301.2247,-87.085 2292.4521,-81.1441 2295.6052,-91.2589 2301.2247,-87.085"/>
</g>
<!-- Node30 -->
<g id="node31" class="node">
<title>Node30</title>
<polygon fill="none" stroke="#bfbfbf" points="2147.5734,-123.5 2147.5734,-142.5 2220.5734,-142.5 2220.5734,-123.5 2147.5734,-123.5"/>
<text text-anchor="middle" x="2184.0734" y="-130.5" font-family="Helvetica,sans-Serif" font-size="10.00" fill="#000000">TObjArray.h</text>
</g>
<!-- Node28&#45;&gt;Node30 -->
<g id="edge40" class="edge">
<title>Node28&#45;&gt;Node30</title>
<path fill="none" stroke="#191970" d="M1984.3735,-235.4483C2021.8346,-228.7097 2066.8065,-217.4713 2104.0734,-199 2129.0762,-186.6074 2153.1267,-165.0297 2168.214,-149.9305"/>
<polygon fill="#191970" stroke="#191970" points="2170.7771,-152.3152 2175.2442,-142.7081 2165.761,-147.4326 2170.7771,-152.3152"/>
</g>
<!-- Node31 -->
<g id="node32" class="node">
<title>Node31</title>
<g id="a_node32"><a xlink:href="../../d8/d64/Chebyshev3D_8h.html" target="_top" xlink:title="MathUtils/Chebyshev3D.h">
<polygon fill="none" stroke="#000000" points="1951.5734,-179.5 1951.5734,-198.5 2094.5734,-198.5 2094.5734,-179.5 1951.5734,-179.5"/>
<text text-anchor="middle" x="2023.0734" y="-186.5" font-family="Helvetica,sans-Serif" font-size="10.00" fill="#000000">MathUtils/Chebyshev3D.h</text>
</a>
</g>
</g>
<!-- Node28&#45;&gt;Node31 -->
<g id="edge41" class="edge">
<title>Node28&#45;&gt;Node31</title>
<path fill="none" stroke="#191970" d="M1927.8426,-235.3733C1946.2203,-226.4241 1973.8046,-212.9917 1994.5626,-202.8835"/>
<polygon fill="#191970" stroke="#191970" points="1996.1038,-206.026 2003.5621,-198.5011 1993.0391,-199.7325 1996.1038,-206.026"/>
</g>
<!-- Node33 -->
<g id="node34" class="node">
<title>Node33</title>
<g id="a_node34"><a xlink:href="../../d4/d08/Chebyshev3DCalc_8h.html" target="_top" xlink:title="MathUtils/Chebyshev3DCalc.h">
<polygon fill="none" stroke="#000000" points="1889.0734,-123.5 1889.0734,-142.5 2053.0734,-142.5 2053.0734,-123.5 1889.0734,-123.5"/>
<text text-anchor="middle" x="1971.0734" y="-130.5" font-family="Helvetica,sans-Serif" font-size="10.00" fill="#000000">MathUtils/Chebyshev3DCalc.h</text>
</a>
</g>
</g>
<!-- Node28&#45;&gt;Node33 -->
<g id="edge51" class="edge">
<title>Node28&#45;&gt;Node33</title>
<path fill="none" stroke="#191970" d="M1913.1114,-235.061C1919.756,-222.0568 1931.9151,-198.6159 1943.0734,-179 1948.3129,-169.7892 1954.4015,-159.7173 1959.5604,-151.3524"/>
<polygon fill="#191970" stroke="#191970" points="1962.5883,-153.111 1964.8949,-142.7703 1956.6432,-149.4155 1962.5883,-153.111"/>
</g>
<!-- Node28&#45;&gt;Node34 -->
<g id="edge52" class="edge">
<title>Node28&#45;&gt;Node34</title>
<path fill="none" stroke="#191970" d="M1899.6336,-235.4011C1881.2844,-213.3373 1841.5388,-158.2067 1869.0734,-123 1909.9798,-70.6956 1950.8542,-107.3083 2014.0734,-87 2016.356,-86.2667 2018.6962,-85.4659 2021.0415,-84.6269"/>
<polygon fill="#191970" stroke="#191970" points="2022.4496,-87.8367 2030.5764,-81.0391 2019.9844,-81.2851 2022.4496,-87.8367"/>
</g>
<!-- Node31&#45;&gt;Node27 -->
<g id="edge50" class="edge">
<title>Node31&#45;&gt;Node27</title>
<path fill="none" stroke="#191970" d="M2067.9907,-179.4567C2107.8525,-170.889 2167.9144,-157.7402 2229.0461,-143.1947"/>
<polygon fill="#191970" stroke="#191970" points="2229.9509,-146.5772 2238.8636,-140.8488 2228.324,-139.7688 2229.9509,-146.5772"/>
</g>
<!-- Node31&#45;&gt;Node29 -->
<g id="edge42" class="edge">
<title>Node31&#45;&gt;Node29</title>
<path fill="none" stroke="#191970" d="M2038.0083,-179.3642C2059.6742,-165.6524 2101.3616,-140.2626 2139.0734,-123 2173.0087,-107.4661 2213.0891,-93.549 2242.5008,-84.1104"/>
<polygon fill="#191970" stroke="#191970" points="2243.5674,-87.444 2252.0419,-81.0853 2241.4517,-80.7713 2243.5674,-87.444"/>
</g>
<!-- Node31&#45;&gt;Node30 -->
<g id="edge43" class="edge">
<title>Node31&#45;&gt;Node30</title>
<path fill="none" stroke="#191970" d="M2050.7503,-179.3733C2077.4062,-170.1016 2117.8971,-156.0178 2147.2618,-145.804"/>
<polygon fill="#191970" stroke="#191970" points="2148.4625,-149.0921 2156.7576,-142.5011 2146.1628,-142.4807 2148.4625,-149.0921"/>
</g>
<!-- Node32 -->
<g id="node33" class="node">
<title>Node32</title>
<polygon fill="none" stroke="#bfbfbf" points="2101.0734,-62 2101.0734,-81 2147.0734,-81 2147.0734,-62 2101.0734,-62"/>
<text text-anchor="middle" x="2124.0734" y="-69" font-family="Helvetica,sans-Serif" font-size="10.00" fill="#000000">cstdio</text>
</g>
<!-- Node31&#45;&gt;Node32 -->
<g id="edge44" class="edge">
<title>Node31&#45;&gt;Node32</title>
<path fill="none" stroke="#191970" d="M2031.3386,-179.3845C2048.3544,-159.5889 2087.5095,-114.0372 2109.1019,-88.9173"/>
<polygon fill="#191970" stroke="#191970" points="2111.8296,-91.1134 2115.6939,-81.2484 2106.5211,-86.5504 2111.8296,-91.1134"/>
</g>
<!-- Node31&#45;&gt;Node33 -->
<g id="edge45" class="edge">
<title>Node31&#45;&gt;Node33</title>
<path fill="none" stroke="#191970" d="M2014.0157,-179.2455C2006.5592,-171.2155 1995.8099,-159.6394 1986.9316,-150.0781"/>
<polygon fill="#191970" stroke="#191970" points="1989.3966,-147.589 1980.0273,-142.6427 1984.267,-152.3522 1989.3966,-147.589"/>
</g>
<!-- Node31&#45;&gt;Node34 -->
<g id="edge49" class="edge">
<title>Node31&#45;&gt;Node34</title>
<path fill="none" stroke="#191970" d="M1951.152,-180.097C1904.3553,-171.2225 1856.1143,-154.2454 1880.0734,-123 1917.5979,-74.0636 1955.5438,-106.4205 2014.0734,-87 2016.2085,-86.2916 2018.3958,-85.5286 2020.5918,-84.7344"/>
<polygon fill="#191970" stroke="#191970" points="2022.0221,-87.9356 2030.1391,-81.1265 2019.5475,-81.3875 2022.0221,-87.9356"/>
</g>
<!-- Node33&#45;&gt;Node29 -->
<g id="edge46" class="edge">
<title>Node33&#45;&gt;Node29</title>
<path fill="none" stroke="#191970" d="M2019.6362,-123.4581C2080.0566,-111.5864 2182.3266,-91.4918 2240.3863,-80.0839"/>
<polygon fill="#191970" stroke="#191970" points="2241.21,-83.489 2250.3475,-78.1266 2239.8603,-76.6204 2241.21,-83.489"/>
</g>
<!-- Node33&#45;&gt;Node32 -->
<g id="edge47" class="edge">
<title>Node33&#45;&gt;Node32</title>
<path fill="none" stroke="#191970" d="M1998.2579,-123.4391C2022.9616,-114.5685 2060.2934,-100.7062 2092.0734,-87 2093.2531,-86.4912 2094.4525,-85.9627 2095.6606,-85.421"/>
<polygon fill="#191970" stroke="#191970" points="2097.3174,-88.5106 2104.9092,-81.1203 2094.3658,-82.1633 2097.3174,-88.5106"/>
</g>
<!-- Node33&#45;&gt;Node34 -->
<g id="edge48" class="edge">
<title>Node33&#45;&gt;Node34</title>
<path fill="none" stroke="#191970" d="M1983.8859,-123.3906C1996.7635,-113.7324 2016.8318,-98.6812 2032.0454,-87.271"/>
<polygon fill="#191970" stroke="#191970" points="2034.4508,-89.8419 2040.3508,-81.0419 2030.2508,-84.2419 2034.4508,-89.8419"/>
</g>
<!-- Node35&#45;&gt;Node11 -->
<g id="edge55" class="edge">
<title>Node35&#45;&gt;Node11</title>
<path fill="none" stroke="#191970" d="M1540.2534,-179.8943C1449.5483,-165.6759 1266.3222,-138.2536 1110.0734,-123 844.1911,-97.0435 768.1176,-156.1396 510.0734,-87 508.3551,-86.5396 506.6204,-85.9789 504.8958,-85.3471"/>
<polygon fill="#191970" stroke="#191970" points="505.8803,-81.9575 495.3158,-81.1558 503.0745,-88.3706 505.8803,-81.9575"/>
</g>
<!-- Node35&#45;&gt;Node34 -->
<g id="edge54" class="edge">
<title>Node35&#45;&gt;Node34</title>
<path fill="none" stroke="#191970" d="M1617.7562,-179.4779C1649.8799,-165.0763 1714.0143,-137.8624 1771.0734,-123 1876.7268,-95.4801 1908.6399,-115.351 2014.0734,-87 2016.6877,-86.297 2019.3647,-85.4716 2022.0311,-84.574"/>
<polygon fill="#191970" stroke="#191970" points="2023.3269,-87.8268 2031.5104,-81.0977 2020.9167,-81.2548 2023.3269,-87.8268"/>
</g>
<!-- Node36 -->
<g id="node37" class="node">
<title>Node36</title>
<g id="a_node37"><a xlink:href="../../dc/d73/Cartesian_8h.html" target="_top" xlink:title="MathUtils/Cartesian.h">
<polygon fill="none" stroke="#000000" points="1304.0734,-123.5 1304.0734,-142.5 1426.0734,-142.5 1426.0734,-123.5 1304.0734,-123.5"/>
<text text-anchor="middle" x="1365.0734" y="-130.5" font-family="Helvetica,sans-Serif" font-size="10.00" fill="#000000">MathUtils/Cartesian.h</text>
</a>
</g>
</g>
<!-- Node35&#45;&gt;Node36 -->
<g id="edge56" class="edge">
<title>Node35&#45;&gt;Node36</title>
<path fill="none" stroke="#191970" d="M1557.4548,-179.4369C1517.9166,-169.8932 1457.0665,-155.2052 1414.4152,-144.9101"/>
<polygon fill="#191970" stroke="#191970" points="1415.0707,-141.4679 1404.5286,-142.5237 1413.4281,-148.2724 1415.0707,-141.4679"/>
</g>
<!-- Node36&#45;&gt;Node34 -->
<g id="edge64" class="edge">
<title>Node36&#45;&gt;Node34</title>
<path fill="none" stroke="#191970" d="M1426.2254,-131.0604C1565.5913,-126.2526 1903.2641,-112.3064 2014.0734,-87 2016.9368,-86.3461 2019.8655,-85.5137 2022.7679,-84.5754"/>
<polygon fill="#191970" stroke="#191970" points="2024.1937,-87.7814 2032.4015,-81.082 2021.8074,-81.2007 2024.1937,-87.7814"/>
</g>
<!-- Node37 -->
<g id="node38" class="node">
<title>Node37</title>
<polygon fill="none" stroke="#bfbfbf" points="895.0734,-56.5 895.0734,-86.5 1059.0734,-86.5 1059.0734,-56.5 895.0734,-56.5"/>
<text text-anchor="start" x="903.0734" y="-74.5" font-family="Helvetica,sans-Serif" font-size="10.00" fill="#000000">Math/GenVector/Displacement</text>
<text text-anchor="middle" x="977.0734" y="-63.5" font-family="Helvetica,sans-Serif" font-size="10.00" fill="#000000">Vector3D.h</text>
</g>
<!-- Node36&#45;&gt;Node37 -->
<g id="edge57" class="edge">
<title>Node36&#45;&gt;Node37</title>
<path fill="none" stroke="#191970" d="M1303.8119,-123.7125C1246.1498,-114.9177 1157.0966,-101.1996 1069.4491,-87.0485"/>
<polygon fill="#191970" stroke="#191970" points="1069.7541,-83.5524 1059.3235,-85.4107 1068.6363,-90.4626 1069.7541,-83.5524"/>
</g>
<!-- Node38 -->
<g id="node39" class="node">
<title>Node38</title>
<polygon fill="none" stroke="#bfbfbf" points="1077.5734,-62 1077.5734,-81 1266.5734,-81 1266.5734,-62 1077.5734,-62"/>
<text text-anchor="middle" x="1172.0734" y="-69" font-family="Helvetica,sans-Serif" font-size="10.00" fill="#000000">Math/GenVector/PositionVector3D.h</text>
</g>
<!-- Node36&#45;&gt;Node38 -->
<g id="edge58" class="edge">
<title>Node36&#45;&gt;Node38</title>
<path fill="none" stroke="#191970" d="M1334.9171,-123.3906C1301.7749,-112.8298 1248.3971,-95.8208 1211.8492,-84.1747"/>
<polygon fill="#191970" stroke="#191970" points="1212.6085,-80.7433 1202.0179,-81.0419 1210.4832,-87.4129 1212.6085,-80.7433"/>
</g>
<!-- Node39 -->
<g id="node40" class="node">
<title>Node39</title>
<polygon fill="none" stroke="#bfbfbf" points="1285.0734,-62 1285.0734,-81 1445.0734,-81 1445.0734,-62 1285.0734,-62"/>
<text text-anchor="middle" x="1365.0734" y="-69" font-family="Helvetica,sans-Serif" font-size="10.00" fill="#000000">Math/GenVector/Rotation3D.h</text>
</g>
<!-- Node36&#45;&gt;Node39 -->
<g id="edge59" class="edge">
<title>Node36&#45;&gt;Node39</title>
<path fill="none" stroke="#191970" d="M1365.0734,-123.3906C1365.0734,-114.8657 1365.0734,-102.1392 1365.0734,-91.4235"/>
<polygon fill="#191970" stroke="#191970" points="1368.5735,-91.2448 1365.0734,-81.2449 1361.5735,-91.2449 1368.5735,-91.2448"/>
</g>
<!-- Node40 -->
<g id="node41" class="node">
<title>Node40</title>
<polygon fill="none" stroke="#bfbfbf" points="1463.0734,-62 1463.0734,-81 1631.0734,-81 1631.0734,-62 1463.0734,-62"/>
<text text-anchor="middle" x="1547.0734" y="-69" font-family="Helvetica,sans-Serif" font-size="10.00" fill="#000000">Math/GenVector/Transform3D.h</text>
</g>
<!-- Node36&#45;&gt;Node40 -->
<g id="edge60" class="edge">
<title>Node36&#45;&gt;Node40</title>
<path fill="none" stroke="#191970" d="M1393.5109,-123.3906C1424.6306,-112.8749 1474.6698,-95.966 1509.1219,-84.3243"/>
<polygon fill="#191970" stroke="#191970" points="1510.4823,-87.5591 1518.8356,-81.0419 1508.2413,-80.9274 1510.4823,-87.5591"/>
</g>
<!-- Node41 -->
<g id="node42" class="node">
<title>Node41</title>
<polygon fill="none" stroke="#bfbfbf" points="1649.5734,-62 1649.5734,-81 1822.5734,-81 1822.5734,-62 1649.5734,-62"/>
<text text-anchor="middle" x="1736.0734" y="-69" font-family="Helvetica,sans-Serif" font-size="10.00" fill="#000000">Math/GenVector/Translation3D.h</text>
</g>
<!-- Node36&#45;&gt;Node41 -->
<g id="edge61" class="edge">
<title>Node36&#45;&gt;Node41</title>
<path fill="none" stroke="#191970" d="M1422.6351,-123.4581C1489.0762,-112.4443 1598.2118,-94.3531 1668.5893,-82.6867"/>
<polygon fill="#191970" stroke="#191970" points="1669.3889,-86.102 1678.6819,-81.0137 1668.2441,-79.1962 1669.3889,-86.102"/>
</g>
<!-- Node42 -->
<g id="node43" class="node">
<title>Node42</title>
<polygon fill="none" stroke="#bfbfbf" points="1841.0734,-56.5 1841.0734,-86.5 2005.0734,-86.5 2005.0734,-56.5 1841.0734,-56.5"/>
<text text-anchor="start" x="1849.0734" y="-74.5" font-family="Helvetica,sans-Serif" font-size="10.00" fill="#000000">Math/GenVector/Displacement</text>
<text text-anchor="middle" x="1923.0734" y="-63.5" font-family="Helvetica,sans-Serif" font-size="10.00" fill="#000000">Vector2D.h</text>
</g>
<!-- Node36&#45;&gt;Node42 -->
<g id="edge62" class="edge">
<title>Node36&#45;&gt;Node42</title>
<path fill="none" stroke="#191970" d="M1426.4289,-128.3443C1513.9332,-121.3967 1679.8151,-107.0888 1830.8474,-87.1098"/>
<polygon fill="#191970" stroke="#191970" points="1831.3239,-90.5774 1840.7732,-85.7857 1830.3981,-83.6388 1831.3239,-90.5774"/>
</g>
<!-- Node43 -->
<g id="node44" class="node">
<title>Node43</title>
<polygon fill="none" stroke="#bfbfbf" points="519.5734,-62 519.5734,-81 708.5734,-81 708.5734,-62 519.5734,-62"/>
<text text-anchor="middle" x="614.0734" y="-69" font-family="Helvetica,sans-Serif" font-size="10.00" fill="#000000">Math/GenVector/PositionVector2D.h</text>
</g>
<!-- Node36&#45;&gt;Node43 -->
<g id="edge63" class="edge">
<title>Node36&#45;&gt;Node43</title>
<path fill="none" stroke="#191970" d="M1303.9595,-127.8302C1284.5024,-126.2273 1262.8876,-124.4913 1243.0734,-123 1009.8518,-105.4464 950.5867,-112.2582 718.0734,-87 706.4472,-85.737 694.127,-84.1355 682.1884,-82.444"/>
<polygon fill="#191970" stroke="#191970" points="682.6717,-78.9776 672.2732,-81.0074 681.6679,-85.9052 682.6717,-78.9776"/>
</g>
<!-- Node44 -->
<g id="node45" class="node">
<title>Node44</title>
<polygon fill="none" stroke="#bfbfbf" points="727.0734,-62 727.0734,-81 809.0734,-81 809.0734,-62 727.0734,-62"/>
<text text-anchor="middle" x="768.0734" y="-69" font-family="Helvetica,sans-Serif" font-size="10.00" fill="#000000">TGeoMatrix.h</text>
</g>
<!-- Node36&#45;&gt;Node44 -->
<g id="edge65" class="edge">
<title>Node36&#45;&gt;Node44</title>
<path fill="none" stroke="#191970" d="M1304.0147,-127.9396C1162.7623,-116.2218 824.9817,-88.1335 819.0734,-87 814.6073,-86.1432 809.9766,-85.0442 805.4091,-83.8275"/>
<polygon fill="#191970" stroke="#191970" points="806.176,-80.4066 795.5992,-81.0245 804.2528,-87.1373 806.176,-80.4066"/>
</g>
<!-- Node45 -->
<g id="node46" class="node">
<title>Node45</title>
<polygon fill="none" stroke="#bfbfbf" points="827.5734,-62 827.5734,-81 876.5734,-81 876.5734,-62 827.5734,-62"/>
<text text-anchor="middle" x="852.0734" y="-69" font-family="Helvetica,sans-Serif" font-size="10.00" fill="#000000">iosfwd</text>
</g>
<!-- Node36&#45;&gt;Node45 -->
<g id="edge66" class="edge">
<title>Node36&#45;&gt;Node45</title>
<path fill="none" stroke="#191970" d="M1303.6398,-127.6445C1178.8864,-116.6939 905.945,-92.3233 886.0734,-87 883.8841,-86.4135 881.6591,-85.6984 879.4489,-84.9008"/>
<polygon fill="#191970" stroke="#191970" points="880.5906,-81.5859 870.011,-81.0177 877.9271,-88.0594 880.5906,-81.5859"/>
</g>
<!-- Node47&#45;&gt;Node16 -->
<g id="edge73" class="edge">
<title>Node47&#45;&gt;Node16</title>
<path fill="none" stroke="#191970" d="M1094.6522,-291.067C1092.423,-277.6611 1087.264,-253.3453 1077.0734,-235 1044.5242,-176.4048 1036.355,-152.3081 976.0734,-123 870.3057,-71.5772 563.255,-110.7549 448.0734,-87 444.4494,-86.2526 440.7175,-85.2783 437.0317,-84.1819"/>
<polygon fill="#191970" stroke="#191970" points="438.0808,-80.8426 427.4884,-81.0663 435.9084,-87.497 438.0808,-80.8426"/>
</g>
<!-- Node48 -->
<g id="node49" class="node">
<title>Node48</title>
<polygon fill="none" stroke="#bfbfbf" points="1014.5734,-235.5 1014.5734,-254.5 1067.5734,-254.5 1067.5734,-235.5 1014.5734,-235.5"/>
<text text-anchor="middle" x="1041.0734" y="-242.5" font-family="Helvetica,sans-Serif" font-size="10.00" fill="#000000">cstddef</text>
</g>
<!-- Node47&#45;&gt;Node48 -->
<g id="edge72" class="edge">
<title>Node47&#45;&gt;Node48</title>
<path fill="none" stroke="#191970" d="M1086.4931,-291.2455C1078.5276,-283.1352 1067.0093,-271.4075 1057.5654,-261.7919"/>
<polygon fill="#191970" stroke="#191970" points="1060.048,-259.3247 1050.5439,-254.6427 1055.0539,-264.2297 1060.048,-259.3247"/>
</g>
</g>
</svg>
