<?xml version="1.0" encoding="UTF-8" standalone="no"?>
<!DOCTYPE svg PUBLIC "-//W3C//DTD SVG 1.1//EN"
 "http://www.w3.org/Graphics/SVG/1.1/DTD/svg11.dtd">
<!-- Generated by graphviz version 2.40.1 (20161225.0304)
 -->
<!-- Title: /home/travis/build/AliceO2Group/AliceO2/Detectors/ITSMFT/common/reconstruction/src/BuildTopologyDictionary.cxx Pages: 1 -->
<svg width="2243pt" height="396pt"
 viewBox="0.00 0.00 2242.51 396.00" xmlns="http://www.w3.org/2000/svg" xmlns:xlink="http://www.w3.org/1999/xlink">
<g id="graph0" class="graph" transform="scale(1 1) rotate(0) translate(4 392)">
<title>/home/travis/build/AliceO2Group/AliceO2/Detectors/ITSMFT/common/reconstruction/src/BuildTopologyDictionary.cxx</title>
<!-- Node0 -->
<g id="node1" class="node">
<title>Node0</title>
<polygon fill="#bfbfbf" stroke="#000000" points="1562,-324.5 1562,-387.5 1740,-387.5 1740,-324.5 1562,-324.5"/>
<text text-anchor="start" x="1570" y="-375.5" font-family="Helvetica,sans-Serif" font-size="10.00" fill="#000000">/home/travis/build</text>
<text text-anchor="start" x="1570" y="-364.5" font-family="Helvetica,sans-Serif" font-size="10.00" fill="#000000">/AliceO2Group/AliceO2</text>
<text text-anchor="start" x="1570" y="-353.5" font-family="Helvetica,sans-Serif" font-size="10.00" fill="#000000">/Detectors/ITSMFT/common</text>
<text text-anchor="start" x="1570" y="-342.5" font-family="Helvetica,sans-Serif" font-size="10.00" fill="#000000">/reconstruction/src/BuildTopology</text>
<text text-anchor="middle" x="1651" y="-331.5" font-family="Helvetica,sans-Serif" font-size="10.00" fill="#000000">Dictionary.cxx</text>
</g>
<!-- Node1 -->
<g id="node2" class="node">
<title>Node1</title>
<g id="a_node2"><a xlink:href="../../d9/d1d/BuildTopologyDictionary_8h.html" target="_top" xlink:title="Definition of the BuildTopologyDictionary class. ">
<polygon fill="none" stroke="#000000" points="1302,-257.5 1302,-287.5 1448,-287.5 1448,-257.5 1302,-257.5"/>
<text text-anchor="start" x="1310" y="-275.5" font-family="Helvetica,sans-Serif" font-size="10.00" fill="#000000">ITSMFTReconstruction</text>
<text text-anchor="middle" x="1375" y="-264.5" font-family="Helvetica,sans-Serif" font-size="10.00" fill="#000000">/BuildTopologyDictionary.h</text>
</a>
</g>
</g>
<!-- Node0&#45;&gt;Node1 -->
<g id="edge1" class="edge">
<title>Node0&#45;&gt;Node1</title>
<path fill="none" stroke="#191970" d="M1561.7719,-329.0053C1520.1342,-316.4083 1471.6983,-301.7547 1434.5865,-290.5271"/>
<polygon fill="#191970" stroke="#191970" points="1435.5067,-287.1488 1424.9216,-287.6031 1433.4796,-293.8489 1435.5067,-287.1488"/>
</g>
<!-- Node29 -->
<g id="node30" class="node">
<title>Node29</title>
<g id="a_node30"><a xlink:href="../../df/ddf/LookUp_8h.html" target="_top" xlink:title="Definition of the LookUp class. ">
<polygon fill="none" stroke="#000000" points="1538.5,-257.5 1538.5,-287.5 1661.5,-287.5 1661.5,-257.5 1538.5,-257.5"/>
<text text-anchor="start" x="1546.5" y="-275.5" font-family="Helvetica,sans-Serif" font-size="10.00" fill="#000000">ITSMFTReconstruction</text>
<text text-anchor="middle" x="1600" y="-264.5" font-family="Helvetica,sans-Serif" font-size="10.00" fill="#000000">/LookUp.h</text>
</a>
</g>
</g>
<!-- Node0&#45;&gt;Node29 -->
<g id="edge38" class="edge">
<title>Node0&#45;&gt;Node29</title>
<path fill="none" stroke="#191970" d="M1631.7191,-324.4322C1626.0247,-315.109 1619.8896,-305.0643 1614.5466,-296.3165"/>
<polygon fill="#191970" stroke="#191970" points="1617.5165,-294.4642 1609.3171,-287.7545 1611.5427,-298.1129 1617.5165,-294.4642"/>
</g>
<!-- Node30 -->
<g id="node31" class="node">
<title>Node30</title>
<polygon fill="none" stroke="#bfbfbf" points="1679.5,-263 1679.5,-282 1726.5,-282 1726.5,-263 1679.5,-263"/>
<text text-anchor="middle" x="1703" y="-270" font-family="Helvetica,sans-Serif" font-size="10.00" fill="#000000">cmath</text>
</g>
<!-- Node0&#45;&gt;Node30 -->
<g id="edge42" class="edge">
<title>Node0&#45;&gt;Node30</title>
<path fill="none" stroke="#191970" d="M1670.659,-324.4322C1677.7206,-313.0928 1685.4469,-300.6862 1691.5764,-290.8437"/>
<polygon fill="#191970" stroke="#191970" points="1694.5747,-292.65 1696.89,-282.3112 1688.6327,-288.9495 1694.5747,-292.65"/>
</g>
<!-- Node31 -->
<g id="node32" class="node">
<title>Node31</title>
<polygon fill="none" stroke="#bfbfbf" points="1745,-263 1745,-282 1793,-282 1793,-263 1745,-263"/>
<text text-anchor="middle" x="1769" y="-270" font-family="Helvetica,sans-Serif" font-size="10.00" fill="#000000">TFile.h</text>
</g>
<!-- Node0&#45;&gt;Node31 -->
<g id="edge43" class="edge">
<title>Node0&#45;&gt;Node31</title>
<path fill="none" stroke="#191970" d="M1695.6107,-324.4322C1713.2302,-311.9642 1732.673,-298.206 1747.1176,-287.9846"/>
<polygon fill="#191970" stroke="#191970" points="1749.2633,-290.754 1755.4045,-282.1205 1745.2198,-285.0399 1749.2633,-290.754"/>
</g>
<!-- Node2 -->
<g id="node3" class="node">
<title>Node2</title>
<polygon fill="none" stroke="#bfbfbf" points="978,-196 978,-215 1042,-215 1042,-196 978,-196"/>
<text text-anchor="middle" x="1010" y="-203" font-family="Helvetica,sans-Serif" font-size="10.00" fill="#000000">algorithm</text>
</g>
<!-- Node1&#45;&gt;Node2 -->
<g id="edge2" class="edge">
<title>Node1&#45;&gt;Node2</title>
<path fill="none" stroke="#191970" d="M1301.7783,-264.1685C1236.6715,-255.936 1139.1833,-241.5799 1056,-221 1052.6255,-220.1651 1049.1441,-219.1969 1045.678,-218.1599"/>
<polygon fill="#191970" stroke="#191970" points="1046.6413,-214.7937 1036.0511,-215.1091 1044.5266,-221.4666 1046.6413,-214.7937"/>
</g>
<!-- Node3 -->
<g id="node4" class="node">
<title>Node3</title>
<polygon fill="none" stroke="#bfbfbf" points="0,-129 0,-148 38,-148 38,-129 0,-129"/>
<text text-anchor="middle" x="19" y="-136" font-family="Helvetica,sans-Serif" font-size="10.00" fill="#000000">map</text>
</g>
<!-- Node1&#45;&gt;Node3 -->
<g id="edge3" class="edge">
<title>Node1&#45;&gt;Node3</title>
<path fill="none" stroke="#191970" d="M1301.9863,-263.5893C1230.147,-254.068 1126.0099,-238.0285 1089,-221 1069.1994,-211.8896 1071.3975,-197.6814 1051,-190 843.1084,-111.7116 267.9049,-206.279 52,-154 49.8007,-153.4675 47.5721,-152.7814 45.3653,-151.995"/>
<polygon fill="#191970" stroke="#191970" points="46.5642,-148.7027 35.9882,-148.0709 43.8619,-155.1601 46.5642,-148.7027"/>
</g>
<!-- Node4 -->
<g id="node5" class="node">
<title>Node4</title>
<g id="a_node5"><a xlink:href="../../d3/dba/SegmentationAlpide_8h.html" target="_top" xlink:title="Definition of the SegmentationAlpide class. ">
<polygon fill="none" stroke="#000000" points="1098,-196 1098,-215 1284,-215 1284,-196 1098,-196"/>
<text text-anchor="middle" x="1191" y="-203" font-family="Helvetica,sans-Serif" font-size="10.00" fill="#000000">ITSMFTBase/SegmentationAlpide.h</text>
</a>
</g>
</g>
<!-- Node1&#45;&gt;Node4 -->
<g id="edge4" class="edge">
<title>Node1&#45;&gt;Node4</title>
<path fill="none" stroke="#191970" d="M1333.7068,-257.4639C1301.4868,-245.7316 1257.1999,-229.6054 1226.5453,-218.4431"/>
<polygon fill="#191970" stroke="#191970" points="1227.6981,-215.1381 1217.1041,-215.0053 1225.303,-221.7156 1227.6981,-215.1381"/>
</g>
<!-- Node16 -->
<g id="node17" class="node">
<title>Node16</title>
<g id="a_node17"><a xlink:href="../../d8/ddb/ClusterTopology_8h.html" target="_top" xlink:title="Definition of the ClusterTopology class. ">
<polygon fill="none" stroke="#000000" points="1412,-190.5 1412,-220.5 1564,-220.5 1564,-190.5 1412,-190.5"/>
<text text-anchor="start" x="1420" y="-208.5" font-family="Helvetica,sans-Serif" font-size="10.00" fill="#000000">DataFormatsITSMFT/Cluster</text>
<text text-anchor="middle" x="1488" y="-197.5" font-family="Helvetica,sans-Serif" font-size="10.00" fill="#000000">Topology.h</text>
</a>
</g>
</g>
<!-- Node1&#45;&gt;Node16 -->
<g id="edge17" class="edge">
<title>Node1&#45;&gt;Node16</title>
<path fill="none" stroke="#191970" d="M1400.3594,-257.4639C1416.0963,-248.1332 1436.5205,-236.0232 1453.6928,-225.8415"/>
<polygon fill="#191970" stroke="#191970" points="1455.5176,-228.8285 1462.3343,-220.7177 1451.9475,-222.8073 1455.5176,-228.8285"/>
</g>
<!-- Node21 -->
<g id="node22" class="node">
<title>Node21</title>
<g id="a_node22"><a xlink:href="../../d1/d08/TopologyDictionary_8h.html" target="_top" xlink:title="Definition of the ClusterTopology class. ">
<polygon fill="none" stroke="#000000" points="1668.5,-190.5 1668.5,-220.5 1829.5,-220.5 1829.5,-190.5 1668.5,-190.5"/>
<text text-anchor="start" x="1676.5" y="-208.5" font-family="Helvetica,sans-Serif" font-size="10.00" fill="#000000">DataFormatsITSMFT/Topology</text>
<text text-anchor="middle" x="1749" y="-197.5" font-family="Helvetica,sans-Serif" font-size="10.00" fill="#000000">Dictionary.h</text>
</a>
</g>
</g>
<!-- Node1&#45;&gt;Node21 -->
<g id="edge27" class="edge">
<title>Node1&#45;&gt;Node21</title>
<path fill="none" stroke="#191970" d="M1448.4441,-259.3429C1508.518,-248.581 1593.7553,-233.3112 1658.1236,-221.78"/>
<polygon fill="#191970" stroke="#191970" points="1659.0419,-225.1713 1668.268,-219.9627 1657.8075,-218.281 1659.0419,-225.1713"/>
</g>
<!-- Node5 -->
<g id="node6" class="node">
<title>Node5</title>
<polygon fill="none" stroke="#bfbfbf" points="1367.5,-.5 1367.5,-19.5 1426.5,-19.5 1426.5,-.5 1367.5,-.5"/>
<text text-anchor="middle" x="1397" y="-7.5" font-family="Helvetica,sans-Serif" font-size="10.00" fill="#000000">Rtypes.h</text>
</g>
<!-- Node4&#45;&gt;Node5 -->
<g id="edge5" class="edge">
<title>Node4&#45;&gt;Node5</title>
<path fill="none" stroke="#191970" d="M1128.2552,-195.9704C1113.7386,-193.8881 1098.3434,-191.7776 1084,-190 861.7123,-162.4523 -70.584,-217.1345 85,-56 107.6595,-32.5321 1139.7041,-14.2399 1357.0773,-10.6436"/>
<polygon fill="#191970" stroke="#191970" points="1357.4399,-14.1382 1367.3809,-10.4741 1357.3247,-7.1391 1357.4399,-14.1382"/>
</g>
<!-- Node6 -->
<g id="node7" class="node">
<title>Node6</title>
<g id="a_node7"><a xlink:href="../../dc/d73/Cartesian_8h.html" target="_top" xlink:title="MathUtils/Cartesian.h">
<polygon fill="none" stroke="#000000" points="1054,-129 1054,-148 1176,-148 1176,-129 1054,-129"/>
<text text-anchor="middle" x="1115" y="-136" font-family="Helvetica,sans-Serif" font-size="10.00" fill="#000000">MathUtils/Cartesian.h</text>
</a>
</g>
</g>
<!-- Node4&#45;&gt;Node6 -->
<g id="edge6" class="edge">
<title>Node4&#45;&gt;Node6</title>
<path fill="none" stroke="#191970" d="M1180.1111,-195.9005C1168.0338,-185.2535 1148.3329,-167.8856 1133.76,-155.0385"/>
<polygon fill="#191970" stroke="#191970" points="1135.6846,-152.0692 1125.8687,-148.0817 1131.0555,-157.3201 1135.6846,-152.0692"/>
</g>
<!-- Node6&#45;&gt;Node5 -->
<g id="edge14" class="edge">
<title>Node6&#45;&gt;Node5</title>
<path fill="none" stroke="#191970" d="M1118.4397,-128.7902C1125.1919,-111.2326 1141.9258,-74.3306 1169,-56 1199.2194,-35.5399 1300.4267,-21.0401 1357.3145,-14.2836"/>
<polygon fill="#191970" stroke="#191970" points="1357.8646,-17.7433 1367.3938,-13.1125 1357.0566,-10.7901 1357.8646,-17.7433"/>
</g>
<!-- Node7 -->
<g id="node8" class="node">
<title>Node7</title>
<polygon fill="none" stroke="#bfbfbf" points="1178,-56.5 1178,-86.5 1342,-86.5 1342,-56.5 1178,-56.5"/>
<text text-anchor="start" x="1186" y="-74.5" font-family="Helvetica,sans-Serif" font-size="10.00" fill="#000000">Math/GenVector/Displacement</text>
<text text-anchor="middle" x="1260" y="-63.5" font-family="Helvetica,sans-Serif" font-size="10.00" fill="#000000">Vector3D.h</text>
</g>
<!-- Node6&#45;&gt;Node7 -->
<g id="edge7" class="edge">
<title>Node6&#45;&gt;Node7</title>
<path fill="none" stroke="#191970" d="M1135.775,-128.9005C1157.21,-118.9961 1191.2319,-103.2756 1218.2556,-90.7888"/>
<polygon fill="#191970" stroke="#191970" points="1219.8806,-93.8936 1227.4902,-86.5218 1216.9443,-87.5392 1219.8806,-93.8936"/>
</g>
<!-- Node8 -->
<g id="node9" class="node">
<title>Node8</title>
<polygon fill="none" stroke="#bfbfbf" points="1360.5,-62 1360.5,-81 1549.5,-81 1549.5,-62 1360.5,-62"/>
<text text-anchor="middle" x="1455" y="-69" font-family="Helvetica,sans-Serif" font-size="10.00" fill="#000000">Math/GenVector/PositionVector3D.h</text>
</g>
<!-- Node6&#45;&gt;Node8 -->
<g id="edge8" class="edge">
<title>Node6&#45;&gt;Node8</title>
<path fill="none" stroke="#191970" d="M1163.3526,-128.9717C1224.823,-116.8584 1330.8548,-95.9639 1396.7241,-82.9838"/>
<polygon fill="#191970" stroke="#191970" points="1397.4046,-86.4171 1406.5392,-81.0496 1396.0512,-79.5491 1397.4046,-86.4171"/>
</g>
<!-- Node9 -->
<g id="node10" class="node">
<title>Node9</title>
<polygon fill="none" stroke="#bfbfbf" points="94,-62 94,-81 254,-81 254,-62 94,-62"/>
<text text-anchor="middle" x="174" y="-69" font-family="Helvetica,sans-Serif" font-size="10.00" fill="#000000">Math/GenVector/Rotation3D.h</text>
</g>
<!-- Node6&#45;&gt;Node9 -->
<g id="edge9" class="edge">
<title>Node6&#45;&gt;Node9</title>
<path fill="none" stroke="#191970" d="M1053.8393,-137.1534C913.578,-133.5521 558.1037,-121.5061 263,-87 253.186,-85.8525 242.8122,-84.331 232.7487,-82.6892"/>
<polygon fill="#191970" stroke="#191970" points="233.2632,-79.2266 222.8207,-81.0166 232.1003,-86.1294 233.2632,-79.2266"/>
</g>
<!-- Node10 -->
<g id="node11" class="node">
<title>Node10</title>
<polygon fill="none" stroke="#bfbfbf" points="272,-62 272,-81 440,-81 440,-62 272,-62"/>
<text text-anchor="middle" x="356" y="-69" font-family="Helvetica,sans-Serif" font-size="10.00" fill="#000000">Math/GenVector/Transform3D.h</text>
</g>
<!-- Node6&#45;&gt;Node10 -->
<g id="edge10" class="edge">
<title>Node6&#45;&gt;Node10</title>
<path fill="none" stroke="#191970" d="M1053.7596,-135.5699C936.2042,-129.5458 670.8938,-114.0173 449,-87 439.129,-85.7981 428.7057,-84.2938 418.5481,-82.6983"/>
<polygon fill="#191970" stroke="#191970" points="418.939,-79.2162 408.5094,-81.0802 417.825,-86.127 418.939,-79.2162"/>
</g>
<!-- Node11 -->
<g id="node12" class="node">
<title>Node11</title>
<polygon fill="none" stroke="#bfbfbf" points="458.5,-62 458.5,-81 631.5,-81 631.5,-62 458.5,-62"/>
<text text-anchor="middle" x="545" y="-69" font-family="Helvetica,sans-Serif" font-size="10.00" fill="#000000">Math/GenVector/Translation3D.h</text>
</g>
<!-- Node6&#45;&gt;Node11 -->
<g id="edge11" class="edge">
<title>Node6&#45;&gt;Node11</title>
<path fill="none" stroke="#191970" d="M1053.8948,-132.8829C963.4947,-124.3414 788.8631,-106.9558 641,-87 631.2125,-85.6791 620.8851,-84.1524 610.7757,-82.5831"/>
<polygon fill="#191970" stroke="#191970" points="611.19,-79.1053 600.767,-81.0056 610.1001,-86.0199 611.19,-79.1053"/>
</g>
<!-- Node12 -->
<g id="node13" class="node">
<title>Node12</title>
<polygon fill="none" stroke="#bfbfbf" points="650,-56.5 650,-86.5 814,-86.5 814,-56.5 650,-56.5"/>
<text text-anchor="start" x="658" y="-74.5" font-family="Helvetica,sans-Serif" font-size="10.00" fill="#000000">Math/GenVector/Displacement</text>
<text text-anchor="middle" x="732" y="-63.5" font-family="Helvetica,sans-Serif" font-size="10.00" fill="#000000">Vector2D.h</text>
</g>
<!-- Node6&#45;&gt;Node12 -->
<g id="edge12" class="edge">
<title>Node6&#45;&gt;Node12</title>
<path fill="none" stroke="#191970" d="M1060.5322,-128.9717C999.0903,-118.2234 898.1267,-100.5613 824.3161,-87.6493"/>
<polygon fill="#191970" stroke="#191970" points="824.5418,-84.1357 814.0883,-85.8601 823.3355,-91.031 824.5418,-84.1357"/>
</g>
<!-- Node13 -->
<g id="node14" class="node">
<title>Node13</title>
<polygon fill="none" stroke="#bfbfbf" points="832.5,-62 832.5,-81 1021.5,-81 1021.5,-62 832.5,-62"/>
<text text-anchor="middle" x="927" y="-69" font-family="Helvetica,sans-Serif" font-size="10.00" fill="#000000">Math/GenVector/PositionVector2D.h</text>
</g>
<!-- Node6&#45;&gt;Node13 -->
<g id="edge13" class="edge">
<title>Node6&#45;&gt;Node13</title>
<path fill="none" stroke="#191970" d="M1088.0642,-128.9005C1055.3967,-117.2584 1000.1812,-97.5805 963.6575,-84.5641"/>
<polygon fill="#191970" stroke="#191970" points="964.4805,-81.1418 953.8858,-81.0817 962.1306,-87.7356 964.4805,-81.1418"/>
</g>
<!-- Node14 -->
<g id="node15" class="node">
<title>Node14</title>
<polygon fill="none" stroke="#bfbfbf" points="1040,-62 1040,-81 1122,-81 1122,-62 1040,-62"/>
<text text-anchor="middle" x="1081" y="-69" font-family="Helvetica,sans-Serif" font-size="10.00" fill="#000000">TGeoMatrix.h</text>
</g>
<!-- Node6&#45;&gt;Node14 -->
<g id="edge15" class="edge">
<title>Node6&#45;&gt;Node14</title>
<path fill="none" stroke="#191970" d="M1110.1286,-128.9005C1105.0286,-118.8505 1096.8898,-102.8122 1090.51,-90.2403"/>
<polygon fill="#191970" stroke="#191970" points="1093.5088,-88.4153 1085.8623,-81.0817 1087.2666,-91.583 1093.5088,-88.4153"/>
</g>
<!-- Node15 -->
<g id="node16" class="node">
<title>Node15</title>
<polygon fill="none" stroke="#bfbfbf" points="1567.5,-62 1567.5,-81 1616.5,-81 1616.5,-62 1567.5,-62"/>
<text text-anchor="middle" x="1592" y="-69" font-family="Helvetica,sans-Serif" font-size="10.00" fill="#000000">iosfwd</text>
</g>
<!-- Node6&#45;&gt;Node15 -->
<g id="edge16" class="edge">
<title>Node6&#45;&gt;Node15</title>
<path fill="none" stroke="#191970" d="M1176.2394,-133.8559C1280.6263,-125.5296 1488.5625,-107.0484 1559,-87 1560.9177,-86.4542 1562.8631,-85.808 1564.8003,-85.0944"/>
<polygon fill="#191970" stroke="#191970" points="1566.3926,-88.2217 1574.2527,-81.1176 1563.6779,-81.7695 1566.3926,-88.2217"/>
</g>
<!-- Node16&#45;&gt;Node3 -->
<g id="edge25" class="edge">
<title>Node16&#45;&gt;Node3</title>
<path fill="none" stroke="#191970" d="M1411.6448,-198.7389C1375.6718,-195.7309 1332.1546,-192.3466 1293,-190 795.4922,-160.183 187.633,-142.9777 48.3653,-139.2643"/>
<polygon fill="#191970" stroke="#191970" points="48.1824,-135.7583 38.0932,-138.9923 47.997,-142.7559 48.1824,-135.7583"/>
</g>
<!-- Node16&#45;&gt;Node15 -->
<g id="edge26" class="edge">
<title>Node16&#45;&gt;Node15</title>
<path fill="none" stroke="#191970" d="M1488.0476,-190.3649C1488.8249,-172.6336 1492.4422,-143.1262 1507,-123 1514.4875,-112.6486 1541.7549,-97.0402 1563.4131,-85.7204"/>
<polygon fill="#191970" stroke="#191970" points="1565.2849,-88.6936 1572.5774,-81.0078 1562.0837,-82.4685 1565.2849,-88.6936"/>
</g>
<!-- Node17 -->
<g id="node18" class="node">
<title>Node17</title>
<g id="a_node18"><a xlink:href="../../de/dc1/ClusterPattern_8h.html" target="_top" xlink:title="DataFormatsITSMFT/Cluster\lPattern.h">
<polygon fill="none" stroke="#000000" points="1516,-123.5 1516,-153.5 1668,-153.5 1668,-123.5 1516,-123.5"/>
<text text-anchor="start" x="1524" y="-141.5" font-family="Helvetica,sans-Serif" font-size="10.00" fill="#000000">DataFormatsITSMFT/Cluster</text>
<text text-anchor="middle" x="1592" y="-130.5" font-family="Helvetica,sans-Serif" font-size="10.00" fill="#000000">Pattern.h</text>
</a>
</g>
</g>
<!-- Node16&#45;&gt;Node17 -->
<g id="edge18" class="edge">
<title>Node16&#45;&gt;Node17</title>
<path fill="none" stroke="#191970" d="M1511.3396,-190.4639C1525.5574,-181.3044 1543.9323,-169.4667 1559.5522,-159.4038"/>
<polygon fill="#191970" stroke="#191970" points="1561.8674,-162.0758 1568.3784,-153.7177 1558.0764,-156.1912 1561.8674,-162.0758"/>
</g>
<!-- Node17&#45;&gt;Node5 -->
<g id="edge19" class="edge">
<title>Node17&#45;&gt;Node5</title>
<path fill="none" stroke="#191970" d="M1606.8594,-123.409C1622.4585,-105.7202 1642.5898,-76.2536 1626,-56 1602.5475,-27.368 1496.1086,-16.1799 1436.9538,-12.1165"/>
<polygon fill="#191970" stroke="#191970" points="1437.0441,-8.6151 1426.8382,-11.4595 1436.5902,-15.6004 1437.0441,-8.6151"/>
</g>
<!-- Node17&#45;&gt;Node15 -->
<g id="edge21" class="edge">
<title>Node17&#45;&gt;Node15</title>
<path fill="none" stroke="#191970" d="M1592,-123.2967C1592,-113.7699 1592,-101.3954 1592,-91.1306"/>
<polygon fill="#191970" stroke="#191970" points="1595.5001,-91.0549 1592,-81.055 1588.5001,-91.055 1595.5001,-91.0549"/>
</g>
<!-- Node18 -->
<g id="node19" class="node">
<title>Node18</title>
<polygon fill="none" stroke="#bfbfbf" points="1996,-62 1996,-81 2038,-81 2038,-62 1996,-62"/>
<text text-anchor="middle" x="2017" y="-69" font-family="Helvetica,sans-Serif" font-size="10.00" fill="#000000">array</text>
</g>
<!-- Node17&#45;&gt;Node18 -->
<g id="edge20" class="edge">
<title>Node17&#45;&gt;Node18</title>
<path fill="none" stroke="#191970" d="M1668.314,-127.9782C1738.117,-118.1397 1844.1764,-102.6524 1936,-87 1952.5135,-84.1851 1970.8517,-80.7056 1985.8974,-77.7569"/>
<polygon fill="#191970" stroke="#191970" points="1986.593,-81.1872 1995.7248,-75.8151 1985.236,-74.32 1986.593,-81.1872"/>
</g>
<!-- Node19 -->
<g id="node20" class="node">
<title>Node19</title>
<polygon fill="none" stroke="#bfbfbf" points="1673,-62 1673,-81 1721,-81 1721,-62 1673,-62"/>
<text text-anchor="middle" x="1697" y="-69" font-family="Helvetica,sans-Serif" font-size="10.00" fill="#000000">gsl/gsl</text>
</g>
<!-- Node17&#45;&gt;Node19 -->
<g id="edge22" class="edge">
<title>Node17&#45;&gt;Node19</title>
<path fill="none" stroke="#191970" d="M1615.564,-123.4639C1632.7056,-112.526 1655.8321,-97.769 1673.0602,-86.7759"/>
<polygon fill="#191970" stroke="#191970" points="1675.4018,-89.4336 1681.9491,-81.1039 1671.6364,-83.5326 1675.4018,-89.4336"/>
</g>
<!-- Node20 -->
<g id="node21" class="node">
<title>Node20</title>
<g id="a_node21"><a xlink:href="../../df/de4/CompCluster_8h.html" target="_top" xlink:title="Definition of the ITSMFT compact cluster. ">
<polygon fill="none" stroke="#000000" points="1739,-62 1739,-81 1927,-81 1927,-62 1739,-62"/>
<text text-anchor="middle" x="1833" y="-69" font-family="Helvetica,sans-Serif" font-size="10.00" fill="#000000">DataFormatsITSMFT/CompCluster.h</text>
</a>
</g>
</g>
<!-- Node17&#45;&gt;Node20 -->
<g id="edge23" class="edge">
<title>Node17&#45;&gt;Node20</title>
<path fill="none" stroke="#191970" d="M1646.0851,-123.4639C1689.1998,-111.4776 1748.8111,-94.9052 1789.0252,-83.7254"/>
<polygon fill="#191970" stroke="#191970" points="1790.1122,-87.056 1798.8093,-81.0053 1788.2372,-80.3117 1790.1122,-87.056"/>
</g>
<!-- Node20&#45;&gt;Node5 -->
<g id="edge24" class="edge">
<title>Node20&#45;&gt;Node5</title>
<path fill="none" stroke="#191970" d="M1770.6526,-61.9937C1757.2466,-59.9843 1743.155,-57.8983 1730,-56 1624.3408,-40.7527 1499.6625,-23.8095 1437.0879,-15.3783"/>
<polygon fill="#191970" stroke="#191970" points="1437.2447,-11.8679 1426.8671,-14.0025 1436.3108,-18.8054 1437.2447,-11.8679"/>
</g>
<!-- Node21&#45;&gt;Node6 -->
<g id="edge35" class="edge">
<title>Node21&#45;&gt;Node6</title>
<path fill="none" stroke="#191970" d="M1668.3817,-196.9804C1543.4527,-183.7781 1305.1249,-158.5921 1186.193,-146.0235"/>
<polygon fill="#191970" stroke="#191970" points="1186.4164,-142.5278 1176.1039,-144.9574 1185.6807,-149.489 1186.4164,-142.5278"/>
</g>
<!-- Node21&#45;&gt;Node17 -->
<g id="edge28" class="edge">
<title>Node21&#45;&gt;Node17</title>
<path fill="none" stroke="#191970" d="M1713.7661,-190.4639C1691.0194,-180.7567 1661.2241,-168.0415 1636.8007,-157.6188"/>
<polygon fill="#191970" stroke="#191970" points="1637.9588,-154.3077 1627.3875,-153.6017 1635.2113,-160.7459 1637.9588,-154.3077"/>
</g>
<!-- Node21&#45;&gt;Node20 -->
<g id="edge36" class="edge">
<title>Node21&#45;&gt;Node20</title>
<path fill="none" stroke="#191970" d="M1734.7036,-190.3425C1720.2556,-173.1101 1701.9234,-144.576 1716,-123 1728.4615,-103.8995 1749.7711,-91.835 1770.8173,-84.2356"/>
<polygon fill="#191970" stroke="#191970" points="1772.0441,-87.5164 1780.436,-81.049 1769.8426,-80.8715 1772.0441,-87.5164"/>
</g>
<!-- Node22 -->
<g id="node23" class="node">
<title>Node22</title>
<g id="a_node23"><a xlink:href="../../dd/da4/Logger_8h.html" target="_top" xlink:title="Framework/Logger.h">
<polygon fill="none" stroke="#000000" points="2103.5,-129 2103.5,-148 2218.5,-148 2218.5,-129 2103.5,-129"/>
<text text-anchor="middle" x="2161" y="-136" font-family="Helvetica,sans-Serif" font-size="10.00" fill="#000000">Framework/Logger.h</text>
</a>
</g>
</g>
<!-- Node21&#45;&gt;Node22 -->
<g id="edge29" class="edge">
<title>Node21&#45;&gt;Node22</title>
<path fill="none" stroke="#191970" d="M1829.7199,-195.4124C1900.0476,-186.1648 2004.6343,-171.3054 2095,-154 2100.7764,-152.8938 2106.8123,-151.6289 2112.7865,-150.3094"/>
<polygon fill="#191970" stroke="#191970" points="2113.747,-153.6805 2122.7253,-148.0556 2112.1989,-146.8538 2113.747,-153.6805"/>
</g>
<!-- Node24 -->
<g id="node25" class="node">
<title>Node24</title>
<polygon fill="none" stroke="#bfbfbf" points="1791.5,-129 1791.5,-148 1846.5,-148 1846.5,-129 1791.5,-129"/>
<text text-anchor="middle" x="1819" y="-136" font-family="Helvetica,sans-Serif" font-size="10.00" fill="#000000">fstream</text>
</g>
<!-- Node21&#45;&gt;Node24 -->
<g id="edge31" class="edge">
<title>Node21&#45;&gt;Node24</title>
<path fill="none" stroke="#191970" d="M1764.8841,-190.2967C1775.7904,-179.8578 1790.269,-165.9997 1801.5056,-155.2446"/>
<polygon fill="#191970" stroke="#191970" points="1804.2131,-157.498 1809.0172,-148.055 1799.3729,-152.4411 1804.2131,-157.498"/>
</g>
<!-- Node25 -->
<g id="node26" class="node">
<title>Node25</title>
<polygon fill="none" stroke="#bfbfbf" points="1865,-129 1865,-148 1909,-148 1909,-129 1865,-129"/>
<text text-anchor="middle" x="1887" y="-136" font-family="Helvetica,sans-Serif" font-size="10.00" fill="#000000">string</text>
</g>
<!-- Node21&#45;&gt;Node25 -->
<g id="edge32" class="edge">
<title>Node21&#45;&gt;Node25</title>
<path fill="none" stroke="#191970" d="M1780.8983,-190.3016C1802.2034,-180.1125 1830.8284,-166.3497 1856,-154 1856.9724,-153.5229 1857.9613,-153.0363 1858.9595,-152.5439"/>
<polygon fill="#191970" stroke="#191970" points="1860.6039,-155.6352 1868.0051,-148.054 1857.4916,-149.3651 1860.6039,-155.6352"/>
</g>
<!-- Node26 -->
<g id="node27" class="node">
<title>Node26</title>
<polygon fill="none" stroke="#bfbfbf" points="1927.5,-129 1927.5,-148 2020.5,-148 2020.5,-129 1927.5,-129"/>
<text text-anchor="middle" x="1974" y="-136" font-family="Helvetica,sans-Serif" font-size="10.00" fill="#000000">unordered_map</text>
</g>
<!-- Node21&#45;&gt;Node26 -->
<g id="edge33" class="edge">
<title>Node21&#45;&gt;Node26</title>
<path fill="none" stroke="#191970" d="M1799.4944,-190.4639C1839.5762,-178.5284 1894.929,-162.0456 1932.4664,-150.8678"/>
<polygon fill="#191970" stroke="#191970" points="1933.4941,-154.2137 1942.0793,-148.0053 1931.4963,-147.5049 1933.4941,-154.2137"/>
</g>
<!-- Node27 -->
<g id="node28" class="node">
<title>Node27</title>
<polygon fill="none" stroke="#bfbfbf" points="2038.5,-129 2038.5,-148 2085.5,-148 2085.5,-129 2038.5,-129"/>
<text text-anchor="middle" x="2062" y="-136" font-family="Helvetica,sans-Serif" font-size="10.00" fill="#000000">vector</text>
</g>
<!-- Node21&#45;&gt;Node27 -->
<g id="edge34" class="edge">
<title>Node21&#45;&gt;Node27</title>
<path fill="none" stroke="#191970" d="M1829.7612,-196.5762C1886.7091,-188.872 1964.2411,-175.5123 2030,-154 2031.6538,-153.459 2033.3313,-152.8492 2035.0073,-152.1923"/>
<polygon fill="#191970" stroke="#191970" points="2036.6619,-155.2886 2044.4139,-148.0666 2033.8502,-148.8781 2036.6619,-155.2886"/>
</g>
<!-- Node28 -->
<g id="node29" class="node">
<title>Node28</title>
<polygon fill="none" stroke="#bfbfbf" points="1724.5,-129 1724.5,-148 1773.5,-148 1773.5,-129 1724.5,-129"/>
<text text-anchor="middle" x="1749" y="-136" font-family="Helvetica,sans-Serif" font-size="10.00" fill="#000000">TH1F.h</text>
</g>
<!-- Node21&#45;&gt;Node28 -->
<g id="edge37" class="edge">
<title>Node21&#45;&gt;Node28</title>
<path fill="none" stroke="#191970" d="M1749,-190.2967C1749,-180.7699 1749,-168.3954 1749,-158.1306"/>
<polygon fill="#191970" stroke="#191970" points="1752.5001,-158.0549 1749,-148.055 1745.5001,-158.055 1752.5001,-158.0549"/>
</g>
<!-- Node23 -->
<g id="node24" class="node">
<title>Node23</title>
<polygon fill="none" stroke="#bfbfbf" points="2107,-62 2107,-81 2215,-81 2215,-62 2107,-62"/>
<text text-anchor="middle" x="2161" y="-69" font-family="Helvetica,sans-Serif" font-size="10.00" fill="#000000">fairlogger/Logger.h</text>
</g>
<!-- Node22&#45;&gt;Node23 -->
<g id="edge30" class="edge">
<title>Node22&#45;&gt;Node23</title>
<path fill="none" stroke="#191970" d="M2161,-128.9005C2161,-119.149 2161,-103.7597 2161,-91.3695"/>
<polygon fill="#191970" stroke="#191970" points="2164.5001,-91.0816 2161,-81.0817 2157.5001,-91.0817 2164.5001,-91.0816"/>
</g>
<!-- Node29&#45;&gt;Node16 -->
<g id="edge40" class="edge">
<title>Node29&#45;&gt;Node16</title>
<path fill="none" stroke="#191970" d="M1574.865,-257.4639C1559.4105,-248.2188 1539.395,-236.2452 1522.4729,-226.1222"/>
<polygon fill="#191970" stroke="#191970" points="1523.8171,-222.8479 1513.4386,-220.7177 1520.2235,-228.8551 1523.8171,-222.8479"/>
</g>
<!-- Node29&#45;&gt;Node18 -->
<g id="edge39" class="edge">
<title>Node29&#45;&gt;Node18</title>
<path fill="none" stroke="#191970" d="M1661.5482,-258.9369C1664.7428,-258.2725 1667.908,-257.6232 1671,-257 1794.3947,-232.1285 2147.4902,-250.7626 2228,-154 2236.8122,-143.4089 2236.5093,-133.836 2228,-123 2222.382,-115.8459 2105.3219,-90.2104 2048.036,-78.0241"/>
<polygon fill="#191970" stroke="#191970" points="2048.5839,-74.5625 2038.0754,-75.9126 2047.1322,-81.4103 2048.5839,-74.5625"/>
</g>
<!-- Node29&#45;&gt;Node21 -->
<g id="edge41" class="edge">
<title>Node29&#45;&gt;Node21</title>
<path fill="none" stroke="#191970" d="M1633.4385,-257.4639C1654.9307,-247.7996 1683.0531,-235.154 1706.1742,-224.7572"/>
<polygon fill="#191970" stroke="#191970" points="1707.7307,-227.895 1715.4156,-220.6017 1704.8599,-221.5107 1707.7307,-227.895"/>
</g>
</g>
</svg>
