<?xml version="1.0" encoding="UTF-8" standalone="no"?>
<!DOCTYPE svg PUBLIC "-//W3C//DTD SVG 1.1//EN"
 "http://www.w3.org/Graphics/SVG/1.1/DTD/svg11.dtd">
<!-- Generated by graphviz version 2.40.1 (20161225.0304)
 -->
<!-- Title: /home/travis/build/AliceO2Group/AliceO2/Common/Field/src/MagFieldFast.cxx Pages: 1 -->
<svg width="1571pt" height="229pt"
 viewBox="0.00 0.00 1571.00 229.00" xmlns="http://www.w3.org/2000/svg" xmlns:xlink="http://www.w3.org/1999/xlink">
<g id="graph0" class="graph" transform="scale(1 1) rotate(0) translate(4 225)">
<title>/home/travis/build/AliceO2Group/AliceO2/Common/Field/src/MagFieldFast.cxx</title>
<!-- Node0 -->
<g id="node1" class="node">
<title>Node0</title>
<polygon fill="#bfbfbf" stroke="#000000" points="674.5,-179.5 674.5,-220.5 866.5,-220.5 866.5,-179.5 674.5,-179.5"/>
<text text-anchor="start" x="682.5" y="-208.5" font-family="Helvetica,sans-Serif" font-size="10.00" fill="#000000">/home/travis/build</text>
<text text-anchor="start" x="682.5" y="-197.5" font-family="Helvetica,sans-Serif" font-size="10.00" fill="#000000">/AliceO2Group/AliceO2</text>
<text text-anchor="middle" x="770.5" y="-186.5" font-family="Helvetica,sans-Serif" font-size="10.00" fill="#000000">/Common/Field/src/MagFieldFast.cxx</text>
</g>
<!-- Node1 -->
<g id="node2" class="node">
<title>Node1</title>
<g id="a_node2"><a xlink:href="../../da/df4/MagFieldFast_8h.html" target="_top" xlink:title="Definition of the fast magnetic field parametrization MagFieldFast. ">
<polygon fill="none" stroke="#000000" points="435,-123.5 435,-142.5 548,-142.5 548,-123.5 435,-123.5"/>
<text text-anchor="middle" x="491.5" y="-130.5" font-family="Helvetica,sans-Serif" font-size="10.00" fill="#000000">Field/MagFieldFast.h</text>
</a>
</g>
</g>
<!-- Node0&#45;&gt;Node1 -->
<g id="edge1" class="edge">
<title>Node0&#45;&gt;Node1</title>
<path fill="none" stroke="#191970" d="M684.8947,-179.4425C637.641,-168.0948 580.6378,-154.4058 540.8068,-144.8407"/>
<polygon fill="#191970" stroke="#191970" points="541.6076,-141.4336 531.0667,-142.5017 539.973,-148.2401 541.6076,-141.4336"/>
</g>
<!-- Node14 -->
<g id="node15" class="node">
<title>Node14</title>
<polygon fill="none" stroke="#bfbfbf" points="566,-123.5 566,-142.5 641,-142.5 641,-123.5 566,-123.5"/>
<text text-anchor="middle" x="603.5" y="-130.5" font-family="Helvetica,sans-Serif" font-size="10.00" fill="#000000">FairLogger.h</text>
</g>
<!-- Node0&#45;&gt;Node14 -->
<g id="edge15" class="edge">
<title>Node0&#45;&gt;Node14</title>
<path fill="none" stroke="#191970" d="M719.0318,-179.3511C692.3652,-168.6525 660.5611,-155.8928 637.0794,-146.472"/>
<polygon fill="#191970" stroke="#191970" points="638.1487,-143.1299 627.5645,-142.6546 635.5422,-149.6265 638.1487,-143.1299"/>
</g>
<!-- Node15 -->
<g id="node16" class="node">
<title>Node15</title>
<polygon fill="none" stroke="#bfbfbf" points="658.5,-123.5 658.5,-142.5 718.5,-142.5 718.5,-123.5 658.5,-123.5"/>
<text text-anchor="middle" x="688.5" y="-130.5" font-family="Helvetica,sans-Serif" font-size="10.00" fill="#000000">TString.h</text>
</g>
<!-- Node0&#45;&gt;Node15 -->
<g id="edge16" class="edge">
<title>Node0&#45;&gt;Node15</title>
<path fill="none" stroke="#191970" d="M745.0042,-179.168C733.1654,-169.4949 719.3041,-158.1692 708.2733,-149.1562"/>
<polygon fill="#191970" stroke="#191970" points="710.4285,-146.3974 700.4701,-142.7805 705.9994,-151.8181 710.4285,-146.3974"/>
</g>
<!-- Node16 -->
<g id="node17" class="node">
<title>Node16</title>
<polygon fill="none" stroke="#bfbfbf" points="736.5,-123.5 736.5,-142.5 804.5,-142.5 804.5,-123.5 736.5,-123.5"/>
<text text-anchor="middle" x="770.5" y="-130.5" font-family="Helvetica,sans-Serif" font-size="10.00" fill="#000000">TSystem.h</text>
</g>
<!-- Node0&#45;&gt;Node16 -->
<g id="edge17" class="edge">
<title>Node0&#45;&gt;Node16</title>
<path fill="none" stroke="#191970" d="M770.5,-179.168C770.5,-170.8226 770.5,-161.2471 770.5,-152.9879"/>
<polygon fill="#191970" stroke="#191970" points="774.0001,-152.7804 770.5,-142.7805 767.0001,-152.7805 774.0001,-152.7804"/>
</g>
<!-- Node17 -->
<g id="node18" class="node">
<title>Node17</title>
<polygon fill="none" stroke="#bfbfbf" points="823,-123.5 823,-142.5 870,-142.5 870,-123.5 823,-123.5"/>
<text text-anchor="middle" x="846.5" y="-130.5" font-family="Helvetica,sans-Serif" font-size="10.00" fill="#000000">cmath</text>
</g>
<!-- Node0&#45;&gt;Node17 -->
<g id="edge18" class="edge">
<title>Node0&#45;&gt;Node17</title>
<path fill="none" stroke="#191970" d="M794.1303,-179.168C804.9952,-169.5897 817.6982,-158.3911 827.8721,-149.422"/>
<polygon fill="#191970" stroke="#191970" points="830.219,-152.0189 835.4057,-142.7805 825.5899,-146.768 830.219,-152.0189"/>
</g>
<!-- Node18 -->
<g id="node19" class="node">
<title>Node18</title>
<polygon fill="none" stroke="#bfbfbf" points="888,-123.5 888,-142.5 943,-142.5 943,-123.5 888,-123.5"/>
<text text-anchor="middle" x="915.5" y="-130.5" font-family="Helvetica,sans-Serif" font-size="10.00" fill="#000000">fstream</text>
</g>
<!-- Node0&#45;&gt;Node18 -->
<g id="edge19" class="edge">
<title>Node0&#45;&gt;Node18</title>
<path fill="none" stroke="#191970" d="M815.1879,-179.3511C838.0315,-168.7958 865.2171,-156.2342 885.5212,-146.8523"/>
<polygon fill="#191970" stroke="#191970" points="886.996,-150.0265 894.6056,-142.6546 884.0598,-143.672 886.996,-150.0265"/>
</g>
<!-- Node19 -->
<g id="node20" class="node">
<title>Node19</title>
<polygon fill="none" stroke="#bfbfbf" points="961.5,-123.5 961.5,-142.5 1017.5,-142.5 1017.5,-123.5 961.5,-123.5"/>
<text text-anchor="middle" x="989.5" y="-130.5" font-family="Helvetica,sans-Serif" font-size="10.00" fill="#000000">sstream</text>
</g>
<!-- Node0&#45;&gt;Node19 -->
<g id="edge20" class="edge">
<title>Node0&#45;&gt;Node19</title>
<path fill="none" stroke="#191970" d="M837.6955,-179.4425C875.1359,-167.9881 920.3736,-154.1482 951.675,-144.572"/>
<polygon fill="#191970" stroke="#191970" points="952.782,-147.8936 961.3205,-141.6211 950.7341,-141.1998 952.782,-147.8936"/>
</g>
<!-- Node2 -->
<g id="node3" class="node">
<title>Node2</title>
<polygon fill="none" stroke="#bfbfbf" points="0,-6 0,-25 59,-25 59,-6 0,-6"/>
<text text-anchor="middle" x="29.5" y="-13" font-family="Helvetica,sans-Serif" font-size="10.00" fill="#000000">Rtypes.h</text>
</g>
<!-- Node1&#45;&gt;Node2 -->
<g id="edge2" class="edge">
<title>Node1&#45;&gt;Node2</title>
<path fill="none" stroke="#191970" d="M442.0285,-123.4454C362.4152,-107.5416 201.3399,-73.1799 68.5,-31 66.2149,-30.2744 63.8728,-29.4793 61.5263,-28.6444"/>
<polygon fill="#191970" stroke="#191970" points="62.5808,-25.3019 51.9886,-25.0656 60.1215,-31.8557 62.5808,-25.3019"/>
</g>
<!-- Node3 -->
<g id="node4" class="node">
<title>Node3</title>
<polygon fill="none" stroke="#bfbfbf" points="469.5,-67.5 469.5,-86.5 513.5,-86.5 513.5,-67.5 469.5,-67.5"/>
<text text-anchor="middle" x="491.5" y="-74.5" font-family="Helvetica,sans-Serif" font-size="10.00" fill="#000000">string</text>
</g>
<!-- Node1&#45;&gt;Node3 -->
<g id="edge3" class="edge">
<title>Node1&#45;&gt;Node3</title>
<path fill="none" stroke="#191970" d="M491.5,-123.2455C491.5,-115.9382 491.5,-105.6944 491.5,-96.7046"/>
<polygon fill="#191970" stroke="#191970" points="495.0001,-96.6426 491.5,-86.6427 488.0001,-96.6427 495.0001,-96.6426"/>
</g>
<!-- Node4 -->
<g id="node5" class="node">
<title>Node4</title>
<g id="a_node5"><a xlink:href="../../dc/d73/Cartesian_8h.html" target="_top" xlink:title="MathUtils/Cartesian.h">
<polygon fill="none" stroke="#000000" points="668.5,-67.5 668.5,-86.5 790.5,-86.5 790.5,-67.5 668.5,-67.5"/>
<text text-anchor="middle" x="729.5" y="-74.5" font-family="Helvetica,sans-Serif" font-size="10.00" fill="#000000">MathUtils/Cartesian.h</text>
</a>
</g>
</g>
<!-- Node1&#45;&gt;Node4 -->
<g id="edge4" class="edge">
<title>Node1&#45;&gt;Node4</title>
<path fill="none" stroke="#191970" d="M532.1432,-123.4369C572.7895,-113.8731 635.3913,-99.1432 679.1587,-88.845"/>
<polygon fill="#191970" stroke="#191970" points="680.0919,-92.2211 689.0244,-86.5237 678.4886,-85.4072 680.0919,-92.2211"/>
</g>
<!-- Node4&#45;&gt;Node2 -->
<g id="edge12" class="edge">
<title>Node4&#45;&gt;Node2</title>
<path fill="none" stroke="#191970" d="M668.3746,-73.8237C515.7452,-65.7392 126.0188,-44.0973 68.5,-31 65.6361,-30.3479 62.7072,-29.5168 59.8046,-28.5793"/>
<polygon fill="#191970" stroke="#191970" points="60.7648,-25.2046 50.1706,-25.0871 58.3793,-31.7856 60.7648,-25.2046"/>
</g>
<!-- Node5 -->
<g id="node6" class="node">
<title>Node5</title>
<polygon fill="none" stroke="#bfbfbf" points="77.5,-.5 77.5,-30.5 241.5,-30.5 241.5,-.5 77.5,-.5"/>
<text text-anchor="start" x="85.5" y="-18.5" font-family="Helvetica,sans-Serif" font-size="10.00" fill="#000000">Math/GenVector/Displacement</text>
<text text-anchor="middle" x="159.5" y="-7.5" font-family="Helvetica,sans-Serif" font-size="10.00" fill="#000000">Vector3D.h</text>
</g>
<!-- Node4&#45;&gt;Node5 -->
<g id="edge5" class="edge">
<title>Node4&#45;&gt;Node5</title>
<path fill="none" stroke="#191970" d="M668.4689,-72.5733C579.245,-65.7845 407.7548,-51.5374 252.0323,-31.1467"/>
<polygon fill="#191970" stroke="#191970" points="252.1713,-27.6347 241.799,-29.7947 251.2544,-34.5744 252.1713,-27.6347"/>
</g>
<!-- Node6 -->
<g id="node7" class="node">
<title>Node6</title>
<polygon fill="none" stroke="#bfbfbf" points="260,-6 260,-25 449,-25 449,-6 260,-6"/>
<text text-anchor="middle" x="354.5" y="-13" font-family="Helvetica,sans-Serif" font-size="10.00" fill="#000000">Math/GenVector/PositionVector3D.h</text>
</g>
<!-- Node4&#45;&gt;Node6 -->
<g id="edge6" class="edge">
<title>Node4&#45;&gt;Node6</title>
<path fill="none" stroke="#191970" d="M671.3177,-67.4581C604.1602,-56.4443 493.8479,-38.3531 422.7117,-26.6867"/>
<polygon fill="#191970" stroke="#191970" points="422.9449,-23.1783 412.5102,-25.0137 421.812,-30.086 422.9449,-23.1783"/>
</g>
<!-- Node7 -->
<g id="node8" class="node">
<title>Node7</title>
<polygon fill="none" stroke="#bfbfbf" points="467.5,-6 467.5,-25 627.5,-25 627.5,-6 467.5,-6"/>
<text text-anchor="middle" x="547.5" y="-13" font-family="Helvetica,sans-Serif" font-size="10.00" fill="#000000">Math/GenVector/Rotation3D.h</text>
</g>
<!-- Node4&#45;&gt;Node7 -->
<g id="edge7" class="edge">
<title>Node4&#45;&gt;Node7</title>
<path fill="none" stroke="#191970" d="M701.0625,-67.3906C669.9428,-56.8749 619.9036,-39.966 585.4515,-28.3243"/>
<polygon fill="#191970" stroke="#191970" points="586.332,-24.9274 575.7378,-25.0419 584.0911,-31.5591 586.332,-24.9274"/>
</g>
<!-- Node8 -->
<g id="node9" class="node">
<title>Node8</title>
<polygon fill="none" stroke="#bfbfbf" points="645.5,-6 645.5,-25 813.5,-25 813.5,-6 645.5,-6"/>
<text text-anchor="middle" x="729.5" y="-13" font-family="Helvetica,sans-Serif" font-size="10.00" fill="#000000">Math/GenVector/Transform3D.h</text>
</g>
<!-- Node4&#45;&gt;Node8 -->
<g id="edge8" class="edge">
<title>Node4&#45;&gt;Node8</title>
<path fill="none" stroke="#191970" d="M729.5,-67.3906C729.5,-58.8657 729.5,-46.1392 729.5,-35.4235"/>
<polygon fill="#191970" stroke="#191970" points="733.0001,-35.2448 729.5,-25.2449 726.0001,-35.2449 733.0001,-35.2448"/>
</g>
<!-- Node9 -->
<g id="node10" class="node">
<title>Node9</title>
<polygon fill="none" stroke="#bfbfbf" points="832,-6 832,-25 1005,-25 1005,-6 832,-6"/>
<text text-anchor="middle" x="918.5" y="-13" font-family="Helvetica,sans-Serif" font-size="10.00" fill="#000000">Math/GenVector/Translation3D.h</text>
</g>
<!-- Node4&#45;&gt;Node9 -->
<g id="edge9" class="edge">
<title>Node4&#45;&gt;Node9</title>
<path fill="none" stroke="#191970" d="M759.0313,-67.3906C791.4866,-56.8298 843.7581,-39.8208 879.5486,-28.1747"/>
<polygon fill="#191970" stroke="#191970" points="880.7499,-31.4645 889.1761,-25.0419 878.5839,-24.808 880.7499,-31.4645"/>
</g>
<!-- Node10 -->
<g id="node11" class="node">
<title>Node10</title>
<polygon fill="none" stroke="#bfbfbf" points="1023.5,-.5 1023.5,-30.5 1187.5,-30.5 1187.5,-.5 1023.5,-.5"/>
<text text-anchor="start" x="1031.5" y="-18.5" font-family="Helvetica,sans-Serif" font-size="10.00" fill="#000000">Math/GenVector/Displacement</text>
<text text-anchor="middle" x="1105.5" y="-7.5" font-family="Helvetica,sans-Serif" font-size="10.00" fill="#000000">Vector2D.h</text>
</g>
<!-- Node4&#45;&gt;Node10 -->
<g id="edge10" class="edge">
<title>Node4&#45;&gt;Node10</title>
<path fill="none" stroke="#191970" d="M789.5732,-67.4593C845.0705,-58.61 930.0938,-44.9636 1013.2934,-31.193"/>
<polygon fill="#191970" stroke="#191970" points="1013.8723,-34.6449 1023.1655,-29.557 1012.7278,-27.739 1013.8723,-34.6449"/>
</g>
<!-- Node11 -->
<g id="node12" class="node">
<title>Node11</title>
<polygon fill="none" stroke="#bfbfbf" points="1206,-6 1206,-25 1395,-25 1395,-6 1206,-6"/>
<text text-anchor="middle" x="1300.5" y="-13" font-family="Helvetica,sans-Serif" font-size="10.00" fill="#000000">Math/GenVector/PositionVector2D.h</text>
</g>
<!-- Node4&#45;&gt;Node11 -->
<g id="edge11" class="edge">
<title>Node4&#45;&gt;Node11</title>
<path fill="none" stroke="#191970" d="M790.8035,-71.9409C880.1651,-64.3443 1051.3696,-48.9515 1196.5,-31 1207.3192,-29.6618 1218.7501,-28.1044 1229.9186,-26.503"/>
<polygon fill="#191970" stroke="#191970" points="1230.6848,-29.9284 1240.0766,-25.0249 1229.6768,-23.0014 1230.6848,-29.9284"/>
</g>
<!-- Node12 -->
<g id="node13" class="node">
<title>Node12</title>
<polygon fill="none" stroke="#bfbfbf" points="1413.5,-6 1413.5,-25 1495.5,-25 1495.5,-6 1413.5,-6"/>
<text text-anchor="middle" x="1454.5" y="-13" font-family="Helvetica,sans-Serif" font-size="10.00" fill="#000000">TGeoMatrix.h</text>
</g>
<!-- Node4&#45;&gt;Node12 -->
<g id="edge13" class="edge">
<title>Node4&#45;&gt;Node12</title>
<path fill="none" stroke="#191970" d="M790.5657,-74.6579C933.72,-68.8732 1287.6592,-52.7839 1404.5,-31 1408.9419,-30.1718 1413.5445,-29.0807 1418.0776,-27.86"/>
<polygon fill="#191970" stroke="#191970" points="1419.1765,-31.1855 1427.8015,-25.0325 1417.2219,-24.4639 1419.1765,-31.1855"/>
</g>
<!-- Node13 -->
<g id="node14" class="node">
<title>Node13</title>
<polygon fill="none" stroke="#bfbfbf" points="1514,-6 1514,-25 1563,-25 1563,-6 1514,-6"/>
<text text-anchor="middle" x="1538.5" y="-13" font-family="Helvetica,sans-Serif" font-size="10.00" fill="#000000">iosfwd</text>
</g>
<!-- Node4&#45;&gt;Node13 -->
<g id="edge14" class="edge">
<title>Node4&#45;&gt;Node13</title>
<path fill="none" stroke="#191970" d="M790.6473,-76.2605C949.0211,-73.8842 1369.6033,-64.5138 1504.5,-31 1506.6996,-30.4535 1508.9321,-29.7675 1511.1475,-28.9902"/>
<polygon fill="#191970" stroke="#191970" points="1512.6511,-32.1572 1520.596,-25.148 1510.0142,-25.6728 1512.6511,-32.1572"/>
</g>
</g>
</svg>
