<?xml version="1.0" encoding="UTF-8" standalone="no"?>
<!DOCTYPE svg PUBLIC "-//W3C//DTD SVG 1.1//EN"
 "http://www.w3.org/Graphics/SVG/1.1/DTD/svg11.dtd">
<!-- Generated by graphviz version 2.40.1 (20161225.0304)
 -->
<!-- Title: /home/travis/build/AliceO2Group/AliceO2/Detectors/ITSMFT/common/reconstruction/src/LookUp.cxx Pages: 1 -->
<!--zoomable 385 -->
<svg id="main" version="1.1" xmlns="http://www.w3.org/2000/svg" xmlns:xlink="http://www.w3.org/1999/xlink" xml:space="preserve" onload="init(evt)">
<style type="text/css"><![CDATA[
.edge:hover path { stroke: red; }
.edge:hover polygon { stroke: red; fill: red; }
]]></style>
<script type="text/javascript"><![CDATA[
var edges = document.getElementsByTagName('g');
if (edges && edges.length) {
  for (var i=0;i<edges.length;i++) {
    if (edges[i].id.substr(0,4)=='edge') {
      edges[i].setAttribute('class','edge');
    }
  }
}
]]></script>
        <defs>
                <circle id="rim" cx="0" cy="0" r="7"/>
                <circle id="rim2" cx="0" cy="0" r="3.5"/>
                <g id="zoomPlus">
                        <use xlink:href="#rim" fill="#404040">
                                <set attributeName="fill" to="#808080" begin="zoomplus.mouseover" end="zoomplus.mouseout"/>
                        </use>
                        <path d="M-4,0h8M0,-4v8" fill="none" stroke="white" stroke-width="1.5" pointer-events="none"/>
                </g>
                <g id="zoomMin">
                        <use xlink:href="#rim" fill="#404040">
                                <set attributeName="fill" to="#808080" begin="zoomminus.mouseover" end="zoomminus.mouseout"/>
                        </use>
                        <path d="M-4,0h8" fill="none" stroke="white" stroke-width="1.5" pointer-events="none"/>
                </g>
                <g id="dirArrow">
                        <path fill="none" stroke="white" stroke-width="1.5" d="M0,-3.0v7 M-2.5,-0.5L0,-3.0L2.5,-0.5"/>
                </g>
               <g id="resetDef">
                       <use xlink:href="#rim2" fill="#404040">
                               <set attributeName="fill" to="#808080" begin="reset.mouseover" end="reset.mouseout"/>
                       </use>
               </g>
        </defs>

<script type="text/javascript">
var viewWidth = 2028;
var viewHeight = 385;
var sectionId = 'dynsection-0';
</script>
<script xlink:href="../../svgpan.js"/>
<svg id="graph" class="graph">
<g id="viewport">
<title>/home/travis/build/AliceO2Group/AliceO2/Detectors/ITSMFT/common/reconstruction/src/LookUp.cxx</title>
<!-- Node0 -->
<g id="node1" class="node">
<title>Node0</title>
<polygon fill="#bfbfbf" stroke="#000000" points="136.5,-324.5 136.5,-376.5 303.5,-376.5 303.5,-324.5 136.5,-324.5"/>
<text text-anchor="start" x="144.5" y="-364.5" font-family="Helvetica,sans-Serif" font-size="10.00" fill="#000000">/home/travis/build</text>
<text text-anchor="start" x="144.5" y="-353.5" font-family="Helvetica,sans-Serif" font-size="10.00" fill="#000000">/AliceO2Group/AliceO2</text>
<text text-anchor="start" x="144.5" y="-342.5" font-family="Helvetica,sans-Serif" font-size="10.00" fill="#000000">/Detectors/ITSMFT/common</text>
<text text-anchor="middle" x="220" y="-331.5" font-family="Helvetica,sans-Serif" font-size="10.00" fill="#000000">/reconstruction/src/LookUp.cxx</text>
</g>
<!-- Node1 -->
<g id="node2" class="node">
<title>Node1</title>
<g id="a_node2"><a xlink:href="../../df/ddf/LookUp_8h.html" target="_top" xlink:title="Definition of the LookUp class. ">
<polygon fill="none" stroke="#000000" points="158.5,-257.5 158.5,-287.5 281.5,-287.5 281.5,-257.5 158.5,-257.5"/>
<text text-anchor="start" x="166.5" y="-275.5" font-family="Helvetica,sans-Serif" font-size="10.00" fill="#000000">ITSMFTReconstruction</text>
<text text-anchor="middle" x="220" y="-264.5" font-family="Helvetica,sans-Serif" font-size="10.00" fill="#000000">/LookUp.h</text>
</a>
</g>
</g>
<!-- Node0&#45;&gt;Node1 -->
<g id="edge1" class="edge">
<title>Node0&#45;&gt;Node1</title>
<path fill="none" stroke="#191970" d="M220,-324.0928C220,-315.516 220,-306.0289 220,-297.5538"/>
<polygon fill="#191970" stroke="#191970" points="223.5001,-297.5045 220,-287.5046 216.5001,-297.5046 223.5001,-297.5045"/>
</g>
<!-- Node2 -->
<g id="node3" class="node">
<title>Node2</title>
<polygon fill="none" stroke="#bfbfbf" points="0,-62 0,-81 42,-81 42,-62 0,-62"/>
<text text-anchor="middle" x="21" y="-69" font-family="Helvetica,sans-Serif" font-size="10.00" fill="#000000">array</text>
</g>
<!-- Node1&#45;&gt;Node2 -->
<g id="edge2" class="edge">
<title>Node1&#45;&gt;Node2</title>
<path fill="none" stroke="#191970" d="M189.6645,-257.3247C172.6718,-248.0641 151.6227,-235.2779 135,-221 88.9753,-181.4675 49.6841,-120.5238 31.6135,-90.1052"/>
<polygon fill="#191970" stroke="#191970" points="34.5759,-88.2375 26.5104,-81.3674 28.5313,-91.7678 34.5759,-88.2375"/>
</g>
<!-- Node3 -->
<g id="node4" class="node">
<title>Node3</title>
<g id="a_node4"><a xlink:href="../../d8/ddb/ClusterTopology_8h.html" target="_top" xlink:title="Definition of the ClusterTopology class. ">
<polygon fill="none" stroke="#000000" points="144,-190.5 144,-220.5 296,-220.5 296,-190.5 144,-190.5"/>
<text text-anchor="start" x="152" y="-208.5" font-family="Helvetica,sans-Serif" font-size="10.00" fill="#000000">DataFormatsITSMFT/Cluster</text>
<text text-anchor="middle" x="220" y="-197.5" font-family="Helvetica,sans-Serif" font-size="10.00" fill="#000000">Topology.h</text>
</a>
</g>
</g>
<!-- Node1&#45;&gt;Node3 -->
<g id="edge3" class="edge">
<title>Node1&#45;&gt;Node3</title>
<path fill="none" stroke="#191970" d="M220,-257.2967C220,-249.5013 220,-239.7991 220,-230.9064"/>
<polygon fill="#191970" stroke="#191970" points="223.5001,-230.6431 220,-220.6432 216.5001,-230.6432 223.5001,-230.6431"/>
</g>
<!-- Node10 -->
<g id="node11" class="node">
<title>Node10</title>
<g id="a_node11"><a xlink:href="../../d1/d08/TopologyDictionary_8h.html" target="_top" xlink:title="Definition of the ClusterTopology class. ">
<polygon fill="none" stroke="#000000" points="477.5,-190.5 477.5,-220.5 638.5,-220.5 638.5,-190.5 477.5,-190.5"/>
<text text-anchor="start" x="485.5" y="-208.5" font-family="Helvetica,sans-Serif" font-size="10.00" fill="#000000">DataFormatsITSMFT/Topology</text>
<text text-anchor="middle" x="558" y="-197.5" font-family="Helvetica,sans-Serif" font-size="10.00" fill="#000000">Dictionary.h</text>
</a>
</g>
</g>
<!-- Node1&#45;&gt;Node10 -->
<g id="edge13" class="edge">
<title>Node1&#45;&gt;Node10</title>
<path fill="none" stroke="#191970" d="M281.6014,-260.2891C334.971,-249.7099 412.7397,-234.2942 472.2,-222.5077"/>
<polygon fill="#191970" stroke="#191970" points="473.1989,-225.8779 482.3275,-220.5002 471.8378,-219.0115 473.1989,-225.8779"/>
</g>
<!-- Node4 -->
<g id="node5" class="node">
<title>Node4</title>
<g id="a_node5"><a xlink:href="../../de/dc1/ClusterPattern_8h.html" target="_top" xlink:title="DataFormatsITSMFT/Cluster\lPattern.h">
<polygon fill="none" stroke="#000000" points="144,-123.5 144,-153.5 296,-153.5 296,-123.5 144,-123.5"/>
<text text-anchor="start" x="152" y="-141.5" font-family="Helvetica,sans-Serif" font-size="10.00" fill="#000000">DataFormatsITSMFT/Cluster</text>
<text text-anchor="middle" x="220" y="-130.5" font-family="Helvetica,sans-Serif" font-size="10.00" fill="#000000">Pattern.h</text>
</a>
</g>
</g>
<!-- Node3&#45;&gt;Node4 -->
<g id="edge4" class="edge">
<title>Node3&#45;&gt;Node4</title>
<path fill="none" stroke="#191970" d="M220,-190.2967C220,-182.5013 220,-172.7991 220,-163.9064"/>
<polygon fill="#191970" stroke="#191970" points="223.5001,-163.6431 220,-153.6432 216.5001,-163.6432 223.5001,-163.6431"/>
</g>
<!-- Node6 -->
<g id="node7" class="node">
<title>Node6</title>
<polygon fill="none" stroke="#bfbfbf" points="370.5,-62 370.5,-81 419.5,-81 419.5,-62 370.5,-62"/>
<text text-anchor="middle" x="395" y="-69" font-family="Helvetica,sans-Serif" font-size="10.00" fill="#000000">iosfwd</text>
</g>
<!-- Node3&#45;&gt;Node6 -->
<g id="edge12" class="edge">
<title>Node3&#45;&gt;Node6</title>
<path fill="none" stroke="#191970" d="M248.071,-190.3532C265.0815,-180.7267 286.9154,-167.5589 305,-154 332.5016,-133.3807 361.275,-105.7799 378.6735,-88.3163"/>
<polygon fill="#191970" stroke="#191970" points="381.2923,-90.6453 385.8215,-81.0673 376.308,-85.7303 381.2923,-90.6453"/>
</g>
<!-- Node9 -->
<g id="node10" class="node">
<title>Node9</title>
<polygon fill="none" stroke="#bfbfbf" points="88,-129 88,-148 126,-148 126,-129 88,-129"/>
<text text-anchor="middle" x="107" y="-136" font-family="Helvetica,sans-Serif" font-size="10.00" fill="#000000">map</text>
</g>
<!-- Node3&#45;&gt;Node9 -->
<g id="edge11" class="edge">
<title>Node3&#45;&gt;Node9</title>
<path fill="none" stroke="#191970" d="M194.6406,-190.4639C175.9369,-179.3741 150.6119,-164.3584 131.995,-153.32"/>
<polygon fill="#191970" stroke="#191970" points="133.5844,-150.1935 123.1977,-148.1039 130.0143,-156.2147 133.5844,-150.1935"/>
</g>
<!-- Node4&#45;&gt;Node2 -->
<g id="edge6" class="edge">
<title>Node4&#45;&gt;Node2</title>
<path fill="none" stroke="#191970" d="M161.2142,-123.4123C128.298,-114.2657 86.7986,-101.5624 51,-87 49.8087,-86.5154 48.6013,-86 47.3893,-85.4627"/>
<polygon fill="#191970" stroke="#191970" points="48.7296,-82.224 38.1987,-81.061 45.7058,-88.5373 48.7296,-82.224"/>
</g>
<!-- Node5 -->
<g id="node6" class="node">
<title>Node5</title>
<polygon fill="none" stroke="#bfbfbf" points="228.5,-.5 228.5,-19.5 287.5,-19.5 287.5,-.5 228.5,-.5"/>
<text text-anchor="middle" x="258" y="-7.5" font-family="Helvetica,sans-Serif" font-size="10.00" fill="#000000">Rtypes.h</text>
</g>
<!-- Node4&#45;&gt;Node5 -->
<g id="edge5" class="edge">
<title>Node4&#45;&gt;Node5</title>
<path fill="none" stroke="#191970" d="M190.4858,-123.291C177.0277,-114.6371 162.4581,-102.4245 155,-87 149.0024,-74.5961 147.5027,-67.5593 155,-56 169.0176,-34.3877 195.8224,-22.8406 218.5735,-16.7212"/>
<polygon fill="#191970" stroke="#191970" points="219.4614,-20.1073 228.3528,-14.346 217.8093,-13.3051 219.4614,-20.1073"/>
</g>
<!-- Node4&#45;&gt;Node6 -->
<g id="edge7" class="edge">
<title>Node4&#45;&gt;Node6</title>
<path fill="none" stroke="#191970" d="M263.8448,-123.472C291.8464,-113.6322 328.8075,-100.1939 361,-87 362.3881,-86.4311 363.8029,-85.8385 365.2282,-85.2311"/>
<polygon fill="#191970" stroke="#191970" points="366.8707,-88.3323 374.6157,-81.1029 364.0528,-81.9245 366.8707,-88.3323"/>
</g>
<!-- Node7 -->
<g id="node8" class="node">
<title>Node7</title>
<polygon fill="none" stroke="#bfbfbf" points="60,-62 60,-81 108,-81 108,-62 60,-62"/>
<text text-anchor="middle" x="84" y="-69" font-family="Helvetica,sans-Serif" font-size="10.00" fill="#000000">gsl/gsl</text>
</g>
<!-- Node4&#45;&gt;Node7 -->
<g id="edge8" class="edge">
<title>Node4&#45;&gt;Node7</title>
<path fill="none" stroke="#191970" d="M189.4789,-123.4639C166.4543,-112.1209 135.0928,-96.6707 112.5606,-85.5703"/>
<polygon fill="#191970" stroke="#191970" points="114.0118,-82.3836 103.4945,-81.1039 110.9183,-88.6629 114.0118,-82.3836"/>
</g>
<!-- Node8 -->
<g id="node9" class="node">
<title>Node8</title>
<g id="a_node9"><a xlink:href="../../df/de4/CompCluster_8h.html" target="_top" xlink:title="Definition of the ITSMFT compact cluster. ">
<polygon fill="none" stroke="#000000" points="164,-62 164,-81 352,-81 352,-62 164,-62"/>
<text text-anchor="middle" x="258" y="-69" font-family="Helvetica,sans-Serif" font-size="10.00" fill="#000000">DataFormatsITSMFT/CompCluster.h</text>
</a>
</g>
</g>
<!-- Node4&#45;&gt;Node8 -->
<g id="edge9" class="edge">
<title>Node4&#45;&gt;Node8</title>
<path fill="none" stroke="#191970" d="M228.6228,-123.2967C234.256,-113.3645 241.6447,-100.3371 247.6027,-89.8321"/>
<polygon fill="#191970" stroke="#191970" points="250.6917,-91.4801 252.5808,-81.055 244.6029,-88.0266 250.6917,-91.4801"/>
</g>
<!-- Node8&#45;&gt;Node5 -->
<g id="edge10" class="edge">
<title>Node8&#45;&gt;Node5</title>
<path fill="none" stroke="#191970" d="M258,-61.8906C258,-53.3657 258,-40.6392 258,-29.9235"/>
<polygon fill="#191970" stroke="#191970" points="261.5001,-29.7448 258,-19.7449 254.5001,-29.7449 261.5001,-29.7448"/>
</g>
<!-- Node10&#45;&gt;Node4 -->
<g id="edge14" class="edge">
<title>Node10&#45;&gt;Node4</title>
<path fill="none" stroke="#191970" d="M482.1462,-190.4639C429.8336,-180.0942 360.2047,-166.2921 305.8553,-155.5186"/>
<polygon fill="#191970" stroke="#191970" points="306.3822,-152.0551 295.8925,-153.5438 305.021,-158.9215 306.3822,-152.0551"/>
</g>
<!-- Node10&#45;&gt;Node8 -->
<g id="edge32" class="edge">
<title>Node10&#45;&gt;Node8</title>
<path fill="none" stroke="#191970" d="M488.973,-190.457C455.7698,-181.9386 415.9107,-169.7937 382,-154 342.7176,-135.7045 301.7256,-106.0067 278.0973,-87.6764"/>
<polygon fill="#191970" stroke="#191970" points="279.9558,-84.6853 269.9315,-81.2552 275.6288,-90.1878 279.9558,-84.6853"/>
</g>
<!-- Node11 -->
<g id="node12" class="node">
<title>Node11</title>
<g id="a_node12"><a xlink:href="../../dd/da4/Logger_8h.html" target="_top" xlink:title="Framework/Logger.h">
<polygon fill="none" stroke="#000000" points="633.5,-129 633.5,-148 748.5,-148 748.5,-129 633.5,-129"/>
<text text-anchor="middle" x="691" y="-136" font-family="Helvetica,sans-Serif" font-size="10.00" fill="#000000">Framework/Logger.h</text>
</a>
</g>
</g>
<!-- Node10&#45;&gt;Node11 -->
<g id="edge15" class="edge">
<title>Node10&#45;&gt;Node11</title>
<path fill="none" stroke="#191970" d="M587.8478,-190.4639C610.264,-179.1715 640.7606,-163.8086 662.7738,-152.7192"/>
<polygon fill="#191970" stroke="#191970" points="664.5793,-155.7287 671.9355,-148.1039 661.43,-149.4772 664.5793,-155.7287"/>
</g>
<!-- Node13 -->
<g id="node14" class="node">
<title>Node13</title>
<polygon fill="none" stroke="#bfbfbf" points="958.5,-129 958.5,-148 1013.5,-148 1013.5,-129 958.5,-129"/>
<text text-anchor="middle" x="986" y="-136" font-family="Helvetica,sans-Serif" font-size="10.00" fill="#000000">fstream</text>
</g>
<!-- Node10&#45;&gt;Node13 -->
<g id="edge17" class="edge">
<title>Node10&#45;&gt;Node13</title>
<path fill="none" stroke="#191970" d="M638.6006,-201.1495C718.5247,-195.3809 843.9025,-182.3901 949,-154 951.4709,-153.3325 953.9949,-152.5373 956.5057,-151.6647"/>
<polygon fill="#191970" stroke="#191970" points="957.9057,-154.8763 965.9851,-148.0226 955.3951,-148.342 957.9057,-154.8763"/>
</g>
<!-- Node14 -->
<g id="node15" class="node">
<title>Node14</title>
<polygon fill="none" stroke="#bfbfbf" points="1032,-129 1032,-148 1076,-148 1076,-129 1032,-129"/>
<text text-anchor="middle" x="1054" y="-136" font-family="Helvetica,sans-Serif" font-size="10.00" fill="#000000">string</text>
</g>
<!-- Node10&#45;&gt;Node14 -->
<g id="edge18" class="edge">
<title>Node10&#45;&gt;Node14</title>
<path fill="none" stroke="#191970" d="M638.5499,-200.0144C752.0419,-191.6989 952.9864,-174.6625 1023,-154 1024.6664,-153.5082 1026.3513,-152.9302 1028.0293,-152.2916"/>
<polygon fill="#191970" stroke="#191970" points="1029.6588,-155.398 1037.3877,-148.1512 1026.8266,-148.9965 1029.6588,-155.398"/>
</g>
<!-- Node15 -->
<g id="node16" class="node">
<title>Node15</title>
<polygon fill="none" stroke="#bfbfbf" points="390.5,-129 390.5,-148 483.5,-148 483.5,-129 390.5,-129"/>
<text text-anchor="middle" x="437" y="-136" font-family="Helvetica,sans-Serif" font-size="10.00" fill="#000000">unordered_map</text>
</g>
<!-- Node10&#45;&gt;Node15 -->
<g id="edge19" class="edge">
<title>Node10&#45;&gt;Node15</title>
<path fill="none" stroke="#191970" d="M530.8452,-190.4639C510.6344,-179.2728 483.2036,-164.0838 463.2201,-153.0186"/>
<polygon fill="#191970" stroke="#191970" points="464.7883,-149.8862 454.3444,-148.1039 461.3973,-156.0101 464.7883,-149.8862"/>
</g>
<!-- Node16 -->
<g id="node17" class="node">
<title>Node16</title>
<polygon fill="none" stroke="#bfbfbf" points="501.5,-129 501.5,-148 548.5,-148 548.5,-129 501.5,-129"/>
<text text-anchor="middle" x="525" y="-136" font-family="Helvetica,sans-Serif" font-size="10.00" fill="#000000">vector</text>
</g>
<!-- Node10&#45;&gt;Node16 -->
<g id="edge20" class="edge">
<title>Node10&#45;&gt;Node16</title>
<path fill="none" stroke="#191970" d="M550.5118,-190.2967C545.6697,-180.4658 539.3341,-167.6026 534.188,-157.1545"/>
<polygon fill="#191970" stroke="#191970" points="537.2645,-155.4794 529.7062,-148.055 530.9849,-158.5724 537.2645,-155.4794"/>
</g>
<!-- Node17 -->
<g id="node18" class="node">
<title>Node17</title>
<g id="a_node18"><a xlink:href="../../dc/d73/Cartesian_8h.html" target="_top" xlink:title="MathUtils/Cartesian.h">
<polygon fill="none" stroke="#000000" points="818,-129 818,-148 940,-148 940,-129 818,-129"/>
<text text-anchor="middle" x="879" y="-136" font-family="Helvetica,sans-Serif" font-size="10.00" fill="#000000">MathUtils/Cartesian.h</text>
</a>
</g>
</g>
<!-- Node10&#45;&gt;Node17 -->
<g id="edge21" class="edge">
<title>Node10&#45;&gt;Node17</title>
<path fill="none" stroke="#191970" d="M630.0387,-190.4639C688.5603,-178.2491 769.9005,-161.2716 823.4632,-150.0918"/>
<polygon fill="#191970" stroke="#191970" points="824.3858,-153.4747 833.4597,-148.0053 822.9556,-146.6224 824.3858,-153.4747"/>
</g>
<!-- Node26 -->
<g id="node27" class="node">
<title>Node26</title>
<polygon fill="none" stroke="#bfbfbf" points="566.5,-129 566.5,-148 615.5,-148 615.5,-129 566.5,-129"/>
<text text-anchor="middle" x="591" y="-136" font-family="Helvetica,sans-Serif" font-size="10.00" fill="#000000">TH1F.h</text>
</g>
<!-- Node10&#45;&gt;Node26 -->
<g id="edge33" class="edge">
<title>Node10&#45;&gt;Node26</title>
<path fill="none" stroke="#191970" d="M565.4882,-190.2967C570.3303,-180.4658 576.6659,-167.6026 581.812,-157.1545"/>
<polygon fill="#191970" stroke="#191970" points="585.0151,-158.5724 586.2938,-148.055 578.7355,-155.4794 585.0151,-158.5724"/>
</g>
<!-- Node12 -->
<g id="node13" class="node">
<title>Node12</title>
<polygon fill="none" stroke="#bfbfbf" points="438,-62 438,-81 546,-81 546,-62 438,-62"/>
<text text-anchor="middle" x="492" y="-69" font-family="Helvetica,sans-Serif" font-size="10.00" fill="#000000">fairlogger/Logger.h</text>
</g>
<!-- Node11&#45;&gt;Node12 -->
<g id="edge16" class="edge">
<title>Node11&#45;&gt;Node12</title>
<path fill="none" stroke="#191970" d="M662.4882,-128.9005C627.7615,-117.2086 568.9631,-97.4122 530.3078,-84.3976"/>
<polygon fill="#191970" stroke="#191970" points="531.053,-80.9555 520.459,-81.0817 528.8194,-87.5896 531.053,-80.9555"/>
</g>
<!-- Node17&#45;&gt;Node5 -->
<g id="edge29" class="edge">
<title>Node17&#45;&gt;Node5</title>
<path fill="none" stroke="#191970" d="M817.9937,-131.1601C746.2962,-121.9021 632.1297,-105.0039 593,-87 573.1994,-77.8896 574.9107,-64.8672 555,-56 509.6631,-35.8093 367.7022,-20.2249 297.7555,-13.5502"/>
<polygon fill="#191970" stroke="#191970" points="297.8593,-10.0446 287.5756,-12.5932 297.2041,-17.0138 297.8593,-10.0446"/>
</g>
<!-- Node17&#45;&gt;Node6 -->
<g id="edge31" class="edge">
<title>Node17&#45;&gt;Node6</title>
<path fill="none" stroke="#191970" d="M817.7818,-130.4354C798.6464,-127.9745 777.4535,-125.3101 758,-123 611.9313,-105.6543 570.83,-126.0026 429,-87 427.0297,-86.4582 425.0294,-85.815 423.0365,-85.1036"/>
<polygon fill="#191970" stroke="#191970" points="423.886,-81.6701 413.3048,-81.132 421.2409,-88.1512 423.886,-81.6701"/>
</g>
<!-- Node18 -->
<g id="node19" class="node">
<title>Node18</title>
<polygon fill="none" stroke="#bfbfbf" points="602,-56.5 602,-86.5 766,-86.5 766,-56.5 602,-56.5"/>
<text text-anchor="start" x="610" y="-74.5" font-family="Helvetica,sans-Serif" font-size="10.00" fill="#000000">Math/GenVector/Displacement</text>
<text text-anchor="middle" x="684" y="-63.5" font-family="Helvetica,sans-Serif" font-size="10.00" fill="#000000">Vector3D.h</text>
</g>
<!-- Node17&#45;&gt;Node18 -->
<g id="edge22" class="edge">
<title>Node17&#45;&gt;Node18</title>
<path fill="none" stroke="#191970" d="M851.0613,-128.9005C821.4796,-118.7366 774.0721,-102.4479 737.3023,-89.8141"/>
<polygon fill="#191970" stroke="#191970" points="738.3147,-86.4612 727.7201,-86.5218 736.0401,-93.0813 738.3147,-86.4612"/>
</g>
<!-- Node19 -->
<g id="node20" class="node">
<title>Node19</title>
<polygon fill="none" stroke="#bfbfbf" points="784.5,-62 784.5,-81 973.5,-81 973.5,-62 784.5,-62"/>
<text text-anchor="middle" x="879" y="-69" font-family="Helvetica,sans-Serif" font-size="10.00" fill="#000000">Math/GenVector/PositionVector3D.h</text>
</g>
<!-- Node17&#45;&gt;Node19 -->
<g id="edge23" class="edge">
<title>Node17&#45;&gt;Node19</title>
<path fill="none" stroke="#191970" d="M879,-128.9005C879,-119.149 879,-103.7597 879,-91.3695"/>
<polygon fill="#191970" stroke="#191970" points="882.5001,-91.0816 879,-81.0817 875.5001,-91.0817 882.5001,-91.0816"/>
</g>
<!-- Node20 -->
<g id="node21" class="node">
<title>Node20</title>
<polygon fill="none" stroke="#bfbfbf" points="992,-62 992,-81 1152,-81 1152,-62 992,-62"/>
<text text-anchor="middle" x="1072" y="-69" font-family="Helvetica,sans-Serif" font-size="10.00" fill="#000000">Math/GenVector/Rotation3D.h</text>
</g>
<!-- Node17&#45;&gt;Node20 -->
<g id="edge24" class="edge">
<title>Node17&#45;&gt;Node20</title>
<path fill="none" stroke="#191970" d="M906.6522,-128.9005C940.3318,-117.2086 997.3574,-97.4122 1034.8472,-84.3976"/>
<polygon fill="#191970" stroke="#191970" points="1036.1,-87.6677 1044.3991,-81.0817 1033.8043,-81.0548 1036.1,-87.6677"/>
</g>
<!-- Node21 -->
<g id="node22" class="node">
<title>Node21</title>
<polygon fill="none" stroke="#bfbfbf" points="1170,-62 1170,-81 1338,-81 1338,-62 1170,-62"/>
<text text-anchor="middle" x="1254" y="-69" font-family="Helvetica,sans-Serif" font-size="10.00" fill="#000000">Math/GenVector/Transform3D.h</text>
</g>
<!-- Node17&#45;&gt;Node21 -->
<g id="edge25" class="edge">
<title>Node17&#45;&gt;Node21</title>
<path fill="none" stroke="#191970" d="M920.9808,-128.9922C930.5045,-126.9309 940.5864,-124.8239 950,-123 972.7963,-118.5833 1104.3459,-96.495 1186.7537,-82.7192"/>
<polygon fill="#191970" stroke="#191970" points="1187.5109,-86.1413 1196.7972,-81.0408 1186.3571,-79.2371 1187.5109,-86.1413"/>
</g>
<!-- Node22 -->
<g id="node23" class="node">
<title>Node22</title>
<polygon fill="none" stroke="#bfbfbf" points="1356.5,-62 1356.5,-81 1529.5,-81 1529.5,-62 1356.5,-62"/>
<text text-anchor="middle" x="1443" y="-69" font-family="Helvetica,sans-Serif" font-size="10.00" fill="#000000">Math/GenVector/Translation3D.h</text>
</g>
<!-- Node17&#45;&gt;Node22 -->
<g id="edge26" class="edge">
<title>Node17&#45;&gt;Node22</title>
<path fill="none" stroke="#191970" d="M918.6413,-128.9329C928.8153,-126.7293 939.7747,-124.5735 950,-123 1125.1073,-96.054 1171.2196,-109.1332 1347,-87 1357.1548,-85.7214 1367.8839,-84.1791 1378.3457,-82.5697"/>
<polygon fill="#191970" stroke="#191970" points="1378.9304,-86.0208 1388.2667,-81.0125 1377.8449,-79.1055 1378.9304,-86.0208"/>
</g>
<!-- Node23 -->
<g id="node24" class="node">
<title>Node23</title>
<polygon fill="none" stroke="#bfbfbf" points="1548,-56.5 1548,-86.5 1712,-86.5 1712,-56.5 1548,-56.5"/>
<text text-anchor="start" x="1556" y="-74.5" font-family="Helvetica,sans-Serif" font-size="10.00" fill="#000000">Math/GenVector/Displacement</text>
<text text-anchor="middle" x="1630" y="-63.5" font-family="Helvetica,sans-Serif" font-size="10.00" fill="#000000">Vector2D.h</text>
</g>
<!-- Node17&#45;&gt;Node23 -->
<g id="edge27" class="edge">
<title>Node17&#45;&gt;Node23</title>
<path fill="none" stroke="#191970" d="M917.4973,-128.9662C927.982,-126.6795 939.3777,-124.4752 950,-123 1206.4754,-87.3823 1276.6875,-116.3077 1537.5584,-87.0801"/>
<polygon fill="#191970" stroke="#191970" points="1538.1772,-90.5323 1547.717,-85.9235 1537.3853,-83.5773 1538.1772,-90.5323"/>
</g>
<!-- Node24 -->
<g id="node25" class="node">
<title>Node24</title>
<polygon fill="none" stroke="#bfbfbf" points="1730.5,-62 1730.5,-81 1919.5,-81 1919.5,-62 1730.5,-62"/>
<text text-anchor="middle" x="1825" y="-69" font-family="Helvetica,sans-Serif" font-size="10.00" fill="#000000">Math/GenVector/PositionVector2D.h</text>
</g>
<!-- Node17&#45;&gt;Node24 -->
<g id="edge28" class="edge">
<title>Node17&#45;&gt;Node24</title>
<path fill="none" stroke="#191970" d="M917.1139,-128.9446C927.6998,-126.6288 939.2423,-124.4152 950,-123 1290.1098,-78.2588 1379.5827,-120.3265 1721,-87 1732.9941,-85.8292 1745.7182,-84.2315 1757.9981,-82.505"/>
<polygon fill="#191970" stroke="#191970" points="1758.7875,-85.9273 1768.1831,-81.0309 1757.7848,-78.9995 1758.7875,-85.9273"/>
</g>
<!-- Node25 -->
<g id="node26" class="node">
<title>Node25</title>
<polygon fill="none" stroke="#bfbfbf" points="1938,-62 1938,-81 2020,-81 2020,-62 1938,-62"/>
<text text-anchor="middle" x="1979" y="-69" font-family="Helvetica,sans-Serif" font-size="10.00" fill="#000000">TGeoMatrix.h</text>
</g>
<!-- Node17&#45;&gt;Node25 -->
<g id="edge30" class="edge">
<title>Node17&#45;&gt;Node25</title>
<path fill="none" stroke="#191970" d="M916.7359,-128.955C927.4221,-126.6092 939.1103,-124.3777 950,-123 1381.9619,-68.3502 1499.7745,-160.0966 1929,-87 1933.5579,-86.2238 1938.279,-85.1439 1942.9183,-83.9118"/>
<polygon fill="#191970" stroke="#191970" points="1944.2205,-87.1783 1952.8488,-81.0299 1942.2695,-80.4557 1944.2205,-87.1783"/>
</g>
</g>
</svg>
        <g id="navigator" transform="translate(0 0)" fill="#404254">
                <rect fill="#f2f5e9" fill-opacity="0.5" stroke="#606060" stroke-width=".5" x="0" y="0" width="60" height="60"/>
                <use id="zoomplus" xlink:href="#zoomPlus" x="17" y="9" onmousedown="handleZoom(evt,'in')"/>
                <use id="zoomminus" xlink:href="#zoomMin" x="42" y="9" onmousedown="handleZoom(evt,'out')"/>
                <use id="reset" xlink:href="#resetDef" x="30" y="36" onmousedown="handleReset()"/>
                <g id="arrowUp" xlink:href="#dirArrow" transform="translate(30 24)" onmousedown="handlePan(0,-1)">
                  <use xlink:href="#rim" fill="#404040">
                        <set attributeName="fill" to="#808080" begin="arrowUp.mouseover" end="arrowUp.mouseout"/>
                  </use>
                  <path fill="none" stroke="white" stroke-width="1.5" d="M0,-3.0v7 M-2.5,-0.5L0,-3.0L2.5,-0.5"/>
                </g>
                <g id="arrowRight" xlink:href="#dirArrow" transform="rotate(90) translate(36 -43)" onmousedown="handlePan(1,0)">
                  <use xlink:href="#rim" fill="#404040">
                        <set attributeName="fill" to="#808080" begin="arrowRight.mouseover" end="arrowRight.mouseout"/>
                  </use>
                  <path fill="none" stroke="white" stroke-width="1.5" d="M0,-3.0v7 M-2.5,-0.5L0,-3.0L2.5,-0.5"/>
                </g>
                <g id="arrowDown" xlink:href="#dirArrow" transform="rotate(180) translate(-30 -48)" onmousedown="handlePan(0,1)">
                  <use xlink:href="#rim" fill="#404040">
                        <set attributeName="fill" to="#808080" begin="arrowDown.mouseover" end="arrowDown.mouseout"/>
                  </use>
                  <path fill="none" stroke="white" stroke-width="1.5" d="M0,-3.0v7 M-2.5,-0.5L0,-3.0L2.5,-0.5"/>
                </g>
                <g id="arrowLeft" xlink:href="#dirArrow" transform="rotate(270) translate(-36 17)" onmousedown="handlePan(-1,0)">
                  <use xlink:href="#rim" fill="#404040">
                        <set attributeName="fill" to="#808080" begin="arrowLeft.mouseover" end="arrowLeft.mouseout"/>
                  </use>
                  <path fill="none" stroke="white" stroke-width="1.5" d="M0,-3.0v7 M-2.5,-0.5L0,-3.0L2.5,-0.5"/>
                </g>
        </g>
        <svg viewBox="0 0 15 15" width="100%" height="30px" preserveAspectRatio="xMaxYMin meet">
         <g id="arrow_out" transform="scale(0.3 0.3)">
          <a xlink:href="LookUp_8cxx__incl_org.svg" target="_base">
           <rect id="button" ry="5" rx="5" y="6" x="6" height="38" width="38"
                fill="#f2f5e9" fill-opacity="0.5" stroke="#606060" stroke-width="1.0"/>
           <path id="arrow"
             d="M 11.500037,31.436501 C 11.940474,20.09759 22.043105,11.32322 32.158766,21.979434 L 37.068811,17.246167 C 37.068811,17.246167 37.088388,32 37.088388,32 L 22.160133,31.978069 C 22.160133,31.978069 26.997745,27.140456 26.997745,27.140456 C 18.528582,18.264221 13.291696,25.230495 11.500037,31.436501 z"
             style="fill:#404040;"/>
          </a>
         </g>
        </svg>
</svg>
