<?xml version="1.0" encoding="UTF-8" standalone="no"?>
<!DOCTYPE svg PUBLIC "-//W3C//DTD SVG 1.1//EN"
 "http://www.w3.org/Graphics/SVG/1.1/DTD/svg11.dtd">
<!-- Generated by graphviz version 2.40.1 (20161225.0304)
 -->
<!-- Title: /home/travis/build/AliceO2Group/AliceO2/Detectors/EMCAL/base/src/ShishKebabTrd1Module.cxx Pages: 1 -->
<!--zoomable 251 -->
<svg id="main" version="1.1" xmlns="http://www.w3.org/2000/svg" xmlns:xlink="http://www.w3.org/1999/xlink" xml:space="preserve" onload="init(evt)">
<style type="text/css"><![CDATA[
.edge:hover path { stroke: red; }
.edge:hover polygon { stroke: red; fill: red; }
]]></style>
<script type="text/javascript"><![CDATA[
var edges = document.getElementsByTagName('g');
if (edges && edges.length) {
  for (var i=0;i<edges.length;i++) {
    if (edges[i].id.substr(0,4)=='edge') {
      edges[i].setAttribute('class','edge');
    }
  }
}
]]></script>
        <defs>
                <circle id="rim" cx="0" cy="0" r="7"/>
                <circle id="rim2" cx="0" cy="0" r="3.5"/>
                <g id="zoomPlus">
                        <use xlink:href="#rim" fill="#404040">
                                <set attributeName="fill" to="#808080" begin="zoomplus.mouseover" end="zoomplus.mouseout"/>
                        </use>
                        <path d="M-4,0h8M0,-4v8" fill="none" stroke="white" stroke-width="1.5" pointer-events="none"/>
                </g>
                <g id="zoomMin">
                        <use xlink:href="#rim" fill="#404040">
                                <set attributeName="fill" to="#808080" begin="zoomminus.mouseover" end="zoomminus.mouseout"/>
                        </use>
                        <path d="M-4,0h8" fill="none" stroke="white" stroke-width="1.5" pointer-events="none"/>
                </g>
                <g id="dirArrow">
                        <path fill="none" stroke="white" stroke-width="1.5" d="M0,-3.0v7 M-2.5,-0.5L0,-3.0L2.5,-0.5"/>
                </g>
               <g id="resetDef">
                       <use xlink:href="#rim2" fill="#404040">
                               <set attributeName="fill" to="#808080" begin="reset.mouseover" end="reset.mouseout"/>
                       </use>
               </g>
        </defs>

<script type="text/javascript">
var viewWidth = 2237;
var viewHeight = 251;
var sectionId = 'dynsection-0';
</script>
<script xlink:href="../../svgpan.js"/>
<svg id="graph" class="graph">
<g id="viewport">
<title>/home/travis/build/AliceO2Group/AliceO2/Detectors/EMCAL/base/src/ShishKebabTrd1Module.cxx</title>
<!-- Node0 -->
<g id="node1" class="node">
<title>Node0</title>
<polygon fill="#bfbfbf" stroke="#000000" points="384.5,-190.5 384.5,-242.5 553.5,-242.5 553.5,-190.5 384.5,-190.5"/>
<text text-anchor="start" x="392.5" y="-230.5" font-family="Helvetica,sans-Serif" font-size="10.00" fill="#000000">/home/travis/build</text>
<text text-anchor="start" x="392.5" y="-219.5" font-family="Helvetica,sans-Serif" font-size="10.00" fill="#000000">/AliceO2Group/AliceO2</text>
<text text-anchor="start" x="392.5" y="-208.5" font-family="Helvetica,sans-Serif" font-size="10.00" fill="#000000">/Detectors/EMCAL/base</text>
<text text-anchor="middle" x="469" y="-197.5" font-family="Helvetica,sans-Serif" font-size="10.00" fill="#000000">/src/ShishKebabTrd1Module.cxx</text>
</g>
<!-- Node1 -->
<g id="node2" class="node">
<title>Node1</title>
<polygon fill="none" stroke="#bfbfbf" points="342,-129 342,-148 394,-148 394,-129 342,-129"/>
<text text-anchor="middle" x="368" y="-136" font-family="Helvetica,sans-Serif" font-size="10.00" fill="#000000">cassert</text>
</g>
<!-- Node0&#45;&gt;Node1 -->
<g id="edge1" class="edge">
<title>Node0&#45;&gt;Node1</title>
<path fill="none" stroke="#191970" d="M435.0875,-190.3101C419.6681,-178.4021 401.9278,-164.7017 388.5641,-154.3812"/>
<polygon fill="#191970" stroke="#191970" points="390.5366,-151.4823 380.4827,-148.1401 386.258,-157.0225 390.5366,-151.4823"/>
</g>
<!-- Node2 -->
<g id="node3" class="node">
<title>Node2</title>
<polygon fill="none" stroke="#bfbfbf" points="0,-67.5 0,-86.5 84,-86.5 84,-67.5 0,-67.5"/>
<text text-anchor="middle" x="42" y="-74.5" font-family="Helvetica,sans-Serif" font-size="10.00" fill="#000000">RStringView.h</text>
</g>
<!-- Node0&#45;&gt;Node2 -->
<g id="edge2" class="edge">
<title>Node0&#45;&gt;Node2</title>
<path fill="none" stroke="#191970" d="M457.987,-190.4508C447.2965,-168.6089 428.8817,-138.5649 403,-123 402.1768,-122.5049 193.9784,-96.1786 94.1764,-83.5812"/>
<polygon fill="#191970" stroke="#191970" points="94.3615,-80.0769 84.0019,-82.2971 93.4849,-87.0218 94.3615,-80.0769"/>
</g>
<!-- Node3 -->
<g id="node4" class="node">
<title>Node3</title>
<g id="a_node4"><a xlink:href="../../dd/da8/EMCAL_2base_2include_2EMCALBase_2Geometry_8h.html" target="_top" xlink:title="EMCALBase/Geometry.h">
<polygon fill="none" stroke="#000000" points="450.5,-129 450.5,-148 583.5,-148 583.5,-129 450.5,-129"/>
<text text-anchor="middle" x="517" y="-136" font-family="Helvetica,sans-Serif" font-size="10.00" fill="#000000">EMCALBase/Geometry.h</text>
</a>
</g>
</g>
<!-- Node0&#45;&gt;Node3 -->
<g id="edge3" class="edge">
<title>Node0&#45;&gt;Node3</title>
<path fill="none" stroke="#191970" d="M485.2506,-190.0928C492.0109,-179.1073 499.6902,-166.6285 505.8028,-156.6954"/>
<polygon fill="#191970" stroke="#191970" points="508.842,-158.4348 511.1022,-148.0839 502.8804,-154.7661 508.842,-158.4348"/>
</g>
<!-- Node25 -->
<g id="node26" class="node">
<title>Node25</title>
<g id="a_node26"><a xlink:href="../../d8/d00/ShishKebabTrd1Module_8h.html" target="_top" xlink:title="EMCALBase/ShishKebabTrd1\lModule.h">
<polygon fill="none" stroke="#000000" points="1201.5,-123.5 1201.5,-153.5 1354.5,-153.5 1354.5,-123.5 1201.5,-123.5"/>
<text text-anchor="start" x="1209.5" y="-141.5" font-family="Helvetica,sans-Serif" font-size="10.00" fill="#000000">EMCALBase/ShishKebabTrd1</text>
<text text-anchor="middle" x="1278" y="-130.5" font-family="Helvetica,sans-Serif" font-size="10.00" fill="#000000">Module.h</text>
</a>
</g>
</g>
<!-- Node0&#45;&gt;Node25 -->
<g id="edge31" class="edge">
<title>Node0&#45;&gt;Node25</title>
<path fill="none" stroke="#191970" d="M553.6676,-208.3367C708.3955,-193.4186 1035.242,-161.9056 1191.3945,-146.8501"/>
<polygon fill="#191970" stroke="#191970" points="1191.8116,-150.3262 1201.4295,-145.8826 1191.1397,-143.3585 1191.8116,-150.3262"/>
</g>
<!-- Node3&#45;&gt;Node2 -->
<g id="edge8" class="edge">
<title>Node3&#45;&gt;Node2</title>
<path fill="none" stroke="#191970" d="M470.8516,-128.9834C459.4884,-126.8297 447.3296,-124.6844 436,-123 286.5705,-100.7841 247.564,-108.2918 98,-87 96.735,-86.8199 95.4549,-86.6325 94.1644,-86.439"/>
<polygon fill="#191970" stroke="#191970" points="94.5699,-82.9597 84.146,-84.8549 93.4766,-89.8738 94.5699,-82.9597"/>
</g>
<!-- Node4 -->
<g id="node5" class="node">
<title>Node4</title>
<polygon fill="none" stroke="#bfbfbf" points="514.5,-6 514.5,-25 579.5,-25 579.5,-6 514.5,-6"/>
<text text-anchor="middle" x="547" y="-13" font-family="Helvetica,sans-Serif" font-size="10.00" fill="#000000">exception</text>
</g>
<!-- Node3&#45;&gt;Node4 -->
<g id="edge4" class="edge">
<title>Node3&#45;&gt;Node4</title>
<path fill="none" stroke="#191970" d="M547.8517,-128.9073C567.441,-121.0331 591.2442,-107.7423 603,-87 614.9192,-65.9695 592.4775,-44.4846 572.556,-30.6323"/>
<polygon fill="#191970" stroke="#191970" points="574.2767,-27.575 563.997,-25.0102 570.4336,-33.4257 574.2767,-27.575"/>
</g>
<!-- Node5 -->
<g id="node6" class="node">
<title>Node5</title>
<polygon fill="none" stroke="#bfbfbf" points="144,-6 144,-25 188,-25 188,-6 144,-6"/>
<text text-anchor="middle" x="166" y="-13" font-family="Helvetica,sans-Serif" font-size="10.00" fill="#000000">string</text>
</g>
<!-- Node3&#45;&gt;Node5 -->
<g id="edge5" class="edge">
<title>Node3&#45;&gt;Node5</title>
<path fill="none" stroke="#191970" d="M470.4113,-128.9939C459.1712,-126.8641 447.1783,-124.727 436,-123 368.5519,-112.5798 176.3423,-138.0089 131,-87 116.6911,-70.9028 132.7723,-47.9086 147.5469,-32.3792"/>
<polygon fill="#191970" stroke="#191970" points="150.3417,-34.5375 154.9861,-25.0148 145.417,-29.5627 150.3417,-34.5375"/>
</g>
<!-- Node6 -->
<g id="node7" class="node">
<title>Node6</title>
<polygon fill="none" stroke="#bfbfbf" points="315.5,-67.5 315.5,-86.5 356.5,-86.5 356.5,-67.5 315.5,-67.5"/>
<text text-anchor="middle" x="336" y="-74.5" font-family="Helvetica,sans-Serif" font-size="10.00" fill="#000000">tuple</text>
</g>
<!-- Node3&#45;&gt;Node6 -->
<g id="edge6" class="edge">
<title>Node3&#45;&gt;Node6</title>
<path fill="none" stroke="#191970" d="M488.6902,-128.9589C460.0608,-119.299 414.2859,-103.8238 366.228,-87.4094"/>
<polygon fill="#191970" stroke="#191970" points="367.1849,-84.0377 356.5904,-84.1154 364.921,-90.6615 367.1849,-84.0377"/>
</g>
<!-- Node7 -->
<g id="node8" class="node">
<title>Node7</title>
<polygon fill="none" stroke="#bfbfbf" points="374.5,-67.5 374.5,-86.5 421.5,-86.5 421.5,-67.5 374.5,-67.5"/>
<text text-anchor="middle" x="398" y="-74.5" font-family="Helvetica,sans-Serif" font-size="10.00" fill="#000000">vector</text>
</g>
<!-- Node3&#45;&gt;Node7 -->
<g id="edge7" class="edge">
<title>Node3&#45;&gt;Node7</title>
<path fill="none" stroke="#191970" d="M498.4063,-128.8906C478.8447,-118.7811 447.8499,-102.7628 425.4691,-91.1962"/>
<polygon fill="#191970" stroke="#191970" points="426.9539,-88.0238 416.4632,-86.5419 423.74,-94.2425 426.9539,-88.0238"/>
</g>
<!-- Node8 -->
<g id="node9" class="node">
<title>Node8</title>
<polygon fill="none" stroke="#bfbfbf" points="811,-6 811,-25 893,-25 893,-6 811,-6"/>
<text text-anchor="middle" x="852" y="-13" font-family="Helvetica,sans-Serif" font-size="10.00" fill="#000000">TGeoMatrix.h</text>
</g>
<!-- Node3&#45;&gt;Node8 -->
<g id="edge9" class="edge">
<title>Node3&#45;&gt;Node8</title>
<path fill="none" stroke="#191970" d="M583.6018,-135.8505C664.9857,-131.2475 796.2834,-118.9668 832,-87 846.515,-74.0089 850.8625,-51.4388 851.9885,-35.1265"/>
<polygon fill="#191970" stroke="#191970" points="855.49,-35.1431 852.3388,-25.0278 848.4942,-34.9004 855.49,-35.1431"/>
</g>
<!-- Node9 -->
<g id="node10" class="node">
<title>Node9</title>
<polygon fill="none" stroke="#bfbfbf" points="1072.5,-67.5 1072.5,-86.5 1139.5,-86.5 1139.5,-67.5 1072.5,-67.5"/>
<text text-anchor="middle" x="1106" y="-74.5" font-family="Helvetica,sans-Serif" font-size="10.00" fill="#000000">TNamed.h</text>
</g>
<!-- Node3&#45;&gt;Node9 -->
<g id="edge10" class="edge">
<title>Node3&#45;&gt;Node9</title>
<path fill="none" stroke="#191970" d="M583.7659,-135.1019C685.1165,-129.3041 883.9396,-115.429 1062.1969,-86.9249"/>
<polygon fill="#191970" stroke="#191970" points="1062.9717,-90.3451 1072.2841,-85.2925 1061.8534,-83.435 1062.9717,-90.3451"/>
</g>
<!-- Node10 -->
<g id="node11" class="node">
<title>Node10</title>
<polygon fill="none" stroke="#bfbfbf" points="440,-67.5 440,-86.5 508,-86.5 508,-67.5 440,-67.5"/>
<text text-anchor="middle" x="474" y="-74.5" font-family="Helvetica,sans-Serif" font-size="10.00" fill="#000000">TParticle.h</text>
</g>
<!-- Node3&#45;&gt;Node10 -->
<g id="edge11" class="edge">
<title>Node3&#45;&gt;Node10</title>
<path fill="none" stroke="#191970" d="M510.2813,-128.8906C504.007,-119.917 494.4777,-106.2879 486.7596,-95.2491"/>
<polygon fill="#191970" stroke="#191970" points="489.4121,-92.9348 480.8135,-86.7449 483.6753,-96.9459 489.4121,-92.9348"/>
</g>
<!-- Node11 -->
<g id="node12" class="node">
<title>Node11</title>
<polygon fill="none" stroke="#bfbfbf" points="526,-67.5 526,-86.5 594,-86.5 594,-67.5 526,-67.5"/>
<text text-anchor="middle" x="560" y="-74.5" font-family="Helvetica,sans-Serif" font-size="10.00" fill="#000000">TVector3.h</text>
</g>
<!-- Node3&#45;&gt;Node11 -->
<g id="edge12" class="edge">
<title>Node3&#45;&gt;Node11</title>
<path fill="none" stroke="#191970" d="M523.7188,-128.8906C529.993,-119.917 539.5223,-106.2879 547.2404,-95.2491"/>
<polygon fill="#191970" stroke="#191970" points="550.3247,-96.9459 553.1865,-86.7449 544.5879,-92.9348 550.3247,-96.9459"/>
</g>
<!-- Node12 -->
<g id="node13" class="node">
<title>Node12</title>
<g id="a_node13"><a xlink:href="../../dd/dda/DataFormats_2Detectors_2EMCAL_2include_2DataFormatsEMCAL_2Constants_8h.html" target="_top" xlink:title="DataFormatsEMCAL/Constants.h">
<polygon fill="none" stroke="#000000" points="650.5,-67.5 650.5,-86.5 823.5,-86.5 823.5,-67.5 650.5,-67.5"/>
<text text-anchor="middle" x="737" y="-74.5" font-family="Helvetica,sans-Serif" font-size="10.00" fill="#000000">DataFormatsEMCAL/Constants.h</text>
</a>
</g>
</g>
<!-- Node3&#45;&gt;Node12 -->
<g id="edge13" class="edge">
<title>Node3&#45;&gt;Node12</title>
<path fill="none" stroke="#191970" d="M551.375,-128.8906C589.5573,-118.2169 651.3016,-100.9566 692.9884,-89.3033"/>
<polygon fill="#191970" stroke="#191970" points="694.1779,-92.605 702.8664,-86.5419 692.2933,-85.8634 694.1779,-92.605"/>
</g>
<!-- Node16 -->
<g id="node17" class="node">
<title>Node16</title>
<g id="a_node17"><a xlink:href="../../d5/d5e/GeometryBase_8h.html" target="_top" xlink:title="EMCALBase/GeometryBase.h">
<polygon fill="none" stroke="#000000" points="140,-67.5 140,-86.5 298,-86.5 298,-67.5 140,-67.5"/>
<text text-anchor="middle" x="219" y="-74.5" font-family="Helvetica,sans-Serif" font-size="10.00" fill="#000000">EMCALBase/GeometryBase.h</text>
</a>
</g>
</g>
<!-- Node3&#45;&gt;Node16 -->
<g id="edge18" class="edge">
<title>Node3&#45;&gt;Node16</title>
<path fill="none" stroke="#191970" d="M470.7645,-128.9581C418.0205,-118.073 331.7801,-100.2751 275.2008,-88.5985"/>
<polygon fill="#191970" stroke="#191970" points="275.8451,-85.1578 265.344,-86.5643 274.4302,-92.0133 275.8451,-85.1578"/>
</g>
<!-- Node17 -->
<g id="node18" class="node">
<title>Node17</title>
<g id="a_node18"><a xlink:href="../../dc/d73/Cartesian_8h.html" target="_top" xlink:title="MathUtils/Cartesian.h">
<polygon fill="none" stroke="#000000" points="932,-67.5 932,-86.5 1054,-86.5 1054,-67.5 932,-67.5"/>
<text text-anchor="middle" x="993" y="-74.5" font-family="Helvetica,sans-Serif" font-size="10.00" fill="#000000">MathUtils/Cartesian.h</text>
</a>
</g>
</g>
<!-- Node3&#45;&gt;Node17 -->
<g id="edge20" class="edge">
<title>Node3&#45;&gt;Node17</title>
<path fill="none" stroke="#191970" d="M583.687,-129.8839C672.8394,-118.3653 830.2164,-98.0319 921.6686,-86.2161"/>
<polygon fill="#191970" stroke="#191970" points="922.1994,-89.6767 931.6685,-84.9241 921.3024,-82.7344 922.1994,-89.6767"/>
</g>
<!-- Node12&#45;&gt;Node4 -->
<g id="edge16" class="edge">
<title>Node12&#45;&gt;Node4</title>
<path fill="none" stroke="#191970" d="M704.5071,-67.4331C674.4156,-58.4474 628.4898,-44.4135 589,-31 586.6174,-30.1907 584.1657,-29.3382 581.7005,-28.4664"/>
<polygon fill="#191970" stroke="#191970" points="582.8374,-25.1558 572.243,-25.0584 580.4643,-31.7413 582.8374,-25.1558"/>
</g>
<!-- Node13 -->
<g id="node14" class="node">
<title>Node13</title>
<polygon fill="none" stroke="#bfbfbf" points="666.5,-6 666.5,-25 725.5,-25 725.5,-6 666.5,-6"/>
<text text-anchor="middle" x="696" y="-13" font-family="Helvetica,sans-Serif" font-size="10.00" fill="#000000">Rtypes.h</text>
</g>
<!-- Node12&#45;&gt;Node13 -->
<g id="edge14" class="edge">
<title>Node12&#45;&gt;Node13</title>
<path fill="none" stroke="#191970" d="M730.5938,-67.3906C724.6114,-58.417 715.5253,-44.7879 708.1661,-33.7491"/>
<polygon fill="#191970" stroke="#191970" points="710.9558,-31.6239 702.4966,-25.2449 705.1314,-35.5068 710.9558,-31.6239"/>
</g>
<!-- Node14 -->
<g id="node15" class="node">
<title>Node14</title>
<polygon fill="none" stroke="#bfbfbf" points="743.5,-6 743.5,-25 792.5,-25 792.5,-6 743.5,-6"/>
<text text-anchor="middle" x="768" y="-13" font-family="Helvetica,sans-Serif" font-size="10.00" fill="#000000">iosfwd</text>
</g>
<!-- Node12&#45;&gt;Node14 -->
<g id="edge15" class="edge">
<title>Node12&#45;&gt;Node14</title>
<path fill="none" stroke="#191970" d="M741.8438,-67.3906C746.2766,-58.5965 752.9631,-45.3312 758.4659,-34.4145"/>
<polygon fill="#191970" stroke="#191970" points="761.7122,-35.75 763.088,-25.2449 755.4614,-32.5992 761.7122,-35.75"/>
</g>
<!-- Node15 -->
<g id="node16" class="node">
<title>Node15</title>
<polygon fill="none" stroke="#bfbfbf" points="598,-6 598,-25 648,-25 648,-6 598,-6"/>
<text text-anchor="middle" x="623" y="-13" font-family="Helvetica,sans-Serif" font-size="10.00" fill="#000000">cstdint</text>
</g>
<!-- Node12&#45;&gt;Node15 -->
<g id="edge17" class="edge">
<title>Node12&#45;&gt;Node15</title>
<path fill="none" stroke="#191970" d="M719.1875,-67.3906C700.5315,-57.3262 671.0203,-41.4057 649.6026,-29.8514"/>
<polygon fill="#191970" stroke="#191970" points="651.1502,-26.7095 640.6874,-25.0419 647.8266,-32.8702 651.1502,-26.7095"/>
</g>
<!-- Node16&#45;&gt;Node5 -->
<g id="edge19" class="edge">
<title>Node16&#45;&gt;Node5</title>
<path fill="none" stroke="#191970" d="M210.7188,-67.3906C202.8307,-58.2376 190.7686,-44.2409 181.1588,-33.09"/>
<polygon fill="#191970" stroke="#191970" points="183.5775,-30.5352 174.398,-25.2449 178.2749,-35.1049 183.5775,-30.5352"/>
</g>
<!-- Node17&#45;&gt;Node8 -->
<g id="edge29" class="edge">
<title>Node17&#45;&gt;Node8</title>
<path fill="none" stroke="#191970" d="M970.9688,-67.3906C947.3769,-57.1005 909.7499,-40.6888 883.1367,-29.0809"/>
<polygon fill="#191970" stroke="#191970" points="884.4419,-25.8318 873.8765,-25.0419 881.6433,-32.248 884.4419,-25.8318"/>
</g>
<!-- Node17&#45;&gt;Node13 -->
<g id="edge28" class="edge">
<title>Node17&#45;&gt;Node13</title>
<path fill="none" stroke="#191970" d="M931.9873,-69.872C878.97,-62.8037 800.4646,-50.2226 734,-31 731.69,-30.3319 729.3286,-29.5706 726.9696,-28.7522"/>
<polygon fill="#191970" stroke="#191970" points="728.0144,-25.4058 717.4224,-25.1595 725.5489,-31.9573 728.0144,-25.4058"/>
</g>
<!-- Node17&#45;&gt;Node14 -->
<g id="edge30" class="edge">
<title>Node17&#45;&gt;Node14</title>
<path fill="none" stroke="#191970" d="M941.9755,-67.4833C903.0622,-59.5635 848.4327,-47.01 802,-31 800.1601,-30.3656 798.2846,-29.667 796.4069,-28.9281"/>
<polygon fill="#191970" stroke="#191970" points="797.7302,-25.6875 787.1573,-25.0062 794.9976,-32.1322 797.7302,-25.6875"/>
</g>
<!-- Node18 -->
<g id="node19" class="node">
<title>Node18</title>
<polygon fill="none" stroke="#bfbfbf" points="1301,-.5 1301,-30.5 1465,-30.5 1465,-.5 1301,-.5"/>
<text text-anchor="start" x="1309" y="-18.5" font-family="Helvetica,sans-Serif" font-size="10.00" fill="#000000">Math/GenVector/Displacement</text>
<text text-anchor="middle" x="1383" y="-7.5" font-family="Helvetica,sans-Serif" font-size="10.00" fill="#000000">Vector3D.h</text>
</g>
<!-- Node17&#45;&gt;Node18 -->
<g id="edge21" class="edge">
<title>Node17&#45;&gt;Node18</title>
<path fill="none" stroke="#191970" d="M1054.0325,-67.9037C1112.306,-59.1519 1202.8629,-45.379 1290.794,-31.1823"/>
<polygon fill="#191970" stroke="#191970" points="1291.3575,-34.6367 1300.67,-29.5842 1290.2393,-27.7266 1291.3575,-34.6367"/>
</g>
<!-- Node19 -->
<g id="node20" class="node">
<title>Node19</title>
<polygon fill="none" stroke="#bfbfbf" points="1483.5,-6 1483.5,-25 1672.5,-25 1672.5,-6 1483.5,-6"/>
<text text-anchor="middle" x="1578" y="-13" font-family="Helvetica,sans-Serif" font-size="10.00" fill="#000000">Math/GenVector/PositionVector3D.h</text>
</g>
<!-- Node17&#45;&gt;Node19 -->
<g id="edge22" class="edge">
<title>Node17&#45;&gt;Node19</title>
<path fill="none" stroke="#191970" d="M1054.0581,-68.0775C1057.0797,-67.6987 1060.0731,-67.337 1063,-67 1245.1626,-46.0263 1291.9017,-52.5249 1474,-31 1485.1471,-29.6824 1496.9392,-28.1035 1508.4233,-26.4649"/>
<polygon fill="#191970" stroke="#191970" points="1509.019,-29.9152 1518.4123,-25.0146 1508.0131,-22.9878 1509.019,-29.9152"/>
</g>
<!-- Node20 -->
<g id="node21" class="node">
<title>Node20</title>
<polygon fill="none" stroke="#bfbfbf" points="1691,-6 1691,-25 1851,-25 1851,-6 1691,-6"/>
<text text-anchor="middle" x="1771" y="-13" font-family="Helvetica,sans-Serif" font-size="10.00" fill="#000000">Math/GenVector/Rotation3D.h</text>
</g>
<!-- Node17&#45;&gt;Node20 -->
<g id="edge23" class="edge">
<title>Node17&#45;&gt;Node20</title>
<path fill="none" stroke="#191970" d="M1054.0467,-67.9719C1057.0713,-67.621 1060.0684,-67.2941 1063,-67 1337.1994,-39.4897 1408.2525,-62.6927 1682,-31 1691.8153,-29.8636 1702.1897,-28.3479 1712.2535,-26.7083"/>
<polygon fill="#191970" stroke="#191970" points="1712.9015,-30.1485 1722.1817,-25.0368 1711.7393,-23.2456 1712.9015,-30.1485"/>
</g>
<!-- Node21 -->
<g id="node22" class="node">
<title>Node21</title>
<polygon fill="none" stroke="#bfbfbf" points="1869,-6 1869,-25 2037,-25 2037,-6 1869,-6"/>
<text text-anchor="middle" x="1953" y="-13" font-family="Helvetica,sans-Serif" font-size="10.00" fill="#000000">Math/GenVector/Transform3D.h</text>
</g>
<!-- Node17&#45;&gt;Node21 -->
<g id="edge24" class="edge">
<title>Node17&#45;&gt;Node21</title>
<path fill="none" stroke="#191970" d="M1054.0421,-67.9251C1057.068,-67.5866 1060.0666,-67.2751 1063,-67 1416.034,-33.8884 1507.3748,-68.2136 1860,-31 1870.4854,-29.8934 1881.5822,-28.3624 1892.3187,-26.6906"/>
<polygon fill="#191970" stroke="#191970" points="1893.1551,-30.101 1902.4705,-25.0538 1892.0409,-23.1903 1893.1551,-30.101"/>
</g>
<!-- Node22 -->
<g id="node23" class="node">
<title>Node22</title>
<polygon fill="none" stroke="#bfbfbf" points="2055.5,-6 2055.5,-25 2228.5,-25 2228.5,-6 2055.5,-6"/>
<text text-anchor="middle" x="2142" y="-13" font-family="Helvetica,sans-Serif" font-size="10.00" fill="#000000">Math/GenVector/Translation3D.h</text>
</g>
<!-- Node17&#45;&gt;Node22 -->
<g id="edge25" class="edge">
<title>Node17&#45;&gt;Node22</title>
<path fill="none" stroke="#191970" d="M1054.0393,-67.8942C1057.0659,-67.5639 1060.0654,-67.2626 1063,-67 1498.4417,-28.0326 1610.9305,-73.9239 2046,-31 2057.1752,-29.8975 2069.0242,-28.3214 2080.4423,-26.5924"/>
<polygon fill="#191970" stroke="#191970" points="2081.0002,-30.0478 2090.3377,-25.0417 2079.9164,-23.1322 2081.0002,-30.0478"/>
</g>
<!-- Node23 -->
<g id="node24" class="node">
<title>Node23</title>
<polygon fill="none" stroke="#bfbfbf" points="911,-.5 911,-30.5 1075,-30.5 1075,-.5 911,-.5"/>
<text text-anchor="start" x="919" y="-18.5" font-family="Helvetica,sans-Serif" font-size="10.00" fill="#000000">Math/GenVector/Displacement</text>
<text text-anchor="middle" x="993" y="-7.5" font-family="Helvetica,sans-Serif" font-size="10.00" fill="#000000">Vector2D.h</text>
</g>
<!-- Node17&#45;&gt;Node23 -->
<g id="edge26" class="edge">
<title>Node17&#45;&gt;Node23</title>
<path fill="none" stroke="#191970" d="M993,-67.3906C993,-60.2234 993,-50.0862 993,-40.671"/>
<polygon fill="#191970" stroke="#191970" points="996.5001,-40.5446 993,-30.5446 989.5001,-40.5446 996.5001,-40.5446"/>
</g>
<!-- Node24 -->
<g id="node25" class="node">
<title>Node24</title>
<polygon fill="none" stroke="#bfbfbf" points="1093.5,-6 1093.5,-25 1282.5,-25 1282.5,-6 1093.5,-6"/>
<text text-anchor="middle" x="1188" y="-13" font-family="Helvetica,sans-Serif" font-size="10.00" fill="#000000">Math/GenVector/PositionVector2D.h</text>
</g>
<!-- Node17&#45;&gt;Node24 -->
<g id="edge27" class="edge">
<title>Node17&#45;&gt;Node24</title>
<path fill="none" stroke="#191970" d="M1023.4688,-67.3906C1056.9544,-56.8298 1110.8853,-39.8208 1147.812,-28.1747"/>
<polygon fill="#191970" stroke="#191970" points="1149.261,-31.3877 1157.7452,-25.0419 1147.1555,-24.7118 1149.261,-31.3877"/>
</g>
<!-- Node25&#45;&gt;Node9 -->
<g id="edge35" class="edge">
<title>Node25&#45;&gt;Node9</title>
<path fill="none" stroke="#191970" d="M1235.9241,-123.4554C1207.2254,-113.194 1169.6063,-99.7429 1142.2377,-89.9571"/>
<polygon fill="#191970" stroke="#191970" points="1143.2485,-86.6015 1132.6539,-86.5303 1140.8917,-93.1929 1143.2485,-86.6015"/>
</g>
<!-- Node26 -->
<g id="node27" class="node">
<title>Node26</title>
<polygon fill="none" stroke="#bfbfbf" points="1250,-67.5 1250,-86.5 1306,-86.5 1306,-67.5 1250,-67.5"/>
<text text-anchor="middle" x="1278" y="-74.5" font-family="Helvetica,sans-Serif" font-size="10.00" fill="#000000">iomanip</text>
</g>
<!-- Node25&#45;&gt;Node26 -->
<g id="edge32" class="edge">
<title>Node25&#45;&gt;Node26</title>
<path fill="none" stroke="#191970" d="M1278,-123.2977C1278,-115.3834 1278,-105.6043 1278,-97.0759"/>
<polygon fill="#191970" stroke="#191970" points="1281.5001,-96.8469 1278,-86.8469 1274.5001,-96.847 1281.5001,-96.8469"/>
</g>
<!-- Node27 -->
<g id="node28" class="node">
<title>Node27</title>
<polygon fill="none" stroke="#bfbfbf" points="1324,-67.5 1324,-86.5 1382,-86.5 1382,-67.5 1324,-67.5"/>
<text text-anchor="middle" x="1353" y="-74.5" font-family="Helvetica,sans-Serif" font-size="10.00" fill="#000000">memory</text>
</g>
<!-- Node25&#45;&gt;Node27 -->
<g id="edge33" class="edge">
<title>Node25&#45;&gt;Node27</title>
<path fill="none" stroke="#191970" d="M1296.5393,-123.2977C1307.6008,-114.2274 1321.6491,-102.7077 1332.9653,-93.4285"/>
<polygon fill="#191970" stroke="#191970" points="1335.4781,-95.8942 1340.9916,-86.8469 1331.0396,-90.4813 1335.4781,-95.8942"/>
</g>
<!-- Node28 -->
<g id="node29" class="node">
<title>Node28</title>
<polygon fill="none" stroke="#bfbfbf" points="1400,-67.5 1400,-86.5 1456,-86.5 1456,-67.5 1400,-67.5"/>
<text text-anchor="middle" x="1428" y="-74.5" font-family="Helvetica,sans-Serif" font-size="10.00" fill="#000000">TMath.h</text>
</g>
<!-- Node25&#45;&gt;Node28 -->
<g id="edge34" class="edge">
<title>Node25&#45;&gt;Node28</title>
<path fill="none" stroke="#191970" d="M1314.6941,-123.4554C1339.3927,-113.329 1371.6674,-100.0964 1395.4506,-90.3453"/>
<polygon fill="#191970" stroke="#191970" points="1396.8306,-93.5623 1404.7553,-86.5303 1394.175,-87.0855 1396.8306,-93.5623"/>
</g>
<!-- Node29 -->
<g id="node30" class="node">
<title>Node29</title>
<polygon fill="none" stroke="#bfbfbf" points="1474,-67.5 1474,-86.5 1542,-86.5 1542,-67.5 1474,-67.5"/>
<text text-anchor="middle" x="1508" y="-74.5" font-family="Helvetica,sans-Serif" font-size="10.00" fill="#000000">TVector2.h</text>
</g>
<!-- Node25&#45;&gt;Node29 -->
<g id="edge36" class="edge">
<title>Node25&#45;&gt;Node29</title>
<path fill="none" stroke="#191970" d="M1334.2643,-123.4554C1374.1366,-112.7939 1426.8856,-98.6893 1463.7589,-88.8297"/>
<polygon fill="#191970" stroke="#191970" points="1464.9577,-92.1322 1473.7142,-86.1677 1463.1495,-85.3697 1464.9577,-92.1322"/>
</g>
<!-- Node30 -->
<g id="node31" class="node">
<title>Node30</title>
<polygon fill="none" stroke="#bfbfbf" points="1157.5,-67.5 1157.5,-86.5 1232.5,-86.5 1232.5,-67.5 1157.5,-67.5"/>
<text text-anchor="middle" x="1195" y="-74.5" font-family="Helvetica,sans-Serif" font-size="10.00" fill="#000000">FairLogger.h</text>
</g>
<!-- Node25&#45;&gt;Node30 -->
<g id="edge37" class="edge">
<title>Node25&#45;&gt;Node30</title>
<path fill="none" stroke="#191970" d="M1257.4831,-123.2977C1245.0018,-114.0495 1229.0841,-102.2551 1216.4386,-92.8853"/>
<polygon fill="#191970" stroke="#191970" points="1218.4078,-89.9882 1208.2894,-86.8469 1214.2404,-95.6126 1218.4078,-89.9882"/>
</g>
</g>
</svg>
        <g id="navigator" transform="translate(0 0)" fill="#404254">
                <rect fill="#f2f5e9" fill-opacity="0.5" stroke="#606060" stroke-width=".5" x="0" y="0" width="60" height="60"/>
                <use id="zoomplus" xlink:href="#zoomPlus" x="17" y="9" onmousedown="handleZoom(evt,'in')"/>
                <use id="zoomminus" xlink:href="#zoomMin" x="42" y="9" onmousedown="handleZoom(evt,'out')"/>
                <use id="reset" xlink:href="#resetDef" x="30" y="36" onmousedown="handleReset()"/>
                <g id="arrowUp" xlink:href="#dirArrow" transform="translate(30 24)" onmousedown="handlePan(0,-1)">
                  <use xlink:href="#rim" fill="#404040">
                        <set attributeName="fill" to="#808080" begin="arrowUp.mouseover" end="arrowUp.mouseout"/>
                  </use>
                  <path fill="none" stroke="white" stroke-width="1.5" d="M0,-3.0v7 M-2.5,-0.5L0,-3.0L2.5,-0.5"/>
                </g>
                <g id="arrowRight" xlink:href="#dirArrow" transform="rotate(90) translate(36 -43)" onmousedown="handlePan(1,0)">
                  <use xlink:href="#rim" fill="#404040">
                        <set attributeName="fill" to="#808080" begin="arrowRight.mouseover" end="arrowRight.mouseout"/>
                  </use>
                  <path fill="none" stroke="white" stroke-width="1.5" d="M0,-3.0v7 M-2.5,-0.5L0,-3.0L2.5,-0.5"/>
                </g>
                <g id="arrowDown" xlink:href="#dirArrow" transform="rotate(180) translate(-30 -48)" onmousedown="handlePan(0,1)">
                  <use xlink:href="#rim" fill="#404040">
                        <set attributeName="fill" to="#808080" begin="arrowDown.mouseover" end="arrowDown.mouseout"/>
                  </use>
                  <path fill="none" stroke="white" stroke-width="1.5" d="M0,-3.0v7 M-2.5,-0.5L0,-3.0L2.5,-0.5"/>
                </g>
                <g id="arrowLeft" xlink:href="#dirArrow" transform="rotate(270) translate(-36 17)" onmousedown="handlePan(-1,0)">
                  <use xlink:href="#rim" fill="#404040">
                        <set attributeName="fill" to="#808080" begin="arrowLeft.mouseover" end="arrowLeft.mouseout"/>
                  </use>
                  <path fill="none" stroke="white" stroke-width="1.5" d="M0,-3.0v7 M-2.5,-0.5L0,-3.0L2.5,-0.5"/>
                </g>
        </g>
        <svg viewBox="0 0 15 15" width="100%" height="30px" preserveAspectRatio="xMaxYMin meet">
         <g id="arrow_out" transform="scale(0.3 0.3)">
          <a xlink:href="ShishKebabTrd1Module_8cxx__incl_org.svg" target="_base">
           <rect id="button" ry="5" rx="5" y="6" x="6" height="38" width="38"
                fill="#f2f5e9" fill-opacity="0.5" stroke="#606060" stroke-width="1.0"/>
           <path id="arrow"
             d="M 11.500037,31.436501 C 11.940474,20.09759 22.043105,11.32322 32.158766,21.979434 L 37.068811,17.246167 C 37.068811,17.246167 37.088388,32 37.088388,32 L 22.160133,31.978069 C 22.160133,31.978069 26.997745,27.140456 26.997745,27.140456 C 18.528582,18.264221 13.291696,25.230495 11.500037,31.436501 z"
             style="fill:#404040;"/>
          </a>
         </g>
        </svg>
</svg>
