<?xml version="1.0" encoding="UTF-8" standalone="no"?>
<!DOCTYPE svg PUBLIC "-//W3C//DTD SVG 1.1//EN"
 "http://www.w3.org/Graphics/SVG/1.1/DTD/svg11.dtd">
<!-- Generated by graphviz version 2.40.1 (20161225.0304)
 -->
<!-- Title: /home/travis/build/AliceO2Group/AliceO2/Detectors/TRD/simulation/include/TRDSimulation/Detector.h Pages: 1 -->
<svg width="2633pt" height="318pt"
 viewBox="0.00 0.00 2633.00 318.00" xmlns="http://www.w3.org/2000/svg" xmlns:xlink="http://www.w3.org/1999/xlink">
<g id="graph0" class="graph" transform="scale(1 1) rotate(0) translate(4 314)">
<title>/home/travis/build/AliceO2Group/AliceO2/Detectors/TRD/simulation/include/TRDSimulation/Detector.h</title>
<!-- Node0 -->
<g id="node1" class="node">
<title>Node0</title>
<polygon fill="#bfbfbf" stroke="#000000" points="1591,-257.5 1591,-309.5 1775,-309.5 1775,-257.5 1591,-257.5"/>
<text text-anchor="start" x="1599" y="-297.5" font-family="Helvetica,sans-Serif" font-size="10.00" fill="#000000">/home/travis/build</text>
<text text-anchor="start" x="1599" y="-286.5" font-family="Helvetica,sans-Serif" font-size="10.00" fill="#000000">/AliceO2Group/AliceO2</text>
<text text-anchor="start" x="1599" y="-275.5" font-family="Helvetica,sans-Serif" font-size="10.00" fill="#000000">/Detectors/TRD/simulation</text>
<text text-anchor="middle" x="1683" y="-264.5" font-family="Helvetica,sans-Serif" font-size="10.00" fill="#000000">/include/TRDSimulation/Detector.h</text>
</g>
<!-- Node1 -->
<g id="node2" class="node">
<title>Node1</title>
<polygon fill="none" stroke="#bfbfbf" points="1156.5,-134.5 1156.5,-153.5 1203.5,-153.5 1203.5,-134.5 1156.5,-134.5"/>
<text text-anchor="middle" x="1180" y="-141.5" font-family="Helvetica,sans-Serif" font-size="10.00" fill="#000000">vector</text>
</g>
<!-- Node0&#45;&gt;Node1 -->
<g id="edge1" class="edge">
<title>Node0&#45;&gt;Node1</title>
<path fill="none" stroke="#191970" d="M1590.6771,-259.1272C1497.7524,-234.3643 1350.1235,-194.3943 1213.5511,-154.3979"/>
<polygon fill="#191970" stroke="#191970" points="1214.3188,-150.9756 1203.7379,-151.5183 1212.3478,-157.6924 1214.3188,-150.9756"/>
</g>
<!-- Node2 -->
<g id="node3" class="node">
<title>Node2</title>
<g id="a_node3"><a xlink:href="../../d1/d3a/Base_2include_2DetectorsBase_2Detector_8h.html" target="_top" xlink:title="DetectorsBase/Detector.h">
<polygon fill="none" stroke="#000000" points="1780.5,-196 1780.5,-215 1921.5,-215 1921.5,-196 1780.5,-196"/>
<text text-anchor="middle" x="1851" y="-203" font-family="Helvetica,sans-Serif" font-size="10.00" fill="#000000">DetectorsBase/Detector.h</text>
</a>
</g>
</g>
<!-- Node0&#45;&gt;Node2 -->
<g id="edge2" class="edge">
<title>Node0&#45;&gt;Node2</title>
<path fill="none" stroke="#191970" d="M1739.4089,-257.3101C1766.7668,-244.6083 1798.5173,-229.867 1821.1397,-219.3637"/>
<polygon fill="#191970" stroke="#191970" points="1822.6405,-222.5258 1830.2367,-215.1401 1819.6927,-216.1767 1822.6405,-222.5258"/>
</g>
<!-- Node23 -->
<g id="node24" class="node">
<title>Node23</title>
<g id="a_node24"><a xlink:href="../../d0/d91/ShmAllocator_8h.html" target="_top" xlink:title="CommonUtils/ShmAllocator.h">
<polygon fill="none" stroke="#000000" points="2465,-134.5 2465,-153.5 2625,-153.5 2625,-134.5 2465,-134.5"/>
<text text-anchor="middle" x="2545" y="-141.5" font-family="Helvetica,sans-Serif" font-size="10.00" fill="#000000">CommonUtils/ShmAllocator.h</text>
</a>
</g>
</g>
<!-- Node0&#45;&gt;Node23 -->
<g id="edge45" class="edge">
<title>Node0&#45;&gt;Node23</title>
<path fill="none" stroke="#191970" d="M1775.2491,-268.5711C1949.1089,-240.4348 2321.6364,-180.1476 2475.9028,-155.1822"/>
<polygon fill="#191970" stroke="#191970" points="2476.8734,-158.5708 2486.1858,-153.5181 2475.755,-151.6607 2476.8734,-158.5708"/>
</g>
<!-- Node27 -->
<g id="node28" class="node">
<title>Node27</title>
<g id="a_node28"><a xlink:href="../../d4/d25/BaseHits_8h.html" target="_top" xlink:title="SimulationDataFormat\l/BaseHits.h">
<polygon fill="none" stroke="#000000" points="1162.5,-190.5 1162.5,-220.5 1289.5,-220.5 1289.5,-190.5 1162.5,-190.5"/>
<text text-anchor="start" x="1170.5" y="-208.5" font-family="Helvetica,sans-Serif" font-size="10.00" fill="#000000">SimulationDataFormat</text>
<text text-anchor="middle" x="1226" y="-197.5" font-family="Helvetica,sans-Serif" font-size="10.00" fill="#000000">/BaseHits.h</text>
</a>
</g>
</g>
<!-- Node0&#45;&gt;Node27 -->
<g id="edge33" class="edge">
<title>Node0&#45;&gt;Node27</title>
<path fill="none" stroke="#191970" d="M1590.7942,-267.7625C1505.0315,-253.1246 1378.901,-231.5969 1299.6681,-218.0736"/>
<polygon fill="#191970" stroke="#191970" points="1300.2123,-214.6159 1289.766,-216.3835 1299.0346,-221.5161 1300.2123,-214.6159"/>
</g>
<!-- Node2&#45;&gt;Node1 -->
<g id="edge4" class="edge">
<title>Node2&#45;&gt;Node1</title>
<path fill="none" stroke="#191970" d="M1780.3416,-201.7929C1641.4758,-194.1897 1336.4899,-175.8426 1213.5446,-153.8836"/>
<polygon fill="#191970" stroke="#191970" points="1214.0886,-150.4247 1203.6151,-152.0232 1212.7995,-157.3049 1214.0886,-150.4247"/>
</g>
<!-- Node3 -->
<g id="node4" class="node">
<title>Node3</title>
<polygon fill="none" stroke="#bfbfbf" points="1692,-73 1692,-92 1730,-92 1730,-73 1692,-73"/>
<text text-anchor="middle" x="1711" y="-80" font-family="Helvetica,sans-Serif" font-size="10.00" fill="#000000">map</text>
</g>
<!-- Node2&#45;&gt;Node3 -->
<g id="edge3" class="edge">
<title>Node2&#45;&gt;Node3</title>
<path fill="none" stroke="#191970" d="M1803.6568,-195.9642C1778.4459,-188.5544 1748.8395,-175.739 1730,-154 1717.5454,-139.6286 1713.1418,-117.9637 1711.6425,-102.2492"/>
<polygon fill="#191970" stroke="#191970" points="1715.1213,-101.8041 1710.9905,-92.0478 1708.1356,-102.2507 1715.1213,-101.8041"/>
</g>
<!-- Node4 -->
<g id="node5" class="node">
<title>Node4</title>
<polygon fill="none" stroke="#bfbfbf" points="1807.5,-73 1807.5,-92 1890.5,-92 1890.5,-73 1807.5,-73"/>
<text text-anchor="middle" x="1849" y="-80" font-family="Helvetica,sans-Serif" font-size="10.00" fill="#000000">initializer_list</text>
</g>
<!-- Node2&#45;&gt;Node4 -->
<g id="edge5" class="edge">
<title>Node2&#45;&gt;Node4</title>
<path fill="none" stroke="#191970" d="M1861.8764,-195.7484C1875.4074,-182.3691 1895.8331,-157.3186 1888,-134 1883.691,-121.1723 1874.7804,-108.9963 1866.5631,-99.7072"/>
<polygon fill="#191970" stroke="#191970" points="1869.0483,-97.2408 1859.6533,-92.3434 1863.9437,-102.0307 1869.0483,-97.2408"/>
</g>
<!-- Node5 -->
<g id="node6" class="node">
<title>Node5</title>
<polygon fill="none" stroke="#bfbfbf" points="1973,-134.5 1973,-153.5 2031,-153.5 2031,-134.5 1973,-134.5"/>
<text text-anchor="middle" x="2002" y="-141.5" font-family="Helvetica,sans-Serif" font-size="10.00" fill="#000000">memory</text>
</g>
<!-- Node2&#45;&gt;Node5 -->
<g id="edge6" class="edge">
<title>Node2&#45;&gt;Node5</title>
<path fill="none" stroke="#191970" d="M1874.5938,-195.8906C1899.9696,-185.5554 1940.5081,-169.0447 1969.0293,-157.4284"/>
<polygon fill="#191970" stroke="#191970" points="1970.6308,-160.5554 1978.5719,-153.5419 1967.9904,-154.0725 1970.6308,-160.5554"/>
</g>
<!-- Node6 -->
<g id="node7" class="node">
<title>Node6</title>
<polygon fill="none" stroke="#bfbfbf" points="2049,-134.5 2049,-153.5 2133,-153.5 2133,-134.5 2049,-134.5"/>
<text text-anchor="middle" x="2091" y="-141.5" font-family="Helvetica,sans-Serif" font-size="10.00" fill="#000000">FairDetector.h</text>
</g>
<!-- Node2&#45;&gt;Node6 -->
<g id="edge7" class="edge">
<title>Node2&#45;&gt;Node6</title>
<path fill="none" stroke="#191970" d="M1888.2367,-195.9581C1930.0994,-185.2308 1998.1628,-167.7895 2043.7415,-156.11"/>
<polygon fill="#191970" stroke="#191970" points="2044.8578,-159.4371 2053.676,-153.5643 2043.1201,-152.6562 2044.8578,-159.4371"/>
</g>
<!-- Node7 -->
<g id="node8" class="node">
<title>Node7</title>
<polygon fill="none" stroke="#bfbfbf" points="2151,-134.5 2151,-153.5 2257,-153.5 2257,-134.5 2151,-134.5"/>
<text text-anchor="middle" x="2204" y="-141.5" font-family="Helvetica,sans-Serif" font-size="10.00" fill="#000000">FairRootManager.h</text>
</g>
<!-- Node2&#45;&gt;Node7 -->
<g id="edge8" class="edge">
<title>Node2&#45;&gt;Node7</title>
<path fill="none" stroke="#191970" d="M1905.7689,-195.9581C1969.3175,-184.8866 2073.9155,-166.6634 2140.8387,-155.004"/>
<polygon fill="#191970" stroke="#191970" points="2141.5858,-158.4267 2150.8366,-153.2622 2140.3843,-151.5305 2141.5858,-158.4267"/>
</g>
<!-- Node8 -->
<g id="node9" class="node">
<title>Node8</title>
<g id="a_node9"><a xlink:href="../../d0/d9a/MaterialManager_8h.html" target="_top" xlink:title="DetectorsBase/MaterialManager.h">
<polygon fill="none" stroke="#000000" points="1501.5,-134.5 1501.5,-153.5 1682.5,-153.5 1682.5,-134.5 1501.5,-134.5"/>
<text text-anchor="middle" x="1592" y="-141.5" font-family="Helvetica,sans-Serif" font-size="10.00" fill="#000000">DetectorsBase/MaterialManager.h</text>
</a>
</g>
</g>
<!-- Node2&#45;&gt;Node8 -->
<g id="edge9" class="edge">
<title>Node2&#45;&gt;Node8</title>
<path fill="none" stroke="#191970" d="M1810.8154,-195.9581C1765.3539,-185.1632 1691.2598,-167.5694 1642.0727,-155.8899"/>
<polygon fill="#191970" stroke="#191970" points="1642.8169,-152.4693 1632.2788,-153.5643 1641.1997,-159.28 1642.8169,-152.4693"/>
</g>
<!-- Node9 -->
<g id="node10" class="node">
<title>Node9</title>
<polygon fill="none" stroke="#bfbfbf" points="1503.5,-73 1503.5,-92 1562.5,-92 1562.5,-73 1503.5,-73"/>
<text text-anchor="middle" x="1533" y="-80" font-family="Helvetica,sans-Serif" font-size="10.00" fill="#000000">Rtypes.h</text>
</g>
<!-- Node2&#45;&gt;Node9 -->
<g id="edge15" class="edge">
<title>Node2&#45;&gt;Node9</title>
<path fill="none" stroke="#191970" d="M1780.1854,-200.2727C1680.9754,-192.2198 1510.584,-175.4402 1492,-154 1477.3412,-137.0883 1495.8986,-114.1522 1512.5563,-98.8659"/>
<polygon fill="#191970" stroke="#191970" points="1515.1681,-101.2335 1520.4272,-92.0361 1510.5804,-95.9465 1515.1681,-101.2335"/>
</g>
<!-- Node12 -->
<g id="node13" class="node">
<title>Node12</title>
<polygon fill="none" stroke="#bfbfbf" points="2275,-134.5 2275,-153.5 2333,-153.5 2333,-134.5 2275,-134.5"/>
<text text-anchor="middle" x="2304" y="-141.5" font-family="Helvetica,sans-Serif" font-size="10.00" fill="#000000">cxxabi.h</text>
</g>
<!-- Node2&#45;&gt;Node12 -->
<g id="edge16" class="edge">
<title>Node2&#45;&gt;Node12</title>
<path fill="none" stroke="#191970" d="M1921.5743,-199.6436C2002.3278,-192.292 2138.6324,-177.9013 2264.4346,-154.0987"/>
<polygon fill="#191970" stroke="#191970" points="2265.4686,-157.4643 2274.6308,-152.1441 2264.1507,-150.5895 2265.4686,-157.4643"/>
</g>
<!-- Node13 -->
<g id="node14" class="node">
<title>Node13</title>
<polygon fill="none" stroke="#bfbfbf" points="2351.5,-134.5 2351.5,-153.5 2408.5,-153.5 2408.5,-134.5 2351.5,-134.5"/>
<text text-anchor="middle" x="2380" y="-141.5" font-family="Helvetica,sans-Serif" font-size="10.00" fill="#000000">typeinfo</text>
</g>
<!-- Node2&#45;&gt;Node13 -->
<g id="edge17" class="edge">
<title>Node2&#45;&gt;Node13</title>
<path fill="none" stroke="#191970" d="M1921.8147,-201.4809C2015.6242,-195.3991 2186.2906,-181.7088 2341.2857,-153.8623"/>
<polygon fill="#191970" stroke="#191970" points="2342.2602,-157.2425 2351.4714,-152.0076 2341.0061,-150.3558 2342.2602,-157.2425"/>
</g>
<!-- Node14 -->
<g id="node15" class="node">
<title>Node14</title>
<polygon fill="none" stroke="#bfbfbf" points="1221.5,-134.5 1221.5,-153.5 1290.5,-153.5 1290.5,-134.5 1221.5,-134.5"/>
<text text-anchor="middle" x="1256" y="-141.5" font-family="Helvetica,sans-Serif" font-size="10.00" fill="#000000">type_traits</text>
</g>
<!-- Node2&#45;&gt;Node14 -->
<g id="edge18" class="edge">
<title>Node2&#45;&gt;Node14</title>
<path fill="none" stroke="#191970" d="M1780.1775,-201.8389C1676.8845,-195.8444 1478.7737,-181.8749 1300.5883,-153.8909"/>
<polygon fill="#191970" stroke="#191970" points="1300.9298,-150.4013 1290.5045,-152.2887 1299.8313,-157.3146 1300.9298,-150.4013"/>
</g>
<!-- Node15 -->
<g id="node16" class="node">
<title>Node15</title>
<polygon fill="none" stroke="#bfbfbf" points="1309,-134.5 1309,-153.5 1353,-153.5 1353,-134.5 1309,-134.5"/>
<text text-anchor="middle" x="1331" y="-141.5" font-family="Helvetica,sans-Serif" font-size="10.00" fill="#000000">string</text>
</g>
<!-- Node2&#45;&gt;Node15 -->
<g id="edge19" class="edge">
<title>Node2&#45;&gt;Node15</title>
<path fill="none" stroke="#191970" d="M1780.2397,-202.645C1686.5544,-197.8468 1516.2942,-185.5946 1363.2562,-153.8871"/>
<polygon fill="#191970" stroke="#191970" points="1363.7084,-150.4056 1353.2018,-151.7703 1362.2662,-157.2555 1363.7084,-150.4056"/>
</g>
<!-- Node16 -->
<g id="node17" class="node">
<title>Node16</title>
<polygon fill="none" stroke="#bfbfbf" points="1371,-134.5 1371,-153.5 1445,-153.5 1445,-134.5 1371,-134.5"/>
<text text-anchor="middle" x="1408" y="-141.5" font-family="Helvetica,sans-Serif" font-size="10.00" fill="#000000">TMessage.h</text>
</g>
<!-- Node2&#45;&gt;Node16 -->
<g id="edge20" class="edge">
<title>Node2&#45;&gt;Node16</title>
<path fill="none" stroke="#191970" d="M1780.3443,-197.5756C1701.7029,-188.44 1570.9407,-172.3092 1459,-154 1457.7478,-153.7952 1456.4793,-153.5827 1455.2,-153.364"/>
<polygon fill="#191970" stroke="#191970" points="1455.7346,-149.9042 1445.2747,-151.59 1454.5029,-156.795 1455.7346,-149.9042"/>
</g>
<!-- Node17 -->
<g id="node18" class="node">
<title>Node17</title>
<g id="a_node18"><a xlink:href="../../de/d61/ShmManager_8h.html" target="_top" xlink:title="CommonUtils/ShmManager.h">
<polygon fill="none" stroke="#000000" points="2101,-73 2101,-92 2259,-92 2259,-73 2101,-73"/>
<text text-anchor="middle" x="2180" y="-80" font-family="Helvetica,sans-Serif" font-size="10.00" fill="#000000">CommonUtils/ShmManager.h</text>
</a>
</g>
</g>
<!-- Node2&#45;&gt;Node17 -->
<g id="edge21" class="edge">
<title>Node2&#45;&gt;Node17</title>
<path fill="none" stroke="#191970" d="M1863.1226,-195.9026C1883.037,-180.597 1924.4268,-150.6894 1964,-134 2009.3814,-114.8611 2063.2631,-101.9985 2105.8584,-93.9145"/>
<polygon fill="#191970" stroke="#191970" points="2106.6786,-97.3223 2115.8751,-92.0616 2105.4052,-90.439 2106.6786,-97.3223"/>
</g>
<!-- Node2&#45;&gt;Node23 -->
<g id="edge27" class="edge">
<title>Node2&#45;&gt;Node23</title>
<path fill="none" stroke="#191970" d="M1921.7022,-199.9004C2033.9409,-190.9055 2259.7709,-172.3768 2451,-154 2452.1231,-153.8921 2453.2537,-153.7827 2454.3906,-153.6721"/>
<polygon fill="#191970" stroke="#191970" points="2455.1515,-157.114 2464.7585,-152.6468 2454.4625,-150.148 2455.1515,-157.114"/>
</g>
<!-- Node24 -->
<g id="node25" class="node">
<title>Node24</title>
<polygon fill="none" stroke="#bfbfbf" points="2465,-73 2465,-92 2517,-92 2517,-73 2465,-73"/>
<text text-anchor="middle" x="2491" y="-80" font-family="Helvetica,sans-Serif" font-size="10.00" fill="#000000">cassert</text>
</g>
<!-- Node2&#45;&gt;Node24 -->
<g id="edge32" class="edge">
<title>Node2&#45;&gt;Node24</title>
<path fill="none" stroke="#191970" d="M1921.6418,-201.7028C2063.435,-193.6998 2372.9585,-174.1706 2417,-154 2442.8642,-142.1545 2465.1844,-117.38 2478.3618,-100.3446"/>
<polygon fill="#191970" stroke="#191970" points="2481.2235,-102.3618 2484.3897,-92.2511 2475.6095,-98.1805 2481.2235,-102.3618"/>
</g>
<!-- Node25 -->
<g id="node26" class="node">
<title>Node25</title>
<polygon fill="none" stroke="#bfbfbf" points="1739,-134.5 1739,-153.5 1805,-153.5 1805,-134.5 1739,-134.5"/>
<text text-anchor="middle" x="1772" y="-141.5" font-family="Helvetica,sans-Serif" font-size="10.00" fill="#000000">sys/shm.h</text>
</g>
<!-- Node2&#45;&gt;Node25 -->
<g id="edge30" class="edge">
<title>Node2&#45;&gt;Node25</title>
<path fill="none" stroke="#191970" d="M1838.6563,-195.8906C1826.2497,-186.2324 1806.9157,-171.1812 1792.2587,-159.771"/>
<polygon fill="#191970" stroke="#191970" points="1794.2979,-156.923 1784.2571,-153.5419 1789.9979,-162.4466 1794.2979,-156.923"/>
</g>
<!-- Node26 -->
<g id="node27" class="node">
<title>Node26</title>
<polygon fill="none" stroke="#bfbfbf" points="1823,-134.5 1823,-153.5 1879,-153.5 1879,-134.5 1823,-134.5"/>
<text text-anchor="middle" x="1851" y="-141.5" font-family="Helvetica,sans-Serif" font-size="10.00" fill="#000000">unistd.h</text>
</g>
<!-- Node2&#45;&gt;Node26 -->
<g id="edge31" class="edge">
<title>Node2&#45;&gt;Node26</title>
<path fill="none" stroke="#191970" d="M1851,-195.8906C1851,-187.3657 1851,-174.6392 1851,-163.9235"/>
<polygon fill="#191970" stroke="#191970" points="1854.5001,-163.7448 1851,-153.7449 1847.5001,-163.7449 1854.5001,-163.7448"/>
</g>
<!-- Node8&#45;&gt;Node3 -->
<g id="edge11" class="edge">
<title>Node8&#45;&gt;Node3</title>
<path fill="none" stroke="#191970" d="M1611.0147,-134.4087C1629.2662,-125.1725 1657.5848,-110.7628 1682,-98 1682.683,-97.643 1683.3746,-97.2805 1684.072,-96.9141"/>
<polygon fill="#191970" stroke="#191970" points="1686.0378,-99.8337 1693.2369,-92.0604 1682.7616,-93.6476 1686.0378,-99.8337"/>
</g>
<!-- Node8&#45;&gt;Node4 -->
<g id="edge13" class="edge">
<title>Node8&#45;&gt;Node4</title>
<path fill="none" stroke="#191970" d="M1631.8743,-134.4581C1676.8906,-123.6857 1750.1998,-106.1428 1799.0079,-94.4631"/>
<polygon fill="#191970" stroke="#191970" points="1800.1213,-97.7955 1809.0322,-92.0643 1798.4922,-90.9877 1800.1213,-97.7955"/>
</g>
<!-- Node8&#45;&gt;Node9 -->
<g id="edge10" class="edge">
<title>Node8&#45;&gt;Node9</title>
<path fill="none" stroke="#191970" d="M1582.7813,-134.3906C1573.9142,-125.1478 1560.3088,-110.966 1549.5611,-99.7628"/>
<polygon fill="#191970" stroke="#191970" points="1551.7973,-97.0381 1542.3487,-92.2449 1546.7459,-101.8841 1551.7973,-97.0381"/>
</g>
<!-- Node10 -->
<g id="node11" class="node">
<title>Node10</title>
<polygon fill="none" stroke="#bfbfbf" points="1580.5,-73 1580.5,-92 1673.5,-92 1673.5,-73 1580.5,-73"/>
<text text-anchor="middle" x="1627" y="-80" font-family="Helvetica,sans-Serif" font-size="10.00" fill="#000000">unordered_map</text>
</g>
<!-- Node8&#45;&gt;Node10 -->
<g id="edge12" class="edge">
<title>Node8&#45;&gt;Node10</title>
<path fill="none" stroke="#191970" d="M1597.4688,-134.3906C1602.5246,-125.5068 1610.1772,-112.0601 1616.4254,-101.0811"/>
<polygon fill="#191970" stroke="#191970" points="1619.5498,-102.6672 1621.4541,-92.2449 1613.466,-99.2048 1619.5498,-102.6672"/>
</g>
<!-- Node11 -->
<g id="node12" class="node">
<title>Node11</title>
<polygon fill="none" stroke="#bfbfbf" points="1436.5,-73 1436.5,-92 1485.5,-92 1485.5,-73 1436.5,-73"/>
<text text-anchor="middle" x="1461" y="-80" font-family="Helvetica,sans-Serif" font-size="10.00" fill="#000000">iosfwd</text>
</g>
<!-- Node8&#45;&gt;Node11 -->
<g id="edge14" class="edge">
<title>Node8&#45;&gt;Node11</title>
<path fill="none" stroke="#191970" d="M1571.5313,-134.3906C1549.8048,-124.1908 1515.2665,-107.9763 1490.5815,-96.3875"/>
<polygon fill="#191970" stroke="#191970" points="1491.8645,-93.1234 1481.325,-92.0419 1488.8897,-99.4598 1491.8645,-93.1234"/>
</g>
<!-- Node18 -->
<g id="node19" class="node">
<title>Node18</title>
<polygon fill="none" stroke="#bfbfbf" points="2033,-6 2033,-25 2065,-25 2065,-6 2033,-6"/>
<text text-anchor="middle" x="2049" y="-13" font-family="Helvetica,sans-Serif" font-size="10.00" fill="#000000">list</text>
</g>
<!-- Node17&#45;&gt;Node18 -->
<g id="edge22" class="edge">
<title>Node17&#45;&gt;Node18</title>
<path fill="none" stroke="#191970" d="M2158.5566,-72.8701C2136.9096,-62.966 2102.6711,-46.7985 2074,-31 2073.5863,-30.772 2073.1698,-30.5403 2072.7513,-30.3054"/>
<polygon fill="#191970" stroke="#191970" points="2074.3138,-27.1635 2063.9222,-25.0979 2070.7576,-33.1929 2074.3138,-27.1635"/>
</g>
<!-- Node19 -->
<g id="node20" class="node">
<title>Node19</title>
<polygon fill="none" stroke="#bfbfbf" points="2083.5,-6 2083.5,-25 2136.5,-25 2136.5,-6 2083.5,-6"/>
<text text-anchor="middle" x="2110" y="-13" font-family="Helvetica,sans-Serif" font-size="10.00" fill="#000000">cstddef</text>
</g>
<!-- Node17&#45;&gt;Node19 -->
<g id="edge23" class="edge">
<title>Node17&#45;&gt;Node19</title>
<path fill="none" stroke="#191970" d="M2169.9707,-72.9005C2158.8469,-62.2535 2140.7013,-44.8856 2127.279,-32.0385"/>
<polygon fill="#191970" stroke="#191970" points="2129.655,-29.4678 2120.0107,-25.0817 2124.8148,-34.5247 2129.655,-29.4678"/>
</g>
<!-- Node20 -->
<g id="node21" class="node">
<title>Node20</title>
<polygon fill="none" stroke="#bfbfbf" points="2155,-6 2155,-25 2205,-25 2205,-6 2155,-6"/>
<text text-anchor="middle" x="2180" y="-13" font-family="Helvetica,sans-Serif" font-size="10.00" fill="#000000">atomic</text>
</g>
<!-- Node17&#45;&gt;Node20 -->
<g id="edge24" class="edge">
<title>Node17&#45;&gt;Node20</title>
<path fill="none" stroke="#191970" d="M2180,-72.9005C2180,-63.149 2180,-47.7597 2180,-35.3695"/>
<polygon fill="#191970" stroke="#191970" points="2183.5001,-35.0816 2180,-25.0817 2176.5001,-35.0817 2183.5001,-35.0816"/>
</g>
<!-- Node21 -->
<g id="node22" class="node">
<title>Node21</title>
<polygon fill="none" stroke="#bfbfbf" points="2223.5,-.5 2223.5,-30.5 2388.5,-30.5 2388.5,-.5 2223.5,-.5"/>
<text text-anchor="start" x="2231.5" y="-18.5" font-family="Helvetica,sans-Serif" font-size="10.00" fill="#000000">boost/interprocess</text>
<text text-anchor="middle" x="2306" y="-7.5" font-family="Helvetica,sans-Serif" font-size="10.00" fill="#000000">/managed_external_buffer.hpp</text>
</g>
<!-- Node17&#45;&gt;Node21 -->
<g id="edge25" class="edge">
<title>Node17&#45;&gt;Node21</title>
<path fill="none" stroke="#191970" d="M2198.0527,-72.9005C2216.435,-63.1258 2245.4701,-47.6865 2268.7995,-35.2812"/>
<polygon fill="#191970" stroke="#191970" points="2270.564,-38.3071 2277.7501,-30.5218 2267.2775,-32.1265 2270.564,-38.3071"/>
</g>
<!-- Node22 -->
<g id="node23" class="node">
<title>Node22</title>
<polygon fill="none" stroke="#bfbfbf" points="2407,-.5 2407,-30.5 2541,-30.5 2541,-.5 2407,-.5"/>
<text text-anchor="start" x="2415" y="-18.5" font-family="Helvetica,sans-Serif" font-size="10.00" fill="#000000">boost/interprocess</text>
<text text-anchor="middle" x="2474" y="-7.5" font-family="Helvetica,sans-Serif" font-size="10.00" fill="#000000">/allocators/allocator.hpp</text>
</g>
<!-- Node17&#45;&gt;Node22 -->
<g id="edge26" class="edge">
<title>Node17&#45;&gt;Node22</title>
<path fill="none" stroke="#191970" d="M2221.8108,-72.9717C2267.5738,-62.5427 2341.8988,-45.6047 2398.0321,-32.8124"/>
<polygon fill="#191970" stroke="#191970" points="2398.9639,-36.1899 2407.9362,-30.5553 2397.4085,-29.3649 2398.9639,-36.1899"/>
</g>
<!-- Node23&#45;&gt;Node17 -->
<g id="edge28" class="edge">
<title>Node23&#45;&gt;Node17</title>
<path fill="none" stroke="#191970" d="M2488.3692,-134.4581C2423.0026,-123.4443 2315.632,-105.3531 2246.3927,-93.6867"/>
<polygon fill="#191970" stroke="#191970" points="2246.9059,-90.2239 2236.4633,-92.0137 2245.7428,-97.1266 2246.9059,-90.2239"/>
</g>
<!-- Node23&#45;&gt;Node24 -->
<g id="edge29" class="edge">
<title>Node23&#45;&gt;Node24</title>
<path fill="none" stroke="#191970" d="M2536.5625,-134.3906C2528.4469,-125.1478 2515.9945,-110.966 2506.1576,-99.7628"/>
<polygon fill="#191970" stroke="#191970" points="2508.7846,-97.45 2499.5565,-92.2449 2503.5245,-102.0686 2508.7846,-97.45"/>
</g>
<!-- Node28 -->
<g id="node29" class="node">
<title>Node28</title>
<g id="a_node29"><a xlink:href="../../dc/d73/Cartesian_8h.html" target="_top" xlink:title="MathUtils/Cartesian.h">
<polygon fill="none" stroke="#000000" points="967,-134.5 967,-153.5 1089,-153.5 1089,-134.5 967,-134.5"/>
<text text-anchor="middle" x="1028" y="-141.5" font-family="Helvetica,sans-Serif" font-size="10.00" fill="#000000">MathUtils/Cartesian.h</text>
</a>
</g>
</g>
<!-- Node27&#45;&gt;Node28 -->
<g id="edge34" class="edge">
<title>Node27&#45;&gt;Node28</title>
<path fill="none" stroke="#191970" d="M1177.5638,-190.4554C1144.0922,-180.059 1100.0798,-166.3884 1068.4781,-156.5727"/>
<polygon fill="#191970" stroke="#191970" points="1069.2711,-153.1542 1058.683,-153.5303 1067.1947,-159.8391 1069.2711,-153.1542"/>
</g>
<!-- Node28&#45;&gt;Node9 -->
<g id="edge42" class="edge">
<title>Node28&#45;&gt;Node9</title>
<path fill="none" stroke="#191970" d="M1089.1097,-138.9271C1206.5483,-129.0373 1455.5873,-107.3328 1494,-98 1496.7878,-97.3227 1499.6406,-96.487 1502.4725,-95.5578"/>
<polygon fill="#191970" stroke="#191970" points="1503.6932,-98.8382 1511.8953,-92.1319 1501.3013,-92.2595 1503.6932,-98.8382"/>
</g>
<!-- Node28&#45;&gt;Node11 -->
<g id="edge44" class="edge">
<title>Node28&#45;&gt;Node11</title>
<path fill="none" stroke="#191970" d="M1089.1621,-138.0108C1192.9061,-127.6936 1395.2575,-106.828 1427,-98 1428.9688,-97.4525 1430.9678,-96.805 1432.9598,-96.0905"/>
<polygon fill="#191970" stroke="#191970" points="1434.7585,-99.1363 1442.6895,-92.1114 1432.1087,-92.6572 1434.7585,-99.1363"/>
</g>
<!-- Node29 -->
<g id="node30" class="node">
<title>Node29</title>
<polygon fill="none" stroke="#bfbfbf" points="0,-67.5 0,-97.5 164,-97.5 164,-67.5 0,-67.5"/>
<text text-anchor="start" x="8" y="-85.5" font-family="Helvetica,sans-Serif" font-size="10.00" fill="#000000">Math/GenVector/Displacement</text>
<text text-anchor="middle" x="82" y="-74.5" font-family="Helvetica,sans-Serif" font-size="10.00" fill="#000000">Vector3D.h</text>
</g>
<!-- Node28&#45;&gt;Node29 -->
<g id="edge35" class="edge">
<title>Node28&#45;&gt;Node29</title>
<path fill="none" stroke="#191970" d="M966.8958,-143.121C827.9193,-140.6019 477.3806,-131.3159 174.5787,-98.092"/>
<polygon fill="#191970" stroke="#191970" points="174.6046,-94.5735 164.2799,-96.9506 173.8335,-101.5309 174.6046,-94.5735"/>
</g>
<!-- Node30 -->
<g id="node31" class="node">
<title>Node30</title>
<polygon fill="none" stroke="#bfbfbf" points="182.5,-73 182.5,-92 371.5,-92 371.5,-73 182.5,-73"/>
<text text-anchor="middle" x="277" y="-80" font-family="Helvetica,sans-Serif" font-size="10.00" fill="#000000">Math/GenVector/PositionVector3D.h</text>
</g>
<!-- Node28&#45;&gt;Node30 -->
<g id="edge36" class="edge">
<title>Node28&#45;&gt;Node30</title>
<path fill="none" stroke="#191970" d="M966.754,-141.2195C851.7282,-135.6484 595.6372,-121.5893 381,-98 369.5618,-96.7429 357.451,-95.1651 345.6923,-93.5008"/>
<polygon fill="#191970" stroke="#191970" points="345.8736,-89.9906 335.4753,-92.0218 344.8707,-96.9184 345.8736,-89.9906"/>
</g>
<!-- Node31 -->
<g id="node32" class="node">
<title>Node31</title>
<polygon fill="none" stroke="#bfbfbf" points="390,-73 390,-92 550,-92 550,-73 390,-73"/>
<text text-anchor="middle" x="470" y="-80" font-family="Helvetica,sans-Serif" font-size="10.00" fill="#000000">Math/GenVector/Rotation3D.h</text>
</g>
<!-- Node28&#45;&gt;Node31 -->
<g id="edge37" class="edge">
<title>Node28&#45;&gt;Node31</title>
<path fill="none" stroke="#191970" d="M966.7462,-139.4599C877.0294,-132.4779 704.7212,-117.8073 559,-98 549.8696,-96.7589 540.2426,-95.2712 530.8278,-93.7153"/>
<polygon fill="#191970" stroke="#191970" points="531.1719,-90.2239 520.7285,-92.0087 530.0056,-97.1261 531.1719,-90.2239"/>
</g>
<!-- Node32 -->
<g id="node33" class="node">
<title>Node32</title>
<polygon fill="none" stroke="#bfbfbf" points="568,-73 568,-92 736,-92 736,-73 568,-73"/>
<text text-anchor="middle" x="652" y="-80" font-family="Helvetica,sans-Serif" font-size="10.00" fill="#000000">Math/GenVector/Transform3D.h</text>
</g>
<!-- Node28&#45;&gt;Node32 -->
<g id="edge38" class="edge">
<title>Node28&#45;&gt;Node32</title>
<path fill="none" stroke="#191970" d="M968.9079,-134.4657C911.6482,-125.2104 822.3574,-110.7334 745,-98 736.6418,-96.6242 727.8624,-95.1712 719.1737,-93.7285"/>
<polygon fill="#191970" stroke="#191970" points="719.4848,-90.2323 709.0462,-92.0449 718.3368,-97.1375 719.4848,-90.2323"/>
</g>
<!-- Node33 -->
<g id="node34" class="node">
<title>Node33</title>
<polygon fill="none" stroke="#bfbfbf" points="754.5,-73 754.5,-92 927.5,-92 927.5,-73 754.5,-73"/>
<text text-anchor="middle" x="841" y="-80" font-family="Helvetica,sans-Serif" font-size="10.00" fill="#000000">Math/GenVector/Translation3D.h</text>
</g>
<!-- Node28&#45;&gt;Node33 -->
<g id="edge39" class="edge">
<title>Node28&#45;&gt;Node33</title>
<path fill="none" stroke="#191970" d="M998.7813,-134.3906C966.6693,-123.8298 914.951,-106.8208 879.5392,-95.1747"/>
<polygon fill="#191970" stroke="#191970" points="880.6065,-91.8413 870.0136,-92.0419 878.4196,-98.4909 880.6065,-91.8413"/>
</g>
<!-- Node34 -->
<g id="node35" class="node">
<title>Node34</title>
<polygon fill="none" stroke="#bfbfbf" points="946,-67.5 946,-97.5 1110,-97.5 1110,-67.5 946,-67.5"/>
<text text-anchor="start" x="954" y="-85.5" font-family="Helvetica,sans-Serif" font-size="10.00" fill="#000000">Math/GenVector/Displacement</text>
<text text-anchor="middle" x="1028" y="-74.5" font-family="Helvetica,sans-Serif" font-size="10.00" fill="#000000">Vector2D.h</text>
</g>
<!-- Node28&#45;&gt;Node34 -->
<g id="edge40" class="edge">
<title>Node28&#45;&gt;Node34</title>
<path fill="none" stroke="#191970" d="M1028,-134.3906C1028,-127.2234 1028,-117.0862 1028,-107.671"/>
<polygon fill="#191970" stroke="#191970" points="1031.5001,-107.5446 1028,-97.5446 1024.5001,-107.5446 1031.5001,-107.5446"/>
</g>
<!-- Node35 -->
<g id="node36" class="node">
<title>Node35</title>
<polygon fill="none" stroke="#bfbfbf" points="1128.5,-73 1128.5,-92 1317.5,-92 1317.5,-73 1128.5,-73"/>
<text text-anchor="middle" x="1223" y="-80" font-family="Helvetica,sans-Serif" font-size="10.00" fill="#000000">Math/GenVector/PositionVector2D.h</text>
</g>
<!-- Node28&#45;&gt;Node35 -->
<g id="edge41" class="edge">
<title>Node28&#45;&gt;Node35</title>
<path fill="none" stroke="#191970" d="M1058.4688,-134.3906C1091.9544,-123.8298 1145.8853,-106.8208 1182.812,-95.1747"/>
<polygon fill="#191970" stroke="#191970" points="1184.261,-98.3877 1192.7452,-92.0419 1182.1555,-91.7118 1184.261,-98.3877"/>
</g>
<!-- Node36 -->
<g id="node37" class="node">
<title>Node36</title>
<polygon fill="none" stroke="#bfbfbf" points="1336,-73 1336,-92 1418,-92 1418,-73 1336,-73"/>
<text text-anchor="middle" x="1377" y="-80" font-family="Helvetica,sans-Serif" font-size="10.00" fill="#000000">TGeoMatrix.h</text>
</g>
<!-- Node28&#45;&gt;Node36 -->
<g id="edge43" class="edge">
<title>Node28&#45;&gt;Node36</title>
<path fill="none" stroke="#191970" d="M1089.2618,-137.1242C1149.8449,-129.7206 1244.9743,-116.4682 1326,-98 1330.0602,-97.0746 1334.2688,-95.9955 1338.4483,-94.8455"/>
<polygon fill="#191970" stroke="#191970" points="1339.4253,-98.2064 1348.0637,-92.0721 1337.4854,-91.4806 1339.4253,-98.2064"/>
</g>
</g>
</svg>
