<?xml version="1.0" encoding="UTF-8" standalone="no"?>
<!DOCTYPE svg PUBLIC "-//W3C//DTD SVG 1.1//EN"
 "http://www.w3.org/Graphics/SVG/1.1/DTD/svg11.dtd">
<!-- Generated by graphviz version 2.40.1 (20161225.0304)
 -->
<!-- Title: /home/travis/build/AliceO2Group/AliceO2/Common/Field/src/MagFieldFact.cxx Pages: 1 -->
<svg width="2220pt" height="397pt"
 viewBox="0.00 0.00 2219.50 397.00" xmlns="http://www.w3.org/2000/svg" xmlns:xlink="http://www.w3.org/1999/xlink">
<g id="graph0" class="graph" transform="scale(1 1) rotate(0) translate(4 393)">
<title>/home/travis/build/AliceO2Group/AliceO2/Common/Field/src/MagFieldFact.cxx</title>
<!-- Node0 -->
<g id="node1" class="node">
<title>Node0</title>
<polygon fill="#bfbfbf" stroke="#000000" points="1792,-347.5 1792,-388.5 1984,-388.5 1984,-347.5 1792,-347.5"/>
<text text-anchor="start" x="1800" y="-376.5" font-family="Helvetica,sans-Serif" font-size="10.00" fill="#000000">/home/travis/build</text>
<text text-anchor="start" x="1800" y="-365.5" font-family="Helvetica,sans-Serif" font-size="10.00" fill="#000000">/AliceO2Group/AliceO2</text>
<text text-anchor="middle" x="1888" y="-354.5" font-family="Helvetica,sans-Serif" font-size="10.00" fill="#000000">/Common/Field/src/MagFieldFact.cxx</text>
</g>
<!-- Node1 -->
<g id="node2" class="node">
<title>Node1</title>
<g id="a_node2"><a xlink:href="../../da/d34/MagFieldFact_8h.html" target="_top" xlink:title="Definition of the MagFieldFact: factory for ALIDE mag. field from MagFieldParam. ">
<polygon fill="none" stroke="#000000" points="1708.5,-291.5 1708.5,-310.5 1821.5,-310.5 1821.5,-291.5 1708.5,-291.5"/>
<text text-anchor="middle" x="1765" y="-298.5" font-family="Helvetica,sans-Serif" font-size="10.00" fill="#000000">Field/MagFieldFact.h</text>
</a>
</g>
</g>
<!-- Node0&#45;&gt;Node1 -->
<g id="edge1" class="edge">
<title>Node0&#45;&gt;Node1</title>
<path fill="none" stroke="#191970" d="M1850.0923,-347.3511C1831.153,-337.0346 1808.6954,-324.8015 1791.6081,-315.4939"/>
<polygon fill="#191970" stroke="#191970" points="1793.1801,-312.3646 1782.7242,-310.6546 1789.8316,-318.5118 1793.1801,-312.3646"/>
</g>
<!-- Node3 -->
<g id="node4" class="node">
<title>Node3</title>
<g id="a_node4"><a xlink:href="../../db/d4b/MagneticField_8h.html" target="_top" xlink:title="Definition of the MagF class. ">
<polygon fill="none" stroke="#000000" points="1742,-235.5 1742,-254.5 1860,-254.5 1860,-235.5 1742,-235.5"/>
<text text-anchor="middle" x="1801" y="-242.5" font-family="Helvetica,sans-Serif" font-size="10.00" fill="#000000">Field/MagneticField.h</text>
</a>
</g>
</g>
<!-- Node0&#45;&gt;Node3 -->
<g id="edge46" class="edge">
<title>Node0&#45;&gt;Node3</title>
<path fill="none" stroke="#191970" d="M1873.4382,-347.4126C1856.6873,-323.7303 1829.4588,-285.2348 1813.5883,-262.7972"/>
<polygon fill="#191970" stroke="#191970" points="1816.3645,-260.6612 1807.7324,-254.5182 1810.6496,-264.7035 1816.3645,-260.6612"/>
</g>
<!-- Node4 -->
<g id="node5" class="node">
<title>Node4</title>
<polygon fill="none" stroke="#bfbfbf" points="1344.5,-179.5 1344.5,-198.5 1409.5,-198.5 1409.5,-179.5 1344.5,-179.5"/>
<text text-anchor="middle" x="1377" y="-186.5" font-family="Helvetica,sans-Serif" font-size="10.00" fill="#000000">FairField.h</text>
</g>
<!-- Node0&#45;&gt;Node4 -->
<g id="edge42" class="edge">
<title>Node0&#45;&gt;Node4</title>
<path fill="none" stroke="#191970" d="M1815.379,-347.3771C1780.0728,-337.0262 1737.129,-323.9555 1699,-311 1592.2533,-274.7296 1468.0346,-225.6896 1410.0174,-202.378"/>
<polygon fill="#191970" stroke="#191970" points="1411.2128,-199.0863 1400.6292,-198.5979 1408.5982,-205.5797 1411.2128,-199.0863"/>
</g>
<!-- Node5 -->
<g id="node6" class="node">
<title>Node5</title>
<g id="a_node6"><a xlink:href="../../d3/d91/MagFieldParam_8h.html" target="_top" xlink:title="Definition of the MagFieldParam: container for ALICE mag. field parameters. ">
<polygon fill="none" stroke="#000000" points="2062.5,-179.5 2062.5,-198.5 2187.5,-198.5 2187.5,-179.5 2062.5,-179.5"/>
<text text-anchor="middle" x="2125" y="-186.5" font-family="Helvetica,sans-Serif" font-size="10.00" fill="#000000">Field/MagFieldParam.h</text>
</a>
</g>
</g>
<!-- Node0&#45;&gt;Node5 -->
<g id="edge45" class="edge">
<title>Node0&#45;&gt;Node5</title>
<path fill="none" stroke="#191970" d="M1888.6728,-347.1889C1890.2378,-330.322 1894.8567,-306.8355 1908,-291 1948.9156,-241.7034 2019.0603,-214.8149 2068.5045,-201.2083"/>
<polygon fill="#191970" stroke="#191970" points="2069.643,-204.5275 2078.4125,-198.5822 2067.8496,-197.7611 2069.643,-204.5275"/>
</g>
<!-- Node30 -->
<g id="node31" class="node">
<title>Node30</title>
<polygon fill="none" stroke="#bfbfbf" points="1916.5,-291.5 1916.5,-310.5 1991.5,-310.5 1991.5,-291.5 1916.5,-291.5"/>
<text text-anchor="middle" x="1954" y="-298.5" font-family="Helvetica,sans-Serif" font-size="10.00" fill="#000000">FairLogger.h</text>
</g>
<!-- Node0&#45;&gt;Node30 -->
<g id="edge43" class="edge">
<title>Node0&#45;&gt;Node30</title>
<path fill="none" stroke="#191970" d="M1908.521,-347.168C1917.7695,-337.7794 1928.5516,-326.834 1937.2957,-317.9574"/>
<polygon fill="#191970" stroke="#191970" points="1939.8412,-320.3607 1944.3655,-310.7805 1934.8544,-315.4483 1939.8412,-320.3607"/>
</g>
<!-- Node31 -->
<g id="node32" class="node">
<title>Node31</title>
<polygon fill="none" stroke="#bfbfbf" points="2009.5,-291.5 2009.5,-310.5 2106.5,-310.5 2106.5,-291.5 2009.5,-291.5"/>
<text text-anchor="middle" x="2058" y="-298.5" font-family="Helvetica,sans-Serif" font-size="10.00" fill="#000000">FairRuntimeDb.h</text>
</g>
<!-- Node0&#45;&gt;Node31 -->
<g id="edge44" class="edge">
<title>Node0&#45;&gt;Node31</title>
<path fill="none" stroke="#191970" d="M1940.3928,-347.3511C1967.6596,-336.6047 2000.2031,-323.7788 2024.1371,-314.346"/>
<polygon fill="#191970" stroke="#191970" points="2025.483,-317.5776 2033.5032,-310.6546 2022.9163,-311.0651 2025.483,-317.5776"/>
</g>
<!-- Node32 -->
<g id="node33" class="node">
<title>Node32</title>
<polygon fill="none" stroke="#bfbfbf" points="2125,-291.5 2125,-310.5 2185,-310.5 2185,-291.5 2125,-291.5"/>
<text text-anchor="middle" x="2155" y="-298.5" font-family="Helvetica,sans-Serif" font-size="10.00" fill="#000000">iostream</text>
</g>
<!-- Node0&#45;&gt;Node32 -->
<g id="edge47" class="edge">
<title>Node0&#45;&gt;Node32</title>
<path fill="none" stroke="#191970" d="M1970.6126,-347.4741C2011.3852,-337.3134 2061.5614,-324.7646 2114.7967,-311.2955"/>
<polygon fill="#191970" stroke="#191970" points="2115.9359,-314.6176 2124.7709,-308.7702 2114.2177,-307.8317 2115.9359,-314.6176"/>
</g>
<!-- Node2 -->
<g id="node3" class="node">
<title>Node2</title>
<polygon fill="none" stroke="#bfbfbf" points="1624.5,-235.5 1624.5,-254.5 1723.5,-254.5 1723.5,-235.5 1624.5,-235.5"/>
<text text-anchor="middle" x="1674" y="-242.5" font-family="Helvetica,sans-Serif" font-size="10.00" fill="#000000">FairFieldFactory.h</text>
</g>
<!-- Node1&#45;&gt;Node2 -->
<g id="edge2" class="edge">
<title>Node1&#45;&gt;Node2</title>
<path fill="none" stroke="#191970" d="M1749.149,-291.2455C1735.1868,-282.6534 1714.6272,-270.0014 1698.5404,-260.1018"/>
<polygon fill="#191970" stroke="#191970" points="1700.0203,-256.9029 1689.6693,-254.6427 1696.3516,-262.8645 1700.0203,-256.9029"/>
</g>
<!-- Node1&#45;&gt;Node3 -->
<g id="edge3" class="edge">
<title>Node1&#45;&gt;Node3</title>
<path fill="none" stroke="#191970" d="M1771.2707,-291.2455C1776.2264,-283.5367 1783.283,-272.5598 1789.2776,-263.2348"/>
<polygon fill="#191970" stroke="#191970" points="1792.3376,-264.9471 1794.8011,-254.6427 1786.4494,-261.1618 1792.3376,-264.9471"/>
</g>
<!-- Node3&#45;&gt;Node4 -->
<g id="edge4" class="edge">
<title>Node3&#45;&gt;Node4</title>
<path fill="none" stroke="#191970" d="M1741.9198,-236.3284C1738.565,-235.87 1735.2405,-235.4241 1732,-235 1595.3447,-217.1145 1559.994,-221.3651 1424,-199 1422.5337,-198.7589 1421.0439,-198.5029 1419.541,-198.2352"/>
<polygon fill="#191970" stroke="#191970" points="1420.0193,-194.7636 1409.5416,-196.3347 1418.7121,-201.6404 1420.0193,-194.7636"/>
</g>
<!-- Node3&#45;&gt;Node5 -->
<g id="edge5" class="edge">
<title>Node3&#45;&gt;Node5</title>
<path fill="none" stroke="#191970" d="M1856.3294,-235.4369C1912.7115,-225.6918 2000.1258,-210.5832 2059.827,-200.2645"/>
<polygon fill="#191970" stroke="#191970" points="2060.641,-203.6758 2069.8988,-198.5237 2059.4487,-196.778 2060.641,-203.6758"/>
</g>
<!-- Node8 -->
<g id="node9" class="node">
<title>Node8</title>
<g id="a_node9"><a xlink:href="../../dd/dfb/MagneticWrapperChebyshev_8h.html" target="_top" xlink:title="Field/MagneticWrapperChebyshev.h">
<polygon fill="none" stroke="#000000" points="1633.5,-179.5 1633.5,-198.5 1822.5,-198.5 1822.5,-179.5 1633.5,-179.5"/>
<text text-anchor="middle" x="1728" y="-186.5" font-family="Helvetica,sans-Serif" font-size="10.00" fill="#000000">Field/MagneticWrapperChebyshev.h</text>
</a>
</g>
</g>
<!-- Node3&#45;&gt;Node8 -->
<g id="edge8" class="edge">
<title>Node3&#45;&gt;Node8</title>
<path fill="none" stroke="#191970" d="M1788.2844,-235.2455C1777.398,-226.8943 1761.5117,-214.7076 1748.78,-204.9408"/>
<polygon fill="#191970" stroke="#191970" points="1750.6346,-201.9523 1740.5699,-198.6427 1746.3739,-207.5063 1750.6346,-201.9523"/>
</g>
<!-- Node10 -->
<g id="node11" class="node">
<title>Node10</title>
<polygon fill="none" stroke="#bfbfbf" points="1860.5,-6 1860.5,-25 1927.5,-25 1927.5,-6 1860.5,-6"/>
<text text-anchor="middle" x="1894" y="-13" font-family="Helvetica,sans-Serif" font-size="10.00" fill="#000000">TNamed.h</text>
</g>
<!-- Node3&#45;&gt;Node10 -->
<g id="edge40" class="edge">
<title>Node3&#45;&gt;Node10</title>
<path fill="none" stroke="#191970" d="M1860.4419,-237.0066C1909.5325,-229.3129 1974.2384,-216.3007 1994,-199 2034.1182,-163.8775 2027.2817,-139.4272 2037,-87 2038.6201,-78.26 2042.1108,-74.2727 2037,-67 2025.1967,-50.2038 1974.915,-34.8 1937.2892,-25.3008"/>
<polygon fill="#191970" stroke="#191970" points="1938.0889,-21.8932 1927.5419,-22.8989 1936.414,-28.6899 1938.0889,-21.8932"/>
</g>
<!-- Node15 -->
<g id="node16" class="node">
<title>Node15</title>
<polygon fill="none" stroke="#bfbfbf" points="1503.5,-6 1503.5,-25 1562.5,-25 1562.5,-6 1503.5,-6"/>
<text text-anchor="middle" x="1533" y="-13" font-family="Helvetica,sans-Serif" font-size="10.00" fill="#000000">Rtypes.h</text>
</g>
<!-- Node3&#45;&gt;Node15 -->
<g id="edge39" class="edge">
<title>Node3&#45;&gt;Node15</title>
<path fill="none" stroke="#191970" d="M1749.6832,-235.4886C1705.1028,-226.5412 1644.5509,-212.5324 1624,-199 1571.3569,-164.3353 1559.0954,-146.0316 1537,-87 1530.7487,-70.2986 1530.2469,-49.8662 1531.0142,-35.127"/>
<polygon fill="#191970" stroke="#191970" points="1534.5066,-35.3581 1531.7741,-25.1218 1527.5267,-34.8279 1534.5066,-35.3581"/>
</g>
<!-- Node16 -->
<g id="node17" class="node">
<title>Node16</title>
<g id="a_node17"><a xlink:href="../../da/df4/MagFieldFast_8h.html" target="_top" xlink:title="Definition of the fast magnetic field parametrization MagFieldFast. ">
<polygon fill="none" stroke="#000000" points="1327.5,-123.5 1327.5,-142.5 1440.5,-142.5 1440.5,-123.5 1327.5,-123.5"/>
<text text-anchor="middle" x="1384" y="-130.5" font-family="Helvetica,sans-Serif" font-size="10.00" fill="#000000">Field/MagFieldFast.h</text>
</a>
</g>
</g>
<!-- Node3&#45;&gt;Node16 -->
<g id="edge24" class="edge">
<title>Node3&#45;&gt;Node16</title>
<path fill="none" stroke="#191970" d="M1741.9113,-236.3913C1738.5587,-235.9169 1735.237,-235.4503 1732,-235 1612.0929,-218.3178 1572.6681,-248.0772 1462,-199 1436.8247,-187.8357 1413.4978,-165.9393 1399.0362,-150.4336"/>
<polygon fill="#191970" stroke="#191970" points="1401.255,-147.6677 1391.9586,-142.5855 1396.0566,-152.3557 1401.255,-147.6677"/>
</g>
<!-- Node28 -->
<g id="node29" class="node">
<title>Node28</title>
<polygon fill="none" stroke="#bfbfbf" points="1841,-179.5 1841,-198.5 1909,-198.5 1909,-179.5 1841,-179.5"/>
<text text-anchor="middle" x="1875" y="-186.5" font-family="Helvetica,sans-Serif" font-size="10.00" fill="#000000">TSystem.h</text>
</g>
<!-- Node3&#45;&gt;Node28 -->
<g id="edge38" class="edge">
<title>Node3&#45;&gt;Node28</title>
<path fill="none" stroke="#191970" d="M1813.8898,-235.2455C1824.9254,-226.8943 1841.0292,-214.7076 1853.9353,-204.9408"/>
<polygon fill="#191970" stroke="#191970" points="1856.3959,-207.4681 1862.2579,-198.6427 1852.1717,-201.8862 1856.3959,-207.4681"/>
</g>
<!-- Node29 -->
<g id="node30" class="node">
<title>Node29</title>
<polygon fill="none" stroke="#bfbfbf" points="1927,-179.5 1927,-198.5 1985,-198.5 1985,-179.5 1927,-179.5"/>
<text text-anchor="middle" x="1956" y="-186.5" font-family="Helvetica,sans-Serif" font-size="10.00" fill="#000000">memory</text>
</g>
<!-- Node3&#45;&gt;Node29 -->
<g id="edge41" class="edge">
<title>Node3&#45;&gt;Node29</title>
<path fill="none" stroke="#191970" d="M1827.6454,-235.3733C1853.1964,-226.1419 1891.9512,-212.1402 1920.1909,-201.9375"/>
<polygon fill="#191970" stroke="#191970" points="1921.4865,-205.1909 1929.7022,-198.5011 1919.1079,-198.6074 1921.4865,-205.1909"/>
</g>
<!-- Node6 -->
<g id="node7" class="node">
<title>Node6</title>
<polygon fill="none" stroke="#bfbfbf" points="2100.5,-123.5 2100.5,-142.5 2211.5,-142.5 2211.5,-123.5 2100.5,-123.5"/>
<text text-anchor="middle" x="2156" y="-130.5" font-family="Helvetica,sans-Serif" font-size="10.00" fill="#000000">FairParGenericSet.h</text>
</g>
<!-- Node5&#45;&gt;Node6 -->
<g id="edge6" class="edge">
<title>Node5&#45;&gt;Node6</title>
<path fill="none" stroke="#191970" d="M2130.3998,-179.2455C2134.6227,-171.617 2140.6173,-160.7881 2145.7441,-151.5267"/>
<polygon fill="#191970" stroke="#191970" points="2148.881,-153.0867 2150.6621,-142.6427 2142.7568,-149.6965 2148.881,-153.0867"/>
</g>
<!-- Node7 -->
<g id="node8" class="node">
<title>Node7</title>
<polygon fill="none" stroke="#bfbfbf" points="1968,-67.5 1968,-86.5 2028,-86.5 2028,-67.5 1968,-67.5"/>
<text text-anchor="middle" x="1998" y="-74.5" font-family="Helvetica,sans-Serif" font-size="10.00" fill="#000000">TString.h</text>
</g>
<!-- Node5&#45;&gt;Node7 -->
<g id="edge7" class="edge">
<title>Node5&#45;&gt;Node7</title>
<path fill="none" stroke="#191970" d="M2114.1721,-179.4509C2092.4276,-160.2747 2043.2395,-116.8962 2016.3683,-93.1988"/>
<polygon fill="#191970" stroke="#191970" points="2018.6157,-90.5141 2008.8005,-86.5249 2013.9857,-95.7642 2018.6157,-90.5141"/>
</g>
<!-- Node9 -->
<g id="node10" class="node">
<title>Node9</title>
<polygon fill="none" stroke="#bfbfbf" points="1856,-123.5 1856,-142.5 1912,-142.5 1912,-123.5 1856,-123.5"/>
<text text-anchor="middle" x="1884" y="-130.5" font-family="Helvetica,sans-Serif" font-size="10.00" fill="#000000">TMath.h</text>
</g>
<!-- Node8&#45;&gt;Node9 -->
<g id="edge9" class="edge">
<title>Node8&#45;&gt;Node9</title>
<path fill="none" stroke="#191970" d="M1754.8174,-179.3733C1780.5332,-170.1419 1819.538,-156.1402 1847.9599,-145.9375"/>
<polygon fill="#191970" stroke="#191970" points="1849.3032,-149.174 1857.5326,-142.5011 1846.9381,-142.5857 1849.3032,-149.174"/>
</g>
<!-- Node8&#45;&gt;Node10 -->
<g id="edge10" class="edge">
<title>Node8&#45;&gt;Node10</title>
<path fill="none" stroke="#191970" d="M1811.107,-179.4733C1856.8071,-172.3371 1907.0176,-160.7067 1921,-143 1946.2272,-111.0535 1922.6626,-61.04 1906.425,-34.1303"/>
<polygon fill="#191970" stroke="#191970" points="1909.174,-31.928 1900.8782,-25.3378 1903.2537,-35.663 1909.174,-31.928"/>
</g>
<!-- Node11 -->
<g id="node12" class="node">
<title>Node11</title>
<polygon fill="none" stroke="#bfbfbf" points="1838.5,-67.5 1838.5,-86.5 1911.5,-86.5 1911.5,-67.5 1838.5,-67.5"/>
<text text-anchor="middle" x="1875" y="-74.5" font-family="Helvetica,sans-Serif" font-size="10.00" fill="#000000">TObjArray.h</text>
</g>
<!-- Node8&#45;&gt;Node11 -->
<g id="edge11" class="edge">
<title>Node8&#45;&gt;Node11</title>
<path fill="none" stroke="#191970" d="M1747.9479,-179.3504C1764.6893,-170.8346 1788.8666,-157.541 1808,-143 1827.3431,-128.2997 1846.8354,-108.3908 1859.7687,-94.2946"/>
<polygon fill="#191970" stroke="#191970" points="1862.4753,-96.5195 1866.5749,-86.7499 1857.2777,-91.8306 1862.4753,-96.5195"/>
</g>
<!-- Node12 -->
<g id="node13" class="node">
<title>Node12</title>
<g id="a_node13"><a xlink:href="../../d8/d64/Chebyshev3D_8h.html" target="_top" xlink:title="MathUtils/Chebyshev3D.h">
<polygon fill="none" stroke="#000000" points="1656.5,-123.5 1656.5,-142.5 1799.5,-142.5 1799.5,-123.5 1656.5,-123.5"/>
<text text-anchor="middle" x="1728" y="-130.5" font-family="Helvetica,sans-Serif" font-size="10.00" fill="#000000">MathUtils/Chebyshev3D.h</text>
</a>
</g>
</g>
<!-- Node8&#45;&gt;Node12 -->
<g id="edge12" class="edge">
<title>Node8&#45;&gt;Node12</title>
<path fill="none" stroke="#191970" d="M1728,-179.2455C1728,-171.9382 1728,-161.6944 1728,-152.7046"/>
<polygon fill="#191970" stroke="#191970" points="1731.5001,-152.6426 1728,-142.6427 1724.5001,-152.6427 1731.5001,-152.6426"/>
</g>
<!-- Node14 -->
<g id="node15" class="node">
<title>Node14</title>
<g id="a_node15"><a xlink:href="../../d4/d08/Chebyshev3DCalc_8h.html" target="_top" xlink:title="MathUtils/Chebyshev3DCalc.h">
<polygon fill="none" stroke="#000000" points="1580,-67.5 1580,-86.5 1744,-86.5 1744,-67.5 1580,-67.5"/>
<text text-anchor="middle" x="1662" y="-74.5" font-family="Helvetica,sans-Serif" font-size="10.00" fill="#000000">MathUtils/Chebyshev3DCalc.h</text>
</a>
</g>
</g>
<!-- Node8&#45;&gt;Node14 -->
<g id="edge22" class="edge">
<title>Node8&#45;&gt;Node14</title>
<path fill="none" stroke="#191970" d="M1695.3103,-179.4174C1677.6638,-172.3899 1657.4138,-160.8899 1647,-143 1638.5328,-128.4541 1644.2363,-109.524 1650.9039,-95.6693"/>
<polygon fill="#191970" stroke="#191970" points="1654.1168,-97.0829 1655.7405,-86.6132 1647.9422,-93.7852 1654.1168,-97.0829"/>
</g>
<!-- Node8&#45;&gt;Node15 -->
<g id="edge23" class="edge">
<title>Node8&#45;&gt;Node15</title>
<path fill="none" stroke="#191970" d="M1694.9566,-179.4689C1654.1499,-165.9021 1585.7633,-136.9576 1550,-87 1539.1228,-71.8058 1535.1272,-50.5958 1533.6994,-35.2259"/>
<polygon fill="#191970" stroke="#191970" points="1537.1914,-34.9885 1533.0518,-25.2359 1530.2061,-35.4414 1537.1914,-34.9885"/>
</g>
<!-- Node12&#45;&gt;Node7 -->
<g id="edge21" class="edge">
<title>Node12&#45;&gt;Node7</title>
<path fill="none" stroke="#191970" d="M1774.1079,-123.4369C1825.8538,-112.7044 1908.9661,-95.4663 1958.0503,-85.2859"/>
<polygon fill="#191970" stroke="#191970" points="1958.9035,-88.6835 1967.9843,-83.2255 1957.4819,-81.8293 1958.9035,-88.6835"/>
</g>
<!-- Node12&#45;&gt;Node10 -->
<g id="edge13" class="edge">
<title>Node12&#45;&gt;Node10</title>
<path fill="none" stroke="#191970" d="M1741.5845,-123.3845C1770.159,-103.1585 1836.7201,-56.0445 1871.6663,-31.3085"/>
<polygon fill="#191970" stroke="#191970" points="1874.0877,-33.8826 1880.2278,-25.2484 1870.0435,-28.1691 1874.0877,-33.8826"/>
</g>
<!-- Node12&#45;&gt;Node11 -->
<g id="edge14" class="edge">
<title>Node12&#45;&gt;Node11</title>
<path fill="none" stroke="#191970" d="M1753.2702,-123.3733C1777.3966,-114.1822 1813.9362,-100.2624 1840.6877,-90.0713"/>
<polygon fill="#191970" stroke="#191970" points="1841.9607,-93.3318 1850.0596,-86.5011 1839.4687,-86.7904 1841.9607,-93.3318"/>
</g>
<!-- Node13 -->
<g id="node14" class="node">
<title>Node13</title>
<polygon fill="none" stroke="#bfbfbf" points="1694,-6 1694,-25 1740,-25 1740,-6 1694,-6"/>
<text text-anchor="middle" x="1717" y="-13" font-family="Helvetica,sans-Serif" font-size="10.00" fill="#000000">cstdio</text>
</g>
<!-- Node12&#45;&gt;Node13 -->
<g id="edge15" class="edge">
<title>Node12&#45;&gt;Node13</title>
<path fill="none" stroke="#191970" d="M1736.0226,-123.2826C1745.5525,-110.5179 1759.403,-87.3357 1753,-67 1749.0368,-54.4129 1740.7807,-42.2221 1733.1737,-32.8636"/>
<polygon fill="#191970" stroke="#191970" points="1735.6921,-30.4245 1726.512,-25.1353 1730.39,-34.9949 1735.6921,-30.4245"/>
</g>
<!-- Node12&#45;&gt;Node14 -->
<g id="edge16" class="edge">
<title>Node12&#45;&gt;Node14</title>
<path fill="none" stroke="#191970" d="M1716.5037,-123.2455C1706.7558,-114.9746 1692.5741,-102.9416 1681.1202,-93.2232"/>
<polygon fill="#191970" stroke="#191970" points="1683.2541,-90.4437 1673.3646,-86.6427 1678.7253,-95.7813 1683.2541,-90.4437"/>
</g>
<!-- Node12&#45;&gt;Node15 -->
<g id="edge20" class="edge">
<title>Node12&#45;&gt;Node15</title>
<path fill="none" stroke="#191970" d="M1656.2888,-124.3483C1627.3208,-117.8996 1595.1117,-106.6444 1571,-87 1554.5504,-73.5981 1544.2883,-51.1444 1538.6357,-34.9715"/>
<polygon fill="#191970" stroke="#191970" points="1541.9555,-33.8619 1535.5681,-25.4089 1535.2901,-36.0001 1541.9555,-33.8619"/>
</g>
<!-- Node14&#45;&gt;Node10 -->
<g id="edge17" class="edge">
<title>Node14&#45;&gt;Node10</title>
<path fill="none" stroke="#191970" d="M1697.9954,-67.4581C1739.0862,-56.5655 1806.2907,-38.7505 1850.3375,-27.0743"/>
<polygon fill="#191970" stroke="#191970" points="1851.4164,-30.4093 1860.1857,-24.4637 1849.6227,-23.643 1851.4164,-30.4093"/>
</g>
<!-- Node14&#45;&gt;Node13 -->
<g id="edge18" class="edge">
<title>Node14&#45;&gt;Node13</title>
<path fill="none" stroke="#191970" d="M1670.5938,-67.3906C1678.8597,-58.1478 1691.5426,-43.966 1701.5617,-32.7628"/>
<polygon fill="#191970" stroke="#191970" points="1704.2278,-35.0321 1708.2851,-25.2449 1699.01,-30.3657 1704.2278,-35.0321"/>
</g>
<!-- Node14&#45;&gt;Node15 -->
<g id="edge19" class="edge">
<title>Node14&#45;&gt;Node15</title>
<path fill="none" stroke="#191970" d="M1641.8438,-67.3906C1620.449,-57.1908 1586.438,-40.9763 1562.1298,-29.3875"/>
<polygon fill="#191970" stroke="#191970" points="1563.5476,-26.186 1553.0147,-25.0419 1560.5352,-32.5047 1563.5476,-26.186"/>
</g>
<!-- Node16&#45;&gt;Node15 -->
<g id="edge25" class="edge">
<title>Node16&#45;&gt;Node15</title>
<path fill="none" stroke="#191970" d="M1382.7984,-123.2543C1381.6249,-109.176 1381.6326,-83.0785 1395,-67 1424.9312,-30.9983 1450.241,-47.6477 1494,-31 1495.8387,-30.3005 1497.7233,-29.5761 1499.6237,-28.8399"/>
<polygon fill="#191970" stroke="#191970" points="1501.084,-32.027 1509.1184,-25.1205 1498.5307,-25.5092 1501.084,-32.027"/>
</g>
<!-- Node17 -->
<g id="node18" class="node">
<title>Node17</title>
<polygon fill="none" stroke="#bfbfbf" points="1404,-67.5 1404,-86.5 1448,-86.5 1448,-67.5 1404,-67.5"/>
<text text-anchor="middle" x="1426" y="-74.5" font-family="Helvetica,sans-Serif" font-size="10.00" fill="#000000">string</text>
</g>
<!-- Node16&#45;&gt;Node17 -->
<g id="edge26" class="edge">
<title>Node16&#45;&gt;Node17</title>
<path fill="none" stroke="#191970" d="M1391.3158,-123.2455C1397.2179,-115.3761 1405.6742,-104.101 1412.7594,-94.6542"/>
<polygon fill="#191970" stroke="#191970" points="1415.568,-96.7427 1418.768,-86.6427 1409.9679,-92.5427 1415.568,-96.7427"/>
</g>
<!-- Node18 -->
<g id="node19" class="node">
<title>Node18</title>
<g id="a_node19"><a xlink:href="../../dc/d73/Cartesian_8h.html" target="_top" xlink:title="MathUtils/Cartesian.h">
<polygon fill="none" stroke="#000000" points="967,-67.5 967,-86.5 1089,-86.5 1089,-67.5 967,-67.5"/>
<text text-anchor="middle" x="1028" y="-74.5" font-family="Helvetica,sans-Serif" font-size="10.00" fill="#000000">MathUtils/Cartesian.h</text>
</a>
</g>
</g>
<!-- Node16&#45;&gt;Node18 -->
<g id="edge27" class="edge">
<title>Node16&#45;&gt;Node18</title>
<path fill="none" stroke="#191970" d="M1327.1971,-124.0647C1265.1126,-114.2986 1165.5665,-98.6397 1098.5282,-88.0943"/>
<polygon fill="#191970" stroke="#191970" points="1098.8929,-84.6087 1088.4705,-86.5122 1097.8051,-91.5237 1098.8929,-84.6087"/>
</g>
<!-- Node18&#45;&gt;Node15 -->
<g id="edge35" class="edge">
<title>Node18&#45;&gt;Node15</title>
<path fill="none" stroke="#191970" d="M1089.1305,-73.0973C1197.4502,-65.8274 1418.7546,-49.2818 1494,-31 1496.7878,-30.3227 1499.6406,-29.487 1502.4725,-28.5578"/>
<polygon fill="#191970" stroke="#191970" points="1503.6932,-31.8382 1511.8953,-25.1319 1501.3013,-25.2595 1503.6932,-31.8382"/>
</g>
<!-- Node19 -->
<g id="node20" class="node">
<title>Node19</title>
<polygon fill="none" stroke="#bfbfbf" points="0,-.5 0,-30.5 164,-30.5 164,-.5 0,-.5"/>
<text text-anchor="start" x="8" y="-18.5" font-family="Helvetica,sans-Serif" font-size="10.00" fill="#000000">Math/GenVector/Displacement</text>
<text text-anchor="middle" x="82" y="-7.5" font-family="Helvetica,sans-Serif" font-size="10.00" fill="#000000">Vector3D.h</text>
</g>
<!-- Node18&#45;&gt;Node19 -->
<g id="edge28" class="edge">
<title>Node18&#45;&gt;Node19</title>
<path fill="none" stroke="#191970" d="M966.8958,-76.121C827.9193,-73.6019 477.3806,-64.3159 174.5787,-31.092"/>
<polygon fill="#191970" stroke="#191970" points="174.6046,-27.5735 164.2799,-29.9506 173.8335,-34.5309 174.6046,-27.5735"/>
</g>
<!-- Node20 -->
<g id="node21" class="node">
<title>Node20</title>
<polygon fill="none" stroke="#bfbfbf" points="182.5,-6 182.5,-25 371.5,-25 371.5,-6 182.5,-6"/>
<text text-anchor="middle" x="277" y="-13" font-family="Helvetica,sans-Serif" font-size="10.00" fill="#000000">Math/GenVector/PositionVector3D.h</text>
</g>
<!-- Node18&#45;&gt;Node20 -->
<g id="edge29" class="edge">
<title>Node18&#45;&gt;Node20</title>
<path fill="none" stroke="#191970" d="M966.754,-74.2195C851.7282,-68.6484 595.6372,-54.5893 381,-31 369.5618,-29.7429 357.451,-28.1651 345.6923,-26.5008"/>
<polygon fill="#191970" stroke="#191970" points="345.8736,-22.9906 335.4753,-25.0218 344.8707,-29.9184 345.8736,-22.9906"/>
</g>
<!-- Node21 -->
<g id="node22" class="node">
<title>Node21</title>
<polygon fill="none" stroke="#bfbfbf" points="390,-6 390,-25 550,-25 550,-6 390,-6"/>
<text text-anchor="middle" x="470" y="-13" font-family="Helvetica,sans-Serif" font-size="10.00" fill="#000000">Math/GenVector/Rotation3D.h</text>
</g>
<!-- Node18&#45;&gt;Node21 -->
<g id="edge30" class="edge">
<title>Node18&#45;&gt;Node21</title>
<path fill="none" stroke="#191970" d="M966.7462,-72.4599C877.0294,-65.4779 704.7212,-50.8073 559,-31 549.8696,-29.7589 540.2426,-28.2712 530.8278,-26.7153"/>
<polygon fill="#191970" stroke="#191970" points="531.1719,-23.2239 520.7285,-25.0087 530.0056,-30.1261 531.1719,-23.2239"/>
</g>
<!-- Node22 -->
<g id="node23" class="node">
<title>Node22</title>
<polygon fill="none" stroke="#bfbfbf" points="568,-6 568,-25 736,-25 736,-6 568,-6"/>
<text text-anchor="middle" x="652" y="-13" font-family="Helvetica,sans-Serif" font-size="10.00" fill="#000000">Math/GenVector/Transform3D.h</text>
</g>
<!-- Node18&#45;&gt;Node22 -->
<g id="edge31" class="edge">
<title>Node18&#45;&gt;Node22</title>
<path fill="none" stroke="#191970" d="M968.9079,-67.4657C911.6482,-58.2104 822.3574,-43.7334 745,-31 736.6418,-29.6242 727.8624,-28.1712 719.1737,-26.7285"/>
<polygon fill="#191970" stroke="#191970" points="719.4848,-23.2323 709.0462,-25.0449 718.3368,-30.1375 719.4848,-23.2323"/>
</g>
<!-- Node23 -->
<g id="node24" class="node">
<title>Node23</title>
<polygon fill="none" stroke="#bfbfbf" points="754.5,-6 754.5,-25 927.5,-25 927.5,-6 754.5,-6"/>
<text text-anchor="middle" x="841" y="-13" font-family="Helvetica,sans-Serif" font-size="10.00" fill="#000000">Math/GenVector/Translation3D.h</text>
</g>
<!-- Node18&#45;&gt;Node23 -->
<g id="edge32" class="edge">
<title>Node18&#45;&gt;Node23</title>
<path fill="none" stroke="#191970" d="M998.7813,-67.3906C966.6693,-56.8298 914.951,-39.8208 879.5392,-28.1747"/>
<polygon fill="#191970" stroke="#191970" points="880.6065,-24.8413 870.0136,-25.0419 878.4196,-31.4909 880.6065,-24.8413"/>
</g>
<!-- Node24 -->
<g id="node25" class="node">
<title>Node24</title>
<polygon fill="none" stroke="#bfbfbf" points="946,-.5 946,-30.5 1110,-30.5 1110,-.5 946,-.5"/>
<text text-anchor="start" x="954" y="-18.5" font-family="Helvetica,sans-Serif" font-size="10.00" fill="#000000">Math/GenVector/Displacement</text>
<text text-anchor="middle" x="1028" y="-7.5" font-family="Helvetica,sans-Serif" font-size="10.00" fill="#000000">Vector2D.h</text>
</g>
<!-- Node18&#45;&gt;Node24 -->
<g id="edge33" class="edge">
<title>Node18&#45;&gt;Node24</title>
<path fill="none" stroke="#191970" d="M1028,-67.3906C1028,-60.2234 1028,-50.0862 1028,-40.671"/>
<polygon fill="#191970" stroke="#191970" points="1031.5001,-40.5446 1028,-30.5446 1024.5001,-40.5446 1031.5001,-40.5446"/>
</g>
<!-- Node25 -->
<g id="node26" class="node">
<title>Node25</title>
<polygon fill="none" stroke="#bfbfbf" points="1128.5,-6 1128.5,-25 1317.5,-25 1317.5,-6 1128.5,-6"/>
<text text-anchor="middle" x="1223" y="-13" font-family="Helvetica,sans-Serif" font-size="10.00" fill="#000000">Math/GenVector/PositionVector2D.h</text>
</g>
<!-- Node18&#45;&gt;Node25 -->
<g id="edge34" class="edge">
<title>Node18&#45;&gt;Node25</title>
<path fill="none" stroke="#191970" d="M1058.4688,-67.3906C1091.9544,-56.8298 1145.8853,-39.8208 1182.812,-28.1747"/>
<polygon fill="#191970" stroke="#191970" points="1184.261,-31.3877 1192.7452,-25.0419 1182.1555,-24.7118 1184.261,-31.3877"/>
</g>
<!-- Node26 -->
<g id="node27" class="node">
<title>Node26</title>
<polygon fill="none" stroke="#bfbfbf" points="1336,-6 1336,-25 1418,-25 1418,-6 1336,-6"/>
<text text-anchor="middle" x="1377" y="-13" font-family="Helvetica,sans-Serif" font-size="10.00" fill="#000000">TGeoMatrix.h</text>
</g>
<!-- Node18&#45;&gt;Node26 -->
<g id="edge36" class="edge">
<title>Node18&#45;&gt;Node26</title>
<path fill="none" stroke="#191970" d="M1089.2618,-70.1242C1149.8449,-62.7206 1244.9743,-49.4682 1326,-31 1330.0602,-30.0746 1334.2688,-28.9955 1338.4483,-27.8455"/>
<polygon fill="#191970" stroke="#191970" points="1339.4253,-31.2064 1348.0637,-25.0721 1337.4854,-24.4806 1339.4253,-31.2064"/>
</g>
<!-- Node27 -->
<g id="node28" class="node">
<title>Node27</title>
<polygon fill="none" stroke="#bfbfbf" points="1436.5,-6 1436.5,-25 1485.5,-25 1485.5,-6 1436.5,-6"/>
<text text-anchor="middle" x="1461" y="-13" font-family="Helvetica,sans-Serif" font-size="10.00" fill="#000000">iosfwd</text>
</g>
<!-- Node18&#45;&gt;Node27 -->
<g id="edge37" class="edge">
<title>Node18&#45;&gt;Node27</title>
<path fill="none" stroke="#191970" d="M1089.0966,-72.3044C1184.6485,-64.5649 1364.9425,-48.259 1427,-31 1428.9688,-30.4525 1430.9678,-29.805 1432.9598,-29.0905"/>
<polygon fill="#191970" stroke="#191970" points="1434.7585,-32.1363 1442.6895,-25.1114 1432.1087,-25.6572 1434.7585,-32.1363"/>
</g>
</g>
</svg>
