<?xml version="1.0" encoding="UTF-8" standalone="no"?>
<!DOCTYPE svg PUBLIC "-//W3C//DTD SVG 1.1//EN"
 "http://www.w3.org/Graphics/SVG/1.1/DTD/svg11.dtd">
<!-- Generated by graphviz version 2.40.1 (20161225.0304)
 -->
<!-- Title: /home/travis/build/AliceO2Group/AliceO2/Detectors/TRD/base/include/TRDBase/TRDGeometry.h Pages: 1 -->
<svg width="3332pt" height="486pt"
 viewBox="0.00 0.00 3332.00 486.00" xmlns="http://www.w3.org/2000/svg" xmlns:xlink="http://www.w3.org/1999/xlink">
<g id="graph0" class="graph" transform="scale(1 1) rotate(0) translate(4 482)">
<title>/home/travis/build/AliceO2Group/AliceO2/Detectors/TRD/base/include/TRDBase/TRDGeometry.h</title>
<!-- Node0 -->
<g id="node1" class="node">
<title>Node0</title>
<polygon fill="#bfbfbf" stroke="#000000" points="2302.4959,-425.5 2302.4959,-477.5 2457.4959,-477.5 2457.4959,-425.5 2302.4959,-425.5"/>
<text text-anchor="start" x="2310.4959" y="-465.5" font-family="Helvetica,sans-Serif" font-size="10.00" fill="#000000">/home/travis/build</text>
<text text-anchor="start" x="2310.4959" y="-454.5" font-family="Helvetica,sans-Serif" font-size="10.00" fill="#000000">/AliceO2Group/AliceO2</text>
<text text-anchor="start" x="2310.4959" y="-443.5" font-family="Helvetica,sans-Serif" font-size="10.00" fill="#000000">/Detectors/TRD/base/include</text>
<text text-anchor="middle" x="2379.9959" y="-432.5" font-family="Helvetica,sans-Serif" font-size="10.00" fill="#000000">/TRDBase/TRDGeometry.h</text>
</g>
<!-- Node1 -->
<g id="node2" class="node">
<title>Node1</title>
<g id="a_node2"><a xlink:href="../../d8/dad/TRDGeometryBase_8h.html" target="_top" xlink:title="TRDBase/TRDGeometryBase.h">
<polygon fill="none" stroke="#000000" points="194.9959,-364 194.9959,-383 360.9959,-383 360.9959,-364 194.9959,-364"/>
<text text-anchor="middle" x="277.9959" y="-371" font-family="Helvetica,sans-Serif" font-size="10.00" fill="#000000">TRDBase/TRDGeometryBase.h</text>
</a>
</g>
</g>
<!-- Node0&#45;&gt;Node1 -->
<g id="edge1" class="edge">
<title>Node0&#45;&gt;Node1</title>
<path fill="none" stroke="#191970" d="M2302.3775,-448.6198C1977.135,-436.5508 724.5219,-390.0695 371.2402,-376.9601"/>
<polygon fill="#191970" stroke="#191970" points="371.1752,-373.4553 361.0523,-376.582 370.9156,-380.4505 371.1752,-373.4553"/>
</g>
<!-- Node10 -->
<g id="node11" class="node">
<title>Node10</title>
<g id="a_node11"><a xlink:href="../../d4/d20/DetMatrixCache_8h.html" target="_top" xlink:title="DetectorsCommonDataFormats\l/DetMatrixCache.h">
<polygon fill="none" stroke="#000000" points="2012.4959,-358.5 2012.4959,-388.5 2183.4959,-388.5 2183.4959,-358.5 2012.4959,-358.5"/>
<text text-anchor="start" x="2020.4959" y="-376.5" font-family="Helvetica,sans-Serif" font-size="10.00" fill="#000000">DetectorsCommonDataFormats</text>
<text text-anchor="middle" x="2097.9959" y="-365.5" font-family="Helvetica,sans-Serif" font-size="10.00" fill="#000000">/DetMatrixCache.h</text>
</a>
</g>
</g>
<!-- Node0&#45;&gt;Node10 -->
<g id="edge12" class="edge">
<title>Node0&#45;&gt;Node10</title>
<path fill="none" stroke="#191970" d="M2302.1916,-429.9797C2258.1206,-417.7898 2203.664,-402.7274 2162.0743,-391.2238"/>
<polygon fill="#191970" stroke="#191970" points="2162.903,-387.8217 2152.3318,-388.5291 2161.0368,-394.5684 2162.903,-387.8217"/>
</g>
<!-- Node15 -->
<g id="node16" class="node">
<title>Node15</title>
<polygon fill="none" stroke="#bfbfbf" points="2185.4959,-297 2185.4959,-316 2232.4959,-316 2232.4959,-297 2185.4959,-297"/>
<text text-anchor="middle" x="2208.9959" y="-304" font-family="Helvetica,sans-Serif" font-size="10.00" fill="#000000">vector</text>
</g>
<!-- Node0&#45;&gt;Node15 -->
<g id="edge67" class="edge">
<title>Node0&#45;&gt;Node15</title>
<path fill="none" stroke="#191970" d="M2349.0291,-425.2416C2313.8146,-395.3814 2257.4183,-347.56 2228.0971,-322.6969"/>
<polygon fill="#191970" stroke="#191970" points="2230.1425,-319.8425 2220.2518,-316.0445 2225.6153,-325.1814 2230.1425,-319.8425"/>
</g>
<!-- Node26 -->
<g id="node27" class="node">
<title>Node26</title>
<g id="a_node27"><a xlink:href="../../d6/d31/DetID_8h.html" target="_top" xlink:title="DetectorsCommonDataFormats\l/DetID.h">
<polygon fill="none" stroke="#000000" points="2446.4959,-291.5 2446.4959,-321.5 2617.4959,-321.5 2617.4959,-291.5 2446.4959,-291.5"/>
<text text-anchor="start" x="2454.4959" y="-309.5" font-family="Helvetica,sans-Serif" font-size="10.00" fill="#000000">DetectorsCommonDataFormats</text>
<text text-anchor="middle" x="2531.9959" y="-298.5" font-family="Helvetica,sans-Serif" font-size="10.00" fill="#000000">/DetID.h</text>
</a>
</g>
</g>
<!-- Node0&#45;&gt;Node26 -->
<g id="edge65" class="edge">
<title>Node0&#45;&gt;Node26</title>
<path fill="none" stroke="#191970" d="M2407.5219,-425.2416C2436.332,-397.7583 2481.0921,-355.0595 2508.3571,-329.0501"/>
<polygon fill="#191970" stroke="#191970" points="2511.0678,-331.3014 2515.8877,-321.8663 2506.2361,-326.2364 2511.0678,-331.3014"/>
</g>
<!-- Node31 -->
<g id="node32" class="node">
<title>Node31</title>
<polygon fill="none" stroke="#bfbfbf" points="3279.9959,-168.5 3279.9959,-187.5 3323.9959,-187.5 3323.9959,-168.5 3279.9959,-168.5"/>
<text text-anchor="middle" x="3301.9959" y="-175.5" font-family="Helvetica,sans-Serif" font-size="10.00" fill="#000000">string</text>
</g>
<!-- Node0&#45;&gt;Node31 -->
<g id="edge66" class="edge">
<title>Node0&#45;&gt;Node31</title>
<path fill="none" stroke="#191970" d="M2457.5251,-447.9291C2559.8814,-441.9108 2745.1298,-426.491 2898.9959,-389 2981.5271,-368.8905 3000.9141,-357.696 3077.9959,-322 3133.4241,-296.3316 3146.6779,-288.1304 3197.9959,-255 3228.3833,-235.3822 3261.6834,-209.9846 3282.2137,-193.8365"/>
<polygon fill="#191970" stroke="#191970" points="3284.5169,-196.4772 3290.1849,-187.5259 3280.1719,-190.9889 3284.5169,-196.4772"/>
</g>
<!-- Node43 -->
<g id="node44" class="node">
<title>Node43</title>
<polygon fill="none" stroke="#bfbfbf" points="3203.9959,-168.5 3203.9959,-187.5 3261.9959,-187.5 3261.9959,-168.5 3203.9959,-168.5"/>
<text text-anchor="middle" x="3232.9959" y="-175.5" font-family="Helvetica,sans-Serif" font-size="10.00" fill="#000000">memory</text>
</g>
<!-- Node0&#45;&gt;Node43 -->
<g id="edge68" class="edge">
<title>Node0&#45;&gt;Node43</title>
<path fill="none" stroke="#191970" d="M2457.514,-447.611C2605.8794,-436.9978 2935.7718,-397.8566 3166.9959,-255 3190.7557,-240.3205 3210.411,-214.2693 3221.926,-196.5749"/>
<polygon fill="#191970" stroke="#191970" points="3225.1232,-198.0637 3227.4601,-187.7298 3219.1889,-194.3508 3225.1232,-198.0637"/>
</g>
<!-- Node2 -->
<g id="node3" class="node">
<title>Node2</title>
<g id="a_node3"><a xlink:href="../../df/d21/GPUCommonDef_8h.html" target="_top" xlink:title="GPUCommonDef.h">
<polygon fill="none" stroke="#000000" points="1053.4959,-56.5 1053.4959,-75.5 1160.4959,-75.5 1160.4959,-56.5 1053.4959,-56.5"/>
<text text-anchor="middle" x="1106.9959" y="-63.5" font-family="Helvetica,sans-Serif" font-size="10.00" fill="#000000">GPUCommonDef.h</text>
</a>
</g>
</g>
<!-- Node1&#45;&gt;Node2 -->
<g id="edge2" class="edge">
<title>Node1&#45;&gt;Node2</title>
<path fill="none" stroke="#191970" d="M194.8872,-366.5571C129.4983,-359.3783 45.471,-345.7853 20.9959,-322 -5.9876,-295.777 1.9959,-277.1265 1.9959,-239.5 1.9959,-239.5 1.9959,-239.5 1.9959,-178 1.9959,-125.3051 807.8965,-80.9294 1043.214,-69.0952"/>
<polygon fill="#191970" stroke="#191970" points="1043.5135,-72.5847 1053.326,-68.5891 1043.1635,-65.5934 1043.5135,-72.5847"/>
</g>
<!-- Node5 -->
<g id="node6" class="node">
<title>Node5</title>
<g id="a_node6"><a xlink:href="../../da/d32/TRDCommonParam_8h.html" target="_top" xlink:title="TRDBase/TRDCommonParam.h">
<polygon fill="none" stroke="#000000" points="364.9959,-297 364.9959,-316 532.9959,-316 532.9959,-297 364.9959,-297"/>
<text text-anchor="middle" x="448.9959" y="-304" font-family="Helvetica,sans-Serif" font-size="10.00" fill="#000000">TRDBase/TRDCommonParam.h</text>
</a>
</g>
</g>
<!-- Node1&#45;&gt;Node5 -->
<g id="edge5" class="edge">
<title>Node1&#45;&gt;Node5</title>
<path fill="none" stroke="#191970" d="M302.496,-363.9005C332.0825,-352.3082 382.0033,-332.7486 415.2263,-319.7313"/>
<polygon fill="#191970" stroke="#191970" points="416.5072,-322.9886 424.5412,-316.0817 413.9535,-316.471 416.5072,-322.9886"/>
</g>
<!-- Node8 -->
<g id="node9" class="node">
<title>Node8</title>
<g id="a_node9"><a xlink:href="../../d6/dc2/DataFormats_2Detectors_2TRD_2include_2DataFormatsTRD_2Constants_8h.html" target="_top" xlink:title="DataFormatsTRD/Constants.h">
<polygon fill="none" stroke="#000000" points="30.4959,-297 30.4959,-316 191.4959,-316 191.4959,-297 30.4959,-297"/>
<text text-anchor="middle" x="110.9959" y="-304" font-family="Helvetica,sans-Serif" font-size="10.00" fill="#000000">DataFormatsTRD/Constants.h</text>
</a>
</g>
</g>
<!-- Node1&#45;&gt;Node8 -->
<g id="edge8" class="edge">
<title>Node1&#45;&gt;Node8</title>
<path fill="none" stroke="#191970" d="M254.0688,-363.9005C225.2984,-352.3579 176.8395,-332.9163 144.3941,-319.8993"/>
<polygon fill="#191970" stroke="#191970" points="145.4627,-316.5569 134.8785,-316.0817 142.8562,-323.0535 145.4627,-316.5569"/>
</g>
<!-- Node9 -->
<g id="node10" class="node">
<title>Node9</title>
<g id="a_node10"><a xlink:href="../../de/df3/TRDPadPlane_8h.html" target="_top" xlink:title="TRDBase/TRDPadPlane.h">
<polygon fill="none" stroke="#000000" points="209.4959,-297 209.4959,-316 346.4959,-316 346.4959,-297 209.4959,-297"/>
<text text-anchor="middle" x="277.9959" y="-304" font-family="Helvetica,sans-Serif" font-size="10.00" fill="#000000">TRDBase/TRDPadPlane.h</text>
</a>
</g>
</g>
<!-- Node1&#45;&gt;Node9 -->
<g id="edge9" class="edge">
<title>Node1&#45;&gt;Node9</title>
<path fill="none" stroke="#191970" d="M277.9959,-363.9005C277.9959,-354.149 277.9959,-338.7597 277.9959,-326.3695"/>
<polygon fill="#191970" stroke="#191970" points="281.496,-326.0816 277.9959,-316.0817 274.496,-326.0817 281.496,-326.0816"/>
</g>
<!-- Node3 -->
<g id="node4" class="node">
<title>Node3</title>
<g id="a_node4"><a xlink:href="../../d5/d93/GPUCommonDefSettings_8h.html" target="_top" xlink:title="GPUCommonDefSettings.h">
<polygon fill="none" stroke="#000000" points="955.9959,-.5 955.9959,-19.5 1103.9959,-19.5 1103.9959,-.5 955.9959,-.5"/>
<text text-anchor="middle" x="1029.9959" y="-7.5" font-family="Helvetica,sans-Serif" font-size="10.00" fill="#000000">GPUCommonDefSettings.h</text>
</a>
</g>
</g>
<!-- Node2&#45;&gt;Node3 -->
<g id="edge3" class="edge">
<title>Node2&#45;&gt;Node3</title>
<path fill="none" stroke="#191970" d="M1093.5835,-56.2455C1081.9902,-47.814 1065.0211,-35.4729 1051.528,-25.6598"/>
<polygon fill="#191970" stroke="#191970" points="1053.4005,-22.6938 1043.2546,-19.6427 1049.2833,-28.355 1053.4005,-22.6938"/>
</g>
<!-- Node4 -->
<g id="node5" class="node">
<title>Node4</title>
<g id="a_node5"><a xlink:href="../../da/d5a/GPUCommonDefAPI_8h.html" target="_top" xlink:title="GPUCommonDefAPI.h">
<polygon fill="none" stroke="#000000" points="1121.9959,-.5 1121.9959,-19.5 1245.9959,-19.5 1245.9959,-.5 1121.9959,-.5"/>
<text text-anchor="middle" x="1183.9959" y="-7.5" font-family="Helvetica,sans-Serif" font-size="10.00" fill="#000000">GPUCommonDefAPI.h</text>
</a>
</g>
</g>
<!-- Node2&#45;&gt;Node4 -->
<g id="edge4" class="edge">
<title>Node2&#45;&gt;Node4</title>
<path fill="none" stroke="#191970" d="M1120.4083,-56.2455C1132.0016,-47.814 1148.9706,-35.4729 1162.4637,-25.6598"/>
<polygon fill="#191970" stroke="#191970" points="1164.7084,-28.355 1170.7372,-19.6427 1160.5912,-22.6938 1164.7084,-28.355"/>
</g>
<!-- Node6 -->
<g id="node7" class="node">
<title>Node6</title>
<g id="a_node7"><a xlink:href="../../d2/d45/GPUCommonRtypes_8h.html" target="_top" xlink:title="GPUCommonRtypes.h">
<polygon fill="none" stroke="#000000" points="260.4959,-230 260.4959,-249 385.4959,-249 385.4959,-230 260.4959,-230"/>
<text text-anchor="middle" x="322.9959" y="-237" font-family="Helvetica,sans-Serif" font-size="10.00" fill="#000000">GPUCommonRtypes.h</text>
</a>
</g>
</g>
<!-- Node5&#45;&gt;Node6 -->
<g id="edge6" class="edge">
<title>Node5&#45;&gt;Node6</title>
<path fill="none" stroke="#191970" d="M430.9431,-296.9005C409.7975,-285.6564 374.5555,-266.9166 350.1176,-253.9219"/>
<polygon fill="#191970" stroke="#191970" points="351.4877,-250.6864 341.0151,-249.0817 348.2012,-256.867 351.4877,-250.6864"/>
</g>
<!-- Node7 -->
<g id="node8" class="node">
<title>Node7</title>
<polygon fill="none" stroke="#bfbfbf" points="1084.4959,-168.5 1084.4959,-187.5 1143.4959,-187.5 1143.4959,-168.5 1084.4959,-168.5"/>
<text text-anchor="middle" x="1113.9959" y="-175.5" font-family="Helvetica,sans-Serif" font-size="10.00" fill="#000000">Rtypes.h</text>
</g>
<!-- Node6&#45;&gt;Node7 -->
<g id="edge7" class="edge">
<title>Node6&#45;&gt;Node7</title>
<path fill="none" stroke="#191970" d="M362.0444,-229.9924C372.6767,-227.7056 384.2307,-225.4947 394.9959,-224 652.1822,-188.2901 965.0409,-180.2469 1074.1736,-178.4818"/>
<polygon fill="#191970" stroke="#191970" points="1074.4433,-181.9782 1084.3885,-178.3256 1074.3361,-174.979 1074.4433,-181.9782"/>
</g>
<!-- Node9&#45;&gt;Node2 -->
<g id="edge11" class="edge">
<title>Node9&#45;&gt;Node2</title>
<path fill="none" stroke="#191970" d="M269.4563,-296.739C255.9283,-280.0616 232.871,-245.7765 250.9959,-224 352.4097,-102.1542 862.5267,-73.9034 1043.3357,-67.6751"/>
<polygon fill="#191970" stroke="#191970" points="1043.6101,-71.168 1053.488,-67.3368 1043.3769,-64.1719 1043.6101,-71.168"/>
</g>
<!-- Node9&#45;&gt;Node6 -->
<g id="edge10" class="edge">
<title>Node9&#45;&gt;Node6</title>
<path fill="none" stroke="#191970" d="M284.4433,-296.9005C291.327,-286.6515 302.3935,-270.1747 310.9079,-257.4976"/>
<polygon fill="#191970" stroke="#191970" points="313.8903,-259.3345 316.5604,-249.0817 308.0793,-255.4316 313.8903,-259.3345"/>
</g>
<!-- Node10&#45;&gt;Node6 -->
<g id="edge16" class="edge">
<title>Node10&#45;&gt;Node6</title>
<path fill="none" stroke="#191970" d="M2012.3653,-372.0772C1701.6708,-366.7226 648.4023,-346.8171 580.9959,-322 560.2173,-314.3499 561.9213,-300.6566 541.9959,-291 534.4318,-287.3342 437.9913,-265.3063 375.6381,-251.2722"/>
<polygon fill="#191970" stroke="#191970" points="376.0868,-247.7858 365.5626,-249.0072 374.5514,-254.6154 376.0868,-247.7858"/>
</g>
<!-- Node11 -->
<g id="node12" class="node">
<title>Node11</title>
<g id="a_node12"><a xlink:href="../../df/d5b/GPUCommonLogger_8h.html" target="_top" xlink:title="GPUCommonLogger.h">
<polygon fill="none" stroke="#000000" points="589.4959,-297 589.4959,-316 712.4959,-316 712.4959,-297 589.4959,-297"/>
<text text-anchor="middle" x="650.9959" y="-304" font-family="Helvetica,sans-Serif" font-size="10.00" fill="#000000">GPUCommonLogger.h</text>
</a>
</g>
</g>
<!-- Node10&#45;&gt;Node11 -->
<g id="edge13" class="edge">
<title>Node10&#45;&gt;Node11</title>
<path fill="none" stroke="#191970" d="M2012.3479,-369.5343C1750.6451,-357.4167 964.6576,-321.0234 722.6862,-309.8195"/>
<polygon fill="#191970" stroke="#191970" points="722.7506,-306.3188 712.5994,-309.3524 722.4268,-313.3113 722.7506,-306.3188"/>
</g>
<!-- Node14 -->
<g id="node15" class="node">
<title>Node14</title>
<polygon fill="none" stroke="#bfbfbf" points="1855.9959,-112.5 1855.9959,-131.5 1897.9959,-131.5 1897.9959,-112.5 1855.9959,-112.5"/>
<text text-anchor="middle" x="1876.9959" y="-119.5" font-family="Helvetica,sans-Serif" font-size="10.00" fill="#000000">array</text>
</g>
<!-- Node10&#45;&gt;Node14 -->
<g id="edge17" class="edge">
<title>Node10&#45;&gt;Node14</title>
<path fill="none" stroke="#191970" d="M2100.8899,-358.3189C2105.5909,-328.7883 2111.3751,-263.0884 2078.9959,-224 2045.9114,-184.0601 2014.2223,-211.5137 1967.9959,-188 1940.938,-174.2367 1913.1654,-152.8325 1895.536,-138.154"/>
<polygon fill="#191970" stroke="#191970" points="1897.6359,-135.3459 1887.7439,-131.5514 1893.1106,-140.6864 1897.6359,-135.3459"/>
</g>
<!-- Node10&#45;&gt;Node15 -->
<g id="edge18" class="edge">
<title>Node10&#45;&gt;Node15</title>
<path fill="none" stroke="#191970" d="M2122.9064,-358.4639C2141.2791,-347.3741 2166.1559,-332.3584 2184.4433,-321.32"/>
<polygon fill="#191970" stroke="#191970" points="2186.3323,-324.268 2193.0849,-316.1039 2182.7149,-318.2751 2186.3323,-324.268"/>
</g>
<!-- Node16 -->
<g id="node17" class="node">
<title>Node16</title>
<g id="a_node17"><a xlink:href="../../dc/d73/Cartesian_8h.html" target="_top" xlink:title="MathUtils/Cartesian.h">
<polygon fill="none" stroke="#000000" points="1162.9959,-297 1162.9959,-316 1284.9959,-316 1284.9959,-297 1162.9959,-297"/>
<text text-anchor="middle" x="1223.9959" y="-304" font-family="Helvetica,sans-Serif" font-size="10.00" fill="#000000">MathUtils/Cartesian.h</text>
</a>
</g>
</g>
<!-- Node10&#45;&gt;Node16 -->
<g id="edge19" class="edge">
<title>Node10&#45;&gt;Node16</title>
<path fill="none" stroke="#191970" d="M2012.202,-366.9231C1839.9665,-353.7197 1454.9728,-324.2065 1295.4006,-311.9738"/>
<polygon fill="#191970" stroke="#191970" points="1295.4588,-308.4681 1285.2205,-311.1934 1294.9237,-315.4476 1295.4588,-308.4681"/>
</g>
<!-- Node10&#45;&gt;Node26 -->
<g id="edge30" class="edge">
<title>Node10&#45;&gt;Node26</title>
<path fill="none" stroke="#191970" d="M2183.7403,-360.263C2256.5571,-349.0216 2360.9588,-332.9043 2436.4427,-321.2513"/>
<polygon fill="#191970" stroke="#191970" points="2437.0807,-324.6944 2446.4296,-319.7095 2436.0126,-317.7763 2437.0807,-324.6944"/>
</g>
<!-- Node12 -->
<g id="node13" class="node">
<title>Node12</title>
<polygon fill="none" stroke="#bfbfbf" points="403.9959,-230 403.9959,-249 463.9959,-249 463.9959,-230 403.9959,-230"/>
<text text-anchor="middle" x="433.9959" y="-237" font-family="Helvetica,sans-Serif" font-size="10.00" fill="#000000">iostream</text>
</g>
<!-- Node11&#45;&gt;Node12 -->
<g id="edge14" class="edge">
<title>Node11&#45;&gt;Node12</title>
<path fill="none" stroke="#191970" d="M614.1962,-296.9688C577.9741,-287.3263 521.235,-271.5212 472.9959,-255 470.8677,-254.2711 468.6856,-253.4926 466.4935,-252.687"/>
<polygon fill="#191970" stroke="#191970" points="467.5461,-249.3427 456.9553,-249.0518 465.0532,-255.8837 467.5461,-249.3427"/>
</g>
<!-- Node13 -->
<g id="node14" class="node">
<title>Node13</title>
<polygon fill="none" stroke="#bfbfbf" points="481.9959,-230 481.9959,-249 527.9959,-249 527.9959,-230 481.9959,-230"/>
<text text-anchor="middle" x="504.9959" y="-237" font-family="Helvetica,sans-Serif" font-size="10.00" fill="#000000">cstdio</text>
</g>
<!-- Node11&#45;&gt;Node13 -->
<g id="edge15" class="edge">
<title>Node11&#45;&gt;Node13</title>
<path fill="none" stroke="#191970" d="M629.4863,-296.9887C606.5082,-286.7801 569.0584,-270.0041 536.9959,-255 535.9895,-254.529 534.9664,-254.0477 533.934,-253.5597"/>
<polygon fill="#191970" stroke="#191970" points="535.1188,-250.2468 524.5871,-249.0919 532.0999,-256.5624 535.1188,-250.2468"/>
</g>
<!-- Node16&#45;&gt;Node7 -->
<g id="edge27" class="edge">
<title>Node16&#45;&gt;Node7</title>
<path fill="none" stroke="#191970" d="M1194.3352,-296.8335C1174.1291,-288.7533 1148.3533,-275.2495 1132.9959,-255 1120.4218,-238.4204 1116.0721,-214.5819 1114.6186,-197.8326"/>
<polygon fill="#191970" stroke="#191970" points="1118.0945,-197.3215 1114.0095,-187.5459 1111.1068,-197.7353 1118.0945,-197.3215"/>
</g>
<!-- Node17 -->
<g id="node18" class="node">
<title>Node17</title>
<polygon fill="none" stroke="#bfbfbf" points="1141.9959,-224.5 1141.9959,-254.5 1305.9959,-254.5 1305.9959,-224.5 1141.9959,-224.5"/>
<text text-anchor="start" x="1149.9959" y="-242.5" font-family="Helvetica,sans-Serif" font-size="10.00" fill="#000000">Math/GenVector/Displacement</text>
<text text-anchor="middle" x="1223.9959" y="-231.5" font-family="Helvetica,sans-Serif" font-size="10.00" fill="#000000">Vector3D.h</text>
</g>
<!-- Node16&#45;&gt;Node17 -->
<g id="edge20" class="edge">
<title>Node16&#45;&gt;Node17</title>
<path fill="none" stroke="#191970" d="M1223.9959,-296.9005C1223.9959,-288.5099 1223.9959,-275.9451 1223.9959,-264.7085"/>
<polygon fill="#191970" stroke="#191970" points="1227.496,-264.5217 1223.9959,-254.5218 1220.496,-264.5218 1227.496,-264.5217"/>
</g>
<!-- Node18 -->
<g id="node19" class="node">
<title>Node18</title>
<polygon fill="none" stroke="#bfbfbf" points="1324.4959,-230 1324.4959,-249 1513.4959,-249 1513.4959,-230 1324.4959,-230"/>
<text text-anchor="middle" x="1418.9959" y="-237" font-family="Helvetica,sans-Serif" font-size="10.00" fill="#000000">Math/GenVector/PositionVector3D.h</text>
</g>
<!-- Node16&#45;&gt;Node18 -->
<g id="edge21" class="edge">
<title>Node16&#45;&gt;Node18</title>
<path fill="none" stroke="#191970" d="M1251.9346,-296.9005C1285.9632,-285.2086 1343.5798,-265.4122 1381.4581,-252.3976"/>
<polygon fill="#191970" stroke="#191970" points="1382.7889,-255.6412 1391.109,-249.0817 1380.5143,-249.0211 1382.7889,-255.6412"/>
</g>
<!-- Node19 -->
<g id="node20" class="node">
<title>Node19</title>
<polygon fill="none" stroke="#bfbfbf" points="1531.9959,-230 1531.9959,-249 1691.9959,-249 1691.9959,-230 1531.9959,-230"/>
<text text-anchor="middle" x="1611.9959" y="-237" font-family="Helvetica,sans-Serif" font-size="10.00" fill="#000000">Math/GenVector/Rotation3D.h</text>
</g>
<!-- Node16&#45;&gt;Node19 -->
<g id="edge22" class="edge">
<title>Node16&#45;&gt;Node19</title>
<path fill="none" stroke="#191970" d="M1279.384,-296.9916C1339.4085,-286.6799 1438.0074,-269.7199 1522.9959,-255 1530.9063,-253.6299 1539.2116,-252.188 1547.4376,-250.7578"/>
<polygon fill="#191970" stroke="#191970" points="1548.1482,-254.1869 1557.4003,-249.0247 1546.9484,-247.2905 1548.1482,-254.1869"/>
</g>
<!-- Node20 -->
<g id="node21" class="node">
<title>Node20</title>
<polygon fill="none" stroke="#bfbfbf" points="1709.9959,-230 1709.9959,-249 1877.9959,-249 1877.9959,-230 1709.9959,-230"/>
<text text-anchor="middle" x="1793.9959" y="-237" font-family="Helvetica,sans-Serif" font-size="10.00" fill="#000000">Math/GenVector/Transform3D.h</text>
</g>
<!-- Node16&#45;&gt;Node20 -->
<g id="edge23" class="edge">
<title>Node16&#45;&gt;Node20</title>
<path fill="none" stroke="#191970" d="M1285.1242,-301.0364C1376.0053,-292.6565 1552.046,-275.436 1700.9959,-255 1710.3838,-253.712 1720.2816,-252.2139 1729.9786,-250.6665"/>
<polygon fill="#191970" stroke="#191970" points="1730.6713,-254.1 1739.9814,-249.043 1729.5498,-247.1904 1730.6713,-254.1"/>
</g>
<!-- Node21 -->
<g id="node22" class="node">
<title>Node21</title>
<polygon fill="none" stroke="#bfbfbf" points="1896.4959,-230 1896.4959,-249 2069.4959,-249 2069.4959,-230 1896.4959,-230"/>
<text text-anchor="middle" x="1982.9959" y="-237" font-family="Helvetica,sans-Serif" font-size="10.00" fill="#000000">Math/GenVector/Translation3D.h</text>
</g>
<!-- Node16&#45;&gt;Node21 -->
<g id="edge24" class="edge">
<title>Node16&#45;&gt;Node21</title>
<path fill="none" stroke="#191970" d="M1285.4038,-303.4279C1402.6372,-297.187 1666.3193,-281.3402 1886.9959,-255 1897.3493,-253.7642 1908.2947,-252.2225 1918.9439,-250.5945"/>
<polygon fill="#191970" stroke="#191970" points="1919.6961,-254.0194 1929.0341,-249.0143 1918.613,-247.1037 1919.6961,-254.0194"/>
</g>
<!-- Node22 -->
<g id="node23" class="node">
<title>Node22</title>
<polygon fill="none" stroke="#bfbfbf" points="545.9959,-224.5 545.9959,-254.5 709.9959,-254.5 709.9959,-224.5 545.9959,-224.5"/>
<text text-anchor="start" x="553.9959" y="-242.5" font-family="Helvetica,sans-Serif" font-size="10.00" fill="#000000">Math/GenVector/Displacement</text>
<text text-anchor="middle" x="627.9959" y="-231.5" font-family="Helvetica,sans-Serif" font-size="10.00" fill="#000000">Vector2D.h</text>
</g>
<!-- Node16&#45;&gt;Node22 -->
<g id="edge25" class="edge">
<title>Node16&#45;&gt;Node22</title>
<path fill="none" stroke="#191970" d="M1162.9433,-301.5527C1069.8481,-293.7236 886.6215,-277.1955 720.1424,-254.9601"/>
<polygon fill="#191970" stroke="#191970" points="720.5917,-251.4891 710.2143,-253.6245 719.6583,-258.4266 720.5917,-251.4891"/>
</g>
<!-- Node23 -->
<g id="node24" class="node">
<title>Node23</title>
<polygon fill="none" stroke="#bfbfbf" points="728.4959,-230 728.4959,-249 917.4959,-249 917.4959,-230 728.4959,-230"/>
<text text-anchor="middle" x="822.9959" y="-237" font-family="Helvetica,sans-Serif" font-size="10.00" fill="#000000">Math/GenVector/PositionVector2D.h</text>
</g>
<!-- Node16&#45;&gt;Node23 -->
<g id="edge26" class="edge">
<title>Node16&#45;&gt;Node23</title>
<path fill="none" stroke="#191970" d="M1166.9682,-296.9717C1094.0228,-284.7838 967.8715,-263.7062 890.2969,-250.7448"/>
<polygon fill="#191970" stroke="#191970" points="890.5912,-247.2455 880.1511,-249.0496 889.4375,-254.1498 890.5912,-247.2455"/>
</g>
<!-- Node24 -->
<g id="node25" class="node">
<title>Node24</title>
<polygon fill="none" stroke="#bfbfbf" points="935.9959,-230 935.9959,-249 1017.9959,-249 1017.9959,-230 935.9959,-230"/>
<text text-anchor="middle" x="976.9959" y="-237" font-family="Helvetica,sans-Serif" font-size="10.00" fill="#000000">TGeoMatrix.h</text>
</g>
<!-- Node16&#45;&gt;Node24 -->
<g id="edge28" class="edge">
<title>Node16&#45;&gt;Node24</title>
<path fill="none" stroke="#191970" d="M1185.9388,-296.9578C1146.3623,-286.9277 1082.6657,-270.484 1027.9959,-255 1024.5985,-254.0378 1021.0809,-253.018 1017.5544,-251.9793"/>
<polygon fill="#191970" stroke="#191970" points="1018.268,-248.5398 1007.6846,-249.0337 1016.266,-255.2475 1018.268,-248.5398"/>
</g>
<!-- Node25 -->
<g id="node26" class="node">
<title>Node25</title>
<polygon fill="none" stroke="#bfbfbf" points="1036.4959,-230 1036.4959,-249 1085.4959,-249 1085.4959,-230 1036.4959,-230"/>
<text text-anchor="middle" x="1060.9959" y="-237" font-family="Helvetica,sans-Serif" font-size="10.00" fill="#000000">iosfwd</text>
</g>
<!-- Node16&#45;&gt;Node25 -->
<g id="edge29" class="edge">
<title>Node16&#45;&gt;Node25</title>
<path fill="none" stroke="#191970" d="M1200.642,-296.9005C1172.5606,-285.3579 1125.2624,-265.9163 1093.5942,-252.8993"/>
<polygon fill="#191970" stroke="#191970" points="1094.8863,-249.6463 1084.3065,-249.0817 1092.225,-256.1207 1094.8863,-249.6463"/>
</g>
<!-- Node26&#45;&gt;Node7 -->
<g id="edge31" class="edge">
<title>Node26&#45;&gt;Node7</title>
<path fill="none" stroke="#191970" d="M2446.3424,-300.2221C2370.2445,-293.3306 2256.4536,-279.7882 2159.9959,-255 2122.6625,-245.4059 2116.7228,-231.9062 2078.9959,-224 1898.0639,-186.083 1313.2252,-179.3581 1154.2192,-178.2213"/>
<polygon fill="#191970" stroke="#191970" points="1153.9669,-174.7196 1143.9433,-178.1515 1153.9192,-181.7195 1153.9669,-174.7196"/>
</g>
<!-- Node26&#45;&gt;Node14 -->
<g id="edge32" class="edge">
<title>Node26&#45;&gt;Node14</title>
<path fill="none" stroke="#191970" d="M2455.6738,-291.4306C2331.7768,-266.5838 2092.5255,-216.8998 2010.9959,-188 2000.2259,-184.1824 1940.7697,-154.3374 1904.7709,-136.1131"/>
<polygon fill="#191970" stroke="#191970" points="1906.2356,-132.9317 1895.7336,-131.5327 1903.071,-139.1755 1906.2356,-132.9317"/>
</g>
<!-- Node27 -->
<g id="node28" class="node">
<title>Node27</title>
<polygon fill="none" stroke="#bfbfbf" points="2983.9959,-230 2983.9959,-249 3027.9959,-249 3027.9959,-230 2983.9959,-230"/>
<text text-anchor="middle" x="3005.9959" y="-237" font-family="Helvetica,sans-Serif" font-size="10.00" fill="#000000">bitset</text>
</g>
<!-- Node26&#45;&gt;Node27 -->
<g id="edge33" class="edge">
<title>Node26&#45;&gt;Node27</title>
<path fill="none" stroke="#191970" d="M2617.9502,-300.0699C2727.4187,-291.2643 2910.1624,-274.3253 2974.9959,-255 2976.6609,-254.5037 2978.3448,-253.9221 2980.022,-253.2809"/>
<polygon fill="#191970" stroke="#191970" points="2981.6546,-256.3857 2989.3782,-249.1334 2978.8178,-249.9863 2981.6546,-256.3857"/>
</g>
<!-- Node28 -->
<g id="node29" class="node">
<title>Node28</title>
<polygon fill="none" stroke="#bfbfbf" points="3133.9959,-168.5 3133.9959,-187.5 3185.9959,-187.5 3185.9959,-168.5 3133.9959,-168.5"/>
<text text-anchor="middle" x="3159.9959" y="-175.5" font-family="Helvetica,sans-Serif" font-size="10.00" fill="#000000">cassert</text>
</g>
<!-- Node26&#45;&gt;Node28 -->
<g id="edge34" class="edge">
<title>Node26&#45;&gt;Node28</title>
<path fill="none" stroke="#191970" d="M2617.6114,-303.5726C2741.267,-298.3652 2963.1266,-285.0727 3036.9959,-255 3057.5036,-246.6512 3057.5518,-236.251 3075.9959,-224 3093.7098,-212.234 3114.6905,-200.7429 3131.2524,-192.1889"/>
<polygon fill="#191970" stroke="#191970" points="3133.1128,-195.1692 3140.4351,-187.5119 3129.9358,-188.9317 3133.1128,-195.1692"/>
</g>
<!-- Node29 -->
<g id="node30" class="node">
<title>Node29</title>
<polygon fill="none" stroke="#bfbfbf" points="2554.9959,-112.5 2554.9959,-131.5 2604.9959,-131.5 2604.9959,-112.5 2554.9959,-112.5"/>
<text text-anchor="middle" x="2579.9959" y="-119.5" font-family="Helvetica,sans-Serif" font-size="10.00" fill="#000000">cstdint</text>
</g>
<!-- Node26&#45;&gt;Node29 -->
<g id="edge35" class="edge">
<title>Node26&#45;&gt;Node29</title>
<path fill="none" stroke="#191970" d="M2535.9239,-291.4016C2544.568,-258.1761 2565.2338,-178.7418 2574.8772,-141.6748"/>
<polygon fill="#191970" stroke="#191970" points="2578.36,-142.1886 2577.4906,-131.6295 2571.5855,-140.4261 2578.36,-142.1886"/>
</g>
<!-- Node30 -->
<g id="node31" class="node">
<title>Node30</title>
<polygon fill="none" stroke="#bfbfbf" points="3084.4959,-230 3084.4959,-249 3157.4959,-249 3157.4959,-230 3084.4959,-230"/>
<text text-anchor="middle" x="3120.9959" y="-237" font-family="Helvetica,sans-Serif" font-size="10.00" fill="#000000">string_view</text>
</g>
<!-- Node26&#45;&gt;Node30 -->
<g id="edge36" class="edge">
<title>Node26&#45;&gt;Node30</title>
<path fill="none" stroke="#191970" d="M2617.5505,-303.5751C2724.3313,-298.7222 2912.1352,-286.2188 3069.9959,-255 3074.4045,-254.1281 3078.9757,-253.0293 3083.4893,-251.821"/>
<polygon fill="#191970" stroke="#191970" points="3084.5401,-255.1608 3093.1924,-249.0464 3082.6155,-248.4306 3084.5401,-255.1608"/>
</g>
<!-- Node26&#45;&gt;Node31 -->
<g id="edge37" class="edge">
<title>Node26&#45;&gt;Node31</title>
<path fill="none" stroke="#191970" d="M2617.7164,-304.1517C2766.6339,-299.3079 3066.801,-285.954 3166.9959,-255 3210.8112,-241.4638 3255.9525,-211.9614 3281.3463,-193.6596"/>
<polygon fill="#191970" stroke="#191970" points="3283.4791,-196.4358 3289.4703,-187.6976 3279.3376,-190.7924 3283.4791,-196.4358"/>
</g>
<!-- Node32 -->
<g id="node33" class="node">
<title>Node32</title>
<polygon fill="none" stroke="#bfbfbf" points="2346.4959,-230 2346.4959,-249 2415.4959,-249 2415.4959,-230 2346.4959,-230"/>
<text text-anchor="middle" x="2380.9959" y="-237" font-family="Helvetica,sans-Serif" font-size="10.00" fill="#000000">type_traits</text>
</g>
<!-- Node26&#45;&gt;Node32 -->
<g id="edge38" class="edge">
<title>Node26&#45;&gt;Node32</title>
<path fill="none" stroke="#191970" d="M2498.1085,-291.4639C2472.3162,-280.0196 2437.1013,-264.3945 2412.0387,-253.274"/>
<polygon fill="#191970" stroke="#191970" points="2413.2007,-249.9605 2402.6405,-249.1039 2410.3616,-256.359 2413.2007,-249.9605"/>
</g>
<!-- Node33 -->
<g id="node34" class="node">
<title>Node33</title>
<g id="a_node34"><a xlink:href="../../d9/d52/Common_2MathUtils_2include_2MathUtils_2Utils_8h.html" target="_top" xlink:title="MathUtils/Utils.h">
<polygon fill="none" stroke="#000000" points="2433.9959,-230 2433.9959,-249 2531.9959,-249 2531.9959,-230 2433.9959,-230"/>
<text text-anchor="middle" x="2482.9959" y="-237" font-family="Helvetica,sans-Serif" font-size="10.00" fill="#000000">MathUtils/Utils.h</text>
</a>
</g>
</g>
<!-- Node26&#45;&gt;Node33 -->
<g id="edge39" class="edge">
<title>Node26&#45;&gt;Node33</title>
<path fill="none" stroke="#191970" d="M2520.877,-291.2967C2513.465,-281.1618 2503.6958,-267.804 2495.9349,-257.1921"/>
<polygon fill="#191970" stroke="#191970" points="2498.7122,-255.0606 2489.9838,-249.055 2493.062,-259.1928 2498.7122,-255.0606"/>
</g>
<!-- Node42 -->
<g id="node43" class="node">
<title>Node42</title>
<g id="a_node43"><a xlink:href="../../dc/dcd/DataHeader_8h.html" target="_top" xlink:title="Headers/DataHeader.h">
<polygon fill="none" stroke="#000000" points="2838.4959,-230 2838.4959,-249 2965.4959,-249 2965.4959,-230 2838.4959,-230"/>
<text text-anchor="middle" x="2901.9959" y="-237" font-family="Helvetica,sans-Serif" font-size="10.00" fill="#000000">Headers/DataHeader.h</text>
</a>
</g>
</g>
<!-- Node26&#45;&gt;Node42 -->
<g id="edge54" class="edge">
<title>Node26&#45;&gt;Node42</title>
<path fill="none" stroke="#191970" d="M2615.0311,-291.4639C2683.0469,-279.1475 2777.8037,-261.9889 2839.5151,-250.8141"/>
<polygon fill="#191970" stroke="#191970" points="2840.2877,-254.2312 2849.504,-249.0053 2839.0404,-247.3432 2840.2877,-254.2312"/>
</g>
<!-- Node34 -->
<g id="node35" class="node">
<title>Node34</title>
<g id="a_node35"><a xlink:href="../../de/def/bitOps_8h.html" target="_top" xlink:title="MathUtils/detail/bitOps.h">
<polygon fill="none" stroke="#000000" points="2414.4959,-168.5 2414.4959,-187.5 2551.4959,-187.5 2551.4959,-168.5 2414.4959,-168.5"/>
<text text-anchor="middle" x="2482.9959" y="-175.5" font-family="Helvetica,sans-Serif" font-size="10.00" fill="#000000">MathUtils/detail/bitOps.h</text>
</a>
</g>
</g>
<!-- Node33&#45;&gt;Node34 -->
<g id="edge40" class="edge">
<title>Node33&#45;&gt;Node34</title>
<path fill="none" stroke="#191970" d="M2482.9959,-229.8906C2482.9959,-221.3657 2482.9959,-208.6392 2482.9959,-197.9235"/>
<polygon fill="#191970" stroke="#191970" points="2486.496,-197.7448 2482.9959,-187.7449 2479.496,-197.7449 2486.496,-197.7448"/>
</g>
<!-- Node35 -->
<g id="node36" class="node">
<title>Node35</title>
<g id="a_node36"><a xlink:href="../../d3/dfc/StatAccumulator_8h.html" target="_top" xlink:title="MathUtils/detail/StatAccumulator.h">
<polygon fill="none" stroke="#000000" points="2209.9959,-168.5 2209.9959,-187.5 2395.9959,-187.5 2395.9959,-168.5 2209.9959,-168.5"/>
<text text-anchor="middle" x="2302.9959" y="-175.5" font-family="Helvetica,sans-Serif" font-size="10.00" fill="#000000">MathUtils/detail/StatAccumulator.h</text>
</a>
</g>
</g>
<!-- Node33&#45;&gt;Node35 -->
<g id="edge42" class="edge">
<title>Node33&#45;&gt;Node35</title>
<path fill="none" stroke="#191970" d="M2454.8709,-229.8906C2424.0931,-219.3749 2374.6038,-202.466 2340.5303,-190.8243"/>
<polygon fill="#191970" stroke="#191970" points="2341.5179,-187.4631 2330.9234,-187.5419 2339.2547,-194.0871 2341.5179,-187.4631"/>
</g>
<!-- Node37 -->
<g id="node38" class="node">
<title>Node37</title>
<g id="a_node38"><a xlink:href="../../dd/d7d/trigonometric_8h.html" target="_top" xlink:title="MathUtils/detail/trigonometric.h">
<polygon fill="none" stroke="#000000" points="2019.9959,-168.5 2019.9959,-187.5 2191.9959,-187.5 2191.9959,-168.5 2019.9959,-168.5"/>
<text text-anchor="middle" x="2105.9959" y="-175.5" font-family="Helvetica,sans-Serif" font-size="10.00" fill="#000000">MathUtils/detail/trigonometric.h</text>
</a>
</g>
</g>
<!-- Node33&#45;&gt;Node37 -->
<g id="edge44" class="edge">
<title>Node33&#45;&gt;Node37</title>
<path fill="none" stroke="#191970" d="M2450.0306,-229.9691C2441.8915,-227.8159 2433.1643,-225.6743 2424.9959,-224 2350.3307,-208.6954 2264.8091,-196.6543 2201.1226,-188.7367"/>
<polygon fill="#191970" stroke="#191970" points="2201.4467,-185.2502 2191.0938,-187.5015 2200.5909,-192.1977 2201.4467,-185.2502"/>
</g>
<!-- Node34&#45;&gt;Node29 -->
<g id="edge41" class="edge">
<title>Node34&#45;&gt;Node29</title>
<path fill="none" stroke="#191970" d="M2499.892,-168.2455C2514.9139,-159.5731 2537.1002,-146.7645 2554.3169,-136.825"/>
<polygon fill="#191970" stroke="#191970" points="2556.383,-139.6737 2563.2934,-131.6427 2552.8831,-133.6114 2556.383,-139.6737"/>
</g>
<!-- Node36 -->
<g id="node37" class="node">
<title>Node36</title>
<polygon fill="none" stroke="#bfbfbf" points="2337.4959,-112.5 2337.4959,-131.5 2378.4959,-131.5 2378.4959,-112.5 2337.4959,-112.5"/>
<text text-anchor="middle" x="2357.9959" y="-119.5" font-family="Helvetica,sans-Serif" font-size="10.00" fill="#000000">tuple</text>
</g>
<!-- Node35&#45;&gt;Node36 -->
<g id="edge43" class="edge">
<title>Node35&#45;&gt;Node36</title>
<path fill="none" stroke="#191970" d="M2312.5761,-168.2455C2320.5416,-160.1352 2332.0599,-148.4075 2341.5038,-138.7919"/>
<polygon fill="#191970" stroke="#191970" points="2344.0154,-141.2297 2348.5254,-131.6427 2339.0212,-136.3247 2344.0154,-141.2297"/>
</g>
<!-- Node37&#45;&gt;Node2 -->
<g id="edge48" class="edge">
<title>Node37&#45;&gt;Node2</title>
<path fill="none" stroke="#191970" d="M2063.8445,-168.4869C2030.8944,-160.4503 1984.2535,-147.7432 1944.9959,-132 1927.2819,-124.8963 1925.3848,-117.1082 1906.9959,-112 1836.9712,-92.5479 1348.2396,-74.2029 1171.004,-68.1181"/>
<polygon fill="#191970" stroke="#191970" points="1170.9025,-64.6127 1160.7888,-67.7692 1170.6635,-71.6086 1170.9025,-64.6127"/>
</g>
<!-- Node37&#45;&gt;Node14 -->
<g id="edge45" class="edge">
<title>Node37&#45;&gt;Node14</title>
<path fill="none" stroke="#191970" d="M2063.0902,-168.4159C2023.6868,-159.4745 1963.7383,-145.5187 1911.9959,-132 1910.7233,-131.6675 1909.4264,-131.323 1908.1174,-130.9706"/>
<polygon fill="#191970" stroke="#191970" points="1908.6239,-127.4792 1898.0525,-128.1839 1906.756,-134.2254 1908.6239,-127.4792"/>
</g>
<!-- Node37&#45;&gt;Node36 -->
<g id="edge47" class="edge">
<title>Node37&#45;&gt;Node36</title>
<path fill="none" stroke="#191970" d="M2155.7764,-168.4689C2199.9049,-159.7774 2266.0008,-146.165 2322.9959,-132 2324.4525,-131.638 2325.94,-131.2571 2327.4403,-130.8639"/>
<polygon fill="#191970" stroke="#191970" points="2328.6077,-134.1733 2337.3315,-128.1612 2326.7626,-127.4208 2328.6077,-134.1733"/>
</g>
<!-- Node38 -->
<g id="node39" class="node">
<title>Node38</title>
<polygon fill="none" stroke="#bfbfbf" points="2242.4959,-56.5 2242.4959,-75.5 2289.4959,-75.5 2289.4959,-56.5 2242.4959,-56.5"/>
<text text-anchor="middle" x="2265.9959" y="-63.5" font-family="Helvetica,sans-Serif" font-size="10.00" fill="#000000">cmath</text>
</g>
<!-- Node37&#45;&gt;Node38 -->
<g id="edge46" class="edge">
<title>Node37&#45;&gt;Node38</title>
<path fill="none" stroke="#191970" d="M2182.2814,-168.4637C2226.6418,-161.1773 2276.419,-149.389 2289.9959,-132 2301.0563,-117.8341 2291.4221,-98.0994 2281.2584,-83.9057"/>
<polygon fill="#191970" stroke="#191970" points="2283.9338,-81.6441 2275.0419,-75.8835 2278.4007,-85.9318 2283.9338,-81.6441"/>
</g>
<!-- Node39 -->
<g id="node40" class="node">
<title>Node39</title>
<g id="a_node40"><a xlink:href="../../d6/da2/GPUCommonMath_8h.html" target="_top" xlink:title="GPUCommonMath.h">
<polygon fill="none" stroke="#000000" points="2165.4959,-112.5 2165.4959,-131.5 2280.4959,-131.5 2280.4959,-112.5 2165.4959,-112.5"/>
<text text-anchor="middle" x="2222.9959" y="-119.5" font-family="Helvetica,sans-Serif" font-size="10.00" fill="#000000">GPUCommonMath.h</text>
</a>
</g>
</g>
<!-- Node37&#45;&gt;Node39 -->
<g id="edge49" class="edge">
<title>Node37&#45;&gt;Node39</title>
<path fill="none" stroke="#191970" d="M2126.1089,-168.3733C2144.8062,-159.4241 2172.8703,-145.9917 2193.9893,-135.8835"/>
<polygon fill="#191970" stroke="#191970" points="2195.6363,-138.9755 2203.1453,-131.5011 2192.6142,-132.6614 2195.6363,-138.9755"/>
</g>
<!-- Node41 -->
<g id="node42" class="node">
<title>Node41</title>
<g id="a_node42"><a xlink:href="../../d6/d84/MathConstants_8h.html" target="_top" xlink:title="useful math constants ">
<polygon fill="none" stroke="#000000" points="1953.9959,-112.5 1953.9959,-131.5 2147.9959,-131.5 2147.9959,-112.5 1953.9959,-112.5"/>
<text text-anchor="middle" x="2050.9959" y="-119.5" font-family="Helvetica,sans-Serif" font-size="10.00" fill="#000000">CommonConstants/MathConstants.h</text>
</a>
</g>
</g>
<!-- Node37&#45;&gt;Node41 -->
<g id="edge53" class="edge">
<title>Node37&#45;&gt;Node41</title>
<path fill="none" stroke="#191970" d="M2096.4156,-168.2455C2088.4501,-160.1352 2076.9318,-148.4075 2067.4879,-138.7919"/>
<polygon fill="#191970" stroke="#191970" points="2069.9705,-136.3247 2060.4664,-131.6427 2064.9764,-141.2297 2069.9705,-136.3247"/>
</g>
<!-- Node39&#45;&gt;Node2 -->
<g id="edge50" class="edge">
<title>Node39&#45;&gt;Node2</title>
<path fill="none" stroke="#191970" d="M2165.448,-112.9114C2162.5935,-112.5765 2159.7642,-112.2696 2156.9959,-112 1784.7024,-75.7451 1335.3506,-68.0572 1171.0848,-66.4329"/>
<polygon fill="#191970" stroke="#191970" points="1170.7137,-62.9293 1160.681,-66.3344 1170.6474,-69.929 1170.7137,-62.9293"/>
</g>
<!-- Node39&#45;&gt;Node38 -->
<g id="edge51" class="edge">
<title>Node39&#45;&gt;Node38</title>
<path fill="none" stroke="#191970" d="M2230.4859,-112.2455C2236.5285,-104.3761 2245.1862,-93.101 2252.44,-83.6542"/>
<polygon fill="#191970" stroke="#191970" points="2255.2774,-85.7058 2258.5917,-75.6427 2249.7253,-81.4426 2255.2774,-85.7058"/>
</g>
<!-- Node40 -->
<g id="node41" class="node">
<title>Node40</title>
<polygon fill="none" stroke="#bfbfbf" points="2739.9959,-56.5 2739.9959,-75.5 2803.9959,-75.5 2803.9959,-56.5 2739.9959,-56.5"/>
<text text-anchor="middle" x="2771.9959" y="-63.5" font-family="Helvetica,sans-Serif" font-size="10.00" fill="#000000">algorithm</text>
</g>
<!-- Node39&#45;&gt;Node40 -->
<g id="edge52" class="edge">
<title>Node39&#45;&gt;Node40</title>
<path fill="none" stroke="#191970" d="M2280.7109,-116.1129C2391.6079,-104.801 2632.1086,-80.269 2729.6337,-70.3211"/>
<polygon fill="#191970" stroke="#191970" points="2730.1186,-73.7899 2739.7117,-69.2931 2729.4082,-66.826 2730.1186,-73.7899"/>
</g>
<!-- Node42&#45;&gt;Node28 -->
<g id="edge57" class="edge">
<title>Node42&#45;&gt;Node28</title>
<path fill="none" stroke="#191970" d="M2943.0164,-229.9769C2986.8637,-219.7584 3058.4009,-202.9743 3119.9959,-188 3121.2479,-187.6956 3122.5216,-187.3846 3123.8077,-187.0694"/>
<polygon fill="#191970" stroke="#191970" points="3124.8892,-190.4075 3133.7579,-184.6113 3123.2103,-183.6118 3124.8892,-190.4075"/>
</g>
<!-- Node42&#45;&gt;Node29 -->
<g id="edge55" class="edge">
<title>Node42&#45;&gt;Node29</title>
<path fill="none" stroke="#191970" d="M2838.3338,-231.9927C2771.171,-223.2244 2670.5013,-207.4156 2636.9959,-188 2617.2524,-176.5591 2600.9993,-155.7127 2590.9701,-140.5015"/>
<polygon fill="#191970" stroke="#191970" points="2593.8419,-138.4935 2585.5544,-131.8929 2587.9169,-142.221 2593.8419,-138.4935"/>
</g>
<!-- Node42&#45;&gt;Node31 -->
<g id="edge61" class="edge">
<title>Node42&#45;&gt;Node31</title>
<path fill="none" stroke="#191970" d="M2943.9519,-229.93C2954.083,-227.8026 2964.8997,-225.6824 2974.9959,-224 3102.5268,-202.748 3139.7588,-215.7979 3269.8413,-187.8989"/>
<polygon fill="#191970" stroke="#191970" points="3270.7622,-191.2803 3279.7846,-185.7263 3269.2679,-184.4417 3270.7622,-191.2803"/>
</g>
<!-- Node42&#45;&gt;Node40 -->
<g id="edge59" class="edge">
<title>Node42&#45;&gt;Node40</title>
<path fill="none" stroke="#191970" d="M2946.7866,-229.9911C2998.727,-218.515 3078.3744,-199.3493 3086.9959,-188 3092.3728,-180.9218 3092.2242,-175.1886 3086.9959,-168 3054.3949,-123.176 2892.1652,-88.0036 2814.1015,-73.377"/>
<polygon fill="#191970" stroke="#191970" points="2814.5847,-69.9071 2804.1152,-71.5321 2813.3129,-76.7906 2814.5847,-69.9071"/>
</g>
<!-- Node42&#45;&gt;Node43 -->
<g id="edge56" class="edge">
<title>Node42&#45;&gt;Node43</title>
<path fill="none" stroke="#191970" d="M2945.1614,-229.9837C2954.9532,-227.9228 2965.3185,-225.8181 2974.9959,-224 3069.2324,-206.2953 3096.3573,-208.4642 3193.646,-188.1372"/>
<polygon fill="#191970" stroke="#191970" points="3194.5448,-191.5246 3203.6036,-186.0301 3193.0956,-184.6762 3194.5448,-191.5246"/>
</g>
<!-- Node44 -->
<g id="node45" class="node">
<title>Node44</title>
<polygon fill="none" stroke="#bfbfbf" points="2943.9959,-168.5 2943.9959,-187.5 2993.9959,-187.5 2993.9959,-168.5 2943.9959,-168.5"/>
<text text-anchor="middle" x="2968.9959" y="-175.5" font-family="Helvetica,sans-Serif" font-size="10.00" fill="#000000">cstring</text>
</g>
<!-- Node42&#45;&gt;Node44 -->
<g id="edge58" class="edge">
<title>Node42&#45;&gt;Node44</title>
<path fill="none" stroke="#191970" d="M2912.4646,-229.8906C2922.7295,-220.4683 2938.5862,-205.9134 2950.8964,-194.6137"/>
<polygon fill="#191970" stroke="#191970" points="2953.3793,-197.0856 2958.3795,-187.7449 2948.6457,-191.9287 2953.3793,-197.0856"/>
</g>
<!-- Node45 -->
<g id="node46" class="node">
<title>Node45</title>
<polygon fill="none" stroke="#bfbfbf" points="3012.4959,-168.5 3012.4959,-187.5 3077.4959,-187.5 3077.4959,-168.5 3012.4959,-168.5"/>
<text text-anchor="middle" x="3044.9959" y="-175.5" font-family="Helvetica,sans-Serif" font-size="10.00" fill="#000000">stdexcept</text>
</g>
<!-- Node42&#45;&gt;Node45 -->
<g id="edge60" class="edge">
<title>Node42&#45;&gt;Node45</title>
<path fill="none" stroke="#191970" d="M2924.3396,-229.8906C2948.2661,-219.6005 2986.4268,-203.1888 3013.4175,-191.5809"/>
<polygon fill="#191970" stroke="#191970" points="3015.0054,-194.708 3022.809,-187.5419 3012.2398,-188.2775 3015.0054,-194.708"/>
</g>
<!-- Node46 -->
<g id="node47" class="node">
<title>Node46</title>
<polygon fill="none" stroke="#bfbfbf" points="2645.9959,-168.5 2645.9959,-187.5 2695.9959,-187.5 2695.9959,-168.5 2645.9959,-168.5"/>
<text text-anchor="middle" x="2670.9959" y="-175.5" font-family="Helvetica,sans-Serif" font-size="10.00" fill="#000000">climits</text>
</g>
<!-- Node42&#45;&gt;Node46 -->
<g id="edge62" class="edge">
<title>Node42&#45;&gt;Node46</title>
<path fill="none" stroke="#191970" d="M2864.1382,-229.9665C2826.4253,-220.3889 2766.6363,-204.988 2705.9643,-188.2151"/>
<polygon fill="#191970" stroke="#191970" points="2706.7942,-184.8133 2696.2225,-185.5121 2704.9226,-191.5584 2706.7942,-184.8133"/>
</g>
<!-- Node47 -->
<g id="node48" class="node">
<title>Node47</title>
<g id="a_node48"><a xlink:href="../../d7/df8/Types_8h.html" target="_top" xlink:title="MemoryResources/Types.h">
<polygon fill="none" stroke="#000000" points="2713.9959,-168.5 2713.9959,-187.5 2859.9959,-187.5 2859.9959,-168.5 2713.9959,-168.5"/>
<text text-anchor="middle" x="2786.9959" y="-175.5" font-family="Helvetica,sans-Serif" font-size="10.00" fill="#000000">MemoryResources/Types.h</text>
</a>
</g>
</g>
<!-- Node42&#45;&gt;Node47 -->
<g id="edge63" class="edge">
<title>Node42&#45;&gt;Node47</title>
<path fill="none" stroke="#191970" d="M2884.0271,-229.8906C2865.2075,-219.8262 2835.4374,-203.9057 2813.8318,-192.3514"/>
<polygon fill="#191970" stroke="#191970" points="2815.3072,-189.1714 2804.8384,-187.5419 2812.0061,-195.3442 2815.3072,-189.1714"/>
</g>
<!-- Node48 -->
<g id="node49" class="node">
<title>Node48</title>
<polygon fill="none" stroke="#bfbfbf" points="2878.4959,-168.5 2878.4959,-187.5 2925.4959,-187.5 2925.4959,-168.5 2878.4959,-168.5"/>
<text text-anchor="middle" x="2901.9959" y="-175.5" font-family="Helvetica,sans-Serif" font-size="10.00" fill="#000000">cerrno</text>
</g>
<!-- Node42&#45;&gt;Node48 -->
<g id="edge64" class="edge">
<title>Node42&#45;&gt;Node48</title>
<path fill="none" stroke="#191970" d="M2901.9959,-229.8906C2901.9959,-221.3657 2901.9959,-208.6392 2901.9959,-197.9235"/>
<polygon fill="#191970" stroke="#191970" points="2905.496,-197.7448 2901.9959,-187.7449 2898.496,-197.7449 2905.496,-197.7448"/>
</g>
</g>
</svg>
