<?xml version="1.0" encoding="UTF-8" standalone="no"?>
<!DOCTYPE svg PUBLIC "-//W3C//DTD SVG 1.1//EN"
 "http://www.w3.org/Graphics/SVG/1.1/DTD/svg11.dtd">
<!-- Generated by graphviz version 2.40.1 (20161225.0304)
 -->
<!-- Title: /home/travis/build/AliceO2Group/AliceO2/Common/MathUtils/include/MathUtils/fit.h Pages: 1 -->
<svg width="1404pt" height="339pt"
 viewBox="0.00 0.00 1404.00 339.00" xmlns="http://www.w3.org/2000/svg" xmlns:xlink="http://www.w3.org/1999/xlink">
<g id="graph0" class="graph" transform="scale(1 1) rotate(0) translate(4 335)">
<title>/home/travis/build/AliceO2Group/AliceO2/Common/MathUtils/include/MathUtils/fit.h</title>
<!-- Node20 -->
<g id="node1" class="node">
<title>Node20</title>
<polygon fill="#bfbfbf" stroke="#000000" points="637.5,-278.5 637.5,-330.5 789.5,-330.5 789.5,-278.5 637.5,-278.5"/>
<text text-anchor="start" x="645.5" y="-318.5" font-family="Helvetica,sans-Serif" font-size="10.00" fill="#000000">/home/travis/build</text>
<text text-anchor="start" x="645.5" y="-307.5" font-family="Helvetica,sans-Serif" font-size="10.00" fill="#000000">/AliceO2Group/AliceO2</text>
<text text-anchor="start" x="645.5" y="-296.5" font-family="Helvetica,sans-Serif" font-size="10.00" fill="#000000">/Common/MathUtils/include</text>
<text text-anchor="middle" x="713.5" y="-285.5" font-family="Helvetica,sans-Serif" font-size="10.00" fill="#000000">/MathUtils/fit.h</text>
</g>
<!-- Node21 -->
<g id="node2" class="node">
<title>Node21</title>
<g id="a_node2"><a xlink:href="../../d7/d9c/ITSMFT_2MFT_2tracking_2src_2TrackFitter_8cxx.html" target="_top" xlink:title="/home/travis/build\l/AliceO2Group/AliceO2\l/Detectors/ITSMFT/MFT\l/tracking/src/TrackFitter.cxx">
<polygon fill="none" stroke="#000000" points="0,-189.5 0,-241.5 149,-241.5 149,-189.5 0,-189.5"/>
<text text-anchor="start" x="8" y="-229.5" font-family="Helvetica,sans-Serif" font-size="10.00" fill="#000000">/home/travis/build</text>
<text text-anchor="start" x="8" y="-218.5" font-family="Helvetica,sans-Serif" font-size="10.00" fill="#000000">/AliceO2Group/AliceO2</text>
<text text-anchor="start" x="8" y="-207.5" font-family="Helvetica,sans-Serif" font-size="10.00" fill="#000000">/Detectors/ITSMFT/MFT</text>
<text text-anchor="middle" x="74.5" y="-196.5" font-family="Helvetica,sans-Serif" font-size="10.00" fill="#000000">/tracking/src/TrackFitter.cxx</text>
</a>
</g>
</g>
<!-- Node20&#45;&gt;Node21 -->
<g id="edge1" class="edge">
<title>Node20&#45;&gt;Node21</title>
<path fill="none" stroke="#191970" d="M627.318,-299.9725C517.4871,-293.0234 322.2319,-276.7043 158.5,-242 155.5081,-241.3658 152.471,-240.669 149.414,-239.9232"/>
<polygon fill="#191970" stroke="#191970" points="627.1531,-303.4689 637.351,-300.5962 627.5874,-296.4824 627.1531,-303.4689"/>
</g>
<!-- Node22 -->
<g id="node3" class="node">
<title>Node22</title>
<g id="a_node3"><a xlink:href="../../d1/dff/LHCClockCalibrator_8cxx.html" target="_top" xlink:title="/home/travis/build\l/AliceO2Group/AliceO2\l/Detectors/TOF/calibration\l/src/LHCClockCalibrator.cxx">
<polygon fill="none" stroke="#000000" points="167,-189.5 167,-241.5 318,-241.5 318,-189.5 167,-189.5"/>
<text text-anchor="start" x="175" y="-229.5" font-family="Helvetica,sans-Serif" font-size="10.00" fill="#000000">/home/travis/build</text>
<text text-anchor="start" x="175" y="-218.5" font-family="Helvetica,sans-Serif" font-size="10.00" fill="#000000">/AliceO2Group/AliceO2</text>
<text text-anchor="start" x="175" y="-207.5" font-family="Helvetica,sans-Serif" font-size="10.00" fill="#000000">/Detectors/TOF/calibration</text>
<text text-anchor="middle" x="242.5" y="-196.5" font-family="Helvetica,sans-Serif" font-size="10.00" fill="#000000">/src/LHCClockCalibrator.cxx</text>
</a>
</g>
</g>
<!-- Node20&#45;&gt;Node22 -->
<g id="edge2" class="edge">
<title>Node20&#45;&gt;Node22</title>
<path fill="none" stroke="#191970" d="M627.0854,-294.0745C548.4012,-283.74 429.3139,-265.9862 327.5,-242 324.4909,-241.2911 321.4331,-240.5312 318.3527,-239.7326"/>
<polygon fill="#191970" stroke="#191970" points="627.066,-297.6015 637.4341,-295.4216 627.9696,-290.66 627.066,-297.6015"/>
</g>
<!-- Node23 -->
<g id="node4" class="node">
<title>Node23</title>
<g id="a_node4"><a xlink:href="../../d9/dff/TOFChannelCalibrator_8cxx.html" target="_top" xlink:title="/home/travis/build\l/AliceO2Group/AliceO2\l/Detectors/TOF/calibration\l/src/TOFChannelCalibrator.cxx">
<polygon fill="none" stroke="#000000" points="336,-189.5 336,-241.5 499,-241.5 499,-189.5 336,-189.5"/>
<text text-anchor="start" x="344" y="-229.5" font-family="Helvetica,sans-Serif" font-size="10.00" fill="#000000">/home/travis/build</text>
<text text-anchor="start" x="344" y="-218.5" font-family="Helvetica,sans-Serif" font-size="10.00" fill="#000000">/AliceO2Group/AliceO2</text>
<text text-anchor="start" x="344" y="-207.5" font-family="Helvetica,sans-Serif" font-size="10.00" fill="#000000">/Detectors/TOF/calibration</text>
<text text-anchor="middle" x="417.5" y="-196.5" font-family="Helvetica,sans-Serif" font-size="10.00" fill="#000000">/src/TOFChannelCalibrator.cxx</text>
</a>
</g>
</g>
<!-- Node20&#45;&gt;Node23 -->
<g id="edge3" class="edge">
<title>Node20&#45;&gt;Node23</title>
<path fill="none" stroke="#191970" d="M627.6896,-278.6989C587.2021,-266.5253 539.125,-252.0697 499.1761,-240.058"/>
<polygon fill="#191970" stroke="#191970" points="626.6883,-282.0526 637.2726,-281.5803 628.704,-275.349 626.6883,-282.0526"/>
</g>
<!-- Node24 -->
<g id="node5" class="node">
<title>Node24</title>
<g id="a_node5"><a xlink:href="../../d3/d84/FastHisto_8h.html" target="_top" xlink:title="/home/travis/build\l/AliceO2Group/AliceO2\l/Detectors/TPC/calibration\l/include/TPCCalibration/FastHisto.h">
<polygon fill="none" stroke="#000000" points="517,-189.5 517,-241.5 704,-241.5 704,-189.5 517,-189.5"/>
<text text-anchor="start" x="525" y="-229.5" font-family="Helvetica,sans-Serif" font-size="10.00" fill="#000000">/home/travis/build</text>
<text text-anchor="start" x="525" y="-218.5" font-family="Helvetica,sans-Serif" font-size="10.00" fill="#000000">/AliceO2Group/AliceO2</text>
<text text-anchor="start" x="525" y="-207.5" font-family="Helvetica,sans-Serif" font-size="10.00" fill="#000000">/Detectors/TPC/calibration</text>
<text text-anchor="middle" x="610.5" y="-196.5" font-family="Helvetica,sans-Serif" font-size="10.00" fill="#000000">/include/TPCCalibration/FastHisto.h</text>
</a>
</g>
</g>
<!-- Node20&#45;&gt;Node24 -->
<g id="edge4" class="edge">
<title>Node20&#45;&gt;Node24</title>
<path fill="none" stroke="#191970" d="M675.3964,-271.5755C663.9272,-261.6653 651.5054,-250.9319 640.6294,-241.5341"/>
<polygon fill="#191970" stroke="#191970" points="673.2987,-274.3886 683.1537,-278.2784 677.8754,-269.092 673.2987,-274.3886"/>
</g>
<!-- Node27 -->
<g id="node8" class="node">
<title>Node27</title>
<g id="a_node8"><a xlink:href="../../d9/df0/TrackResiduals_8cxx.html" target="_top" xlink:title="Implementation of the TrackResiduals class. ">
<polygon fill="none" stroke="#000000" points="722,-189.5 722,-241.5 913,-241.5 913,-189.5 722,-189.5"/>
<text text-anchor="start" x="730" y="-229.5" font-family="Helvetica,sans-Serif" font-size="10.00" fill="#000000">/home/travis/build</text>
<text text-anchor="start" x="730" y="-218.5" font-family="Helvetica,sans-Serif" font-size="10.00" fill="#000000">/AliceO2Group/AliceO2</text>
<text text-anchor="start" x="730" y="-207.5" font-family="Helvetica,sans-Serif" font-size="10.00" fill="#000000">/Detectors/TPC/calibration</text>
<text text-anchor="middle" x="817.5" y="-196.5" font-family="Helvetica,sans-Serif" font-size="10.00" fill="#000000">/SpacePoints/src/TrackResiduals.cxx</text>
</a>
</g>
</g>
<!-- Node20&#45;&gt;Node27 -->
<g id="edge7" class="edge">
<title>Node20&#45;&gt;Node27</title>
<path fill="none" stroke="#191970" d="M751.9735,-271.5755C763.5541,-261.6653 776.0965,-250.9319 787.0781,-241.5341"/>
<polygon fill="#191970" stroke="#191970" points="749.463,-269.1173 744.1409,-278.2784 754.0143,-274.4357 749.463,-269.1173"/>
</g>
<!-- Node28 -->
<g id="node9" class="node">
<title>Node28</title>
<g id="a_node9"><a xlink:href="../../d6/d99/CalibPedestal_8cxx.html" target="_top" xlink:title="/home/travis/build\l/AliceO2Group/AliceO2\l/Detectors/TPC/calibration\l/src/CalibPedestal.cxx">
<polygon fill="none" stroke="#000000" points="931,-189.5 931,-241.5 1074,-241.5 1074,-189.5 931,-189.5"/>
<text text-anchor="start" x="939" y="-229.5" font-family="Helvetica,sans-Serif" font-size="10.00" fill="#000000">/home/travis/build</text>
<text text-anchor="start" x="939" y="-218.5" font-family="Helvetica,sans-Serif" font-size="10.00" fill="#000000">/AliceO2Group/AliceO2</text>
<text text-anchor="start" x="939" y="-207.5" font-family="Helvetica,sans-Serif" font-size="10.00" fill="#000000">/Detectors/TPC/calibration</text>
<text text-anchor="middle" x="1002.5" y="-196.5" font-family="Helvetica,sans-Serif" font-size="10.00" fill="#000000">/src/CalibPedestal.cxx</text>
</a>
</g>
</g>
<!-- Node20&#45;&gt;Node28 -->
<g id="edge8" class="edge">
<title>Node20&#45;&gt;Node28</title>
<path fill="none" stroke="#191970" d="M799.5638,-279.3802C837.358,-268.19 882.2121,-254.6936 922.5,-242 925.1514,-241.1646 927.8499,-240.3073 930.5739,-239.4358"/>
<polygon fill="#191970" stroke="#191970" points="798.2068,-276.1315 789.6091,-282.3227 800.1911,-282.8444 798.2068,-276.1315"/>
</g>
<!-- Node29 -->
<g id="node10" class="node">
<title>Node29</title>
<g id="a_node10"><a xlink:href="../../d4/ddc/CalibPulser_8cxx.html" target="_top" xlink:title="/home/travis/build\l/AliceO2Group/AliceO2\l/Detectors/TPC/calibration\l/src/CalibPulser.cxx">
<polygon fill="none" stroke="#000000" points="1092,-189.5 1092,-241.5 1235,-241.5 1235,-189.5 1092,-189.5"/>
<text text-anchor="start" x="1100" y="-229.5" font-family="Helvetica,sans-Serif" font-size="10.00" fill="#000000">/home/travis/build</text>
<text text-anchor="start" x="1100" y="-218.5" font-family="Helvetica,sans-Serif" font-size="10.00" fill="#000000">/AliceO2Group/AliceO2</text>
<text text-anchor="start" x="1100" y="-207.5" font-family="Helvetica,sans-Serif" font-size="10.00" fill="#000000">/Detectors/TPC/calibration</text>
<text text-anchor="middle" x="1163.5" y="-196.5" font-family="Helvetica,sans-Serif" font-size="10.00" fill="#000000">/src/CalibPulser.cxx</text>
</a>
</g>
</g>
<!-- Node20&#45;&gt;Node29 -->
<g id="edge9" class="edge">
<title>Node20&#45;&gt;Node29</title>
<path fill="none" stroke="#191970" d="M799.6048,-293.7472C875.0861,-283.4234 987.4467,-265.8734 1083.5,-242 1086.1978,-241.3295 1088.9359,-240.6125 1091.6933,-239.8597"/>
<polygon fill="#191970" stroke="#191970" points="799.1052,-290.2828 789.6657,-295.094 800.0452,-297.2194 799.1052,-290.2828"/>
</g>
<!-- Node30 -->
<g id="node11" class="node">
<title>Node30</title>
<g id="a_node11"><a xlink:href="../../d2/d9a/CalibTreeDump_8cxx.html" target="_top" xlink:title="/home/travis/build\l/AliceO2Group/AliceO2\l/Detectors/TPC/calibration\l/src/CalibTreeDump.cxx">
<polygon fill="none" stroke="#000000" points="1253,-189.5 1253,-241.5 1396,-241.5 1396,-189.5 1253,-189.5"/>
<text text-anchor="start" x="1261" y="-229.5" font-family="Helvetica,sans-Serif" font-size="10.00" fill="#000000">/home/travis/build</text>
<text text-anchor="start" x="1261" y="-218.5" font-family="Helvetica,sans-Serif" font-size="10.00" fill="#000000">/AliceO2Group/AliceO2</text>
<text text-anchor="start" x="1261" y="-207.5" font-family="Helvetica,sans-Serif" font-size="10.00" fill="#000000">/Detectors/TPC/calibration</text>
<text text-anchor="middle" x="1324.5" y="-196.5" font-family="Helvetica,sans-Serif" font-size="10.00" fill="#000000">/src/CalibTreeDump.cxx</text>
</a>
</g>
</g>
<!-- Node20&#45;&gt;Node30 -->
<g id="edge10" class="edge">
<title>Node20&#45;&gt;Node30</title>
<path fill="none" stroke="#191970" d="M799.9261,-299.7232C905.7588,-292.6411 1089.9989,-276.3093 1244.5,-242 1247.2138,-241.3974 1249.9654,-240.7382 1252.7343,-240.0342"/>
<polygon fill="#191970" stroke="#191970" points="799.6815,-296.2316 789.9326,-300.3799 800.1406,-303.2165 799.6815,-296.2316"/>
</g>
<!-- Node25 -->
<g id="node6" class="node">
<title>Node25</title>
<g id="a_node6"><a xlink:href="../../dc/d42/CalibPadGainTracks_8h.html" target="_top" xlink:title="/home/travis/build\l/AliceO2Group/AliceO2\l/Detectors/TPC/calibration\l/include/TPCCalibration/CalibPad\lGainTracks.h">
<polygon fill="none" stroke="#000000" points="523,-89.5 523,-152.5 698,-152.5 698,-89.5 523,-89.5"/>
<text text-anchor="start" x="531" y="-140.5" font-family="Helvetica,sans-Serif" font-size="10.00" fill="#000000">/home/travis/build</text>
<text text-anchor="start" x="531" y="-129.5" font-family="Helvetica,sans-Serif" font-size="10.00" fill="#000000">/AliceO2Group/AliceO2</text>
<text text-anchor="start" x="531" y="-118.5" font-family="Helvetica,sans-Serif" font-size="10.00" fill="#000000">/Detectors/TPC/calibration</text>
<text text-anchor="start" x="531" y="-107.5" font-family="Helvetica,sans-Serif" font-size="10.00" fill="#000000">/include/TPCCalibration/CalibPad</text>
<text text-anchor="middle" x="610.5" y="-96.5" font-family="Helvetica,sans-Serif" font-size="10.00" fill="#000000">GainTracks.h</text>
</a>
</g>
</g>
<!-- Node24&#45;&gt;Node25 -->
<g id="edge5" class="edge">
<title>Node24&#45;&gt;Node25</title>
<path fill="none" stroke="#191970" d="M610.5,-179.1424C610.5,-170.4277 610.5,-161.1902 610.5,-152.7054"/>
<polygon fill="#191970" stroke="#191970" points="607.0001,-179.4273 610.5,-189.4273 614.0001,-179.4273 607.0001,-179.4273"/>
</g>
<!-- Node26 -->
<g id="node7" class="node">
<title>Node26</title>
<g id="a_node7"><a xlink:href="../../d9/da6/CalibPadGainTracks_8cxx.html" target="_top" xlink:title="/home/travis/build\l/AliceO2Group/AliceO2\l/Detectors/TPC/calibration\l/src/CalibPadGainTracks.cxx">
<polygon fill="none" stroke="#000000" points="534.5,-.5 534.5,-52.5 686.5,-52.5 686.5,-.5 534.5,-.5"/>
<text text-anchor="start" x="542.5" y="-40.5" font-family="Helvetica,sans-Serif" font-size="10.00" fill="#000000">/home/travis/build</text>
<text text-anchor="start" x="542.5" y="-29.5" font-family="Helvetica,sans-Serif" font-size="10.00" fill="#000000">/AliceO2Group/AliceO2</text>
<text text-anchor="start" x="542.5" y="-18.5" font-family="Helvetica,sans-Serif" font-size="10.00" fill="#000000">/Detectors/TPC/calibration</text>
<text text-anchor="middle" x="610.5" y="-7.5" font-family="Helvetica,sans-Serif" font-size="10.00" fill="#000000">/src/CalibPadGainTracks.cxx</text>
</a>
</g>
</g>
<!-- Node25&#45;&gt;Node26 -->
<g id="edge6" class="edge">
<title>Node25&#45;&gt;Node26</title>
<path fill="none" stroke="#191970" d="M610.5,-79.2457C610.5,-70.2008 610.5,-60.8836 610.5,-52.6442"/>
<polygon fill="#191970" stroke="#191970" points="607.0001,-79.2699 610.5,-89.27 614.0001,-79.27 607.0001,-79.2699"/>
</g>
</g>
</svg>
