<?xml version="1.0" encoding="UTF-8" standalone="no"?>
<!DOCTYPE svg PUBLIC "-//W3C//DTD SVG 1.1//EN"
 "http://www.w3.org/Graphics/SVG/1.1/DTD/svg11.dtd">
<!-- Generated by graphviz version 2.40.1 (20161225.0304)
 -->
<!-- Title: /home/travis/build/AliceO2Group/AliceO2/DataFormats/Detectors/ITSMFT/common/include/DataFormatsITSMFT/Cluster.h Pages: 1 -->
<!--zoomable 564 -->
<svg id="main" version="1.1" xmlns="http://www.w3.org/2000/svg" xmlns:xlink="http://www.w3.org/1999/xlink" xml:space="preserve" onload="init(evt)">
<style type="text/css"><![CDATA[
.edge:hover path { stroke: red; }
.edge:hover polygon { stroke: red; fill: red; }
]]></style>
<script type="text/javascript"><![CDATA[
var edges = document.getElementsByTagName('g');
if (edges && edges.length) {
  for (var i=0;i<edges.length;i++) {
    if (edges[i].id.substr(0,4)=='edge') {
      edges[i].setAttribute('class','edge');
    }
  }
}
]]></script>
        <defs>
                <circle id="rim" cx="0" cy="0" r="7"/>
                <circle id="rim2" cx="0" cy="0" r="3.5"/>
                <g id="zoomPlus">
                        <use xlink:href="#rim" fill="#404040">
                                <set attributeName="fill" to="#808080" begin="zoomplus.mouseover" end="zoomplus.mouseout"/>
                        </use>
                        <path d="M-4,0h8M0,-4v8" fill="none" stroke="white" stroke-width="1.5" pointer-events="none"/>
                </g>
                <g id="zoomMin">
                        <use xlink:href="#rim" fill="#404040">
                                <set attributeName="fill" to="#808080" begin="zoomminus.mouseover" end="zoomminus.mouseout"/>
                        </use>
                        <path d="M-4,0h8" fill="none" stroke="white" stroke-width="1.5" pointer-events="none"/>
                </g>
                <g id="dirArrow">
                        <path fill="none" stroke="white" stroke-width="1.5" d="M0,-3.0v7 M-2.5,-0.5L0,-3.0L2.5,-0.5"/>
                </g>
               <g id="resetDef">
                       <use xlink:href="#rim2" fill="#404040">
                               <set attributeName="fill" to="#808080" begin="reset.mouseover" end="reset.mouseout"/>
                       </use>
               </g>
        </defs>

<script type="text/javascript">
var viewWidth = 2708;
var viewHeight = 564;
var sectionId = 'dynsection-0';
</script>
<script xlink:href="../../svgpan.js"/>
<svg id="graph" class="graph">
<g id="viewport">
<title>/home/travis/build/AliceO2Group/AliceO2/DataFormats/Detectors/ITSMFT/common/include/DataFormatsITSMFT/Cluster.h</title>
<!-- Node0 -->
<g id="node1" class="node">
<title>Node0</title>
<polygon fill="#bfbfbf" stroke="#000000" points="1771,-492.5 1771,-555.5 1934,-555.5 1934,-492.5 1771,-492.5"/>
<text text-anchor="start" x="1779" y="-543.5" font-family="Helvetica,sans-Serif" font-size="10.00" fill="#000000">/home/travis/build</text>
<text text-anchor="start" x="1779" y="-532.5" font-family="Helvetica,sans-Serif" font-size="10.00" fill="#000000">/AliceO2Group/AliceO2</text>
<text text-anchor="start" x="1779" y="-521.5" font-family="Helvetica,sans-Serif" font-size="10.00" fill="#000000">/DataFormats/Detectors</text>
<text text-anchor="start" x="1779" y="-510.5" font-family="Helvetica,sans-Serif" font-size="10.00" fill="#000000">/ITSMFT/common/include</text>
<text text-anchor="middle" x="1852.5" y="-499.5" font-family="Helvetica,sans-Serif" font-size="10.00" fill="#000000">/DataFormatsITSMFT/Cluster.h</text>
</g>
<!-- Node1 -->
<g id="node2" class="node">
<title>Node1</title>
<g id="a_node2"><a xlink:href="../../d4/de2/BaseCluster_8h.html" target="_top" xlink:title="ReconstructionDataFormats\l/BaseCluster.h">
<polygon fill="none" stroke="#000000" points="1776.5,-425.5 1776.5,-455.5 1928.5,-455.5 1928.5,-425.5 1776.5,-425.5"/>
<text text-anchor="start" x="1784.5" y="-443.5" font-family="Helvetica,sans-Serif" font-size="10.00" fill="#000000">ReconstructionDataFormats</text>
<text text-anchor="middle" x="1852.5" y="-432.5" font-family="Helvetica,sans-Serif" font-size="10.00" fill="#000000">/BaseCluster.h</text>
</a>
</g>
</g>
<!-- Node0&#45;&gt;Node1 -->
<g id="edge1" class="edge">
<title>Node0&#45;&gt;Node1</title>
<path fill="none" stroke="#191970" d="M1852.5,-492.4322C1852.5,-483.6979 1852.5,-474.3303 1852.5,-465.989"/>
<polygon fill="#191970" stroke="#191970" points="1856.0001,-465.7544 1852.5,-455.7545 1849.0001,-465.7545 1856.0001,-465.7544"/>
</g>
<!-- Node2 -->
<g id="node3" class="node">
<title>Node2</title>
<g id="a_node3"><a xlink:href="../../dc/d73/Cartesian_8h.html" target="_top" xlink:title="MathUtils/Cartesian.h">
<polygon fill="none" stroke="#000000" points="874.5,-297 874.5,-316 996.5,-316 996.5,-297 874.5,-297"/>
<text text-anchor="middle" x="935.5" y="-304" font-family="Helvetica,sans-Serif" font-size="10.00" fill="#000000">MathUtils/Cartesian.h</text>
</a>
</g>
</g>
<!-- Node1&#45;&gt;Node2 -->
<g id="edge2" class="edge">
<title>Node1&#45;&gt;Node2</title>
<path fill="none" stroke="#191970" d="M1776.2865,-429.363C1601.9198,-403.883 1175.9555,-341.6374 1006.6147,-316.8919"/>
<polygon fill="#191970" stroke="#191970" points="1006.9632,-313.4057 996.5622,-315.4229 1005.951,-320.3322 1006.9632,-313.4057"/>
</g>
<!-- Node12 -->
<g id="node13" class="node">
<title>Node12</title>
<polygon fill="none" stroke="#bfbfbf" points="0,-230 0,-249 49,-249 49,-230 0,-230"/>
<text text-anchor="middle" x="24.5" y="-237" font-family="Helvetica,sans-Serif" font-size="10.00" fill="#000000">iosfwd</text>
</g>
<!-- Node1&#45;&gt;Node12 -->
<g id="edge17" class="edge">
<title>Node1&#45;&gt;Node12</title>
<path fill="none" stroke="#191970" d="M1776.2006,-433.5951C1670.7777,-423.985 1474.6347,-405.8545 1307.5,-389 751.5809,-332.9391 595.5537,-405.6224 57.5,-255 55.58,-254.4625 53.6328,-253.8226 51.6943,-253.1136"/>
<polygon fill="#191970" stroke="#191970" points="52.8143,-249.7881 42.2388,-249.1476 50.1067,-256.2432 52.8143,-249.7881"/>
</g>
<!-- Node13 -->
<g id="node14" class="node">
<title>Node13</title>
<polygon fill="none" stroke="#bfbfbf" points="1686,-364 1686,-383 1749,-383 1749,-364 1686,-364"/>
<text text-anchor="middle" x="1717.5" y="-371" font-family="Helvetica,sans-Serif" font-size="10.00" fill="#000000">TObject.h</text>
</g>
<!-- Node1&#45;&gt;Node13 -->
<g id="edge13" class="edge">
<title>Node1&#45;&gt;Node13</title>
<path fill="none" stroke="#191970" d="M1822.2034,-425.4639C1799.348,-414.1209 1768.2171,-398.6707 1745.8506,-387.5703"/>
<polygon fill="#191970" stroke="#191970" points="1747.3647,-384.4144 1736.8512,-383.1039 1744.2527,-390.6847 1747.3647,-384.4144"/>
</g>
<!-- Node14 -->
<g id="node15" class="node">
<title>Node14</title>
<polygon fill="none" stroke="#bfbfbf" points="2506.5,-230 2506.5,-249 2550.5,-249 2550.5,-230 2506.5,-230"/>
<text text-anchor="middle" x="2528.5" y="-237" font-family="Helvetica,sans-Serif" font-size="10.00" fill="#000000">bitset</text>
</g>
<!-- Node1&#45;&gt;Node14 -->
<g id="edge14" class="edge">
<title>Node1&#45;&gt;Node14</title>
<path fill="none" stroke="#191970" d="M1928.6344,-435.2611C2078.7916,-423.5367 2406.0597,-390.6533 2492.5,-322 2512.0383,-306.4821 2521.2085,-278.2295 2525.3434,-259.1634"/>
<polygon fill="#191970" stroke="#191970" points="2528.815,-259.6413 2527.2364,-249.1648 2521.9372,-258.3391 2528.815,-259.6413"/>
</g>
<!-- Node15 -->
<g id="node16" class="node">
<title>Node15</title>
<polygon fill="none" stroke="#bfbfbf" points="1956.5,-364 1956.5,-383 2012.5,-383 2012.5,-364 1956.5,-364"/>
<text text-anchor="middle" x="1984.5" y="-371" font-family="Helvetica,sans-Serif" font-size="10.00" fill="#000000">iomanip</text>
</g>
<!-- Node1&#45;&gt;Node15 -->
<g id="edge15" class="edge">
<title>Node1&#45;&gt;Node15</title>
<path fill="none" stroke="#191970" d="M1882.1234,-425.4639C1904.3711,-414.1715 1934.6384,-398.8086 1956.4861,-387.7192"/>
<polygon fill="#191970" stroke="#191970" points="1958.2459,-390.7511 1965.5788,-383.1039 1955.0776,-384.5091 1958.2459,-390.7511"/>
</g>
<!-- Node16 -->
<g id="node17" class="node">
<title>Node16</title>
<polygon fill="none" stroke="#bfbfbf" points="2031,-364 2031,-383 2062,-383 2062,-364 2031,-364"/>
<text text-anchor="middle" x="2046.5" y="-371" font-family="Helvetica,sans-Serif" font-size="10.00" fill="#000000">ios</text>
</g>
<!-- Node1&#45;&gt;Node16 -->
<g id="edge16" class="edge">
<title>Node1&#45;&gt;Node16</title>
<path fill="none" stroke="#191970" d="M1915.7214,-425.4176C1948.0902,-416.6589 1987.6942,-404.316 2021.5,-389 2022.1977,-388.6839 2022.8996,-388.3516 2023.6026,-388.0061"/>
<polygon fill="#191970" stroke="#191970" points="2025.538,-390.9346 2032.5751,-383.0144 2022.1348,-384.8175 2025.538,-390.9346"/>
</g>
<!-- Node17 -->
<g id="node18" class="node">
<title>Node17</title>
<g id="a_node18"><a xlink:href="../../d4/d20/DetMatrixCache_8h.html" target="_top" xlink:title="DetectorsCommonDataFormats\l/DetMatrixCache.h">
<polygon fill="none" stroke="#000000" points="1767,-358.5 1767,-388.5 1938,-388.5 1938,-358.5 1767,-358.5"/>
<text text-anchor="start" x="1775" y="-376.5" font-family="Helvetica,sans-Serif" font-size="10.00" fill="#000000">DetectorsCommonDataFormats</text>
<text text-anchor="middle" x="1852.5" y="-365.5" font-family="Helvetica,sans-Serif" font-size="10.00" fill="#000000">/DetMatrixCache.h</text>
</a>
</g>
</g>
<!-- Node1&#45;&gt;Node17 -->
<g id="edge18" class="edge">
<title>Node1&#45;&gt;Node17</title>
<path fill="none" stroke="#191970" d="M1852.5,-425.2967C1852.5,-417.5013 1852.5,-407.7991 1852.5,-398.9064"/>
<polygon fill="#191970" stroke="#191970" points="1856.0001,-398.6431 1852.5,-388.6432 1849.0001,-398.6432 1856.0001,-398.6431"/>
</g>
<!-- Node3 -->
<g id="node4" class="node">
<title>Node3</title>
<polygon fill="none" stroke="#bfbfbf" points="374.5,-224.5 374.5,-254.5 538.5,-254.5 538.5,-224.5 374.5,-224.5"/>
<text text-anchor="start" x="382.5" y="-242.5" font-family="Helvetica,sans-Serif" font-size="10.00" fill="#000000">Math/GenVector/Displacement</text>
<text text-anchor="middle" x="456.5" y="-231.5" font-family="Helvetica,sans-Serif" font-size="10.00" fill="#000000">Vector3D.h</text>
</g>
<!-- Node2&#45;&gt;Node3 -->
<g id="edge3" class="edge">
<title>Node2&#45;&gt;Node3</title>
<path fill="none" stroke="#191970" d="M874.2485,-299.076C799.791,-289.8934 670.0608,-273.3876 549.0055,-255.1985"/>
<polygon fill="#191970" stroke="#191970" points="549.2285,-251.6926 538.818,-253.6606 548.1835,-258.6142 549.2285,-251.6926"/>
</g>
<!-- Node4 -->
<g id="node5" class="node">
<title>Node4</title>
<polygon fill="none" stroke="#bfbfbf" points="557,-230 557,-249 746,-249 746,-230 557,-230"/>
<text text-anchor="middle" x="651.5" y="-237" font-family="Helvetica,sans-Serif" font-size="10.00" fill="#000000">Math/GenVector/PositionVector3D.h</text>
</g>
<!-- Node2&#45;&gt;Node4 -->
<g id="edge4" class="edge">
<title>Node2&#45;&gt;Node4</title>
<path fill="none" stroke="#191970" d="M895.1113,-296.9717C844.3648,-284.9998 757.26,-264.4504 702.1175,-251.4415"/>
<polygon fill="#191970" stroke="#191970" points="702.7456,-247.9936 692.2092,-249.1039 701.1383,-254.8066 702.7456,-247.9936"/>
</g>
<!-- Node5 -->
<g id="node6" class="node">
<title>Node5</title>
<polygon fill="none" stroke="#bfbfbf" points="764.5,-230 764.5,-249 924.5,-249 924.5,-230 764.5,-230"/>
<text text-anchor="middle" x="844.5" y="-237" font-family="Helvetica,sans-Serif" font-size="10.00" fill="#000000">Math/GenVector/Rotation3D.h</text>
</g>
<!-- Node2&#45;&gt;Node5 -->
<g id="edge5" class="edge">
<title>Node2&#45;&gt;Node5</title>
<path fill="none" stroke="#191970" d="M922.4619,-296.9005C907.7307,-286.0544 883.5267,-268.2339 865.9908,-255.3229"/>
<polygon fill="#191970" stroke="#191970" points="867.6418,-252.1922 857.5139,-249.0817 863.4915,-257.8291 867.6418,-252.1922"/>
</g>
<!-- Node6 -->
<g id="node7" class="node">
<title>Node6</title>
<polygon fill="none" stroke="#bfbfbf" points="942.5,-230 942.5,-249 1110.5,-249 1110.5,-230 942.5,-230"/>
<text text-anchor="middle" x="1026.5" y="-237" font-family="Helvetica,sans-Serif" font-size="10.00" fill="#000000">Math/GenVector/Transform3D.h</text>
</g>
<!-- Node2&#45;&gt;Node6 -->
<g id="edge6" class="edge">
<title>Node2&#45;&gt;Node6</title>
<path fill="none" stroke="#191970" d="M948.5381,-296.9005C963.2693,-286.0544 987.4733,-268.2339 1005.0092,-255.3229"/>
<polygon fill="#191970" stroke="#191970" points="1007.5085,-257.8291 1013.4861,-249.0817 1003.3582,-252.1922 1007.5085,-257.8291"/>
</g>
<!-- Node7 -->
<g id="node8" class="node">
<title>Node7</title>
<polygon fill="none" stroke="#bfbfbf" points="1129,-230 1129,-249 1302,-249 1302,-230 1129,-230"/>
<text text-anchor="middle" x="1215.5" y="-237" font-family="Helvetica,sans-Serif" font-size="10.00" fill="#000000">Math/GenVector/Translation3D.h</text>
</g>
<!-- Node2&#45;&gt;Node7 -->
<g id="edge7" class="edge">
<title>Node2&#45;&gt;Node7</title>
<path fill="none" stroke="#191970" d="M975.3198,-296.9717C1025.3516,-284.9998 1111.2296,-264.4504 1165.5954,-251.4415"/>
<polygon fill="#191970" stroke="#191970" points="1166.4533,-254.8351 1175.3642,-249.1039 1164.8242,-248.0272 1166.4533,-254.8351"/>
</g>
<!-- Node8 -->
<g id="node9" class="node">
<title>Node8</title>
<polygon fill="none" stroke="#bfbfbf" points="1320.5,-224.5 1320.5,-254.5 1484.5,-254.5 1484.5,-224.5 1320.5,-224.5"/>
<text text-anchor="start" x="1328.5" y="-242.5" font-family="Helvetica,sans-Serif" font-size="10.00" fill="#000000">Math/GenVector/Displacement</text>
<text text-anchor="middle" x="1402.5" y="-231.5" font-family="Helvetica,sans-Serif" font-size="10.00" fill="#000000">Vector2D.h</text>
</g>
<!-- Node2&#45;&gt;Node8 -->
<g id="edge8" class="edge">
<title>Node2&#45;&gt;Node8</title>
<path fill="none" stroke="#191970" d="M996.8074,-298.7265C1069.1988,-289.4078 1193.5004,-272.97 1310.0134,-255.2021"/>
<polygon fill="#191970" stroke="#191970" points="1310.8247,-258.6187 1320.1796,-253.6452 1309.765,-251.6994 1310.8247,-258.6187"/>
</g>
<!-- Node9 -->
<g id="node10" class="node">
<title>Node9</title>
<polygon fill="none" stroke="#bfbfbf" points="67,-230 67,-249 256,-249 256,-230 67,-230"/>
<text text-anchor="middle" x="161.5" y="-237" font-family="Helvetica,sans-Serif" font-size="10.00" fill="#000000">Math/GenVector/PositionVector2D.h</text>
</g>
<!-- Node2&#45;&gt;Node9 -->
<g id="edge9" class="edge">
<title>Node2&#45;&gt;Node9</title>
<path fill="none" stroke="#191970" d="M874.3919,-303.2639C756.4329,-296.6938 489.2397,-280.2394 265.5,-255 254.1356,-253.718 242.1051,-252.1352 230.415,-250.4756"/>
<polygon fill="#191970" stroke="#191970" points="230.6535,-246.9737 220.2548,-249.003 229.6494,-253.9013 230.6535,-246.9737"/>
</g>
<!-- Node10 -->
<g id="node11" class="node">
<title>Node10</title>
<polygon fill="none" stroke="#bfbfbf" points="1503,-230 1503,-249 1562,-249 1562,-230 1503,-230"/>
<text text-anchor="middle" x="1532.5" y="-237" font-family="Helvetica,sans-Serif" font-size="10.00" fill="#000000">Rtypes.h</text>
</g>
<!-- Node2&#45;&gt;Node10 -->
<g id="edge10" class="edge">
<title>Node2&#45;&gt;Node10</title>
<path fill="none" stroke="#191970" d="M996.8535,-303.0564C1121.5309,-295.6953 1400.5466,-277.2713 1493.5,-255 1496.2899,-254.3316 1499.1442,-253.502 1501.9771,-252.5768"/>
<polygon fill="#191970" stroke="#191970" points="1503.1948,-255.8583 1511.4015,-249.1575 1500.8074,-249.278 1503.1948,-255.8583"/>
</g>
<!-- Node11 -->
<g id="node12" class="node">
<title>Node11</title>
<polygon fill="none" stroke="#bfbfbf" points="274.5,-230 274.5,-249 356.5,-249 356.5,-230 274.5,-230"/>
<text text-anchor="middle" x="315.5" y="-237" font-family="Helvetica,sans-Serif" font-size="10.00" fill="#000000">TGeoMatrix.h</text>
</g>
<!-- Node2&#45;&gt;Node11 -->
<g id="edge11" class="edge">
<title>Node2&#45;&gt;Node11</title>
<path fill="none" stroke="#191970" d="M874.1631,-305.1793C769.0764,-301.9803 548.2589,-291.1643 365.5,-255 361.119,-254.1331 356.5776,-253.0279 352.0987,-251.8078"/>
<polygon fill="#191970" stroke="#191970" points="353.0604,-248.4425 342.4803,-249.0012 351.0996,-255.1623 353.0604,-248.4425"/>
</g>
<!-- Node2&#45;&gt;Node12 -->
<g id="edge12" class="edge">
<title>Node2&#45;&gt;Node12</title>
<path fill="none" stroke="#191970" d="M874.2158,-304.2502C687.8856,-297.2222 136.0267,-274.9551 57.5,-255 55.5216,-254.4972 53.5179,-253.8752 51.5267,-253.1718"/>
<polygon fill="#191970" stroke="#191970" points="52.4277,-249.7563 41.85,-249.1539 49.7434,-256.2211 52.4277,-249.7563"/>
</g>
<!-- Node17&#45;&gt;Node2 -->
<g id="edge26" class="edge">
<title>Node17&#45;&gt;Node2</title>
<path fill="none" stroke="#191970" d="M1766.9938,-359.0247C1764.1312,-358.6601 1761.2938,-358.3169 1758.5,-358 1481.6416,-326.5927 1150.0541,-313.1739 1006.9829,-308.5451"/>
<polygon fill="#191970" stroke="#191970" points="1006.7063,-305.0346 996.5998,-308.214 1006.4831,-312.0311 1006.7063,-305.0346"/>
</g>
<!-- Node18 -->
<g id="node19" class="node">
<title>Node18</title>
<g id="a_node19"><a xlink:href="../../df/d5b/GPUCommonLogger_8h.html" target="_top" xlink:title="GPUCommonLogger.h">
<polygon fill="none" stroke="#000000" points="2545,-297 2545,-316 2668,-316 2668,-297 2545,-297"/>
<text text-anchor="middle" x="2606.5" y="-304" font-family="Helvetica,sans-Serif" font-size="10.00" fill="#000000">GPUCommonLogger.h</text>
</a>
</g>
</g>
<!-- Node17&#45;&gt;Node18 -->
<g id="edge19" class="edge">
<title>Node17&#45;&gt;Node18</title>
<path fill="none" stroke="#191970" d="M1938.1524,-359.138C1941.3047,-358.7326 1944.4285,-358.3512 1947.5,-358 2188.6787,-330.4235 2250.976,-346.3669 2492.5,-322 2506.1727,-320.6206 2520.7303,-318.8631 2534.7095,-317.0303"/>
<polygon fill="#191970" stroke="#191970" points="2535.317,-320.4804 2544.7654,-315.6869 2534.39,-313.542 2535.317,-320.4804"/>
</g>
<!-- Node21 -->
<g id="node22" class="node">
<title>Node21</title>
<g id="a_node22"><a xlink:href="../../d2/d45/GPUCommonRtypes_8h.html" target="_top" xlink:title="GPUCommonRtypes.h">
<polygon fill="none" stroke="#000000" points="1547,-297 1547,-316 1672,-316 1672,-297 1547,-297"/>
<text text-anchor="middle" x="1609.5" y="-304" font-family="Helvetica,sans-Serif" font-size="10.00" fill="#000000">GPUCommonRtypes.h</text>
</a>
</g>
</g>
<!-- Node17&#45;&gt;Node21 -->
<g id="edge22" class="edge">
<title>Node17&#45;&gt;Node21</title>
<path fill="none" stroke="#191970" d="M1797.9661,-358.4639C1754.4935,-346.4776 1694.3876,-329.9052 1653.8398,-318.7254"/>
<polygon fill="#191970" stroke="#191970" points="1654.545,-315.2893 1643.9744,-316.0053 1652.6843,-322.0375 1654.545,-315.2893"/>
</g>
<!-- Node22 -->
<g id="node23" class="node">
<title>Node22</title>
<polygon fill="none" stroke="#bfbfbf" points="2419.5,-112.5 2419.5,-131.5 2461.5,-131.5 2461.5,-112.5 2419.5,-112.5"/>
<text text-anchor="middle" x="2440.5" y="-119.5" font-family="Helvetica,sans-Serif" font-size="10.00" fill="#000000">array</text>
</g>
<!-- Node17&#45;&gt;Node22 -->
<g id="edge24" class="edge">
<title>Node17&#45;&gt;Node22</title>
<path fill="none" stroke="#191970" d="M1917.043,-358.4922C2001.8606,-338.1406 2155.0185,-299.2154 2282.5,-255 2354.9503,-229.8715 2399.0913,-251.8905 2441.5,-188 2450.4013,-174.5899 2449.2342,-156.0278 2446.3674,-142.0036"/>
<polygon fill="#191970" stroke="#191970" points="2449.6692,-140.777 2443.8637,-131.9144 2442.8753,-142.463 2449.6692,-140.777"/>
</g>
<!-- Node23 -->
<g id="node24" class="node">
<title>Node23</title>
<polygon fill="none" stroke="#bfbfbf" points="1956,-297 1956,-316 2003,-316 2003,-297 1956,-297"/>
<text text-anchor="middle" x="1979.5" y="-304" font-family="Helvetica,sans-Serif" font-size="10.00" fill="#000000">vector</text>
</g>
<!-- Node17&#45;&gt;Node23 -->
<g id="edge25" class="edge">
<title>Node17&#45;&gt;Node23</title>
<path fill="none" stroke="#191970" d="M1881.0013,-358.4639C1902.3103,-347.2222 1931.266,-331.9463 1952.2639,-320.8686"/>
<polygon fill="#191970" stroke="#191970" points="1954.084,-323.8657 1961.2956,-316.1039 1950.8178,-317.6744 1954.084,-323.8657"/>
</g>
<!-- Node24 -->
<g id="node25" class="node">
<title>Node24</title>
<g id="a_node25"><a xlink:href="../../d6/d31/DetID_8h.html" target="_top" xlink:title="DetectorsCommonDataFormats\l/DetID.h">
<polygon fill="none" stroke="#000000" points="1767,-291.5 1767,-321.5 1938,-321.5 1938,-291.5 1767,-291.5"/>
<text text-anchor="start" x="1775" y="-309.5" font-family="Helvetica,sans-Serif" font-size="10.00" fill="#000000">DetectorsCommonDataFormats</text>
<text text-anchor="middle" x="1852.5" y="-298.5" font-family="Helvetica,sans-Serif" font-size="10.00" fill="#000000">/DetID.h</text>
</a>
</g>
</g>
<!-- Node17&#45;&gt;Node24 -->
<g id="edge27" class="edge">
<title>Node17&#45;&gt;Node24</title>
<path fill="none" stroke="#191970" d="M1852.5,-358.2967C1852.5,-350.5013 1852.5,-340.7991 1852.5,-331.9064"/>
<polygon fill="#191970" stroke="#191970" points="1856.0001,-331.6431 1852.5,-321.6432 1849.0001,-331.6432 1856.0001,-331.6431"/>
</g>
<!-- Node19 -->
<g id="node20" class="node">
<title>Node19</title>
<polygon fill="none" stroke="#bfbfbf" points="2639.5,-230 2639.5,-249 2699.5,-249 2699.5,-230 2639.5,-230"/>
<text text-anchor="middle" x="2669.5" y="-237" font-family="Helvetica,sans-Serif" font-size="10.00" fill="#000000">iostream</text>
</g>
<!-- Node18&#45;&gt;Node19 -->
<g id="edge20" class="edge">
<title>Node18&#45;&gt;Node19</title>
<path fill="none" stroke="#191970" d="M2615.5264,-296.9005C2625.4442,-286.353 2641.5641,-269.2096 2653.6091,-256.3998"/>
<polygon fill="#191970" stroke="#191970" points="2656.1899,-258.7645 2660.4904,-249.0817 2651.0903,-253.9693 2656.1899,-258.7645"/>
</g>
<!-- Node20 -->
<g id="node21" class="node">
<title>Node20</title>
<polygon fill="none" stroke="#bfbfbf" points="2575.5,-230 2575.5,-249 2621.5,-249 2621.5,-230 2575.5,-230"/>
<text text-anchor="middle" x="2598.5" y="-237" font-family="Helvetica,sans-Serif" font-size="10.00" fill="#000000">cstdio</text>
</g>
<!-- Node18&#45;&gt;Node20 -->
<g id="edge21" class="edge">
<title>Node18&#45;&gt;Node20</title>
<path fill="none" stroke="#191970" d="M2605.3538,-296.9005C2604.1894,-287.149 2602.3519,-271.7597 2600.8725,-259.3695"/>
<polygon fill="#191970" stroke="#191970" points="2604.3051,-258.5961 2599.6441,-249.0817 2597.3545,-259.4261 2604.3051,-258.5961"/>
</g>
<!-- Node21&#45;&gt;Node10 -->
<g id="edge23" class="edge">
<title>Node21&#45;&gt;Node10</title>
<path fill="none" stroke="#191970" d="M1598.4678,-296.9005C1586.1172,-286.1539 1565.8977,-268.5603 1551.0943,-255.6794"/>
<polygon fill="#191970" stroke="#191970" points="1553.3532,-253.0055 1543.5118,-249.0817 1548.7582,-258.2863 1553.3532,-253.0055"/>
</g>
<!-- Node24&#45;&gt;Node10 -->
<g id="edge28" class="edge">
<title>Node24&#45;&gt;Node10</title>
<path fill="none" stroke="#191970" d="M1766.877,-294.0185C1711.9863,-285.1605 1639.4768,-271.8602 1576.5,-255 1573.3706,-254.1622 1570.1449,-253.2078 1566.9295,-252.1937"/>
<polygon fill="#191970" stroke="#191970" points="1568.0137,-248.8658 1557.4201,-249.0291 1565.8033,-255.5077 1568.0137,-248.8658"/>
</g>
<!-- Node24&#45;&gt;Node14 -->
<g id="edge30" class="edge">
<title>Node24&#45;&gt;Node14</title>
<path fill="none" stroke="#191970" d="M1938.1546,-292.1575C1941.3063,-291.7466 1944.4293,-291.3588 1947.5,-291 2171.8744,-264.7847 2230.7682,-286.2277 2454.5,-255 2468.348,-253.0671 2483.4843,-250.0591 2496.439,-247.2053"/>
<polygon fill="#191970" stroke="#191970" points="2497.3145,-250.5957 2506.2943,-244.9732 2495.7682,-243.7686 2497.3145,-250.5957"/>
</g>
<!-- Node24&#45;&gt;Node22 -->
<g id="edge29" class="edge">
<title>Node24&#45;&gt;Node22</title>
<path fill="none" stroke="#191970" d="M1938.0708,-292.5349C2030.8627,-277.3876 2166.0773,-255.3032 2167.5,-255 2281.6858,-230.6644 2338.0259,-269.6253 2421.5,-188 2433.8642,-175.9096 2438.3172,-156.3354 2439.8545,-141.6373"/>
<polygon fill="#191970" stroke="#191970" points="2443.3536,-141.7685 2440.5444,-131.5528 2436.3699,-141.2906 2443.3536,-141.7685"/>
</g>
<!-- Node25 -->
<g id="node26" class="node">
<title>Node25</title>
<polygon fill="none" stroke="#bfbfbf" points="1772.5,-168.5 1772.5,-187.5 1824.5,-187.5 1824.5,-168.5 1772.5,-168.5"/>
<text text-anchor="middle" x="1798.5" y="-175.5" font-family="Helvetica,sans-Serif" font-size="10.00" fill="#000000">cassert</text>
</g>
<!-- Node24&#45;&gt;Node25 -->
<g id="edge31" class="edge">
<title>Node24&#45;&gt;Node25</title>
<path fill="none" stroke="#191970" d="M1846.0934,-291.2548C1836.2225,-267.7656 1817.3106,-222.7623 1806.5363,-197.1235"/>
<polygon fill="#191970" stroke="#191970" points="1809.6922,-195.5989 1802.5913,-187.7358 1803.2388,-198.3108 1809.6922,-195.5989"/>
</g>
<!-- Node26 -->
<g id="node27" class="node">
<title>Node26</title>
<polygon fill="none" stroke="#bfbfbf" points="1762.5,-112.5 1762.5,-131.5 1812.5,-131.5 1812.5,-112.5 1762.5,-112.5"/>
<text text-anchor="middle" x="1787.5" y="-119.5" font-family="Helvetica,sans-Serif" font-size="10.00" fill="#000000">cstdint</text>
</g>
<!-- Node24&#45;&gt;Node26 -->
<g id="edge32" class="edge">
<title>Node24&#45;&gt;Node26</title>
<path fill="none" stroke="#191970" d="M1853.4689,-291.448C1854.5342,-264.9962 1853.8999,-209.0851 1833.5,-168 1827.8086,-156.5376 1818.1433,-146.2101 1809.137,-138.2585"/>
<polygon fill="#191970" stroke="#191970" points="1811.1149,-135.3516 1801.1842,-131.6595 1806.6449,-140.7387 1811.1149,-135.3516"/>
</g>
<!-- Node27 -->
<g id="node28" class="node">
<title>Node27</title>
<polygon fill="none" stroke="#bfbfbf" points="1881,-230 1881,-249 1954,-249 1954,-230 1881,-230"/>
<text text-anchor="middle" x="1917.5" y="-237" font-family="Helvetica,sans-Serif" font-size="10.00" fill="#000000">string_view</text>
</g>
<!-- Node24&#45;&gt;Node27 -->
<g id="edge33" class="edge">
<title>Node24&#45;&gt;Node27</title>
<path fill="none" stroke="#191970" d="M1867.2495,-291.2967C1877.3768,-280.8578 1890.8212,-266.9997 1901.2552,-256.2446"/>
<polygon fill="#191970" stroke="#191970" points="1903.7792,-258.6695 1908.2303,-249.055 1898.755,-253.7953 1903.7792,-258.6695"/>
</g>
<!-- Node28 -->
<g id="node29" class="node">
<title>Node28</title>
<polygon fill="none" stroke="#bfbfbf" points="1108.5,-168.5 1108.5,-187.5 1152.5,-187.5 1152.5,-168.5 1108.5,-168.5"/>
<text text-anchor="middle" x="1130.5" y="-175.5" font-family="Helvetica,sans-Serif" font-size="10.00" fill="#000000">string</text>
</g>
<!-- Node24&#45;&gt;Node28 -->
<g id="edge34" class="edge">
<title>Node24&#45;&gt;Node28</title>
<path fill="none" stroke="#191970" d="M1766.8191,-298.0474C1719.0777,-290.972 1659.5501,-278.1304 1610.5,-255 1590.473,-245.5559 1592.0615,-232.2156 1571.5,-224 1403.6901,-156.9491 1344.2965,-220.3171 1166.5,-188 1165.2435,-187.7716 1163.9674,-187.5192 1162.6821,-187.2479"/>
<polygon fill="#191970" stroke="#191970" points="1163.3629,-183.8119 1152.822,-184.8799 1161.7282,-190.6184 1163.3629,-183.8119"/>
</g>
<!-- Node29 -->
<g id="node30" class="node">
<title>Node29</title>
<polygon fill="none" stroke="#bfbfbf" points="2089,-230 2089,-249 2158,-249 2158,-230 2089,-230"/>
<text text-anchor="middle" x="2123.5" y="-237" font-family="Helvetica,sans-Serif" font-size="10.00" fill="#000000">type_traits</text>
</g>
<!-- Node24&#45;&gt;Node29 -->
<g id="edge35" class="edge">
<title>Node24&#45;&gt;Node29</title>
<path fill="none" stroke="#191970" d="M1928.9856,-291.4501C1973.2726,-282.1642 2029.898,-269.3114 2079.5,-255 2082.44,-254.1517 2085.4705,-253.2163 2088.5009,-252.2378"/>
<polygon fill="#191970" stroke="#191970" points="2089.7057,-255.5253 2098.0683,-249.0201 2087.4743,-248.8905 2089.7057,-255.5253"/>
</g>
<!-- Node30 -->
<g id="node31" class="node">
<title>Node30</title>
<g id="a_node31"><a xlink:href="../../d9/d52/Common_2MathUtils_2include_2MathUtils_2Utils_8h.html" target="_top" xlink:title="MathUtils/Utils.h">
<polygon fill="none" stroke="#000000" points="1972.5,-230 1972.5,-249 2070.5,-249 2070.5,-230 1972.5,-230"/>
<text text-anchor="middle" x="2021.5" y="-237" font-family="Helvetica,sans-Serif" font-size="10.00" fill="#000000">MathUtils/Utils.h</text>
</a>
</g>
</g>
<!-- Node24&#45;&gt;Node30 -->
<g id="edge36" class="edge">
<title>Node24&#45;&gt;Node30</title>
<path fill="none" stroke="#191970" d="M1890.4269,-291.4639C1919.677,-279.8677 1959.7547,-263.9789 1987.8676,-252.8335"/>
<polygon fill="#191970" stroke="#191970" points="1989.269,-256.0431 1997.2752,-249.1039 1986.6892,-249.5358 1989.269,-256.0431"/>
</g>
<!-- Node42 -->
<g id="node43" class="node">
<title>Node42</title>
<g id="a_node43"><a xlink:href="../../dc/dcd/DataHeader_8h.html" target="_top" xlink:title="Headers/DataHeader.h">
<polygon fill="none" stroke="#000000" points="1619,-230 1619,-249 1746,-249 1746,-230 1619,-230"/>
<text text-anchor="middle" x="1682.5" y="-237" font-family="Helvetica,sans-Serif" font-size="10.00" fill="#000000">Headers/DataHeader.h</text>
</a>
</g>
</g>
<!-- Node24&#45;&gt;Node42 -->
<g id="edge53" class="edge">
<title>Node24&#45;&gt;Node42</title>
<path fill="none" stroke="#191970" d="M1814.3487,-291.4639C1784.9255,-279.8677 1744.6107,-263.9789 1716.3314,-252.8335"/>
<polygon fill="#191970" stroke="#191970" points="1717.455,-249.5144 1706.8682,-249.1039 1714.8883,-256.0269 1717.455,-249.5144"/>
</g>
<!-- Node31 -->
<g id="node32" class="node">
<title>Node31</title>
<g id="a_node32"><a xlink:href="../../de/def/bitOps_8h.html" target="_top" xlink:title="MathUtils/detail/bitOps.h">
<polygon fill="none" stroke="#000000" points="1881,-168.5 1881,-187.5 2018,-187.5 2018,-168.5 1881,-168.5"/>
<text text-anchor="middle" x="1949.5" y="-175.5" font-family="Helvetica,sans-Serif" font-size="10.00" fill="#000000">MathUtils/detail/bitOps.h</text>
</a>
</g>
</g>
<!-- Node30&#45;&gt;Node31 -->
<g id="edge37" class="edge">
<title>Node30&#45;&gt;Node31</title>
<path fill="none" stroke="#191970" d="M2010.25,-229.8906C1999.114,-220.3786 1981.854,-205.6357 1968.5732,-194.2917"/>
<polygon fill="#191970" stroke="#191970" points="1970.7856,-191.5784 1960.9086,-187.7449 1966.2392,-196.9011 1970.7856,-191.5784"/>
</g>
<!-- Node32 -->
<g id="node33" class="node">
<title>Node32</title>
<g id="a_node33"><a xlink:href="../../d3/dfc/StatAccumulator_8h.html" target="_top" xlink:title="MathUtils/detail/StatAccumulator.h">
<polygon fill="none" stroke="#000000" points="2226.5,-168.5 2226.5,-187.5 2412.5,-187.5 2412.5,-168.5 2226.5,-168.5"/>
<text text-anchor="middle" x="2319.5" y="-175.5" font-family="Helvetica,sans-Serif" font-size="10.00" fill="#000000">MathUtils/detail/StatAccumulator.h</text>
</a>
</g>
</g>
<!-- Node30&#45;&gt;Node32 -->
<g id="edge39" class="edge">
<title>Node30&#45;&gt;Node32</title>
<path fill="none" stroke="#191970" d="M2056.3469,-229.9334C2064.2629,-227.8751 2072.6514,-225.7842 2080.5,-224 2138.9702,-210.7083 2206.0559,-198.0179 2254.2393,-189.3462"/>
<polygon fill="#191970" stroke="#191970" points="2254.9979,-192.7661 2264.2243,-187.558 2253.7639,-185.8758 2254.9979,-192.7661"/>
</g>
<!-- Node34 -->
<g id="node35" class="node">
<title>Node34</title>
<g id="a_node35"><a xlink:href="../../dd/d7d/trigonometric_8h.html" target="_top" xlink:title="MathUtils/detail/trigonometric.h">
<polygon fill="none" stroke="#000000" points="2036.5,-168.5 2036.5,-187.5 2208.5,-187.5 2208.5,-168.5 2036.5,-168.5"/>
<text text-anchor="middle" x="2122.5" y="-175.5" font-family="Helvetica,sans-Serif" font-size="10.00" fill="#000000">MathUtils/detail/trigonometric.h</text>
</a>
</g>
</g>
<!-- Node30&#45;&gt;Node34 -->
<g id="edge41" class="edge">
<title>Node30&#45;&gt;Node34</title>
<path fill="none" stroke="#191970" d="M2037.2813,-229.8906C2053.5875,-219.9616 2079.254,-204.333 2098.1614,-192.8201"/>
<polygon fill="#191970" stroke="#191970" points="2100.1087,-195.7322 2106.8296,-187.5419 2096.4681,-189.7533 2100.1087,-195.7322"/>
</g>
<!-- Node31&#45;&gt;Node26 -->
<g id="edge38" class="edge">
<title>Node31&#45;&gt;Node26</title>
<path fill="none" stroke="#191970" d="M1921.6512,-168.3733C1894.0982,-158.8488 1851.8546,-144.246 1822.1482,-133.9772"/>
<polygon fill="#191970" stroke="#191970" points="1823.1886,-130.6336 1812.5939,-130.6744 1820.9016,-137.2495 1823.1886,-130.6336"/>
</g>
<!-- Node33 -->
<g id="node34" class="node">
<title>Node33</title>
<polygon fill="none" stroke="#bfbfbf" points="2268,-112.5 2268,-131.5 2309,-131.5 2309,-112.5 2268,-112.5"/>
<text text-anchor="middle" x="2288.5" y="-119.5" font-family="Helvetica,sans-Serif" font-size="10.00" fill="#000000">tuple</text>
</g>
<!-- Node32&#45;&gt;Node33 -->
<g id="edge40" class="edge">
<title>Node32&#45;&gt;Node33</title>
<path fill="none" stroke="#191970" d="M2314.1002,-168.2455C2309.8773,-160.617 2303.8827,-149.7881 2298.7559,-140.5267"/>
<polygon fill="#191970" stroke="#191970" points="2301.7432,-138.6965 2293.8379,-131.6427 2295.619,-142.0867 2301.7432,-138.6965"/>
</g>
<!-- Node34&#45;&gt;Node22 -->
<g id="edge42" class="edge">
<title>Node34&#45;&gt;Node22</title>
<path fill="none" stroke="#191970" d="M2176.8048,-168.4369C2243.8257,-156.6345 2355.5221,-136.9647 2409.4664,-127.465"/>
<polygon fill="#191970" stroke="#191970" points="2410.2135,-130.8874 2419.4549,-125.7061 2408.9994,-123.9935 2410.2135,-130.8874"/>
</g>
<!-- Node34&#45;&gt;Node33 -->
<g id="edge44" class="edge">
<title>Node34&#45;&gt;Node33</title>
<path fill="none" stroke="#191970" d="M2151.0364,-168.3733C2180.8522,-158.3149 2227.4559,-142.5932 2257.9885,-132.293"/>
<polygon fill="#191970" stroke="#191970" points="2259.3229,-135.5367 2267.6795,-129.0238 2257.0853,-128.904 2259.3229,-135.5367"/>
</g>
<!-- Node35 -->
<g id="node36" class="node">
<title>Node35</title>
<polygon fill="none" stroke="#bfbfbf" points="2157,-56.5 2157,-75.5 2204,-75.5 2204,-56.5 2157,-56.5"/>
<text text-anchor="middle" x="2180.5" y="-63.5" font-family="Helvetica,sans-Serif" font-size="10.00" fill="#000000">cmath</text>
</g>
<!-- Node34&#45;&gt;Node35 -->
<g id="edge43" class="edge">
<title>Node34&#45;&gt;Node35</title>
<path fill="none" stroke="#191970" d="M2156.0002,-168.3574C2173.7612,-161.3494 2194.024,-149.8886 2204.5,-132 2213.3955,-116.8103 2204.6241,-97.7618 2195.2836,-84.0381"/>
<polygon fill="#191970" stroke="#191970" points="2198.0078,-81.8355 2189.2434,-75.8827 2192.3826,-86.0018 2198.0078,-81.8355"/>
</g>
<!-- Node36 -->
<g id="node37" class="node">
<title>Node36</title>
<g id="a_node37"><a xlink:href="../../df/d21/GPUCommonDef_8h.html" target="_top" xlink:title="GPUCommonDef.h">
<polygon fill="none" stroke="#000000" points="1931,-56.5 1931,-75.5 2038,-75.5 2038,-56.5 1931,-56.5"/>
<text text-anchor="middle" x="1984.5" y="-63.5" font-family="Helvetica,sans-Serif" font-size="10.00" fill="#000000">GPUCommonDef.h</text>
</a>
</g>
</g>
<!-- Node34&#45;&gt;Node36 -->
<g id="edge45" class="edge">
<title>Node34&#45;&gt;Node36</title>
<path fill="none" stroke="#191970" d="M2036.3343,-168.4617C1964.124,-159.5789 1870.9992,-145.685 1859.5,-132 1836.6996,-104.8655 1879.4076,-87.3414 1920.9678,-77.2202"/>
<polygon fill="#191970" stroke="#191970" points="1921.9493,-80.5858 1930.9067,-74.9276 1920.3759,-73.7649 1921.9493,-80.5858"/>
</g>
<!-- Node39 -->
<g id="node40" class="node">
<title>Node39</title>
<g id="a_node40"><a xlink:href="../../d6/da2/GPUCommonMath_8h.html" target="_top" xlink:title="GPUCommonMath.h">
<polygon fill="none" stroke="#000000" points="2080,-112.5 2080,-131.5 2195,-131.5 2195,-112.5 2080,-112.5"/>
<text text-anchor="middle" x="2137.5" y="-119.5" font-family="Helvetica,sans-Serif" font-size="10.00" fill="#000000">GPUCommonMath.h</text>
</a>
</g>
</g>
<!-- Node34&#45;&gt;Node39 -->
<g id="edge48" class="edge">
<title>Node34&#45;&gt;Node39</title>
<path fill="none" stroke="#191970" d="M2125.1128,-168.2455C2127.0916,-160.8579 2129.8744,-150.4689 2132.3012,-141.4087"/>
<polygon fill="#191970" stroke="#191970" points="2135.7105,-142.2078 2134.9171,-131.6427 2128.9489,-140.3966 2135.7105,-142.2078"/>
</g>
<!-- Node41 -->
<g id="node42" class="node">
<title>Node41</title>
<g id="a_node42"><a xlink:href="../../d6/d84/MathConstants_8h.html" target="_top" xlink:title="useful math constants ">
<polygon fill="none" stroke="#000000" points="1868.5,-112.5 1868.5,-131.5 2062.5,-131.5 2062.5,-112.5 1868.5,-112.5"/>
<text text-anchor="middle" x="1965.5" y="-119.5" font-family="Helvetica,sans-Serif" font-size="10.00" fill="#000000">CommonConstants/MathConstants.h</text>
</a>
</g>
</g>
<!-- Node34&#45;&gt;Node41 -->
<g id="edge52" class="edge">
<title>Node34&#45;&gt;Node41</title>
<path fill="none" stroke="#191970" d="M2095.5107,-168.3733C2069.6301,-159.1419 2030.3752,-145.1402 2001.7711,-134.9375"/>
<polygon fill="#191970" stroke="#191970" points="2002.7317,-131.5642 1992.1371,-131.5011 2000.38,-138.1573 2002.7317,-131.5642"/>
</g>
<!-- Node37 -->
<g id="node38" class="node">
<title>Node37</title>
<g id="a_node38"><a xlink:href="../../d5/d93/GPUCommonDefSettings_8h.html" target="_top" xlink:title="GPUCommonDefSettings.h">
<polygon fill="none" stroke="#000000" points="1833.5,-.5 1833.5,-19.5 1981.5,-19.5 1981.5,-.5 1833.5,-.5"/>
<text text-anchor="middle" x="1907.5" y="-7.5" font-family="Helvetica,sans-Serif" font-size="10.00" fill="#000000">GPUCommonDefSettings.h</text>
</a>
</g>
</g>
<!-- Node36&#45;&gt;Node37 -->
<g id="edge46" class="edge">
<title>Node36&#45;&gt;Node37</title>
<path fill="none" stroke="#191970" d="M1971.0876,-56.2455C1959.4943,-47.814 1942.5252,-35.4729 1929.0322,-25.6598"/>
<polygon fill="#191970" stroke="#191970" points="1930.9047,-22.6938 1920.7587,-19.6427 1926.7874,-28.355 1930.9047,-22.6938"/>
</g>
<!-- Node38 -->
<g id="node39" class="node">
<title>Node38</title>
<g id="a_node39"><a xlink:href="../../da/d5a/GPUCommonDefAPI_8h.html" target="_top" xlink:title="GPUCommonDefAPI.h">
<polygon fill="none" stroke="#000000" points="1999.5,-.5 1999.5,-19.5 2123.5,-19.5 2123.5,-.5 1999.5,-.5"/>
<text text-anchor="middle" x="2061.5" y="-7.5" font-family="Helvetica,sans-Serif" font-size="10.00" fill="#000000">GPUCommonDefAPI.h</text>
</a>
</g>
</g>
<!-- Node36&#45;&gt;Node38 -->
<g id="edge47" class="edge">
<title>Node36&#45;&gt;Node38</title>
<path fill="none" stroke="#191970" d="M1997.9124,-56.2455C2009.5057,-47.814 2026.4748,-35.4729 2039.9678,-25.6598"/>
<polygon fill="#191970" stroke="#191970" points="2042.2126,-28.355 2048.2413,-19.6427 2038.0953,-22.6938 2042.2126,-28.355"/>
</g>
<!-- Node39&#45;&gt;Node35 -->
<g id="edge50" class="edge">
<title>Node39&#45;&gt;Node35</title>
<path fill="none" stroke="#191970" d="M2144.99,-112.2455C2151.0326,-104.3761 2159.6903,-93.101 2166.9441,-83.6542"/>
<polygon fill="#191970" stroke="#191970" points="2169.7815,-85.7058 2173.0958,-75.6427 2164.2295,-81.4426 2169.7815,-85.7058"/>
</g>
<!-- Node39&#45;&gt;Node36 -->
<g id="edge49" class="edge">
<title>Node39&#45;&gt;Node36</title>
<path fill="none" stroke="#191970" d="M2111.1984,-112.3733C2086.0872,-103.1822 2048.0562,-89.2624 2020.2128,-79.0713"/>
<polygon fill="#191970" stroke="#191970" points="2021.0522,-75.6516 2010.4584,-75.5011 2018.6462,-82.2251 2021.0522,-75.6516"/>
</g>
<!-- Node40 -->
<g id="node41" class="node">
<title>Node40</title>
<polygon fill="none" stroke="#bfbfbf" points="1477.5,-56.5 1477.5,-75.5 1541.5,-75.5 1541.5,-56.5 1477.5,-56.5"/>
<text text-anchor="middle" x="1509.5" y="-63.5" font-family="Helvetica,sans-Serif" font-size="10.00" fill="#000000">algorithm</text>
</g>
<!-- Node39&#45;&gt;Node40 -->
<g id="edge51" class="edge">
<title>Node39&#45;&gt;Node40</title>
<path fill="none" stroke="#191970" d="M2079.9384,-113.0405C2077.0874,-112.6715 2074.2627,-112.322 2071.5,-112 1877.9217,-89.4397 1645.5536,-74.1495 1551.7887,-68.4653"/>
<polygon fill="#191970" stroke="#191970" points="1551.7677,-64.9578 1541.5755,-67.851 1551.3473,-71.9451 1551.7677,-64.9578"/>
</g>
<!-- Node42&#45;&gt;Node25 -->
<g id="edge56" class="edge">
<title>Node42&#45;&gt;Node25</title>
<path fill="none" stroke="#191970" d="M1700.625,-229.8906C1719.6083,-219.8262 1749.6373,-203.9057 1771.4307,-192.3514"/>
<polygon fill="#191970" stroke="#191970" points="1773.3066,-195.3184 1780.5023,-187.5419 1770.0277,-189.1338 1773.3066,-195.3184"/>
</g>
<!-- Node42&#45;&gt;Node26 -->
<g id="edge54" class="edge">
<title>Node42&#45;&gt;Node26</title>
<path fill="none" stroke="#191970" d="M1663.1295,-229.9266C1638.6535,-216.5486 1601.7368,-191.2808 1619.5,-168 1635.5056,-147.0227 1707.7571,-133.2694 1752.1336,-126.6391"/>
<polygon fill="#191970" stroke="#191970" points="1752.8286,-130.0751 1762.2257,-125.1817 1751.8281,-123.147 1752.8286,-130.0751"/>
</g>
<!-- Node42&#45;&gt;Node28 -->
<g id="edge60" class="edge">
<title>Node42&#45;&gt;Node28</title>
<path fill="none" stroke="#191970" d="M1638.9206,-229.9274C1627.7441,-227.7239 1615.712,-225.5695 1604.5,-224 1411.0631,-196.921 1358.7894,-222.2914 1166.5,-188 1165.2428,-187.7758 1163.966,-187.5269 1162.6801,-187.2585"/>
<polygon fill="#191970" stroke="#191970" points="1163.3573,-183.8219 1152.8178,-184.9034 1161.7313,-190.6305 1163.3573,-183.8219"/>
</g>
<!-- Node42&#45;&gt;Node40 -->
<g id="edge58" class="edge">
<title>Node42&#45;&gt;Node40</title>
<path fill="none" stroke="#191970" d="M1638.913,-229.9807C1627.7367,-227.7762 1615.7065,-225.608 1604.5,-224 1559.8902,-217.5989 1230.9199,-221.2512 1200.5,-188 1120.9753,-101.0739 1365.1011,-75.1931 1467.0075,-68.2832"/>
<polygon fill="#191970" stroke="#191970" points="1467.5186,-71.7575 1477.2716,-67.6189 1467.0665,-64.7721 1467.5186,-71.7575"/>
</g>
<!-- Node43 -->
<g id="node44" class="node">
<title>Node43</title>
<polygon fill="none" stroke="#bfbfbf" points="1628.5,-168.5 1628.5,-187.5 1686.5,-187.5 1686.5,-168.5 1628.5,-168.5"/>
<text text-anchor="middle" x="1657.5" y="-175.5" font-family="Helvetica,sans-Serif" font-size="10.00" fill="#000000">memory</text>
</g>
<!-- Node42&#45;&gt;Node43 -->
<g id="edge55" class="edge">
<title>Node42&#45;&gt;Node43</title>
<path fill="none" stroke="#191970" d="M1678.5938,-229.8906C1675.0554,-221.1862 1669.7364,-208.1015 1665.325,-197.2494"/>
<polygon fill="#191970" stroke="#191970" points="1668.4695,-195.6907 1661.4613,-187.7449 1661.9848,-198.3268 1668.4695,-195.6907"/>
</g>
<!-- Node44 -->
<g id="node45" class="node">
<title>Node44</title>
<polygon fill="none" stroke="#bfbfbf" points="1704.5,-168.5 1704.5,-187.5 1754.5,-187.5 1754.5,-168.5 1704.5,-168.5"/>
<text text-anchor="middle" x="1729.5" y="-175.5" font-family="Helvetica,sans-Serif" font-size="10.00" fill="#000000">cstring</text>
</g>
<!-- Node42&#45;&gt;Node44 -->
<g id="edge57" class="edge">
<title>Node42&#45;&gt;Node44</title>
<path fill="none" stroke="#191970" d="M1689.8438,-229.8906C1696.7702,-220.8273 1707.326,-207.0149 1715.806,-195.9188"/>
<polygon fill="#191970" stroke="#191970" points="1718.7615,-197.8155 1722.0527,-187.7449 1713.1997,-193.565 1718.7615,-197.8155"/>
</g>
<!-- Node45 -->
<g id="node46" class="node">
<title>Node45</title>
<polygon fill="none" stroke="#bfbfbf" points="1209,-168.5 1209,-187.5 1274,-187.5 1274,-168.5 1209,-168.5"/>
<text text-anchor="middle" x="1241.5" y="-175.5" font-family="Helvetica,sans-Serif" font-size="10.00" fill="#000000">stdexcept</text>
</g>
<!-- Node42&#45;&gt;Node45 -->
<g id="edge59" class="edge">
<title>Node42&#45;&gt;Node45</title>
<path fill="none" stroke="#191970" d="M1638.0673,-229.9962C1627.1247,-227.8421 1615.4146,-225.6934 1604.5,-224 1465.8226,-202.4842 1426.6718,-212.2084 1284.4083,-187.9689"/>
<polygon fill="#191970" stroke="#191970" points="1284.8865,-184.4997 1274.4362,-186.2434 1283.693,-191.3972 1284.8865,-184.4997"/>
</g>
<!-- Node46 -->
<g id="node47" class="node">
<title>Node46</title>
<polygon fill="none" stroke="#bfbfbf" points="1292.5,-168.5 1292.5,-187.5 1342.5,-187.5 1342.5,-168.5 1292.5,-168.5"/>
<text text-anchor="middle" x="1317.5" y="-175.5" font-family="Helvetica,sans-Serif" font-size="10.00" fill="#000000">climits</text>
</g>
<!-- Node42&#45;&gt;Node46 -->
<g id="edge61" class="edge">
<title>Node42&#45;&gt;Node46</title>
<path fill="none" stroke="#191970" d="M1636.796,-229.9821C1626.2122,-227.8992 1614.98,-225.7855 1604.5,-224 1495.7071,-205.4646 1464.2609,-211.7022 1352.6165,-187.9879"/>
<polygon fill="#191970" stroke="#191970" points="1353.1596,-184.5246 1342.6464,-185.8367 1351.6832,-191.3672 1353.1596,-184.5246"/>
</g>
<!-- Node47 -->
<g id="node48" class="node">
<title>Node47</title>
<g id="a_node48"><a xlink:href="../../d7/df8/Types_8h.html" target="_top" xlink:title="MemoryResources/Types.h">
<polygon fill="none" stroke="#000000" points="1360.5,-168.5 1360.5,-187.5 1506.5,-187.5 1506.5,-168.5 1360.5,-168.5"/>
<text text-anchor="middle" x="1433.5" y="-175.5" font-family="Helvetica,sans-Serif" font-size="10.00" fill="#000000">MemoryResources/Types.h</text>
</a>
</g>
</g>
<!-- Node42&#45;&gt;Node47 -->
<g id="edge62" class="edge">
<title>Node42&#45;&gt;Node47</title>
<path fill="none" stroke="#191970" d="M1643.867,-229.9581C1600.2519,-219.1857 1529.2247,-201.6428 1481.9359,-189.9631"/>
<polygon fill="#191970" stroke="#191970" points="1482.7712,-186.5643 1472.2237,-187.5643 1481.0927,-193.3601 1482.7712,-186.5643"/>
</g>
<!-- Node48 -->
<g id="node49" class="node">
<title>Node48</title>
<polygon fill="none" stroke="#bfbfbf" points="1525,-168.5 1525,-187.5 1572,-187.5 1572,-168.5 1525,-168.5"/>
<text text-anchor="middle" x="1548.5" y="-175.5" font-family="Helvetica,sans-Serif" font-size="10.00" fill="#000000">cerrno</text>
</g>
<!-- Node42&#45;&gt;Node48 -->
<g id="edge63" class="edge">
<title>Node42&#45;&gt;Node48</title>
<path fill="none" stroke="#191970" d="M1661.5625,-229.8906C1639.2402,-219.6457 1603.6963,-203.3326 1578.4243,-191.7339"/>
<polygon fill="#191970" stroke="#191970" points="1579.8389,-188.5322 1569.2905,-187.5419 1576.919,-194.8942 1579.8389,-188.5322"/>
</g>
</g>
</svg>
        <g id="navigator" transform="translate(0 0)" fill="#404254">
                <rect fill="#f2f5e9" fill-opacity="0.5" stroke="#606060" stroke-width=".5" x="0" y="0" width="60" height="60"/>
                <use id="zoomplus" xlink:href="#zoomPlus" x="17" y="9" onmousedown="handleZoom(evt,'in')"/>
                <use id="zoomminus" xlink:href="#zoomMin" x="42" y="9" onmousedown="handleZoom(evt,'out')"/>
                <use id="reset" xlink:href="#resetDef" x="30" y="36" onmousedown="handleReset()"/>
                <g id="arrowUp" xlink:href="#dirArrow" transform="translate(30 24)" onmousedown="handlePan(0,-1)">
                  <use xlink:href="#rim" fill="#404040">
                        <set attributeName="fill" to="#808080" begin="arrowUp.mouseover" end="arrowUp.mouseout"/>
                  </use>
                  <path fill="none" stroke="white" stroke-width="1.5" d="M0,-3.0v7 M-2.5,-0.5L0,-3.0L2.5,-0.5"/>
                </g>
                <g id="arrowRight" xlink:href="#dirArrow" transform="rotate(90) translate(36 -43)" onmousedown="handlePan(1,0)">
                  <use xlink:href="#rim" fill="#404040">
                        <set attributeName="fill" to="#808080" begin="arrowRight.mouseover" end="arrowRight.mouseout"/>
                  </use>
                  <path fill="none" stroke="white" stroke-width="1.5" d="M0,-3.0v7 M-2.5,-0.5L0,-3.0L2.5,-0.5"/>
                </g>
                <g id="arrowDown" xlink:href="#dirArrow" transform="rotate(180) translate(-30 -48)" onmousedown="handlePan(0,1)">
                  <use xlink:href="#rim" fill="#404040">
                        <set attributeName="fill" to="#808080" begin="arrowDown.mouseover" end="arrowDown.mouseout"/>
                  </use>
                  <path fill="none" stroke="white" stroke-width="1.5" d="M0,-3.0v7 M-2.5,-0.5L0,-3.0L2.5,-0.5"/>
                </g>
                <g id="arrowLeft" xlink:href="#dirArrow" transform="rotate(270) translate(-36 17)" onmousedown="handlePan(-1,0)">
                  <use xlink:href="#rim" fill="#404040">
                        <set attributeName="fill" to="#808080" begin="arrowLeft.mouseover" end="arrowLeft.mouseout"/>
                  </use>
                  <path fill="none" stroke="white" stroke-width="1.5" d="M0,-3.0v7 M-2.5,-0.5L0,-3.0L2.5,-0.5"/>
                </g>
        </g>
        <svg viewBox="0 0 15 15" width="100%" height="30px" preserveAspectRatio="xMaxYMin meet">
         <g id="arrow_out" transform="scale(0.3 0.3)">
          <a xlink:href="DataFormats_2Detectors_2ITSMFT_2common_2include_2DataFormatsITSMFT_2Cluster_8h__incl_org.svg" target="_base">
           <rect id="button" ry="5" rx="5" y="6" x="6" height="38" width="38"
                fill="#f2f5e9" fill-opacity="0.5" stroke="#606060" stroke-width="1.0"/>
           <path id="arrow"
             d="M 11.500037,31.436501 C 11.940474,20.09759 22.043105,11.32322 32.158766,21.979434 L 37.068811,17.246167 C 37.068811,17.246167 37.088388,32 37.088388,32 L 22.160133,31.978069 C 22.160133,31.978069 26.997745,27.140456 26.997745,27.140456 C 18.528582,18.264221 13.291696,25.230495 11.500037,31.436501 z"
             style="fill:#404040;"/>
          </a>
         </g>
        </svg>
</svg>
