<?xml version="1.0" encoding="UTF-8" standalone="no"?>
<!DOCTYPE svg PUBLIC "-//W3C//DTD SVG 1.1//EN"
 "http://www.w3.org/Graphics/SVG/1.1/DTD/svg11.dtd">
<!-- Generated by graphviz version 2.40.1 (20161225.0304)
 -->
<!-- Title: /home/travis/build/AliceO2Group/AliceO2/Analysis/Core/include/Analysis/RecoDecay.h Pages: 1 -->
<!--zoomable 239 -->
<svg id="main" version="1.1" xmlns="http://www.w3.org/2000/svg" xmlns:xlink="http://www.w3.org/1999/xlink" xml:space="preserve" onload="init(evt)">
<style type="text/css"><![CDATA[
.edge:hover path { stroke: red; }
.edge:hover polygon { stroke: red; fill: red; }
]]></style>
<script type="text/javascript"><![CDATA[
var edges = document.getElementsByTagName('g');
if (edges && edges.length) {
  for (var i=0;i<edges.length;i++) {
    if (edges[i].id.substr(0,4)=='edge') {
      edges[i].setAttribute('class','edge');
    }
  }
}
]]></script>
        <defs>
                <circle id="rim" cx="0" cy="0" r="7"/>
                <circle id="rim2" cx="0" cy="0" r="3.5"/>
                <g id="zoomPlus">
                        <use xlink:href="#rim" fill="#404040">
                                <set attributeName="fill" to="#808080" begin="zoomplus.mouseover" end="zoomplus.mouseout"/>
                        </use>
                        <path d="M-4,0h8M0,-4v8" fill="none" stroke="white" stroke-width="1.5" pointer-events="none"/>
                </g>
                <g id="zoomMin">
                        <use xlink:href="#rim" fill="#404040">
                                <set attributeName="fill" to="#808080" begin="zoomminus.mouseover" end="zoomminus.mouseout"/>
                        </use>
                        <path d="M-4,0h8" fill="none" stroke="white" stroke-width="1.5" pointer-events="none"/>
                </g>
                <g id="dirArrow">
                        <path fill="none" stroke="white" stroke-width="1.5" d="M0,-3.0v7 M-2.5,-0.5L0,-3.0L2.5,-0.5"/>
                </g>
               <g id="resetDef">
                       <use xlink:href="#rim2" fill="#404040">
                               <set attributeName="fill" to="#808080" begin="reset.mouseover" end="reset.mouseout"/>
                       </use>
               </g>
        </defs>

<script type="text/javascript">
var viewWidth = 2820;
var viewHeight = 239;
var sectionId = 'dynsection-1';
</script>
<script xlink:href="../../svgpan.js"/>
<svg id="graph" class="graph">
<g id="viewport">
<title>/home/travis/build/AliceO2Group/AliceO2/Analysis/Core/include/Analysis/RecoDecay.h</title>
<!-- Node8 -->
<g id="node1" class="node">
<title>Node8</title>
<polygon fill="#bfbfbf" stroke="#000000" points="1297,-178.5 1297,-230.5 1424,-230.5 1424,-178.5 1297,-178.5"/>
<text text-anchor="start" x="1305" y="-218.5" font-family="Helvetica,sans-Serif" font-size="10.00" fill="#000000">/home/travis/build</text>
<text text-anchor="start" x="1305" y="-207.5" font-family="Helvetica,sans-Serif" font-size="10.00" fill="#000000">/AliceO2Group/AliceO2</text>
<text text-anchor="start" x="1305" y="-196.5" font-family="Helvetica,sans-Serif" font-size="10.00" fill="#000000">/Analysis/Core/include</text>
<text text-anchor="middle" x="1360.5" y="-185.5" font-family="Helvetica,sans-Serif" font-size="10.00" fill="#000000">/Analysis/RecoDecay.h</text>
</g>
<!-- Node9 -->
<g id="node2" class="node">
<title>Node9</title>
<g id="a_node2"><a xlink:href="../../d1/db5/trackUtilities_8h.html" target="_top" xlink:title="Utilities for manipulating parameters of tracks and vertices. ">
<polygon fill="none" stroke="#000000" points="1045.5,-89.5 1045.5,-141.5 1181.5,-141.5 1181.5,-89.5 1045.5,-89.5"/>
<text text-anchor="start" x="1053.5" y="-129.5" font-family="Helvetica,sans-Serif" font-size="10.00" fill="#000000">/home/travis/build</text>
<text text-anchor="start" x="1053.5" y="-118.5" font-family="Helvetica,sans-Serif" font-size="10.00" fill="#000000">/AliceO2Group/AliceO2</text>
<text text-anchor="start" x="1053.5" y="-107.5" font-family="Helvetica,sans-Serif" font-size="10.00" fill="#000000">/Analysis/Core/include</text>
<text text-anchor="middle" x="1113.5" y="-96.5" font-family="Helvetica,sans-Serif" font-size="10.00" fill="#000000">/Analysis/trackUtilities.h</text>
</a>
</g>
</g>
<!-- Node8&#45;&gt;Node9 -->
<g id="edge1" class="edge">
<title>Node8&#45;&gt;Node9</title>
<path fill="none" stroke="#191970" d="M1287.1787,-178.0806C1253.7573,-166.038 1214.4285,-151.8669 1181.6554,-140.058"/>
<polygon fill="#191970" stroke="#191970" points="1286.297,-181.4831 1296.8914,-181.5803 1288.6699,-174.8976 1286.297,-181.4831"/>
</g>
<!-- Node14 -->
<g id="node7" class="node">
<title>Node14</title>
<g id="a_node7"><a xlink:href="../../d2/d15/cascadeconsumer_8cxx.html" target="_top" xlink:title="/home/travis/build\l/AliceO2Group/AliceO2\l/Analysis/Tasks/PWGLF\l/cascadeconsumer.cxx">
<polygon fill="none" stroke="#000000" points="736.5,-.5 736.5,-52.5 864.5,-52.5 864.5,-.5 736.5,-.5"/>
<text text-anchor="start" x="744.5" y="-40.5" font-family="Helvetica,sans-Serif" font-size="10.00" fill="#000000">/home/travis/build</text>
<text text-anchor="start" x="744.5" y="-29.5" font-family="Helvetica,sans-Serif" font-size="10.00" fill="#000000">/AliceO2Group/AliceO2</text>
<text text-anchor="start" x="744.5" y="-18.5" font-family="Helvetica,sans-Serif" font-size="10.00" fill="#000000">/Analysis/Tasks/PWGLF</text>
<text text-anchor="middle" x="800.5" y="-7.5" font-family="Helvetica,sans-Serif" font-size="10.00" fill="#000000">/cascadeconsumer.cxx</text>
</a>
</g>
</g>
<!-- Node8&#45;&gt;Node14 -->
<g id="edge35" class="edge">
<title>Node8&#45;&gt;Node14</title>
<path fill="none" stroke="#191970" d="M1286.4573,-201.2958C1207.9338,-195.8707 1081.4102,-181.2709 979.5,-142 923.2478,-120.3233 866.0608,-79.4256 831.9346,-52.5716"/>
<polygon fill="#191970" stroke="#191970" points="1286.5288,-204.808 1296.7371,-201.9724 1286.9886,-197.8231 1286.5288,-204.808"/>
</g>
<!-- Node15 -->
<g id="node8" class="node">
<title>Node15</title>
<g id="a_node8"><a xlink:href="../../d0/dd5/cascadefinder_8cxx.html" target="_top" xlink:title="/home/travis/build\l/AliceO2Group/AliceO2\l/Analysis/Tasks/PWGLF\l/cascadefinder.cxx">
<polygon fill="none" stroke="#000000" points="882.5,-.5 882.5,-52.5 1010.5,-52.5 1010.5,-.5 882.5,-.5"/>
<text text-anchor="start" x="890.5" y="-40.5" font-family="Helvetica,sans-Serif" font-size="10.00" fill="#000000">/home/travis/build</text>
<text text-anchor="start" x="890.5" y="-29.5" font-family="Helvetica,sans-Serif" font-size="10.00" fill="#000000">/AliceO2Group/AliceO2</text>
<text text-anchor="start" x="890.5" y="-18.5" font-family="Helvetica,sans-Serif" font-size="10.00" fill="#000000">/Analysis/Tasks/PWGLF</text>
<text text-anchor="middle" x="946.5" y="-7.5" font-family="Helvetica,sans-Serif" font-size="10.00" fill="#000000">/cascadefinder.cxx</text>
</a>
</g>
</g>
<!-- Node8&#45;&gt;Node15 -->
<g id="edge36" class="edge">
<title>Node8&#45;&gt;Node15</title>
<path fill="none" stroke="#191970" d="M1286.8533,-196.3758C1204.5964,-186.2533 1077.5887,-167.1752 1036.5,-142 1001.1683,-120.3521 974.3423,-79.4465 959.5144,-52.583"/>
<polygon fill="#191970" stroke="#191970" points="1286.5539,-199.865 1296.9028,-197.5954 1287.3974,-192.916 1286.5539,-199.865"/>
</g>
<!-- Node16 -->
<g id="node9" class="node">
<title>Node16</title>
<g id="a_node9"><a xlink:href="../../d1/db8/cascadeproducer_8cxx.html" target="_top" xlink:title="/home/travis/build\l/AliceO2Group/AliceO2\l/Analysis/Tasks/PWGLF\l/cascadeproducer.cxx">
<polygon fill="none" stroke="#000000" points="1406.5,-.5 1406.5,-52.5 1534.5,-52.5 1534.5,-.5 1406.5,-.5"/>
<text text-anchor="start" x="1414.5" y="-40.5" font-family="Helvetica,sans-Serif" font-size="10.00" fill="#000000">/home/travis/build</text>
<text text-anchor="start" x="1414.5" y="-29.5" font-family="Helvetica,sans-Serif" font-size="10.00" fill="#000000">/AliceO2Group/AliceO2</text>
<text text-anchor="start" x="1414.5" y="-18.5" font-family="Helvetica,sans-Serif" font-size="10.00" fill="#000000">/Analysis/Tasks/PWGLF</text>
<text text-anchor="middle" x="1470.5" y="-7.5" font-family="Helvetica,sans-Serif" font-size="10.00" fill="#000000">/cascadeproducer.cxx</text>
</a>
</g>
</g>
<!-- Node8&#45;&gt;Node16 -->
<g id="edge37" class="edge">
<title>Node8&#45;&gt;Node16</title>
<path fill="none" stroke="#191970" d="M1359.326,-167.9376C1360.1936,-143.8155 1364.596,-112.4579 1379.5,-89 1388.853,-74.2789 1403.0552,-62.1263 1417.4773,-52.5761"/>
<polygon fill="#191970" stroke="#191970" points="1355.8234,-168.0632 1359.1505,-178.1221 1362.8224,-168.1839 1355.8234,-168.0632"/>
</g>
<!-- Node17 -->
<g id="node10" class="node">
<title>Node17</title>
<g id="a_node10"><a xlink:href="../../d4/d77/lambdakzeroconsumer_8cxx.html" target="_top" xlink:title="/home/travis/build\l/AliceO2Group/AliceO2\l/Analysis/Tasks/PWGLF\l/lambdakzeroconsumer.cxx">
<polygon fill="none" stroke="#000000" points="0,-.5 0,-52.5 151,-52.5 151,-.5 0,-.5"/>
<text text-anchor="start" x="8" y="-40.5" font-family="Helvetica,sans-Serif" font-size="10.00" fill="#000000">/home/travis/build</text>
<text text-anchor="start" x="8" y="-29.5" font-family="Helvetica,sans-Serif" font-size="10.00" fill="#000000">/AliceO2Group/AliceO2</text>
<text text-anchor="start" x="8" y="-18.5" font-family="Helvetica,sans-Serif" font-size="10.00" fill="#000000">/Analysis/Tasks/PWGLF</text>
<text text-anchor="middle" x="75.5" y="-7.5" font-family="Helvetica,sans-Serif" font-size="10.00" fill="#000000">/lambdakzeroconsumer.cxx</text>
</a>
</g>
</g>
<!-- Node8&#45;&gt;Node17 -->
<g id="edge38" class="edge">
<title>Node8&#45;&gt;Node17</title>
<path fill="none" stroke="#191970" d="M1286.8852,-199.8475C1097.8389,-186.9036 580.5661,-145.1878 159.5,-53 156.8112,-52.4113 154.0852,-51.7744 151.3405,-51.0989"/>
<polygon fill="#191970" stroke="#191970" points="1286.7698,-203.3477 1296.9839,-200.5329 1287.2438,-196.3637 1286.7698,-203.3477"/>
</g>
<!-- Node18 -->
<g id="node11" class="node">
<title>Node18</title>
<g id="a_node11"><a xlink:href="../../d5/d6e/lambdakzerofinder_8cxx.html" target="_top" xlink:title="/home/travis/build\l/AliceO2Group/AliceO2\l/Analysis/Tasks/PWGLF\l/lambdakzerofinder.cxx">
<polygon fill="none" stroke="#000000" points="1553,-.5 1553,-52.5 1684,-52.5 1684,-.5 1553,-.5"/>
<text text-anchor="start" x="1561" y="-40.5" font-family="Helvetica,sans-Serif" font-size="10.00" fill="#000000">/home/travis/build</text>
<text text-anchor="start" x="1561" y="-29.5" font-family="Helvetica,sans-Serif" font-size="10.00" fill="#000000">/AliceO2Group/AliceO2</text>
<text text-anchor="start" x="1561" y="-18.5" font-family="Helvetica,sans-Serif" font-size="10.00" fill="#000000">/Analysis/Tasks/PWGLF</text>
<text text-anchor="middle" x="1618.5" y="-7.5" font-family="Helvetica,sans-Serif" font-size="10.00" fill="#000000">/lambdakzerofinder.cxx</text>
</a>
</g>
</g>
<!-- Node8&#45;&gt;Node18 -->
<g id="edge39" class="edge">
<title>Node8&#45;&gt;Node18</title>
<path fill="none" stroke="#191970" d="M1434.3728,-196.0261C1475.7218,-187.9935 1525.9466,-172.3688 1561.5,-142 1588.8742,-118.6176 1604.3616,-78.963 1612.0865,-52.7518"/>
<polygon fill="#191970" stroke="#191970" points="1433.5457,-192.6193 1424.3391,-197.8622 1434.8058,-199.5049 1433.5457,-192.6193"/>
</g>
<!-- Node19 -->
<g id="node12" class="node">
<title>Node19</title>
<g id="a_node12"><a xlink:href="../../d6/d2a/lambdakzeroproducer_8cxx.html" target="_top" xlink:title="/home/travis/build\l/AliceO2Group/AliceO2\l/Analysis/Tasks/PWGLF\l/lambdakzeroproducer.cxx">
<polygon fill="none" stroke="#000000" points="2050.5,-.5 2050.5,-52.5 2196.5,-52.5 2196.5,-.5 2050.5,-.5"/>
<text text-anchor="start" x="2058.5" y="-40.5" font-family="Helvetica,sans-Serif" font-size="10.00" fill="#000000">/home/travis/build</text>
<text text-anchor="start" x="2058.5" y="-29.5" font-family="Helvetica,sans-Serif" font-size="10.00" fill="#000000">/AliceO2Group/AliceO2</text>
<text text-anchor="start" x="2058.5" y="-18.5" font-family="Helvetica,sans-Serif" font-size="10.00" fill="#000000">/Analysis/Tasks/PWGLF</text>
<text text-anchor="middle" x="2123.5" y="-7.5" font-family="Helvetica,sans-Serif" font-size="10.00" fill="#000000">/lambdakzeroproducer.cxx</text>
</a>
</g>
</g>
<!-- Node8&#45;&gt;Node19 -->
<g id="edge40" class="edge">
<title>Node8&#45;&gt;Node19</title>
<path fill="none" stroke="#191970" d="M1434.3879,-198.6179C1557.5445,-188.315 1799.3781,-165.8232 1881.5,-142 1954.6016,-120.7935 2033.0395,-79.5624 2080.1792,-52.5351"/>
<polygon fill="#191970" stroke="#191970" points="1433.9644,-195.1409 1424.2888,-199.4576 1434.5445,-202.1168 1433.9644,-195.1409"/>
</g>
<!-- Node22 -->
<g id="node15" class="node">
<title>Node22</title>
<g id="a_node15"><a xlink:href="../../d8/d95/HFSecondaryVertex_8h.html" target="_top" xlink:title="Definitions of tables of heavy&#45;flavour decay candidates. ">
<polygon fill="none" stroke="#000000" points="1704.5,-89.5 1704.5,-141.5 1872.5,-141.5 1872.5,-89.5 1704.5,-89.5"/>
<text text-anchor="start" x="1712.5" y="-129.5" font-family="Helvetica,sans-Serif" font-size="10.00" fill="#000000">/home/travis/build</text>
<text text-anchor="start" x="1712.5" y="-118.5" font-family="Helvetica,sans-Serif" font-size="10.00" fill="#000000">/AliceO2Group/AliceO2</text>
<text text-anchor="start" x="1712.5" y="-107.5" font-family="Helvetica,sans-Serif" font-size="10.00" fill="#000000">/Analysis/DataModel/include</text>
<text text-anchor="middle" x="1788.5" y="-96.5" font-family="Helvetica,sans-Serif" font-size="10.00" fill="#000000">/Analysis/HFSecondaryVertex.h</text>
</a>
</g>
</g>
<!-- Node8&#45;&gt;Node22 -->
<g id="edge14" class="edge">
<title>Node8&#45;&gt;Node22</title>
<path fill="none" stroke="#191970" d="M1433.969,-189.2226C1509.0467,-173.6106 1625.4901,-149.3969 1704.2568,-133.0179"/>
<polygon fill="#191970" stroke="#191970" points="1433.1917,-185.8092 1424.1138,-191.2719 1434.6169,-192.6626 1433.1917,-185.8092"/>
</g>
<!-- Node28 -->
<g id="node21" class="node">
<title>Node28</title>
<g id="a_node21"><a xlink:href="../../dc/dcb/StrangenessTables_8h.html" target="_top" xlink:title="/home/travis/build\l/AliceO2Group/AliceO2\l/Analysis/DataModel/include\l/Analysis/StrangenessTables.h">
<polygon fill="none" stroke="#000000" points="1388.5,-89.5 1388.5,-141.5 1552.5,-141.5 1552.5,-89.5 1388.5,-89.5"/>
<text text-anchor="start" x="1396.5" y="-129.5" font-family="Helvetica,sans-Serif" font-size="10.00" fill="#000000">/home/travis/build</text>
<text text-anchor="start" x="1396.5" y="-118.5" font-family="Helvetica,sans-Serif" font-size="10.00" fill="#000000">/AliceO2Group/AliceO2</text>
<text text-anchor="start" x="1396.5" y="-107.5" font-family="Helvetica,sans-Serif" font-size="10.00" fill="#000000">/Analysis/DataModel/include</text>
<text text-anchor="middle" x="1470.5" y="-96.5" font-family="Helvetica,sans-Serif" font-size="10.00" fill="#000000">/Analysis/StrangenessTables.h</text>
</a>
</g>
</g>
<!-- Node8&#45;&gt;Node28 -->
<g id="edge27" class="edge">
<title>Node8&#45;&gt;Node28</title>
<path fill="none" stroke="#191970" d="M1400.8401,-171.8612C1413.1865,-161.8718 1426.5961,-151.0222 1438.323,-141.5341"/>
<polygon fill="#191970" stroke="#191970" points="1398.4813,-169.2675 1392.9087,-178.2784 1402.8843,-174.7094 1398.4813,-169.2675"/>
</g>
<!-- Node10 -->
<g id="node3" class="node">
<title>Node10</title>
<g id="a_node3"><a xlink:href="../../d0/df9/alice3-trackselection_8cxx.html" target="_top" xlink:title="/home/travis/build\l/AliceO2Group/AliceO2\l/Analysis/Tasks/ALICE3\l/alice3&#45;trackselection.cxx">
<polygon fill="none" stroke="#000000" points="370.5,-.5 370.5,-52.5 512.5,-52.5 512.5,-.5 370.5,-.5"/>
<text text-anchor="start" x="378.5" y="-40.5" font-family="Helvetica,sans-Serif" font-size="10.00" fill="#000000">/home/travis/build</text>
<text text-anchor="start" x="378.5" y="-29.5" font-family="Helvetica,sans-Serif" font-size="10.00" fill="#000000">/AliceO2Group/AliceO2</text>
<text text-anchor="start" x="378.5" y="-18.5" font-family="Helvetica,sans-Serif" font-size="10.00" fill="#000000">/Analysis/Tasks/ALICE3</text>
<text text-anchor="middle" x="441.5" y="-7.5" font-family="Helvetica,sans-Serif" font-size="10.00" fill="#000000">/alice3&#45;trackselection.cxx</text>
</a>
</g>
</g>
<!-- Node9&#45;&gt;Node10 -->
<g id="edge2" class="edge">
<title>Node9&#45;&gt;Node10</title>
<path fill="none" stroke="#191970" d="M1035.2332,-112.5823C921.1241,-107.1276 702.9184,-92.148 521.5,-53 518.6396,-52.3828 515.7379,-51.7002 512.8188,-50.9664"/>
<polygon fill="#191970" stroke="#191970" points="1035.1245,-116.081 1045.2767,-113.0506 1035.4506,-109.0886 1035.1245,-116.081"/>
</g>
<!-- Node11 -->
<g id="node4" class="node">
<title>Node11</title>
<g id="a_node4"><a xlink:href="../../d3/d9f/HFCandidateCreator2Prong_8cxx.html" target="_top" xlink:title="Reconstruction of heavy&#45;flavour 2&#45;prong decay candidates. ">
<polygon fill="none" stroke="#000000" points="1702.5,-.5 1702.5,-52.5 1874.5,-52.5 1874.5,-.5 1702.5,-.5"/>
<text text-anchor="start" x="1710.5" y="-40.5" font-family="Helvetica,sans-Serif" font-size="10.00" fill="#000000">/home/travis/build</text>
<text text-anchor="start" x="1710.5" y="-29.5" font-family="Helvetica,sans-Serif" font-size="10.00" fill="#000000">/AliceO2Group/AliceO2</text>
<text text-anchor="start" x="1710.5" y="-18.5" font-family="Helvetica,sans-Serif" font-size="10.00" fill="#000000">/Analysis/Tasks/PWGHF</text>
<text text-anchor="middle" x="1788.5" y="-7.5" font-family="Helvetica,sans-Serif" font-size="10.00" fill="#000000">/HFCandidateCreator2Prong.cxx</text>
</a>
</g>
</g>
<!-- Node9&#45;&gt;Node11 -->
<g id="edge3" class="edge">
<title>Node9&#45;&gt;Node11</title>
<path fill="none" stroke="#191970" d="M1191.9113,-107.7495C1338.6899,-93.1361 1644.4912,-62.155 1692.5,-53 1695.727,-52.3846 1699.0037,-51.7147 1702.3051,-51.0015"/>
<polygon fill="#191970" stroke="#191970" points="1191.2282,-104.3001 1181.6238,-108.7728 1191.9211,-111.2657 1191.2282,-104.3001"/>
</g>
<!-- Node12 -->
<g id="node5" class="node">
<title>Node12</title>
<g id="a_node5"><a xlink:href="../../da/d3e/HFCandidateCreator3Prong_8cxx.html" target="_top" xlink:title="Reconstruction of heavy&#45;flavour 3&#45;prong decay candidates. ">
<polygon fill="none" stroke="#000000" points="1216.5,-.5 1216.5,-52.5 1388.5,-52.5 1388.5,-.5 1216.5,-.5"/>
<text text-anchor="start" x="1224.5" y="-40.5" font-family="Helvetica,sans-Serif" font-size="10.00" fill="#000000">/home/travis/build</text>
<text text-anchor="start" x="1224.5" y="-29.5" font-family="Helvetica,sans-Serif" font-size="10.00" fill="#000000">/AliceO2Group/AliceO2</text>
<text text-anchor="start" x="1224.5" y="-18.5" font-family="Helvetica,sans-Serif" font-size="10.00" fill="#000000">/Analysis/Tasks/PWGHF</text>
<text text-anchor="middle" x="1302.5" y="-7.5" font-family="Helvetica,sans-Serif" font-size="10.00" fill="#000000">/HFCandidateCreator3Prong.cxx</text>
</a>
</g>
</g>
<!-- Node9&#45;&gt;Node12 -->
<g id="edge4" class="edge">
<title>Node9&#45;&gt;Node12</title>
<path fill="none" stroke="#191970" d="M1178.0455,-85.1055C1200.4843,-74.5391 1225.4363,-62.7893 1247.0718,-52.6011"/>
<polygon fill="#191970" stroke="#191970" points="1176.4852,-81.9716 1168.9292,-89.3984 1179.4674,-88.3046 1176.4852,-81.9716"/>
</g>
<!-- Node13 -->
<g id="node6" class="node">
<title>Node13</title>
<g id="a_node6"><a xlink:href="../../d2/d43/HFTrackIndexSkimsCreator_8cxx.html" target="_top" xlink:title="Pre&#45;selection of 2&#45;prong and 3&#45;prong secondary vertices of heavy&#45;flavour decay candidates. ">
<polygon fill="none" stroke="#000000" points="1028.5,-.5 1028.5,-52.5 1198.5,-52.5 1198.5,-.5 1028.5,-.5"/>
<text text-anchor="start" x="1036.5" y="-40.5" font-family="Helvetica,sans-Serif" font-size="10.00" fill="#000000">/home/travis/build</text>
<text text-anchor="start" x="1036.5" y="-29.5" font-family="Helvetica,sans-Serif" font-size="10.00" fill="#000000">/AliceO2Group/AliceO2</text>
<text text-anchor="start" x="1036.5" y="-18.5" font-family="Helvetica,sans-Serif" font-size="10.00" fill="#000000">/Analysis/Tasks/PWGHF</text>
<text text-anchor="middle" x="1113.5" y="-7.5" font-family="Helvetica,sans-Serif" font-size="10.00" fill="#000000">/HFTrackIndexSkimsCreator.cxx</text>
</a>
</g>
</g>
<!-- Node9&#45;&gt;Node13 -->
<g id="edge5" class="edge">
<title>Node9&#45;&gt;Node13</title>
<path fill="none" stroke="#191970" d="M1113.5,-79.1155C1113.5,-70.2061 1113.5,-60.8475 1113.5,-52.5341"/>
<polygon fill="#191970" stroke="#191970" points="1110.0001,-79.2784 1113.5,-89.2784 1117.0001,-79.2785 1110.0001,-79.2784"/>
</g>
<!-- Node9&#45;&gt;Node14 -->
<g id="edge6" class="edge">
<title>Node9&#45;&gt;Node14</title>
<path fill="none" stroke="#191970" d="M1035.4128,-97.1246C988.2251,-85.5359 927.0457,-69.6511 873.5,-53 870.6676,-52.1192 867.7828,-51.1941 864.8757,-50.2388"/>
<polygon fill="#191970" stroke="#191970" points="1034.717,-100.5575 1045.262,-99.5311 1036.3785,-93.7575 1034.717,-100.5575"/>
</g>
<!-- Node9&#45;&gt;Node15 -->
<g id="edge7" class="edge">
<title>Node9&#45;&gt;Node15</title>
<path fill="none" stroke="#191970" d="M1055.453,-84.5648C1035.8473,-74.1162 1014.1714,-62.5644 995.3506,-52.5341"/>
<polygon fill="#191970" stroke="#191970" points="1053.8266,-87.664 1064.2977,-89.2784 1057.1189,-81.4865 1053.8266,-87.664"/>
</g>
<!-- Node9&#45;&gt;Node16 -->
<g id="edge8" class="edge">
<title>Node9&#45;&gt;Node16</title>
<path fill="none" stroke="#191970" d="M1191.6531,-101.1801C1249.0932,-89.9606 1328.777,-72.9417 1397.5,-53 1400.3487,-52.1734 1403.2469,-51.2931 1406.1651,-50.3745"/>
<polygon fill="#191970" stroke="#191970" points="1190.7057,-97.7985 1181.5545,-103.1376 1192.0379,-104.6706 1190.7057,-97.7985"/>
</g>
<!-- Node9&#45;&gt;Node17 -->
<g id="edge9" class="edge">
<title>Node9&#45;&gt;Node17</title>
<path fill="none" stroke="#191970" d="M1035.1394,-112.7915C838.2779,-105.5976 326.7763,-84.3919 159.5,-53 156.7947,-52.4923 154.0545,-51.925 151.2978,-51.309"/>
<polygon fill="#191970" stroke="#191970" points="1035.2801,-116.2988 1045.4006,-113.1641 1035.5342,-109.3034 1035.2801,-116.2988"/>
</g>
<!-- Node9&#45;&gt;Node18 -->
<g id="edge10" class="edge">
<title>Node9&#45;&gt;Node18</title>
<path fill="none" stroke="#191970" d="M1191.7352,-108.7618C1278.5925,-100.2133 1422.5024,-82.8654 1543.5,-53 1546.5837,-52.2389 1549.7187,-51.4006 1552.8708,-50.5052"/>
<polygon fill="#191970" stroke="#191970" points="1191.3068,-105.2868 1181.6914,-109.736 1191.9827,-112.2541 1191.3068,-105.2868"/>
</g>
<!-- Node9&#45;&gt;Node19 -->
<g id="edge11" class="edge">
<title>Node9&#45;&gt;Node19</title>
<path fill="none" stroke="#191970" d="M1191.7613,-106.7693C1244.708,-101.0925 1316.2502,-93.8679 1379.5,-89 1673.2881,-66.3891 1751.7874,-106.7527 2041.5,-53 2044.442,-52.4541 2047.4248,-51.8318 2050.4241,-51.1484"/>
<polygon fill="#191970" stroke="#191970" points="1191.3307,-103.2954 1181.7632,-107.8466 1192.0806,-110.2551 1191.3307,-103.2954"/>
</g>
<!-- Node20 -->
<g id="node13" class="node">
<title>Node20</title>
<g id="a_node13"><a xlink:href="../../d4/d30/trackextension_8cxx.html" target="_top" xlink:title="/home/travis/build\l/AliceO2Group/AliceO2\l/Analysis/Tasks/trackextension.cxx">
<polygon fill="none" stroke="#000000" points="531,-6 531,-47 718,-47 718,-6 531,-6"/>
<text text-anchor="start" x="539" y="-35" font-family="Helvetica,sans-Serif" font-size="10.00" fill="#000000">/home/travis/build</text>
<text text-anchor="start" x="539" y="-24" font-family="Helvetica,sans-Serif" font-size="10.00" fill="#000000">/AliceO2Group/AliceO2</text>
<text text-anchor="middle" x="624.5" y="-13" font-family="Helvetica,sans-Serif" font-size="10.00" fill="#000000">/Analysis/Tasks/trackextension.cxx</text>
</a>
</g>
</g>
<!-- Node9&#45;&gt;Node20 -->
<g id="edge12" class="edge">
<title>Node9&#45;&gt;Node20</title>
<path fill="none" stroke="#191970" d="M1034.9058,-104.9201C956.6333,-93.8802 833.2245,-75.1116 727.5,-53 718.9152,-51.2045 709.9701,-49.163 701.094,-47.0286"/>
<polygon fill="#191970" stroke="#191970" points="1034.7806,-108.4367 1045.1699,-106.3599 1035.7531,-101.5046 1034.7806,-108.4367"/>
</g>
<!-- Node21 -->
<g id="node14" class="node">
<title>Node21</title>
<g id="a_node14"><a xlink:href="../../db/d90/trackselection_8cxx.html" target="_top" xlink:title="/home/travis/build\l/AliceO2Group/AliceO2\l/Analysis/Tasks/trackselection.cxx">
<polygon fill="none" stroke="#000000" points="169,-6 169,-47 352,-47 352,-6 169,-6"/>
<text text-anchor="start" x="177" y="-35" font-family="Helvetica,sans-Serif" font-size="10.00" fill="#000000">/home/travis/build</text>
<text text-anchor="start" x="177" y="-24" font-family="Helvetica,sans-Serif" font-size="10.00" fill="#000000">/AliceO2Group/AliceO2</text>
<text text-anchor="middle" x="260.5" y="-13" font-family="Helvetica,sans-Serif" font-size="10.00" fill="#000000">/Analysis/Tasks/trackselection.cxx</text>
</a>
</g>
</g>
<!-- Node9&#45;&gt;Node21 -->
<g id="edge13" class="edge">
<title>Node9&#45;&gt;Node21</title>
<path fill="none" stroke="#191970" d="M1035.3277,-113.4685C898.0501,-108.9099 605.0949,-94.7537 361.5,-53 352.0301,-51.3768 342.1523,-49.2899 332.4414,-47.0008"/>
<polygon fill="#191970" stroke="#191970" points="1035.23,-116.967 1045.3381,-113.7929 1035.4568,-109.9707 1035.23,-116.967"/>
</g>
<!-- Node22&#45;&gt;Node11 -->
<g id="edge16" class="edge">
<title>Node22&#45;&gt;Node11</title>
<path fill="none" stroke="#191970" d="M1788.5,-79.1155C1788.5,-70.2061 1788.5,-60.8475 1788.5,-52.5341"/>
<polygon fill="#191970" stroke="#191970" points="1785.0001,-79.2784 1788.5,-89.2784 1792.0001,-79.2785 1785.0001,-79.2784"/>
</g>
<!-- Node22&#45;&gt;Node12 -->
<g id="edge17" class="edge">
<title>Node22&#45;&gt;Node12</title>
<path fill="none" stroke="#191970" d="M1694.466,-103.522C1614.9134,-92.661 1498.129,-75.0032 1397.5,-53 1394.5727,-52.3599 1391.6017,-51.6835 1388.6066,-50.9788"/>
<polygon fill="#191970" stroke="#191970" points="1694.0852,-107.0023 1704.4649,-104.8781 1695.026,-100.0658 1694.0852,-107.0023"/>
</g>
<!-- Node22&#45;&gt;Node13 -->
<g id="edge19" class="edge">
<title>Node22&#45;&gt;Node13</title>
<path fill="none" stroke="#191970" d="M1694.5037,-104.2094C1653.6502,-99.3843 1605.2261,-93.7754 1561.5,-89 1404.29,-71.8309 1362.8564,-82.5665 1207.5,-53 1204.5851,-52.4453 1201.6295,-51.8425 1198.6523,-51.2009"/>
<polygon fill="#191970" stroke="#191970" points="1694.1057,-107.6867 1704.4478,-105.386 1694.9283,-100.7351 1694.1057,-107.6867"/>
</g>
<!-- Node22&#45;&gt;Node15 -->
<g id="edge23" class="edge">
<title>Node22&#45;&gt;Node15</title>
<path fill="none" stroke="#191970" d="M1694.3225,-103.4394C1653.5357,-98.4924 1605.2117,-93.0006 1561.5,-89 1321.0851,-66.9965 1255.7523,-102.682 1019.5,-53 1016.5973,-52.3896 1013.6543,-51.6884 1010.6995,-50.9165"/>
<polygon fill="#191970" stroke="#191970" points="1693.9005,-106.9138 1704.2509,-104.6508 1694.7484,-99.9653 1693.9005,-106.9138"/>
</g>
<!-- Node22&#45;&gt;Node16 -->
<g id="edge24" class="edge">
<title>Node22&#45;&gt;Node16</title>
<path fill="none" stroke="#191970" d="M1694.382,-93.7885C1648.5605,-82.6355 1592.8406,-68.2087 1543.5,-53 1540.6654,-52.1263 1537.7788,-51.207 1534.8702,-50.2565"/>
<polygon fill="#191970" stroke="#191970" points="1693.7595,-97.2388 1704.3022,-96.1897 1695.4063,-90.4353 1693.7595,-97.2388"/>
</g>
<!-- Node22&#45;&gt;Node18 -->
<g id="edge25" class="edge">
<title>Node22&#45;&gt;Node18</title>
<path fill="none" stroke="#191970" d="M1729.4103,-84.5648C1709.4523,-74.1162 1687.3871,-62.5644 1668.2282,-52.5341"/>
<polygon fill="#191970" stroke="#191970" points="1727.9312,-87.741 1738.4139,-89.2784 1731.1779,-81.5395 1727.9312,-87.741"/>
</g>
<!-- Node22&#45;&gt;Node19 -->
<g id="edge26" class="edge">
<title>Node22&#45;&gt;Node19</title>
<path fill="none" stroke="#191970" d="M1882.6721,-93.9026C1930.4606,-82.5215 1989.2969,-67.8633 2041.5,-53 2044.3778,-52.1806 2047.3065,-51.3275 2050.2605,-50.451"/>
<polygon fill="#191970" stroke="#191970" points="1881.5707,-90.5667 1872.6486,-96.2804 1883.1864,-97.3777 1881.5707,-90.5667"/>
</g>
<!-- Node23 -->
<g id="node16" class="node">
<title>Node23</title>
<g id="a_node16"><a xlink:href="../../d5/d51/aodDataModelGraph_8cxx.html" target="_top" xlink:title="/home/travis/build\l/AliceO2Group/AliceO2\l/Analysis/DataModel/src\l/aodDataModelGraph.cxx">
<polygon fill="none" stroke="#000000" points="1892.5,-.5 1892.5,-52.5 2032.5,-52.5 2032.5,-.5 1892.5,-.5"/>
<text text-anchor="start" x="1900.5" y="-40.5" font-family="Helvetica,sans-Serif" font-size="10.00" fill="#000000">/home/travis/build</text>
<text text-anchor="start" x="1900.5" y="-29.5" font-family="Helvetica,sans-Serif" font-size="10.00" fill="#000000">/AliceO2Group/AliceO2</text>
<text text-anchor="start" x="1900.5" y="-18.5" font-family="Helvetica,sans-Serif" font-size="10.00" fill="#000000">/Analysis/DataModel/src</text>
<text text-anchor="middle" x="1962.5" y="-7.5" font-family="Helvetica,sans-Serif" font-size="10.00" fill="#000000">/aodDataModelGraph.cxx</text>
</a>
</g>
</g>
<!-- Node22&#45;&gt;Node23 -->
<g id="edge15" class="edge">
<title>Node22&#45;&gt;Node23</title>
<path fill="none" stroke="#191970" d="M1848.7042,-84.7059C1869.2041,-74.2203 1891.9037,-62.6096 1911.6018,-52.5341"/>
<polygon fill="#191970" stroke="#191970" points="1847.0738,-81.6085 1839.7646,-89.2784 1850.2615,-87.8406 1847.0738,-81.6085"/>
</g>
<!-- Node24 -->
<g id="node17" class="node">
<title>Node24</title>
<g id="a_node17"><a xlink:href="../../d8/db0/HFD0CandidateSelector_8cxx.html" target="_top" xlink:title="D0 selection task. ">
<polygon fill="none" stroke="#000000" points="2360,-.5 2360,-52.5 2515,-52.5 2515,-.5 2360,-.5"/>
<text text-anchor="start" x="2368" y="-40.5" font-family="Helvetica,sans-Serif" font-size="10.00" fill="#000000">/home/travis/build</text>
<text text-anchor="start" x="2368" y="-29.5" font-family="Helvetica,sans-Serif" font-size="10.00" fill="#000000">/AliceO2Group/AliceO2</text>
<text text-anchor="start" x="2368" y="-18.5" font-family="Helvetica,sans-Serif" font-size="10.00" fill="#000000">/Analysis/Tasks/PWGHF</text>
<text text-anchor="middle" x="2437.5" y="-7.5" font-family="Helvetica,sans-Serif" font-size="10.00" fill="#000000">/HFD0CandidateSelector.cxx</text>
</a>
</g>
</g>
<!-- Node22&#45;&gt;Node24 -->
<g id="edge18" class="edge">
<title>Node22&#45;&gt;Node24</title>
<path fill="none" stroke="#191970" d="M1883.0412,-110.4554C1995.5934,-103.1994 2188.7948,-86.7846 2351.5,-53 2354.2535,-52.4283 2357.0449,-51.8059 2359.8553,-51.1429"/>
<polygon fill="#191970" stroke="#191970" points="1882.4978,-106.9827 1872.7392,-111.1084 1882.9407,-113.9687 1882.4978,-106.9827"/>
</g>
<!-- Node25 -->
<g id="node18" class="node">
<title>Node25</title>
<g id="a_node18"><a xlink:href="../../de/da9/taskD0_8cxx.html" target="_top" xlink:title="D0 analysis task. ">
<polygon fill="none" stroke="#000000" points="2533.5,-.5 2533.5,-52.5 2663.5,-52.5 2663.5,-.5 2533.5,-.5"/>
<text text-anchor="start" x="2541.5" y="-40.5" font-family="Helvetica,sans-Serif" font-size="10.00" fill="#000000">/home/travis/build</text>
<text text-anchor="start" x="2541.5" y="-29.5" font-family="Helvetica,sans-Serif" font-size="10.00" fill="#000000">/AliceO2Group/AliceO2</text>
<text text-anchor="start" x="2541.5" y="-18.5" font-family="Helvetica,sans-Serif" font-size="10.00" fill="#000000">/Analysis/Tasks/PWGHF</text>
<text text-anchor="middle" x="2598.5" y="-7.5" font-family="Helvetica,sans-Serif" font-size="10.00" fill="#000000">/taskD0.cxx</text>
</a>
</g>
</g>
<!-- Node22&#45;&gt;Node25 -->
<g id="edge20" class="edge">
<title>Node22&#45;&gt;Node25</title>
<path fill="none" stroke="#191970" d="M1882.6956,-110.546C2052.7795,-101.0949 2404.6206,-79.0905 2524.5,-53 2527.4335,-52.3616 2530.4093,-51.6371 2533.3985,-50.8462"/>
<polygon fill="#191970" stroke="#191970" points="1882.2945,-107.0627 1872.503,-111.1094 1882.681,-114.0521 1882.2945,-107.0627"/>
</g>
<!-- Node26 -->
<g id="node19" class="node">
<title>Node26</title>
<g id="a_node19"><a xlink:href="../../d5/d10/taskDPlus_8cxx.html" target="_top" xlink:title="D± analysis task. ">
<polygon fill="none" stroke="#000000" points="2681.5,-.5 2681.5,-52.5 2811.5,-52.5 2811.5,-.5 2681.5,-.5"/>
<text text-anchor="start" x="2689.5" y="-40.5" font-family="Helvetica,sans-Serif" font-size="10.00" fill="#000000">/home/travis/build</text>
<text text-anchor="start" x="2689.5" y="-29.5" font-family="Helvetica,sans-Serif" font-size="10.00" fill="#000000">/AliceO2Group/AliceO2</text>
<text text-anchor="start" x="2689.5" y="-18.5" font-family="Helvetica,sans-Serif" font-size="10.00" fill="#000000">/Analysis/Tasks/PWGHF</text>
<text text-anchor="middle" x="2746.5" y="-7.5" font-family="Helvetica,sans-Serif" font-size="10.00" fill="#000000">/taskDPlus.cxx</text>
</a>
</g>
</g>
<!-- Node22&#45;&gt;Node26 -->
<g id="edge21" class="edge">
<title>Node22&#45;&gt;Node26</title>
<path fill="none" stroke="#191970" d="M1883.0607,-112.0796C2079.1051,-104.4542 2523.936,-84.2356 2672.5,-53 2675.4379,-52.3823 2678.4174,-51.6751 2681.4096,-50.8982"/>
<polygon fill="#191970" stroke="#191970" points="1882.6369,-108.5933 1872.7795,-112.4768 1882.9072,-115.5881 1882.6369,-108.5933"/>
</g>
<!-- Node27 -->
<g id="node20" class="node">
<title>Node27</title>
<g id="a_node20"><a xlink:href="../../d7/df6/jetfinderhf_8cxx.html" target="_top" xlink:title="/home/travis/build\l/AliceO2Group/AliceO2\l/Analysis/Tasks/PWGJE\l/jetfinderhf.cxx">
<polygon fill="none" stroke="#000000" points="2215,-.5 2215,-52.5 2342,-52.5 2342,-.5 2215,-.5"/>
<text text-anchor="start" x="2223" y="-40.5" font-family="Helvetica,sans-Serif" font-size="10.00" fill="#000000">/home/travis/build</text>
<text text-anchor="start" x="2223" y="-29.5" font-family="Helvetica,sans-Serif" font-size="10.00" fill="#000000">/AliceO2Group/AliceO2</text>
<text text-anchor="start" x="2223" y="-18.5" font-family="Helvetica,sans-Serif" font-size="10.00" fill="#000000">/Analysis/Tasks/PWGJE</text>
<text text-anchor="middle" x="2278.5" y="-7.5" font-family="Helvetica,sans-Serif" font-size="10.00" fill="#000000">/jetfinderhf.cxx</text>
</a>
</g>
</g>
<!-- Node22&#45;&gt;Node27 -->
<g id="edge22" class="edge">
<title>Node22&#45;&gt;Node27</title>
<path fill="none" stroke="#191970" d="M1882.7201,-106.8011C1967.9388,-97.657 2096.4054,-80.6818 2205.5,-53 2208.5058,-52.2373 2211.5607,-51.3978 2214.6317,-50.5013"/>
<polygon fill="#191970" stroke="#191970" points="1882.1224,-103.3447 1872.5462,-107.8776 1882.859,-110.3059 1882.1224,-103.3447"/>
</g>
<!-- Node28&#45;&gt;Node14 -->
<g id="edge29" class="edge">
<title>Node28&#45;&gt;Node14</title>
<path fill="none" stroke="#191970" d="M1377.8588,-106.3984C1216.2721,-90.439 897.6759,-58.5655 873.5,-53 870.6094,-52.3346 867.6765,-51.5878 864.7299,-50.7786"/>
<polygon fill="#191970" stroke="#191970" points="1377.9749,-109.9267 1388.2704,-107.4261 1378.6626,-102.9606 1377.9749,-109.9267"/>
</g>
<!-- Node28&#45;&gt;Node15 -->
<g id="edge30" class="edge">
<title>Node28&#45;&gt;Node15</title>
<path fill="none" stroke="#191970" d="M1378.3455,-108.448C1286.4316,-100.0828 1141.7072,-83.2901 1019.5,-53 1016.6209,-52.2864 1013.6975,-51.4997 1010.7587,-50.6578"/>
<polygon fill="#191970" stroke="#191970" points="1378.1833,-111.9474 1388.4557,-109.3535 1378.8078,-104.9753 1378.1833,-111.9474"/>
</g>
<!-- Node28&#45;&gt;Node16 -->
<g id="edge31" class="edge">
<title>Node28&#45;&gt;Node16</title>
<path fill="none" stroke="#191970" d="M1470.5,-79.1155C1470.5,-70.2061 1470.5,-60.8475 1470.5,-52.5341"/>
<polygon fill="#191970" stroke="#191970" points="1467.0001,-79.2784 1470.5,-89.2784 1474.0001,-79.2785 1467.0001,-79.2784"/>
</g>
<!-- Node28&#45;&gt;Node17 -->
<g id="edge32" class="edge">
<title>Node28&#45;&gt;Node17</title>
<path fill="none" stroke="#191970" d="M1378.216,-105.3745C1323.6765,-99.7382 1253.229,-93.06 1190.5,-89 961.7279,-74.1932 385.4364,-91.8414 159.5,-53 156.7873,-52.5336 154.0407,-52.0019 151.2785,-51.4162"/>
<polygon fill="#191970" stroke="#191970" points="1377.9007,-108.8605 1388.2091,-106.4139 1378.6249,-101.8981 1377.9007,-108.8605"/>
</g>
<!-- Node28&#45;&gt;Node18 -->
<g id="edge33" class="edge">
<title>Node28&#45;&gt;Node18</title>
<path fill="none" stroke="#191970" d="M1522.8838,-83.9989C1540.0094,-73.7004 1558.8282,-62.3837 1575.2073,-52.5341"/>
<polygon fill="#191970" stroke="#191970" points="1520.8705,-81.1255 1514.1044,-89.2784 1524.478,-87.1244 1520.8705,-81.1255"/>
</g>
<!-- Node28&#45;&gt;Node19 -->
<g id="edge34" class="edge">
<title>Node28&#45;&gt;Node19</title>
<path fill="none" stroke="#191970" d="M1562.9184,-104.329C1603.5693,-99.4893 1651.8932,-93.8363 1695.5,-89 1849.1657,-71.9574 1890.2285,-84.9459 2041.5,-53 2044.4276,-52.3817 2047.3983,-51.6983 2050.3875,-50.9637"/>
<polygon fill="#191970" stroke="#191970" points="1562.2714,-100.8812 1552.7562,-105.5409 1563.1004,-107.832 1562.2714,-100.8812"/>
</g>
<!-- Node28&#45;&gt;Node23 -->
<g id="edge28" class="edge">
<title>Node28&#45;&gt;Node23</title>
<path fill="none" stroke="#191970" d="M1562.8678,-106.1672C1647.1563,-96.5566 1774.7798,-79.251 1883.5,-53 1886.4531,-52.287 1889.4533,-51.5126 1892.4729,-50.6917"/>
<polygon fill="#191970" stroke="#191970" points="1562.3527,-102.703 1552.8077,-107.3012 1563.1369,-109.659 1562.3527,-102.703"/>
</g>
</g>
</svg>
        <g id="navigator" transform="translate(0 0)" fill="#404254">
                <rect fill="#f2f5e9" fill-opacity="0.5" stroke="#606060" stroke-width=".5" x="0" y="0" width="60" height="60"/>
                <use id="zoomplus" xlink:href="#zoomPlus" x="17" y="9" onmousedown="handleZoom(evt,'in')"/>
                <use id="zoomminus" xlink:href="#zoomMin" x="42" y="9" onmousedown="handleZoom(evt,'out')"/>
                <use id="reset" xlink:href="#resetDef" x="30" y="36" onmousedown="handleReset()"/>
                <g id="arrowUp" xlink:href="#dirArrow" transform="translate(30 24)" onmousedown="handlePan(0,-1)">
                  <use xlink:href="#rim" fill="#404040">
                        <set attributeName="fill" to="#808080" begin="arrowUp.mouseover" end="arrowUp.mouseout"/>
                  </use>
                  <path fill="none" stroke="white" stroke-width="1.5" d="M0,-3.0v7 M-2.5,-0.5L0,-3.0L2.5,-0.5"/>
                </g>
                <g id="arrowRight" xlink:href="#dirArrow" transform="rotate(90) translate(36 -43)" onmousedown="handlePan(1,0)">
                  <use xlink:href="#rim" fill="#404040">
                        <set attributeName="fill" to="#808080" begin="arrowRight.mouseover" end="arrowRight.mouseout"/>
                  </use>
                  <path fill="none" stroke="white" stroke-width="1.5" d="M0,-3.0v7 M-2.5,-0.5L0,-3.0L2.5,-0.5"/>
                </g>
                <g id="arrowDown" xlink:href="#dirArrow" transform="rotate(180) translate(-30 -48)" onmousedown="handlePan(0,1)">
                  <use xlink:href="#rim" fill="#404040">
                        <set attributeName="fill" to="#808080" begin="arrowDown.mouseover" end="arrowDown.mouseout"/>
                  </use>
                  <path fill="none" stroke="white" stroke-width="1.5" d="M0,-3.0v7 M-2.5,-0.5L0,-3.0L2.5,-0.5"/>
                </g>
                <g id="arrowLeft" xlink:href="#dirArrow" transform="rotate(270) translate(-36 17)" onmousedown="handlePan(-1,0)">
                  <use xlink:href="#rim" fill="#404040">
                        <set attributeName="fill" to="#808080" begin="arrowLeft.mouseover" end="arrowLeft.mouseout"/>
                  </use>
                  <path fill="none" stroke="white" stroke-width="1.5" d="M0,-3.0v7 M-2.5,-0.5L0,-3.0L2.5,-0.5"/>
                </g>
        </g>
        <svg viewBox="0 0 15 15" width="100%" height="30px" preserveAspectRatio="xMaxYMin meet">
         <g id="arrow_out" transform="scale(0.3 0.3)">
          <a xlink:href="RecoDecay_8h__dep__incl_org.svg" target="_base">
           <rect id="button" ry="5" rx="5" y="6" x="6" height="38" width="38"
                fill="#f2f5e9" fill-opacity="0.5" stroke="#606060" stroke-width="1.0"/>
           <path id="arrow"
             d="M 11.500037,31.436501 C 11.940474,20.09759 22.043105,11.32322 32.158766,21.979434 L 37.068811,17.246167 C 37.068811,17.246167 37.088388,32 37.088388,32 L 22.160133,31.978069 C 22.160133,31.978069 26.997745,27.140456 26.997745,27.140456 C 18.528582,18.264221 13.291696,25.230495 11.500037,31.436501 z"
             style="fill:#404040;"/>
          </a>
         </g>
        </svg>
</svg>
