<?xml version="1.0" encoding="UTF-8" standalone="no"?>
<!DOCTYPE svg PUBLIC "-//W3C//DTD SVG 1.1//EN"
 "http://www.w3.org/Graphics/SVG/1.1/DTD/svg11.dtd">
<!-- Generated by graphviz version 2.40.1 (20161225.0304)
 -->
<!-- Title: /home/travis/build/AliceO2Group/AliceO2/DataFormats/Detectors/CPV/src/Digit.cxx Pages: 1 -->
<!--zoomable 307 -->
<svg id="main" version="1.1" xmlns="http://www.w3.org/2000/svg" xmlns:xlink="http://www.w3.org/1999/xlink" xml:space="preserve" onload="init(evt)">
<style type="text/css"><![CDATA[
.edge:hover path { stroke: red; }
.edge:hover polygon { stroke: red; fill: red; }
]]></style>
<script type="text/javascript"><![CDATA[
var edges = document.getElementsByTagName('g');
if (edges && edges.length) {
  for (var i=0;i<edges.length;i++) {
    if (edges[i].id.substr(0,4)=='edge') {
      edges[i].setAttribute('class','edge');
    }
  }
}
]]></script>
        <defs>
                <circle id="rim" cx="0" cy="0" r="7"/>
                <circle id="rim2" cx="0" cy="0" r="3.5"/>
                <g id="zoomPlus">
                        <use xlink:href="#rim" fill="#404040">
                                <set attributeName="fill" to="#808080" begin="zoomplus.mouseover" end="zoomplus.mouseout"/>
                        </use>
                        <path d="M-4,0h8M0,-4v8" fill="none" stroke="white" stroke-width="1.5" pointer-events="none"/>
                </g>
                <g id="zoomMin">
                        <use xlink:href="#rim" fill="#404040">
                                <set attributeName="fill" to="#808080" begin="zoomminus.mouseover" end="zoomminus.mouseout"/>
                        </use>
                        <path d="M-4,0h8" fill="none" stroke="white" stroke-width="1.5" pointer-events="none"/>
                </g>
                <g id="dirArrow">
                        <path fill="none" stroke="white" stroke-width="1.5" d="M0,-3.0v7 M-2.5,-0.5L0,-3.0L2.5,-0.5"/>
                </g>
               <g id="resetDef">
                       <use xlink:href="#rim2" fill="#404040">
                               <set attributeName="fill" to="#808080" begin="reset.mouseover" end="reset.mouseout"/>
                       </use>
               </g>
        </defs>

<script type="text/javascript">
var viewWidth = 2405;
var viewHeight = 307;
var sectionId = 'dynsection-0';
</script>
<script xlink:href="../../svgpan.js"/>
<svg id="graph" class="graph">
<g id="viewport">
<title>/home/travis/build/AliceO2Group/AliceO2/DataFormats/Detectors/CPV/src/Digit.cxx</title>
<!-- Node0 -->
<g id="node1" class="node">
<title>Node0</title>
<polygon fill="#bfbfbf" stroke="#000000" points="650.5,-246.5 650.5,-298.5 783.5,-298.5 783.5,-246.5 650.5,-246.5"/>
<text text-anchor="start" x="658.5" y="-286.5" font-family="Helvetica,sans-Serif" font-size="10.00" fill="#000000">/home/travis/build</text>
<text text-anchor="start" x="658.5" y="-275.5" font-family="Helvetica,sans-Serif" font-size="10.00" fill="#000000">/AliceO2Group/AliceO2</text>
<text text-anchor="start" x="658.5" y="-264.5" font-family="Helvetica,sans-Serif" font-size="10.00" fill="#000000">/DataFormats/Detectors</text>
<text text-anchor="middle" x="717" y="-253.5" font-family="Helvetica,sans-Serif" font-size="10.00" fill="#000000">/CPV/src/Digit.cxx</text>
</g>
<!-- Node1 -->
<g id="node2" class="node">
<title>Node1</title>
<polygon fill="none" stroke="#bfbfbf" points="436.5,-190.5 436.5,-209.5 511.5,-209.5 511.5,-190.5 436.5,-190.5"/>
<text text-anchor="middle" x="474" y="-197.5" font-family="Helvetica,sans-Serif" font-size="10.00" fill="#000000">FairLogger.h</text>
</g>
<!-- Node0&#45;&gt;Node1 -->
<g id="edge1" class="edge">
<title>Node0&#45;&gt;Node1</title>
<path fill="none" stroke="#191970" d="M650.2778,-252.5932C607.3826,-239.7952 552.9666,-223.56 516.0206,-212.537"/>
<polygon fill="#191970" stroke="#191970" points="516.6706,-209.0785 506.0873,-209.5734 514.6692,-215.7864 516.6706,-209.0785"/>
</g>
<!-- Node2 -->
<g id="node3" class="node">
<title>Node2</title>
<g id="a_node3"><a xlink:href="../../de/dfb/DataFormats_2Detectors_2CPV_2include_2DataFormatsCPV_2Digit_8h.html" target="_top" xlink:title="DataFormatsCPV/Digit.h">
<polygon fill="none" stroke="#000000" points="530,-190.5 530,-209.5 664,-209.5 664,-190.5 530,-190.5"/>
<text text-anchor="middle" x="597" y="-197.5" font-family="Helvetica,sans-Serif" font-size="10.00" fill="#000000">DataFormatsCPV/Digit.h</text>
</a>
</g>
</g>
<!-- Node0&#45;&gt;Node2 -->
<g id="edge2" class="edge">
<title>Node0&#45;&gt;Node2</title>
<path fill="none" stroke="#191970" d="M673.6772,-246.3258C656.1091,-235.7118 636.4689,-223.8458 621.4641,-214.7804"/>
<polygon fill="#191970" stroke="#191970" points="623.1495,-211.7095 612.7804,-209.534 619.5297,-217.7009 623.1495,-211.7095"/>
</g>
<!-- Node10 -->
<g id="node11" class="node">
<title>Node10</title>
<g id="a_node11"><a xlink:href="../../db/dd0/Detectors_2CPV_2base_2include_2CPVBase_2Hit_8h.html" target="_top" xlink:title="CPVBase/Hit.h">
<polygon fill="none" stroke="#000000" points="795,-190.5 795,-209.5 881,-209.5 881,-190.5 795,-190.5"/>
<text text-anchor="middle" x="838" y="-197.5" font-family="Helvetica,sans-Serif" font-size="10.00" fill="#000000">CPVBase/Hit.h</text>
</a>
</g>
</g>
<!-- Node0&#45;&gt;Node10 -->
<g id="edge10" class="edge">
<title>Node0&#45;&gt;Node10</title>
<path fill="none" stroke="#191970" d="M760.6838,-246.3258C778.3983,-235.7118 798.2022,-223.8458 813.3321,-214.7804"/>
<polygon fill="#191970" stroke="#191970" points="815.3089,-217.6761 822.0881,-209.534 811.7111,-211.6715 815.3089,-217.6761"/>
</g>
<!-- Node30 -->
<g id="node31" class="node">
<title>Node30</title>
<polygon fill="none" stroke="#bfbfbf" points="899,-190.5 899,-209.5 959,-209.5 959,-190.5 899,-190.5"/>
<text text-anchor="middle" x="929" y="-197.5" font-family="Helvetica,sans-Serif" font-size="10.00" fill="#000000">iostream</text>
</g>
<!-- Node0&#45;&gt;Node30 -->
<g id="edge31" class="edge">
<title>Node0&#45;&gt;Node30</title>
<path fill="none" stroke="#191970" d="M783.7871,-249.6601C819.3352,-237.5033 861.7326,-223.0042 891.51,-212.8209"/>
<polygon fill="#191970" stroke="#191970" points="892.7671,-216.09 901.0965,-209.5425 890.502,-209.4666 892.7671,-216.09"/>
</g>
<!-- Node3 -->
<g id="node4" class="node">
<title>Node3</title>
<polygon fill="none" stroke="#bfbfbf" points="382.5,-129 382.5,-148 429.5,-148 429.5,-129 382.5,-129"/>
<text text-anchor="middle" x="406" y="-136" font-family="Helvetica,sans-Serif" font-size="10.00" fill="#000000">cmath</text>
</g>
<!-- Node2&#45;&gt;Node3 -->
<g id="edge3" class="edge">
<title>Node2&#45;&gt;Node3</title>
<path fill="none" stroke="#191970" d="M557.1824,-190.4809C524.6455,-182.2284 477.7074,-169.2343 438,-154 436.5952,-153.461 435.1678,-152.8842 433.7348,-152.2815"/>
<polygon fill="#191970" stroke="#191970" points="434.9326,-148.9822 424.3781,-148.0585 432.053,-155.3625 434.9326,-148.9822"/>
</g>
<!-- Node4 -->
<g id="node5" class="node">
<title>Node4</title>
<g id="a_node5"><a xlink:href="../../df/d5d/common_2include_2CommonDataFormat_2TimeStamp_8h.html" target="_top" xlink:title="CommonDataFormat/TimeStamp.h">
<polygon fill="none" stroke="#000000" points="447.5,-129 447.5,-148 634.5,-148 634.5,-129 447.5,-129"/>
<text text-anchor="middle" x="541" y="-136" font-family="Helvetica,sans-Serif" font-size="10.00" fill="#000000">CommonDataFormat/TimeStamp.h</text>
</a>
</g>
</g>
<!-- Node2&#45;&gt;Node4 -->
<g id="edge4" class="edge">
<title>Node2&#45;&gt;Node4</title>
<path fill="none" stroke="#191970" d="M588.25,-190.3906C579.8338,-181.1478 566.9203,-166.966 556.719,-155.7628"/>
<polygon fill="#191970" stroke="#191970" points="559.194,-153.2824 549.8734,-148.2449 554.0182,-157.9953 559.194,-153.2824"/>
</g>
<!-- Node5 -->
<g id="node6" class="node">
<title>Node5</title>
<g id="a_node6"><a xlink:href="../../d2/d45/GPUCommonRtypes_8h.html" target="_top" xlink:title="GPUCommonRtypes.h">
<polygon fill="none" stroke="#000000" points="389.5,-67.5 389.5,-86.5 514.5,-86.5 514.5,-67.5 389.5,-67.5"/>
<text text-anchor="middle" x="452" y="-74.5" font-family="Helvetica,sans-Serif" font-size="10.00" fill="#000000">GPUCommonRtypes.h</text>
</a>
</g>
</g>
<!-- Node4&#45;&gt;Node5 -->
<g id="edge5" class="edge">
<title>Node4&#45;&gt;Node5</title>
<path fill="none" stroke="#191970" d="M527.0938,-128.8906C512.9862,-119.1421 490.9276,-103.8994 474.3615,-92.4521"/>
<polygon fill="#191970" stroke="#191970" points="476.0253,-89.3474 465.8086,-86.5419 472.0458,-95.1063 476.0253,-89.3474"/>
</g>
<!-- Node7 -->
<g id="node8" class="node">
<title>Node7</title>
<g id="a_node8"><a xlink:href="../../df/d21/GPUCommonDef_8h.html" target="_top" xlink:title="GPUCommonDef.h">
<polygon fill="none" stroke="#000000" points="174.5,-67.5 174.5,-86.5 281.5,-86.5 281.5,-67.5 174.5,-67.5"/>
<text text-anchor="middle" x="228" y="-74.5" font-family="Helvetica,sans-Serif" font-size="10.00" fill="#000000">GPUCommonDef.h</text>
</a>
</g>
</g>
<!-- Node4&#45;&gt;Node7 -->
<g id="edge7" class="edge">
<title>Node4&#45;&gt;Node7</title>
<path fill="none" stroke="#191970" d="M492.4372,-128.9581C436.8425,-118.0345 345.8161,-100.1492 286.4006,-88.4749"/>
<polygon fill="#191970" stroke="#191970" points="286.9064,-85.0074 276.4192,-86.5137 285.5568,-91.8761 286.9064,-85.0074"/>
</g>
<!-- Node6 -->
<g id="node7" class="node">
<title>Node6</title>
<polygon fill="none" stroke="#bfbfbf" points="308.5,-6 308.5,-25 367.5,-25 367.5,-6 308.5,-6"/>
<text text-anchor="middle" x="338" y="-13" font-family="Helvetica,sans-Serif" font-size="10.00" fill="#000000">Rtypes.h</text>
</g>
<!-- Node5&#45;&gt;Node6 -->
<g id="edge6" class="edge">
<title>Node5&#45;&gt;Node6</title>
<path fill="none" stroke="#191970" d="M434.1875,-67.3906C415.5315,-57.3262 386.0203,-41.4057 364.6026,-29.8514"/>
<polygon fill="#191970" stroke="#191970" points="366.1502,-26.7095 355.6874,-25.0419 362.8266,-32.8702 366.1502,-26.7095"/>
</g>
<!-- Node8 -->
<g id="node9" class="node">
<title>Node8</title>
<g id="a_node9"><a xlink:href="../../d5/d93/GPUCommonDefSettings_8h.html" target="_top" xlink:title="GPUCommonDefSettings.h">
<polygon fill="none" stroke="#000000" points="0,-6 0,-25 148,-25 148,-6 0,-6"/>
<text text-anchor="middle" x="74" y="-13" font-family="Helvetica,sans-Serif" font-size="10.00" fill="#000000">GPUCommonDefSettings.h</text>
</a>
</g>
</g>
<!-- Node7&#45;&gt;Node8 -->
<g id="edge8" class="edge">
<title>Node7&#45;&gt;Node8</title>
<path fill="none" stroke="#191970" d="M203.9375,-67.3906C177.9444,-57.0103 136.3522,-40.4004 107.2453,-28.7766"/>
<polygon fill="#191970" stroke="#191970" points="108.4785,-25.5003 97.8935,-25.0419 105.8823,-32.0011 108.4785,-25.5003"/>
</g>
<!-- Node9 -->
<g id="node10" class="node">
<title>Node9</title>
<g id="a_node10"><a xlink:href="../../da/d5a/GPUCommonDefAPI_8h.html" target="_top" xlink:title="GPUCommonDefAPI.h">
<polygon fill="none" stroke="#000000" points="166,-6 166,-25 290,-25 290,-6 166,-6"/>
<text text-anchor="middle" x="228" y="-13" font-family="Helvetica,sans-Serif" font-size="10.00" fill="#000000">GPUCommonDefAPI.h</text>
</a>
</g>
</g>
<!-- Node7&#45;&gt;Node9 -->
<g id="edge9" class="edge">
<title>Node7&#45;&gt;Node9</title>
<path fill="none" stroke="#191970" d="M228,-67.3906C228,-58.8657 228,-46.1392 228,-35.4235"/>
<polygon fill="#191970" stroke="#191970" points="231.5001,-35.2448 228,-25.2449 224.5001,-35.2449 231.5001,-35.2448"/>
</g>
<!-- Node11 -->
<g id="node12" class="node">
<title>Node11</title>
<g id="a_node12"><a xlink:href="../../d4/d25/BaseHits_8h.html" target="_top" xlink:title="SimulationDataFormat\l/BaseHits.h">
<polygon fill="none" stroke="#000000" points="831.5,-123.5 831.5,-153.5 958.5,-153.5 958.5,-123.5 831.5,-123.5"/>
<text text-anchor="start" x="839.5" y="-141.5" font-family="Helvetica,sans-Serif" font-size="10.00" fill="#000000">SimulationDataFormat</text>
<text text-anchor="middle" x="895" y="-130.5" font-family="Helvetica,sans-Serif" font-size="10.00" fill="#000000">/BaseHits.h</text>
</a>
</g>
</g>
<!-- Node10&#45;&gt;Node11 -->
<g id="edge11" class="edge">
<title>Node10&#45;&gt;Node11</title>
<path fill="none" stroke="#191970" d="M846.9063,-190.3906C854.1919,-182.5298 864.7887,-171.0964 874.1823,-160.9612"/>
<polygon fill="#191970" stroke="#191970" points="876.8256,-163.2581 881.0562,-153.5446 871.6915,-158.4997 876.8256,-163.2581"/>
</g>
<!-- Node22 -->
<g id="node23" class="node">
<title>Node22</title>
<g id="a_node23"><a xlink:href="../../d0/d91/ShmAllocator_8h.html" target="_top" xlink:title="CommonUtils/ShmAllocator.h">
<polygon fill="none" stroke="#000000" points="1407,-129 1407,-148 1567,-148 1567,-129 1407,-129"/>
<text text-anchor="middle" x="1487" y="-136" font-family="Helvetica,sans-Serif" font-size="10.00" fill="#000000">CommonUtils/ShmAllocator.h</text>
</a>
</g>
</g>
<!-- Node10&#45;&gt;Node22 -->
<g id="edge23" class="edge">
<title>Node10&#45;&gt;Node22</title>
<path fill="none" stroke="#191970" d="M881.0729,-191.3593C884.0883,-190.8645 887.0862,-190.4047 890,-190 1068.7201,-165.1752 1279.3097,-150.3488 1396.5462,-143.368"/>
<polygon fill="#191970" stroke="#191970" points="1396.7795,-146.8604 1406.5561,-142.7775 1396.3673,-139.8725 1396.7795,-146.8604"/>
</g>
<!-- Node12 -->
<g id="node13" class="node">
<title>Node12</title>
<g id="a_node13"><a xlink:href="../../dc/d73/Cartesian_8h.html" target="_top" xlink:title="MathUtils/Cartesian.h">
<polygon fill="none" stroke="#000000" points="862,-67.5 862,-86.5 984,-86.5 984,-67.5 862,-67.5"/>
<text text-anchor="middle" x="923" y="-74.5" font-family="Helvetica,sans-Serif" font-size="10.00" fill="#000000">MathUtils/Cartesian.h</text>
</a>
</g>
</g>
<!-- Node11&#45;&gt;Node12 -->
<g id="edge12" class="edge">
<title>Node11&#45;&gt;Node12</title>
<path fill="none" stroke="#191970" d="M901.9214,-123.2977C905.6461,-115.1166 910.278,-104.943 914.2504,-96.2179"/>
<polygon fill="#191970" stroke="#191970" points="917.5586,-97.3983 918.5168,-86.8469 911.1878,-94.4978 917.5586,-97.3983"/>
</g>
<!-- Node12&#45;&gt;Node6 -->
<g id="edge20" class="edge">
<title>Node12&#45;&gt;Node6</title>
<path fill="none" stroke="#191970" d="M861.9078,-74.1965C739.2107,-68.1833 466.8145,-52.8003 376,-31 373.2071,-30.3296 370.3515,-29.4859 367.5222,-28.5402"/>
<polygon fill="#191970" stroke="#191970" points="368.7262,-25.2538 358.1337,-25.0354 366.2781,-31.8118 368.7262,-25.2538"/>
</g>
<!-- Node13 -->
<g id="node14" class="node">
<title>Node13</title>
<polygon fill="none" stroke="#bfbfbf" points="453,-.5 453,-30.5 617,-30.5 617,-.5 453,-.5"/>
<text text-anchor="start" x="461" y="-18.5" font-family="Helvetica,sans-Serif" font-size="10.00" fill="#000000">Math/GenVector/Displacement</text>
<text text-anchor="middle" x="535" y="-7.5" font-family="Helvetica,sans-Serif" font-size="10.00" fill="#000000">Vector3D.h</text>
</g>
<!-- Node12&#45;&gt;Node13 -->
<g id="edge13" class="edge">
<title>Node12&#45;&gt;Node13</title>
<path fill="none" stroke="#191970" d="M861.8099,-67.7978C803.9606,-59.0354 714.4469,-45.3165 627.3839,-31.2126"/>
<polygon fill="#191970" stroke="#191970" points="627.7623,-27.7283 617.3306,-29.5804 626.6405,-34.6378 627.7623,-27.7283"/>
</g>
<!-- Node14 -->
<g id="node15" class="node">
<title>Node14</title>
<polygon fill="none" stroke="#bfbfbf" points="635.5,-6 635.5,-25 824.5,-25 824.5,-6 635.5,-6"/>
<text text-anchor="middle" x="730" y="-13" font-family="Helvetica,sans-Serif" font-size="10.00" fill="#000000">Math/GenVector/PositionVector3D.h</text>
</g>
<!-- Node12&#45;&gt;Node14 -->
<g id="edge14" class="edge">
<title>Node12&#45;&gt;Node14</title>
<path fill="none" stroke="#191970" d="M892.8438,-67.3906C859.7015,-56.8298 806.3238,-39.8208 769.7758,-28.1747"/>
<polygon fill="#191970" stroke="#191970" points="770.5351,-24.7433 759.9445,-25.0419 768.4098,-31.4129 770.5351,-24.7433"/>
</g>
<!-- Node15 -->
<g id="node16" class="node">
<title>Node15</title>
<polygon fill="none" stroke="#bfbfbf" points="843,-6 843,-25 1003,-25 1003,-6 843,-6"/>
<text text-anchor="middle" x="923" y="-13" font-family="Helvetica,sans-Serif" font-size="10.00" fill="#000000">Math/GenVector/Rotation3D.h</text>
</g>
<!-- Node12&#45;&gt;Node15 -->
<g id="edge15" class="edge">
<title>Node12&#45;&gt;Node15</title>
<path fill="none" stroke="#191970" d="M923,-67.3906C923,-58.8657 923,-46.1392 923,-35.4235"/>
<polygon fill="#191970" stroke="#191970" points="926.5001,-35.2448 923,-25.2449 919.5001,-35.2449 926.5001,-35.2448"/>
</g>
<!-- Node16 -->
<g id="node17" class="node">
<title>Node16</title>
<polygon fill="none" stroke="#bfbfbf" points="1021,-6 1021,-25 1189,-25 1189,-6 1021,-6"/>
<text text-anchor="middle" x="1105" y="-13" font-family="Helvetica,sans-Serif" font-size="10.00" fill="#000000">Math/GenVector/Transform3D.h</text>
</g>
<!-- Node12&#45;&gt;Node16 -->
<g id="edge16" class="edge">
<title>Node12&#45;&gt;Node16</title>
<path fill="none" stroke="#191970" d="M951.4375,-67.3906C982.5572,-56.8749 1032.5964,-39.966 1067.0485,-28.3243"/>
<polygon fill="#191970" stroke="#191970" points="1068.4089,-31.5591 1076.7622,-25.0419 1066.168,-24.9274 1068.4089,-31.5591"/>
</g>
<!-- Node17 -->
<g id="node18" class="node">
<title>Node17</title>
<polygon fill="none" stroke="#bfbfbf" points="1207.5,-6 1207.5,-25 1380.5,-25 1380.5,-6 1207.5,-6"/>
<text text-anchor="middle" x="1294" y="-13" font-family="Helvetica,sans-Serif" font-size="10.00" fill="#000000">Math/GenVector/Translation3D.h</text>
</g>
<!-- Node12&#45;&gt;Node17 -->
<g id="edge17" class="edge">
<title>Node12&#45;&gt;Node17</title>
<path fill="none" stroke="#191970" d="M980.5617,-67.4581C1047.0029,-56.4443 1156.1384,-38.3531 1226.5159,-26.6867"/>
<polygon fill="#191970" stroke="#191970" points="1227.3156,-30.102 1236.6085,-25.0137 1226.1708,-23.1962 1227.3156,-30.102"/>
</g>
<!-- Node18 -->
<g id="node19" class="node">
<title>Node18</title>
<polygon fill="none" stroke="#bfbfbf" points="1399,-.5 1399,-30.5 1563,-30.5 1563,-.5 1399,-.5"/>
<text text-anchor="start" x="1407" y="-18.5" font-family="Helvetica,sans-Serif" font-size="10.00" fill="#000000">Math/GenVector/Displacement</text>
<text text-anchor="middle" x="1481" y="-7.5" font-family="Helvetica,sans-Serif" font-size="10.00" fill="#000000">Vector2D.h</text>
</g>
<!-- Node12&#45;&gt;Node18 -->
<g id="edge18" class="edge">
<title>Node12&#45;&gt;Node18</title>
<path fill="none" stroke="#191970" d="M984.3556,-72.3443C1071.8599,-65.3967 1237.7417,-51.0888 1388.774,-31.1098"/>
<polygon fill="#191970" stroke="#191970" points="1389.2505,-34.5774 1398.6998,-29.7857 1388.3248,-27.6388 1389.2505,-34.5774"/>
</g>
<!-- Node19 -->
<g id="node20" class="node">
<title>Node19</title>
<polygon fill="none" stroke="#bfbfbf" points="1581.5,-6 1581.5,-25 1770.5,-25 1770.5,-6 1581.5,-6"/>
<text text-anchor="middle" x="1676" y="-13" font-family="Helvetica,sans-Serif" font-size="10.00" fill="#000000">Math/GenVector/PositionVector2D.h</text>
</g>
<!-- Node12&#45;&gt;Node19 -->
<g id="edge19" class="edge">
<title>Node12&#45;&gt;Node19</title>
<path fill="none" stroke="#191970" d="M984.4355,-74.2288C1099.8171,-68.673 1356.7001,-54.6384 1572,-31 1583.4383,-29.7442 1595.5492,-28.167 1607.3079,-26.5029"/>
<polygon fill="#191970" stroke="#191970" points="1608.1295,-29.9206 1617.5249,-25.0241 1607.1266,-22.9928 1608.1295,-29.9206"/>
</g>
<!-- Node20 -->
<g id="node21" class="node">
<title>Node20</title>
<polygon fill="none" stroke="#bfbfbf" points="1789,-6 1789,-25 1871,-25 1871,-6 1789,-6"/>
<text text-anchor="middle" x="1830" y="-13" font-family="Helvetica,sans-Serif" font-size="10.00" fill="#000000">TGeoMatrix.h</text>
</g>
<!-- Node12&#45;&gt;Node20 -->
<g id="edge21" class="edge">
<title>Node12&#45;&gt;Node20</title>
<path fill="none" stroke="#191970" d="M984.1622,-75.6776C1153.649,-71.7013 1626.9153,-58.4007 1780,-31 1784.4995,-30.1946 1789.161,-29.1074 1793.7472,-27.8802"/>
<polygon fill="#191970" stroke="#191970" points="1794.9483,-31.176 1803.5747,-25.025 1792.9952,-24.454 1794.9483,-31.176"/>
</g>
<!-- Node21 -->
<g id="node22" class="node">
<title>Node21</title>
<polygon fill="none" stroke="#bfbfbf" points="385.5,-6 385.5,-25 434.5,-25 434.5,-6 385.5,-6"/>
<text text-anchor="middle" x="410" y="-13" font-family="Helvetica,sans-Serif" font-size="10.00" fill="#000000">iosfwd</text>
</g>
<!-- Node12&#45;&gt;Node21 -->
<g id="edge22" class="edge">
<title>Node12&#45;&gt;Node21</title>
<path fill="none" stroke="#191970" d="M861.8159,-73.653C750.9715,-67.1706 521.2674,-51.6986 444,-31 441.8107,-30.4135 439.5857,-29.6984 437.3756,-28.9008"/>
<polygon fill="#191970" stroke="#191970" points="438.5172,-25.5859 427.9376,-25.0177 435.8538,-32.0594 438.5172,-25.5859"/>
</g>
<!-- Node23 -->
<g id="node24" class="node">
<title>Node23</title>
<g id="a_node24"><a xlink:href="../../de/d61/ShmManager_8h.html" target="_top" xlink:title="CommonUtils/ShmManager.h">
<polygon fill="none" stroke="#000000" points="2045,-67.5 2045,-86.5 2203,-86.5 2203,-67.5 2045,-67.5"/>
<text text-anchor="middle" x="2124" y="-74.5" font-family="Helvetica,sans-Serif" font-size="10.00" fill="#000000">CommonUtils/ShmManager.h</text>
</a>
</g>
</g>
<!-- Node22&#45;&gt;Node23 -->
<g id="edge24" class="edge">
<title>Node22&#45;&gt;Node23</title>
<path fill="none" stroke="#191970" d="M1567.0315,-130.7733C1686.3115,-119.2572 1910.0014,-97.6608 2034.5327,-85.6377"/>
<polygon fill="#191970" stroke="#191970" points="2035.1784,-89.0918 2044.7957,-84.6469 2034.5056,-82.1242 2035.1784,-89.0918"/>
</g>
<!-- Node29 -->
<g id="node30" class="node">
<title>Node29</title>
<polygon fill="none" stroke="#bfbfbf" points="1461,-67.5 1461,-86.5 1513,-86.5 1513,-67.5 1461,-67.5"/>
<text text-anchor="middle" x="1487" y="-74.5" font-family="Helvetica,sans-Serif" font-size="10.00" fill="#000000">cassert</text>
</g>
<!-- Node22&#45;&gt;Node29 -->
<g id="edge30" class="edge">
<title>Node22&#45;&gt;Node29</title>
<path fill="none" stroke="#191970" d="M1487,-128.8906C1487,-120.3657 1487,-107.6392 1487,-96.9235"/>
<polygon fill="#191970" stroke="#191970" points="1490.5001,-96.7448 1487,-86.7449 1483.5001,-96.7449 1490.5001,-96.7448"/>
</g>
<!-- Node24 -->
<g id="node25" class="node">
<title>Node24</title>
<polygon fill="none" stroke="#bfbfbf" points="2293,-6 2293,-25 2325,-25 2325,-6 2293,-6"/>
<text text-anchor="middle" x="2309" y="-13" font-family="Helvetica,sans-Serif" font-size="10.00" fill="#000000">list</text>
</g>
<!-- Node23&#45;&gt;Node24 -->
<g id="edge25" class="edge">
<title>Node23&#45;&gt;Node24</title>
<path fill="none" stroke="#191970" d="M2169.3016,-67.495C2201.9927,-59.7999 2246.7468,-47.5235 2284,-31 2284.7002,-30.6894 2285.4042,-30.362 2286.1092,-30.0208"/>
<polygon fill="#191970" stroke="#191970" points="2288.0339,-32.9561 2295.0938,-25.0562 2284.6484,-26.8292 2288.0339,-32.9561"/>
</g>
<!-- Node25 -->
<g id="node26" class="node">
<title>Node25</title>
<polygon fill="none" stroke="#bfbfbf" points="2343.5,-6 2343.5,-25 2396.5,-25 2396.5,-6 2343.5,-6"/>
<text text-anchor="middle" x="2370" y="-13" font-family="Helvetica,sans-Serif" font-size="10.00" fill="#000000">cstddef</text>
</g>
<!-- Node23&#45;&gt;Node25 -->
<g id="edge26" class="edge">
<title>Node23&#45;&gt;Node25</title>
<path fill="none" stroke="#191970" d="M2181.3768,-67.4921C2224.0356,-59.6892 2283.3682,-47.2804 2334,-31 2336.1054,-30.323 2338.2564,-29.5681 2340.4075,-28.766"/>
<polygon fill="#191970" stroke="#191970" points="2341.7182,-32.0114 2349.6981,-25.0421 2339.1138,-25.5139 2341.7182,-32.0114"/>
</g>
<!-- Node26 -->
<g id="node27" class="node">
<title>Node26</title>
<polygon fill="none" stroke="#bfbfbf" points="1889,-6 1889,-25 1939,-25 1939,-6 1889,-6"/>
<text text-anchor="middle" x="1914" y="-13" font-family="Helvetica,sans-Serif" font-size="10.00" fill="#000000">atomic</text>
</g>
<!-- Node23&#45;&gt;Node26 -->
<g id="edge27" class="edge">
<title>Node23&#45;&gt;Node26</title>
<path fill="none" stroke="#191970" d="M2079.906,-67.471C2044.1633,-59.2568 1992.7298,-46.3199 1949,-31 1947.1655,-30.3573 1945.2933,-29.6591 1943.4159,-28.9265"/>
<polygon fill="#191970" stroke="#191970" points="1944.7148,-25.6762 1934.1371,-25.0743 1942.0307,-32.1412 1944.7148,-25.6762"/>
</g>
<!-- Node27 -->
<g id="node28" class="node">
<title>Node27</title>
<polygon fill="none" stroke="#bfbfbf" points="1957.5,-.5 1957.5,-30.5 2122.5,-30.5 2122.5,-.5 1957.5,-.5"/>
<text text-anchor="start" x="1965.5" y="-18.5" font-family="Helvetica,sans-Serif" font-size="10.00" fill="#000000">boost/interprocess</text>
<text text-anchor="middle" x="2040" y="-7.5" font-family="Helvetica,sans-Serif" font-size="10.00" fill="#000000">/managed_external_buffer.hpp</text>
</g>
<!-- Node23&#45;&gt;Node27 -->
<g id="edge28" class="edge">
<title>Node23&#45;&gt;Node27</title>
<path fill="none" stroke="#191970" d="M2110.875,-67.3906C2099.6119,-59.1444 2082.9791,-46.9669 2068.6566,-36.4807"/>
<polygon fill="#191970" stroke="#191970" points="2070.685,-33.628 2060.5487,-30.5446 2066.5498,-39.276 2070.685,-33.628"/>
</g>
<!-- Node28 -->
<g id="node29" class="node">
<title>Node28</title>
<polygon fill="none" stroke="#bfbfbf" points="2141,-.5 2141,-30.5 2275,-30.5 2275,-.5 2141,-.5"/>
<text text-anchor="start" x="2149" y="-18.5" font-family="Helvetica,sans-Serif" font-size="10.00" fill="#000000">boost/interprocess</text>
<text text-anchor="middle" x="2208" y="-7.5" font-family="Helvetica,sans-Serif" font-size="10.00" fill="#000000">/allocators/allocator.hpp</text>
</g>
<!-- Node23&#45;&gt;Node28 -->
<g id="edge29" class="edge">
<title>Node23&#45;&gt;Node28</title>
<path fill="none" stroke="#191970" d="M2137.125,-67.3906C2148.3881,-59.1444 2165.0209,-46.9669 2179.3434,-36.4807"/>
<polygon fill="#191970" stroke="#191970" points="2181.4502,-39.276 2187.4513,-30.5446 2177.315,-33.628 2181.4502,-39.276"/>
</g>
</g>
</svg>
        <g id="navigator" transform="translate(0 0)" fill="#404254">
                <rect fill="#f2f5e9" fill-opacity="0.5" stroke="#606060" stroke-width=".5" x="0" y="0" width="60" height="60"/>
                <use id="zoomplus" xlink:href="#zoomPlus" x="17" y="9" onmousedown="handleZoom(evt,'in')"/>
                <use id="zoomminus" xlink:href="#zoomMin" x="42" y="9" onmousedown="handleZoom(evt,'out')"/>
                <use id="reset" xlink:href="#resetDef" x="30" y="36" onmousedown="handleReset()"/>
                <g id="arrowUp" xlink:href="#dirArrow" transform="translate(30 24)" onmousedown="handlePan(0,-1)">
                  <use xlink:href="#rim" fill="#404040">
                        <set attributeName="fill" to="#808080" begin="arrowUp.mouseover" end="arrowUp.mouseout"/>
                  </use>
                  <path fill="none" stroke="white" stroke-width="1.5" d="M0,-3.0v7 M-2.5,-0.5L0,-3.0L2.5,-0.5"/>
                </g>
                <g id="arrowRight" xlink:href="#dirArrow" transform="rotate(90) translate(36 -43)" onmousedown="handlePan(1,0)">
                  <use xlink:href="#rim" fill="#404040">
                        <set attributeName="fill" to="#808080" begin="arrowRight.mouseover" end="arrowRight.mouseout"/>
                  </use>
                  <path fill="none" stroke="white" stroke-width="1.5" d="M0,-3.0v7 M-2.5,-0.5L0,-3.0L2.5,-0.5"/>
                </g>
                <g id="arrowDown" xlink:href="#dirArrow" transform="rotate(180) translate(-30 -48)" onmousedown="handlePan(0,1)">
                  <use xlink:href="#rim" fill="#404040">
                        <set attributeName="fill" to="#808080" begin="arrowDown.mouseover" end="arrowDown.mouseout"/>
                  </use>
                  <path fill="none" stroke="white" stroke-width="1.5" d="M0,-3.0v7 M-2.5,-0.5L0,-3.0L2.5,-0.5"/>
                </g>
                <g id="arrowLeft" xlink:href="#dirArrow" transform="rotate(270) translate(-36 17)" onmousedown="handlePan(-1,0)">
                  <use xlink:href="#rim" fill="#404040">
                        <set attributeName="fill" to="#808080" begin="arrowLeft.mouseover" end="arrowLeft.mouseout"/>
                  </use>
                  <path fill="none" stroke="white" stroke-width="1.5" d="M0,-3.0v7 M-2.5,-0.5L0,-3.0L2.5,-0.5"/>
                </g>
        </g>
        <svg viewBox="0 0 15 15" width="100%" height="30px" preserveAspectRatio="xMaxYMin meet">
         <g id="arrow_out" transform="scale(0.3 0.3)">
          <a xlink:href="DataFormats_2Detectors_2CPV_2src_2Digit_8cxx__incl_org.svg" target="_base">
           <rect id="button" ry="5" rx="5" y="6" x="6" height="38" width="38"
                fill="#f2f5e9" fill-opacity="0.5" stroke="#606060" stroke-width="1.0"/>
           <path id="arrow"
             d="M 11.500037,31.436501 C 11.940474,20.09759 22.043105,11.32322 32.158766,21.979434 L 37.068811,17.246167 C 37.068811,17.246167 37.088388,32 37.088388,32 L 22.160133,31.978069 C 22.160133,31.978069 26.997745,27.140456 26.997745,27.140456 C 18.528582,18.264221 13.291696,25.230495 11.500037,31.436501 z"
             style="fill:#404040;"/>
          </a>
         </g>
        </svg>
</svg>
