<?xml version="1.0" encoding="UTF-8" standalone="no"?>
<!DOCTYPE svg PUBLIC "-//W3C//DTD SVG 1.1//EN"
 "http://www.w3.org/Graphics/SVG/1.1/DTD/svg11.dtd">
<!-- Generated by graphviz version 2.40.1 (20161225.0304)
 -->
<!-- Title: /home/travis/build/AliceO2Group/AliceO2/GPU/GPUTracking/Merger/GPUTPCGMPhysicalTrackModel.h Pages: 1 -->
<!--zoomable 506 -->
<svg id="main" version="1.1" xmlns="http://www.w3.org/2000/svg" xmlns:xlink="http://www.w3.org/1999/xlink" xml:space="preserve" onload="init(evt)">
<style type="text/css"><![CDATA[
.edge:hover path { stroke: red; }
.edge:hover polygon { stroke: red; fill: red; }
]]></style>
<script type="text/javascript"><![CDATA[
var edges = document.getElementsByTagName('g');
if (edges && edges.length) {
  for (var i=0;i<edges.length;i++) {
    if (edges[i].id.substr(0,4)=='edge') {
      edges[i].setAttribute('class','edge');
    }
  }
}
]]></script>
        <defs>
                <circle id="rim" cx="0" cy="0" r="7"/>
                <circle id="rim2" cx="0" cy="0" r="3.5"/>
                <g id="zoomPlus">
                        <use xlink:href="#rim" fill="#404040">
                                <set attributeName="fill" to="#808080" begin="zoomplus.mouseover" end="zoomplus.mouseout"/>
                        </use>
                        <path d="M-4,0h8M0,-4v8" fill="none" stroke="white" stroke-width="1.5" pointer-events="none"/>
                </g>
                <g id="zoomMin">
                        <use xlink:href="#rim" fill="#404040">
                                <set attributeName="fill" to="#808080" begin="zoomminus.mouseover" end="zoomminus.mouseout"/>
                        </use>
                        <path d="M-4,0h8" fill="none" stroke="white" stroke-width="1.5" pointer-events="none"/>
                </g>
                <g id="dirArrow">
                        <path fill="none" stroke="white" stroke-width="1.5" d="M0,-3.0v7 M-2.5,-0.5L0,-3.0L2.5,-0.5"/>
                </g>
               <g id="resetDef">
                       <use xlink:href="#rim2" fill="#404040">
                               <set attributeName="fill" to="#808080" begin="reset.mouseover" end="reset.mouseout"/>
                       </use>
               </g>
        </defs>

<script type="text/javascript">
var viewWidth = 1584;
var viewHeight = 506;
var sectionId = 'dynsection-1';
</script>
<script xlink:href="../../svgpan.js"/>
<svg id="graph" class="graph">
<g id="viewport">
<title>/home/travis/build/AliceO2Group/AliceO2/GPU/GPUTracking/Merger/GPUTPCGMPhysicalTrackModel.h</title>
<!-- Node19 -->
<g id="node1" class="node">
<title>Node19</title>
<polygon fill="#bfbfbf" stroke="#000000" points="249,-445.5 249,-497.5 428,-497.5 428,-445.5 249,-445.5"/>
<text text-anchor="start" x="257" y="-485.5" font-family="Helvetica,sans-Serif" font-size="10.00" fill="#000000">/home/travis/build</text>
<text text-anchor="start" x="257" y="-474.5" font-family="Helvetica,sans-Serif" font-size="10.00" fill="#000000">/AliceO2Group/AliceO2</text>
<text text-anchor="start" x="257" y="-463.5" font-family="Helvetica,sans-Serif" font-size="10.00" fill="#000000">/GPU/GPUTracking/Merger</text>
<text text-anchor="middle" x="338.5" y="-452.5" font-family="Helvetica,sans-Serif" font-size="10.00" fill="#000000">/GPUTPCGMPhysicalTrackModel.h</text>
</g>
<!-- Node20 -->
<g id="node2" class="node">
<title>Node20</title>
<g id="a_node2"><a xlink:href="../../db/de9/GPUTPCGMPhysicalTrackModel_8cxx.html" target="_top" xlink:title="/home/travis/build\l/AliceO2Group/AliceO2\l/GPU/GPUTracking/Merger\l/GPUTPCGMPhysicalTrackModel.cxx">
<polygon fill="none" stroke="#000000" points="0,-356.5 0,-408.5 191,-408.5 191,-356.5 0,-356.5"/>
<text text-anchor="start" x="8" y="-396.5" font-family="Helvetica,sans-Serif" font-size="10.00" fill="#000000">/home/travis/build</text>
<text text-anchor="start" x="8" y="-385.5" font-family="Helvetica,sans-Serif" font-size="10.00" fill="#000000">/AliceO2Group/AliceO2</text>
<text text-anchor="start" x="8" y="-374.5" font-family="Helvetica,sans-Serif" font-size="10.00" fill="#000000">/GPU/GPUTracking/Merger</text>
<text text-anchor="middle" x="95.5" y="-363.5" font-family="Helvetica,sans-Serif" font-size="10.00" fill="#000000">/GPUTPCGMPhysicalTrackModel.cxx</text>
</a>
</g>
</g>
<!-- Node19&#45;&gt;Node20 -->
<g id="edge1" class="edge">
<title>Node19&#45;&gt;Node20</title>
<path fill="none" stroke="#191970" d="M257.8138,-441.9483C228.377,-431.1669 195.3237,-419.061 166.7648,-408.6011"/>
<polygon fill="#191970" stroke="#191970" points="256.6402,-445.2457 267.2339,-445.3984 259.0476,-438.6727 256.6402,-445.2457"/>
</g>
<!-- Node23 -->
<g id="node5" class="node">
<title>Node23</title>
<g id="a_node5"><a xlink:href="../../d0/dd8/GPUTPCGMPropagator_8h.html" target="_top" xlink:title="/home/travis/build\l/AliceO2Group/AliceO2\l/GPU/GPUTracking/Merger\l/GPUTPCGMPropagator.h">
<polygon fill="none" stroke="#000000" points="591.5,-356.5 591.5,-408.5 733.5,-408.5 733.5,-356.5 591.5,-356.5"/>
<text text-anchor="start" x="599.5" y="-396.5" font-family="Helvetica,sans-Serif" font-size="10.00" fill="#000000">/home/travis/build</text>
<text text-anchor="start" x="599.5" y="-385.5" font-family="Helvetica,sans-Serif" font-size="10.00" fill="#000000">/AliceO2Group/AliceO2</text>
<text text-anchor="start" x="599.5" y="-374.5" font-family="Helvetica,sans-Serif" font-size="10.00" fill="#000000">/GPU/GPUTracking/Merger</text>
<text text-anchor="middle" x="662.5" y="-363.5" font-family="Helvetica,sans-Serif" font-size="10.00" fill="#000000">/GPUTPCGMPropagator.h</text>
</a>
</g>
</g>
<!-- Node19&#45;&gt;Node23 -->
<g id="edge4" class="edge">
<title>Node19&#45;&gt;Node23</title>
<path fill="none" stroke="#191970" d="M438.0968,-444.1416C487.6179,-430.5386 546.3225,-414.413 591.2657,-402.0675"/>
<polygon fill="#191970" stroke="#191970" points="437.0375,-440.8029 428.3218,-446.8267 438.8917,-447.5528 437.0375,-440.8029"/>
</g>
<!-- Node29 -->
<g id="node11" class="node">
<title>Node29</title>
<g id="a_node11"><a xlink:href="../../d8/de7/GPUTPCGMPropagator_8cxx.html" target="_top" xlink:title="/home/travis/build\l/AliceO2Group/AliceO2\l/GPU/GPUTracking/Merger\l/GPUTPCGMPropagator.cxx">
<polygon fill="none" stroke="#000000" points="96.5,-267.5 96.5,-319.5 244.5,-319.5 244.5,-267.5 96.5,-267.5"/>
<text text-anchor="start" x="104.5" y="-307.5" font-family="Helvetica,sans-Serif" font-size="10.00" fill="#000000">/home/travis/build</text>
<text text-anchor="start" x="104.5" y="-296.5" font-family="Helvetica,sans-Serif" font-size="10.00" fill="#000000">/AliceO2Group/AliceO2</text>
<text text-anchor="start" x="104.5" y="-285.5" font-family="Helvetica,sans-Serif" font-size="10.00" fill="#000000">/GPU/GPUTracking/Merger</text>
<text text-anchor="middle" x="170.5" y="-274.5" font-family="Helvetica,sans-Serif" font-size="10.00" fill="#000000">/GPUTPCGMPropagator.cxx</text>
</a>
</g>
</g>
<!-- Node19&#45;&gt;Node29 -->
<g id="edge30" class="edge">
<title>Node19&#45;&gt;Node29</title>
<path fill="none" stroke="#191970" d="M306.665,-437.7701C274.2413,-403.4164 224.6541,-350.8776 195.117,-319.5823"/>
<polygon fill="#191970" stroke="#191970" points="304.3018,-440.3654 313.711,-445.2355 309.3925,-435.5607 304.3018,-440.3654"/>
</g>
<!-- Node30 -->
<g id="node12" class="node">
<title>Node30</title>
<g id="a_node12"><a xlink:href="../../df/dad/GPUTPCGMTrackParam_8cxx.html" target="_top" xlink:title="/home/travis/build\l/AliceO2Group/AliceO2\l/GPU/GPUTracking/Merger\l/GPUTPCGMTrackParam.cxx">
<polygon fill="none" stroke="#000000" points="262.5,-267.5 262.5,-319.5 414.5,-319.5 414.5,-267.5 262.5,-267.5"/>
<text text-anchor="start" x="270.5" y="-307.5" font-family="Helvetica,sans-Serif" font-size="10.00" fill="#000000">/home/travis/build</text>
<text text-anchor="start" x="270.5" y="-296.5" font-family="Helvetica,sans-Serif" font-size="10.00" fill="#000000">/AliceO2Group/AliceO2</text>
<text text-anchor="start" x="270.5" y="-285.5" font-family="Helvetica,sans-Serif" font-size="10.00" fill="#000000">/GPU/GPUTracking/Merger</text>
<text text-anchor="middle" x="338.5" y="-274.5" font-family="Helvetica,sans-Serif" font-size="10.00" fill="#000000">/GPUTPCGMTrackParam.cxx</text>
</a>
</g>
</g>
<!-- Node19&#45;&gt;Node30 -->
<g id="edge31" class="edge">
<title>Node19&#45;&gt;Node30</title>
<path fill="none" stroke="#191970" d="M338.5,-435.1378C338.5,-400.7809 338.5,-350.0886 338.5,-319.5823"/>
<polygon fill="#191970" stroke="#191970" points="335.0001,-435.2355 338.5,-445.2355 342.0001,-435.2355 335.0001,-435.2355"/>
</g>
<!-- Node32 -->
<g id="node14" class="node">
<title>Node32</title>
<g id="a_node14"><a xlink:href="../../d7/d9f/genEvents_8cxx.html" target="_top" xlink:title="/home/travis/build\l/AliceO2Group/AliceO2\l/GPU/GPUTracking/Standalone\l/qa/genEvents.cxx">
<polygon fill="none" stroke="#000000" points="1379,-267.5 1379,-319.5 1542,-319.5 1542,-267.5 1379,-267.5"/>
<text text-anchor="start" x="1387" y="-307.5" font-family="Helvetica,sans-Serif" font-size="10.00" fill="#000000">/home/travis/build</text>
<text text-anchor="start" x="1387" y="-296.5" font-family="Helvetica,sans-Serif" font-size="10.00" fill="#000000">/AliceO2Group/AliceO2</text>
<text text-anchor="start" x="1387" y="-285.5" font-family="Helvetica,sans-Serif" font-size="10.00" fill="#000000">/GPU/GPUTracking/Standalone</text>
<text text-anchor="middle" x="1460.5" y="-274.5" font-family="Helvetica,sans-Serif" font-size="10.00" fill="#000000">/qa/genEvents.cxx</text>
</a>
</g>
</g>
<!-- Node19&#45;&gt;Node32 -->
<g id="edge32" class="edge">
<title>Node19&#45;&gt;Node32</title>
<path fill="none" stroke="#191970" d="M438.296,-461.5705C623.4846,-442.103 1032.2558,-394.2387 1370.5,-320 1373.2046,-319.4064 1375.9469,-318.7747 1378.71,-318.1128"/>
<polygon fill="#191970" stroke="#191970" points="437.8845,-458.0944 428.3031,-462.6162 438.6131,-465.0564 437.8845,-458.0944"/>
</g>
<!-- Node21 -->
<g id="node3" class="node">
<title>Node21</title>
<g id="a_node3"><a xlink:href="../../d0/d25/GPUReconstructionIncludesDevice_8h.html" target="_top" xlink:title="/home/travis/build\l/AliceO2Group/AliceO2\l/GPU/GPUTracking/Base\l/GPUReconstructionIncludesDevice.h">
<polygon fill="none" stroke="#000000" points="72.5,-178.5 72.5,-230.5 268.5,-230.5 268.5,-178.5 72.5,-178.5"/>
<text text-anchor="start" x="80.5" y="-218.5" font-family="Helvetica,sans-Serif" font-size="10.00" fill="#000000">/home/travis/build</text>
<text text-anchor="start" x="80.5" y="-207.5" font-family="Helvetica,sans-Serif" font-size="10.00" fill="#000000">/AliceO2Group/AliceO2</text>
<text text-anchor="start" x="80.5" y="-196.5" font-family="Helvetica,sans-Serif" font-size="10.00" fill="#000000">/GPU/GPUTracking/Base</text>
<text text-anchor="middle" x="170.5" y="-185.5" font-family="Helvetica,sans-Serif" font-size="10.00" fill="#000000">/GPUReconstructionIncludesDevice.h</text>
</a>
</g>
</g>
<!-- Node20&#45;&gt;Node21 -->
<g id="edge2" class="edge">
<title>Node20&#45;&gt;Node21</title>
<path fill="none" stroke="#191970" d="M83.8924,-346.5435C78.3413,-322.7588 75.2536,-291.5519 87.5,-267 94.8268,-252.3111 107.4324,-240.1677 120.6381,-230.6162"/>
<polygon fill="#191970" stroke="#191970" points="80.5057,-347.4274 86.3847,-356.2415 87.2854,-345.685 80.5057,-347.4274"/>
</g>
<!-- Node22 -->
<g id="node4" class="node">
<title>Node22</title>
<g id="a_node4"><a xlink:href="../../d3/d33/GPUReconstructionHIP_8hip_8cxx.html" target="_top" xlink:title="/home/travis/build\l/AliceO2Group/AliceO2\l/GPU/GPUTracking/Base\l/hip/GPUReconstructionHIP.hip.cxx">
<polygon fill="none" stroke="#000000" points="78.5,-89.5 78.5,-141.5 262.5,-141.5 262.5,-89.5 78.5,-89.5"/>
<text text-anchor="start" x="86.5" y="-129.5" font-family="Helvetica,sans-Serif" font-size="10.00" fill="#000000">/home/travis/build</text>
<text text-anchor="start" x="86.5" y="-118.5" font-family="Helvetica,sans-Serif" font-size="10.00" fill="#000000">/AliceO2Group/AliceO2</text>
<text text-anchor="start" x="86.5" y="-107.5" font-family="Helvetica,sans-Serif" font-size="10.00" fill="#000000">/GPU/GPUTracking/Base</text>
<text text-anchor="middle" x="170.5" y="-96.5" font-family="Helvetica,sans-Serif" font-size="10.00" fill="#000000">/hip/GPUReconstructionHIP.hip.cxx</text>
</a>
</g>
</g>
<!-- Node21&#45;&gt;Node22 -->
<g id="edge3" class="edge">
<title>Node21&#45;&gt;Node22</title>
<path fill="none" stroke="#191970" d="M170.5,-168.1155C170.5,-159.2061 170.5,-149.8475 170.5,-141.5341"/>
<polygon fill="#191970" stroke="#191970" points="167.0001,-168.2784 170.5,-178.2784 174.0001,-168.2785 167.0001,-168.2784"/>
</g>
<!-- Node24 -->
<g id="node6" class="node">
<title>Node24</title>
<g id="a_node6"><a xlink:href="../../df/dbd/AliHLTTPCClusterStatComponent_8cxx.html" target="_top" xlink:title="/home/travis/build\l/AliceO2Group/AliceO2\l/GPU/GPUTracking/DataCompression\l/AliHLTTPCClusterStatComponent.cxx">
<polygon fill="none" stroke="#000000" points="949,-267.5 949,-319.5 1148,-319.5 1148,-267.5 949,-267.5"/>
<text text-anchor="start" x="957" y="-307.5" font-family="Helvetica,sans-Serif" font-size="10.00" fill="#000000">/home/travis/build</text>
<text text-anchor="start" x="957" y="-296.5" font-family="Helvetica,sans-Serif" font-size="10.00" fill="#000000">/AliceO2Group/AliceO2</text>
<text text-anchor="start" x="957" y="-285.5" font-family="Helvetica,sans-Serif" font-size="10.00" fill="#000000">/GPU/GPUTracking/DataCompression</text>
<text text-anchor="middle" x="1048.5" y="-274.5" font-family="Helvetica,sans-Serif" font-size="10.00" fill="#000000">/AliHLTTPCClusterStatComponent.cxx</text>
</a>
</g>
</g>
<!-- Node23&#45;&gt;Node24 -->
<g id="edge5" class="edge">
<title>Node23&#45;&gt;Node24</title>
<path fill="none" stroke="#191970" d="M743.8203,-364.5236C799.0625,-352.2207 873.754,-335.4081 939.5,-320 942.5338,-319.289 945.6141,-318.5634 948.7233,-317.8277"/>
<polygon fill="#191970" stroke="#191970" points="742.7393,-361.1785 733.7383,-366.767 744.2598,-368.0114 742.7393,-361.1785"/>
</g>
<!-- Node25 -->
<g id="node7" class="node">
<title>Node25</title>
<g id="a_node7"><a xlink:href="../../da/d21/GPUTPCCompressionTrackModel_8h.html" target="_top" xlink:title="/home/travis/build\l/AliceO2Group/AliceO2\l/GPU/GPUTracking/DataCompression\l/GPUTPCCompressionTrackModel.h">
<polygon fill="none" stroke="#000000" points="1166,-267.5 1166,-319.5 1361,-319.5 1361,-267.5 1166,-267.5"/>
<text text-anchor="start" x="1174" y="-307.5" font-family="Helvetica,sans-Serif" font-size="10.00" fill="#000000">/home/travis/build</text>
<text text-anchor="start" x="1174" y="-296.5" font-family="Helvetica,sans-Serif" font-size="10.00" fill="#000000">/AliceO2Group/AliceO2</text>
<text text-anchor="start" x="1174" y="-285.5" font-family="Helvetica,sans-Serif" font-size="10.00" fill="#000000">/GPU/GPUTracking/DataCompression</text>
<text text-anchor="middle" x="1263.5" y="-274.5" font-family="Helvetica,sans-Serif" font-size="10.00" fill="#000000">/GPUTPCCompressionTrackModel.h</text>
</a>
</g>
</g>
<!-- Node23&#45;&gt;Node25 -->
<g id="edge6" class="edge">
<title>Node23&#45;&gt;Node25</title>
<path fill="none" stroke="#191970" d="M744.0013,-375.2205C842.4893,-365.7317 1012.9857,-347.0875 1157.5,-320 1160.2967,-319.4758 1163.1295,-318.922 1165.9847,-318.344"/>
<polygon fill="#191970" stroke="#191970" points="743.4416,-371.758 733.8199,-376.1935 744.1075,-378.7262 743.4416,-371.758"/>
</g>
<!-- Node23&#45;&gt;Node29 -->
<g id="edge10" class="edge">
<title>Node23&#45;&gt;Node29</title>
<path fill="none" stroke="#191970" d="M581.156,-373.8949C498.0985,-364.2173 365.7815,-346.3306 253.5,-320 250.5546,-319.3093 247.5629,-318.5648 244.55,-317.7791"/>
<polygon fill="#191970" stroke="#191970" points="580.9515,-377.3944 591.2867,-375.063 581.7534,-370.4405 580.9515,-377.3944"/>
</g>
<!-- Node23&#45;&gt;Node30 -->
<g id="edge12" class="edge">
<title>Node23&#45;&gt;Node30</title>
<path fill="none" stroke="#191970" d="M581.7086,-362.3667C535.2798,-350.5484 475.9454,-335.0239 423.5,-320 420.6766,-319.1912 417.8042,-318.3565 414.9054,-317.5041"/>
<polygon fill="#191970" stroke="#191970" points="580.8592,-365.762 591.4131,-364.8308 582.582,-358.9773 580.8592,-365.762"/>
</g>
<!-- Node31 -->
<g id="node13" class="node">
<title>Node31</title>
<g id="a_node13"><a xlink:href="../../df/d2b/GPUTrackingRefit_8cxx.html" target="_top" xlink:title="/home/travis/build\l/AliceO2Group/AliceO2\l/GPU/GPUTracking/Refit\l/GPUTrackingRefit.cxx">
<polygon fill="none" stroke="#000000" points="432.5,-267.5 432.5,-319.5 562.5,-319.5 562.5,-267.5 432.5,-267.5"/>
<text text-anchor="start" x="440.5" y="-307.5" font-family="Helvetica,sans-Serif" font-size="10.00" fill="#000000">/home/travis/build</text>
<text text-anchor="start" x="440.5" y="-296.5" font-family="Helvetica,sans-Serif" font-size="10.00" fill="#000000">/AliceO2Group/AliceO2</text>
<text text-anchor="start" x="440.5" y="-285.5" font-family="Helvetica,sans-Serif" font-size="10.00" fill="#000000">/GPU/GPUTracking/Refit</text>
<text text-anchor="middle" x="497.5" y="-274.5" font-family="Helvetica,sans-Serif" font-size="10.00" fill="#000000">/GPUTrackingRefit.cxx</text>
</a>
</g>
</g>
<!-- Node23&#45;&gt;Node31 -->
<g id="edge14" class="edge">
<title>Node23&#45;&gt;Node31</title>
<path fill="none" stroke="#191970" d="M604.8863,-351.4235C585.5844,-341.0122 564.2772,-329.5192 545.7656,-319.5341"/>
<polygon fill="#191970" stroke="#191970" points="603.4241,-354.6115 613.887,-356.2784 606.7473,-348.4506 603.4241,-354.6115"/>
</g>
<!-- Node23&#45;&gt;Node32 -->
<g id="edge15" class="edge">
<title>Node23&#45;&gt;Node32</title>
<path fill="none" stroke="#191970" d="M743.8799,-377.3542C903.4841,-366.9263 1252.3108,-342.3872 1370.5,-320 1373.2206,-319.4847 1375.9768,-318.9209 1378.7518,-318.3174"/>
<polygon fill="#191970" stroke="#191970" points="743.3966,-373.8782 733.6451,-378.0205 743.8514,-380.8634 743.3966,-373.8782"/>
</g>
<!-- Node33 -->
<g id="node15" class="node">
<title>Node33</title>
<g id="a_node15"><a xlink:href="../../de/ddc/GPUQA_8cxx.html" target="_top" xlink:title="/home/travis/build\l/AliceO2Group/AliceO2\l/GPU/GPUTracking/Standalone\l/qa/GPUQA.cxx">
<polygon fill="none" stroke="#000000" points="581,-267.5 581,-319.5 744,-319.5 744,-267.5 581,-267.5"/>
<text text-anchor="start" x="589" y="-307.5" font-family="Helvetica,sans-Serif" font-size="10.00" fill="#000000">/home/travis/build</text>
<text text-anchor="start" x="589" y="-296.5" font-family="Helvetica,sans-Serif" font-size="10.00" fill="#000000">/AliceO2Group/AliceO2</text>
<text text-anchor="start" x="589" y="-285.5" font-family="Helvetica,sans-Serif" font-size="10.00" fill="#000000">/GPU/GPUTracking/Standalone</text>
<text text-anchor="middle" x="662.5" y="-274.5" font-family="Helvetica,sans-Serif" font-size="10.00" fill="#000000">/qa/GPUQA.cxx</text>
</a>
</g>
</g>
<!-- Node23&#45;&gt;Node33 -->
<g id="edge16" class="edge">
<title>Node23&#45;&gt;Node33</title>
<path fill="none" stroke="#191970" d="M662.5,-346.1155C662.5,-337.2061 662.5,-327.8475 662.5,-319.5341"/>
<polygon fill="#191970" stroke="#191970" points="659.0001,-346.2784 662.5,-356.2784 666.0001,-346.2785 659.0001,-346.2784"/>
</g>
<!-- Node34 -->
<g id="node16" class="node">
<title>Node34</title>
<g id="a_node16"><a xlink:href="../../df/d77/GPUTRDInterfaces_8h.html" target="_top" xlink:title="/home/travis/build\l/AliceO2Group/AliceO2\l/GPU/GPUTracking/TRDTracking\l/GPUTRDInterfaces.h">
<polygon fill="none" stroke="#000000" points="762,-267.5 762,-319.5 931,-319.5 931,-267.5 762,-267.5"/>
<text text-anchor="start" x="770" y="-307.5" font-family="Helvetica,sans-Serif" font-size="10.00" fill="#000000">/home/travis/build</text>
<text text-anchor="start" x="770" y="-296.5" font-family="Helvetica,sans-Serif" font-size="10.00" fill="#000000">/AliceO2Group/AliceO2</text>
<text text-anchor="start" x="770" y="-285.5" font-family="Helvetica,sans-Serif" font-size="10.00" fill="#000000">/GPU/GPUTracking/TRDTracking</text>
<text text-anchor="middle" x="846.5" y="-274.5" font-family="Helvetica,sans-Serif" font-size="10.00" fill="#000000">/GPUTRDInterfaces.h</text>
</a>
</g>
</g>
<!-- Node23&#45;&gt;Node34 -->
<g id="edge17" class="edge">
<title>Node23&#45;&gt;Node34</title>
<path fill="none" stroke="#191970" d="M725.8727,-351.8469C747.6269,-341.3245 771.753,-329.6548 792.6766,-319.5341"/>
<polygon fill="#191970" stroke="#191970" points="724.1891,-348.7733 716.7109,-356.2784 727.2371,-355.0748 724.1891,-348.7733"/>
</g>
<!-- Node26 -->
<g id="node8" class="node">
<title>Node26</title>
<g id="a_node8"><a xlink:href="../../d9/d57/GPUTPCCompressionKernels_8cxx.html" target="_top" xlink:title="/home/travis/build\l/AliceO2Group/AliceO2\l/GPU/GPUTracking/DataCompression\l/GPUTPCCompressionKernels.cxx">
<polygon fill="none" stroke="#000000" points="951,-178.5 951,-230.5 1146,-230.5 1146,-178.5 951,-178.5"/>
<text text-anchor="start" x="959" y="-218.5" font-family="Helvetica,sans-Serif" font-size="10.00" fill="#000000">/home/travis/build</text>
<text text-anchor="start" x="959" y="-207.5" font-family="Helvetica,sans-Serif" font-size="10.00" fill="#000000">/AliceO2Group/AliceO2</text>
<text text-anchor="start" x="959" y="-196.5" font-family="Helvetica,sans-Serif" font-size="10.00" fill="#000000">/GPU/GPUTracking/DataCompression</text>
<text text-anchor="middle" x="1048.5" y="-185.5" font-family="Helvetica,sans-Serif" font-size="10.00" fill="#000000">/GPUTPCCompressionKernels.cxx</text>
</a>
</g>
</g>
<!-- Node25&#45;&gt;Node26 -->
<g id="edge7" class="edge">
<title>Node25&#45;&gt;Node26</title>
<path fill="none" stroke="#191970" d="M1191.0947,-263.5276C1165.3071,-252.8527 1136.4933,-240.9251 1111.5532,-230.6011"/>
<polygon fill="#191970" stroke="#191970" points="1189.8673,-266.8075 1200.4456,-267.3984 1192.5447,-260.3397 1189.8673,-266.8075"/>
</g>
<!-- Node27 -->
<g id="node9" class="node">
<title>Node27</title>
<g id="a_node9"><a xlink:href="../../db/da8/GPUTPCCompressionTrackModel_8cxx.html" target="_top" xlink:title="/home/travis/build\l/AliceO2Group/AliceO2\l/GPU/GPUTracking/DataCompression\l/GPUTPCCompressionTrackModel.cxx">
<polygon fill="none" stroke="#000000" points="1164.5,-178.5 1164.5,-230.5 1362.5,-230.5 1362.5,-178.5 1164.5,-178.5"/>
<text text-anchor="start" x="1172.5" y="-218.5" font-family="Helvetica,sans-Serif" font-size="10.00" fill="#000000">/home/travis/build</text>
<text text-anchor="start" x="1172.5" y="-207.5" font-family="Helvetica,sans-Serif" font-size="10.00" fill="#000000">/AliceO2Group/AliceO2</text>
<text text-anchor="start" x="1172.5" y="-196.5" font-family="Helvetica,sans-Serif" font-size="10.00" fill="#000000">/GPU/GPUTracking/DataCompression</text>
<text text-anchor="middle" x="1263.5" y="-185.5" font-family="Helvetica,sans-Serif" font-size="10.00" fill="#000000">/GPUTPCCompressionTrackModel.cxx</text>
</a>
</g>
</g>
<!-- Node25&#45;&gt;Node27 -->
<g id="edge8" class="edge">
<title>Node25&#45;&gt;Node27</title>
<path fill="none" stroke="#191970" d="M1263.5,-257.1155C1263.5,-248.2061 1263.5,-238.8475 1263.5,-230.5341"/>
<polygon fill="#191970" stroke="#191970" points="1260.0001,-257.2784 1263.5,-267.2784 1267.0001,-257.2785 1260.0001,-257.2784"/>
</g>
<!-- Node28 -->
<g id="node10" class="node">
<title>Node28</title>
<g id="a_node10"><a xlink:href="../../dc/df2/TPCClusterDecompressor_8cxx.html" target="_top" xlink:title="/home/travis/build\l/AliceO2Group/AliceO2\l/GPU/GPUTracking/DataCompression\l/TPCClusterDecompressor.cxx">
<polygon fill="none" stroke="#000000" points="1381,-178.5 1381,-230.5 1576,-230.5 1576,-178.5 1381,-178.5"/>
<text text-anchor="start" x="1389" y="-218.5" font-family="Helvetica,sans-Serif" font-size="10.00" fill="#000000">/home/travis/build</text>
<text text-anchor="start" x="1389" y="-207.5" font-family="Helvetica,sans-Serif" font-size="10.00" fill="#000000">/AliceO2Group/AliceO2</text>
<text text-anchor="start" x="1389" y="-196.5" font-family="Helvetica,sans-Serif" font-size="10.00" fill="#000000">/GPU/GPUTracking/DataCompression</text>
<text text-anchor="middle" x="1478.5" y="-185.5" font-family="Helvetica,sans-Serif" font-size="10.00" fill="#000000">/TPCClusterDecompressor.cxx</text>
</a>
</g>
</g>
<!-- Node25&#45;&gt;Node28 -->
<g id="edge9" class="edge">
<title>Node25&#45;&gt;Node28</title>
<path fill="none" stroke="#191970" d="M1335.9053,-263.5276C1361.6929,-252.8527 1390.5067,-240.9251 1415.4468,-230.6011"/>
<polygon fill="#191970" stroke="#191970" points="1334.4553,-260.3397 1326.5544,-267.3984 1337.1327,-266.8075 1334.4553,-260.3397"/>
</g>
<!-- Node29&#45;&gt;Node21 -->
<g id="edge11" class="edge">
<title>Node29&#45;&gt;Node21</title>
<path fill="none" stroke="#191970" d="M170.5,-257.1155C170.5,-248.2061 170.5,-238.8475 170.5,-230.5341"/>
<polygon fill="#191970" stroke="#191970" points="167.0001,-257.2784 170.5,-267.2784 174.0001,-257.2785 167.0001,-257.2784"/>
</g>
<!-- Node30&#45;&gt;Node21 -->
<g id="edge13" class="edge">
<title>Node30&#45;&gt;Node21</title>
<path fill="none" stroke="#191970" d="M280.1055,-262.5648C260.3823,-252.1162 238.5766,-240.5644 219.6431,-230.5341"/>
<polygon fill="#191970" stroke="#191970" points="278.528,-265.6899 289.0031,-267.2784 281.805,-259.5043 278.528,-265.6899"/>
</g>
<!-- Node35 -->
<g id="node17" class="node">
<title>Node35</title>
<g id="a_node17"><a xlink:href="../../db/dca/GPUTRDTrack_8h.html" target="_top" xlink:title="/home/travis/build\l/AliceO2Group/AliceO2\l/GPU/GPUTracking/TRDTracking\l/GPUTRDTrack.h">
<polygon fill="none" stroke="#000000" points="762,-178.5 762,-230.5 931,-230.5 931,-178.5 762,-178.5"/>
<text text-anchor="start" x="770" y="-218.5" font-family="Helvetica,sans-Serif" font-size="10.00" fill="#000000">/home/travis/build</text>
<text text-anchor="start" x="770" y="-207.5" font-family="Helvetica,sans-Serif" font-size="10.00" fill="#000000">/AliceO2Group/AliceO2</text>
<text text-anchor="start" x="770" y="-196.5" font-family="Helvetica,sans-Serif" font-size="10.00" fill="#000000">/GPU/GPUTracking/TRDTracking</text>
<text text-anchor="middle" x="846.5" y="-185.5" font-family="Helvetica,sans-Serif" font-size="10.00" fill="#000000">/GPUTRDTrack.h</text>
</a>
</g>
</g>
<!-- Node34&#45;&gt;Node35 -->
<g id="edge18" class="edge">
<title>Node34&#45;&gt;Node35</title>
<path fill="none" stroke="#191970" d="M846.5,-257.1155C846.5,-248.2061 846.5,-238.8475 846.5,-230.5341"/>
<polygon fill="#191970" stroke="#191970" points="843.0001,-257.2784 846.5,-267.2784 850.0001,-257.2785 843.0001,-257.2784"/>
</g>
<!-- Node36 -->
<g id="node18" class="node">
<title>Node36</title>
<g id="a_node18"><a xlink:href="../../da/df6/GPUReconstructionCPU_8cxx.html" target="_top" xlink:title="/home/travis/build\l/AliceO2Group/AliceO2\l/GPU/GPUTracking/Base\l/GPUReconstructionCPU.cxx">
<polygon fill="none" stroke="#000000" points="624,-.5 624,-52.5 777,-52.5 777,-.5 624,-.5"/>
<text text-anchor="start" x="632" y="-40.5" font-family="Helvetica,sans-Serif" font-size="10.00" fill="#000000">/home/travis/build</text>
<text text-anchor="start" x="632" y="-29.5" font-family="Helvetica,sans-Serif" font-size="10.00" fill="#000000">/AliceO2Group/AliceO2</text>
<text text-anchor="start" x="632" y="-18.5" font-family="Helvetica,sans-Serif" font-size="10.00" fill="#000000">/GPU/GPUTracking/Base</text>
<text text-anchor="middle" x="700.5" y="-7.5" font-family="Helvetica,sans-Serif" font-size="10.00" fill="#000000">/GPUReconstructionCPU.cxx</text>
</a>
</g>
</g>
<!-- Node35&#45;&gt;Node36 -->
<g id="edge19" class="edge">
<title>Node35&#45;&gt;Node36</title>
<path fill="none" stroke="#191970" d="M752.1545,-183.8283C711.8211,-172.9 671.2828,-158.3616 659.5,-142 639.9778,-114.8915 659.8215,-77.5921 678.0889,-52.7975"/>
<polygon fill="#191970" stroke="#191970" points="751.2737,-187.2156 761.836,-186.3861 753.0618,-180.4478 751.2737,-187.2156"/>
</g>
<!-- Node37 -->
<g id="node19" class="node">
<title>Node37</title>
<g id="a_node19"><a xlink:href="../../d2/d58/GPUChainTracking_8cxx.html" target="_top" xlink:title="/home/travis/build\l/AliceO2Group/AliceO2\l/GPU/GPUTracking/Global\l/GPUChainTracking.cxx">
<polygon fill="none" stroke="#000000" points="982.5,-.5 982.5,-52.5 1122.5,-52.5 1122.5,-.5 982.5,-.5"/>
<text text-anchor="start" x="990.5" y="-40.5" font-family="Helvetica,sans-Serif" font-size="10.00" fill="#000000">/home/travis/build</text>
<text text-anchor="start" x="990.5" y="-29.5" font-family="Helvetica,sans-Serif" font-size="10.00" fill="#000000">/AliceO2Group/AliceO2</text>
<text text-anchor="start" x="990.5" y="-18.5" font-family="Helvetica,sans-Serif" font-size="10.00" fill="#000000">/GPU/GPUTracking/Global</text>
<text text-anchor="middle" x="1052.5" y="-7.5" font-family="Helvetica,sans-Serif" font-size="10.00" fill="#000000">/GPUChainTracking.cxx</text>
</a>
</g>
</g>
<!-- Node35&#45;&gt;Node37 -->
<g id="edge20" class="edge">
<title>Node35&#45;&gt;Node37</title>
<path fill="none" stroke="#191970" d="M940.9814,-177.5935C983.9268,-164.5193 1026.728,-149.9485 1033.5,-142 1054.5864,-117.2501 1056.7367,-78.3204 1055.3841,-52.6036"/>
<polygon fill="#191970" stroke="#191970" points="939.8125,-174.2902 931.2505,-180.5307 941.8353,-180.9916 939.8125,-174.2902"/>
</g>
<!-- Node38 -->
<g id="node20" class="node">
<title>Node38</title>
<g id="a_node20"><a xlink:href="../../d3/d85/GPUChainTrackingIO_8cxx.html" target="_top" xlink:title="/home/travis/build\l/AliceO2Group/AliceO2\l/GPU/GPUTracking/Global\l/GPUChainTrackingIO.cxx">
<polygon fill="none" stroke="#000000" points="1140.5,-.5 1140.5,-52.5 1280.5,-52.5 1280.5,-.5 1140.5,-.5"/>
<text text-anchor="start" x="1148.5" y="-40.5" font-family="Helvetica,sans-Serif" font-size="10.00" fill="#000000">/home/travis/build</text>
<text text-anchor="start" x="1148.5" y="-29.5" font-family="Helvetica,sans-Serif" font-size="10.00" fill="#000000">/AliceO2Group/AliceO2</text>
<text text-anchor="start" x="1148.5" y="-18.5" font-family="Helvetica,sans-Serif" font-size="10.00" fill="#000000">/GPU/GPUTracking/Global</text>
<text text-anchor="middle" x="1210.5" y="-7.5" font-family="Helvetica,sans-Serif" font-size="10.00" fill="#000000">/GPUChainTrackingIO.cxx</text>
</a>
</g>
</g>
<!-- Node35&#45;&gt;Node38 -->
<g id="edge21" class="edge">
<title>Node35&#45;&gt;Node38</title>
<path fill="none" stroke="#191970" d="M940.7881,-178.2417C991.6883,-163.7674 1046.3647,-147.6186 1057.5,-142 1105.1897,-117.9369 1153.2207,-78.647 1182.4197,-52.6819"/>
<polygon fill="#191970" stroke="#191970" points="939.6719,-174.9201 931.0065,-181.0161 941.582,-181.6545 939.6719,-174.9201"/>
</g>
<!-- Node39 -->
<g id="node21" class="node">
<title>Node39</title>
<g id="a_node21"><a xlink:href="../../d0/d7f/GPUTRDTrack_8cxx.html" target="_top" xlink:title="/home/travis/build\l/AliceO2Group/AliceO2\l/GPU/GPUTracking/TRDTracking\l/GPUTRDTrack.cxx">
<polygon fill="none" stroke="#000000" points="669,-89.5 669,-141.5 838,-141.5 838,-89.5 669,-89.5"/>
<text text-anchor="start" x="677" y="-129.5" font-family="Helvetica,sans-Serif" font-size="10.00" fill="#000000">/home/travis/build</text>
<text text-anchor="start" x="677" y="-118.5" font-family="Helvetica,sans-Serif" font-size="10.00" fill="#000000">/AliceO2Group/AliceO2</text>
<text text-anchor="start" x="677" y="-107.5" font-family="Helvetica,sans-Serif" font-size="10.00" fill="#000000">/GPU/GPUTracking/TRDTracking</text>
<text text-anchor="middle" x="753.5" y="-96.5" font-family="Helvetica,sans-Serif" font-size="10.00" fill="#000000">/GPUTRDTrack.cxx</text>
</a>
</g>
</g>
<!-- Node35&#45;&gt;Node39 -->
<g id="edge22" class="edge">
<title>Node35&#45;&gt;Node39</title>
<path fill="none" stroke="#191970" d="M811.7968,-171.2894C801.5246,-161.459 790.4299,-150.8415 780.7042,-141.5341"/>
<polygon fill="#191970" stroke="#191970" points="809.4553,-173.8931 819.0999,-178.2784 814.2951,-168.8357 809.4553,-173.8931"/>
</g>
<!-- Node40 -->
<g id="node22" class="node">
<title>Node40</title>
<g id="a_node22"><a xlink:href="../../dd/d44/GPUTRDTracker_8h.html" target="_top" xlink:title="Online TRD tracker based on extrapolated TPC tracks. ">
<polygon fill="none" stroke="#000000" points="856,-89.5 856,-141.5 1025,-141.5 1025,-89.5 856,-89.5"/>
<text text-anchor="start" x="864" y="-129.5" font-family="Helvetica,sans-Serif" font-size="10.00" fill="#000000">/home/travis/build</text>
<text text-anchor="start" x="864" y="-118.5" font-family="Helvetica,sans-Serif" font-size="10.00" fill="#000000">/AliceO2Group/AliceO2</text>
<text text-anchor="start" x="864" y="-107.5" font-family="Helvetica,sans-Serif" font-size="10.00" fill="#000000">/GPU/GPUTracking/TRDTracking</text>
<text text-anchor="middle" x="940.5" y="-96.5" font-family="Helvetica,sans-Serif" font-size="10.00" fill="#000000">/GPUTRDTracker.h</text>
</a>
</g>
</g>
<!-- Node35&#45;&gt;Node40 -->
<g id="edge23" class="edge">
<title>Node35&#45;&gt;Node40</title>
<path fill="none" stroke="#191970" d="M881.5763,-171.2894C891.959,-161.459 903.173,-150.8415 913.0033,-141.5341"/>
<polygon fill="#191970" stroke="#191970" points="879.0499,-168.8615 874.1947,-178.2784 883.8626,-173.9447 879.0499,-168.8615"/>
</g>
<!-- Node42 -->
<g id="node24" class="node">
<title>Node42</title>
<g id="a_node24"><a xlink:href="../../db/dd1/GPUTRDTrackerComponent_8cxx.html" target="_top" xlink:title="A TRD tracker processing component for the GPU. ">
<polygon fill="none" stroke="#000000" points="433,-.5 433,-52.5 606,-52.5 606,-.5 433,-.5"/>
<text text-anchor="start" x="441" y="-40.5" font-family="Helvetica,sans-Serif" font-size="10.00" fill="#000000">/home/travis/build</text>
<text text-anchor="start" x="441" y="-29.5" font-family="Helvetica,sans-Serif" font-size="10.00" fill="#000000">/AliceO2Group/AliceO2</text>
<text text-anchor="start" x="441" y="-18.5" font-family="Helvetica,sans-Serif" font-size="10.00" fill="#000000">/GPU/GPUTracking/TRDTracking</text>
<text text-anchor="middle" x="519.5" y="-7.5" font-family="Helvetica,sans-Serif" font-size="10.00" fill="#000000">/GPUTRDTrackerComponent.cxx</text>
</a>
</g>
</g>
<!-- Node35&#45;&gt;Node42 -->
<g id="edge29" class="edge">
<title>Node35&#45;&gt;Node42</title>
<path fill="none" stroke="#191970" d="M751.8526,-183.7388C717.6279,-173.956 679.5492,-160.3166 647.5,-142 605.6607,-118.0882 565.8205,-78.5701 542.0132,-52.5331"/>
<polygon fill="#191970" stroke="#191970" points="751.2934,-187.2161 761.8656,-186.5239 753.1693,-180.4721 751.2934,-187.2161"/>
</g>
<!-- Node40&#45;&gt;Node36 -->
<g id="edge24" class="edge">
<title>Node40&#45;&gt;Node36</title>
<path fill="none" stroke="#191970" d="M860.4322,-85.8082C831.454,-75.0621 798.9692,-63.0157 770.885,-52.6011"/>
<polygon fill="#191970" stroke="#191970" points="859.5207,-89.203 870.1137,-89.3984 861.9546,-82.6398 859.5207,-89.203"/>
</g>
<!-- Node40&#45;&gt;Node37 -->
<g id="edge25" class="edge">
<title>Node40&#45;&gt;Node37</title>
<path fill="none" stroke="#191970" d="M981.5736,-82.8612C994.1445,-72.8718 1007.7979,-62.0222 1019.7379,-52.5341"/>
<polygon fill="#191970" stroke="#191970" points="979.1496,-80.3169 973.4979,-89.2784 983.5045,-85.7972 979.1496,-80.3169"/>
</g>
<!-- Node40&#45;&gt;Node38 -->
<g id="edge26" class="edge">
<title>Node40&#45;&gt;Node38</title>
<path fill="none" stroke="#191970" d="M1030.2413,-86.2859C1062.2189,-75.836 1098.4842,-63.9391 1131.5,-53 1134.3838,-52.0445 1137.326,-51.0675 1140.2977,-50.0788"/>
<polygon fill="#191970" stroke="#191970" points="1028.8822,-83.0478 1020.4633,-89.4799 1031.0558,-89.7018 1028.8822,-83.0478"/>
</g>
<!-- Node41 -->
<g id="node23" class="node">
<title>Node41</title>
<g id="a_node23"><a xlink:href="../../d9/d33/GPUTRDTracker_8cxx.html" target="_top" xlink:title="/home/travis/build\l/AliceO2Group/AliceO2\l/GPU/GPUTracking/TRDTracking\l/GPUTRDTracker.cxx">
<polygon fill="none" stroke="#000000" points="795,-.5 795,-52.5 964,-52.5 964,-.5 795,-.5"/>
<text text-anchor="start" x="803" y="-40.5" font-family="Helvetica,sans-Serif" font-size="10.00" fill="#000000">/home/travis/build</text>
<text text-anchor="start" x="803" y="-29.5" font-family="Helvetica,sans-Serif" font-size="10.00" fill="#000000">/AliceO2Group/AliceO2</text>
<text text-anchor="start" x="803" y="-18.5" font-family="Helvetica,sans-Serif" font-size="10.00" fill="#000000">/GPU/GPUTracking/TRDTracking</text>
<text text-anchor="middle" x="879.5" y="-7.5" font-family="Helvetica,sans-Serif" font-size="10.00" fill="#000000">/GPUTRDTracker.cxx</text>
</a>
</g>
</g>
<!-- Node40&#45;&gt;Node41 -->
<g id="edge27" class="edge">
<title>Node40&#45;&gt;Node41</title>
<path fill="none" stroke="#191970" d="M916.7528,-80.8525C910.2956,-71.4313 903.4132,-61.3897 897.3436,-52.5341"/>
<polygon fill="#191970" stroke="#191970" points="913.9874,-83.0086 922.5279,-89.2784 919.7614,-79.0512 913.9874,-83.0086"/>
</g>
<!-- Node40&#45;&gt;Node42 -->
<g id="edge28" class="edge">
<title>Node40&#45;&gt;Node42</title>
<path fill="none" stroke="#191970" d="M845.9344,-88.9976C742.7767,-67.275 713.3998,-74.3889 614.5,-53 611.7386,-52.4028 608.9385,-51.7725 606.1162,-51.1158"/>
<polygon fill="#191970" stroke="#191970" points="845.304,-92.4419 855.8158,-91.1181 846.7727,-85.5978 845.304,-92.4419"/>
</g>
</g>
</svg>
        <g id="navigator" transform="translate(0 0)" fill="#404254">
                <rect fill="#f2f5e9" fill-opacity="0.5" stroke="#606060" stroke-width=".5" x="0" y="0" width="60" height="60"/>
                <use id="zoomplus" xlink:href="#zoomPlus" x="17" y="9" onmousedown="handleZoom(evt,'in')"/>
                <use id="zoomminus" xlink:href="#zoomMin" x="42" y="9" onmousedown="handleZoom(evt,'out')"/>
                <use id="reset" xlink:href="#resetDef" x="30" y="36" onmousedown="handleReset()"/>
                <g id="arrowUp" xlink:href="#dirArrow" transform="translate(30 24)" onmousedown="handlePan(0,-1)">
                  <use xlink:href="#rim" fill="#404040">
                        <set attributeName="fill" to="#808080" begin="arrowUp.mouseover" end="arrowUp.mouseout"/>
                  </use>
                  <path fill="none" stroke="white" stroke-width="1.5" d="M0,-3.0v7 M-2.5,-0.5L0,-3.0L2.5,-0.5"/>
                </g>
                <g id="arrowRight" xlink:href="#dirArrow" transform="rotate(90) translate(36 -43)" onmousedown="handlePan(1,0)">
                  <use xlink:href="#rim" fill="#404040">
                        <set attributeName="fill" to="#808080" begin="arrowRight.mouseover" end="arrowRight.mouseout"/>
                  </use>
                  <path fill="none" stroke="white" stroke-width="1.5" d="M0,-3.0v7 M-2.5,-0.5L0,-3.0L2.5,-0.5"/>
                </g>
                <g id="arrowDown" xlink:href="#dirArrow" transform="rotate(180) translate(-30 -48)" onmousedown="handlePan(0,1)">
                  <use xlink:href="#rim" fill="#404040">
                        <set attributeName="fill" to="#808080" begin="arrowDown.mouseover" end="arrowDown.mouseout"/>
                  </use>
                  <path fill="none" stroke="white" stroke-width="1.5" d="M0,-3.0v7 M-2.5,-0.5L0,-3.0L2.5,-0.5"/>
                </g>
                <g id="arrowLeft" xlink:href="#dirArrow" transform="rotate(270) translate(-36 17)" onmousedown="handlePan(-1,0)">
                  <use xlink:href="#rim" fill="#404040">
                        <set attributeName="fill" to="#808080" begin="arrowLeft.mouseover" end="arrowLeft.mouseout"/>
                  </use>
                  <path fill="none" stroke="white" stroke-width="1.5" d="M0,-3.0v7 M-2.5,-0.5L0,-3.0L2.5,-0.5"/>
                </g>
        </g>
        <svg viewBox="0 0 15 15" width="100%" height="30px" preserveAspectRatio="xMaxYMin meet">
         <g id="arrow_out" transform="scale(0.3 0.3)">
          <a xlink:href="GPUTPCGMPhysicalTrackModel_8h__dep__incl_org.svg" target="_base">
           <rect id="button" ry="5" rx="5" y="6" x="6" height="38" width="38"
                fill="#f2f5e9" fill-opacity="0.5" stroke="#606060" stroke-width="1.0"/>
           <path id="arrow"
             d="M 11.500037,31.436501 C 11.940474,20.09759 22.043105,11.32322 32.158766,21.979434 L 37.068811,17.246167 C 37.068811,17.246167 37.088388,32 37.088388,32 L 22.160133,31.978069 C 22.160133,31.978069 26.997745,27.140456 26.997745,27.140456 C 18.528582,18.264221 13.291696,25.230495 11.500037,31.436501 z"
             style="fill:#404040;"/>
          </a>
         </g>
        </svg>
</svg>
