<?xml version="1.0" encoding="UTF-8" standalone="no"?>
<!DOCTYPE svg PUBLIC "-//W3C//DTD SVG 1.1//EN"
 "http://www.w3.org/Graphics/SVG/1.1/DTD/svg11.dtd">
<!-- Generated by graphviz version 2.40.1 (20161225.0304)
 -->
<!-- Title: /home/travis/build/AliceO2Group/AliceO2/Detectors/MUON/MID/Raw/src/GBTUserLogicEncoder.cxx Pages: 1 -->
<svg width="836pt" height="352pt"
 viewBox="0.00 0.00 835.50 352.00" xmlns="http://www.w3.org/2000/svg" xmlns:xlink="http://www.w3.org/1999/xlink">
<g id="graph0" class="graph" transform="scale(1 1) rotate(0) translate(4 348)">
<title>/home/travis/build/AliceO2Group/AliceO2/Detectors/MUON/MID/Raw/src/GBTUserLogicEncoder.cxx</title>
<!-- Node0 -->
<g id="node1" class="node">
<title>Node0</title>
<polygon fill="#bfbfbf" stroke="#000000" points="431.5,-291.5 431.5,-343.5 595.5,-343.5 595.5,-291.5 431.5,-291.5"/>
<text text-anchor="start" x="439.5" y="-331.5" font-family="Helvetica,sans-Serif" font-size="10.00" fill="#000000">/home/travis/build</text>
<text text-anchor="start" x="439.5" y="-320.5" font-family="Helvetica,sans-Serif" font-size="10.00" fill="#000000">/AliceO2Group/AliceO2</text>
<text text-anchor="start" x="439.5" y="-309.5" font-family="Helvetica,sans-Serif" font-size="10.00" fill="#000000">/Detectors/MUON/MID/Raw</text>
<text text-anchor="middle" x="513.5" y="-298.5" font-family="Helvetica,sans-Serif" font-size="10.00" fill="#000000">/src/GBTUserLogicEncoder.cxx</text>
</g>
<!-- Node1 -->
<g id="node2" class="node">
<title>Node1</title>
<g id="a_node2"><a xlink:href="../../d8/d2e/GBTUserLogicEncoder_8h.html" target="_top" xlink:title="Raw data encoder for MID GBT user logic. ">
<polygon fill="none" stroke="#000000" points="305,-235.5 305,-254.5 480,-254.5 480,-235.5 305,-235.5"/>
<text text-anchor="middle" x="392.5" y="-242.5" font-family="Helvetica,sans-Serif" font-size="10.00" fill="#000000">MIDRaw/GBTUserLogicEncoder.h</text>
</a>
</g>
</g>
<!-- Node0&#45;&gt;Node1 -->
<g id="edge1" class="edge">
<title>Node0&#45;&gt;Node1</title>
<path fill="none" stroke="#191970" d="M469.8162,-291.3258C452.1017,-280.7118 432.2978,-268.8458 417.1679,-259.7804"/>
<polygon fill="#191970" stroke="#191970" points="418.7889,-256.6715 408.4119,-254.534 415.1911,-262.6761 418.7889,-256.6715"/>
</g>
<!-- Node16 -->
<g id="node17" class="node">
<title>Node16</title>
<g id="a_node17"><a xlink:href="../../d2/da5/CrateParameters_8h.html" target="_top" xlink:title="MID RO crate parameters. ">
<polygon fill="none" stroke="#000000" points="677.5,-118 677.5,-137 827.5,-137 827.5,-118 677.5,-118"/>
<text text-anchor="middle" x="752.5" y="-125" font-family="Helvetica,sans-Serif" font-size="10.00" fill="#000000">MIDRaw/CrateParameters.h</text>
</a>
</g>
</g>
<!-- Node0&#45;&gt;Node16 -->
<g id="edge20" class="edge">
<title>Node0&#45;&gt;Node16</title>
<path fill="none" stroke="#191970" d="M546.2308,-291.4797C596.479,-251.5335 691.1354,-176.2836 732.4075,-143.4731"/>
<polygon fill="#191970" stroke="#191970" points="734.7192,-146.1066 740.369,-137.1439 730.3632,-140.6271 734.7192,-146.1066"/>
</g>
<!-- Node2 -->
<g id="node3" class="node">
<title>Node2</title>
<polygon fill="none" stroke="#bfbfbf" points="484.5,-56.5 484.5,-75.5 534.5,-75.5 534.5,-56.5 484.5,-56.5"/>
<text text-anchor="middle" x="509.5" y="-63.5" font-family="Helvetica,sans-Serif" font-size="10.00" fill="#000000">cstdint</text>
</g>
<!-- Node1&#45;&gt;Node2 -->
<g id="edge2" class="edge">
<title>Node1&#45;&gt;Node2</title>
<path fill="none" stroke="#191970" d="M389.7013,-235.1985C383.5735,-211.5379 371.5627,-150.4182 398.5,-112 407.6594,-98.9369 445.5031,-85.0613 474.4822,-76.0082"/>
<polygon fill="#191970" stroke="#191970" points="475.7556,-79.2791 484.3012,-73.0163 473.7152,-72.5831 475.7556,-79.2791"/>
</g>
<!-- Node3 -->
<g id="node4" class="node">
<title>Node3</title>
<polygon fill="none" stroke="#bfbfbf" points="251,-179.5 251,-198.5 298,-198.5 298,-179.5 251,-179.5"/>
<text text-anchor="middle" x="274.5" y="-186.5" font-family="Helvetica,sans-Serif" font-size="10.00" fill="#000000">vector</text>
</g>
<!-- Node1&#45;&gt;Node3 -->
<g id="edge3" class="edge">
<title>Node1&#45;&gt;Node3</title>
<path fill="none" stroke="#191970" d="M372.2151,-235.3733C353.3579,-226.4241 325.054,-212.9917 303.7545,-202.8835"/>
<polygon fill="#191970" stroke="#191970" points="305.0551,-199.6266 294.5202,-198.5011 302.0539,-205.9506 305.0551,-199.6266"/>
</g>
<!-- Node4 -->
<g id="node5" class="node">
<title>Node4</title>
<polygon fill="none" stroke="#bfbfbf" points="316.5,-179.5 316.5,-198.5 364.5,-198.5 364.5,-179.5 316.5,-179.5"/>
<text text-anchor="middle" x="340.5" y="-186.5" font-family="Helvetica,sans-Serif" font-size="10.00" fill="#000000">gsl/gsl</text>
</g>
<!-- Node1&#45;&gt;Node4 -->
<g id="edge4" class="edge">
<title>Node1&#45;&gt;Node4</title>
<path fill="none" stroke="#191970" d="M383.4423,-235.2455C375.9858,-227.2155 365.2366,-215.6394 356.3583,-206.0781"/>
<polygon fill="#191970" stroke="#191970" points="358.8232,-203.589 349.4539,-198.6427 353.6937,-208.3522 358.8232,-203.589"/>
</g>
<!-- Node5 -->
<g id="node6" class="node">
<title>Node5</title>
<g id="a_node6"><a xlink:href="../../d2/df9/MUON_2MID_2include_2DataFormatsMID_2ROFRecord_8h.html" target="_top" xlink:title="Definition of the MID event record. ">
<polygon fill="none" stroke="#000000" points="70,-179.5 70,-198.5 233,-198.5 233,-179.5 70,-179.5"/>
<text text-anchor="middle" x="151.5" y="-186.5" font-family="Helvetica,sans-Serif" font-size="10.00" fill="#000000">DataFormatsMID/ROFRecord.h</text>
</a>
</g>
</g>
<!-- Node1&#45;&gt;Node5 -->
<g id="edge5" class="edge">
<title>Node1&#45;&gt;Node5</title>
<path fill="none" stroke="#191970" d="M351.3445,-235.4369C310.1858,-225.8731 246.795,-211.1432 202.4758,-200.845"/>
<polygon fill="#191970" stroke="#191970" points="203.0185,-197.3779 192.4858,-198.5237 201.4341,-204.1963 203.0185,-197.3779"/>
</g>
<!-- Node12 -->
<g id="node13" class="node">
<title>Node12</title>
<g id="a_node13"><a xlink:href="../../d8/de7/ElectronicsDelay_8h.html" target="_top" xlink:title="Delay parameters for MID electronics. ">
<polygon fill="none" stroke="#000000" points="497,-179.5 497,-198.5 646,-198.5 646,-179.5 497,-179.5"/>
<text text-anchor="middle" x="571.5" y="-186.5" font-family="Helvetica,sans-Serif" font-size="10.00" fill="#000000">MIDRaw/ElectronicsDelay.h</text>
</a>
</g>
</g>
<!-- Node1&#45;&gt;Node12 -->
<g id="edge13" class="edge">
<title>Node1&#45;&gt;Node12</title>
<path fill="none" stroke="#191970" d="M423.2712,-235.3733C453.165,-226.021 498.7093,-211.7725 531.4217,-201.5385"/>
<polygon fill="#191970" stroke="#191970" points="532.6315,-204.8273 541.1303,-198.5011 530.5414,-198.1466 532.6315,-204.8273"/>
</g>
<!-- Node14 -->
<g id="node15" class="node">
<title>Node14</title>
<g id="a_node15"><a xlink:href="../../d3/d4a/LocalBoardRO_8h.html" target="_top" xlink:title="Structure to store the FEE local board information. ">
<polygon fill="none" stroke="#000000" points="407.5,-118 407.5,-137 543.5,-137 543.5,-118 407.5,-118"/>
<text text-anchor="middle" x="475.5" y="-125" font-family="Helvetica,sans-Serif" font-size="10.00" fill="#000000">MIDRaw/LocalBoardRO.h</text>
</a>
</g>
</g>
<!-- Node1&#45;&gt;Node14 -->
<g id="edge16" class="edge">
<title>Node1&#45;&gt;Node14</title>
<path fill="none" stroke="#191970" d="M399.2922,-235.3845C413.1539,-215.761 444.8942,-170.8274 462.7306,-145.5772"/>
<polygon fill="#191970" stroke="#191970" points="465.703,-147.4355 468.6139,-137.2484 459.9856,-143.3968 465.703,-147.4355"/>
</g>
<!-- Node6 -->
<g id="node7" class="node">
<title>Node6</title>
<g id="a_node7"><a xlink:href="../../d9/d80/InteractionRecord_8h.html" target="_top" xlink:title="CommonDataFormat/Interaction\lRecord.h">
<polygon fill="none" stroke="#000000" points="111.5,-112.5 111.5,-142.5 285.5,-142.5 285.5,-112.5 111.5,-112.5"/>
<text text-anchor="start" x="119.5" y="-130.5" font-family="Helvetica,sans-Serif" font-size="10.00" fill="#000000">CommonDataFormat/Interaction</text>
<text text-anchor="middle" x="198.5" y="-119.5" font-family="Helvetica,sans-Serif" font-size="10.00" fill="#000000">Record.h</text>
</a>
</g>
</g>
<!-- Node5&#45;&gt;Node6 -->
<g id="edge6" class="edge">
<title>Node5&#45;&gt;Node6</title>
<path fill="none" stroke="#191970" d="M158.8438,-179.3906C164.7335,-171.6839 173.2473,-160.5434 180.8778,-150.5589"/>
<polygon fill="#191970" stroke="#191970" points="183.7113,-152.6153 187.0025,-142.5446 178.1495,-148.3648 183.7113,-152.6153"/>
</g>
<!-- Node6&#45;&gt;Node2 -->
<g id="edge10" class="edge">
<title>Node6&#45;&gt;Node2</title>
<path fill="none" stroke="#191970" d="M285.6435,-113.3954C340.1797,-104.0366 411.7545,-90.7832 474.5,-76 474.6,-75.9764 474.7001,-75.9528 474.8003,-75.929"/>
<polygon fill="#191970" stroke="#191970" points="475.5154,-79.3588 484.339,-73.4942 473.784,-72.5763 475.5154,-79.3588"/>
</g>
<!-- Node7 -->
<g id="node8" class="node">
<title>Node7</title>
<g id="a_node8"><a xlink:href="../../d2/d45/GPUCommonRtypes_8h.html" target="_top" xlink:title="GPUCommonRtypes.h">
<polygon fill="none" stroke="#000000" points="0,-56.5 0,-75.5 125,-75.5 125,-56.5 0,-56.5"/>
<text text-anchor="middle" x="62.5" y="-63.5" font-family="Helvetica,sans-Serif" font-size="10.00" fill="#000000">GPUCommonRtypes.h</text>
</a>
</g>
</g>
<!-- Node6&#45;&gt;Node7 -->
<g id="edge7" class="edge">
<title>Node6&#45;&gt;Node7</title>
<path fill="none" stroke="#191970" d="M165.2307,-112.4554C143.1359,-102.464 114.354,-89.4487 92.8781,-79.7372"/>
<polygon fill="#191970" stroke="#191970" points="94.129,-76.4616 83.5752,-75.5303 91.2447,-82.8398 94.129,-76.4616"/>
</g>
<!-- Node9 -->
<g id="node10" class="node">
<title>Node9</title>
<polygon fill="none" stroke="#bfbfbf" points="417,-56.5 417,-75.5 466,-75.5 466,-56.5 417,-56.5"/>
<text text-anchor="middle" x="441.5" y="-63.5" font-family="Helvetica,sans-Serif" font-size="10.00" fill="#000000">iosfwd</text>
</g>
<!-- Node6&#45;&gt;Node9 -->
<g id="edge9" class="edge">
<title>Node6&#45;&gt;Node9</title>
<path fill="none" stroke="#191970" d="M262.7198,-112.4565C301.8124,-103.1175 352.9701,-90.5761 406.9098,-76.0784"/>
<polygon fill="#191970" stroke="#191970" points="407.9125,-79.4331 416.6537,-73.4462 406.0869,-72.6753 407.9125,-79.4331"/>
</g>
<!-- Node10 -->
<g id="node11" class="node">
<title>Node10</title>
<polygon fill="none" stroke="#bfbfbf" points="143,-56.5 143,-75.5 190,-75.5 190,-56.5 143,-56.5"/>
<text text-anchor="middle" x="166.5" y="-63.5" font-family="Helvetica,sans-Serif" font-size="10.00" fill="#000000">cmath</text>
</g>
<!-- Node6&#45;&gt;Node10 -->
<g id="edge11" class="edge">
<title>Node6&#45;&gt;Node10</title>
<path fill="none" stroke="#191970" d="M190.5899,-112.2977C186.2868,-104.0277 180.9242,-93.7215 176.3518,-84.9339"/>
<polygon fill="#191970" stroke="#191970" points="179.3443,-83.1024 171.6236,-75.8469 173.1346,-86.3335 179.3443,-83.1024"/>
</g>
<!-- Node11 -->
<g id="node12" class="node">
<title>Node11</title>
<g id="a_node12"><a xlink:href="../../d4/dc6/LHCConstants_8h.html" target="_top" xlink:title="Header to collect LHC related constants. ">
<polygon fill="none" stroke="#000000" points="208.5,-56.5 208.5,-75.5 398.5,-75.5 398.5,-56.5 208.5,-56.5"/>
<text text-anchor="middle" x="303.5" y="-63.5" font-family="Helvetica,sans-Serif" font-size="10.00" fill="#000000">CommonConstants/LHCConstants.h</text>
</a>
</g>
</g>
<!-- Node6&#45;&gt;Node11 -->
<g id="edge12" class="edge">
<title>Node6&#45;&gt;Node11</title>
<path fill="none" stroke="#191970" d="M224.1859,-112.4554C240.6297,-102.8241 261.8708,-90.3828 278.2323,-80.7996"/>
<polygon fill="#191970" stroke="#191970" points="280.3688,-83.6045 287.2287,-75.5303 276.831,-77.5643 280.3688,-83.6045"/>
</g>
<!-- Node8 -->
<g id="node9" class="node">
<title>Node8</title>
<polygon fill="none" stroke="#bfbfbf" points="33,-.5 33,-19.5 92,-19.5 92,-.5 33,-.5"/>
<text text-anchor="middle" x="62.5" y="-7.5" font-family="Helvetica,sans-Serif" font-size="10.00" fill="#000000">Rtypes.h</text>
</g>
<!-- Node7&#45;&gt;Node8 -->
<g id="edge8" class="edge">
<title>Node7&#45;&gt;Node8</title>
<path fill="none" stroke="#191970" d="M62.5,-56.2455C62.5,-48.9382 62.5,-38.6944 62.5,-29.7046"/>
<polygon fill="#191970" stroke="#191970" points="66.0001,-29.6426 62.5,-19.6427 59.0001,-29.6427 66.0001,-29.6426"/>
</g>
<!-- Node12&#45;&gt;Node2 -->
<g id="edge14" class="edge">
<title>Node12&#45;&gt;Node2</title>
<path fill="none" stroke="#191970" d="M570.7021,-179.4389C569.1078,-164.3064 564.5753,-134.2722 552.5,-112 546.5772,-101.0757 537.4362,-90.7833 529.1027,-82.7156"/>
<polygon fill="#191970" stroke="#191970" points="531.2209,-79.9085 521.4917,-75.7141 526.4817,-85.0603 531.2209,-79.9085"/>
</g>
<!-- Node13 -->
<g id="node14" class="node">
<title>Node13</title>
<polygon fill="none" stroke="#bfbfbf" points="599.5,-118 599.5,-137 659.5,-137 659.5,-118 599.5,-118"/>
<text text-anchor="middle" x="629.5" y="-125" font-family="Helvetica,sans-Serif" font-size="10.00" fill="#000000">iostream</text>
</g>
<!-- Node12&#45;&gt;Node13 -->
<g id="edge15" class="edge">
<title>Node12&#45;&gt;Node13</title>
<path fill="none" stroke="#191970" d="M580.5625,-179.3906C589.2793,-170.1478 602.654,-155.966 613.2196,-144.7628"/>
<polygon fill="#191970" stroke="#191970" points="615.995,-146.9213 620.3097,-137.2449 610.9024,-142.1186 615.995,-146.9213"/>
</g>
<!-- Node14&#45;&gt;Node2 -->
<g id="edge17" class="edge">
<title>Node14&#45;&gt;Node2</title>
<path fill="none" stroke="#191970" d="M480.8125,-117.8906C485.7239,-109.0068 493.1579,-95.5601 499.2275,-84.5811"/>
<polygon fill="#191970" stroke="#191970" points="502.3373,-86.1899 504.1126,-75.7449 496.2112,-82.8031 502.3373,-86.1899"/>
</g>
<!-- Node14&#45;&gt;Node9 -->
<g id="edge19" class="edge">
<title>Node14&#45;&gt;Node9</title>
<path fill="none" stroke="#191970" d="M470.1875,-117.8906C465.2761,-109.0068 457.8421,-95.5601 451.7725,-84.5811"/>
<polygon fill="#191970" stroke="#191970" points="454.7888,-82.8031 446.8874,-75.7449 448.6627,-86.1899 454.7888,-82.8031"/>
</g>
<!-- Node15 -->
<g id="node16" class="node">
<title>Node15</title>
<polygon fill="none" stroke="#bfbfbf" points="642.5,-56.5 642.5,-75.5 684.5,-75.5 684.5,-56.5 642.5,-56.5"/>
<text text-anchor="middle" x="663.5" y="-63.5" font-family="Helvetica,sans-Serif" font-size="10.00" fill="#000000">array</text>
</g>
<!-- Node14&#45;&gt;Node15 -->
<g id="edge18" class="edge">
<title>Node14&#45;&gt;Node15</title>
<path fill="none" stroke="#191970" d="M504.875,-117.8906C539.6525,-106.5139 597.3042,-87.6545 632.6949,-76.0772"/>
<polygon fill="#191970" stroke="#191970" points="634.0651,-79.3116 642.4812,-72.8758 631.8886,-72.6585 634.0651,-79.3116"/>
</g>
<!-- Node16&#45;&gt;Node2 -->
<g id="edge21" class="edge">
<title>Node16&#45;&gt;Node2</title>
<path fill="none" stroke="#191970" d="M714.7979,-117.9581C668.296,-106.1891 589.8636,-86.3389 544.5946,-74.882"/>
<polygon fill="#191970" stroke="#191970" points="545.2035,-71.4258 534.6504,-72.3652 543.486,-78.2118 545.2035,-71.4258"/>
</g>
<!-- Node16&#45;&gt;Node15 -->
<g id="edge22" class="edge">
<title>Node16&#45;&gt;Node15</title>
<path fill="none" stroke="#191970" d="M738.5938,-117.8906C724.4862,-108.1421 702.4276,-92.8994 685.8615,-81.4521"/>
<polygon fill="#191970" stroke="#191970" points="687.5253,-78.3474 677.3086,-75.5419 683.5458,-84.1063 687.5253,-78.3474"/>
</g>
</g>
</svg>
