<?xml version="1.0" encoding="UTF-8" standalone="no"?>
<!DOCTYPE svg PUBLIC "-//W3C//DTD SVG 1.1//EN"
 "http://www.w3.org/Graphics/SVG/1.1/DTD/svg11.dtd">
<!-- Generated by graphviz version 2.40.1 (20161225.0304)
 -->
<!-- Title: /home/travis/build/AliceO2Group/AliceO2/GPU/GPUTracking/Merger/GPUTPCGMOfflineStatisticalErrors.h Pages: 1 -->
<svg width="1872pt" height="506pt"
 viewBox="0.00 0.00 1871.50 506.00" xmlns="http://www.w3.org/2000/svg" xmlns:xlink="http://www.w3.org/1999/xlink">
<g id="graph0" class="graph" transform="scale(1 1) rotate(0) translate(4 502)">
<title>/home/travis/build/AliceO2Group/AliceO2/GPU/GPUTracking/Merger/GPUTPCGMOfflineStatisticalErrors.h</title>
<!-- Node1 -->
<g id="node1" class="node">
<title>Node1</title>
<polygon fill="#bfbfbf" stroke="#000000" points="722.5,-445.5 722.5,-497.5 916.5,-497.5 916.5,-445.5 722.5,-445.5"/>
<text text-anchor="start" x="730.5" y="-485.5" font-family="Helvetica,sans-Serif" font-size="10.00" fill="#000000">/home/travis/build</text>
<text text-anchor="start" x="730.5" y="-474.5" font-family="Helvetica,sans-Serif" font-size="10.00" fill="#000000">/AliceO2Group/AliceO2</text>
<text text-anchor="start" x="730.5" y="-463.5" font-family="Helvetica,sans-Serif" font-size="10.00" fill="#000000">/GPU/GPUTracking/Merger</text>
<text text-anchor="middle" x="819.5" y="-452.5" font-family="Helvetica,sans-Serif" font-size="10.00" fill="#000000">/GPUTPCGMOfflineStatisticalErrors.h</text>
</g>
<!-- Node2 -->
<g id="node2" class="node">
<title>Node2</title>
<g id="a_node2"><a xlink:href="../../d0/dd8/GPUTPCGMPropagator_8h.html" target="_top" xlink:title="/home/travis/build\l/AliceO2Group/AliceO2\l/GPU/GPUTracking/Merger\l/GPUTPCGMPropagator.h">
<polygon fill="none" stroke="#000000" points="748.5,-356.5 748.5,-408.5 890.5,-408.5 890.5,-356.5 748.5,-356.5"/>
<text text-anchor="start" x="756.5" y="-396.5" font-family="Helvetica,sans-Serif" font-size="10.00" fill="#000000">/home/travis/build</text>
<text text-anchor="start" x="756.5" y="-385.5" font-family="Helvetica,sans-Serif" font-size="10.00" fill="#000000">/AliceO2Group/AliceO2</text>
<text text-anchor="start" x="756.5" y="-374.5" font-family="Helvetica,sans-Serif" font-size="10.00" fill="#000000">/GPU/GPUTracking/Merger</text>
<text text-anchor="middle" x="819.5" y="-363.5" font-family="Helvetica,sans-Serif" font-size="10.00" fill="#000000">/GPUTPCGMPropagator.h</text>
</a>
</g>
</g>
<!-- Node1&#45;&gt;Node2 -->
<g id="edge1" class="edge">
<title>Node1&#45;&gt;Node2</title>
<path fill="none" stroke="#191970" d="M819.5,-435.1155C819.5,-426.2061 819.5,-416.8475 819.5,-408.5341"/>
<polygon fill="#191970" stroke="#191970" points="816.0001,-435.2784 819.5,-445.2784 823.0001,-435.2785 816.0001,-435.2784"/>
</g>
<!-- Node3 -->
<g id="node3" class="node">
<title>Node3</title>
<g id="a_node3"><a xlink:href="../../df/dbd/AliHLTTPCClusterStatComponent_8cxx.html" target="_top" xlink:title="/home/travis/build\l/AliceO2Group/AliceO2\l/GPU/GPUTracking/DataCompression\l/AliHLTTPCClusterStatComponent.cxx">
<polygon fill="none" stroke="#000000" points="68,-267.5 68,-319.5 267,-319.5 267,-267.5 68,-267.5"/>
<text text-anchor="start" x="76" y="-307.5" font-family="Helvetica,sans-Serif" font-size="10.00" fill="#000000">/home/travis/build</text>
<text text-anchor="start" x="76" y="-296.5" font-family="Helvetica,sans-Serif" font-size="10.00" fill="#000000">/AliceO2Group/AliceO2</text>
<text text-anchor="start" x="76" y="-285.5" font-family="Helvetica,sans-Serif" font-size="10.00" fill="#000000">/GPU/GPUTracking/DataCompression</text>
<text text-anchor="middle" x="167.5" y="-274.5" font-family="Helvetica,sans-Serif" font-size="10.00" fill="#000000">/AliHLTTPCClusterStatComponent.cxx</text>
</a>
</g>
</g>
<!-- Node2&#45;&gt;Node3 -->
<g id="edge2" class="edge">
<title>Node2&#45;&gt;Node3</title>
<path fill="none" stroke="#191970" d="M738.1718,-376.3807C631.4124,-367.6125 438.4396,-349.2298 275.5,-320 272.7446,-319.5057 269.9548,-318.9824 267.1435,-318.4349"/>
<polygon fill="#191970" stroke="#191970" points="737.9794,-379.8765 748.2303,-377.1992 738.5472,-372.8995 737.9794,-379.8765"/>
</g>
<!-- Node4 -->
<g id="node4" class="node">
<title>Node4</title>
<g id="a_node4"><a xlink:href="../../da/d21/GPUTPCCompressionTrackModel_8h.html" target="_top" xlink:title="/home/travis/build\l/AliceO2Group/AliceO2\l/GPU/GPUTracking/DataCompression\l/GPUTPCCompressionTrackModel.h">
<polygon fill="none" stroke="#000000" points="285,-267.5 285,-319.5 480,-319.5 480,-267.5 285,-267.5"/>
<text text-anchor="start" x="293" y="-307.5" font-family="Helvetica,sans-Serif" font-size="10.00" fill="#000000">/home/travis/build</text>
<text text-anchor="start" x="293" y="-296.5" font-family="Helvetica,sans-Serif" font-size="10.00" fill="#000000">/AliceO2Group/AliceO2</text>
<text text-anchor="start" x="293" y="-285.5" font-family="Helvetica,sans-Serif" font-size="10.00" fill="#000000">/GPU/GPUTracking/DataCompression</text>
<text text-anchor="middle" x="382.5" y="-274.5" font-family="Helvetica,sans-Serif" font-size="10.00" fill="#000000">/GPUTPCCompressionTrackModel.h</text>
</a>
</g>
</g>
<!-- Node2&#45;&gt;Node4 -->
<g id="edge3" class="edge">
<title>Node2&#45;&gt;Node4</title>
<path fill="none" stroke="#191970" d="M738.3934,-368.4366C671.4366,-356.5157 574.0306,-338.4574 489.5,-320 486.415,-319.3264 483.2831,-318.6295 480.1233,-317.9152"/>
<polygon fill="#191970" stroke="#191970" points="738.0007,-371.9216 748.4585,-370.2232 739.2241,-365.0293 738.0007,-371.9216"/>
</g>
<!-- Node8 -->
<g id="node8" class="node">
<title>Node8</title>
<g id="a_node8"><a xlink:href="../../d8/de7/GPUTPCGMPropagator_8cxx.html" target="_top" xlink:title="/home/travis/build\l/AliceO2Group/AliceO2\l/GPU/GPUTracking/Merger\l/GPUTPCGMPropagator.cxx">
<polygon fill="none" stroke="#000000" points="498.5,-267.5 498.5,-319.5 646.5,-319.5 646.5,-267.5 498.5,-267.5"/>
<text text-anchor="start" x="506.5" y="-307.5" font-family="Helvetica,sans-Serif" font-size="10.00" fill="#000000">/home/travis/build</text>
<text text-anchor="start" x="506.5" y="-296.5" font-family="Helvetica,sans-Serif" font-size="10.00" fill="#000000">/AliceO2Group/AliceO2</text>
<text text-anchor="start" x="506.5" y="-285.5" font-family="Helvetica,sans-Serif" font-size="10.00" fill="#000000">/GPU/GPUTracking/Merger</text>
<text text-anchor="middle" x="572.5" y="-274.5" font-family="Helvetica,sans-Serif" font-size="10.00" fill="#000000">/GPUTPCGMPropagator.cxx</text>
</a>
</g>
</g>
<!-- Node2&#45;&gt;Node8 -->
<g id="edge7" class="edge">
<title>Node2&#45;&gt;Node8</title>
<path fill="none" stroke="#191970" d="M738.7101,-353.3895C708.4436,-342.4837 674.2741,-330.1716 644.8222,-319.5594"/>
<polygon fill="#191970" stroke="#191970" points="737.7944,-356.7797 748.3887,-356.8769 740.1673,-350.1942 737.7944,-356.7797"/>
</g>
<!-- Node11 -->
<g id="node11" class="node">
<title>Node11</title>
<g id="a_node11"><a xlink:href="../../df/dad/GPUTPCGMTrackParam_8cxx.html" target="_top" xlink:title="/home/travis/build\l/AliceO2Group/AliceO2\l/GPU/GPUTracking/Merger\l/GPUTPCGMTrackParam.cxx">
<polygon fill="none" stroke="#000000" points="664.5,-267.5 664.5,-319.5 816.5,-319.5 816.5,-267.5 664.5,-267.5"/>
<text text-anchor="start" x="672.5" y="-307.5" font-family="Helvetica,sans-Serif" font-size="10.00" fill="#000000">/home/travis/build</text>
<text text-anchor="start" x="672.5" y="-296.5" font-family="Helvetica,sans-Serif" font-size="10.00" fill="#000000">/AliceO2Group/AliceO2</text>
<text text-anchor="start" x="672.5" y="-285.5" font-family="Helvetica,sans-Serif" font-size="10.00" fill="#000000">/GPU/GPUTracking/Merger</text>
<text text-anchor="middle" x="740.5" y="-274.5" font-family="Helvetica,sans-Serif" font-size="10.00" fill="#000000">/GPUTPCGMTrackParam.cxx</text>
</a>
</g>
</g>
<!-- Node2&#45;&gt;Node11 -->
<g id="edge10" class="edge">
<title>Node2&#45;&gt;Node11</title>
<path fill="none" stroke="#191970" d="M789.5119,-348.7159C780.9295,-339.0472 771.7101,-328.6608 763.609,-319.5341"/>
<polygon fill="#191970" stroke="#191970" points="786.9687,-351.1231 796.2247,-356.2784 792.2038,-346.4762 786.9687,-351.1231"/>
</g>
<!-- Node12 -->
<g id="node12" class="node">
<title>Node12</title>
<g id="a_node12"><a xlink:href="../../df/d2b/GPUTrackingRefit_8cxx.html" target="_top" xlink:title="/home/travis/build\l/AliceO2Group/AliceO2\l/GPU/GPUTracking/Refit\l/GPUTrackingRefit.cxx">
<polygon fill="none" stroke="#000000" points="834.5,-267.5 834.5,-319.5 964.5,-319.5 964.5,-267.5 834.5,-267.5"/>
<text text-anchor="start" x="842.5" y="-307.5" font-family="Helvetica,sans-Serif" font-size="10.00" fill="#000000">/home/travis/build</text>
<text text-anchor="start" x="842.5" y="-296.5" font-family="Helvetica,sans-Serif" font-size="10.00" fill="#000000">/AliceO2Group/AliceO2</text>
<text text-anchor="start" x="842.5" y="-285.5" font-family="Helvetica,sans-Serif" font-size="10.00" fill="#000000">/GPU/GPUTracking/Refit</text>
<text text-anchor="middle" x="899.5" y="-274.5" font-family="Helvetica,sans-Serif" font-size="10.00" fill="#000000">/GPUTrackingRefit.cxx</text>
</a>
</g>
</g>
<!-- Node2&#45;&gt;Node12 -->
<g id="edge12" class="edge">
<title>Node2&#45;&gt;Node12</title>
<path fill="none" stroke="#191970" d="M849.8677,-348.7159C858.5587,-339.0472 867.8948,-328.6608 876.0985,-319.5341"/>
<polygon fill="#191970" stroke="#191970" points="847.152,-346.5015 843.0699,-356.2784 852.358,-351.1811 847.152,-346.5015"/>
</g>
<!-- Node13 -->
<g id="node13" class="node">
<title>Node13</title>
<g id="a_node13"><a xlink:href="../../d7/d9f/genEvents_8cxx.html" target="_top" xlink:title="/home/travis/build\l/AliceO2Group/AliceO2\l/GPU/GPUTracking/Standalone\l/qa/genEvents.cxx">
<polygon fill="none" stroke="#000000" points="983,-267.5 983,-319.5 1146,-319.5 1146,-267.5 983,-267.5"/>
<text text-anchor="start" x="991" y="-307.5" font-family="Helvetica,sans-Serif" font-size="10.00" fill="#000000">/home/travis/build</text>
<text text-anchor="start" x="991" y="-296.5" font-family="Helvetica,sans-Serif" font-size="10.00" fill="#000000">/AliceO2Group/AliceO2</text>
<text text-anchor="start" x="991" y="-285.5" font-family="Helvetica,sans-Serif" font-size="10.00" fill="#000000">/GPU/GPUTracking/Standalone</text>
<text text-anchor="middle" x="1064.5" y="-274.5" font-family="Helvetica,sans-Serif" font-size="10.00" fill="#000000">/qa/genEvents.cxx</text>
</a>
</g>
</g>
<!-- Node2&#45;&gt;Node13 -->
<g id="edge13" class="edge">
<title>Node2&#45;&gt;Node13</title>
<path fill="none" stroke="#191970" d="M900.2424,-353.1691C930.093,-342.3254 963.7012,-330.1167 992.7047,-319.5807"/>
<polygon fill="#191970" stroke="#191970" points="898.8973,-349.9339 890.6933,-356.638 901.2874,-356.5132 898.8973,-349.9339"/>
</g>
<!-- Node14 -->
<g id="node14" class="node">
<title>Node14</title>
<g id="a_node14"><a xlink:href="../../de/ddc/GPUQA_8cxx.html" target="_top" xlink:title="/home/travis/build\l/AliceO2Group/AliceO2\l/GPU/GPUTracking/Standalone\l/qa/GPUQA.cxx">
<polygon fill="none" stroke="#000000" points="1164,-267.5 1164,-319.5 1327,-319.5 1327,-267.5 1164,-267.5"/>
<text text-anchor="start" x="1172" y="-307.5" font-family="Helvetica,sans-Serif" font-size="10.00" fill="#000000">/home/travis/build</text>
<text text-anchor="start" x="1172" y="-296.5" font-family="Helvetica,sans-Serif" font-size="10.00" fill="#000000">/AliceO2Group/AliceO2</text>
<text text-anchor="start" x="1172" y="-285.5" font-family="Helvetica,sans-Serif" font-size="10.00" fill="#000000">/GPU/GPUTracking/Standalone</text>
<text text-anchor="middle" x="1245.5" y="-274.5" font-family="Helvetica,sans-Serif" font-size="10.00" fill="#000000">/qa/GPUQA.cxx</text>
</a>
</g>
</g>
<!-- Node2&#45;&gt;Node14 -->
<g id="edge14" class="edge">
<title>Node2&#45;&gt;Node14</title>
<path fill="none" stroke="#191970" d="M900.7491,-369.656C968.8857,-358.3326 1068.5551,-340.4782 1154.5,-320 1157.5413,-319.2754 1160.6324,-318.5123 1163.7492,-317.7205"/>
<polygon fill="#191970" stroke="#191970" points="899.8068,-366.2641 890.5112,-371.3477 900.948,-373.1705 899.8068,-366.2641"/>
</g>
<!-- Node15 -->
<g id="node15" class="node">
<title>Node15</title>
<g id="a_node15"><a xlink:href="../../df/d77/GPUTRDInterfaces_8h.html" target="_top" xlink:title="/home/travis/build\l/AliceO2Group/AliceO2\l/GPU/GPUTracking/TRDTracking\l/GPUTRDInterfaces.h">
<polygon fill="none" stroke="#000000" points="1345,-267.5 1345,-319.5 1514,-319.5 1514,-267.5 1345,-267.5"/>
<text text-anchor="start" x="1353" y="-307.5" font-family="Helvetica,sans-Serif" font-size="10.00" fill="#000000">/home/travis/build</text>
<text text-anchor="start" x="1353" y="-296.5" font-family="Helvetica,sans-Serif" font-size="10.00" fill="#000000">/AliceO2Group/AliceO2</text>
<text text-anchor="start" x="1353" y="-285.5" font-family="Helvetica,sans-Serif" font-size="10.00" fill="#000000">/GPU/GPUTracking/TRDTracking</text>
<text text-anchor="middle" x="1429.5" y="-274.5" font-family="Helvetica,sans-Serif" font-size="10.00" fill="#000000">/GPUTRDInterfaces.h</text>
</a>
</g>
</g>
<!-- Node2&#45;&gt;Node15 -->
<g id="edge15" class="edge">
<title>Node2&#45;&gt;Node15</title>
<path fill="none" stroke="#191970" d="M900.8231,-376.5512C1003.0153,-368.1843 1183.447,-350.4524 1335.5,-320 1338.5757,-319.384 1341.6978,-318.7187 1344.8434,-318.0143"/>
<polygon fill="#191970" stroke="#191970" points="900.2605,-373.0852 890.5754,-377.3803 900.8251,-380.0624 900.2605,-373.0852"/>
</g>
<!-- Node5 -->
<g id="node5" class="node">
<title>Node5</title>
<g id="a_node5"><a xlink:href="../../d9/d57/GPUTPCCompressionKernels_8cxx.html" target="_top" xlink:title="/home/travis/build\l/AliceO2Group/AliceO2\l/GPU/GPUTracking/DataCompression\l/GPUTPCCompressionKernels.cxx">
<polygon fill="none" stroke="#000000" points="0,-178.5 0,-230.5 195,-230.5 195,-178.5 0,-178.5"/>
<text text-anchor="start" x="8" y="-218.5" font-family="Helvetica,sans-Serif" font-size="10.00" fill="#000000">/home/travis/build</text>
<text text-anchor="start" x="8" y="-207.5" font-family="Helvetica,sans-Serif" font-size="10.00" fill="#000000">/AliceO2Group/AliceO2</text>
<text text-anchor="start" x="8" y="-196.5" font-family="Helvetica,sans-Serif" font-size="10.00" fill="#000000">/GPU/GPUTracking/DataCompression</text>
<text text-anchor="middle" x="97.5" y="-185.5" font-family="Helvetica,sans-Serif" font-size="10.00" fill="#000000">/GPUTPCCompressionKernels.cxx</text>
</a>
</g>
</g>
<!-- Node4&#45;&gt;Node5 -->
<g id="edge4" class="edge">
<title>Node4&#45;&gt;Node5</title>
<path fill="none" stroke="#191970" d="M289.211,-264.3677C254.3512,-253.4816 215.0122,-241.1968 181.0822,-230.6011"/>
<polygon fill="#191970" stroke="#191970" points="288.3276,-267.7584 298.9163,-267.3984 290.4142,-261.0766 288.3276,-267.7584"/>
</g>
<!-- Node6 -->
<g id="node6" class="node">
<title>Node6</title>
<g id="a_node6"><a xlink:href="../../db/da8/GPUTPCCompressionTrackModel_8cxx.html" target="_top" xlink:title="/home/travis/build\l/AliceO2Group/AliceO2\l/GPU/GPUTracking/DataCompression\l/GPUTPCCompressionTrackModel.cxx">
<polygon fill="none" stroke="#000000" points="213.5,-178.5 213.5,-230.5 411.5,-230.5 411.5,-178.5 213.5,-178.5"/>
<text text-anchor="start" x="221.5" y="-218.5" font-family="Helvetica,sans-Serif" font-size="10.00" fill="#000000">/home/travis/build</text>
<text text-anchor="start" x="221.5" y="-207.5" font-family="Helvetica,sans-Serif" font-size="10.00" fill="#000000">/AliceO2Group/AliceO2</text>
<text text-anchor="start" x="221.5" y="-196.5" font-family="Helvetica,sans-Serif" font-size="10.00" fill="#000000">/GPU/GPUTracking/DataCompression</text>
<text text-anchor="middle" x="312.5" y="-185.5" font-family="Helvetica,sans-Serif" font-size="10.00" fill="#000000">/GPUTPCCompressionTrackModel.cxx</text>
</a>
</g>
</g>
<!-- Node4&#45;&gt;Node6 -->
<g id="edge5" class="edge">
<title>Node4&#45;&gt;Node6</title>
<path fill="none" stroke="#191970" d="M355.4758,-259.1407C348.0005,-249.6363 340.0124,-239.4801 332.9763,-230.5341"/>
<polygon fill="#191970" stroke="#191970" points="352.9431,-261.582 361.8763,-267.2784 358.4452,-257.2545 352.9431,-261.582"/>
</g>
<!-- Node7 -->
<g id="node7" class="node">
<title>Node7</title>
<g id="a_node7"><a xlink:href="../../dc/df2/TPCClusterDecompressor_8cxx.html" target="_top" xlink:title="/home/travis/build\l/AliceO2Group/AliceO2\l/GPU/GPUTracking/DataCompression\l/TPCClusterDecompressor.cxx">
<polygon fill="none" stroke="#000000" points="430,-178.5 430,-230.5 625,-230.5 625,-178.5 430,-178.5"/>
<text text-anchor="start" x="438" y="-218.5" font-family="Helvetica,sans-Serif" font-size="10.00" fill="#000000">/home/travis/build</text>
<text text-anchor="start" x="438" y="-207.5" font-family="Helvetica,sans-Serif" font-size="10.00" fill="#000000">/AliceO2Group/AliceO2</text>
<text text-anchor="start" x="438" y="-196.5" font-family="Helvetica,sans-Serif" font-size="10.00" fill="#000000">/GPU/GPUTracking/DataCompression</text>
<text text-anchor="middle" x="527.5" y="-185.5" font-family="Helvetica,sans-Serif" font-size="10.00" fill="#000000">/TPCClusterDecompressor.cxx</text>
</a>
</g>
</g>
<!-- Node4&#45;&gt;Node7 -->
<g id="edge6" class="edge">
<title>Node4&#45;&gt;Node7</title>
<path fill="none" stroke="#191970" d="M433.8219,-261.9989C450.6004,-251.7004 469.0378,-240.3837 485.0848,-230.5341"/>
<polygon fill="#191970" stroke="#191970" points="431.9123,-259.0643 425.2205,-267.2784 435.5741,-265.0302 431.9123,-259.0643"/>
</g>
<!-- Node9 -->
<g id="node9" class="node">
<title>Node9</title>
<g id="a_node9"><a xlink:href="../../d0/d25/GPUReconstructionIncludesDevice_8h.html" target="_top" xlink:title="/home/travis/build\l/AliceO2Group/AliceO2\l/GPU/GPUTracking/Base\l/GPUReconstructionIncludesDevice.h">
<polygon fill="none" stroke="#000000" points="642.5,-178.5 642.5,-230.5 838.5,-230.5 838.5,-178.5 642.5,-178.5"/>
<text text-anchor="start" x="650.5" y="-218.5" font-family="Helvetica,sans-Serif" font-size="10.00" fill="#000000">/home/travis/build</text>
<text text-anchor="start" x="650.5" y="-207.5" font-family="Helvetica,sans-Serif" font-size="10.00" fill="#000000">/AliceO2Group/AliceO2</text>
<text text-anchor="start" x="650.5" y="-196.5" font-family="Helvetica,sans-Serif" font-size="10.00" fill="#000000">/GPU/GPUTracking/Base</text>
<text text-anchor="middle" x="740.5" y="-185.5" font-family="Helvetica,sans-Serif" font-size="10.00" fill="#000000">/GPUReconstructionIncludesDevice.h</text>
</a>
</g>
</g>
<!-- Node8&#45;&gt;Node9 -->
<g id="edge8" class="edge">
<title>Node8&#45;&gt;Node9</title>
<path fill="none" stroke="#191970" d="M630.8945,-262.5648C650.6177,-252.1162 672.4234,-240.5644 691.3569,-230.5341"/>
<polygon fill="#191970" stroke="#191970" points="629.195,-259.5043 621.9969,-267.2784 632.472,-265.6899 629.195,-259.5043"/>
</g>
<!-- Node10 -->
<g id="node10" class="node">
<title>Node10</title>
<g id="a_node10"><a xlink:href="../../d3/d33/GPUReconstructionHIP_8hip_8cxx.html" target="_top" xlink:title="/home/travis/build\l/AliceO2Group/AliceO2\l/GPU/GPUTracking/Base\l/hip/GPUReconstructionHIP.hip.cxx">
<polygon fill="none" stroke="#000000" points="648.5,-89.5 648.5,-141.5 832.5,-141.5 832.5,-89.5 648.5,-89.5"/>
<text text-anchor="start" x="656.5" y="-129.5" font-family="Helvetica,sans-Serif" font-size="10.00" fill="#000000">/home/travis/build</text>
<text text-anchor="start" x="656.5" y="-118.5" font-family="Helvetica,sans-Serif" font-size="10.00" fill="#000000">/AliceO2Group/AliceO2</text>
<text text-anchor="start" x="656.5" y="-107.5" font-family="Helvetica,sans-Serif" font-size="10.00" fill="#000000">/GPU/GPUTracking/Base</text>
<text text-anchor="middle" x="740.5" y="-96.5" font-family="Helvetica,sans-Serif" font-size="10.00" fill="#000000">/hip/GPUReconstructionHIP.hip.cxx</text>
</a>
</g>
</g>
<!-- Node9&#45;&gt;Node10 -->
<g id="edge9" class="edge">
<title>Node9&#45;&gt;Node10</title>
<path fill="none" stroke="#191970" d="M740.5,-168.1155C740.5,-159.2061 740.5,-149.8475 740.5,-141.5341"/>
<polygon fill="#191970" stroke="#191970" points="737.0001,-168.2784 740.5,-178.2784 744.0001,-168.2785 737.0001,-168.2784"/>
</g>
<!-- Node11&#45;&gt;Node9 -->
<g id="edge11" class="edge">
<title>Node11&#45;&gt;Node9</title>
<path fill="none" stroke="#191970" d="M740.5,-257.1155C740.5,-248.2061 740.5,-238.8475 740.5,-230.5341"/>
<polygon fill="#191970" stroke="#191970" points="737.0001,-257.2784 740.5,-267.2784 744.0001,-257.2785 737.0001,-257.2784"/>
</g>
<!-- Node16 -->
<g id="node16" class="node">
<title>Node16</title>
<g id="a_node16"><a xlink:href="../../db/dca/GPUTRDTrack_8h.html" target="_top" xlink:title="/home/travis/build\l/AliceO2Group/AliceO2\l/GPU/GPUTracking/TRDTracking\l/GPUTRDTrack.h">
<polygon fill="none" stroke="#000000" points="1345,-178.5 1345,-230.5 1514,-230.5 1514,-178.5 1345,-178.5"/>
<text text-anchor="start" x="1353" y="-218.5" font-family="Helvetica,sans-Serif" font-size="10.00" fill="#000000">/home/travis/build</text>
<text text-anchor="start" x="1353" y="-207.5" font-family="Helvetica,sans-Serif" font-size="10.00" fill="#000000">/AliceO2Group/AliceO2</text>
<text text-anchor="start" x="1353" y="-196.5" font-family="Helvetica,sans-Serif" font-size="10.00" fill="#000000">/GPU/GPUTracking/TRDTracking</text>
<text text-anchor="middle" x="1429.5" y="-185.5" font-family="Helvetica,sans-Serif" font-size="10.00" fill="#000000">/GPUTRDTrack.h</text>
</a>
</g>
</g>
<!-- Node15&#45;&gt;Node16 -->
<g id="edge16" class="edge">
<title>Node15&#45;&gt;Node16</title>
<path fill="none" stroke="#191970" d="M1429.5,-257.1155C1429.5,-248.2061 1429.5,-238.8475 1429.5,-230.5341"/>
<polygon fill="#191970" stroke="#191970" points="1426.0001,-257.2784 1429.5,-267.2784 1433.0001,-257.2785 1426.0001,-257.2784"/>
</g>
<!-- Node17 -->
<g id="node17" class="node">
<title>Node17</title>
<g id="a_node17"><a xlink:href="../../da/df6/GPUReconstructionCPU_8cxx.html" target="_top" xlink:title="/home/travis/build\l/AliceO2Group/AliceO2\l/GPU/GPUTracking/Base\l/GPUReconstructionCPU.cxx">
<polygon fill="none" stroke="#000000" points="1207,-.5 1207,-52.5 1360,-52.5 1360,-.5 1207,-.5"/>
<text text-anchor="start" x="1215" y="-40.5" font-family="Helvetica,sans-Serif" font-size="10.00" fill="#000000">/home/travis/build</text>
<text text-anchor="start" x="1215" y="-29.5" font-family="Helvetica,sans-Serif" font-size="10.00" fill="#000000">/AliceO2Group/AliceO2</text>
<text text-anchor="start" x="1215" y="-18.5" font-family="Helvetica,sans-Serif" font-size="10.00" fill="#000000">/GPU/GPUTracking/Base</text>
<text text-anchor="middle" x="1283.5" y="-7.5" font-family="Helvetica,sans-Serif" font-size="10.00" fill="#000000">/GPUReconstructionCPU.cxx</text>
</a>
</g>
</g>
<!-- Node16&#45;&gt;Node17 -->
<g id="edge17" class="edge">
<title>Node16&#45;&gt;Node17</title>
<path fill="none" stroke="#191970" d="M1335.1545,-183.8283C1294.8211,-172.9 1254.2828,-158.3616 1242.5,-142 1222.9778,-114.8915 1242.8215,-77.5921 1261.0889,-52.7975"/>
<polygon fill="#191970" stroke="#191970" points="1334.2737,-187.2156 1344.836,-186.3861 1336.0618,-180.4478 1334.2737,-187.2156"/>
</g>
<!-- Node18 -->
<g id="node18" class="node">
<title>Node18</title>
<g id="a_node18"><a xlink:href="../../d2/d58/GPUChainTracking_8cxx.html" target="_top" xlink:title="/home/travis/build\l/AliceO2Group/AliceO2\l/GPU/GPUTracking/Global\l/GPUChainTracking.cxx">
<polygon fill="none" stroke="#000000" points="1565.5,-.5 1565.5,-52.5 1705.5,-52.5 1705.5,-.5 1565.5,-.5"/>
<text text-anchor="start" x="1573.5" y="-40.5" font-family="Helvetica,sans-Serif" font-size="10.00" fill="#000000">/home/travis/build</text>
<text text-anchor="start" x="1573.5" y="-29.5" font-family="Helvetica,sans-Serif" font-size="10.00" fill="#000000">/AliceO2Group/AliceO2</text>
<text text-anchor="start" x="1573.5" y="-18.5" font-family="Helvetica,sans-Serif" font-size="10.00" fill="#000000">/GPU/GPUTracking/Global</text>
<text text-anchor="middle" x="1635.5" y="-7.5" font-family="Helvetica,sans-Serif" font-size="10.00" fill="#000000">/GPUChainTracking.cxx</text>
</a>
</g>
</g>
<!-- Node16&#45;&gt;Node18 -->
<g id="edge18" class="edge">
<title>Node16&#45;&gt;Node18</title>
<path fill="none" stroke="#191970" d="M1523.9114,-182.6085C1563.5888,-171.5176 1603.5541,-157.1951 1616.5,-142 1637.5864,-117.2501 1639.7367,-78.3204 1638.3841,-52.6036"/>
<polygon fill="#191970" stroke="#191970" points="1522.8417,-179.2724 1514.118,-185.2847 1524.687,-186.0248 1522.8417,-179.2724"/>
</g>
<!-- Node19 -->
<g id="node19" class="node">
<title>Node19</title>
<g id="a_node19"><a xlink:href="../../d3/d85/GPUChainTrackingIO_8cxx.html" target="_top" xlink:title="/home/travis/build\l/AliceO2Group/AliceO2\l/GPU/GPUTracking/Global\l/GPUChainTrackingIO.cxx">
<polygon fill="none" stroke="#000000" points="1723.5,-.5 1723.5,-52.5 1863.5,-52.5 1863.5,-.5 1723.5,-.5"/>
<text text-anchor="start" x="1731.5" y="-40.5" font-family="Helvetica,sans-Serif" font-size="10.00" fill="#000000">/home/travis/build</text>
<text text-anchor="start" x="1731.5" y="-29.5" font-family="Helvetica,sans-Serif" font-size="10.00" fill="#000000">/AliceO2Group/AliceO2</text>
<text text-anchor="start" x="1731.5" y="-18.5" font-family="Helvetica,sans-Serif" font-size="10.00" fill="#000000">/GPU/GPUTracking/Global</text>
<text text-anchor="middle" x="1793.5" y="-7.5" font-family="Helvetica,sans-Serif" font-size="10.00" fill="#000000">/GPUChainTrackingIO.cxx</text>
</a>
</g>
</g>
<!-- Node16&#45;&gt;Node19 -->
<g id="edge19" class="edge">
<title>Node16&#45;&gt;Node19</title>
<path fill="none" stroke="#191970" d="M1523.9401,-184.2636C1561.3834,-174.2807 1604.1009,-160.3662 1640.5,-142 1688.1897,-117.9369 1736.2207,-78.647 1765.4197,-52.6819"/>
<polygon fill="#191970" stroke="#191970" points="1522.83,-180.936 1514.0367,-186.846 1524.5963,-187.7095 1522.83,-180.936"/>
</g>
<!-- Node20 -->
<g id="node20" class="node">
<title>Node20</title>
<g id="a_node20"><a xlink:href="../../d0/d7f/GPUTRDTrack_8cxx.html" target="_top" xlink:title="/home/travis/build\l/AliceO2Group/AliceO2\l/GPU/GPUTracking/TRDTracking\l/GPUTRDTrack.cxx">
<polygon fill="none" stroke="#000000" points="1252,-89.5 1252,-141.5 1421,-141.5 1421,-89.5 1252,-89.5"/>
<text text-anchor="start" x="1260" y="-129.5" font-family="Helvetica,sans-Serif" font-size="10.00" fill="#000000">/home/travis/build</text>
<text text-anchor="start" x="1260" y="-118.5" font-family="Helvetica,sans-Serif" font-size="10.00" fill="#000000">/AliceO2Group/AliceO2</text>
<text text-anchor="start" x="1260" y="-107.5" font-family="Helvetica,sans-Serif" font-size="10.00" fill="#000000">/GPU/GPUTracking/TRDTracking</text>
<text text-anchor="middle" x="1336.5" y="-96.5" font-family="Helvetica,sans-Serif" font-size="10.00" fill="#000000">/GPUTRDTrack.cxx</text>
</a>
</g>
</g>
<!-- Node16&#45;&gt;Node20 -->
<g id="edge20" class="edge">
<title>Node16&#45;&gt;Node20</title>
<path fill="none" stroke="#191970" d="M1394.7968,-171.2894C1384.5246,-161.459 1373.4299,-150.8415 1363.7042,-141.5341"/>
<polygon fill="#191970" stroke="#191970" points="1392.4553,-173.8931 1402.0999,-178.2784 1397.2951,-168.8357 1392.4553,-173.8931"/>
</g>
<!-- Node21 -->
<g id="node21" class="node">
<title>Node21</title>
<g id="a_node21"><a xlink:href="../../dd/d44/GPUTRDTracker_8h.html" target="_top" xlink:title="Online TRD tracker based on extrapolated TPC tracks. ">
<polygon fill="none" stroke="#000000" points="1439,-89.5 1439,-141.5 1608,-141.5 1608,-89.5 1439,-89.5"/>
<text text-anchor="start" x="1447" y="-129.5" font-family="Helvetica,sans-Serif" font-size="10.00" fill="#000000">/home/travis/build</text>
<text text-anchor="start" x="1447" y="-118.5" font-family="Helvetica,sans-Serif" font-size="10.00" fill="#000000">/AliceO2Group/AliceO2</text>
<text text-anchor="start" x="1447" y="-107.5" font-family="Helvetica,sans-Serif" font-size="10.00" fill="#000000">/GPU/GPUTracking/TRDTracking</text>
<text text-anchor="middle" x="1523.5" y="-96.5" font-family="Helvetica,sans-Serif" font-size="10.00" fill="#000000">/GPUTRDTracker.h</text>
</a>
</g>
</g>
<!-- Node16&#45;&gt;Node21 -->
<g id="edge21" class="edge">
<title>Node16&#45;&gt;Node21</title>
<path fill="none" stroke="#191970" d="M1464.5763,-171.2894C1474.959,-161.459 1486.173,-150.8415 1496.0033,-141.5341"/>
<polygon fill="#191970" stroke="#191970" points="1462.0499,-168.8615 1457.1947,-178.2784 1466.8626,-173.9447 1462.0499,-168.8615"/>
</g>
<!-- Node23 -->
<g id="node23" class="node">
<title>Node23</title>
<g id="a_node23"><a xlink:href="../../db/dd1/GPUTRDTrackerComponent_8cxx.html" target="_top" xlink:title="A TRD tracker processing component for the GPU. ">
<polygon fill="none" stroke="#000000" points="1016,-.5 1016,-52.5 1189,-52.5 1189,-.5 1016,-.5"/>
<text text-anchor="start" x="1024" y="-40.5" font-family="Helvetica,sans-Serif" font-size="10.00" fill="#000000">/home/travis/build</text>
<text text-anchor="start" x="1024" y="-29.5" font-family="Helvetica,sans-Serif" font-size="10.00" fill="#000000">/AliceO2Group/AliceO2</text>
<text text-anchor="start" x="1024" y="-18.5" font-family="Helvetica,sans-Serif" font-size="10.00" fill="#000000">/GPU/GPUTracking/TRDTracking</text>
<text text-anchor="middle" x="1102.5" y="-7.5" font-family="Helvetica,sans-Serif" font-size="10.00" fill="#000000">/GPUTRDTrackerComponent.cxx</text>
</a>
</g>
</g>
<!-- Node16&#45;&gt;Node23 -->
<g id="edge27" class="edge">
<title>Node16&#45;&gt;Node23</title>
<path fill="none" stroke="#191970" d="M1334.8526,-183.7388C1300.6279,-173.956 1262.5492,-160.3166 1230.5,-142 1188.6607,-118.0882 1148.8205,-78.5701 1125.0132,-52.5331"/>
<polygon fill="#191970" stroke="#191970" points="1334.2934,-187.2161 1344.8656,-186.5239 1336.1693,-180.4721 1334.2934,-187.2161"/>
</g>
<!-- Node21&#45;&gt;Node17 -->
<g id="edge22" class="edge">
<title>Node21&#45;&gt;Node17</title>
<path fill="none" stroke="#191970" d="M1443.4322,-85.8082C1414.454,-75.0621 1381.9692,-63.0157 1353.885,-52.6011"/>
<polygon fill="#191970" stroke="#191970" points="1442.5207,-89.203 1453.1137,-89.3984 1444.9546,-82.6398 1442.5207,-89.203"/>
</g>
<!-- Node21&#45;&gt;Node18 -->
<g id="edge23" class="edge">
<title>Node21&#45;&gt;Node18</title>
<path fill="none" stroke="#191970" d="M1564.5736,-82.8612C1577.1445,-72.8718 1590.7979,-62.0222 1602.7379,-52.5341"/>
<polygon fill="#191970" stroke="#191970" points="1562.1496,-80.3169 1556.4979,-89.2784 1566.5045,-85.7972 1562.1496,-80.3169"/>
</g>
<!-- Node21&#45;&gt;Node19 -->
<g id="edge24" class="edge">
<title>Node21&#45;&gt;Node19</title>
<path fill="none" stroke="#191970" d="M1613.2413,-86.2859C1645.2189,-75.836 1681.4842,-63.9391 1714.5,-53 1717.3838,-52.0445 1720.326,-51.0675 1723.2977,-50.0788"/>
<polygon fill="#191970" stroke="#191970" points="1611.8822,-83.0478 1603.4633,-89.4799 1614.0558,-89.7018 1611.8822,-83.0478"/>
</g>
<!-- Node22 -->
<g id="node22" class="node">
<title>Node22</title>
<g id="a_node22"><a xlink:href="../../d9/d33/GPUTRDTracker_8cxx.html" target="_top" xlink:title="/home/travis/build\l/AliceO2Group/AliceO2\l/GPU/GPUTracking/TRDTracking\l/GPUTRDTracker.cxx">
<polygon fill="none" stroke="#000000" points="1378,-.5 1378,-52.5 1547,-52.5 1547,-.5 1378,-.5"/>
<text text-anchor="start" x="1386" y="-40.5" font-family="Helvetica,sans-Serif" font-size="10.00" fill="#000000">/home/travis/build</text>
<text text-anchor="start" x="1386" y="-29.5" font-family="Helvetica,sans-Serif" font-size="10.00" fill="#000000">/AliceO2Group/AliceO2</text>
<text text-anchor="start" x="1386" y="-18.5" font-family="Helvetica,sans-Serif" font-size="10.00" fill="#000000">/GPU/GPUTracking/TRDTracking</text>
<text text-anchor="middle" x="1462.5" y="-7.5" font-family="Helvetica,sans-Serif" font-size="10.00" fill="#000000">/GPUTRDTracker.cxx</text>
</a>
</g>
</g>
<!-- Node21&#45;&gt;Node22 -->
<g id="edge25" class="edge">
<title>Node21&#45;&gt;Node22</title>
<path fill="none" stroke="#191970" d="M1499.7528,-80.8525C1493.2956,-71.4313 1486.4132,-61.3897 1480.3436,-52.5341"/>
<polygon fill="#191970" stroke="#191970" points="1496.9874,-83.0086 1505.5279,-89.2784 1502.7614,-79.0512 1496.9874,-83.0086"/>
</g>
<!-- Node21&#45;&gt;Node23 -->
<g id="edge26" class="edge">
<title>Node21&#45;&gt;Node23</title>
<path fill="none" stroke="#191970" d="M1428.9344,-88.9976C1325.7767,-67.275 1296.3998,-74.3889 1197.5,-53 1194.7386,-52.4028 1191.9385,-51.7725 1189.1162,-51.1158"/>
<polygon fill="#191970" stroke="#191970" points="1428.304,-92.4419 1438.8158,-91.1181 1429.7727,-85.5978 1428.304,-92.4419"/>
</g>
</g>
</svg>
