<?xml version="1.0" encoding="UTF-8" standalone="no"?>
<!DOCTYPE svg PUBLIC "-//W3C//DTD SVG 1.1//EN"
 "http://www.w3.org/Graphics/SVG/1.1/DTD/svg11.dtd">
<!-- Generated by graphviz version 2.40.1 (20161225.0304)
 -->
<!-- Title: /home/travis/build/AliceO2Group/AliceO2/Detectors/MUON/MID/Tracking/src/Tracker.cxx Pages: 1 -->
<!--zoomable 363 -->
<svg id="main" version="1.1" xmlns="http://www.w3.org/2000/svg" xmlns:xlink="http://www.w3.org/1999/xlink" xml:space="preserve" onload="init(evt)">
<style type="text/css"><![CDATA[
.edge:hover path { stroke: red; }
.edge:hover polygon { stroke: red; fill: red; }
]]></style>
<script type="text/javascript"><![CDATA[
var edges = document.getElementsByTagName('g');
if (edges && edges.length) {
  for (var i=0;i<edges.length;i++) {
    if (edges[i].id.substr(0,4)=='edge') {
      edges[i].setAttribute('class','edge');
    }
  }
}
]]></script>
        <defs>
                <circle id="rim" cx="0" cy="0" r="7"/>
                <circle id="rim2" cx="0" cy="0" r="3.5"/>
                <g id="zoomPlus">
                        <use xlink:href="#rim" fill="#404040">
                                <set attributeName="fill" to="#808080" begin="zoomplus.mouseover" end="zoomplus.mouseout"/>
                        </use>
                        <path d="M-4,0h8M0,-4v8" fill="none" stroke="white" stroke-width="1.5" pointer-events="none"/>
                </g>
                <g id="zoomMin">
                        <use xlink:href="#rim" fill="#404040">
                                <set attributeName="fill" to="#808080" begin="zoomminus.mouseover" end="zoomminus.mouseout"/>
                        </use>
                        <path d="M-4,0h8" fill="none" stroke="white" stroke-width="1.5" pointer-events="none"/>
                </g>
                <g id="dirArrow">
                        <path fill="none" stroke="white" stroke-width="1.5" d="M0,-3.0v7 M-2.5,-0.5L0,-3.0L2.5,-0.5"/>
                </g>
               <g id="resetDef">
                       <use xlink:href="#rim2" fill="#404040">
                               <set attributeName="fill" to="#808080" begin="reset.mouseover" end="reset.mouseout"/>
                       </use>
               </g>
        </defs>

<script type="text/javascript">
var viewWidth = 2474;
var viewHeight = 363;
var sectionId = 'dynsection-0';
</script>
<script xlink:href="../../svgpan.js"/>
<svg id="graph" class="graph">
<g id="viewport">
<title>/home/travis/build/AliceO2Group/AliceO2/Detectors/MUON/MID/Tracking/src/Tracker.cxx</title>
<!-- Node0 -->
<g id="node1" class="node">
<title>Node0</title>
<polygon fill="#bfbfbf" stroke="#000000" points="961.5,-302.5 961.5,-354.5 1127.5,-354.5 1127.5,-302.5 961.5,-302.5"/>
<text text-anchor="start" x="969.5" y="-342.5" font-family="Helvetica,sans-Serif" font-size="10.00" fill="#000000">/home/travis/build</text>
<text text-anchor="start" x="969.5" y="-331.5" font-family="Helvetica,sans-Serif" font-size="10.00" fill="#000000">/AliceO2Group/AliceO2</text>
<text text-anchor="start" x="969.5" y="-320.5" font-family="Helvetica,sans-Serif" font-size="10.00" fill="#000000">/Detectors/MUON/MID/Tracking</text>
<text text-anchor="middle" x="1044.5" y="-309.5" font-family="Helvetica,sans-Serif" font-size="10.00" fill="#000000">/src/Tracker.cxx</text>
</g>
<!-- Node1 -->
<g id="node2" class="node">
<title>Node1</title>
<g id="a_node2"><a xlink:href="../../db/d8e/MUON_2MID_2Tracking_2include_2MIDTracking_2Tracker_8h.html" target="_top" xlink:title="Track reconstruction algorithm for MID. ">
<polygon fill="none" stroke="#000000" points="415.5,-246.5 415.5,-265.5 537.5,-265.5 537.5,-246.5 415.5,-246.5"/>
<text text-anchor="middle" x="476.5" y="-253.5" font-family="Helvetica,sans-Serif" font-size="10.00" fill="#000000">MIDTracking/Tracker.h</text>
</a>
</g>
</g>
<!-- Node0&#45;&gt;Node1 -->
<g id="edge1" class="edge">
<title>Node0&#45;&gt;Node1</title>
<path fill="none" stroke="#191970" d="M961.2996,-317.8802C849.6202,-303.6254 653.1249,-278.5446 547.8524,-265.1075"/>
<polygon fill="#191970" stroke="#191970" points="548.0084,-261.5991 537.6457,-263.8047 547.122,-268.5427 548.0084,-261.5991"/>
</g>
<!-- Node13 -->
<g id="node14" class="node">
<title>Node13</title>
<polygon fill="none" stroke="#bfbfbf" points="755,-62 755,-81 802,-81 802,-62 755,-62"/>
<text text-anchor="middle" x="778.5" y="-69" font-family="Helvetica,sans-Serif" font-size="10.00" fill="#000000">cmath</text>
</g>
<!-- Node0&#45;&gt;Node13 -->
<g id="edge37" class="edge">
<title>Node0&#45;&gt;Node13</title>
<path fill="none" stroke="#191970" d="M1043.4712,-302.4728C1041.0135,-272.3411 1032.9057,-222.6782 1006.5,-190 999.5614,-181.4131 866.9935,-115.2357 807.2579,-85.679"/>
<polygon fill="#191970" stroke="#191970" points="808.5084,-82.3929 797.9928,-81.0994 805.4066,-88.6682 808.5084,-82.3929"/>
</g>
<!-- Node18 -->
<g id="node19" class="node">
<title>Node18</title>
<g id="a_node19"><a xlink:href="../../dc/de4/DetectorParameters_8h.html" target="_top" xlink:title="Useful detector parameters for MID. ">
<polygon fill="none" stroke="#000000" points="979,-129 979,-148 1148,-148 1148,-129 979,-129"/>
<text text-anchor="middle" x="1063.5" y="-136" font-family="Helvetica,sans-Serif" font-size="10.00" fill="#000000">MIDBase/DetectorParameters.h</text>
</a>
</g>
</g>
<!-- Node0&#45;&gt;Node18 -->
<g id="edge39" class="edge">
<title>Node0&#45;&gt;Node18</title>
<path fill="none" stroke="#191970" d="M1047.102,-302.4797C1050.9371,-264.129 1058.0261,-193.2386 1061.4897,-158.6029"/>
<polygon fill="#191970" stroke="#191970" points="1065.0029,-158.6448 1062.5154,-148.3461 1058.0376,-157.9482 1065.0029,-158.6448"/>
</g>
<!-- Node29 -->
<g id="node30" class="node">
<title>Node29</title>
<polygon fill="none" stroke="#bfbfbf" points="1092,-246.5 1092,-265.5 1157,-265.5 1157,-246.5 1092,-246.5"/>
<text text-anchor="middle" x="1124.5" y="-253.5" font-family="Helvetica,sans-Serif" font-size="10.00" fill="#000000">functional</text>
</g>
<!-- Node0&#45;&gt;Node29 -->
<g id="edge38" class="edge">
<title>Node0&#45;&gt;Node29</title>
<path fill="none" stroke="#191970" d="M1073.3818,-302.3258C1084.431,-292.3126 1096.7095,-281.1851 1106.4631,-272.346"/>
<polygon fill="#191970" stroke="#191970" points="1108.9202,-274.8427 1113.9797,-265.534 1104.2195,-269.6558 1108.9202,-274.8427"/>
</g>
<!-- Node2 -->
<g id="node3" class="node">
<title>Node2</title>
<polygon fill="none" stroke="#bfbfbf" points="0,-190.5 0,-209.5 47,-209.5 47,-190.5 0,-190.5"/>
<text text-anchor="middle" x="23.5" y="-197.5" font-family="Helvetica,sans-Serif" font-size="10.00" fill="#000000">vector</text>
</g>
<!-- Node1&#45;&gt;Node2 -->
<g id="edge2" class="edge">
<title>Node1&#45;&gt;Node2</title>
<path fill="none" stroke="#191970" d="M415.4427,-252.864C335.2179,-247.958 189.9372,-236.3693 57.106,-209.7675"/>
<polygon fill="#191970" stroke="#191970" points="57.6556,-206.3076 47.1583,-207.742 56.2589,-213.1669 57.6556,-206.3076"/>
</g>
<!-- Node3 -->
<g id="node4" class="node">
<title>Node3</title>
<polygon fill="none" stroke="#bfbfbf" points="65.5,-190.5 65.5,-209.5 113.5,-209.5 113.5,-190.5 65.5,-190.5"/>
<text text-anchor="middle" x="89.5" y="-197.5" font-family="Helvetica,sans-Serif" font-size="10.00" fill="#000000">gsl/gsl</text>
</g>
<!-- Node1&#45;&gt;Node3 -->
<g id="edge3" class="edge">
<title>Node1&#45;&gt;Node3</title>
<path fill="none" stroke="#191970" d="M415.2183,-251.13C346.3692,-244.9683 231.2245,-232.5938 123.5877,-209.935"/>
<polygon fill="#191970" stroke="#191970" points="124.0416,-206.453 113.5305,-207.7827 122.5766,-213.298 124.0416,-206.453"/>
</g>
<!-- Node4 -->
<g id="node5" class="node">
<title>Node4</title>
<g id="a_node5"><a xlink:href="../../d6/d31/Cluster2D_8h.html" target="_top" xlink:title="Reconstructed cluster per RPC. ">
<polygon fill="none" stroke="#000000" points="131.5,-190.5 131.5,-209.5 289.5,-209.5 289.5,-190.5 131.5,-190.5"/>
<text text-anchor="middle" x="210.5" y="-197.5" font-family="Helvetica,sans-Serif" font-size="10.00" fill="#000000">DataFormatsMID/Cluster2D.h</text>
</a>
</g>
</g>
<!-- Node1&#45;&gt;Node4 -->
<g id="edge4" class="edge">
<title>Node1&#45;&gt;Node4</title>
<path fill="none" stroke="#191970" d="M431.0752,-246.4369C385.2645,-236.7925 314.5002,-221.8948 265.5325,-211.5858"/>
<polygon fill="#191970" stroke="#191970" points="266.244,-208.1589 255.7374,-209.5237 264.8019,-215.0088 266.244,-208.1589"/>
</g>
<!-- Node7 -->
<g id="node8" class="node">
<title>Node7</title>
<g id="a_node8"><a xlink:href="../../d0/daa/Cluster3D_8h.html" target="_top" xlink:title="Reconstructed MID cluster (global coordinates) ">
<polygon fill="none" stroke="#000000" points="307.5,-190.5 307.5,-209.5 465.5,-209.5 465.5,-190.5 307.5,-190.5"/>
<text text-anchor="middle" x="386.5" y="-197.5" font-family="Helvetica,sans-Serif" font-size="10.00" fill="#000000">DataFormatsMID/Cluster3D.h</text>
</a>
</g>
</g>
<!-- Node1&#45;&gt;Node7 -->
<g id="edge7" class="edge">
<title>Node1&#45;&gt;Node7</title>
<path fill="none" stroke="#191970" d="M460.8232,-246.2455C447.0144,-237.6534 426.6807,-225.0014 410.7708,-215.1018"/>
<polygon fill="#191970" stroke="#191970" points="412.3368,-211.954 401.9972,-209.6427 408.6387,-217.8974 412.3368,-211.954"/>
</g>
<!-- Node8 -->
<g id="node9" class="node">
<title>Node8</title>
<g id="a_node9"><a xlink:href="../../d2/df9/MUON_2MID_2include_2DataFormatsMID_2ROFRecord_8h.html" target="_top" xlink:title="Definition of the MID event record. ">
<polygon fill="none" stroke="#000000" points="484,-190.5 484,-209.5 647,-209.5 647,-190.5 484,-190.5"/>
<text text-anchor="middle" x="565.5" y="-197.5" font-family="Helvetica,sans-Serif" font-size="10.00" fill="#000000">DataFormatsMID/ROFRecord.h</text>
</a>
</g>
</g>
<!-- Node1&#45;&gt;Node8 -->
<g id="edge10" class="edge">
<title>Node1&#45;&gt;Node8</title>
<path fill="none" stroke="#191970" d="M492.0026,-246.2455C505.658,-237.6534 525.7657,-225.0014 541.4989,-215.1018"/>
<polygon fill="#191970" stroke="#191970" points="543.5751,-217.9307 550.175,-209.6427 539.8471,-212.006 543.5751,-217.9307"/>
</g>
<!-- Node15 -->
<g id="node16" class="node">
<title>Node15</title>
<g id="a_node16"><a xlink:href="../../d4/d54/DataFormats_2Detectors_2MUON_2MID_2include_2DataFormatsMID_2Track_8h.html" target="_top" xlink:title="Reconstructed MID track. ">
<polygon fill="none" stroke="#000000" points="665.5,-190.5 665.5,-209.5 801.5,-209.5 801.5,-190.5 665.5,-190.5"/>
<text text-anchor="middle" x="733.5" y="-197.5" font-family="Helvetica,sans-Serif" font-size="10.00" fill="#000000">DataFormatsMID/Track.h</text>
</a>
</g>
</g>
<!-- Node1&#45;&gt;Node15 -->
<g id="edge18" class="edge">
<title>Node1&#45;&gt;Node15</title>
<path fill="none" stroke="#191970" d="M520.3879,-246.4369C564.4638,-236.8328 632.4481,-222.0191 679.7358,-211.7152"/>
<polygon fill="#191970" stroke="#191970" points="680.7676,-215.0725 689.7932,-209.5237 679.2772,-208.233 680.7676,-215.0725"/>
</g>
<!-- Node17 -->
<g id="node18" class="node">
<title>Node17</title>
<g id="a_node18"><a xlink:href="../../de/d0c/GeometryTransformer_8h.html" target="_top" xlink:title="Geometry transformer for MID. ">
<polygon fill="none" stroke="#000000" points="819.5,-190.5 819.5,-209.5 997.5,-209.5 997.5,-190.5 819.5,-190.5"/>
<text text-anchor="middle" x="908.5" y="-197.5" font-family="Helvetica,sans-Serif" font-size="10.00" fill="#000000">MIDBase/GeometryTransformer.h</text>
</a>
</g>
</g>
<!-- Node1&#45;&gt;Node17 -->
<g id="edge21" class="edge">
<title>Node1&#45;&gt;Node17</title>
<path fill="none" stroke="#191970" d="M537.9363,-248.036C613.1482,-238.2863 740.8647,-221.7305 824.9555,-210.8298"/>
<polygon fill="#191970" stroke="#191970" points="825.5206,-214.286 834.9877,-209.5294 824.6207,-207.344 825.5206,-214.286"/>
</g>
<!-- Node5 -->
<g id="node6" class="node">
<title>Node5</title>
<polygon fill="none" stroke="#bfbfbf" points="301,-129 301,-148 358,-148 358,-129 301,-129"/>
<text text-anchor="middle" x="329.5" y="-136" font-family="Helvetica,sans-Serif" font-size="10.00" fill="#000000">ostream</text>
</g>
<!-- Node4&#45;&gt;Node5 -->
<g id="edge5" class="edge">
<title>Node4&#45;&gt;Node5</title>
<path fill="none" stroke="#191970" d="M229.0938,-190.3906C248.6553,-180.2811 279.6501,-164.2628 302.0309,-152.6962"/>
<polygon fill="#191970" stroke="#191970" points="303.76,-155.7425 311.0368,-148.0419 300.5461,-149.5238 303.76,-155.7425"/>
</g>
<!-- Node6 -->
<g id="node7" class="node">
<title>Node6</title>
<polygon fill="none" stroke="#bfbfbf" points="334.5,-62 334.5,-81 384.5,-81 384.5,-62 334.5,-62"/>
<text text-anchor="middle" x="359.5" y="-69" font-family="Helvetica,sans-Serif" font-size="10.00" fill="#000000">cstdint</text>
</g>
<!-- Node4&#45;&gt;Node6 -->
<g id="edge6" class="edge">
<title>Node4&#45;&gt;Node6</title>
<path fill="none" stroke="#191970" d="M219.9014,-190.3946C234.675,-175.4565 264.4379,-145.9862 291.5,-123 306.4069,-110.3382 324.0313,-97.034 337.6017,-87.1202"/>
<polygon fill="#191970" stroke="#191970" points="339.8186,-89.8362 345.8647,-81.1358 335.7126,-84.1668 339.8186,-89.8362"/>
</g>
<!-- Node7&#45;&gt;Node5 -->
<g id="edge8" class="edge">
<title>Node7&#45;&gt;Node5</title>
<path fill="none" stroke="#191970" d="M377.5938,-190.3906C369.0272,-181.1478 355.8831,-166.966 345.4997,-155.7628"/>
<polygon fill="#191970" stroke="#191970" points="347.8965,-153.2 338.5318,-148.2449 342.7625,-157.9584 347.8965,-153.2"/>
</g>
<!-- Node7&#45;&gt;Node6 -->
<g id="edge9" class="edge">
<title>Node7&#45;&gt;Node6</title>
<path fill="none" stroke="#191970" d="M384.4706,-190.3416C380.0533,-169.3184 369.4931,-119.0598 363.6191,-91.1038"/>
<polygon fill="#191970" stroke="#191970" points="367.0345,-90.337 361.5529,-81.2705 360.1841,-91.7765 367.0345,-90.337"/>
</g>
<!-- Node9 -->
<g id="node10" class="node">
<title>Node9</title>
<g id="a_node10"><a xlink:href="../../d9/d80/InteractionRecord_8h.html" target="_top" xlink:title="CommonDataFormat/Interaction\lRecord.h">
<polygon fill="none" stroke="#000000" points="516.5,-123.5 516.5,-153.5 690.5,-153.5 690.5,-123.5 516.5,-123.5"/>
<text text-anchor="start" x="524.5" y="-141.5" font-family="Helvetica,sans-Serif" font-size="10.00" fill="#000000">CommonDataFormat/Interaction</text>
<text text-anchor="middle" x="603.5" y="-130.5" font-family="Helvetica,sans-Serif" font-size="10.00" fill="#000000">Record.h</text>
</a>
</g>
</g>
<!-- Node8&#45;&gt;Node9 -->
<g id="edge11" class="edge">
<title>Node8&#45;&gt;Node9</title>
<path fill="none" stroke="#191970" d="M571.4375,-190.3906C576.1041,-182.838 582.8085,-171.9876 588.8812,-162.1593"/>
<polygon fill="#191970" stroke="#191970" points="591.9252,-163.8914 594.2042,-153.5446 585.9702,-160.2119 591.9252,-163.8914"/>
</g>
<!-- Node9&#45;&gt;Node6 -->
<g id="edge15" class="edge">
<title>Node9&#45;&gt;Node6</title>
<path fill="none" stroke="#191970" d="M529.0781,-123.4938C488.7555,-114.5339 438.3498,-101.9828 394.5,-87 392.6606,-86.3715 390.7846,-85.6843 388.9044,-84.9599"/>
<polygon fill="#191970" stroke="#191970" points="390.1971,-81.7072 379.6181,-81.1292 387.5277,-88.1782 390.1971,-81.7072"/>
</g>
<!-- Node10 -->
<g id="node11" class="node">
<title>Node10</title>
<g id="a_node11"><a xlink:href="../../d2/d45/GPUCommonRtypes_8h.html" target="_top" xlink:title="GPUCommonRtypes.h">
<polygon fill="none" stroke="#000000" points="403,-62 403,-81 528,-81 528,-62 403,-62"/>
<text text-anchor="middle" x="465.5" y="-69" font-family="Helvetica,sans-Serif" font-size="10.00" fill="#000000">GPUCommonRtypes.h</text>
</a>
</g>
</g>
<!-- Node9&#45;&gt;Node10 -->
<g id="edge12" class="edge">
<title>Node9&#45;&gt;Node10</title>
<path fill="none" stroke="#191970" d="M572.5301,-123.4639C549.1669,-112.1209 517.3441,-96.6707 494.4806,-85.5703"/>
<polygon fill="#191970" stroke="#191970" points="495.8057,-82.323 485.2812,-81.1039 492.7484,-88.62 495.8057,-82.323"/>
</g>
<!-- Node12 -->
<g id="node13" class="node">
<title>Node12</title>
<polygon fill="none" stroke="#bfbfbf" points="820,-62 820,-81 869,-81 869,-62 820,-62"/>
<text text-anchor="middle" x="844.5" y="-69" font-family="Helvetica,sans-Serif" font-size="10.00" fill="#000000">iosfwd</text>
</g>
<!-- Node9&#45;&gt;Node12 -->
<g id="edge14" class="edge">
<title>Node9&#45;&gt;Node12</title>
<path fill="none" stroke="#191970" d="M679.6487,-123.4138C719.4818,-114.5823 768.7261,-102.1747 811.5,-87 813.1405,-86.418 814.8093,-85.7822 816.4815,-85.1108"/>
<polygon fill="#191970" stroke="#191970" points="818.1472,-88.2031 825.9208,-81.0043 815.3547,-81.7842 818.1472,-88.2031"/>
</g>
<!-- Node9&#45;&gt;Node13 -->
<g id="edge16" class="edge">
<title>Node9&#45;&gt;Node13</title>
<path fill="none" stroke="#191970" d="M648.3517,-123.4096C676.4972,-113.6511 713.409,-100.3233 745.5,-87 746.8519,-86.4387 748.2288,-85.8524 749.6151,-85.2501"/>
<polygon fill="#191970" stroke="#191970" points="751.0579,-88.439 758.7374,-81.1401 748.1823,-82.0569 751.0579,-88.439"/>
</g>
<!-- Node14 -->
<g id="node15" class="node">
<title>Node14</title>
<g id="a_node15"><a xlink:href="../../d4/dc6/LHCConstants_8h.html" target="_top" xlink:title="Header to collect LHC related constants. ">
<polygon fill="none" stroke="#000000" points="546.5,-62 546.5,-81 736.5,-81 736.5,-62 546.5,-62"/>
<text text-anchor="middle" x="641.5" y="-69" font-family="Helvetica,sans-Serif" font-size="10.00" fill="#000000">CommonConstants/LHCConstants.h</text>
</a>
</g>
</g>
<!-- Node9&#45;&gt;Node14 -->
<g id="edge17" class="edge">
<title>Node9&#45;&gt;Node14</title>
<path fill="none" stroke="#191970" d="M612.1228,-123.2967C617.756,-113.3645 625.1447,-100.3371 631.1027,-89.8321"/>
<polygon fill="#191970" stroke="#191970" points="634.1917,-91.4801 636.0808,-81.055 628.1029,-88.0266 634.1917,-91.4801"/>
</g>
<!-- Node11 -->
<g id="node12" class="node">
<title>Node11</title>
<polygon fill="none" stroke="#bfbfbf" points="713,-.5 713,-19.5 772,-19.5 772,-.5 713,-.5"/>
<text text-anchor="middle" x="742.5" y="-7.5" font-family="Helvetica,sans-Serif" font-size="10.00" fill="#000000">Rtypes.h</text>
</g>
<!-- Node10&#45;&gt;Node11 -->
<g id="edge13" class="edge">
<title>Node10&#45;&gt;Node11</title>
<path fill="none" stroke="#191970" d="M508.4773,-61.9581C561.6163,-50.1601 651.3329,-30.2411 702.8757,-18.7974"/>
<polygon fill="#191970" stroke="#191970" points="703.6495,-22.211 712.6532,-16.6266 702.1323,-15.3774 703.6495,-22.211"/>
</g>
<!-- Node15&#45;&gt;Node5 -->
<g id="edge20" class="edge">
<title>Node15&#45;&gt;Node5</title>
<path fill="none" stroke="#191970" d="M670.8183,-190.4581C586.283,-177.5895 438.2784,-155.0591 368.2831,-144.4039"/>
<polygon fill="#191970" stroke="#191970" points="368.5522,-140.9046 358.1394,-142.8597 367.4987,-147.8249 368.5522,-140.9046"/>
</g>
<!-- Node16 -->
<g id="node17" class="node">
<title>Node16</title>
<polygon fill="none" stroke="#bfbfbf" points="887.5,-62 887.5,-81 929.5,-81 929.5,-62 887.5,-62"/>
<text text-anchor="middle" x="908.5" y="-69" font-family="Helvetica,sans-Serif" font-size="10.00" fill="#000000">array</text>
</g>
<!-- Node15&#45;&gt;Node16 -->
<g id="edge19" class="edge">
<title>Node15&#45;&gt;Node16</title>
<path fill="none" stroke="#191970" d="M746.6534,-190.3416C776.5512,-168.3881 849.865,-114.5549 886.6715,-87.5283"/>
<polygon fill="#191970" stroke="#191970" points="889.205,-90.0103 895.1939,-81.2705 885.062,-84.368 889.205,-90.0103"/>
</g>
<!-- Node17&#45;&gt;Node16 -->
<g id="edge22" class="edge">
<title>Node17&#45;&gt;Node16</title>
<path fill="none" stroke="#191970" d="M908.5,-190.3416C908.5,-169.4114 908.5,-119.504 908.5,-91.4762"/>
<polygon fill="#191970" stroke="#191970" points="912.0001,-91.2704 908.5,-81.2705 905.0001,-91.2705 912.0001,-91.2704"/>
</g>
<!-- Node17&#45;&gt;Node18 -->
<g id="edge23" class="edge">
<title>Node17&#45;&gt;Node18</title>
<path fill="none" stroke="#191970" d="M932.7188,-190.3906C958.8806,-180.0103 1000.7429,-163.4004 1030.0388,-151.7766"/>
<polygon fill="#191970" stroke="#191970" points="1031.4471,-154.9833 1039.4513,-148.0419 1028.8654,-148.4767 1031.4471,-154.9833"/>
</g>
<!-- Node20 -->
<g id="node21" class="node">
<title>Node20</title>
<g id="a_node21"><a xlink:href="../../dc/d73/Cartesian_8h.html" target="_top" xlink:title="MathUtils/Cartesian.h">
<polygon fill="none" stroke="#000000" points="1456.5,-129 1456.5,-148 1578.5,-148 1578.5,-129 1456.5,-129"/>
<text text-anchor="middle" x="1517.5" y="-136" font-family="Helvetica,sans-Serif" font-size="10.00" fill="#000000">MathUtils/Cartesian.h</text>
</a>
</g>
</g>
<!-- Node17&#45;&gt;Node20 -->
<g id="edge26" class="edge">
<title>Node17&#45;&gt;Node20</title>
<path fill="none" stroke="#191970" d="M997.706,-190.9915C1119.2903,-178.7133 1334.6346,-156.9667 1446.1403,-145.7063"/>
<polygon fill="#191970" stroke="#191970" points="1446.6762,-149.1701 1456.2739,-144.6829 1445.9728,-142.2055 1446.6762,-149.1701"/>
</g>
<!-- Node18&#45;&gt;Node16 -->
<g id="edge24" class="edge">
<title>Node18&#45;&gt;Node16</title>
<path fill="none" stroke="#191970" d="M1038.3244,-128.8649C1012.884,-118.957 972.5745,-102.7864 938.5,-87 937.5159,-86.5441 936.5174,-86.0731 935.5117,-85.5917"/>
<polygon fill="#191970" stroke="#191970" points="936.9738,-82.41 926.4605,-81.0982 933.8611,-88.6799 936.9738,-82.41"/>
</g>
<!-- Node19 -->
<g id="node20" class="node">
<title>Node19</title>
<polygon fill="none" stroke="#bfbfbf" points="947.5,-62 947.5,-81 991.5,-81 991.5,-62 947.5,-62"/>
<text text-anchor="middle" x="969.5" y="-69" font-family="Helvetica,sans-Serif" font-size="10.00" fill="#000000">string</text>
</g>
<!-- Node18&#45;&gt;Node19 -->
<g id="edge25" class="edge">
<title>Node18&#45;&gt;Node19</title>
<path fill="none" stroke="#191970" d="M1050.0321,-128.9005C1034.6756,-117.9549 1009.3537,-99.9064 991.2024,-86.9688"/>
<polygon fill="#191970" stroke="#191970" points="993.1176,-84.0358 982.9429,-81.0817 989.0546,-89.736 993.1176,-84.0358"/>
</g>
<!-- Node20&#45;&gt;Node11 -->
<g id="edge34" class="edge">
<title>Node20&#45;&gt;Node11</title>
<path fill="none" stroke="#191970" d="M1456.1115,-136.2373C1344.377,-131.4083 1112.4925,-117.9091 1038.5,-87 1018.3883,-78.5987 1020.3084,-65.0934 1000.5,-56 962.2916,-38.4598 844.7919,-22.2715 782.3955,-14.6242"/>
<polygon fill="#191970" stroke="#191970" points="782.4936,-11.1107 772.1456,-13.3842 781.6528,-18.06 782.4936,-11.1107"/>
</g>
<!-- Node20&#45;&gt;Node12 -->
<g id="edge36" class="edge">
<title>Node20&#45;&gt;Node12</title>
<path fill="none" stroke="#191970" d="M1456.4233,-136.273C1318.5306,-130.8092 986.6954,-115.0973 878.5,-87 876.3063,-86.4303 874.0781,-85.7274 871.8657,-84.9383"/>
<polygon fill="#191970" stroke="#191970" points="873.0037,-81.6223 862.4232,-81.0724 870.3514,-88.1004 873.0037,-81.6223"/>
</g>
<!-- Node21 -->
<g id="node22" class="node">
<title>Node21</title>
<polygon fill="none" stroke="#bfbfbf" points="1047.5,-56.5 1047.5,-86.5 1211.5,-86.5 1211.5,-56.5 1047.5,-56.5"/>
<text text-anchor="start" x="1055.5" y="-74.5" font-family="Helvetica,sans-Serif" font-size="10.00" fill="#000000">Math/GenVector/Displacement</text>
<text text-anchor="middle" x="1129.5" y="-63.5" font-family="Helvetica,sans-Serif" font-size="10.00" fill="#000000">Vector3D.h</text>
</g>
<!-- Node20&#45;&gt;Node21 -->
<g id="edge27" class="edge">
<title>Node20&#45;&gt;Node21</title>
<path fill="none" stroke="#191970" d="M1462.3211,-128.9717C1399.6495,-118.1495 1296.3881,-100.3183 1221.484,-87.3838"/>
<polygon fill="#191970" stroke="#191970" points="1222.0224,-83.9251 1211.5727,-85.6723 1220.8312,-90.823 1222.0224,-83.9251"/>
</g>
<!-- Node22 -->
<g id="node23" class="node">
<title>Node22</title>
<polygon fill="none" stroke="#bfbfbf" points="1230,-62 1230,-81 1419,-81 1419,-62 1230,-62"/>
<text text-anchor="middle" x="1324.5" y="-69" font-family="Helvetica,sans-Serif" font-size="10.00" fill="#000000">Math/GenVector/PositionVector3D.h</text>
</g>
<!-- Node20&#45;&gt;Node22 -->
<g id="edge28" class="edge">
<title>Node20&#45;&gt;Node22</title>
<path fill="none" stroke="#191970" d="M1489.8478,-128.9005C1456.1682,-117.2086 1399.1426,-97.4122 1361.6528,-84.3976"/>
<polygon fill="#191970" stroke="#191970" points="1362.6957,-81.0548 1352.1009,-81.0817 1360.4,-87.6677 1362.6957,-81.0548"/>
</g>
<!-- Node23 -->
<g id="node24" class="node">
<title>Node23</title>
<polygon fill="none" stroke="#bfbfbf" points="1437.5,-62 1437.5,-81 1597.5,-81 1597.5,-62 1437.5,-62"/>
<text text-anchor="middle" x="1517.5" y="-69" font-family="Helvetica,sans-Serif" font-size="10.00" fill="#000000">Math/GenVector/Rotation3D.h</text>
</g>
<!-- Node20&#45;&gt;Node23 -->
<g id="edge29" class="edge">
<title>Node20&#45;&gt;Node23</title>
<path fill="none" stroke="#191970" d="M1517.5,-128.9005C1517.5,-119.149 1517.5,-103.7597 1517.5,-91.3695"/>
<polygon fill="#191970" stroke="#191970" points="1521.0001,-91.0816 1517.5,-81.0817 1514.0001,-91.0817 1521.0001,-91.0816"/>
</g>
<!-- Node24 -->
<g id="node25" class="node">
<title>Node24</title>
<polygon fill="none" stroke="#bfbfbf" points="1615.5,-62 1615.5,-81 1783.5,-81 1783.5,-62 1615.5,-62"/>
<text text-anchor="middle" x="1699.5" y="-69" font-family="Helvetica,sans-Serif" font-size="10.00" fill="#000000">Math/GenVector/Transform3D.h</text>
</g>
<!-- Node20&#45;&gt;Node24 -->
<g id="edge30" class="edge">
<title>Node20&#45;&gt;Node24</title>
<path fill="none" stroke="#191970" d="M1543.5762,-128.9005C1575.2011,-117.2584 1628.6544,-97.5805 1664.0124,-84.5641"/>
<polygon fill="#191970" stroke="#191970" points="1665.297,-87.8209 1673.4722,-81.0817 1662.8787,-81.2519 1665.297,-87.8209"/>
</g>
<!-- Node25 -->
<g id="node26" class="node">
<title>Node25</title>
<polygon fill="none" stroke="#bfbfbf" points="1802,-62 1802,-81 1975,-81 1975,-62 1802,-62"/>
<text text-anchor="middle" x="1888.5" y="-69" font-family="Helvetica,sans-Serif" font-size="10.00" fill="#000000">Math/GenVector/Translation3D.h</text>
</g>
<!-- Node20&#45;&gt;Node25 -->
<g id="edge31" class="edge">
<title>Node20&#45;&gt;Node25</title>
<path fill="none" stroke="#191970" d="M1570.2613,-128.9717C1637.474,-116.8335 1753.511,-95.8781 1825.3529,-82.9039"/>
<polygon fill="#191970" stroke="#191970" points="1826.402,-86.2712 1835.6207,-81.0496 1825.1579,-79.3826 1826.402,-86.2712"/>
</g>
<!-- Node26 -->
<g id="node27" class="node">
<title>Node26</title>
<polygon fill="none" stroke="#bfbfbf" points="1993.5,-56.5 1993.5,-86.5 2157.5,-86.5 2157.5,-56.5 1993.5,-56.5"/>
<text text-anchor="start" x="2001.5" y="-74.5" font-family="Helvetica,sans-Serif" font-size="10.00" fill="#000000">Math/GenVector/Displacement</text>
<text text-anchor="middle" x="2075.5" y="-63.5" font-family="Helvetica,sans-Serif" font-size="10.00" fill="#000000">Vector2D.h</text>
</g>
<!-- Node20&#45;&gt;Node26 -->
<g id="edge32" class="edge">
<title>Node20&#45;&gt;Node26</title>
<path fill="none" stroke="#191970" d="M1578.8394,-132.8971C1666.3242,-124.6484 1832.1823,-108.0582 1983.2647,-87.1274"/>
<polygon fill="#191970" stroke="#191970" points="1983.7733,-90.5904 1993.1939,-85.7425 1982.8062,-83.6576 1983.7733,-90.5904"/>
</g>
<!-- Node27 -->
<g id="node28" class="node">
<title>Node27</title>
<polygon fill="none" stroke="#bfbfbf" points="2176,-62 2176,-81 2365,-81 2365,-62 2176,-62"/>
<text text-anchor="middle" x="2270.5" y="-69" font-family="Helvetica,sans-Serif" font-size="10.00" fill="#000000">Math/GenVector/PositionVector2D.h</text>
</g>
<!-- Node20&#45;&gt;Node27 -->
<g id="edge33" class="edge">
<title>Node20&#45;&gt;Node27</title>
<path fill="none" stroke="#191970" d="M1578.9289,-135.0377C1694.2997,-128.2218 1951.1654,-111.5608 2166.5,-87 2177.7926,-85.712 2189.744,-84.1336 2201.3658,-82.4824"/>
<polygon fill="#191970" stroke="#191970" points="2202.0746,-85.9163 2211.4691,-81.018 2201.0704,-78.9887 2202.0746,-85.9163"/>
</g>
<!-- Node28 -->
<g id="node29" class="node">
<title>Node28</title>
<polygon fill="none" stroke="#bfbfbf" points="2383.5,-62 2383.5,-81 2465.5,-81 2465.5,-62 2383.5,-62"/>
<text text-anchor="middle" x="2424.5" y="-69" font-family="Helvetica,sans-Serif" font-size="10.00" fill="#000000">TGeoMatrix.h</text>
</g>
<!-- Node20&#45;&gt;Node28 -->
<g id="edge35" class="edge">
<title>Node20&#45;&gt;Node28</title>
<path fill="none" stroke="#191970" d="M1578.6655,-136.7358C1748.1611,-131.5428 2221.448,-114.9004 2374.5,-87 2378.9452,-86.1897 2383.5498,-85.1094 2388.084,-83.8947"/>
<polygon fill="#191970" stroke="#191970" points="2389.1803,-87.2211 2397.809,-81.0732 2387.2298,-80.4983 2389.1803,-87.2211"/>
</g>
</g>
</svg>
        <g id="navigator" transform="translate(0 0)" fill="#404254">
                <rect fill="#f2f5e9" fill-opacity="0.5" stroke="#606060" stroke-width=".5" x="0" y="0" width="60" height="60"/>
                <use id="zoomplus" xlink:href="#zoomPlus" x="17" y="9" onmousedown="handleZoom(evt,'in')"/>
                <use id="zoomminus" xlink:href="#zoomMin" x="42" y="9" onmousedown="handleZoom(evt,'out')"/>
                <use id="reset" xlink:href="#resetDef" x="30" y="36" onmousedown="handleReset()"/>
                <g id="arrowUp" xlink:href="#dirArrow" transform="translate(30 24)" onmousedown="handlePan(0,-1)">
                  <use xlink:href="#rim" fill="#404040">
                        <set attributeName="fill" to="#808080" begin="arrowUp.mouseover" end="arrowUp.mouseout"/>
                  </use>
                  <path fill="none" stroke="white" stroke-width="1.5" d="M0,-3.0v7 M-2.5,-0.5L0,-3.0L2.5,-0.5"/>
                </g>
                <g id="arrowRight" xlink:href="#dirArrow" transform="rotate(90) translate(36 -43)" onmousedown="handlePan(1,0)">
                  <use xlink:href="#rim" fill="#404040">
                        <set attributeName="fill" to="#808080" begin="arrowRight.mouseover" end="arrowRight.mouseout"/>
                  </use>
                  <path fill="none" stroke="white" stroke-width="1.5" d="M0,-3.0v7 M-2.5,-0.5L0,-3.0L2.5,-0.5"/>
                </g>
                <g id="arrowDown" xlink:href="#dirArrow" transform="rotate(180) translate(-30 -48)" onmousedown="handlePan(0,1)">
                  <use xlink:href="#rim" fill="#404040">
                        <set attributeName="fill" to="#808080" begin="arrowDown.mouseover" end="arrowDown.mouseout"/>
                  </use>
                  <path fill="none" stroke="white" stroke-width="1.5" d="M0,-3.0v7 M-2.5,-0.5L0,-3.0L2.5,-0.5"/>
                </g>
                <g id="arrowLeft" xlink:href="#dirArrow" transform="rotate(270) translate(-36 17)" onmousedown="handlePan(-1,0)">
                  <use xlink:href="#rim" fill="#404040">
                        <set attributeName="fill" to="#808080" begin="arrowLeft.mouseover" end="arrowLeft.mouseout"/>
                  </use>
                  <path fill="none" stroke="white" stroke-width="1.5" d="M0,-3.0v7 M-2.5,-0.5L0,-3.0L2.5,-0.5"/>
                </g>
        </g>
        <svg viewBox="0 0 15 15" width="100%" height="30px" preserveAspectRatio="xMaxYMin meet">
         <g id="arrow_out" transform="scale(0.3 0.3)">
          <a xlink:href="MUON_2MID_2Tracking_2src_2Tracker_8cxx__incl_org.svg" target="_base">
           <rect id="button" ry="5" rx="5" y="6" x="6" height="38" width="38"
                fill="#f2f5e9" fill-opacity="0.5" stroke="#606060" stroke-width="1.0"/>
           <path id="arrow"
             d="M 11.500037,31.436501 C 11.940474,20.09759 22.043105,11.32322 32.158766,21.979434 L 37.068811,17.246167 C 37.068811,17.246167 37.088388,32 37.088388,32 L 22.160133,31.978069 C 22.160133,31.978069 26.997745,27.140456 26.997745,27.140456 C 18.528582,18.264221 13.291696,25.230495 11.500037,31.436501 z"
             style="fill:#404040;"/>
          </a>
         </g>
        </svg>
</svg>
