<?xml version="1.0" encoding="UTF-8" standalone="no"?>
<!DOCTYPE svg PUBLIC "-//W3C//DTD SVG 1.1//EN"
 "http://www.w3.org/Graphics/SVG/1.1/DTD/svg11.dtd">
<!-- Generated by graphviz version 2.40.1 (20161225.0304)
 -->
<!-- Title: /home/travis/build/AliceO2Group/AliceO2/Detectors/ITSMFT/MFT/base/src/Ladder.cxx Pages: 1 -->
<!--zoomable 318 -->
<svg id="main" version="1.1" xmlns="http://www.w3.org/2000/svg" xmlns:xlink="http://www.w3.org/1999/xlink" xml:space="preserve" onload="init(evt)">
<style type="text/css"><![CDATA[
.edge:hover path { stroke: red; }
.edge:hover polygon { stroke: red; fill: red; }
]]></style>
<script type="text/javascript"><![CDATA[
var edges = document.getElementsByTagName('g');
if (edges && edges.length) {
  for (var i=0;i<edges.length;i++) {
    if (edges[i].id.substr(0,4)=='edge') {
      edges[i].setAttribute('class','edge');
    }
  }
}
]]></script>
        <defs>
                <circle id="rim" cx="0" cy="0" r="7"/>
                <circle id="rim2" cx="0" cy="0" r="3.5"/>
                <g id="zoomPlus">
                        <use xlink:href="#rim" fill="#404040">
                                <set attributeName="fill" to="#808080" begin="zoomplus.mouseover" end="zoomplus.mouseout"/>
                        </use>
                        <path d="M-4,0h8M0,-4v8" fill="none" stroke="white" stroke-width="1.5" pointer-events="none"/>
                </g>
                <g id="zoomMin">
                        <use xlink:href="#rim" fill="#404040">
                                <set attributeName="fill" to="#808080" begin="zoomminus.mouseover" end="zoomminus.mouseout"/>
                        </use>
                        <path d="M-4,0h8" fill="none" stroke="white" stroke-width="1.5" pointer-events="none"/>
                </g>
                <g id="dirArrow">
                        <path fill="none" stroke="white" stroke-width="1.5" d="M0,-3.0v7 M-2.5,-0.5L0,-3.0L2.5,-0.5"/>
                </g>
               <g id="resetDef">
                       <use xlink:href="#rim2" fill="#404040">
                               <set attributeName="fill" to="#808080" begin="reset.mouseover" end="reset.mouseout"/>
                       </use>
               </g>
        </defs>

<script type="text/javascript">
var viewWidth = 2347;
var viewHeight = 318;
var sectionId = 'dynsection-0';
</script>
<script xlink:href="../../svgpan.js"/>
<svg id="graph" class="graph">
<g id="viewport">
<title>/home/travis/build/AliceO2Group/AliceO2/Detectors/ITSMFT/MFT/base/src/Ladder.cxx</title>
<!-- Node0 -->
<g id="node1" class="node">
<title>Node0</title>
<polygon fill="#bfbfbf" stroke="#000000" points="955.2844,-257.5 955.2844,-309.5 1082.2844,-309.5 1082.2844,-257.5 955.2844,-257.5"/>
<text text-anchor="start" x="963.2844" y="-297.5" font-family="Helvetica,sans-Serif" font-size="10.00" fill="#000000">/home/travis/build</text>
<text text-anchor="start" x="963.2844" y="-286.5" font-family="Helvetica,sans-Serif" font-size="10.00" fill="#000000">/AliceO2Group/AliceO2</text>
<text text-anchor="start" x="963.2844" y="-275.5" font-family="Helvetica,sans-Serif" font-size="10.00" fill="#000000">/Detectors/ITSMFT/MFT</text>
<text text-anchor="middle" x="1018.7844" y="-264.5" font-family="Helvetica,sans-Serif" font-size="10.00" fill="#000000">/base/src/Ladder.cxx</text>
</g>
<!-- Node1 -->
<g id="node2" class="node">
<title>Node1</title>
<polygon fill="none" stroke="#bfbfbf" points="61.7844,-6 61.7844,-25 143.7844,-25 143.7844,-6 61.7844,-6"/>
<text text-anchor="middle" x="102.7844" y="-13" font-family="Helvetica,sans-Serif" font-size="10.00" fill="#000000">TGeoMatrix.h</text>
</g>
<!-- Node0&#45;&gt;Node1 -->
<g id="edge1" class="edge">
<title>Node0&#45;&gt;Node1</title>
<path fill="none" stroke="#191970" d="M955.0952,-282.296C837.5484,-278.9957 579.1154,-266.6954 366.7844,-221 201.0765,-185.3383 104.4372,-235.835 5.7844,-98 -2.2345,-86.7962 -1.3153,-78.8077 5.7844,-67 16.7949,-48.688 36.7539,-36.5394 55.7169,-28.6672"/>
<polygon fill="#191970" stroke="#191970" points="57.1101,-31.8816 65.195,-25.0343 54.6047,-25.3453 57.1101,-31.8816"/>
</g>
<!-- Node2 -->
<g id="node3" class="node">
<title>Node2</title>
<polygon fill="none" stroke="#bfbfbf" points="346.7844,-140 346.7844,-159 438.7844,-159 438.7844,-140 346.7844,-140"/>
<text text-anchor="middle" x="392.7844" y="-147" font-family="Helvetica,sans-Serif" font-size="10.00" fill="#000000">TGeoManager.h</text>
</g>
<!-- Node0&#45;&gt;Node2 -->
<g id="edge2" class="edge">
<title>Node0&#45;&gt;Node2</title>
<path fill="none" stroke="#191970" d="M955.1138,-282.0544C800.5236,-277.8887 415.1862,-263.3218 376.7844,-221 363.7598,-206.6459 371.9086,-184.0483 380.6397,-168.1059"/>
<polygon fill="#191970" stroke="#191970" points="383.8511,-169.5541 385.9671,-159.1727 377.839,-165.9686 383.8511,-169.5541"/>
</g>
<!-- Node3 -->
<g id="node4" class="node">
<title>Node3</title>
<polygon fill="none" stroke="#bfbfbf" points="386.2844,-201.5 386.2844,-220.5 463.2844,-220.5 463.2844,-201.5 386.2844,-201.5"/>
<text text-anchor="middle" x="424.7844" y="-208.5" font-family="Helvetica,sans-Serif" font-size="10.00" fill="#000000">TGeoBBox.h</text>
</g>
<!-- Node0&#45;&gt;Node3 -->
<g id="edge3" class="edge">
<title>Node0&#45;&gt;Node3</title>
<path fill="none" stroke="#191970" d="M955.0566,-278.1106C854.7486,-269.2078 653.7716,-249.6748 473.4329,-220.9762"/>
<polygon fill="#191970" stroke="#191970" points="473.9288,-217.511 463.5006,-219.3828 472.82,-224.4227 473.9288,-217.511"/>
</g>
<!-- Node4 -->
<g id="node5" class="node">
<title>Node4</title>
<polygon fill="none" stroke="#bfbfbf" points="481.7844,-201.5 481.7844,-220.5 555.7844,-220.5 555.7844,-201.5 481.7844,-201.5"/>
<text text-anchor="middle" x="518.7844" y="-208.5" font-family="Helvetica,sans-Serif" font-size="10.00" fill="#000000">TGeoTube.h</text>
</g>
<!-- Node0&#45;&gt;Node4 -->
<g id="edge4" class="edge">
<title>Node0&#45;&gt;Node4</title>
<path fill="none" stroke="#191970" d="M955.0066,-276.2961C868.9129,-266.2212 710.5679,-246.4576 565.8459,-221.0826"/>
<polygon fill="#191970" stroke="#191970" points="566.3491,-217.6174 555.8927,-219.3246 565.1315,-224.5107 566.3491,-217.6174"/>
</g>
<!-- Node5 -->
<g id="node6" class="node">
<title>Node5</title>
<polygon fill="none" stroke="#bfbfbf" points="573.7844,-201.5 573.7844,-220.5 707.7844,-220.5 707.7844,-201.5 573.7844,-201.5"/>
<text text-anchor="middle" x="640.7844" y="-208.5" font-family="Helvetica,sans-Serif" font-size="10.00" fill="#000000">TGeoCompositeShape.h</text>
</g>
<!-- Node0&#45;&gt;Node5 -->
<g id="edge5" class="edge">
<title>Node0&#45;&gt;Node5</title>
<path fill="none" stroke="#191970" d="M955.0893,-271.2833C883.9972,-257.648 769.8553,-235.7557 700.4439,-222.4426"/>
<polygon fill="#191970" stroke="#191970" points="701.0182,-218.9891 690.5379,-220.5427 699.6996,-225.8638 701.0182,-218.9891"/>
</g>
<!-- Node6 -->
<g id="node7" class="node">
<title>Node6</title>
<polygon fill="none" stroke="#bfbfbf" points="725.7844,-201.5 725.7844,-220.5 823.7844,-220.5 823.7844,-201.5 725.7844,-201.5"/>
<text text-anchor="middle" x="774.7844" y="-208.5" font-family="Helvetica,sans-Serif" font-size="10.00" fill="#000000">TGeoBoolNode.h</text>
</g>
<!-- Node0&#45;&gt;Node6 -->
<g id="edge6" class="edge">
<title>Node0&#45;&gt;Node6</title>
<path fill="none" stroke="#191970" d="M954.9949,-264.5462C911.3136,-251.5671 854.6282,-234.7241 816.5999,-223.4247"/>
<polygon fill="#191970" stroke="#191970" points="817.4574,-220.0283 806.8746,-220.535 815.4635,-226.7384 817.4574,-220.0283"/>
</g>
<!-- Node7 -->
<g id="node8" class="node">
<title>Node7</title>
<polygon fill="none" stroke="#bfbfbf" points="842.2844,-201.5 842.2844,-220.5 917.2844,-220.5 917.2844,-201.5 842.2844,-201.5"/>
<text text-anchor="middle" x="879.7844" y="-208.5" font-family="Helvetica,sans-Serif" font-size="10.00" fill="#000000">FairLogger.h</text>
</g>
<!-- Node0&#45;&gt;Node7 -->
<g id="edge7" class="edge">
<title>Node0&#45;&gt;Node7</title>
<path fill="none" stroke="#191970" d="M968.6022,-257.3258C947.8685,-246.5115 924.6432,-234.3976 907.1439,-225.2703"/>
<polygon fill="#191970" stroke="#191970" points="908.5484,-222.0554 898.0633,-220.534 905.3112,-228.2619 908.5484,-222.0554"/>
</g>
<!-- Node8 -->
<g id="node9" class="node">
<title>Node8</title>
<g id="a_node9"><a xlink:href="../../da/d2d/AlpideChip_8h.html" target="_top" xlink:title="Creates an ALPIDE chip in simulation. ">
<polygon fill="none" stroke="#000000" points="934.7844,-201.5 934.7844,-220.5 1102.7844,-220.5 1102.7844,-201.5 934.7844,-201.5"/>
<text text-anchor="middle" x="1018.7844" y="-208.5" font-family="Helvetica,sans-Serif" font-size="10.00" fill="#000000">ITSMFTSimulation/AlpideChip.h</text>
</a>
</g>
</g>
<!-- Node0&#45;&gt;Node8 -->
<g id="edge8" class="edge">
<title>Node0&#45;&gt;Node8</title>
<path fill="none" stroke="#191970" d="M1018.7844,-257.3258C1018.7844,-248.5142 1018.7844,-238.8397 1018.7844,-230.621"/>
<polygon fill="#191970" stroke="#191970" points="1022.2845,-230.534 1018.7844,-220.534 1015.2845,-230.534 1022.2845,-230.534"/>
</g>
<!-- Node10 -->
<g id="node11" class="node">
<title>Node10</title>
<g id="a_node11"><a xlink:href="../../d3/dba/SegmentationAlpide_8h.html" target="_top" xlink:title="Definition of the SegmentationAlpide class. ">
<polygon fill="none" stroke="#000000" points="1120.7844,-201.5 1120.7844,-220.5 1306.7844,-220.5 1306.7844,-201.5 1120.7844,-201.5"/>
<text text-anchor="middle" x="1213.7844" y="-208.5" font-family="Helvetica,sans-Serif" font-size="10.00" fill="#000000">ITSMFTBase/SegmentationAlpide.h</text>
</a>
</g>
</g>
<!-- Node0&#45;&gt;Node10 -->
<g id="edge11" class="edge">
<title>Node0&#45;&gt;Node10</title>
<path fill="none" stroke="#191970" d="M1082.3648,-259.8611C1114.2956,-247.9894 1151.7712,-234.0562 1178.515,-224.113"/>
<polygon fill="#191970" stroke="#191970" points="1180.052,-227.2757 1188.2054,-220.5101 1177.6126,-220.7145 1180.052,-227.2757"/>
</g>
<!-- Node20 -->
<g id="node21" class="node">
<title>Node20</title>
<g id="a_node21"><a xlink:href="../../d9/de7/LadderSegmentation_8h.html" target="_top" xlink:title="Description of the virtual segmentation of a ladder. ">
<polygon fill="none" stroke="#000000" points="1325.2844,-201.5 1325.2844,-220.5 1498.2844,-220.5 1498.2844,-201.5 1325.2844,-201.5"/>
<text text-anchor="middle" x="1411.7844" y="-208.5" font-family="Helvetica,sans-Serif" font-size="10.00" fill="#000000">MFTBase/LadderSegmentation.h</text>
</a>
</g>
</g>
<!-- Node0&#45;&gt;Node20 -->
<g id="edge24" class="edge">
<title>Node0&#45;&gt;Node20</title>
<path fill="none" stroke="#191970" d="M1082.3634,-271.771C1156.2271,-258.1448 1277.2627,-235.8163 1350.2448,-222.3527"/>
<polygon fill="#191970" stroke="#191970" points="1351.015,-225.7698 1360.214,-220.5136 1349.745,-218.8859 1351.015,-225.7698"/>
</g>
<!-- Node25 -->
<g id="node26" class="node">
<title>Node25</title>
<g id="a_node26"><a xlink:href="../../d3/dbd/ChipSegmentation_8h.html" target="_top" xlink:title="Chip (sensor) segmentation description. ">
<polygon fill="none" stroke="#000000" points="1510.7844,-140 1510.7844,-159 1672.7844,-159 1672.7844,-140 1510.7844,-140"/>
<text text-anchor="middle" x="1591.7844" y="-147" font-family="Helvetica,sans-Serif" font-size="10.00" fill="#000000">MFTBase/ChipSegmentation.h</text>
</a>
</g>
</g>
<!-- Node0&#45;&gt;Node25 -->
<g id="edge32" class="edge">
<title>Node0&#45;&gt;Node25</title>
<path fill="none" stroke="#191970" d="M1082.2938,-279.8243C1196.5874,-272.479 1431.9863,-253.8092 1506.7844,-221 1535.1635,-208.5518 1561.4084,-183.5566 1577.0154,-166.6724"/>
<polygon fill="#191970" stroke="#191970" points="1579.7128,-168.9068 1583.7851,-159.1259 1574.5022,-164.2325 1579.7128,-168.9068"/>
</g>
<!-- Node26 -->
<g id="node27" class="node">
<title>Node26</title>
<g id="a_node27"><a xlink:href="../../d2/d8d/Flex_8h.html" target="_top" xlink:title="Flex (Printed Cabled Board) class for ALICE MFT upgrade. ">
<polygon fill="none" stroke="#000000" points="1554.7844,-201.5 1554.7844,-220.5 1646.7844,-220.5 1646.7844,-201.5 1554.7844,-201.5"/>
<text text-anchor="middle" x="1600.7844" y="-208.5" font-family="Helvetica,sans-Serif" font-size="10.00" fill="#000000">MFTBase/Flex.h</text>
</a>
</g>
</g>
<!-- Node0&#45;&gt;Node26 -->
<g id="edge33" class="edge">
<title>Node0&#45;&gt;Node26</title>
<path fill="none" stroke="#191970" d="M1082.3873,-276.8385C1180.8133,-266.3147 1375.8927,-244.5996 1540.7844,-221 1542.0486,-220.8191 1543.3273,-220.6329 1544.6163,-220.4424"/>
<polygon fill="#191970" stroke="#191970" points="1545.2732,-223.8827 1554.6298,-218.9122 1544.2158,-216.9631 1545.2732,-223.8827"/>
</g>
<!-- Node27 -->
<g id="node28" class="node">
<title>Node27</title>
<g id="a_node28"><a xlink:href="../../d0/d12/Ladder_8h.html" target="_top" xlink:title="Class building the Ladder geometry. ">
<polygon fill="none" stroke="#000000" points="1664.7844,-201.5 1664.7844,-220.5 1768.7844,-220.5 1768.7844,-201.5 1664.7844,-201.5"/>
<text text-anchor="middle" x="1716.7844" y="-208.5" font-family="Helvetica,sans-Serif" font-size="10.00" fill="#000000">MFTBase/Ladder.h</text>
</a>
</g>
</g>
<!-- Node0&#45;&gt;Node27 -->
<g id="edge34" class="edge">
<title>Node0&#45;&gt;Node27</title>
<path fill="none" stroke="#191970" d="M1082.6818,-278.6071C1195.815,-269.6425 1438.9631,-249.0218 1654.3394,-221.1211"/>
<polygon fill="#191970" stroke="#191970" points="1655.1101,-224.5504 1664.5738,-219.787 1654.2052,-217.6091 1655.1101,-224.5504"/>
</g>
<!-- Node29 -->
<g id="node30" class="node">
<title>Node29</title>
<g id="a_node30"><a xlink:href="../../d6/d2e/ITSMFT_2MFT_2base_2include_2MFTBase_2Geometry_8h.html" target="_top" xlink:title="MFTBase/Geometry.h">
<polygon fill="none" stroke="#000000" points="1843.2844,-140 1843.2844,-159 1962.2844,-159 1962.2844,-140 1843.2844,-140"/>
<text text-anchor="middle" x="1902.7844" y="-147" font-family="Helvetica,sans-Serif" font-size="10.00" fill="#000000">MFTBase/Geometry.h</text>
</a>
</g>
</g>
<!-- Node0&#45;&gt;Node29 -->
<g id="edge37" class="edge">
<title>Node0&#45;&gt;Node29</title>
<path fill="none" stroke="#191970" d="M1082.3192,-281.8112C1240.5004,-277.0413 1648.5077,-261.113 1777.7844,-221 1817.5893,-208.649 1858.5586,-182.0647 1882.297,-165.0213"/>
<polygon fill="#191970" stroke="#191970" points="1884.5119,-167.7375 1890.5129,-159.006 1880.3767,-162.0895 1884.5119,-167.7375"/>
</g>
<!-- Node30 -->
<g id="node31" class="node">
<title>Node30</title>
<g id="a_node31"><a xlink:href="../../d1/d04/MFTBaseParam_8h.html" target="_top" xlink:title="MFTBase/MFTBaseParam.h">
<polygon fill="none" stroke="#000000" points="1924.7844,-201.5 1924.7844,-220.5 2070.7844,-220.5 2070.7844,-201.5 1924.7844,-201.5"/>
<text text-anchor="middle" x="1997.7844" y="-208.5" font-family="Helvetica,sans-Serif" font-size="10.00" fill="#000000">MFTBase/MFTBaseParam.h</text>
</a>
</g>
</g>
<!-- Node0&#45;&gt;Node30 -->
<g id="edge39" class="edge">
<title>Node0&#45;&gt;Node30</title>
<path fill="none" stroke="#191970" d="M1082.5015,-278.9017C1223.9673,-268.6734 1574.9801,-243.1893 1868.7844,-221 1883.4349,-219.8935 1899.0199,-218.6997 1914.1055,-217.5353"/>
<polygon fill="#191970" stroke="#191970" points="1914.7516,-220.9959 1924.452,-216.7354 1914.2119,-214.0168 1914.7516,-220.9959"/>
</g>
<!-- Node8&#45;&gt;Node2 -->
<g id="edge9" class="edge">
<title>Node8&#45;&gt;Node2</title>
<path fill="none" stroke="#191970" d="M934.6391,-201.911C931.651,-201.6013 928.6923,-201.2968 925.7844,-201 752.0017,-183.2617 546.1762,-163.8174 448.9724,-154.728"/>
<polygon fill="#191970" stroke="#191970" points="449.0685,-151.2219 438.7863,-153.7763 448.4173,-158.1915 449.0685,-151.2219"/>
</g>
<!-- Node9 -->
<g id="node10" class="node">
<title>Node9</title>
<polygon fill="none" stroke="#bfbfbf" points="15.2844,-73 15.2844,-92 74.2844,-92 74.2844,-73 15.2844,-73"/>
<text text-anchor="middle" x="44.7844" y="-80" font-family="Helvetica,sans-Serif" font-size="10.00" fill="#000000">Rtypes.h</text>
</g>
<!-- Node8&#45;&gt;Node9 -->
<g id="edge10" class="edge">
<title>Node8&#45;&gt;Node9</title>
<path fill="none" stroke="#191970" d="M938.3837,-201.4822C864.1773,-192.5583 750.9526,-178.5893 652.7844,-165 561.5078,-152.3647 539.1924,-145.6465 447.7844,-134 293.9778,-114.4032 253.1399,-126.7801 100.7844,-98 95.3945,-96.9818 89.7678,-95.6969 84.2481,-94.3045"/>
<polygon fill="#191970" stroke="#191970" points="85.0658,-90.9004 74.5024,-91.7164 83.2691,-97.6659 85.0658,-90.9004"/>
</g>
<!-- Node10&#45;&gt;Node9 -->
<g id="edge12" class="edge">
<title>Node10&#45;&gt;Node9</title>
<path fill="none" stroke="#191970" d="M1120.6759,-201.8417C1117.6772,-201.5564 1114.7073,-201.2751 1111.7844,-201 934.5143,-184.3134 888.8856,-191.296 712.7844,-165 646.3161,-155.0747 631.3136,-143.508 564.7844,-134 360.0229,-104.7367 304.5128,-133.7538 100.7844,-98 95.3817,-97.0518 89.7477,-95.8072 84.2244,-94.4348"/>
<polygon fill="#191970" stroke="#191970" points="85.0378,-91.0297 74.4757,-91.8629 83.2521,-97.7981 85.0378,-91.0297"/>
</g>
<!-- Node11 -->
<g id="node12" class="node">
<title>Node11</title>
<g id="a_node12"><a xlink:href="../../dc/d73/Cartesian_8h.html" target="_top" xlink:title="MathUtils/Cartesian.h">
<polygon fill="none" stroke="#000000" points="721.7844,-140 721.7844,-159 843.7844,-159 843.7844,-140 721.7844,-140"/>
<text text-anchor="middle" x="782.7844" y="-147" font-family="Helvetica,sans-Serif" font-size="10.00" fill="#000000">MathUtils/Cartesian.h</text>
</a>
</g>
</g>
<!-- Node10&#45;&gt;Node11 -->
<g id="edge13" class="edge">
<title>Node10&#45;&gt;Node11</title>
<path fill="none" stroke="#191970" d="M1146.9135,-201.4581C1067.4386,-190.1177 935.3799,-171.2741 854.0314,-159.6663"/>
<polygon fill="#191970" stroke="#191970" points="854.2741,-156.1656 843.8799,-158.2178 853.2852,-163.0954 854.2741,-156.1656"/>
</g>
<!-- Node11&#45;&gt;Node1 -->
<g id="edge22" class="edge">
<title>Node11&#45;&gt;Node1</title>
<path fill="none" stroke="#191970" d="M725.9811,-139.9777C711.2917,-137.76 695.4761,-135.5864 680.7844,-134 618.9043,-127.3184 169.2121,-138.3039 121.7844,-98 103.902,-82.8036 100.9349,-54.4715 101.2342,-35.2999"/>
<polygon fill="#191970" stroke="#191970" points="104.7336,-35.3903 101.6997,-25.2392 97.7411,-35.0667 104.7336,-35.3903"/>
</g>
<!-- Node11&#45;&gt;Node9 -->
<g id="edge21" class="edge">
<title>Node11&#45;&gt;Node9</title>
<path fill="none" stroke="#191970" d="M726.2519,-139.9818C711.4873,-137.7507 695.5679,-135.5695 680.7844,-134 418.6604,-106.1709 347.1419,-150.2956 88.7844,-98 85.1577,-97.2659 81.4241,-96.3001 77.7372,-95.2088"/>
<polygon fill="#191970" stroke="#191970" points="78.7849,-91.8691 68.1926,-92.0995 76.6167,-98.5249 78.7849,-91.8691"/>
</g>
<!-- Node12 -->
<g id="node13" class="node">
<title>Node12</title>
<polygon fill="none" stroke="#bfbfbf" points="130.7844,-67.5 130.7844,-97.5 294.7844,-97.5 294.7844,-67.5 130.7844,-67.5"/>
<text text-anchor="start" x="138.7844" y="-85.5" font-family="Helvetica,sans-Serif" font-size="10.00" fill="#000000">Math/GenVector/Displacement</text>
<text text-anchor="middle" x="212.7844" y="-74.5" font-family="Helvetica,sans-Serif" font-size="10.00" fill="#000000">Vector3D.h</text>
</g>
<!-- Node11&#45;&gt;Node12 -->
<g id="edge14" class="edge">
<title>Node11&#45;&gt;Node12</title>
<path fill="none" stroke="#191970" d="M723.8008,-139.9666C709.7261,-137.8498 694.7388,-135.7252 680.7844,-134 517.001,-113.7517 472.3697,-119.8911 305.2199,-98.1308"/>
<polygon fill="#191970" stroke="#191970" points="305.4543,-94.6315 295.0831,-96.7967 304.5409,-101.5717 305.4543,-94.6315"/>
</g>
<!-- Node13 -->
<g id="node14" class="node">
<title>Node13</title>
<polygon fill="none" stroke="#bfbfbf" points="313.2844,-73 313.2844,-92 502.2844,-92 502.2844,-73 313.2844,-73"/>
<text text-anchor="middle" x="407.7844" y="-80" font-family="Helvetica,sans-Serif" font-size="10.00" fill="#000000">Math/GenVector/PositionVector3D.h</text>
</g>
<!-- Node11&#45;&gt;Node13 -->
<g id="edge15" class="edge">
<title>Node11&#45;&gt;Node13</title>
<path fill="none" stroke="#191970" d="M729.4543,-139.9717C661.3777,-127.8087 543.7479,-106.7921 471.1665,-93.8243"/>
<polygon fill="#191970" stroke="#191970" points="471.6935,-90.3631 461.2338,-92.0496 470.4623,-97.254 471.6935,-90.3631"/>
</g>
<!-- Node14 -->
<g id="node15" class="node">
<title>Node14</title>
<polygon fill="none" stroke="#bfbfbf" points="520.7844,-73 520.7844,-92 680.7844,-92 680.7844,-73 520.7844,-73"/>
<text text-anchor="middle" x="600.7844" y="-80" font-family="Helvetica,sans-Serif" font-size="10.00" fill="#000000">Math/GenVector/Rotation3D.h</text>
</g>
<!-- Node11&#45;&gt;Node14 -->
<g id="edge16" class="edge">
<title>Node11&#45;&gt;Node14</title>
<path fill="none" stroke="#191970" d="M756.7082,-139.9005C725.0833,-128.2584 671.63,-108.5805 636.2719,-95.5641"/>
<polygon fill="#191970" stroke="#191970" points="637.4056,-92.2519 626.8122,-92.0817 634.9873,-98.8209 637.4056,-92.2519"/>
</g>
<!-- Node15 -->
<g id="node16" class="node">
<title>Node15</title>
<polygon fill="none" stroke="#bfbfbf" points="698.7844,-73 698.7844,-92 866.7844,-92 866.7844,-73 698.7844,-73"/>
<text text-anchor="middle" x="782.7844" y="-80" font-family="Helvetica,sans-Serif" font-size="10.00" fill="#000000">Math/GenVector/Transform3D.h</text>
</g>
<!-- Node11&#45;&gt;Node15 -->
<g id="edge17" class="edge">
<title>Node11&#45;&gt;Node15</title>
<path fill="none" stroke="#191970" d="M782.7844,-139.9005C782.7844,-130.149 782.7844,-114.7597 782.7844,-102.3695"/>
<polygon fill="#191970" stroke="#191970" points="786.2845,-102.0816 782.7844,-92.0817 779.2845,-102.0817 786.2845,-102.0816"/>
</g>
<!-- Node16 -->
<g id="node17" class="node">
<title>Node16</title>
<polygon fill="none" stroke="#bfbfbf" points="885.2844,-73 885.2844,-92 1058.2844,-92 1058.2844,-73 885.2844,-73"/>
<text text-anchor="middle" x="971.7844" y="-80" font-family="Helvetica,sans-Serif" font-size="10.00" fill="#000000">Math/GenVector/Translation3D.h</text>
</g>
<!-- Node11&#45;&gt;Node16 -->
<g id="edge18" class="edge">
<title>Node11&#45;&gt;Node16</title>
<path fill="none" stroke="#191970" d="M809.8635,-139.9005C842.7047,-128.2584 898.2139,-108.5805 934.9319,-95.5641"/>
<polygon fill="#191970" stroke="#191970" points="936.4997,-98.7218 944.7555,-92.0817 934.1608,-92.1241 936.4997,-98.7218"/>
</g>
<!-- Node17 -->
<g id="node18" class="node">
<title>Node17</title>
<polygon fill="none" stroke="#bfbfbf" points="1076.7844,-67.5 1076.7844,-97.5 1240.7844,-97.5 1240.7844,-67.5 1076.7844,-67.5"/>
<text text-anchor="start" x="1084.7844" y="-85.5" font-family="Helvetica,sans-Serif" font-size="10.00" fill="#000000">Math/GenVector/Displacement</text>
<text text-anchor="middle" x="1158.7844" y="-74.5" font-family="Helvetica,sans-Serif" font-size="10.00" fill="#000000">Vector2D.h</text>
</g>
<!-- Node11&#45;&gt;Node17 -->
<g id="edge19" class="edge">
<title>Node11&#45;&gt;Node17</title>
<path fill="none" stroke="#191970" d="M836.2567,-139.9717C896.0915,-129.3096 994.1055,-111.8444 1066.4057,-98.9611"/>
<polygon fill="#191970" stroke="#191970" points="1067.1994,-102.3749 1076.4303,-97.1748 1065.9713,-95.4834 1067.1994,-102.3749"/>
</g>
<!-- Node18 -->
<g id="node19" class="node">
<title>Node18</title>
<polygon fill="none" stroke="#bfbfbf" points="1259.2844,-73 1259.2844,-92 1448.2844,-92 1448.2844,-73 1259.2844,-73"/>
<text text-anchor="middle" x="1353.7844" y="-80" font-family="Helvetica,sans-Serif" font-size="10.00" fill="#000000">Math/GenVector/PositionVector2D.h</text>
</g>
<!-- Node11&#45;&gt;Node18 -->
<g id="edge20" class="edge">
<title>Node11&#45;&gt;Node18</title>
<path fill="none" stroke="#191970" d="M844.0693,-143.4936C933.408,-134.5671 1104.5845,-116.8194 1249.7844,-98 1260.3877,-96.6257 1271.583,-95.0689 1282.5444,-93.4851"/>
<polygon fill="#191970" stroke="#191970" points="1283.1326,-96.9364 1292.5216,-92.0274 1282.1206,-90.0099 1283.1326,-96.9364"/>
</g>
<!-- Node19 -->
<g id="node20" class="node">
<title>Node19</title>
<polygon fill="none" stroke="#bfbfbf" points="1466.2844,-73 1466.2844,-92 1515.2844,-92 1515.2844,-73 1466.2844,-73"/>
<text text-anchor="middle" x="1490.7844" y="-80" font-family="Helvetica,sans-Serif" font-size="10.00" fill="#000000">iosfwd</text>
</g>
<!-- Node11&#45;&gt;Node19 -->
<g id="edge23" class="edge">
<title>Node11&#45;&gt;Node19</title>
<path fill="none" stroke="#191970" d="M843.9793,-147.565C987.4013,-142.5885 1341.7863,-127.6087 1456.7844,-98 1458.9793,-97.4349 1461.2083,-96.7353 1463.4213,-95.9485"/>
<polygon fill="#191970" stroke="#191970" points="1464.9335,-99.1116 1472.865,-92.0873 1462.2842,-92.6322 1464.9335,-99.1116"/>
</g>
<!-- Node21 -->
<g id="node22" class="node">
<title>Node21</title>
<polygon fill="none" stroke="#bfbfbf" points="1262.2844,-140 1262.2844,-159 1351.2844,-159 1351.2844,-140 1262.2844,-140"/>
<text text-anchor="middle" x="1306.7844" y="-147" font-family="Helvetica,sans-Serif" font-size="10.00" fill="#000000">TClonesArray.h</text>
</g>
<!-- Node20&#45;&gt;Node21 -->
<g id="edge25" class="edge">
<title>Node20&#45;&gt;Node21</title>
<path fill="none" stroke="#191970" d="M1395.3781,-201.3906C1378.3491,-191.4165 1351.5003,-175.6908 1331.8193,-164.1633"/>
<polygon fill="#191970" stroke="#191970" points="1333.4732,-161.0759 1323.0754,-159.0419 1329.9353,-167.1161 1333.4732,-161.0759"/>
</g>
<!-- Node22 -->
<g id="node23" class="node">
<title>Node22</title>
<polygon fill="none" stroke="#bfbfbf" points="1369.2844,-140 1369.2844,-159 1454.2844,-159 1454.2844,-140 1369.2844,-140"/>
<text text-anchor="middle" x="1411.7844" y="-147" font-family="Helvetica,sans-Serif" font-size="10.00" fill="#000000">TXMLEngine.h</text>
</g>
<!-- Node20&#45;&gt;Node22 -->
<g id="edge26" class="edge">
<title>Node20&#45;&gt;Node22</title>
<path fill="none" stroke="#191970" d="M1411.7844,-201.3906C1411.7844,-192.8657 1411.7844,-180.1392 1411.7844,-169.4235"/>
<polygon fill="#191970" stroke="#191970" points="1415.2845,-169.2448 1411.7844,-159.2449 1408.2845,-169.2449 1415.2845,-169.2448"/>
</g>
<!-- Node23 -->
<g id="node24" class="node">
<title>Node23</title>
<g id="a_node24"><a xlink:href="../../d3/de7/VSegmentation_8h.html" target="_top" xlink:title="Abstract base class for MFT Segmentation description. ">
<polygon fill="none" stroke="#000000" points="1533.2844,-73 1533.2844,-92 1680.2844,-92 1680.2844,-73 1533.2844,-73"/>
<text text-anchor="middle" x="1606.7844" y="-80" font-family="Helvetica,sans-Serif" font-size="10.00" fill="#000000">MFTBase/VSegmentation.h</text>
</a>
</g>
</g>
<!-- Node20&#45;&gt;Node23 -->
<g id="edge27" class="edge">
<title>Node20&#45;&gt;Node23</title>
<path fill="none" stroke="#191970" d="M1422.4414,-201.2867C1442.4711,-183.1324 1485.2062,-144.9055 1501.7844,-134 1524.5846,-119.0015 1552.3888,-105.5554 1573.6566,-96.1664"/>
<polygon fill="#191970" stroke="#191970" points="1575.1444,-99.3361 1582.9268,-92.1469 1572.3598,-92.9138 1575.1444,-99.3361"/>
</g>
<!-- Node20&#45;&gt;Node25 -->
<g id="edge30" class="edge">
<title>Node20&#45;&gt;Node25</title>
<path fill="none" stroke="#191970" d="M1439.9094,-201.3906C1470.6871,-190.8749 1520.1764,-173.966 1554.2499,-162.3243"/>
<polygon fill="#191970" stroke="#191970" points="1555.5256,-165.5871 1563.8569,-159.0419 1553.2623,-158.9631 1555.5256,-165.5871"/>
</g>
<!-- Node23&#45;&gt;Node1 -->
<g id="edge29" class="edge">
<title>Node23&#45;&gt;Node1</title>
<path fill="none" stroke="#191970" d="M1562.599,-72.9911C1550.106,-70.6457 1536.4599,-68.4054 1523.7844,-67 1250.2561,-36.6727 375.2987,-20.1073 154.0126,-16.3366"/>
<polygon fill="#191970" stroke="#191970" points="154.0321,-12.8365 143.9743,-16.1667 153.9136,-19.8355 154.0321,-12.8365"/>
</g>
<!-- Node24 -->
<g id="node25" class="node">
<title>Node24</title>
<polygon fill="none" stroke="#bfbfbf" points="1649.2844,-6 1649.2844,-25 1716.2844,-25 1716.2844,-6 1649.2844,-6"/>
<text text-anchor="middle" x="1682.7844" y="-13" font-family="Helvetica,sans-Serif" font-size="10.00" fill="#000000">TNamed.h</text>
</g>
<!-- Node23&#45;&gt;Node24 -->
<g id="edge28" class="edge">
<title>Node23&#45;&gt;Node24</title>
<path fill="none" stroke="#191970" d="M1617.6733,-72.9005C1629.7506,-62.2535 1649.4515,-44.8856 1664.0243,-32.0385"/>
<polygon fill="#191970" stroke="#191970" points="1666.7289,-34.3201 1671.9156,-25.0817 1662.0998,-29.0692 1666.7289,-34.3201"/>
</g>
<!-- Node25&#45;&gt;Node23 -->
<g id="edge31" class="edge">
<title>Node25&#45;&gt;Node23</title>
<path fill="none" stroke="#191970" d="M1593.9335,-139.9005C1596.139,-130.0495 1599.6325,-114.4451 1602.4207,-101.9912"/>
<polygon fill="#191970" stroke="#191970" points="1605.8699,-102.6048 1604.6392,-92.0817 1599.039,-101.0754 1605.8699,-102.6048"/>
</g>
<!-- Node27&#45;&gt;Node24 -->
<g id="edge35" class="edge">
<title>Node27&#45;&gt;Node24</title>
<path fill="none" stroke="#191970" d="M1715.0983,-201.3051C1709.7959,-170.8163 1693.3869,-76.4646 1686.207,-35.1804"/>
<polygon fill="#191970" stroke="#191970" points="1689.6423,-34.5058 1684.4806,-25.2534 1682.7459,-35.7052 1689.6423,-34.5058"/>
</g>
<!-- Node28 -->
<g id="node29" class="node">
<title>Node28</title>
<polygon fill="none" stroke="#bfbfbf" points="1736.7844,-140 1736.7844,-159 1824.7844,-159 1824.7844,-140 1736.7844,-140"/>
<text text-anchor="middle" x="1780.7844" y="-147" font-family="Helvetica,sans-Serif" font-size="10.00" fill="#000000">TGeoVolume.h</text>
</g>
<!-- Node27&#45;&gt;Node28 -->
<g id="edge36" class="edge">
<title>Node27&#45;&gt;Node28</title>
<path fill="none" stroke="#191970" d="M1726.7844,-201.3906C1736.4963,-192.0581 1751.4483,-177.6902 1763.1585,-166.4374"/>
<polygon fill="#191970" stroke="#191970" points="1765.858,-168.6974 1770.6434,-159.2449 1761.0078,-163.65 1765.858,-168.6974"/>
</g>
<!-- Node29&#45;&gt;Node24 -->
<g id="edge38" class="edge">
<title>Node29&#45;&gt;Node24</title>
<path fill="none" stroke="#191970" d="M1886.9625,-139.8631C1848.9871,-116.7326 1752.4728,-57.9466 1707.0807,-30.2987"/>
<polygon fill="#191970" stroke="#191970" points="1708.8241,-27.2624 1698.4629,-25.0496 1705.1827,-33.2408 1708.8241,-27.2624"/>
</g>
<!-- Node31 -->
<g id="node32" class="node">
<title>Node31</title>
<g id="a_node32"><a xlink:href="../../db/d2c/ConfigurableParam_8h.html" target="_top" xlink:title="CommonUtils/Configurable\lParam.h">
<polygon fill="none" stroke="#000000" points="1923.7844,-67.5 1923.7844,-97.5 2071.7844,-97.5 2071.7844,-67.5 1923.7844,-67.5"/>
<text text-anchor="start" x="1931.7844" y="-85.5" font-family="Helvetica,sans-Serif" font-size="10.00" fill="#000000">CommonUtils/Configurable</text>
<text text-anchor="middle" x="1997.7844" y="-74.5" font-family="Helvetica,sans-Serif" font-size="10.00" fill="#000000">Param.h</text>
</a>
</g>
</g>
<!-- Node30&#45;&gt;Node31 -->
<g id="edge40" class="edge">
<title>Node30&#45;&gt;Node31</title>
<path fill="none" stroke="#191970" d="M1997.7844,-201.3416C1997.7844,-181.6745 1997.7844,-136.4221 1997.7844,-107.7784"/>
<polygon fill="#191970" stroke="#191970" points="2001.2845,-107.7016 1997.7844,-97.7016 1994.2845,-107.7016 2001.2845,-107.7016"/>
</g>
<!-- Node38 -->
<g id="node39" class="node">
<title>Node38</title>
<g id="a_node39"><a xlink:href="../../da/d6b/ConfigurableParamHelper_8h.html" target="_top" xlink:title="CommonUtils/Configurable\lParamHelper.h">
<polygon fill="none" stroke="#000000" points="2053.7844,-134.5 2053.7844,-164.5 2201.7844,-164.5 2201.7844,-134.5 2053.7844,-134.5"/>
<text text-anchor="start" x="2061.7844" y="-152.5" font-family="Helvetica,sans-Serif" font-size="10.00" fill="#000000">CommonUtils/Configurable</text>
<text text-anchor="middle" x="2127.7844" y="-141.5" font-family="Helvetica,sans-Serif" font-size="10.00" fill="#000000">ParamHelper.h</text>
</a>
</g>
</g>
<!-- Node30&#45;&gt;Node38 -->
<g id="edge47" class="edge">
<title>Node30&#45;&gt;Node38</title>
<path fill="none" stroke="#191970" d="M2018.0969,-201.3906C2036.4239,-192.7205 2063.9373,-179.7046 2086.823,-168.8779"/>
<polygon fill="#191970" stroke="#191970" points="2088.44,-171.9849 2095.9828,-164.5446 2085.4465,-165.6572 2088.44,-171.9849"/>
</g>
<!-- Node32 -->
<g id="node33" class="node">
<title>Node32</title>
<polygon fill="none" stroke="#bfbfbf" points="1734.2844,-6 1734.2844,-25 1781.2844,-25 1781.2844,-6 1734.2844,-6"/>
<text text-anchor="middle" x="1757.7844" y="-13" font-family="Helvetica,sans-Serif" font-size="10.00" fill="#000000">vector</text>
</g>
<!-- Node31&#45;&gt;Node32 -->
<g id="edge41" class="edge">
<title>Node31&#45;&gt;Node32</title>
<path fill="none" stroke="#191970" d="M1923.4624,-67.7015C1883.5698,-58.8401 1833.8794,-46.316 1790.7844,-31 1789.1442,-30.4171 1787.4756,-29.7806 1785.8037,-29.1086"/>
<polygon fill="#191970" stroke="#191970" points="1786.9309,-25.7822 1776.3649,-25.0005 1784.1373,-32.2006 1786.9309,-25.7822"/>
</g>
<!-- Node33 -->
<g id="node34" class="node">
<title>Node33</title>
<polygon fill="none" stroke="#bfbfbf" points="1799.7844,-6 1799.7844,-25 1837.7844,-25 1837.7844,-6 1799.7844,-6"/>
<text text-anchor="middle" x="1818.7844" y="-13" font-family="Helvetica,sans-Serif" font-size="10.00" fill="#000000">map</text>
</g>
<!-- Node31&#45;&gt;Node33 -->
<g id="edge42" class="edge">
<title>Node31&#45;&gt;Node33</title>
<path fill="none" stroke="#191970" d="M1946.2467,-67.4138C1916.653,-58.1381 1879.0712,-45.3076 1846.7844,-31 1845.7938,-30.561 1844.7917,-30.099 1843.7855,-29.62"/>
<polygon fill="#191970" stroke="#191970" points="1845.3174,-26.4722 1834.8235,-25.0134 1842.1173,-32.6979 1845.3174,-26.4722"/>
</g>
<!-- Node34 -->
<g id="node35" class="node">
<title>Node34</title>
<polygon fill="none" stroke="#bfbfbf" points="1856.2844,-6 1856.2844,-25 1949.2844,-25 1949.2844,-6 1856.2844,-6"/>
<text text-anchor="middle" x="1902.7844" y="-13" font-family="Helvetica,sans-Serif" font-size="10.00" fill="#000000">unordered_map</text>
</g>
<!-- Node31&#45;&gt;Node34 -->
<g id="edge43" class="edge">
<title>Node31&#45;&gt;Node34</title>
<path fill="none" stroke="#191970" d="M1976.2274,-67.2967C1960.8511,-56.4524 1940.243,-41.9182 1924.7705,-31.006"/>
<polygon fill="#191970" stroke="#191970" points="1926.5218,-27.9582 1916.3325,-25.055 1922.4873,-33.6787 1926.5218,-27.9582"/>
</g>
<!-- Node35 -->
<g id="node36" class="node">
<title>Node35</title>
<polygon fill="none" stroke="#bfbfbf" points="1967.2844,-.5 1967.2844,-30.5 2080.2844,-30.5 2080.2844,-.5 1967.2844,-.5"/>
<text text-anchor="start" x="1975.2844" y="-18.5" font-family="Helvetica,sans-Serif" font-size="10.00" fill="#000000">boost/property_tree</text>
<text text-anchor="middle" x="2023.7844" y="-7.5" font-family="Helvetica,sans-Serif" font-size="10.00" fill="#000000">/ptree.hpp</text>
</g>
<!-- Node31&#45;&gt;Node35 -->
<g id="edge44" class="edge">
<title>Node31&#45;&gt;Node35</title>
<path fill="none" stroke="#191970" d="M2003.6842,-67.2967C2006.809,-59.2443 2010.7233,-49.1574 2014.2654,-40.0296"/>
<polygon fill="#191970" stroke="#191970" points="2017.553,-41.2321 2017.9079,-30.6432 2011.0272,-38.6996 2017.553,-41.2321"/>
</g>
<!-- Node36 -->
<g id="node37" class="node">
<title>Node36</title>
<polygon fill="none" stroke="#bfbfbf" points="2177.2844,-6 2177.2844,-25 2234.2844,-25 2234.2844,-6 2177.2844,-6"/>
<text text-anchor="middle" x="2205.7844" y="-13" font-family="Helvetica,sans-Serif" font-size="10.00" fill="#000000">typeinfo</text>
</g>
<!-- Node31&#45;&gt;Node36 -->
<g id="edge45" class="edge">
<title>Node31&#45;&gt;Node36</title>
<path fill="none" stroke="#191970" d="M2052.1791,-67.4212C2085.7521,-57.7696 2129.563,-44.5514 2167.7844,-31 2169.6982,-30.3214 2171.6569,-29.6018 2173.6268,-28.8588"/>
<polygon fill="#191970" stroke="#191970" points="2175.376,-31.9328 2183.4127,-25.0291 2172.8249,-25.4142 2175.376,-31.9328"/>
</g>
<!-- Node37 -->
<g id="node38" class="node">
<title>Node37</title>
<polygon fill="none" stroke="#bfbfbf" points="2098.7844,-6 2098.7844,-25 2158.7844,-25 2158.7844,-6 2098.7844,-6"/>
<text text-anchor="middle" x="2128.7844" y="-13" font-family="Helvetica,sans-Serif" font-size="10.00" fill="#000000">iostream</text>
</g>
<!-- Node31&#45;&gt;Node37 -->
<g id="edge46" class="edge">
<title>Node31&#45;&gt;Node37</title>
<path fill="none" stroke="#191970" d="M2027.1833,-67.4639C2049.2625,-56.1715 2079.3005,-40.8086 2100.9826,-29.7192"/>
<polygon fill="#191970" stroke="#191970" points="2102.6972,-32.7736 2110.0066,-25.1039 2099.5097,-26.5414 2102.6972,-32.7736"/>
</g>
<!-- Node38&#45;&gt;Node31 -->
<g id="edge48" class="edge">
<title>Node38&#45;&gt;Node31</title>
<path fill="none" stroke="#191970" d="M2098.6098,-134.4639C2080.2563,-125.0047 2056.3608,-112.6894 2036.4394,-102.4222"/>
<polygon fill="#191970" stroke="#191970" points="2037.8037,-99.1879 2027.3113,-97.7177 2034.5968,-105.4101 2037.8037,-99.1879"/>
</g>
<!-- Node38&#45;&gt;Node36 -->
<g id="edge51" class="edge">
<title>Node38&#45;&gt;Node36</title>
<path fill="none" stroke="#191970" d="M2121.0753,-134.4107C2114.4183,-116.9865 2106.796,-88.0279 2118.7844,-67 2125.1739,-55.7926 2152.9117,-40.4753 2175.3738,-29.4634"/>
<polygon fill="#191970" stroke="#191970" points="2177.101,-32.5166 2184.5998,-25.0321 2174.0703,-26.2067 2177.101,-32.5166"/>
</g>
<!-- Node39 -->
<g id="node40" class="node">
<title>Node39</title>
<polygon fill="none" stroke="#bfbfbf" points="2128.2844,-73 2128.2844,-92 2185.2844,-92 2185.2844,-73 2128.2844,-73"/>
<text text-anchor="middle" x="2156.7844" y="-80" font-family="Helvetica,sans-Serif" font-size="10.00" fill="#000000">TClass.h</text>
</g>
<!-- Node38&#45;&gt;Node39 -->
<g id="edge49" class="edge">
<title>Node38&#45;&gt;Node39</title>
<path fill="none" stroke="#191970" d="M2134.3649,-134.2967C2138.5762,-124.5672 2144.0731,-111.8675 2148.5699,-101.4784"/>
<polygon fill="#191970" stroke="#191970" points="2151.8884,-102.6225 2152.6486,-92.055 2145.4643,-99.8419 2151.8884,-102.6225"/>
</g>
<!-- Node40 -->
<g id="node41" class="node">
<title>Node40</title>
<polygon fill="none" stroke="#bfbfbf" points="2203.2844,-73 2203.2844,-92 2272.2844,-92 2272.2844,-73 2203.2844,-73"/>
<text text-anchor="middle" x="2237.7844" y="-80" font-family="Helvetica,sans-Serif" font-size="10.00" fill="#000000">type_traits</text>
</g>
<!-- Node38&#45;&gt;Node40 -->
<g id="edge50" class="edge">
<title>Node38&#45;&gt;Node40</title>
<path fill="none" stroke="#191970" d="M2152.4705,-134.4639C2170.5946,-123.4247 2195.1053,-108.4954 2213.2043,-97.4715"/>
<polygon fill="#191970" stroke="#191970" points="2215.2969,-100.2951 2222.0167,-92.1039 2211.6555,-94.3167 2215.2969,-100.2951"/>
</g>
<!-- Node41 -->
<g id="node42" class="node">
<title>Node41</title>
<polygon fill="none" stroke="#bfbfbf" points="2290.7844,-73 2290.7844,-92 2338.7844,-92 2338.7844,-73 2290.7844,-73"/>
<text text-anchor="middle" x="2314.7844" y="-80" font-family="Helvetica,sans-Serif" font-size="10.00" fill="#000000">TFile.h</text>
</g>
<!-- Node38&#45;&gt;Node41 -->
<g id="edge52" class="edge">
<title>Node38&#45;&gt;Node41</title>
<path fill="none" stroke="#191970" d="M2177.5562,-134.4755C2207.9783,-124.8937 2247.5006,-111.7299 2281.7844,-98 2283.1799,-97.4411 2284.6005,-96.8525 2286.0296,-96.2445"/>
<polygon fill="#191970" stroke="#191970" points="2287.7005,-99.3317 2295.4062,-92.0603 2284.8479,-92.9392 2287.7005,-99.3317"/>
</g>
</g>
</svg>
        <g id="navigator" transform="translate(0 0)" fill="#404254">
                <rect fill="#f2f5e9" fill-opacity="0.5" stroke="#606060" stroke-width=".5" x="0" y="0" width="60" height="60"/>
                <use id="zoomplus" xlink:href="#zoomPlus" x="17" y="9" onmousedown="handleZoom(evt,'in')"/>
                <use id="zoomminus" xlink:href="#zoomMin" x="42" y="9" onmousedown="handleZoom(evt,'out')"/>
                <use id="reset" xlink:href="#resetDef" x="30" y="36" onmousedown="handleReset()"/>
                <g id="arrowUp" xlink:href="#dirArrow" transform="translate(30 24)" onmousedown="handlePan(0,-1)">
                  <use xlink:href="#rim" fill="#404040">
                        <set attributeName="fill" to="#808080" begin="arrowUp.mouseover" end="arrowUp.mouseout"/>
                  </use>
                  <path fill="none" stroke="white" stroke-width="1.5" d="M0,-3.0v7 M-2.5,-0.5L0,-3.0L2.5,-0.5"/>
                </g>
                <g id="arrowRight" xlink:href="#dirArrow" transform="rotate(90) translate(36 -43)" onmousedown="handlePan(1,0)">
                  <use xlink:href="#rim" fill="#404040">
                        <set attributeName="fill" to="#808080" begin="arrowRight.mouseover" end="arrowRight.mouseout"/>
                  </use>
                  <path fill="none" stroke="white" stroke-width="1.5" d="M0,-3.0v7 M-2.5,-0.5L0,-3.0L2.5,-0.5"/>
                </g>
                <g id="arrowDown" xlink:href="#dirArrow" transform="rotate(180) translate(-30 -48)" onmousedown="handlePan(0,1)">
                  <use xlink:href="#rim" fill="#404040">
                        <set attributeName="fill" to="#808080" begin="arrowDown.mouseover" end="arrowDown.mouseout"/>
                  </use>
                  <path fill="none" stroke="white" stroke-width="1.5" d="M0,-3.0v7 M-2.5,-0.5L0,-3.0L2.5,-0.5"/>
                </g>
                <g id="arrowLeft" xlink:href="#dirArrow" transform="rotate(270) translate(-36 17)" onmousedown="handlePan(-1,0)">
                  <use xlink:href="#rim" fill="#404040">
                        <set attributeName="fill" to="#808080" begin="arrowLeft.mouseover" end="arrowLeft.mouseout"/>
                  </use>
                  <path fill="none" stroke="white" stroke-width="1.5" d="M0,-3.0v7 M-2.5,-0.5L0,-3.0L2.5,-0.5"/>
                </g>
        </g>
        <svg viewBox="0 0 15 15" width="100%" height="30px" preserveAspectRatio="xMaxYMin meet">
         <g id="arrow_out" transform="scale(0.3 0.3)">
          <a xlink:href="Ladder_8cxx__incl_org.svg" target="_base">
           <rect id="button" ry="5" rx="5" y="6" x="6" height="38" width="38"
                fill="#f2f5e9" fill-opacity="0.5" stroke="#606060" stroke-width="1.0"/>
           <path id="arrow"
             d="M 11.500037,31.436501 C 11.940474,20.09759 22.043105,11.32322 32.158766,21.979434 L 37.068811,17.246167 C 37.068811,17.246167 37.088388,32 37.088388,32 L 22.160133,31.978069 C 22.160133,31.978069 26.997745,27.140456 26.997745,27.140456 C 18.528582,18.264221 13.291696,25.230495 11.500037,31.436501 z"
             style="fill:#404040;"/>
          </a>
         </g>
        </svg>
</svg>
