<?xml version="1.0" encoding="UTF-8" standalone="no"?>
<!DOCTYPE svg PUBLIC "-//W3C//DTD SVG 1.1//EN"
 "http://www.w3.org/Graphics/SVG/1.1/DTD/svg11.dtd">
<!-- Generated by graphviz version 2.40.1 (20161225.0304)
 -->
<!-- Title: /home/travis/build/AliceO2Group/AliceO2/DataFormats/Detectors/Common/src/DetMatrixCache.cxx Pages: 1 -->
<svg width="3308pt" height="486pt"
 viewBox="0.00 0.00 3308.00 486.00" xmlns="http://www.w3.org/2000/svg" xmlns:xlink="http://www.w3.org/1999/xlink">
<g id="graph0" class="graph" transform="scale(1 1) rotate(0) translate(4 482)">
<title>/home/travis/build/AliceO2Group/AliceO2/DataFormats/Detectors/Common/src/DetMatrixCache.cxx</title>
<!-- Node0 -->
<g id="node1" class="node">
<title>Node0</title>
<polygon fill="#bfbfbf" stroke="#000000" points="1590,-425.5 1590,-477.5 1772,-477.5 1772,-425.5 1590,-425.5"/>
<text text-anchor="start" x="1598" y="-465.5" font-family="Helvetica,sans-Serif" font-size="10.00" fill="#000000">/home/travis/build</text>
<text text-anchor="start" x="1598" y="-454.5" font-family="Helvetica,sans-Serif" font-size="10.00" fill="#000000">/AliceO2Group/AliceO2</text>
<text text-anchor="start" x="1598" y="-443.5" font-family="Helvetica,sans-Serif" font-size="10.00" fill="#000000">/DataFormats/Detectors</text>
<text text-anchor="middle" x="1681" y="-432.5" font-family="Helvetica,sans-Serif" font-size="10.00" fill="#000000">/Common/src/DetMatrixCache.cxx</text>
</g>
<!-- Node1 -->
<g id="node2" class="node">
<title>Node1</title>
<g id="a_node2"><a xlink:href="../../d4/d20/DetMatrixCache_8h.html" target="_top" xlink:title="DetectorsCommonDataFormats\l/DetMatrixCache.h">
<polygon fill="none" stroke="#000000" points="1595.5,-358.5 1595.5,-388.5 1766.5,-388.5 1766.5,-358.5 1595.5,-358.5"/>
<text text-anchor="start" x="1603.5" y="-376.5" font-family="Helvetica,sans-Serif" font-size="10.00" fill="#000000">DetectorsCommonDataFormats</text>
<text text-anchor="middle" x="1681" y="-365.5" font-family="Helvetica,sans-Serif" font-size="10.00" fill="#000000">/DetMatrixCache.h</text>
</a>
</g>
</g>
<!-- Node0&#45;&gt;Node1 -->
<g id="edge1" class="edge">
<title>Node0&#45;&gt;Node1</title>
<path fill="none" stroke="#191970" d="M1681,-425.0928C1681,-416.516 1681,-407.0289 1681,-398.5538"/>
<polygon fill="#191970" stroke="#191970" points="1684.5001,-398.5045 1681,-388.5046 1677.5001,-398.5046 1684.5001,-398.5045"/>
</g>
<!-- Node17 -->
<g id="node18" class="node">
<title>Node17</title>
<polygon fill="none" stroke="#bfbfbf" points="1403,-230 1403,-249 1485,-249 1485,-230 1403,-230"/>
<text text-anchor="middle" x="1444" y="-237" font-family="Helvetica,sans-Serif" font-size="10.00" fill="#000000">TGeoMatrix.h</text>
</g>
<!-- Node0&#45;&gt;Node17 -->
<g id="edge57" class="edge">
<title>Node0&#45;&gt;Node17</title>
<path fill="none" stroke="#191970" d="M1631.5751,-425.4823C1591.0085,-402.3357 1533.9437,-365.4734 1494,-322 1476.2867,-302.7214 1461.5626,-276.2255 1452.7818,-258.5148"/>
<polygon fill="#191970" stroke="#191970" points="1455.8042,-256.7232 1448.3209,-249.2231 1449.4937,-259.7529 1455.8042,-256.7232"/>
</g>
<!-- Node26 -->
<g id="node27" class="node">
<title>Node26</title>
<g id="a_node27"><a xlink:href="../../d9/d52/Common_2MathUtils_2include_2MathUtils_2Utils_8h.html" target="_top" xlink:title="MathUtils/Utils.h">
<polygon fill="none" stroke="#000000" points="2788,-230 2788,-249 2886,-249 2886,-230 2788,-230"/>
<text text-anchor="middle" x="2837" y="-237" font-family="Helvetica,sans-Serif" font-size="10.00" fill="#000000">MathUtils/Utils.h</text>
</a>
</g>
</g>
<!-- Node0&#45;&gt;Node26 -->
<g id="edge58" class="edge">
<title>Node0&#45;&gt;Node26</title>
<path fill="none" stroke="#191970" d="M1772.192,-434.7762C1999.9184,-393.0132 2588.7742,-285.0224 2777.7125,-250.3728"/>
<polygon fill="#191970" stroke="#191970" points="2778.5258,-253.7821 2787.7304,-248.5356 2777.263,-246.8969 2778.5258,-253.7821"/>
</g>
<!-- Node2 -->
<g id="node3" class="node">
<title>Node2</title>
<g id="a_node3"><a xlink:href="../../df/d5b/GPUCommonLogger_8h.html" target="_top" xlink:title="GPUCommonLogger.h">
<polygon fill="none" stroke="#000000" points="1503.5,-297 1503.5,-316 1626.5,-316 1626.5,-297 1503.5,-297"/>
<text text-anchor="middle" x="1565" y="-304" font-family="Helvetica,sans-Serif" font-size="10.00" fill="#000000">GPUCommonLogger.h</text>
</a>
</g>
</g>
<!-- Node1&#45;&gt;Node2 -->
<g id="edge2" class="edge">
<title>Node1&#45;&gt;Node2</title>
<path fill="none" stroke="#191970" d="M1654.9673,-358.4639C1635.6794,-347.3234 1609.5322,-332.2212 1590.3972,-321.1691"/>
<polygon fill="#191970" stroke="#191970" points="1592.0376,-318.0747 1581.6277,-316.1039 1588.5365,-324.1363 1592.0376,-318.0747"/>
</g>
<!-- Node5 -->
<g id="node6" class="node">
<title>Node5</title>
<g id="a_node6"><a xlink:href="../../d2/d45/GPUCommonRtypes_8h.html" target="_top" xlink:title="GPUCommonRtypes.h">
<polygon fill="none" stroke="#000000" points="1748.5,-297 1748.5,-316 1873.5,-316 1873.5,-297 1748.5,-297"/>
<text text-anchor="middle" x="1811" y="-304" font-family="Helvetica,sans-Serif" font-size="10.00" fill="#000000">GPUCommonRtypes.h</text>
</a>
</g>
</g>
<!-- Node1&#45;&gt;Node5 -->
<g id="edge5" class="edge">
<title>Node1&#45;&gt;Node5</title>
<path fill="none" stroke="#191970" d="M1710.1745,-358.4639C1732.0851,-347.1715 1761.8938,-331.8086 1783.4105,-320.7192"/>
<polygon fill="#191970" stroke="#191970" points="1785.0801,-323.7963 1792.3655,-316.1039 1781.8732,-317.5741 1785.0801,-323.7963"/>
</g>
<!-- Node7 -->
<g id="node8" class="node">
<title>Node7</title>
<polygon fill="none" stroke="#bfbfbf" points="1947,-112.5 1947,-131.5 1989,-131.5 1989,-112.5 1947,-112.5"/>
<text text-anchor="middle" x="1968" y="-119.5" font-family="Helvetica,sans-Serif" font-size="10.00" fill="#000000">array</text>
</g>
<!-- Node1&#45;&gt;Node7 -->
<g id="edge7" class="edge">
<title>Node1&#45;&gt;Node7</title>
<path fill="none" stroke="#191970" d="M1674.6546,-358.2179C1663.6691,-329.0828 1644.9267,-264.86 1674,-224 1705.3566,-179.931 1867.5056,-142.4022 1936.6763,-128.1404"/>
<polygon fill="#191970" stroke="#191970" points="1937.4614,-131.5525 1946.5636,-126.1303 1936.0667,-124.6929 1937.4614,-131.5525"/>
</g>
<!-- Node8 -->
<g id="node9" class="node">
<title>Node8</title>
<polygon fill="none" stroke="#bfbfbf" points="1683.5,-297 1683.5,-316 1730.5,-316 1730.5,-297 1683.5,-297"/>
<text text-anchor="middle" x="1707" y="-304" font-family="Helvetica,sans-Serif" font-size="10.00" fill="#000000">vector</text>
</g>
<!-- Node1&#45;&gt;Node8 -->
<g id="edge8" class="edge">
<title>Node1&#45;&gt;Node8</title>
<path fill="none" stroke="#191970" d="M1686.8998,-358.2967C1690.6754,-348.5672 1695.6037,-335.8675 1699.6353,-325.4784"/>
<polygon fill="#191970" stroke="#191970" points="1702.9372,-326.6439 1703.2921,-316.055 1696.4114,-324.1114 1702.9372,-326.6439"/>
</g>
<!-- Node9 -->
<g id="node10" class="node">
<title>Node9</title>
<g id="a_node10"><a xlink:href="../../dc/d73/Cartesian_8h.html" target="_top" xlink:title="MathUtils/Cartesian.h">
<polygon fill="none" stroke="#000000" points="856,-297 856,-316 978,-316 978,-297 856,-297"/>
<text text-anchor="middle" x="917" y="-304" font-family="Helvetica,sans-Serif" font-size="10.00" fill="#000000">MathUtils/Cartesian.h</text>
</a>
</g>
</g>
<!-- Node1&#45;&gt;Node9 -->
<g id="edge9" class="edge">
<title>Node1&#45;&gt;Node9</title>
<path fill="none" stroke="#191970" d="M1595.2143,-365.9769C1443.1905,-352.645 1129.2686,-325.1152 988.2865,-312.7516"/>
<polygon fill="#191970" stroke="#191970" points="988.2999,-309.2394 978.0324,-311.8523 987.6884,-316.2126 988.2999,-309.2394"/>
</g>
<!-- Node19 -->
<g id="node20" class="node">
<title>Node19</title>
<g id="a_node20"><a xlink:href="../../d6/d31/DetID_8h.html" target="_top" xlink:title="DetectorsCommonDataFormats\l/DetID.h">
<polygon fill="none" stroke="#000000" points="1926.5,-291.5 1926.5,-321.5 2097.5,-321.5 2097.5,-291.5 1926.5,-291.5"/>
<text text-anchor="start" x="1934.5" y="-309.5" font-family="Helvetica,sans-Serif" font-size="10.00" fill="#000000">DetectorsCommonDataFormats</text>
<text text-anchor="middle" x="2012" y="-298.5" font-family="Helvetica,sans-Serif" font-size="10.00" fill="#000000">/DetID.h</text>
</a>
</g>
</g>
<!-- Node1&#45;&gt;Node19 -->
<g id="edge20" class="edge">
<title>Node1&#45;&gt;Node19</title>
<path fill="none" stroke="#191970" d="M1755.2829,-358.4639C1806.4058,-348.1157 1874.4161,-334.3493 1927.5914,-323.5857"/>
<polygon fill="#191970" stroke="#191970" points="1928.5725,-326.9582 1937.6793,-321.5438 1927.1837,-320.0974 1928.5725,-326.9582"/>
</g>
<!-- Node3 -->
<g id="node4" class="node">
<title>Node3</title>
<polygon fill="none" stroke="#bfbfbf" points="1503,-230 1503,-249 1563,-249 1563,-230 1503,-230"/>
<text text-anchor="middle" x="1533" y="-237" font-family="Helvetica,sans-Serif" font-size="10.00" fill="#000000">iostream</text>
</g>
<!-- Node2&#45;&gt;Node3 -->
<g id="edge3" class="edge">
<title>Node2&#45;&gt;Node3</title>
<path fill="none" stroke="#191970" d="M1560.4152,-296.9005C1555.6152,-286.8505 1547.9551,-270.8122 1541.9506,-258.2403"/>
<polygon fill="#191970" stroke="#191970" points="1545.0444,-256.5968 1537.5763,-249.0817 1538.7279,-259.6137 1545.0444,-256.5968"/>
</g>
<!-- Node4 -->
<g id="node5" class="node">
<title>Node4</title>
<polygon fill="none" stroke="#bfbfbf" points="1581,-230 1581,-249 1627,-249 1627,-230 1581,-230"/>
<text text-anchor="middle" x="1604" y="-237" font-family="Helvetica,sans-Serif" font-size="10.00" fill="#000000">cstdio</text>
</g>
<!-- Node2&#45;&gt;Node4 -->
<g id="edge4" class="edge">
<title>Node2&#45;&gt;Node4</title>
<path fill="none" stroke="#191970" d="M1570.5877,-296.9005C1576.4957,-286.751 1585.9587,-270.4941 1593.3082,-257.8679"/>
<polygon fill="#191970" stroke="#191970" points="1596.4167,-259.4849 1598.4226,-249.0817 1590.367,-255.9634 1596.4167,-259.4849"/>
</g>
<!-- Node6 -->
<g id="node7" class="node">
<title>Node6</title>
<polygon fill="none" stroke="#bfbfbf" points="1683.5,-230 1683.5,-249 1742.5,-249 1742.5,-230 1683.5,-230"/>
<text text-anchor="middle" x="1713" y="-237" font-family="Helvetica,sans-Serif" font-size="10.00" fill="#000000">Rtypes.h</text>
</g>
<!-- Node5&#45;&gt;Node6 -->
<g id="edge6" class="edge">
<title>Node5&#45;&gt;Node6</title>
<path fill="none" stroke="#191970" d="M1796.959,-296.9005C1780.8762,-285.9052 1754.3094,-267.7422 1735.3684,-254.7927"/>
<polygon fill="#191970" stroke="#191970" points="1737.2455,-251.8362 1727.015,-249.0817 1733.2948,-257.6148 1737.2455,-251.8362"/>
</g>
<!-- Node9&#45;&gt;Node6 -->
<g id="edge17" class="edge">
<title>Node9&#45;&gt;Node6</title>
<path fill="none" stroke="#191970" d="M978.3473,-304.735C1102.8412,-300.5747 1393.8778,-287.9049 1636,-255 1648.1228,-253.3525 1661.2059,-250.956 1673.0872,-248.5378"/>
<polygon fill="#191970" stroke="#191970" points="1674.0955,-251.9026 1683.1647,-246.4255 1672.6593,-245.0515 1674.0955,-251.9026"/>
</g>
<!-- Node10 -->
<g id="node11" class="node">
<title>Node10</title>
<polygon fill="none" stroke="#bfbfbf" points="835,-224.5 835,-254.5 999,-254.5 999,-224.5 835,-224.5"/>
<text text-anchor="start" x="843" y="-242.5" font-family="Helvetica,sans-Serif" font-size="10.00" fill="#000000">Math/GenVector/Displacement</text>
<text text-anchor="middle" x="917" y="-231.5" font-family="Helvetica,sans-Serif" font-size="10.00" fill="#000000">Vector3D.h</text>
</g>
<!-- Node9&#45;&gt;Node10 -->
<g id="edge10" class="edge">
<title>Node9&#45;&gt;Node10</title>
<path fill="none" stroke="#191970" d="M917,-296.9005C917,-288.5099 917,-275.9451 917,-264.7085"/>
<polygon fill="#191970" stroke="#191970" points="920.5001,-264.5217 917,-254.5218 913.5001,-264.5218 920.5001,-264.5217"/>
</g>
<!-- Node11 -->
<g id="node12" class="node">
<title>Node11</title>
<polygon fill="none" stroke="#bfbfbf" points="1017.5,-230 1017.5,-249 1206.5,-249 1206.5,-230 1017.5,-230"/>
<text text-anchor="middle" x="1112" y="-237" font-family="Helvetica,sans-Serif" font-size="10.00" fill="#000000">Math/GenVector/PositionVector3D.h</text>
</g>
<!-- Node9&#45;&gt;Node11 -->
<g id="edge11" class="edge">
<title>Node9&#45;&gt;Node11</title>
<path fill="none" stroke="#191970" d="M944.9387,-296.9005C978.9674,-285.2086 1036.5839,-265.4122 1074.4622,-252.3976"/>
<polygon fill="#191970" stroke="#191970" points="1075.7931,-255.6412 1084.1131,-249.0817 1073.5184,-249.0211 1075.7931,-255.6412"/>
</g>
<!-- Node12 -->
<g id="node13" class="node">
<title>Node12</title>
<polygon fill="none" stroke="#bfbfbf" points="1225,-230 1225,-249 1385,-249 1385,-230 1225,-230"/>
<text text-anchor="middle" x="1305" y="-237" font-family="Helvetica,sans-Serif" font-size="10.00" fill="#000000">Math/GenVector/Rotation3D.h</text>
</g>
<!-- Node9&#45;&gt;Node12 -->
<g id="edge12" class="edge">
<title>Node9&#45;&gt;Node12</title>
<path fill="none" stroke="#191970" d="M972.1789,-296.9717C1042.6155,-284.8087 1164.3231,-263.7921 1239.4206,-250.8243"/>
<polygon fill="#191970" stroke="#191970" points="1240.4391,-254.2003 1249.6977,-249.0496 1239.2479,-247.3024 1240.4391,-254.2003"/>
</g>
<!-- Node13 -->
<g id="node14" class="node">
<title>Node13</title>
<polygon fill="none" stroke="#bfbfbf" points="0,-230 0,-249 168,-249 168,-230 0,-230"/>
<text text-anchor="middle" x="84" y="-237" font-family="Helvetica,sans-Serif" font-size="10.00" fill="#000000">Math/GenVector/Transform3D.h</text>
</g>
<!-- Node9&#45;&gt;Node13 -->
<g id="edge13" class="edge">
<title>Node9&#45;&gt;Node13</title>
<path fill="none" stroke="#191970" d="M855.9025,-304.2276C729.0474,-299.0742 427.9994,-284.582 177,-255 167.0025,-253.8217 156.4413,-252.315 146.1641,-250.7057"/>
<polygon fill="#191970" stroke="#191970" points="146.4424,-247.2055 136.013,-249.0706 145.3291,-254.1164 146.4424,-247.2055"/>
</g>
<!-- Node14 -->
<g id="node15" class="node">
<title>Node14</title>
<polygon fill="none" stroke="#bfbfbf" points="186.5,-230 186.5,-249 359.5,-249 359.5,-230 186.5,-230"/>
<text text-anchor="middle" x="273" y="-237" font-family="Helvetica,sans-Serif" font-size="10.00" fill="#000000">Math/GenVector/Translation3D.h</text>
</g>
<!-- Node9&#45;&gt;Node14 -->
<g id="edge14" class="edge">
<title>Node9&#45;&gt;Node14</title>
<path fill="none" stroke="#191970" d="M855.626,-302.0686C754.1416,-294.4415 545.0721,-277.4625 369,-255 359.0147,-253.7261 348.4731,-252.2048 338.1759,-250.6204"/>
<polygon fill="#191970" stroke="#191970" points="338.4116,-247.1147 327.9899,-249.0219 337.3263,-254.03 338.4116,-247.1147"/>
</g>
<!-- Node15 -->
<g id="node16" class="node">
<title>Node15</title>
<polygon fill="none" stroke="#bfbfbf" points="378,-224.5 378,-254.5 542,-254.5 542,-224.5 378,-224.5"/>
<text text-anchor="start" x="386" y="-242.5" font-family="Helvetica,sans-Serif" font-size="10.00" fill="#000000">Math/GenVector/Displacement</text>
<text text-anchor="middle" x="460" y="-231.5" font-family="Helvetica,sans-Serif" font-size="10.00" fill="#000000">Vector2D.h</text>
</g>
<!-- Node9&#45;&gt;Node15 -->
<g id="edge15" class="edge">
<title>Node9&#45;&gt;Node15</title>
<path fill="none" stroke="#191970" d="M855.7232,-298.4287C785.0987,-289.0024 665.2749,-272.6312 552.5116,-255.2116"/>
<polygon fill="#191970" stroke="#191970" points="552.7407,-251.7054 542.3225,-253.6317 551.6681,-258.6227 552.7407,-251.7054"/>
</g>
<!-- Node16 -->
<g id="node17" class="node">
<title>Node16</title>
<polygon fill="none" stroke="#bfbfbf" points="560.5,-230 560.5,-249 749.5,-249 749.5,-230 560.5,-230"/>
<text text-anchor="middle" x="655" y="-237" font-family="Helvetica,sans-Serif" font-size="10.00" fill="#000000">Math/GenVector/PositionVector2D.h</text>
</g>
<!-- Node9&#45;&gt;Node16 -->
<g id="edge16" class="edge">
<title>Node9&#45;&gt;Node16</title>
<path fill="none" stroke="#191970" d="M879.74,-296.9717C833.1188,-285.0495 753.2336,-264.6208 702.3312,-251.6038"/>
<polygon fill="#191970" stroke="#191970" points="703.111,-248.1906 692.5556,-249.1039 701.3767,-254.9724 703.111,-248.1906"/>
</g>
<!-- Node9&#45;&gt;Node17 -->
<g id="edge18" class="edge">
<title>Node9&#45;&gt;Node17</title>
<path fill="none" stroke="#191970" d="M978.1988,-303.6756C1069.5369,-298.611 1246.5708,-285.5118 1394,-255 1398.155,-254.1401 1402.4574,-253.0783 1406.7153,-251.9169"/>
<polygon fill="#191970" stroke="#191970" points="1407.8565,-255.23 1416.4795,-249.0741 1405.8997,-248.5091 1407.8565,-255.23"/>
</g>
<!-- Node18 -->
<g id="node19" class="node">
<title>Node18</title>
<polygon fill="none" stroke="#bfbfbf" points="767.5,-230 767.5,-249 816.5,-249 816.5,-230 767.5,-230"/>
<text text-anchor="middle" x="792" y="-237" font-family="Helvetica,sans-Serif" font-size="10.00" fill="#000000">iosfwd</text>
</g>
<!-- Node9&#45;&gt;Node18 -->
<g id="edge19" class="edge">
<title>Node9&#45;&gt;Node18</title>
<path fill="none" stroke="#191970" d="M899.0905,-296.9005C878.1127,-285.6564 843.1504,-266.9166 818.9065,-253.9219"/>
<polygon fill="#191970" stroke="#191970" points="820.3435,-250.7211 809.8762,-249.0817 817.0365,-256.8907 820.3435,-250.7211"/>
</g>
<!-- Node19&#45;&gt;Node6 -->
<g id="edge21" class="edge">
<title>Node19&#45;&gt;Node6</title>
<path fill="none" stroke="#191970" d="M1926.4481,-293.6064C1875.2714,-284.8951 1809.2648,-271.8966 1752,-255 1749.5542,-254.2783 1747.0481,-253.4643 1744.544,-252.5965"/>
<polygon fill="#191970" stroke="#191970" points="1745.6204,-249.2628 1735.0274,-249.066 1743.1856,-255.8258 1745.6204,-249.2628"/>
</g>
<!-- Node19&#45;&gt;Node7 -->
<g id="edge22" class="edge">
<title>Node19&#45;&gt;Node7</title>
<path fill="none" stroke="#191970" d="M2008.3993,-291.4016C2000.4756,-258.1761 1981.5319,-178.7418 1972.6921,-141.6748"/>
<polygon fill="#191970" stroke="#191970" points="1976.0208,-140.5448 1970.2965,-131.6295 1969.2118,-142.1687 1976.0208,-140.5448"/>
</g>
<!-- Node20 -->
<g id="node21" class="node">
<title>Node20</title>
<polygon fill="none" stroke="#bfbfbf" points="1761,-230 1761,-249 1805,-249 1805,-230 1761,-230"/>
<text text-anchor="middle" x="1783" y="-237" font-family="Helvetica,sans-Serif" font-size="10.00" fill="#000000">bitset</text>
</g>
<!-- Node19&#45;&gt;Node20 -->
<g id="edge23" class="edge">
<title>Node19&#45;&gt;Node20</title>
<path fill="none" stroke="#191970" d="M1939.3907,-291.4565C1901.4393,-282.6367 1854.5695,-270.2267 1814,-255 1812.5916,-254.4714 1811.1627,-253.8982 1809.7306,-253.2942"/>
<polygon fill="#191970" stroke="#191970" points="1810.9668,-250.0102 1800.4196,-249.0065 1808.0388,-256.3685 1810.9668,-250.0102"/>
</g>
<!-- Node21 -->
<g id="node22" class="node">
<title>Node21</title>
<polygon fill="none" stroke="#bfbfbf" points="1996,-168.5 1996,-187.5 2048,-187.5 2048,-168.5 1996,-168.5"/>
<text text-anchor="middle" x="2022" y="-175.5" font-family="Helvetica,sans-Serif" font-size="10.00" fill="#000000">cassert</text>
</g>
<!-- Node19&#45;&gt;Node21 -->
<g id="edge24" class="edge">
<title>Node19&#45;&gt;Node21</title>
<path fill="none" stroke="#191970" d="M2017.2455,-291.3942C2020.4856,-281.2442 2024.3326,-267.4902 2026,-255 2027.8232,-241.3434 2026.5973,-237.7648 2026,-224 2025.6273,-215.4107 2024.8648,-205.9445 2024.1045,-197.8439"/>
<polygon fill="#191970" stroke="#191970" points="2027.5834,-197.4567 2023.106,-187.8544 2020.6181,-198.1529 2027.5834,-197.4567"/>
</g>
<!-- Node22 -->
<g id="node23" class="node">
<title>Node22</title>
<polygon fill="none" stroke="#bfbfbf" points="2675,-112.5 2675,-131.5 2725,-131.5 2725,-112.5 2675,-112.5"/>
<text text-anchor="middle" x="2700" y="-119.5" font-family="Helvetica,sans-Serif" font-size="10.00" fill="#000000">cstdint</text>
</g>
<!-- Node19&#45;&gt;Node22 -->
<g id="edge25" class="edge">
<title>Node19&#45;&gt;Node22</title>
<path fill="none" stroke="#191970" d="M2097.8144,-298.0644C2274.3809,-279.8274 2665.0506,-234.5999 2703,-188 2713.3892,-175.2426 2711.1944,-156.0613 2707.2557,-141.6597"/>
<polygon fill="#191970" stroke="#191970" points="2710.4691,-140.2182 2704.0834,-131.764 2703.8032,-142.3551 2710.4691,-140.2182"/>
</g>
<!-- Node23 -->
<g id="node24" class="node">
<title>Node23</title>
<polygon fill="none" stroke="#bfbfbf" points="1823.5,-230 1823.5,-249 1896.5,-249 1896.5,-230 1823.5,-230"/>
<text text-anchor="middle" x="1860" y="-237" font-family="Helvetica,sans-Serif" font-size="10.00" fill="#000000">string_view</text>
</g>
<!-- Node19&#45;&gt;Node23 -->
<g id="edge26" class="edge">
<title>Node19&#45;&gt;Node23</title>
<path fill="none" stroke="#191970" d="M1977.8882,-291.4639C1951.9251,-280.0196 1916.477,-264.3945 1891.2485,-253.274"/>
<polygon fill="#191970" stroke="#191970" points="1892.3502,-249.9347 1881.788,-249.1039 1889.5268,-256.3401 1892.3502,-249.9347"/>
</g>
<!-- Node24 -->
<g id="node25" class="node">
<title>Node24</title>
<polygon fill="none" stroke="#bfbfbf" points="2066,-168.5 2066,-187.5 2110,-187.5 2110,-168.5 2066,-168.5"/>
<text text-anchor="middle" x="2088" y="-175.5" font-family="Helvetica,sans-Serif" font-size="10.00" fill="#000000">string</text>
</g>
<!-- Node19&#45;&gt;Node24 -->
<g id="edge27" class="edge">
<title>Node19&#45;&gt;Node24</title>
<path fill="none" stroke="#191970" d="M2021.0166,-291.2548C2035.0325,-267.5568 2062,-221.9605 2077.0912,-196.4444"/>
<polygon fill="#191970" stroke="#191970" points="2080.1637,-198.1248 2082.2419,-187.7358 2074.1386,-194.5613 2080.1637,-198.1248"/>
</g>
<!-- Node25 -->
<g id="node26" class="node">
<title>Node25</title>
<polygon fill="none" stroke="#bfbfbf" points="1914.5,-230 1914.5,-249 1983.5,-249 1983.5,-230 1914.5,-230"/>
<text text-anchor="middle" x="1949" y="-237" font-family="Helvetica,sans-Serif" font-size="10.00" fill="#000000">type_traits</text>
</g>
<!-- Node19&#45;&gt;Node25 -->
<g id="edge28" class="edge">
<title>Node19&#45;&gt;Node25</title>
<path fill="none" stroke="#191970" d="M1997.7043,-291.2967C1987.9839,-280.9591 1975.1106,-267.2684 1965.0403,-256.5588"/>
<polygon fill="#191970" stroke="#191970" points="1967.3846,-253.9426 1957.9845,-249.055 1962.285,-258.7378 1967.3846,-253.9426"/>
</g>
<!-- Node19&#45;&gt;Node26 -->
<g id="edge29" class="edge">
<title>Node19&#45;&gt;Node26</title>
<path fill="none" stroke="#191970" d="M2097.7245,-303.7619C2236.2043,-298.6184 2517.5137,-285.1862 2754,-255 2762.7688,-253.8807 2772.0121,-252.4286 2781.0198,-250.8627"/>
<polygon fill="#191970" stroke="#191970" points="2781.8295,-254.2733 2791.0518,-249.0579 2780.59,-247.3839 2781.8295,-254.2733"/>
</g>
<!-- Node38 -->
<g id="node39" class="node">
<title>Node38</title>
<g id="a_node39"><a xlink:href="../../dc/dcd/DataHeader_8h.html" target="_top" xlink:title="Headers/DataHeader.h">
<polygon fill="none" stroke="#000000" points="2243.5,-230 2243.5,-249 2370.5,-249 2370.5,-230 2243.5,-230"/>
<text text-anchor="middle" x="2307" y="-237" font-family="Helvetica,sans-Serif" font-size="10.00" fill="#000000">Headers/DataHeader.h</text>
</a>
</g>
</g>
<!-- Node19&#45;&gt;Node38 -->
<g id="edge46" class="edge">
<title>Node19&#45;&gt;Node38</title>
<path fill="none" stroke="#191970" d="M2078.2038,-291.4639C2131.7617,-279.2999 2206.1159,-262.4127 2255.3462,-251.2315"/>
<polygon fill="#191970" stroke="#191970" points="2256.1719,-254.6332 2265.1484,-249.0053 2254.6215,-247.8071 2256.1719,-254.6332"/>
</g>
<!-- Node27 -->
<g id="node28" class="node">
<title>Node27</title>
<g id="a_node28"><a xlink:href="../../de/def/bitOps_8h.html" target="_top" xlink:title="MathUtils/detail/bitOps.h">
<polygon fill="none" stroke="#000000" points="2768.5,-168.5 2768.5,-187.5 2905.5,-187.5 2905.5,-168.5 2768.5,-168.5"/>
<text text-anchor="middle" x="2837" y="-175.5" font-family="Helvetica,sans-Serif" font-size="10.00" fill="#000000">MathUtils/detail/bitOps.h</text>
</a>
</g>
</g>
<!-- Node26&#45;&gt;Node27 -->
<g id="edge30" class="edge">
<title>Node26&#45;&gt;Node27</title>
<path fill="none" stroke="#191970" d="M2837,-229.8906C2837,-221.3657 2837,-208.6392 2837,-197.9235"/>
<polygon fill="#191970" stroke="#191970" points="2840.5001,-197.7448 2837,-187.7449 2833.5001,-197.7449 2840.5001,-197.7448"/>
</g>
<!-- Node28 -->
<g id="node29" class="node">
<title>Node28</title>
<g id="a_node29"><a xlink:href="../../d3/dfc/StatAccumulator_8h.html" target="_top" xlink:title="MathUtils/detail/StatAccumulator.h">
<polygon fill="none" stroke="#000000" points="3114,-168.5 3114,-187.5 3300,-187.5 3300,-168.5 3114,-168.5"/>
<text text-anchor="middle" x="3207" y="-175.5" font-family="Helvetica,sans-Serif" font-size="10.00" fill="#000000">MathUtils/detail/StatAccumulator.h</text>
</a>
</g>
</g>
<!-- Node26&#45;&gt;Node28 -->
<g id="edge32" class="edge">
<title>Node26&#45;&gt;Node28</title>
<path fill="none" stroke="#191970" d="M2886.1331,-231.3333C2951.281,-220.5046 3066.5277,-201.3488 3139.7205,-189.1829"/>
<polygon fill="#191970" stroke="#191970" points="3140.4689,-192.6067 3149.7597,-187.5143 3139.3211,-185.7014 3140.4689,-192.6067"/>
</g>
<!-- Node30 -->
<g id="node31" class="node">
<title>Node30</title>
<g id="a_node31"><a xlink:href="../../dd/d7d/trigonometric_8h.html" target="_top" xlink:title="MathUtils/detail/trigonometric.h">
<polygon fill="none" stroke="#000000" points="2924,-168.5 2924,-187.5 3096,-187.5 3096,-168.5 2924,-168.5"/>
<text text-anchor="middle" x="3010" y="-175.5" font-family="Helvetica,sans-Serif" font-size="10.00" fill="#000000">MathUtils/detail/trigonometric.h</text>
</a>
</g>
</g>
<!-- Node26&#45;&gt;Node30 -->
<g id="edge34" class="edge">
<title>Node26&#45;&gt;Node30</title>
<path fill="none" stroke="#191970" d="M2864.0313,-229.8906C2893.4851,-219.42 2940.7689,-202.6111 2973.5027,-190.9745"/>
<polygon fill="#191970" stroke="#191970" points="2974.9086,-194.1893 2983.1586,-187.5419 2972.5639,-187.5937 2974.9086,-194.1893"/>
</g>
<!-- Node27&#45;&gt;Node22 -->
<g id="edge31" class="edge">
<title>Node27&#45;&gt;Node22</title>
<path fill="none" stroke="#191970" d="M2813.4489,-168.3733C2791.1609,-159.2629 2757.5063,-145.5062 2732.6363,-135.3404"/>
<polygon fill="#191970" stroke="#191970" points="2733.8247,-132.0451 2723.2438,-131.5011 2731.1761,-138.5247 2733.8247,-132.0451"/>
</g>
<!-- Node29 -->
<g id="node30" class="node">
<title>Node29</title>
<polygon fill="none" stroke="#bfbfbf" points="3176.5,-112.5 3176.5,-131.5 3217.5,-131.5 3217.5,-112.5 3176.5,-112.5"/>
<text text-anchor="middle" x="3197" y="-119.5" font-family="Helvetica,sans-Serif" font-size="10.00" fill="#000000">tuple</text>
</g>
<!-- Node28&#45;&gt;Node29 -->
<g id="edge33" class="edge">
<title>Node28&#45;&gt;Node29</title>
<path fill="none" stroke="#191970" d="M3205.2581,-168.2455C3203.9533,-160.9382 3202.124,-150.6944 3200.5187,-141.7046"/>
<polygon fill="#191970" stroke="#191970" points="3203.9254,-140.8717 3198.7219,-131.6427 3197.0344,-142.1022 3203.9254,-140.8717"/>
</g>
<!-- Node30&#45;&gt;Node7 -->
<g id="edge35" class="edge">
<title>Node30&#45;&gt;Node7</title>
<path fill="none" stroke="#191970" d="M2923.8059,-168.7129C2920.8357,-168.4611 2917.8937,-168.2224 2915,-168 2555.7164,-140.3864 2118.4012,-126.3616 1999.2414,-122.8778"/>
<polygon fill="#191970" stroke="#191970" points="1999.1207,-119.373 1989.0237,-122.5823 1998.9183,-126.37 1999.1207,-119.373"/>
</g>
<!-- Node30&#45;&gt;Node29 -->
<g id="edge37" class="edge">
<title>Node30&#45;&gt;Node29</title>
<path fill="none" stroke="#191970" d="M3042.1464,-168.3733C3076.9725,-157.9441 3132.1306,-141.4261 3166.3575,-131.1764"/>
<polygon fill="#191970" stroke="#191970" points="3167.6864,-134.432 3176.262,-128.2103 3165.6782,-127.7263 3167.6864,-134.432"/>
</g>
<!-- Node31 -->
<g id="node32" class="node">
<title>Node31</title>
<polygon fill="none" stroke="#bfbfbf" points="2995.5,-56.5 2995.5,-75.5 3042.5,-75.5 3042.5,-56.5 2995.5,-56.5"/>
<text text-anchor="middle" x="3019" y="-63.5" font-family="Helvetica,sans-Serif" font-size="10.00" fill="#000000">cmath</text>
</g>
<!-- Node30&#45;&gt;Node31 -->
<g id="edge36" class="edge">
<title>Node30&#45;&gt;Node31</title>
<path fill="none" stroke="#191970" d="M3035.5262,-168.3698C3051.1421,-160.9914 3069.8289,-149.1364 3079,-132 3089.7569,-111.9005 3068.3006,-93.0921 3048.1228,-80.7366"/>
<polygon fill="#191970" stroke="#191970" points="3049.7705,-77.6467 3039.3575,-75.6921 3046.2789,-83.7137 3049.7705,-77.6467"/>
</g>
<!-- Node32 -->
<g id="node33" class="node">
<title>Node32</title>
<g id="a_node33"><a xlink:href="../../df/d21/GPUCommonDef_8h.html" target="_top" xlink:title="GPUCommonDef.h">
<polygon fill="none" stroke="#000000" points="3074.5,-56.5 3074.5,-75.5 3181.5,-75.5 3181.5,-56.5 3074.5,-56.5"/>
<text text-anchor="middle" x="3128" y="-63.5" font-family="Helvetica,sans-Serif" font-size="10.00" fill="#000000">GPUCommonDef.h</text>
</a>
</g>
</g>
<!-- Node30&#45;&gt;Node32 -->
<g id="edge38" class="edge">
<title>Node30&#45;&gt;Node32</title>
<path fill="none" stroke="#191970" d="M3036.1016,-168.4911C3054.1513,-160.8616 3077.75,-148.6668 3094,-132 3106.9066,-118.7624 3116.0239,-99.639 3121.5464,-85.3812"/>
<polygon fill="#191970" stroke="#191970" points="3124.972,-86.199 3125.0719,-75.6047 3118.3871,-83.8244 3124.972,-86.199"/>
</g>
<!-- Node35 -->
<g id="node36" class="node">
<title>Node35</title>
<g id="a_node36"><a xlink:href="../../d6/da2/GPUCommonMath_8h.html" target="_top" xlink:title="GPUCommonMath.h">
<polygon fill="none" stroke="#000000" points="2954.5,-112.5 2954.5,-131.5 3069.5,-131.5 3069.5,-112.5 2954.5,-112.5"/>
<text text-anchor="middle" x="3012" y="-119.5" font-family="Helvetica,sans-Serif" font-size="10.00" fill="#000000">GPUCommonMath.h</text>
</a>
</g>
</g>
<!-- Node30&#45;&gt;Node35 -->
<g id="edge41" class="edge">
<title>Node30&#45;&gt;Node35</title>
<path fill="none" stroke="#191970" d="M3010.3484,-168.2455C3010.6093,-160.9382 3010.9752,-150.6944 3011.2963,-141.7046"/>
<polygon fill="#191970" stroke="#191970" points="3014.7964,-141.7613 3011.6556,-131.6427 3007.8008,-141.5113 3014.7964,-141.7613"/>
</g>
<!-- Node37 -->
<g id="node38" class="node">
<title>Node37</title>
<g id="a_node38"><a xlink:href="../../d6/d84/MathConstants_8h.html" target="_top" xlink:title="useful math constants ">
<polygon fill="none" stroke="#000000" points="2743,-112.5 2743,-131.5 2937,-131.5 2937,-112.5 2743,-112.5"/>
<text text-anchor="middle" x="2840" y="-119.5" font-family="Helvetica,sans-Serif" font-size="10.00" fill="#000000">CommonConstants/MathConstants.h</text>
</a>
</g>
</g>
<!-- Node30&#45;&gt;Node37 -->
<g id="edge45" class="edge">
<title>Node30&#45;&gt;Node37</title>
<path fill="none" stroke="#191970" d="M2980.776,-168.3733C2952.5075,-159.0613 2909.5035,-144.8953 2878.4656,-134.671"/>
<polygon fill="#191970" stroke="#191970" points="2879.4357,-131.3056 2868.8427,-131.5011 2877.2456,-137.9542 2879.4357,-131.3056"/>
</g>
<!-- Node33 -->
<g id="node34" class="node">
<title>Node33</title>
<g id="a_node34"><a xlink:href="../../d5/d93/GPUCommonDefSettings_8h.html" target="_top" xlink:title="GPUCommonDefSettings.h">
<polygon fill="none" stroke="#000000" points="2977,-.5 2977,-19.5 3125,-19.5 3125,-.5 2977,-.5"/>
<text text-anchor="middle" x="3051" y="-7.5" font-family="Helvetica,sans-Serif" font-size="10.00" fill="#000000">GPUCommonDefSettings.h</text>
</a>
</g>
</g>
<!-- Node32&#45;&gt;Node33 -->
<g id="edge39" class="edge">
<title>Node32&#45;&gt;Node33</title>
<path fill="none" stroke="#191970" d="M3114.5876,-56.2455C3102.9943,-47.814 3086.0252,-35.4729 3072.5322,-25.6598"/>
<polygon fill="#191970" stroke="#191970" points="3074.4047,-22.6938 3064.2587,-19.6427 3070.2874,-28.355 3074.4047,-22.6938"/>
</g>
<!-- Node34 -->
<g id="node35" class="node">
<title>Node34</title>
<g id="a_node35"><a xlink:href="../../da/d5a/GPUCommonDefAPI_8h.html" target="_top" xlink:title="GPUCommonDefAPI.h">
<polygon fill="none" stroke="#000000" points="3143,-.5 3143,-19.5 3267,-19.5 3267,-.5 3143,-.5"/>
<text text-anchor="middle" x="3205" y="-7.5" font-family="Helvetica,sans-Serif" font-size="10.00" fill="#000000">GPUCommonDefAPI.h</text>
</a>
</g>
</g>
<!-- Node32&#45;&gt;Node34 -->
<g id="edge40" class="edge">
<title>Node32&#45;&gt;Node34</title>
<path fill="none" stroke="#191970" d="M3141.4124,-56.2455C3153.0057,-47.814 3169.9748,-35.4729 3183.4678,-25.6598"/>
<polygon fill="#191970" stroke="#191970" points="3185.7126,-28.355 3191.7413,-19.6427 3181.5953,-22.6938 3185.7126,-28.355"/>
</g>
<!-- Node35&#45;&gt;Node31 -->
<g id="edge43" class="edge">
<title>Node35&#45;&gt;Node31</title>
<path fill="none" stroke="#191970" d="M3013.2193,-112.2455C3014.1327,-104.9382 3015.4132,-94.6944 3016.5369,-85.7046"/>
<polygon fill="#191970" stroke="#191970" points="3020.0272,-85.9996 3017.7947,-75.6427 3013.0813,-85.1313 3020.0272,-85.9996"/>
</g>
<!-- Node35&#45;&gt;Node32 -->
<g id="edge42" class="edge">
<title>Node35&#45;&gt;Node32</title>
<path fill="none" stroke="#191970" d="M3031.9411,-112.3733C3050.4786,-103.4241 3078.3028,-89.9917 3099.2413,-79.8835"/>
<polygon fill="#191970" stroke="#191970" points="3100.8352,-83.0006 3108.3191,-75.5011 3097.7919,-76.6967 3100.8352,-83.0006"/>
</g>
<!-- Node36 -->
<g id="node37" class="node">
<title>Node36</title>
<polygon fill="none" stroke="#bfbfbf" points="2514,-56.5 2514,-75.5 2578,-75.5 2578,-56.5 2514,-56.5"/>
<text text-anchor="middle" x="2546" y="-63.5" font-family="Helvetica,sans-Serif" font-size="10.00" fill="#000000">algorithm</text>
</g>
<!-- Node35&#45;&gt;Node36 -->
<g id="edge44" class="edge">
<title>Node35&#45;&gt;Node36</title>
<path fill="none" stroke="#191970" d="M2954.4244,-113.1521C2951.5772,-112.7536 2948.757,-112.3673 2946,-112 2815.8971,-94.6685 2661.4595,-78.0146 2588.3747,-70.368"/>
<polygon fill="#191970" stroke="#191970" points="2588.5038,-66.8626 2578.1946,-69.3062 2587.7775,-73.8248 2588.5038,-66.8626"/>
</g>
<!-- Node38&#45;&gt;Node21 -->
<g id="edge49" class="edge">
<title>Node38&#45;&gt;Node21</title>
<path fill="none" stroke="#191970" d="M2255.0348,-229.9757C2206.471,-220.8092 2131.7589,-206.031 2058.2133,-188.1722"/>
<polygon fill="#191970" stroke="#191970" points="2058.8623,-184.7277 2048.3167,-185.7483 2057.197,-191.5268 2058.8623,-184.7277"/>
</g>
<!-- Node38&#45;&gt;Node22 -->
<g id="edge47" class="edge">
<title>Node38&#45;&gt;Node22</title>
<path fill="none" stroke="#191970" d="M2370.6301,-234.5763C2471.4822,-226.212 2659.0369,-208.161 2682,-188 2694.9441,-176.6354 2698.999,-156.9645 2700.0822,-142.0464"/>
<polygon fill="#191970" stroke="#191970" points="2703.5892,-141.8937 2700.4292,-131.7811 2696.5932,-141.6571 2703.5892,-141.8937"/>
</g>
<!-- Node38&#45;&gt;Node24 -->
<g id="edge53" class="edge">
<title>Node38&#45;&gt;Node24</title>
<path fill="none" stroke="#191970" d="M2272.7813,-229.8906C2230.8604,-218.1183 2160.408,-198.3337 2119.68,-186.8964"/>
<polygon fill="#191970" stroke="#191970" points="2120.5751,-183.5125 2110.0013,-184.1784 2118.6826,-190.2518 2120.5751,-183.5125"/>
</g>
<!-- Node38&#45;&gt;Node36 -->
<g id="edge51" class="edge">
<title>Node38&#45;&gt;Node36</title>
<path fill="none" stroke="#191970" d="M2243.3798,-231.5594C2191.0246,-222.3269 2129.5516,-203.5736 2157,-168 2199.5567,-112.8458 2412.1462,-81.6984 2503.8178,-70.645"/>
<polygon fill="#191970" stroke="#191970" points="2504.342,-74.1075 2513.8613,-69.4564 2503.5192,-67.156 2504.342,-74.1075"/>
</g>
<!-- Node39 -->
<g id="node40" class="node">
<title>Node39</title>
<polygon fill="none" stroke="#bfbfbf" points="2464,-168.5 2464,-187.5 2522,-187.5 2522,-168.5 2464,-168.5"/>
<text text-anchor="middle" x="2493" y="-175.5" font-family="Helvetica,sans-Serif" font-size="10.00" fill="#000000">memory</text>
</g>
<!-- Node38&#45;&gt;Node39 -->
<g id="edge48" class="edge">
<title>Node38&#45;&gt;Node39</title>
<path fill="none" stroke="#191970" d="M2336.0625,-229.8906C2367.8662,-219.3749 2419.0051,-202.466 2454.2144,-190.8243"/>
<polygon fill="#191970" stroke="#191970" points="2455.7459,-194.0043 2464.1416,-187.5419 2453.5483,-187.3582 2455.7459,-194.0043"/>
</g>
<!-- Node40 -->
<g id="node41" class="node">
<title>Node40</title>
<polygon fill="none" stroke="#bfbfbf" points="2540,-168.5 2540,-187.5 2590,-187.5 2590,-168.5 2540,-168.5"/>
<text text-anchor="middle" x="2565" y="-175.5" font-family="Helvetica,sans-Serif" font-size="10.00" fill="#000000">cstring</text>
</g>
<!-- Node38&#45;&gt;Node40 -->
<g id="edge50" class="edge">
<title>Node38&#45;&gt;Node40</title>
<path fill="none" stroke="#191970" d="M2352.2441,-229.9339C2395.4995,-220.6014 2462.7551,-205.6058 2529.894,-188.1837"/>
<polygon fill="#191970" stroke="#191970" points="2531.0059,-191.5107 2539.7961,-185.596 2529.236,-184.7382 2531.0059,-191.5107"/>
</g>
<!-- Node41 -->
<g id="node42" class="node">
<title>Node41</title>
<polygon fill="none" stroke="#bfbfbf" points="2608.5,-168.5 2608.5,-187.5 2673.5,-187.5 2673.5,-168.5 2608.5,-168.5"/>
<text text-anchor="middle" x="2641" y="-175.5" font-family="Helvetica,sans-Serif" font-size="10.00" fill="#000000">stdexcept</text>
</g>
<!-- Node38&#45;&gt;Node41 -->
<g id="edge52" class="edge">
<title>Node38&#45;&gt;Node41</title>
<path fill="none" stroke="#191970" d="M2367.0362,-229.9779C2424.0118,-220.6997 2512.2555,-205.7062 2598.52,-188.0017"/>
<polygon fill="#191970" stroke="#191970" points="2599.3983,-191.3942 2608.4831,-185.9428 2597.9817,-184.539 2599.3983,-191.3942"/>
</g>
<!-- Node42 -->
<g id="node43" class="node">
<title>Node42</title>
<polygon fill="none" stroke="#bfbfbf" points="2166,-168.5 2166,-187.5 2216,-187.5 2216,-168.5 2166,-168.5"/>
<text text-anchor="middle" x="2191" y="-175.5" font-family="Helvetica,sans-Serif" font-size="10.00" fill="#000000">climits</text>
</g>
<!-- Node38&#45;&gt;Node42 -->
<g id="edge54" class="edge">
<title>Node38&#45;&gt;Node42</title>
<path fill="none" stroke="#191970" d="M2288.875,-229.8906C2269.8917,-219.8262 2239.8627,-203.9057 2218.0693,-192.3514"/>
<polygon fill="#191970" stroke="#191970" points="2219.4723,-189.1338 2208.9977,-187.5419 2216.1934,-195.3184 2219.4723,-189.1338"/>
</g>
<!-- Node43 -->
<g id="node44" class="node">
<title>Node43</title>
<g id="a_node44"><a xlink:href="../../d7/df8/Types_8h.html" target="_top" xlink:title="MemoryResources/Types.h">
<polygon fill="none" stroke="#000000" points="2234,-168.5 2234,-187.5 2380,-187.5 2380,-168.5 2234,-168.5"/>
<text text-anchor="middle" x="2307" y="-175.5" font-family="Helvetica,sans-Serif" font-size="10.00" fill="#000000">MemoryResources/Types.h</text>
</a>
</g>
</g>
<!-- Node38&#45;&gt;Node43 -->
<g id="edge55" class="edge">
<title>Node38&#45;&gt;Node43</title>
<path fill="none" stroke="#191970" d="M2307,-229.8906C2307,-221.3657 2307,-208.6392 2307,-197.9235"/>
<polygon fill="#191970" stroke="#191970" points="2310.5001,-197.7448 2307,-187.7449 2303.5001,-197.7449 2310.5001,-197.7448"/>
</g>
<!-- Node44 -->
<g id="node45" class="node">
<title>Node44</title>
<polygon fill="none" stroke="#bfbfbf" points="2398.5,-168.5 2398.5,-187.5 2445.5,-187.5 2445.5,-168.5 2398.5,-168.5"/>
<text text-anchor="middle" x="2422" y="-175.5" font-family="Helvetica,sans-Serif" font-size="10.00" fill="#000000">cerrno</text>
</g>
<!-- Node38&#45;&gt;Node44 -->
<g id="edge56" class="edge">
<title>Node38&#45;&gt;Node44</title>
<path fill="none" stroke="#191970" d="M2324.9688,-229.8906C2343.7884,-219.8262 2373.5585,-203.9057 2395.1641,-192.3514"/>
<polygon fill="#191970" stroke="#191970" points="2396.9898,-195.3442 2404.1574,-187.5419 2393.6886,-189.1714 2396.9898,-195.3442"/>
</g>
</g>
</svg>
