<?xml version="1.0" encoding="UTF-8" standalone="no"?>
<!DOCTYPE svg PUBLIC "-//W3C//DTD SVG 1.1//EN"
 "http://www.w3.org/Graphics/SVG/1.1/DTD/svg11.dtd">
<!-- Generated by graphviz version 2.40.1 (20161225.0304)
 -->
<!-- Title: /home/travis/build/AliceO2Group/AliceO2/Detectors/Base/include/DetectorsBase/GeometryManager.h Pages: 1 -->
<!--zoomable 419 -->
<svg id="main" version="1.1" xmlns="http://www.w3.org/2000/svg" xmlns:xlink="http://www.w3.org/1999/xlink" xml:space="preserve" onload="init(evt)">
<style type="text/css"><![CDATA[
.edge:hover path { stroke: red; }
.edge:hover polygon { stroke: red; fill: red; }
]]></style>
<script type="text/javascript"><![CDATA[
var edges = document.getElementsByTagName('g');
if (edges && edges.length) {
  for (var i=0;i<edges.length;i++) {
    if (edges[i].id.substr(0,4)=='edge') {
      edges[i].setAttribute('class','edge');
    }
  }
}
]]></script>
        <defs>
                <circle id="rim" cx="0" cy="0" r="7"/>
                <circle id="rim2" cx="0" cy="0" r="3.5"/>
                <g id="zoomPlus">
                        <use xlink:href="#rim" fill="#404040">
                                <set attributeName="fill" to="#808080" begin="zoomplus.mouseover" end="zoomplus.mouseout"/>
                        </use>
                        <path d="M-4,0h8M0,-4v8" fill="none" stroke="white" stroke-width="1.5" pointer-events="none"/>
                </g>
                <g id="zoomMin">
                        <use xlink:href="#rim" fill="#404040">
                                <set attributeName="fill" to="#808080" begin="zoomminus.mouseover" end="zoomminus.mouseout"/>
                        </use>
                        <path d="M-4,0h8" fill="none" stroke="white" stroke-width="1.5" pointer-events="none"/>
                </g>
                <g id="dirArrow">
                        <path fill="none" stroke="white" stroke-width="1.5" d="M0,-3.0v7 M-2.5,-0.5L0,-3.0L2.5,-0.5"/>
                </g>
               <g id="resetDef">
                       <use xlink:href="#rim2" fill="#404040">
                               <set attributeName="fill" to="#808080" begin="reset.mouseover" end="reset.mouseout"/>
                       </use>
               </g>
        </defs>

<script type="text/javascript">
var viewWidth = 3057;
var viewHeight = 419;
var sectionId = 'dynsection-0';
</script>
<script xlink:href="../../svgpan.js"/>
<svg id="graph" class="graph">
<g id="viewport">
<title>/home/travis/build/AliceO2Group/AliceO2/Detectors/Base/include/DetectorsBase/GeometryManager.h</title>
<!-- Node0 -->
<g id="node1" class="node">
<title>Node0</title>
<polygon fill="#bfbfbf" stroke="#000000" points="522.5,-358.5 522.5,-410.5 715.5,-410.5 715.5,-358.5 522.5,-358.5"/>
<text text-anchor="start" x="530.5" y="-398.5" font-family="Helvetica,sans-Serif" font-size="10.00" fill="#000000">/home/travis/build</text>
<text text-anchor="start" x="530.5" y="-387.5" font-family="Helvetica,sans-Serif" font-size="10.00" fill="#000000">/AliceO2Group/AliceO2</text>
<text text-anchor="start" x="530.5" y="-376.5" font-family="Helvetica,sans-Serif" font-size="10.00" fill="#000000">/Detectors/Base/include</text>
<text text-anchor="middle" x="619" y="-365.5" font-family="Helvetica,sans-Serif" font-size="10.00" fill="#000000">/DetectorsBase/GeometryManager.h</text>
</g>
<!-- Node1 -->
<g id="node2" class="node">
<title>Node1</title>
<polygon fill="none" stroke="#bfbfbf" points="29,-297 29,-316 121,-316 121,-297 29,-297"/>
<text text-anchor="middle" x="75" y="-304" font-family="Helvetica,sans-Serif" font-size="10.00" fill="#000000">TGeoManager.h</text>
</g>
<!-- Node0&#45;&gt;Node1 -->
<g id="edge1" class="edge">
<title>Node0&#45;&gt;Node1</title>
<path fill="none" stroke="#191970" d="M522.2778,-376.3842C423.1303,-367.0742 264.8129,-349.4554 130,-322 125.3248,-321.0479 120.4651,-319.9064 115.6552,-318.6804"/>
<polygon fill="#191970" stroke="#191970" points="116.492,-315.2813 105.9272,-316.0786 114.6833,-322.0436 116.492,-315.2813"/>
</g>
<!-- Node2 -->
<g id="node3" class="node">
<title>Node2</title>
<polygon fill="none" stroke="#bfbfbf" points="139.5,-297 139.5,-316 230.5,-316 230.5,-297 139.5,-297"/>
<text text-anchor="middle" x="185" y="-304" font-family="Helvetica,sans-Serif" font-size="10.00" fill="#000000">TGeoMaterial.h</text>
</g>
<!-- Node0&#45;&gt;Node2 -->
<g id="edge2" class="edge">
<title>Node0&#45;&gt;Node2</title>
<path fill="none" stroke="#191970" d="M522.3545,-371.7764C445.1939,-360.8574 334.5599,-343.4963 239,-322 234.654,-321.0224 230.1399,-319.9002 225.6561,-318.7162"/>
<polygon fill="#191970" stroke="#191970" points="226.5353,-315.3282 215.9656,-316.0576 224.6832,-322.0787 226.5353,-315.3282"/>
</g>
<!-- Node3 -->
<g id="node4" class="node">
<title>Node3</title>
<polygon fill="none" stroke="#bfbfbf" points="248.5,-297 248.5,-316 365.5,-316 365.5,-297 248.5,-297"/>
<text text-anchor="middle" x="307" y="-304" font-family="Helvetica,sans-Serif" font-size="10.00" fill="#000000">TGeoPhysicalNode.h</text>
</g>
<!-- Node0&#45;&gt;Node3 -->
<g id="edge3" class="edge">
<title>Node0&#45;&gt;Node3</title>
<path fill="none" stroke="#191970" d="M522.4179,-360.3545C466.9626,-346.4906 399.7296,-329.6824 355.2863,-318.5716"/>
<polygon fill="#191970" stroke="#191970" points="355.8821,-315.1129 345.3318,-316.0829 354.1843,-321.9039 355.8821,-315.1129"/>
</g>
<!-- Node4 -->
<g id="node5" class="node">
<title>Node4</title>
<polygon fill="none" stroke="#bfbfbf" points="383.5,-297 383.5,-316 464.5,-316 464.5,-297 383.5,-297"/>
<text text-anchor="middle" x="424" y="-304" font-family="Helvetica,sans-Serif" font-size="10.00" fill="#000000">TGeoShape.h</text>
</g>
<!-- Node0&#45;&gt;Node4 -->
<g id="edge4" class="edge">
<title>Node0&#45;&gt;Node4</title>
<path fill="none" stroke="#191970" d="M553.7967,-358.4187C521.5949,-345.538 484.0943,-330.5377 457.706,-319.9824"/>
<polygon fill="#191970" stroke="#191970" points="458.7554,-316.6326 448.1707,-316.1683 456.1556,-323.1319 458.7554,-316.6326"/>
</g>
<!-- Node5 -->
<g id="node6" class="node">
<title>Node5</title>
<polygon fill="none" stroke="#bfbfbf" points="483,-297 483,-316 539,-316 539,-297 483,-297"/>
<text text-anchor="middle" x="511" y="-304" font-family="Helvetica,sans-Serif" font-size="10.00" fill="#000000">TMath.h</text>
</g>
<!-- Node0&#45;&gt;Node5 -->
<g id="edge5" class="edge">
<title>Node0&#45;&gt;Node5</title>
<path fill="none" stroke="#191970" d="M582.7371,-358.3101C566.0921,-346.2887 546.9177,-332.4405 532.5824,-322.0873"/>
<polygon fill="#191970" stroke="#191970" points="534.5039,-319.1577 524.3478,-316.1401 530.4054,-324.8324 534.5039,-319.1577"/>
</g>
<!-- Node6 -->
<g id="node7" class="node">
<title>Node6</title>
<polygon fill="none" stroke="#bfbfbf" points="557.5,-297 557.5,-316 620.5,-316 620.5,-297 557.5,-297"/>
<text text-anchor="middle" x="589" y="-304" font-family="Helvetica,sans-Serif" font-size="10.00" fill="#000000">TObject.h</text>
</g>
<!-- Node0&#45;&gt;Node6 -->
<g id="edge6" class="edge">
<title>Node0&#45;&gt;Node6</title>
<path fill="none" stroke="#191970" d="M608.8434,-358.0928C604.7489,-347.447 600.115,-335.3989 596.3555,-325.6242"/>
<polygon fill="#191970" stroke="#191970" points="599.5427,-324.1609 592.6861,-316.0839 593.0092,-326.6738 599.5427,-324.1609"/>
</g>
<!-- Node7 -->
<g id="node8" class="node">
<title>Node7</title>
<polygon fill="none" stroke="#bfbfbf" points="284.5,-230 284.5,-249 357.5,-249 357.5,-230 284.5,-230"/>
<text text-anchor="middle" x="321" y="-237" font-family="Helvetica,sans-Serif" font-size="10.00" fill="#000000">string_view</text>
</g>
<!-- Node0&#45;&gt;Node7 -->
<g id="edge7" class="edge">
<title>Node0&#45;&gt;Node7</title>
<path fill="none" stroke="#191970" d="M631.3034,-358.3521C639.0357,-337.6329 644.8554,-309.2312 629,-291 591.156,-247.4855 428.3149,-267.4224 372,-255 367.8826,-254.0918 363.6153,-253.0158 359.382,-251.8607"/>
<polygon fill="#191970" stroke="#191970" points="360.2299,-248.4627 349.6521,-249.0631 358.2955,-255.1902 360.2299,-248.4627"/>
</g>
<!-- Node8 -->
<g id="node9" class="node">
<title>Node8</title>
<g id="a_node9"><a xlink:href="../../d6/d31/DetID_8h.html" target="_top" xlink:title="DetectorsCommonDataFormats\l/DetID.h">
<polygon fill="none" stroke="#000000" points="677.5,-291.5 677.5,-321.5 848.5,-321.5 848.5,-291.5 677.5,-291.5"/>
<text text-anchor="start" x="685.5" y="-309.5" font-family="Helvetica,sans-Serif" font-size="10.00" fill="#000000">DetectorsCommonDataFormats</text>
<text text-anchor="middle" x="763" y="-298.5" font-family="Helvetica,sans-Serif" font-size="10.00" fill="#000000">/DetID.h</text>
</a>
</g>
</g>
<!-- Node0&#45;&gt;Node8 -->
<g id="edge8" class="edge">
<title>Node0&#45;&gt;Node8</title>
<path fill="none" stroke="#191970" d="M667.3505,-358.3101C686.554,-347.9083 708.2824,-336.1387 726.1711,-326.449"/>
<polygon fill="#191970" stroke="#191970" points="728.0161,-329.4301 735.142,-321.5897 724.6821,-323.2751 728.0161,-329.4301"/>
</g>
<!-- Node35 -->
<g id="node36" class="node">
<title>Node35</title>
<polygon fill="none" stroke="#bfbfbf" points="866.5,-297 866.5,-316 941.5,-316 941.5,-297 866.5,-297"/>
<text text-anchor="middle" x="904" y="-304" font-family="Helvetica,sans-Serif" font-size="10.00" fill="#000000">FairLogger.h</text>
</g>
<!-- Node0&#45;&gt;Node35 -->
<g id="edge45" class="edge">
<title>Node0&#45;&gt;Node35</title>
<path fill="none" stroke="#191970" d="M715.6537,-360.8452C759.3269,-349.7413 811.4625,-335.9073 858,-322 860.8008,-321.163 863.6872,-320.2682 866.5845,-319.3468"/>
<polygon fill="#191970" stroke="#191970" points="867.9468,-322.584 876.3688,-316.1558 865.7764,-315.9289 867.9468,-322.584"/>
</g>
<!-- Node36 -->
<g id="node37" class="node">
<title>Node36</title>
<g id="a_node37"><a xlink:href="../../dc/d73/Cartesian_8h.html" target="_top" xlink:title="MathUtils/Cartesian.h">
<polygon fill="none" stroke="#000000" points="2059,-297 2059,-316 2181,-316 2181,-297 2059,-297"/>
<text text-anchor="middle" x="2120" y="-304" font-family="Helvetica,sans-Serif" font-size="10.00" fill="#000000">MathUtils/Cartesian.h</text>
</a>
</g>
</g>
<!-- Node0&#45;&gt;Node36 -->
<g id="edge46" class="edge">
<title>Node0&#45;&gt;Node36</title>
<path fill="none" stroke="#191970" d="M715.7522,-379.4722C995.8648,-364.9161 1803.1477,-322.9653 2048.4528,-310.218"/>
<polygon fill="#191970" stroke="#191970" points="2048.8673,-313.7013 2058.6721,-309.6869 2048.5039,-306.7107 2048.8673,-313.7013"/>
</g>
<!-- Node46 -->
<g id="node47" class="node">
<title>Node46</title>
<g id="a_node47"><a xlink:href="../../db/dba/MatCell_8h.html" target="_top" xlink:title="Declarations for material properties of the cell (voxel) ">
<polygon fill="none" stroke="#000000" points="1284.5,-297 1284.5,-316 1421.5,-316 1421.5,-297 1284.5,-297"/>
<text text-anchor="middle" x="1353" y="-304" font-family="Helvetica,sans-Serif" font-size="10.00" fill="#000000">DetectorsBase/MatCell.h</text>
</a>
</g>
</g>
<!-- Node0&#45;&gt;Node46 -->
<g id="edge57" class="edge">
<title>Node0&#45;&gt;Node46</title>
<path fill="none" stroke="#191970" d="M715.7125,-374.2227C862.4449,-358.6298 1138.5269,-329.2914 1273.9805,-314.8972"/>
<polygon fill="#191970" stroke="#191970" points="1274.7019,-318.3403 1284.276,-313.8031 1273.9621,-311.3795 1274.7019,-318.3403"/>
</g>
<!-- Node48 -->
<g id="node49" class="node">
<title>Node48</title>
<polygon fill="none" stroke="#bfbfbf" points="2199,-297 2199,-316 2247,-316 2247,-297 2199,-297"/>
<text text-anchor="middle" x="2223" y="-304" font-family="Helvetica,sans-Serif" font-size="10.00" fill="#000000">mutex</text>
</g>
<!-- Node0&#45;&gt;Node48 -->
<g id="edge61" class="edge">
<title>Node0&#45;&gt;Node48</title>
<path fill="none" stroke="#191970" d="M715.7344,-382.8865C1035.6727,-377.2406 2047.4288,-356.8046 2190,-322 2192.1983,-321.4633 2194.4262,-320.7743 2196.6325,-319.9859"/>
<polygon fill="#191970" stroke="#191970" points="2198.1377,-323.1501 2206.0086,-316.0579 2195.4329,-316.6938 2198.1377,-323.1501"/>
</g>
<!-- Node8&#45;&gt;Node7 -->
<g id="edge14" class="edge">
<title>Node8&#45;&gt;Node7</title>
<path fill="none" stroke="#191970" d="M677.3805,-293.0522C672.5176,-292.3434 667.6981,-291.6545 663,-291 533.9274,-273.0173 499.4815,-282.0476 372,-255 367.8245,-254.1141 363.498,-253.0442 359.2105,-251.8855"/>
<polygon fill="#191970" stroke="#191970" points="359.9437,-248.4548 349.3665,-249.0651 358.0157,-255.1841 359.9437,-248.4548"/>
</g>
<!-- Node9 -->
<g id="node10" class="node">
<title>Node9</title>
<polygon fill="none" stroke="#bfbfbf" points="1414.5,-168.5 1414.5,-187.5 1473.5,-187.5 1473.5,-168.5 1414.5,-168.5"/>
<text text-anchor="middle" x="1444" y="-175.5" font-family="Helvetica,sans-Serif" font-size="10.00" fill="#000000">Rtypes.h</text>
</g>
<!-- Node8&#45;&gt;Node9 -->
<g id="edge9" class="edge">
<title>Node8&#45;&gt;Node9</title>
<path fill="none" stroke="#191970" d="M848.6197,-292.1127C907.5532,-282.0725 987.6042,-268.1641 1058,-255 1184.5024,-231.3439 1333.7846,-200.8206 1403.8649,-186.3372"/>
<polygon fill="#191970" stroke="#191970" points="1404.9341,-189.6901 1414.0176,-184.2366 1403.5158,-182.8353 1404.9341,-189.6901"/>
</g>
<!-- Node10 -->
<g id="node11" class="node">
<title>Node10</title>
<polygon fill="none" stroke="#bfbfbf" points="761,-112.5 761,-131.5 803,-131.5 803,-112.5 761,-112.5"/>
<text text-anchor="middle" x="782" y="-119.5" font-family="Helvetica,sans-Serif" font-size="10.00" fill="#000000">array</text>
</g>
<!-- Node8&#45;&gt;Node10 -->
<g id="edge10" class="edge">
<title>Node8&#45;&gt;Node10</title>
<path fill="none" stroke="#191970" d="M764.5548,-291.4016C767.9764,-258.1761 776.1567,-178.7418 779.9739,-141.6748"/>
<polygon fill="#191970" stroke="#191970" points="783.4654,-141.9355 781.0083,-131.6295 776.5023,-141.2183 783.4654,-141.9355"/>
</g>
<!-- Node11 -->
<g id="node12" class="node">
<title>Node11</title>
<polygon fill="none" stroke="#bfbfbf" points="634,-230 634,-249 678,-249 678,-230 634,-230"/>
<text text-anchor="middle" x="656" y="-237" font-family="Helvetica,sans-Serif" font-size="10.00" fill="#000000">bitset</text>
</g>
<!-- Node8&#45;&gt;Node11 -->
<g id="edge11" class="edge">
<title>Node8&#45;&gt;Node11</title>
<path fill="none" stroke="#191970" d="M738.9871,-291.4639C721.3574,-280.4247 697.5151,-265.4954 679.9097,-254.4715"/>
<polygon fill="#191970" stroke="#191970" points="681.6707,-251.4446 671.3376,-249.1039 677.9556,-257.3775 681.6707,-251.4446"/>
</g>
<!-- Node12 -->
<g id="node13" class="node">
<title>Node12</title>
<polygon fill="none" stroke="#bfbfbf" points="664,-168.5 664,-187.5 716,-187.5 716,-168.5 664,-168.5"/>
<text text-anchor="middle" x="690" y="-175.5" font-family="Helvetica,sans-Serif" font-size="10.00" fill="#000000">cassert</text>
</g>
<!-- Node8&#45;&gt;Node12 -->
<g id="edge12" class="edge">
<title>Node8&#45;&gt;Node12</title>
<path fill="none" stroke="#191970" d="M752.8121,-291.4011C746.0935,-281.254 737.2321,-267.5006 730,-255 718.7375,-235.5328 707.0069,-212.5832 699.1847,-196.834"/>
<polygon fill="#191970" stroke="#191970" points="702.2114,-195.0577 694.653,-187.6333 695.9318,-198.1507 702.2114,-195.0577"/>
</g>
<!-- Node13 -->
<g id="node14" class="node">
<title>Node13</title>
<polygon fill="none" stroke="#bfbfbf" points="693,-112.5 693,-131.5 743,-131.5 743,-112.5 693,-112.5"/>
<text text-anchor="middle" x="718" y="-119.5" font-family="Helvetica,sans-Serif" font-size="10.00" fill="#000000">cstdint</text>
</g>
<!-- Node8&#45;&gt;Node13 -->
<g id="edge13" class="edge">
<title>Node8&#45;&gt;Node13</title>
<path fill="none" stroke="#191970" d="M759.3175,-291.4016C751.2137,-258.1761 731.8395,-178.7418 722.7987,-141.6748"/>
<polygon fill="#191970" stroke="#191970" points="726.1186,-140.5153 720.3487,-131.6295 719.318,-142.1741 726.1186,-140.5153"/>
</g>
<!-- Node14 -->
<g id="node15" class="node">
<title>Node14</title>
<polygon fill="none" stroke="#bfbfbf" points="0,-168.5 0,-187.5 44,-187.5 44,-168.5 0,-168.5"/>
<text text-anchor="middle" x="22" y="-175.5" font-family="Helvetica,sans-Serif" font-size="10.00" fill="#000000">string</text>
</g>
<!-- Node8&#45;&gt;Node14 -->
<g id="edge15" class="edge">
<title>Node8&#45;&gt;Node14</title>
<path fill="none" stroke="#191970" d="M677.3713,-294.7419C573.4677,-280.3934 411.2522,-257.6969 405,-255 384.6688,-246.23 386.4457,-232.4996 366,-224 238.7379,-171.0951 193.2447,-214.5226 58,-188 56.7468,-187.7542 55.4735,-187.4871 54.1905,-187.2034"/>
<polygon fill="#191970" stroke="#191970" points="54.887,-183.7705 44.3405,-184.782 53.2158,-190.5681 54.887,-183.7705"/>
</g>
<!-- Node15 -->
<g id="node16" class="node">
<title>Node15</title>
<polygon fill="none" stroke="#bfbfbf" points="810.5,-230 810.5,-249 879.5,-249 879.5,-230 810.5,-230"/>
<text text-anchor="middle" x="845" y="-237" font-family="Helvetica,sans-Serif" font-size="10.00" fill="#000000">type_traits</text>
</g>
<!-- Node8&#45;&gt;Node15 -->
<g id="edge16" class="edge">
<title>Node8&#45;&gt;Node15</title>
<path fill="none" stroke="#191970" d="M781.6071,-291.2967C794.6311,-280.6551 812.0039,-266.4602 825.269,-255.6217"/>
<polygon fill="#191970" stroke="#191970" points="827.7766,-258.0926 833.3059,-249.055 823.3475,-252.6719 827.7766,-258.0926"/>
</g>
<!-- Node16 -->
<g id="node17" class="node">
<title>Node16</title>
<g id="a_node17"><a xlink:href="../../d9/d52/Common_2MathUtils_2include_2MathUtils_2Utils_8h.html" target="_top" xlink:title="MathUtils/Utils.h">
<polygon fill="none" stroke="#000000" points="951,-230 951,-249 1049,-249 1049,-230 951,-230"/>
<text text-anchor="middle" x="1000" y="-237" font-family="Helvetica,sans-Serif" font-size="10.00" fill="#000000">MathUtils/Utils.h</text>
</a>
</g>
</g>
<!-- Node8&#45;&gt;Node16 -->
<g id="edge17" class="edge">
<title>Node8&#45;&gt;Node16</title>
<path fill="none" stroke="#191970" d="M816.1874,-291.4639C858.4967,-279.503 916.9601,-262.9754 956.5034,-251.7965"/>
<polygon fill="#191970" stroke="#191970" points="957.7061,-255.0937 966.3768,-249.0053 955.8018,-248.3577 957.7061,-255.0937"/>
</g>
<!-- Node28 -->
<g id="node29" class="node">
<title>Node28</title>
<g id="a_node29"><a xlink:href="../../dc/dcd/DataHeader_8h.html" target="_top" xlink:title="Headers/DataHeader.h">
<polygon fill="none" stroke="#000000" points="414.5,-230 414.5,-249 541.5,-249 541.5,-230 414.5,-230"/>
<text text-anchor="middle" x="478" y="-237" font-family="Helvetica,sans-Serif" font-size="10.00" fill="#000000">Headers/DataHeader.h</text>
</a>
</g>
</g>
<!-- Node8&#45;&gt;Node28 -->
<g id="edge34" class="edge">
<title>Node8&#45;&gt;Node28</title>
<path fill="none" stroke="#191970" d="M699.0404,-291.4639C647.406,-279.3253 575.7641,-262.4831 528.201,-251.3016"/>
<polygon fill="#191970" stroke="#191970" points="528.9686,-247.8867 518.4329,-249.0053 527.3666,-254.701 528.9686,-247.8867"/>
</g>
<!-- Node17 -->
<g id="node18" class="node">
<title>Node17</title>
<g id="a_node18"><a xlink:href="../../de/def/bitOps_8h.html" target="_top" xlink:title="MathUtils/detail/bitOps.h">
<polygon fill="none" stroke="#000000" points="810.5,-168.5 810.5,-187.5 947.5,-187.5 947.5,-168.5 810.5,-168.5"/>
<text text-anchor="middle" x="879" y="-175.5" font-family="Helvetica,sans-Serif" font-size="10.00" fill="#000000">MathUtils/detail/bitOps.h</text>
</a>
</g>
</g>
<!-- Node16&#45;&gt;Node17 -->
<g id="edge18" class="edge">
<title>Node16&#45;&gt;Node17</title>
<path fill="none" stroke="#191970" d="M981.0938,-229.8906C961.2034,-219.7811 929.6877,-203.7628 906.9308,-192.1962"/>
<polygon fill="#191970" stroke="#191970" points="908.274,-188.9528 897.7735,-187.5419 905.1022,-195.193 908.274,-188.9528"/>
</g>
<!-- Node18 -->
<g id="node19" class="node">
<title>Node18</title>
<g id="a_node19"><a xlink:href="../../d3/dfc/StatAccumulator_8h.html" target="_top" xlink:title="MathUtils/detail/StatAccumulator.h">
<polygon fill="none" stroke="#000000" points="1156,-168.5 1156,-187.5 1342,-187.5 1342,-168.5 1156,-168.5"/>
<text text-anchor="middle" x="1249" y="-175.5" font-family="Helvetica,sans-Serif" font-size="10.00" fill="#000000">MathUtils/detail/StatAccumulator.h</text>
</a>
</g>
</g>
<!-- Node16&#45;&gt;Node18 -->
<g id="edge20" class="edge">
<title>Node16&#45;&gt;Node18</title>
<path fill="none" stroke="#191970" d="M1038.633,-229.9581C1082.2481,-219.1857 1153.2753,-201.6428 1200.5641,-189.9631"/>
<polygon fill="#191970" stroke="#191970" points="1201.4073,-193.3601 1210.2763,-187.5643 1199.7288,-186.5643 1201.4073,-193.3601"/>
</g>
<!-- Node20 -->
<g id="node21" class="node">
<title>Node20</title>
<g id="a_node21"><a xlink:href="../../dd/d7d/trigonometric_8h.html" target="_top" xlink:title="MathUtils/detail/trigonometric.h">
<polygon fill="none" stroke="#000000" points="966,-168.5 966,-187.5 1138,-187.5 1138,-168.5 966,-168.5"/>
<text text-anchor="middle" x="1052" y="-175.5" font-family="Helvetica,sans-Serif" font-size="10.00" fill="#000000">MathUtils/detail/trigonometric.h</text>
</a>
</g>
</g>
<!-- Node16&#45;&gt;Node20 -->
<g id="edge22" class="edge">
<title>Node16&#45;&gt;Node20</title>
<path fill="none" stroke="#191970" d="M1008.125,-229.8906C1015.8642,-220.7376 1027.6987,-206.7409 1037.1272,-195.59"/>
<polygon fill="#191970" stroke="#191970" points="1039.9765,-197.6409 1043.7604,-187.7449 1034.6311,-193.1213 1039.9765,-197.6409"/>
</g>
<!-- Node17&#45;&gt;Node13 -->
<g id="edge19" class="edge">
<title>Node17&#45;&gt;Node13</title>
<path fill="none" stroke="#191970" d="M851.3231,-168.3733C824.0209,-158.8769 782.2049,-144.3321 752.6959,-134.0682"/>
<polygon fill="#191970" stroke="#191970" points="753.7939,-130.7444 743.1991,-130.7649 751.4942,-137.3559 753.7939,-130.7444"/>
</g>
<!-- Node19 -->
<g id="node20" class="node">
<title>Node19</title>
<polygon fill="none" stroke="#bfbfbf" points="1243.5,-112.5 1243.5,-131.5 1284.5,-131.5 1284.5,-112.5 1243.5,-112.5"/>
<text text-anchor="middle" x="1264" y="-119.5" font-family="Helvetica,sans-Serif" font-size="10.00" fill="#000000">tuple</text>
</g>
<!-- Node18&#45;&gt;Node19 -->
<g id="edge21" class="edge">
<title>Node18&#45;&gt;Node19</title>
<path fill="none" stroke="#191970" d="M1251.6128,-168.2455C1253.5916,-160.8579 1256.3744,-150.4689 1258.8012,-141.4087"/>
<polygon fill="#191970" stroke="#191970" points="1262.2105,-142.2078 1261.4171,-131.6427 1255.4489,-140.3966 1262.2105,-142.2078"/>
</g>
<!-- Node20&#45;&gt;Node10 -->
<g id="edge23" class="edge">
<title>Node20&#45;&gt;Node10</title>
<path fill="none" stroke="#191970" d="M996.1583,-168.4494C948.3616,-159.9459 877.8358,-146.617 817,-132 815.7211,-131.6927 814.4189,-131.3693 813.1055,-131.0344"/>
<polygon fill="#191970" stroke="#191970" points="813.5886,-127.5399 803.0226,-128.3198 811.7688,-134.2993 813.5886,-127.5399"/>
</g>
<!-- Node20&#45;&gt;Node19 -->
<g id="edge25" class="edge">
<title>Node20&#45;&gt;Node19</title>
<path fill="none" stroke="#191970" d="M1089.7057,-168.4804C1125.5873,-159.3553 1181.0625,-145.0753 1229,-132 1230.448,-131.605 1231.9286,-131.1973 1233.4232,-130.7826"/>
<polygon fill="#191970" stroke="#191970" points="1234.6168,-134.0827 1243.2949,-128.0048 1232.7207,-127.3444 1234.6168,-134.0827"/>
</g>
<!-- Node21 -->
<g id="node22" class="node">
<title>Node21</title>
<polygon fill="none" stroke="#bfbfbf" points="850.5,-56.5 850.5,-75.5 897.5,-75.5 897.5,-56.5 850.5,-56.5"/>
<text text-anchor="middle" x="874" y="-63.5" font-family="Helvetica,sans-Serif" font-size="10.00" fill="#000000">cmath</text>
</g>
<!-- Node20&#45;&gt;Node21 -->
<g id="edge24" class="edge">
<title>Node20&#45;&gt;Node21</title>
<path fill="none" stroke="#191970" d="M965.7577,-168.9635C918.1043,-161.9963 865.642,-150.3714 851,-132 839.852,-118.0125 849.1679,-98.2507 859.0773,-84.002"/>
<polygon fill="#191970" stroke="#191970" points="861.9262,-86.0371 865.1464,-75.9435 856.3346,-81.8259 861.9262,-86.0371"/>
</g>
<!-- Node22 -->
<g id="node23" class="node">
<title>Node22</title>
<g id="a_node23"><a xlink:href="../../df/d21/GPUCommonDef_8h.html" target="_top" xlink:title="GPUCommonDef.h">
<polygon fill="none" stroke="#000000" points="1161.5,-56.5 1161.5,-75.5 1268.5,-75.5 1268.5,-56.5 1161.5,-56.5"/>
<text text-anchor="middle" x="1215" y="-63.5" font-family="Helvetica,sans-Serif" font-size="10.00" fill="#000000">GPUCommonDef.h</text>
</a>
</g>
</g>
<!-- Node20&#45;&gt;Node22 -->
<g id="edge26" class="edge">
<title>Node20&#45;&gt;Node22</title>
<path fill="none" stroke="#191970" d="M1097.1059,-168.4762C1133.9418,-159.8406 1182.1014,-146.3062 1196,-132 1207.9177,-119.7328 1212.4452,-100.4923 1214.1226,-85.944"/>
<polygon fill="#191970" stroke="#191970" points="1217.6152,-86.1742 1214.9249,-75.9266 1210.6376,-85.6153 1217.6152,-86.1742"/>
</g>
<!-- Node25 -->
<g id="node26" class="node">
<title>Node25</title>
<g id="a_node26"><a xlink:href="../../d6/da2/GPUCommonMath_8h.html" target="_top" xlink:title="GPUCommonMath.h">
<polygon fill="none" stroke="#000000" points="859.5,-112.5 859.5,-131.5 974.5,-131.5 974.5,-112.5 859.5,-112.5"/>
<text text-anchor="middle" x="917" y="-119.5" font-family="Helvetica,sans-Serif" font-size="10.00" fill="#000000">GPUCommonMath.h</text>
</a>
</g>
</g>
<!-- Node20&#45;&gt;Node25 -->
<g id="edge29" class="edge">
<title>Node20&#45;&gt;Node25</title>
<path fill="none" stroke="#191970" d="M1028.7927,-168.3733C1006.8301,-159.2629 973.6668,-145.5062 949.1599,-135.3404"/>
<polygon fill="#191970" stroke="#191970" points="950.4824,-132.0999 939.9045,-131.5011 947.8003,-138.5657 950.4824,-132.0999"/>
</g>
<!-- Node27 -->
<g id="node28" class="node">
<title>Node27</title>
<g id="a_node28"><a xlink:href="../../d6/d84/MathConstants_8h.html" target="_top" xlink:title="useful math constants ">
<polygon fill="none" stroke="#000000" points="993,-112.5 993,-131.5 1187,-131.5 1187,-112.5 993,-112.5"/>
<text text-anchor="middle" x="1090" y="-119.5" font-family="Helvetica,sans-Serif" font-size="10.00" fill="#000000">CommonConstants/MathConstants.h</text>
</a>
</g>
</g>
<!-- Node20&#45;&gt;Node27 -->
<g id="edge33" class="edge">
<title>Node20&#45;&gt;Node27</title>
<path fill="none" stroke="#191970" d="M1058.6191,-168.2455C1063.9046,-160.4564 1071.4541,-149.3308 1077.8238,-139.9439"/>
<polygon fill="#191970" stroke="#191970" points="1080.7379,-141.8827 1083.4568,-131.6427 1074.9455,-137.9522 1080.7379,-141.8827"/>
</g>
<!-- Node23 -->
<g id="node24" class="node">
<title>Node23</title>
<g id="a_node24"><a xlink:href="../../d5/d93/GPUCommonDefSettings_8h.html" target="_top" xlink:title="GPUCommonDefSettings.h">
<polygon fill="none" stroke="#000000" points="1064,-.5 1064,-19.5 1212,-19.5 1212,-.5 1064,-.5"/>
<text text-anchor="middle" x="1138" y="-7.5" font-family="Helvetica,sans-Serif" font-size="10.00" fill="#000000">GPUCommonDefSettings.h</text>
</a>
</g>
</g>
<!-- Node22&#45;&gt;Node23 -->
<g id="edge27" class="edge">
<title>Node22&#45;&gt;Node23</title>
<path fill="none" stroke="#191970" d="M1201.5876,-56.2455C1189.9943,-47.814 1173.0252,-35.4729 1159.5322,-25.6598"/>
<polygon fill="#191970" stroke="#191970" points="1161.4047,-22.6938 1151.2587,-19.6427 1157.2874,-28.355 1161.4047,-22.6938"/>
</g>
<!-- Node24 -->
<g id="node25" class="node">
<title>Node24</title>
<g id="a_node25"><a xlink:href="../../da/d5a/GPUCommonDefAPI_8h.html" target="_top" xlink:title="GPUCommonDefAPI.h">
<polygon fill="none" stroke="#000000" points="1230,-.5 1230,-19.5 1354,-19.5 1354,-.5 1230,-.5"/>
<text text-anchor="middle" x="1292" y="-7.5" font-family="Helvetica,sans-Serif" font-size="10.00" fill="#000000">GPUCommonDefAPI.h</text>
</a>
</g>
</g>
<!-- Node22&#45;&gt;Node24 -->
<g id="edge28" class="edge">
<title>Node22&#45;&gt;Node24</title>
<path fill="none" stroke="#191970" d="M1228.4124,-56.2455C1240.0057,-47.814 1256.9748,-35.4729 1270.4678,-25.6598"/>
<polygon fill="#191970" stroke="#191970" points="1272.7126,-28.355 1278.7413,-19.6427 1268.5953,-22.6938 1272.7126,-28.355"/>
</g>
<!-- Node25&#45;&gt;Node21 -->
<g id="edge31" class="edge">
<title>Node25&#45;&gt;Node21</title>
<path fill="none" stroke="#191970" d="M909.51,-112.2455C903.4674,-104.3761 894.8097,-93.101 887.5559,-83.6542"/>
<polygon fill="#191970" stroke="#191970" points="890.2705,-81.4426 881.4042,-75.6427 884.7185,-85.7058 890.2705,-81.4426"/>
</g>
<!-- Node25&#45;&gt;Node22 -->
<g id="edge30" class="edge">
<title>Node25&#45;&gt;Node22</title>
<path fill="none" stroke="#191970" d="M967.8894,-112.4369C1019.5327,-102.7321 1099.4826,-87.708 1154.3749,-77.3926"/>
<polygon fill="#191970" stroke="#191970" points="1155.1389,-80.8104 1164.3205,-75.5237 1153.8461,-73.9308 1155.1389,-80.8104"/>
</g>
<!-- Node26 -->
<g id="node27" class="node">
<title>Node26</title>
<polygon fill="none" stroke="#bfbfbf" points="426,-56.5 426,-75.5 490,-75.5 490,-56.5 426,-56.5"/>
<text text-anchor="middle" x="458" y="-63.5" font-family="Helvetica,sans-Serif" font-size="10.00" fill="#000000">algorithm</text>
</g>
<!-- Node25&#45;&gt;Node26 -->
<g id="edge32" class="edge">
<title>Node25&#45;&gt;Node26</title>
<path fill="none" stroke="#191970" d="M859.3321,-114.9643C765.7015,-103.5409 582.7878,-81.2247 500.2246,-71.1516"/>
<polygon fill="#191970" stroke="#191970" points="500.5468,-67.665 490.1965,-69.9281 499.699,-74.6135 500.5468,-67.665"/>
</g>
<!-- Node28&#45;&gt;Node12 -->
<g id="edge37" class="edge">
<title>Node28&#45;&gt;Node12</title>
<path fill="none" stroke="#191970" d="M511.125,-229.8906C549.9882,-218.6166 614.1823,-199.9943 654.1758,-188.3924"/>
<polygon fill="#191970" stroke="#191970" points="655.1631,-191.7504 663.792,-185.6028 653.2128,-185.0275 655.1631,-191.7504"/>
</g>
<!-- Node28&#45;&gt;Node13 -->
<g id="edge35" class="edge">
<title>Node28&#45;&gt;Node13</title>
<path fill="none" stroke="#191970" d="M467.2946,-229.7936C452.3909,-215.1227 428.9337,-186.9999 445,-168 460.2024,-150.0217 612.065,-132.6162 682.4834,-125.4389"/>
<polygon fill="#191970" stroke="#191970" points="683.0553,-128.8991 692.6547,-124.4158 682.3546,-121.9343 683.0553,-128.8991"/>
</g>
<!-- Node28&#45;&gt;Node14 -->
<g id="edge41" class="edge">
<title>Node28&#45;&gt;Node14</title>
<path fill="none" stroke="#191970" d="M433.5754,-229.9435C422.6326,-227.791 410.9203,-225.6562 400,-224 248.8883,-201.0814 208.1493,-216.5517 58,-188 56.7454,-187.7614 55.4709,-187.5004 54.1869,-187.2218"/>
<polygon fill="#191970" stroke="#191970" points="54.8769,-183.7876 44.3327,-184.8225 53.2208,-190.5889 54.8769,-183.7876"/>
</g>
<!-- Node28&#45;&gt;Node26 -->
<g id="edge39" class="edge">
<title>Node28&#45;&gt;Node26</title>
<path fill="none" stroke="#191970" d="M433.1515,-229.9486C422.3271,-227.8205 410.7745,-225.6954 400,-224 331.7091,-213.2543 136.9677,-239.6341 91,-188 45.0922,-136.4332 309.7804,-88.9856 415.6699,-72.3169"/>
<polygon fill="#191970" stroke="#191970" points="416.36,-75.7517 425.7025,-70.7551 415.2832,-68.835 416.36,-75.7517"/>
</g>
<!-- Node29 -->
<g id="node30" class="node">
<title>Node29</title>
<polygon fill="none" stroke="#bfbfbf" points="520,-168.5 520,-187.5 578,-187.5 578,-168.5 520,-168.5"/>
<text text-anchor="middle" x="549" y="-175.5" font-family="Helvetica,sans-Serif" font-size="10.00" fill="#000000">memory</text>
</g>
<!-- Node28&#45;&gt;Node29 -->
<g id="edge36" class="edge">
<title>Node28&#45;&gt;Node29</title>
<path fill="none" stroke="#191970" d="M489.0938,-229.8906C499.9715,-220.4683 516.7748,-205.9134 529.82,-194.6137"/>
<polygon fill="#191970" stroke="#191970" points="532.4827,-196.9377 537.7498,-187.7449 527.8996,-191.6466 532.4827,-196.9377"/>
</g>
<!-- Node30 -->
<g id="node31" class="node">
<title>Node30</title>
<polygon fill="none" stroke="#bfbfbf" points="596,-168.5 596,-187.5 646,-187.5 646,-168.5 596,-168.5"/>
<text text-anchor="middle" x="621" y="-175.5" font-family="Helvetica,sans-Serif" font-size="10.00" fill="#000000">cstring</text>
</g>
<!-- Node28&#45;&gt;Node30 -->
<g id="edge38" class="edge">
<title>Node28&#45;&gt;Node30</title>
<path fill="none" stroke="#191970" d="M500.3438,-229.8906C524.2703,-219.6005 562.4309,-203.1888 589.4216,-191.5809"/>
<polygon fill="#191970" stroke="#191970" points="591.0095,-194.708 598.8131,-187.5419 588.2439,-188.2775 591.0095,-194.708"/>
</g>
<!-- Node31 -->
<g id="node32" class="node">
<title>Node31</title>
<polygon fill="none" stroke="#bfbfbf" points="100.5,-168.5 100.5,-187.5 165.5,-187.5 165.5,-168.5 100.5,-168.5"/>
<text text-anchor="middle" x="133" y="-175.5" font-family="Helvetica,sans-Serif" font-size="10.00" fill="#000000">stdexcept</text>
</g>
<!-- Node28&#45;&gt;Node31 -->
<g id="edge40" class="edge">
<title>Node28&#45;&gt;Node31</title>
<path fill="none" stroke="#191970" d="M431.4469,-229.9522C421.1074,-227.9145 410.1923,-225.8274 400,-224 303.4327,-206.6861 276.0252,-207.6604 175.4707,-187.966"/>
<polygon fill="#191970" stroke="#191970" points="175.9957,-184.5021 165.5065,-185.9943 174.6368,-191.369 175.9957,-184.5021"/>
</g>
<!-- Node32 -->
<g id="node33" class="node">
<title>Node32</title>
<polygon fill="none" stroke="#bfbfbf" points="184,-168.5 184,-187.5 234,-187.5 234,-168.5 184,-168.5"/>
<text text-anchor="middle" x="209" y="-175.5" font-family="Helvetica,sans-Serif" font-size="10.00" fill="#000000">climits</text>
</g>
<!-- Node28&#45;&gt;Node32 -->
<g id="edge42" class="edge">
<title>Node28&#45;&gt;Node32</title>
<path fill="none" stroke="#191970" d="M429.6082,-229.9316C384.0728,-220.6955 313.7936,-205.845 244.0338,-188.1417"/>
<polygon fill="#191970" stroke="#191970" points="244.7519,-184.7127 234.1964,-185.625 243.0169,-191.4943 244.7519,-184.7127"/>
</g>
<!-- Node33 -->
<g id="node34" class="node">
<title>Node33</title>
<g id="a_node34"><a xlink:href="../../d7/df8/Types_8h.html" target="_top" xlink:title="MemoryResources/Types.h">
<polygon fill="none" stroke="#000000" points="252,-168.5 252,-187.5 398,-187.5 398,-168.5 252,-168.5"/>
<text text-anchor="middle" x="325" y="-175.5" font-family="Helvetica,sans-Serif" font-size="10.00" fill="#000000">MemoryResources/Types.h</text>
</a>
</g>
</g>
<!-- Node28&#45;&gt;Node33 -->
<g id="edge43" class="edge">
<title>Node28&#45;&gt;Node33</title>
<path fill="none" stroke="#191970" d="M454.0938,-229.8906C428.2695,-219.5103 386.9473,-202.9004 358.0295,-191.2766"/>
<polygon fill="#191970" stroke="#191970" points="359.3222,-188.0241 348.7384,-187.5419 356.7115,-194.519 359.3222,-188.0241"/>
</g>
<!-- Node34 -->
<g id="node35" class="node">
<title>Node34</title>
<polygon fill="none" stroke="#bfbfbf" points="454.5,-168.5 454.5,-187.5 501.5,-187.5 501.5,-168.5 454.5,-168.5"/>
<text text-anchor="middle" x="478" y="-175.5" font-family="Helvetica,sans-Serif" font-size="10.00" fill="#000000">cerrno</text>
</g>
<!-- Node28&#45;&gt;Node34 -->
<g id="edge44" class="edge">
<title>Node28&#45;&gt;Node34</title>
<path fill="none" stroke="#191970" d="M478,-229.8906C478,-221.3657 478,-208.6392 478,-197.9235"/>
<polygon fill="#191970" stroke="#191970" points="481.5001,-197.7448 478,-187.7449 474.5001,-197.7449 481.5001,-197.7448"/>
</g>
<!-- Node36&#45;&gt;Node9 -->
<g id="edge54" class="edge">
<title>Node36&#45;&gt;Node9</title>
<path fill="none" stroke="#191970" d="M2058.9719,-305.4294C1932.106,-302.4802 1644.2115,-291.8203 1554,-255 1533.8203,-246.7635 1533.6577,-236.7776 1516,-224 1500.7205,-212.9433 1482.8576,-201.5223 1468.7466,-192.8263"/>
<polygon fill="#191970" stroke="#191970" points="1470.4395,-189.7591 1460.0804,-187.5365 1466.7925,-195.734 1470.4395,-189.7591"/>
</g>
<!-- Node37 -->
<g id="node38" class="node">
<title>Node37</title>
<polygon fill="none" stroke="#bfbfbf" points="2499,-224.5 2499,-254.5 2663,-254.5 2663,-224.5 2499,-224.5"/>
<text text-anchor="start" x="2507" y="-242.5" font-family="Helvetica,sans-Serif" font-size="10.00" fill="#000000">Math/GenVector/Displacement</text>
<text text-anchor="middle" x="2581" y="-231.5" font-family="Helvetica,sans-Serif" font-size="10.00" fill="#000000">Vector3D.h</text>
</g>
<!-- Node36&#45;&gt;Node37 -->
<g id="edge47" class="edge">
<title>Node36&#45;&gt;Node37</title>
<path fill="none" stroke="#191970" d="M2159.8453,-296.9653C2169.6665,-294.8122 2180.1836,-292.6716 2190,-291 2319.1521,-269.0069 2355.348,-274.0128 2488.5068,-255.1674"/>
<polygon fill="#191970" stroke="#191970" points="2489.2871,-258.5914 2498.6888,-253.707 2488.2932,-251.6623 2489.2871,-258.5914"/>
</g>
<!-- Node38 -->
<g id="node39" class="node">
<title>Node38</title>
<polygon fill="none" stroke="#bfbfbf" points="2681.5,-230 2681.5,-249 2870.5,-249 2870.5,-230 2681.5,-230"/>
<text text-anchor="middle" x="2776" y="-237" font-family="Helvetica,sans-Serif" font-size="10.00" fill="#000000">Math/GenVector/PositionVector3D.h</text>
</g>
<!-- Node36&#45;&gt;Node38 -->
<g id="edge48" class="edge">
<title>Node36&#45;&gt;Node38</title>
<path fill="none" stroke="#191970" d="M2158.3277,-296.9745C2168.5636,-294.716 2179.656,-292.5235 2190,-291 2402.5262,-259.6986 2458.5091,-278.8493 2672,-255 2683.3658,-253.7303 2695.397,-252.1538 2707.0874,-250.4967"/>
<polygon fill="#191970" stroke="#191970" points="2707.8525,-253.9225 2717.2477,-249.0253 2706.8493,-246.9947 2707.8525,-253.9225"/>
</g>
<!-- Node39 -->
<g id="node40" class="node">
<title>Node39</title>
<polygon fill="none" stroke="#bfbfbf" points="2889,-230 2889,-249 3049,-249 3049,-230 2889,-230"/>
<text text-anchor="middle" x="2969" y="-237" font-family="Helvetica,sans-Serif" font-size="10.00" fill="#000000">Math/GenVector/Rotation3D.h</text>
</g>
<!-- Node36&#45;&gt;Node39 -->
<g id="edge49" class="edge">
<title>Node36&#45;&gt;Node39</title>
<path fill="none" stroke="#191970" d="M2157.5758,-296.9787C2168.0126,-294.663 2179.3929,-292.4409 2190,-291 2494.2889,-249.6635 2574.8498,-289.4061 2880,-255 2889.9356,-253.8797 2900.4419,-252.3562 2910.6186,-250.6998"/>
<polygon fill="#191970" stroke="#191970" points="2911.3727,-254.1221 2920.652,-249.009 2910.2094,-247.2195 2911.3727,-254.1221"/>
</g>
<!-- Node40 -->
<g id="node41" class="node">
<title>Node40</title>
<polygon fill="none" stroke="#bfbfbf" points="1563,-230 1563,-249 1731,-249 1731,-230 1563,-230"/>
<text text-anchor="middle" x="1647" y="-237" font-family="Helvetica,sans-Serif" font-size="10.00" fill="#000000">Math/GenVector/Transform3D.h</text>
</g>
<!-- Node36&#45;&gt;Node40 -->
<g id="edge50" class="edge">
<title>Node36&#45;&gt;Node40</title>
<path fill="none" stroke="#191970" d="M2058.8772,-298.7367C1983.9008,-289.0887 1852.9591,-271.8339 1741,-255 1731.9914,-253.6455 1722.5081,-252.1563 1713.1712,-250.6532"/>
<polygon fill="#191970" stroke="#191970" points="1713.5583,-247.1703 1703.1266,-249.0223 1712.4364,-254.0798 1713.5583,-247.1703"/>
</g>
<!-- Node41 -->
<g id="node42" class="node">
<title>Node41</title>
<polygon fill="none" stroke="#bfbfbf" points="1749.5,-230 1749.5,-249 1922.5,-249 1922.5,-230 1749.5,-230"/>
<text text-anchor="middle" x="1836" y="-237" font-family="Helvetica,sans-Serif" font-size="10.00" fill="#000000">Math/GenVector/Translation3D.h</text>
</g>
<!-- Node36&#45;&gt;Node41 -->
<g id="edge51" class="edge">
<title>Node36&#45;&gt;Node41</title>
<path fill="none" stroke="#191970" d="M2079.6113,-296.9717C2028.8648,-284.9998 1941.76,-264.4504 1886.6175,-251.4415"/>
<polygon fill="#191970" stroke="#191970" points="1887.2456,-247.9936 1876.7092,-249.1039 1885.6383,-254.8066 1887.2456,-247.9936"/>
</g>
<!-- Node42 -->
<g id="node43" class="node">
<title>Node42</title>
<polygon fill="none" stroke="#bfbfbf" points="1941,-224.5 1941,-254.5 2105,-254.5 2105,-224.5 1941,-224.5"/>
<text text-anchor="start" x="1949" y="-242.5" font-family="Helvetica,sans-Serif" font-size="10.00" fill="#000000">Math/GenVector/Displacement</text>
<text text-anchor="middle" x="2023" y="-231.5" font-family="Helvetica,sans-Serif" font-size="10.00" fill="#000000">Vector2D.h</text>
</g>
<!-- Node36&#45;&gt;Node42 -->
<g id="edge52" class="edge">
<title>Node36&#45;&gt;Node42</title>
<path fill="none" stroke="#191970" d="M2106.1023,-296.9005C2092.3265,-287.3853 2070.7795,-272.5023 2053.0779,-260.2755"/>
<polygon fill="#191970" stroke="#191970" points="2054.9651,-257.3253 2044.7479,-254.5218 2050.9868,-263.0849 2054.9651,-257.3253"/>
</g>
<!-- Node43 -->
<g id="node44" class="node">
<title>Node43</title>
<polygon fill="none" stroke="#bfbfbf" points="2123.5,-230 2123.5,-249 2312.5,-249 2312.5,-230 2123.5,-230"/>
<text text-anchor="middle" x="2218" y="-237" font-family="Helvetica,sans-Serif" font-size="10.00" fill="#000000">Math/GenVector/PositionVector2D.h</text>
</g>
<!-- Node36&#45;&gt;Node43 -->
<g id="edge53" class="edge">
<title>Node36&#45;&gt;Node43</title>
<path fill="none" stroke="#191970" d="M2134.041,-296.9005C2150.1238,-285.9052 2176.6906,-267.7422 2195.6316,-254.7927"/>
<polygon fill="#191970" stroke="#191970" points="2197.7052,-257.6148 2203.985,-249.0817 2193.7545,-251.8362 2197.7052,-257.6148"/>
</g>
<!-- Node44 -->
<g id="node45" class="node">
<title>Node44</title>
<polygon fill="none" stroke="#bfbfbf" points="2331,-230 2331,-249 2413,-249 2413,-230 2331,-230"/>
<text text-anchor="middle" x="2372" y="-237" font-family="Helvetica,sans-Serif" font-size="10.00" fill="#000000">TGeoMatrix.h</text>
</g>
<!-- Node36&#45;&gt;Node44 -->
<g id="edge55" class="edge">
<title>Node36&#45;&gt;Node44</title>
<path fill="none" stroke="#191970" d="M2160.021,-296.9344C2200.8913,-287.0165 2266.0975,-270.78 2322,-255 2325.3824,-254.0452 2328.8838,-253.0252 2332.3912,-251.9815"/>
<polygon fill="#191970" stroke="#191970" points="2333.6414,-255.2599 2342.1975,-249.0115 2331.6123,-248.5604 2333.6414,-255.2599"/>
</g>
<!-- Node45 -->
<g id="node46" class="node">
<title>Node45</title>
<polygon fill="none" stroke="#bfbfbf" points="2431.5,-230 2431.5,-249 2480.5,-249 2480.5,-230 2431.5,-230"/>
<text text-anchor="middle" x="2456" y="-237" font-family="Helvetica,sans-Serif" font-size="10.00" fill="#000000">iosfwd</text>
</g>
<!-- Node36&#45;&gt;Node45 -->
<g id="edge56" class="edge">
<title>Node36&#45;&gt;Node45</title>
<path fill="none" stroke="#191970" d="M2160.9958,-296.9619C2170.4951,-294.88 2180.5809,-292.7717 2190,-291 2292.5467,-271.7108 2322.037,-284.9217 2422,-255 2423.911,-254.428 2425.8536,-253.7697 2427.7924,-253.0542"/>
<polygon fill="#191970" stroke="#191970" points="2429.3844,-256.1836 2437.2933,-249.1338 2426.7143,-249.7129 2429.3844,-256.1836"/>
</g>
<!-- Node46&#45;&gt;Node22 -->
<g id="edge58" class="edge">
<title>Node46&#45;&gt;Node22</title>
<path fill="none" stroke="#191970" d="M1355.2478,-296.9199C1360.2098,-273.6719 1370.2052,-212.8802 1351,-168 1332.3474,-124.4114 1283.5517,-95.3629 1249.7878,-79.7703"/>
<polygon fill="#191970" stroke="#191970" points="1250.8319,-76.4044 1240.2719,-75.545 1247.9911,-82.8021 1250.8319,-76.4044"/>
</g>
<!-- Node47 -->
<g id="node48" class="node">
<title>Node47</title>
<g id="a_node48"><a xlink:href="../../d2/d45/GPUCommonRtypes_8h.html" target="_top" xlink:title="GPUCommonRtypes.h">
<polygon fill="none" stroke="#000000" points="1381.5,-230 1381.5,-249 1506.5,-249 1506.5,-230 1381.5,-230"/>
<text text-anchor="middle" x="1444" y="-237" font-family="Helvetica,sans-Serif" font-size="10.00" fill="#000000">GPUCommonRtypes.h</text>
</a>
</g>
</g>
<!-- Node46&#45;&gt;Node47 -->
<g id="edge59" class="edge">
<title>Node46&#45;&gt;Node47</title>
<path fill="none" stroke="#191970" d="M1366.0381,-296.9005C1380.7693,-286.0544 1404.9733,-268.2339 1422.5092,-255.3229"/>
<polygon fill="#191970" stroke="#191970" points="1425.0085,-257.8291 1430.9861,-249.0817 1420.8582,-252.1922 1425.0085,-257.8291"/>
</g>
<!-- Node47&#45;&gt;Node9 -->
<g id="edge60" class="edge">
<title>Node47&#45;&gt;Node9</title>
<path fill="none" stroke="#191970" d="M1444,-229.8906C1444,-221.3657 1444,-208.6392 1444,-197.9235"/>
<polygon fill="#191970" stroke="#191970" points="1447.5001,-197.7448 1444,-187.7449 1440.5001,-197.7449 1447.5001,-197.7448"/>
</g>
</g>
</svg>
        <g id="navigator" transform="translate(0 0)" fill="#404254">
                <rect fill="#f2f5e9" fill-opacity="0.5" stroke="#606060" stroke-width=".5" x="0" y="0" width="60" height="60"/>
                <use id="zoomplus" xlink:href="#zoomPlus" x="17" y="9" onmousedown="handleZoom(evt,'in')"/>
                <use id="zoomminus" xlink:href="#zoomMin" x="42" y="9" onmousedown="handleZoom(evt,'out')"/>
                <use id="reset" xlink:href="#resetDef" x="30" y="36" onmousedown="handleReset()"/>
                <g id="arrowUp" xlink:href="#dirArrow" transform="translate(30 24)" onmousedown="handlePan(0,-1)">
                  <use xlink:href="#rim" fill="#404040">
                        <set attributeName="fill" to="#808080" begin="arrowUp.mouseover" end="arrowUp.mouseout"/>
                  </use>
                  <path fill="none" stroke="white" stroke-width="1.5" d="M0,-3.0v7 M-2.5,-0.5L0,-3.0L2.5,-0.5"/>
                </g>
                <g id="arrowRight" xlink:href="#dirArrow" transform="rotate(90) translate(36 -43)" onmousedown="handlePan(1,0)">
                  <use xlink:href="#rim" fill="#404040">
                        <set attributeName="fill" to="#808080" begin="arrowRight.mouseover" end="arrowRight.mouseout"/>
                  </use>
                  <path fill="none" stroke="white" stroke-width="1.5" d="M0,-3.0v7 M-2.5,-0.5L0,-3.0L2.5,-0.5"/>
                </g>
                <g id="arrowDown" xlink:href="#dirArrow" transform="rotate(180) translate(-30 -48)" onmousedown="handlePan(0,1)">
                  <use xlink:href="#rim" fill="#404040">
                        <set attributeName="fill" to="#808080" begin="arrowDown.mouseover" end="arrowDown.mouseout"/>
                  </use>
                  <path fill="none" stroke="white" stroke-width="1.5" d="M0,-3.0v7 M-2.5,-0.5L0,-3.0L2.5,-0.5"/>
                </g>
                <g id="arrowLeft" xlink:href="#dirArrow" transform="rotate(270) translate(-36 17)" onmousedown="handlePan(-1,0)">
                  <use xlink:href="#rim" fill="#404040">
                        <set attributeName="fill" to="#808080" begin="arrowLeft.mouseover" end="arrowLeft.mouseout"/>
                  </use>
                  <path fill="none" stroke="white" stroke-width="1.5" d="M0,-3.0v7 M-2.5,-0.5L0,-3.0L2.5,-0.5"/>
                </g>
        </g>
        <svg viewBox="0 0 15 15" width="100%" height="30px" preserveAspectRatio="xMaxYMin meet">
         <g id="arrow_out" transform="scale(0.3 0.3)">
          <a xlink:href="Detectors_2Base_2include_2DetectorsBase_2GeometryManager_8h__incl_org.svg" target="_base">
           <rect id="button" ry="5" rx="5" y="6" x="6" height="38" width="38"
                fill="#f2f5e9" fill-opacity="0.5" stroke="#606060" stroke-width="1.0"/>
           <path id="arrow"
             d="M 11.500037,31.436501 C 11.940474,20.09759 22.043105,11.32322 32.158766,21.979434 L 37.068811,17.246167 C 37.068811,17.246167 37.088388,32 37.088388,32 L 22.160133,31.978069 C 22.160133,31.978069 26.997745,27.140456 26.997745,27.140456 C 18.528582,18.264221 13.291696,25.230495 11.500037,31.436501 z"
             style="fill:#404040;"/>
          </a>
         </g>
        </svg>
</svg>
