<?xml version="1.0" encoding="UTF-8" standalone="no"?>
<!DOCTYPE svg PUBLIC "-//W3C//DTD SVG 1.1//EN"
 "http://www.w3.org/Graphics/SVG/1.1/DTD/svg11.dtd">
<!-- Generated by graphviz version 2.40.1 (20161225.0304)
 -->
<!-- Title: /home/travis/build/AliceO2Group/AliceO2/Detectors/MUON/MID/Tracking/test/testTracker.cxx Pages: 1 -->
<svg width="2138pt" height="374pt"
 viewBox="0.00 0.00 2138.00 374.00" xmlns="http://www.w3.org/2000/svg" xmlns:xlink="http://www.w3.org/1999/xlink">
<g id="graph0" class="graph" transform="scale(1 1) rotate(0) translate(4 370)">
<title>/home/travis/build/AliceO2Group/AliceO2/Detectors/MUON/MID/Tracking/test/testTracker.cxx</title>
<!-- Node0 -->
<g id="node1" class="node">
<title>Node0</title>
<polygon fill="#bfbfbf" stroke="#000000" points="1330,-313.5 1330,-365.5 1496,-365.5 1496,-313.5 1330,-313.5"/>
<text text-anchor="start" x="1338" y="-353.5" font-family="Helvetica,sans-Serif" font-size="10.00" fill="#000000">/home/travis/build</text>
<text text-anchor="start" x="1338" y="-342.5" font-family="Helvetica,sans-Serif" font-size="10.00" fill="#000000">/AliceO2Group/AliceO2</text>
<text text-anchor="start" x="1338" y="-331.5" font-family="Helvetica,sans-Serif" font-size="10.00" fill="#000000">/Detectors/MUON/MID/Tracking</text>
<text text-anchor="middle" x="1413" y="-320.5" font-family="Helvetica,sans-Serif" font-size="10.00" fill="#000000">/test/testTracker.cxx</text>
</g>
<!-- Node1 -->
<g id="node2" class="node">
<title>Node1</title>
<polygon fill="none" stroke="#bfbfbf" points="179,-252 179,-271 311,-271 311,-252 179,-252"/>
<text text-anchor="middle" x="245" y="-259" font-family="Helvetica,sans-Serif" font-size="10.00" fill="#000000">boost/test/unit_test.hpp</text>
</g>
<!-- Node0&#45;&gt;Node1 -->
<g id="edge1" class="edge">
<title>Node0&#45;&gt;Node1</title>
<path fill="none" stroke="#191970" d="M1329.6361,-336.3199C1109.2961,-327.6605 515.0476,-302.591 320,-277 312.1211,-275.9663 303.8332,-274.5704 295.7568,-273.0378"/>
<polygon fill="#191970" stroke="#191970" points="296.1764,-269.5529 285.6865,-271.0404 294.8144,-276.4192 296.1764,-269.5529"/>
</g>
<!-- Node2 -->
<g id="node3" class="node">
<title>Node2</title>
<polygon fill="none" stroke="#bfbfbf" points="329.5,-246.5 329.5,-276.5 490.5,-276.5 490.5,-246.5 329.5,-246.5"/>
<text text-anchor="start" x="337.5" y="-264.5" font-family="Helvetica,sans-Serif" font-size="10.00" fill="#000000">boost/test/data/monomorphic</text>
<text text-anchor="middle" x="410" y="-253.5" font-family="Helvetica,sans-Serif" font-size="10.00" fill="#000000">/generators/xrange.hpp</text>
</g>
<!-- Node0&#45;&gt;Node2 -->
<g id="edge2" class="edge">
<title>Node0&#45;&gt;Node2</title>
<path fill="none" stroke="#191970" d="M1329.9616,-336.6584C1170.9706,-330.5958 812.4562,-313.9271 501.0242,-277.0423"/>
<polygon fill="#191970" stroke="#191970" points="501.2402,-273.5433 490.8958,-275.8335 500.4106,-280.494 501.2402,-273.5433"/>
</g>
<!-- Node3 -->
<g id="node4" class="node">
<title>Node3</title>
<polygon fill="none" stroke="#bfbfbf" points="509,-246.5 509,-276.5 621,-276.5 621,-246.5 509,-246.5"/>
<text text-anchor="start" x="517" y="-264.5" font-family="Helvetica,sans-Serif" font-size="10.00" fill="#000000">boost/test/data/test</text>
<text text-anchor="middle" x="565" y="-253.5" font-family="Helvetica,sans-Serif" font-size="10.00" fill="#000000">_case.hpp</text>
</g>
<!-- Node0&#45;&gt;Node3 -->
<g id="edge3" class="edge">
<title>Node0&#45;&gt;Node3</title>
<path fill="none" stroke="#191970" d="M1329.9536,-336.5852C1187.213,-330.7383 886.4221,-314.7512 635,-277 633.7191,-276.8077 632.4266,-276.6054 631.1257,-276.3942"/>
<polygon fill="#191970" stroke="#191970" points="631.4918,-272.905 621.0369,-274.6209 630.2799,-279.7993 631.4918,-272.905"/>
</g>
<!-- Node4 -->
<g id="node5" class="node">
<title>Node4</title>
<polygon fill="none" stroke="#bfbfbf" points="0,-62 0,-81 50,-81 50,-62 0,-62"/>
<text text-anchor="middle" x="25" y="-69" font-family="Helvetica,sans-Serif" font-size="10.00" fill="#000000">cstdint</text>
</g>
<!-- Node0&#45;&gt;Node4 -->
<g id="edge4" class="edge">
<title>Node0&#45;&gt;Node4</title>
<path fill="none" stroke="#191970" d="M1329.6884,-330.8901C1231.2654,-320.2728 1062.7245,-300.6921 919,-277 532.7732,-213.3328 429.6115,-212.9835 59,-87 57.1574,-86.3736 55.2797,-85.6812 53.4005,-84.9468"/>
<polygon fill="#191970" stroke="#191970" points="54.7206,-81.705 44.1469,-81.0366 51.9959,-88.153 54.7206,-81.705"/>
</g>
<!-- Node5 -->
<g id="node6" class="node">
<title>Node5</title>
<polygon fill="none" stroke="#bfbfbf" points="2086,-62 2086,-81 2130,-81 2130,-62 2086,-62"/>
<text text-anchor="middle" x="2108" y="-69" font-family="Helvetica,sans-Serif" font-size="10.00" fill="#000000">string</text>
</g>
<!-- Node0&#45;&gt;Node5 -->
<g id="edge5" class="edge">
<title>Node0&#45;&gt;Node5</title>
<path fill="none" stroke="#191970" d="M1496.2187,-334.1427C1610.9368,-325.7671 1810.9808,-307.3153 1877,-277 1975.1619,-231.9252 2061.7361,-130.7342 2094.2851,-89.5018"/>
<polygon fill="#191970" stroke="#191970" points="2097.18,-91.4808 2100.5606,-81.4398 2091.6562,-87.1811 2097.18,-91.4808"/>
</g>
<!-- Node6 -->
<g id="node7" class="node">
<title>Node6</title>
<polygon fill="none" stroke="#bfbfbf" points="1965,-252 1965,-271 2021,-271 2021,-252 1965,-252"/>
<text text-anchor="middle" x="1993" y="-259" font-family="Helvetica,sans-Serif" font-size="10.00" fill="#000000">sstream</text>
</g>
<!-- Node0&#45;&gt;Node6 -->
<g id="edge6" class="edge">
<title>Node0&#45;&gt;Node6</title>
<path fill="none" stroke="#191970" d="M1496.0943,-335.9752C1602.7118,-330.0623 1792.7824,-314.8137 1951,-277 1954.175,-276.2412 1957.4387,-275.3142 1960.6765,-274.2945"/>
<polygon fill="#191970" stroke="#191970" points="1961.8714,-277.5849 1970.1978,-271.0335 1959.6032,-270.9626 1961.8714,-277.5849"/>
</g>
<!-- Node7 -->
<g id="node8" class="node">
<title>Node7</title>
<polygon fill="none" stroke="#bfbfbf" points="1751.5,-190.5 1751.5,-209.5 1798.5,-209.5 1798.5,-190.5 1751.5,-190.5"/>
<text text-anchor="middle" x="1775" y="-197.5" font-family="Helvetica,sans-Serif" font-size="10.00" fill="#000000">vector</text>
</g>
<!-- Node0&#45;&gt;Node7 -->
<g id="edge7" class="edge">
<title>Node0&#45;&gt;Node7</title>
<path fill="none" stroke="#191970" d="M1496.0892,-327.7893C1570.0399,-316.3007 1671.7932,-297.5539 1707,-277 1731.5615,-262.6609 1751.9094,-236.3074 1763.7626,-218.4718"/>
<polygon fill="#191970" stroke="#191970" points="1767.0149,-219.8818 1769.4465,-209.5698 1761.1149,-216.1147 1767.0149,-219.8818"/>
</g>
<!-- Node8 -->
<g id="node9" class="node">
<title>Node8</title>
<g id="a_node9"><a xlink:href="../../d6/d31/Cluster2D_8h.html" target="_top" xlink:title="Reconstructed cluster per RPC. ">
<polygon fill="none" stroke="#000000" points="599,-190.5 599,-209.5 757,-209.5 757,-190.5 599,-190.5"/>
<text text-anchor="middle" x="678" y="-197.5" font-family="Helvetica,sans-Serif" font-size="10.00" fill="#000000">DataFormatsMID/Cluster2D.h</text>
</a>
</g>
</g>
<!-- Node0&#45;&gt;Node8 -->
<g id="edge8" class="edge">
<title>Node0&#45;&gt;Node8</title>
<path fill="none" stroke="#191970" d="M1329.9665,-324.3549C1261.5226,-311.8207 1161.9229,-293.4657 1075,-277 954.6835,-254.2085 814.0277,-226.7302 736.5991,-211.5315"/>
<polygon fill="#191970" stroke="#191970" points="737.0469,-208.0526 726.5599,-209.5601 735.698,-214.9214 737.0469,-208.0526"/>
</g>
<!-- Node10 -->
<g id="node11" class="node">
<title>Node10</title>
<g id="a_node11"><a xlink:href="../../d4/d54/DataFormats_2Detectors_2MUON_2MID_2include_2DataFormatsMID_2Track_8h.html" target="_top" xlink:title="Reconstructed MID track. ">
<polygon fill="none" stroke="#000000" points="1433,-190.5 1433,-209.5 1569,-209.5 1569,-190.5 1433,-190.5"/>
<text text-anchor="middle" x="1501" y="-197.5" font-family="Helvetica,sans-Serif" font-size="10.00" fill="#000000">DataFormatsMID/Track.h</text>
</a>
</g>
</g>
<!-- Node0&#45;&gt;Node10 -->
<g id="edge11" class="edge">
<title>Node0&#45;&gt;Node10</title>
<path fill="none" stroke="#191970" d="M1429.5521,-313.2611C1447.0456,-285.53 1474.1768,-242.5209 1489.4796,-218.2624"/>
<polygon fill="#191970" stroke="#191970" points="1492.523,-219.9979 1494.8982,-209.6727 1486.6026,-216.2631 1492.523,-219.9979"/>
</g>
<!-- Node12 -->
<g id="node13" class="node">
<title>Node12</title>
<g id="a_node13"><a xlink:href="../../d2/d0e/Mapping_8h.html" target="_top" xlink:title="Mapping for MID. ">
<polygon fill="none" stroke="#000000" points="1584.5,-252 1584.5,-271 1697.5,-271 1697.5,-252 1584.5,-252"/>
<text text-anchor="middle" x="1641" y="-259" font-family="Helvetica,sans-Serif" font-size="10.00" fill="#000000">MIDBase/Mapping.h</text>
</a>
</g>
</g>
<!-- Node0&#45;&gt;Node12 -->
<g id="edge14" class="edge">
<title>Node0&#45;&gt;Node12</title>
<path fill="none" stroke="#191970" d="M1489.2377,-313.4187C1527.6693,-300.271 1572.5559,-284.9151 1603.4912,-274.332"/>
<polygon fill="#191970" stroke="#191970" points="1604.6904,-277.6209 1613.0191,-271.0724 1602.4245,-270.9978 1604.6904,-277.6209"/>
</g>
<!-- Node13 -->
<g id="node14" class="node">
<title>Node13</title>
<g id="a_node14"><a xlink:href="../../d7/d0a/MpArea_8h.html" target="_top" xlink:title="Mapping area for MID. ">
<polygon fill="none" stroke="#000000" points="1587,-190.5 1587,-209.5 1695,-209.5 1695,-190.5 1587,-190.5"/>
<text text-anchor="middle" x="1641" y="-197.5" font-family="Helvetica,sans-Serif" font-size="10.00" fill="#000000">MIDBase/MpArea.h</text>
</a>
</g>
</g>
<!-- Node0&#45;&gt;Node13 -->
<g id="edge19" class="edge">
<title>Node0&#45;&gt;Node13</title>
<path fill="none" stroke="#191970" d="M1455.6176,-313.4248C1503.0268,-284.4178 1577.9965,-238.5482 1616.4582,-215.0157"/>
<polygon fill="#191970" stroke="#191970" points="1618.7076,-217.7426 1625.411,-209.538 1615.0543,-211.7716 1618.7076,-217.7426"/>
</g>
<!-- Node14 -->
<g id="node15" class="node">
<title>Node14</title>
<g id="a_node15"><a xlink:href="../../d7/d40/HitFinder_8h.html" target="_top" xlink:title="Hit finder for MID. ">
<polygon fill="none" stroke="#000000" points="1269.5,-246.5 1269.5,-276.5 1382.5,-276.5 1382.5,-246.5 1269.5,-246.5"/>
<text text-anchor="start" x="1277.5" y="-264.5" font-family="Helvetica,sans-Serif" font-size="10.00" fill="#000000">MIDTestingSimTools</text>
<text text-anchor="middle" x="1326" y="-253.5" font-family="Helvetica,sans-Serif" font-size="10.00" fill="#000000">/HitFinder.h</text>
</a>
</g>
</g>
<!-- Node0&#45;&gt;Node14 -->
<g id="edge20" class="edge">
<title>Node0&#45;&gt;Node14</title>
<path fill="none" stroke="#191970" d="M1383.5458,-313.0928C1372.7038,-303.3724 1360.5578,-292.4828 1350.2287,-283.2223"/>
<polygon fill="#191970" stroke="#191970" points="1352.518,-280.574 1342.7358,-276.5046 1347.8451,-285.786 1352.518,-280.574"/>
</g>
<!-- Node28 -->
<g id="node29" class="node">
<title>Node28</title>
<g id="a_node29"><a xlink:href="../../d3/d93/TrackGenerator_8h.html" target="_top" xlink:title="Fast track generator for MID. ">
<polygon fill="none" stroke="#000000" points="1754.5,-246.5 1754.5,-276.5 1867.5,-276.5 1867.5,-246.5 1754.5,-246.5"/>
<text text-anchor="start" x="1762.5" y="-264.5" font-family="Helvetica,sans-Serif" font-size="10.00" fill="#000000">MIDTestingSimTools</text>
<text text-anchor="middle" x="1811" y="-253.5" font-family="Helvetica,sans-Serif" font-size="10.00" fill="#000000">/TrackGenerator.h</text>
</a>
</g>
</g>
<!-- Node0&#45;&gt;Node28 -->
<g id="edge40" class="edge">
<title>Node0&#45;&gt;Node28</title>
<path fill="none" stroke="#191970" d="M1496.1081,-324.2343C1562.2707,-311.932 1657.1867,-293.9506 1740,-277 1741.4678,-276.6996 1742.9522,-276.3936 1744.4485,-276.0834"/>
<polygon fill="#191970" stroke="#191970" points="1745.3789,-279.4645 1754.4469,-273.9853 1743.9412,-272.6137 1745.3789,-279.4645"/>
</g>
<!-- Node30 -->
<g id="node31" class="node">
<title>Node30</title>
<g id="a_node31"><a xlink:href="../../db/d8e/MUON_2MID_2Tracking_2include_2MIDTracking_2Tracker_8h.html" target="_top" xlink:title="Track reconstruction algorithm for MID. ">
<polygon fill="none" stroke="#000000" points="1084,-252 1084,-271 1206,-271 1206,-252 1084,-252"/>
<text text-anchor="middle" x="1145" y="-259" font-family="Helvetica,sans-Serif" font-size="10.00" fill="#000000">MIDTracking/Tracker.h</text>
</a>
</g>
</g>
<!-- Node0&#45;&gt;Node30 -->
<g id="edge45" class="edge">
<title>Node0&#45;&gt;Node30</title>
<path fill="none" stroke="#191970" d="M1329.6722,-315.2479C1282.5609,-301.5364 1225.6498,-284.9727 1187.5698,-273.8897"/>
<polygon fill="#191970" stroke="#191970" points="1188.4124,-270.4898 1177.8327,-271.0558 1186.4562,-277.2109 1188.4124,-270.4898"/>
</g>
<!-- Node8&#45;&gt;Node4 -->
<g id="edge10" class="edge">
<title>Node8&#45;&gt;Node4</title>
<path fill="none" stroke="#191970" d="M667.9083,-190.2589C648.0053,-171.2888 603.9801,-130.5797 585,-123 367.3863,-36.096 286.1536,-144.5265 59,-87 56.8029,-86.4436 54.5722,-85.7503 52.3581,-84.968"/>
<polygon fill="#191970" stroke="#191970" points="53.4934,-81.6512 42.9121,-81.1156 50.8499,-88.1329 53.4934,-81.6512"/>
</g>
<!-- Node9 -->
<g id="node10" class="node">
<title>Node9</title>
<polygon fill="none" stroke="#bfbfbf" points="637.5,-129 637.5,-148 694.5,-148 694.5,-129 637.5,-129"/>
<text text-anchor="middle" x="666" y="-136" font-family="Helvetica,sans-Serif" font-size="10.00" fill="#000000">ostream</text>
</g>
<!-- Node8&#45;&gt;Node9 -->
<g id="edge9" class="edge">
<title>Node8&#45;&gt;Node9</title>
<path fill="none" stroke="#191970" d="M676.125,-190.3906C674.4441,-181.776 671.926,-168.8708 669.8216,-158.0858"/>
<polygon fill="#191970" stroke="#191970" points="673.2518,-157.3895 667.9014,-148.2449 666.3814,-158.7301 673.2518,-157.3895"/>
</g>
<!-- Node10&#45;&gt;Node9 -->
<g id="edge13" class="edge">
<title>Node10&#45;&gt;Node9</title>
<path fill="none" stroke="#191970" d="M1432.5963,-190.8408C1429.694,-190.5393 1426.8192,-190.2571 1424,-190 1121.7212,-162.4341 1043.09,-192.4339 742,-154 729.809,-152.4438 716.651,-150.0272 704.7649,-147.5615"/>
<polygon fill="#191970" stroke="#191970" points="705.215,-144.0785 694.7033,-145.4024 703.7463,-150.9227 705.215,-144.0785"/>
</g>
<!-- Node11 -->
<g id="node12" class="node">
<title>Node11</title>
<polygon fill="none" stroke="#bfbfbf" points="2026,-62 2026,-81 2068,-81 2068,-62 2026,-62"/>
<text text-anchor="middle" x="2047" y="-69" font-family="Helvetica,sans-Serif" font-size="10.00" fill="#000000">array</text>
</g>
<!-- Node10&#45;&gt;Node11 -->
<g id="edge12" class="edge">
<title>Node10&#45;&gt;Node11</title>
<path fill="none" stroke="#191970" d="M1498.4045,-190.3267C1494.6505,-173.9109 1489.9778,-140.6645 1508,-123 1548.4906,-83.3132 1962.4143,-102.3277 2017,-87 2018.6685,-86.5315 2020.3518,-85.9645 2022.0241,-85.3279"/>
<polygon fill="#191970" stroke="#191970" points="2023.6388,-88.4389 2031.3036,-81.1244 2020.7504,-82.0626 2023.6388,-88.4389"/>
</g>
<!-- Node12&#45;&gt;Node7 -->
<g id="edge16" class="edge">
<title>Node12&#45;&gt;Node7</title>
<path fill="none" stroke="#191970" d="M1661.9375,-251.8906C1684.2598,-241.6457 1719.8037,-225.3326 1745.0757,-213.7339"/>
<polygon fill="#191970" stroke="#191970" points="1746.581,-216.8942 1754.2095,-209.5419 1743.6611,-210.5322 1746.581,-216.8942"/>
</g>
<!-- Node12&#45;&gt;Node11 -->
<g id="edge15" class="edge">
<title>Node12&#45;&gt;Node11</title>
<path fill="none" stroke="#191970" d="M1653.5005,-251.885C1672.3638,-237.5749 1709.4689,-210.1942 1743,-190 1799.0202,-156.2616 1812.7897,-146.0184 1874,-123 1935.3444,-99.9312 1955.7033,-110.1953 2017,-87 2018.2337,-86.5332 2019.4822,-86.0287 2020.7335,-85.4967"/>
<polygon fill="#191970" stroke="#191970" points="2022.6205,-88.4769 2030.1778,-81.0514 2019.6394,-82.1434 2022.6205,-88.4769"/>
</g>
<!-- Node12&#45;&gt;Node13 -->
<g id="edge17" class="edge">
<title>Node12&#45;&gt;Node13</title>
<path fill="none" stroke="#191970" d="M1641,-251.8906C1641,-243.3657 1641,-230.6392 1641,-219.9235"/>
<polygon fill="#191970" stroke="#191970" points="1644.5001,-219.7448 1641,-209.7449 1637.5001,-219.7449 1644.5001,-219.7448"/>
</g>
<!-- Node13&#45;&gt;Node11 -->
<g id="edge18" class="edge">
<title>Node13&#45;&gt;Node11</title>
<path fill="none" stroke="#191970" d="M1652.4039,-190.2714C1675.6872,-170.4952 1727.3161,-127.1164 1737,-123 1852.4694,-73.9161 1897.2237,-124.3638 2017,-87 2018.4691,-86.5417 2019.9523,-86.0145 2021.4313,-85.4372"/>
<polygon fill="#191970" stroke="#191970" points="2023.2901,-88.4363 2030.9366,-81.1027 2020.3858,-82.0673 2023.2901,-88.4363"/>
</g>
<!-- Node14&#45;&gt;Node8 -->
<g id="edge32" class="edge">
<title>Node14&#45;&gt;Node8</title>
<path fill="none" stroke="#191970" d="M1269.3264,-252.9323C1251.9244,-250.4777 1232.6975,-247.9434 1215,-246 1019.304,-224.51 966.9885,-229.1409 767.3778,-210.1032"/>
<polygon fill="#191970" stroke="#191970" points="767.4302,-206.5922 757.141,-209.1186 766.76,-213.56 767.4302,-206.5922"/>
</g>
<!-- Node14&#45;&gt;Node10 -->
<g id="edge33" class="edge">
<title>Node14&#45;&gt;Node10</title>
<path fill="none" stroke="#191970" d="M1368.8098,-246.4554C1398.009,-236.194 1436.2843,-222.7429 1464.1302,-212.9571"/>
<polygon fill="#191970" stroke="#191970" points="1465.6073,-216.1479 1473.8812,-209.5303 1463.2864,-209.5439 1465.6073,-216.1479"/>
</g>
<!-- Node15 -->
<g id="node16" class="node">
<title>Node15</title>
<g id="a_node16"><a xlink:href="../../dc/d73/Cartesian_8h.html" target="_top" xlink:title="MathUtils/Cartesian.h">
<polygon fill="none" stroke="#000000" points="1207,-129 1207,-148 1329,-148 1329,-129 1207,-129"/>
<text text-anchor="middle" x="1268" y="-136" font-family="Helvetica,sans-Serif" font-size="10.00" fill="#000000">MathUtils/Cartesian.h</text>
</a>
</g>
</g>
<!-- Node14&#45;&gt;Node15 -->
<g id="edge21" class="edge">
<title>Node14&#45;&gt;Node15</title>
<path fill="none" stroke="#191970" d="M1273.797,-246.4592C1256.1009,-238.5907 1238.2372,-226.9444 1228,-210 1216.7884,-191.4428 1233.1096,-169.6353 1248.1509,-155.0273"/>
<polygon fill="#191970" stroke="#191970" points="1250.7167,-157.4243 1255.7473,-148.0999 1245.9999,-152.2521 1250.7167,-157.4243"/>
</g>
<!-- Node26 -->
<g id="node27" class="node">
<title>Node26</title>
<g id="a_node27"><a xlink:href="../../de/d0c/GeometryTransformer_8h.html" target="_top" xlink:title="Geometry transformer for MID. ">
<polygon fill="none" stroke="#000000" points="1237,-190.5 1237,-209.5 1415,-209.5 1415,-190.5 1237,-190.5"/>
<text text-anchor="middle" x="1326" y="-197.5" font-family="Helvetica,sans-Serif" font-size="10.00" fill="#000000">MIDBase/GeometryTransformer.h</text>
</a>
</g>
</g>
<!-- Node14&#45;&gt;Node26 -->
<g id="edge34" class="edge">
<title>Node14&#45;&gt;Node26</title>
<path fill="none" stroke="#191970" d="M1326,-246.2977C1326,-238.3834 1326,-228.6043 1326,-220.0759"/>
<polygon fill="#191970" stroke="#191970" points="1329.5001,-219.8469 1326,-209.8469 1322.5001,-219.847 1329.5001,-219.8469"/>
</g>
<!-- Node16 -->
<g id="node17" class="node">
<title>Node16</title>
<polygon fill="none" stroke="#bfbfbf" points="1458,-56.5 1458,-86.5 1622,-86.5 1622,-56.5 1458,-56.5"/>
<text text-anchor="start" x="1466" y="-74.5" font-family="Helvetica,sans-Serif" font-size="10.00" fill="#000000">Math/GenVector/Displacement</text>
<text text-anchor="middle" x="1540" y="-63.5" font-family="Helvetica,sans-Serif" font-size="10.00" fill="#000000">Vector3D.h</text>
</g>
<!-- Node15&#45;&gt;Node16 -->
<g id="edge22" class="edge">
<title>Node15&#45;&gt;Node16</title>
<path fill="none" stroke="#191970" d="M1306.6821,-128.9717C1348.8453,-118.5859 1417.2149,-101.7449 1469.0708,-88.9715"/>
<polygon fill="#191970" stroke="#191970" points="1470.0071,-92.3456 1478.8798,-86.5553 1468.3329,-85.5487 1470.0071,-92.3456"/>
</g>
<!-- Node17 -->
<g id="node18" class="node">
<title>Node17</title>
<polygon fill="none" stroke="#bfbfbf" points="1640.5,-62 1640.5,-81 1829.5,-81 1829.5,-62 1640.5,-62"/>
<text text-anchor="middle" x="1735" y="-69" font-family="Helvetica,sans-Serif" font-size="10.00" fill="#000000">Math/GenVector/PositionVector3D.h</text>
</g>
<!-- Node15&#45;&gt;Node17 -->
<g id="edge23" class="edge">
<title>Node15&#45;&gt;Node17</title>
<path fill="none" stroke="#191970" d="M1329.0348,-129.974C1401.1827,-119.8647 1524.8634,-102.438 1631,-87 1640.8228,-85.5712 1651.1647,-84.0501 1661.3622,-82.5404"/>
<polygon fill="#191970" stroke="#191970" points="1662.1088,-85.968 1671.4868,-81.0383 1661.0814,-79.0438 1662.1088,-85.968"/>
</g>
<!-- Node18 -->
<g id="node19" class="node">
<title>Node18</title>
<polygon fill="none" stroke="#bfbfbf" points="1848,-62 1848,-81 2008,-81 2008,-62 1848,-62"/>
<text text-anchor="middle" x="1928" y="-69" font-family="Helvetica,sans-Serif" font-size="10.00" fill="#000000">Math/GenVector/Rotation3D.h</text>
</g>
<!-- Node15&#45;&gt;Node18 -->
<g id="edge24" class="edge">
<title>Node15&#45;&gt;Node18</title>
<path fill="none" stroke="#191970" d="M1329.3511,-131.6373C1355.1653,-128.8288 1385.5299,-125.6286 1413,-123 1602.1442,-104.9008 1650.5552,-111.3239 1839,-87 1848.3512,-85.793 1858.2185,-84.2981 1867.8438,-82.7171"/>
<polygon fill="#191970" stroke="#191970" points="1868.4757,-86.16 1877.755,-81.0468 1867.3124,-79.2574 1868.4757,-86.16"/>
</g>
<!-- Node19 -->
<g id="node20" class="node">
<title>Node19</title>
<polygon fill="none" stroke="#bfbfbf" points="552,-62 552,-81 720,-81 720,-62 552,-62"/>
<text text-anchor="middle" x="636" y="-69" font-family="Helvetica,sans-Serif" font-size="10.00" fill="#000000">Math/GenVector/Transform3D.h</text>
</g>
<!-- Node15&#45;&gt;Node19 -->
<g id="edge25" class="edge">
<title>Node15&#45;&gt;Node19</title>
<path fill="none" stroke="#191970" d="M1206.8145,-134.0543C1106.6826,-126.4648 901.6657,-109.6096 729,-87 719.4839,-85.7539 709.4483,-84.2656 699.6305,-82.7112"/>
<polygon fill="#191970" stroke="#191970" points="699.9393,-79.2158 689.5089,-81.075 698.8222,-86.1261 699.9393,-79.2158"/>
</g>
<!-- Node20 -->
<g id="node21" class="node">
<title>Node20</title>
<polygon fill="none" stroke="#bfbfbf" points="738.5,-62 738.5,-81 911.5,-81 911.5,-62 738.5,-62"/>
<text text-anchor="middle" x="825" y="-69" font-family="Helvetica,sans-Serif" font-size="10.00" fill="#000000">Math/GenVector/Translation3D.h</text>
</g>
<!-- Node15&#45;&gt;Node20 -->
<g id="edge26" class="edge">
<title>Node15&#45;&gt;Node20</title>
<path fill="none" stroke="#191970" d="M1206.8494,-129.6647C1137.5007,-119.589 1021.0574,-102.5019 921,-87 911.9948,-85.6048 902.5193,-84.1089 893.1721,-82.6168"/>
<polygon fill="#191970" stroke="#191970" points="893.5359,-79.1305 883.108,-81.0041 892.4283,-86.0423 893.5359,-79.1305"/>
</g>
<!-- Node21 -->
<g id="node22" class="node">
<title>Node21</title>
<polygon fill="none" stroke="#bfbfbf" points="930,-56.5 930,-86.5 1094,-86.5 1094,-56.5 930,-56.5"/>
<text text-anchor="start" x="938" y="-74.5" font-family="Helvetica,sans-Serif" font-size="10.00" fill="#000000">Math/GenVector/Displacement</text>
<text text-anchor="middle" x="1012" y="-63.5" font-family="Helvetica,sans-Serif" font-size="10.00" fill="#000000">Vector2D.h</text>
</g>
<!-- Node15&#45;&gt;Node21 -->
<g id="edge27" class="edge">
<title>Node15&#45;&gt;Node21</title>
<path fill="none" stroke="#191970" d="M1231.5933,-128.9717C1192.0753,-118.6291 1128.0971,-101.8848 1079.3665,-89.1311"/>
<polygon fill="#191970" stroke="#191970" points="1080.0853,-85.7014 1069.5249,-86.5553 1078.3129,-92.4733 1080.0853,-85.7014"/>
</g>
<!-- Node22 -->
<g id="node23" class="node">
<title>Node22</title>
<polygon fill="none" stroke="#bfbfbf" points="1112.5,-62 1112.5,-81 1301.5,-81 1301.5,-62 1112.5,-62"/>
<text text-anchor="middle" x="1207" y="-69" font-family="Helvetica,sans-Serif" font-size="10.00" fill="#000000">Math/GenVector/PositionVector2D.h</text>
</g>
<!-- Node15&#45;&gt;Node22 -->
<g id="edge28" class="edge">
<title>Node15&#45;&gt;Node22</title>
<path fill="none" stroke="#191970" d="M1259.2602,-128.9005C1249.7478,-118.4525 1234.343,-101.5325 1222.7175,-88.7635"/>
<polygon fill="#191970" stroke="#191970" points="1225.0439,-86.1198 1215.7236,-81.0817 1219.8678,-90.8324 1225.0439,-86.1198"/>
</g>
<!-- Node23 -->
<g id="node24" class="node">
<title>Node23</title>
<polygon fill="none" stroke="#bfbfbf" points="700.5,-.5 700.5,-19.5 759.5,-19.5 759.5,-.5 700.5,-.5"/>
<text text-anchor="middle" x="730" y="-7.5" font-family="Helvetica,sans-Serif" font-size="10.00" fill="#000000">Rtypes.h</text>
</g>
<!-- Node15&#45;&gt;Node23 -->
<g id="edge29" class="edge">
<title>Node15&#45;&gt;Node23</title>
<path fill="none" stroke="#191970" d="M1279.8518,-128.8504C1298.7571,-112.3411 1331.6066,-78.3026 1311,-56 1292.6123,-36.0989 898.1375,-17.2925 769.8913,-11.685"/>
<polygon fill="#191970" stroke="#191970" points="769.8632,-8.1806 759.7209,-11.2436 769.5597,-15.174 769.8632,-8.1806"/>
</g>
<!-- Node24 -->
<g id="node25" class="node">
<title>Node24</title>
<polygon fill="none" stroke="#bfbfbf" points="1358,-62 1358,-81 1440,-81 1440,-62 1358,-62"/>
<text text-anchor="middle" x="1399" y="-69" font-family="Helvetica,sans-Serif" font-size="10.00" fill="#000000">TGeoMatrix.h</text>
</g>
<!-- Node15&#45;&gt;Node24 -->
<g id="edge30" class="edge">
<title>Node15&#45;&gt;Node24</title>
<path fill="none" stroke="#191970" d="M1286.7691,-128.9005C1308.8511,-117.6067 1345.7189,-98.7506 1371.1386,-85.7497"/>
<polygon fill="#191970" stroke="#191970" points="1372.9563,-88.7513 1380.2657,-81.0817 1369.7688,-82.5191 1372.9563,-88.7513"/>
</g>
<!-- Node25 -->
<g id="node26" class="node">
<title>Node25</title>
<polygon fill="none" stroke="#bfbfbf" points="485.5,-62 485.5,-81 534.5,-81 534.5,-62 485.5,-62"/>
<text text-anchor="middle" x="510" y="-69" font-family="Helvetica,sans-Serif" font-size="10.00" fill="#000000">iosfwd</text>
</g>
<!-- Node15&#45;&gt;Node25 -->
<g id="edge31" class="edge">
<title>Node15&#45;&gt;Node25</title>
<path fill="none" stroke="#191970" d="M1206.909,-135.4481C1043.8422,-127.1199 606.3798,-103.5225 543,-87 541.0247,-86.4851 539.0234,-85.8539 537.0339,-85.1439"/>
<polygon fill="#191970" stroke="#191970" points="537.9379,-81.7288 527.3611,-81.1109 535.2441,-88.1897 537.9379,-81.7288"/>
</g>
<!-- Node26&#45;&gt;Node11 -->
<g id="edge35" class="edge">
<title>Node26&#45;&gt;Node11</title>
<path fill="none" stroke="#191970" d="M1341.6496,-190.2768C1370.1235,-173.1512 1432.8423,-138.0039 1491,-123 1717.8956,-64.4641 1791.3288,-150.0917 2017,-87 2018.6691,-86.5334 2020.3527,-85.9678 2022.0253,-85.3324"/>
<polygon fill="#191970" stroke="#191970" points="2023.6388,-88.444 2031.3057,-81.1317 2020.7522,-82.0669 2023.6388,-88.444"/>
</g>
<!-- Node26&#45;&gt;Node15 -->
<g id="edge39" class="edge">
<title>Node26&#45;&gt;Node15</title>
<path fill="none" stroke="#191970" d="M1316.9375,-190.3906C1308.2207,-181.1478 1294.846,-166.966 1284.2804,-155.7628"/>
<polygon fill="#191970" stroke="#191970" points="1286.5976,-153.1186 1277.1903,-148.2449 1281.505,-157.9213 1286.5976,-153.1186"/>
</g>
<!-- Node27 -->
<g id="node28" class="node">
<title>Node27</title>
<g id="a_node28"><a xlink:href="../../dc/de4/DetectorParameters_8h.html" target="_top" xlink:title="Useful detector parameters for MID. ">
<polygon fill="none" stroke="#000000" points="1516.5,-129 1516.5,-148 1685.5,-148 1685.5,-129 1516.5,-129"/>
<text text-anchor="middle" x="1601" y="-136" font-family="Helvetica,sans-Serif" font-size="10.00" fill="#000000">MIDBase/DetectorParameters.h</text>
</a>
</g>
</g>
<!-- Node26&#45;&gt;Node27 -->
<g id="edge36" class="edge">
<title>Node26&#45;&gt;Node27</title>
<path fill="none" stroke="#191970" d="M1368.667,-190.4581C1417.0378,-179.6406 1495.9369,-161.9959 1548.1607,-150.3168"/>
<polygon fill="#191970" stroke="#191970" points="1549.2378,-153.6624 1558.2329,-148.0643 1547.7101,-146.8312 1549.2378,-153.6624"/>
</g>
<!-- Node27&#45;&gt;Node5 -->
<g id="edge38" class="edge">
<title>Node27&#45;&gt;Node5</title>
<path fill="none" stroke="#191970" d="M1685.8902,-132.9468C1802.4824,-124.6976 2005.8217,-107.9084 2077,-87 2078.667,-86.5103 2080.3524,-85.9339 2082.0307,-85.2965"/>
<polygon fill="#191970" stroke="#191970" points="2083.6588,-88.4037 2091.3901,-81.1595 2080.8287,-82.0012 2083.6588,-88.4037"/>
</g>
<!-- Node27&#45;&gt;Node11 -->
<g id="edge37" class="edge">
<title>Node27&#45;&gt;Node11</title>
<path fill="none" stroke="#191970" d="M1658.458,-128.9776C1671.754,-126.8949 1685.8568,-124.7825 1699,-123 1839.9459,-103.8852 1880.9003,-128.3278 2017,-87 2018.4725,-86.5529 2019.9584,-86.0345 2021.4396,-85.4641"/>
<polygon fill="#191970" stroke="#191970" points="2023.2894,-88.4684 2030.9515,-81.151 2020.3986,-82.0932 2023.2894,-88.4684"/>
</g>
<!-- Node28&#45;&gt;Node7 -->
<g id="edge42" class="edge">
<title>Node28&#45;&gt;Node7</title>
<path fill="none" stroke="#191970" d="M1802.1011,-246.2977C1797.2081,-237.9388 1791.0974,-227.4997 1785.9176,-218.6509"/>
<polygon fill="#191970" stroke="#191970" points="1788.8365,-216.7089 1780.7641,-209.8469 1782.7953,-220.2452 1788.8365,-216.7089"/>
</g>
<!-- Node28&#45;&gt;Node10 -->
<g id="edge44" class="edge">
<title>Node28&#45;&gt;Node10</title>
<path fill="none" stroke="#191970" d="M1754.1412,-250.22C1698.8518,-239.2512 1615.2603,-222.6678 1559.4392,-211.5936"/>
<polygon fill="#191970" stroke="#191970" points="1559.8423,-208.1054 1549.3524,-209.5925 1558.4801,-214.9716 1559.8423,-208.1054"/>
</g>
<!-- Node28&#45;&gt;Node11 -->
<g id="edge41" class="edge">
<title>Node28&#45;&gt;Node11</title>
<path fill="none" stroke="#191970" d="M1816.3916,-246.2754C1822.2257,-231.0824 1832.5301,-207.537 1846,-190 1873.6329,-154.0237 1884.1122,-146.3584 1923,-123 1961.3503,-99.9644 1976.1754,-105.2958 2017,-87 2018.0165,-86.5445 2019.0473,-86.0712 2020.0847,-85.5853"/>
<polygon fill="#191970" stroke="#191970" points="2021.9619,-88.5626 2029.3925,-81.0104 2018.874,-82.2805 2021.9619,-88.5626"/>
</g>
<!-- Node29 -->
<g id="node30" class="node">
<title>Node29</title>
<polygon fill="none" stroke="#bfbfbf" points="1855,-190.5 1855,-209.5 1909,-209.5 1909,-190.5 1855,-190.5"/>
<text text-anchor="middle" x="1882" y="-197.5" font-family="Helvetica,sans-Serif" font-size="10.00" fill="#000000">random</text>
</g>
<!-- Node28&#45;&gt;Node29 -->
<g id="edge43" class="edge">
<title>Node28&#45;&gt;Node29</title>
<path fill="none" stroke="#191970" d="M1828.5506,-246.2977C1839.0221,-237.2274 1852.3211,-225.7077 1863.0338,-216.4285"/>
<polygon fill="#191970" stroke="#191970" points="1865.3649,-219.0398 1870.632,-209.8469 1860.7818,-213.7487 1865.3649,-219.0398"/>
</g>
<!-- Node30&#45;&gt;Node7 -->
<g id="edge46" class="edge">
<title>Node30&#45;&gt;Node7</title>
<path fill="none" stroke="#191970" d="M1206.0337,-252.7419C1223.741,-250.3644 1243.1214,-247.9196 1261,-246 1457.4091,-224.9116 1507.667,-231.7846 1704,-210 1716.2484,-208.641 1729.6416,-206.8375 1741.4624,-205.1367"/>
<polygon fill="#191970" stroke="#191970" points="1741.9912,-208.5966 1751.3772,-203.6821 1740.9751,-201.6708 1741.9912,-208.5966"/>
</g>
<!-- Node30&#45;&gt;Node8 -->
<g id="edge48" class="edge">
<title>Node30&#45;&gt;Node8</title>
<path fill="none" stroke="#191970" d="M1083.9479,-253.4599C1001.137,-242.5544 852.944,-223.0387 760.3529,-210.8452"/>
<polygon fill="#191970" stroke="#191970" points="760.5521,-207.3413 750.1807,-209.5056 759.6381,-214.2814 760.5521,-207.3413"/>
</g>
<!-- Node30&#45;&gt;Node10 -->
<g id="edge60" class="edge">
<title>Node30&#45;&gt;Node10</title>
<path fill="none" stroke="#191970" d="M1200.2344,-251.9581C1263.8586,-240.9668 1368.2833,-222.9272 1435.8287,-211.2585"/>
<polygon fill="#191970" stroke="#191970" points="1436.6707,-214.665 1445.9289,-209.5137 1435.4791,-207.7672 1436.6707,-214.665"/>
</g>
<!-- Node30&#45;&gt;Node26 -->
<g id="edge61" class="edge">
<title>Node30&#45;&gt;Node26</title>
<path fill="none" stroke="#191970" d="M1173.2813,-251.8906C1204.23,-241.3749 1253.9942,-224.466 1288.257,-212.8243"/>
<polygon fill="#191970" stroke="#191970" points="1289.575,-216.073 1297.9173,-209.5419 1287.3229,-209.4452 1289.575,-216.073"/>
</g>
<!-- Node31 -->
<g id="node32" class="node">
<title>Node31</title>
<polygon fill="none" stroke="#bfbfbf" points="951,-190.5 951,-209.5 999,-209.5 999,-190.5 951,-190.5"/>
<text text-anchor="middle" x="975" y="-197.5" font-family="Helvetica,sans-Serif" font-size="10.00" fill="#000000">gsl/gsl</text>
</g>
<!-- Node30&#45;&gt;Node31 -->
<g id="edge47" class="edge">
<title>Node30&#45;&gt;Node31</title>
<path fill="none" stroke="#191970" d="M1118.4375,-251.8906C1088.8173,-241.1751 1040.8473,-223.8212 1008.631,-212.1665"/>
<polygon fill="#191970" stroke="#191970" points="1009.7706,-208.8568 999.1763,-208.7461 1007.3892,-215.4393 1009.7706,-208.8568"/>
</g>
<!-- Node32 -->
<g id="node33" class="node">
<title>Node32</title>
<g id="a_node33"><a xlink:href="../../d0/daa/Cluster3D_8h.html" target="_top" xlink:title="Reconstructed MID cluster (global coordinates) ">
<polygon fill="none" stroke="#000000" points="775,-190.5 775,-209.5 933,-209.5 933,-190.5 775,-190.5"/>
<text text-anchor="middle" x="854" y="-197.5" font-family="Helvetica,sans-Serif" font-size="10.00" fill="#000000">DataFormatsMID/Cluster3D.h</text>
</a>
</g>
</g>
<!-- Node30&#45;&gt;Node32 -->
<g id="edge49" class="edge">
<title>Node30&#45;&gt;Node32</title>
<path fill="none" stroke="#191970" d="M1099.8505,-251.9581C1048.4522,-241.0956 964.4795,-223.3488 909.2242,-211.6711"/>
<polygon fill="#191970" stroke="#191970" points="909.763,-208.2077 899.2554,-209.5643 908.3155,-215.0565 909.763,-208.2077"/>
</g>
<!-- Node33 -->
<g id="node34" class="node">
<title>Node33</title>
<g id="a_node34"><a xlink:href="../../d2/df9/MUON_2MID_2include_2DataFormatsMID_2ROFRecord_8h.html" target="_top" xlink:title="Definition of the MID event record. ">
<polygon fill="none" stroke="#000000" points="1017.5,-190.5 1017.5,-209.5 1180.5,-209.5 1180.5,-190.5 1017.5,-190.5"/>
<text text-anchor="middle" x="1099" y="-197.5" font-family="Helvetica,sans-Serif" font-size="10.00" fill="#000000">DataFormatsMID/ROFRecord.h</text>
</a>
</g>
</g>
<!-- Node30&#45;&gt;Node33 -->
<g id="edge52" class="edge">
<title>Node30&#45;&gt;Node33</title>
<path fill="none" stroke="#191970" d="M1137.8125,-251.8906C1131.0334,-242.8273 1120.7022,-229.0149 1112.4027,-217.9188"/>
<polygon fill="#191970" stroke="#191970" points="1115.0812,-215.6563 1106.2888,-209.7449 1109.4757,-219.849 1115.0812,-215.6563"/>
</g>
<!-- Node32&#45;&gt;Node4 -->
<g id="edge51" class="edge">
<title>Node32&#45;&gt;Node4</title>
<path fill="none" stroke="#191970" d="M824.3959,-190.4228C801.1758,-182.3098 768.4694,-169.5322 742,-154 722.903,-142.7939 723.6935,-130.8772 703,-123 569.0426,-72.0077 198.1651,-121.32 59,-87 56.7995,-86.4573 54.5663,-85.7741 52.3504,-84.9987"/>
<polygon fill="#191970" stroke="#191970" points="53.4829,-81.6811 42.9009,-81.1603 50.8485,-88.1665 53.4829,-81.6811"/>
</g>
<!-- Node32&#45;&gt;Node9 -->
<g id="edge50" class="edge">
<title>Node32&#45;&gt;Node9</title>
<path fill="none" stroke="#191970" d="M822.7725,-190.4768C793.3299,-181.4075 748.022,-167.2172 709,-154 706.5667,-153.1758 704.0611,-152.3122 701.5405,-151.4323"/>
<polygon fill="#191970" stroke="#191970" points="702.4596,-148.0449 691.8649,-148.0068 700.1235,-154.6436 702.4596,-148.0449"/>
</g>
<!-- Node34 -->
<g id="node35" class="node">
<title>Node34</title>
<g id="a_node35"><a xlink:href="../../d9/d80/InteractionRecord_8h.html" target="_top" xlink:title="CommonDataFormat/Interaction\lRecord.h">
<polygon fill="none" stroke="#000000" points="751,-123.5 751,-153.5 925,-153.5 925,-123.5 751,-123.5"/>
<text text-anchor="start" x="759" y="-141.5" font-family="Helvetica,sans-Serif" font-size="10.00" fill="#000000">CommonDataFormat/Interaction</text>
<text text-anchor="middle" x="838" y="-130.5" font-family="Helvetica,sans-Serif" font-size="10.00" fill="#000000">Record.h</text>
</a>
</g>
</g>
<!-- Node33&#45;&gt;Node34 -->
<g id="edge53" class="edge">
<title>Node33&#45;&gt;Node34</title>
<path fill="none" stroke="#191970" d="M1058.5051,-190.4581C1019.4051,-181.2449 959.2874,-167.0792 911.6942,-155.8647"/>
<polygon fill="#191970" stroke="#191970" points="912.2767,-152.4062 901.7405,-153.5193 910.6712,-159.2196 912.2767,-152.4062"/>
</g>
<!-- Node34&#45;&gt;Node4 -->
<g id="edge57" class="edge">
<title>Node34&#45;&gt;Node4</title>
<path fill="none" stroke="#191970" d="M750.7509,-124.5583C746.1054,-123.9886 741.4999,-123.4636 737,-123 436.831,-92.0752 352.0807,-158.8433 59,-87 56.6609,-86.4266 54.2851,-85.6935 51.9326,-84.8592"/>
<polygon fill="#191970" stroke="#191970" points="53.1259,-81.5657 42.5458,-81.0085 50.4692,-88.042 53.1259,-81.5657"/>
</g>
<!-- Node34&#45;&gt;Node25 -->
<g id="edge56" class="edge">
<title>Node34&#45;&gt;Node25</title>
<path fill="none" stroke="#191970" d="M750.7703,-124.4798C671.0472,-111.4686 562.6442,-93.2055 543,-87 541.144,-86.4137 539.2578,-85.7446 537.3754,-85.0211"/>
<polygon fill="#191970" stroke="#191970" points="538.7233,-81.791 528.1523,-81.0811 535.9734,-88.2282 538.7233,-81.791"/>
</g>
<!-- Node35 -->
<g id="node36" class="node">
<title>Node35</title>
<g id="a_node36"><a xlink:href="../../d2/d45/GPUCommonRtypes_8h.html" target="_top" xlink:title="GPUCommonRtypes.h">
<polygon fill="none" stroke="#000000" points="68.5,-62 68.5,-81 193.5,-81 193.5,-62 68.5,-62"/>
<text text-anchor="middle" x="131" y="-69" font-family="Helvetica,sans-Serif" font-size="10.00" fill="#000000">GPUCommonRtypes.h</text>
</a>
</g>
</g>
<!-- Node34&#45;&gt;Node35 -->
<g id="edge54" class="edge">
<title>Node34&#45;&gt;Node35</title>
<path fill="none" stroke="#191970" d="M750.7427,-124.6356C746.0993,-124.0459 741.4965,-123.4954 737,-123 500.1179,-96.9014 437.9483,-120.5061 202,-87 194.7862,-85.9756 187.214,-84.6246 179.8121,-83.1465"/>
<polygon fill="#191970" stroke="#191970" points="180.3783,-79.6893 169.8739,-81.0708 178.9471,-86.5414 180.3783,-79.6893"/>
</g>
<!-- Node36 -->
<g id="node37" class="node">
<title>Node36</title>
<polygon fill="none" stroke="#bfbfbf" points="211.5,-62 211.5,-81 258.5,-81 258.5,-62 211.5,-62"/>
<text text-anchor="middle" x="235" y="-69" font-family="Helvetica,sans-Serif" font-size="10.00" fill="#000000">cmath</text>
</g>
<!-- Node34&#45;&gt;Node36 -->
<g id="edge58" class="edge">
<title>Node34&#45;&gt;Node36</title>
<path fill="none" stroke="#191970" d="M750.7369,-124.6871C746.095,-124.084 741.4941,-123.5166 737,-123 529.3099,-99.127 470.1457,-140.3123 268,-87 266.0262,-86.4794 264.0259,-85.844 262.0373,-85.131"/>
<polygon fill="#191970" stroke="#191970" points="262.9427,-81.7162 252.3663,-81.0911 260.2445,-88.1753 262.9427,-81.7162"/>
</g>
<!-- Node37 -->
<g id="node38" class="node">
<title>Node37</title>
<g id="a_node38"><a xlink:href="../../d4/dc6/LHCConstants_8h.html" target="_top" xlink:title="Header to collect LHC related constants. ">
<polygon fill="none" stroke="#000000" points="277,-62 277,-81 467,-81 467,-62 277,-62"/>
<text text-anchor="middle" x="372" y="-69" font-family="Helvetica,sans-Serif" font-size="10.00" fill="#000000">CommonConstants/LHCConstants.h</text>
</a>
</g>
</g>
<!-- Node34&#45;&gt;Node37 -->
<g id="edge59" class="edge">
<title>Node34&#45;&gt;Node37</title>
<path fill="none" stroke="#191970" d="M750.9664,-125.0574C746.2431,-124.3547 741.5642,-123.665 737,-123 621.125,-106.1182 591.9112,-103.631 476,-87 466.1067,-85.5805 455.6883,-84.0592 445.4218,-82.5446"/>
<polygon fill="#191970" stroke="#191970" points="445.6357,-79.0382 435.231,-81.0362 444.6107,-85.9628 445.6357,-79.0382"/>
</g>
<!-- Node35&#45;&gt;Node23 -->
<g id="edge55" class="edge">
<title>Node35&#45;&gt;Node23</title>
<path fill="none" stroke="#191970" d="M170.2656,-61.9885C180.5441,-59.7573 191.6472,-57.5744 202,-56 383.1667,-28.4489 602.0034,-15.9251 690.2574,-11.7217"/>
<polygon fill="#191970" stroke="#191970" points="690.5356,-15.2126 700.3614,-11.2499 690.209,-8.2203 690.5356,-15.2126"/>
</g>
</g>
</svg>
