<?xml version="1.0" encoding="UTF-8" standalone="no"?>
<!DOCTYPE svg PUBLIC "-//W3C//DTD SVG 1.1//EN"
 "http://www.w3.org/Graphics/SVG/1.1/DTD/svg11.dtd">
<!-- Generated by graphviz version 2.40.1 (20161225.0304)
 -->
<!-- Title: /home/travis/build/AliceO2Group/AliceO2/Detectors/TPC/simulation/include/TPCSimulation/ElectronTransport.h Pages: 1 -->
<svg width="2242pt" height="553pt"
 viewBox="0.00 0.00 2242.00 553.00" xmlns="http://www.w3.org/2000/svg" xmlns:xlink="http://www.w3.org/1999/xlink">
<g id="graph0" class="graph" transform="scale(1 1) rotate(0) translate(4 549)">
<title>/home/travis/build/AliceO2Group/AliceO2/Detectors/TPC/simulation/include/TPCSimulation/ElectronTransport.h</title>
<!-- Node0 -->
<g id="node1" class="node">
<title>Node0</title>
<polygon fill="#bfbfbf" stroke="#000000" points="707,-492.5 707,-544.5 933,-544.5 933,-492.5 707,-492.5"/>
<text text-anchor="start" x="715" y="-532.5" font-family="Helvetica,sans-Serif" font-size="10.00" fill="#000000">/home/travis/build</text>
<text text-anchor="start" x="715" y="-521.5" font-family="Helvetica,sans-Serif" font-size="10.00" fill="#000000">/AliceO2Group/AliceO2</text>
<text text-anchor="start" x="715" y="-510.5" font-family="Helvetica,sans-Serif" font-size="10.00" fill="#000000">/Detectors/TPC/simulation</text>
<text text-anchor="middle" x="820" y="-499.5" font-family="Helvetica,sans-Serif" font-size="10.00" fill="#000000">/include/TPCSimulation/ElectronTransport.h</text>
</g>
<!-- Node1 -->
<g id="node2" class="node">
<title>Node1</title>
<g id="a_node2"><a xlink:href="../../db/dad/ParameterDetector_8h.html" target="_top" xlink:title="Definition of the parameter class for the detector. ">
<polygon fill="none" stroke="#000000" points="532.5,-436.5 532.5,-455.5 695.5,-455.5 695.5,-436.5 532.5,-436.5"/>
<text text-anchor="middle" x="614" y="-443.5" font-family="Helvetica,sans-Serif" font-size="10.00" fill="#000000">TPCBase/ParameterDetector.h</text>
</a>
</g>
</g>
<!-- Node0&#45;&gt;Node1 -->
<g id="edge1" class="edge">
<title>Node0&#45;&gt;Node1</title>
<path fill="none" stroke="#191970" d="M745.9203,-492.4283C713.5994,-481.0532 677.1442,-468.2231 650.7601,-458.9374"/>
<polygon fill="#191970" stroke="#191970" points="651.7657,-455.581 641.1709,-455.5626 649.4418,-462.184 651.7657,-455.581"/>
</g>
<!-- Node28 -->
<g id="node29" class="node">
<title>Node28</title>
<g id="a_node29"><a xlink:href="../../db/d5b/ParameterGas_8h.html" target="_top" xlink:title="Definition of the parameter class for the detector gas. ">
<polygon fill="none" stroke="#000000" points="374,-436.5 374,-455.5 514,-455.5 514,-436.5 374,-436.5"/>
<text text-anchor="middle" x="444" y="-443.5" font-family="Helvetica,sans-Serif" font-size="10.00" fill="#000000">TPCBase/ParameterGas.h</text>
</a>
</g>
</g>
<!-- Node0&#45;&gt;Node28 -->
<g id="edge30" class="edge">
<title>Node0&#45;&gt;Node28</title>
<path fill="none" stroke="#191970" d="M706.9327,-496.6985C639.948,-483.7825 557.7882,-467.9406 503.3252,-457.439"/>
<polygon fill="#191970" stroke="#191970" points="503.9698,-453.9989 493.488,-455.5422 502.6445,-460.8723 503.9698,-453.9989"/>
</g>
<!-- Node29 -->
<g id="node30" class="node">
<title>Node29</title>
<g id="a_node30"><a xlink:href="../../d5/d1d/TPC_2base_2include_2TPCBase_2Mapper_8h.html" target="_top" xlink:title="TPCBase/Mapper.h">
<polygon fill="none" stroke="#000000" points="944.5,-436.5 944.5,-455.5 1051.5,-455.5 1051.5,-436.5 944.5,-436.5"/>
<text text-anchor="middle" x="998" y="-443.5" font-family="Helvetica,sans-Serif" font-size="10.00" fill="#000000">TPCBase/Mapper.h</text>
</a>
</g>
</g>
<!-- Node0&#45;&gt;Node29 -->
<g id="edge34" class="edge">
<title>Node0&#45;&gt;Node29</title>
<path fill="none" stroke="#191970" d="M884.0106,-492.4283C911.4462,-481.2536 942.3295,-468.6748 965.0232,-459.4316"/>
<polygon fill="#191970" stroke="#191970" points="966.5812,-462.5762 974.5222,-455.5626 963.9407,-456.0933 966.5812,-462.5762"/>
</g>
<!-- Node42 -->
<g id="node43" class="node">
<title>Node42</title>
<g id="a_node43"><a xlink:href="../../db/dac/RandomRing_8h.html" target="_top" xlink:title="MathUtils/RandomRing.h">
<polygon fill="none" stroke="#000000" points="1634.5,-436.5 1634.5,-455.5 1771.5,-455.5 1771.5,-436.5 1634.5,-436.5"/>
<text text-anchor="middle" x="1703" y="-443.5" font-family="Helvetica,sans-Serif" font-size="10.00" fill="#000000">MathUtils/RandomRing.h</text>
</a>
</g>
</g>
<!-- Node0&#45;&gt;Node42 -->
<g id="edge70" class="edge">
<title>Node0&#45;&gt;Node42</title>
<path fill="none" stroke="#191970" d="M933.1789,-509.2073C1114.9832,-494.28 1467.546,-465.3323 1624.4293,-452.4512"/>
<polygon fill="#191970" stroke="#191970" points="1624.796,-455.9329 1634.476,-451.6263 1624.2231,-448.9564 1624.796,-455.9329"/>
</g>
<!-- Node2 -->
<g id="node3" class="node">
<title>Node2</title>
<polygon fill="none" stroke="#bfbfbf" points="611,-375 611,-394 653,-394 653,-375 611,-375"/>
<text text-anchor="middle" x="632" y="-382" font-family="Helvetica,sans-Serif" font-size="10.00" fill="#000000">array</text>
</g>
<!-- Node1&#45;&gt;Node2 -->
<g id="edge2" class="edge">
<title>Node1&#45;&gt;Node2</title>
<path fill="none" stroke="#191970" d="M616.8125,-436.3906C619.3339,-427.776 623.111,-414.8708 626.2676,-404.0858"/>
<polygon fill="#191970" stroke="#191970" points="629.6979,-404.8254 629.1478,-394.2449 622.9797,-402.8591 629.6979,-404.8254"/>
</g>
<!-- Node3 -->
<g id="node4" class="node">
<title>Node3</title>
<g id="a_node4"><a xlink:href="../../d1/d73/Defs_8h.html" target="_top" xlink:title="DataFormatsTPC/Defs.h">
<polygon fill="none" stroke="#000000" points="1297.5,-123.5 1297.5,-142.5 1430.5,-142.5 1430.5,-123.5 1297.5,-123.5"/>
<text text-anchor="middle" x="1364" y="-130.5" font-family="Helvetica,sans-Serif" font-size="10.00" fill="#000000">DataFormatsTPC/Defs.h</text>
</a>
</g>
</g>
<!-- Node1&#45;&gt;Node3 -->
<g id="edge3" class="edge">
<title>Node1&#45;&gt;Node3</title>
<path fill="none" stroke="#191970" d="M610.6873,-436.2724C607.736,-427.0586 603.6383,-412.7706 602,-400 600.2468,-386.3342 600.8519,-382.7299 602,-369 609.1359,-283.6641 570.1574,-236.0724 634,-179 686.3498,-132.2016 1179.0475,-148.4817 1287.0683,-142.7814"/>
<polygon fill="#191970" stroke="#191970" points="1287.5722,-146.2548 1297.3041,-142.0666 1287.0846,-139.2718 1287.5722,-146.2548"/>
</g>
<!-- Node17 -->
<g id="node18" class="node">
<title>Node17</title>
<g id="a_node18"><a xlink:href="../../db/d2c/ConfigurableParam_8h.html" target="_top" xlink:title="CommonUtils/Configurable\lParam.h">
<polygon fill="none" stroke="#000000" points="172,-302.5 172,-332.5 320,-332.5 320,-302.5 172,-302.5"/>
<text text-anchor="start" x="180" y="-320.5" font-family="Helvetica,sans-Serif" font-size="10.00" fill="#000000">CommonUtils/Configurable</text>
<text text-anchor="middle" x="246" y="-309.5" font-family="Helvetica,sans-Serif" font-size="10.00" fill="#000000">Param.h</text>
</a>
</g>
</g>
<!-- Node1&#45;&gt;Node17 -->
<g id="edge17" class="edge">
<title>Node1&#45;&gt;Node17</title>
<path fill="none" stroke="#191970" d="M541.806,-436.4771C478.882,-427.5217 392.8531,-413.5078 361,-400 351.5401,-395.9884 305.3437,-361.9961 274.4578,-338.9154"/>
<polygon fill="#191970" stroke="#191970" points="276.2982,-335.9209 266.1957,-332.7287 272.1025,-341.5242 276.2982,-335.9209"/>
</g>
<!-- Node24 -->
<g id="node25" class="node">
<title>Node24</title>
<g id="a_node25"><a xlink:href="../../da/d6b/ConfigurableParamHelper_8h.html" target="_top" xlink:title="CommonUtils/Configurable\lParamHelper.h">
<polygon fill="none" stroke="#000000" points="370,-369.5 370,-399.5 518,-399.5 518,-369.5 370,-369.5"/>
<text text-anchor="start" x="378" y="-387.5" font-family="Helvetica,sans-Serif" font-size="10.00" fill="#000000">CommonUtils/Configurable</text>
<text text-anchor="middle" x="444" y="-376.5" font-family="Helvetica,sans-Serif" font-size="10.00" fill="#000000">ParamHelper.h</text>
</a>
</g>
</g>
<!-- Node1&#45;&gt;Node24 -->
<g id="edge24" class="edge">
<title>Node1&#45;&gt;Node24</title>
<path fill="none" stroke="#191970" d="M587.4375,-436.3906C562.8323,-427.4893 525.5649,-414.0073 495.1839,-403.0165"/>
<polygon fill="#191970" stroke="#191970" points="496.1809,-399.6553 485.5867,-399.5446 493.7996,-406.2378 496.1809,-399.6553"/>
</g>
<!-- Node4 -->
<g id="node5" class="node">
<title>Node4</title>
<polygon fill="none" stroke="#bfbfbf" points="1004.5,-67.5 1004.5,-86.5 1051.5,-86.5 1051.5,-67.5 1004.5,-67.5"/>
<text text-anchor="middle" x="1028" y="-74.5" font-family="Helvetica,sans-Serif" font-size="10.00" fill="#000000">cmath</text>
</g>
<!-- Node3&#45;&gt;Node4 -->
<g id="edge4" class="edge">
<title>Node3&#45;&gt;Node4</title>
<path fill="none" stroke="#191970" d="M1306.6213,-123.4369C1236.2176,-111.7029 1119.1555,-92.1926 1061.7882,-82.6314"/>
<polygon fill="#191970" stroke="#191970" points="1062.2352,-79.1577 1051.7958,-80.966 1061.0843,-86.0624 1062.2352,-79.1577"/>
</g>
<!-- Node5 -->
<g id="node6" class="node">
<title>Node5</title>
<g id="a_node6"><a xlink:href="../../d1/da8/GPUROOTCartesianFwd_8h.html" target="_top" xlink:title="GPUROOTCartesianFwd.h">
<polygon fill="none" stroke="#000000" points="1294,-67.5 1294,-86.5 1434,-86.5 1434,-67.5 1294,-67.5"/>
<text text-anchor="middle" x="1364" y="-74.5" font-family="Helvetica,sans-Serif" font-size="10.00" fill="#000000">GPUROOTCartesianFwd.h</text>
</a>
</g>
</g>
<!-- Node3&#45;&gt;Node5 -->
<g id="edge5" class="edge">
<title>Node3&#45;&gt;Node5</title>
<path fill="none" stroke="#191970" d="M1364,-123.2455C1364,-115.9382 1364,-105.6944 1364,-96.7046"/>
<polygon fill="#191970" stroke="#191970" points="1367.5001,-96.6426 1364,-86.6427 1360.5001,-96.6427 1367.5001,-96.6426"/>
</g>
<!-- Node6 -->
<g id="node7" class="node">
<title>Node6</title>
<g id="a_node7"><a xlink:href="../../dc/d73/Cartesian_8h.html" target="_top" xlink:title="MathUtils/Cartesian.h">
<polygon fill="none" stroke="#000000" points="1498,-67.5 1498,-86.5 1620,-86.5 1620,-67.5 1498,-67.5"/>
<text text-anchor="middle" x="1559" y="-74.5" font-family="Helvetica,sans-Serif" font-size="10.00" fill="#000000">MathUtils/Cartesian.h</text>
</a>
</g>
</g>
<!-- Node3&#45;&gt;Node6 -->
<g id="edge6" class="edge">
<title>Node3&#45;&gt;Node6</title>
<path fill="none" stroke="#191970" d="M1397.5217,-123.3733C1430.3683,-113.9404 1480.5595,-99.5265 1516.2578,-89.2747"/>
<polygon fill="#191970" stroke="#191970" points="1517.2703,-92.6255 1525.9157,-86.5011 1515.3381,-85.8974 1517.2703,-92.6255"/>
</g>
<!-- Node7 -->
<g id="node8" class="node">
<title>Node7</title>
<polygon fill="none" stroke="#bfbfbf" points="2070,-.5 2070,-30.5 2234,-30.5 2234,-.5 2070,-.5"/>
<text text-anchor="start" x="2078" y="-18.5" font-family="Helvetica,sans-Serif" font-size="10.00" fill="#000000">Math/GenVector/Displacement</text>
<text text-anchor="middle" x="2152" y="-7.5" font-family="Helvetica,sans-Serif" font-size="10.00" fill="#000000">Vector3D.h</text>
</g>
<!-- Node6&#45;&gt;Node7 -->
<g id="edge7" class="edge">
<title>Node6&#45;&gt;Node7</title>
<path fill="none" stroke="#191970" d="M1620.2161,-72.9238C1712.9946,-66.4076 1894.9693,-52.306 2059.3991,-31.1491"/>
<polygon fill="#191970" stroke="#191970" points="2060.2372,-34.5697 2069.7032,-29.8109 2059.3357,-27.628 2060.2372,-34.5697"/>
</g>
<!-- Node8 -->
<g id="node9" class="node">
<title>Node8</title>
<polygon fill="none" stroke="#bfbfbf" points="739.5,-6 739.5,-25 928.5,-25 928.5,-6 739.5,-6"/>
<text text-anchor="middle" x="834" y="-13" font-family="Helvetica,sans-Serif" font-size="10.00" fill="#000000">Math/GenVector/PositionVector3D.h</text>
</g>
<!-- Node6&#45;&gt;Node8 -->
<g id="edge8" class="edge">
<title>Node6&#45;&gt;Node8</title>
<path fill="none" stroke="#191970" d="M1497.9088,-71.5626C1480.2005,-70.0327 1460.8338,-68.4043 1443,-67 1218.6803,-49.3365 1161.665,-55.6028 938,-31 926.5619,-29.7418 914.4512,-28.1635 902.6925,-26.499"/>
<polygon fill="#191970" stroke="#191970" points="902.8739,-22.9888 892.4755,-25.0199 901.8709,-29.9166 902.8739,-22.9888"/>
</g>
<!-- Node9 -->
<g id="node10" class="node">
<title>Node9</title>
<polygon fill="none" stroke="#bfbfbf" points="947,-6 947,-25 1107,-25 1107,-6 947,-6"/>
<text text-anchor="middle" x="1027" y="-13" font-family="Helvetica,sans-Serif" font-size="10.00" fill="#000000">Math/GenVector/Rotation3D.h</text>
</g>
<!-- Node6&#45;&gt;Node9 -->
<g id="edge9" class="edge">
<title>Node6&#45;&gt;Node9</title>
<path fill="none" stroke="#191970" d="M1497.9011,-71.1825C1394.2516,-61.2249 1188.1848,-41.0214 1116,-31 1106.9873,-29.7488 1097.4887,-28.2686 1088.1873,-26.7275"/>
<polygon fill="#191970" stroke="#191970" points="1088.6476,-23.2558 1078.204,-25.0393 1087.4804,-30.1578 1088.6476,-23.2558"/>
</g>
<!-- Node10 -->
<g id="node11" class="node">
<title>Node10</title>
<polygon fill="none" stroke="#bfbfbf" points="1125,-6 1125,-25 1293,-25 1293,-6 1125,-6"/>
<text text-anchor="middle" x="1209" y="-13" font-family="Helvetica,sans-Serif" font-size="10.00" fill="#000000">Math/GenVector/Transform3D.h</text>
</g>
<!-- Node6&#45;&gt;Node10 -->
<g id="edge10" class="edge">
<title>Node6&#45;&gt;Node10</title>
<path fill="none" stroke="#191970" d="M1504.6965,-67.4581C1442.1446,-56.4668 1339.4799,-38.4272 1273.0729,-26.7585"/>
<polygon fill="#191970" stroke="#191970" points="1273.5978,-23.2972 1263.1429,-25.0137 1272.3863,-30.1916 1273.5978,-23.2972"/>
</g>
<!-- Node11 -->
<g id="node12" class="node">
<title>Node11</title>
<polygon fill="none" stroke="#bfbfbf" points="1311.5,-6 1311.5,-25 1484.5,-25 1484.5,-6 1311.5,-6"/>
<text text-anchor="middle" x="1398" y="-13" font-family="Helvetica,sans-Serif" font-size="10.00" fill="#000000">Math/GenVector/Translation3D.h</text>
</g>
<!-- Node6&#45;&gt;Node11 -->
<g id="edge11" class="edge">
<title>Node6&#45;&gt;Node11</title>
<path fill="none" stroke="#191970" d="M1533.8438,-67.3906C1506.551,-56.9652 1462.808,-40.2559 1432.3603,-28.6252"/>
<polygon fill="#191970" stroke="#191970" points="1433.5702,-25.3408 1422.9796,-25.0419 1431.0723,-31.8799 1433.5702,-25.3408"/>
</g>
<!-- Node12 -->
<g id="node13" class="node">
<title>Node12</title>
<polygon fill="none" stroke="#bfbfbf" points="1503,-.5 1503,-30.5 1667,-30.5 1667,-.5 1503,-.5"/>
<text text-anchor="start" x="1511" y="-18.5" font-family="Helvetica,sans-Serif" font-size="10.00" fill="#000000">Math/GenVector/Displacement</text>
<text text-anchor="middle" x="1585" y="-7.5" font-family="Helvetica,sans-Serif" font-size="10.00" fill="#000000">Vector2D.h</text>
</g>
<!-- Node6&#45;&gt;Node12 -->
<g id="edge12" class="edge">
<title>Node6&#45;&gt;Node12</title>
<path fill="none" stroke="#191970" d="M1563.0625,-67.3906C1566.1903,-59.9922 1570.656,-49.4291 1574.7428,-39.7623"/>
<polygon fill="#191970" stroke="#191970" points="1577.9694,-41.1182 1578.6397,-30.5446 1571.5219,-38.3924 1577.9694,-41.1182"/>
</g>
<!-- Node13 -->
<g id="node14" class="node">
<title>Node13</title>
<polygon fill="none" stroke="#bfbfbf" points="1685.5,-6 1685.5,-25 1874.5,-25 1874.5,-6 1685.5,-6"/>
<text text-anchor="middle" x="1780" y="-13" font-family="Helvetica,sans-Serif" font-size="10.00" fill="#000000">Math/GenVector/PositionVector2D.h</text>
</g>
<!-- Node6&#45;&gt;Node13 -->
<g id="edge13" class="edge">
<title>Node6&#45;&gt;Node13</title>
<path fill="none" stroke="#191970" d="M1593.5313,-67.3906C1631.9682,-56.6944 1694.1744,-39.3836 1736.0536,-27.7294"/>
<polygon fill="#191970" stroke="#191970" points="1737.0157,-31.0948 1745.7112,-25.0419 1735.1389,-24.351 1737.0157,-31.0948"/>
</g>
<!-- Node14 -->
<g id="node15" class="node">
<title>Node14</title>
<polygon fill="none" stroke="#bfbfbf" points="1892.5,-6 1892.5,-25 1951.5,-25 1951.5,-6 1892.5,-6"/>
<text text-anchor="middle" x="1922" y="-13" font-family="Helvetica,sans-Serif" font-size="10.00" fill="#000000">Rtypes.h</text>
</g>
<!-- Node6&#45;&gt;Node14 -->
<g id="edge14" class="edge">
<title>Node6&#45;&gt;Node14</title>
<path fill="none" stroke="#191970" d="M1620.099,-72.8691C1686.1033,-67.3666 1793.9172,-55.3453 1884,-31 1886.4675,-30.3331 1888.9898,-29.5488 1891.5029,-28.693"/>
<polygon fill="#191970" stroke="#191970" points="1892.8751,-31.9166 1901.0155,-25.1354 1890.423,-25.3601 1892.8751,-31.9166"/>
</g>
<!-- Node15 -->
<g id="node16" class="node">
<title>Node15</title>
<polygon fill="none" stroke="#bfbfbf" points="1970,-6 1970,-25 2052,-25 2052,-6 1970,-6"/>
<text text-anchor="middle" x="2011" y="-13" font-family="Helvetica,sans-Serif" font-size="10.00" fill="#000000">TGeoMatrix.h</text>
</g>
<!-- Node6&#45;&gt;Node15 -->
<g id="edge15" class="edge">
<title>Node6&#45;&gt;Node15</title>
<path fill="none" stroke="#191970" d="M1620.1798,-73.5616C1699.4785,-68.2945 1841.7299,-56.0812 1961,-31 1965.1522,-30.1268 1969.4529,-29.0566 1973.7098,-27.8903"/>
<polygon fill="#191970" stroke="#191970" points="1974.8533,-31.2027 1983.4727,-25.0418 1972.8927,-24.4828 1974.8533,-31.2027"/>
</g>
<!-- Node16 -->
<g id="node17" class="node">
<title>Node16</title>
<polygon fill="none" stroke="#bfbfbf" points="672.5,-6 672.5,-25 721.5,-25 721.5,-6 672.5,-6"/>
<text text-anchor="middle" x="697" y="-13" font-family="Helvetica,sans-Serif" font-size="10.00" fill="#000000">iosfwd</text>
</g>
<!-- Node6&#45;&gt;Node16 -->
<g id="edge16" class="edge">
<title>Node6&#45;&gt;Node16</title>
<path fill="none" stroke="#191970" d="M1497.9262,-71.3252C1480.2182,-69.7909 1460.8474,-68.2195 1443,-67 1284.7228,-56.1854 883.9171,-69.4469 730,-31 727.8046,-30.4516 725.5788,-29.7541 723.3739,-28.9598"/>
<polygon fill="#191970" stroke="#191970" points="724.5756,-25.6684 714.0006,-25.0205 721.8635,-32.1216 724.5756,-25.6684"/>
</g>
<!-- Node18 -->
<g id="node19" class="node">
<title>Node18</title>
<polygon fill="none" stroke="#bfbfbf" points="785.5,-241 785.5,-260 832.5,-260 832.5,-241 785.5,-241"/>
<text text-anchor="middle" x="809" y="-248" font-family="Helvetica,sans-Serif" font-size="10.00" fill="#000000">vector</text>
</g>
<!-- Node17&#45;&gt;Node18 -->
<g id="edge18" class="edge">
<title>Node17&#45;&gt;Node18</title>
<path fill="none" stroke="#191970" d="M320.2124,-307.8575C335.671,-305.8871 351.8642,-303.8512 367,-302 519.0257,-283.4067 700.6647,-262.7258 774.8787,-254.3413"/>
<polygon fill="#191970" stroke="#191970" points="775.4882,-257.7949 785.0325,-253.1952 774.703,-250.839 775.4882,-257.7949"/>
</g>
<!-- Node19 -->
<g id="node20" class="node">
<title>Node19</title>
<polygon fill="none" stroke="#bfbfbf" points="473,-241 473,-260 511,-260 511,-241 473,-241"/>
<text text-anchor="middle" x="492" y="-248" font-family="Helvetica,sans-Serif" font-size="10.00" fill="#000000">map</text>
</g>
<!-- Node17&#45;&gt;Node19 -->
<g id="edge19" class="edge">
<title>Node17&#45;&gt;Node19</title>
<path fill="none" stroke="#191970" d="M301.2072,-302.4639C351.4018,-288.793 423.5011,-269.1562 463.1455,-258.3587"/>
<polygon fill="#191970" stroke="#191970" points="464.2285,-261.6913 472.9573,-255.6864 462.389,-254.9374 464.2285,-261.6913"/>
</g>
<!-- Node20 -->
<g id="node21" class="node">
<title>Node20</title>
<polygon fill="none" stroke="#bfbfbf" points="78.5,-241 78.5,-260 171.5,-260 171.5,-241 78.5,-241"/>
<text text-anchor="middle" x="125" y="-248" font-family="Helvetica,sans-Serif" font-size="10.00" fill="#000000">unordered_map</text>
</g>
<!-- Node17&#45;&gt;Node20 -->
<g id="edge20" class="edge">
<title>Node17&#45;&gt;Node20</title>
<path fill="none" stroke="#191970" d="M218.8452,-302.4639C198.6344,-291.2728 171.2036,-276.0838 151.2201,-265.0186"/>
<polygon fill="#191970" stroke="#191970" points="152.7883,-261.8862 142.3444,-260.1039 149.3973,-268.0101 152.7883,-261.8862"/>
</g>
<!-- Node21 -->
<g id="node22" class="node">
<title>Node21</title>
<polygon fill="none" stroke="#bfbfbf" points="189.5,-235.5 189.5,-265.5 302.5,-265.5 302.5,-235.5 189.5,-235.5"/>
<text text-anchor="start" x="197.5" y="-253.5" font-family="Helvetica,sans-Serif" font-size="10.00" fill="#000000">boost/property_tree</text>
<text text-anchor="middle" x="246" y="-242.5" font-family="Helvetica,sans-Serif" font-size="10.00" fill="#000000">/ptree.hpp</text>
</g>
<!-- Node17&#45;&gt;Node21 -->
<g id="edge21" class="edge">
<title>Node17&#45;&gt;Node21</title>
<path fill="none" stroke="#191970" d="M246,-302.2967C246,-294.5013 246,-284.7991 246,-275.9064"/>
<polygon fill="#191970" stroke="#191970" points="249.5001,-275.6431 246,-265.6432 242.5001,-275.6432 249.5001,-275.6431"/>
</g>
<!-- Node22 -->
<g id="node23" class="node">
<title>Node22</title>
<polygon fill="none" stroke="#bfbfbf" points="320.5,-241 320.5,-260 377.5,-260 377.5,-241 320.5,-241"/>
<text text-anchor="middle" x="349" y="-248" font-family="Helvetica,sans-Serif" font-size="10.00" fill="#000000">typeinfo</text>
</g>
<!-- Node17&#45;&gt;Node22 -->
<g id="edge22" class="edge">
<title>Node17&#45;&gt;Node22</title>
<path fill="none" stroke="#191970" d="M269.1152,-302.4639C285.9302,-291.526 308.6163,-276.769 325.5162,-265.7759"/>
<polygon fill="#191970" stroke="#191970" points="327.7616,-268.4906 334.2358,-260.1039 323.9447,-262.6228 327.7616,-268.4906"/>
</g>
<!-- Node23 -->
<g id="node24" class="node">
<title>Node23</title>
<polygon fill="none" stroke="#bfbfbf" points="0,-241 0,-260 60,-260 60,-241 0,-241"/>
<text text-anchor="middle" x="30" y="-248" font-family="Helvetica,sans-Serif" font-size="10.00" fill="#000000">iostream</text>
</g>
<!-- Node17&#45;&gt;Node23 -->
<g id="edge23" class="edge">
<title>Node17&#45;&gt;Node23</title>
<path fill="none" stroke="#191970" d="M188.9725,-302.3925C154.0718,-292.7804 108.6526,-279.6139 69,-266 66.8724,-265.2695 64.6906,-264.4898 62.4989,-263.6833"/>
<polygon fill="#191970" stroke="#191970" points="63.5522,-260.3392 52.9614,-260.046 61.0578,-266.8797 63.5522,-260.3392"/>
</g>
<!-- Node24&#45;&gt;Node17 -->
<g id="edge25" class="edge">
<title>Node24&#45;&gt;Node17</title>
<path fill="none" stroke="#191970" d="M399.5649,-369.4639C370.2433,-359.5419 331.6347,-346.4774 300.466,-335.9304"/>
<polygon fill="#191970" stroke="#191970" points="301.2231,-332.4917 290.6289,-332.6017 298.9794,-339.1224 301.2231,-332.4917"/>
</g>
<!-- Node24&#45;&gt;Node22 -->
<g id="edge28" class="edge">
<title>Node24&#45;&gt;Node22</title>
<path fill="none" stroke="#191970" d="M410.3122,-369.4109C394.8794,-360.8506 377.6849,-348.6835 367,-333 354.2101,-314.2268 350.3086,-287.9544 349.2213,-270.1389"/>
<polygon fill="#191970" stroke="#191970" points="352.7155,-269.914 348.8508,-260.0492 345.7202,-270.171 352.7155,-269.914"/>
</g>
<!-- Node25 -->
<g id="node26" class="node">
<title>Node25</title>
<polygon fill="none" stroke="#bfbfbf" points="376.5,-308 376.5,-327 433.5,-327 433.5,-308 376.5,-308"/>
<text text-anchor="middle" x="405" y="-315" font-family="Helvetica,sans-Serif" font-size="10.00" fill="#000000">TClass.h</text>
</g>
<!-- Node24&#45;&gt;Node25 -->
<g id="edge26" class="edge">
<title>Node24&#45;&gt;Node25</title>
<path fill="none" stroke="#191970" d="M435.1503,-369.2967C429.3689,-359.3645 421.7858,-346.3371 415.6709,-335.8321"/>
<polygon fill="#191970" stroke="#191970" points="418.6175,-333.9367 410.5618,-327.055 412.5677,-337.4582 418.6175,-333.9367"/>
</g>
<!-- Node26 -->
<g id="node27" class="node">
<title>Node26</title>
<polygon fill="none" stroke="#bfbfbf" points="451.5,-308 451.5,-327 520.5,-327 520.5,-308 451.5,-308"/>
<text text-anchor="middle" x="486" y="-315" font-family="Helvetica,sans-Serif" font-size="10.00" fill="#000000">type_traits</text>
</g>
<!-- Node24&#45;&gt;Node26 -->
<g id="edge27" class="edge">
<title>Node24&#45;&gt;Node26</title>
<path fill="none" stroke="#191970" d="M453.5305,-369.2967C459.7566,-359.3645 467.923,-346.3371 474.5082,-335.8321"/>
<polygon fill="#191970" stroke="#191970" points="477.6644,-337.3868 480.0103,-327.055 471.7334,-333.6689 477.6644,-337.3868"/>
</g>
<!-- Node27 -->
<g id="node28" class="node">
<title>Node27</title>
<polygon fill="none" stroke="#bfbfbf" points="539,-308 539,-327 587,-327 587,-308 539,-308"/>
<text text-anchor="middle" x="563" y="-315" font-family="Helvetica,sans-Serif" font-size="10.00" fill="#000000">TFile.h</text>
</g>
<!-- Node24&#45;&gt;Node27 -->
<g id="edge29" class="edge">
<title>Node24&#45;&gt;Node27</title>
<path fill="none" stroke="#191970" d="M470.7059,-369.4639C490.5827,-358.2728 517.5601,-343.0838 537.2132,-332.0186"/>
<polygon fill="#191970" stroke="#191970" points="538.9456,-335.0599 545.9423,-327.1039 535.5113,-328.9602 538.9456,-335.0599"/>
</g>
<!-- Node28&#45;&gt;Node2 -->
<g id="edge31" class="edge">
<title>Node28&#45;&gt;Node2</title>
<path fill="none" stroke="#191970" d="M473.375,-436.3906C508.1525,-425.0139 565.8042,-406.1545 601.1949,-394.5772"/>
<polygon fill="#191970" stroke="#191970" points="602.5651,-397.8116 610.9812,-391.3758 600.3886,-391.1585 602.5651,-397.8116"/>
</g>
<!-- Node28&#45;&gt;Node17 -->
<g id="edge32" class="edge">
<title>Node28&#45;&gt;Node17</title>
<path fill="none" stroke="#191970" d="M399.7468,-436.4604C373.4861,-429.3422 340.4613,-417.7349 315,-400 292.4844,-384.3169 273.0817,-359.454 260.6373,-341.1182"/>
<polygon fill="#191970" stroke="#191970" points="263.525,-339.1395 255.104,-332.7101 257.6776,-342.9876 263.525,-339.1395"/>
</g>
<!-- Node28&#45;&gt;Node24 -->
<g id="edge33" class="edge">
<title>Node28&#45;&gt;Node24</title>
<path fill="none" stroke="#191970" d="M444,-436.3906C444,-429.2234 444,-419.0862 444,-409.671"/>
<polygon fill="#191970" stroke="#191970" points="447.5001,-409.5446 444,-399.5446 440.5001,-409.5446 447.5001,-409.5446"/>
</g>
<!-- Node29&#45;&gt;Node2 -->
<g id="edge37" class="edge">
<title>Node29&#45;&gt;Node2</title>
<path fill="none" stroke="#191970" d="M944.3162,-443.1426C878.0477,-438.5724 762.4147,-427.1781 667,-400 664.8189,-399.3787 662.5974,-398.6477 660.385,-397.8472"/>
<polygon fill="#191970" stroke="#191970" points="661.4806,-394.515 650.8974,-394.0177 658.8605,-401.0062 661.4806,-394.515"/>
</g>
<!-- Node29&#45;&gt;Node3 -->
<g id="edge40" class="edge">
<title>Node29&#45;&gt;Node3</title>
<path fill="none" stroke="#191970" d="M1051.7839,-442.852C1121.7809,-437.8852 1247.4999,-425.9819 1352,-400 1434.4361,-379.5039 1452.0332,-364.3056 1531,-333 1547.5742,-326.4293 1568,-335.3291 1568,-317.5 1568,-317.5 1568,-317.5 1568,-250.5 1568,-188.5854 1496.5673,-158.8021 1438.2416,-144.8031"/>
<polygon fill="#191970" stroke="#191970" points="1438.7947,-141.3395 1428.2669,-142.5289 1437.2386,-148.1644 1438.7947,-141.3395"/>
</g>
<!-- Node29&#45;&gt;Node4 -->
<g id="edge39" class="edge">
<title>Node29&#45;&gt;Node4</title>
<path fill="none" stroke="#191970" d="M944.0119,-440.6563C890.8557,-434.2306 814.8319,-421.5283 795,-400 744.9858,-345.7076 740.2614,-299.5898 776,-235 823.1686,-149.7529 937.6892,-104.3393 994.6644,-86.3483"/>
<polygon fill="#191970" stroke="#191970" points="995.7425,-89.6786 1004.2777,-83.4015 993.691,-82.986 995.7425,-89.6786"/>
</g>
<!-- Node29&#45;&gt;Node6 -->
<g id="edge69" class="edge">
<title>Node29&#45;&gt;Node6</title>
<path fill="none" stroke="#191970" d="M1051.7282,-442.0148C1147.9892,-434.5477 1346.0489,-417.6079 1413,-400 1503.2181,-376.2729 1606,-410.786 1606,-317.5 1606,-317.5 1606,-317.5 1606,-189 1606,-153.5481 1585.7296,-116.3564 1571.8129,-94.9999"/>
<polygon fill="#191970" stroke="#191970" points="1574.6421,-92.9356 1566.1383,-86.6161 1568.8451,-96.8593 1574.6421,-92.9356"/>
</g>
<!-- Node29&#45;&gt;Node18 -->
<g id="edge36" class="edge">
<title>Node29&#45;&gt;Node18</title>
<path fill="none" stroke="#191970" d="M944.4798,-439.7681C896.1878,-432.9322 830.2973,-420.1689 814,-400 783.7773,-362.5976 794.6596,-301.0869 802.9953,-269.9118"/>
<polygon fill="#191970" stroke="#191970" points="806.3769,-270.8163 805.766,-260.2391 799.6475,-268.8887 806.3769,-270.8163"/>
</g>
<!-- Node29&#45;&gt;Node19 -->
<g id="edge35" class="edge">
<title>Node29&#45;&gt;Node19</title>
<path fill="none" stroke="#191970" d="M944.4992,-441.2737C871.8716,-434.2353 746.3834,-419.686 705,-400 675.5857,-386.0077 622.9559,-320.2857 596,-302 571.9977,-285.7179 542.1044,-271.4629 520.5348,-262.1036"/>
<polygon fill="#191970" stroke="#191970" points="521.8333,-258.8525 511.2612,-258.1582 519.0928,-265.2938 521.8333,-258.8525"/>
</g>
<!-- Node30 -->
<g id="node31" class="node">
<title>Node30</title>
<polygon fill="none" stroke="#bfbfbf" points="823,-375 823,-394 867,-394 867,-375 823,-375"/>
<text text-anchor="middle" x="845" y="-382" font-family="Helvetica,sans-Serif" font-size="10.00" fill="#000000">string</text>
</g>
<!-- Node29&#45;&gt;Node30 -->
<g id="edge38" class="edge">
<title>Node29&#45;&gt;Node30</title>
<path fill="none" stroke="#191970" d="M970.0551,-436.3894C945.1133,-427.5935 907.7337,-413.872 876,-400 874.98,-399.5541 873.9456,-399.0917 872.904,-398.6176"/>
<polygon fill="#191970" stroke="#191970" points="874.0737,-395.2981 863.5403,-394.159 871.0644,-401.6182 874.0737,-395.2981"/>
</g>
<!-- Node31 -->
<g id="node32" class="node">
<title>Node31</title>
<g id="a_node32"><a xlink:href="../../de/d41/PadPos_8h.html" target="_top" xlink:title="TPCBase/PadPos.h">
<polygon fill="none" stroke="#000000" points="1046,-241 1046,-260 1152,-260 1152,-241 1046,-241"/>
<text text-anchor="middle" x="1099" y="-248" font-family="Helvetica,sans-Serif" font-size="10.00" fill="#000000">TPCBase/PadPos.h</text>
</a>
</g>
</g>
<!-- Node29&#45;&gt;Node31 -->
<g id="edge41" class="edge">
<title>Node29&#45;&gt;Node31</title>
<path fill="none" stroke="#191970" d="M1043.5736,-436.49C1063.5546,-429.8122 1085.124,-418.6135 1097,-400 1104.4107,-388.385 1097.1913,-382.7764 1097,-369 1096.5865,-339.2218 1095.1337,-331.7685 1096,-302 1096.3034,-291.5761 1096.9514,-279.9805 1097.5678,-270.4355"/>
<polygon fill="#191970" stroke="#191970" points="1101.0659,-270.5804 1098.2543,-260.3654 1094.0821,-270.1042 1101.0659,-270.5804"/>
</g>
<!-- Node32 -->
<g id="node33" class="node">
<title>Node32</title>
<g id="a_node33"><a xlink:href="../../dd/d0b/PadSecPos_8h.html" target="_top" xlink:title="TPCBase/PadSecPos.h">
<polygon fill="none" stroke="#000000" points="1122.5,-308 1122.5,-327 1245.5,-327 1245.5,-308 1122.5,-308"/>
<text text-anchor="middle" x="1184" y="-315" font-family="Helvetica,sans-Serif" font-size="10.00" fill="#000000">TPCBase/PadSecPos.h</text>
</a>
</g>
</g>
<!-- Node29&#45;&gt;Node32 -->
<g id="edge42" class="edge">
<title>Node29&#45;&gt;Node32</title>
<path fill="none" stroke="#191970" d="M1051.7398,-437.1923C1078.9567,-430.5812 1111.1873,-419.2325 1135,-400 1155.6799,-383.2977 1169.6173,-355.3635 1177.183,-336.6889"/>
<polygon fill="#191970" stroke="#191970" points="1180.5248,-337.7484 1180.8186,-327.1576 1173.9844,-335.2536 1180.5248,-337.7484"/>
</g>
<!-- Node33 -->
<g id="node34" class="node">
<title>Node33</title>
<g id="a_node34"><a xlink:href="../../d3/dd6/Sector_8h.html" target="_top" xlink:title="TPCBase/Sector.h">
<polygon fill="none" stroke="#000000" points="1155.5,-179.5 1155.5,-198.5 1256.5,-198.5 1256.5,-179.5 1155.5,-179.5"/>
<text text-anchor="middle" x="1206" y="-186.5" font-family="Helvetica,sans-Serif" font-size="10.00" fill="#000000">TPCBase/Sector.h</text>
</a>
</g>
</g>
<!-- Node29&#45;&gt;Node33 -->
<g id="edge68" class="edge">
<title>Node29&#45;&gt;Node33</title>
<path fill="none" stroke="#191970" d="M1011.6336,-436.4516C1022.1548,-428.1822 1035.9091,-415.1795 1042,-400 1069.3216,-331.91 992.4521,-293.2941 1037,-235 1050.3326,-217.5534 1102.4085,-205.1516 1145.2705,-197.6552"/>
<polygon fill="#191970" stroke="#191970" points="1146.1001,-201.0648 1155.3768,-195.9468 1144.9332,-194.1627 1146.1001,-201.0648"/>
</g>
<!-- Node35 -->
<g id="node36" class="node">
<title>Node35</title>
<g id="a_node36"><a xlink:href="../../da/d61/PadROCPos_8h.html" target="_top" xlink:title="TPCBase/PadROCPos.h">
<polygon fill="none" stroke="#000000" points="1374.5,-308 1374.5,-327 1501.5,-327 1501.5,-308 1374.5,-308"/>
<text text-anchor="middle" x="1438" y="-315" font-family="Helvetica,sans-Serif" font-size="10.00" fill="#000000">TPCBase/PadROCPos.h</text>
</a>
</g>
</g>
<!-- Node29&#45;&gt;Node35 -->
<g id="edge47" class="edge">
<title>Node29&#45;&gt;Node35</title>
<path fill="none" stroke="#191970" d="M1051.6093,-440.7619C1127.4931,-432.8859 1262.1093,-417.0849 1308,-400 1350.837,-384.052 1394.4501,-352.5995 1418.6894,-333.4712"/>
<polygon fill="#191970" stroke="#191970" points="1421.1006,-336.0238 1426.7058,-327.0331 1416.7173,-330.566 1421.1006,-336.0238"/>
</g>
<!-- Node37 -->
<g id="node38" class="node">
<title>Node37</title>
<g id="a_node38"><a xlink:href="../../d3/d54/DigitPos_8h.html" target="_top" xlink:title="TPCBase/DigitPos.h">
<polygon fill="none" stroke="#000000" points="1187,-375 1187,-394 1299,-394 1299,-375 1187,-375"/>
<text text-anchor="middle" x="1243" y="-382" font-family="Helvetica,sans-Serif" font-size="10.00" fill="#000000">TPCBase/DigitPos.h</text>
</a>
</g>
</g>
<!-- Node29&#45;&gt;Node37 -->
<g id="edge53" class="edge">
<title>Node29&#45;&gt;Node37</title>
<path fill="none" stroke="#191970" d="M1036.0124,-436.4581C1078.8371,-425.7082 1148.5208,-408.2162 1195.0499,-396.5365"/>
<polygon fill="#191970" stroke="#191970" points="1196.0515,-399.8937 1204.8984,-394.0643 1194.3471,-393.1043 1196.0515,-399.8937"/>
</g>
<!-- Node39 -->
<g id="node40" class="node">
<title>Node39</title>
<g id="a_node40"><a xlink:href="../../d1/d1f/FECInfo_8h.html" target="_top" xlink:title="TPCBase/FECInfo.h">
<polygon fill="none" stroke="#000000" points="643,-179.5 643,-198.5 751,-198.5 751,-179.5 643,-179.5"/>
<text text-anchor="middle" x="697" y="-186.5" font-family="Helvetica,sans-Serif" font-size="10.00" fill="#000000">TPCBase/FECInfo.h</text>
</a>
</g>
</g>
<!-- Node29&#45;&gt;Node39 -->
<g id="edge61" class="edge">
<title>Node29&#45;&gt;Node39</title>
<path fill="none" stroke="#191970" d="M944.3716,-443.1878C878.232,-438.5899 771.0893,-427.0911 743,-400 689.6051,-348.5027 691.2684,-250.5666 694.778,-208.7379"/>
<polygon fill="#191970" stroke="#191970" points="698.2672,-209.0179 695.7489,-198.7267 691.2999,-208.3421 698.2672,-209.0179"/>
</g>
<!-- Node40 -->
<g id="node41" class="node">
<title>Node40</title>
<g id="a_node41"><a xlink:href="../../da/d9d/PadRegionInfo_8h.html" target="_top" xlink:title="TPCBase/PadRegionInfo.h">
<polygon fill="none" stroke="#000000" points="850,-308 850,-327 990,-327 990,-308 850,-308"/>
<text text-anchor="middle" x="920" y="-315" font-family="Helvetica,sans-Serif" font-size="10.00" fill="#000000">TPCBase/PadRegionInfo.h</text>
</a>
</g>
</g>
<!-- Node29&#45;&gt;Node40 -->
<g id="edge63" class="edge">
<title>Node29&#45;&gt;Node40</title>
<path fill="none" stroke="#191970" d="M1006.4779,-436.4028C1018.8076,-421.2209 1038.7882,-391.1201 1025,-369 1013.3703,-350.3426 992.7935,-338.2547 972.919,-330.5168"/>
<polygon fill="#191970" stroke="#191970" points="973.8557,-327.1346 963.2611,-327.0578 971.4954,-333.7247 973.8557,-327.1346"/>
</g>
<!-- Node41 -->
<g id="node42" class="node">
<title>Node41</title>
<g id="a_node42"><a xlink:href="../../d6/d42/PartitionInfo_8h.html" target="_top" xlink:title="TPCBase/PartitionInfo.h">
<polygon fill="none" stroke="#000000" points="885.5,-375 885.5,-394 1016.5,-394 1016.5,-375 885.5,-375"/>
<text text-anchor="middle" x="951" y="-382" font-family="Helvetica,sans-Serif" font-size="10.00" fill="#000000">TPCBase/PartitionInfo.h</text>
</a>
</g>
</g>
<!-- Node29&#45;&gt;Node41 -->
<g id="edge67" class="edge">
<title>Node29&#45;&gt;Node41</title>
<path fill="none" stroke="#191970" d="M990.6563,-436.3906C983.7298,-427.3273 973.174,-413.5149 964.694,-402.4188"/>
<polygon fill="#191970" stroke="#191970" points="967.3003,-400.065 958.4473,-394.2449 961.7385,-404.3155 967.3003,-400.065"/>
</g>
<!-- Node32&#45;&gt;Node31 -->
<g id="edge46" class="edge">
<title>Node32&#45;&gt;Node31</title>
<path fill="none" stroke="#191970" d="M1171.8216,-307.9005C1158.0616,-297.0544 1135.4535,-279.2339 1119.0738,-266.3229"/>
<polygon fill="#191970" stroke="#191970" points="1121.1761,-263.5234 1111.1558,-260.0817 1116.8427,-269.0209 1121.1761,-263.5234"/>
</g>
<!-- Node32&#45;&gt;Node33 -->
<g id="edge43" class="edge">
<title>Node32&#45;&gt;Node33</title>
<path fill="none" stroke="#191970" d="M1185.6536,-307.8416C1189.237,-286.9114 1197.7814,-237.004 1202.5799,-208.9762"/>
<polygon fill="#191970" stroke="#191970" points="1206.0895,-209.2177 1204.3272,-198.7705 1199.1898,-208.0364 1206.0895,-209.2177"/>
</g>
<!-- Node33&#45;&gt;Node3 -->
<g id="edge45" class="edge">
<title>Node33&#45;&gt;Node3</title>
<path fill="none" stroke="#191970" d="M1233.1612,-179.3733C1259.2067,-170.1419 1298.7116,-156.1402 1327.4979,-145.9375"/>
<polygon fill="#191970" stroke="#191970" points="1328.937,-149.1408 1337.1933,-142.5011 1326.5985,-142.5429 1328.937,-149.1408"/>
</g>
<!-- Node34 -->
<g id="node35" class="node">
<title>Node34</title>
<g id="a_node35"><a xlink:href="../../d0/dda/DataFormats_2Detectors_2TPC_2include_2DataFormatsTPC_2Constants_8h.html" target="_top" xlink:title="DataFormatsTPC/Constants.h">
<polygon fill="none" stroke="#000000" points="1120.5,-123.5 1120.5,-142.5 1279.5,-142.5 1279.5,-123.5 1120.5,-123.5"/>
<text text-anchor="middle" x="1200" y="-130.5" font-family="Helvetica,sans-Serif" font-size="10.00" fill="#000000">DataFormatsTPC/Constants.h</text>
</a>
</g>
</g>
<!-- Node33&#45;&gt;Node34 -->
<g id="edge44" class="edge">
<title>Node33&#45;&gt;Node34</title>
<path fill="none" stroke="#191970" d="M1204.9549,-179.2455C1204.172,-171.9382 1203.0744,-161.6944 1202.1112,-152.7046"/>
<polygon fill="#191970" stroke="#191970" points="1205.5786,-152.2129 1201.0331,-142.6427 1198.6185,-152.9587 1205.5786,-152.2129"/>
</g>
<!-- Node35&#45;&gt;Node3 -->
<g id="edge48" class="edge">
<title>Node35&#45;&gt;Node3</title>
<path fill="none" stroke="#191970" d="M1436.6,-307.5985C1434.1806,-291.8544 1428.5381,-260.3062 1419,-235 1407.4142,-204.2609 1388.2331,-171.2389 1375.8587,-151.3512"/>
<polygon fill="#191970" stroke="#191970" points="1378.6973,-149.2914 1370.3939,-142.7108 1372.7812,-153.0332 1378.6973,-149.2914"/>
</g>
<!-- Node35&#45;&gt;Node31 -->
<g id="edge52" class="edge">
<title>Node35&#45;&gt;Node31</title>
<path fill="none" stroke="#191970" d="M1393.6319,-307.9461C1384.1877,-305.9498 1374.269,-303.8812 1365,-302 1294.6258,-287.7174 1213.5915,-272.1551 1159.637,-261.9185"/>
<polygon fill="#191970" stroke="#191970" points="1160.0294,-258.4306 1149.5526,-260.0074 1158.726,-265.3082 1160.0294,-258.4306"/>
</g>
<!-- Node36 -->
<g id="node37" class="node">
<title>Node36</title>
<g id="a_node37"><a xlink:href="../../dc/d14/ROC_8h.html" target="_top" xlink:title="TPCBase/ROC.h">
<polygon fill="none" stroke="#000000" points="1318,-241 1318,-260 1410,-260 1410,-241 1318,-241"/>
<text text-anchor="middle" x="1364" y="-248" font-family="Helvetica,sans-Serif" font-size="10.00" fill="#000000">TPCBase/ROC.h</text>
</a>
</g>
</g>
<!-- Node35&#45;&gt;Node36 -->
<g id="edge49" class="edge">
<title>Node35&#45;&gt;Node36</title>
<path fill="none" stroke="#191970" d="M1427.3976,-307.9005C1415.6381,-297.2535 1396.4557,-279.8856 1382.2664,-267.0385"/>
<polygon fill="#191970" stroke="#191970" points="1384.3449,-264.1989 1374.5827,-260.0817 1379.6466,-269.388 1384.3449,-264.1989"/>
</g>
<!-- Node36&#45;&gt;Node3 -->
<g id="edge50" class="edge">
<title>Node36&#45;&gt;Node3</title>
<path fill="none" stroke="#191970" d="M1364,-240.8845C1364,-221.6913 1364,-178.286 1364,-152.7663"/>
<polygon fill="#191970" stroke="#191970" points="1367.5001,-152.7483 1364,-142.7484 1360.5001,-152.7484 1367.5001,-152.7483"/>
</g>
<!-- Node36&#45;&gt;Node33 -->
<g id="edge51" class="edge">
<title>Node36&#45;&gt;Node33</title>
<path fill="none" stroke="#191970" d="M1339.3125,-240.8906C1312.6443,-230.5103 1269.9718,-213.9004 1240.1089,-202.2766"/>
<polygon fill="#191970" stroke="#191970" points="1241.1027,-198.9076 1230.5141,-198.5419 1238.5635,-205.4309 1241.1027,-198.9076"/>
</g>
<!-- Node37&#45;&gt;Node3 -->
<g id="edge54" class="edge">
<title>Node37&#45;&gt;Node3</title>
<path fill="none" stroke="#191970" d="M1299.2822,-381.8024C1369.5743,-377.1178 1483.8149,-364.7184 1510,-333 1564.7193,-266.7177 1444.9159,-181.9778 1389.8152,-148.0394"/>
<polygon fill="#191970" stroke="#191970" points="1391.3156,-144.8564 1380.9482,-142.6728 1387.691,-150.845 1391.3156,-144.8564"/>
</g>
<!-- Node37&#45;&gt;Node31 -->
<g id="edge59" class="edge">
<title>Node37&#45;&gt;Node31</title>
<path fill="none" stroke="#191970" d="M1186.7791,-375.3249C1160.5529,-368.1537 1131.1839,-355.4473 1113,-333 1098.6874,-315.3317 1096.6428,-288.4296 1097.2151,-270.1889"/>
<polygon fill="#191970" stroke="#191970" points="1100.7145,-270.3035 1097.8234,-260.1108 1093.7272,-269.8817 1100.7145,-270.3035"/>
</g>
<!-- Node37&#45;&gt;Node32 -->
<g id="edge60" class="edge">
<title>Node37&#45;&gt;Node32</title>
<path fill="none" stroke="#191970" d="M1234.5467,-374.9005C1225.3462,-364.4525 1210.4465,-347.5325 1199.2022,-334.7635"/>
<polygon fill="#191970" stroke="#191970" points="1201.6731,-332.2735 1192.4376,-327.0817 1196.4197,-336.8997 1201.6731,-332.2735"/>
</g>
<!-- Node38 -->
<g id="node39" class="node">
<title>Node38</title>
<g id="a_node39"><a xlink:href="../../df/d26/CRU_8h.html" target="_top" xlink:title="TPCBase/CRU.h">
<polygon fill="none" stroke="#000000" points="1264,-308 1264,-327 1356,-327 1356,-308 1264,-308"/>
<text text-anchor="middle" x="1310" y="-315" font-family="Helvetica,sans-Serif" font-size="10.00" fill="#000000">TPCBase/CRU.h</text>
</a>
</g>
</g>
<!-- Node37&#45;&gt;Node38 -->
<g id="edge55" class="edge">
<title>Node37&#45;&gt;Node38</title>
<path fill="none" stroke="#191970" d="M1252.5995,-374.9005C1263.147,-364.353 1280.2904,-347.2096 1293.1002,-334.3998"/>
<polygon fill="#191970" stroke="#191970" points="1295.8221,-336.6276 1300.4183,-327.0817 1290.8724,-331.6779 1295.8221,-336.6276"/>
</g>
<!-- Node38&#45;&gt;Node3 -->
<g id="edge56" class="edge">
<title>Node38&#45;&gt;Node3</title>
<path fill="none" stroke="#191970" d="M1308.2764,-307.6574C1305.8881,-291.994 1302.5493,-260.5545 1309,-235 1317.0341,-203.1727 1337.1687,-170.4821 1350.7158,-150.9571"/>
<polygon fill="#191970" stroke="#191970" points="1353.628,-152.9015 1356.5824,-142.7269 1347.9279,-148.8384 1353.628,-152.9015"/>
</g>
<!-- Node38&#45;&gt;Node33 -->
<g id="edge57" class="edge">
<title>Node38&#45;&gt;Node33</title>
<path fill="none" stroke="#191970" d="M1302.1831,-307.8416C1284.7917,-286.3533 1242.6805,-234.3216 1220.3914,-206.7817"/>
<polygon fill="#191970" stroke="#191970" points="1222.9194,-204.3417 1213.9076,-198.7705 1217.4781,-208.7455 1222.9194,-204.3417"/>
</g>
<!-- Node38&#45;&gt;Node36 -->
<g id="edge58" class="edge">
<title>Node38&#45;&gt;Node36</title>
<path fill="none" stroke="#191970" d="M1317.7369,-307.9005C1326.0775,-297.552 1339.5354,-280.8542 1349.7912,-268.1295"/>
<polygon fill="#191970" stroke="#191970" points="1352.7273,-270.064 1356.2775,-260.0817 1347.2771,-265.6713 1352.7273,-270.064"/>
</g>
<!-- Node39&#45;&gt;Node16 -->
<g id="edge62" class="edge">
<title>Node39&#45;&gt;Node16</title>
<path fill="none" stroke="#191970" d="M697,-179.4248C697,-151.999 697,-72.732 697,-35.3964"/>
<polygon fill="#191970" stroke="#191970" points="700.5001,-35.2595 697,-25.2595 693.5001,-35.2596 700.5001,-35.2595"/>
</g>
<!-- Node40&#45;&gt;Node3 -->
<g id="edge65" class="edge">
<title>Node40&#45;&gt;Node3</title>
<path fill="none" stroke="#191970" d="M927.5918,-307.8291C941.2562,-290.9819 971.601,-256.0428 1004,-235 1060.8946,-198.0477 1081.0263,-198.5164 1146,-179 1195.4905,-164.1344 1252.6952,-152.2569 1296.0851,-144.2972"/>
<polygon fill="#191970" stroke="#191970" points="1296.7465,-147.7345 1305.9631,-142.5089 1295.4995,-140.8464 1296.7465,-147.7345"/>
</g>
<!-- Node40&#45;&gt;Node18 -->
<g id="edge64" class="edge">
<title>Node40&#45;&gt;Node18</title>
<path fill="none" stroke="#191970" d="M904.0964,-307.9005C885.633,-296.7559 854.9701,-278.2477 833.4668,-265.2682"/>
<polygon fill="#191970" stroke="#191970" points="835.2441,-262.2529 824.8741,-260.0817 831.6267,-268.2458 835.2441,-262.2529"/>
</g>
<!-- Node40&#45;&gt;Node31 -->
<g id="edge66" class="edge">
<title>Node40&#45;&gt;Node31</title>
<path fill="none" stroke="#191970" d="M945.6463,-307.9005C976.617,-296.3082 1028.8732,-276.7486 1063.6506,-263.7313"/>
<polygon fill="#191970" stroke="#191970" points="1065.2627,-266.8651 1073.4012,-260.0817 1062.8088,-260.3093 1065.2627,-266.8651"/>
</g>
<!-- Node42&#45;&gt;Node2 -->
<g id="edge72" class="edge">
<title>Node42&#45;&gt;Node2</title>
<path fill="none" stroke="#191970" d="M1634.3565,-443.2271C1485.06,-437.025 1119.674,-420.9188 814,-400 761.1009,-396.3798 699.6635,-390.8765 663.4073,-387.4942"/>
<polygon fill="#191970" stroke="#191970" points="663.2846,-383.9674 653.0011,-386.5171 662.6301,-390.9367 663.2846,-383.9674"/>
</g>
<!-- Node43 -->
<g id="node44" class="node">
<title>Node43</title>
<polygon fill="none" stroke="#bfbfbf" points="1718,-375 1718,-394 1762,-394 1762,-375 1718,-375"/>
<text text-anchor="middle" x="1740" y="-382" font-family="Helvetica,sans-Serif" font-size="10.00" fill="#000000">Vc/Vc</text>
</g>
<!-- Node42&#45;&gt;Node43 -->
<g id="edge71" class="edge">
<title>Node42&#45;&gt;Node43</title>
<path fill="none" stroke="#191970" d="M1708.7813,-436.3906C1714.126,-427.5068 1722.2159,-414.0601 1728.8211,-403.0811"/>
<polygon fill="#191970" stroke="#191970" points="1731.9811,-404.618 1734.1372,-394.2449 1725.9829,-401.0093 1731.9811,-404.618"/>
</g>
<!-- Node44 -->
<g id="node45" class="node">
<title>Node44</title>
<polygon fill="none" stroke="#bfbfbf" points="1780.5,-375 1780.5,-394 1823.5,-394 1823.5,-375 1780.5,-375"/>
<text text-anchor="middle" x="1802" y="-382" font-family="Helvetica,sans-Serif" font-size="10.00" fill="#000000">TF1.h</text>
</g>
<!-- Node42&#45;&gt;Node44 -->
<g id="edge73" class="edge">
<title>Node42&#45;&gt;Node44</title>
<path fill="none" stroke="#191970" d="M1718.4688,-436.3906C1734.4521,-426.4616 1759.6103,-410.833 1778.1433,-399.3201"/>
<polygon fill="#191970" stroke="#191970" points="1779.9924,-402.2918 1786.6399,-394.0419 1776.2985,-396.3457 1779.9924,-402.2918"/>
</g>
<!-- Node45 -->
<g id="node46" class="node">
<title>Node45</title>
<polygon fill="none" stroke="#bfbfbf" points="1842,-375 1842,-394 1914,-394 1914,-375 1842,-375"/>
<text text-anchor="middle" x="1878" y="-382" font-family="Helvetica,sans-Serif" font-size="10.00" fill="#000000">TRandom.h</text>
</g>
<!-- Node42&#45;&gt;Node45 -->
<g id="edge74" class="edge">
<title>Node42&#45;&gt;Node45</title>
<path fill="none" stroke="#191970" d="M1730.3438,-436.3906C1760.1382,-425.92 1807.9685,-409.1111 1841.0808,-397.4745"/>
<polygon fill="#191970" stroke="#191970" points="1842.5743,-400.6595 1850.8483,-394.0419 1840.2534,-394.0554 1842.5743,-400.6595"/>
</g>
<!-- Node46 -->
<g id="node47" class="node">
<title>Node46</title>
<polygon fill="none" stroke="#bfbfbf" points="1634.5,-375 1634.5,-394 1699.5,-394 1699.5,-375 1634.5,-375"/>
<text text-anchor="middle" x="1667" y="-382" font-family="Helvetica,sans-Serif" font-size="10.00" fill="#000000">functional</text>
</g>
<!-- Node42&#45;&gt;Node46 -->
<g id="edge75" class="edge">
<title>Node42&#45;&gt;Node46</title>
<path fill="none" stroke="#191970" d="M1697.375,-436.3906C1692.1747,-427.5068 1684.3034,-414.0601 1677.8767,-403.0811"/>
<polygon fill="#191970" stroke="#191970" points="1680.7767,-401.1069 1672.7043,-394.2449 1674.7356,-404.6432 1680.7767,-401.1069"/>
</g>
</g>
</svg>
