<?xml version="1.0" encoding="UTF-8" standalone="no"?>
<!DOCTYPE svg PUBLIC "-//W3C//DTD SVG 1.1//EN"
 "http://www.w3.org/Graphics/SVG/1.1/DTD/svg11.dtd">
<!-- Generated by graphviz version 2.40.1 (20161225.0304)
 -->
<!-- Title: /home/travis/build/AliceO2Group/AliceO2/Detectors/EMCAL/calib/test/testGainCalibration.cxx Pages: 1 -->
<!--zoomable 251 -->
<svg id="main" version="1.1" xmlns="http://www.w3.org/2000/svg" xmlns:xlink="http://www.w3.org/1999/xlink" xml:space="preserve" onload="init(evt)">
<style type="text/css"><![CDATA[
.edge:hover path { stroke: red; }
.edge:hover polygon { stroke: red; fill: red; }
]]></style>
<script type="text/javascript"><![CDATA[
var edges = document.getElementsByTagName('g');
if (edges && edges.length) {
  for (var i=0;i<edges.length;i++) {
    if (edges[i].id.substr(0,4)=='edge') {
      edges[i].setAttribute('class','edge');
    }
  }
}
]]></script>
        <defs>
                <circle id="rim" cx="0" cy="0" r="7"/>
                <circle id="rim2" cx="0" cy="0" r="3.5"/>
                <g id="zoomPlus">
                        <use xlink:href="#rim" fill="#404040">
                                <set attributeName="fill" to="#808080" begin="zoomplus.mouseover" end="zoomplus.mouseout"/>
                        </use>
                        <path d="M-4,0h8M0,-4v8" fill="none" stroke="white" stroke-width="1.5" pointer-events="none"/>
                </g>
                <g id="zoomMin">
                        <use xlink:href="#rim" fill="#404040">
                                <set attributeName="fill" to="#808080" begin="zoomminus.mouseover" end="zoomminus.mouseout"/>
                        </use>
                        <path d="M-4,0h8" fill="none" stroke="white" stroke-width="1.5" pointer-events="none"/>
                </g>
                <g id="dirArrow">
                        <path fill="none" stroke="white" stroke-width="1.5" d="M0,-3.0v7 M-2.5,-0.5L0,-3.0L2.5,-0.5"/>
                </g>
               <g id="resetDef">
                       <use xlink:href="#rim2" fill="#404040">
                               <set attributeName="fill" to="#808080" begin="reset.mouseover" end="reset.mouseout"/>
                       </use>
               </g>
        </defs>

<script type="text/javascript">
var viewWidth = 2217;
var viewHeight = 251;
var sectionId = 'dynsection-0';
</script>
<script xlink:href="../../svgpan.js"/>
<svg id="graph" class="graph">
<g id="viewport">
<title>/home/travis/build/AliceO2Group/AliceO2/Detectors/EMCAL/calib/test/testGainCalibration.cxx</title>
<!-- Node0 -->
<g id="node1" class="node">
<title>Node0</title>
<polygon fill="#bfbfbf" stroke="#000000" points="1666,-190.5 1666,-242.5 1822,-242.5 1822,-190.5 1666,-190.5"/>
<text text-anchor="start" x="1674" y="-230.5" font-family="Helvetica,sans-Serif" font-size="10.00" fill="#000000">/home/travis/build</text>
<text text-anchor="start" x="1674" y="-219.5" font-family="Helvetica,sans-Serif" font-size="10.00" fill="#000000">/AliceO2Group/AliceO2</text>
<text text-anchor="start" x="1674" y="-208.5" font-family="Helvetica,sans-Serif" font-size="10.00" fill="#000000">/Detectors/EMCAL/calib</text>
<text text-anchor="middle" x="1744" y="-197.5" font-family="Helvetica,sans-Serif" font-size="10.00" fill="#000000">/test/testGainCalibration.cxx</text>
</g>
<!-- Node1 -->
<g id="node2" class="node">
<title>Node1</title>
<polygon fill="none" stroke="#bfbfbf" points="1489,-134.5 1489,-153.5 1621,-153.5 1621,-134.5 1489,-134.5"/>
<text text-anchor="middle" x="1555" y="-141.5" font-family="Helvetica,sans-Serif" font-size="10.00" fill="#000000">boost/test/unit_test.hpp</text>
</g>
<!-- Node0&#45;&gt;Node1 -->
<g id="edge1" class="edge">
<title>Node0&#45;&gt;Node1</title>
<path fill="none" stroke="#191970" d="M1676.0337,-190.4283C1646.6413,-179.1534 1613.5223,-166.449 1589.3685,-157.1837"/>
<polygon fill="#191970" stroke="#191970" points="1590.5189,-153.8763 1579.9287,-153.5626 1588.0117,-160.412 1590.5189,-153.8763"/>
</g>
<!-- Node2 -->
<g id="node3" class="node">
<title>Node2</title>
<g id="a_node3"><a xlink:href="../../dd/dc8/GainCalibrationFactors_8h.html" target="_top" xlink:title="EMCALCalib/GainCalibration\lFactors.h">
<polygon fill="none" stroke="#000000" points="1361.5,-67.5 1361.5,-97.5 1514.5,-97.5 1514.5,-67.5 1361.5,-67.5"/>
<text text-anchor="start" x="1369.5" y="-85.5" font-family="Helvetica,sans-Serif" font-size="10.00" fill="#000000">EMCALCalib/GainCalibration</text>
<text text-anchor="middle" x="1438" y="-74.5" font-family="Helvetica,sans-Serif" font-size="10.00" fill="#000000">Factors.h</text>
</a>
</g>
</g>
<!-- Node0&#45;&gt;Node2 -->
<g id="edge2" class="edge">
<title>Node0&#45;&gt;Node2</title>
<path fill="none" stroke="#191970" d="M1714.4835,-190.4753C1692.5276,-172.3284 1661.1035,-148.8048 1630,-134 1596.9583,-118.2726 1558.3492,-106.7384 1524.4532,-98.622"/>
<polygon fill="#191970" stroke="#191970" points="1525.0964,-95.1782 1514.563,-96.3176 1523.5079,-101.9956 1525.0964,-95.1782"/>
</g>
<!-- Node6 -->
<g id="node7" class="node">
<title>Node6</title>
<g id="a_node7"><a xlink:href="../../dd/da8/EMCAL_2base_2include_2EMCALBase_2Geometry_8h.html" target="_top" xlink:title="EMCALBase/Geometry.h">
<polygon fill="none" stroke="#000000" points="1677.5,-134.5 1677.5,-153.5 1810.5,-153.5 1810.5,-134.5 1677.5,-134.5"/>
<text text-anchor="middle" x="1744" y="-141.5" font-family="Helvetica,sans-Serif" font-size="10.00" fill="#000000">EMCALBase/Geometry.h</text>
</a>
</g>
</g>
<!-- Node0&#45;&gt;Node6 -->
<g id="edge6" class="edge">
<title>Node0&#45;&gt;Node6</title>
<path fill="none" stroke="#191970" d="M1744,-190.3258C1744,-181.5142 1744,-171.8397 1744,-163.621"/>
<polygon fill="#191970" stroke="#191970" points="1747.5001,-163.534 1744,-153.534 1740.5001,-163.534 1747.5001,-163.534"/>
</g>
<!-- Node27 -->
<g id="node28" class="node">
<title>Node27</title>
<polygon fill="none" stroke="#bfbfbf" points="1829,-134.5 1829,-153.5 1889,-153.5 1889,-134.5 1829,-134.5"/>
<text text-anchor="middle" x="1859" y="-141.5" font-family="Helvetica,sans-Serif" font-size="10.00" fill="#000000">iostream</text>
</g>
<!-- Node0&#45;&gt;Node27 -->
<g id="edge34" class="edge">
<title>Node0&#45;&gt;Node27</title>
<path fill="none" stroke="#191970" d="M1785.5176,-190.3258C1802.1949,-179.8119 1820.8207,-168.0696 1835.1471,-159.0377"/>
<polygon fill="#191970" stroke="#191970" points="1837.2844,-161.8278 1843.8771,-153.534 1833.5513,-155.9063 1837.2844,-161.8278"/>
</g>
<!-- Node28 -->
<g id="node29" class="node">
<title>Node28</title>
<polygon fill="none" stroke="#bfbfbf" points="1907.5,-134.5 1907.5,-153.5 1962.5,-153.5 1962.5,-134.5 1907.5,-134.5"/>
<text text-anchor="middle" x="1935" y="-141.5" font-family="Helvetica,sans-Serif" font-size="10.00" fill="#000000">fstream</text>
</g>
<!-- Node0&#45;&gt;Node28 -->
<g id="edge35" class="edge">
<title>Node0&#45;&gt;Node28</title>
<path fill="none" stroke="#191970" d="M1812.6855,-190.4283C1842.3889,-179.1534 1875.8584,-166.449 1900.2678,-157.1837"/>
<polygon fill="#191970" stroke="#191970" points="1901.7005,-160.3836 1909.8075,-153.5626 1899.2163,-153.8392 1901.7005,-160.3836"/>
</g>
<!-- Node3 -->
<g id="node4" class="node">
<title>Node3</title>
<polygon fill="none" stroke="#bfbfbf" points="1558.5,-6 1558.5,-25 1607.5,-25 1607.5,-6 1558.5,-6"/>
<text text-anchor="middle" x="1583" y="-13" font-family="Helvetica,sans-Serif" font-size="10.00" fill="#000000">iosfwd</text>
</g>
<!-- Node2&#45;&gt;Node3 -->
<g id="edge3" class="edge">
<title>Node2&#45;&gt;Node3</title>
<path fill="none" stroke="#191970" d="M1470.5408,-67.4639C1495.1987,-56.0702 1528.8248,-40.5327 1552.8706,-29.4219"/>
<polygon fill="#191970" stroke="#191970" points="1554.6057,-32.4757 1562.2154,-25.1039 1551.6695,-26.1213 1554.6057,-32.4757"/>
</g>
<!-- Node4 -->
<g id="node5" class="node">
<title>Node4</title>
<polygon fill="none" stroke="#bfbfbf" points="1498,-6 1498,-25 1540,-25 1540,-6 1498,-6"/>
<text text-anchor="middle" x="1519" y="-13" font-family="Helvetica,sans-Serif" font-size="10.00" fill="#000000">array</text>
</g>
<!-- Node2&#45;&gt;Node4 -->
<g id="edge4" class="edge">
<title>Node2&#45;&gt;Node4</title>
<path fill="none" stroke="#191970" d="M1456.3802,-67.2967C1469.2454,-56.6551 1486.4063,-42.4602 1499.5096,-31.6217"/>
<polygon fill="#191970" stroke="#191970" points="1501.9737,-34.1257 1507.4485,-25.055 1497.5121,-28.7318 1501.9737,-34.1257"/>
</g>
<!-- Node5 -->
<g id="node6" class="node">
<title>Node5</title>
<polygon fill="none" stroke="#bfbfbf" points="1625.5,-6 1625.5,-25 1684.5,-25 1684.5,-6 1625.5,-6"/>
<text text-anchor="middle" x="1655" y="-13" font-family="Helvetica,sans-Serif" font-size="10.00" fill="#000000">Rtypes.h</text>
</g>
<!-- Node2&#45;&gt;Node5 -->
<g id="edge5" class="edge">
<title>Node2&#45;&gt;Node5</title>
<path fill="none" stroke="#191970" d="M1496.1312,-67.4705C1531.3919,-57.9358 1577.1283,-44.8229 1617,-31 1618.9186,-30.3349 1620.8809,-29.6257 1622.8536,-28.8906"/>
<polygon fill="#191970" stroke="#191970" points="1624.5954,-31.9686 1632.647,-25.0822 1622.0583,-25.4446 1624.5954,-31.9686"/>
</g>
<!-- Node7 -->
<g id="node8" class="node">
<title>Node7</title>
<polygon fill="none" stroke="#bfbfbf" points="1978.5,-6 1978.5,-25 2043.5,-25 2043.5,-6 1978.5,-6"/>
<text text-anchor="middle" x="2011" y="-13" font-family="Helvetica,sans-Serif" font-size="10.00" fill="#000000">exception</text>
</g>
<!-- Node6&#45;&gt;Node7 -->
<g id="edge7" class="edge">
<title>Node6&#45;&gt;Node7</title>
<path fill="none" stroke="#191970" d="M1810.7114,-135.0836C1813.8502,-134.7077 1816.9586,-134.3444 1820,-134 1862.032,-129.2401 2170.5382,-129.2934 2199,-98 2243.9384,-48.5908 2122.3679,-27.3121 2053.9669,-19.4549"/>
<polygon fill="#191970" stroke="#191970" points="2054.2049,-15.9601 2043.8829,-18.3489 2053.4417,-22.9183 2054.2049,-15.9601"/>
</g>
<!-- Node8 -->
<g id="node9" class="node">
<title>Node8</title>
<polygon fill="none" stroke="#bfbfbf" points="0,-6 0,-25 44,-25 44,-6 0,-6"/>
<text text-anchor="middle" x="22" y="-13" font-family="Helvetica,sans-Serif" font-size="10.00" fill="#000000">string</text>
</g>
<!-- Node6&#45;&gt;Node8 -->
<g id="edge8" class="edge">
<title>Node6&#45;&gt;Node8</title>
<path fill="none" stroke="#191970" d="M1677.4362,-137.524C1661.8824,-136.1876 1645.3704,-134.9115 1630,-134 1114.2139,-103.4125 982.337,-147.2783 468,-98 282.0189,-80.1813 230.821,-88.3251 53,-31 51.3857,-30.4796 49.7511,-29.8859 48.1202,-29.2413"/>
<polygon fill="#191970" stroke="#191970" points="49.5443,-26.0442 38.9873,-25.1497 46.6823,-32.4324 49.5443,-26.0442"/>
</g>
<!-- Node9 -->
<g id="node10" class="node">
<title>Node9</title>
<polygon fill="none" stroke="#bfbfbf" points="1723.5,-73 1723.5,-92 1764.5,-92 1764.5,-73 1723.5,-73"/>
<text text-anchor="middle" x="1744" y="-80" font-family="Helvetica,sans-Serif" font-size="10.00" fill="#000000">tuple</text>
</g>
<!-- Node6&#45;&gt;Node9 -->
<g id="edge9" class="edge">
<title>Node6&#45;&gt;Node9</title>
<path fill="none" stroke="#191970" d="M1744,-134.3906C1744,-125.8657 1744,-113.1392 1744,-102.4235"/>
<polygon fill="#191970" stroke="#191970" points="1747.5001,-102.2448 1744,-92.2449 1740.5001,-102.2449 1747.5001,-102.2448"/>
</g>
<!-- Node10 -->
<g id="node11" class="node">
<title>Node10</title>
<polygon fill="none" stroke="#bfbfbf" points="1782.5,-73 1782.5,-92 1829.5,-92 1829.5,-73 1782.5,-73"/>
<text text-anchor="middle" x="1806" y="-80" font-family="Helvetica,sans-Serif" font-size="10.00" fill="#000000">vector</text>
</g>
<!-- Node6&#45;&gt;Node10 -->
<g id="edge10" class="edge">
<title>Node6&#45;&gt;Node10</title>
<path fill="none" stroke="#191970" d="M1753.6875,-134.3906C1763.0959,-125.0581 1777.5807,-110.6902 1788.9249,-99.4374"/>
<polygon fill="#191970" stroke="#191970" points="1791.5411,-101.7722 1796.1759,-92.2449 1786.6114,-96.8024 1791.5411,-101.7722"/>
</g>
<!-- Node11 -->
<g id="node12" class="node">
<title>Node11</title>
<polygon fill="none" stroke="#bfbfbf" points="1848,-73 1848,-92 1932,-92 1932,-73 1848,-73"/>
<text text-anchor="middle" x="1890" y="-80" font-family="Helvetica,sans-Serif" font-size="10.00" fill="#000000">RStringView.h</text>
</g>
<!-- Node6&#45;&gt;Node11 -->
<g id="edge11" class="edge">
<title>Node6&#45;&gt;Node11</title>
<path fill="none" stroke="#191970" d="M1766.8125,-134.3906C1791.3481,-124.0554 1830.5442,-107.5447 1858.1211,-95.9284"/>
<polygon fill="#191970" stroke="#191970" points="1859.4906,-99.1495 1867.3477,-92.0419 1856.7732,-92.6984 1859.4906,-99.1495"/>
</g>
<!-- Node12 -->
<g id="node13" class="node">
<title>Node12</title>
<polygon fill="none" stroke="#bfbfbf" points="62,-6 62,-25 144,-25 144,-6 62,-6"/>
<text text-anchor="middle" x="103" y="-13" font-family="Helvetica,sans-Serif" font-size="10.00" fill="#000000">TGeoMatrix.h</text>
</g>
<!-- Node6&#45;&gt;Node12 -->
<g id="edge12" class="edge">
<title>Node6&#45;&gt;Node12</title>
<path fill="none" stroke="#191970" d="M1677.421,-137.7594C1661.8679,-136.4126 1645.36,-135.0729 1630,-134 1322.7771,-112.5408 1245.0227,-122.1556 938,-98 807.0137,-87.6944 774.8696,-78.6943 644,-67 426.0604,-47.5253 367.9976,-71.6569 153,-31 148.5602,-30.1604 143.959,-29.0623 139.4265,-27.8378"/>
<polygon fill="#191970" stroke="#191970" points="140.2832,-24.4419 129.7034,-25.0063 138.326,-31.1627 140.2832,-24.4419"/>
</g>
<!-- Node13 -->
<g id="node14" class="node">
<title>Node13</title>
<polygon fill="none" stroke="#bfbfbf" points="1950.5,-73 1950.5,-92 2017.5,-92 2017.5,-73 1950.5,-73"/>
<text text-anchor="middle" x="1984" y="-80" font-family="Helvetica,sans-Serif" font-size="10.00" fill="#000000">TNamed.h</text>
</g>
<!-- Node6&#45;&gt;Node13 -->
<g id="edge13" class="edge">
<title>Node6&#45;&gt;Node13</title>
<path fill="none" stroke="#191970" d="M1791.7746,-134.4753C1831.9238,-126.083 1890.6513,-112.8976 1941,-98 1943.7822,-97.1768 1946.6468,-96.2726 1949.5135,-95.3272"/>
<polygon fill="#191970" stroke="#191970" points="1950.8332,-98.5746 1959.1515,-92.0129 1948.5568,-91.9551 1950.8332,-98.5746"/>
</g>
<!-- Node14 -->
<g id="node15" class="node">
<title>Node14</title>
<polygon fill="none" stroke="#bfbfbf" points="2036,-73 2036,-92 2104,-92 2104,-73 2036,-73"/>
<text text-anchor="middle" x="2070" y="-80" font-family="Helvetica,sans-Serif" font-size="10.00" fill="#000000">TParticle.h</text>
</g>
<!-- Node6&#45;&gt;Node14 -->
<g id="edge14" class="edge">
<title>Node6&#45;&gt;Node14</title>
<path fill="none" stroke="#191970" d="M1810.786,-134.5998C1881.1742,-124.4328 1987.2471,-108.3011 2027,-98 2029.9767,-97.2287 2033.0374,-96.3357 2036.0886,-95.3756"/>
<polygon fill="#191970" stroke="#191970" points="2037.3248,-98.6525 2045.6871,-92.147 2035.0931,-92.0178 2037.3248,-98.6525"/>
</g>
<!-- Node15 -->
<g id="node16" class="node">
<title>Node15</title>
<polygon fill="none" stroke="#bfbfbf" points="2122,-73 2122,-92 2190,-92 2190,-73 2122,-73"/>
<text text-anchor="middle" x="2156" y="-80" font-family="Helvetica,sans-Serif" font-size="10.00" fill="#000000">TVector3.h</text>
</g>
<!-- Node6&#45;&gt;Node15 -->
<g id="edge15" class="edge">
<title>Node6&#45;&gt;Node15</title>
<path fill="none" stroke="#191970" d="M1810.7239,-135.1877C1813.8593,-134.7839 1816.9636,-134.3863 1820,-134 1950.1524,-117.4419 1985.3776,-128.4359 2113,-98 2116.1648,-97.2452 2119.4188,-96.3347 2122.6523,-95.3376"/>
<polygon fill="#191970" stroke="#191970" points="2123.8047,-98.6428 2132.1814,-92.1558 2121.5877,-92.0031 2123.8047,-98.6428"/>
</g>
<!-- Node16 -->
<g id="node17" class="node">
<title>Node16</title>
<g id="a_node17"><a xlink:href="../../dd/dda/DataFormats_2Detectors_2EMCAL_2include_2DataFormatsEMCAL_2Constants_8h.html" target="_top" xlink:title="DataFormatsEMCAL/Constants.h">
<polygon fill="none" stroke="#000000" points="1532.5,-73 1532.5,-92 1705.5,-92 1705.5,-73 1532.5,-73"/>
<text text-anchor="middle" x="1619" y="-80" font-family="Helvetica,sans-Serif" font-size="10.00" fill="#000000">DataFormatsEMCAL/Constants.h</text>
</a>
</g>
</g>
<!-- Node6&#45;&gt;Node16 -->
<g id="edge16" class="edge">
<title>Node6&#45;&gt;Node16</title>
<path fill="none" stroke="#191970" d="M1724.4688,-134.3906C1703.8292,-124.2359 1671.0724,-108.1196 1647.5398,-96.5416"/>
<polygon fill="#191970" stroke="#191970" points="1648.912,-93.3161 1638.3941,-92.0419 1645.8218,-99.5971 1648.912,-93.3161"/>
</g>
<!-- Node18 -->
<g id="node19" class="node">
<title>Node18</title>
<g id="a_node19"><a xlink:href="../../d5/d5e/GeometryBase_8h.html" target="_top" xlink:title="EMCALBase/GeometryBase.h">
<polygon fill="none" stroke="#000000" points="477,-73 477,-92 635,-92 635,-73 477,-73"/>
<text text-anchor="middle" x="556" y="-80" font-family="Helvetica,sans-Serif" font-size="10.00" fill="#000000">EMCALBase/GeometryBase.h</text>
</a>
</g>
</g>
<!-- Node6&#45;&gt;Node18 -->
<g id="edge21" class="edge">
<title>Node6&#45;&gt;Node18</title>
<path fill="none" stroke="#191970" d="M1677.4267,-137.6747C1661.8734,-136.3317 1645.364,-135.0148 1630,-134 1270.4281,-110.2499 1179.8771,-116.5609 820,-98 761.7545,-94.9959 696.3089,-91.1566 645.1506,-88.0507"/>
<polygon fill="#191970" stroke="#191970" points="645.3101,-84.554 635.1159,-87.4398 644.8846,-91.5411 645.3101,-84.554"/>
</g>
<!-- Node19 -->
<g id="node20" class="node">
<title>Node19</title>
<g id="a_node20"><a xlink:href="../../dc/d73/Cartesian_8h.html" target="_top" xlink:title="MathUtils/Cartesian.h">
<polygon fill="none" stroke="#000000" points="947,-73 947,-92 1069,-92 1069,-73 947,-73"/>
<text text-anchor="middle" x="1008" y="-80" font-family="Helvetica,sans-Serif" font-size="10.00" fill="#000000">MathUtils/Cartesian.h</text>
</a>
</g>
</g>
<!-- Node6&#45;&gt;Node19 -->
<g id="edge23" class="edge">
<title>Node6&#45;&gt;Node19</title>
<path fill="none" stroke="#191970" d="M1677.3944,-138.1023C1661.8425,-136.7405 1645.3418,-135.308 1630,-134 1430.6162,-117.001 1195.2075,-97.7269 1079.5106,-88.3067"/>
<polygon fill="#191970" stroke="#191970" points="1079.6174,-84.8039 1069.3664,-87.481 1079.0495,-91.7808 1079.6174,-84.8039"/>
</g>
<!-- Node16&#45;&gt;Node3 -->
<g id="edge18" class="edge">
<title>Node16&#45;&gt;Node3</title>
<path fill="none" stroke="#191970" d="M1613.8421,-72.9005C1608.4421,-62.8505 1599.8245,-46.8122 1593.0694,-34.2403"/>
<polygon fill="#191970" stroke="#191970" points="1595.9647,-32.234 1588.1484,-25.0817 1589.7984,-35.5472 1595.9647,-32.234"/>
</g>
<!-- Node16&#45;&gt;Node5 -->
<g id="edge17" class="edge">
<title>Node16&#45;&gt;Node5</title>
<path fill="none" stroke="#191970" d="M1624.1579,-72.9005C1629.5579,-62.8505 1638.1755,-46.8122 1644.9306,-34.2403"/>
<polygon fill="#191970" stroke="#191970" points="1648.2016,-35.5472 1649.8516,-25.0817 1642.0353,-32.234 1648.2016,-35.5472"/>
</g>
<!-- Node16&#45;&gt;Node7 -->
<g id="edge19" class="edge">
<title>Node16&#45;&gt;Node7</title>
<path fill="none" stroke="#191970" d="M1674.7477,-72.9717C1753.9244,-59.4389 1897.2242,-34.9464 1968.4443,-22.7735"/>
<polygon fill="#191970" stroke="#191970" points="1969.1456,-26.2045 1978.413,-21.0697 1967.9662,-19.3046 1969.1456,-26.2045"/>
</g>
<!-- Node17 -->
<g id="node18" class="node">
<title>Node17</title>
<polygon fill="none" stroke="#bfbfbf" points="1703,-6 1703,-25 1753,-25 1753,-6 1703,-6"/>
<text text-anchor="middle" x="1728" y="-13" font-family="Helvetica,sans-Serif" font-size="10.00" fill="#000000">cstdint</text>
</g>
<!-- Node16&#45;&gt;Node17 -->
<g id="edge20" class="edge">
<title>Node16&#45;&gt;Node17</title>
<path fill="none" stroke="#191970" d="M1634.617,-72.9005C1652.6669,-61.8057 1682.5896,-43.4128 1703.6908,-30.4424"/>
<polygon fill="#191970" stroke="#191970" points="1705.7255,-33.3001 1712.4119,-25.0817 1702.0598,-27.3366 1705.7255,-33.3001"/>
</g>
<!-- Node18&#45;&gt;Node8 -->
<g id="edge22" class="edge">
<title>Node18&#45;&gt;Node8</title>
<path fill="none" stroke="#191970" d="M476.9263,-77.8877C355.8596,-70.2375 130.4461,-53.5082 53,-31 51.2918,-30.5036 49.5648,-29.9151 47.846,-29.2624"/>
<polygon fill="#191970" stroke="#191970" points="48.8413,-25.8749 38.2812,-25.017 46.0014,-32.273 48.8413,-25.8749"/>
</g>
<!-- Node19&#45;&gt;Node3 -->
<g id="edge33" class="edge">
<title>Node19&#45;&gt;Node3</title>
<path fill="none" stroke="#191970" d="M1069.4366,-79.2228C1191.3807,-72.2966 1459.9057,-54.8271 1549,-31 1551.1895,-30.4144 1553.4147,-29.7 1555.625,-28.9028"/>
<polygon fill="#191970" stroke="#191970" points="1557.1464,-32.0616 1565.0632,-25.0207 1554.4836,-25.5878 1557.1464,-32.0616"/>
</g>
<!-- Node19&#45;&gt;Node5 -->
<g id="edge31" class="edge">
<title>Node19&#45;&gt;Node5</title>
<path fill="none" stroke="#191970" d="M1069.1104,-79.6831C1202.1176,-73.1701 1514.1528,-55.7142 1617,-31 1619.7927,-30.3289 1622.6482,-29.4848 1625.4774,-28.5388"/>
<polygon fill="#191970" stroke="#191970" points="1626.7218,-31.8103 1634.8659,-25.0335 1624.2733,-25.2525 1626.7218,-31.8103"/>
</g>
<!-- Node19&#45;&gt;Node12 -->
<g id="edge32" class="edge">
<title>Node19&#45;&gt;Node12</title>
<path fill="none" stroke="#191970" d="M946.8934,-75.932C917.0908,-72.8943 880.7015,-69.4297 848,-67 539.5472,-44.0822 457.5152,-85.2112 153,-31 148.4997,-30.1988 143.8378,-29.1142 139.2513,-27.8883"/>
<polygon fill="#191970" stroke="#191970" points="140.003,-24.4621 129.4236,-25.0345 138.0509,-31.1844 140.003,-24.4621"/>
</g>
<!-- Node20 -->
<g id="node21" class="node">
<title>Node20</title>
<polygon fill="none" stroke="#bfbfbf" points="1316,-.5 1316,-30.5 1480,-30.5 1480,-.5 1316,-.5"/>
<text text-anchor="start" x="1324" y="-18.5" font-family="Helvetica,sans-Serif" font-size="10.00" fill="#000000">Math/GenVector/Displacement</text>
<text text-anchor="middle" x="1398" y="-7.5" font-family="Helvetica,sans-Serif" font-size="10.00" fill="#000000">Vector3D.h</text>
</g>
<!-- Node19&#45;&gt;Node20 -->
<g id="edge24" class="edge">
<title>Node19&#45;&gt;Node20</title>
<path fill="none" stroke="#191970" d="M1063.4633,-72.9717C1126.5586,-62.1322 1230.5833,-44.2613 1305.9024,-31.3219"/>
<polygon fill="#191970" stroke="#191970" points="1306.6045,-34.7526 1315.8675,-29.6099 1305.4193,-27.8537 1306.6045,-34.7526"/>
</g>
<!-- Node21 -->
<g id="node22" class="node">
<title>Node21</title>
<polygon fill="none" stroke="#bfbfbf" points="162.5,-6 162.5,-25 351.5,-25 351.5,-6 162.5,-6"/>
<text text-anchor="middle" x="257" y="-13" font-family="Helvetica,sans-Serif" font-size="10.00" fill="#000000">Math/GenVector/PositionVector3D.h</text>
</g>
<!-- Node19&#45;&gt;Node21 -->
<g id="edge25" class="edge">
<title>Node19&#45;&gt;Node21</title>
<path fill="none" stroke="#191970" d="M946.8681,-76.2483C917.0596,-73.284 880.6728,-69.7898 848,-67 631.7519,-48.5352 576.7025,-55.0131 361,-31 349.6338,-29.7347 337.6023,-28.1604 325.9118,-26.5041"/>
<polygon fill="#191970" stroke="#191970" points="326.1498,-23.0021 315.7515,-25.0332 325.1468,-29.9299 326.1498,-23.0021"/>
</g>
<!-- Node22 -->
<g id="node23" class="node">
<title>Node22</title>
<polygon fill="none" stroke="#bfbfbf" points="370,-6 370,-25 530,-25 530,-6 370,-6"/>
<text text-anchor="middle" x="450" y="-13" font-family="Helvetica,sans-Serif" font-size="10.00" fill="#000000">Math/GenVector/Rotation3D.h</text>
</g>
<!-- Node19&#45;&gt;Node22 -->
<g id="edge26" class="edge">
<title>Node19&#45;&gt;Node22</title>
<path fill="none" stroke="#191970" d="M946.7743,-76.2629C838.2363,-65.1247 616.249,-41.9569 539,-31 530.1051,-29.7384 520.7348,-28.2653 511.5473,-26.7386"/>
<polygon fill="#191970" stroke="#191970" points="512.1246,-23.2866 501.6807,-25.0683 510.9562,-30.1884 512.1246,-23.2866"/>
</g>
<!-- Node23 -->
<g id="node24" class="node">
<title>Node23</title>
<polygon fill="none" stroke="#bfbfbf" points="548,-6 548,-25 716,-25 716,-6 548,-6"/>
<text text-anchor="middle" x="632" y="-13" font-family="Helvetica,sans-Serif" font-size="10.00" fill="#000000">Math/GenVector/Transform3D.h</text>
</g>
<!-- Node19&#45;&gt;Node23 -->
<g id="edge27" class="edge">
<title>Node19&#45;&gt;Node23</title>
<path fill="none" stroke="#191970" d="M954.5277,-72.9717C886.2696,-60.8087 768.3261,-39.7921 695.5511,-26.8243"/>
<polygon fill="#191970" stroke="#191970" points="696.0509,-23.3583 685.5919,-25.0496 694.8228,-30.2497 696.0509,-23.3583"/>
</g>
<!-- Node24 -->
<g id="node25" class="node">
<title>Node24</title>
<polygon fill="none" stroke="#bfbfbf" points="734.5,-6 734.5,-25 907.5,-25 907.5,-6 734.5,-6"/>
<text text-anchor="middle" x="821" y="-13" font-family="Helvetica,sans-Serif" font-size="10.00" fill="#000000">Math/GenVector/Translation3D.h</text>
</g>
<!-- Node19&#45;&gt;Node24 -->
<g id="edge28" class="edge">
<title>Node19&#45;&gt;Node24</title>
<path fill="none" stroke="#191970" d="M981.2075,-72.9005C948.7137,-61.2584 893.7919,-41.5805 857.4625,-28.5641"/>
<polygon fill="#191970" stroke="#191970" points="858.3374,-25.1598 847.7428,-25.0817 855.9763,-31.7496 858.3374,-25.1598"/>
</g>
<!-- Node25 -->
<g id="node26" class="node">
<title>Node25</title>
<polygon fill="none" stroke="#bfbfbf" points="926,-.5 926,-30.5 1090,-30.5 1090,-.5 926,-.5"/>
<text text-anchor="start" x="934" y="-18.5" font-family="Helvetica,sans-Serif" font-size="10.00" fill="#000000">Math/GenVector/Displacement</text>
<text text-anchor="middle" x="1008" y="-7.5" font-family="Helvetica,sans-Serif" font-size="10.00" fill="#000000">Vector2D.h</text>
</g>
<!-- Node19&#45;&gt;Node25 -->
<g id="edge29" class="edge">
<title>Node19&#45;&gt;Node25</title>
<path fill="none" stroke="#191970" d="M1008,-72.9005C1008,-64.5099 1008,-51.9451 1008,-40.7085"/>
<polygon fill="#191970" stroke="#191970" points="1011.5001,-40.5217 1008,-30.5218 1004.5001,-40.5218 1011.5001,-40.5217"/>
</g>
<!-- Node26 -->
<g id="node27" class="node">
<title>Node26</title>
<polygon fill="none" stroke="#bfbfbf" points="1108.5,-6 1108.5,-25 1297.5,-25 1297.5,-6 1108.5,-6"/>
<text text-anchor="middle" x="1203" y="-13" font-family="Helvetica,sans-Serif" font-size="10.00" fill="#000000">Math/GenVector/PositionVector2D.h</text>
</g>
<!-- Node19&#45;&gt;Node26 -->
<g id="edge30" class="edge">
<title>Node19&#45;&gt;Node26</title>
<path fill="none" stroke="#191970" d="M1035.9387,-72.9005C1069.9674,-61.2086 1127.5839,-41.4122 1165.4622,-28.3976"/>
<polygon fill="#191970" stroke="#191970" points="1166.7931,-31.6412 1175.1131,-25.0817 1164.5184,-25.0211 1166.7931,-31.6412"/>
</g>
</g>
</svg>
        <g id="navigator" transform="translate(0 0)" fill="#404254">
                <rect fill="#f2f5e9" fill-opacity="0.5" stroke="#606060" stroke-width=".5" x="0" y="0" width="60" height="60"/>
                <use id="zoomplus" xlink:href="#zoomPlus" x="17" y="9" onmousedown="handleZoom(evt,'in')"/>
                <use id="zoomminus" xlink:href="#zoomMin" x="42" y="9" onmousedown="handleZoom(evt,'out')"/>
                <use id="reset" xlink:href="#resetDef" x="30" y="36" onmousedown="handleReset()"/>
                <g id="arrowUp" xlink:href="#dirArrow" transform="translate(30 24)" onmousedown="handlePan(0,-1)">
                  <use xlink:href="#rim" fill="#404040">
                        <set attributeName="fill" to="#808080" begin="arrowUp.mouseover" end="arrowUp.mouseout"/>
                  </use>
                  <path fill="none" stroke="white" stroke-width="1.5" d="M0,-3.0v7 M-2.5,-0.5L0,-3.0L2.5,-0.5"/>
                </g>
                <g id="arrowRight" xlink:href="#dirArrow" transform="rotate(90) translate(36 -43)" onmousedown="handlePan(1,0)">
                  <use xlink:href="#rim" fill="#404040">
                        <set attributeName="fill" to="#808080" begin="arrowRight.mouseover" end="arrowRight.mouseout"/>
                  </use>
                  <path fill="none" stroke="white" stroke-width="1.5" d="M0,-3.0v7 M-2.5,-0.5L0,-3.0L2.5,-0.5"/>
                </g>
                <g id="arrowDown" xlink:href="#dirArrow" transform="rotate(180) translate(-30 -48)" onmousedown="handlePan(0,1)">
                  <use xlink:href="#rim" fill="#404040">
                        <set attributeName="fill" to="#808080" begin="arrowDown.mouseover" end="arrowDown.mouseout"/>
                  </use>
                  <path fill="none" stroke="white" stroke-width="1.5" d="M0,-3.0v7 M-2.5,-0.5L0,-3.0L2.5,-0.5"/>
                </g>
                <g id="arrowLeft" xlink:href="#dirArrow" transform="rotate(270) translate(-36 17)" onmousedown="handlePan(-1,0)">
                  <use xlink:href="#rim" fill="#404040">
                        <set attributeName="fill" to="#808080" begin="arrowLeft.mouseover" end="arrowLeft.mouseout"/>
                  </use>
                  <path fill="none" stroke="white" stroke-width="1.5" d="M0,-3.0v7 M-2.5,-0.5L0,-3.0L2.5,-0.5"/>
                </g>
        </g>
        <svg viewBox="0 0 15 15" width="100%" height="30px" preserveAspectRatio="xMaxYMin meet">
         <g id="arrow_out" transform="scale(0.3 0.3)">
          <a xlink:href="testGainCalibration_8cxx__incl_org.svg" target="_base">
           <rect id="button" ry="5" rx="5" y="6" x="6" height="38" width="38"
                fill="#f2f5e9" fill-opacity="0.5" stroke="#606060" stroke-width="1.0"/>
           <path id="arrow"
             d="M 11.500037,31.436501 C 11.940474,20.09759 22.043105,11.32322 32.158766,21.979434 L 37.068811,17.246167 C 37.068811,17.246167 37.088388,32 37.088388,32 L 22.160133,31.978069 C 22.160133,31.978069 26.997745,27.140456 26.997745,27.140456 C 18.528582,18.264221 13.291696,25.230495 11.500037,31.436501 z"
             style="fill:#404040;"/>
          </a>
         </g>
        </svg>
</svg>
