<?xml version="1.0" encoding="UTF-8" standalone="no"?>
<!DOCTYPE svg PUBLIC "-//W3C//DTD SVG 1.1//EN"
 "http://www.w3.org/Graphics/SVG/1.1/DTD/svg11.dtd">
<!-- Generated by graphviz version 2.40.1 (20161225.0304)
 -->
<!-- Title: /home/travis/build/AliceO2Group/AliceO2/Detectors/TPC/base/include/TPCBase/DigitPos.h Pages: 1 -->
<!--zoomable 408 -->
<svg id="main" version="1.1" xmlns="http://www.w3.org/2000/svg" xmlns:xlink="http://www.w3.org/1999/xlink" xml:space="preserve" onload="init(evt)">
<style type="text/css"><![CDATA[
.edge:hover path { stroke: red; }
.edge:hover polygon { stroke: red; fill: red; }
]]></style>
<script type="text/javascript"><![CDATA[
var edges = document.getElementsByTagName('g');
if (edges && edges.length) {
  for (var i=0;i<edges.length;i++) {
    if (edges[i].id.substr(0,4)=='edge') {
      edges[i].setAttribute('class','edge');
    }
  }
}
]]></script>
        <defs>
                <circle id="rim" cx="0" cy="0" r="7"/>
                <circle id="rim2" cx="0" cy="0" r="3.5"/>
                <g id="zoomPlus">
                        <use xlink:href="#rim" fill="#404040">
                                <set attributeName="fill" to="#808080" begin="zoomplus.mouseover" end="zoomplus.mouseout"/>
                        </use>
                        <path d="M-4,0h8M0,-4v8" fill="none" stroke="white" stroke-width="1.5" pointer-events="none"/>
                </g>
                <g id="zoomMin">
                        <use xlink:href="#rim" fill="#404040">
                                <set attributeName="fill" to="#808080" begin="zoomminus.mouseover" end="zoomminus.mouseout"/>
                        </use>
                        <path d="M-4,0h8" fill="none" stroke="white" stroke-width="1.5" pointer-events="none"/>
                </g>
                <g id="dirArrow">
                        <path fill="none" stroke="white" stroke-width="1.5" d="M0,-3.0v7 M-2.5,-0.5L0,-3.0L2.5,-0.5"/>
                </g>
               <g id="resetDef">
                       <use xlink:href="#rim2" fill="#404040">
                               <set attributeName="fill" to="#808080" begin="reset.mouseover" end="reset.mouseout"/>
                       </use>
               </g>
        </defs>

<script type="text/javascript">
var viewWidth = 1571;
var viewHeight = 408;
var sectionId = 'dynsection-0';
</script>
<script xlink:href="../../svgpan.js"/>
<svg id="graph" class="graph">
<g id="viewport">
<title>/home/travis/build/AliceO2Group/AliceO2/Detectors/TPC/base/include/TPCBase/DigitPos.h</title>
<!-- Node0 -->
<g id="node1" class="node">
<title>Node0</title>
<polygon fill="#bfbfbf" stroke="#000000" points="820.5,-347.5 820.5,-399.5 973.5,-399.5 973.5,-347.5 820.5,-347.5"/>
<text text-anchor="start" x="828.5" y="-387.5" font-family="Helvetica,sans-Serif" font-size="10.00" fill="#000000">/home/travis/build</text>
<text text-anchor="start" x="828.5" y="-376.5" font-family="Helvetica,sans-Serif" font-size="10.00" fill="#000000">/AliceO2Group/AliceO2</text>
<text text-anchor="start" x="828.5" y="-365.5" font-family="Helvetica,sans-Serif" font-size="10.00" fill="#000000">/Detectors/TPC/base/include</text>
<text text-anchor="middle" x="897" y="-354.5" font-family="Helvetica,sans-Serif" font-size="10.00" fill="#000000">/TPCBase/DigitPos.h</text>
</g>
<!-- Node1 -->
<g id="node2" class="node">
<title>Node1</title>
<g id="a_node2"><a xlink:href="../../d1/d73/Defs_8h.html" target="_top" xlink:title="DataFormatsTPC/Defs.h">
<polygon fill="none" stroke="#000000" points="719.5,-123.5 719.5,-142.5 852.5,-142.5 852.5,-123.5 719.5,-123.5"/>
<text text-anchor="middle" x="786" y="-130.5" font-family="Helvetica,sans-Serif" font-size="10.00" fill="#000000">DataFormatsTPC/Defs.h</text>
</a>
</g>
</g>
<!-- Node0&#45;&gt;Node1 -->
<g id="edge1" class="edge">
<title>Node0&#45;&gt;Node1</title>
<path fill="none" stroke="#191970" d="M843.8407,-347.2426C829.2754,-337.6862 814.8137,-325.5756 805,-311 771.9526,-261.9171 777.5523,-187.3854 782.5927,-152.4082"/>
<polygon fill="#191970" stroke="#191970" points="786.0506,-152.949 784.1599,-142.5242 779.137,-151.8527 786.0506,-152.949"/>
</g>
<!-- Node15 -->
<g id="node16" class="node">
<title>Node15</title>
<g id="a_node16"><a xlink:href="../../df/d26/CRU_8h.html" target="_top" xlink:title="TPCBase/CRU.h">
<polygon fill="none" stroke="#000000" points="814,-291.5 814,-310.5 906,-310.5 906,-291.5 814,-291.5"/>
<text text-anchor="middle" x="860" y="-298.5" font-family="Helvetica,sans-Serif" font-size="10.00" fill="#000000">TPCBase/CRU.h</text>
</a>
</g>
</g>
<!-- Node0&#45;&gt;Node15 -->
<g id="edge15" class="edge">
<title>Node0&#45;&gt;Node15</title>
<path fill="none" stroke="#191970" d="M883.6422,-347.3258C878.9407,-338.1136 873.7581,-327.9584 869.4463,-319.5096"/>
<polygon fill="#191970" stroke="#191970" points="872.5289,-317.8501 864.8656,-310.534 866.2939,-321.0321 872.5289,-317.8501"/>
</g>
<!-- Node19 -->
<g id="node20" class="node">
<title>Node19</title>
<g id="a_node20"><a xlink:href="../../de/d41/PadPos_8h.html" target="_top" xlink:title="TPCBase/PadPos.h">
<polygon fill="none" stroke="#000000" points="962,-235.5 962,-254.5 1068,-254.5 1068,-235.5 962,-235.5"/>
<text text-anchor="middle" x="1015" y="-242.5" font-family="Helvetica,sans-Serif" font-size="10.00" fill="#000000">TPCBase/PadPos.h</text>
</a>
</g>
</g>
<!-- Node0&#45;&gt;Node19 -->
<g id="edge23" class="edge">
<title>Node0&#45;&gt;Node19</title>
<path fill="none" stroke="#191970" d="M911.6376,-347.3136C921.9194,-330.2146 936.7057,-307.993 953,-291 964.0881,-279.4364 978.3386,-268.6427 990.3809,-260.421"/>
<polygon fill="#191970" stroke="#191970" points="992.6664,-263.1054 999.0703,-254.665 988.8006,-257.2696 992.6664,-263.1054"/>
</g>
<!-- Node20 -->
<g id="node21" class="node">
<title>Node20</title>
<g id="a_node21"><a xlink:href="../../dd/d0b/PadSecPos_8h.html" target="_top" xlink:title="TPCBase/PadSecPos.h">
<polygon fill="none" stroke="#000000" points="962.5,-291.5 962.5,-310.5 1085.5,-310.5 1085.5,-291.5 962.5,-291.5"/>
<text text-anchor="middle" x="1024" y="-298.5" font-family="Helvetica,sans-Serif" font-size="10.00" fill="#000000">TPCBase/PadSecPos.h</text>
</a>
</g>
</g>
<!-- Node0&#45;&gt;Node20 -->
<g id="edge24" class="edge">
<title>Node0&#45;&gt;Node20</title>
<path fill="none" stroke="#191970" d="M942.8499,-347.3258C961.6182,-336.6116 982.6211,-324.6218 998.557,-315.5246"/>
<polygon fill="#191970" stroke="#191970" points="1000.3497,-318.5314 1007.2991,-310.534 996.8793,-312.4522 1000.3497,-318.5314"/>
</g>
<!-- Node2 -->
<g id="node3" class="node">
<title>Node2</title>
<polygon fill="none" stroke="#bfbfbf" points="650.5,-67.5 650.5,-86.5 697.5,-86.5 697.5,-67.5 650.5,-67.5"/>
<text text-anchor="middle" x="674" y="-74.5" font-family="Helvetica,sans-Serif" font-size="10.00" fill="#000000">cmath</text>
</g>
<!-- Node1&#45;&gt;Node2 -->
<g id="edge2" class="edge">
<title>Node1&#45;&gt;Node2</title>
<path fill="none" stroke="#191970" d="M766.7465,-123.3733C748.9288,-114.4644 722.2253,-101.1127 702.0406,-91.0203"/>
<polygon fill="#191970" stroke="#191970" points="703.5118,-87.8428 693.0022,-86.5011 700.3813,-94.1038 703.5118,-87.8428"/>
</g>
<!-- Node3 -->
<g id="node4" class="node">
<title>Node3</title>
<g id="a_node4"><a xlink:href="../../d1/da8/GPUROOTCartesianFwd_8h.html" target="_top" xlink:title="GPUROOTCartesianFwd.h">
<polygon fill="none" stroke="#000000" points="716,-67.5 716,-86.5 856,-86.5 856,-67.5 716,-67.5"/>
<text text-anchor="middle" x="786" y="-74.5" font-family="Helvetica,sans-Serif" font-size="10.00" fill="#000000">GPUROOTCartesianFwd.h</text>
</a>
</g>
</g>
<!-- Node1&#45;&gt;Node3 -->
<g id="edge3" class="edge">
<title>Node1&#45;&gt;Node3</title>
<path fill="none" stroke="#191970" d="M786,-123.2455C786,-115.9382 786,-105.6944 786,-96.7046"/>
<polygon fill="#191970" stroke="#191970" points="789.5001,-96.6426 786,-86.6427 782.5001,-96.6427 789.5001,-96.6426"/>
</g>
<!-- Node4 -->
<g id="node5" class="node">
<title>Node4</title>
<g id="a_node5"><a xlink:href="../../dc/d73/Cartesian_8h.html" target="_top" xlink:title="MathUtils/Cartesian.h">
<polygon fill="none" stroke="#000000" points="874,-67.5 874,-86.5 996,-86.5 996,-67.5 874,-67.5"/>
<text text-anchor="middle" x="935" y="-74.5" font-family="Helvetica,sans-Serif" font-size="10.00" fill="#000000">MathUtils/Cartesian.h</text>
</a>
</g>
</g>
<!-- Node1&#45;&gt;Node4 -->
<g id="edge4" class="edge">
<title>Node1&#45;&gt;Node4</title>
<path fill="none" stroke="#191970" d="M811.614,-123.3733C836.0687,-114.1822 873.1054,-100.2624 900.2209,-90.0713"/>
<polygon fill="#191970" stroke="#191970" points="901.5909,-93.2956 909.7202,-86.5011 899.1281,-86.7431 901.5909,-93.2956"/>
</g>
<!-- Node5 -->
<g id="node6" class="node">
<title>Node5</title>
<polygon fill="none" stroke="#bfbfbf" points="0,-.5 0,-30.5 164,-30.5 164,-.5 0,-.5"/>
<text text-anchor="start" x="8" y="-18.5" font-family="Helvetica,sans-Serif" font-size="10.00" fill="#000000">Math/GenVector/Displacement</text>
<text text-anchor="middle" x="82" y="-7.5" font-family="Helvetica,sans-Serif" font-size="10.00" fill="#000000">Vector3D.h</text>
</g>
<!-- Node4&#45;&gt;Node5 -->
<g id="edge5" class="edge">
<title>Node4&#45;&gt;Node5</title>
<path fill="none" stroke="#191970" d="M873.9555,-67.9498C870.9303,-67.6047 867.9324,-67.2852 865,-67 561.7671,-37.5132 480.83,-64.3248 174.3438,-31.0622"/>
<polygon fill="#191970" stroke="#191970" points="174.6014,-27.5695 164.2792,-29.9572 173.8374,-34.5277 174.6014,-27.5695"/>
</g>
<!-- Node6 -->
<g id="node7" class="node">
<title>Node6</title>
<polygon fill="none" stroke="#bfbfbf" points="182.5,-6 182.5,-25 371.5,-25 371.5,-6 182.5,-6"/>
<text text-anchor="middle" x="277" y="-13" font-family="Helvetica,sans-Serif" font-size="10.00" fill="#000000">Math/GenVector/PositionVector3D.h</text>
</g>
<!-- Node4&#45;&gt;Node6 -->
<g id="edge6" class="edge">
<title>Node4&#45;&gt;Node6</title>
<path fill="none" stroke="#191970" d="M873.9472,-68.0302C870.9242,-67.6639 867.9291,-67.3178 865,-67 650.5531,-43.734 595.3755,-54.9148 381,-31 369.634,-29.7321 357.6027,-28.1564 345.9123,-26.4997"/>
<polygon fill="#191970" stroke="#191970" points="346.1504,-22.9977 335.752,-25.0285 345.1472,-29.9255 346.1504,-22.9977"/>
</g>
<!-- Node7 -->
<g id="node8" class="node">
<title>Node7</title>
<polygon fill="none" stroke="#bfbfbf" points="390,-6 390,-25 550,-25 550,-6 390,-6"/>
<text text-anchor="middle" x="470" y="-13" font-family="Helvetica,sans-Serif" font-size="10.00" fill="#000000">Math/GenVector/Rotation3D.h</text>
</g>
<!-- Node4&#45;&gt;Node7 -->
<g id="edge7" class="edge">
<title>Node4&#45;&gt;Node7</title>
<path fill="none" stroke="#191970" d="M873.9288,-68.1847C870.9106,-67.7775 867.9216,-67.3805 865,-67 729.2087,-49.3157 694.5055,-50.7551 559,-31 550.11,-29.7039 540.7425,-28.2119 531.5562,-26.6764"/>
<polygon fill="#191970" stroke="#191970" points="532.1354,-23.2247 521.6904,-25.0004 530.963,-30.1258 532.1354,-23.2247"/>
</g>
<!-- Node8 -->
<g id="node9" class="node">
<title>Node8</title>
<polygon fill="none" stroke="#bfbfbf" points="568,-6 568,-25 736,-25 736,-6 568,-6"/>
<text text-anchor="middle" x="652" y="-13" font-family="Helvetica,sans-Serif" font-size="10.00" fill="#000000">Math/GenVector/Transform3D.h</text>
</g>
<!-- Node4&#45;&gt;Node8 -->
<g id="edge8" class="edge">
<title>Node4&#45;&gt;Node8</title>
<path fill="none" stroke="#191970" d="M891.0918,-67.4581C841.2101,-56.6181 759.781,-38.9224 706.0409,-27.2439"/>
<polygon fill="#191970" stroke="#191970" points="706.5265,-23.7678 696.0113,-25.0643 705.0399,-30.6081 706.5265,-23.7678"/>
</g>
<!-- Node9 -->
<g id="node10" class="node">
<title>Node9</title>
<polygon fill="none" stroke="#bfbfbf" points="754.5,-6 754.5,-25 927.5,-25 927.5,-6 754.5,-6"/>
<text text-anchor="middle" x="841" y="-13" font-family="Helvetica,sans-Serif" font-size="10.00" fill="#000000">Math/GenVector/Translation3D.h</text>
</g>
<!-- Node4&#45;&gt;Node9 -->
<g id="edge9" class="edge">
<title>Node4&#45;&gt;Node9</title>
<path fill="none" stroke="#191970" d="M920.3125,-67.3906C905.2744,-57.5519 881.6824,-42.1167 864.1333,-30.6351"/>
<polygon fill="#191970" stroke="#191970" points="865.8687,-27.588 855.5844,-25.0419 862.0363,-33.4457 865.8687,-27.588"/>
</g>
<!-- Node10 -->
<g id="node11" class="node">
<title>Node10</title>
<polygon fill="none" stroke="#bfbfbf" points="946,-.5 946,-30.5 1110,-30.5 1110,-.5 946,-.5"/>
<text text-anchor="start" x="954" y="-18.5" font-family="Helvetica,sans-Serif" font-size="10.00" fill="#000000">Math/GenVector/Displacement</text>
<text text-anchor="middle" x="1028" y="-7.5" font-family="Helvetica,sans-Serif" font-size="10.00" fill="#000000">Vector2D.h</text>
</g>
<!-- Node4&#45;&gt;Node10 -->
<g id="edge10" class="edge">
<title>Node4&#45;&gt;Node10</title>
<path fill="none" stroke="#191970" d="M949.5313,-67.3906C962.1177,-59.0673 980.7607,-46.7389 996.717,-36.1872"/>
<polygon fill="#191970" stroke="#191970" points="998.8391,-38.98 1005.2496,-30.5446 994.9779,-33.1411 998.8391,-38.98"/>
</g>
<!-- Node11 -->
<g id="node12" class="node">
<title>Node11</title>
<polygon fill="none" stroke="#bfbfbf" points="1128.5,-6 1128.5,-25 1317.5,-25 1317.5,-6 1128.5,-6"/>
<text text-anchor="middle" x="1223" y="-13" font-family="Helvetica,sans-Serif" font-size="10.00" fill="#000000">Math/GenVector/PositionVector2D.h</text>
</g>
<!-- Node4&#45;&gt;Node11 -->
<g id="edge11" class="edge">
<title>Node4&#45;&gt;Node11</title>
<path fill="none" stroke="#191970" d="M979.684,-67.4581C1030.5525,-56.5956 1113.6595,-38.8488 1168.3451,-27.1711"/>
<polygon fill="#191970" stroke="#191970" points="1169.1626,-30.5755 1178.2112,-25.0643 1167.7007,-23.7299 1169.1626,-30.5755"/>
</g>
<!-- Node12 -->
<g id="node13" class="node">
<title>Node12</title>
<polygon fill="none" stroke="#bfbfbf" points="1335.5,-6 1335.5,-25 1394.5,-25 1394.5,-6 1335.5,-6"/>
<text text-anchor="middle" x="1365" y="-13" font-family="Helvetica,sans-Serif" font-size="10.00" fill="#000000">Rtypes.h</text>
</g>
<!-- Node4&#45;&gt;Node12 -->
<g id="edge12" class="edge">
<title>Node4&#45;&gt;Node12</title>
<path fill="none" stroke="#191970" d="M996.0347,-74.9359C1073.9425,-71.147 1212.3676,-60.5213 1327,-31 1329.6262,-30.3237 1332.3116,-29.5058 1334.9804,-28.6034"/>
<polygon fill="#191970" stroke="#191970" points="1336.297,-31.8479 1344.438,-25.0673 1333.8455,-25.2912 1336.297,-31.8479"/>
</g>
<!-- Node13 -->
<g id="node14" class="node">
<title>Node13</title>
<polygon fill="none" stroke="#bfbfbf" points="1413,-6 1413,-25 1495,-25 1495,-6 1413,-6"/>
<text text-anchor="middle" x="1454" y="-13" font-family="Helvetica,sans-Serif" font-size="10.00" fill="#000000">TGeoMatrix.h</text>
</g>
<!-- Node4&#45;&gt;Node13 -->
<g id="edge13" class="edge">
<title>Node4&#45;&gt;Node13</title>
<path fill="none" stroke="#191970" d="M996.295,-74.9493C1086.4234,-71.0435 1259.646,-60.1398 1404,-31 1408.2092,-30.1503 1412.568,-29.0863 1416.8776,-27.9159"/>
<polygon fill="#191970" stroke="#191970" points="1418.1271,-31.1976 1426.751,-25.043 1416.1714,-24.4763 1418.1271,-31.1976"/>
</g>
<!-- Node14 -->
<g id="node15" class="node">
<title>Node14</title>
<polygon fill="none" stroke="#bfbfbf" points="1513.5,-6 1513.5,-25 1562.5,-25 1562.5,-6 1513.5,-6"/>
<text text-anchor="middle" x="1538" y="-13" font-family="Helvetica,sans-Serif" font-size="10.00" fill="#000000">iosfwd</text>
</g>
<!-- Node4&#45;&gt;Node14 -->
<g id="edge14" class="edge">
<title>Node4&#45;&gt;Node14</title>
<path fill="none" stroke="#191970" d="M996.2002,-74.7276C1122.7734,-69.5912 1409.3968,-55.58 1504,-31 1506.1936,-30.43 1508.4218,-29.727 1510.6342,-28.9377"/>
<polygon fill="#191970" stroke="#191970" points="1512.1485,-32.0998 1520.0766,-25.0715 1509.4961,-25.6217 1512.1485,-32.0998"/>
</g>
<!-- Node15&#45;&gt;Node1 -->
<g id="edge16" class="edge">
<title>Node15&#45;&gt;Node1</title>
<path fill="none" stroke="#191970" d="M842.955,-291.4179C830.3459,-283.3845 813.8804,-270.714 805,-255 786.7085,-222.6331 784.4808,-178.1256 784.9464,-152.7839"/>
<polygon fill="#191970" stroke="#191970" points="788.4507,-152.7176 785.3018,-142.6016 781.455,-152.4734 788.4507,-152.7176"/>
</g>
<!-- Node16 -->
<g id="node17" class="node">
<title>Node16</title>
<g id="a_node17"><a xlink:href="../../d3/dd6/Sector_8h.html" target="_top" xlink:title="TPCBase/Sector.h">
<polygon fill="none" stroke="#000000" points="883.5,-179.5 883.5,-198.5 984.5,-198.5 984.5,-179.5 883.5,-179.5"/>
<text text-anchor="middle" x="934" y="-186.5" font-family="Helvetica,sans-Serif" font-size="10.00" fill="#000000">TPCBase/Sector.h</text>
</a>
</g>
</g>
<!-- Node15&#45;&gt;Node16 -->
<g id="edge17" class="edge">
<title>Node15&#45;&gt;Node16</title>
<path fill="none" stroke="#191970" d="M875.9906,-291.4228C888.3609,-283.2247 905.0135,-270.3333 915,-255 924.1398,-240.9667 928.9698,-222.4653 931.4679,-208.6227"/>
<polygon fill="#191970" stroke="#191970" points="934.9337,-209.113 933.0092,-198.6944 928.0165,-208.0391 934.9337,-209.113"/>
</g>
<!-- Node18 -->
<g id="node19" class="node">
<title>Node18</title>
<g id="a_node19"><a xlink:href="../../dc/d14/ROC_8h.html" target="_top" xlink:title="TPCBase/ROC.h">
<polygon fill="none" stroke="#000000" points="814,-235.5 814,-254.5 906,-254.5 906,-235.5 814,-235.5"/>
<text text-anchor="middle" x="860" y="-242.5" font-family="Helvetica,sans-Serif" font-size="10.00" fill="#000000">TPCBase/ROC.h</text>
</a>
</g>
</g>
<!-- Node15&#45;&gt;Node18 -->
<g id="edge20" class="edge">
<title>Node15&#45;&gt;Node18</title>
<path fill="none" stroke="#191970" d="M860,-291.2455C860,-283.9382 860,-273.6944 860,-264.7046"/>
<polygon fill="#191970" stroke="#191970" points="863.5001,-264.6426 860,-254.6427 856.5001,-264.6427 863.5001,-264.6426"/>
</g>
<!-- Node16&#45;&gt;Node1 -->
<g id="edge19" class="edge">
<title>Node16&#45;&gt;Node1</title>
<path fill="none" stroke="#191970" d="M908.5579,-179.3733C884.2674,-170.1822 847.4792,-156.2624 820.5457,-146.0713"/>
<polygon fill="#191970" stroke="#191970" points="821.7016,-142.7666 811.1101,-142.5011 819.2243,-149.3136 821.7016,-142.7666"/>
</g>
<!-- Node17 -->
<g id="node18" class="node">
<title>Node17</title>
<g id="a_node18"><a xlink:href="../../d0/dda/DataFormats_2Detectors_2TPC_2include_2DataFormatsTPC_2Constants_8h.html" target="_top" xlink:title="DataFormatsTPC/Constants.h">
<polygon fill="none" stroke="#000000" points="870.5,-123.5 870.5,-142.5 1029.5,-142.5 1029.5,-123.5 870.5,-123.5"/>
<text text-anchor="middle" x="950" y="-130.5" font-family="Helvetica,sans-Serif" font-size="10.00" fill="#000000">DataFormatsTPC/Constants.h</text>
</a>
</g>
</g>
<!-- Node16&#45;&gt;Node17 -->
<g id="edge18" class="edge">
<title>Node16&#45;&gt;Node17</title>
<path fill="none" stroke="#191970" d="M936.787,-179.2455C938.8977,-171.8579 941.866,-161.4689 944.4547,-152.4087"/>
<polygon fill="#191970" stroke="#191970" points="947.863,-153.2195 947.245,-142.6427 941.1323,-151.2964 947.863,-153.2195"/>
</g>
<!-- Node18&#45;&gt;Node1 -->
<g id="edge21" class="edge">
<title>Node18&#45;&gt;Node1</title>
<path fill="none" stroke="#191970" d="M853.6908,-235.4509C841.3485,-216.7707 813.8318,-175.1238 797.9432,-151.0761"/>
<polygon fill="#191970" stroke="#191970" points="800.726,-148.9388 792.2932,-142.5249 794.8857,-152.7977 800.726,-148.9388"/>
</g>
<!-- Node18&#45;&gt;Node16 -->
<g id="edge22" class="edge">
<title>Node18&#45;&gt;Node16</title>
<path fill="none" stroke="#191970" d="M872.8898,-235.2455C883.9254,-226.8943 900.0292,-214.7076 912.9353,-204.9408"/>
<polygon fill="#191970" stroke="#191970" points="915.3959,-207.4681 921.2579,-198.6427 911.1717,-201.8862 915.3959,-207.4681"/>
</g>
<!-- Node20&#45;&gt;Node16 -->
<g id="edge25" class="edge">
<title>Node20&#45;&gt;Node16</title>
<path fill="none" stroke="#191970" d="M1041.4653,-291.3838C1062.1632,-278.7287 1092.0601,-255.6647 1077,-235 1066.7597,-220.9488 1028.3928,-209.0556 993.977,-200.8843"/>
<polygon fill="#191970" stroke="#191970" points="994.4615,-197.4045 983.9315,-198.5748 992.893,-204.2265 994.4615,-197.4045"/>
</g>
<!-- Node20&#45;&gt;Node19 -->
<g id="edge26" class="edge">
<title>Node20&#45;&gt;Node19</title>
<path fill="none" stroke="#191970" d="M1022.4323,-291.2455C1021.2579,-283.9382 1019.6116,-273.6944 1018.1668,-264.7046"/>
<polygon fill="#191970" stroke="#191970" points="1021.5922,-263.9606 1016.5497,-254.6427 1014.6809,-265.0714 1021.5922,-263.9606"/>
</g>
</g>
</svg>
        <g id="navigator" transform="translate(0 0)" fill="#404254">
                <rect fill="#f2f5e9" fill-opacity="0.5" stroke="#606060" stroke-width=".5" x="0" y="0" width="60" height="60"/>
                <use id="zoomplus" xlink:href="#zoomPlus" x="17" y="9" onmousedown="handleZoom(evt,'in')"/>
                <use id="zoomminus" xlink:href="#zoomMin" x="42" y="9" onmousedown="handleZoom(evt,'out')"/>
                <use id="reset" xlink:href="#resetDef" x="30" y="36" onmousedown="handleReset()"/>
                <g id="arrowUp" xlink:href="#dirArrow" transform="translate(30 24)" onmousedown="handlePan(0,-1)">
                  <use xlink:href="#rim" fill="#404040">
                        <set attributeName="fill" to="#808080" begin="arrowUp.mouseover" end="arrowUp.mouseout"/>
                  </use>
                  <path fill="none" stroke="white" stroke-width="1.5" d="M0,-3.0v7 M-2.5,-0.5L0,-3.0L2.5,-0.5"/>
                </g>
                <g id="arrowRight" xlink:href="#dirArrow" transform="rotate(90) translate(36 -43)" onmousedown="handlePan(1,0)">
                  <use xlink:href="#rim" fill="#404040">
                        <set attributeName="fill" to="#808080" begin="arrowRight.mouseover" end="arrowRight.mouseout"/>
                  </use>
                  <path fill="none" stroke="white" stroke-width="1.5" d="M0,-3.0v7 M-2.5,-0.5L0,-3.0L2.5,-0.5"/>
                </g>
                <g id="arrowDown" xlink:href="#dirArrow" transform="rotate(180) translate(-30 -48)" onmousedown="handlePan(0,1)">
                  <use xlink:href="#rim" fill="#404040">
                        <set attributeName="fill" to="#808080" begin="arrowDown.mouseover" end="arrowDown.mouseout"/>
                  </use>
                  <path fill="none" stroke="white" stroke-width="1.5" d="M0,-3.0v7 M-2.5,-0.5L0,-3.0L2.5,-0.5"/>
                </g>
                <g id="arrowLeft" xlink:href="#dirArrow" transform="rotate(270) translate(-36 17)" onmousedown="handlePan(-1,0)">
                  <use xlink:href="#rim" fill="#404040">
                        <set attributeName="fill" to="#808080" begin="arrowLeft.mouseover" end="arrowLeft.mouseout"/>
                  </use>
                  <path fill="none" stroke="white" stroke-width="1.5" d="M0,-3.0v7 M-2.5,-0.5L0,-3.0L2.5,-0.5"/>
                </g>
        </g>
        <svg viewBox="0 0 15 15" width="100%" height="30px" preserveAspectRatio="xMaxYMin meet">
         <g id="arrow_out" transform="scale(0.3 0.3)">
          <a xlink:href="DigitPos_8h__incl_org.svg" target="_base">
           <rect id="button" ry="5" rx="5" y="6" x="6" height="38" width="38"
                fill="#f2f5e9" fill-opacity="0.5" stroke="#606060" stroke-width="1.0"/>
           <path id="arrow"
             d="M 11.500037,31.436501 C 11.940474,20.09759 22.043105,11.32322 32.158766,21.979434 L 37.068811,17.246167 C 37.068811,17.246167 37.088388,32 37.088388,32 L 22.160133,31.978069 C 22.160133,31.978069 26.997745,27.140456 26.997745,27.140456 C 18.528582,18.264221 13.291696,25.230495 11.500037,31.436501 z"
             style="fill:#404040;"/>
          </a>
         </g>
        </svg>
</svg>
