<?xml version="1.0" encoding="UTF-8" standalone="no"?>
<!DOCTYPE svg PUBLIC "-//W3C//DTD SVG 1.1//EN"
 "http://www.w3.org/Graphics/SVG/1.1/DTD/svg11.dtd">
<!-- Generated by graphviz version 2.40.1 (20161225.0304)
 -->
<!-- Title: /home/travis/build/AliceO2Group/AliceO2/Detectors/MUON/MID/Raw/include/MIDRaw/ElectronicsDelay.h Pages: 1 -->
<!--zoomable 417 -->
<svg id="main" version="1.1" xmlns="http://www.w3.org/2000/svg" xmlns:xlink="http://www.w3.org/1999/xlink" xml:space="preserve" onload="init(evt)">
<style type="text/css"><![CDATA[
.edge:hover path { stroke: red; }
.edge:hover polygon { stroke: red; fill: red; }
]]></style>
<script type="text/javascript"><![CDATA[
var edges = document.getElementsByTagName('g');
if (edges && edges.length) {
  for (var i=0;i<edges.length;i++) {
    if (edges[i].id.substr(0,4)=='edge') {
      edges[i].setAttribute('class','edge');
    }
  }
}
]]></script>
        <defs>
                <circle id="rim" cx="0" cy="0" r="7"/>
                <circle id="rim2" cx="0" cy="0" r="3.5"/>
                <g id="zoomPlus">
                        <use xlink:href="#rim" fill="#404040">
                                <set attributeName="fill" to="#808080" begin="zoomplus.mouseover" end="zoomplus.mouseout"/>
                        </use>
                        <path d="M-4,0h8M0,-4v8" fill="none" stroke="white" stroke-width="1.5" pointer-events="none"/>
                </g>
                <g id="zoomMin">
                        <use xlink:href="#rim" fill="#404040">
                                <set attributeName="fill" to="#808080" begin="zoomminus.mouseover" end="zoomminus.mouseout"/>
                        </use>
                        <path d="M-4,0h8" fill="none" stroke="white" stroke-width="1.5" pointer-events="none"/>
                </g>
                <g id="dirArrow">
                        <path fill="none" stroke="white" stroke-width="1.5" d="M0,-3.0v7 M-2.5,-0.5L0,-3.0L2.5,-0.5"/>
                </g>
               <g id="resetDef">
                       <use xlink:href="#rim2" fill="#404040">
                               <set attributeName="fill" to="#808080" begin="reset.mouseover" end="reset.mouseout"/>
                       </use>
               </g>
        </defs>

<script type="text/javascript">
var viewWidth = 1511;
var viewHeight = 417;
var sectionId = 'dynsection-1';
</script>
<script xlink:href="../../svgpan.js"/>
<svg id="graph" class="graph">
<g id="viewport">
<title>/home/travis/build/AliceO2Group/AliceO2/Detectors/MUON/MID/Raw/include/MIDRaw/ElectronicsDelay.h</title>
<!-- Node3 -->
<g id="node1" class="node">
<title>Node3</title>
<polygon fill="#bfbfbf" stroke="#000000" points="528.886,-356.5 528.886,-408.5 718.886,-408.5 718.886,-356.5 528.886,-356.5"/>
<text text-anchor="start" x="536.886" y="-396.5" font-family="Helvetica,sans-Serif" font-size="10.00" fill="#000000">/home/travis/build</text>
<text text-anchor="start" x="536.886" y="-385.5" font-family="Helvetica,sans-Serif" font-size="10.00" fill="#000000">/AliceO2Group/AliceO2</text>
<text text-anchor="start" x="536.886" y="-374.5" font-family="Helvetica,sans-Serif" font-size="10.00" fill="#000000">/Detectors/MUON/MID/Raw</text>
<text text-anchor="middle" x="623.886" y="-363.5" font-family="Helvetica,sans-Serif" font-size="10.00" fill="#000000">/include/MIDRaw/ElectronicsDelay.h</text>
</g>
<!-- Node4 -->
<g id="node2" class="node">
<title>Node4</title>
<g id="a_node2"><a xlink:href="../../d7/de8/raw-checker_8cxx.html" target="_top" xlink:title="Raw data checker for MID. ">
<polygon fill="none" stroke="#000000" points="166.886,-.5 166.886,-52.5 306.886,-52.5 306.886,-.5 166.886,-.5"/>
<text text-anchor="start" x="174.886" y="-40.5" font-family="Helvetica,sans-Serif" font-size="10.00" fill="#000000">/home/travis/build</text>
<text text-anchor="start" x="174.886" y="-29.5" font-family="Helvetica,sans-Serif" font-size="10.00" fill="#000000">/AliceO2Group/AliceO2</text>
<text text-anchor="start" x="174.886" y="-18.5" font-family="Helvetica,sans-Serif" font-size="10.00" fill="#000000">/Detectors/MUON/MID/QC</text>
<text text-anchor="middle" x="236.886" y="-7.5" font-family="Helvetica,sans-Serif" font-size="10.00" fill="#000000">/exe/raw&#45;checker.cxx</text>
</a>
</g>
</g>
<!-- Node3&#45;&gt;Node4 -->
<g id="edge1" class="edge">
<title>Node3&#45;&gt;Node4</title>
<path fill="none" stroke="#191970" d="M518.3844,-377.7502C427.181,-371.2727 292.7772,-355.9931 180.886,-320 99.6995,-293.884 55.0439,-303.9614 10.886,-231 -36.6497,-152.4577 84.0549,-86.4453 166.7897,-52.0553"/>
<polygon fill="#191970" stroke="#191970" points="518.2393,-381.2484 528.4557,-378.4422 518.7192,-374.2649 518.2393,-381.2484"/>
</g>
<!-- Node5 -->
<g id="node3" class="node">
<title>Node5</title>
<g id="a_node3"><a xlink:href="../../d1/dd7/GBTRawDataChecker_8h.html" target="_top" xlink:title="Class to check the raw data from a GBT link. ">
<polygon fill="none" stroke="#000000" points="189.886,-267.5 189.886,-319.5 395.886,-319.5 395.886,-267.5 189.886,-267.5"/>
<text text-anchor="start" x="197.886" y="-307.5" font-family="Helvetica,sans-Serif" font-size="10.00" fill="#000000">/home/travis/build</text>
<text text-anchor="start" x="197.886" y="-296.5" font-family="Helvetica,sans-Serif" font-size="10.00" fill="#000000">/AliceO2Group/AliceO2</text>
<text text-anchor="start" x="197.886" y="-285.5" font-family="Helvetica,sans-Serif" font-size="10.00" fill="#000000">/Detectors/MUON/MID/QC</text>
<text text-anchor="middle" x="292.886" y="-274.5" font-family="Helvetica,sans-Serif" font-size="10.00" fill="#000000">/include/MIDQC/GBTRawDataChecker.h</text>
</a>
</g>
</g>
<!-- Node3&#45;&gt;Node5 -->
<g id="edge2" class="edge">
<title>Node3&#45;&gt;Node5</title>
<path fill="none" stroke="#191970" d="M518.7706,-354.2363C477.4444,-343.1245 430.2967,-330.4473 389.8036,-319.5594"/>
<polygon fill="#191970" stroke="#191970" points="518.0253,-357.6602 528.5911,-356.8769 519.843,-350.9003 518.0253,-357.6602"/>
</g>
<!-- Node6 -->
<g id="node4" class="node">
<title>Node6</title>
<g id="a_node4"><a xlink:href="../../d2/d52/RawDataChecker_8h.html" target="_top" xlink:title="Class to check the raw data. ">
<polygon fill="none" stroke="#000000" points="199.886,-178.5 199.886,-230.5 385.886,-230.5 385.886,-178.5 199.886,-178.5"/>
<text text-anchor="start" x="207.886" y="-218.5" font-family="Helvetica,sans-Serif" font-size="10.00" fill="#000000">/home/travis/build</text>
<text text-anchor="start" x="207.886" y="-207.5" font-family="Helvetica,sans-Serif" font-size="10.00" fill="#000000">/AliceO2Group/AliceO2</text>
<text text-anchor="start" x="207.886" y="-196.5" font-family="Helvetica,sans-Serif" font-size="10.00" fill="#000000">/Detectors/MUON/MID/QC</text>
<text text-anchor="middle" x="292.886" y="-185.5" font-family="Helvetica,sans-Serif" font-size="10.00" fill="#000000">/include/MIDQC/RawDataChecker.h</text>
</a>
</g>
</g>
<!-- Node3&#45;&gt;Node6 -->
<g id="edge7" class="edge">
<title>Node3&#45;&gt;Node6</title>
<path fill="none" stroke="#191970" d="M566.2957,-351.53C502.661,-317.3095 401.292,-262.7969 341.5004,-230.6431"/>
<polygon fill="#191970" stroke="#191970" points="564.9363,-354.7729 575.4012,-356.4266 568.2517,-348.6078 564.9363,-354.7729"/>
</g>
<!-- Node9 -->
<g id="node7" class="node">
<title>Node9</title>
<g id="a_node7"><a xlink:href="../../d9/d05/Detectors_2MUON_2MID_2Raw_2include_2MIDRaw_2Decoder_8h.html" target="_top" xlink:title="MID raw data decoder. ">
<polygon fill="none" stroke="#000000" points="601.386,-89.5 601.386,-141.5 750.386,-141.5 750.386,-89.5 601.386,-89.5"/>
<text text-anchor="start" x="609.386" y="-129.5" font-family="Helvetica,sans-Serif" font-size="10.00" fill="#000000">/home/travis/build</text>
<text text-anchor="start" x="609.386" y="-118.5" font-family="Helvetica,sans-Serif" font-size="10.00" fill="#000000">/AliceO2Group/AliceO2</text>
<text text-anchor="start" x="609.386" y="-107.5" font-family="Helvetica,sans-Serif" font-size="10.00" fill="#000000">/Detectors/MUON/MID/Raw</text>
<text text-anchor="middle" x="675.886" y="-96.5" font-family="Helvetica,sans-Serif" font-size="10.00" fill="#000000">/include/MIDRaw/Decoder.h</text>
</a>
</g>
</g>
<!-- Node3&#45;&gt;Node9 -->
<g id="edge8" class="edge">
<title>Node3&#45;&gt;Node9</title>
<path fill="none" stroke="#191970" d="M623.0206,-346.2042C622.9933,-304.6805 625.9066,-235.0613 642.886,-178 646.6305,-165.4161 653.0098,-152.4329 659.1673,-141.5826"/>
<polygon fill="#191970" stroke="#191970" points="619.5218,-346.4057 623.0873,-356.3825 626.5216,-346.3597 619.5218,-346.4057"/>
</g>
<!-- Node15 -->
<g id="node13" class="node">
<title>Node15</title>
<g id="a_node13"><a xlink:href="../../d6/d9f/GBTBareDecoder_8h.html" target="_top" xlink:title="MID GBT decoder without user logic. ">
<polygon fill="none" stroke="#000000" points="403.886,-178.5 403.886,-230.5 595.886,-230.5 595.886,-178.5 403.886,-178.5"/>
<text text-anchor="start" x="411.886" y="-218.5" font-family="Helvetica,sans-Serif" font-size="10.00" fill="#000000">/home/travis/build</text>
<text text-anchor="start" x="411.886" y="-207.5" font-family="Helvetica,sans-Serif" font-size="10.00" fill="#000000">/AliceO2Group/AliceO2</text>
<text text-anchor="start" x="411.886" y="-196.5" font-family="Helvetica,sans-Serif" font-size="10.00" fill="#000000">/Detectors/MUON/MID/Raw</text>
<text text-anchor="middle" x="499.886" y="-185.5" font-family="Helvetica,sans-Serif" font-size="10.00" fill="#000000">/include/MIDRaw/GBTBareDecoder.h</text>
</a>
</g>
</g>
<!-- Node3&#45;&gt;Node15 -->
<g id="edge15" class="edge">
<title>Node3&#45;&gt;Node15</title>
<path fill="none" stroke="#191970" d="M599.7827,-347.9002C575.8428,-313.5349 539.6736,-261.6146 518.0557,-230.5823"/>
<polygon fill="#191970" stroke="#191970" points="597.0014,-350.0308 605.5893,-356.2355 602.7451,-346.0295 597.0014,-350.0308"/>
</g>
<!-- Node17 -->
<g id="node15" class="node">
<title>Node17</title>
<g id="a_node15"><a xlink:href="../../d0/d0c/GBTOutputHandler_8h.html" target="_top" xlink:title="MID GBT decoder output handler. ">
<polygon fill="none" stroke="#000000" points="651.886,-267.5 651.886,-319.5 851.886,-319.5 851.886,-267.5 651.886,-267.5"/>
<text text-anchor="start" x="659.886" y="-307.5" font-family="Helvetica,sans-Serif" font-size="10.00" fill="#000000">/home/travis/build</text>
<text text-anchor="start" x="659.886" y="-296.5" font-family="Helvetica,sans-Serif" font-size="10.00" fill="#000000">/AliceO2Group/AliceO2</text>
<text text-anchor="start" x="659.886" y="-285.5" font-family="Helvetica,sans-Serif" font-size="10.00" fill="#000000">/Detectors/MUON/MID/Raw</text>
<text text-anchor="middle" x="751.886" y="-274.5" font-family="Helvetica,sans-Serif" font-size="10.00" fill="#000000">/include/MIDRaw/GBTOutputHandler.h</text>
</a>
</g>
</g>
<!-- Node3&#45;&gt;Node17 -->
<g id="edge20" class="edge">
<title>Node3&#45;&gt;Node17</title>
<path fill="none" stroke="#191970" d="M670.0076,-350.431C684.5988,-340.2856 700.5379,-329.203 714.4436,-319.5341"/>
<polygon fill="#191970" stroke="#191970" points="667.8102,-347.696 661.5979,-356.2784 671.8063,-353.4433 667.8102,-347.696"/>
</g>
<!-- Node18 -->
<g id="node16" class="node">
<title>Node18</title>
<g id="a_node16"><a xlink:href="../../db/d41/GBTUserLogicDecoder_8h.html" target="_top" xlink:title="MID GBT decoder with user logic zero suppression. ">
<polygon fill="none" stroke="#000000" points="817.886,-178.5 817.886,-230.5 1035.886,-230.5 1035.886,-178.5 817.886,-178.5"/>
<text text-anchor="start" x="825.886" y="-218.5" font-family="Helvetica,sans-Serif" font-size="10.00" fill="#000000">/home/travis/build</text>
<text text-anchor="start" x="825.886" y="-207.5" font-family="Helvetica,sans-Serif" font-size="10.00" fill="#000000">/AliceO2Group/AliceO2</text>
<text text-anchor="start" x="825.886" y="-196.5" font-family="Helvetica,sans-Serif" font-size="10.00" fill="#000000">/Detectors/MUON/MID/Raw</text>
<text text-anchor="middle" x="926.886" y="-185.5" font-family="Helvetica,sans-Serif" font-size="10.00" fill="#000000">/include/MIDRaw/GBTUserLogicDecoder.h</text>
</a>
</g>
</g>
<!-- Node3&#45;&gt;Node18 -->
<g id="edge30" class="edge">
<title>Node3&#45;&gt;Node18</title>
<path fill="none" stroke="#191970" d="M728.8227,-363.1233C781.9562,-351.6994 839.6364,-336.3137 860.886,-320 890.5628,-297.2165 909.1097,-257.0162 918.7288,-230.5659"/>
<polygon fill="#191970" stroke="#191970" points="728.0228,-359.715 718.9642,-365.2097 729.4722,-366.5633 728.0228,-359.715"/>
</g>
<!-- Node21 -->
<g id="node19" class="node">
<title>Node21</title>
<g id="a_node19"><a xlink:href="../../d8/d2e/GBTUserLogicEncoder_8h.html" target="_top" xlink:title="Raw data encoder for MID GBT user logic. ">
<polygon fill="none" stroke="#000000" points="1062.886,-178.5 1062.886,-230.5 1278.886,-230.5 1278.886,-178.5 1062.886,-178.5"/>
<text text-anchor="start" x="1070.886" y="-218.5" font-family="Helvetica,sans-Serif" font-size="10.00" fill="#000000">/home/travis/build</text>
<text text-anchor="start" x="1070.886" y="-207.5" font-family="Helvetica,sans-Serif" font-size="10.00" fill="#000000">/AliceO2Group/AliceO2</text>
<text text-anchor="start" x="1070.886" y="-196.5" font-family="Helvetica,sans-Serif" font-size="10.00" fill="#000000">/Detectors/MUON/MID/Raw</text>
<text text-anchor="middle" x="1170.886" y="-185.5" font-family="Helvetica,sans-Serif" font-size="10.00" fill="#000000">/include/MIDRaw/GBTUserLogicEncoder.h</text>
</a>
</g>
</g>
<!-- Node3&#45;&gt;Node21 -->
<g id="edge31" class="edge">
<title>Node3&#45;&gt;Node21</title>
<path fill="none" stroke="#191970" d="M729.1094,-365.6109C792.9314,-353.9637 867.2342,-337.478 894.886,-320 920.2915,-303.9418 911.7598,-283.492 936.886,-267 948.157,-259.6021 1006.8637,-243.9305 1062.649,-230.1317"/>
<polygon fill="#191970" stroke="#191970" points="728.1863,-362.2208 718.9651,-367.4381 729.4272,-369.1099 728.1863,-362.2208"/>
</g>
<!-- Node26 -->
<g id="node24" class="node">
<title>Node26</title>
<g id="a_node24"><a xlink:href="../../d2/d9d/ElectronicsDelay_8cxx.html" target="_top" xlink:title="/home/travis/build\l/AliceO2Group/AliceO2\l/Detectors/MUON/MID/Raw\l/src/ElectronicsDelay.cxx">
<polygon fill="none" stroke="#000000" points="945.886,-267.5 945.886,-319.5 1091.886,-319.5 1091.886,-267.5 945.886,-267.5"/>
<text text-anchor="start" x="953.886" y="-307.5" font-family="Helvetica,sans-Serif" font-size="10.00" fill="#000000">/home/travis/build</text>
<text text-anchor="start" x="953.886" y="-296.5" font-family="Helvetica,sans-Serif" font-size="10.00" fill="#000000">/AliceO2Group/AliceO2</text>
<text text-anchor="start" x="953.886" y="-285.5" font-family="Helvetica,sans-Serif" font-size="10.00" fill="#000000">/Detectors/MUON/MID/Raw</text>
<text text-anchor="middle" x="1018.886" y="-274.5" font-family="Helvetica,sans-Serif" font-size="10.00" fill="#000000">/src/ElectronicsDelay.cxx</text>
</a>
</g>
</g>
<!-- Node3&#45;&gt;Node26 -->
<g id="edge39" class="edge">
<title>Node3&#45;&gt;Node26</title>
<path fill="none" stroke="#191970" d="M728.9483,-363.7565C788.7492,-352.4456 864.8715,-336.9644 931.886,-320 936.3248,-318.8763 940.8745,-317.6672 945.4528,-316.4063"/>
<polygon fill="#191970" stroke="#191970" points="728.2974,-360.3174 719.1171,-365.6063 729.5918,-367.1967 728.2974,-360.3174"/>
</g>
<!-- Node5&#45;&gt;Node6 -->
<g id="edge3" class="edge">
<title>Node5&#45;&gt;Node6</title>
<path fill="none" stroke="#191970" d="M292.886,-257.1155C292.886,-248.2061 292.886,-238.8475 292.886,-230.5341"/>
<polygon fill="#191970" stroke="#191970" points="289.3861,-257.2784 292.886,-267.2784 296.3861,-257.2785 289.3861,-257.2784"/>
</g>
<!-- Node8 -->
<g id="node6" class="node">
<title>Node8</title>
<g id="a_node6"><a xlink:href="../../d0/d3c/GBTRawDataChecker_8cxx.html" target="_top" xlink:title="Class to check the raw data from a GBT link. ">
<polygon fill="none" stroke="#000000" points="20.386,-178.5 20.386,-230.5 181.386,-230.5 181.386,-178.5 20.386,-178.5"/>
<text text-anchor="start" x="28.386" y="-218.5" font-family="Helvetica,sans-Serif" font-size="10.00" fill="#000000">/home/travis/build</text>
<text text-anchor="start" x="28.386" y="-207.5" font-family="Helvetica,sans-Serif" font-size="10.00" fill="#000000">/AliceO2Group/AliceO2</text>
<text text-anchor="start" x="28.386" y="-196.5" font-family="Helvetica,sans-Serif" font-size="10.00" fill="#000000">/Detectors/MUON/MID/QC</text>
<text text-anchor="middle" x="100.886" y="-185.5" font-family="Helvetica,sans-Serif" font-size="10.00" fill="#000000">/src/GBTRawDataChecker.cxx</text>
</a>
</g>
</g>
<!-- Node5&#45;&gt;Node8 -->
<g id="edge6" class="edge">
<title>Node5&#45;&gt;Node8</title>
<path fill="none" stroke="#191970" d="M227.3159,-263.1055C204.5209,-252.5391 179.1729,-240.7893 157.194,-230.6011"/>
<polygon fill="#191970" stroke="#191970" points="226.0323,-266.3682 236.5769,-267.3984 228.9762,-260.0174 226.0323,-266.3682"/>
</g>
<!-- Node6&#45;&gt;Node4 -->
<g id="edge4" class="edge">
<title>Node6&#45;&gt;Node4</title>
<path fill="none" stroke="#191970" d="M290.3693,-168.0082C287.9294,-144.8314 283.1607,-114.5048 273.886,-89 269.3181,-76.4387 262.1894,-63.5642 255.4038,-52.7895"/>
<polygon fill="#191970" stroke="#191970" points="286.8992,-168.489 291.3343,-178.1109 293.8675,-167.8234 286.8992,-168.489"/>
</g>
<!-- Node7 -->
<g id="node5" class="node">
<title>Node7</title>
<g id="a_node5"><a xlink:href="../../db/d34/RawDataChecker_8cxx.html" target="_top" xlink:title="Class to check the raw data. ">
<polygon fill="none" stroke="#000000" points="124.886,-89.5 124.886,-141.5 264.886,-141.5 264.886,-89.5 124.886,-89.5"/>
<text text-anchor="start" x="132.886" y="-129.5" font-family="Helvetica,sans-Serif" font-size="10.00" fill="#000000">/home/travis/build</text>
<text text-anchor="start" x="132.886" y="-118.5" font-family="Helvetica,sans-Serif" font-size="10.00" fill="#000000">/AliceO2Group/AliceO2</text>
<text text-anchor="start" x="132.886" y="-107.5" font-family="Helvetica,sans-Serif" font-size="10.00" fill="#000000">/Detectors/MUON/MID/QC</text>
<text text-anchor="middle" x="194.886" y="-96.5" font-family="Helvetica,sans-Serif" font-size="10.00" fill="#000000">/src/RawDataChecker.cxx</text>
</a>
</g>
</g>
<!-- Node6&#45;&gt;Node7 -->
<g id="edge5" class="edge">
<title>Node6&#45;&gt;Node7</title>
<path fill="none" stroke="#191970" d="M256.317,-171.2894C245.4925,-161.459 233.8013,-150.8415 223.5528,-141.5341"/>
<polygon fill="#191970" stroke="#191970" points="254.2569,-174.1464 264.0128,-178.2784 258.963,-168.9644 254.2569,-174.1464"/>
</g>
<!-- Node9&#45;&gt;Node4 -->
<g id="edge9" class="edge">
<title>Node9&#45;&gt;Node4</title>
<path fill="none" stroke="#191970" d="M590.951,-104.4671C517.514,-94.0476 408.8342,-76.5132 315.886,-53 312.9408,-52.255 309.9472,-51.4538 306.933,-50.6108"/>
<polygon fill="#191970" stroke="#191970" points="590.6842,-107.9639 601.074,-105.89 591.6586,-101.032 590.6842,-107.9639"/>
</g>
<!-- Node10 -->
<g id="node8" class="node">
<title>Node10</title>
<g id="a_node8"><a xlink:href="../../d8/d6c/MID_2Raw_2exe_2rawdump_8cxx.html" target="_top" xlink:title="Raw data dumper for MID. ">
<polygon fill="none" stroke="#000000" points="324.886,-.5 324.886,-52.5 470.886,-52.5 470.886,-.5 324.886,-.5"/>
<text text-anchor="start" x="332.886" y="-40.5" font-family="Helvetica,sans-Serif" font-size="10.00" fill="#000000">/home/travis/build</text>
<text text-anchor="start" x="332.886" y="-29.5" font-family="Helvetica,sans-Serif" font-size="10.00" fill="#000000">/AliceO2Group/AliceO2</text>
<text text-anchor="start" x="332.886" y="-18.5" font-family="Helvetica,sans-Serif" font-size="10.00" fill="#000000">/Detectors/MUON/MID/Raw</text>
<text text-anchor="middle" x="397.886" y="-7.5" font-family="Helvetica,sans-Serif" font-size="10.00" fill="#000000">/exe/rawdump.cxx</text>
</a>
</g>
</g>
<!-- Node9&#45;&gt;Node10 -->
<g id="edge10" class="edge">
<title>Node9&#45;&gt;Node10</title>
<path fill="none" stroke="#191970" d="M591.3534,-88.6237C556.786,-77.6127 516.4098,-64.725 479.886,-53 477.037,-52.0854 474.1326,-51.152 471.199,-50.2082"/>
<polygon fill="#191970" stroke="#191970" points="590.3505,-91.9774 600.9411,-91.677 592.4747,-85.3075 590.3505,-91.9774"/>
</g>
<!-- Node11 -->
<g id="node9" class="node">
<title>Node11</title>
<g id="a_node9"><a xlink:href="../../dc/d28/MUON_2MID_2Raw_2src_2Decoder_8cxx.html" target="_top" xlink:title="MID raw data decoder. ">
<polygon fill="none" stroke="#000000" points="676.886,-.5 676.886,-52.5 822.886,-52.5 822.886,-.5 676.886,-.5"/>
<text text-anchor="start" x="684.886" y="-40.5" font-family="Helvetica,sans-Serif" font-size="10.00" fill="#000000">/home/travis/build</text>
<text text-anchor="start" x="684.886" y="-29.5" font-family="Helvetica,sans-Serif" font-size="10.00" fill="#000000">/AliceO2Group/AliceO2</text>
<text text-anchor="start" x="684.886" y="-18.5" font-family="Helvetica,sans-Serif" font-size="10.00" fill="#000000">/Detectors/MUON/MID/Raw</text>
<text text-anchor="middle" x="749.886" y="-7.5" font-family="Helvetica,sans-Serif" font-size="10.00" fill="#000000">/src/Decoder.cxx</text>
</a>
</g>
</g>
<!-- Node9&#45;&gt;Node11 -->
<g id="edge11" class="edge">
<title>Node9&#45;&gt;Node11</title>
<path fill="none" stroke="#191970" d="M704.2151,-81.4285C712.1862,-71.8416 720.7263,-61.5704 728.2396,-52.5341"/>
<polygon fill="#191970" stroke="#191970" points="701.3903,-79.3514 697.6882,-89.2784 706.7728,-83.8268 701.3903,-79.3514"/>
</g>
<!-- Node12 -->
<g id="node10" class="node">
<title>Node12</title>
<g id="a_node10"><a xlink:href="../../d5/d52/bench__Raw_8cxx.html" target="_top" xlink:title="Benchmark MID raw data decoder. ">
<polygon fill="none" stroke="#000000" points="840.886,-.5 840.886,-52.5 986.886,-52.5 986.886,-.5 840.886,-.5"/>
<text text-anchor="start" x="848.886" y="-40.5" font-family="Helvetica,sans-Serif" font-size="10.00" fill="#000000">/home/travis/build</text>
<text text-anchor="start" x="848.886" y="-29.5" font-family="Helvetica,sans-Serif" font-size="10.00" fill="#000000">/AliceO2Group/AliceO2</text>
<text text-anchor="start" x="848.886" y="-18.5" font-family="Helvetica,sans-Serif" font-size="10.00" fill="#000000">/Detectors/MUON/MID/Raw</text>
<text text-anchor="middle" x="913.886" y="-7.5" font-family="Helvetica,sans-Serif" font-size="10.00" fill="#000000">/test/bench_Raw.cxx</text>
</a>
</g>
</g>
<!-- Node9&#45;&gt;Node12 -->
<g id="edge12" class="edge">
<title>Node9&#45;&gt;Node12</title>
<path fill="none" stroke="#191970" d="M755.2865,-85.8082C784.0233,-75.0621 816.2373,-63.0157 844.0875,-52.6011"/>
<polygon fill="#191970" stroke="#191970" points="753.8263,-82.6175 745.6857,-89.3984 756.2782,-89.174 753.8263,-82.6175"/>
</g>
<!-- Node13 -->
<g id="node11" class="node">
<title>Node13</title>
<g id="a_node11"><a xlink:href="../../d8/d4c/testRaw_8cxx.html" target="_top" xlink:title="Test MID raw data decoder. ">
<polygon fill="none" stroke="#000000" points="1004.886,-.5 1004.886,-52.5 1150.886,-52.5 1150.886,-.5 1004.886,-.5"/>
<text text-anchor="start" x="1012.886" y="-40.5" font-family="Helvetica,sans-Serif" font-size="10.00" fill="#000000">/home/travis/build</text>
<text text-anchor="start" x="1012.886" y="-29.5" font-family="Helvetica,sans-Serif" font-size="10.00" fill="#000000">/AliceO2Group/AliceO2</text>
<text text-anchor="start" x="1012.886" y="-18.5" font-family="Helvetica,sans-Serif" font-size="10.00" fill="#000000">/Detectors/MUON/MID/Raw</text>
<text text-anchor="middle" x="1077.886" y="-7.5" font-family="Helvetica,sans-Serif" font-size="10.00" fill="#000000">/test/testRaw.cxx</text>
</a>
</g>
</g>
<!-- Node9&#45;&gt;Node13 -->
<g id="edge13" class="edge">
<title>Node9&#45;&gt;Node13</title>
<path fill="none" stroke="#191970" d="M760.6642,-101.7927C825.5232,-90.62 916.9396,-73.3881 995.886,-53 998.7831,-52.2518 1001.7281,-51.4588 1004.6957,-50.6325"/>
<polygon fill="#191970" stroke="#191970" points="759.7554,-98.3973 750.4887,-103.5334 760.9357,-105.297 759.7554,-98.3973"/>
</g>
<!-- Node14 -->
<g id="node12" class="node">
<title>Node14</title>
<g id="a_node12"><a xlink:href="../../d1/dc9/RawDecoderSpec_8cxx.html" target="_top" xlink:title="Data processor spec for MID raw decoder device. ">
<polygon fill="none" stroke="#000000" points="488.886,-.5 488.886,-52.5 658.886,-52.5 658.886,-.5 488.886,-.5"/>
<text text-anchor="start" x="496.886" y="-40.5" font-family="Helvetica,sans-Serif" font-size="10.00" fill="#000000">/home/travis/build</text>
<text text-anchor="start" x="496.886" y="-29.5" font-family="Helvetica,sans-Serif" font-size="10.00" fill="#000000">/AliceO2Group/AliceO2</text>
<text text-anchor="start" x="496.886" y="-18.5" font-family="Helvetica,sans-Serif" font-size="10.00" fill="#000000">/Detectors/MUON/MID/Workflow</text>
<text text-anchor="middle" x="573.886" y="-7.5" font-family="Helvetica,sans-Serif" font-size="10.00" fill="#000000">/src/RawDecoderSpec.cxx</text>
</a>
</g>
</g>
<!-- Node9&#45;&gt;Node14 -->
<g id="edge14" class="edge">
<title>Node9&#45;&gt;Node14</title>
<path fill="none" stroke="#191970" d="M638.1523,-82.5755C626.7945,-72.6653 614.4933,-61.9319 603.7229,-52.5341"/>
<polygon fill="#191970" stroke="#191970" points="635.9982,-85.341 645.8343,-89.2784 640.6005,-80.0666 635.9982,-85.341"/>
</g>
<!-- Node15&#45;&gt;Node9 -->
<g id="edge17" class="edge">
<title>Node15&#45;&gt;Node9</title>
<path fill="none" stroke="#191970" d="M560.7821,-173.7059C581.5177,-163.2203 604.4782,-151.6096 624.4027,-141.5341"/>
<polygon fill="#191970" stroke="#191970" points="559.0843,-170.6424 551.7398,-178.2784 562.2432,-176.8891 559.0843,-170.6424"/>
</g>
<!-- Node15&#45;&gt;Node10 -->
<g id="edge16" class="edge">
<title>Node15&#45;&gt;Node10</title>
<path fill="none" stroke="#191970" d="M499.8938,-168.1668C498.3786,-144.1436 493.3772,-112.81 478.886,-89 470.2056,-74.7375 456.9789,-62.5224 443.7149,-52.774"/>
<polygon fill="#191970" stroke="#191970" points="496.4041,-168.4737 500.3569,-178.3035 503.3968,-168.1541 496.4041,-168.4737"/>
</g>
<!-- Node15&#45;&gt;Node14 -->
<g id="edge19" class="edge">
<title>Node15&#45;&gt;Node14</title>
<path fill="none" stroke="#191970" d="M514.8185,-168.5812C529.1042,-134.2182 550.3057,-83.2201 563.0428,-52.5823"/>
<polygon fill="#191970" stroke="#191970" points="511.4119,-167.658 510.8049,-178.2355 517.8756,-170.3452 511.4119,-167.658"/>
</g>
<!-- Node16 -->
<g id="node14" class="node">
<title>Node16</title>
<g id="a_node14"><a xlink:href="../../d5/d90/GBTBareDecoder_8cxx.html" target="_top" xlink:title="MID GBT decoder without user logic. ">
<polygon fill="none" stroke="#000000" points="323.886,-89.5 323.886,-141.5 469.886,-141.5 469.886,-89.5 323.886,-89.5"/>
<text text-anchor="start" x="331.886" y="-129.5" font-family="Helvetica,sans-Serif" font-size="10.00" fill="#000000">/home/travis/build</text>
<text text-anchor="start" x="331.886" y="-118.5" font-family="Helvetica,sans-Serif" font-size="10.00" fill="#000000">/AliceO2Group/AliceO2</text>
<text text-anchor="start" x="331.886" y="-107.5" font-family="Helvetica,sans-Serif" font-size="10.00" fill="#000000">/Detectors/MUON/MID/Raw</text>
<text text-anchor="middle" x="396.886" y="-96.5" font-family="Helvetica,sans-Serif" font-size="10.00" fill="#000000">/src/GBTBareDecoder.cxx</text>
</a>
</g>
</g>
<!-- Node15&#45;&gt;Node16 -->
<g id="edge18" class="edge">
<title>Node15&#45;&gt;Node16</title>
<path fill="none" stroke="#191970" d="M461.7824,-171.5755C450.3132,-161.6653 437.8914,-150.9319 427.0154,-141.5341"/>
<polygon fill="#191970" stroke="#191970" points="459.6847,-174.3886 469.5397,-178.2784 464.2614,-169.092 459.6847,-174.3886"/>
</g>
<!-- Node17&#45;&gt;Node15 -->
<g id="edge21" class="edge">
<title>Node17&#45;&gt;Node15</title>
<path fill="none" stroke="#191970" d="M668.2114,-263.9483C637.6843,-253.1669 603.4069,-241.061 573.7902,-230.6011"/>
<polygon fill="#191970" stroke="#191970" points="667.3856,-267.3684 677.9804,-267.3984 669.7167,-260.768 667.3856,-267.3684"/>
</g>
<!-- Node17&#45;&gt;Node18 -->
<g id="edge22" class="edge">
<title>Node17&#45;&gt;Node18</title>
<path fill="none" stroke="#191970" d="M812.4361,-262.7059C833.0539,-252.2203 855.884,-240.6096 875.6952,-230.5341"/>
<polygon fill="#191970" stroke="#191970" points="810.7721,-259.6255 803.4452,-267.2784 813.9454,-265.865 810.7721,-259.6255"/>
</g>
<!-- Node20 -->
<g id="node18" class="node">
<title>Node20</title>
<g id="a_node18"><a xlink:href="../../d5/d6c/GBTOutputHandler_8cxx.html" target="_top" xlink:title="MID GBT decoder output handler. ">
<polygon fill="none" stroke="#000000" points="651.886,-178.5 651.886,-230.5 799.886,-230.5 799.886,-178.5 651.886,-178.5"/>
<text text-anchor="start" x="659.886" y="-218.5" font-family="Helvetica,sans-Serif" font-size="10.00" fill="#000000">/home/travis/build</text>
<text text-anchor="start" x="659.886" y="-207.5" font-family="Helvetica,sans-Serif" font-size="10.00" fill="#000000">/AliceO2Group/AliceO2</text>
<text text-anchor="start" x="659.886" y="-196.5" font-family="Helvetica,sans-Serif" font-size="10.00" fill="#000000">/Detectors/MUON/MID/Raw</text>
<text text-anchor="middle" x="725.886" y="-185.5" font-family="Helvetica,sans-Serif" font-size="10.00" fill="#000000">/src/GBTOutputHandler.cxx</text>
</a>
</g>
</g>
<!-- Node17&#45;&gt;Node20 -->
<g id="edge29" class="edge">
<title>Node17&#45;&gt;Node20</title>
<path fill="none" stroke="#191970" d="M741.3416,-257.4059C738.7135,-248.4097 735.9465,-238.9379 733.4914,-230.5341"/>
<polygon fill="#191970" stroke="#191970" points="738.0619,-258.6611 744.2257,-267.2784 744.7811,-256.6982 738.0619,-258.6611"/>
</g>
<!-- Node18&#45;&gt;Node9 -->
<g id="edge24" class="edge">
<title>Node18&#45;&gt;Node9</title>
<path fill="none" stroke="#191970" d="M843.5435,-174.9483C813.1375,-164.1669 778.9961,-152.061 749.497,-141.6011"/>
<polygon fill="#191970" stroke="#191970" points="842.6789,-178.3552 853.2736,-178.3984 845.0183,-171.7576 842.6789,-178.3552"/>
</g>
<!-- Node18&#45;&gt;Node10 -->
<g id="edge23" class="edge">
<title>Node18&#45;&gt;Node10</title>
<path fill="none" stroke="#191970" d="M807.748,-177.8719C710.9828,-160.2808 680.7392,-174.5046 591.886,-142 587.8252,-140.5145 497.1468,-86.1749 441.2186,-52.5682"/>
<polygon fill="#191970" stroke="#191970" points="807.1651,-181.3236 817.6406,-179.7379 808.4627,-174.4449 807.1651,-181.3236"/>
</g>
<!-- Node18&#45;&gt;Node12 -->
<g id="edge26" class="edge">
<title>Node18&#45;&gt;Node12</title>
<path fill="none" stroke="#191970" d="M863.2239,-172.1949C852.6172,-163.8551 843.0686,-153.8207 836.886,-142 825.9687,-121.1271 826.7573,-110.2667 836.886,-89 843.7711,-74.5436 855.8157,-62.3423 868.3625,-52.6656"/>
<polygon fill="#191970" stroke="#191970" points="861.3636,-175.1704 871.5029,-178.2436 865.4931,-169.5182 861.3636,-175.1704"/>
</g>
<!-- Node18&#45;&gt;Node13 -->
<g id="edge27" class="edge">
<title>Node18&#45;&gt;Node13</title>
<path fill="none" stroke="#191970" d="M985.0174,-172.7728C997.8793,-163.9639 1010.6954,-153.5901 1020.886,-142 1044.2149,-115.4671 1060.4597,-77.6895 1069.4783,-52.6542"/>
<polygon fill="#191970" stroke="#191970" points="983.0074,-169.9057 976.5858,-178.3327 986.861,-175.7496 983.0074,-169.9057"/>
</g>
<!-- Node18&#45;&gt;Node14 -->
<g id="edge28" class="edge">
<title>Node18&#45;&gt;Node14</title>
<path fill="none" stroke="#191970" d="M873.2155,-172.8731C857.7059,-163.3106 840.9151,-152.5421 825.886,-142 794.8024,-120.1965 792.251,-107.1205 758.886,-89 740.8622,-79.2113 698.5468,-64.7133 658.9295,-52.1445"/>
<polygon fill="#191970" stroke="#191970" points="871.8191,-176.1217 882.1763,-178.3532 875.4712,-170.1499 871.8191,-176.1217"/>
</g>
<!-- Node19 -->
<g id="node17" class="node">
<title>Node19</title>
<g id="a_node17"><a xlink:href="../../d3/db3/GBTUserLogicDecoder_8cxx.html" target="_top" xlink:title="MID GBT decoder with user logic zero suppression. ">
<polygon fill="none" stroke="#000000" points="846.386,-89.5 846.386,-141.5 1011.386,-141.5 1011.386,-89.5 846.386,-89.5"/>
<text text-anchor="start" x="854.386" y="-129.5" font-family="Helvetica,sans-Serif" font-size="10.00" fill="#000000">/home/travis/build</text>
<text text-anchor="start" x="854.386" y="-118.5" font-family="Helvetica,sans-Serif" font-size="10.00" fill="#000000">/AliceO2Group/AliceO2</text>
<text text-anchor="start" x="854.386" y="-107.5" font-family="Helvetica,sans-Serif" font-size="10.00" fill="#000000">/Detectors/MUON/MID/Raw</text>
<text text-anchor="middle" x="928.886" y="-96.5" font-family="Helvetica,sans-Serif" font-size="10.00" fill="#000000">/src/GBTUserLogicDecoder.cxx</text>
</a>
</g>
</g>
<!-- Node18&#45;&gt;Node19 -->
<g id="edge25" class="edge">
<title>Node18&#45;&gt;Node19</title>
<path fill="none" stroke="#191970" d="M927.7036,-168.1155C927.9038,-159.2061 928.1141,-149.8475 928.3009,-141.5341"/>
<polygon fill="#191970" stroke="#191970" points="924.2009,-168.2023 927.4752,-178.2784 931.1991,-168.3596 924.2009,-168.2023"/>
</g>
<!-- Node21&#45;&gt;Node13 -->
<g id="edge38" class="edge">
<title>Node21&#45;&gt;Node13</title>
<path fill="none" stroke="#191970" d="M1121.8409,-171.6547C1112.2197,-163.0727 1103.1739,-153.0783 1096.886,-142 1081.1371,-114.253 1077.5591,-77.0983 1077.1469,-52.511"/>
<polygon fill="#191970" stroke="#191970" points="1119.7369,-174.4588 1129.6385,-178.2283 1124.2487,-169.1068 1119.7369,-174.4588"/>
</g>
<!-- Node22 -->
<g id="node20" class="node">
<title>Node22</title>
<g id="a_node20"><a xlink:href="../../d1/dcf/Detectors_2MUON_2MID_2Raw_2include_2MIDRaw_2Encoder_8h.html" target="_top" xlink:title="MID raw data encoder. ">
<polygon fill="none" stroke="#000000" points="1105.886,-89.5 1105.886,-141.5 1253.886,-141.5 1253.886,-89.5 1105.886,-89.5"/>
<text text-anchor="start" x="1113.886" y="-129.5" font-family="Helvetica,sans-Serif" font-size="10.00" fill="#000000">/home/travis/build</text>
<text text-anchor="start" x="1113.886" y="-118.5" font-family="Helvetica,sans-Serif" font-size="10.00" fill="#000000">/AliceO2Group/AliceO2</text>
<text text-anchor="start" x="1113.886" y="-107.5" font-family="Helvetica,sans-Serif" font-size="10.00" fill="#000000">/Detectors/MUON/MID/Raw</text>
<text text-anchor="middle" x="1179.886" y="-96.5" font-family="Helvetica,sans-Serif" font-size="10.00" fill="#000000">/include/MIDRaw/Encoder.h</text>
</a>
</g>
</g>
<!-- Node21&#45;&gt;Node22 -->
<g id="edge32" class="edge">
<title>Node21&#45;&gt;Node22</title>
<path fill="none" stroke="#191970" d="M1174.5653,-168.1155C1175.4662,-159.2061 1176.4126,-149.8475 1177.2533,-141.5341"/>
<polygon fill="#191970" stroke="#191970" points="1171.0615,-167.977 1173.5376,-178.2784 1178.026,-168.6813 1171.0615,-167.977"/>
</g>
<!-- Node25 -->
<g id="node23" class="node">
<title>Node25</title>
<g id="a_node23"><a xlink:href="../../dd/dd0/GBTUserLogicEncoder_8cxx.html" target="_top" xlink:title="Raw data encoder for MID CRU user logic. ">
<polygon fill="none" stroke="#000000" points="1271.886,-89.5 1271.886,-141.5 1435.886,-141.5 1435.886,-89.5 1271.886,-89.5"/>
<text text-anchor="start" x="1279.886" y="-129.5" font-family="Helvetica,sans-Serif" font-size="10.00" fill="#000000">/home/travis/build</text>
<text text-anchor="start" x="1279.886" y="-118.5" font-family="Helvetica,sans-Serif" font-size="10.00" fill="#000000">/AliceO2Group/AliceO2</text>
<text text-anchor="start" x="1279.886" y="-107.5" font-family="Helvetica,sans-Serif" font-size="10.00" fill="#000000">/Detectors/MUON/MID/Raw</text>
<text text-anchor="middle" x="1353.886" y="-96.5" font-family="Helvetica,sans-Serif" font-size="10.00" fill="#000000">/src/GBTUserLogicEncoder.cxx</text>
</a>
</g>
</g>
<!-- Node21&#45;&gt;Node25 -->
<g id="edge37" class="edge">
<title>Node21&#45;&gt;Node25</title>
<path fill="none" stroke="#191970" d="M1233.9142,-173.8469C1255.5503,-163.3245 1279.5452,-151.6548 1300.3551,-141.5341"/>
<polygon fill="#191970" stroke="#191970" points="1232.2643,-170.7573 1224.8022,-178.2784 1235.3259,-177.0523 1232.2643,-170.7573"/>
</g>
<!-- Node22&#45;&gt;Node12 -->
<g id="edge34" class="edge">
<title>Node22&#45;&gt;Node12</title>
<path fill="none" stroke="#191970" d="M1096.0792,-87.4594C1061.1187,-75.7621 1020.8795,-62.2986 987.1243,-51.0046"/>
<polygon fill="#191970" stroke="#191970" points="1095.1963,-90.8546 1105.7901,-90.7085 1097.4174,-84.2164 1095.1963,-90.8546"/>
</g>
<!-- Node22&#45;&gt;Node13 -->
<g id="edge35" class="edge">
<title>Node22&#45;&gt;Node13</title>
<path fill="none" stroke="#191970" d="M1142.1523,-82.5755C1130.7945,-72.6653 1118.4933,-61.9319 1107.7229,-52.5341"/>
<polygon fill="#191970" stroke="#191970" points="1139.9982,-85.341 1149.8343,-89.2784 1144.6005,-80.0666 1139.9982,-85.341"/>
</g>
<!-- Node23 -->
<g id="node21" class="node">
<title>Node23</title>
<g id="a_node21"><a xlink:href="../../d8/dc6/MUON_2MID_2Raw_2src_2Encoder_8cxx.html" target="_top" xlink:title="MID raw data encoder. ">
<polygon fill="none" stroke="#000000" points="1168.886,-.5 1168.886,-52.5 1314.886,-52.5 1314.886,-.5 1168.886,-.5"/>
<text text-anchor="start" x="1176.886" y="-40.5" font-family="Helvetica,sans-Serif" font-size="10.00" fill="#000000">/home/travis/build</text>
<text text-anchor="start" x="1176.886" y="-29.5" font-family="Helvetica,sans-Serif" font-size="10.00" fill="#000000">/AliceO2Group/AliceO2</text>
<text text-anchor="start" x="1176.886" y="-18.5" font-family="Helvetica,sans-Serif" font-size="10.00" fill="#000000">/Detectors/MUON/MID/Raw</text>
<text text-anchor="middle" x="1241.886" y="-7.5" font-family="Helvetica,sans-Serif" font-size="10.00" fill="#000000">/src/Encoder.cxx</text>
</a>
</g>
</g>
<!-- Node22&#45;&gt;Node23 -->
<g id="edge33" class="edge">
<title>Node22&#45;&gt;Node23</title>
<path fill="none" stroke="#191970" d="M1204.0224,-80.8525C1210.5855,-71.4313 1217.5808,-61.3897 1223.7498,-52.5341"/>
<polygon fill="#191970" stroke="#191970" points="1200.9969,-79.0725 1198.1527,-89.2784 1206.7406,-83.0738 1200.9969,-79.0725"/>
</g>
<!-- Node24 -->
<g id="node22" class="node">
<title>Node24</title>
<g id="a_node22"><a xlink:href="../../db/dd6/RawWriterSpec_8cxx.html" target="_top" xlink:title="Digits to raw converter spec for MID. ">
<polygon fill="none" stroke="#000000" points="1332.886,-.5 1332.886,-52.5 1502.886,-52.5 1502.886,-.5 1332.886,-.5"/>
<text text-anchor="start" x="1340.886" y="-40.5" font-family="Helvetica,sans-Serif" font-size="10.00" fill="#000000">/home/travis/build</text>
<text text-anchor="start" x="1340.886" y="-29.5" font-family="Helvetica,sans-Serif" font-size="10.00" fill="#000000">/AliceO2Group/AliceO2</text>
<text text-anchor="start" x="1340.886" y="-18.5" font-family="Helvetica,sans-Serif" font-size="10.00" fill="#000000">/Detectors/MUON/MID/Workflow</text>
<text text-anchor="middle" x="1417.886" y="-7.5" font-family="Helvetica,sans-Serif" font-size="10.00" fill="#000000">/src/RawWriterSpec.cxx</text>
</a>
</g>
</g>
<!-- Node22&#45;&gt;Node24 -->
<g id="edge36" class="edge">
<title>Node22&#45;&gt;Node24</title>
<path fill="none" stroke="#191970" d="M1259.2865,-85.8082C1288.0233,-75.0621 1320.2373,-63.0157 1348.0875,-52.6011"/>
<polygon fill="#191970" stroke="#191970" points="1257.8263,-82.6175 1249.6857,-89.3984 1260.2782,-89.174 1257.8263,-82.6175"/>
</g>
</g>
</svg>
        <g id="navigator" transform="translate(0 0)" fill="#404254">
                <rect fill="#f2f5e9" fill-opacity="0.5" stroke="#606060" stroke-width=".5" x="0" y="0" width="60" height="60"/>
                <use id="zoomplus" xlink:href="#zoomPlus" x="17" y="9" onmousedown="handleZoom(evt,'in')"/>
                <use id="zoomminus" xlink:href="#zoomMin" x="42" y="9" onmousedown="handleZoom(evt,'out')"/>
                <use id="reset" xlink:href="#resetDef" x="30" y="36" onmousedown="handleReset()"/>
                <g id="arrowUp" xlink:href="#dirArrow" transform="translate(30 24)" onmousedown="handlePan(0,-1)">
                  <use xlink:href="#rim" fill="#404040">
                        <set attributeName="fill" to="#808080" begin="arrowUp.mouseover" end="arrowUp.mouseout"/>
                  </use>
                  <path fill="none" stroke="white" stroke-width="1.5" d="M0,-3.0v7 M-2.5,-0.5L0,-3.0L2.5,-0.5"/>
                </g>
                <g id="arrowRight" xlink:href="#dirArrow" transform="rotate(90) translate(36 -43)" onmousedown="handlePan(1,0)">
                  <use xlink:href="#rim" fill="#404040">
                        <set attributeName="fill" to="#808080" begin="arrowRight.mouseover" end="arrowRight.mouseout"/>
                  </use>
                  <path fill="none" stroke="white" stroke-width="1.5" d="M0,-3.0v7 M-2.5,-0.5L0,-3.0L2.5,-0.5"/>
                </g>
                <g id="arrowDown" xlink:href="#dirArrow" transform="rotate(180) translate(-30 -48)" onmousedown="handlePan(0,1)">
                  <use xlink:href="#rim" fill="#404040">
                        <set attributeName="fill" to="#808080" begin="arrowDown.mouseover" end="arrowDown.mouseout"/>
                  </use>
                  <path fill="none" stroke="white" stroke-width="1.5" d="M0,-3.0v7 M-2.5,-0.5L0,-3.0L2.5,-0.5"/>
                </g>
                <g id="arrowLeft" xlink:href="#dirArrow" transform="rotate(270) translate(-36 17)" onmousedown="handlePan(-1,0)">
                  <use xlink:href="#rim" fill="#404040">
                        <set attributeName="fill" to="#808080" begin="arrowLeft.mouseover" end="arrowLeft.mouseout"/>
                  </use>
                  <path fill="none" stroke="white" stroke-width="1.5" d="M0,-3.0v7 M-2.5,-0.5L0,-3.0L2.5,-0.5"/>
                </g>
        </g>
        <svg viewBox="0 0 15 15" width="100%" height="30px" preserveAspectRatio="xMaxYMin meet">
         <g id="arrow_out" transform="scale(0.3 0.3)">
          <a xlink:href="ElectronicsDelay_8h__dep__incl_org.svg" target="_base">
           <rect id="button" ry="5" rx="5" y="6" x="6" height="38" width="38"
                fill="#f2f5e9" fill-opacity="0.5" stroke="#606060" stroke-width="1.0"/>
           <path id="arrow"
             d="M 11.500037,31.436501 C 11.940474,20.09759 22.043105,11.32322 32.158766,21.979434 L 37.068811,17.246167 C 37.068811,17.246167 37.088388,32 37.088388,32 L 22.160133,31.978069 C 22.160133,31.978069 26.997745,27.140456 26.997745,27.140456 C 18.528582,18.264221 13.291696,25.230495 11.500037,31.436501 z"
             style="fill:#404040;"/>
          </a>
         </g>
        </svg>
</svg>
