<?xml version="1.0" encoding="UTF-8" standalone="no"?>
<!DOCTYPE svg PUBLIC "-//W3C//DTD SVG 1.1//EN"
 "http://www.w3.org/Graphics/SVG/1.1/DTD/svg11.dtd">
<!-- Generated by graphviz version 2.40.1 (20161225.0304)
 -->
<!-- Title: /home/travis/build/AliceO2Group/AliceO2/Detectors/ITSMFT/common/base/src/GeometryTGeo.cxx Pages: 1 -->
<!--zoomable 542 -->
<svg id="main" version="1.1" xmlns="http://www.w3.org/2000/svg" xmlns:xlink="http://www.w3.org/1999/xlink" xml:space="preserve" onload="init(evt)">
<style type="text/css"><![CDATA[
.edge:hover path { stroke: red; }
.edge:hover polygon { stroke: red; fill: red; }
]]></style>
<script type="text/javascript"><![CDATA[
var edges = document.getElementsByTagName('g');
if (edges && edges.length) {
  for (var i=0;i<edges.length;i++) {
    if (edges[i].id.substr(0,4)=='edge') {
      edges[i].setAttribute('class','edge');
    }
  }
}
]]></script>
        <defs>
                <circle id="rim" cx="0" cy="0" r="7"/>
                <circle id="rim2" cx="0" cy="0" r="3.5"/>
                <g id="zoomPlus">
                        <use xlink:href="#rim" fill="#404040">
                                <set attributeName="fill" to="#808080" begin="zoomplus.mouseover" end="zoomplus.mouseout"/>
                        </use>
                        <path d="M-4,0h8M0,-4v8" fill="none" stroke="white" stroke-width="1.5" pointer-events="none"/>
                </g>
                <g id="zoomMin">
                        <use xlink:href="#rim" fill="#404040">
                                <set attributeName="fill" to="#808080" begin="zoomminus.mouseover" end="zoomminus.mouseout"/>
                        </use>
                        <path d="M-4,0h8" fill="none" stroke="white" stroke-width="1.5" pointer-events="none"/>
                </g>
                <g id="dirArrow">
                        <path fill="none" stroke="white" stroke-width="1.5" d="M0,-3.0v7 M-2.5,-0.5L0,-3.0L2.5,-0.5"/>
                </g>
               <g id="resetDef">
                       <use xlink:href="#rim2" fill="#404040">
                               <set attributeName="fill" to="#808080" begin="reset.mouseover" end="reset.mouseout"/>
                       </use>
               </g>
        </defs>

<script type="text/javascript">
var viewWidth = 2788;
var viewHeight = 542;
var sectionId = 'dynsection-0';
</script>
<script xlink:href="../../svgpan.js"/>
<svg id="graph" class="graph">
<g id="viewport">
<title>/home/travis/build/AliceO2Group/AliceO2/Detectors/ITSMFT/common/base/src/GeometryTGeo.cxx</title>
<!-- Node0 -->
<g id="node1" class="node">
<title>Node0</title>
<polygon fill="#bfbfbf" stroke="#000000" points="406,-481.5 406,-533.5 564,-533.5 564,-481.5 406,-481.5"/>
<text text-anchor="start" x="414" y="-521.5" font-family="Helvetica,sans-Serif" font-size="10.00" fill="#000000">/home/travis/build</text>
<text text-anchor="start" x="414" y="-510.5" font-family="Helvetica,sans-Serif" font-size="10.00" fill="#000000">/AliceO2Group/AliceO2</text>
<text text-anchor="start" x="414" y="-499.5" font-family="Helvetica,sans-Serif" font-size="10.00" fill="#000000">/Detectors/ITSMFT/common</text>
<text text-anchor="middle" x="485" y="-488.5" font-family="Helvetica,sans-Serif" font-size="10.00" fill="#000000">/base/src/GeometryTGeo.cxx</text>
</g>
<!-- Node1 -->
<g id="node2" class="node">
<title>Node1</title>
<g id="a_node2"><a xlink:href="../../d4/d5c/ITSMFT_2common_2base_2include_2ITSMFTBase_2GeometryTGeo_8h.html" target="_top" xlink:title="ITSMFTBase/GeometryTGeo.h">
<polygon fill="none" stroke="#000000" points="404.5,-425.5 404.5,-444.5 565.5,-444.5 565.5,-425.5 404.5,-425.5"/>
<text text-anchor="middle" x="485" y="-432.5" font-family="Helvetica,sans-Serif" font-size="10.00" fill="#000000">ITSMFTBase/GeometryTGeo.h</text>
</a>
</g>
</g>
<!-- Node0&#45;&gt;Node1 -->
<g id="edge1" class="edge">
<title>Node0&#45;&gt;Node1</title>
<path fill="none" stroke="#191970" d="M485,-481.3258C485,-472.5142 485,-462.8397 485,-454.621"/>
<polygon fill="#191970" stroke="#191970" points="488.5001,-454.534 485,-444.534 481.5001,-454.534 488.5001,-454.534"/>
</g>
<!-- Node2 -->
<g id="node3" class="node">
<title>Node2</title>
<polygon fill="none" stroke="#bfbfbf" points="383.5,-364 383.5,-383 456.5,-383 456.5,-364 383.5,-364"/>
<text text-anchor="middle" x="420" y="-371" font-family="Helvetica,sans-Serif" font-size="10.00" fill="#000000">TObjArray.h</text>
</g>
<!-- Node1&#45;&gt;Node2 -->
<g id="edge2" class="edge">
<title>Node1&#45;&gt;Node2</title>
<path fill="none" stroke="#191970" d="M474.8438,-425.3906C464.9801,-416.0581 449.7945,-401.6902 437.9013,-390.4374"/>
<polygon fill="#191970" stroke="#191970" points="439.9689,-387.5753 430.2994,-383.2449 435.1579,-392.6601 439.9689,-387.5753"/>
</g>
<!-- Node3 -->
<g id="node4" class="node">
<title>Node3</title>
<polygon fill="none" stroke="#bfbfbf" points="623,-168.5 623,-187.5 667,-187.5 667,-168.5 623,-168.5"/>
<text text-anchor="middle" x="645" y="-175.5" font-family="Helvetica,sans-Serif" font-size="10.00" fill="#000000">string</text>
</g>
<!-- Node1&#45;&gt;Node3 -->
<g id="edge3" class="edge">
<title>Node1&#45;&gt;Node3</title>
<path fill="none" stroke="#191970" d="M482.5147,-425.2567C474.8173,-392.6387 454.7316,-285.8535 504,-224 504.8869,-222.8865 571.8858,-201.3437 613.1976,-188.1393"/>
<polygon fill="#191970" stroke="#191970" points="614.3799,-191.4359 622.841,-185.0593 612.2501,-184.7678 614.3799,-191.4359"/>
</g>
<!-- Node4 -->
<g id="node5" class="node">
<title>Node4</title>
<g id="a_node5"><a xlink:href="../../d4/d20/DetMatrixCache_8h.html" target="_top" xlink:title="DetectorsCommonDataFormats\l/DetMatrixCache.h">
<polygon fill="none" stroke="#000000" points="1489.5,-358.5 1489.5,-388.5 1660.5,-388.5 1660.5,-358.5 1489.5,-358.5"/>
<text text-anchor="start" x="1497.5" y="-376.5" font-family="Helvetica,sans-Serif" font-size="10.00" fill="#000000">DetectorsCommonDataFormats</text>
<text text-anchor="middle" x="1575" y="-365.5" font-family="Helvetica,sans-Serif" font-size="10.00" fill="#000000">/DetMatrixCache.h</text>
</a>
</g>
</g>
<!-- Node1&#45;&gt;Node4 -->
<g id="edge4" class="edge">
<title>Node1&#45;&gt;Node4</title>
<path fill="none" stroke="#191970" d="M565.593,-430.4528C762.4525,-419.3456 1267.1283,-390.8707 1479.0376,-378.9144"/>
<polygon fill="#191970" stroke="#191970" points="1479.4239,-382.3983 1489.2108,-378.3404 1479.0295,-375.4094 1479.4239,-382.3983"/>
</g>
<!-- Node5 -->
<g id="node6" class="node">
<title>Node5</title>
<g id="a_node6"><a xlink:href="../../df/d5b/GPUCommonLogger_8h.html" target="_top" xlink:title="GPUCommonLogger.h">
<polygon fill="none" stroke="#000000" points="2595.5,-297 2595.5,-316 2718.5,-316 2718.5,-297 2595.5,-297"/>
<text text-anchor="middle" x="2657" y="-304" font-family="Helvetica,sans-Serif" font-size="10.00" fill="#000000">GPUCommonLogger.h</text>
</a>
</g>
</g>
<!-- Node4&#45;&gt;Node5 -->
<g id="edge5" class="edge">
<title>Node4&#45;&gt;Node5</title>
<path fill="none" stroke="#191970" d="M1660.8071,-368.1866C1868.0499,-355.3537 2392.9307,-322.8518 2585.0909,-310.9528"/>
<polygon fill="#191970" stroke="#191970" points="2585.5909,-314.4286 2595.3555,-310.3172 2585.1582,-307.442 2585.5909,-314.4286"/>
</g>
<!-- Node8 -->
<g id="node9" class="node">
<title>Node8</title>
<g id="a_node9"><a xlink:href="../../d2/d45/GPUCommonRtypes_8h.html" target="_top" xlink:title="GPUCommonRtypes.h">
<polygon fill="none" stroke="#000000" points="1195.5,-297 1195.5,-316 1320.5,-316 1320.5,-297 1195.5,-297"/>
<text text-anchor="middle" x="1258" y="-304" font-family="Helvetica,sans-Serif" font-size="10.00" fill="#000000">GPUCommonRtypes.h</text>
</a>
</g>
</g>
<!-- Node4&#45;&gt;Node8 -->
<g id="edge8" class="edge">
<title>Node4&#45;&gt;Node8</title>
<path fill="none" stroke="#191970" d="M1503.859,-358.4639C1446.0666,-346.2491 1365.74,-329.2716 1312.8447,-318.0918"/>
<polygon fill="#191970" stroke="#191970" points="1313.4804,-314.6489 1302.9728,-316.0053 1312.0328,-321.4976 1313.4804,-314.6489"/>
</g>
<!-- Node10 -->
<g id="node11" class="node">
<title>Node10</title>
<polygon fill="none" stroke="#bfbfbf" points="1384,-112.5 1384,-131.5 1426,-131.5 1426,-112.5 1384,-112.5"/>
<text text-anchor="middle" x="1405" y="-119.5" font-family="Helvetica,sans-Serif" font-size="10.00" fill="#000000">array</text>
</g>
<!-- Node4&#45;&gt;Node10 -->
<g id="edge10" class="edge">
<title>Node4&#45;&gt;Node10</title>
<path fill="none" stroke="#191970" d="M1660.5293,-371.9131C1919.8709,-366.8082 2682.5165,-349.5209 2728,-322 2768.1073,-297.732 2798.8859,-258.3631 2767,-224 2720.1314,-173.4902 1635.2259,-130.6027 1436.2091,-123.1463"/>
<polygon fill="#191970" stroke="#191970" points="1436.2592,-119.6459 1426.1358,-122.7709 1435.9984,-126.641 1436.2592,-119.6459"/>
</g>
<!-- Node11 -->
<g id="node12" class="node">
<title>Node11</title>
<polygon fill="none" stroke="#bfbfbf" points="1654.5,-297 1654.5,-316 1701.5,-316 1701.5,-297 1654.5,-297"/>
<text text-anchor="middle" x="1678" y="-304" font-family="Helvetica,sans-Serif" font-size="10.00" fill="#000000">vector</text>
</g>
<!-- Node4&#45;&gt;Node11 -->
<g id="edge11" class="edge">
<title>Node4&#45;&gt;Node11</title>
<path fill="none" stroke="#191970" d="M1598.1152,-358.4639C1614.9302,-347.526 1637.6163,-332.769 1654.5162,-321.7759"/>
<polygon fill="#191970" stroke="#191970" points="1656.7616,-324.4906 1663.2358,-316.1039 1652.9447,-318.6228 1656.7616,-324.4906"/>
</g>
<!-- Node12 -->
<g id="node13" class="node">
<title>Node12</title>
<g id="a_node13"><a xlink:href="../../dc/d73/Cartesian_8h.html" target="_top" xlink:title="MathUtils/Cartesian.h">
<polygon fill="none" stroke="#000000" points="1514,-297 1514,-316 1636,-316 1636,-297 1514,-297"/>
<text text-anchor="middle" x="1575" y="-304" font-family="Helvetica,sans-Serif" font-size="10.00" fill="#000000">MathUtils/Cartesian.h</text>
</a>
</g>
</g>
<!-- Node4&#45;&gt;Node12 -->
<g id="edge12" class="edge">
<title>Node4&#45;&gt;Node12</title>
<path fill="none" stroke="#191970" d="M1575,-358.2967C1575,-348.7699 1575,-336.3954 1575,-326.1306"/>
<polygon fill="#191970" stroke="#191970" points="1578.5001,-326.0549 1575,-316.055 1571.5001,-326.055 1578.5001,-326.0549"/>
</g>
<!-- Node22 -->
<g id="node23" class="node">
<title>Node22</title>
<g id="a_node23"><a xlink:href="../../d6/d31/DetID_8h.html" target="_top" xlink:title="DetectorsCommonDataFormats\l/DetID.h">
<polygon fill="none" stroke="#000000" points="716.5,-291.5 716.5,-321.5 887.5,-321.5 887.5,-291.5 716.5,-291.5"/>
<text text-anchor="start" x="724.5" y="-309.5" font-family="Helvetica,sans-Serif" font-size="10.00" fill="#000000">DetectorsCommonDataFormats</text>
<text text-anchor="middle" x="802" y="-298.5" font-family="Helvetica,sans-Serif" font-size="10.00" fill="#000000">/DetID.h</text>
</a>
</g>
</g>
<!-- Node4&#45;&gt;Node22 -->
<g id="edge23" class="edge">
<title>Node4&#45;&gt;Node22</title>
<path fill="none" stroke="#191970" d="M1489.322,-366.0738C1343.9768,-353.476 1050.0965,-328.0038 898.0212,-314.8227"/>
<polygon fill="#191970" stroke="#191970" points="898.0315,-311.3105 887.7666,-313.9338 897.427,-318.2844 898.0315,-311.3105"/>
</g>
<!-- Node6 -->
<g id="node7" class="node">
<title>Node6</title>
<polygon fill="none" stroke="#bfbfbf" points="2698,-230 2698,-249 2758,-249 2758,-230 2698,-230"/>
<text text-anchor="middle" x="2728" y="-237" font-family="Helvetica,sans-Serif" font-size="10.00" fill="#000000">iostream</text>
</g>
<!-- Node5&#45;&gt;Node6 -->
<g id="edge6" class="edge">
<title>Node5&#45;&gt;Node6</title>
<path fill="none" stroke="#191970" d="M2667.1726,-296.9005C2678.4553,-286.2535 2696.8601,-268.8856 2710.4742,-256.0385"/>
<polygon fill="#191970" stroke="#191970" points="2712.9754,-258.4905 2717.8463,-249.0817 2708.1712,-253.3994 2712.9754,-258.4905"/>
</g>
<!-- Node7 -->
<g id="node8" class="node">
<title>Node7</title>
<polygon fill="none" stroke="#bfbfbf" points="2634,-230 2634,-249 2680,-249 2680,-230 2634,-230"/>
<text text-anchor="middle" x="2657" y="-237" font-family="Helvetica,sans-Serif" font-size="10.00" fill="#000000">cstdio</text>
</g>
<!-- Node5&#45;&gt;Node7 -->
<g id="edge7" class="edge">
<title>Node5&#45;&gt;Node7</title>
<path fill="none" stroke="#191970" d="M2657,-296.9005C2657,-287.149 2657,-271.7597 2657,-259.3695"/>
<polygon fill="#191970" stroke="#191970" points="2660.5001,-259.0816 2657,-249.0817 2653.5001,-259.0817 2660.5001,-259.0816"/>
</g>
<!-- Node9 -->
<g id="node10" class="node">
<title>Node9</title>
<polygon fill="none" stroke="#bfbfbf" points="1052.5,-230 1052.5,-249 1111.5,-249 1111.5,-230 1052.5,-230"/>
<text text-anchor="middle" x="1082" y="-237" font-family="Helvetica,sans-Serif" font-size="10.00" fill="#000000">Rtypes.h</text>
</g>
<!-- Node8&#45;&gt;Node9 -->
<g id="edge9" class="edge">
<title>Node8&#45;&gt;Node9</title>
<path fill="none" stroke="#191970" d="M1232.1902,-296.9618C1204.6091,-286.7307 1159.631,-269.9361 1121,-255 1119.1652,-254.2906 1117.2835,-253.5584 1115.3854,-252.8161"/>
<polygon fill="#191970" stroke="#191970" points="1116.4843,-249.4873 1105.8973,-249.0796 1113.9193,-256.0005 1116.4843,-249.4873"/>
</g>
<!-- Node12&#45;&gt;Node9 -->
<g id="edge20" class="edge">
<title>Node12&#45;&gt;Node9</title>
<path fill="none" stroke="#191970" d="M1513.8698,-304.6961C1425.8168,-300.9488 1258.7299,-289.5269 1121,-255 1118.2173,-254.3024 1115.3679,-253.4527 1112.5383,-252.5142"/>
<polygon fill="#191970" stroke="#191970" points="1113.713,-249.2172 1103.1191,-249.0733 1111.311,-255.7922 1113.713,-249.2172"/>
</g>
<!-- Node13 -->
<g id="node14" class="node">
<title>Node13</title>
<polygon fill="none" stroke="#bfbfbf" points="1298,-224.5 1298,-254.5 1462,-254.5 1462,-224.5 1298,-224.5"/>
<text text-anchor="start" x="1306" y="-242.5" font-family="Helvetica,sans-Serif" font-size="10.00" fill="#000000">Math/GenVector/Displacement</text>
<text text-anchor="middle" x="1380" y="-231.5" font-family="Helvetica,sans-Serif" font-size="10.00" fill="#000000">Vector3D.h</text>
</g>
<!-- Node12&#45;&gt;Node13 -->
<g id="edge13" class="edge">
<title>Node12&#45;&gt;Node13</title>
<path fill="none" stroke="#191970" d="M1547.0613,-296.9005C1517.4796,-286.7366 1470.0721,-270.4479 1433.3023,-257.8141"/>
<polygon fill="#191970" stroke="#191970" points="1434.3147,-254.4612 1423.7201,-254.5218 1432.0401,-261.0813 1434.3147,-254.4612"/>
</g>
<!-- Node14 -->
<g id="node15" class="node">
<title>Node14</title>
<polygon fill="none" stroke="#bfbfbf" points="1480.5,-230 1480.5,-249 1669.5,-249 1669.5,-230 1480.5,-230"/>
<text text-anchor="middle" x="1575" y="-237" font-family="Helvetica,sans-Serif" font-size="10.00" fill="#000000">Math/GenVector/PositionVector3D.h</text>
</g>
<!-- Node12&#45;&gt;Node14 -->
<g id="edge14" class="edge">
<title>Node12&#45;&gt;Node14</title>
<path fill="none" stroke="#191970" d="M1575,-296.9005C1575,-287.149 1575,-271.7597 1575,-259.3695"/>
<polygon fill="#191970" stroke="#191970" points="1578.5001,-259.0816 1575,-249.0817 1571.5001,-259.0817 1578.5001,-259.0816"/>
</g>
<!-- Node15 -->
<g id="node16" class="node">
<title>Node15</title>
<polygon fill="none" stroke="#bfbfbf" points="1688,-230 1688,-249 1848,-249 1848,-230 1688,-230"/>
<text text-anchor="middle" x="1768" y="-237" font-family="Helvetica,sans-Serif" font-size="10.00" fill="#000000">Math/GenVector/Rotation3D.h</text>
</g>
<!-- Node12&#45;&gt;Node15 -->
<g id="edge15" class="edge">
<title>Node12&#45;&gt;Node15</title>
<path fill="none" stroke="#191970" d="M1602.6522,-296.9005C1636.3318,-285.2086 1693.3574,-265.4122 1730.8472,-252.3976"/>
<polygon fill="#191970" stroke="#191970" points="1732.1,-255.6677 1740.3991,-249.0817 1729.8043,-249.0548 1732.1,-255.6677"/>
</g>
<!-- Node16 -->
<g id="node17" class="node">
<title>Node16</title>
<polygon fill="none" stroke="#bfbfbf" points="1866,-230 1866,-249 2034,-249 2034,-230 1866,-230"/>
<text text-anchor="middle" x="1950" y="-237" font-family="Helvetica,sans-Serif" font-size="10.00" fill="#000000">Math/GenVector/Transform3D.h</text>
</g>
<!-- Node12&#45;&gt;Node16 -->
<g id="edge16" class="edge">
<title>Node12&#45;&gt;Node16</title>
<path fill="none" stroke="#191970" d="M1616.9808,-296.9922C1626.5045,-294.9309 1636.5864,-292.8239 1646,-291 1668.7963,-286.5833 1800.3459,-264.495 1882.7537,-250.7192"/>
<polygon fill="#191970" stroke="#191970" points="1883.5109,-254.1413 1892.7972,-249.0408 1882.3571,-247.2371 1883.5109,-254.1413"/>
</g>
<!-- Node17 -->
<g id="node18" class="node">
<title>Node17</title>
<polygon fill="none" stroke="#bfbfbf" points="2052.5,-230 2052.5,-249 2225.5,-249 2225.5,-230 2052.5,-230"/>
<text text-anchor="middle" x="2139" y="-237" font-family="Helvetica,sans-Serif" font-size="10.00" fill="#000000">Math/GenVector/Translation3D.h</text>
</g>
<!-- Node12&#45;&gt;Node17 -->
<g id="edge17" class="edge">
<title>Node12&#45;&gt;Node17</title>
<path fill="none" stroke="#191970" d="M1614.6413,-296.9329C1624.8153,-294.7293 1635.7747,-292.5735 1646,-291 1821.1073,-264.054 1867.2196,-277.1332 2043,-255 2053.1548,-253.7214 2063.8839,-252.1791 2074.3457,-250.5697"/>
<polygon fill="#191970" stroke="#191970" points="2074.9304,-254.0208 2084.2667,-249.0125 2073.8449,-247.1055 2074.9304,-254.0208"/>
</g>
<!-- Node18 -->
<g id="node19" class="node">
<title>Node18</title>
<polygon fill="none" stroke="#bfbfbf" points="2244,-224.5 2244,-254.5 2408,-254.5 2408,-224.5 2244,-224.5"/>
<text text-anchor="start" x="2252" y="-242.5" font-family="Helvetica,sans-Serif" font-size="10.00" fill="#000000">Math/GenVector/Displacement</text>
<text text-anchor="middle" x="2326" y="-231.5" font-family="Helvetica,sans-Serif" font-size="10.00" fill="#000000">Vector2D.h</text>
</g>
<!-- Node12&#45;&gt;Node18 -->
<g id="edge18" class="edge">
<title>Node12&#45;&gt;Node18</title>
<path fill="none" stroke="#191970" d="M1613.4973,-296.9662C1623.982,-294.6795 1635.3777,-292.4752 1646,-291 1902.4754,-255.3823 1972.6875,-284.3077 2233.5584,-255.0801"/>
<polygon fill="#191970" stroke="#191970" points="2234.1772,-258.5323 2243.717,-253.9235 2233.3853,-251.5773 2234.1772,-258.5323"/>
</g>
<!-- Node19 -->
<g id="node20" class="node">
<title>Node19</title>
<polygon fill="none" stroke="#bfbfbf" points="2426.5,-230 2426.5,-249 2615.5,-249 2615.5,-230 2426.5,-230"/>
<text text-anchor="middle" x="2521" y="-237" font-family="Helvetica,sans-Serif" font-size="10.00" fill="#000000">Math/GenVector/PositionVector2D.h</text>
</g>
<!-- Node12&#45;&gt;Node19 -->
<g id="edge19" class="edge">
<title>Node12&#45;&gt;Node19</title>
<path fill="none" stroke="#191970" d="M1613.1139,-296.9446C1623.6998,-294.6288 1635.2423,-292.4152 1646,-291 1986.1098,-246.2588 2075.5827,-288.3265 2417,-255 2428.9941,-253.8292 2441.7182,-252.2315 2453.9981,-250.505"/>
<polygon fill="#191970" stroke="#191970" points="2454.7875,-253.9273 2464.1831,-249.0309 2453.7848,-246.9995 2454.7875,-253.9273"/>
</g>
<!-- Node20 -->
<g id="node21" class="node">
<title>Node20</title>
<polygon fill="none" stroke="#bfbfbf" points="1130,-230 1130,-249 1212,-249 1212,-230 1130,-230"/>
<text text-anchor="middle" x="1171" y="-237" font-family="Helvetica,sans-Serif" font-size="10.00" fill="#000000">TGeoMatrix.h</text>
</g>
<!-- Node12&#45;&gt;Node20 -->
<g id="edge21" class="edge">
<title>Node12&#45;&gt;Node20</title>
<path fill="none" stroke="#191970" d="M1513.7079,-300.5226C1442.6998,-292.9214 1322.4612,-277.959 1221,-255 1217.0735,-254.1115 1213.0088,-253.0664 1208.9713,-251.9455"/>
<polygon fill="#191970" stroke="#191970" points="1209.666,-248.502 1199.0853,-249.0491 1207.6978,-255.2196 1209.666,-248.502"/>
</g>
<!-- Node21 -->
<g id="node22" class="node">
<title>Node21</title>
<polygon fill="none" stroke="#bfbfbf" points="1230.5,-230 1230.5,-249 1279.5,-249 1279.5,-230 1230.5,-230"/>
<text text-anchor="middle" x="1255" y="-237" font-family="Helvetica,sans-Serif" font-size="10.00" fill="#000000">iosfwd</text>
</g>
<!-- Node12&#45;&gt;Node21 -->
<g id="edge22" class="edge">
<title>Node12&#45;&gt;Node21</title>
<path fill="none" stroke="#191970" d="M1513.965,-299.9881C1455.3297,-292.6914 1364.7219,-278.6683 1289,-255 1287.096,-254.4049 1285.1589,-253.7291 1283.224,-253.0006"/>
<polygon fill="#191970" stroke="#191970" points="1284.3099,-249.6615 1273.7328,-249.0484 1281.619,-256.1236 1284.3099,-249.6615"/>
</g>
<!-- Node22&#45;&gt;Node3 -->
<g id="edge30" class="edge">
<title>Node22&#45;&gt;Node3</title>
<path fill="none" stroke="#191970" d="M794.4911,-291.2889C784.9168,-273.2101 766.8317,-243.0948 744,-224 724.26,-207.4909 697.6094,-195.5538 676.9321,-187.9831"/>
<polygon fill="#191970" stroke="#191970" points="677.9126,-184.6181 667.3178,-184.6164 675.5991,-191.2248 677.9126,-184.6181"/>
</g>
<!-- Node22&#45;&gt;Node9 -->
<g id="edge24" class="edge">
<title>Node22&#45;&gt;Node9</title>
<path fill="none" stroke="#191970" d="M882.6272,-291.4801C928.5159,-282.2913 986.8685,-269.5247 1038,-255 1040.9435,-254.1639 1043.9764,-253.2369 1047.0085,-252.2642"/>
<polygon fill="#191970" stroke="#191970" points="1048.2095,-255.5531 1056.5787,-249.0564 1045.9848,-248.916 1048.2095,-255.5531"/>
</g>
<!-- Node22&#45;&gt;Node10 -->
<g id="edge25" class="edge">
<title>Node22&#45;&gt;Node10</title>
<path fill="none" stroke="#191970" d="M887.8022,-292.1927C924.1787,-284.1726 966.3196,-272.2228 1002,-255 1022.5733,-245.0694 1021.7511,-232.3882 1043,-224 1114.2873,-195.8585 1327.2603,-237.2288 1386,-188 1399.2539,-176.8921 1403.5885,-157.1871 1404.856,-142.1911"/>
<polygon fill="#191970" stroke="#191970" points="1408.3677,-142.0102 1405.3243,-131.8619 1401.3749,-141.6931 1408.3677,-142.0102"/>
</g>
<!-- Node23 -->
<g id="node24" class="node">
<title>Node23</title>
<polygon fill="none" stroke="#bfbfbf" points="513,-230 513,-249 557,-249 557,-230 513,-230"/>
<text text-anchor="middle" x="535" y="-237" font-family="Helvetica,sans-Serif" font-size="10.00" fill="#000000">bitset</text>
</g>
<!-- Node22&#45;&gt;Node23 -->
<g id="edge26" class="edge">
<title>Node22&#45;&gt;Node23</title>
<path fill="none" stroke="#191970" d="M716.4766,-293.1414C671.0226,-284.7247 614.6419,-272.1654 566,-255 564.5814,-254.4994 563.1443,-253.9488 561.7057,-253.3626"/>
<polygon fill="#191970" stroke="#191970" points="562.9264,-250.0732 552.3733,-249.1336 560.0371,-256.4491 562.9264,-250.0732"/>
</g>
<!-- Node24 -->
<g id="node25" class="node">
<title>Node24</title>
<polygon fill="none" stroke="#bfbfbf" points="1325,-168.5 1325,-187.5 1377,-187.5 1377,-168.5 1325,-168.5"/>
<text text-anchor="middle" x="1351" y="-175.5" font-family="Helvetica,sans-Serif" font-size="10.00" fill="#000000">cassert</text>
</g>
<!-- Node22&#45;&gt;Node24 -->
<g id="edge27" class="edge">
<title>Node22&#45;&gt;Node24</title>
<path fill="none" stroke="#191970" d="M865.6742,-291.4493C896.8037,-282.8665 934.2966,-270.6688 966,-255 987.4455,-244.401 987.6579,-232.5486 1010,-224 1134.8979,-176.2108 1179.6287,-213.0788 1314.844,-187.9157"/>
<polygon fill="#191970" stroke="#191970" points="1315.5886,-191.3366 1324.7382,-185.9947 1314.2544,-184.4649 1315.5886,-191.3366"/>
</g>
<!-- Node25 -->
<g id="node26" class="node">
<title>Node25</title>
<polygon fill="none" stroke="#bfbfbf" points="670,-112.5 670,-131.5 720,-131.5 720,-112.5 670,-112.5"/>
<text text-anchor="middle" x="695" y="-119.5" font-family="Helvetica,sans-Serif" font-size="10.00" fill="#000000">cstdint</text>
</g>
<!-- Node22&#45;&gt;Node25 -->
<g id="edge28" class="edge">
<title>Node22&#45;&gt;Node25</title>
<path fill="none" stroke="#191970" d="M799.0939,-291.3309C795.1823,-273.8316 786.9271,-244.8026 772,-224 757.068,-203.1905 742.9803,-208.0158 727,-188 715.7303,-173.8844 707.1252,-155.149 701.6916,-141.2467"/>
<polygon fill="#191970" stroke="#191970" points="704.9169,-139.8774 698.1632,-131.7142 698.3522,-142.3074 704.9169,-139.8774"/>
</g>
<!-- Node26 -->
<g id="node27" class="node">
<title>Node26</title>
<polygon fill="none" stroke="#bfbfbf" points="575.5,-230 575.5,-249 648.5,-249 648.5,-230 575.5,-230"/>
<text text-anchor="middle" x="612" y="-237" font-family="Helvetica,sans-Serif" font-size="10.00" fill="#000000">string_view</text>
</g>
<!-- Node22&#45;&gt;Node26 -->
<g id="edge29" class="edge">
<title>Node22&#45;&gt;Node26</title>
<path fill="none" stroke="#191970" d="M759.3603,-291.4639C726.0896,-279.7316 680.3585,-263.6054 648.7044,-252.4431"/>
<polygon fill="#191970" stroke="#191970" points="649.5501,-249.0302 638.9553,-249.0053 647.2221,-255.6317 649.5501,-249.0302"/>
</g>
<!-- Node27 -->
<g id="node28" class="node">
<title>Node27</title>
<polygon fill="none" stroke="#bfbfbf" points="666.5,-230 666.5,-249 735.5,-249 735.5,-230 666.5,-230"/>
<text text-anchor="middle" x="701" y="-237" font-family="Helvetica,sans-Serif" font-size="10.00" fill="#000000">type_traits</text>
</g>
<!-- Node22&#45;&gt;Node27 -->
<g id="edge31" class="edge">
<title>Node22&#45;&gt;Node27</title>
<path fill="none" stroke="#191970" d="M779.3336,-291.4639C762.8451,-280.526 740.5996,-265.769 724.0278,-254.7759"/>
<polygon fill="#191970" stroke="#191970" points="725.7455,-251.7153 715.4776,-249.1039 721.8759,-257.5485 725.7455,-251.7153"/>
</g>
<!-- Node28 -->
<g id="node29" class="node">
<title>Node28</title>
<g id="a_node29"><a xlink:href="../../d9/d52/Common_2MathUtils_2include_2MathUtils_2Utils_8h.html" target="_top" xlink:title="MathUtils/Utils.h">
<polygon fill="none" stroke="#000000" points="333,-230 333,-249 431,-249 431,-230 333,-230"/>
<text text-anchor="middle" x="382" y="-237" font-family="Helvetica,sans-Serif" font-size="10.00" fill="#000000">MathUtils/Utils.h</text>
</a>
</g>
</g>
<!-- Node22&#45;&gt;Node28 -->
<g id="edge32" class="edge">
<title>Node22&#45;&gt;Node28</title>
<path fill="none" stroke="#191970" d="M716.247,-292.8204C634.3816,-279.7609 513.1789,-260.4262 441.4313,-248.9807"/>
<polygon fill="#191970" stroke="#191970" points="441.6415,-245.4701 431.2149,-247.351 440.5387,-252.3827 441.6415,-245.4701"/>
</g>
<!-- Node40 -->
<g id="node41" class="node">
<title>Node40</title>
<g id="a_node41"><a xlink:href="../../dc/dcd/DataHeader_8h.html" target="_top" xlink:title="Headers/DataHeader.h">
<polygon fill="none" stroke="#000000" points="830.5,-230 830.5,-249 957.5,-249 957.5,-230 830.5,-230"/>
<text text-anchor="middle" x="894" y="-237" font-family="Helvetica,sans-Serif" font-size="10.00" fill="#000000">Headers/DataHeader.h</text>
</a>
</g>
</g>
<!-- Node22&#45;&gt;Node40 -->
<g id="edge49" class="edge">
<title>Node22&#45;&gt;Node40</title>
<path fill="none" stroke="#191970" d="M822.8762,-291.2967C837.7669,-280.4524 857.7243,-265.9182 872.7081,-255.006"/>
<polygon fill="#191970" stroke="#191970" points="874.8566,-257.7712 880.8797,-249.055 870.7357,-252.1127 874.8566,-257.7712"/>
</g>
<!-- Node29 -->
<g id="node30" class="node">
<title>Node29</title>
<g id="a_node30"><a xlink:href="../../de/def/bitOps_8h.html" target="_top" xlink:title="MathUtils/detail/bitOps.h">
<polygon fill="none" stroke="#000000" points="467.5,-168.5 467.5,-187.5 604.5,-187.5 604.5,-168.5 467.5,-168.5"/>
<text text-anchor="middle" x="536" y="-175.5" font-family="Helvetica,sans-Serif" font-size="10.00" fill="#000000">MathUtils/detail/bitOps.h</text>
</a>
</g>
</g>
<!-- Node28&#45;&gt;Node29 -->
<g id="edge33" class="edge">
<title>Node28&#45;&gt;Node29</title>
<path fill="none" stroke="#191970" d="M406.0625,-229.8906C432.0556,-219.5103 473.6478,-202.9004 502.7547,-191.2766"/>
<polygon fill="#191970" stroke="#191970" points="504.1177,-194.5011 512.1065,-187.5419 501.5215,-188.0003 504.1177,-194.5011"/>
</g>
<!-- Node30 -->
<g id="node31" class="node">
<title>Node30</title>
<g id="a_node31"><a xlink:href="../../d3/dfc/StatAccumulator_8h.html" target="_top" xlink:title="MathUtils/detail/StatAccumulator.h">
<polygon fill="none" stroke="#000000" points="263,-168.5 263,-187.5 449,-187.5 449,-168.5 263,-168.5"/>
<text text-anchor="middle" x="356" y="-175.5" font-family="Helvetica,sans-Serif" font-size="10.00" fill="#000000">MathUtils/detail/StatAccumulator.h</text>
</a>
</g>
</g>
<!-- Node28&#45;&gt;Node30 -->
<g id="edge35" class="edge">
<title>Node28&#45;&gt;Node30</title>
<path fill="none" stroke="#191970" d="M377.9375,-229.8906C374.2576,-221.1862 368.7258,-208.1015 364.138,-197.2494"/>
<polygon fill="#191970" stroke="#191970" points="367.2375,-195.5927 360.1198,-187.7449 360.79,-198.3185 367.2375,-195.5927"/>
</g>
<!-- Node32 -->
<g id="node33" class="node">
<title>Node32</title>
<g id="a_node33"><a xlink:href="../../dd/d7d/trigonometric_8h.html" target="_top" xlink:title="MathUtils/detail/trigonometric.h">
<polygon fill="none" stroke="#000000" points="73,-168.5 73,-187.5 245,-187.5 245,-168.5 73,-168.5"/>
<text text-anchor="middle" x="159" y="-175.5" font-family="Helvetica,sans-Serif" font-size="10.00" fill="#000000">MathUtils/detail/trigonometric.h</text>
</a>
</g>
</g>
<!-- Node28&#45;&gt;Node32 -->
<g id="edge37" class="edge">
<title>Node28&#45;&gt;Node32</title>
<path fill="none" stroke="#191970" d="M347.1563,-229.8906C308.3714,-219.1944 245.6023,-201.8836 203.3441,-190.2294"/>
<polygon fill="#191970" stroke="#191970" points="204.1697,-186.8265 193.5991,-187.5419 202.3087,-193.5746 204.1697,-186.8265"/>
</g>
<!-- Node29&#45;&gt;Node25 -->
<g id="edge34" class="edge">
<title>Node29&#45;&gt;Node25</title>
<path fill="none" stroke="#191970" d="M563.3331,-168.3733C590.0994,-158.9461 630.991,-144.544 660.0955,-134.2934"/>
<polygon fill="#191970" stroke="#191970" points="661.5867,-137.479 669.856,-130.8557 659.2612,-130.8766 661.5867,-137.479"/>
</g>
<!-- Node31 -->
<g id="node32" class="node">
<title>Node31</title>
<polygon fill="none" stroke="#bfbfbf" points="447.5,-112.5 447.5,-131.5 488.5,-131.5 488.5,-112.5 447.5,-112.5"/>
<text text-anchor="middle" x="468" y="-119.5" font-family="Helvetica,sans-Serif" font-size="10.00" fill="#000000">tuple</text>
</g>
<!-- Node30&#45;&gt;Node31 -->
<g id="edge36" class="edge">
<title>Node30&#45;&gt;Node31</title>
<path fill="none" stroke="#191970" d="M375.2535,-168.3733C393.0712,-159.4644 419.7747,-146.1127 439.9594,-136.0203"/>
<polygon fill="#191970" stroke="#191970" points="441.6187,-139.1038 448.9978,-131.5011 438.4882,-132.8428 441.6187,-139.1038"/>
</g>
<!-- Node32&#45;&gt;Node10 -->
<g id="edge38" class="edge">
<title>Node32&#45;&gt;Node10</title>
<path fill="none" stroke="#191970" d="M245.1917,-168.6805C248.1626,-168.438 251.1054,-168.21 254,-168 697.7529,-135.8114 1239.5018,-124.8285 1373.7829,-122.504"/>
<polygon fill="#191970" stroke="#191970" points="1373.8468,-126.0035 1383.7858,-122.3339 1373.7277,-119.0045 1373.8468,-126.0035"/>
</g>
<!-- Node32&#45;&gt;Node31 -->
<g id="edge40" class="edge">
<title>Node32&#45;&gt;Node31</title>
<path fill="none" stroke="#191970" d="M237.2437,-168.4759C291.1269,-161.1352 364.4249,-149.6111 437.6135,-131.7625"/>
<polygon fill="#191970" stroke="#191970" points="438.6048,-135.1229 447.4692,-129.32 436.9208,-128.3284 438.6048,-135.1229"/>
</g>
<!-- Node33 -->
<g id="node34" class="node">
<title>Node33</title>
<polygon fill="none" stroke="#bfbfbf" points="25.5,-56.5 25.5,-75.5 72.5,-75.5 72.5,-56.5 25.5,-56.5"/>
<text text-anchor="middle" x="49" y="-63.5" font-family="Helvetica,sans-Serif" font-size="10.00" fill="#000000">cmath</text>
</g>
<!-- Node32&#45;&gt;Node33 -->
<g id="edge39" class="edge">
<title>Node32&#45;&gt;Node33</title>
<path fill="none" stroke="#191970" d="M138.1662,-168.4372C122.3925,-160.4141 100.9598,-147.7481 86,-132 73.0414,-118.3585 63.0008,-99.3207 56.6697,-85.1957"/>
<polygon fill="#191970" stroke="#191970" points="59.8617,-83.7581 52.7265,-75.9262 53.4203,-86.4983 59.8617,-83.7581"/>
</g>
<!-- Node34 -->
<g id="node35" class="node">
<title>Node34</title>
<g id="a_node35"><a xlink:href="../../df/d21/GPUCommonDef_8h.html" target="_top" xlink:title="GPUCommonDef.h">
<polygon fill="none" stroke="#000000" points="97.5,-56.5 97.5,-75.5 204.5,-75.5 204.5,-56.5 97.5,-56.5"/>
<text text-anchor="middle" x="151" y="-63.5" font-family="Helvetica,sans-Serif" font-size="10.00" fill="#000000">GPUCommonDef.h</text>
</a>
</g>
</g>
<!-- Node32&#45;&gt;Node34 -->
<g id="edge41" class="edge">
<title>Node32&#45;&gt;Node34</title>
<path fill="none" stroke="#191970" d="M134.5288,-168.3462C119.2893,-160.9011 100.9388,-148.9799 92,-132 81.3979,-111.8605 102.804,-92.9361 122.7349,-80.5601"/>
<polygon fill="#191970" stroke="#191970" points="124.5071,-83.5783 131.3778,-75.5133 120.9773,-77.5334 124.5071,-83.5783"/>
</g>
<!-- Node37 -->
<g id="node38" class="node">
<title>Node37</title>
<g id="a_node38"><a xlink:href="../../d6/da2/GPUCommonMath_8h.html" target="_top" xlink:title="GPUCommonMath.h">
<polygon fill="none" stroke="#000000" points="101.5,-112.5 101.5,-131.5 216.5,-131.5 216.5,-112.5 101.5,-112.5"/>
<text text-anchor="middle" x="159" y="-119.5" font-family="Helvetica,sans-Serif" font-size="10.00" fill="#000000">GPUCommonMath.h</text>
</a>
</g>
</g>
<!-- Node32&#45;&gt;Node37 -->
<g id="edge44" class="edge">
<title>Node32&#45;&gt;Node37</title>
<path fill="none" stroke="#191970" d="M159,-168.2455C159,-160.9382 159,-150.6944 159,-141.7046"/>
<polygon fill="#191970" stroke="#191970" points="162.5001,-141.6426 159,-131.6427 155.5001,-141.6427 162.5001,-141.6426"/>
</g>
<!-- Node39 -->
<g id="node40" class="node">
<title>Node39</title>
<g id="a_node40"><a xlink:href="../../d6/d84/MathConstants_8h.html" target="_top" xlink:title="useful math constants ">
<polygon fill="none" stroke="#000000" points="235,-112.5 235,-131.5 429,-131.5 429,-112.5 235,-112.5"/>
<text text-anchor="middle" x="332" y="-119.5" font-family="Helvetica,sans-Serif" font-size="10.00" fill="#000000">CommonConstants/MathConstants.h</text>
</a>
</g>
</g>
<!-- Node32&#45;&gt;Node39 -->
<g id="edge48" class="edge">
<title>Node32&#45;&gt;Node39</title>
<path fill="none" stroke="#191970" d="M188.7398,-168.3733C217.507,-159.0613 261.27,-144.8953 292.8556,-134.671"/>
<polygon fill="#191970" stroke="#191970" points="294.2122,-137.9107 302.6483,-131.5011 292.0564,-131.251 294.2122,-137.9107"/>
</g>
<!-- Node35 -->
<g id="node36" class="node">
<title>Node35</title>
<g id="a_node36"><a xlink:href="../../d5/d93/GPUCommonDefSettings_8h.html" target="_top" xlink:title="GPUCommonDefSettings.h">
<polygon fill="none" stroke="#000000" points="0,-.5 0,-19.5 148,-19.5 148,-.5 0,-.5"/>
<text text-anchor="middle" x="74" y="-7.5" font-family="Helvetica,sans-Serif" font-size="10.00" fill="#000000">GPUCommonDefSettings.h</text>
</a>
</g>
</g>
<!-- Node34&#45;&gt;Node35 -->
<g id="edge42" class="edge">
<title>Node34&#45;&gt;Node35</title>
<path fill="none" stroke="#191970" d="M137.5876,-56.2455C125.9943,-47.814 109.0252,-35.4729 95.5322,-25.6598"/>
<polygon fill="#191970" stroke="#191970" points="97.4047,-22.6938 87.2587,-19.6427 93.2874,-28.355 97.4047,-22.6938"/>
</g>
<!-- Node36 -->
<g id="node37" class="node">
<title>Node36</title>
<g id="a_node37"><a xlink:href="../../da/d5a/GPUCommonDefAPI_8h.html" target="_top" xlink:title="GPUCommonDefAPI.h">
<polygon fill="none" stroke="#000000" points="166,-.5 166,-19.5 290,-19.5 290,-.5 166,-.5"/>
<text text-anchor="middle" x="228" y="-7.5" font-family="Helvetica,sans-Serif" font-size="10.00" fill="#000000">GPUCommonDefAPI.h</text>
</a>
</g>
</g>
<!-- Node34&#45;&gt;Node36 -->
<g id="edge43" class="edge">
<title>Node34&#45;&gt;Node36</title>
<path fill="none" stroke="#191970" d="M164.4124,-56.2455C176.0057,-47.814 192.9748,-35.4729 206.4678,-25.6598"/>
<polygon fill="#191970" stroke="#191970" points="208.7126,-28.355 214.7413,-19.6427 204.5953,-22.6938 208.7126,-28.355"/>
</g>
<!-- Node37&#45;&gt;Node33 -->
<g id="edge46" class="edge">
<title>Node37&#45;&gt;Node33</title>
<path fill="none" stroke="#191970" d="M139.8395,-112.2455C122.4889,-103.4125 96.7099,-90.2887 77.0417,-80.2758"/>
<polygon fill="#191970" stroke="#191970" points="78.4405,-77.0605 67.941,-75.6427 75.2647,-83.2986 78.4405,-77.0605"/>
</g>
<!-- Node37&#45;&gt;Node34 -->
<g id="edge45" class="edge">
<title>Node37&#45;&gt;Node34</title>
<path fill="none" stroke="#191970" d="M157.6065,-112.2455C156.5626,-104.9382 155.0992,-94.6944 153.8149,-85.7046"/>
<polygon fill="#191970" stroke="#191970" points="157.2566,-85.0472 152.3775,-75.6427 150.327,-86.0372 157.2566,-85.0472"/>
</g>
<!-- Node38 -->
<g id="node39" class="node">
<title>Node38</title>
<polygon fill="none" stroke="#bfbfbf" points="514,-56.5 514,-75.5 578,-75.5 578,-56.5 514,-56.5"/>
<text text-anchor="middle" x="546" y="-63.5" font-family="Helvetica,sans-Serif" font-size="10.00" fill="#000000">algorithm</text>
</g>
<!-- Node37&#45;&gt;Node38 -->
<g id="edge47" class="edge">
<title>Node37&#45;&gt;Node38</title>
<path fill="none" stroke="#191970" d="M216.7406,-113.3618C219.8724,-112.8996 222.9745,-112.4432 226,-112 325.4815,-97.4259 442.4274,-80.7242 503.6846,-72.0088"/>
<polygon fill="#191970" stroke="#191970" points="504.3352,-75.4516 513.7427,-70.5784 503.3495,-68.5213 504.3352,-75.4516"/>
</g>
<!-- Node40&#45;&gt;Node3 -->
<g id="edge56" class="edge">
<title>Node40&#45;&gt;Node3</title>
<path fill="none" stroke="#191970" d="M855.367,-229.9581C806.3228,-217.8448 722.6174,-197.1706 676.9789,-185.8984"/>
<polygon fill="#191970" stroke="#191970" points="677.5887,-182.4439 667.0412,-183.4439 675.9102,-189.2397 677.5887,-182.4439"/>
</g>
<!-- Node40&#45;&gt;Node24 -->
<g id="edge52" class="edge">
<title>Node40&#45;&gt;Node24</title>
<path fill="none" stroke="#191970" d="M938.4239,-229.9388C949.3667,-227.7865 961.0792,-225.6529 972,-224 1120.7272,-201.4891 1163.2633,-216.5468 1314.6165,-187.9775"/>
<polygon fill="#191970" stroke="#191970" points="1315.5853,-191.3554 1324.7455,-186.0317 1314.2647,-184.4811 1315.5853,-191.3554"/>
</g>
<!-- Node40&#45;&gt;Node25 -->
<g id="edge50" class="edge">
<title>Node40&#45;&gt;Node25</title>
<path fill="none" stroke="#191970" d="M850.6205,-229.9326C821.0205,-221.9871 781.9111,-208.6032 752,-188 733.4143,-175.1979 717.1471,-154.9275 706.7997,-140.2266"/>
<polygon fill="#191970" stroke="#191970" points="709.6663,-138.2177 701.1542,-131.9094 703.8745,-142.1491 709.6663,-138.2177"/>
</g>
<!-- Node40&#45;&gt;Node38 -->
<g id="edge54" class="edge">
<title>Node40&#45;&gt;Node38</title>
<path fill="none" stroke="#191970" d="M884.5421,-229.6431C870.4991,-215.2646 842.9899,-188.0692 817,-168 780.3075,-139.6663 771.5811,-130.33 729,-112 682.7935,-92.1094 626.1734,-79.5298 588.2592,-72.6472"/>
<polygon fill="#191970" stroke="#191970" points="588.5412,-69.1431 578.0857,-70.8557 587.3272,-76.037 588.5412,-69.1431"/>
</g>
<!-- Node41 -->
<g id="node42" class="node">
<title>Node41</title>
<polygon fill="none" stroke="#bfbfbf" points="865,-168.5 865,-187.5 923,-187.5 923,-168.5 865,-168.5"/>
<text text-anchor="middle" x="894" y="-175.5" font-family="Helvetica,sans-Serif" font-size="10.00" fill="#000000">memory</text>
</g>
<!-- Node40&#45;&gt;Node41 -->
<g id="edge51" class="edge">
<title>Node40&#45;&gt;Node41</title>
<path fill="none" stroke="#191970" d="M894,-229.8906C894,-221.3657 894,-208.6392 894,-197.9235"/>
<polygon fill="#191970" stroke="#191970" points="897.5001,-197.7448 894,-187.7449 890.5001,-197.7449 897.5001,-197.7448"/>
</g>
<!-- Node42 -->
<g id="node43" class="node">
<title>Node42</title>
<polygon fill="none" stroke="#bfbfbf" points="941,-168.5 941,-187.5 991,-187.5 991,-168.5 941,-168.5"/>
<text text-anchor="middle" x="966" y="-175.5" font-family="Helvetica,sans-Serif" font-size="10.00" fill="#000000">cstring</text>
</g>
<!-- Node40&#45;&gt;Node42 -->
<g id="edge53" class="edge">
<title>Node40&#45;&gt;Node42</title>
<path fill="none" stroke="#191970" d="M905.25,-229.8906C916.386,-220.3786 933.646,-205.6357 946.9268,-194.2917"/>
<polygon fill="#191970" stroke="#191970" points="949.2608,-196.9011 954.5914,-187.7449 944.7144,-191.5784 949.2608,-196.9011"/>
</g>
<!-- Node43 -->
<g id="node44" class="node">
<title>Node43</title>
<polygon fill="none" stroke="#bfbfbf" points="1009.5,-168.5 1009.5,-187.5 1074.5,-187.5 1074.5,-168.5 1009.5,-168.5"/>
<text text-anchor="middle" x="1042" y="-175.5" font-family="Helvetica,sans-Serif" font-size="10.00" fill="#000000">stdexcept</text>
</g>
<!-- Node40&#45;&gt;Node43 -->
<g id="edge55" class="edge">
<title>Node40&#45;&gt;Node43</title>
<path fill="none" stroke="#191970" d="M917.125,-229.8906C941.9967,-219.5554 981.7298,-203.0447 1009.6844,-191.4284"/>
<polygon fill="#191970" stroke="#191970" points="1011.146,-194.6113 1019.0374,-187.5419 1008.4598,-188.1472 1011.146,-194.6113"/>
</g>
<!-- Node44 -->
<g id="node45" class="node">
<title>Node44</title>
<polygon fill="none" stroke="#bfbfbf" points="1093,-168.5 1093,-187.5 1143,-187.5 1143,-168.5 1093,-168.5"/>
<text text-anchor="middle" x="1118" y="-175.5" font-family="Helvetica,sans-Serif" font-size="10.00" fill="#000000">climits</text>
</g>
<!-- Node40&#45;&gt;Node44 -->
<g id="edge57" class="edge">
<title>Node40&#45;&gt;Node44</title>
<path fill="none" stroke="#191970" d="M929.5665,-229.9482C967.5833,-219.7057 1029.6061,-202.9017 1083,-188 1083.0989,-187.9724 1083.198,-187.9447 1083.2972,-187.917"/>
<polygon fill="#191970" stroke="#191970" points="1084.0991,-191.3274 1092.7754,-185.247 1082.201,-184.5897 1084.0991,-191.3274"/>
</g>
<!-- Node45 -->
<g id="node46" class="node">
<title>Node45</title>
<g id="a_node46"><a xlink:href="../../d7/df8/Types_8h.html" target="_top" xlink:title="MemoryResources/Types.h">
<polygon fill="none" stroke="#000000" points="1161,-168.5 1161,-187.5 1307,-187.5 1307,-168.5 1161,-168.5"/>
<text text-anchor="middle" x="1234" y="-175.5" font-family="Helvetica,sans-Serif" font-size="10.00" fill="#000000">MemoryResources/Types.h</text>
</a>
</g>
</g>
<!-- Node40&#45;&gt;Node45 -->
<g id="edge58" class="edge">
<title>Node40&#45;&gt;Node45</title>
<path fill="none" stroke="#191970" d="M940.9882,-229.986C951.2034,-227.9671 961.9575,-225.8792 972,-224 1038.527,-211.5514 1114.7493,-198.2802 1167.7631,-189.2081"/>
<polygon fill="#191970" stroke="#191970" points="1168.4474,-192.642 1177.7151,-187.5077 1167.2685,-185.742 1168.4474,-192.642"/>
</g>
<!-- Node46 -->
<g id="node47" class="node">
<title>Node46</title>
<polygon fill="none" stroke="#bfbfbf" points="761.5,-168.5 761.5,-187.5 808.5,-187.5 808.5,-168.5 761.5,-168.5"/>
<text text-anchor="middle" x="785" y="-175.5" font-family="Helvetica,sans-Serif" font-size="10.00" fill="#000000">cerrno</text>
</g>
<!-- Node40&#45;&gt;Node46 -->
<g id="edge59" class="edge">
<title>Node40&#45;&gt;Node46</title>
<path fill="none" stroke="#191970" d="M876.9688,-229.8906C859.211,-219.8713 831.167,-204.0483 810.7118,-192.5071"/>
<polygon fill="#191970" stroke="#191970" points="812.3409,-189.4077 801.9117,-187.5419 808.9011,-195.5042 812.3409,-189.4077"/>
</g>
</g>
</svg>
        <g id="navigator" transform="translate(0 0)" fill="#404254">
                <rect fill="#f2f5e9" fill-opacity="0.5" stroke="#606060" stroke-width=".5" x="0" y="0" width="60" height="60"/>
                <use id="zoomplus" xlink:href="#zoomPlus" x="17" y="9" onmousedown="handleZoom(evt,'in')"/>
                <use id="zoomminus" xlink:href="#zoomMin" x="42" y="9" onmousedown="handleZoom(evt,'out')"/>
                <use id="reset" xlink:href="#resetDef" x="30" y="36" onmousedown="handleReset()"/>
                <g id="arrowUp" xlink:href="#dirArrow" transform="translate(30 24)" onmousedown="handlePan(0,-1)">
                  <use xlink:href="#rim" fill="#404040">
                        <set attributeName="fill" to="#808080" begin="arrowUp.mouseover" end="arrowUp.mouseout"/>
                  </use>
                  <path fill="none" stroke="white" stroke-width="1.5" d="M0,-3.0v7 M-2.5,-0.5L0,-3.0L2.5,-0.5"/>
                </g>
                <g id="arrowRight" xlink:href="#dirArrow" transform="rotate(90) translate(36 -43)" onmousedown="handlePan(1,0)">
                  <use xlink:href="#rim" fill="#404040">
                        <set attributeName="fill" to="#808080" begin="arrowRight.mouseover" end="arrowRight.mouseout"/>
                  </use>
                  <path fill="none" stroke="white" stroke-width="1.5" d="M0,-3.0v7 M-2.5,-0.5L0,-3.0L2.5,-0.5"/>
                </g>
                <g id="arrowDown" xlink:href="#dirArrow" transform="rotate(180) translate(-30 -48)" onmousedown="handlePan(0,1)">
                  <use xlink:href="#rim" fill="#404040">
                        <set attributeName="fill" to="#808080" begin="arrowDown.mouseover" end="arrowDown.mouseout"/>
                  </use>
                  <path fill="none" stroke="white" stroke-width="1.5" d="M0,-3.0v7 M-2.5,-0.5L0,-3.0L2.5,-0.5"/>
                </g>
                <g id="arrowLeft" xlink:href="#dirArrow" transform="rotate(270) translate(-36 17)" onmousedown="handlePan(-1,0)">
                  <use xlink:href="#rim" fill="#404040">
                        <set attributeName="fill" to="#808080" begin="arrowLeft.mouseover" end="arrowLeft.mouseout"/>
                  </use>
                  <path fill="none" stroke="white" stroke-width="1.5" d="M0,-3.0v7 M-2.5,-0.5L0,-3.0L2.5,-0.5"/>
                </g>
        </g>
        <svg viewBox="0 0 15 15" width="100%" height="30px" preserveAspectRatio="xMaxYMin meet">
         <g id="arrow_out" transform="scale(0.3 0.3)">
          <a xlink:href="ITSMFT_2common_2base_2src_2GeometryTGeo_8cxx__incl_org.svg" target="_base">
           <rect id="button" ry="5" rx="5" y="6" x="6" height="38" width="38"
                fill="#f2f5e9" fill-opacity="0.5" stroke="#606060" stroke-width="1.0"/>
           <path id="arrow"
             d="M 11.500037,31.436501 C 11.940474,20.09759 22.043105,11.32322 32.158766,21.979434 L 37.068811,17.246167 C 37.068811,17.246167 37.088388,32 37.088388,32 L 22.160133,31.978069 C 22.160133,31.978069 26.997745,27.140456 26.997745,27.140456 C 18.528582,18.264221 13.291696,25.230495 11.500037,31.436501 z"
             style="fill:#404040;"/>
          </a>
         </g>
        </svg>
</svg>
