<?xml version="1.0" encoding="UTF-8" standalone="no"?>
<!DOCTYPE svg PUBLIC "-//W3C//DTD SVG 1.1//EN"
 "http://www.w3.org/Graphics/SVG/1.1/DTD/svg11.dtd">
<!-- Generated by graphviz version 2.40.1 (20161225.0304)
 -->
<!-- Title: /home/travis/build/AliceO2Group/AliceO2/Detectors/TPC/qc/include/TPCQC/Clusters.h Pages: 1 -->
<svg width="1849pt" height="632pt"
 viewBox="0.00 0.00 1848.57 632.00" xmlns="http://www.w3.org/2000/svg" xmlns:xlink="http://www.w3.org/1999/xlink">
<g id="graph0" class="graph" transform="scale(1 1) rotate(0) translate(4 628)">
<title>/home/travis/build/AliceO2Group/AliceO2/Detectors/TPC/qc/include/TPCQC/Clusters.h</title>
<!-- Node0 -->
<g id="node1" class="node">
<title>Node0</title>
<polygon fill="#bfbfbf" stroke="#000000" points="373,-571.5 373,-623.5 514,-623.5 514,-571.5 373,-571.5"/>
<text text-anchor="start" x="381" y="-611.5" font-family="Helvetica,sans-Serif" font-size="10.00" fill="#000000">/home/travis/build</text>
<text text-anchor="start" x="381" y="-600.5" font-family="Helvetica,sans-Serif" font-size="10.00" fill="#000000">/AliceO2Group/AliceO2</text>
<text text-anchor="start" x="381" y="-589.5" font-family="Helvetica,sans-Serif" font-size="10.00" fill="#000000">/Detectors/TPC/qc/include</text>
<text text-anchor="middle" x="443.5" y="-578.5" font-family="Helvetica,sans-Serif" font-size="10.00" fill="#000000">/TPCQC/Clusters.h</text>
</g>
<!-- Node1 -->
<g id="node2" class="node">
<title>Node1</title>
<polygon fill="none" stroke="#bfbfbf" points="329,-515.5 329,-534.5 396,-534.5 396,-515.5 329,-515.5"/>
<text text-anchor="middle" x="362.5" y="-522.5" font-family="Helvetica,sans-Serif" font-size="10.00" fill="#000000">TCanvas.h</text>
</g>
<!-- Node0&#45;&gt;Node1 -->
<g id="edge1" class="edge">
<title>Node0&#45;&gt;Node1</title>
<path fill="none" stroke="#191970" d="M414.2571,-571.3258C403.0699,-561.3126 390.6378,-550.1851 380.7624,-541.346"/>
<polygon fill="#191970" stroke="#191970" points="382.9373,-538.5954 373.1518,-534.534 378.2688,-543.8113 382.9373,-538.5954"/>
</g>
<!-- Node2 -->
<g id="node3" class="node">
<title>Node2</title>
<g id="a_node3"><a xlink:href="../../d6/d2b/TPC_2base_2include_2TPCBase_2CalDet_8h.html" target="_top" xlink:title="TPCBase/CalDet.h">
<polygon fill="none" stroke="#000000" points="1315.5,-515.5 1315.5,-534.5 1419.5,-534.5 1419.5,-515.5 1315.5,-515.5"/>
<text text-anchor="middle" x="1367.5" y="-522.5" font-family="Helvetica,sans-Serif" font-size="10.00" fill="#000000">TPCBase/CalDet.h</text>
</a>
</g>
</g>
<!-- Node0&#45;&gt;Node2 -->
<g id="edge2" class="edge">
<title>Node0&#45;&gt;Node2</title>
<path fill="none" stroke="#191970" d="M514.0891,-591.9614C688.8811,-578.2466 1139.637,-542.8789 1305.258,-529.8837"/>
<polygon fill="#191970" stroke="#191970" points="1305.5853,-533.3689 1315.2808,-529.0973 1305.0376,-526.3903 1305.5853,-533.3689"/>
</g>
<!-- Node7 -->
<g id="node8" class="node">
<title>Node7</title>
<g id="a_node8"><a xlink:href="../../d1/d73/Defs_8h.html" target="_top" xlink:title="DataFormatsTPC/Defs.h">
<polygon fill="none" stroke="#000000" points="822,-123.5 822,-142.5 955,-142.5 955,-123.5 822,-123.5"/>
<text text-anchor="middle" x="888.5" y="-130.5" font-family="Helvetica,sans-Serif" font-size="10.00" fill="#000000">DataFormatsTPC/Defs.h</text>
</a>
</g>
</g>
<!-- Node0&#45;&gt;Node7 -->
<g id="edge74" class="edge">
<title>Node0&#45;&gt;Node7</title>
<path fill="none" stroke="#191970" d="M449.7213,-571.0892C455.2625,-545.2286 462.5,-504.6315 462.5,-469 462.5,-469 462.5,-469 462.5,-413 462.5,-291.3488 503.6166,-246.982 604.5,-179 637.533,-156.7402 739.6468,-144.3616 811.9386,-138.1923"/>
<polygon fill="#191970" stroke="#191970" points="812.2551,-141.6782 821.9311,-137.3626 811.6758,-134.7022 812.2551,-141.6782"/>
</g>
<!-- Node26 -->
<g id="node27" class="node">
<title>Node26</title>
<g id="a_node27"><a xlink:href="../../d3/dd6/Sector_8h.html" target="_top" xlink:title="TPCBase/Sector.h">
<polygon fill="none" stroke="#000000" points="614,-179.5 614,-198.5 715,-198.5 715,-179.5 614,-179.5"/>
<text text-anchor="middle" x="664.5" y="-186.5" font-family="Helvetica,sans-Serif" font-size="10.00" fill="#000000">TPCBase/Sector.h</text>
</a>
</g>
</g>
<!-- Node0&#45;&gt;Node26 -->
<g id="edge73" class="edge">
<title>Node0&#45;&gt;Node26</title>
<path fill="none" stroke="#191970" d="M437.2787,-571.0892C431.7375,-545.2286 424.5,-504.6315 424.5,-469 424.5,-469 424.5,-469 424.5,-413 424.5,-302.1799 562.9495,-230.4808 629.5377,-202.4053"/>
<polygon fill="#191970" stroke="#191970" points="630.9048,-205.6275 638.8158,-198.5801 628.2366,-199.156 630.9048,-205.6275"/>
</g>
<!-- Node3 -->
<g id="node4" class="node">
<title>Node3</title>
<polygon fill="none" stroke="#bfbfbf" points="1631.5,-403.5 1631.5,-422.5 1689.5,-422.5 1689.5,-403.5 1631.5,-403.5"/>
<text text-anchor="middle" x="1660.5" y="-410.5" font-family="Helvetica,sans-Serif" font-size="10.00" fill="#000000">memory</text>
</g>
<!-- Node2&#45;&gt;Node3 -->
<g id="edge3" class="edge">
<title>Node2&#45;&gt;Node3</title>
<path fill="none" stroke="#191970" d="M1397.4641,-515.4395C1423.4905,-506.831 1462.0026,-493.3565 1494.5,-479 1511.9576,-471.2877 1515.0328,-466.6904 1532.5,-459 1561.7864,-446.1058 1595.9338,-433.9732 1621.5898,-425.4088"/>
<polygon fill="#191970" stroke="#191970" points="1622.9285,-428.6527 1631.3266,-422.1934 1620.7334,-422.0057 1622.9285,-428.6527"/>
</g>
<!-- Node4 -->
<g id="node5" class="node">
<title>Node4</title>
<polygon fill="none" stroke="#bfbfbf" points="1499,-291.5 1499,-310.5 1546,-310.5 1546,-291.5 1499,-291.5"/>
<text text-anchor="middle" x="1522.5" y="-298.5" font-family="Helvetica,sans-Serif" font-size="10.00" fill="#000000">vector</text>
</g>
<!-- Node2&#45;&gt;Node4 -->
<g id="edge4" class="edge">
<title>Node2&#45;&gt;Node4</title>
<path fill="none" stroke="#191970" d="M1419.698,-523.6045C1533.8689,-520.0134 1797.7562,-508.5708 1824.5,-479 1847.1569,-453.948 1844.1958,-430.4411 1824.5,-403 1792.4366,-358.3278 1628.1669,-321.5459 1556.2695,-307.3238"/>
<polygon fill="#191970" stroke="#191970" points="1556.8437,-303.8699 1546.3587,-305.3909 1555.5037,-310.7405 1556.8437,-303.8699"/>
</g>
<!-- Node5 -->
<g id="node6" class="node">
<title>Node5</title>
<polygon fill="none" stroke="#bfbfbf" points="566.5,-347.5 566.5,-366.5 610.5,-366.5 610.5,-347.5 566.5,-347.5"/>
<text text-anchor="middle" x="588.5" y="-354.5" font-family="Helvetica,sans-Serif" font-size="10.00" fill="#000000">string</text>
</g>
<!-- Node2&#45;&gt;Node5 -->
<g id="edge5" class="edge">
<title>Node2&#45;&gt;Node5</title>
<path fill="none" stroke="#191970" d="M1315.3042,-517.0123C1217.3258,-501.6406 999.4273,-465.6632 818.5,-423 746.8535,-406.1056 664.1961,-380.9778 620.0972,-367.1089"/>
<polygon fill="#191970" stroke="#191970" points="621.1072,-363.7575 610.5173,-364.082 618.9982,-370.4322 621.1072,-363.7575"/>
</g>
<!-- Node6 -->
<g id="node7" class="node">
<title>Node6</title>
<polygon fill="none" stroke="#bfbfbf" points="1433.5,-459.5 1433.5,-478.5 1485.5,-478.5 1485.5,-459.5 1433.5,-459.5"/>
<text text-anchor="middle" x="1459.5" y="-466.5" font-family="Helvetica,sans-Serif" font-size="10.00" fill="#000000">cassert</text>
</g>
<!-- Node2&#45;&gt;Node6 -->
<g id="edge6" class="edge">
<title>Node2&#45;&gt;Node6</title>
<path fill="none" stroke="#191970" d="M1383.5252,-515.2455C1397.6408,-506.6534 1418.4263,-494.0014 1434.6899,-484.1018"/>
<polygon fill="#191970" stroke="#191970" points="1436.9363,-486.8319 1443.6585,-478.6427 1433.2966,-480.8525 1436.9363,-486.8319"/>
</g>
<!-- Node2&#45;&gt;Node7 -->
<g id="edge7" class="edge">
<title>Node2&#45;&gt;Node7</title>
<path fill="none" stroke="#191970" d="M1373.11,-515.1944C1382.0259,-500.5471 1400.8642,-473.164 1424.5,-459 1487.0221,-421.5329 1538.9667,-479.9167 1584.5,-423 1610.011,-391.1113 1662.1779,-400.2982 1555.5,-291 1473.6057,-207.0942 1122.6051,-158.7462 965.2918,-140.9285"/>
<polygon fill="#191970" stroke="#191970" points="965.5425,-137.4348 955.2148,-139.799 964.7627,-144.3912 965.5425,-137.4348"/>
</g>
<!-- Node21 -->
<g id="node22" class="node">
<title>Node21</title>
<g id="a_node22"><a xlink:href="../../d5/d1d/TPC_2base_2include_2TPCBase_2Mapper_8h.html" target="_top" xlink:title="TPCBase/Mapper.h">
<polygon fill="none" stroke="#000000" points="994,-403.5 994,-422.5 1101,-422.5 1101,-403.5 994,-403.5"/>
<text text-anchor="middle" x="1047.5" y="-410.5" font-family="Helvetica,sans-Serif" font-size="10.00" fill="#000000">TPCBase/Mapper.h</text>
</a>
</g>
</g>
<!-- Node2&#45;&gt;Node21 -->
<g id="edge21" class="edge">
<title>Node2&#45;&gt;Node21</title>
<path fill="none" stroke="#191970" d="M1334.1466,-515.4188C1303.8083,-506.5345 1257.8895,-492.6636 1218.5,-479 1169.9298,-462.1518 1114.5619,-440.2842 1080.3187,-426.442"/>
<polygon fill="#191970" stroke="#191970" points="1081.4046,-423.1055 1070.8224,-422.5899 1078.7734,-429.5922 1081.4046,-423.1055"/>
</g>
<!-- Node2&#45;&gt;Node26 -->
<g id="edge58" class="edge">
<title>Node2&#45;&gt;Node26</title>
<path fill="none" stroke="#191970" d="M1315.4968,-523.0138C1186.8155,-517.7972 856.1574,-502.471 748.5,-479 678.5651,-463.7531 657.2136,-462.467 597.5,-423 568.9116,-404.1049 557.1771,-398.8373 544.5,-367 535.7764,-345.0916 556.5127,-296.2289 559.5,-291 580.3842,-254.4446 618.2071,-222.4882 642.3019,-204.4857"/>
<polygon fill="#191970" stroke="#191970" points="644.4868,-207.2242 650.5011,-198.5019 640.3602,-201.5699 644.4868,-207.2242"/>
</g>
<!-- Node29 -->
<g id="node30" class="node">
<title>Node29</title>
<g id="a_node30"><a xlink:href="../../dc/d14/ROC_8h.html" target="_top" xlink:title="TPCBase/ROC.h">
<polygon fill="none" stroke="#000000" points="730.5,-235.5 730.5,-254.5 822.5,-254.5 822.5,-235.5 730.5,-235.5"/>
<text text-anchor="middle" x="776.5" y="-242.5" font-family="Helvetica,sans-Serif" font-size="10.00" fill="#000000">TPCBase/ROC.h</text>
</a>
</g>
</g>
<!-- Node2&#45;&gt;Node29 -->
<g id="edge57" class="edge">
<title>Node2&#45;&gt;Node29</title>
<path fill="none" stroke="#191970" d="M1315.436,-523.566C1150.9858,-517.7901 648.1737,-490.1702 557.5,-367 510.5486,-303.2218 640.9941,-268.4714 720.3678,-253.7062"/>
<polygon fill="#191970" stroke="#191970" points="721.0354,-257.1424 730.2541,-251.9207 719.7912,-250.2538 721.0354,-257.1424"/>
</g>
<!-- Node35 -->
<g id="node36" class="node">
<title>Node35</title>
<g id="a_node36"><a xlink:href="../../db/d9b/CalArray_8h.html" target="_top" xlink:title="TPCBase/CalArray.h">
<polygon fill="none" stroke="#000000" points="1227.5,-459.5 1227.5,-478.5 1339.5,-478.5 1339.5,-459.5 1227.5,-459.5"/>
<text text-anchor="middle" x="1283.5" y="-466.5" font-family="Helvetica,sans-Serif" font-size="10.00" fill="#000000">TPCBase/CalArray.h</text>
</a>
</g>
</g>
<!-- Node2&#45;&gt;Node35 -->
<g id="edge59" class="edge">
<title>Node2&#45;&gt;Node35</title>
<path fill="none" stroke="#191970" d="M1352.8683,-515.2455C1340.1006,-506.7337 1321.3562,-494.2375 1306.5701,-484.3801"/>
<polygon fill="#191970" stroke="#191970" points="1308.226,-481.2775 1297.964,-478.6427 1304.3431,-487.1019 1308.226,-481.2775"/>
</g>
<!-- Node40 -->
<g id="node41" class="node">
<title>Node40</title>
<polygon fill="none" stroke="#bfbfbf" points="1474,-403.5 1474,-422.5 1575,-422.5 1575,-403.5 1474,-403.5"/>
<text text-anchor="middle" x="1524.5" y="-410.5" font-family="Helvetica,sans-Serif" font-size="10.00" fill="#000000">boost/format.hpp</text>
</g>
<!-- Node2&#45;&gt;Node40 -->
<g id="edge71" class="edge">
<title>Node2&#45;&gt;Node40</title>
<path fill="none" stroke="#191970" d="M1368.4544,-515.0737C1370.3483,-500.7704 1375.8596,-474.3954 1391.5,-459 1410.9451,-439.8595 1438.7348,-428.6646 1463.8884,-422.1256"/>
<polygon fill="#191970" stroke="#191970" points="1464.8339,-425.4981 1473.7403,-419.7599 1463.1994,-418.6916 1464.8339,-425.4981"/>
</g>
<!-- Node41 -->
<g id="node42" class="node">
<title>Node41</title>
<g id="a_node42"><a xlink:href="../../dd/da4/Logger_8h.html" target="_top" xlink:title="Framework/Logger.h">
<polygon fill="none" stroke="#000000" points="1700,-459.5 1700,-478.5 1815,-478.5 1815,-459.5 1700,-459.5"/>
<text text-anchor="middle" x="1757.5" y="-466.5" font-family="Helvetica,sans-Serif" font-size="10.00" fill="#000000">Framework/Logger.h</text>
</a>
</g>
</g>
<!-- Node2&#45;&gt;Node41 -->
<g id="edge69" class="edge">
<title>Node2&#45;&gt;Node41</title>
<path fill="none" stroke="#191970" d="M1419.542,-517.6977C1481.3332,-509.0031 1587.796,-493.9462 1689.6066,-479.1228"/>
<polygon fill="#191970" stroke="#191970" points="1690.3695,-482.5487 1699.7601,-477.643 1689.3598,-475.6219 1690.3695,-482.5487"/>
</g>
<!-- Node43 -->
<g id="node44" class="node">
<title>Node43</title>
<polygon fill="none" stroke="#bfbfbf" points="1541.5,-459.5 1541.5,-478.5 1681.5,-478.5 1681.5,-459.5 1541.5,-459.5"/>
<text text-anchor="middle" x="1611.5" y="-466.5" font-family="Helvetica,sans-Serif" font-size="10.00" fill="#000000">boost/range/combine.hpp</text>
</g>
<!-- Node2&#45;&gt;Node43 -->
<g id="edge72" class="edge">
<title>Node2&#45;&gt;Node43</title>
<path fill="none" stroke="#191970" d="M1409.1679,-515.4369C1450.9266,-505.8529 1515.2891,-491.0812 1560.1728,-480.78"/>
<polygon fill="#191970" stroke="#191970" points="1561.0404,-484.172 1570.004,-478.5237 1559.4745,-477.3494 1561.0404,-484.172"/>
</g>
<!-- Node8 -->
<g id="node9" class="node">
<title>Node8</title>
<polygon fill="none" stroke="#bfbfbf" points="569,-67.5 569,-86.5 616,-86.5 616,-67.5 569,-67.5"/>
<text text-anchor="middle" x="592.5" y="-74.5" font-family="Helvetica,sans-Serif" font-size="10.00" fill="#000000">cmath</text>
</g>
<!-- Node7&#45;&gt;Node8 -->
<g id="edge8" class="edge">
<title>Node7&#45;&gt;Node8</title>
<path fill="none" stroke="#191970" d="M837.9521,-123.4369C777.5516,-112.0098 678.1689,-93.2076 626.3366,-83.4015"/>
<polygon fill="#191970" stroke="#191970" points="626.8056,-79.9282 616.3292,-81.5082 625.5043,-86.8062 626.8056,-79.9282"/>
</g>
<!-- Node9 -->
<g id="node10" class="node">
<title>Node9</title>
<g id="a_node10"><a xlink:href="../../d1/da8/GPUROOTCartesianFwd_8h.html" target="_top" xlink:title="GPUROOTCartesianFwd.h">
<polygon fill="none" stroke="#000000" points="818.5,-67.5 818.5,-86.5 958.5,-86.5 958.5,-67.5 818.5,-67.5"/>
<text text-anchor="middle" x="888.5" y="-74.5" font-family="Helvetica,sans-Serif" font-size="10.00" fill="#000000">GPUROOTCartesianFwd.h</text>
</a>
</g>
</g>
<!-- Node7&#45;&gt;Node9 -->
<g id="edge9" class="edge">
<title>Node7&#45;&gt;Node9</title>
<path fill="none" stroke="#191970" d="M888.5,-123.2455C888.5,-115.9382 888.5,-105.6944 888.5,-96.7046"/>
<polygon fill="#191970" stroke="#191970" points="892.0001,-96.6426 888.5,-86.6427 885.0001,-96.6427 892.0001,-96.6426"/>
</g>
<!-- Node10 -->
<g id="node11" class="node">
<title>Node10</title>
<g id="a_node11"><a xlink:href="../../dc/d73/Cartesian_8h.html" target="_top" xlink:title="MathUtils/Cartesian.h">
<polygon fill="none" stroke="#000000" points="979.5,-67.5 979.5,-86.5 1101.5,-86.5 1101.5,-67.5 979.5,-67.5"/>
<text text-anchor="middle" x="1040.5" y="-74.5" font-family="Helvetica,sans-Serif" font-size="10.00" fill="#000000">MathUtils/Cartesian.h</text>
</a>
</g>
</g>
<!-- Node7&#45;&gt;Node10 -->
<g id="edge10" class="edge">
<title>Node7&#45;&gt;Node10</title>
<path fill="none" stroke="#191970" d="M914.6297,-123.3733C939.5768,-114.1822 977.3592,-100.2624 1005.0206,-90.0713"/>
<polygon fill="#191970" stroke="#191970" points="1006.5378,-93.2424 1014.7112,-86.5011 1004.1178,-86.674 1006.5378,-93.2424"/>
</g>
<!-- Node11 -->
<g id="node12" class="node">
<title>Node11</title>
<polygon fill="none" stroke="#bfbfbf" points="1330.5,-.5 1330.5,-30.5 1494.5,-30.5 1494.5,-.5 1330.5,-.5"/>
<text text-anchor="start" x="1338.5" y="-18.5" font-family="Helvetica,sans-Serif" font-size="10.00" fill="#000000">Math/GenVector/Displacement</text>
<text text-anchor="middle" x="1412.5" y="-7.5" font-family="Helvetica,sans-Serif" font-size="10.00" fill="#000000">Vector3D.h</text>
</g>
<!-- Node10&#45;&gt;Node11 -->
<g id="edge11" class="edge">
<title>Node10&#45;&gt;Node11</title>
<path fill="none" stroke="#191970" d="M1099.4524,-67.4628C1154.1015,-58.596 1237.9608,-44.9249 1320.1513,-31.2199"/>
<polygon fill="#191970" stroke="#191970" points="1320.8768,-34.6473 1330.1641,-29.5487 1319.7244,-27.7428 1320.8768,-34.6473"/>
</g>
<!-- Node12 -->
<g id="node13" class="node">
<title>Node12</title>
<polygon fill="none" stroke="#bfbfbf" points="0,-6 0,-25 189,-25 189,-6 0,-6"/>
<text text-anchor="middle" x="94.5" y="-13" font-family="Helvetica,sans-Serif" font-size="10.00" fill="#000000">Math/GenVector/PositionVector3D.h</text>
</g>
<!-- Node10&#45;&gt;Node12 -->
<g id="edge12" class="edge">
<title>Node10&#45;&gt;Node12</title>
<path fill="none" stroke="#191970" d="M979.2076,-68.1993C975.2499,-67.7562 971.3216,-67.3505 967.5,-67 626.7779,-35.7506 539.0316,-64.2609 198.5,-31 186.5059,-29.8285 173.7819,-28.2305 161.502,-26.5038"/>
<polygon fill="#191970" stroke="#191970" points="161.7153,-22.9983 151.3171,-25.0297 160.7125,-29.9261 161.7153,-22.9983"/>
</g>
<!-- Node13 -->
<g id="node14" class="node">
<title>Node13</title>
<polygon fill="none" stroke="#bfbfbf" points="207.5,-6 207.5,-25 367.5,-25 367.5,-6 207.5,-6"/>
<text text-anchor="middle" x="287.5" y="-13" font-family="Helvetica,sans-Serif" font-size="10.00" fill="#000000">Math/GenVector/Rotation3D.h</text>
</g>
<!-- Node10&#45;&gt;Node13 -->
<g id="edge13" class="edge">
<title>Node10&#45;&gt;Node13</title>
<path fill="none" stroke="#191970" d="M979.2016,-68.2621C975.2454,-67.8036 971.319,-67.3773 967.5,-67 705.6217,-41.1242 637.8657,-61.6229 376.5,-31 366.6862,-29.8502 356.3126,-28.3276 346.2491,-26.6853"/>
<polygon fill="#191970" stroke="#191970" points="346.7637,-23.2227 336.3212,-25.0125 345.6006,-30.1254 346.7637,-23.2227"/>
</g>
<!-- Node14 -->
<g id="node15" class="node">
<title>Node14</title>
<polygon fill="none" stroke="#bfbfbf" points="385.5,-6 385.5,-25 553.5,-25 553.5,-6 385.5,-6"/>
<text text-anchor="middle" x="469.5" y="-13" font-family="Helvetica,sans-Serif" font-size="10.00" fill="#000000">Math/GenVector/Transform3D.h</text>
</g>
<!-- Node10&#45;&gt;Node14 -->
<g id="edge14" class="edge">
<title>Node10&#45;&gt;Node14</title>
<path fill="none" stroke="#191970" d="M979.1885,-68.3862C975.2355,-67.8973 971.3134,-67.4304 967.5,-67 787.9306,-46.7314 741.7566,-53.871 562.5,-31 552.7578,-29.757 542.4737,-28.2452 532.4367,-26.659"/>
<polygon fill="#191970" stroke="#191970" points="532.9417,-23.1952 522.5114,-25.055 531.825,-30.1056 532.9417,-23.1952"/>
</g>
<!-- Node15 -->
<g id="node16" class="node">
<title>Node15</title>
<polygon fill="none" stroke="#bfbfbf" points="572,-6 572,-25 745,-25 745,-6 572,-6"/>
<text text-anchor="middle" x="658.5" y="-13" font-family="Helvetica,sans-Serif" font-size="10.00" fill="#000000">Math/GenVector/Translation3D.h</text>
</g>
<!-- Node10&#45;&gt;Node15 -->
<g id="edge15" class="edge">
<title>Node10&#45;&gt;Node15</title>
<path fill="none" stroke="#191970" d="M981.3413,-67.4956C923.5047,-58.2012 832.9476,-43.6417 754.5,-31 745.7808,-29.5949 736.6164,-28.1168 727.5528,-26.6543"/>
<polygon fill="#191970" stroke="#191970" points="727.8216,-23.1524 717.3917,-25.0143 726.7062,-30.063 727.8216,-23.1524"/>
</g>
<!-- Node16 -->
<g id="node17" class="node">
<title>Node16</title>
<polygon fill="none" stroke="#bfbfbf" points="763.5,-.5 763.5,-30.5 927.5,-30.5 927.5,-.5 763.5,-.5"/>
<text text-anchor="start" x="771.5" y="-18.5" font-family="Helvetica,sans-Serif" font-size="10.00" fill="#000000">Math/GenVector/Displacement</text>
<text text-anchor="middle" x="845.5" y="-7.5" font-family="Helvetica,sans-Serif" font-size="10.00" fill="#000000">Vector2D.h</text>
</g>
<!-- Node10&#45;&gt;Node16 -->
<g id="edge16" class="edge">
<title>Node10&#45;&gt;Node16</title>
<path fill="none" stroke="#191970" d="M1010.0313,-67.3906C981.4411,-58.3737 937.947,-44.6563 902.8572,-33.5896"/>
<polygon fill="#191970" stroke="#191970" points="903.7921,-30.2145 893.2024,-30.5446 901.6866,-36.8904 903.7921,-30.2145"/>
</g>
<!-- Node17 -->
<g id="node18" class="node">
<title>Node17</title>
<polygon fill="none" stroke="#bfbfbf" points="946,-6 946,-25 1135,-25 1135,-6 946,-6"/>
<text text-anchor="middle" x="1040.5" y="-13" font-family="Helvetica,sans-Serif" font-size="10.00" fill="#000000">Math/GenVector/PositionVector2D.h</text>
</g>
<!-- Node10&#45;&gt;Node17 -->
<g id="edge17" class="edge">
<title>Node10&#45;&gt;Node17</title>
<path fill="none" stroke="#191970" d="M1040.5,-67.3906C1040.5,-58.8657 1040.5,-46.1392 1040.5,-35.4235"/>
<polygon fill="#191970" stroke="#191970" points="1044.0001,-35.2448 1040.5,-25.2449 1037.0001,-35.2449 1044.0001,-35.2448"/>
</g>
<!-- Node18 -->
<g id="node19" class="node">
<title>Node18</title>
<polygon fill="none" stroke="#bfbfbf" points="1153,-6 1153,-25 1212,-25 1212,-6 1153,-6"/>
<text text-anchor="middle" x="1182.5" y="-13" font-family="Helvetica,sans-Serif" font-size="10.00" fill="#000000">Rtypes.h</text>
</g>
<!-- Node10&#45;&gt;Node18 -->
<g id="edge18" class="edge">
<title>Node10&#45;&gt;Node18</title>
<path fill="none" stroke="#191970" d="M1062.6875,-67.3906C1086.4467,-57.1005 1124.3405,-40.6888 1151.1425,-29.0809"/>
<polygon fill="#191970" stroke="#191970" points="1152.683,-32.2279 1160.4683,-25.0419 1149.9009,-25.8045 1152.683,-32.2279"/>
</g>
<!-- Node19 -->
<g id="node20" class="node">
<title>Node19</title>
<polygon fill="none" stroke="#bfbfbf" points="1230.5,-6 1230.5,-25 1312.5,-25 1312.5,-6 1230.5,-6"/>
<text text-anchor="middle" x="1271.5" y="-13" font-family="Helvetica,sans-Serif" font-size="10.00" fill="#000000">TGeoMatrix.h</text>
</g>
<!-- Node10&#45;&gt;Node19 -->
<g id="edge19" class="edge">
<title>Node10&#45;&gt;Node19</title>
<path fill="none" stroke="#191970" d="M1079.9625,-67.4554C1116.5218,-58.4852 1172.3522,-44.4615 1220.5,-31 1223.9006,-30.0492 1227.4205,-29.0376 1230.9485,-28.0042"/>
<polygon fill="#191970" stroke="#191970" points="1232.2338,-31.2735 1240.8207,-25.0674 1230.2378,-24.5641 1232.2338,-31.2735"/>
</g>
<!-- Node20 -->
<g id="node21" class="node">
<title>Node20</title>
<polygon fill="none" stroke="#bfbfbf" points="1513,-6 1513,-25 1562,-25 1562,-6 1513,-6"/>
<text text-anchor="middle" x="1537.5" y="-13" font-family="Helvetica,sans-Serif" font-size="10.00" fill="#000000">iosfwd</text>
</g>
<!-- Node10&#45;&gt;Node20 -->
<g id="edge20" class="edge">
<title>Node10&#45;&gt;Node20</title>
<path fill="none" stroke="#191970" d="M1101.7548,-73.4144C1209.6791,-66.6815 1429.31,-51.005 1503.5,-31 1505.6883,-30.4099 1507.9126,-29.6922 1510.1223,-28.8927"/>
<polygon fill="#191970" stroke="#191970" points="1511.6457,-32.0506 1519.5593,-25.006 1508.9799,-25.578 1511.6457,-32.0506"/>
</g>
<!-- Node21&#45;&gt;Node4 -->
<g id="edge23" class="edge">
<title>Node21&#45;&gt;Node4</title>
<path fill="none" stroke="#191970" d="M1101.0856,-404.2766C1104.2683,-403.8262 1107.4246,-403.3967 1110.5,-403 1190.6771,-392.659 1401.9776,-406.5208 1472.5,-367 1491.428,-356.3928 1505.4175,-335.3501 1513.7121,-319.8649"/>
<polygon fill="#191970" stroke="#191970" points="1516.976,-321.1643 1518.3351,-310.6569 1510.7202,-318.0234 1516.976,-321.1643"/>
</g>
<!-- Node21&#45;&gt;Node5 -->
<g id="edge25" class="edge">
<title>Node21&#45;&gt;Node5</title>
<path fill="none" stroke="#191970" d="M993.9993,-409.9799C913.3275,-404.7974 755.99,-392.2382 624.5,-367 623.2458,-366.7593 621.9717,-366.4964 620.688,-366.2163"/>
<polygon fill="#191970" stroke="#191970" points="621.3799,-362.7825 610.835,-363.8104 619.7193,-369.5827 621.3799,-362.7825"/>
</g>
<!-- Node21&#45;&gt;Node7 -->
<g id="edge27" class="edge">
<title>Node21&#45;&gt;Node7</title>
<path fill="none" stroke="#191970" d="M1101.1075,-404.4329C1104.2847,-403.9432 1107.4338,-403.4623 1110.5,-403 1166.4362,-394.5657 1325.4362,-409.7349 1362.5,-367 1368.324,-360.2849 1367.2256,-354.5287 1362.5,-347 1275.9222,-209.0652 1076.0436,-159.2663 965.4987,-141.8808"/>
<polygon fill="#191970" stroke="#191970" points="965.8257,-138.3904 955.4129,-140.3457 964.7723,-145.3107 965.8257,-138.3904"/>
</g>
<!-- Node21&#45;&gt;Node8 -->
<g id="edge26" class="edge">
<title>Node21&#45;&gt;Node8</title>
<path fill="none" stroke="#191970" d="M993.6599,-408.7619C902.8851,-401.25 723.3344,-384.7138 662.5,-367 660.6212,-366.4529 408.5,-246.9568 408.5,-245 408.5,-245 408.5,-245 408.5,-189 408.5,-119.4066 505.7303,-91.8084 558.8319,-81.9253"/>
<polygon fill="#191970" stroke="#191970" points="559.5746,-85.3486 568.8219,-80.1777 558.3683,-78.4533 559.5746,-85.3486"/>
</g>
<!-- Node21&#45;&gt;Node10 -->
<g id="edge56" class="edge">
<title>Node21&#45;&gt;Node10</title>
<path fill="none" stroke="#191970" d="M1101.1029,-404.4024C1104.2813,-403.9203 1107.4319,-403.4495 1110.5,-403 1169.9558,-394.2893 1338.939,-412.2305 1378.5,-367 1485.3699,-244.8145 1189.6246,-127.9939 1079.7571,-89.9164"/>
<polygon fill="#191970" stroke="#191970" points="1080.6234,-86.5135 1070.0288,-86.5827 1078.3542,-93.1355 1080.6234,-86.5135"/>
</g>
<!-- Node22 -->
<g id="node23" class="node">
<title>Node22</title>
<polygon fill="none" stroke="#bfbfbf" points="1106.5,-347.5 1106.5,-366.5 1144.5,-366.5 1144.5,-347.5 1106.5,-347.5"/>
<text text-anchor="middle" x="1125.5" y="-354.5" font-family="Helvetica,sans-Serif" font-size="10.00" fill="#000000">map</text>
</g>
<!-- Node21&#45;&gt;Node22 -->
<g id="edge22" class="edge">
<title>Node21&#45;&gt;Node22</title>
<path fill="none" stroke="#191970" d="M1061.0866,-403.2455C1072.8305,-394.814 1090.0199,-382.4729 1103.6882,-372.6598"/>
<polygon fill="#191970" stroke="#191970" points="1105.9871,-375.3179 1112.0691,-366.6427 1101.9046,-369.6316 1105.9871,-375.3179"/>
</g>
<!-- Node23 -->
<g id="node24" class="node">
<title>Node23</title>
<polygon fill="none" stroke="#bfbfbf" points="1162.5,-347.5 1162.5,-366.5 1204.5,-366.5 1204.5,-347.5 1162.5,-347.5"/>
<text text-anchor="middle" x="1183.5" y="-354.5" font-family="Helvetica,sans-Serif" font-size="10.00" fill="#000000">array</text>
</g>
<!-- Node21&#45;&gt;Node23 -->
<g id="edge24" class="edge">
<title>Node21&#45;&gt;Node23</title>
<path fill="none" stroke="#191970" d="M1070.8792,-403.3733C1093.5408,-394.042 1128.0399,-379.8365 1152.8818,-369.6075"/>
<polygon fill="#191970" stroke="#191970" points="1154.2997,-372.8088 1162.2138,-365.7649 1151.6344,-366.3361 1154.2997,-372.8088"/>
</g>
<!-- Node24 -->
<g id="node25" class="node">
<title>Node24</title>
<g id="a_node25"><a xlink:href="../../de/d41/PadPos_8h.html" target="_top" xlink:title="TPCBase/PadPos.h">
<polygon fill="none" stroke="#000000" points="954.5,-235.5 954.5,-254.5 1060.5,-254.5 1060.5,-235.5 954.5,-235.5"/>
<text text-anchor="middle" x="1007.5" y="-242.5" font-family="Helvetica,sans-Serif" font-size="10.00" fill="#000000">TPCBase/PadPos.h</text>
</a>
</g>
</g>
<!-- Node21&#45;&gt;Node24 -->
<g id="edge28" class="edge">
<title>Node21&#45;&gt;Node24</title>
<path fill="none" stroke="#191970" d="M1045.2348,-403.4862C1038.8844,-376.8144 1020.8123,-300.9117 1012.1893,-264.695"/>
<polygon fill="#191970" stroke="#191970" points="1015.5611,-263.7452 1009.84,-254.8279 1008.7514,-265.3666 1015.5611,-263.7452"/>
</g>
<!-- Node25 -->
<g id="node26" class="node">
<title>Node25</title>
<g id="a_node26"><a xlink:href="../../dd/d0b/PadSecPos_8h.html" target="_top" xlink:title="TPCBase/PadSecPos.h">
<polygon fill="none" stroke="#000000" points="627,-291.5 627,-310.5 750,-310.5 750,-291.5 627,-291.5"/>
<text text-anchor="middle" x="688.5" y="-298.5" font-family="Helvetica,sans-Serif" font-size="10.00" fill="#000000">TPCBase/PadSecPos.h</text>
</a>
</g>
</g>
<!-- Node21&#45;&gt;Node25 -->
<g id="edge29" class="edge">
<title>Node21&#45;&gt;Node25</title>
<path fill="none" stroke="#191970" d="M993.97,-410.3164C916.0077,-405.5538 775.8909,-393.5132 733.5,-367 715.9219,-356.0059 703.5278,-335.3441 696.2577,-320.0555"/>
<polygon fill="#191970" stroke="#191970" points="699.2852,-318.2471 692.0425,-310.5144 692.8822,-321.076 699.2852,-318.2471"/>
</g>
<!-- Node21&#45;&gt;Node26 -->
<g id="edge55" class="edge">
<title>Node21&#45;&gt;Node26</title>
<path fill="none" stroke="#191970" d="M993.8487,-408.3941C912.1674,-400.9279 760.7066,-385.1728 709.5,-367 686.9443,-358.9951 629.2259,-331.8649 617.5,-311 597.7046,-275.7763 628.1646,-230.549 648.5605,-206.2617"/>
<polygon fill="#191970" stroke="#191970" points="651.3143,-208.4293 655.2562,-198.595 646.042,-203.8246 651.3143,-208.4293"/>
</g>
<!-- Node28 -->
<g id="node29" class="node">
<title>Node28</title>
<g id="a_node29"><a xlink:href="../../da/d61/PadROCPos_8h.html" target="_top" xlink:title="TPCBase/PadROCPos.h">
<polygon fill="none" stroke="#000000" points="1069,-291.5 1069,-310.5 1196,-310.5 1196,-291.5 1069,-291.5"/>
<text text-anchor="middle" x="1132.5" y="-298.5" font-family="Helvetica,sans-Serif" font-size="10.00" fill="#000000">TPCBase/PadROCPos.h</text>
</a>
</g>
</g>
<!-- Node21&#45;&gt;Node28 -->
<g id="edge34" class="edge">
<title>Node21&#45;&gt;Node28</title>
<path fill="none" stroke="#191970" d="M1054.9481,-403.1551C1064.7118,-390.2527 1082.375,-366.9217 1097.5,-347 1104.6157,-337.6276 1112.5564,-327.1896 1119.0732,-318.6287"/>
<polygon fill="#191970" stroke="#191970" points="1121.9814,-320.5869 1125.2547,-310.5104 1116.412,-316.3463 1121.9814,-320.5869"/>
</g>
<!-- Node30 -->
<g id="node31" class="node">
<title>Node30</title>
<g id="a_node31"><a xlink:href="../../d3/d54/DigitPos_8h.html" target="_top" xlink:title="TPCBase/DigitPos.h">
<polygon fill="none" stroke="#000000" points="742.5,-347.5 742.5,-366.5 854.5,-366.5 854.5,-347.5 742.5,-347.5"/>
<text text-anchor="middle" x="798.5" y="-354.5" font-family="Helvetica,sans-Serif" font-size="10.00" fill="#000000">TPCBase/DigitPos.h</text>
</a>
</g>
</g>
<!-- Node21&#45;&gt;Node30 -->
<g id="edge40" class="edge">
<title>Node21&#45;&gt;Node30</title>
<path fill="none" stroke="#191970" d="M1004.9783,-403.4369C962.3639,-393.8529 896.6824,-379.0812 850.879,-368.78"/>
<polygon fill="#191970" stroke="#191970" points="851.3706,-365.3032 840.8463,-366.5237 849.8346,-372.1326 851.3706,-365.3032"/>
</g>
<!-- Node32 -->
<g id="node33" class="node">
<title>Node32</title>
<g id="a_node33"><a xlink:href="../../d1/d1f/FECInfo_8h.html" target="_top" xlink:title="TPCBase/FECInfo.h">
<polygon fill="none" stroke="#000000" points="1483.5,-179.5 1483.5,-198.5 1591.5,-198.5 1591.5,-179.5 1483.5,-179.5"/>
<text text-anchor="middle" x="1537.5" y="-186.5" font-family="Helvetica,sans-Serif" font-size="10.00" fill="#000000">TPCBase/FECInfo.h</text>
</a>
</g>
</g>
<!-- Node21&#45;&gt;Node32 -->
<g id="edge48" class="edge">
<title>Node21&#45;&gt;Node32</title>
<path fill="none" stroke="#191970" d="M1101.0912,-404.3188C1104.2725,-403.8578 1107.427,-403.4144 1110.5,-403 1182.2933,-393.319 1373.8422,-406.6059 1434.5,-367 1464.4022,-347.4756 1510.467,-249.7717 1529.1749,-207.9948"/>
<polygon fill="#191970" stroke="#191970" points="1532.4601,-209.2204 1533.3153,-198.6601 1526.0613,-206.3822 1532.4601,-209.2204"/>
</g>
<!-- Node33 -->
<g id="node34" class="node">
<title>Node33</title>
<g id="a_node34"><a xlink:href="../../da/d9d/PadRegionInfo_8h.html" target="_top" xlink:title="TPCBase/PadRegionInfo.h">
<polygon fill="none" stroke="#000000" points="872.5,-347.5 872.5,-366.5 1012.5,-366.5 1012.5,-347.5 872.5,-347.5"/>
<text text-anchor="middle" x="942.5" y="-354.5" font-family="Helvetica,sans-Serif" font-size="10.00" fill="#000000">TPCBase/PadRegionInfo.h</text>
</a>
</g>
</g>
<!-- Node21&#45;&gt;Node33 -->
<g id="edge50" class="edge">
<title>Node21&#45;&gt;Node33</title>
<path fill="none" stroke="#191970" d="M1029.2104,-403.2455C1012.7238,-394.4527 988.2648,-381.4079 969.5235,-371.4125"/>
<polygon fill="#191970" stroke="#191970" points="971.0506,-368.2604 960.58,-366.6427 967.7565,-374.4368 971.0506,-368.2604"/>
</g>
<!-- Node34 -->
<g id="node35" class="node">
<title>Node34</title>
<g id="a_node35"><a xlink:href="../../d6/d42/PartitionInfo_8h.html" target="_top" xlink:title="TPCBase/PartitionInfo.h">
<polygon fill="none" stroke="#000000" points="1223,-347.5 1223,-366.5 1354,-366.5 1354,-347.5 1223,-347.5"/>
<text text-anchor="middle" x="1288.5" y="-354.5" font-family="Helvetica,sans-Serif" font-size="10.00" fill="#000000">TPCBase/PartitionInfo.h</text>
</a>
</g>
</g>
<!-- Node21&#45;&gt;Node34 -->
<g id="edge54" class="edge">
<title>Node21&#45;&gt;Node34</title>
<path fill="none" stroke="#191970" d="M1088.6555,-403.4369C1129.8142,-393.8731 1193.205,-379.1432 1237.5242,-368.845"/>
<polygon fill="#191970" stroke="#191970" points="1238.5659,-372.1963 1247.5142,-366.5237 1236.9815,-365.3779 1238.5659,-372.1963"/>
</g>
<!-- Node25&#45;&gt;Node24 -->
<g id="edge33" class="edge">
<title>Node25&#45;&gt;Node24</title>
<path fill="none" stroke="#191970" d="M742.9756,-291.4369C798.824,-281.6328 885.5972,-266.3999 944.3985,-256.0774"/>
<polygon fill="#191970" stroke="#191970" points="945.0672,-259.5136 954.3114,-254.3372 943.8568,-252.619 945.0672,-259.5136"/>
</g>
<!-- Node25&#45;&gt;Node26 -->
<g id="edge30" class="edge">
<title>Node25&#45;&gt;Node26</title>
<path fill="none" stroke="#191970" d="M686.4538,-291.4509C682.5217,-273.1013 673.8409,-232.5908 668.6506,-208.3693"/>
<polygon fill="#191970" stroke="#191970" points="672.0587,-207.5695 666.541,-198.5249 665.2141,-209.0363 672.0587,-207.5695"/>
</g>
<!-- Node26&#45;&gt;Node7 -->
<g id="edge32" class="edge">
<title>Node26&#45;&gt;Node7</title>
<path fill="none" stroke="#191970" d="M702.7525,-179.4369C740.8467,-169.9133 799.4313,-155.2672 840.5987,-144.9753"/>
<polygon fill="#191970" stroke="#191970" points="841.5528,-148.3446 850.4053,-142.5237 839.855,-141.5536 841.5528,-148.3446"/>
</g>
<!-- Node27 -->
<g id="node28" class="node">
<title>Node27</title>
<g id="a_node28"><a xlink:href="../../d0/dda/DataFormats_2Detectors_2TPC_2include_2DataFormatsTPC_2Constants_8h.html" target="_top" xlink:title="DataFormatsTPC/Constants.h">
<polygon fill="none" stroke="#000000" points="585,-123.5 585,-142.5 744,-142.5 744,-123.5 585,-123.5"/>
<text text-anchor="middle" x="664.5" y="-130.5" font-family="Helvetica,sans-Serif" font-size="10.00" fill="#000000">DataFormatsTPC/Constants.h</text>
</a>
</g>
</g>
<!-- Node26&#45;&gt;Node27 -->
<g id="edge31" class="edge">
<title>Node26&#45;&gt;Node27</title>
<path fill="none" stroke="#191970" d="M664.5,-179.2455C664.5,-171.9382 664.5,-161.6944 664.5,-152.7046"/>
<polygon fill="#191970" stroke="#191970" points="668.0001,-152.6426 664.5,-142.6427 661.0001,-152.6427 668.0001,-152.6426"/>
</g>
<!-- Node28&#45;&gt;Node7 -->
<g id="edge35" class="edge">
<title>Node28&#45;&gt;Node7</title>
<path fill="none" stroke="#191970" d="M1124.7174,-291.1728C1113.522,-277.4553 1091.7589,-252.3079 1069.5,-235 1021.0125,-197.2976 956.9464,-164.6223 919.4797,-146.9677"/>
<polygon fill="#191970" stroke="#191970" points="920.6457,-143.6499 910.1028,-142.6018 917.691,-149.9957 920.6457,-143.6499"/>
</g>
<!-- Node28&#45;&gt;Node24 -->
<g id="edge39" class="edge">
<title>Node28&#45;&gt;Node24</title>
<path fill="none" stroke="#191970" d="M1111.0117,-291.3733C1090.856,-282.3435 1060.512,-268.7494 1037.882,-258.6111"/>
<polygon fill="#191970" stroke="#191970" points="1039.2649,-255.3955 1028.7079,-254.5011 1036.4029,-261.7838 1039.2649,-255.3955"/>
</g>
<!-- Node28&#45;&gt;Node29 -->
<g id="edge36" class="edge">
<title>Node28&#45;&gt;Node29</title>
<path fill="none" stroke="#191970" d="M1071.7059,-291.4369C1004.6924,-280.8954 897.7808,-264.0779 832.6724,-253.8361"/>
<polygon fill="#191970" stroke="#191970" points="833.0168,-250.3473 822.5944,-252.2508 831.929,-257.2623 833.0168,-250.3473"/>
</g>
<!-- Node29&#45;&gt;Node7 -->
<g id="edge37" class="edge">
<title>Node29&#45;&gt;Node7</title>
<path fill="none" stroke="#191970" d="M784.7318,-235.3C796.0143,-222.1582 817.0979,-198.1407 836.5,-179 846.9575,-168.6834 859.2435,-157.764 869.2469,-149.154"/>
<polygon fill="#191970" stroke="#191970" points="871.6809,-151.6783 877.0226,-142.5286 867.1409,-146.3502 871.6809,-151.6783"/>
</g>
<!-- Node29&#45;&gt;Node26 -->
<g id="edge38" class="edge">
<title>Node29&#45;&gt;Node26</title>
<path fill="none" stroke="#191970" d="M757.2465,-235.3733C739.4288,-226.4644 712.7253,-213.1127 692.5406,-203.0203"/>
<polygon fill="#191970" stroke="#191970" points="694.0118,-199.8428 683.5022,-198.5011 690.8813,-206.1038 694.0118,-199.8428"/>
</g>
<!-- Node30&#45;&gt;Node7 -->
<g id="edge41" class="edge">
<title>Node30&#45;&gt;Node7</title>
<path fill="none" stroke="#191970" d="M823.7814,-347.3709C839.656,-339.9361 859.0403,-328.0172 869.5,-311 900.2045,-261.0458 895.9708,-188.0401 891.62,-153.0943"/>
<polygon fill="#191970" stroke="#191970" points="895.0316,-152.2146 890.1904,-142.7905 888.098,-153.1766 895.0316,-152.2146"/>
</g>
<!-- Node30&#45;&gt;Node24 -->
<g id="edge46" class="edge">
<title>Node30&#45;&gt;Node24</title>
<path fill="none" stroke="#191970" d="M822.9283,-347.3698C844.3088,-338.666 876.005,-325.0913 902.5,-311 931.9757,-295.3234 964.265,-274.4247 985.1463,-260.3807"/>
<polygon fill="#191970" stroke="#191970" points="987.3078,-263.1439 993.621,-254.6355 983.3798,-257.3499 987.3078,-263.1439"/>
</g>
<!-- Node30&#45;&gt;Node25 -->
<g id="edge47" class="edge">
<title>Node30&#45;&gt;Node25</title>
<path fill="none" stroke="#191970" d="M779.3395,-347.2455C761.9889,-338.4125 736.2099,-325.2887 716.5417,-315.2758"/>
<polygon fill="#191970" stroke="#191970" points="717.9405,-312.0605 707.441,-310.6427 714.7647,-318.2986 717.9405,-312.0605"/>
</g>
<!-- Node31 -->
<g id="node32" class="node">
<title>Node31</title>
<g id="a_node32"><a xlink:href="../../df/d26/CRU_8h.html" target="_top" xlink:title="TPCBase/CRU.h">
<polygon fill="none" stroke="#000000" points="768.5,-291.5 768.5,-310.5 860.5,-310.5 860.5,-291.5 768.5,-291.5"/>
<text text-anchor="middle" x="814.5" y="-298.5" font-family="Helvetica,sans-Serif" font-size="10.00" fill="#000000">TPCBase/CRU.h</text>
</a>
</g>
</g>
<!-- Node30&#45;&gt;Node31 -->
<g id="edge42" class="edge">
<title>Node30&#45;&gt;Node31</title>
<path fill="none" stroke="#191970" d="M801.287,-347.2455C803.3977,-339.8579 806.366,-329.4689 808.9547,-320.4087"/>
<polygon fill="#191970" stroke="#191970" points="812.363,-321.2195 811.745,-310.6427 805.6323,-319.2964 812.363,-321.2195"/>
</g>
<!-- Node31&#45;&gt;Node7 -->
<g id="edge43" class="edge">
<title>Node31&#45;&gt;Node7</title>
<path fill="none" stroke="#191970" d="M818.6906,-291.4862C830.4895,-264.6994 864.1608,-188.2565 880.0301,-152.2289"/>
<polygon fill="#191970" stroke="#191970" points="883.343,-153.3903 884.1711,-142.8279 876.9369,-150.5686 883.343,-153.3903"/>
</g>
<!-- Node31&#45;&gt;Node26 -->
<g id="edge44" class="edge">
<title>Node31&#45;&gt;Node26</title>
<path fill="none" stroke="#191970" d="M788.45,-291.409C768.8711,-283.4502 742.009,-270.8806 721.5,-255 703.8243,-241.3133 687.576,-221.4583 676.9889,-207.1039"/>
<polygon fill="#191970" stroke="#191970" points="679.5578,-204.6795 670.891,-198.5854 673.8658,-208.754 679.5578,-204.6795"/>
</g>
<!-- Node31&#45;&gt;Node29 -->
<g id="edge45" class="edge">
<title>Node31&#45;&gt;Node29</title>
<path fill="none" stroke="#191970" d="M807.8809,-291.2455C802.5954,-283.4564 795.0459,-272.3308 788.6762,-262.9439"/>
<polygon fill="#191970" stroke="#191970" points="791.5545,-260.9522 783.0432,-254.6427 785.7621,-264.8827 791.5545,-260.9522"/>
</g>
<!-- Node32&#45;&gt;Node20 -->
<g id="edge49" class="edge">
<title>Node32&#45;&gt;Node20</title>
<path fill="none" stroke="#191970" d="M1537.5,-179.4248C1537.5,-151.999 1537.5,-72.732 1537.5,-35.3964"/>
<polygon fill="#191970" stroke="#191970" points="1541.0001,-35.2595 1537.5,-25.2595 1534.0001,-35.2596 1541.0001,-35.2595"/>
</g>
<!-- Node33&#45;&gt;Node4 -->
<g id="edge51" class="edge">
<title>Node33&#45;&gt;Node4</title>
<path fill="none" stroke="#191970" d="M1012.7503,-350.2172C1138.2225,-338.1027 1396.3482,-313.1802 1488.7087,-304.2626"/>
<polygon fill="#191970" stroke="#191970" points="1489.264,-307.7254 1498.8813,-303.2804 1488.5912,-300.7578 1489.264,-307.7254"/>
</g>
<!-- Node33&#45;&gt;Node7 -->
<g id="edge52" class="edge">
<title>Node33&#45;&gt;Node7</title>
<path fill="none" stroke="#191970" d="M940.5831,-347.2912C935.2156,-320.3939 919.3248,-242.6962 902.5,-179 900.1876,-170.2455 897.3213,-160.6515 894.7858,-152.5009"/>
<polygon fill="#191970" stroke="#191970" points="898.0727,-151.287 891.7174,-142.8099 891.3992,-153.4 898.0727,-151.287"/>
</g>
<!-- Node33&#45;&gt;Node24 -->
<g id="edge53" class="edge">
<title>Node33&#45;&gt;Node24</title>
<path fill="none" stroke="#191970" d="M951.2733,-347.2946C959.0845,-338.3267 970.4837,-324.4028 978.5,-311 987.4217,-296.0833 995.198,-277.9278 1000.446,-264.4373"/>
<polygon fill="#191970" stroke="#191970" points="1003.838,-265.3612 1004.0864,-254.7692 997.287,-262.8944 1003.838,-265.3612"/>
</g>
<!-- Node35&#45;&gt;Node3 -->
<g id="edge61" class="edge">
<title>Node35&#45;&gt;Node3</title>
<path fill="none" stroke="#191970" d="M1339.5336,-460.6767C1416.6356,-449.2239 1553.5256,-428.8901 1620.8581,-418.8885"/>
<polygon fill="#191970" stroke="#191970" points="1621.6703,-422.3063 1631.0475,-417.3749 1620.6418,-415.3823 1621.6703,-422.3063"/>
</g>
<!-- Node35&#45;&gt;Node4 -->
<g id="edge62" class="edge">
<title>Node35&#45;&gt;Node4</title>
<path fill="none" stroke="#191970" d="M1326.393,-459.4761C1355.6647,-451.9676 1394.7374,-439.9226 1426.5,-423 1461.9696,-404.1024 1473.7405,-399.4145 1497.5,-367 1507.6739,-353.1199 1514.2094,-334.6036 1518.0364,-320.7163"/>
<polygon fill="#191970" stroke="#191970" points="1521.4985,-321.3001 1520.5426,-310.7485 1514.7098,-319.5932 1521.4985,-321.3001"/>
</g>
<!-- Node35&#45;&gt;Node5 -->
<g id="edge63" class="edge">
<title>Node35&#45;&gt;Node5</title>
<path fill="none" stroke="#191970" d="M1227.1093,-462.5532C1112.7099,-448.9742 845.4541,-414.7032 624.5,-367 623.2517,-366.7305 621.9825,-366.4433 620.703,-366.1427"/>
<polygon fill="#191970" stroke="#191970" points="621.4216,-362.7143 610.8681,-363.6483 619.7007,-369.4994 621.4216,-362.7143"/>
</g>
<!-- Node35&#45;&gt;Node21 -->
<g id="edge66" class="edge">
<title>Node35&#45;&gt;Node21</title>
<path fill="none" stroke="#191970" d="M1243.1983,-459.4369C1202.8936,-449.8731 1140.8179,-435.1432 1097.4182,-424.845"/>
<polygon fill="#191970" stroke="#191970" points="1098.1734,-421.4271 1087.6355,-422.5237 1096.5572,-428.238 1098.1734,-421.4271"/>
</g>
<!-- Node36 -->
<g id="node37" class="node">
<title>Node36</title>
<polygon fill="none" stroke="#bfbfbf" points="1373.5,-403.5 1373.5,-422.5 1417.5,-422.5 1417.5,-403.5 1373.5,-403.5"/>
<text text-anchor="middle" x="1395.5" y="-410.5" font-family="Helvetica,sans-Serif" font-size="10.00" fill="#000000">Vc/Vc</text>
</g>
<!-- Node35&#45;&gt;Node36 -->
<g id="edge60" class="edge">
<title>Node35&#45;&gt;Node36</title>
<path fill="none" stroke="#191970" d="M1302.7535,-459.3733C1320.5712,-450.4644 1347.2747,-437.1127 1367.4594,-427.0203"/>
<polygon fill="#191970" stroke="#191970" points="1369.1187,-430.1038 1376.4978,-422.5011 1365.9882,-423.8428 1369.1187,-430.1038"/>
</g>
<!-- Node37 -->
<g id="node38" class="node">
<title>Node37</title>
<polygon fill="none" stroke="#bfbfbf" points="1119.5,-403.5 1119.5,-422.5 1175.5,-422.5 1175.5,-403.5 1119.5,-403.5"/>
<text text-anchor="middle" x="1147.5" y="-410.5" font-family="Helvetica,sans-Serif" font-size="10.00" fill="#000000">numeric</text>
</g>
<!-- Node35&#45;&gt;Node37 -->
<g id="edge64" class="edge">
<title>Node35&#45;&gt;Node37</title>
<path fill="none" stroke="#191970" d="M1260.1208,-459.3733C1237.9955,-450.2629 1204.5866,-436.5062 1179.8981,-426.3404"/>
<polygon fill="#191970" stroke="#191970" points="1181.1536,-423.0723 1170.5742,-422.5011 1178.4883,-429.5451 1181.1536,-423.0723"/>
</g>
<!-- Node38 -->
<g id="node39" class="node">
<title>Node38</title>
<polygon fill="none" stroke="#bfbfbf" points="1194,-403.5 1194,-422.5 1263,-422.5 1263,-403.5 1194,-403.5"/>
<text text-anchor="middle" x="1228.5" y="-410.5" font-family="Helvetica,sans-Serif" font-size="10.00" fill="#000000">type_traits</text>
</g>
<!-- Node35&#45;&gt;Node38 -->
<g id="edge65" class="edge">
<title>Node35&#45;&gt;Node38</title>
<path fill="none" stroke="#191970" d="M1273.9197,-459.2455C1265.9542,-451.1352 1254.4359,-439.4075 1244.9921,-429.7919"/>
<polygon fill="#191970" stroke="#191970" points="1247.4747,-427.3247 1237.9705,-422.6427 1242.4805,-432.2297 1247.4747,-427.3247"/>
</g>
<!-- Node39 -->
<g id="node40" class="node">
<title>Node39</title>
<polygon fill="none" stroke="#bfbfbf" points="1281,-403.5 1281,-422.5 1356,-422.5 1356,-403.5 1281,-403.5"/>
<text text-anchor="middle" x="1318.5" y="-410.5" font-family="Helvetica,sans-Serif" font-size="10.00" fill="#000000">FairLogger.h</text>
</g>
<!-- Node35&#45;&gt;Node39 -->
<g id="edge67" class="edge">
<title>Node35&#45;&gt;Node39</title>
<path fill="none" stroke="#191970" d="M1289.5965,-459.2455C1294.4145,-451.5367 1301.2751,-440.5598 1307.1032,-431.2348"/>
<polygon fill="#191970" stroke="#191970" points="1310.1413,-432.9777 1312.4733,-422.6427 1304.2053,-429.2677 1310.1413,-432.9777"/>
</g>
<!-- Node35&#45;&gt;Node40 -->
<g id="edge68" class="edge">
<title>Node35&#45;&gt;Node40</title>
<path fill="none" stroke="#191970" d="M1324.6555,-459.4369C1365.8142,-449.8731 1429.205,-435.1432 1473.5242,-424.845"/>
<polygon fill="#191970" stroke="#191970" points="1474.5659,-428.1963 1483.5142,-422.5237 1472.9815,-421.3779 1474.5659,-428.1963"/>
</g>
<!-- Node42 -->
<g id="node43" class="node">
<title>Node42</title>
<polygon fill="none" stroke="#bfbfbf" points="1707.5,-403.5 1707.5,-422.5 1815.5,-422.5 1815.5,-403.5 1707.5,-403.5"/>
<text text-anchor="middle" x="1761.5" y="-410.5" font-family="Helvetica,sans-Serif" font-size="10.00" fill="#000000">fairlogger/Logger.h</text>
</g>
<!-- Node41&#45;&gt;Node42 -->
<g id="edge70" class="edge">
<title>Node41&#45;&gt;Node42</title>
<path fill="none" stroke="#191970" d="M1758.1967,-459.2455C1758.7187,-451.9382 1759.4504,-441.6944 1760.0925,-432.7046"/>
<polygon fill="#191970" stroke="#191970" points="1763.5898,-432.8667 1760.8112,-422.6427 1756.6076,-432.3679 1763.5898,-432.8667"/>
</g>
</g>
</svg>
