<?xml version="1.0" encoding="UTF-8" standalone="no"?>
<!DOCTYPE svg PUBLIC "-//W3C//DTD SVG 1.1//EN"
 "http://www.w3.org/Graphics/SVG/1.1/DTD/svg11.dtd">
<!-- Generated by graphviz version 2.40.1 (20161225.0304)
 -->
<!-- Title: /home/travis/build/AliceO2Group/AliceO2/Detectors/Calibration/include/DetectorsCalibration/Utils.h Pages: 1 -->
<svg width="1341pt" height="272pt"
 viewBox="0.00 0.00 1340.50 272.00" xmlns="http://www.w3.org/2000/svg" xmlns:xlink="http://www.w3.org/1999/xlink">
<g id="graph0" class="graph" transform="scale(1 1) rotate(0) translate(4 268)">
<title>/home/travis/build/AliceO2Group/AliceO2/Detectors/Calibration/include/DetectorsCalibration/Utils.h</title>
<!-- Node19 -->
<g id="node1" class="node">
<title>Node19</title>
<polygon fill="#bfbfbf" stroke="#000000" points="537.5,-200.5 537.5,-263.5 695.5,-263.5 695.5,-200.5 537.5,-200.5"/>
<text text-anchor="start" x="545.5" y="-251.5" font-family="Helvetica,sans-Serif" font-size="10.00" fill="#000000">/home/travis/build</text>
<text text-anchor="start" x="545.5" y="-240.5" font-family="Helvetica,sans-Serif" font-size="10.00" fill="#000000">/AliceO2Group/AliceO2</text>
<text text-anchor="start" x="545.5" y="-229.5" font-family="Helvetica,sans-Serif" font-size="10.00" fill="#000000">/Detectors/Calibration</text>
<text text-anchor="start" x="545.5" y="-218.5" font-family="Helvetica,sans-Serif" font-size="10.00" fill="#000000">/include/DetectorsCalibration</text>
<text text-anchor="middle" x="616.5" y="-207.5" font-family="Helvetica,sans-Serif" font-size="10.00" fill="#000000">/Utils.h</text>
</g>
<!-- Node20 -->
<g id="node2" class="node">
<title>Node20</title>
<g id="a_node2"><a xlink:href="../../df/df4/CCDBPopulatorSpec_8h.html" target="_top" xlink:title="/home/travis/build\l/AliceO2Group/AliceO2\l/Detectors/Calibration\l/workflow/CCDBPopulatorSpec.h">
<polygon fill="none" stroke="#000000" points="0,-106 0,-158 173,-158 173,-106 0,-106"/>
<text text-anchor="start" x="8" y="-146" font-family="Helvetica,sans-Serif" font-size="10.00" fill="#000000">/home/travis/build</text>
<text text-anchor="start" x="8" y="-135" font-family="Helvetica,sans-Serif" font-size="10.00" fill="#000000">/AliceO2Group/AliceO2</text>
<text text-anchor="start" x="8" y="-124" font-family="Helvetica,sans-Serif" font-size="10.00" fill="#000000">/Detectors/Calibration</text>
<text text-anchor="middle" x="86.5" y="-113" font-family="Helvetica,sans-Serif" font-size="10.00" fill="#000000">/workflow/CCDBPopulatorSpec.h</text>
</a>
</g>
</g>
<!-- Node19&#45;&gt;Node20 -->
<g id="edge1" class="edge">
<title>Node19&#45;&gt;Node20</title>
<path fill="none" stroke="#191970" d="M527.1099,-222.5281C438.5513,-212.0933 299.462,-192.8655 181.5,-164 174.4,-162.2626 167.0726,-160.234 159.7835,-158.0564"/>
<polygon fill="#191970" stroke="#191970" points="526.7815,-226.0135 537.1197,-223.6955 527.5924,-219.0606 526.7815,-226.0135"/>
</g>
<!-- Node22 -->
<g id="node4" class="node">
<title>Node22</title>
<g id="a_node4"><a xlink:href="../../d8/d4e/DCSDataProcessorSpec_8h.html" target="_top" xlink:title="/home/travis/build\l/AliceO2Group/AliceO2\l/Detectors/DCS/testWorkflow\l/DCSDataProcessorSpec.h">
<polygon fill="none" stroke="#000000" points="191,-106 191,-158 348,-158 348,-106 191,-106"/>
<text text-anchor="start" x="199" y="-146" font-family="Helvetica,sans-Serif" font-size="10.00" fill="#000000">/home/travis/build</text>
<text text-anchor="start" x="199" y="-135" font-family="Helvetica,sans-Serif" font-size="10.00" fill="#000000">/AliceO2Group/AliceO2</text>
<text text-anchor="start" x="199" y="-124" font-family="Helvetica,sans-Serif" font-size="10.00" fill="#000000">/Detectors/DCS/testWorkflow</text>
<text text-anchor="middle" x="269.5" y="-113" font-family="Helvetica,sans-Serif" font-size="10.00" fill="#000000">/DCSDataProcessorSpec.h</text>
</a>
</g>
</g>
<!-- Node19&#45;&gt;Node22 -->
<g id="edge3" class="edge">
<title>Node19&#45;&gt;Node22</title>
<path fill="none" stroke="#191970" d="M527.5199,-210.9895C477.0214,-198.5025 412.8405,-181.6836 356.5,-164 350.6651,-162.1686 344.6456,-160.1758 338.6247,-158.1099"/>
<polygon fill="#191970" stroke="#191970" points="526.8842,-214.4374 537.4308,-213.4282 528.5567,-207.6402 526.8842,-214.4374"/>
</g>
<!-- Node24 -->
<g id="node6" class="node">
<title>Node24</title>
<g id="a_node6"><a xlink:href="../../d1/dff/LHCClockCalibrator_8cxx.html" target="_top" xlink:title="/home/travis/build\l/AliceO2Group/AliceO2\l/Detectors/TOF/calibration\l/src/LHCClockCalibrator.cxx">
<polygon fill="none" stroke="#000000" points="366,-106 366,-158 517,-158 517,-106 366,-106"/>
<text text-anchor="start" x="374" y="-146" font-family="Helvetica,sans-Serif" font-size="10.00" fill="#000000">/home/travis/build</text>
<text text-anchor="start" x="374" y="-135" font-family="Helvetica,sans-Serif" font-size="10.00" fill="#000000">/AliceO2Group/AliceO2</text>
<text text-anchor="start" x="374" y="-124" font-family="Helvetica,sans-Serif" font-size="10.00" fill="#000000">/Detectors/TOF/calibration</text>
<text text-anchor="middle" x="441.5" y="-113" font-family="Helvetica,sans-Serif" font-size="10.00" fill="#000000">/src/LHCClockCalibrator.cxx</text>
</a>
</g>
</g>
<!-- Node19&#45;&gt;Node24 -->
<g id="edge5" class="edge">
<title>Node19&#45;&gt;Node24</title>
<path fill="none" stroke="#191970" d="M552.3239,-195.3279C530.7021,-182.9726 507.0305,-169.446 487.1364,-158.078"/>
<polygon fill="#191970" stroke="#191970" points="550.71,-198.4368 561.1289,-200.3594 554.183,-192.3591 550.71,-198.4368"/>
</g>
<!-- Node25 -->
<g id="node7" class="node">
<title>Node25</title>
<g id="a_node7"><a xlink:href="../../d9/dff/TOFChannelCalibrator_8cxx.html" target="_top" xlink:title="/home/travis/build\l/AliceO2Group/AliceO2\l/Detectors/TOF/calibration\l/src/TOFChannelCalibrator.cxx">
<polygon fill="none" stroke="#000000" points="535,-106 535,-158 698,-158 698,-106 535,-106"/>
<text text-anchor="start" x="543" y="-146" font-family="Helvetica,sans-Serif" font-size="10.00" fill="#000000">/home/travis/build</text>
<text text-anchor="start" x="543" y="-135" font-family="Helvetica,sans-Serif" font-size="10.00" fill="#000000">/AliceO2Group/AliceO2</text>
<text text-anchor="start" x="543" y="-124" font-family="Helvetica,sans-Serif" font-size="10.00" fill="#000000">/Detectors/TOF/calibration</text>
<text text-anchor="middle" x="616.5" y="-113" font-family="Helvetica,sans-Serif" font-size="10.00" fill="#000000">/src/TOFChannelCalibrator.cxx</text>
</a>
</g>
</g>
<!-- Node19&#45;&gt;Node25 -->
<g id="edge6" class="edge">
<title>Node19&#45;&gt;Node25</title>
<path fill="none" stroke="#191970" d="M616.5,-190.1631C616.5,-179.2863 616.5,-167.8798 616.5,-158.078"/>
<polygon fill="#191970" stroke="#191970" points="613.0001,-190.3593 616.5,-200.3594 620.0001,-190.3594 613.0001,-190.3593"/>
</g>
<!-- Node26 -->
<g id="node8" class="node">
<title>Node26</title>
<g id="a_node8"><a xlink:href="../../d0/d37/LHCClockCalibratorSpec_8h.html" target="_top" xlink:title="Device to calibrate LHC clock phase using TOF data. ">
<polygon fill="none" stroke="#000000" points="716,-100.5 716,-163.5 897,-163.5 897,-100.5 716,-100.5"/>
<text text-anchor="start" x="724" y="-151.5" font-family="Helvetica,sans-Serif" font-size="10.00" fill="#000000">/home/travis/build</text>
<text text-anchor="start" x="724" y="-140.5" font-family="Helvetica,sans-Serif" font-size="10.00" fill="#000000">/AliceO2Group/AliceO2</text>
<text text-anchor="start" x="724" y="-129.5" font-family="Helvetica,sans-Serif" font-size="10.00" fill="#000000">/Detectors/TOF/calibration</text>
<text text-anchor="start" x="724" y="-118.5" font-family="Helvetica,sans-Serif" font-size="10.00" fill="#000000">/testWorkflow/LHCClockCalibrator</text>
<text text-anchor="middle" x="806.5" y="-107.5" font-family="Helvetica,sans-Serif" font-size="10.00" fill="#000000">Spec.h</text>
</a>
</g>
</g>
<!-- Node19&#45;&gt;Node26 -->
<g id="edge7" class="edge">
<title>Node19&#45;&gt;Node26</title>
<path fill="none" stroke="#191970" d="M685.4309,-195.7206C705.4691,-185.1741 727.1845,-173.745 746.6181,-163.5168"/>
<polygon fill="#191970" stroke="#191970" points="683.5755,-192.7419 676.3564,-200.4966 686.8357,-198.9363 683.5755,-192.7419"/>
</g>
<!-- Node29 -->
<g id="node11" class="node">
<title>Node29</title>
<g id="a_node11"><a xlink:href="../../df/de3/TOFChannelCalibratorSpec_8h.html" target="_top" xlink:title="Device to calibrate TOF channles (offsets) ">
<polygon fill="none" stroke="#000000" points="915,-100.5 915,-163.5 1108,-163.5 1108,-100.5 915,-100.5"/>
<text text-anchor="start" x="923" y="-151.5" font-family="Helvetica,sans-Serif" font-size="10.00" fill="#000000">/home/travis/build</text>
<text text-anchor="start" x="923" y="-140.5" font-family="Helvetica,sans-Serif" font-size="10.00" fill="#000000">/AliceO2Group/AliceO2</text>
<text text-anchor="start" x="923" y="-129.5" font-family="Helvetica,sans-Serif" font-size="10.00" fill="#000000">/Detectors/TOF/calibration</text>
<text text-anchor="start" x="923" y="-118.5" font-family="Helvetica,sans-Serif" font-size="10.00" fill="#000000">/testWorkflow/TOFChannelCalibrator</text>
<text text-anchor="middle" x="1011.5" y="-107.5" font-family="Helvetica,sans-Serif" font-size="10.00" fill="#000000">Spec.h</text>
</a>
</g>
</g>
<!-- Node19&#45;&gt;Node29 -->
<g id="edge10" class="edge">
<title>Node19&#45;&gt;Node29</title>
<path fill="none" stroke="#191970" d="M705.3985,-212.5835C762.7379,-199.6905 838.7918,-181.8987 905.5,-164 908.5635,-163.178 911.6723,-162.3291 914.8081,-161.4601"/>
<polygon fill="#191970" stroke="#191970" points="704.6325,-209.1682 695.6404,-214.771 706.1638,-215.9987 704.6325,-209.1682"/>
</g>
<!-- Node31 -->
<g id="node13" class="node">
<title>Node31</title>
<g id="a_node13"><a xlink:href="../../d1/df4/TOFCalibCollectorSpec_8h.html" target="_top" xlink:title="Device to collect information for TOF time slewing calibration. ">
<polygon fill="none" stroke="#000000" points="1126.5,-106 1126.5,-158 1332.5,-158 1332.5,-106 1126.5,-106"/>
<text text-anchor="start" x="1134.5" y="-146" font-family="Helvetica,sans-Serif" font-size="10.00" fill="#000000">/home/travis/build</text>
<text text-anchor="start" x="1134.5" y="-135" font-family="Helvetica,sans-Serif" font-size="10.00" fill="#000000">/AliceO2Group/AliceO2</text>
<text text-anchor="start" x="1134.5" y="-124" font-family="Helvetica,sans-Serif" font-size="10.00" fill="#000000">/Detectors/TOF/calibration</text>
<text text-anchor="middle" x="1229.5" y="-113" font-family="Helvetica,sans-Serif" font-size="10.00" fill="#000000">/testWorkflow/TOFCalibCollectorSpec.h</text>
</a>
</g>
</g>
<!-- Node19&#45;&gt;Node31 -->
<g id="edge13" class="edge">
<title>Node19&#45;&gt;Node31</title>
<path fill="none" stroke="#191970" d="M705.7618,-223.7874C806.4748,-213.6198 974.8487,-193.8986 1117.5,-164 1125.8128,-162.2577 1134.4127,-160.2257 1142.9816,-158.0461"/>
<polygon fill="#191970" stroke="#191970" points="705.2304,-220.323 695.6285,-224.8012 705.9273,-227.2883 705.2304,-220.323"/>
</g>
<!-- Node21 -->
<g id="node3" class="node">
<title>Node21</title>
<g id="a_node3"><a xlink:href="../../d2/d5c/ccdb-populator-workflow_8cxx.html" target="_top" xlink:title="/home/travis/build\l/AliceO2Group/AliceO2\l/Detectors/Calibration\l/workflow/ccdb&#45;populator\l&#45;workflow.cxx">
<polygon fill="none" stroke="#000000" points="16.5,-.5 16.5,-63.5 156.5,-63.5 156.5,-.5 16.5,-.5"/>
<text text-anchor="start" x="24.5" y="-51.5" font-family="Helvetica,sans-Serif" font-size="10.00" fill="#000000">/home/travis/build</text>
<text text-anchor="start" x="24.5" y="-40.5" font-family="Helvetica,sans-Serif" font-size="10.00" fill="#000000">/AliceO2Group/AliceO2</text>
<text text-anchor="start" x="24.5" y="-29.5" font-family="Helvetica,sans-Serif" font-size="10.00" fill="#000000">/Detectors/Calibration</text>
<text text-anchor="start" x="24.5" y="-18.5" font-family="Helvetica,sans-Serif" font-size="10.00" fill="#000000">/workflow/ccdb&#45;populator</text>
<text text-anchor="middle" x="86.5" y="-7.5" font-family="Helvetica,sans-Serif" font-size="10.00" fill="#000000">&#45;workflow.cxx</text>
</a>
</g>
</g>
<!-- Node20&#45;&gt;Node21 -->
<g id="edge2" class="edge">
<title>Node20&#45;&gt;Node21</title>
<path fill="none" stroke="#191970" d="M86.5,-95.8138C86.5,-85.2664 86.5,-73.829 86.5,-63.5891"/>
<polygon fill="#191970" stroke="#191970" points="83.0001,-95.9872 86.5,-105.9872 90.0001,-95.9873 83.0001,-95.9872"/>
</g>
<!-- Node23 -->
<g id="node5" class="node">
<title>Node23</title>
<g id="a_node5"><a xlink:href="../../da/dd6/dcs-data-workflow_8cxx.html" target="_top" xlink:title="/home/travis/build\l/AliceO2Group/AliceO2\l/Detectors/DCS/testWorkflow\l/dcs&#45;data&#45;workflow.cxx">
<polygon fill="none" stroke="#000000" points="191,-6 191,-58 348,-58 348,-6 191,-6"/>
<text text-anchor="start" x="199" y="-46" font-family="Helvetica,sans-Serif" font-size="10.00" fill="#000000">/home/travis/build</text>
<text text-anchor="start" x="199" y="-35" font-family="Helvetica,sans-Serif" font-size="10.00" fill="#000000">/AliceO2Group/AliceO2</text>
<text text-anchor="start" x="199" y="-24" font-family="Helvetica,sans-Serif" font-size="10.00" fill="#000000">/Detectors/DCS/testWorkflow</text>
<text text-anchor="middle" x="269.5" y="-13" font-family="Helvetica,sans-Serif" font-size="10.00" fill="#000000">/dcs&#45;data&#45;workflow.cxx</text>
</a>
</g>
</g>
<!-- Node22&#45;&gt;Node23 -->
<g id="edge4" class="edge">
<title>Node22&#45;&gt;Node23</title>
<path fill="none" stroke="#191970" d="M269.5,-95.8962C269.5,-83.4433 269.5,-69.7413 269.5,-58.2299"/>
<polygon fill="#191970" stroke="#191970" points="266.0001,-95.9872 269.5,-105.9872 273.0001,-95.9873 266.0001,-95.9872"/>
</g>
<!-- Node27 -->
<g id="node9" class="node">
<title>Node27</title>
<g id="a_node9"><a xlink:href="../../d1/d1b/lhc-clockphase-workflow_8cxx.html" target="_top" xlink:title="/home/travis/build\l/AliceO2Group/AliceO2\l/Detectors/TOF/calibration\l/testWorkflow/lhc&#45;clockphase\l&#45;workflow.cxx">
<polygon fill="none" stroke="#000000" points="579,-.5 579,-63.5 738,-63.5 738,-.5 579,-.5"/>
<text text-anchor="start" x="587" y="-51.5" font-family="Helvetica,sans-Serif" font-size="10.00" fill="#000000">/home/travis/build</text>
<text text-anchor="start" x="587" y="-40.5" font-family="Helvetica,sans-Serif" font-size="10.00" fill="#000000">/AliceO2Group/AliceO2</text>
<text text-anchor="start" x="587" y="-29.5" font-family="Helvetica,sans-Serif" font-size="10.00" fill="#000000">/Detectors/TOF/calibration</text>
<text text-anchor="start" x="587" y="-18.5" font-family="Helvetica,sans-Serif" font-size="10.00" fill="#000000">/testWorkflow/lhc&#45;clockphase</text>
<text text-anchor="middle" x="658.5" y="-7.5" font-family="Helvetica,sans-Serif" font-size="10.00" fill="#000000">&#45;workflow.cxx</text>
</a>
</g>
</g>
<!-- Node26&#45;&gt;Node27 -->
<g id="edge8" class="edge">
<title>Node26&#45;&gt;Node27</title>
<path fill="none" stroke="#191970" d="M751.382,-94.7581C736.2186,-84.5126 719.9216,-73.5011 705.2773,-63.6063"/>
<polygon fill="#191970" stroke="#191970" points="749.4265,-97.6608 759.6719,-100.3594 753.3455,-91.8607 749.4265,-97.6608"/>
</g>
<!-- Node28 -->
<g id="node10" class="node">
<title>Node28</title>
<g id="a_node10"><a xlink:href="../../dc/da8/tof-calib-workflow_8cxx.html" target="_top" xlink:title="/home/travis/build\l/AliceO2Group/AliceO2\l/Detectors/TOF/calibration\l/testWorkflow/tof&#45;calib&#45;workflow.cxx">
<polygon fill="none" stroke="#000000" points="755.5,-6 755.5,-58 949.5,-58 949.5,-6 755.5,-6"/>
<text text-anchor="start" x="763.5" y="-46" font-family="Helvetica,sans-Serif" font-size="10.00" fill="#000000">/home/travis/build</text>
<text text-anchor="start" x="763.5" y="-35" font-family="Helvetica,sans-Serif" font-size="10.00" fill="#000000">/AliceO2Group/AliceO2</text>
<text text-anchor="start" x="763.5" y="-24" font-family="Helvetica,sans-Serif" font-size="10.00" fill="#000000">/Detectors/TOF/calibration</text>
<text text-anchor="middle" x="852.5" y="-13" font-family="Helvetica,sans-Serif" font-size="10.00" fill="#000000">/testWorkflow/tof&#45;calib&#45;workflow.cxx</text>
</a>
</g>
</g>
<!-- Node26&#45;&gt;Node28 -->
<g id="edge9" class="edge">
<title>Node26&#45;&gt;Node28</title>
<path fill="none" stroke="#191970" d="M825.2815,-91.1707C830.4231,-79.9933 835.8559,-68.1829 840.5041,-58.078"/>
<polygon fill="#191970" stroke="#191970" points="822.0541,-89.8118 821.0547,-100.3594 828.4135,-92.7372 822.0541,-89.8118"/>
</g>
<!-- Node29&#45;&gt;Node28 -->
<g id="edge11" class="edge">
<title>Node29&#45;&gt;Node28</title>
<path fill="none" stroke="#191970" d="M952.6671,-94.9982C933.1644,-82.7323 911.8785,-69.345 893.964,-58.078"/>
<polygon fill="#191970" stroke="#191970" points="950.863,-97.9982 961.1914,-100.3594 954.5898,-92.0727 950.863,-97.9982"/>
</g>
<!-- Node30 -->
<g id="node12" class="node">
<title>Node30</title>
<g id="a_node12"><a xlink:href="../../db/d97/tof-channel-calib-workflow_8cxx.html" target="_top" xlink:title="/home/travis/build\l/AliceO2Group/AliceO2\l/Detectors/TOF/calibration\l/testWorkflow/tof&#45;channel\l&#45;calib&#45;workflow.cxx">
<polygon fill="none" stroke="#000000" points="968,-.5 968,-63.5 1111,-63.5 1111,-.5 968,-.5"/>
<text text-anchor="start" x="976" y="-51.5" font-family="Helvetica,sans-Serif" font-size="10.00" fill="#000000">/home/travis/build</text>
<text text-anchor="start" x="976" y="-40.5" font-family="Helvetica,sans-Serif" font-size="10.00" fill="#000000">/AliceO2Group/AliceO2</text>
<text text-anchor="start" x="976" y="-29.5" font-family="Helvetica,sans-Serif" font-size="10.00" fill="#000000">/Detectors/TOF/calibration</text>
<text text-anchor="start" x="976" y="-18.5" font-family="Helvetica,sans-Serif" font-size="10.00" fill="#000000">/testWorkflow/tof&#45;channel</text>
<text text-anchor="middle" x="1039.5" y="-7.5" font-family="Helvetica,sans-Serif" font-size="10.00" fill="#000000">&#45;calib&#45;workflow.cxx</text>
</a>
</g>
</g>
<!-- Node29&#45;&gt;Node30 -->
<g id="edge12" class="edge">
<title>Node29&#45;&gt;Node30</title>
<path fill="none" stroke="#191970" d="M1023.1202,-90.4993C1025.6204,-81.5699 1028.225,-72.268 1030.6022,-63.778"/>
<polygon fill="#191970" stroke="#191970" points="1019.6854,-89.786 1020.3594,-100.3594 1026.4261,-91.6735 1019.6854,-89.786"/>
</g>
<!-- Node32 -->
<g id="node14" class="node">
<title>Node32</title>
<g id="a_node14"><a xlink:href="../../d8/d3b/tof-collect-calib-workflow_8cxx.html" target="_top" xlink:title="/home/travis/build\l/AliceO2Group/AliceO2\l/Detectors/TOF/calibration\l/testWorkflow/tof&#45;collect\l&#45;calib&#45;workflow.cxx">
<polygon fill="none" stroke="#000000" points="1158,-.5 1158,-63.5 1301,-63.5 1301,-.5 1158,-.5"/>
<text text-anchor="start" x="1166" y="-51.5" font-family="Helvetica,sans-Serif" font-size="10.00" fill="#000000">/home/travis/build</text>
<text text-anchor="start" x="1166" y="-40.5" font-family="Helvetica,sans-Serif" font-size="10.00" fill="#000000">/AliceO2Group/AliceO2</text>
<text text-anchor="start" x="1166" y="-29.5" font-family="Helvetica,sans-Serif" font-size="10.00" fill="#000000">/Detectors/TOF/calibration</text>
<text text-anchor="start" x="1166" y="-18.5" font-family="Helvetica,sans-Serif" font-size="10.00" fill="#000000">/testWorkflow/tof&#45;collect</text>
<text text-anchor="middle" x="1229.5" y="-7.5" font-family="Helvetica,sans-Serif" font-size="10.00" fill="#000000">&#45;calib&#45;workflow.cxx</text>
</a>
</g>
</g>
<!-- Node31&#45;&gt;Node32 -->
<g id="edge14" class="edge">
<title>Node31&#45;&gt;Node32</title>
<path fill="none" stroke="#191970" d="M1229.5,-95.8138C1229.5,-85.2664 1229.5,-73.829 1229.5,-63.5891"/>
<polygon fill="#191970" stroke="#191970" points="1226.0001,-95.9872 1229.5,-105.9872 1233.0001,-95.9873 1226.0001,-95.9872"/>
</g>
</g>
</svg>
