<?xml version="1.0" encoding="UTF-8" standalone="no"?>
<!DOCTYPE svg PUBLIC "-//W3C//DTD SVG 1.1//EN"
 "http://www.w3.org/Graphics/SVG/1.1/DTD/svg11.dtd">
<!-- Generated by graphviz version 2.40.1 (20161225.0304)
 -->
<!-- Title: /home/travis/build/AliceO2Group/AliceO2/Detectors/TRD/base/test/testTRDDiffusionCoefficient.cxx Pages: 1 -->
<svg width="2153pt" height="363pt"
 viewBox="0.00 0.00 2153.00 363.00" xmlns="http://www.w3.org/2000/svg" xmlns:xlink="http://www.w3.org/1999/xlink">
<g id="graph0" class="graph" transform="scale(1 1) rotate(0) translate(4 359)">
<title>/home/travis/build/AliceO2Group/AliceO2/Detectors/TRD/base/test/testTRDDiffusionCoefficient.cxx</title>
<!-- Node0 -->
<g id="node1" class="node">
<title>Node0</title>
<polygon fill="#bfbfbf" stroke="#000000" points="1507.5,-302.5 1507.5,-354.5 1682.5,-354.5 1682.5,-302.5 1507.5,-302.5"/>
<text text-anchor="start" x="1515.5" y="-342.5" font-family="Helvetica,sans-Serif" font-size="10.00" fill="#000000">/home/travis/build</text>
<text text-anchor="start" x="1515.5" y="-331.5" font-family="Helvetica,sans-Serif" font-size="10.00" fill="#000000">/AliceO2Group/AliceO2</text>
<text text-anchor="start" x="1515.5" y="-320.5" font-family="Helvetica,sans-Serif" font-size="10.00" fill="#000000">/Detectors/TRD/base/test</text>
<text text-anchor="middle" x="1595" y="-309.5" font-family="Helvetica,sans-Serif" font-size="10.00" fill="#000000">/testTRDDiffusionCoefficient.cxx</text>
</g>
<!-- Node1 -->
<g id="node2" class="node">
<title>Node1</title>
<polygon fill="none" stroke="#bfbfbf" points="1200,-241 1200,-260 1332,-260 1332,-241 1200,-241"/>
<text text-anchor="middle" x="1266" y="-248" font-family="Helvetica,sans-Serif" font-size="10.00" fill="#000000">boost/test/unit_test.hpp</text>
</g>
<!-- Node0&#45;&gt;Node1 -->
<g id="edge1" class="edge">
<title>Node0&#45;&gt;Node1</title>
<path fill="none" stroke="#191970" d="M1507.2662,-307.6999C1446.0554,-293.1879 1366.5645,-274.342 1315.8997,-262.3303"/>
<polygon fill="#191970" stroke="#191970" points="1316.7028,-258.9238 1306.1651,-260.0224 1315.0879,-265.735 1316.7028,-258.9238"/>
</g>
<!-- Node2 -->
<g id="node3" class="node">
<title>Node2</title>
<g id="a_node3"><a xlink:href="../../da/d32/TRDCommonParam_8h.html" target="_top" xlink:title="TRDBase/TRDCommonParam.h">
<polygon fill="none" stroke="#000000" points="1350,-241 1350,-260 1518,-260 1518,-241 1350,-241"/>
<text text-anchor="middle" x="1434" y="-248" font-family="Helvetica,sans-Serif" font-size="10.00" fill="#000000">TRDBase/TRDCommonParam.h</text>
</a>
</g>
</g>
<!-- Node0&#45;&gt;Node2 -->
<g id="edge2" class="edge">
<title>Node0&#45;&gt;Node2</title>
<path fill="none" stroke="#191970" d="M1540.9414,-302.3101C1514.8405,-289.665 1484.5675,-274.9985 1462.907,-264.5046"/>
<polygon fill="#191970" stroke="#191970" points="1464.4237,-261.3503 1453.8982,-260.1401 1461.3716,-267.65 1464.4237,-261.3503"/>
</g>
<!-- Node5 -->
<g id="node6" class="node">
<title>Node5</title>
<g id="a_node6"><a xlink:href="../../d9/dd4/TRDDiffAndTimeStructEstimator_8h.html" target="_top" xlink:title="TRDBase/TRDDiffAndTimeStruct\lEstimator.h">
<polygon fill="none" stroke="#000000" points="1672.5,-235.5 1672.5,-265.5 1845.5,-265.5 1845.5,-235.5 1672.5,-235.5"/>
<text text-anchor="start" x="1680.5" y="-253.5" font-family="Helvetica,sans-Serif" font-size="10.00" fill="#000000">TRDBase/TRDDiffAndTimeStruct</text>
<text text-anchor="middle" x="1759" y="-242.5" font-family="Helvetica,sans-Serif" font-size="10.00" fill="#000000">Estimator.h</text>
</a>
</g>
</g>
<!-- Node0&#45;&gt;Node5 -->
<g id="edge5" class="edge">
<title>Node0&#45;&gt;Node5</title>
<path fill="none" stroke="#191970" d="M1650.0659,-302.3101C1672.3378,-291.7174 1697.5919,-279.7063 1718.173,-269.9177"/>
<polygon fill="#191970" stroke="#191970" points="1719.7455,-273.0456 1727.2729,-265.5897 1716.7389,-266.7241 1719.7455,-273.0456"/>
</g>
<!-- Node7 -->
<g id="node8" class="node">
<title>Node7</title>
<g id="a_node8"><a xlink:href="../../db/d4b/MagneticField_8h.html" target="_top" xlink:title="Definition of the MagF class. ">
<polygon fill="none" stroke="#000000" points="1536,-241 1536,-260 1654,-260 1654,-241 1536,-241"/>
<text text-anchor="middle" x="1595" y="-248" font-family="Helvetica,sans-Serif" font-size="10.00" fill="#000000">Field/MagneticField.h</text>
</a>
</g>
</g>
<!-- Node0&#45;&gt;Node7 -->
<g id="edge7" class="edge">
<title>Node0&#45;&gt;Node7</title>
<path fill="none" stroke="#191970" d="M1595,-302.0928C1595,-291.6735 1595,-279.911 1595,-270.2512"/>
<polygon fill="#191970" stroke="#191970" points="1598.5001,-270.0838 1595,-260.0839 1591.5001,-270.0839 1598.5001,-270.0838"/>
</g>
<!-- Node33 -->
<g id="node34" class="node">
<title>Node33</title>
<polygon fill="none" stroke="#bfbfbf" points="1863.5,-241 1863.5,-260 1988.5,-260 1988.5,-241 1863.5,-241"/>
<text text-anchor="middle" x="1926" y="-248" font-family="Helvetica,sans-Serif" font-size="10.00" fill="#000000">TGeoGlobalMagField.h</text>
</g>
<!-- Node0&#45;&gt;Node33 -->
<g id="edge46" class="edge">
<title>Node0&#45;&gt;Node33</title>
<path fill="none" stroke="#191970" d="M1682.8329,-307.8022C1744.4199,-293.2893 1824.5643,-274.4033 1875.6631,-262.3619"/>
<polygon fill="#191970" stroke="#191970" points="1876.5509,-265.7486 1885.4815,-260.0482 1874.9453,-258.9352 1876.5509,-265.7486"/>
</g>
<!-- Node3 -->
<g id="node4" class="node">
<title>Node3</title>
<g id="a_node4"><a xlink:href="../../d2/d45/GPUCommonRtypes_8h.html" target="_top" xlink:title="GPUCommonRtypes.h">
<polygon fill="none" stroke="#000000" points="1161.5,-123.5 1161.5,-142.5 1286.5,-142.5 1286.5,-123.5 1161.5,-123.5"/>
<text text-anchor="middle" x="1224" y="-130.5" font-family="Helvetica,sans-Serif" font-size="10.00" fill="#000000">GPUCommonRtypes.h</text>
</a>
</g>
</g>
<!-- Node2&#45;&gt;Node3 -->
<g id="edge3" class="edge">
<title>Node2&#45;&gt;Node3</title>
<path fill="none" stroke="#191970" d="M1405.6922,-240.9651C1380.1265,-231.821 1341.8902,-216.7999 1311,-199 1285.961,-184.5717 1259.8953,-163.9262 1242.9028,-149.5825"/>
<polygon fill="#191970" stroke="#191970" points="1244.7682,-146.5718 1234.8973,-142.7225 1240.2133,-151.8872 1244.7682,-146.5718"/>
</g>
<!-- Node4 -->
<g id="node5" class="node">
<title>Node4</title>
<polygon fill="none" stroke="#bfbfbf" points="1503.5,-6 1503.5,-25 1562.5,-25 1562.5,-6 1503.5,-6"/>
<text text-anchor="middle" x="1533" y="-13" font-family="Helvetica,sans-Serif" font-size="10.00" fill="#000000">Rtypes.h</text>
</g>
<!-- Node3&#45;&gt;Node4 -->
<g id="edge4" class="edge">
<title>Node3&#45;&gt;Node4</title>
<path fill="none" stroke="#191970" d="M1236.0184,-123.3432C1254.6148,-108.8901 1291.9865,-81.7573 1328,-67 1398.2574,-38.2105 1422.4596,-53.424 1495,-31 1497.2974,-30.2898 1499.6495,-29.4975 1502.002,-28.657"/>
<polygon fill="#191970" stroke="#191970" points="1503.441,-31.8541 1511.5353,-25.018 1500.9446,-25.3144 1503.441,-31.8541"/>
</g>
<!-- Node6 -->
<g id="node7" class="node">
<title>Node6</title>
<polygon fill="none" stroke="#bfbfbf" points="2103,-179.5 2103,-198.5 2145,-198.5 2145,-179.5 2103,-179.5"/>
<text text-anchor="middle" x="2124" y="-186.5" font-family="Helvetica,sans-Serif" font-size="10.00" fill="#000000">array</text>
</g>
<!-- Node5&#45;&gt;Node6 -->
<g id="edge6" class="edge">
<title>Node5&#45;&gt;Node6</title>
<path fill="none" stroke="#191970" d="M1845.6023,-236.487C1848.7742,-235.9834 1851.9148,-235.4864 1855,-235 1958.9399,-218.6139 1986.2097,-221.498 2089,-199 2090.2501,-198.7264 2091.5215,-198.4335 2092.8028,-198.1261"/>
<polygon fill="#191970" stroke="#191970" points="2093.8423,-201.4722 2102.637,-195.5642 2092.0776,-194.6982 2093.8423,-201.4722"/>
</g>
<!-- Node7&#45;&gt;Node4 -->
<g id="edge43" class="edge">
<title>Node7&#45;&gt;Node4</title>
<path fill="none" stroke="#191970" d="M1559.3437,-240.9964C1525.3415,-231.1273 1477.7607,-214.9285 1467,-199 1430.1352,-144.4308 1487.3963,-66.8466 1517.028,-32.727"/>
<polygon fill="#191970" stroke="#191970" points="1519.8489,-34.8225 1523.8921,-25.0295 1514.6243,-30.1637 1519.8489,-34.8225"/>
</g>
<!-- Node8 -->
<g id="node9" class="node">
<title>Node8</title>
<polygon fill="none" stroke="#bfbfbf" points="1353.5,-179.5 1353.5,-198.5 1418.5,-198.5 1418.5,-179.5 1353.5,-179.5"/>
<text text-anchor="middle" x="1386" y="-186.5" font-family="Helvetica,sans-Serif" font-size="10.00" fill="#000000">FairField.h</text>
</g>
<!-- Node7&#45;&gt;Node8 -->
<g id="edge8" class="edge">
<title>Node7&#45;&gt;Node8</title>
<path fill="none" stroke="#191970" d="M1562.3438,-240.8906C1526.1472,-230.2395 1467.6614,-213.0296 1428.0625,-201.3772"/>
<polygon fill="#191970" stroke="#191970" points="1429.0083,-198.0072 1418.4269,-198.5419 1427.0322,-204.7225 1429.0083,-198.0072"/>
</g>
<!-- Node9 -->
<g id="node10" class="node">
<title>Node9</title>
<g id="a_node10"><a xlink:href="../../d3/d91/MagFieldParam_8h.html" target="_top" xlink:title="Definition of the MagFieldParam: container for ALICE mag. field parameters. ">
<polygon fill="none" stroke="#000000" points="1475.5,-179.5 1475.5,-198.5 1600.5,-198.5 1600.5,-179.5 1475.5,-179.5"/>
<text text-anchor="middle" x="1538" y="-186.5" font-family="Helvetica,sans-Serif" font-size="10.00" fill="#000000">Field/MagFieldParam.h</text>
</a>
</g>
</g>
<!-- Node7&#45;&gt;Node9 -->
<g id="edge9" class="edge">
<title>Node7&#45;&gt;Node9</title>
<path fill="none" stroke="#191970" d="M1586.0938,-240.8906C1577.5272,-231.6478 1564.3831,-217.466 1553.9997,-206.2628"/>
<polygon fill="#191970" stroke="#191970" points="1556.3965,-203.7 1547.0318,-198.7449 1551.2625,-208.4584 1556.3965,-203.7"/>
</g>
<!-- Node12 -->
<g id="node13" class="node">
<title>Node12</title>
<g id="a_node13"><a xlink:href="../../dd/dfb/MagneticWrapperChebyshev_8h.html" target="_top" xlink:title="Field/MagneticWrapperChebyshev.h">
<polygon fill="none" stroke="#000000" points="1781.5,-179.5 1781.5,-198.5 1970.5,-198.5 1970.5,-179.5 1781.5,-179.5"/>
<text text-anchor="middle" x="1876" y="-186.5" font-family="Helvetica,sans-Serif" font-size="10.00" fill="#000000">Field/MagneticWrapperChebyshev.h</text>
</a>
</g>
</g>
<!-- Node7&#45;&gt;Node12 -->
<g id="edge12" class="edge">
<title>Node7&#45;&gt;Node12</title>
<path fill="none" stroke="#191970" d="M1637.3182,-240.9425C1646.1335,-238.966 1655.368,-236.906 1664,-235 1717.6235,-223.1596 1778.9376,-209.8841 1821.7854,-200.6495"/>
<polygon fill="#191970" stroke="#191970" points="1822.6823,-204.0367 1831.721,-198.5093 1821.2082,-197.1937 1822.6823,-204.0367"/>
</g>
<!-- Node14 -->
<g id="node15" class="node">
<title>Node14</title>
<polygon fill="none" stroke="#bfbfbf" points="1938.5,-6 1938.5,-25 2005.5,-25 2005.5,-6 1938.5,-6"/>
<text text-anchor="middle" x="1972" y="-13" font-family="Helvetica,sans-Serif" font-size="10.00" fill="#000000">TNamed.h</text>
</g>
<!-- Node7&#45;&gt;Node14 -->
<g id="edge44" class="edge">
<title>Node7&#45;&gt;Node14</title>
<path fill="none" stroke="#191970" d="M1633.9006,-240.9935C1643.6852,-238.8146 1654.1938,-236.6551 1664,-235 1733.6908,-223.2377 1919.7533,-235.9526 1980,-199 2034.0321,-165.8592 2060.9311,-124.3803 2034,-67 2026.8025,-51.6648 2012.5471,-39.3165 1999.5187,-30.5595"/>
<polygon fill="#191970" stroke="#191970" points="2001.1261,-27.4359 1990.7969,-25.0782 1997.4013,-33.3627 2001.1261,-27.4359"/>
</g>
<!-- Node19 -->
<g id="node20" class="node">
<title>Node19</title>
<g id="a_node20"><a xlink:href="../../da/df4/MagFieldFast_8h.html" target="_top" xlink:title="Definition of the fast magnetic field parametrization MagFieldFast. ">
<polygon fill="none" stroke="#000000" points="1304.5,-123.5 1304.5,-142.5 1417.5,-142.5 1417.5,-123.5 1304.5,-123.5"/>
<text text-anchor="middle" x="1361" y="-130.5" font-family="Helvetica,sans-Serif" font-size="10.00" fill="#000000">Field/MagFieldFast.h</text>
</a>
</g>
</g>
<!-- Node7&#45;&gt;Node19 -->
<g id="edge28" class="edge">
<title>Node7&#45;&gt;Node19</title>
<path fill="none" stroke="#191970" d="M1554.051,-240.9579C1545.1444,-238.9407 1535.7649,-236.8606 1527,-235 1445.9147,-217.7871 1396.6538,-263.021 1344,-199 1332.9022,-185.5063 1340.2619,-165.6217 1348.4792,-151.2076"/>
<polygon fill="#191970" stroke="#191970" points="1351.4957,-152.9849 1353.8177,-142.6476 1345.5561,-149.2806 1351.4957,-152.9849"/>
</g>
<!-- Node31 -->
<g id="node32" class="node">
<title>Node31</title>
<polygon fill="none" stroke="#bfbfbf" points="1619,-179.5 1619,-198.5 1687,-198.5 1687,-179.5 1619,-179.5"/>
<text text-anchor="middle" x="1653" y="-186.5" font-family="Helvetica,sans-Serif" font-size="10.00" fill="#000000">TSystem.h</text>
</g>
<!-- Node7&#45;&gt;Node31 -->
<g id="edge42" class="edge">
<title>Node7&#45;&gt;Node31</title>
<path fill="none" stroke="#191970" d="M1604.0625,-240.8906C1612.7793,-231.6478 1626.154,-217.466 1636.7196,-206.2628"/>
<polygon fill="#191970" stroke="#191970" points="1639.495,-208.4213 1643.8097,-198.7449 1634.4024,-203.6186 1639.495,-208.4213"/>
</g>
<!-- Node32 -->
<g id="node33" class="node">
<title>Node32</title>
<polygon fill="none" stroke="#bfbfbf" points="1705,-179.5 1705,-198.5 1763,-198.5 1763,-179.5 1705,-179.5"/>
<text text-anchor="middle" x="1734" y="-186.5" font-family="Helvetica,sans-Serif" font-size="10.00" fill="#000000">memory</text>
</g>
<!-- Node7&#45;&gt;Node32 -->
<g id="edge45" class="edge">
<title>Node7&#45;&gt;Node32</title>
<path fill="none" stroke="#191970" d="M1616.7188,-240.8906C1639.874,-230.6457 1676.7441,-214.3326 1702.9591,-202.7339"/>
<polygon fill="#191970" stroke="#191970" points="1704.705,-205.7888 1712.4338,-198.5419 1701.8727,-199.3874 1704.705,-205.7888"/>
</g>
<!-- Node10 -->
<g id="node11" class="node">
<title>Node10</title>
<polygon fill="none" stroke="#bfbfbf" points="1475.5,-123.5 1475.5,-142.5 1586.5,-142.5 1586.5,-123.5 1475.5,-123.5"/>
<text text-anchor="middle" x="1531" y="-130.5" font-family="Helvetica,sans-Serif" font-size="10.00" fill="#000000">FairParGenericSet.h</text>
</g>
<!-- Node9&#45;&gt;Node10 -->
<g id="edge10" class="edge">
<title>Node9&#45;&gt;Node10</title>
<path fill="none" stroke="#191970" d="M1536.7807,-179.2455C1535.8673,-171.9382 1534.5868,-161.6944 1533.4631,-152.7046"/>
<polygon fill="#191970" stroke="#191970" points="1536.9187,-152.1313 1532.2053,-142.6427 1529.9728,-152.9996 1536.9187,-152.1313"/>
</g>
<!-- Node11 -->
<g id="node12" class="node">
<title>Node11</title>
<polygon fill="none" stroke="#bfbfbf" points="1561,-67.5 1561,-86.5 1621,-86.5 1621,-67.5 1561,-67.5"/>
<text text-anchor="middle" x="1591" y="-74.5" font-family="Helvetica,sans-Serif" font-size="10.00" fill="#000000">TString.h</text>
</g>
<!-- Node9&#45;&gt;Node11 -->
<g id="edge11" class="edge">
<title>Node9&#45;&gt;Node11</title>
<path fill="none" stroke="#191970" d="M1557.8241,-179.3695C1571.3215,-171.6136 1588.1157,-159.3161 1596,-143 1603.0222,-128.468 1600.834,-110.0151 1597.428,-96.3179"/>
<polygon fill="#191970" stroke="#191970" points="1600.7334,-95.149 1594.5882,-86.5184 1594.01,-97.0975 1600.7334,-95.149"/>
</g>
<!-- Node12&#45;&gt;Node4 -->
<g id="edge27" class="edge">
<title>Node12&#45;&gt;Node4</title>
<path fill="none" stroke="#191970" d="M1823.9729,-179.4532C1741.8619,-163.3106 1587.8453,-128.3133 1552,-87 1539.5371,-72.6359 1535.1348,-50.9698 1533.6381,-35.2531"/>
<polygon fill="#191970" stroke="#191970" points="1537.1168,-34.8071 1532.988,-25.0499 1530.131,-35.2522 1537.1168,-34.8071"/>
</g>
<!-- Node13 -->
<g id="node14" class="node">
<title>Node13</title>
<polygon fill="none" stroke="#bfbfbf" points="1930,-123.5 1930,-142.5 1986,-142.5 1986,-123.5 1930,-123.5"/>
<text text-anchor="middle" x="1958" y="-130.5" font-family="Helvetica,sans-Serif" font-size="10.00" fill="#000000">TMath.h</text>
</g>
<!-- Node12&#45;&gt;Node13 -->
<g id="edge13" class="edge">
<title>Node12&#45;&gt;Node13</title>
<path fill="none" stroke="#191970" d="M1890.2833,-179.2455C1902.747,-170.7337 1921.0451,-158.2375 1935.4792,-148.3801"/>
<polygon fill="#191970" stroke="#191970" points="1937.5962,-151.1726 1943.8804,-142.6427 1933.6485,-145.392 1937.5962,-151.1726"/>
</g>
<!-- Node12&#45;&gt;Node14 -->
<g id="edge14" class="edge">
<title>Node12&#45;&gt;Node14</title>
<path fill="none" stroke="#191970" d="M1925.5858,-179.4237C1949.1313,-172.679 1976.1689,-161.4426 1995,-143 2020.213,-118.3072 2030.5813,-99.9719 2018,-67 2012.8066,-53.3895 2002.1791,-41.0965 1992.4465,-31.9368"/>
<polygon fill="#191970" stroke="#191970" points="1994.7595,-29.3099 1984.954,-25.2973 1990.117,-34.549 1994.7595,-29.3099"/>
</g>
<!-- Node15 -->
<g id="node16" class="node">
<title>Node15</title>
<polygon fill="none" stroke="#bfbfbf" points="1935.5,-67.5 1935.5,-86.5 2008.5,-86.5 2008.5,-67.5 1935.5,-67.5"/>
<text text-anchor="middle" x="1972" y="-74.5" font-family="Helvetica,sans-Serif" font-size="10.00" fill="#000000">TObjArray.h</text>
</g>
<!-- Node12&#45;&gt;Node15 -->
<g id="edge15" class="edge">
<title>Node12&#45;&gt;Node15</title>
<path fill="none" stroke="#191970" d="M1881.7345,-179.0794C1889.6984,-165.6877 1904.9487,-141.3878 1921,-123 1930.434,-112.1927 1942.2651,-101.3835 1952.1565,-92.9612"/>
<polygon fill="#191970" stroke="#191970" points="1954.4697,-95.5895 1959.9138,-86.5003 1949.9899,-90.2108 1954.4697,-95.5895"/>
</g>
<!-- Node16 -->
<g id="node17" class="node">
<title>Node16</title>
<g id="a_node17"><a xlink:href="../../d8/d64/Chebyshev3D_8h.html" target="_top" xlink:title="MathUtils/Chebyshev3D.h">
<polygon fill="none" stroke="#000000" points="1692.5,-123.5 1692.5,-142.5 1835.5,-142.5 1835.5,-123.5 1692.5,-123.5"/>
<text text-anchor="middle" x="1764" y="-130.5" font-family="Helvetica,sans-Serif" font-size="10.00" fill="#000000">MathUtils/Chebyshev3D.h</text>
</a>
</g>
</g>
<!-- Node12&#45;&gt;Node16 -->
<g id="edge16" class="edge">
<title>Node12&#45;&gt;Node16</title>
<path fill="none" stroke="#191970" d="M1856.7465,-179.3733C1838.9288,-170.4644 1812.2253,-157.1127 1792.0406,-147.0203"/>
<polygon fill="#191970" stroke="#191970" points="1793.5118,-143.8428 1783.0022,-142.5011 1790.3813,-150.1038 1793.5118,-143.8428"/>
</g>
<!-- Node18 -->
<g id="node19" class="node">
<title>Node18</title>
<g id="a_node19"><a xlink:href="../../d4/d08/Chebyshev3DCalc_8h.html" target="_top" xlink:title="MathUtils/Chebyshev3DCalc.h">
<polygon fill="none" stroke="#000000" points="1715,-67.5 1715,-86.5 1879,-86.5 1879,-67.5 1715,-67.5"/>
<text text-anchor="middle" x="1797" y="-74.5" font-family="Helvetica,sans-Serif" font-size="10.00" fill="#000000">MathUtils/Chebyshev3DCalc.h</text>
</a>
</g>
</g>
<!-- Node12&#45;&gt;Node18 -->
<g id="edge26" class="edge">
<title>Node12&#45;&gt;Node18</title>
<path fill="none" stroke="#191970" d="M1872.7812,-179.4495C1867.998,-166.0609 1858.1458,-141.3017 1845,-123 1837.0839,-111.9791 1826.3156,-101.3794 1816.9842,-93.1383"/>
<polygon fill="#191970" stroke="#191970" points="1819.1414,-90.3781 1809.2616,-86.552 1814.599,-95.7042 1819.1414,-90.3781"/>
</g>
<!-- Node16&#45;&gt;Node4 -->
<g id="edge24" class="edge">
<title>Node16&#45;&gt;Node4</title>
<path fill="none" stroke="#191970" d="M1745.0963,-123.3845C1704.4707,-102.7199 1608.667,-53.9886 1560.9784,-29.7314"/>
<polygon fill="#191970" stroke="#191970" points="1562.341,-26.4978 1551.8409,-25.0836 1559.1673,-32.737 1562.341,-26.4978"/>
</g>
<!-- Node16&#45;&gt;Node11 -->
<g id="edge25" class="edge">
<title>Node16&#45;&gt;Node11</title>
<path fill="none" stroke="#191970" d="M1734.2602,-123.3733C1705.493,-114.0613 1661.73,-99.8953 1630.1444,-89.671"/>
<polygon fill="#191970" stroke="#191970" points="1630.9436,-86.251 1620.3517,-86.5011 1628.7878,-92.9107 1630.9436,-86.251"/>
</g>
<!-- Node16&#45;&gt;Node14 -->
<g id="edge17" class="edge">
<title>Node16&#45;&gt;Node14</title>
<path fill="none" stroke="#191970" d="M1799.4062,-123.4859C1825.0429,-115.7515 1859.9706,-103.4308 1888,-87 1913.8873,-71.825 1939.5533,-48.4408 1955.5711,-32.5813"/>
<polygon fill="#191970" stroke="#191970" points="1958.4712,-34.6267 1963.018,-25.0571 1953.4959,-29.7026 1958.4712,-34.6267"/>
</g>
<!-- Node16&#45;&gt;Node15 -->
<g id="edge18" class="edge">
<title>Node16&#45;&gt;Node15</title>
<path fill="none" stroke="#191970" d="M1799.7565,-123.3733C1834.9426,-113.9001 1888.7881,-99.4032 1926.8956,-89.1435"/>
<polygon fill="#191970" stroke="#191970" points="1927.9639,-92.4806 1936.7101,-86.5011 1926.144,-85.7213 1927.9639,-92.4806"/>
</g>
<!-- Node17 -->
<g id="node18" class="node">
<title>Node17</title>
<polygon fill="none" stroke="#bfbfbf" points="1719,-6 1719,-25 1765,-25 1765,-6 1719,-6"/>
<text text-anchor="middle" x="1742" y="-13" font-family="Helvetica,sans-Serif" font-size="10.00" fill="#000000">cstdio</text>
</g>
<!-- Node16&#45;&gt;Node17 -->
<g id="edge19" class="edge">
<title>Node16&#45;&gt;Node17</title>
<path fill="none" stroke="#191970" d="M1744.1759,-123.3695C1730.6785,-115.6136 1713.8843,-103.3161 1706,-87 1696.9185,-68.2064 1710.8832,-46.8551 1723.9788,-32.4155"/>
<polygon fill="#191970" stroke="#191970" points="1726.5619,-34.7794 1731.0128,-25.1648 1721.5377,-29.9053 1726.5619,-34.7794"/>
</g>
<!-- Node16&#45;&gt;Node18 -->
<g id="edge20" class="edge">
<title>Node16&#45;&gt;Node18</title>
<path fill="none" stroke="#191970" d="M1769.7482,-123.2455C1774.2435,-115.617 1780.6248,-104.7881 1786.0825,-95.5267"/>
<polygon fill="#191970" stroke="#191970" points="1789.2561,-97.035 1791.3177,-86.6427 1783.2253,-93.4811 1789.2561,-97.035"/>
</g>
<!-- Node18&#45;&gt;Node4 -->
<g id="edge23" class="edge">
<title>Node18&#45;&gt;Node4</title>
<path fill="none" stroke="#191970" d="M1756.0397,-67.4581C1706.0113,-55.8038 1621.9656,-36.2249 1572.5751,-24.7192"/>
<polygon fill="#191970" stroke="#191970" points="1573.1197,-21.2524 1562.5864,-22.3923 1571.5315,-28.0699 1573.1197,-21.2524"/>
</g>
<!-- Node18&#45;&gt;Node14 -->
<g id="edge21" class="edge">
<title>Node18&#45;&gt;Node14</title>
<path fill="none" stroke="#191970" d="M1824.3438,-67.3906C1854.1382,-56.92 1901.9685,-40.1111 1935.0808,-28.4745"/>
<polygon fill="#191970" stroke="#191970" points="1936.5743,-31.6595 1944.8483,-25.0419 1934.2534,-25.0554 1936.5743,-31.6595"/>
</g>
<!-- Node18&#45;&gt;Node17 -->
<g id="edge22" class="edge">
<title>Node18&#45;&gt;Node17</title>
<path fill="none" stroke="#191970" d="M1788.4063,-67.3906C1780.1403,-58.1478 1767.4574,-43.966 1757.4383,-32.7628"/>
<polygon fill="#191970" stroke="#191970" points="1759.99,-30.3657 1750.7149,-25.2449 1754.7722,-35.0321 1759.99,-30.3657"/>
</g>
<!-- Node19&#45;&gt;Node4 -->
<g id="edge29" class="edge">
<title>Node19&#45;&gt;Node4</title>
<path fill="none" stroke="#191970" d="M1370.083,-123.1596C1383.102,-109.4265 1408.2386,-84.2606 1433,-67 1454.4362,-52.0573 1480.7839,-38.6654 1501.0523,-29.2855"/>
<polygon fill="#191970" stroke="#191970" points="1502.5226,-32.4618 1510.1809,-25.1406 1499.6285,-26.0881 1502.5226,-32.4618"/>
</g>
<!-- Node20 -->
<g id="node21" class="node">
<title>Node20</title>
<polygon fill="none" stroke="#bfbfbf" points="1337,-67.5 1337,-86.5 1381,-86.5 1381,-67.5 1337,-67.5"/>
<text text-anchor="middle" x="1359" y="-74.5" font-family="Helvetica,sans-Serif" font-size="10.00" fill="#000000">string</text>
</g>
<!-- Node19&#45;&gt;Node20 -->
<g id="edge30" class="edge">
<title>Node19&#45;&gt;Node20</title>
<path fill="none" stroke="#191970" d="M1360.6516,-123.2455C1360.3907,-115.9382 1360.0248,-105.6944 1359.7037,-96.7046"/>
<polygon fill="#191970" stroke="#191970" points="1363.1992,-96.5113 1359.3444,-86.6427 1356.2036,-96.7613 1363.1992,-96.5113"/>
</g>
<!-- Node21 -->
<g id="node22" class="node">
<title>Node21</title>
<g id="a_node22"><a xlink:href="../../dc/d73/Cartesian_8h.html" target="_top" xlink:title="MathUtils/Cartesian.h">
<polygon fill="none" stroke="#000000" points="967,-67.5 967,-86.5 1089,-86.5 1089,-67.5 967,-67.5"/>
<text text-anchor="middle" x="1028" y="-74.5" font-family="Helvetica,sans-Serif" font-size="10.00" fill="#000000">MathUtils/Cartesian.h</text>
</a>
</g>
</g>
<!-- Node19&#45;&gt;Node21 -->
<g id="edge31" class="edge">
<title>Node19&#45;&gt;Node21</title>
<path fill="none" stroke="#191970" d="M1304.1336,-123.4369C1246.0657,-113.6717 1155.9715,-98.5207 1094.6034,-88.2006"/>
<polygon fill="#191970" stroke="#191970" points="1095.0738,-84.7306 1084.6318,-86.5237 1093.9129,-91.6337 1095.0738,-84.7306"/>
</g>
<!-- Node21&#45;&gt;Node4 -->
<g id="edge39" class="edge">
<title>Node21&#45;&gt;Node4</title>
<path fill="none" stroke="#191970" d="M1089.2779,-73.17C1197.8562,-66.0168 1419.676,-49.6519 1495,-31 1497.6324,-30.3482 1500.3221,-29.5475 1502.9938,-28.6567"/>
<polygon fill="#191970" stroke="#191970" points="1504.3018,-31.9045 1512.4565,-25.1405 1501.8636,-25.3429 1504.3018,-31.9045"/>
</g>
<!-- Node22 -->
<g id="node23" class="node">
<title>Node22</title>
<polygon fill="none" stroke="#bfbfbf" points="0,-.5 0,-30.5 164,-30.5 164,-.5 0,-.5"/>
<text text-anchor="start" x="8" y="-18.5" font-family="Helvetica,sans-Serif" font-size="10.00" fill="#000000">Math/GenVector/Displacement</text>
<text text-anchor="middle" x="82" y="-7.5" font-family="Helvetica,sans-Serif" font-size="10.00" fill="#000000">Vector3D.h</text>
</g>
<!-- Node21&#45;&gt;Node22 -->
<g id="edge32" class="edge">
<title>Node21&#45;&gt;Node22</title>
<path fill="none" stroke="#191970" d="M966.8958,-76.121C827.9193,-73.6019 477.3806,-64.3159 174.5787,-31.092"/>
<polygon fill="#191970" stroke="#191970" points="174.6046,-27.5735 164.2799,-29.9506 173.8335,-34.5309 174.6046,-27.5735"/>
</g>
<!-- Node23 -->
<g id="node24" class="node">
<title>Node23</title>
<polygon fill="none" stroke="#bfbfbf" points="182.5,-6 182.5,-25 371.5,-25 371.5,-6 182.5,-6"/>
<text text-anchor="middle" x="277" y="-13" font-family="Helvetica,sans-Serif" font-size="10.00" fill="#000000">Math/GenVector/PositionVector3D.h</text>
</g>
<!-- Node21&#45;&gt;Node23 -->
<g id="edge33" class="edge">
<title>Node21&#45;&gt;Node23</title>
<path fill="none" stroke="#191970" d="M966.754,-74.2195C851.7282,-68.6484 595.6372,-54.5893 381,-31 369.5618,-29.7429 357.451,-28.1651 345.6923,-26.5008"/>
<polygon fill="#191970" stroke="#191970" points="345.8736,-22.9906 335.4753,-25.0218 344.8707,-29.9184 345.8736,-22.9906"/>
</g>
<!-- Node24 -->
<g id="node25" class="node">
<title>Node24</title>
<polygon fill="none" stroke="#bfbfbf" points="390,-6 390,-25 550,-25 550,-6 390,-6"/>
<text text-anchor="middle" x="470" y="-13" font-family="Helvetica,sans-Serif" font-size="10.00" fill="#000000">Math/GenVector/Rotation3D.h</text>
</g>
<!-- Node21&#45;&gt;Node24 -->
<g id="edge34" class="edge">
<title>Node21&#45;&gt;Node24</title>
<path fill="none" stroke="#191970" d="M966.7462,-72.4599C877.0294,-65.4779 704.7212,-50.8073 559,-31 549.8696,-29.7589 540.2426,-28.2712 530.8278,-26.7153"/>
<polygon fill="#191970" stroke="#191970" points="531.1719,-23.2239 520.7285,-25.0087 530.0056,-30.1261 531.1719,-23.2239"/>
</g>
<!-- Node25 -->
<g id="node26" class="node">
<title>Node25</title>
<polygon fill="none" stroke="#bfbfbf" points="568,-6 568,-25 736,-25 736,-6 568,-6"/>
<text text-anchor="middle" x="652" y="-13" font-family="Helvetica,sans-Serif" font-size="10.00" fill="#000000">Math/GenVector/Transform3D.h</text>
</g>
<!-- Node21&#45;&gt;Node25 -->
<g id="edge35" class="edge">
<title>Node21&#45;&gt;Node25</title>
<path fill="none" stroke="#191970" d="M968.9079,-67.4657C911.6482,-58.2104 822.3574,-43.7334 745,-31 736.6418,-29.6242 727.8624,-28.1712 719.1737,-26.7285"/>
<polygon fill="#191970" stroke="#191970" points="719.4848,-23.2323 709.0462,-25.0449 718.3368,-30.1375 719.4848,-23.2323"/>
</g>
<!-- Node26 -->
<g id="node27" class="node">
<title>Node26</title>
<polygon fill="none" stroke="#bfbfbf" points="754.5,-6 754.5,-25 927.5,-25 927.5,-6 754.5,-6"/>
<text text-anchor="middle" x="841" y="-13" font-family="Helvetica,sans-Serif" font-size="10.00" fill="#000000">Math/GenVector/Translation3D.h</text>
</g>
<!-- Node21&#45;&gt;Node26 -->
<g id="edge36" class="edge">
<title>Node21&#45;&gt;Node26</title>
<path fill="none" stroke="#191970" d="M998.7813,-67.3906C966.6693,-56.8298 914.951,-39.8208 879.5392,-28.1747"/>
<polygon fill="#191970" stroke="#191970" points="880.6065,-24.8413 870.0136,-25.0419 878.4196,-31.4909 880.6065,-24.8413"/>
</g>
<!-- Node27 -->
<g id="node28" class="node">
<title>Node27</title>
<polygon fill="none" stroke="#bfbfbf" points="946,-.5 946,-30.5 1110,-30.5 1110,-.5 946,-.5"/>
<text text-anchor="start" x="954" y="-18.5" font-family="Helvetica,sans-Serif" font-size="10.00" fill="#000000">Math/GenVector/Displacement</text>
<text text-anchor="middle" x="1028" y="-7.5" font-family="Helvetica,sans-Serif" font-size="10.00" fill="#000000">Vector2D.h</text>
</g>
<!-- Node21&#45;&gt;Node27 -->
<g id="edge37" class="edge">
<title>Node21&#45;&gt;Node27</title>
<path fill="none" stroke="#191970" d="M1028,-67.3906C1028,-60.2234 1028,-50.0862 1028,-40.671"/>
<polygon fill="#191970" stroke="#191970" points="1031.5001,-40.5446 1028,-30.5446 1024.5001,-40.5446 1031.5001,-40.5446"/>
</g>
<!-- Node28 -->
<g id="node29" class="node">
<title>Node28</title>
<polygon fill="none" stroke="#bfbfbf" points="1128.5,-6 1128.5,-25 1317.5,-25 1317.5,-6 1128.5,-6"/>
<text text-anchor="middle" x="1223" y="-13" font-family="Helvetica,sans-Serif" font-size="10.00" fill="#000000">Math/GenVector/PositionVector2D.h</text>
</g>
<!-- Node21&#45;&gt;Node28 -->
<g id="edge38" class="edge">
<title>Node21&#45;&gt;Node28</title>
<path fill="none" stroke="#191970" d="M1058.4688,-67.3906C1091.9544,-56.8298 1145.8853,-39.8208 1182.812,-28.1747"/>
<polygon fill="#191970" stroke="#191970" points="1184.261,-31.3877 1192.7452,-25.0419 1182.1555,-24.7118 1184.261,-31.3877"/>
</g>
<!-- Node29 -->
<g id="node30" class="node">
<title>Node29</title>
<polygon fill="none" stroke="#bfbfbf" points="1336,-6 1336,-25 1418,-25 1418,-6 1336,-6"/>
<text text-anchor="middle" x="1377" y="-13" font-family="Helvetica,sans-Serif" font-size="10.00" fill="#000000">TGeoMatrix.h</text>
</g>
<!-- Node21&#45;&gt;Node29 -->
<g id="edge40" class="edge">
<title>Node21&#45;&gt;Node29</title>
<path fill="none" stroke="#191970" d="M1089.2618,-70.1242C1149.8449,-62.7206 1244.9743,-49.4682 1326,-31 1330.0602,-30.0746 1334.2688,-28.9955 1338.4483,-27.8455"/>
<polygon fill="#191970" stroke="#191970" points="1339.4253,-31.2064 1348.0637,-25.0721 1337.4854,-24.4806 1339.4253,-31.2064"/>
</g>
<!-- Node30 -->
<g id="node31" class="node">
<title>Node30</title>
<polygon fill="none" stroke="#bfbfbf" points="1436.5,-6 1436.5,-25 1485.5,-25 1485.5,-6 1436.5,-6"/>
<text text-anchor="middle" x="1461" y="-13" font-family="Helvetica,sans-Serif" font-size="10.00" fill="#000000">iosfwd</text>
</g>
<!-- Node21&#45;&gt;Node30 -->
<g id="edge41" class="edge">
<title>Node21&#45;&gt;Node30</title>
<path fill="none" stroke="#191970" d="M1089.0966,-72.3044C1184.6485,-64.5649 1364.9425,-48.259 1427,-31 1428.9688,-30.4525 1430.9678,-29.805 1432.9598,-29.0905"/>
<polygon fill="#191970" stroke="#191970" points="1434.7585,-32.1363 1442.6895,-25.1114 1432.1087,-25.6572 1434.7585,-32.1363"/>
</g>
</g>
</svg>
