<?xml version="1.0" encoding="UTF-8" standalone="no"?>
<!DOCTYPE svg PUBLIC "-//W3C//DTD SVG 1.1//EN"
 "http://www.w3.org/Graphics/SVG/1.1/DTD/svg11.dtd">
<!-- Generated by graphviz version 2.40.1 (20161225.0304)
 -->
<!-- Title: /home/travis/build/AliceO2Group/AliceO2/Detectors/EMCAL/calib/src/BadChannelMap.cxx Pages: 1 -->
<!--zoomable 240 -->
<svg id="main" version="1.1" xmlns="http://www.w3.org/2000/svg" xmlns:xlink="http://www.w3.org/1999/xlink" xml:space="preserve" onload="init(evt)">
<style type="text/css"><![CDATA[
.edge:hover path { stroke: red; }
.edge:hover polygon { stroke: red; fill: red; }
]]></style>
<script type="text/javascript"><![CDATA[
var edges = document.getElementsByTagName('g');
if (edges && edges.length) {
  for (var i=0;i<edges.length;i++) {
    if (edges[i].id.substr(0,4)=='edge') {
      edges[i].setAttribute('class','edge');
    }
  }
}
]]></script>
        <defs>
                <circle id="rim" cx="0" cy="0" r="7"/>
                <circle id="rim2" cx="0" cy="0" r="3.5"/>
                <g id="zoomPlus">
                        <use xlink:href="#rim" fill="#404040">
                                <set attributeName="fill" to="#808080" begin="zoomplus.mouseover" end="zoomplus.mouseout"/>
                        </use>
                        <path d="M-4,0h8M0,-4v8" fill="none" stroke="white" stroke-width="1.5" pointer-events="none"/>
                </g>
                <g id="zoomMin">
                        <use xlink:href="#rim" fill="#404040">
                                <set attributeName="fill" to="#808080" begin="zoomminus.mouseover" end="zoomminus.mouseout"/>
                        </use>
                        <path d="M-4,0h8" fill="none" stroke="white" stroke-width="1.5" pointer-events="none"/>
                </g>
                <g id="dirArrow">
                        <path fill="none" stroke="white" stroke-width="1.5" d="M0,-3.0v7 M-2.5,-0.5L0,-3.0L2.5,-0.5"/>
                </g>
               <g id="resetDef">
                       <use xlink:href="#rim2" fill="#404040">
                               <set attributeName="fill" to="#808080" begin="reset.mouseover" end="reset.mouseout"/>
                       </use>
               </g>
        </defs>

<script type="text/javascript">
var viewWidth = 1847;
var viewHeight = 240;
var sectionId = 'dynsection-0';
</script>
<script xlink:href="../../svgpan.js"/>
<svg id="graph" class="graph">
<g id="viewport">
<title>/home/travis/build/AliceO2Group/AliceO2/Detectors/EMCAL/calib/src/BadChannelMap.cxx</title>
<!-- Node0 -->
<g id="node1" class="node">
<title>Node0</title>
<polygon fill="#bfbfbf" stroke="#000000" points="887.5,-179.5 887.5,-231.5 1023.5,-231.5 1023.5,-179.5 887.5,-179.5"/>
<text text-anchor="start" x="895.5" y="-219.5" font-family="Helvetica,sans-Serif" font-size="10.00" fill="#000000">/home/travis/build</text>
<text text-anchor="start" x="895.5" y="-208.5" font-family="Helvetica,sans-Serif" font-size="10.00" fill="#000000">/AliceO2Group/AliceO2</text>
<text text-anchor="start" x="895.5" y="-197.5" font-family="Helvetica,sans-Serif" font-size="10.00" fill="#000000">/Detectors/EMCAL/calib</text>
<text text-anchor="middle" x="955.5" y="-186.5" font-family="Helvetica,sans-Serif" font-size="10.00" fill="#000000">/src/BadChannelMap.cxx</text>
</g>
<!-- Node1 -->
<g id="node2" class="node">
<title>Node1</title>
<g id="a_node2"><a xlink:href="../../dd/da8/EMCAL_2base_2include_2EMCALBase_2Geometry_8h.html" target="_top" xlink:title="EMCALBase/Geometry.h">
<polygon fill="none" stroke="#000000" points="767,-123.5 767,-142.5 900,-142.5 900,-123.5 767,-123.5"/>
<text text-anchor="middle" x="833.5" y="-130.5" font-family="Helvetica,sans-Serif" font-size="10.00" fill="#000000">EMCALBase/Geometry.h</text>
</a>
</g>
</g>
<!-- Node0&#45;&gt;Node1 -->
<g id="edge1" class="edge">
<title>Node0&#45;&gt;Node1</title>
<path fill="none" stroke="#191970" d="M911.4552,-179.3258C893.5943,-168.7118 873.6267,-156.8458 858.3718,-147.7804"/>
<polygon fill="#191970" stroke="#191970" points="859.9281,-144.6339 849.5434,-142.534 856.352,-150.6515 859.9281,-144.6339"/>
</g>
<!-- Node24 -->
<g id="node25" class="node">
<title>Node24</title>
<g id="a_node25"><a xlink:href="../../d2/d65/EMCAL_2calib_2include_2EMCALCalib_2BadChannelMap_8h.html" target="_top" xlink:title="EMCALCalib/BadChannelMap.h">
<polygon fill="none" stroke="#000000" points="252,-67.5 252,-86.5 417,-86.5 417,-67.5 252,-67.5"/>
<text text-anchor="middle" x="334.5" y="-74.5" font-family="Helvetica,sans-Serif" font-size="10.00" fill="#000000">EMCALCalib/BadChannelMap.h</text>
</a>
</g>
</g>
<!-- Node0&#45;&gt;Node24 -->
<g id="edge29" class="edge">
<title>Node0&#45;&gt;Node24</title>
<path fill="none" stroke="#191970" d="M887.2657,-191.3807C763.5513,-165.7812 504.4928,-112.1757 390.4388,-88.5751"/>
<polygon fill="#191970" stroke="#191970" points="391.0177,-85.1208 380.516,-86.5218 389.5993,-91.9756 391.0177,-85.1208"/>
</g>
<!-- Node26 -->
<g id="node27" class="node">
<title>Node26</title>
<polygon fill="none" stroke="#bfbfbf" points="918,-123.5 918,-142.5 993,-142.5 993,-123.5 918,-123.5"/>
<text text-anchor="middle" x="955.5" y="-130.5" font-family="Helvetica,sans-Serif" font-size="10.00" fill="#000000">FairLogger.h</text>
</g>
<!-- Node0&#45;&gt;Node26 -->
<g id="edge33" class="edge">
<title>Node0&#45;&gt;Node26</title>
<path fill="none" stroke="#191970" d="M955.5,-179.3258C955.5,-170.5142 955.5,-160.8397 955.5,-152.621"/>
<polygon fill="#191970" stroke="#191970" points="959.0001,-152.534 955.5,-142.534 952.0001,-152.534 959.0001,-152.534"/>
</g>
<!-- Node27 -->
<g id="node28" class="node">
<title>Node27</title>
<polygon fill="none" stroke="#bfbfbf" points="1011,-123.5 1011,-142.5 1056,-142.5 1056,-123.5 1011,-123.5"/>
<text text-anchor="middle" x="1033.5" y="-130.5" font-family="Helvetica,sans-Serif" font-size="10.00" fill="#000000">TH2.h</text>
</g>
<!-- Node0&#45;&gt;Node27 -->
<g id="edge34" class="edge">
<title>Node0&#45;&gt;Node27</title>
<path fill="none" stroke="#191970" d="M983.6598,-179.3258C994.4327,-169.3126 1006.4043,-158.1851 1015.914,-149.346"/>
<polygon fill="#191970" stroke="#191970" points="1018.301,-151.9058 1023.2427,-142.534 1013.5353,-146.7785 1018.301,-151.9058"/>
</g>
<!-- Node28 -->
<g id="node29" class="node">
<title>Node28</title>
<polygon fill="none" stroke="#bfbfbf" points="1074.5,-123.5 1074.5,-142.5 1134.5,-142.5 1134.5,-123.5 1074.5,-123.5"/>
<text text-anchor="middle" x="1104.5" y="-130.5" font-family="Helvetica,sans-Serif" font-size="10.00" fill="#000000">iostream</text>
</g>
<!-- Node0&#45;&gt;Node28 -->
<g id="edge35" class="edge">
<title>Node0&#45;&gt;Node28</title>
<path fill="none" stroke="#191970" d="M1009.2924,-179.3258C1031.7235,-168.4114 1056.8752,-156.1731 1075.6916,-147.0175"/>
<polygon fill="#191970" stroke="#191970" points="1077.4453,-150.0566 1084.906,-142.534 1074.3826,-143.7622 1077.4453,-150.0566"/>
</g>
<!-- Node2 -->
<g id="node3" class="node">
<title>Node2</title>
<polygon fill="none" stroke="#bfbfbf" points="0,-6 0,-25 65,-25 65,-6 0,-6"/>
<text text-anchor="middle" x="32.5" y="-13" font-family="Helvetica,sans-Serif" font-size="10.00" fill="#000000">exception</text>
</g>
<!-- Node1&#45;&gt;Node2 -->
<g id="edge2" class="edge">
<title>Node1&#45;&gt;Node2</title>
<path fill="none" stroke="#191970" d="M766.8852,-131.1906C582.8218,-125.9128 79.0168,-109.4762 51.5,-87 36.467,-74.7209 32.5616,-52.0221 31.8847,-35.4849"/>
<polygon fill="#191970" stroke="#191970" points="35.3835,-35.2072 31.8348,-25.2243 28.3836,-35.2413 35.3835,-35.2072"/>
</g>
<!-- Node3 -->
<g id="node4" class="node">
<title>Node3</title>
<polygon fill="none" stroke="#bfbfbf" points="1794.5,-6 1794.5,-25 1838.5,-25 1838.5,-6 1794.5,-6"/>
<text text-anchor="middle" x="1816.5" y="-13" font-family="Helvetica,sans-Serif" font-size="10.00" fill="#000000">string</text>
</g>
<!-- Node1&#45;&gt;Node3 -->
<g id="edge3" class="edge">
<title>Node1&#45;&gt;Node3</title>
<path fill="none" stroke="#191970" d="M802.4458,-123.4606C768.8802,-111.6668 723.0105,-90.2814 745.5,-67 785.6662,-25.4194 1729.4724,-45.254 1785.5,-31 1787.4244,-30.5104 1789.3677,-29.8895 1791.2932,-29.1792"/>
<polygon fill="#191970" stroke="#191970" points="1792.8613,-32.3131 1800.601,-25.0778 1790.0386,-25.9074 1792.8613,-32.3131"/>
</g>
<!-- Node4 -->
<g id="node5" class="node">
<title>Node4</title>
<polygon fill="none" stroke="#bfbfbf" points="930,-67.5 930,-86.5 971,-86.5 971,-67.5 930,-67.5"/>
<text text-anchor="middle" x="950.5" y="-74.5" font-family="Helvetica,sans-Serif" font-size="10.00" fill="#000000">tuple</text>
</g>
<!-- Node1&#45;&gt;Node4 -->
<g id="edge4" class="edge">
<title>Node1&#45;&gt;Node4</title>
<path fill="none" stroke="#191970" d="M853.613,-123.3733C872.3103,-114.4241 900.3744,-100.9917 921.4934,-90.8835"/>
<polygon fill="#191970" stroke="#191970" points="923.1405,-93.9755 930.6494,-86.5011 920.1183,-87.6614 923.1405,-93.9755"/>
</g>
<!-- Node5 -->
<g id="node6" class="node">
<title>Node5</title>
<polygon fill="none" stroke="#bfbfbf" points="989,-67.5 989,-86.5 1036,-86.5 1036,-67.5 989,-67.5"/>
<text text-anchor="middle" x="1012.5" y="-74.5" font-family="Helvetica,sans-Serif" font-size="10.00" fill="#000000">vector</text>
</g>
<!-- Node1&#45;&gt;Node5 -->
<g id="edge5" class="edge">
<title>Node1&#45;&gt;Node5</title>
<path fill="none" stroke="#191970" d="M864.2712,-123.3733C896.3391,-113.3408 946.4166,-97.6741 979.3444,-87.3727"/>
<polygon fill="#191970" stroke="#191970" points="980.475,-90.6863 988.9738,-84.3601 978.3849,-84.0056 980.475,-90.6863"/>
</g>
<!-- Node6 -->
<g id="node7" class="node">
<title>Node6</title>
<polygon fill="none" stroke="#bfbfbf" points="1054.5,-67.5 1054.5,-86.5 1138.5,-86.5 1138.5,-67.5 1054.5,-67.5"/>
<text text-anchor="middle" x="1096.5" y="-74.5" font-family="Helvetica,sans-Serif" font-size="10.00" fill="#000000">RStringView.h</text>
</g>
<!-- Node1&#45;&gt;Node6 -->
<g id="edge6" class="edge">
<title>Node1&#45;&gt;Node6</title>
<path fill="none" stroke="#191970" d="M878.4125,-123.4369C924.4338,-113.6377 995.9259,-98.415 1044.4034,-88.0928"/>
<polygon fill="#191970" stroke="#191970" points="1045.3295,-91.4742 1054.3813,-85.9682 1043.8716,-84.6277 1045.3295,-91.4742"/>
</g>
<!-- Node7 -->
<g id="node8" class="node">
<title>Node7</title>
<polygon fill="none" stroke="#bfbfbf" points="358.5,-6 358.5,-25 440.5,-25 440.5,-6 358.5,-6"/>
<text text-anchor="middle" x="399.5" y="-13" font-family="Helvetica,sans-Serif" font-size="10.00" fill="#000000">TGeoMatrix.h</text>
</g>
<!-- Node1&#45;&gt;Node7 -->
<g id="edge7" class="edge">
<title>Node1&#45;&gt;Node7</title>
<path fill="none" stroke="#191970" d="M766.9401,-125.8235C712.5381,-118.9304 634.0284,-106.6218 567.5,-87 516.3069,-71.9012 459.778,-45.7327 427.0789,-29.5882"/>
<polygon fill="#191970" stroke="#191970" points="428.6311,-26.4512 418.1202,-25.1205 425.5071,-32.7155 428.6311,-26.4512"/>
</g>
<!-- Node8 -->
<g id="node9" class="node">
<title>Node8</title>
<polygon fill="none" stroke="#bfbfbf" points="1157,-67.5 1157,-86.5 1224,-86.5 1224,-67.5 1157,-67.5"/>
<text text-anchor="middle" x="1190.5" y="-74.5" font-family="Helvetica,sans-Serif" font-size="10.00" fill="#000000">TNamed.h</text>
</g>
<!-- Node1&#45;&gt;Node8 -->
<g id="edge8" class="edge">
<title>Node1&#45;&gt;Node8</title>
<path fill="none" stroke="#191970" d="M900.0784,-123.9087C973.3536,-113.7927 1087.5559,-97.6754 1146.715,-86.9902"/>
<polygon fill="#191970" stroke="#191970" points="1147.5616,-90.3929 1156.755,-85.1267 1146.2842,-83.5104 1147.5616,-90.3929"/>
</g>
<!-- Node9 -->
<g id="node10" class="node">
<title>Node9</title>
<polygon fill="none" stroke="#bfbfbf" points="1242.5,-67.5 1242.5,-86.5 1310.5,-86.5 1310.5,-67.5 1242.5,-67.5"/>
<text text-anchor="middle" x="1276.5" y="-74.5" font-family="Helvetica,sans-Serif" font-size="10.00" fill="#000000">TParticle.h</text>
</g>
<!-- Node1&#45;&gt;Node9 -->
<g id="edge9" class="edge">
<title>Node1&#45;&gt;Node9</title>
<path fill="none" stroke="#191970" d="M900.2185,-124.1439C903.3553,-123.7518 906.4614,-123.3687 909.5,-123 1050.1007,-105.9406 1088.96,-111.1984 1232.2605,-87.0471"/>
<polygon fill="#191970" stroke="#191970" points="1233.0364,-90.4654 1242.3063,-85.3351 1231.8604,-83.5649 1233.0364,-90.4654"/>
</g>
<!-- Node10 -->
<g id="node11" class="node">
<title>Node10</title>
<polygon fill="none" stroke="#bfbfbf" points="1328.5,-67.5 1328.5,-86.5 1396.5,-86.5 1396.5,-67.5 1328.5,-67.5"/>
<text text-anchor="middle" x="1362.5" y="-74.5" font-family="Helvetica,sans-Serif" font-size="10.00" fill="#000000">TVector3.h</text>
</g>
<!-- Node1&#45;&gt;Node10 -->
<g id="edge10" class="edge">
<title>Node1&#45;&gt;Node10</title>
<path fill="none" stroke="#191970" d="M900.2084,-124.0567C903.348,-123.688 906.4574,-123.3336 909.5,-123 1088.0486,-103.4239 1137.0953,-115.3396 1318.1869,-87.0121"/>
<polygon fill="#191970" stroke="#191970" points="1318.989,-90.4288 1328.3182,-85.4072 1317.8937,-83.515 1318.989,-90.4288"/>
</g>
<!-- Node11 -->
<g id="node12" class="node">
<title>Node11</title>
<g id="a_node12"><a xlink:href="../../dd/dda/DataFormats_2Detectors_2EMCAL_2include_2DataFormatsEMCAL_2Constants_8h.html" target="_top" xlink:title="DataFormatsEMCAL/Constants.h">
<polygon fill="none" stroke="#000000" points="61,-67.5 61,-86.5 234,-86.5 234,-67.5 61,-67.5"/>
<text text-anchor="middle" x="147.5" y="-74.5" font-family="Helvetica,sans-Serif" font-size="10.00" fill="#000000">DataFormatsEMCAL/Constants.h</text>
</a>
</g>
</g>
<!-- Node1&#45;&gt;Node11 -->
<g id="edge11" class="edge">
<title>Node1&#45;&gt;Node11</title>
<path fill="none" stroke="#191970" d="M766.9767,-128.4147C659.3903,-120.8682 440.2652,-104.957 244.4062,-87.156"/>
<polygon fill="#191970" stroke="#191970" points="244.4885,-83.6491 234.2118,-86.2258 243.8523,-90.6201 244.4885,-83.6491"/>
</g>
<!-- Node15 -->
<g id="node16" class="node">
<title>Node15</title>
<g id="a_node16"><a xlink:href="../../d5/d5e/GeometryBase_8h.html" target="_top" xlink:title="EMCALBase/GeometryBase.h">
<polygon fill="none" stroke="#000000" points="754.5,-67.5 754.5,-86.5 912.5,-86.5 912.5,-67.5 754.5,-67.5"/>
<text text-anchor="middle" x="833.5" y="-74.5" font-family="Helvetica,sans-Serif" font-size="10.00" fill="#000000">EMCALBase/GeometryBase.h</text>
</a>
</g>
</g>
<!-- Node1&#45;&gt;Node15 -->
<g id="edge16" class="edge">
<title>Node1&#45;&gt;Node15</title>
<path fill="none" stroke="#191970" d="M833.5,-123.2455C833.5,-115.9382 833.5,-105.6944 833.5,-96.7046"/>
<polygon fill="#191970" stroke="#191970" points="837.0001,-96.6426 833.5,-86.6427 830.0001,-96.6427 837.0001,-96.6426"/>
</g>
<!-- Node16 -->
<g id="node17" class="node">
<title>Node16</title>
<g id="a_node17"><a xlink:href="../../dc/d73/Cartesian_8h.html" target="_top" xlink:title="MathUtils/Cartesian.h">
<polygon fill="none" stroke="#000000" points="576.5,-67.5 576.5,-86.5 698.5,-86.5 698.5,-67.5 576.5,-67.5"/>
<text text-anchor="middle" x="637.5" y="-74.5" font-family="Helvetica,sans-Serif" font-size="10.00" fill="#000000">MathUtils/Cartesian.h</text>
</a>
</g>
</g>
<!-- Node1&#45;&gt;Node16 -->
<g id="edge18" class="edge">
<title>Node1&#45;&gt;Node16</title>
<path fill="none" stroke="#191970" d="M799.8064,-123.3733C766.7913,-113.9404 716.3427,-99.5265 680.4614,-89.2747"/>
<polygon fill="#191970" stroke="#191970" points="681.3307,-85.8831 670.7539,-86.5011 679.4076,-92.6137 681.3307,-85.8831"/>
</g>
<!-- Node11&#45;&gt;Node2 -->
<g id="edge14" class="edge">
<title>Node11&#45;&gt;Node2</title>
<path fill="none" stroke="#191970" d="M129.5313,-67.3906C110.7116,-57.3262 80.9415,-41.4057 59.3359,-29.8514"/>
<polygon fill="#191970" stroke="#191970" points="60.8114,-26.6714 50.3426,-25.0419 57.5102,-32.8442 60.8114,-26.6714"/>
</g>
<!-- Node12 -->
<g id="node13" class="node">
<title>Node12</title>
<polygon fill="none" stroke="#bfbfbf" points="152,-6 152,-25 211,-25 211,-6 152,-6"/>
<text text-anchor="middle" x="181.5" y="-13" font-family="Helvetica,sans-Serif" font-size="10.00" fill="#000000">Rtypes.h</text>
</g>
<!-- Node11&#45;&gt;Node12 -->
<g id="edge12" class="edge">
<title>Node11&#45;&gt;Node12</title>
<path fill="none" stroke="#191970" d="M152.8125,-67.3906C157.7239,-58.5068 165.1579,-45.0601 171.2275,-34.0811"/>
<polygon fill="#191970" stroke="#191970" points="174.3373,-35.6899 176.1126,-25.2449 168.2112,-32.3031 174.3373,-35.6899"/>
</g>
<!-- Node13 -->
<g id="node14" class="node">
<title>Node13</title>
<polygon fill="none" stroke="#bfbfbf" points="229,-6 229,-25 278,-25 278,-6 229,-6"/>
<text text-anchor="middle" x="253.5" y="-13" font-family="Helvetica,sans-Serif" font-size="10.00" fill="#000000">iosfwd</text>
</g>
<!-- Node11&#45;&gt;Node13 -->
<g id="edge13" class="edge">
<title>Node11&#45;&gt;Node13</title>
<path fill="none" stroke="#191970" d="M164.0625,-67.3906C181.2537,-57.4165 208.3582,-41.6908 228.2266,-30.1633"/>
<polygon fill="#191970" stroke="#191970" points="230.1606,-33.0877 237.0538,-25.0419 226.6477,-27.033 230.1606,-33.0877"/>
</g>
<!-- Node14 -->
<g id="node15" class="node">
<title>Node14</title>
<polygon fill="none" stroke="#bfbfbf" points="83.5,-6 83.5,-25 133.5,-25 133.5,-6 83.5,-6"/>
<text text-anchor="middle" x="108.5" y="-13" font-family="Helvetica,sans-Serif" font-size="10.00" fill="#000000">cstdint</text>
</g>
<!-- Node11&#45;&gt;Node14 -->
<g id="edge15" class="edge">
<title>Node11&#45;&gt;Node14</title>
<path fill="none" stroke="#191970" d="M141.4063,-67.3906C135.7157,-58.417 127.0728,-44.7879 120.0726,-33.7491"/>
<polygon fill="#191970" stroke="#191970" points="122.9909,-31.8155 114.6797,-25.2449 117.0793,-35.5644 122.9909,-31.8155"/>
</g>
<!-- Node15&#45;&gt;Node3 -->
<g id="edge17" class="edge">
<title>Node15&#45;&gt;Node3</title>
<path fill="none" stroke="#191970" d="M912.6285,-67.7379C915.6222,-67.4733 918.5873,-67.2259 921.5,-67 1113.0913,-52.1418 1599.4338,-79.0351 1785.5,-31 1787.4226,-30.5036 1789.3647,-29.8777 1791.2893,-29.1638"/>
<polygon fill="#191970" stroke="#191970" points="1792.8611,-32.2959 1800.595,-25.0545 1790.0333,-25.8924 1792.8611,-32.2959"/>
</g>
<!-- Node16&#45;&gt;Node7 -->
<g id="edge27" class="edge">
<title>Node16&#45;&gt;Node7</title>
<path fill="none" stroke="#191970" d="M595.4967,-67.4917C557.2715,-58.6566 499.368,-44.8167 449.5,-31 446.1131,-30.0616 442.6084,-29.053 439.0989,-28.0168"/>
<polygon fill="#191970" stroke="#191970" points="439.8738,-24.5949 429.2892,-25.0591 437.853,-31.2969 439.8738,-24.5949"/>
</g>
<!-- Node16&#45;&gt;Node12 -->
<g id="edge26" class="edge">
<title>Node16&#45;&gt;Node12</title>
<path fill="none" stroke="#191970" d="M576.3388,-75.5614C494.0558,-72.4338 343.694,-62.507 219.5,-31 216.8713,-30.3331 214.1843,-29.5219 211.5144,-28.624"/>
<polygon fill="#191970" stroke="#191970" points="212.6474,-25.3111 202.0548,-25.0956 210.201,-31.8698 212.6474,-25.3111"/>
</g>
<!-- Node16&#45;&gt;Node13 -->
<g id="edge28" class="edge">
<title>Node16&#45;&gt;Node13</title>
<path fill="none" stroke="#191970" d="M576.3142,-74.4518C505.5641,-70.2534 386.1794,-59.291 287.5,-31 285.5357,-30.4368 283.54,-29.7776 281.5503,-29.0544"/>
<polygon fill="#191970" stroke="#191970" points="282.4061,-25.622 271.8265,-25.0549 279.7434,-32.0957 282.4061,-25.622"/>
</g>
<!-- Node17 -->
<g id="node18" class="node">
<title>Node17</title>
<polygon fill="none" stroke="#bfbfbf" points="458.5,-.5 458.5,-30.5 622.5,-30.5 622.5,-.5 458.5,-.5"/>
<text text-anchor="start" x="466.5" y="-18.5" font-family="Helvetica,sans-Serif" font-size="10.00" fill="#000000">Math/GenVector/Displacement</text>
<text text-anchor="middle" x="540.5" y="-7.5" font-family="Helvetica,sans-Serif" font-size="10.00" fill="#000000">Vector3D.h</text>
</g>
<!-- Node16&#45;&gt;Node17 -->
<g id="edge19" class="edge">
<title>Node16&#45;&gt;Node17</title>
<path fill="none" stroke="#191970" d="M622.3438,-67.3906C609.216,-59.0673 589.7711,-46.7389 573.1285,-36.1872"/>
<polygon fill="#191970" stroke="#191970" points="574.5486,-32.9433 564.2289,-30.5446 570.8003,-38.8553 574.5486,-32.9433"/>
</g>
<!-- Node18 -->
<g id="node19" class="node">
<title>Node18</title>
<polygon fill="none" stroke="#bfbfbf" points="641,-6 641,-25 830,-25 830,-6 641,-6"/>
<text text-anchor="middle" x="735.5" y="-13" font-family="Helvetica,sans-Serif" font-size="10.00" fill="#000000">Math/GenVector/PositionVector3D.h</text>
</g>
<!-- Node16&#45;&gt;Node18 -->
<g id="edge20" class="edge">
<title>Node16&#45;&gt;Node18</title>
<path fill="none" stroke="#191970" d="M652.8125,-67.3906C668.5624,-57.5067 693.3123,-41.9749 711.6337,-30.4773"/>
<polygon fill="#191970" stroke="#191970" points="713.6852,-33.3221 720.295,-25.0419 709.9643,-27.3929 713.6852,-33.3221"/>
</g>
<!-- Node19 -->
<g id="node20" class="node">
<title>Node19</title>
<polygon fill="none" stroke="#bfbfbf" points="848.5,-6 848.5,-25 1008.5,-25 1008.5,-6 848.5,-6"/>
<text text-anchor="middle" x="928.5" y="-13" font-family="Helvetica,sans-Serif" font-size="10.00" fill="#000000">Math/GenVector/Rotation3D.h</text>
</g>
<!-- Node16&#45;&gt;Node19 -->
<g id="edge21" class="edge">
<title>Node16&#45;&gt;Node19</title>
<path fill="none" stroke="#191970" d="M682.6495,-67.4581C734.0478,-56.5956 818.0205,-38.8488 873.2758,-27.1711"/>
<polygon fill="#191970" stroke="#191970" points="874.1845,-30.5565 883.2446,-25.0643 872.737,-23.7077 874.1845,-30.5565"/>
</g>
<!-- Node20 -->
<g id="node21" class="node">
<title>Node20</title>
<polygon fill="none" stroke="#bfbfbf" points="1026.5,-6 1026.5,-25 1194.5,-25 1194.5,-6 1026.5,-6"/>
<text text-anchor="middle" x="1110.5" y="-13" font-family="Helvetica,sans-Serif" font-size="10.00" fill="#000000">Math/GenVector/Transform3D.h</text>
</g>
<!-- Node16&#45;&gt;Node20 -->
<g id="edge22" class="edge">
<title>Node16&#45;&gt;Node20</title>
<path fill="none" stroke="#191970" d="M698.8852,-68.7388C703.4913,-68.1423 708.0686,-67.5569 712.5,-67 847.9312,-49.9796 882.3642,-50.2254 1017.5,-31 1026.7611,-29.6824 1036.522,-28.1807 1046.098,-26.6427"/>
<polygon fill="#191970" stroke="#191970" points="1046.6743,-30.095 1055.9816,-25.033 1045.5489,-23.1861 1046.6743,-30.095"/>
</g>
<!-- Node21 -->
<g id="node22" class="node">
<title>Node21</title>
<polygon fill="none" stroke="#bfbfbf" points="1213,-6 1213,-25 1386,-25 1386,-6 1213,-6"/>
<text text-anchor="middle" x="1299.5" y="-13" font-family="Helvetica,sans-Serif" font-size="10.00" fill="#000000">Math/GenVector/Translation3D.h</text>
</g>
<!-- Node16&#45;&gt;Node21 -->
<g id="edge23" class="edge">
<title>Node16&#45;&gt;Node21</title>
<path fill="none" stroke="#191970" d="M698.8598,-68.517C703.4718,-67.9718 708.0573,-67.4586 712.5,-67 930.1513,-44.5309 986.1786,-56.4624 1203.5,-31 1213.9196,-29.7792 1224.9372,-28.2378 1235.6486,-26.6033"/>
<polygon fill="#191970" stroke="#191970" points="1236.4564,-30.0196 1245.7948,-25.0152 1235.3739,-23.1038 1236.4564,-30.0196"/>
</g>
<!-- Node22 -->
<g id="node23" class="node">
<title>Node22</title>
<polygon fill="none" stroke="#bfbfbf" points="1404.5,-.5 1404.5,-30.5 1568.5,-30.5 1568.5,-.5 1404.5,-.5"/>
<text text-anchor="start" x="1412.5" y="-18.5" font-family="Helvetica,sans-Serif" font-size="10.00" fill="#000000">Math/GenVector/Displacement</text>
<text text-anchor="middle" x="1486.5" y="-7.5" font-family="Helvetica,sans-Serif" font-size="10.00" fill="#000000">Vector2D.h</text>
</g>
<!-- Node16&#45;&gt;Node22 -->
<g id="edge24" class="edge">
<title>Node16&#45;&gt;Node22</title>
<path fill="none" stroke="#191970" d="M698.8497,-68.4141C703.4641,-67.8927 708.0529,-67.413 712.5,-67 1011.7753,-39.2059 1091.5983,-64.0069 1393.8354,-31.0985"/>
<polygon fill="#191970" stroke="#191970" points="1394.6639,-34.5285 1404.2206,-29.9547 1393.8975,-27.5706 1394.6639,-34.5285"/>
</g>
<!-- Node23 -->
<g id="node24" class="node">
<title>Node23</title>
<polygon fill="none" stroke="#bfbfbf" points="1587,-6 1587,-25 1776,-25 1776,-6 1587,-6"/>
<text text-anchor="middle" x="1681.5" y="-13" font-family="Helvetica,sans-Serif" font-size="10.00" fill="#000000">Math/GenVector/PositionVector2D.h</text>
</g>
<!-- Node16&#45;&gt;Node23 -->
<g id="edge25" class="edge">
<title>Node16&#45;&gt;Node23</title>
<path fill="none" stroke="#191970" d="M698.8447,-68.3586C703.4602,-67.85 708.0507,-67.3884 712.5,-67 1095.8195,-33.5386 1194.4494,-67.4115 1577.5,-31 1589.7604,-29.8346 1602.7816,-28.2069 1615.3111,-26.4416"/>
<polygon fill="#191970" stroke="#191970" points="1615.8363,-29.9021 1625.2301,-25.0025 1614.8312,-22.9747 1615.8363,-29.9021"/>
</g>
<!-- Node24&#45;&gt;Node12 -->
<g id="edge32" class="edge">
<title>Node24&#45;&gt;Node12</title>
<path fill="none" stroke="#191970" d="M310.2508,-67.3557C286.9638,-58.081 250.8028,-43.6445 219.5,-31 217.8649,-30.3395 216.1908,-29.6619 214.5006,-28.9766"/>
<polygon fill="#191970" stroke="#191970" points="215.3834,-25.5574 204.8015,-25.0337 212.7472,-32.042 215.3834,-25.5574"/>
</g>
<!-- Node24&#45;&gt;Node13 -->
<g id="edge30" class="edge">
<title>Node24&#45;&gt;Node13</title>
<path fill="none" stroke="#191970" d="M321.8438,-67.3906C309.1232,-57.7324 289.2996,-42.6812 274.2716,-31.271"/>
<polygon fill="#191970" stroke="#191970" points="276.1484,-28.3015 266.0674,-25.0419 271.9154,-33.8766 276.1484,-28.3015"/>
</g>
<!-- Node25 -->
<g id="node26" class="node">
<title>Node25</title>
<polygon fill="none" stroke="#bfbfbf" points="296.5,-6 296.5,-25 340.5,-25 340.5,-6 296.5,-6"/>
<text text-anchor="middle" x="318.5" y="-13" font-family="Helvetica,sans-Serif" font-size="10.00" fill="#000000">bitset</text>
</g>
<!-- Node24&#45;&gt;Node25 -->
<g id="edge31" class="edge">
<title>Node24&#45;&gt;Node25</title>
<path fill="none" stroke="#191970" d="M332,-67.3906C329.7588,-58.776 326.4014,-45.8708 323.5955,-35.0858"/>
<polygon fill="#191970" stroke="#191970" points="326.9404,-34.0414 321.0352,-25.2449 320.1659,-35.804 326.9404,-34.0414"/>
</g>
</g>
</svg>
        <g id="navigator" transform="translate(0 0)" fill="#404254">
                <rect fill="#f2f5e9" fill-opacity="0.5" stroke="#606060" stroke-width=".5" x="0" y="0" width="60" height="60"/>
                <use id="zoomplus" xlink:href="#zoomPlus" x="17" y="9" onmousedown="handleZoom(evt,'in')"/>
                <use id="zoomminus" xlink:href="#zoomMin" x="42" y="9" onmousedown="handleZoom(evt,'out')"/>
                <use id="reset" xlink:href="#resetDef" x="30" y="36" onmousedown="handleReset()"/>
                <g id="arrowUp" xlink:href="#dirArrow" transform="translate(30 24)" onmousedown="handlePan(0,-1)">
                  <use xlink:href="#rim" fill="#404040">
                        <set attributeName="fill" to="#808080" begin="arrowUp.mouseover" end="arrowUp.mouseout"/>
                  </use>
                  <path fill="none" stroke="white" stroke-width="1.5" d="M0,-3.0v7 M-2.5,-0.5L0,-3.0L2.5,-0.5"/>
                </g>
                <g id="arrowRight" xlink:href="#dirArrow" transform="rotate(90) translate(36 -43)" onmousedown="handlePan(1,0)">
                  <use xlink:href="#rim" fill="#404040">
                        <set attributeName="fill" to="#808080" begin="arrowRight.mouseover" end="arrowRight.mouseout"/>
                  </use>
                  <path fill="none" stroke="white" stroke-width="1.5" d="M0,-3.0v7 M-2.5,-0.5L0,-3.0L2.5,-0.5"/>
                </g>
                <g id="arrowDown" xlink:href="#dirArrow" transform="rotate(180) translate(-30 -48)" onmousedown="handlePan(0,1)">
                  <use xlink:href="#rim" fill="#404040">
                        <set attributeName="fill" to="#808080" begin="arrowDown.mouseover" end="arrowDown.mouseout"/>
                  </use>
                  <path fill="none" stroke="white" stroke-width="1.5" d="M0,-3.0v7 M-2.5,-0.5L0,-3.0L2.5,-0.5"/>
                </g>
                <g id="arrowLeft" xlink:href="#dirArrow" transform="rotate(270) translate(-36 17)" onmousedown="handlePan(-1,0)">
                  <use xlink:href="#rim" fill="#404040">
                        <set attributeName="fill" to="#808080" begin="arrowLeft.mouseover" end="arrowLeft.mouseout"/>
                  </use>
                  <path fill="none" stroke="white" stroke-width="1.5" d="M0,-3.0v7 M-2.5,-0.5L0,-3.0L2.5,-0.5"/>
                </g>
        </g>
        <svg viewBox="0 0 15 15" width="100%" height="30px" preserveAspectRatio="xMaxYMin meet">
         <g id="arrow_out" transform="scale(0.3 0.3)">
          <a xlink:href="EMCAL_2calib_2src_2BadChannelMap_8cxx__incl_org.svg" target="_base">
           <rect id="button" ry="5" rx="5" y="6" x="6" height="38" width="38"
                fill="#f2f5e9" fill-opacity="0.5" stroke="#606060" stroke-width="1.0"/>
           <path id="arrow"
             d="M 11.500037,31.436501 C 11.940474,20.09759 22.043105,11.32322 32.158766,21.979434 L 37.068811,17.246167 C 37.068811,17.246167 37.088388,32 37.088388,32 L 22.160133,31.978069 C 22.160133,31.978069 26.997745,27.140456 26.997745,27.140456 C 18.528582,18.264221 13.291696,25.230495 11.500037,31.436501 z"
             style="fill:#404040;"/>
          </a>
         </g>
        </svg>
</svg>
