<?xml version="1.0" encoding="UTF-8" standalone="no"?>
<!DOCTYPE svg PUBLIC "-//W3C//DTD SVG 1.1//EN"
 "http://www.w3.org/Graphics/SVG/1.1/DTD/svg11.dtd">
<!-- Generated by graphviz version 2.40.1 (20161225.0304)
 -->
<!-- Title: /home/travis/build/AliceO2Group/AliceO2/Detectors/FIT/FV0/simulation/include/FV0Simulation/Detector.h Pages: 1 -->
<!--zoomable 374 -->
<svg id="main" version="1.1" xmlns="http://www.w3.org/2000/svg" xmlns:xlink="http://www.w3.org/1999/xlink" xml:space="preserve" onload="init(evt)">
<style type="text/css"><![CDATA[
.edge:hover path { stroke: red; }
.edge:hover polygon { stroke: red; fill: red; }
]]></style>
<script type="text/javascript"><![CDATA[
var edges = document.getElementsByTagName('g');
if (edges && edges.length) {
  for (var i=0;i<edges.length;i++) {
    if (edges[i].id.substr(0,4)=='edge') {
      edges[i].setAttribute('class','edge');
    }
  }
}
]]></script>
        <defs>
                <circle id="rim" cx="0" cy="0" r="7"/>
                <circle id="rim2" cx="0" cy="0" r="3.5"/>
                <g id="zoomPlus">
                        <use xlink:href="#rim" fill="#404040">
                                <set attributeName="fill" to="#808080" begin="zoomplus.mouseover" end="zoomplus.mouseout"/>
                        </use>
                        <path d="M-4,0h8M0,-4v8" fill="none" stroke="white" stroke-width="1.5" pointer-events="none"/>
                </g>
                <g id="zoomMin">
                        <use xlink:href="#rim" fill="#404040">
                                <set attributeName="fill" to="#808080" begin="zoomminus.mouseover" end="zoomminus.mouseout"/>
                        </use>
                        <path d="M-4,0h8" fill="none" stroke="white" stroke-width="1.5" pointer-events="none"/>
                </g>
                <g id="dirArrow">
                        <path fill="none" stroke="white" stroke-width="1.5" d="M0,-3.0v7 M-2.5,-0.5L0,-3.0L2.5,-0.5"/>
                </g>
               <g id="resetDef">
                       <use xlink:href="#rim2" fill="#404040">
                               <set attributeName="fill" to="#808080" begin="reset.mouseover" end="reset.mouseout"/>
                       </use>
               </g>
        </defs>

<script type="text/javascript">
var viewWidth = 3205;
var viewHeight = 374;
var sectionId = 'dynsection-0';
</script>
<script xlink:href="../../svgpan.js"/>
<svg id="graph" class="graph">
<g id="viewport">
<title>/home/travis/build/AliceO2Group/AliceO2/Detectors/FIT/FV0/simulation/include/FV0Simulation/Detector.h</title>
<!-- Node0 -->
<g id="node1" class="node">
<title>Node0</title>
<polygon fill="#bfbfbf" stroke="#000000" points="1183,-313.5 1183,-365.5 1365,-365.5 1365,-313.5 1183,-313.5"/>
<text text-anchor="start" x="1191" y="-353.5" font-family="Helvetica,sans-Serif" font-size="10.00" fill="#000000">/home/travis/build</text>
<text text-anchor="start" x="1191" y="-342.5" font-family="Helvetica,sans-Serif" font-size="10.00" fill="#000000">/AliceO2Group/AliceO2</text>
<text text-anchor="start" x="1191" y="-331.5" font-family="Helvetica,sans-Serif" font-size="10.00" fill="#000000">/Detectors/FIT/FV0/simulation</text>
<text text-anchor="middle" x="1274" y="-320.5" font-family="Helvetica,sans-Serif" font-size="10.00" fill="#000000">/include/FV0Simulation/Detector.h</text>
</g>
<!-- Node1 -->
<g id="node2" class="node">
<title>Node1</title>
<polygon fill="none" stroke="#bfbfbf" points="1110,-257.5 1110,-276.5 1208,-276.5 1208,-257.5 1110,-257.5"/>
<text text-anchor="middle" x="1159" y="-264.5" font-family="Helvetica,sans-Serif" font-size="10.00" fill="#000000">TLorentzVector.h</text>
</g>
<!-- Node0&#45;&gt;Node1 -->
<g id="edge1" class="edge">
<title>Node0&#45;&gt;Node1</title>
<path fill="none" stroke="#191970" d="M1232.4824,-313.3258C1215.8051,-302.8119 1197.1793,-291.0696 1182.8529,-282.0377"/>
<polygon fill="#191970" stroke="#191970" points="1184.4487,-278.9063 1174.1229,-276.534 1180.7156,-284.8278 1184.4487,-278.9063"/>
</g>
<!-- Node2 -->
<g id="node3" class="node">
<title>Node2</title>
<g id="a_node3"><a xlink:href="../../d7/dd7/DataFormats_2Detectors_2FIT_2FV0_2include_2DataFormatsFV0_2Hit_8h.html" target="_top" xlink:title="DataFormatsFV0/Hit.h">
<polygon fill="none" stroke="#000000" points="1355,-257.5 1355,-276.5 1479,-276.5 1479,-257.5 1355,-257.5"/>
<text text-anchor="middle" x="1417" y="-264.5" font-family="Helvetica,sans-Serif" font-size="10.00" fill="#000000">DataFormatsFV0/Hit.h</text>
</a>
</g>
</g>
<!-- Node0&#45;&gt;Node2 -->
<g id="edge2" class="edge">
<title>Node0&#45;&gt;Node2</title>
<path fill="none" stroke="#191970" d="M1325.6263,-313.3258C1346.9566,-302.5115 1370.8503,-290.3976 1388.8531,-281.2703"/>
<polygon fill="#191970" stroke="#191970" points="1390.8585,-284.1777 1398.195,-276.534 1387.6931,-277.9343 1390.8585,-284.1777"/>
</g>
<!-- Node4 -->
<g id="node5" class="node">
<title>Node4</title>
<g id="a_node5"><a xlink:href="../../d4/d25/BaseHits_8h.html" target="_top" xlink:title="SimulationDataFormat\l/BaseHits.h">
<polygon fill="none" stroke="#000000" points="1209.5,-190.5 1209.5,-220.5 1336.5,-220.5 1336.5,-190.5 1209.5,-190.5"/>
<text text-anchor="start" x="1217.5" y="-208.5" font-family="Helvetica,sans-Serif" font-size="10.00" fill="#000000">SimulationDataFormat</text>
<text text-anchor="middle" x="1273" y="-197.5" font-family="Helvetica,sans-Serif" font-size="10.00" fill="#000000">/BaseHits.h</text>
</a>
</g>
</g>
<!-- Node0&#45;&gt;Node4 -->
<g id="edge56" class="edge">
<title>Node0&#45;&gt;Node4</title>
<path fill="none" stroke="#191970" d="M1273.8048,-313.3453C1273.6272,-289.5432 1273.3666,-254.6196 1273.1904,-231.0183"/>
<polygon fill="#191970" stroke="#191970" points="1276.6884,-230.7197 1273.1138,-220.7461 1269.6886,-230.772 1276.6884,-230.7197"/>
</g>
<!-- Node24 -->
<g id="node25" class="node">
<title>Node24</title>
<g id="a_node25"><a xlink:href="../../d1/d3a/Base_2include_2DetectorsBase_2Detector_8h.html" target="_top" xlink:title="DetectorsBase/Detector.h">
<polygon fill="none" stroke="#000000" points="2052.5,-196 2052.5,-215 2193.5,-215 2193.5,-196 2052.5,-196"/>
<text text-anchor="middle" x="2123" y="-203" font-family="Helvetica,sans-Serif" font-size="10.00" fill="#000000">DetectorsBase/Detector.h</text>
</a>
</g>
</g>
<!-- Node0&#45;&gt;Node24 -->
<g id="edge26" class="edge">
<title>Node0&#45;&gt;Node24</title>
<path fill="none" stroke="#191970" d="M1365.2608,-325.0961C1535.758,-298.186 1899.2274,-240.8186 2052.5016,-216.627"/>
<polygon fill="#191970" stroke="#191970" points="2053.3971,-220.029 2062.7292,-215.0127 2052.3058,-213.1146 2053.3971,-220.029"/>
</g>
<!-- Node40 -->
<g id="node41" class="node">
<title>Node40</title>
<g id="a_node41"><a xlink:href="../../d8/de0/FIT_2FV0_2base_2include_2FV0Base_2Geometry_8h.html" target="_top" xlink:title="FV0Base/Geometry.h">
<polygon fill="none" stroke="#000000" points="853,-196 853,-215 971,-215 971,-196 853,-196"/>
<text text-anchor="middle" x="912" y="-203" font-family="Helvetica,sans-Serif" font-size="10.00" fill="#000000">FV0Base/Geometry.h</text>
</a>
</g>
</g>
<!-- Node0&#45;&gt;Node40 -->
<g id="edge50" class="edge">
<title>Node0&#45;&gt;Node40</title>
<path fill="none" stroke="#191970" d="M1262.7633,-313.2802C1253.327,-294.5415 1238.0028,-270.3656 1217,-257 1178.8445,-232.7189 1058.861,-218.0948 981.2463,-210.9315"/>
<polygon fill="#191970" stroke="#191970" points="981.3338,-207.4253 971.0595,-210.0116 980.7041,-214.3969 981.3338,-207.4253"/>
</g>
<!-- Node3 -->
<g id="node4" class="node">
<title>Node3</title>
<polygon fill="none" stroke="#bfbfbf" points="1435.5,-73 1435.5,-92 1484.5,-92 1484.5,-73 1435.5,-73"/>
<text text-anchor="middle" x="1460" y="-80" font-family="Helvetica,sans-Serif" font-size="10.00" fill="#000000">iosfwd</text>
</g>
<!-- Node2&#45;&gt;Node3 -->
<g id="edge3" class="edge">
<title>Node2&#45;&gt;Node3</title>
<path fill="none" stroke="#191970" d="M1410.3464,-257.4098C1395.4966,-234.7175 1362.654,-176.4512 1385,-134 1390.3987,-123.7439 1414.2557,-108.3219 1433.6334,-97.0274"/>
<polygon fill="#191970" stroke="#191970" points="1435.4676,-100.0105 1442.4119,-92.0088 1431.9933,-93.9335 1435.4676,-100.0105"/>
</g>
<!-- Node2&#45;&gt;Node4 -->
<g id="edge4" class="edge">
<title>Node2&#45;&gt;Node4</title>
<path fill="none" stroke="#191970" d="M1394.5,-257.3906C1374.0189,-248.6435 1343.1803,-235.4728 1317.6978,-224.5897"/>
<polygon fill="#191970" stroke="#191970" points="1318.7975,-221.2535 1308.2264,-220.5446 1316.0481,-227.691 1318.7975,-221.2535"/>
</g>
<!-- Node13 -->
<g id="node14" class="node">
<title>Node13</title>
<polygon fill="none" stroke="#bfbfbf" points="1502.5,-73 1502.5,-92 1561.5,-92 1561.5,-73 1502.5,-73"/>
<text text-anchor="middle" x="1532" y="-80" font-family="Helvetica,sans-Serif" font-size="10.00" fill="#000000">Rtypes.h</text>
</g>
<!-- Node2&#45;&gt;Node13 -->
<g id="edge16" class="edge">
<title>Node2&#45;&gt;Node13</title>
<path fill="none" stroke="#191970" d="M1423.021,-257.3402C1441.3409,-227.9487 1496.6188,-139.2637 1520.6451,-100.7172"/>
<polygon fill="#191970" stroke="#191970" points="1523.7192,-102.402 1526.0386,-92.0641 1517.7787,-98.6992 1523.7192,-102.402"/>
</g>
<!-- Node15 -->
<g id="node16" class="node">
<title>Node15</title>
<polygon fill="none" stroke="#bfbfbf" points="1497,-196 1497,-215 1565,-215 1565,-196 1497,-196"/>
<text text-anchor="middle" x="1531" y="-203" font-family="Helvetica,sans-Serif" font-size="10.00" fill="#000000">TVector3.h</text>
</g>
<!-- Node2&#45;&gt;Node15 -->
<g id="edge17" class="edge">
<title>Node2&#45;&gt;Node15</title>
<path fill="none" stroke="#191970" d="M1434.8125,-257.3906C1453.4685,-247.3262 1482.9797,-231.4057 1504.3974,-219.8514"/>
<polygon fill="#191970" stroke="#191970" points="1506.1734,-222.8702 1513.3126,-215.0419 1502.8498,-216.7095 1506.1734,-222.8702"/>
</g>
<!-- Node16 -->
<g id="node17" class="node">
<title>Node16</title>
<g id="a_node17"><a xlink:href="../../d0/d91/ShmAllocator_8h.html" target="_top" xlink:title="CommonUtils/ShmAllocator.h">
<polygon fill="none" stroke="#000000" points="2702,-134.5 2702,-153.5 2862,-153.5 2862,-134.5 2702,-134.5"/>
<text text-anchor="middle" x="2782" y="-141.5" font-family="Helvetica,sans-Serif" font-size="10.00" fill="#000000">CommonUtils/ShmAllocator.h</text>
</a>
</g>
</g>
<!-- Node2&#45;&gt;Node16 -->
<g id="edge18" class="edge">
<title>Node2&#45;&gt;Node16</title>
<path fill="none" stroke="#191970" d="M1479.0219,-264.9265C1611.9518,-260.1405 1934.0895,-246.7145 2203,-221 2387.0912,-203.3963 2602.7269,-171.7979 2711.5428,-155.0771"/>
<polygon fill="#191970" stroke="#191970" points="2712.385,-158.4887 2721.7352,-153.5063 2711.3188,-151.5703 2712.385,-158.4887"/>
</g>
<!-- Node5 -->
<g id="node6" class="node">
<title>Node5</title>
<g id="a_node6"><a xlink:href="../../dc/d73/Cartesian_8h.html" target="_top" xlink:title="MathUtils/Cartesian.h">
<polygon fill="none" stroke="#000000" points="990,-134.5 990,-153.5 1112,-153.5 1112,-134.5 990,-134.5"/>
<text text-anchor="middle" x="1051" y="-141.5" font-family="Helvetica,sans-Serif" font-size="10.00" fill="#000000">MathUtils/Cartesian.h</text>
</a>
</g>
</g>
<!-- Node4&#45;&gt;Node5 -->
<g id="edge5" class="edge">
<title>Node4&#45;&gt;Node5</title>
<path fill="none" stroke="#191970" d="M1218.6927,-190.4554C1180.8391,-179.9689 1130.9613,-166.1515 1095.4673,-156.3187"/>
<polygon fill="#191970" stroke="#191970" points="1095.9736,-152.8271 1085.4021,-153.5303 1094.1047,-159.5731 1095.9736,-152.8271"/>
</g>
<!-- Node5&#45;&gt;Node3 -->
<g id="edge15" class="edge">
<title>Node5&#45;&gt;Node3</title>
<path fill="none" stroke="#191970" d="M1112.2989,-138.8761C1203.2551,-130.8701 1369.413,-114.5858 1427,-98 1428.916,-97.4482 1430.8601,-96.7975 1432.7963,-96.0806"/>
<polygon fill="#191970" stroke="#191970" points="1434.392,-99.2063 1442.2465,-92.0959 1431.6722,-92.7562 1434.392,-99.2063"/>
</g>
<!-- Node6 -->
<g id="node7" class="node">
<title>Node6</title>
<polygon fill="none" stroke="#bfbfbf" points="490,-67.5 490,-97.5 654,-97.5 654,-67.5 490,-67.5"/>
<text text-anchor="start" x="498" y="-85.5" font-family="Helvetica,sans-Serif" font-size="10.00" fill="#000000">Math/GenVector/Displacement</text>
<text text-anchor="middle" x="572" y="-74.5" font-family="Helvetica,sans-Serif" font-size="10.00" fill="#000000">Vector3D.h</text>
</g>
<!-- Node5&#45;&gt;Node6 -->
<g id="edge6" class="edge">
<title>Node5&#45;&gt;Node6</title>
<path fill="none" stroke="#191970" d="M989.9308,-135.1689C986.9121,-134.7659 983.9224,-134.3741 981,-134 843.0839,-116.3461 805.5041,-117.8692 664.2137,-98.1268"/>
<polygon fill="#191970" stroke="#191970" points="664.698,-94.6606 654.3076,-96.7318 663.7218,-101.5922 664.698,-94.6606"/>
</g>
<!-- Node7 -->
<g id="node8" class="node">
<title>Node7</title>
<polygon fill="none" stroke="#bfbfbf" points="672.5,-73 672.5,-92 861.5,-92 861.5,-73 672.5,-73"/>
<text text-anchor="middle" x="767" y="-80" font-family="Helvetica,sans-Serif" font-size="10.00" fill="#000000">Math/GenVector/PositionVector3D.h</text>
</g>
<!-- Node5&#45;&gt;Node7 -->
<g id="edge7" class="edge">
<title>Node5&#45;&gt;Node7</title>
<path fill="none" stroke="#191970" d="M1006.9366,-134.4581C956.8787,-123.6181 875.1618,-105.9224 821.2318,-94.2439"/>
<polygon fill="#191970" stroke="#191970" points="821.681,-90.7601 811.1668,-92.0643 820.1995,-97.6015 821.681,-90.7601"/>
</g>
<!-- Node8 -->
<g id="node9" class="node">
<title>Node8</title>
<polygon fill="none" stroke="#bfbfbf" points="880,-73 880,-92 1040,-92 1040,-73 880,-73"/>
<text text-anchor="middle" x="960" y="-80" font-family="Helvetica,sans-Serif" font-size="10.00" fill="#000000">Math/GenVector/Rotation3D.h</text>
</g>
<!-- Node5&#45;&gt;Node8 -->
<g id="edge8" class="edge">
<title>Node5&#45;&gt;Node8</title>
<path fill="none" stroke="#191970" d="M1036.7813,-134.3906C1022.3566,-124.6421 999.8024,-109.3994 982.864,-97.9521"/>
<polygon fill="#191970" stroke="#191970" points="984.3641,-94.7415 974.1189,-92.0419 980.4444,-100.5412 984.3641,-94.7415"/>
</g>
<!-- Node9 -->
<g id="node10" class="node">
<title>Node9</title>
<polygon fill="none" stroke="#bfbfbf" points="1058,-73 1058,-92 1226,-92 1226,-73 1058,-73"/>
<text text-anchor="middle" x="1142" y="-80" font-family="Helvetica,sans-Serif" font-size="10.00" fill="#000000">Math/GenVector/Transform3D.h</text>
</g>
<!-- Node5&#45;&gt;Node9 -->
<g id="edge9" class="edge">
<title>Node5&#45;&gt;Node9</title>
<path fill="none" stroke="#191970" d="M1065.2188,-134.3906C1079.6434,-124.6421 1102.1976,-109.3994 1119.136,-97.9521"/>
<polygon fill="#191970" stroke="#191970" points="1121.5556,-100.5412 1127.8811,-92.0419 1117.6359,-94.7415 1121.5556,-100.5412"/>
</g>
<!-- Node10 -->
<g id="node11" class="node">
<title>Node10</title>
<polygon fill="none" stroke="#bfbfbf" points="1244.5,-73 1244.5,-92 1417.5,-92 1417.5,-73 1244.5,-73"/>
<text text-anchor="middle" x="1331" y="-80" font-family="Helvetica,sans-Serif" font-size="10.00" fill="#000000">Math/GenVector/Translation3D.h</text>
</g>
<!-- Node5&#45;&gt;Node10 -->
<g id="edge10" class="edge">
<title>Node5&#45;&gt;Node10</title>
<path fill="none" stroke="#191970" d="M1094.4428,-134.4581C1143.7956,-123.6181 1224.3616,-105.9224 1277.532,-94.2439"/>
<polygon fill="#191970" stroke="#191970" points="1278.439,-97.6282 1287.4553,-92.0643 1276.9372,-90.7911 1278.439,-97.6282"/>
</g>
<!-- Node11 -->
<g id="node12" class="node">
<title>Node11</title>
<polygon fill="none" stroke="#bfbfbf" points="100,-67.5 100,-97.5 264,-97.5 264,-67.5 100,-67.5"/>
<text text-anchor="start" x="108" y="-85.5" font-family="Helvetica,sans-Serif" font-size="10.00" fill="#000000">Math/GenVector/Displacement</text>
<text text-anchor="middle" x="182" y="-74.5" font-family="Helvetica,sans-Serif" font-size="10.00" fill="#000000">Vector2D.h</text>
</g>
<!-- Node5&#45;&gt;Node11 -->
<g id="edge11" class="edge">
<title>Node5&#45;&gt;Node11</title>
<path fill="none" stroke="#191970" d="M989.9559,-134.9455C986.9306,-134.6016 983.9326,-134.2834 981,-134 670.757,-104.0151 587.9489,-131.8997 274.5696,-98.0851"/>
<polygon fill="#191970" stroke="#191970" points="274.5995,-94.5676 264.2787,-96.9616 273.8397,-101.5263 274.5995,-94.5676"/>
</g>
<!-- Node12 -->
<g id="node13" class="node">
<title>Node12</title>
<polygon fill="none" stroke="#bfbfbf" points="282.5,-73 282.5,-92 471.5,-92 471.5,-73 282.5,-73"/>
<text text-anchor="middle" x="377" y="-80" font-family="Helvetica,sans-Serif" font-size="10.00" fill="#000000">Math/GenVector/PositionVector2D.h</text>
</g>
<!-- Node5&#45;&gt;Node12 -->
<g id="edge12" class="edge">
<title>Node5&#45;&gt;Node12</title>
<path fill="none" stroke="#191970" d="M989.9482,-135.0216C986.9249,-134.6576 983.9295,-134.3143 981,-134 759.474,-110.2313 702.453,-122.439 481,-98 469.5624,-96.7378 457.4519,-95.1574 445.6933,-93.492"/>
<polygon fill="#191970" stroke="#191970" points="445.8747,-89.9819 435.4763,-92.0126 444.8715,-96.9096 445.8747,-89.9819"/>
</g>
<!-- Node5&#45;&gt;Node13 -->
<g id="edge13" class="edge">
<title>Node5&#45;&gt;Node13</title>
<path fill="none" stroke="#191970" d="M1112.4098,-139.7848C1216.5346,-132.2762 1423.3059,-115.7037 1494,-98 1496.6307,-97.3412 1499.3191,-96.5357 1501.99,-95.6416"/>
<polygon fill="#191970" stroke="#191970" points="1503.3005,-98.8885 1511.4513,-92.1198 1500.8585,-92.3282 1503.3005,-98.8885"/>
</g>
<!-- Node14 -->
<g id="node15" class="node">
<title>Node14</title>
<polygon fill="none" stroke="#bfbfbf" points="0,-73 0,-92 82,-92 82,-73 0,-73"/>
<text text-anchor="middle" x="41" y="-80" font-family="Helvetica,sans-Serif" font-size="10.00" fill="#000000">TGeoMatrix.h</text>
</g>
<!-- Node5&#45;&gt;Node14 -->
<g id="edge14" class="edge">
<title>Node5&#45;&gt;Node14</title>
<path fill="none" stroke="#191970" d="M989.9594,-134.908C986.9332,-134.574 983.934,-134.2682 981,-134 586.7648,-97.9608 481.1377,-165.1773 91,-98 86.4435,-97.2154 81.7233,-96.1305 77.0845,-94.8957"/>
<polygon fill="#191970" stroke="#191970" points="77.7338,-91.4397 67.1544,-92.0112 75.7811,-98.1618 77.7338,-91.4397"/>
</g>
<!-- Node17 -->
<g id="node18" class="node">
<title>Node17</title>
<g id="a_node18"><a xlink:href="../../de/d61/ShmManager_8h.html" target="_top" xlink:title="CommonUtils/ShmManager.h">
<polygon fill="none" stroke="#000000" points="2757,-73 2757,-92 2915,-92 2915,-73 2757,-73"/>
<text text-anchor="middle" x="2836" y="-80" font-family="Helvetica,sans-Serif" font-size="10.00" fill="#000000">CommonUtils/ShmManager.h</text>
</a>
</g>
</g>
<!-- Node16&#45;&gt;Node17 -->
<g id="edge19" class="edge">
<title>Node16&#45;&gt;Node17</title>
<path fill="none" stroke="#191970" d="M2790.4375,-134.3906C2798.5531,-125.1478 2811.0055,-110.966 2820.8424,-99.7628"/>
<polygon fill="#191970" stroke="#191970" points="2823.4755,-102.0686 2827.4435,-92.2449 2818.2154,-97.45 2823.4755,-102.0686"/>
</g>
<!-- Node23 -->
<g id="node24" class="node">
<title>Node23</title>
<polygon fill="none" stroke="#bfbfbf" points="2392,-73 2392,-92 2444,-92 2444,-73 2392,-73"/>
<text text-anchor="middle" x="2418" y="-80" font-family="Helvetica,sans-Serif" font-size="10.00" fill="#000000">cassert</text>
</g>
<!-- Node16&#45;&gt;Node23 -->
<g id="edge25" class="edge">
<title>Node16&#45;&gt;Node23</title>
<path fill="none" stroke="#191970" d="M2725.5244,-134.4581C2649.8609,-121.6743 2517.7635,-99.3556 2454.1991,-88.6161"/>
<polygon fill="#191970" stroke="#191970" points="2454.6854,-85.1487 2444.242,-86.9337 2453.5191,-92.0509 2454.6854,-85.1487"/>
</g>
<!-- Node18 -->
<g id="node19" class="node">
<title>Node18</title>
<polygon fill="none" stroke="#bfbfbf" points="2689,-6 2689,-25 2721,-25 2721,-6 2689,-6"/>
<text text-anchor="middle" x="2705" y="-13" font-family="Helvetica,sans-Serif" font-size="10.00" fill="#000000">list</text>
</g>
<!-- Node17&#45;&gt;Node18 -->
<g id="edge20" class="edge">
<title>Node17&#45;&gt;Node18</title>
<path fill="none" stroke="#191970" d="M2815.2253,-72.9239C2793.8585,-62.9326 2759.7375,-46.5799 2731,-31 2730.4658,-30.7104 2729.9269,-30.4153 2729.3846,-30.1159"/>
<polygon fill="#191970" stroke="#191970" points="2730.9708,-26.9909 2720.5547,-25.053 2727.4889,-33.0635 2730.9708,-26.9909"/>
</g>
<!-- Node19 -->
<g id="node20" class="node">
<title>Node19</title>
<polygon fill="none" stroke="#bfbfbf" points="2739.5,-6 2739.5,-25 2792.5,-25 2792.5,-6 2739.5,-6"/>
<text text-anchor="middle" x="2766" y="-13" font-family="Helvetica,sans-Serif" font-size="10.00" fill="#000000">cstddef</text>
</g>
<!-- Node17&#45;&gt;Node19 -->
<g id="edge21" class="edge">
<title>Node17&#45;&gt;Node19</title>
<path fill="none" stroke="#191970" d="M2825.9707,-72.9005C2814.8469,-62.2535 2796.7013,-44.8856 2783.279,-32.0385"/>
<polygon fill="#191970" stroke="#191970" points="2785.655,-29.4678 2776.0107,-25.0817 2780.8148,-34.5247 2785.655,-29.4678"/>
</g>
<!-- Node20 -->
<g id="node21" class="node">
<title>Node20</title>
<polygon fill="none" stroke="#bfbfbf" points="2811,-6 2811,-25 2861,-25 2861,-6 2811,-6"/>
<text text-anchor="middle" x="2836" y="-13" font-family="Helvetica,sans-Serif" font-size="10.00" fill="#000000">atomic</text>
</g>
<!-- Node17&#45;&gt;Node20 -->
<g id="edge22" class="edge">
<title>Node17&#45;&gt;Node20</title>
<path fill="none" stroke="#191970" d="M2836,-72.9005C2836,-63.149 2836,-47.7597 2836,-35.3695"/>
<polygon fill="#191970" stroke="#191970" points="2839.5001,-35.0816 2836,-25.0817 2832.5001,-35.0817 2839.5001,-35.0816"/>
</g>
<!-- Node21 -->
<g id="node22" class="node">
<title>Node21</title>
<polygon fill="none" stroke="#bfbfbf" points="2879.5,-.5 2879.5,-30.5 3044.5,-30.5 3044.5,-.5 2879.5,-.5"/>
<text text-anchor="start" x="2887.5" y="-18.5" font-family="Helvetica,sans-Serif" font-size="10.00" fill="#000000">boost/interprocess</text>
<text text-anchor="middle" x="2962" y="-7.5" font-family="Helvetica,sans-Serif" font-size="10.00" fill="#000000">/managed_external_buffer.hpp</text>
</g>
<!-- Node17&#45;&gt;Node21 -->
<g id="edge23" class="edge">
<title>Node17&#45;&gt;Node21</title>
<path fill="none" stroke="#191970" d="M2854.0527,-72.9005C2872.435,-63.1258 2901.4701,-47.6865 2924.7995,-35.2812"/>
<polygon fill="#191970" stroke="#191970" points="2926.564,-38.3071 2933.7501,-30.5218 2923.2775,-32.1265 2926.564,-38.3071"/>
</g>
<!-- Node22 -->
<g id="node23" class="node">
<title>Node22</title>
<polygon fill="none" stroke="#bfbfbf" points="3063,-.5 3063,-30.5 3197,-30.5 3197,-.5 3063,-.5"/>
<text text-anchor="start" x="3071" y="-18.5" font-family="Helvetica,sans-Serif" font-size="10.00" fill="#000000">boost/interprocess</text>
<text text-anchor="middle" x="3130" y="-7.5" font-family="Helvetica,sans-Serif" font-size="10.00" fill="#000000">/allocators/allocator.hpp</text>
</g>
<!-- Node17&#45;&gt;Node22 -->
<g id="edge24" class="edge">
<title>Node17&#45;&gt;Node22</title>
<path fill="none" stroke="#191970" d="M2877.8108,-72.9717C2923.5738,-62.5427 2997.8988,-45.6047 3054.0321,-32.8124"/>
<polygon fill="#191970" stroke="#191970" points="3054.9639,-36.1899 3063.9362,-30.5553 3053.4085,-29.3649 3054.9639,-36.1899"/>
</g>
<!-- Node24&#45;&gt;Node13 -->
<g id="edge39" class="edge">
<title>Node24&#45;&gt;Node13</title>
<path fill="none" stroke="#191970" d="M2052.428,-204.6356C1902.2667,-202.0626 1561.9057,-192.052 1527,-154 1514.3037,-140.1593 1518.317,-117.7842 1523.7495,-101.7498"/>
<polygon fill="#191970" stroke="#191970" points="1527.0672,-102.8727 1527.3631,-92.282 1520.5273,-100.3766 1527.0672,-102.8727"/>
</g>
<!-- Node24&#45;&gt;Node16 -->
<g id="edge46" class="edge">
<title>Node24&#45;&gt;Node16</title>
<path fill="none" stroke="#191970" d="M2193.6923,-199.6113C2299.5779,-190.6803 2505.9149,-172.8492 2691.9874,-154.0851"/>
<polygon fill="#191970" stroke="#191970" points="2692.3582,-157.5656 2701.9552,-153.077 2691.6538,-150.6011 2692.3582,-157.5656"/>
</g>
<!-- Node24&#45;&gt;Node17 -->
<g id="edge45" class="edge">
<title>Node24&#45;&gt;Node17</title>
<path fill="none" stroke="#191970" d="M2193.5116,-203.223C2375.4328,-197.0077 2848.0719,-178.561 2871,-154 2885.697,-138.2563 2869.5314,-115.1852 2854.6313,-99.5416"/>
<polygon fill="#191970" stroke="#191970" points="2856.6957,-96.6606 2847.125,-92.1161 2851.7728,-101.6371 2856.6957,-96.6606"/>
</g>
<!-- Node24&#45;&gt;Node23 -->
<g id="edge49" class="edge">
<title>Node24&#45;&gt;Node23</title>
<path fill="none" stroke="#191970" d="M2122.5514,-195.5277C2122.4376,-179.9767 2124.6721,-150.0705 2142,-134 2176.3484,-102.144 2314.7168,-89.0917 2381.5344,-84.5653"/>
<polygon fill="#191970" stroke="#191970" points="2381.8649,-88.0513 2391.617,-83.9104 2381.4112,-81.066 2381.8649,-88.0513"/>
</g>
<!-- Node25 -->
<g id="node26" class="node">
<title>Node25</title>
<polygon fill="none" stroke="#bfbfbf" points="1691,-73 1691,-92 1729,-92 1729,-73 1691,-73"/>
<text text-anchor="middle" x="1710" y="-80" font-family="Helvetica,sans-Serif" font-size="10.00" fill="#000000">map</text>
</g>
<!-- Node24&#45;&gt;Node25 -->
<g id="edge27" class="edge">
<title>Node24&#45;&gt;Node25</title>
<path fill="none" stroke="#191970" d="M2052.372,-199.6697C1967.761,-191.8302 1831.6936,-176.2573 1786,-154 1760.0652,-141.3672 1736.9884,-116.7849 1723.2491,-100.0072"/>
<polygon fill="#191970" stroke="#191970" points="1725.9008,-97.7179 1716.9497,-92.0496 1720.4123,-102.0627 1725.9008,-97.7179"/>
</g>
<!-- Node26 -->
<g id="node27" class="node">
<title>Node26</title>
<polygon fill="none" stroke="#bfbfbf" points="1393.5,-134.5 1393.5,-153.5 1440.5,-153.5 1440.5,-134.5 1393.5,-134.5"/>
<text text-anchor="middle" x="1417" y="-141.5" font-family="Helvetica,sans-Serif" font-size="10.00" fill="#000000">vector</text>
</g>
<!-- Node24&#45;&gt;Node26 -->
<g id="edge28" class="edge">
<title>Node24&#45;&gt;Node26</title>
<path fill="none" stroke="#191970" d="M2052.033,-200.8432C1935.2765,-192.925 1695.4206,-175.5774 1493,-154 1479.1124,-152.5196 1463.839,-150.5725 1450.6499,-148.79"/>
<polygon fill="#191970" stroke="#191970" points="1450.9688,-145.301 1440.5856,-147.4079 1450.0164,-152.2359 1450.9688,-145.301"/>
</g>
<!-- Node27 -->
<g id="node28" class="node">
<title>Node27</title>
<polygon fill="none" stroke="#bfbfbf" points="1747.5,-73 1747.5,-92 1830.5,-92 1830.5,-73 1747.5,-73"/>
<text text-anchor="middle" x="1789" y="-80" font-family="Helvetica,sans-Serif" font-size="10.00" fill="#000000">initializer_list</text>
</g>
<!-- Node24&#45;&gt;Node27 -->
<g id="edge29" class="edge">
<title>Node24&#45;&gt;Node27</title>
<path fill="none" stroke="#191970" d="M2052.4692,-203.4403C1968.8894,-199.4697 1836.5768,-187.8659 1802,-154 1788.5248,-140.8018 1786.3547,-118.6345 1786.8813,-102.4748"/>
<polygon fill="#191970" stroke="#191970" points="1790.3776,-102.6474 1787.5709,-92.4312 1783.394,-102.1679 1790.3776,-102.6474"/>
</g>
<!-- Node28 -->
<g id="node29" class="node">
<title>Node28</title>
<polygon fill="none" stroke="#bfbfbf" points="1811,-134.5 1811,-153.5 1869,-153.5 1869,-134.5 1811,-134.5"/>
<text text-anchor="middle" x="1840" y="-141.5" font-family="Helvetica,sans-Serif" font-size="10.00" fill="#000000">memory</text>
</g>
<!-- Node24&#45;&gt;Node28 -->
<g id="edge30" class="edge">
<title>Node24&#45;&gt;Node28</title>
<path fill="none" stroke="#191970" d="M2074.0311,-195.958C2026.5898,-186.545 1952.3922,-171.3802 1878.9007,-154.1297"/>
<polygon fill="#191970" stroke="#191970" points="1879.5453,-150.6857 1869.0086,-151.7939 1877.9366,-157.4984 1879.5453,-150.6857"/>
</g>
<!-- Node29 -->
<g id="node30" class="node">
<title>Node29</title>
<polygon fill="none" stroke="#bfbfbf" points="1887,-134.5 1887,-153.5 1971,-153.5 1971,-134.5 1887,-134.5"/>
<text text-anchor="middle" x="1929" y="-141.5" font-family="Helvetica,sans-Serif" font-size="10.00" fill="#000000">FairDetector.h</text>
</g>
<!-- Node24&#45;&gt;Node29 -->
<g id="edge31" class="edge">
<title>Node24&#45;&gt;Node29</title>
<path fill="none" stroke="#191970" d="M2092.6875,-195.8906C2059.3735,-185.3298 2005.7192,-168.3208 1968.9819,-156.6747"/>
<polygon fill="#191970" stroke="#191970" points="1969.6898,-153.2275 1959.0996,-153.5419 1967.5744,-159.9002 1969.6898,-153.2275"/>
</g>
<!-- Node30 -->
<g id="node31" class="node">
<title>Node30</title>
<polygon fill="none" stroke="#bfbfbf" points="1989,-134.5 1989,-153.5 2095,-153.5 2095,-134.5 1989,-134.5"/>
<text text-anchor="middle" x="2042" y="-141.5" font-family="Helvetica,sans-Serif" font-size="10.00" fill="#000000">FairRootManager.h</text>
</g>
<!-- Node24&#45;&gt;Node30 -->
<g id="edge32" class="edge">
<title>Node24&#45;&gt;Node30</title>
<path fill="none" stroke="#191970" d="M2110.3438,-195.8906C2097.6232,-186.2324 2077.7996,-171.1812 2062.7716,-159.771"/>
<polygon fill="#191970" stroke="#191970" points="2064.6484,-156.8015 2054.5674,-153.5419 2060.4154,-162.3766 2064.6484,-156.8015"/>
</g>
<!-- Node31 -->
<g id="node32" class="node">
<title>Node31</title>
<g id="a_node32"><a xlink:href="../../d0/d9a/MaterialManager_8h.html" target="_top" xlink:title="DetectorsBase/MaterialManager.h">
<polygon fill="none" stroke="#000000" points="1535.5,-134.5 1535.5,-153.5 1716.5,-153.5 1716.5,-134.5 1535.5,-134.5"/>
<text text-anchor="middle" x="1626" y="-141.5" font-family="Helvetica,sans-Serif" font-size="10.00" fill="#000000">DetectorsBase/MaterialManager.h</text>
</a>
</g>
</g>
<!-- Node24&#45;&gt;Node31 -->
<g id="edge33" class="edge">
<title>Node24&#45;&gt;Node31</title>
<path fill="none" stroke="#191970" d="M2052.3198,-196.7539C1963.0221,-185.7039 1809.3917,-166.6933 1712.9845,-154.7637"/>
<polygon fill="#191970" stroke="#191970" points="1713.3237,-151.279 1702.9695,-153.5244 1712.464,-158.2261 1713.3237,-151.279"/>
</g>
<!-- Node33 -->
<g id="node34" class="node">
<title>Node33</title>
<polygon fill="none" stroke="#bfbfbf" points="2151,-134.5 2151,-153.5 2209,-153.5 2209,-134.5 2151,-134.5"/>
<text text-anchor="middle" x="2180" y="-141.5" font-family="Helvetica,sans-Serif" font-size="10.00" fill="#000000">cxxabi.h</text>
</g>
<!-- Node24&#45;&gt;Node33 -->
<g id="edge40" class="edge">
<title>Node24&#45;&gt;Node33</title>
<path fill="none" stroke="#191970" d="M2131.9063,-195.8906C2140.4728,-186.6478 2153.6169,-172.466 2164.0003,-161.2628"/>
<polygon fill="#191970" stroke="#191970" points="2166.7375,-163.4584 2170.9682,-153.7449 2161.6035,-158.7 2166.7375,-163.4584"/>
</g>
<!-- Node34 -->
<g id="node35" class="node">
<title>Node34</title>
<polygon fill="none" stroke="#bfbfbf" points="2227.5,-134.5 2227.5,-153.5 2284.5,-153.5 2284.5,-134.5 2227.5,-134.5"/>
<text text-anchor="middle" x="2256" y="-141.5" font-family="Helvetica,sans-Serif" font-size="10.00" fill="#000000">typeinfo</text>
</g>
<!-- Node24&#45;&gt;Node34 -->
<g id="edge41" class="edge">
<title>Node24&#45;&gt;Node34</title>
<path fill="none" stroke="#191970" d="M2143.7813,-195.8906C2165.8394,-185.6908 2200.905,-169.4763 2225.9669,-157.8875"/>
<polygon fill="#191970" stroke="#191970" points="2227.7571,-160.9158 2235.3647,-153.5419 2224.8191,-154.5622 2227.7571,-160.9158"/>
</g>
<!-- Node35 -->
<g id="node36" class="node">
<title>Node35</title>
<polygon fill="none" stroke="#bfbfbf" points="2302.5,-134.5 2302.5,-153.5 2371.5,-153.5 2371.5,-134.5 2302.5,-134.5"/>
<text text-anchor="middle" x="2337" y="-141.5" font-family="Helvetica,sans-Serif" font-size="10.00" fill="#000000">type_traits</text>
</g>
<!-- Node24&#45;&gt;Node35 -->
<g id="edge42" class="edge">
<title>Node24&#45;&gt;Node35</title>
<path fill="none" stroke="#191970" d="M2156.4375,-195.8906C2193.5,-185.2395 2253.3849,-168.0296 2293.9312,-156.3772"/>
<polygon fill="#191970" stroke="#191970" points="2295.153,-159.6679 2303.7973,-153.5419 2293.2196,-152.9402 2295.153,-159.6679"/>
</g>
<!-- Node36 -->
<g id="node37" class="node">
<title>Node36</title>
<polygon fill="none" stroke="#bfbfbf" points="2390,-134.5 2390,-153.5 2434,-153.5 2434,-134.5 2390,-134.5"/>
<text text-anchor="middle" x="2412" y="-141.5" font-family="Helvetica,sans-Serif" font-size="10.00" fill="#000000">string</text>
</g>
<!-- Node24&#45;&gt;Node36 -->
<g id="edge43" class="edge">
<title>Node24&#45;&gt;Node36</title>
<path fill="none" stroke="#191970" d="M2180.5594,-195.9675C2230.8722,-187.193 2306.0179,-173.0231 2379.8102,-154.0972"/>
<polygon fill="#191970" stroke="#191970" points="2380.9395,-157.4201 2389.739,-151.5193 2379.1803,-150.6448 2380.9395,-157.4201"/>
</g>
<!-- Node37 -->
<g id="node38" class="node">
<title>Node37</title>
<polygon fill="none" stroke="#bfbfbf" points="2452,-134.5 2452,-153.5 2526,-153.5 2526,-134.5 2452,-134.5"/>
<text text-anchor="middle" x="2489" y="-141.5" font-family="Helvetica,sans-Serif" font-size="10.00" fill="#000000">TMessage.h</text>
</g>
<!-- Node24&#45;&gt;Node37 -->
<g id="edge44" class="edge">
<title>Node24&#45;&gt;Node37</title>
<path fill="none" stroke="#191970" d="M2188.7587,-195.9879C2251.3627,-186.6887 2348.4484,-171.6375 2441.9649,-154.1205"/>
<polygon fill="#191970" stroke="#191970" points="2442.6998,-157.5437 2451.8783,-152.2517 2441.403,-150.6649 2442.6998,-157.5437"/>
</g>
<!-- Node38 -->
<g id="node39" class="node">
<title>Node38</title>
<polygon fill="none" stroke="#bfbfbf" points="2544,-134.5 2544,-153.5 2610,-153.5 2610,-134.5 2544,-134.5"/>
<text text-anchor="middle" x="2577" y="-141.5" font-family="Helvetica,sans-Serif" font-size="10.00" fill="#000000">sys/shm.h</text>
</g>
<!-- Node24&#45;&gt;Node38 -->
<g id="edge47" class="edge">
<title>Node24&#45;&gt;Node38</title>
<path fill="none" stroke="#191970" d="M2193.7053,-199.0369C2273.8857,-191.1738 2408.6711,-176.3438 2533.482,-154.1225"/>
<polygon fill="#191970" stroke="#191970" points="2534.3774,-157.5176 2543.5988,-152.3009 2533.1368,-150.6284 2534.3774,-157.5176"/>
</g>
<!-- Node39 -->
<g id="node40" class="node">
<title>Node39</title>
<polygon fill="none" stroke="#bfbfbf" points="2628,-134.5 2628,-153.5 2684,-153.5 2684,-134.5 2628,-134.5"/>
<text text-anchor="middle" x="2656" y="-141.5" font-family="Helvetica,sans-Serif" font-size="10.00" fill="#000000">unistd.h</text>
</g>
<!-- Node24&#45;&gt;Node39 -->
<g id="edge48" class="edge">
<title>Node24&#45;&gt;Node39</title>
<path fill="none" stroke="#191970" d="M2193.7386,-201.7356C2288.3498,-195.9062 2461.3465,-182.4683 2617.5612,-154.0112"/>
<polygon fill="#191970" stroke="#191970" points="2618.6278,-157.3734 2627.8255,-152.1149 2617.3561,-150.4899 2618.6278,-157.3734"/>
</g>
<!-- Node31&#45;&gt;Node3 -->
<g id="edge38" class="edge">
<title>Node31&#45;&gt;Node3</title>
<path fill="none" stroke="#191970" d="M1596.0894,-134.4529C1569.1438,-125.6456 1528.5733,-111.8704 1494,-98 1492.6077,-97.4414 1491.1895,-96.8573 1489.7614,-96.2568"/>
<polygon fill="#191970" stroke="#191970" points="1490.9289,-92.9475 1480.3639,-92.1531 1488.1276,-99.3625 1490.9289,-92.9475"/>
</g>
<!-- Node31&#45;&gt;Node13 -->
<g id="edge34" class="edge">
<title>Node31&#45;&gt;Node13</title>
<path fill="none" stroke="#191970" d="M1611.3125,-134.3906C1596.2744,-124.5519 1572.6824,-109.1167 1555.1333,-97.6351"/>
<polygon fill="#191970" stroke="#191970" points="1556.8687,-94.588 1546.5844,-92.0419 1553.0363,-100.4457 1556.8687,-94.588"/>
</g>
<!-- Node31&#45;&gt;Node25 -->
<g id="edge35" class="edge">
<title>Node31&#45;&gt;Node25</title>
<path fill="none" stroke="#191970" d="M1639.125,-134.3906C1652.44,-124.6421 1673.2594,-109.3994 1688.8947,-97.9521"/>
<polygon fill="#191970" stroke="#191970" points="1690.9661,-100.7734 1696.9672,-92.0419 1686.8309,-95.1253 1690.9661,-100.7734"/>
</g>
<!-- Node31&#45;&gt;Node27 -->
<g id="edge37" class="edge">
<title>Node31&#45;&gt;Node27</title>
<path fill="none" stroke="#191970" d="M1651.4688,-134.3906C1679.1005,-123.9652 1723.3869,-107.2559 1754.2128,-95.6252"/>
<polygon fill="#191970" stroke="#191970" points="1755.5894,-98.8467 1763.7101,-92.0419 1753.1183,-92.2974 1755.5894,-98.8467"/>
</g>
<!-- Node32 -->
<g id="node33" class="node">
<title>Node32</title>
<polygon fill="none" stroke="#bfbfbf" points="1579.5,-73 1579.5,-92 1672.5,-92 1672.5,-73 1579.5,-73"/>
<text text-anchor="middle" x="1626" y="-80" font-family="Helvetica,sans-Serif" font-size="10.00" fill="#000000">unordered_map</text>
</g>
<!-- Node31&#45;&gt;Node32 -->
<g id="edge36" class="edge">
<title>Node31&#45;&gt;Node32</title>
<path fill="none" stroke="#191970" d="M1626,-134.3906C1626,-125.8657 1626,-113.1392 1626,-102.4235"/>
<polygon fill="#191970" stroke="#191970" points="1629.5001,-102.2448 1626,-92.2449 1622.5001,-102.2449 1629.5001,-102.2448"/>
</g>
<!-- Node40&#45;&gt;Node14 -->
<g id="edge53" class="edge">
<title>Node40&#45;&gt;Node14</title>
<path fill="none" stroke="#191970" d="M852.9231,-201.2391C717.1194,-190.6912 372.7365,-159.6428 91,-98 86.905,-97.104 82.6625,-96.0277 78.4585,-94.8652"/>
<polygon fill="#191970" stroke="#191970" points="79.3874,-91.4903 68.8068,-92.0403 77.421,-98.2085 79.3874,-91.4903"/>
</g>
<!-- Node40&#45;&gt;Node26 -->
<g id="edge51" class="edge">
<title>Node40&#45;&gt;Node26</title>
<path fill="none" stroke="#191970" d="M971.4149,-198.2643C1078.1794,-185.2623 1299.1843,-158.3479 1383.4043,-148.0914"/>
<polygon fill="#191970" stroke="#191970" points="1383.9368,-151.5525 1393.4403,-146.8692 1383.0905,-144.6038 1383.9368,-151.5525"/>
</g>
<!-- Node41 -->
<g id="node42" class="node">
<title>Node41</title>
<polygon fill="none" stroke="#bfbfbf" points="930,-134.5 930,-153.5 972,-153.5 972,-134.5 930,-134.5"/>
<text text-anchor="middle" x="951" y="-141.5" font-family="Helvetica,sans-Serif" font-size="10.00" fill="#000000">array</text>
</g>
<!-- Node40&#45;&gt;Node41 -->
<g id="edge52" class="edge">
<title>Node40&#45;&gt;Node41</title>
<path fill="none" stroke="#191970" d="M918.0938,-195.8906C923.7843,-186.917 932.4272,-173.2879 939.4274,-162.2491"/>
<polygon fill="#191970" stroke="#191970" points="942.4207,-164.0644 944.8203,-153.7449 936.5091,-160.3155 942.4207,-164.0644"/>
</g>
<!-- Node42 -->
<g id="node43" class="node">
<title>Node42</title>
<polygon fill="none" stroke="#bfbfbf" points="728,-134.5 728,-153.5 816,-153.5 816,-134.5 728,-134.5"/>
<text text-anchor="middle" x="772" y="-141.5" font-family="Helvetica,sans-Serif" font-size="10.00" fill="#000000">TGeoVolume.h</text>
</g>
<!-- Node40&#45;&gt;Node42 -->
<g id="edge54" class="edge">
<title>Node40&#45;&gt;Node42</title>
<path fill="none" stroke="#191970" d="M890.125,-195.8906C866.7004,-185.6005 829.3404,-169.1888 802.9159,-157.5809"/>
<polygon fill="#191970" stroke="#191970" points="804.2846,-154.3594 793.7214,-153.5419 801.4693,-160.7683 804.2846,-154.3594"/>
</g>
<!-- Node43 -->
<g id="node44" class="node">
<title>Node43</title>
<polygon fill="none" stroke="#bfbfbf" points="833.5,-134.5 833.5,-153.5 912.5,-153.5 912.5,-134.5 833.5,-134.5"/>
<text text-anchor="middle" x="873" y="-141.5" font-family="Helvetica,sans-Serif" font-size="10.00" fill="#000000">TVirtualMC.h</text>
</g>
<!-- Node40&#45;&gt;Node43 -->
<g id="edge55" class="edge">
<title>Node40&#45;&gt;Node43</title>
<path fill="none" stroke="#191970" d="M905.9063,-195.8906C900.2157,-186.917 891.5728,-173.2879 884.5726,-162.2491"/>
<polygon fill="#191970" stroke="#191970" points="887.4909,-160.3155 879.1797,-153.7449 881.5793,-164.0644 887.4909,-160.3155"/>
</g>
</g>
</svg>
        <g id="navigator" transform="translate(0 0)" fill="#404254">
                <rect fill="#f2f5e9" fill-opacity="0.5" stroke="#606060" stroke-width=".5" x="0" y="0" width="60" height="60"/>
                <use id="zoomplus" xlink:href="#zoomPlus" x="17" y="9" onmousedown="handleZoom(evt,'in')"/>
                <use id="zoomminus" xlink:href="#zoomMin" x="42" y="9" onmousedown="handleZoom(evt,'out')"/>
                <use id="reset" xlink:href="#resetDef" x="30" y="36" onmousedown="handleReset()"/>
                <g id="arrowUp" xlink:href="#dirArrow" transform="translate(30 24)" onmousedown="handlePan(0,-1)">
                  <use xlink:href="#rim" fill="#404040">
                        <set attributeName="fill" to="#808080" begin="arrowUp.mouseover" end="arrowUp.mouseout"/>
                  </use>
                  <path fill="none" stroke="white" stroke-width="1.5" d="M0,-3.0v7 M-2.5,-0.5L0,-3.0L2.5,-0.5"/>
                </g>
                <g id="arrowRight" xlink:href="#dirArrow" transform="rotate(90) translate(36 -43)" onmousedown="handlePan(1,0)">
                  <use xlink:href="#rim" fill="#404040">
                        <set attributeName="fill" to="#808080" begin="arrowRight.mouseover" end="arrowRight.mouseout"/>
                  </use>
                  <path fill="none" stroke="white" stroke-width="1.5" d="M0,-3.0v7 M-2.5,-0.5L0,-3.0L2.5,-0.5"/>
                </g>
                <g id="arrowDown" xlink:href="#dirArrow" transform="rotate(180) translate(-30 -48)" onmousedown="handlePan(0,1)">
                  <use xlink:href="#rim" fill="#404040">
                        <set attributeName="fill" to="#808080" begin="arrowDown.mouseover" end="arrowDown.mouseout"/>
                  </use>
                  <path fill="none" stroke="white" stroke-width="1.5" d="M0,-3.0v7 M-2.5,-0.5L0,-3.0L2.5,-0.5"/>
                </g>
                <g id="arrowLeft" xlink:href="#dirArrow" transform="rotate(270) translate(-36 17)" onmousedown="handlePan(-1,0)">
                  <use xlink:href="#rim" fill="#404040">
                        <set attributeName="fill" to="#808080" begin="arrowLeft.mouseover" end="arrowLeft.mouseout"/>
                  </use>
                  <path fill="none" stroke="white" stroke-width="1.5" d="M0,-3.0v7 M-2.5,-0.5L0,-3.0L2.5,-0.5"/>
                </g>
        </g>
        <svg viewBox="0 0 15 15" width="100%" height="30px" preserveAspectRatio="xMaxYMin meet">
         <g id="arrow_out" transform="scale(0.3 0.3)">
          <a xlink:href="FIT_2FV0_2simulation_2include_2FV0Simulation_2Detector_8h__incl_org.svg" target="_base">
           <rect id="button" ry="5" rx="5" y="6" x="6" height="38" width="38"
                fill="#f2f5e9" fill-opacity="0.5" stroke="#606060" stroke-width="1.0"/>
           <path id="arrow"
             d="M 11.500037,31.436501 C 11.940474,20.09759 22.043105,11.32322 32.158766,21.979434 L 37.068811,17.246167 C 37.068811,17.246167 37.088388,32 37.088388,32 L 22.160133,31.978069 C 22.160133,31.978069 26.997745,27.140456 26.997745,27.140456 C 18.528582,18.264221 13.291696,25.230495 11.500037,31.436501 z"
             style="fill:#404040;"/>
          </a>
         </g>
        </svg>
</svg>
