<?xml version="1.0" encoding="UTF-8" standalone="no"?>
<!DOCTYPE svg PUBLIC "-//W3C//DTD SVG 1.1//EN"
 "http://www.w3.org/Graphics/SVG/1.1/DTD/svg11.dtd">
<!-- Generated by graphviz version 2.40.1 (20161225.0304)
 -->
<!-- Title: /home/travis/build/AliceO2Group/AliceO2/DataFormats/Detectors/ITSMFT/common/include/DataFormatsITSMFT/TopologyDictionary.h Pages: 1 -->
<svg width="2028pt" height="262pt"
 viewBox="0.00 0.00 2028.00 262.00" xmlns="http://www.w3.org/2000/svg" xmlns:xlink="http://www.w3.org/1999/xlink">
<g id="graph0" class="graph" transform="scale(1 1) rotate(0) translate(4 258)">
<title>/home/travis/build/AliceO2Group/AliceO2/DataFormats/Detectors/ITSMFT/common/include/DataFormatsITSMFT/TopologyDictionary.h</title>
<!-- Node0 -->
<g id="node1" class="node">
<title>Node0</title>
<polygon fill="#bfbfbf" stroke="#000000" points="1075.5,-190.5 1075.5,-253.5 1296.5,-253.5 1296.5,-190.5 1075.5,-190.5"/>
<text text-anchor="start" x="1083.5" y="-241.5" font-family="Helvetica,sans-Serif" font-size="10.00" fill="#000000">/home/travis/build</text>
<text text-anchor="start" x="1083.5" y="-230.5" font-family="Helvetica,sans-Serif" font-size="10.00" fill="#000000">/AliceO2Group/AliceO2</text>
<text text-anchor="start" x="1083.5" y="-219.5" font-family="Helvetica,sans-Serif" font-size="10.00" fill="#000000">/DataFormats/Detectors</text>
<text text-anchor="start" x="1083.5" y="-208.5" font-family="Helvetica,sans-Serif" font-size="10.00" fill="#000000">/ITSMFT/common/include</text>
<text text-anchor="middle" x="1186" y="-197.5" font-family="Helvetica,sans-Serif" font-size="10.00" fill="#000000">/DataFormatsITSMFT/TopologyDictionary.h</text>
</g>
<!-- Node1 -->
<g id="node2" class="node">
<title>Node1</title>
<g id="a_node2"><a xlink:href="../../de/dc1/ClusterPattern_8h.html" target="_top" xlink:title="DataFormatsITSMFT/Cluster\lPattern.h">
<polygon fill="none" stroke="#000000" points="221,-123.5 221,-153.5 373,-153.5 373,-123.5 221,-123.5"/>
<text text-anchor="start" x="229" y="-141.5" font-family="Helvetica,sans-Serif" font-size="10.00" fill="#000000">DataFormatsITSMFT/Cluster</text>
<text text-anchor="middle" x="297" y="-130.5" font-family="Helvetica,sans-Serif" font-size="10.00" fill="#000000">Pattern.h</text>
</a>
</g>
</g>
<!-- Node0&#45;&gt;Node1 -->
<g id="edge1" class="edge">
<title>Node0&#45;&gt;Node1</title>
<path fill="none" stroke="#191970" d="M1075.205,-211.5935C895.8703,-194.7493 545.7542,-161.8644 383.4446,-146.6194"/>
<polygon fill="#191970" stroke="#191970" points="383.3125,-143.0916 373.029,-145.6411 382.6578,-150.061 383.3125,-143.0916"/>
</g>
<!-- Node6 -->
<g id="node7" class="node">
<title>Node6</title>
<g id="a_node7"><a xlink:href="../../df/de4/CompCluster_8h.html" target="_top" xlink:title="Definition of the ITSMFT compact cluster. ">
<polygon fill="none" stroke="#000000" points="0,-62 0,-81 188,-81 188,-62 0,-62"/>
<text text-anchor="middle" x="94" y="-69" font-family="Helvetica,sans-Serif" font-size="10.00" fill="#000000">DataFormatsITSMFT/CompCluster.h</text>
</a>
</g>
</g>
<!-- Node0&#45;&gt;Node6 -->
<g id="edge25" class="edge">
<title>Node0&#45;&gt;Node6</title>
<path fill="none" stroke="#191970" d="M1075.3643,-217.6071C837.3258,-207.6751 291.605,-182.1529 212,-154 171.6696,-139.7368 132.5274,-107.6747 111.0083,-87.985"/>
<polygon fill="#191970" stroke="#191970" points="113.3514,-85.3842 103.6581,-81.1075 108.5687,-90.4956 113.3514,-85.3842"/>
</g>
<!-- Node7 -->
<g id="node8" class="node">
<title>Node7</title>
<g id="a_node8"><a xlink:href="../../dd/da4/Logger_8h.html" target="_top" xlink:title="Framework/Logger.h">
<polygon fill="none" stroke="#000000" points="1025.5,-129 1025.5,-148 1140.5,-148 1140.5,-129 1025.5,-129"/>
<text text-anchor="middle" x="1083" y="-136" font-family="Helvetica,sans-Serif" font-size="10.00" fill="#000000">Framework/Logger.h</text>
</a>
</g>
</g>
<!-- Node0&#45;&gt;Node7 -->
<g id="edge8" class="edge">
<title>Node0&#45;&gt;Node7</title>
<path fill="none" stroke="#191970" d="M1147.0601,-190.4322C1132.0632,-178.2745 1115.5529,-164.89 1103.0501,-154.7542"/>
<polygon fill="#191970" stroke="#191970" points="1105.0746,-151.8898 1095.1024,-148.3112 1100.6664,-157.3275 1105.0746,-151.8898"/>
</g>
<!-- Node9 -->
<g id="node10" class="node">
<title>Node9</title>
<polygon fill="none" stroke="#bfbfbf" points="1158.5,-129 1158.5,-148 1213.5,-148 1213.5,-129 1158.5,-129"/>
<text text-anchor="middle" x="1186" y="-136" font-family="Helvetica,sans-Serif" font-size="10.00" fill="#000000">fstream</text>
</g>
<!-- Node0&#45;&gt;Node9 -->
<g id="edge10" class="edge">
<title>Node0&#45;&gt;Node9</title>
<path fill="none" stroke="#191970" d="M1186,-190.4322C1186,-179.6773 1186,-167.9624 1186,-158.3857"/>
<polygon fill="#191970" stroke="#191970" points="1189.5001,-158.3112 1186,-148.3112 1182.5001,-158.3112 1189.5001,-158.3112"/>
</g>
<!-- Node10 -->
<g id="node11" class="node">
<title>Node10</title>
<polygon fill="none" stroke="#bfbfbf" points="1232,-129 1232,-148 1276,-148 1276,-129 1232,-129"/>
<text text-anchor="middle" x="1254" y="-136" font-family="Helvetica,sans-Serif" font-size="10.00" fill="#000000">string</text>
</g>
<!-- Node0&#45;&gt;Node10 -->
<g id="edge11" class="edge">
<title>Node0&#45;&gt;Node10</title>
<path fill="none" stroke="#191970" d="M1211.7079,-190.4322C1221.1328,-178.859 1231.463,-166.1741 1239.5546,-156.2382"/>
<polygon fill="#191970" stroke="#191970" points="1242.4093,-158.2754 1246.01,-148.3112 1236.9814,-153.8551 1242.4093,-158.2754"/>
</g>
<!-- Node11 -->
<g id="node12" class="node">
<title>Node11</title>
<polygon fill="none" stroke="#bfbfbf" points="1294.5,-129 1294.5,-148 1387.5,-148 1387.5,-129 1294.5,-129"/>
<text text-anchor="middle" x="1341" y="-136" font-family="Helvetica,sans-Serif" font-size="10.00" fill="#000000">unordered_map</text>
</g>
<!-- Node0&#45;&gt;Node11 -->
<g id="edge12" class="edge">
<title>Node0&#45;&gt;Node11</title>
<path fill="none" stroke="#191970" d="M1244.5989,-190.4322C1268.5072,-177.5526 1294.9714,-163.296 1314.1138,-152.9838"/>
<polygon fill="#191970" stroke="#191970" points="1315.9977,-155.9446 1323.1415,-148.1205 1312.6777,-149.7819 1315.9977,-155.9446"/>
</g>
<!-- Node12 -->
<g id="node13" class="node">
<title>Node12</title>
<polygon fill="none" stroke="#bfbfbf" points="1405.5,-129 1405.5,-148 1452.5,-148 1452.5,-129 1405.5,-129"/>
<text text-anchor="middle" x="1429" y="-136" font-family="Helvetica,sans-Serif" font-size="10.00" fill="#000000">vector</text>
</g>
<!-- Node0&#45;&gt;Node12 -->
<g id="edge13" class="edge">
<title>Node0&#45;&gt;Node12</title>
<path fill="none" stroke="#191970" d="M1293.8302,-190.4345C1327.2458,-179.8052 1363.9576,-167.2519 1397,-154 1398.3607,-153.4543 1399.7444,-152.8764 1401.135,-152.277"/>
<polygon fill="#191970" stroke="#191970" points="1402.5982,-155.4566 1410.2445,-148.1228 1399.6937,-149.0876 1402.5982,-155.4566"/>
</g>
<!-- Node13 -->
<g id="node14" class="node">
<title>Node13</title>
<g id="a_node14"><a xlink:href="../../dc/d73/Cartesian_8h.html" target="_top" xlink:title="MathUtils/Cartesian.h">
<polygon fill="none" stroke="#000000" points="885,-129 885,-148 1007,-148 1007,-129 885,-129"/>
<text text-anchor="middle" x="946" y="-136" font-family="Helvetica,sans-Serif" font-size="10.00" fill="#000000">MathUtils/Cartesian.h</text>
</a>
</g>
</g>
<!-- Node0&#45;&gt;Node13 -->
<g id="edge14" class="edge">
<title>Node0&#45;&gt;Node13</title>
<path fill="none" stroke="#191970" d="M1095.2663,-190.4322C1056.2682,-176.8641 1012.8783,-161.7681 982.977,-151.3649"/>
<polygon fill="#191970" stroke="#191970" points="983.9743,-148.0062 973.3794,-148.0258 981.674,-154.6174 983.9743,-148.0062"/>
</g>
<!-- Node22 -->
<g id="node23" class="node">
<title>Node22</title>
<polygon fill="none" stroke="#bfbfbf" points="1470.5,-129 1470.5,-148 1519.5,-148 1519.5,-129 1470.5,-129"/>
<text text-anchor="middle" x="1495" y="-136" font-family="Helvetica,sans-Serif" font-size="10.00" fill="#000000">TH1F.h</text>
</g>
<!-- Node0&#45;&gt;Node22 -->
<g id="edge26" class="edge">
<title>Node0&#45;&gt;Node22</title>
<path fill="none" stroke="#191970" d="M1296.5983,-200.0039C1347.6396,-188.5224 1408.6195,-172.903 1462,-154 1463.6408,-153.419 1465.3099,-152.7839 1466.9823,-152.1131"/>
<polygon fill="#191970" stroke="#191970" points="1468.6474,-155.2057 1476.4222,-148.0082 1465.8559,-148.7863 1468.6474,-155.2057"/>
</g>
<!-- Node2 -->
<g id="node3" class="node">
<title>Node2</title>
<polygon fill="none" stroke="#bfbfbf" points="186.5,-.5 186.5,-19.5 245.5,-19.5 245.5,-.5 186.5,-.5"/>
<text text-anchor="middle" x="216" y="-7.5" font-family="Helvetica,sans-Serif" font-size="10.00" fill="#000000">Rtypes.h</text>
</g>
<!-- Node1&#45;&gt;Node2 -->
<g id="edge2" class="edge">
<title>Node1&#45;&gt;Node2</title>
<path fill="none" stroke="#191970" d="M272.2066,-123.4882C259.2875,-114.4474 244.2879,-101.8215 235,-87 224.0695,-69.5572 219.4257,-46.2271 217.4538,-29.8346"/>
<polygon fill="#191970" stroke="#191970" points="220.9247,-29.3651 216.4709,-19.7519 213.9577,-30.0443 220.9247,-29.3651"/>
</g>
<!-- Node3 -->
<g id="node4" class="node">
<title>Node3</title>
<polygon fill="none" stroke="#bfbfbf" points="244,-62 244,-81 286,-81 286,-62 244,-62"/>
<text text-anchor="middle" x="265" y="-69" font-family="Helvetica,sans-Serif" font-size="10.00" fill="#000000">array</text>
</g>
<!-- Node1&#45;&gt;Node3 -->
<g id="edge3" class="edge">
<title>Node1&#45;&gt;Node3</title>
<path fill="none" stroke="#191970" d="M289.7387,-123.2967C285.0434,-113.4658 278.8998,-100.6026 273.9096,-90.1545"/>
<polygon fill="#191970" stroke="#191970" points="277.0317,-88.5702 269.5636,-81.055 270.7151,-91.587 277.0317,-88.5702"/>
</g>
<!-- Node4 -->
<g id="node5" class="node">
<title>Node4</title>
<polygon fill="none" stroke="#bfbfbf" points="370.5,-62 370.5,-81 419.5,-81 419.5,-62 370.5,-62"/>
<text text-anchor="middle" x="395" y="-69" font-family="Helvetica,sans-Serif" font-size="10.00" fill="#000000">iosfwd</text>
</g>
<!-- Node1&#45;&gt;Node4 -->
<g id="edge4" class="edge">
<title>Node1&#45;&gt;Node4</title>
<path fill="none" stroke="#191970" d="M319.2377,-123.2967C335.2478,-112.351 356.7563,-97.6462 372.7656,-86.701"/>
<polygon fill="#191970" stroke="#191970" points="374.7443,-89.5881 381.0241,-81.055 370.7936,-83.8095 374.7443,-89.5881"/>
</g>
<!-- Node5 -->
<g id="node6" class="node">
<title>Node5</title>
<polygon fill="none" stroke="#bfbfbf" points="304,-62 304,-81 352,-81 352,-62 304,-62"/>
<text text-anchor="middle" x="328" y="-69" font-family="Helvetica,sans-Serif" font-size="10.00" fill="#000000">gsl/gsl</text>
</g>
<!-- Node1&#45;&gt;Node5 -->
<g id="edge5" class="edge">
<title>Node1&#45;&gt;Node5</title>
<path fill="none" stroke="#191970" d="M304.0344,-123.2967C308.583,-113.4658 314.5346,-100.6026 319.3688,-90.1545"/>
<polygon fill="#191970" stroke="#191970" points="322.5563,-91.6003 323.579,-81.055 316.2033,-88.6609 322.5563,-91.6003"/>
</g>
<!-- Node1&#45;&gt;Node6 -->
<g id="edge6" class="edge">
<title>Node1&#45;&gt;Node6</title>
<path fill="none" stroke="#191970" d="M251.4428,-123.4639C215.5879,-111.63 166.1887,-95.3258 132.3407,-84.1543"/>
<polygon fill="#191970" stroke="#191970" points="133.3927,-80.8159 122.7996,-81.0053 131.1988,-87.4632 133.3927,-80.8159"/>
</g>
<!-- Node6&#45;&gt;Node2 -->
<g id="edge7" class="edge">
<title>Node6&#45;&gt;Node2</title>
<path fill="none" stroke="#191970" d="M113.0625,-61.8906C133.1172,-51.7811 164.8934,-35.7628 187.8384,-24.1962"/>
<polygon fill="#191970" stroke="#191970" points="189.7173,-27.1687 197.0714,-19.5419 186.5663,-20.918 189.7173,-27.1687"/>
</g>
<!-- Node8 -->
<g id="node9" class="node">
<title>Node8</title>
<polygon fill="none" stroke="#bfbfbf" points="1912,-62 1912,-81 2020,-81 2020,-62 1912,-62"/>
<text text-anchor="middle" x="1966" y="-69" font-family="Helvetica,sans-Serif" font-size="10.00" fill="#000000">fairlogger/Logger.h</text>
</g>
<!-- Node7&#45;&gt;Node8 -->
<g id="edge9" class="edge">
<title>Node7&#45;&gt;Node8</title>
<path fill="none" stroke="#191970" d="M1118.9414,-128.9351C1128.9308,-126.6192 1139.8293,-124.408 1150,-123 1481.884,-77.0565 1571.4433,-135.2484 1903,-87 1909.3638,-86.0739 1916.0227,-84.79 1922.5284,-83.3538"/>
<polygon fill="#191970" stroke="#191970" points="1923.6243,-86.6919 1932.5612,-81.0013 1922.0262,-79.8767 1923.6243,-86.6919"/>
</g>
<!-- Node13&#45;&gt;Node2 -->
<g id="edge22" class="edge">
<title>Node13&#45;&gt;Node2</title>
<path fill="none" stroke="#191970" d="M884.6483,-136.1485C772.9747,-131.1723 541.1871,-117.4391 467,-87 446.5152,-78.595 448.0081,-65.484 428,-56 371.7609,-29.3423 299.7899,-17.9328 255.8316,-13.1935"/>
<polygon fill="#191970" stroke="#191970" points="256.1243,-9.7054 245.8221,-12.1779 255.4176,-16.6696 256.1243,-9.7054"/>
</g>
<!-- Node13&#45;&gt;Node4 -->
<g id="edge24" class="edge">
<title>Node13&#45;&gt;Node4</title>
<path fill="none" stroke="#191970" d="M884.8159,-134.4839C768.1644,-126.4742 518.08,-107.5109 434,-87 431.2129,-86.3201 428.3605,-85.4827 425.5289,-84.5522"/>
<polygon fill="#191970" stroke="#191970" points="426.7005,-81.2541 416.1065,-81.1244 424.3074,-87.8323 426.7005,-81.2541"/>
</g>
<!-- Node14 -->
<g id="node15" class="node">
<title>Node14</title>
<polygon fill="none" stroke="#bfbfbf" points="476,-56.5 476,-86.5 640,-86.5 640,-56.5 476,-56.5"/>
<text text-anchor="start" x="484" y="-74.5" font-family="Helvetica,sans-Serif" font-size="10.00" fill="#000000">Math/GenVector/Displacement</text>
<text text-anchor="middle" x="558" y="-63.5" font-family="Helvetica,sans-Serif" font-size="10.00" fill="#000000">Vector3D.h</text>
</g>
<!-- Node13&#45;&gt;Node14 -->
<g id="edge15" class="edge">
<title>Node13&#45;&gt;Node14</title>
<path fill="none" stroke="#191970" d="M890.8211,-128.9717C828.1495,-118.1495 724.8881,-100.3183 649.984,-87.3838"/>
<polygon fill="#191970" stroke="#191970" points="650.5224,-83.9251 640.0727,-85.6723 649.3312,-90.823 650.5224,-83.9251"/>
</g>
<!-- Node15 -->
<g id="node16" class="node">
<title>Node15</title>
<polygon fill="none" stroke="#bfbfbf" points="658.5,-62 658.5,-81 847.5,-81 847.5,-62 658.5,-62"/>
<text text-anchor="middle" x="753" y="-69" font-family="Helvetica,sans-Serif" font-size="10.00" fill="#000000">Math/GenVector/PositionVector3D.h</text>
</g>
<!-- Node13&#45;&gt;Node15 -->
<g id="edge16" class="edge">
<title>Node13&#45;&gt;Node15</title>
<path fill="none" stroke="#191970" d="M918.3478,-128.9005C884.6682,-117.2086 827.6426,-97.4122 790.1528,-84.3976"/>
<polygon fill="#191970" stroke="#191970" points="791.1957,-81.0548 780.6009,-81.0817 788.9,-87.6677 791.1957,-81.0548"/>
</g>
<!-- Node16 -->
<g id="node17" class="node">
<title>Node16</title>
<polygon fill="none" stroke="#bfbfbf" points="866,-62 866,-81 1026,-81 1026,-62 866,-62"/>
<text text-anchor="middle" x="946" y="-69" font-family="Helvetica,sans-Serif" font-size="10.00" fill="#000000">Math/GenVector/Rotation3D.h</text>
</g>
<!-- Node13&#45;&gt;Node16 -->
<g id="edge17" class="edge">
<title>Node13&#45;&gt;Node16</title>
<path fill="none" stroke="#191970" d="M946,-128.9005C946,-119.149 946,-103.7597 946,-91.3695"/>
<polygon fill="#191970" stroke="#191970" points="949.5001,-91.0816 946,-81.0817 942.5001,-91.0817 949.5001,-91.0816"/>
</g>
<!-- Node17 -->
<g id="node18" class="node">
<title>Node17</title>
<polygon fill="none" stroke="#bfbfbf" points="1044,-62 1044,-81 1212,-81 1212,-62 1044,-62"/>
<text text-anchor="middle" x="1128" y="-69" font-family="Helvetica,sans-Serif" font-size="10.00" fill="#000000">Math/GenVector/Transform3D.h</text>
</g>
<!-- Node13&#45;&gt;Node17 -->
<g id="edge18" class="edge">
<title>Node13&#45;&gt;Node17</title>
<path fill="none" stroke="#191970" d="M972.0762,-128.9005C1003.7011,-117.2584 1057.1544,-97.5805 1092.5124,-84.5641"/>
<polygon fill="#191970" stroke="#191970" points="1093.797,-87.8209 1101.9722,-81.0817 1091.3787,-81.2519 1093.797,-87.8209"/>
</g>
<!-- Node18 -->
<g id="node19" class="node">
<title>Node18</title>
<polygon fill="none" stroke="#bfbfbf" points="1230.5,-62 1230.5,-81 1403.5,-81 1403.5,-62 1230.5,-62"/>
<text text-anchor="middle" x="1317" y="-69" font-family="Helvetica,sans-Serif" font-size="10.00" fill="#000000">Math/GenVector/Translation3D.h</text>
</g>
<!-- Node13&#45;&gt;Node18 -->
<g id="edge19" class="edge">
<title>Node13&#45;&gt;Node18</title>
<path fill="none" stroke="#191970" d="M988.36,-128.9261C997.7725,-126.8899 1007.7122,-124.8101 1017,-123 1060.3469,-114.5523 1174.9705,-95.183 1249.3227,-82.7541"/>
<polygon fill="#191970" stroke="#191970" points="1250.2486,-86.148 1259.5353,-81.0483 1249.0953,-79.2437 1250.2486,-86.148"/>
</g>
<!-- Node19 -->
<g id="node20" class="node">
<title>Node19</title>
<polygon fill="none" stroke="#bfbfbf" points="1422,-56.5 1422,-86.5 1586,-86.5 1586,-56.5 1422,-56.5"/>
<text text-anchor="start" x="1430" y="-74.5" font-family="Helvetica,sans-Serif" font-size="10.00" fill="#000000">Math/GenVector/Displacement</text>
<text text-anchor="middle" x="1504" y="-63.5" font-family="Helvetica,sans-Serif" font-size="10.00" fill="#000000">Vector2D.h</text>
</g>
<!-- Node13&#45;&gt;Node19 -->
<g id="edge20" class="edge">
<title>Node13&#45;&gt;Node19</title>
<path fill="none" stroke="#191970" d="M985.6416,-128.9345C995.8156,-126.7309 1006.7748,-124.5747 1017,-123 1188.4259,-96.6006 1236.0036,-109.3582 1411.605,-87.1133"/>
<polygon fill="#191970" stroke="#191970" points="1412.2321,-90.5615 1421.7035,-85.8136 1411.3385,-83.6188 1412.2321,-90.5615"/>
</g>
<!-- Node20 -->
<g id="node21" class="node">
<title>Node20</title>
<polygon fill="none" stroke="#bfbfbf" points="1604.5,-62 1604.5,-81 1793.5,-81 1793.5,-62 1604.5,-62"/>
<text text-anchor="middle" x="1699" y="-69" font-family="Helvetica,sans-Serif" font-size="10.00" fill="#000000">Math/GenVector/PositionVector2D.h</text>
</g>
<!-- Node13&#45;&gt;Node20 -->
<g id="edge21" class="edge">
<title>Node13&#45;&gt;Node20</title>
<path fill="none" stroke="#191970" d="M984.4985,-128.9744C994.9831,-126.6877 1006.3786,-124.4813 1017,-123 1271.9195,-87.4478 1339.0329,-113.9955 1595,-87 1606.701,-85.766 1619.1025,-84.1708 1631.1099,-82.4746"/>
<polygon fill="#191970" stroke="#191970" points="1631.684,-85.928 1641.0796,-81.0317 1630.6813,-79.0002 1631.684,-85.928"/>
</g>
<!-- Node21 -->
<g id="node22" class="node">
<title>Node21</title>
<polygon fill="none" stroke="#bfbfbf" points="1812,-62 1812,-81 1894,-81 1894,-62 1812,-62"/>
<text text-anchor="middle" x="1853" y="-69" font-family="Helvetica,sans-Serif" font-size="10.00" fill="#000000">TGeoMatrix.h</text>
</g>
<!-- Node13&#45;&gt;Node21 -->
<g id="edge23" class="edge">
<title>Node13&#45;&gt;Node21</title>
<path fill="none" stroke="#191970" d="M984.113,-128.9383C994.699,-126.6224 1006.2417,-124.4104 1017,-123 1363.7327,-77.5444 1458.5318,-147.2613 1803,-87 1807.5026,-86.2123 1812.1661,-85.1358 1816.7533,-83.9144"/>
<polygon fill="#191970" stroke="#191970" points="1817.9518,-87.2111 1826.5817,-81.0649 1816.0026,-80.488 1817.9518,-87.2111"/>
</g>
</g>
</svg>
