<?xml version="1.0" encoding="UTF-8" standalone="no"?>
<!DOCTYPE svg PUBLIC "-//W3C//DTD SVG 1.1//EN"
 "http://www.w3.org/Graphics/SVG/1.1/DTD/svg11.dtd">
<!-- Generated by graphviz version 2.40.1 (20161225.0304)
 -->
<!-- Title: /home/travis/build/AliceO2Group/AliceO2/Detectors/MUON/MID/TestingSimTools/include/MIDTestingSimTools/HitFinder.h Pages: 1 -->
<svg width="1935pt" height="251pt"
 viewBox="0.00 0.00 1935.00 251.00" xmlns="http://www.w3.org/2000/svg" xmlns:xlink="http://www.w3.org/1999/xlink">
<g id="graph0" class="graph" transform="scale(1 1) rotate(0) translate(4 247)">
<title>/home/travis/build/AliceO2Group/AliceO2/Detectors/MUON/MID/TestingSimTools/include/MIDTestingSimTools/HitFinder.h</title>
<!-- Node0 -->
<g id="node1" class="node">
<title>Node0</title>
<polygon fill="#bfbfbf" stroke="#000000" points="1505.5,-179.5 1505.5,-242.5 1684.5,-242.5 1684.5,-179.5 1505.5,-179.5"/>
<text text-anchor="start" x="1513.5" y="-230.5" font-family="Helvetica,sans-Serif" font-size="10.00" fill="#000000">/home/travis/build</text>
<text text-anchor="start" x="1513.5" y="-219.5" font-family="Helvetica,sans-Serif" font-size="10.00" fill="#000000">/AliceO2Group/AliceO2</text>
<text text-anchor="start" x="1513.5" y="-208.5" font-family="Helvetica,sans-Serif" font-size="10.00" fill="#000000">/Detectors/MUON/MID/TestingSim</text>
<text text-anchor="start" x="1513.5" y="-197.5" font-family="Helvetica,sans-Serif" font-size="10.00" fill="#000000">Tools/include/MIDTestingSimTools</text>
<text text-anchor="middle" x="1595" y="-186.5" font-family="Helvetica,sans-Serif" font-size="10.00" fill="#000000">/HitFinder.h</text>
</g>
<!-- Node1 -->
<g id="node2" class="node">
<title>Node1</title>
<g id="a_node2"><a xlink:href="../../dc/d73/Cartesian_8h.html" target="_top" xlink:title="MathUtils/Cartesian.h">
<polygon fill="none" stroke="#000000" points="959,-67.5 959,-86.5 1081,-86.5 1081,-67.5 959,-67.5"/>
<text text-anchor="middle" x="1020" y="-74.5" font-family="Helvetica,sans-Serif" font-size="10.00" fill="#000000">MathUtils/Cartesian.h</text>
</a>
</g>
</g>
<!-- Node0&#45;&gt;Node1 -->
<g id="edge1" class="edge">
<title>Node0&#45;&gt;Node1</title>
<path fill="none" stroke="#191970" d="M1505.4719,-190.1361C1383.3748,-161.6821 1168.6734,-111.6474 1070.9798,-88.8805"/>
<polygon fill="#191970" stroke="#191970" points="1071.5902,-85.4291 1061.0568,-86.568 1070.0014,-92.2464 1071.5902,-85.4291"/>
</g>
<!-- Node12 -->
<g id="node13" class="node">
<title>Node12</title>
<g id="a_node13"><a xlink:href="../../d6/d31/Cluster2D_8h.html" target="_top" xlink:title="Reconstructed cluster per RPC. ">
<polygon fill="none" stroke="#000000" points="1769,-123.5 1769,-142.5 1927,-142.5 1927,-123.5 1769,-123.5"/>
<text text-anchor="middle" x="1848" y="-130.5" font-family="Helvetica,sans-Serif" font-size="10.00" fill="#000000">DataFormatsMID/Cluster2D.h</text>
</a>
</g>
</g>
<!-- Node0&#45;&gt;Node12 -->
<g id="edge12" class="edge">
<title>Node0&#45;&gt;Node12</title>
<path fill="none" stroke="#191970" d="M1684.5544,-183.3904C1726.4217,-170.4826 1774.2075,-155.7503 1807.2478,-145.5639"/>
<polygon fill="#191970" stroke="#191970" points="1808.4805,-148.8465 1817.0054,-142.5556 1806.4181,-142.1572 1808.4805,-148.8465"/>
</g>
<!-- Node15 -->
<g id="node16" class="node">
<title>Node15</title>
<g id="a_node16"><a xlink:href="../../d4/d54/DataFormats_2Detectors_2MUON_2MID_2include_2DataFormatsMID_2Track_8h.html" target="_top" xlink:title="Reconstructed MID track. ">
<polygon fill="none" stroke="#000000" points="1615,-123.5 1615,-142.5 1751,-142.5 1751,-123.5 1615,-123.5"/>
<text text-anchor="middle" x="1683" y="-130.5" font-family="Helvetica,sans-Serif" font-size="10.00" fill="#000000">DataFormatsMID/Track.h</text>
</a>
</g>
</g>
<!-- Node0&#45;&gt;Node15 -->
<g id="edge15" class="edge">
<title>Node0&#45;&gt;Node15</title>
<path fill="none" stroke="#191970" d="M1630.5393,-179.4992C1642.1666,-169.1933 1654.613,-158.1612 1664.4633,-149.4302"/>
<polygon fill="#191970" stroke="#191970" points="1666.8902,-151.9562 1672.0521,-142.7039 1662.247,-146.7177 1666.8902,-151.9562"/>
</g>
<!-- Node17 -->
<g id="node18" class="node">
<title>Node17</title>
<g id="a_node18"><a xlink:href="../../de/d0c/GeometryTransformer_8h.html" target="_top" xlink:title="Geometry transformer for MID. ">
<polygon fill="none" stroke="#000000" points="1419,-123.5 1419,-142.5 1597,-142.5 1597,-123.5 1419,-123.5"/>
<text text-anchor="middle" x="1508" y="-130.5" font-family="Helvetica,sans-Serif" font-size="10.00" fill="#000000">MIDBase/GeometryTransformer.h</text>
</a>
</g>
</g>
<!-- Node0&#45;&gt;Node17 -->
<g id="edge18" class="edge">
<title>Node0&#45;&gt;Node17</title>
<path fill="none" stroke="#191970" d="M1559.8645,-179.4992C1548.3694,-169.1933 1536.0644,-158.1612 1526.326,-149.4302"/>
<polygon fill="#191970" stroke="#191970" points="1528.6057,-146.7733 1518.8235,-142.7039 1523.9328,-151.9853 1528.6057,-146.7733"/>
</g>
<!-- Node2 -->
<g id="node3" class="node">
<title>Node2</title>
<polygon fill="none" stroke="#bfbfbf" points="1191,-.5 1191,-30.5 1355,-30.5 1355,-.5 1191,-.5"/>
<text text-anchor="start" x="1199" y="-18.5" font-family="Helvetica,sans-Serif" font-size="10.00" fill="#000000">Math/GenVector/Displacement</text>
<text text-anchor="middle" x="1273" y="-7.5" font-family="Helvetica,sans-Serif" font-size="10.00" fill="#000000">Vector3D.h</text>
</g>
<!-- Node1&#45;&gt;Node2 -->
<g id="edge2" class="edge">
<title>Node1&#45;&gt;Node2</title>
<path fill="none" stroke="#191970" d="M1059.2537,-67.4581C1097.0113,-58.2799 1154.9879,-44.1867 1201.0385,-32.9926"/>
<polygon fill="#191970" stroke="#191970" points="1202.0798,-36.3415 1210.9701,-30.5784 1200.4263,-29.5396 1202.0798,-36.3415"/>
</g>
<!-- Node3 -->
<g id="node4" class="node">
<title>Node3</title>
<polygon fill="none" stroke="#bfbfbf" points="1373.5,-6 1373.5,-25 1562.5,-25 1562.5,-6 1373.5,-6"/>
<text text-anchor="middle" x="1468" y="-13" font-family="Helvetica,sans-Serif" font-size="10.00" fill="#000000">Math/GenVector/PositionVector3D.h</text>
</g>
<!-- Node1&#45;&gt;Node3 -->
<g id="edge3" class="edge">
<title>Node1&#45;&gt;Node3</title>
<path fill="none" stroke="#191970" d="M1081.2459,-69.0922C1150.0699,-60.1404 1265.1126,-44.9799 1364,-31 1374.0678,-29.5767 1384.6778,-28.039 1395.1175,-26.5041"/>
<polygon fill="#191970" stroke="#191970" points="1395.6699,-29.9605 1405.0513,-25.0371 1394.6472,-23.0356 1395.6699,-29.9605"/>
</g>
<!-- Node4 -->
<g id="node5" class="node">
<title>Node4</title>
<polygon fill="none" stroke="#bfbfbf" points="0,-6 0,-25 160,-25 160,-6 0,-6"/>
<text text-anchor="middle" x="80" y="-13" font-family="Helvetica,sans-Serif" font-size="10.00" fill="#000000">Math/GenVector/Rotation3D.h</text>
</g>
<!-- Node1&#45;&gt;Node4 -->
<g id="edge4" class="edge">
<title>Node1&#45;&gt;Node4</title>
<path fill="none" stroke="#191970" d="M958.9112,-76.1769C818.8147,-73.7483 463.7581,-64.5143 169,-31 159.1824,-29.8837 148.8068,-28.3782 138.7425,-26.7425"/>
<polygon fill="#191970" stroke="#191970" points="139.2561,-23.2798 128.8142,-25.0731 138.0953,-30.1829 139.2561,-23.2798"/>
</g>
<!-- Node5 -->
<g id="node6" class="node">
<title>Node5</title>
<polygon fill="none" stroke="#bfbfbf" points="178,-6 178,-25 346,-25 346,-6 178,-6"/>
<text text-anchor="middle" x="262" y="-13" font-family="Helvetica,sans-Serif" font-size="10.00" fill="#000000">Math/GenVector/Transform3D.h</text>
</g>
<!-- Node1&#45;&gt;Node5 -->
<g id="edge5" class="edge">
<title>Node1&#45;&gt;Node5</title>
<path fill="none" stroke="#191970" d="M958.8472,-74.7364C841.4608,-69.9561 576.5365,-57.0625 355,-31 345.0023,-29.8238 334.4409,-28.3182 324.1637,-26.7094"/>
<polygon fill="#191970" stroke="#191970" points="324.4419,-23.2091 314.0125,-25.0744 323.3287,-30.1201 324.4419,-23.2091"/>
</g>
<!-- Node6 -->
<g id="node7" class="node">
<title>Node6</title>
<polygon fill="none" stroke="#bfbfbf" points="364.5,-6 364.5,-25 537.5,-25 537.5,-6 364.5,-6"/>
<text text-anchor="middle" x="451" y="-13" font-family="Helvetica,sans-Serif" font-size="10.00" fill="#000000">Math/GenVector/Translation3D.h</text>
</g>
<!-- Node1&#45;&gt;Node6 -->
<g id="edge6" class="edge">
<title>Node1&#45;&gt;Node6</title>
<path fill="none" stroke="#191970" d="M958.6317,-72.2769C868.2946,-65.0424 694.2852,-50.0328 547,-31 537.0796,-29.718 526.6088,-28.1992 516.3739,-26.6218"/>
<polygon fill="#191970" stroke="#191970" points="516.6685,-23.1253 506.2466,-25.0315 515.5826,-30.0405 516.6685,-23.1253"/>
</g>
<!-- Node7 -->
<g id="node8" class="node">
<title>Node7</title>
<polygon fill="none" stroke="#bfbfbf" points="556,-.5 556,-30.5 720,-30.5 720,-.5 556,-.5"/>
<text text-anchor="start" x="564" y="-18.5" font-family="Helvetica,sans-Serif" font-size="10.00" fill="#000000">Math/GenVector/Displacement</text>
<text text-anchor="middle" x="638" y="-7.5" font-family="Helvetica,sans-Serif" font-size="10.00" fill="#000000">Vector2D.h</text>
</g>
<!-- Node1&#45;&gt;Node7 -->
<g id="edge7" class="edge">
<title>Node1&#45;&gt;Node7</title>
<path fill="none" stroke="#191970" d="M958.9344,-67.5639C902.2724,-58.7589 815.3022,-45.1196 730.405,-31.2208"/>
<polygon fill="#191970" stroke="#191970" points="730.7671,-27.7335 720.3325,-29.5689 729.6342,-34.6412 730.7671,-27.7335"/>
</g>
<!-- Node8 -->
<g id="node9" class="node">
<title>Node8</title>
<polygon fill="none" stroke="#bfbfbf" points="738.5,-6 738.5,-25 927.5,-25 927.5,-6 738.5,-6"/>
<text text-anchor="middle" x="833" y="-13" font-family="Helvetica,sans-Serif" font-size="10.00" fill="#000000">Math/GenVector/PositionVector2D.h</text>
</g>
<!-- Node1&#45;&gt;Node8 -->
<g id="edge8" class="edge">
<title>Node1&#45;&gt;Node8</title>
<path fill="none" stroke="#191970" d="M990.7813,-67.3906C958.6693,-56.8298 906.951,-39.8208 871.5392,-28.1747"/>
<polygon fill="#191970" stroke="#191970" points="872.6065,-24.8413 862.0136,-25.0419 870.4196,-31.4909 872.6065,-24.8413"/>
</g>
<!-- Node9 -->
<g id="node10" class="node">
<title>Node9</title>
<polygon fill="none" stroke="#bfbfbf" points="945.5,-6 945.5,-25 1004.5,-25 1004.5,-6 945.5,-6"/>
<text text-anchor="middle" x="975" y="-13" font-family="Helvetica,sans-Serif" font-size="10.00" fill="#000000">Rtypes.h</text>
</g>
<!-- Node1&#45;&gt;Node9 -->
<g id="edge9" class="edge">
<title>Node1&#45;&gt;Node9</title>
<path fill="none" stroke="#191970" d="M1012.9688,-67.3906C1006.337,-58.3273 996.2304,-44.5149 988.1113,-33.4188"/>
<polygon fill="#191970" stroke="#191970" points="990.8601,-31.2484 982.1304,-25.2449 985.2109,-35.382 990.8601,-31.2484"/>
</g>
<!-- Node10 -->
<g id="node11" class="node">
<title>Node10</title>
<polygon fill="none" stroke="#bfbfbf" points="1023,-6 1023,-25 1105,-25 1105,-6 1023,-6"/>
<text text-anchor="middle" x="1064" y="-13" font-family="Helvetica,sans-Serif" font-size="10.00" fill="#000000">TGeoMatrix.h</text>
</g>
<!-- Node1&#45;&gt;Node10 -->
<g id="edge10" class="edge">
<title>Node1&#45;&gt;Node10</title>
<path fill="none" stroke="#191970" d="M1026.875,-67.3906C1033.3593,-58.3273 1043.2414,-44.5149 1051.1801,-33.4188"/>
<polygon fill="#191970" stroke="#191970" points="1054.0559,-35.4143 1057.0281,-25.2449 1048.3629,-31.3412 1054.0559,-35.4143"/>
</g>
<!-- Node11 -->
<g id="node12" class="node">
<title>Node11</title>
<polygon fill="none" stroke="#bfbfbf" points="1123.5,-6 1123.5,-25 1172.5,-25 1172.5,-6 1123.5,-6"/>
<text text-anchor="middle" x="1148" y="-13" font-family="Helvetica,sans-Serif" font-size="10.00" fill="#000000">iosfwd</text>
</g>
<!-- Node1&#45;&gt;Node11 -->
<g id="edge11" class="edge">
<title>Node1&#45;&gt;Node11</title>
<path fill="none" stroke="#191970" d="M1040,-67.3906C1061.2289,-57.1908 1094.9762,-40.9763 1119.096,-29.3875"/>
<polygon fill="#191970" stroke="#191970" points="1120.6426,-32.5275 1128.1404,-25.0419 1117.6111,-26.2179 1120.6426,-32.5275"/>
</g>
<!-- Node13 -->
<g id="node14" class="node">
<title>Node13</title>
<polygon fill="none" stroke="#bfbfbf" points="1729.5,-67.5 1729.5,-86.5 1786.5,-86.5 1786.5,-67.5 1729.5,-67.5"/>
<text text-anchor="middle" x="1758" y="-74.5" font-family="Helvetica,sans-Serif" font-size="10.00" fill="#000000">ostream</text>
</g>
<!-- Node12&#45;&gt;Node13 -->
<g id="edge13" class="edge">
<title>Node12&#45;&gt;Node13</title>
<path fill="none" stroke="#191970" d="M1832.3232,-123.2455C1818.5144,-114.6534 1798.1807,-102.0014 1782.2708,-92.1018"/>
<polygon fill="#191970" stroke="#191970" points="1783.8368,-88.954 1773.4972,-86.6427 1780.1387,-94.8974 1783.8368,-88.954"/>
</g>
<!-- Node14 -->
<g id="node15" class="node">
<title>Node14</title>
<polygon fill="none" stroke="#bfbfbf" points="1823,-67.5 1823,-86.5 1873,-86.5 1873,-67.5 1823,-67.5"/>
<text text-anchor="middle" x="1848" y="-74.5" font-family="Helvetica,sans-Serif" font-size="10.00" fill="#000000">cstdint</text>
</g>
<!-- Node12&#45;&gt;Node14 -->
<g id="edge14" class="edge">
<title>Node12&#45;&gt;Node14</title>
<path fill="none" stroke="#191970" d="M1848,-123.2455C1848,-115.9382 1848,-105.6944 1848,-96.7046"/>
<polygon fill="#191970" stroke="#191970" points="1851.5001,-96.6426 1848,-86.6427 1844.5001,-96.6427 1851.5001,-96.6426"/>
</g>
<!-- Node15&#45;&gt;Node13 -->
<g id="edge17" class="edge">
<title>Node15&#45;&gt;Node13</title>
<path fill="none" stroke="#191970" d="M1696.064,-123.2455C1707.3562,-114.814 1723.8845,-102.4729 1737.0271,-92.6598"/>
<polygon fill="#191970" stroke="#191970" points="1739.1669,-95.4301 1745.0857,-86.6427 1734.9789,-89.8211 1739.1669,-95.4301"/>
</g>
<!-- Node16 -->
<g id="node17" class="node">
<title>Node16</title>
<polygon fill="none" stroke="#bfbfbf" points="1643,-6 1643,-25 1685,-25 1685,-6 1643,-6"/>
<text text-anchor="middle" x="1664" y="-13" font-family="Helvetica,sans-Serif" font-size="10.00" fill="#000000">array</text>
</g>
<!-- Node15&#45;&gt;Node16 -->
<g id="edge16" class="edge">
<title>Node15&#45;&gt;Node16</title>
<path fill="none" stroke="#191970" d="M1681.4452,-123.3845C1678.3416,-104.1913 1671.3228,-60.786 1667.1963,-35.2663"/>
<polygon fill="#191970" stroke="#191970" points="1670.6278,-34.5614 1665.5763,-25.2484 1663.7176,-35.6789 1670.6278,-34.5614"/>
</g>
<!-- Node17&#45;&gt;Node1 -->
<g id="edge23" class="edge">
<title>Node17&#45;&gt;Node1</title>
<path fill="none" stroke="#191970" d="M1424.941,-123.4686C1331.0208,-112.6909 1179.6743,-95.3233 1091.0289,-85.1509"/>
<polygon fill="#191970" stroke="#191970" points="1091.4,-81.6706 1081.0661,-84.0076 1090.6019,-88.6249 1091.4,-81.6706"/>
</g>
<!-- Node17&#45;&gt;Node16 -->
<g id="edge19" class="edge">
<title>Node17&#45;&gt;Node16</title>
<path fill="none" stroke="#191970" d="M1553.2288,-123.4589C1577.0784,-116.5713 1605.5464,-105.1941 1626,-87 1641.7024,-73.0322 1652.0243,-50.9942 1657.8949,-35.0752"/>
<polygon fill="#191970" stroke="#191970" points="1661.3453,-35.8009 1661.2594,-25.2064 1654.7197,-33.542 1661.3453,-35.8009"/>
</g>
<!-- Node18 -->
<g id="node19" class="node">
<title>Node18</title>
<g id="a_node19"><a xlink:href="../../dc/de4/DetectorParameters_8h.html" target="_top" xlink:title="Useful detector parameters for MID. ">
<polygon fill="none" stroke="#000000" points="1448.5,-67.5 1448.5,-86.5 1617.5,-86.5 1617.5,-67.5 1448.5,-67.5"/>
<text text-anchor="middle" x="1533" y="-74.5" font-family="Helvetica,sans-Serif" font-size="10.00" fill="#000000">MIDBase/DetectorParameters.h</text>
</a>
</g>
</g>
<!-- Node17&#45;&gt;Node18 -->
<g id="edge20" class="edge">
<title>Node17&#45;&gt;Node18</title>
<path fill="none" stroke="#191970" d="M1512.3547,-123.2455C1515.7244,-115.6973 1520.493,-105.0158 1524.5983,-95.8197"/>
<polygon fill="#191970" stroke="#191970" points="1527.8147,-97.2009 1528.6952,-86.6427 1521.4227,-94.3473 1527.8147,-97.2009"/>
</g>
<!-- Node18&#45;&gt;Node16 -->
<g id="edge21" class="edge">
<title>Node18&#45;&gt;Node16</title>
<path fill="none" stroke="#191970" d="M1554.8173,-67.4377C1575.3719,-58.3407 1606.9626,-44.1317 1634,-31 1634.8306,-30.5966 1635.6725,-30.1842 1636.5212,-29.7654"/>
<polygon fill="#191970" stroke="#191970" points="1638.315,-32.7807 1645.6686,-25.1535 1635.1636,-26.5302 1638.315,-32.7807"/>
</g>
<!-- Node19 -->
<g id="node20" class="node">
<title>Node19</title>
<polygon fill="none" stroke="#bfbfbf" points="1581,-6 1581,-25 1625,-25 1625,-6 1581,-6"/>
<text text-anchor="middle" x="1603" y="-13" font-family="Helvetica,sans-Serif" font-size="10.00" fill="#000000">string</text>
</g>
<!-- Node18&#45;&gt;Node19 -->
<g id="edge22" class="edge">
<title>Node18&#45;&gt;Node19</title>
<path fill="none" stroke="#191970" d="M1543.9375,-67.3906C1554.662,-57.9683 1571.2287,-43.4134 1584.0901,-32.1137"/>
<polygon fill="#191970" stroke="#191970" points="1586.7059,-34.4745 1591.9083,-25.2449 1582.0857,-29.2158 1586.7059,-34.4745"/>
</g>
</g>
</svg>
