<?xml version="1.0" encoding="UTF-8" standalone="no"?>
<!DOCTYPE svg PUBLIC "-//W3C//DTD SVG 1.1//EN"
 "http://www.w3.org/Graphics/SVG/1.1/DTD/svg11.dtd">
<!-- Generated by graphviz version 2.40.1 (20161225.0304)
 -->
<!-- Title: /home/travis/build/AliceO2Group/AliceO2/Detectors/EMCAL/base/include/EMCALBase/Geometry.h Pages: 1 -->
<svg width="1785pt" height="184pt"
 viewBox="0.00 0.00 1784.50 184.00" xmlns="http://www.w3.org/2000/svg" xmlns:xlink="http://www.w3.org/1999/xlink">
<g id="graph0" class="graph" transform="scale(1 1) rotate(0) translate(4 180)">
<title>/home/travis/build/AliceO2Group/AliceO2/Detectors/EMCAL/base/include/EMCALBase/Geometry.h</title>
<!-- Node0 -->
<g id="node1" class="node">
<title>Node0</title>
<polygon fill="#bfbfbf" stroke="#000000" points="837.5,-123.5 837.5,-175.5 1011.5,-175.5 1011.5,-123.5 837.5,-123.5"/>
<text text-anchor="start" x="845.5" y="-163.5" font-family="Helvetica,sans-Serif" font-size="10.00" fill="#000000">/home/travis/build</text>
<text text-anchor="start" x="845.5" y="-152.5" font-family="Helvetica,sans-Serif" font-size="10.00" fill="#000000">/AliceO2Group/AliceO2</text>
<text text-anchor="start" x="845.5" y="-141.5" font-family="Helvetica,sans-Serif" font-size="10.00" fill="#000000">/Detectors/EMCAL/base</text>
<text text-anchor="middle" x="924.5" y="-130.5" font-family="Helvetica,sans-Serif" font-size="10.00" fill="#000000">/include/EMCALBase/Geometry.h</text>
</g>
<!-- Node1 -->
<g id="node2" class="node">
<title>Node1</title>
<polygon fill="none" stroke="#bfbfbf" points="0,-6 0,-25 65,-25 65,-6 0,-6"/>
<text text-anchor="middle" x="32.5" y="-13" font-family="Helvetica,sans-Serif" font-size="10.00" fill="#000000">exception</text>
</g>
<!-- Node0&#45;&gt;Node1 -->
<g id="edge1" class="edge">
<title>Node0&#45;&gt;Node1</title>
<path fill="none" stroke="#191970" d="M837.373,-147.341C634.8654,-141.7147 144.7604,-124.3708 80.5,-87 60.4854,-75.3605 47.1208,-51.6391 39.6845,-34.7122"/>
<polygon fill="#191970" stroke="#191970" points="42.8307,-33.158 35.8141,-25.2195 36.3487,-35.8009 42.8307,-33.158"/>
</g>
<!-- Node2 -->
<g id="node3" class="node">
<title>Node2</title>
<polygon fill="none" stroke="#bfbfbf" points="1732.5,-6 1732.5,-25 1776.5,-25 1776.5,-6 1732.5,-6"/>
<text text-anchor="middle" x="1754.5" y="-13" font-family="Helvetica,sans-Serif" font-size="10.00" fill="#000000">string</text>
</g>
<!-- Node0&#45;&gt;Node2 -->
<g id="edge2" class="edge">
<title>Node0&#45;&gt;Node2</title>
<path fill="none" stroke="#191970" d="M837.4315,-130.064C792.2544,-116.1543 751.5954,-94.9491 778.5,-67 814.9361,-29.1495 1672.6064,-44.042 1723.5,-31 1725.4235,-30.5071 1727.3663,-29.8837 1729.2913,-29.1716"/>
<polygon fill="#191970" stroke="#191970" points="1730.8612,-32.3046 1738.598,-25.0663 1728.036,-25.9 1730.8612,-32.3046"/>
</g>
<!-- Node3 -->
<g id="node4" class="node">
<title>Node3</title>
<polygon fill="none" stroke="#bfbfbf" points="963,-67.5 963,-86.5 1004,-86.5 1004,-67.5 963,-67.5"/>
<text text-anchor="middle" x="983.5" y="-74.5" font-family="Helvetica,sans-Serif" font-size="10.00" fill="#000000">tuple</text>
</g>
<!-- Node0&#45;&gt;Node3 -->
<g id="edge3" class="edge">
<title>Node0&#45;&gt;Node3</title>
<path fill="none" stroke="#191970" d="M945.8004,-123.3258C953.6231,-113.7131 962.2815,-103.0735 969.3258,-94.4174"/>
<polygon fill="#191970" stroke="#191970" points="972.144,-96.4995 975.7413,-86.534 966.7146,-92.0811 972.144,-96.4995"/>
</g>
<!-- Node4 -->
<g id="node5" class="node">
<title>Node4</title>
<polygon fill="none" stroke="#bfbfbf" points="1022,-67.5 1022,-86.5 1069,-86.5 1069,-67.5 1022,-67.5"/>
<text text-anchor="middle" x="1045.5" y="-74.5" font-family="Helvetica,sans-Serif" font-size="10.00" fill="#000000">vector</text>
</g>
<!-- Node0&#45;&gt;Node4 -->
<g id="edge4" class="edge">
<title>Node0&#45;&gt;Node4</title>
<path fill="none" stroke="#191970" d="M968.1838,-123.3258C985.8983,-112.7118 1005.7022,-100.8458 1020.8321,-91.7804"/>
<polygon fill="#191970" stroke="#191970" points="1022.8089,-94.6761 1029.5881,-86.534 1019.2111,-88.6715 1022.8089,-94.6761"/>
</g>
<!-- Node5 -->
<g id="node6" class="node">
<title>Node5</title>
<polygon fill="none" stroke="#bfbfbf" points="1087.5,-67.5 1087.5,-86.5 1171.5,-86.5 1171.5,-67.5 1087.5,-67.5"/>
<text text-anchor="middle" x="1129.5" y="-74.5" font-family="Helvetica,sans-Serif" font-size="10.00" fill="#000000">RStringView.h</text>
</g>
<!-- Node0&#45;&gt;Node5 -->
<g id="edge5" class="edge">
<title>Node0&#45;&gt;Node5</title>
<path fill="none" stroke="#191970" d="M998.2201,-123.4283C1030.3841,-112.0532 1066.6623,-99.2231 1092.9183,-89.9374"/>
<polygon fill="#191970" stroke="#191970" points="1094.2002,-93.1966 1102.461,-86.5626 1091.8662,-86.5971 1094.2002,-93.1966"/>
</g>
<!-- Node6 -->
<g id="node7" class="node">
<title>Node6</title>
<polygon fill="none" stroke="#bfbfbf" points="296.5,-6 296.5,-25 378.5,-25 378.5,-6 296.5,-6"/>
<text text-anchor="middle" x="337.5" y="-13" font-family="Helvetica,sans-Serif" font-size="10.00" fill="#000000">TGeoMatrix.h</text>
</g>
<!-- Node0&#45;&gt;Node6 -->
<g id="edge6" class="edge">
<title>Node0&#45;&gt;Node6</title>
<path fill="none" stroke="#191970" d="M837.1924,-134.2846C771.7924,-122.4933 680.2373,-105.1515 600.5,-87 505.0579,-65.2735 481.6028,-57.9425 387.5,-31 384.1663,-30.0455 380.7156,-29.0312 377.2568,-27.9962"/>
<polygon fill="#191970" stroke="#191970" points="378.1639,-24.6139 367.5783,-25.0565 376.1295,-31.3117 378.1639,-24.6139"/>
</g>
<!-- Node7 -->
<g id="node8" class="node">
<title>Node7</title>
<polygon fill="none" stroke="#bfbfbf" points="1190,-67.5 1190,-86.5 1257,-86.5 1257,-67.5 1190,-67.5"/>
<text text-anchor="middle" x="1223.5" y="-74.5" font-family="Helvetica,sans-Serif" font-size="10.00" fill="#000000">TNamed.h</text>
</g>
<!-- Node0&#45;&gt;Node7 -->
<g id="edge7" class="edge">
<title>Node0&#45;&gt;Node7</title>
<path fill="none" stroke="#191970" d="M1011.787,-128.3351C1067.1174,-114.9189 1136.2855,-98.1473 1180.1922,-87.501"/>
<polygon fill="#191970" stroke="#191970" points="1181.0806,-90.8871 1189.9742,-85.1292 1179.431,-84.0843 1181.0806,-90.8871"/>
</g>
<!-- Node8 -->
<g id="node9" class="node">
<title>Node8</title>
<polygon fill="none" stroke="#bfbfbf" points="1275.5,-67.5 1275.5,-86.5 1343.5,-86.5 1343.5,-67.5 1275.5,-67.5"/>
<text text-anchor="middle" x="1309.5" y="-74.5" font-family="Helvetica,sans-Serif" font-size="10.00" fill="#000000">TParticle.h</text>
</g>
<!-- Node0&#45;&gt;Node8 -->
<g id="edge8" class="edge">
<title>Node0&#45;&gt;Node8</title>
<path fill="none" stroke="#191970" d="M1011.5195,-134.7783C1078.3373,-123.1999 1173.123,-106.1845 1265.2109,-87.1998"/>
<polygon fill="#191970" stroke="#191970" points="1266.183,-90.5729 1275.265,-85.1169 1264.7629,-83.7184 1266.183,-90.5729"/>
</g>
<!-- Node9 -->
<g id="node10" class="node">
<title>Node9</title>
<polygon fill="none" stroke="#bfbfbf" points="1361.5,-67.5 1361.5,-86.5 1429.5,-86.5 1429.5,-67.5 1361.5,-67.5"/>
<text text-anchor="middle" x="1395.5" y="-74.5" font-family="Helvetica,sans-Serif" font-size="10.00" fill="#000000">TVector3.h</text>
</g>
<!-- Node0&#45;&gt;Node9 -->
<g id="edge9" class="edge">
<title>Node0&#45;&gt;Node9</title>
<path fill="none" stroke="#191970" d="M1011.7457,-138.9287C1096.2,-128.1998 1228.0036,-110.1513 1351.2906,-87.1108"/>
<polygon fill="#191970" stroke="#191970" points="1352.1076,-90.5186 1361.287,-85.228 1350.8119,-83.6395 1352.1076,-90.5186"/>
</g>
<!-- Node10 -->
<g id="node11" class="node">
<title>Node10</title>
<g id="a_node11"><a xlink:href="../../dd/dda/DataFormats_2Detectors_2EMCAL_2include_2DataFormatsEMCAL_2Constants_8h.html" target="_top" xlink:title="DataFormatsEMCAL/Constants.h">
<polygon fill="none" stroke="#000000" points="90,-67.5 90,-86.5 263,-86.5 263,-67.5 90,-67.5"/>
<text text-anchor="middle" x="176.5" y="-74.5" font-family="Helvetica,sans-Serif" font-size="10.00" fill="#000000">DataFormatsEMCAL/Constants.h</text>
</a>
</g>
</g>
<!-- Node0&#45;&gt;Node10 -->
<g id="edge10" class="edge">
<title>Node0&#45;&gt;Node10</title>
<path fill="none" stroke="#191970" d="M837.231,-141.0414C696.4772,-127.3989 420.3129,-100.6316 273.5526,-86.4068"/>
<polygon fill="#191970" stroke="#191970" points="273.5042,-82.8858 263.2132,-85.4047 272.8288,-89.8532 273.5042,-82.8858"/>
</g>
<!-- Node14 -->
<g id="node15" class="node">
<title>Node14</title>
<g id="a_node15"><a xlink:href="../../d5/d5e/GeometryBase_8h.html" target="_top" xlink:title="EMCALBase/GeometryBase.h">
<polygon fill="none" stroke="#000000" points="787.5,-67.5 787.5,-86.5 945.5,-86.5 945.5,-67.5 787.5,-67.5"/>
<text text-anchor="middle" x="866.5" y="-74.5" font-family="Helvetica,sans-Serif" font-size="10.00" fill="#000000">EMCALBase/GeometryBase.h</text>
</a>
</g>
</g>
<!-- Node0&#45;&gt;Node14 -->
<g id="edge15" class="edge">
<title>Node0&#45;&gt;Node14</title>
<path fill="none" stroke="#191970" d="M903.5607,-123.3258C895.8705,-113.7131 887.3588,-103.0735 880.4339,-94.4174"/>
<polygon fill="#191970" stroke="#191970" points="883.1072,-92.1563 874.1272,-86.534 877.6411,-96.5292 883.1072,-92.1563"/>
</g>
<!-- Node15 -->
<g id="node16" class="node">
<title>Node15</title>
<g id="a_node16"><a xlink:href="../../dc/d73/Cartesian_8h.html" target="_top" xlink:title="MathUtils/Cartesian.h">
<polygon fill="none" stroke="#000000" points="609.5,-67.5 609.5,-86.5 731.5,-86.5 731.5,-67.5 609.5,-67.5"/>
<text text-anchor="middle" x="670.5" y="-74.5" font-family="Helvetica,sans-Serif" font-size="10.00" fill="#000000">MathUtils/Cartesian.h</text>
</a>
</g>
</g>
<!-- Node0&#45;&gt;Node15 -->
<g id="edge17" class="edge">
<title>Node0&#45;&gt;Node15</title>
<path fill="none" stroke="#191970" d="M837.443,-124.651C795.7963,-112.7637 747.7695,-99.0553 713.951,-89.4024"/>
<polygon fill="#191970" stroke="#191970" points="714.5112,-85.9225 703.9346,-86.5433 712.5898,-92.6537 714.5112,-85.9225"/>
</g>
<!-- Node10&#45;&gt;Node1 -->
<g id="edge13" class="edge">
<title>Node10&#45;&gt;Node1</title>
<path fill="none" stroke="#191970" d="M154,-67.3906C129.9062,-57.1005 91.4787,-40.6888 64.2992,-29.0809"/>
<polygon fill="#191970" stroke="#191970" points="65.4131,-25.7508 54.842,-25.0419 62.6637,-32.1883 65.4131,-25.7508"/>
</g>
<!-- Node11 -->
<g id="node12" class="node">
<title>Node11</title>
<polygon fill="none" stroke="#bfbfbf" points="219,-6 219,-25 278,-25 278,-6 219,-6"/>
<text text-anchor="middle" x="248.5" y="-13" font-family="Helvetica,sans-Serif" font-size="10.00" fill="#000000">Rtypes.h</text>
</g>
<!-- Node10&#45;&gt;Node11 -->
<g id="edge11" class="edge">
<title>Node10&#45;&gt;Node11</title>
<path fill="none" stroke="#191970" d="M187.75,-67.3906C198.886,-57.8786 216.146,-43.1357 229.4268,-31.7917"/>
<polygon fill="#191970" stroke="#191970" points="231.7608,-34.4011 237.0914,-25.2449 227.2144,-29.0784 231.7608,-34.4011"/>
</g>
<!-- Node12 -->
<g id="node13" class="node">
<title>Node12</title>
<polygon fill="none" stroke="#bfbfbf" points="152,-6 152,-25 201,-25 201,-6 152,-6"/>
<text text-anchor="middle" x="176.5" y="-13" font-family="Helvetica,sans-Serif" font-size="10.00" fill="#000000">iosfwd</text>
</g>
<!-- Node10&#45;&gt;Node12 -->
<g id="edge12" class="edge">
<title>Node10&#45;&gt;Node12</title>
<path fill="none" stroke="#191970" d="M176.5,-67.3906C176.5,-58.8657 176.5,-46.1392 176.5,-35.4235"/>
<polygon fill="#191970" stroke="#191970" points="180.0001,-35.2448 176.5,-25.2449 173.0001,-35.2449 180.0001,-35.2448"/>
</g>
<!-- Node13 -->
<g id="node14" class="node">
<title>Node13</title>
<polygon fill="none" stroke="#bfbfbf" points="83.5,-6 83.5,-25 133.5,-25 133.5,-6 83.5,-6"/>
<text text-anchor="middle" x="108.5" y="-13" font-family="Helvetica,sans-Serif" font-size="10.00" fill="#000000">cstdint</text>
</g>
<!-- Node10&#45;&gt;Node13 -->
<g id="edge14" class="edge">
<title>Node10&#45;&gt;Node13</title>
<path fill="none" stroke="#191970" d="M165.875,-67.3906C155.4569,-57.9683 139.3636,-43.4134 126.8696,-32.1137"/>
<polygon fill="#191970" stroke="#191970" points="129.0392,-29.3568 119.2748,-25.2449 124.3438,-34.5484 129.0392,-29.3568"/>
</g>
<!-- Node14&#45;&gt;Node2 -->
<g id="edge16" class="edge">
<title>Node14&#45;&gt;Node2</title>
<path fill="none" stroke="#191970" d="M945.63,-67.7571C948.6233,-67.4872 951.5879,-67.2334 954.5,-67 1125.0294,-53.3344 1557.9652,-74.1885 1723.5,-31 1725.4214,-30.4987 1727.3625,-29.8691 1729.2864,-29.1526"/>
<polygon fill="#191970" stroke="#191970" points="1730.8609,-32.2833 1738.5906,-25.0375 1728.0294,-25.8815 1730.8609,-32.2833"/>
</g>
<!-- Node15&#45;&gt;Node6 -->
<g id="edge26" class="edge">
<title>Node15&#45;&gt;Node6</title>
<path fill="none" stroke="#191970" d="M609.2921,-69.5603C551.6445,-61.9633 463.0915,-48.7686 387.5,-31 383.6295,-30.0902 379.6215,-29.0386 375.6362,-27.9204"/>
<polygon fill="#191970" stroke="#191970" points="376.4489,-24.5112 365.8675,-25.046 374.4729,-31.2265 376.4489,-24.5112"/>
</g>
<!-- Node15&#45;&gt;Node11 -->
<g id="edge25" class="edge">
<title>Node15&#45;&gt;Node11</title>
<path fill="none" stroke="#191970" d="M609.2459,-74.5215C532.8742,-70.3235 398.8154,-59.2946 287.5,-31 284.7196,-30.2933 281.8718,-29.4372 279.0432,-28.4946"/>
<polygon fill="#191970" stroke="#191970" points="280.2196,-25.1981 269.6258,-25.0469 277.813,-31.7714 280.2196,-25.1981"/>
</g>
<!-- Node15&#45;&gt;Node12 -->
<g id="edge27" class="edge">
<title>Node15&#45;&gt;Node12</title>
<path fill="none" stroke="#191970" d="M609.4869,-73.4837C501.9922,-66.8613 283.2538,-51.3551 209.5,-31 207.5322,-30.4569 205.5366,-29.8047 203.5512,-29.0794"/>
<polygon fill="#191970" stroke="#191970" points="204.4624,-25.6656 193.8877,-25.0117 201.7466,-32.1173 204.4624,-25.6656"/>
</g>
<!-- Node16 -->
<g id="node17" class="node">
<title>Node16</title>
<polygon fill="none" stroke="#bfbfbf" points="978.5,-.5 978.5,-30.5 1142.5,-30.5 1142.5,-.5 978.5,-.5"/>
<text text-anchor="start" x="986.5" y="-18.5" font-family="Helvetica,sans-Serif" font-size="10.00" fill="#000000">Math/GenVector/Displacement</text>
<text text-anchor="middle" x="1060.5" y="-7.5" font-family="Helvetica,sans-Serif" font-size="10.00" fill="#000000">Vector3D.h</text>
</g>
<!-- Node15&#45;&gt;Node16 -->
<g id="edge18" class="edge">
<title>Node15&#45;&gt;Node16</title>
<path fill="none" stroke="#191970" d="M731.5325,-67.9037C789.806,-59.1519 880.3629,-45.379 968.294,-31.1823"/>
<polygon fill="#191970" stroke="#191970" points="968.8575,-34.6367 978.17,-29.5842 967.7393,-27.7266 968.8575,-34.6367"/>
</g>
<!-- Node17 -->
<g id="node18" class="node">
<title>Node17</title>
<polygon fill="none" stroke="#bfbfbf" points="1161,-6 1161,-25 1350,-25 1350,-6 1161,-6"/>
<text text-anchor="middle" x="1255.5" y="-13" font-family="Helvetica,sans-Serif" font-size="10.00" fill="#000000">Math/GenVector/PositionVector3D.h</text>
</g>
<!-- Node15&#45;&gt;Node17 -->
<g id="edge19" class="edge">
<title>Node15&#45;&gt;Node17</title>
<path fill="none" stroke="#191970" d="M731.868,-68.5934C736.4781,-68.0306 741.061,-67.4925 745.5,-67 925.5477,-47.0243 971.6114,-52.3613 1151.5,-31 1162.6464,-29.6764 1174.4381,-28.0944 1185.9221,-26.4545"/>
<polygon fill="#191970" stroke="#191970" points="1186.518,-29.9048 1195.911,-25.0036 1185.5117,-22.9775 1186.518,-29.9048"/>
</g>
<!-- Node18 -->
<g id="node19" class="node">
<title>Node18</title>
<polygon fill="none" stroke="#bfbfbf" points="1368.5,-6 1368.5,-25 1528.5,-25 1528.5,-6 1368.5,-6"/>
<text text-anchor="middle" x="1448.5" y="-13" font-family="Helvetica,sans-Serif" font-size="10.00" fill="#000000">Math/GenVector/Rotation3D.h</text>
</g>
<!-- Node15&#45;&gt;Node18 -->
<g id="edge20" class="edge">
<title>Node15&#45;&gt;Node18</title>
<path fill="none" stroke="#191970" d="M731.8525,-68.4437C736.4662,-67.9155 741.0541,-67.4261 745.5,-67 1017.6104,-40.9182 1087.9636,-62.5017 1359.5,-31 1369.3151,-29.8613 1379.6893,-28.3444 1389.7531,-26.7043"/>
<polygon fill="#191970" stroke="#191970" points="1390.4012,-30.1445 1399.6812,-25.0326 1389.2388,-23.2417 1390.4012,-30.1445"/>
</g>
<!-- Node19 -->
<g id="node20" class="node">
<title>Node19</title>
<polygon fill="none" stroke="#bfbfbf" points="1546.5,-6 1546.5,-25 1714.5,-25 1714.5,-6 1546.5,-6"/>
<text text-anchor="middle" x="1630.5" y="-13" font-family="Helvetica,sans-Serif" font-size="10.00" fill="#000000">Math/GenVector/Transform3D.h</text>
</g>
<!-- Node15&#45;&gt;Node19 -->
<g id="edge21" class="edge">
<title>Node15&#45;&gt;Node19</title>
<path fill="none" stroke="#191970" d="M731.8464,-68.3778C736.4615,-67.8648 741.0514,-67.3969 745.5,-67 1096.4692,-35.6855 1187.0877,-68.0304 1537.5,-31 1547.9853,-29.892 1559.0819,-28.3602 1569.8185,-26.6881"/>
<polygon fill="#191970" stroke="#191970" points="1570.6549,-30.0985 1579.9702,-25.0512 1569.5406,-23.1878 1570.6549,-30.0985"/>
</g>
<!-- Node20 -->
<g id="node21" class="node">
<title>Node20</title>
<polygon fill="none" stroke="#bfbfbf" points="397,-6 397,-25 570,-25 570,-6 397,-6"/>
<text text-anchor="middle" x="483.5" y="-13" font-family="Helvetica,sans-Serif" font-size="10.00" fill="#000000">Math/GenVector/Translation3D.h</text>
</g>
<!-- Node15&#45;&gt;Node20 -->
<g id="edge22" class="edge">
<title>Node15&#45;&gt;Node20</title>
<path fill="none" stroke="#191970" d="M641.2813,-67.3906C609.1693,-56.8298 557.451,-39.8208 522.0392,-28.1747"/>
<polygon fill="#191970" stroke="#191970" points="523.1065,-24.8413 512.5136,-25.0419 520.9196,-31.4909 523.1065,-24.8413"/>
</g>
<!-- Node21 -->
<g id="node22" class="node">
<title>Node21</title>
<polygon fill="none" stroke="#bfbfbf" points="588.5,-.5 588.5,-30.5 752.5,-30.5 752.5,-.5 588.5,-.5"/>
<text text-anchor="start" x="596.5" y="-18.5" font-family="Helvetica,sans-Serif" font-size="10.00" fill="#000000">Math/GenVector/Displacement</text>
<text text-anchor="middle" x="670.5" y="-7.5" font-family="Helvetica,sans-Serif" font-size="10.00" fill="#000000">Vector2D.h</text>
</g>
<!-- Node15&#45;&gt;Node21 -->
<g id="edge23" class="edge">
<title>Node15&#45;&gt;Node21</title>
<path fill="none" stroke="#191970" d="M670.5,-67.3906C670.5,-60.2234 670.5,-50.0862 670.5,-40.671"/>
<polygon fill="#191970" stroke="#191970" points="674.0001,-40.5446 670.5,-30.5446 667.0001,-40.5446 674.0001,-40.5446"/>
</g>
<!-- Node22 -->
<g id="node23" class="node">
<title>Node22</title>
<polygon fill="none" stroke="#bfbfbf" points="771,-6 771,-25 960,-25 960,-6 771,-6"/>
<text text-anchor="middle" x="865.5" y="-13" font-family="Helvetica,sans-Serif" font-size="10.00" fill="#000000">Math/GenVector/PositionVector2D.h</text>
</g>
<!-- Node15&#45;&gt;Node22 -->
<g id="edge24" class="edge">
<title>Node15&#45;&gt;Node22</title>
<path fill="none" stroke="#191970" d="M700.9688,-67.3906C734.4544,-56.8298 788.3853,-39.8208 825.312,-28.1747"/>
<polygon fill="#191970" stroke="#191970" points="826.761,-31.3877 835.2452,-25.0419 824.6555,-24.7118 826.761,-31.3877"/>
</g>
</g>
</svg>
