<?xml version="1.0" encoding="UTF-8" standalone="no"?>
<!DOCTYPE svg PUBLIC "-//W3C//DTD SVG 1.1//EN"
 "http://www.w3.org/Graphics/SVG/1.1/DTD/svg11.dtd">
<!-- Generated by graphviz version 2.40.1 (20161225.0304)
 -->
<!-- Title: /home/travis/build/AliceO2Group/AliceO2/DataFormats/Detectors/Common/include/DetectorsCommonDataFormats/DetMatrixCache.h Pages: 1 -->
<svg width="2742pt" height="430pt"
 viewBox="0.00 0.00 2741.50 430.00" xmlns="http://www.w3.org/2000/svg" xmlns:xlink="http://www.w3.org/1999/xlink">
<g id="graph0" class="graph" transform="scale(1 1) rotate(0) translate(4 426)">
<title>/home/travis/build/AliceO2Group/AliceO2/DataFormats/Detectors/Common/include/DetectorsCommonDataFormats/DetMatrixCache.h</title>
<!-- Node0 -->
<g id="node1" class="node">
<title>Node0</title>
<polygon fill="#bfbfbf" stroke="#000000" points="1799.5,-358.5 1799.5,-421.5 1996.5,-421.5 1996.5,-358.5 1799.5,-358.5"/>
<text text-anchor="start" x="1807.5" y="-409.5" font-family="Helvetica,sans-Serif" font-size="10.00" fill="#000000">/home/travis/build</text>
<text text-anchor="start" x="1807.5" y="-398.5" font-family="Helvetica,sans-Serif" font-size="10.00" fill="#000000">/AliceO2Group/AliceO2</text>
<text text-anchor="start" x="1807.5" y="-387.5" font-family="Helvetica,sans-Serif" font-size="10.00" fill="#000000">/DataFormats/Detectors</text>
<text text-anchor="start" x="1807.5" y="-376.5" font-family="Helvetica,sans-Serif" font-size="10.00" fill="#000000">/Common/include/DetectorsCommon</text>
<text text-anchor="middle" x="1898" y="-365.5" font-family="Helvetica,sans-Serif" font-size="10.00" fill="#000000">DataFormats/DetMatrixCache.h</text>
</g>
<!-- Node1 -->
<g id="node2" class="node">
<title>Node1</title>
<g id="a_node2"><a xlink:href="../../df/d5b/GPUCommonLogger_8h.html" target="_top" xlink:title="GPUCommonLogger.h">
<polygon fill="none" stroke="#000000" points="39.5,-297 39.5,-316 162.5,-316 162.5,-297 39.5,-297"/>
<text text-anchor="middle" x="101" y="-304" font-family="Helvetica,sans-Serif" font-size="10.00" fill="#000000">GPUCommonLogger.h</text>
</a>
</g>
</g>
<!-- Node0&#45;&gt;Node1 -->
<g id="edge1" class="edge">
<title>Node0&#45;&gt;Node1</title>
<path fill="none" stroke="#191970" d="M1799.4685,-385.4216C1476.2382,-370.4023 452.8268,-322.8481 172.5639,-309.8253"/>
<polygon fill="#191970" stroke="#191970" points="172.6684,-306.3265 162.5167,-309.3585 172.3434,-313.3189 172.6684,-306.3265"/>
</g>
<!-- Node4 -->
<g id="node5" class="node">
<title>Node4</title>
<g id="a_node5"><a xlink:href="../../d2/d45/GPUCommonRtypes_8h.html" target="_top" xlink:title="GPUCommonRtypes.h">
<polygon fill="none" stroke="#000000" points="1682.5,-297 1682.5,-316 1807.5,-316 1807.5,-297 1682.5,-297"/>
<text text-anchor="middle" x="1745" y="-304" font-family="Helvetica,sans-Serif" font-size="10.00" fill="#000000">GPUCommonRtypes.h</text>
</a>
</g>
</g>
<!-- Node0&#45;&gt;Node4 -->
<g id="edge4" class="edge">
<title>Node0&#45;&gt;Node4</title>
<path fill="none" stroke="#191970" d="M1840.1573,-358.4322C1816.5574,-345.5526 1790.4346,-331.296 1771.5392,-320.9838"/>
<polygon fill="#191970" stroke="#191970" points="1773.0826,-317.8389 1762.6281,-316.1205 1769.7292,-323.9834 1773.0826,-317.8389"/>
</g>
<!-- Node6 -->
<g id="node7" class="node">
<title>Node6</title>
<polygon fill="none" stroke="#bfbfbf" points="2599,-112.5 2599,-131.5 2641,-131.5 2641,-112.5 2599,-112.5"/>
<text text-anchor="middle" x="2620" y="-119.5" font-family="Helvetica,sans-Serif" font-size="10.00" fill="#000000">array</text>
</g>
<!-- Node0&#45;&gt;Node6 -->
<g id="edge6" class="edge">
<title>Node0&#45;&gt;Node6</title>
<path fill="none" stroke="#191970" d="M1996.5324,-376.4272C2117.4362,-357.8377 2327.3785,-319.2313 2498,-255 2556.2593,-233.068 2589.2079,-241.5203 2621,-188 2629.2201,-174.1619 2628.1193,-155.6415 2625.4511,-141.742"/>
<polygon fill="#191970" stroke="#191970" points="2628.8036,-140.7067 2623.1233,-131.7633 2621.9867,-142.297 2628.8036,-140.7067"/>
</g>
<!-- Node7 -->
<g id="node8" class="node">
<title>Node7</title>
<polygon fill="none" stroke="#bfbfbf" points="2686.5,-297 2686.5,-316 2733.5,-316 2733.5,-297 2686.5,-297"/>
<text text-anchor="middle" x="2710" y="-304" font-family="Helvetica,sans-Serif" font-size="10.00" fill="#000000">vector</text>
</g>
<!-- Node0&#45;&gt;Node7 -->
<g id="edge7" class="edge">
<title>Node0&#45;&gt;Node7</title>
<path fill="none" stroke="#191970" d="M1996.7355,-385.0114C2175.6317,-375.3613 2546.4648,-352.3831 2672,-322 2674.7916,-321.3243 2677.6464,-320.4771 2680.4751,-319.5291"/>
<polygon fill="#191970" stroke="#191970" points="2681.7209,-322.8001 2689.8628,-316.0207 2679.2703,-316.243 2681.7209,-322.8001"/>
</g>
<!-- Node8 -->
<g id="node9" class="node">
<title>Node8</title>
<g id="a_node9"><a xlink:href="../../dc/d73/Cartesian_8h.html" target="_top" xlink:title="MathUtils/Cartesian.h">
<polygon fill="none" stroke="#000000" points="1109,-297 1109,-316 1231,-316 1231,-297 1109,-297"/>
<text text-anchor="middle" x="1170" y="-304" font-family="Helvetica,sans-Serif" font-size="10.00" fill="#000000">MathUtils/Cartesian.h</text>
</a>
</g>
</g>
<!-- Node0&#45;&gt;Node8 -->
<g id="edge8" class="edge">
<title>Node0&#45;&gt;Node8</title>
<path fill="none" stroke="#191970" d="M1799.4401,-378.6954C1650.8084,-361.6477 1372.781,-329.7585 1241.776,-314.7325"/>
<polygon fill="#191970" stroke="#191970" points="1241.7954,-311.2119 1231.4616,-313.5495 1240.9976,-318.1663 1241.7954,-311.2119"/>
</g>
<!-- Node18 -->
<g id="node19" class="node">
<title>Node18</title>
<g id="a_node19"><a xlink:href="../../d6/d31/DetID_8h.html" target="_top" xlink:title="DetectorsCommonDataFormats\l/DetID.h">
<polygon fill="none" stroke="#000000" points="1896.5,-291.5 1896.5,-321.5 2067.5,-321.5 2067.5,-291.5 1896.5,-291.5"/>
<text text-anchor="start" x="1904.5" y="-309.5" font-family="Helvetica,sans-Serif" font-size="10.00" fill="#000000">DetectorsCommonDataFormats</text>
<text text-anchor="middle" x="1982" y="-298.5" font-family="Helvetica,sans-Serif" font-size="10.00" fill="#000000">/DetID.h</text>
</a>
</g>
</g>
<!-- Node0&#45;&gt;Node18 -->
<g id="edge19" class="edge">
<title>Node0&#45;&gt;Node18</title>
<path fill="none" stroke="#191970" d="M1929.7568,-358.4322C1939.6295,-348.6183 1950.3063,-338.005 1959.4192,-328.9464"/>
<polygon fill="#191970" stroke="#191970" points="1962.0295,-331.2867 1966.6542,-321.7545 1957.0945,-326.3222 1962.0295,-331.2867"/>
</g>
<!-- Node2 -->
<g id="node3" class="node">
<title>Node2</title>
<polygon fill="none" stroke="#bfbfbf" points="0,-230 0,-249 60,-249 60,-230 0,-230"/>
<text text-anchor="middle" x="30" y="-237" font-family="Helvetica,sans-Serif" font-size="10.00" fill="#000000">iostream</text>
</g>
<!-- Node1&#45;&gt;Node2 -->
<g id="edge2" class="edge">
<title>Node1&#45;&gt;Node2</title>
<path fill="none" stroke="#191970" d="M90.8274,-296.9005C79.5447,-286.2535 61.1399,-268.8856 47.5258,-256.0385"/>
<polygon fill="#191970" stroke="#191970" points="49.8288,-253.3994 40.1537,-249.0817 45.0246,-258.4905 49.8288,-253.3994"/>
</g>
<!-- Node3 -->
<g id="node4" class="node">
<title>Node3</title>
<polygon fill="none" stroke="#bfbfbf" points="78,-230 78,-249 124,-249 124,-230 78,-230"/>
<text text-anchor="middle" x="101" y="-237" font-family="Helvetica,sans-Serif" font-size="10.00" fill="#000000">cstdio</text>
</g>
<!-- Node1&#45;&gt;Node3 -->
<g id="edge3" class="edge">
<title>Node1&#45;&gt;Node3</title>
<path fill="none" stroke="#191970" d="M101,-296.9005C101,-287.149 101,-271.7597 101,-259.3695"/>
<polygon fill="#191970" stroke="#191970" points="104.5001,-259.0816 101,-249.0817 97.5001,-259.0817 104.5001,-259.0816"/>
</g>
<!-- Node5 -->
<g id="node6" class="node">
<title>Node5</title>
<polygon fill="none" stroke="#bfbfbf" points="1645.5,-230 1645.5,-249 1704.5,-249 1704.5,-230 1645.5,-230"/>
<text text-anchor="middle" x="1675" y="-237" font-family="Helvetica,sans-Serif" font-size="10.00" fill="#000000">Rtypes.h</text>
</g>
<!-- Node4&#45;&gt;Node5 -->
<g id="edge5" class="edge">
<title>Node4&#45;&gt;Node5</title>
<path fill="none" stroke="#191970" d="M1734.9707,-296.9005C1723.8469,-286.2535 1705.7013,-268.8856 1692.279,-256.0385"/>
<polygon fill="#191970" stroke="#191970" points="1694.655,-253.4678 1685.0107,-249.0817 1689.8148,-258.5247 1694.655,-253.4678"/>
</g>
<!-- Node8&#45;&gt;Node5 -->
<g id="edge16" class="edge">
<title>Node8&#45;&gt;Node5</title>
<path fill="none" stroke="#191970" d="M1231.2375,-304.9436C1321.206,-301.492 1493.8346,-290.4209 1636,-255 1638.7838,-254.3064 1641.6338,-253.4595 1644.4639,-252.5229"/>
<polygon fill="#191970" stroke="#191970" points="1645.6899,-255.8013 1653.8838,-249.0849 1643.2899,-249.2256 1645.6899,-255.8013"/>
</g>
<!-- Node9 -->
<g id="node10" class="node">
<title>Node9</title>
<polygon fill="none" stroke="#bfbfbf" points="142,-224.5 142,-254.5 306,-254.5 306,-224.5 142,-224.5"/>
<text text-anchor="start" x="150" y="-242.5" font-family="Helvetica,sans-Serif" font-size="10.00" fill="#000000">Math/GenVector/Displacement</text>
<text text-anchor="middle" x="224" y="-231.5" font-family="Helvetica,sans-Serif" font-size="10.00" fill="#000000">Vector3D.h</text>
</g>
<!-- Node8&#45;&gt;Node9 -->
<g id="edge9" class="edge">
<title>Node8&#45;&gt;Node9</title>
<path fill="none" stroke="#191970" d="M1108.8959,-305.0954C969.9196,-301.4095 619.3813,-289.3418 316.5814,-255.1021"/>
<polygon fill="#191970" stroke="#191970" points="316.615,-251.5833 306.2826,-253.9268 315.8212,-258.5381 316.615,-251.5833"/>
</g>
<!-- Node10 -->
<g id="node11" class="node">
<title>Node10</title>
<polygon fill="none" stroke="#bfbfbf" points="324.5,-230 324.5,-249 513.5,-249 513.5,-230 324.5,-230"/>
<text text-anchor="middle" x="419" y="-237" font-family="Helvetica,sans-Serif" font-size="10.00" fill="#000000">Math/GenVector/PositionVector3D.h</text>
</g>
<!-- Node8&#45;&gt;Node10 -->
<g id="edge10" class="edge">
<title>Node8&#45;&gt;Node10</title>
<path fill="none" stroke="#191970" d="M1108.7606,-303.0284C993.7458,-296.1971 737.6722,-279.5118 523,-255 511.7075,-253.7106 499.7562,-252.1315 488.1345,-250.48"/>
<polygon fill="#191970" stroke="#191970" points="488.4299,-246.9863 478.0312,-249.0154 487.4256,-253.9139 488.4299,-246.9863"/>
</g>
<!-- Node11 -->
<g id="node12" class="node">
<title>Node11</title>
<polygon fill="none" stroke="#bfbfbf" points="532,-230 532,-249 692,-249 692,-230 532,-230"/>
<text text-anchor="middle" x="612" y="-237" font-family="Helvetica,sans-Serif" font-size="10.00" fill="#000000">Math/GenVector/Rotation3D.h</text>
</g>
<!-- Node8&#45;&gt;Node11 -->
<g id="edge11" class="edge">
<title>Node8&#45;&gt;Node11</title>
<path fill="none" stroke="#191970" d="M1108.7617,-301.0183C1019.0642,-292.7076 846.7796,-275.6772 701,-255 692.1051,-253.7384 682.7348,-252.2653 673.5473,-250.7386"/>
<polygon fill="#191970" stroke="#191970" points="674.1246,-247.2866 663.6807,-249.0683 672.9562,-254.1884 674.1246,-247.2866"/>
</g>
<!-- Node12 -->
<g id="node13" class="node">
<title>Node12</title>
<polygon fill="none" stroke="#bfbfbf" points="710,-230 710,-249 878,-249 878,-230 710,-230"/>
<text text-anchor="middle" x="794" y="-237" font-family="Helvetica,sans-Serif" font-size="10.00" fill="#000000">Math/GenVector/Transform3D.h</text>
</g>
<!-- Node8&#45;&gt;Node12 -->
<g id="edge12" class="edge">
<title>Node8&#45;&gt;Node12</title>
<path fill="none" stroke="#191970" d="M1116.5277,-296.9717C1048.2696,-284.8087 930.3261,-263.7921 857.5511,-250.8243"/>
<polygon fill="#191970" stroke="#191970" points="858.0509,-247.3583 847.5919,-249.0496 856.8228,-254.2497 858.0509,-247.3583"/>
</g>
<!-- Node13 -->
<g id="node14" class="node">
<title>Node13</title>
<polygon fill="none" stroke="#bfbfbf" points="896.5,-230 896.5,-249 1069.5,-249 1069.5,-230 896.5,-230"/>
<text text-anchor="middle" x="983" y="-237" font-family="Helvetica,sans-Serif" font-size="10.00" fill="#000000">Math/GenVector/Translation3D.h</text>
</g>
<!-- Node8&#45;&gt;Node13 -->
<g id="edge13" class="edge">
<title>Node8&#45;&gt;Node13</title>
<path fill="none" stroke="#191970" d="M1143.2075,-296.9005C1110.7137,-285.2584 1055.7919,-265.5805 1019.4625,-252.5641"/>
<polygon fill="#191970" stroke="#191970" points="1020.3374,-249.1598 1009.7428,-249.0817 1017.9763,-255.7496 1020.3374,-249.1598"/>
</g>
<!-- Node14 -->
<g id="node15" class="node">
<title>Node14</title>
<polygon fill="none" stroke="#bfbfbf" points="1088,-224.5 1088,-254.5 1252,-254.5 1252,-224.5 1088,-224.5"/>
<text text-anchor="start" x="1096" y="-242.5" font-family="Helvetica,sans-Serif" font-size="10.00" fill="#000000">Math/GenVector/Displacement</text>
<text text-anchor="middle" x="1170" y="-231.5" font-family="Helvetica,sans-Serif" font-size="10.00" fill="#000000">Vector2D.h</text>
</g>
<!-- Node8&#45;&gt;Node14 -->
<g id="edge14" class="edge">
<title>Node8&#45;&gt;Node14</title>
<path fill="none" stroke="#191970" d="M1170,-296.9005C1170,-288.5099 1170,-275.9451 1170,-264.7085"/>
<polygon fill="#191970" stroke="#191970" points="1173.5001,-264.5217 1170,-254.5218 1166.5001,-264.5218 1173.5001,-264.5217"/>
</g>
<!-- Node15 -->
<g id="node16" class="node">
<title>Node15</title>
<polygon fill="none" stroke="#bfbfbf" points="1270.5,-230 1270.5,-249 1459.5,-249 1459.5,-230 1270.5,-230"/>
<text text-anchor="middle" x="1365" y="-237" font-family="Helvetica,sans-Serif" font-size="10.00" fill="#000000">Math/GenVector/PositionVector2D.h</text>
</g>
<!-- Node8&#45;&gt;Node15 -->
<g id="edge15" class="edge">
<title>Node8&#45;&gt;Node15</title>
<path fill="none" stroke="#191970" d="M1197.9387,-296.9005C1231.9674,-285.2086 1289.5839,-265.4122 1327.4622,-252.3976"/>
<polygon fill="#191970" stroke="#191970" points="1328.7931,-255.6412 1337.1131,-249.0817 1326.5184,-249.0211 1328.7931,-255.6412"/>
</g>
<!-- Node16 -->
<g id="node17" class="node">
<title>Node16</title>
<polygon fill="none" stroke="#bfbfbf" points="1478,-230 1478,-249 1560,-249 1560,-230 1478,-230"/>
<text text-anchor="middle" x="1519" y="-237" font-family="Helvetica,sans-Serif" font-size="10.00" fill="#000000">TGeoMatrix.h</text>
</g>
<!-- Node8&#45;&gt;Node16 -->
<g id="edge17" class="edge">
<title>Node8&#45;&gt;Node16</title>
<path fill="none" stroke="#191970" d="M1231.232,-298.1855C1291.7926,-289.4313 1386.9054,-274.2522 1468,-255 1471.8899,-254.0765 1475.9194,-253.0233 1479.9306,-251.9104"/>
<polygon fill="#191970" stroke="#191970" points="1481.1412,-255.2037 1489.7736,-249.0611 1479.1948,-248.4798 1481.1412,-255.2037"/>
</g>
<!-- Node17 -->
<g id="node18" class="node">
<title>Node17</title>
<polygon fill="none" stroke="#bfbfbf" points="1578.5,-230 1578.5,-249 1627.5,-249 1627.5,-230 1578.5,-230"/>
<text text-anchor="middle" x="1603" y="-237" font-family="Helvetica,sans-Serif" font-size="10.00" fill="#000000">iosfwd</text>
</g>
<!-- Node8&#45;&gt;Node17 -->
<g id="edge18" class="edge">
<title>Node8&#45;&gt;Node17</title>
<path fill="none" stroke="#191970" d="M1231.3004,-304.265C1310.6241,-300.0936 1452.4724,-288.262 1569,-255 1570.965,-254.4391 1572.9612,-253.7816 1574.9512,-253.0597"/>
<polygon fill="#191970" stroke="#191970" points="1576.7569,-256.1017 1584.6759,-249.0631 1574.096,-249.6271 1576.7569,-256.1017"/>
</g>
<!-- Node18&#45;&gt;Node5 -->
<g id="edge20" class="edge">
<title>Node18&#45;&gt;Node5</title>
<path fill="none" stroke="#191970" d="M1896.2908,-292.9619C1844.5234,-283.9841 1777.4694,-270.9325 1719,-255 1716.0477,-254.1955 1713.0085,-253.2909 1709.9723,-252.3332"/>
<polygon fill="#191970" stroke="#191970" points="1710.9884,-248.9827 1700.3949,-249.1512 1708.7813,-255.6257 1710.9884,-248.9827"/>
</g>
<!-- Node18&#45;&gt;Node6 -->
<g id="edge21" class="edge">
<title>Node18&#45;&gt;Node6</title>
<path fill="none" stroke="#191970" d="M2067.6417,-301.5921C2219.4074,-291.0969 2526.605,-261.1821 2601,-188 2613.3281,-175.8729 2617.7859,-156.3035 2619.3341,-141.6166"/>
<polygon fill="#191970" stroke="#191970" points="2622.8326,-141.7596 2620.0331,-131.5413 2615.8493,-141.275 2622.8326,-141.7596"/>
</g>
<!-- Node19 -->
<g id="node20" class="node">
<title>Node19</title>
<polygon fill="none" stroke="#bfbfbf" points="1960,-230 1960,-249 2004,-249 2004,-230 1960,-230"/>
<text text-anchor="middle" x="1982" y="-237" font-family="Helvetica,sans-Serif" font-size="10.00" fill="#000000">bitset</text>
</g>
<!-- Node18&#45;&gt;Node19 -->
<g id="edge22" class="edge">
<title>Node18&#45;&gt;Node19</title>
<path fill="none" stroke="#191970" d="M1982,-291.2967C1982,-281.7699 1982,-269.3954 1982,-259.1306"/>
<polygon fill="#191970" stroke="#191970" points="1985.5001,-259.0549 1982,-249.055 1978.5001,-259.055 1985.5001,-259.0549"/>
</g>
<!-- Node20 -->
<g id="node21" class="node">
<title>Node20</title>
<polygon fill="none" stroke="#bfbfbf" points="1952,-168.5 1952,-187.5 2004,-187.5 2004,-168.5 1952,-168.5"/>
<text text-anchor="middle" x="1978" y="-175.5" font-family="Helvetica,sans-Serif" font-size="10.00" fill="#000000">cassert</text>
</g>
<!-- Node18&#45;&gt;Node20 -->
<g id="edge23" class="edge">
<title>Node18&#45;&gt;Node20</title>
<path fill="none" stroke="#191970" d="M1969.8211,-291.2988C1962.8133,-281.5503 1954.6866,-268.2728 1951,-255 1947.3128,-241.7248 1947.3863,-237.2954 1951,-224 1953.7176,-214.0015 1959.2175,-203.9556 1964.5484,-195.8139"/>
<polygon fill="#191970" stroke="#191970" points="1967.4755,-197.7354 1970.3381,-187.5346 1961.739,-193.7239 1967.4755,-197.7354"/>
</g>
<!-- Node21 -->
<g id="node22" class="node">
<title>Node21</title>
<polygon fill="none" stroke="#bfbfbf" points="1971,-112.5 1971,-131.5 2021,-131.5 2021,-112.5 1971,-112.5"/>
<text text-anchor="middle" x="1996" y="-119.5" font-family="Helvetica,sans-Serif" font-size="10.00" fill="#000000">cstdint</text>
</g>
<!-- Node18&#45;&gt;Node21 -->
<g id="edge24" class="edge">
<title>Node18&#45;&gt;Node21</title>
<path fill="none" stroke="#191970" d="M1994.1789,-291.2988C2001.1867,-281.5503 2009.3134,-268.2728 2013,-255 2023.348,-217.7437 2019.8083,-206.0626 2013,-168 2011.3557,-158.8071 2007.9995,-149.047 2004.7003,-140.8935"/>
<polygon fill="#191970" stroke="#191970" points="2007.8606,-139.3833 2000.6849,-131.5885 2001.4335,-142.1569 2007.8606,-139.3833"/>
</g>
<!-- Node22 -->
<g id="node23" class="node">
<title>Node22</title>
<polygon fill="none" stroke="#bfbfbf" points="2060.5,-230 2060.5,-249 2133.5,-249 2133.5,-230 2060.5,-230"/>
<text text-anchor="middle" x="2097" y="-237" font-family="Helvetica,sans-Serif" font-size="10.00" fill="#000000">string_view</text>
</g>
<!-- Node18&#45;&gt;Node22 -->
<g id="edge25" class="edge">
<title>Node18&#45;&gt;Node22</title>
<path fill="none" stroke="#191970" d="M2007.8082,-291.4639C2026.9299,-280.3234 2052.8517,-265.2212 2071.8218,-254.1691"/>
<polygon fill="#191970" stroke="#191970" points="2073.6371,-257.1622 2080.5157,-249.1039 2070.1132,-251.1138 2073.6371,-257.1622"/>
</g>
<!-- Node23 -->
<g id="node24" class="node">
<title>Node23</title>
<polygon fill="none" stroke="#bfbfbf" points="1288,-168.5 1288,-187.5 1332,-187.5 1332,-168.5 1288,-168.5"/>
<text text-anchor="middle" x="1310" y="-175.5" font-family="Helvetica,sans-Serif" font-size="10.00" fill="#000000">string</text>
</g>
<!-- Node18&#45;&gt;Node23 -->
<g id="edge26" class="edge">
<title>Node18&#45;&gt;Node23</title>
<path fill="none" stroke="#191970" d="M1896.4879,-296.7296C1851.832,-289.3412 1797.224,-276.6199 1752,-255 1732.0233,-245.4499 1733.5292,-232.296 1713,-224 1562.0016,-162.9808 1505.8521,-219.3987 1342.1119,-187.789"/>
<polygon fill="#191970" stroke="#191970" points="1342.691,-184.3354 1332.1969,-185.7935 1341.3098,-191.1978 1342.691,-184.3354"/>
</g>
<!-- Node24 -->
<g id="node25" class="node">
<title>Node24</title>
<polygon fill="none" stroke="#bfbfbf" points="2151.5,-230 2151.5,-249 2220.5,-249 2220.5,-230 2151.5,-230"/>
<text text-anchor="middle" x="2186" y="-237" font-family="Helvetica,sans-Serif" font-size="10.00" fill="#000000">type_traits</text>
</g>
<!-- Node18&#45;&gt;Node24 -->
<g id="edge27" class="edge">
<title>Node18&#45;&gt;Node24</title>
<path fill="none" stroke="#191970" d="M2030.071,-291.4039C2061.9006,-281.3157 2104.53,-267.6276 2142,-255 2144.4176,-254.1853 2146.9064,-253.3363 2149.4123,-252.474"/>
<polygon fill="#191970" stroke="#191970" points="2150.7509,-255.7142 2159.0478,-249.1253 2148.4529,-249.1021 2150.7509,-255.7142"/>
</g>
<!-- Node25 -->
<g id="node26" class="node">
<title>Node25</title>
<g id="a_node26"><a xlink:href="../../d9/d52/Common_2MathUtils_2include_2MathUtils_2Utils_8h.html" target="_top" xlink:title="MathUtils/Utils.h">
<polygon fill="none" stroke="#000000" points="2246,-230 2246,-249 2344,-249 2344,-230 2246,-230"/>
<text text-anchor="middle" x="2295" y="-237" font-family="Helvetica,sans-Serif" font-size="10.00" fill="#000000">MathUtils/Utils.h</text>
</a>
</g>
</g>
<!-- Node18&#45;&gt;Node25 -->
<g id="edge28" class="edge">
<title>Node18&#45;&gt;Node25</title>
<path fill="none" stroke="#191970" d="M2056.4126,-291.492C2105.4915,-281.4686 2171.1586,-267.8199 2229,-255 2234.3147,-253.8221 2239.8632,-252.5638 2245.3877,-251.2928"/>
<polygon fill="#191970" stroke="#191970" points="2246.2992,-254.6744 2255.2499,-249.0056 2244.7177,-247.8553 2246.2992,-254.6744"/>
</g>
<!-- Node37 -->
<g id="node38" class="node">
<title>Node37</title>
<g id="a_node38"><a xlink:href="../../dc/dcd/DataHeader_8h.html" target="_top" xlink:title="Headers/DataHeader.h">
<polygon fill="none" stroke="#000000" points="1761.5,-230 1761.5,-249 1888.5,-249 1888.5,-230 1761.5,-230"/>
<text text-anchor="middle" x="1825" y="-237" font-family="Helvetica,sans-Serif" font-size="10.00" fill="#000000">Headers/DataHeader.h</text>
</a>
</g>
</g>
<!-- Node18&#45;&gt;Node37 -->
<g id="edge45" class="edge">
<title>Node18&#45;&gt;Node37</title>
<path fill="none" stroke="#191970" d="M1946.7661,-291.4639C1919.8302,-279.969 1883.0106,-264.2561 1856.9311,-253.1266"/>
<polygon fill="#191970" stroke="#191970" points="1858.076,-249.8099 1847.5047,-249.1039 1855.3284,-256.2482 1858.076,-249.8099"/>
</g>
<!-- Node26 -->
<g id="node27" class="node">
<title>Node26</title>
<g id="a_node27"><a xlink:href="../../de/def/bitOps_8h.html" target="_top" xlink:title="MathUtils/detail/bitOps.h">
<polygon fill="none" stroke="#000000" points="2060.5,-168.5 2060.5,-187.5 2197.5,-187.5 2197.5,-168.5 2060.5,-168.5"/>
<text text-anchor="middle" x="2129" y="-175.5" font-family="Helvetica,sans-Serif" font-size="10.00" fill="#000000">MathUtils/detail/bitOps.h</text>
</a>
</g>
</g>
<!-- Node25&#45;&gt;Node26 -->
<g id="edge29" class="edge">
<title>Node25&#45;&gt;Node26</title>
<path fill="none" stroke="#191970" d="M2269.0625,-229.8906C2240.9222,-219.4652 2195.8207,-202.7559 2164.4274,-191.1252"/>
<polygon fill="#191970" stroke="#191970" points="2165.3485,-187.734 2154.7554,-187.5419 2162.9166,-194.298 2165.3485,-187.734"/>
</g>
<!-- Node27 -->
<g id="node28" class="node">
<title>Node27</title>
<g id="a_node28"><a xlink:href="../../d3/dfc/StatAccumulator_8h.html" target="_top" xlink:title="MathUtils/detail/StatAccumulator.h">
<polygon fill="none" stroke="#000000" points="2406,-168.5 2406,-187.5 2592,-187.5 2592,-168.5 2406,-168.5"/>
<text text-anchor="middle" x="2499" y="-175.5" font-family="Helvetica,sans-Serif" font-size="10.00" fill="#000000">MathUtils/detail/StatAccumulator.h</text>
</a>
</g>
</g>
<!-- Node25&#45;&gt;Node27 -->
<g id="edge31" class="edge">
<title>Node25&#45;&gt;Node27</title>
<path fill="none" stroke="#191970" d="M2326.875,-229.8906C2362.0559,-219.2846 2418.8088,-202.1753 2457.4515,-190.5257"/>
<polygon fill="#191970" stroke="#191970" points="2458.7847,-193.7794 2467.3488,-187.5419 2456.7642,-187.0773 2458.7847,-193.7794"/>
</g>
<!-- Node29 -->
<g id="node30" class="node">
<title>Node29</title>
<g id="a_node30"><a xlink:href="../../dd/d7d/trigonometric_8h.html" target="_top" xlink:title="MathUtils/detail/trigonometric.h">
<polygon fill="none" stroke="#000000" points="2216,-168.5 2216,-187.5 2388,-187.5 2388,-168.5 2216,-168.5"/>
<text text-anchor="middle" x="2302" y="-175.5" font-family="Helvetica,sans-Serif" font-size="10.00" fill="#000000">MathUtils/detail/trigonometric.h</text>
</a>
</g>
</g>
<!-- Node25&#45;&gt;Node29 -->
<g id="edge33" class="edge">
<title>Node25&#45;&gt;Node29</title>
<path fill="none" stroke="#191970" d="M2296.0938,-229.8906C2297.0641,-221.3657 2298.5126,-208.6392 2299.7323,-197.9235"/>
<polygon fill="#191970" stroke="#191970" points="2303.2374,-198.0766 2300.8908,-187.7449 2296.2823,-197.2849 2303.2374,-198.0766"/>
</g>
<!-- Node26&#45;&gt;Node21 -->
<g id="edge30" class="edge">
<title>Node26&#45;&gt;Node21</title>
<path fill="none" stroke="#191970" d="M2106.1365,-168.3733C2084.595,-159.3032 2052.1162,-145.6279 2028.0044,-135.4755"/>
<polygon fill="#191970" stroke="#191970" points="2029.1397,-132.156 2018.5652,-131.5011 2026.4233,-138.6075 2029.1397,-132.156"/>
</g>
<!-- Node28 -->
<g id="node29" class="node">
<title>Node28</title>
<polygon fill="none" stroke="#bfbfbf" points="2467.5,-112.5 2467.5,-131.5 2508.5,-131.5 2508.5,-112.5 2467.5,-112.5"/>
<text text-anchor="middle" x="2488" y="-119.5" font-family="Helvetica,sans-Serif" font-size="10.00" fill="#000000">tuple</text>
</g>
<!-- Node27&#45;&gt;Node28 -->
<g id="edge32" class="edge">
<title>Node27&#45;&gt;Node28</title>
<path fill="none" stroke="#191970" d="M2497.0839,-168.2455C2495.6486,-160.9382 2493.6364,-150.6944 2491.8705,-141.7046"/>
<polygon fill="#191970" stroke="#191970" points="2495.256,-140.7805 2489.8941,-131.6427 2488.3873,-142.1298 2495.256,-140.7805"/>
</g>
<!-- Node29&#45;&gt;Node6 -->
<g id="edge34" class="edge">
<title>Node29&#45;&gt;Node6</title>
<path fill="none" stroke="#191970" d="M2356.3048,-168.4369C2423.3257,-156.6345 2535.0221,-136.9647 2588.9664,-127.465"/>
<polygon fill="#191970" stroke="#191970" points="2589.7135,-130.8874 2598.9549,-125.7061 2588.4994,-123.9935 2589.7135,-130.8874"/>
</g>
<!-- Node29&#45;&gt;Node28 -->
<g id="edge36" class="edge">
<title>Node29&#45;&gt;Node28</title>
<path fill="none" stroke="#191970" d="M2333.9745,-168.3733C2368.6143,-157.9441 2423.4775,-141.4261 2457.5214,-131.1764"/>
<polygon fill="#191970" stroke="#191970" points="2458.8065,-134.4447 2467.3729,-128.2103 2456.7884,-127.7419 2458.8065,-134.4447"/>
</g>
<!-- Node30 -->
<g id="node31" class="node">
<title>Node30</title>
<polygon fill="none" stroke="#bfbfbf" points="2068.5,-56.5 2068.5,-75.5 2115.5,-75.5 2115.5,-56.5 2068.5,-56.5"/>
<text text-anchor="middle" x="2092" y="-63.5" font-family="Helvetica,sans-Serif" font-size="10.00" fill="#000000">cmath</text>
</g>
<!-- Node29&#45;&gt;Node30 -->
<g id="edge35" class="edge">
<title>Node29&#45;&gt;Node30</title>
<path fill="none" stroke="#191970" d="M2229.947,-168.4906C2165.0895,-159.1923 2078.389,-144.6302 2068,-132 2056.4546,-117.964 2066.4915,-97.8967 2076.8914,-83.5807"/>
<polygon fill="#191970" stroke="#191970" points="2079.8012,-85.5422 2083.224,-75.5155 2074.2955,-81.2193 2079.8012,-85.5422"/>
</g>
<!-- Node31 -->
<g id="node32" class="node">
<title>Node31</title>
<g id="a_node32"><a xlink:href="../../df/d21/GPUCommonDef_8h.html" target="_top" xlink:title="GPUCommonDef.h">
<polygon fill="none" stroke="#000000" points="2277.5,-56.5 2277.5,-75.5 2384.5,-75.5 2384.5,-56.5 2277.5,-56.5"/>
<text text-anchor="middle" x="2331" y="-63.5" font-family="Helvetica,sans-Serif" font-size="10.00" fill="#000000">GPUCommonDef.h</text>
</a>
</g>
</g>
<!-- Node29&#45;&gt;Node31 -->
<g id="edge37" class="edge">
<title>Node29&#45;&gt;Node31</title>
<path fill="none" stroke="#191970" d="M2358.6366,-168.4697C2379.653,-161.8875 2401.4176,-150.77 2414,-132 2429.1963,-109.3306 2398.9613,-90.7842 2370.8152,-79.1874"/>
<polygon fill="#191970" stroke="#191970" points="2372.0071,-75.8956 2361.4188,-75.5251 2369.465,-82.4177 2372.0071,-75.8956"/>
</g>
<!-- Node34 -->
<g id="node35" class="node">
<title>Node34</title>
<g id="a_node35"><a xlink:href="../../d6/da2/GPUCommonMath_8h.html" target="_top" xlink:title="GPUCommonMath.h">
<polygon fill="none" stroke="#000000" points="2077.5,-112.5 2077.5,-131.5 2192.5,-131.5 2192.5,-112.5 2077.5,-112.5"/>
<text text-anchor="middle" x="2135" y="-119.5" font-family="Helvetica,sans-Serif" font-size="10.00" fill="#000000">GPUCommonMath.h</text>
</a>
</g>
</g>
<!-- Node29&#45;&gt;Node34 -->
<g id="edge40" class="edge">
<title>Node29&#45;&gt;Node34</title>
<path fill="none" stroke="#191970" d="M2273.2917,-168.3733C2245.6423,-159.1016 2203.6424,-145.0178 2173.1834,-134.804"/>
<polygon fill="#191970" stroke="#191970" points="2173.9276,-131.3621 2163.3337,-131.5011 2171.7021,-137.9989 2173.9276,-131.3621"/>
</g>
<!-- Node36 -->
<g id="node37" class="node">
<title>Node36</title>
<g id="a_node37"><a xlink:href="../../d6/d84/MathConstants_8h.html" target="_top" xlink:title="useful math constants ">
<polygon fill="none" stroke="#000000" points="2211,-112.5 2211,-131.5 2405,-131.5 2405,-112.5 2211,-112.5"/>
<text text-anchor="middle" x="2308" y="-119.5" font-family="Helvetica,sans-Serif" font-size="10.00" fill="#000000">CommonConstants/MathConstants.h</text>
</a>
</g>
</g>
<!-- Node29&#45;&gt;Node36 -->
<g id="edge44" class="edge">
<title>Node29&#45;&gt;Node36</title>
<path fill="none" stroke="#191970" d="M2303.0451,-168.2455C2303.828,-160.9382 2304.9256,-150.6944 2305.8888,-141.7046"/>
<polygon fill="#191970" stroke="#191970" points="2309.3815,-141.9587 2306.9669,-131.6427 2302.4214,-141.2129 2309.3815,-141.9587"/>
</g>
<!-- Node32 -->
<g id="node33" class="node">
<title>Node32</title>
<g id="a_node33"><a xlink:href="../../d5/d93/GPUCommonDefSettings_8h.html" target="_top" xlink:title="GPUCommonDefSettings.h">
<polygon fill="none" stroke="#000000" points="2180,-.5 2180,-19.5 2328,-19.5 2328,-.5 2180,-.5"/>
<text text-anchor="middle" x="2254" y="-7.5" font-family="Helvetica,sans-Serif" font-size="10.00" fill="#000000">GPUCommonDefSettings.h</text>
</a>
</g>
</g>
<!-- Node31&#45;&gt;Node32 -->
<g id="edge38" class="edge">
<title>Node31&#45;&gt;Node32</title>
<path fill="none" stroke="#191970" d="M2317.5876,-56.2455C2305.9943,-47.814 2289.0252,-35.4729 2275.5322,-25.6598"/>
<polygon fill="#191970" stroke="#191970" points="2277.4047,-22.6938 2267.2587,-19.6427 2273.2874,-28.355 2277.4047,-22.6938"/>
</g>
<!-- Node33 -->
<g id="node34" class="node">
<title>Node33</title>
<g id="a_node34"><a xlink:href="../../da/d5a/GPUCommonDefAPI_8h.html" target="_top" xlink:title="GPUCommonDefAPI.h">
<polygon fill="none" stroke="#000000" points="2346,-.5 2346,-19.5 2470,-19.5 2470,-.5 2346,-.5"/>
<text text-anchor="middle" x="2408" y="-7.5" font-family="Helvetica,sans-Serif" font-size="10.00" fill="#000000">GPUCommonDefAPI.h</text>
</a>
</g>
</g>
<!-- Node31&#45;&gt;Node33 -->
<g id="edge39" class="edge">
<title>Node31&#45;&gt;Node33</title>
<path fill="none" stroke="#191970" d="M2344.4124,-56.2455C2356.0057,-47.814 2372.9748,-35.4729 2386.4678,-25.6598"/>
<polygon fill="#191970" stroke="#191970" points="2388.7126,-28.355 2394.7413,-19.6427 2384.5953,-22.6938 2388.7126,-28.355"/>
</g>
<!-- Node34&#45;&gt;Node30 -->
<g id="edge42" class="edge">
<title>Node34&#45;&gt;Node30</title>
<path fill="none" stroke="#191970" d="M2127.51,-112.2455C2121.4674,-104.3761 2112.8097,-93.101 2105.5559,-83.6542"/>
<polygon fill="#191970" stroke="#191970" points="2108.2705,-81.4426 2099.4042,-75.6427 2102.7185,-85.7058 2108.2705,-81.4426"/>
</g>
<!-- Node34&#45;&gt;Node31 -->
<g id="edge41" class="edge">
<title>Node34&#45;&gt;Node31</title>
<path fill="none" stroke="#191970" d="M2168.6936,-112.3733C2201.7087,-102.9404 2252.1573,-88.5265 2288.0386,-78.2747"/>
<polygon fill="#191970" stroke="#191970" points="2289.0924,-81.6137 2297.7461,-75.5011 2287.1693,-74.8831 2289.0924,-81.6137"/>
</g>
<!-- Node35 -->
<g id="node36" class="node">
<title>Node35</title>
<polygon fill="none" stroke="#bfbfbf" points="1831,-56.5 1831,-75.5 1895,-75.5 1895,-56.5 1831,-56.5"/>
<text text-anchor="middle" x="1863" y="-63.5" font-family="Helvetica,sans-Serif" font-size="10.00" fill="#000000">algorithm</text>
</g>
<!-- Node34&#45;&gt;Node35 -->
<g id="edge43" class="edge">
<title>Node34&#45;&gt;Node35</title>
<path fill="none" stroke="#191970" d="M2088.5506,-112.4369C2037.1297,-101.8502 1954.9628,-84.9335 1905.28,-74.7047"/>
<polygon fill="#191970" stroke="#191970" points="1905.6944,-71.2167 1895.194,-72.6282 1904.2828,-78.0729 1905.6944,-71.2167"/>
</g>
<!-- Node37&#45;&gt;Node20 -->
<g id="edge48" class="edge">
<title>Node37&#45;&gt;Node20</title>
<path fill="none" stroke="#191970" d="M1848.9063,-229.8906C1874.7305,-219.5103 1916.0527,-202.9004 1944.9705,-191.2766"/>
<polygon fill="#191970" stroke="#191970" points="1946.2885,-194.519 1954.2616,-187.5419 1943.6778,-188.0241 1946.2885,-194.519"/>
</g>
<!-- Node37&#45;&gt;Node21 -->
<g id="edge46" class="edge">
<title>Node37&#45;&gt;Node21</title>
<path fill="none" stroke="#191970" d="M1785.0624,-229.9905C1744.3618,-218.4533 1690.4453,-196.9011 1715,-168 1730.755,-149.4562 1888.496,-132.2264 1960.4972,-125.2586"/>
<polygon fill="#191970" stroke="#191970" points="1961.2549,-128.7023 1970.8771,-124.2679 1960.5897,-121.734 1961.2549,-128.7023"/>
</g>
<!-- Node37&#45;&gt;Node23 -->
<g id="edge52" class="edge">
<title>Node37&#45;&gt;Node23</title>
<path fill="none" stroke="#191970" d="M1781.4135,-229.9774C1770.2371,-227.7729 1758.2069,-225.6056 1747,-224 1570.9183,-198.773 1520.351,-223.1194 1342.1592,-187.8249"/>
<polygon fill="#191970" stroke="#191970" points="1342.6869,-184.361 1332.1924,-185.8156 1341.3035,-191.2229 1342.6869,-184.361"/>
</g>
<!-- Node37&#45;&gt;Node35 -->
<g id="edge50" class="edge">
<title>Node37&#45;&gt;Node35</title>
<path fill="none" stroke="#191970" d="M1773.7351,-229.9145C1733.581,-219.7591 1687.2514,-200.5838 1705,-168 1729.8027,-122.466 1784.6359,-94.1731 1822.6962,-79.2532"/>
<polygon fill="#191970" stroke="#191970" points="1824.3417,-82.3734 1832.4644,-75.571 1821.8726,-75.8233 1824.3417,-82.3734"/>
</g>
<!-- Node38 -->
<g id="node39" class="node">
<title>Node38</title>
<polygon fill="none" stroke="#bfbfbf" points="1724,-168.5 1724,-187.5 1782,-187.5 1782,-168.5 1724,-168.5"/>
<text text-anchor="middle" x="1753" y="-175.5" font-family="Helvetica,sans-Serif" font-size="10.00" fill="#000000">memory</text>
</g>
<!-- Node37&#45;&gt;Node38 -->
<g id="edge47" class="edge">
<title>Node37&#45;&gt;Node38</title>
<path fill="none" stroke="#191970" d="M1813.75,-229.8906C1802.614,-220.3786 1785.354,-205.6357 1772.0732,-194.2917"/>
<polygon fill="#191970" stroke="#191970" points="1774.2856,-191.5784 1764.4086,-187.7449 1769.7392,-196.9011 1774.2856,-191.5784"/>
</g>
<!-- Node39 -->
<g id="node40" class="node">
<title>Node39</title>
<polygon fill="none" stroke="#bfbfbf" points="1800,-168.5 1800,-187.5 1850,-187.5 1850,-168.5 1800,-168.5"/>
<text text-anchor="middle" x="1825" y="-175.5" font-family="Helvetica,sans-Serif" font-size="10.00" fill="#000000">cstring</text>
</g>
<!-- Node37&#45;&gt;Node39 -->
<g id="edge49" class="edge">
<title>Node37&#45;&gt;Node39</title>
<path fill="none" stroke="#191970" d="M1825,-229.8906C1825,-221.3657 1825,-208.6392 1825,-197.9235"/>
<polygon fill="#191970" stroke="#191970" points="1828.5001,-197.7448 1825,-187.7449 1821.5001,-197.7449 1828.5001,-197.7448"/>
</g>
<!-- Node40 -->
<g id="node41" class="node">
<title>Node40</title>
<polygon fill="none" stroke="#bfbfbf" points="1868.5,-168.5 1868.5,-187.5 1933.5,-187.5 1933.5,-168.5 1868.5,-168.5"/>
<text text-anchor="middle" x="1901" y="-175.5" font-family="Helvetica,sans-Serif" font-size="10.00" fill="#000000">stdexcept</text>
</g>
<!-- Node37&#45;&gt;Node40 -->
<g id="edge51" class="edge">
<title>Node37&#45;&gt;Node40</title>
<path fill="none" stroke="#191970" d="M1836.875,-229.8906C1848.6297,-220.3786 1866.8486,-205.6357 1880.8672,-194.2917"/>
<polygon fill="#191970" stroke="#191970" points="1883.3856,-196.7562 1888.9576,-187.7449 1878.9822,-191.3146 1883.3856,-196.7562"/>
</g>
<!-- Node41 -->
<g id="node42" class="node">
<title>Node41</title>
<polygon fill="none" stroke="#bfbfbf" points="1350,-168.5 1350,-187.5 1400,-187.5 1400,-168.5 1350,-168.5"/>
<text text-anchor="middle" x="1375" y="-175.5" font-family="Helvetica,sans-Serif" font-size="10.00" fill="#000000">climits</text>
</g>
<!-- Node37&#45;&gt;Node41 -->
<g id="edge53" class="edge">
<title>Node37&#45;&gt;Node41</title>
<path fill="none" stroke="#191970" d="M1780.574,-229.953C1769.6312,-227.8003 1757.9193,-225.663 1747,-224 1600.8589,-201.7431 1558.9664,-216.7556 1410.0887,-187.9024"/>
<polygon fill="#191970" stroke="#191970" points="1410.6136,-184.4386 1400.1254,-185.9376 1409.2592,-191.3063 1410.6136,-184.4386"/>
</g>
<!-- Node42 -->
<g id="node43" class="node">
<title>Node42</title>
<g id="a_node43"><a xlink:href="../../d7/df8/Types_8h.html" target="_top" xlink:title="MemoryResources/Types.h">
<polygon fill="none" stroke="#000000" points="1418,-168.5 1418,-187.5 1564,-187.5 1564,-168.5 1418,-168.5"/>
<text text-anchor="middle" x="1491" y="-175.5" font-family="Helvetica,sans-Serif" font-size="10.00" fill="#000000">MemoryResources/Types.h</text>
</a>
</g>
</g>
<!-- Node37&#45;&gt;Node42 -->
<g id="edge54" class="edge">
<title>Node37&#45;&gt;Node42</title>
<path fill="none" stroke="#191970" d="M1777.5917,-229.9344C1767.5008,-227.9389 1756.903,-225.8735 1747,-224 1682.11,-211.7237 1607.8109,-198.461 1556.0315,-189.3455"/>
<polygon fill="#191970" stroke="#191970" points="1556.4404,-185.8638 1545.9854,-187.5792 1555.2282,-192.758 1556.4404,-185.8638"/>
</g>
<!-- Node43 -->
<g id="node44" class="node">
<title>Node43</title>
<polygon fill="none" stroke="#bfbfbf" points="1582.5,-168.5 1582.5,-187.5 1629.5,-187.5 1629.5,-168.5 1582.5,-168.5"/>
<text text-anchor="middle" x="1606" y="-175.5" font-family="Helvetica,sans-Serif" font-size="10.00" fill="#000000">cerrno</text>
</g>
<!-- Node37&#45;&gt;Node43 -->
<g id="edge55" class="edge">
<title>Node37&#45;&gt;Node43</title>
<path fill="none" stroke="#191970" d="M1790.7813,-229.8906C1749.4149,-218.274 1680.2668,-198.8557 1639.3116,-187.3546"/>
<polygon fill="#191970" stroke="#191970" points="1640.1147,-183.9448 1629.5408,-184.6108 1638.2221,-190.6841 1640.1147,-183.9448"/>
</g>
</g>
</svg>
