<?xml version="1.0" encoding="UTF-8" standalone="no"?>
<!DOCTYPE svg PUBLIC "-//W3C//DTD SVG 1.1//EN"
 "http://www.w3.org/Graphics/SVG/1.1/DTD/svg11.dtd">
<!-- Generated by graphviz version 2.40.1 (20161225.0304)
 -->
<!-- Title: /home/travis/build/AliceO2Group/AliceO2/DataFormats/Reconstruction/src/TrackFwd.cxx Pages: 1 -->
<!--zoomable 408 -->
<svg id="main" version="1.1" xmlns="http://www.w3.org/2000/svg" xmlns:xlink="http://www.w3.org/1999/xlink" xml:space="preserve" onload="init(evt)">
<style type="text/css"><![CDATA[
.edge:hover path { stroke: red; }
.edge:hover polygon { stroke: red; fill: red; }
]]></style>
<script type="text/javascript"><![CDATA[
var edges = document.getElementsByTagName('g');
if (edges && edges.length) {
  for (var i=0;i<edges.length;i++) {
    if (edges[i].id.substr(0,4)=='edge') {
      edges[i].setAttribute('class','edge');
    }
  }
}
]]></script>
        <defs>
                <circle id="rim" cx="0" cy="0" r="7"/>
                <circle id="rim2" cx="0" cy="0" r="3.5"/>
                <g id="zoomPlus">
                        <use xlink:href="#rim" fill="#404040">
                                <set attributeName="fill" to="#808080" begin="zoomplus.mouseover" end="zoomplus.mouseout"/>
                        </use>
                        <path d="M-4,0h8M0,-4v8" fill="none" stroke="white" stroke-width="1.5" pointer-events="none"/>
                </g>
                <g id="zoomMin">
                        <use xlink:href="#rim" fill="#404040">
                                <set attributeName="fill" to="#808080" begin="zoomminus.mouseover" end="zoomminus.mouseout"/>
                        </use>
                        <path d="M-4,0h8" fill="none" stroke="white" stroke-width="1.5" pointer-events="none"/>
                </g>
                <g id="dirArrow">
                        <path fill="none" stroke="white" stroke-width="1.5" d="M0,-3.0v7 M-2.5,-0.5L0,-3.0L2.5,-0.5"/>
                </g>
               <g id="resetDef">
                       <use xlink:href="#rim2" fill="#404040">
                               <set attributeName="fill" to="#808080" begin="reset.mouseover" end="reset.mouseout"/>
                       </use>
               </g>
        </defs>

<script type="text/javascript">
var viewWidth = 737;
var viewHeight = 408;
var sectionId = 'dynsection-0';
</script>
<script xlink:href="../../svgpan.js"/>
<svg id="graph" class="graph">
<g id="viewport">
<title>/home/travis/build/AliceO2Group/AliceO2/DataFormats/Reconstruction/src/TrackFwd.cxx</title>
<!-- Node0 -->
<g id="node1" class="node">
<title>Node0</title>
<polygon fill="#bfbfbf" stroke="#000000" points="137.5,-347.5 137.5,-399.5 295.5,-399.5 295.5,-347.5 137.5,-347.5"/>
<text text-anchor="start" x="145.5" y="-387.5" font-family="Helvetica,sans-Serif" font-size="10.00" fill="#000000">/home/travis/build</text>
<text text-anchor="start" x="145.5" y="-376.5" font-family="Helvetica,sans-Serif" font-size="10.00" fill="#000000">/AliceO2Group/AliceO2</text>
<text text-anchor="start" x="145.5" y="-365.5" font-family="Helvetica,sans-Serif" font-size="10.00" fill="#000000">/DataFormats/Reconstruction</text>
<text text-anchor="middle" x="216.5" y="-354.5" font-family="Helvetica,sans-Serif" font-size="10.00" fill="#000000">/src/TrackFwd.cxx</text>
</g>
<!-- Node1 -->
<g id="node2" class="node">
<title>Node1</title>
<g id="a_node2"><a xlink:href="../../d7/df7/TrackFwd_8h.html" target="_top" xlink:title="Base forward track model, params only, w/o covariance. ">
<polygon fill="none" stroke="#000000" points="61.5,-280.5 61.5,-310.5 213.5,-310.5 213.5,-280.5 61.5,-280.5"/>
<text text-anchor="start" x="69.5" y="-298.5" font-family="Helvetica,sans-Serif" font-size="10.00" fill="#000000">ReconstructionDataFormats</text>
<text text-anchor="middle" x="137.5" y="-287.5" font-family="Helvetica,sans-Serif" font-size="10.00" fill="#000000">/TrackFwd.h</text>
</a>
</g>
</g>
<!-- Node0&#45;&gt;Node1 -->
<g id="edge1" class="edge">
<title>Node0&#45;&gt;Node1</title>
<path fill="none" stroke="#191970" d="M189.7542,-347.0928C180.1022,-337.563 169.3121,-326.9094 160.0544,-317.7689"/>
<polygon fill="#191970" stroke="#191970" points="162.272,-315.0399 152.6969,-310.5046 157.3538,-320.0211 162.272,-315.0399"/>
</g>
<!-- Node18 -->
<g id="node19" class="node">
<title>Node18</title>
<polygon fill="none" stroke="#bfbfbf" points="232,-286 232,-305 361,-305 361,-286 232,-286"/>
<text text-anchor="middle" x="296.5" y="-293" font-family="Helvetica,sans-Serif" font-size="10.00" fill="#000000">Math/MatrixFunctions.h</text>
</g>
<!-- Node0&#45;&gt;Node18 -->
<g id="edge21" class="edge">
<title>Node0&#45;&gt;Node18</title>
<path fill="none" stroke="#191970" d="M243.5844,-347.0928C255.4323,-335.541 268.9738,-322.338 279.3921,-312.1802"/>
<polygon fill="#191970" stroke="#191970" points="281.9537,-314.5709 286.6704,-305.0839 277.067,-309.5589 281.9537,-314.5709"/>
</g>
<!-- Node2 -->
<g id="node3" class="node">
<title>Node2</title>
<polygon fill="none" stroke="#bfbfbf" points="18.5,-224.5 18.5,-243.5 74.5,-243.5 74.5,-224.5 18.5,-224.5"/>
<text text-anchor="middle" x="46.5" y="-231.5" font-family="Helvetica,sans-Serif" font-size="10.00" fill="#000000">TMath.h</text>
</g>
<!-- Node1&#45;&gt;Node2 -->
<g id="edge2" class="edge">
<title>Node1&#45;&gt;Node2</title>
<path fill="none" stroke="#191970" d="M115.0056,-280.2977C101.1033,-270.9022 83.3124,-258.8787 69.3454,-249.4395"/>
<polygon fill="#191970" stroke="#191970" points="71.0436,-246.3629 60.7985,-243.6633 67.124,-252.1626 71.0436,-246.3629"/>
</g>
<!-- Node3 -->
<g id="node4" class="node">
<title>Node3</title>
<polygon fill="none" stroke="#bfbfbf" points="93,-224.5 93,-243.5 182,-243.5 182,-224.5 93,-224.5"/>
<text text-anchor="middle" x="137.5" y="-231.5" font-family="Helvetica,sans-Serif" font-size="10.00" fill="#000000">Math/SMatrix.h</text>
</g>
<!-- Node1&#45;&gt;Node3 -->
<g id="edge3" class="edge">
<title>Node1&#45;&gt;Node3</title>
<path fill="none" stroke="#191970" d="M137.5,-280.2977C137.5,-272.3834 137.5,-262.6043 137.5,-254.0759"/>
<polygon fill="#191970" stroke="#191970" points="141.0001,-253.8469 137.5,-243.8469 134.0001,-253.847 141.0001,-253.8469"/>
</g>
<!-- Node4 -->
<g id="node5" class="node">
<title>Node4</title>
<g id="a_node5"><a xlink:href="../../d9/d52/Common_2MathUtils_2include_2MathUtils_2Utils_8h.html" target="_top" xlink:title="MathUtils/Utils.h">
<polygon fill="none" stroke="#000000" points="199.5,-224.5 199.5,-243.5 297.5,-243.5 297.5,-224.5 199.5,-224.5"/>
<text text-anchor="middle" x="248.5" y="-231.5" font-family="Helvetica,sans-Serif" font-size="10.00" fill="#000000">MathUtils/Utils.h</text>
</a>
</g>
</g>
<!-- Node1&#45;&gt;Node4 -->
<g id="edge4" class="edge">
<title>Node1&#45;&gt;Node4</title>
<path fill="none" stroke="#191970" d="M164.6537,-280.4554C182.1995,-270.734 204.9122,-258.15 222.2721,-248.5317"/>
<polygon fill="#191970" stroke="#191970" points="224.248,-251.4383 231.2989,-243.5303 220.8555,-245.3153 224.248,-251.4383"/>
</g>
<!-- Node5 -->
<g id="node6" class="node">
<title>Node5</title>
<g id="a_node6"><a xlink:href="../../de/def/bitOps_8h.html" target="_top" xlink:title="MathUtils/detail/bitOps.h">
<polygon fill="none" stroke="#000000" points="0,-168.5 0,-187.5 137,-187.5 137,-168.5 0,-168.5"/>
<text text-anchor="middle" x="68.5" y="-175.5" font-family="Helvetica,sans-Serif" font-size="10.00" fill="#000000">MathUtils/detail/bitOps.h</text>
</a>
</g>
</g>
<!-- Node4&#45;&gt;Node5 -->
<g id="edge5" class="edge">
<title>Node4&#45;&gt;Node5</title>
<path fill="none" stroke="#191970" d="M217.5569,-224.3733C187.4961,-215.021 141.6974,-200.7725 108.8022,-190.5385"/>
<polygon fill="#191970" stroke="#191970" points="109.6277,-187.1299 99.0393,-187.5011 107.5481,-193.8139 109.6277,-187.1299"/>
</g>
<!-- Node7 -->
<g id="node8" class="node">
<title>Node7</title>
<g id="a_node8"><a xlink:href="../../d3/dfc/StatAccumulator_8h.html" target="_top" xlink:title="MathUtils/detail/StatAccumulator.h">
<polygon fill="none" stroke="#000000" points="155.5,-168.5 155.5,-187.5 341.5,-187.5 341.5,-168.5 155.5,-168.5"/>
<text text-anchor="middle" x="248.5" y="-175.5" font-family="Helvetica,sans-Serif" font-size="10.00" fill="#000000">MathUtils/detail/StatAccumulator.h</text>
</a>
</g>
</g>
<!-- Node4&#45;&gt;Node7 -->
<g id="edge7" class="edge">
<title>Node4&#45;&gt;Node7</title>
<path fill="none" stroke="#191970" d="M248.5,-224.2455C248.5,-216.9382 248.5,-206.6944 248.5,-197.7046"/>
<polygon fill="#191970" stroke="#191970" points="252.0001,-197.6426 248.5,-187.6427 245.0001,-197.6427 252.0001,-197.6426"/>
</g>
<!-- Node9 -->
<g id="node10" class="node">
<title>Node9</title>
<g id="a_node10"><a xlink:href="../../dd/d7d/trigonometric_8h.html" target="_top" xlink:title="MathUtils/detail/trigonometric.h">
<polygon fill="none" stroke="#000000" points="359.5,-168.5 359.5,-187.5 531.5,-187.5 531.5,-168.5 359.5,-168.5"/>
<text text-anchor="middle" x="445.5" y="-175.5" font-family="Helvetica,sans-Serif" font-size="10.00" fill="#000000">MathUtils/detail/trigonometric.h</text>
</a>
</g>
</g>
<!-- Node4&#45;&gt;Node9 -->
<g id="edge9" class="edge">
<title>Node4&#45;&gt;Node9</title>
<path fill="none" stroke="#191970" d="M282.3655,-224.3733C315.549,-214.9404 366.255,-200.5265 402.3194,-190.2747"/>
<polygon fill="#191970" stroke="#191970" points="403.4145,-193.6021 412.0764,-187.5011 401.5005,-186.8689 403.4145,-193.6021"/>
</g>
<!-- Node6 -->
<g id="node7" class="node">
<title>Node6</title>
<polygon fill="none" stroke="#bfbfbf" points="43.5,-112.5 43.5,-131.5 93.5,-131.5 93.5,-112.5 43.5,-112.5"/>
<text text-anchor="middle" x="68.5" y="-119.5" font-family="Helvetica,sans-Serif" font-size="10.00" fill="#000000">cstdint</text>
</g>
<!-- Node5&#45;&gt;Node6 -->
<g id="edge6" class="edge">
<title>Node5&#45;&gt;Node6</title>
<path fill="none" stroke="#191970" d="M68.5,-168.2455C68.5,-160.9382 68.5,-150.6944 68.5,-141.7046"/>
<polygon fill="#191970" stroke="#191970" points="72.0001,-141.6426 68.5,-131.6427 65.0001,-141.6427 72.0001,-141.6426"/>
</g>
<!-- Node8 -->
<g id="node9" class="node">
<title>Node8</title>
<polygon fill="none" stroke="#bfbfbf" points="228,-112.5 228,-131.5 269,-131.5 269,-112.5 228,-112.5"/>
<text text-anchor="middle" x="248.5" y="-119.5" font-family="Helvetica,sans-Serif" font-size="10.00" fill="#000000">tuple</text>
</g>
<!-- Node7&#45;&gt;Node8 -->
<g id="edge8" class="edge">
<title>Node7&#45;&gt;Node8</title>
<path fill="none" stroke="#191970" d="M248.5,-168.2455C248.5,-160.9382 248.5,-150.6944 248.5,-141.7046"/>
<polygon fill="#191970" stroke="#191970" points="252.0001,-141.6426 248.5,-131.6427 245.0001,-141.6427 252.0001,-141.6426"/>
</g>
<!-- Node9&#45;&gt;Node8 -->
<g id="edge12" class="edge">
<title>Node9&#45;&gt;Node8</title>
<path fill="none" stroke="#191970" d="M411.6753,-168.4128C378.8991,-159.1187 327.7866,-144.6143 283.5,-132 282.0565,-131.5889 280.5796,-131.1679 279.088,-130.7426"/>
<polygon fill="#191970" stroke="#191970" points="279.8031,-127.307 269.2265,-127.9279 277.8819,-134.0382 279.8031,-127.307"/>
</g>
<!-- Node10 -->
<g id="node11" class="node">
<title>Node10</title>
<polygon fill="none" stroke="#bfbfbf" points="671.5,-112.5 671.5,-131.5 713.5,-131.5 713.5,-112.5 671.5,-112.5"/>
<text text-anchor="middle" x="692.5" y="-119.5" font-family="Helvetica,sans-Serif" font-size="10.00" fill="#000000">array</text>
</g>
<!-- Node9&#45;&gt;Node10 -->
<g id="edge10" class="edge">
<title>Node9&#45;&gt;Node10</title>
<path fill="none" stroke="#191970" d="M498.5177,-168.4951C540.4568,-160.584 600.6357,-148.366 661.5116,-132.0539"/>
<polygon fill="#191970" stroke="#191970" points="662.5513,-135.3984 671.2851,-129.4008 660.7174,-128.6429 662.5513,-135.3984"/>
</g>
<!-- Node11 -->
<g id="node12" class="node">
<title>Node11</title>
<polygon fill="none" stroke="#bfbfbf" points="585,-56.5 585,-75.5 632,-75.5 632,-56.5 585,-56.5"/>
<text text-anchor="middle" x="608.5" y="-63.5" font-family="Helvetica,sans-Serif" font-size="10.00" fill="#000000">cmath</text>
</g>
<!-- Node9&#45;&gt;Node11 -->
<g id="edge11" class="edge">
<title>Node9&#45;&gt;Node11</title>
<path fill="none" stroke="#191970" d="M531.8207,-169.2724C608.4244,-160.6349 710.1083,-146.6192 722.5,-132 748.5922,-101.2174 684.5563,-81.5139 642.2401,-72.241"/>
<polygon fill="#191970" stroke="#191970" points="642.783,-68.7789 632.2785,-70.1597 641.3513,-75.631 642.783,-68.7789"/>
</g>
<!-- Node12 -->
<g id="node13" class="node">
<title>Node12</title>
<g id="a_node13"><a xlink:href="../../df/d21/GPUCommonDef_8h.html" target="_top" xlink:title="GPUCommonDef.h">
<polygon fill="none" stroke="#000000" points="244,-56.5 244,-75.5 351,-75.5 351,-56.5 244,-56.5"/>
<text text-anchor="middle" x="297.5" y="-63.5" font-family="Helvetica,sans-Serif" font-size="10.00" fill="#000000">GPUCommonDef.h</text>
</a>
</g>
</g>
<!-- Node9&#45;&gt;Node12 -->
<g id="edge13" class="edge">
<title>Node9&#45;&gt;Node12</title>
<path fill="none" stroke="#191970" d="M383.6373,-168.4176C359.7911,-161.8252 334.0843,-150.7141 316.5,-132 304.7884,-119.5359 300.2361,-100.3192 298.497,-85.8298"/>
<polygon fill="#191970" stroke="#191970" points="301.9839,-85.5262 297.6435,-75.8613 295.0094,-86.1235 301.9839,-85.5262"/>
</g>
<!-- Node15 -->
<g id="node16" class="node">
<title>Node15</title>
<g id="a_node16"><a xlink:href="../../d6/da2/GPUCommonMath_8h.html" target="_top" xlink:title="GPUCommonMath.h">
<polygon fill="none" stroke="#000000" points="326,-112.5 326,-131.5 441,-131.5 441,-112.5 326,-112.5"/>
<text text-anchor="middle" x="383.5" y="-119.5" font-family="Helvetica,sans-Serif" font-size="10.00" fill="#000000">GPUCommonMath.h</text>
</a>
</g>
</g>
<!-- Node9&#45;&gt;Node15 -->
<g id="edge16" class="edge">
<title>Node9&#45;&gt;Node15</title>
<path fill="none" stroke="#191970" d="M434.7004,-168.2455C425.6322,-160.0549 412.4794,-148.1749 401.7755,-138.5069"/>
<polygon fill="#191970" stroke="#191970" points="403.9429,-135.7482 394.1758,-131.6427 399.2509,-140.9429 403.9429,-135.7482"/>
</g>
<!-- Node17 -->
<g id="node18" class="node">
<title>Node17</title>
<g id="a_node18"><a xlink:href="../../d6/d84/MathConstants_8h.html" target="_top" xlink:title="useful math constants ">
<polygon fill="none" stroke="#000000" points="459.5,-112.5 459.5,-131.5 653.5,-131.5 653.5,-112.5 459.5,-112.5"/>
<text text-anchor="middle" x="556.5" y="-119.5" font-family="Helvetica,sans-Serif" font-size="10.00" fill="#000000">CommonConstants/MathConstants.h</text>
</a>
</g>
</g>
<!-- Node9&#45;&gt;Node17 -->
<g id="edge20" class="edge">
<title>Node9&#45;&gt;Node17</title>
<path fill="none" stroke="#191970" d="M464.5816,-168.3733C482.2402,-159.4644 508.7053,-146.1127 528.7098,-136.0203"/>
<polygon fill="#191970" stroke="#191970" points="530.3158,-139.1303 537.6674,-131.5011 527.1628,-132.8806 530.3158,-139.1303"/>
</g>
<!-- Node13 -->
<g id="node14" class="node">
<title>Node13</title>
<g id="a_node14"><a xlink:href="../../d5/d93/GPUCommonDefSettings_8h.html" target="_top" xlink:title="GPUCommonDefSettings.h">
<polygon fill="none" stroke="#000000" points="146.5,-.5 146.5,-19.5 294.5,-19.5 294.5,-.5 146.5,-.5"/>
<text text-anchor="middle" x="220.5" y="-7.5" font-family="Helvetica,sans-Serif" font-size="10.00" fill="#000000">GPUCommonDefSettings.h</text>
</a>
</g>
</g>
<!-- Node12&#45;&gt;Node13 -->
<g id="edge14" class="edge">
<title>Node12&#45;&gt;Node13</title>
<path fill="none" stroke="#191970" d="M284.0876,-56.2455C272.4943,-47.814 255.5252,-35.4729 242.0322,-25.6598"/>
<polygon fill="#191970" stroke="#191970" points="243.9047,-22.6938 233.7587,-19.6427 239.7874,-28.355 243.9047,-22.6938"/>
</g>
<!-- Node14 -->
<g id="node15" class="node">
<title>Node14</title>
<g id="a_node15"><a xlink:href="../../da/d5a/GPUCommonDefAPI_8h.html" target="_top" xlink:title="GPUCommonDefAPI.h">
<polygon fill="none" stroke="#000000" points="312.5,-.5 312.5,-19.5 436.5,-19.5 436.5,-.5 312.5,-.5"/>
<text text-anchor="middle" x="374.5" y="-7.5" font-family="Helvetica,sans-Serif" font-size="10.00" fill="#000000">GPUCommonDefAPI.h</text>
</a>
</g>
</g>
<!-- Node12&#45;&gt;Node14 -->
<g id="edge15" class="edge">
<title>Node12&#45;&gt;Node14</title>
<path fill="none" stroke="#191970" d="M310.9124,-56.2455C322.5057,-47.814 339.4748,-35.4729 352.9678,-25.6598"/>
<polygon fill="#191970" stroke="#191970" points="355.2126,-28.355 361.2413,-19.6427 351.0953,-22.6938 355.2126,-28.355"/>
</g>
<!-- Node15&#45;&gt;Node11 -->
<g id="edge18" class="edge">
<title>Node15&#45;&gt;Node11</title>
<path fill="none" stroke="#191970" d="M421.9232,-112.4369C464.9664,-101.7239 534.0532,-84.529 574.9851,-74.3415"/>
<polygon fill="#191970" stroke="#191970" points="575.8933,-77.7223 584.7519,-71.9106 574.2026,-70.9295 575.8933,-77.7223"/>
</g>
<!-- Node15&#45;&gt;Node12 -->
<g id="edge17" class="edge">
<title>Node15&#45;&gt;Node12</title>
<path fill="none" stroke="#191970" d="M368.5199,-112.2455C355.3249,-103.6534 335.8949,-91.0014 320.6921,-81.1018"/>
<polygon fill="#191970" stroke="#191970" points="322.5983,-78.1665 312.3084,-75.6427 318.7785,-84.0325 322.5983,-78.1665"/>
</g>
<!-- Node16 -->
<g id="node17" class="node">
<title>Node16</title>
<polygon fill="none" stroke="#bfbfbf" points="369.5,-56.5 369.5,-75.5 433.5,-75.5 433.5,-56.5 369.5,-56.5"/>
<text text-anchor="middle" x="401.5" y="-63.5" font-family="Helvetica,sans-Serif" font-size="10.00" fill="#000000">algorithm</text>
</g>
<!-- Node15&#45;&gt;Node16 -->
<g id="edge19" class="edge">
<title>Node15&#45;&gt;Node16</title>
<path fill="none" stroke="#191970" d="M386.6354,-112.2455C389.01,-104.8579 392.3493,-94.4689 395.2615,-85.4087"/>
<polygon fill="#191970" stroke="#191970" points="398.6725,-86.234 398.4006,-75.6427 392.0083,-84.0919 398.6725,-86.234"/>
</g>
</g>
</svg>
        <g id="navigator" transform="translate(0 0)" fill="#404254">
                <rect fill="#f2f5e9" fill-opacity="0.5" stroke="#606060" stroke-width=".5" x="0" y="0" width="60" height="60"/>
                <use id="zoomplus" xlink:href="#zoomPlus" x="17" y="9" onmousedown="handleZoom(evt,'in')"/>
                <use id="zoomminus" xlink:href="#zoomMin" x="42" y="9" onmousedown="handleZoom(evt,'out')"/>
                <use id="reset" xlink:href="#resetDef" x="30" y="36" onmousedown="handleReset()"/>
                <g id="arrowUp" xlink:href="#dirArrow" transform="translate(30 24)" onmousedown="handlePan(0,-1)">
                  <use xlink:href="#rim" fill="#404040">
                        <set attributeName="fill" to="#808080" begin="arrowUp.mouseover" end="arrowUp.mouseout"/>
                  </use>
                  <path fill="none" stroke="white" stroke-width="1.5" d="M0,-3.0v7 M-2.5,-0.5L0,-3.0L2.5,-0.5"/>
                </g>
                <g id="arrowRight" xlink:href="#dirArrow" transform="rotate(90) translate(36 -43)" onmousedown="handlePan(1,0)">
                  <use xlink:href="#rim" fill="#404040">
                        <set attributeName="fill" to="#808080" begin="arrowRight.mouseover" end="arrowRight.mouseout"/>
                  </use>
                  <path fill="none" stroke="white" stroke-width="1.5" d="M0,-3.0v7 M-2.5,-0.5L0,-3.0L2.5,-0.5"/>
                </g>
                <g id="arrowDown" xlink:href="#dirArrow" transform="rotate(180) translate(-30 -48)" onmousedown="handlePan(0,1)">
                  <use xlink:href="#rim" fill="#404040">
                        <set attributeName="fill" to="#808080" begin="arrowDown.mouseover" end="arrowDown.mouseout"/>
                  </use>
                  <path fill="none" stroke="white" stroke-width="1.5" d="M0,-3.0v7 M-2.5,-0.5L0,-3.0L2.5,-0.5"/>
                </g>
                <g id="arrowLeft" xlink:href="#dirArrow" transform="rotate(270) translate(-36 17)" onmousedown="handlePan(-1,0)">
                  <use xlink:href="#rim" fill="#404040">
                        <set attributeName="fill" to="#808080" begin="arrowLeft.mouseover" end="arrowLeft.mouseout"/>
                  </use>
                  <path fill="none" stroke="white" stroke-width="1.5" d="M0,-3.0v7 M-2.5,-0.5L0,-3.0L2.5,-0.5"/>
                </g>
        </g>
        <svg viewBox="0 0 15 15" width="100%" height="30px" preserveAspectRatio="xMaxYMin meet">
         <g id="arrow_out" transform="scale(0.3 0.3)">
          <a xlink:href="TrackFwd_8cxx__incl_org.svg" target="_base">
           <rect id="button" ry="5" rx="5" y="6" x="6" height="38" width="38"
                fill="#f2f5e9" fill-opacity="0.5" stroke="#606060" stroke-width="1.0"/>
           <path id="arrow"
             d="M 11.500037,31.436501 C 11.940474,20.09759 22.043105,11.32322 32.158766,21.979434 L 37.068811,17.246167 C 37.068811,17.246167 37.088388,32 37.088388,32 L 22.160133,31.978069 C 22.160133,31.978069 26.997745,27.140456 26.997745,27.140456 C 18.528582,18.264221 13.291696,25.230495 11.500037,31.436501 z"
             style="fill:#404040;"/>
          </a>
         </g>
        </svg>
</svg>
