<?xml version="1.0" encoding="UTF-8" standalone="no"?>
<!DOCTYPE svg PUBLIC "-//W3C//DTD SVG 1.1//EN"
 "http://www.w3.org/Graphics/SVG/1.1/DTD/svg11.dtd">
<!-- Generated by graphviz version 2.40.1 (20161225.0304)
 -->
<!-- Title: /home/travis/build/AliceO2Group/AliceO2/Detectors/TPC/base/include/TPCBase/CalDet.h Pages: 1 -->
<!--zoomable 576 -->
<svg id="main" version="1.1" xmlns="http://www.w3.org/2000/svg" xmlns:xlink="http://www.w3.org/1999/xlink" xml:space="preserve" onload="init(evt)">
<style type="text/css"><![CDATA[
.edge:hover path { stroke: red; }
.edge:hover polygon { stroke: red; fill: red; }
]]></style>
<script type="text/javascript"><![CDATA[
var edges = document.getElementsByTagName('g');
if (edges && edges.length) {
  for (var i=0;i<edges.length;i++) {
    if (edges[i].id.substr(0,4)=='edge') {
      edges[i].setAttribute('class','edge');
    }
  }
}
]]></script>
        <defs>
                <circle id="rim" cx="0" cy="0" r="7"/>
                <circle id="rim2" cx="0" cy="0" r="3.5"/>
                <g id="zoomPlus">
                        <use xlink:href="#rim" fill="#404040">
                                <set attributeName="fill" to="#808080" begin="zoomplus.mouseover" end="zoomplus.mouseout"/>
                        </use>
                        <path d="M-4,0h8M0,-4v8" fill="none" stroke="white" stroke-width="1.5" pointer-events="none"/>
                </g>
                <g id="zoomMin">
                        <use xlink:href="#rim" fill="#404040">
                                <set attributeName="fill" to="#808080" begin="zoomminus.mouseover" end="zoomminus.mouseout"/>
                        </use>
                        <path d="M-4,0h8" fill="none" stroke="white" stroke-width="1.5" pointer-events="none"/>
                </g>
                <g id="dirArrow">
                        <path fill="none" stroke="white" stroke-width="1.5" d="M0,-3.0v7 M-2.5,-0.5L0,-3.0L2.5,-0.5"/>
                </g>
               <g id="resetDef">
                       <use xlink:href="#rim2" fill="#404040">
                               <set attributeName="fill" to="#808080" begin="reset.mouseover" end="reset.mouseout"/>
                       </use>
               </g>
        </defs>

<script type="text/javascript">
var viewWidth = 2330;
var viewHeight = 576;
var sectionId = 'dynsection-0';
</script>
<script xlink:href="../../svgpan.js"/>
<svg id="graph" class="graph">
<g id="viewport">
<title>/home/travis/build/AliceO2Group/AliceO2/Detectors/TPC/base/include/TPCBase/CalDet.h</title>
<!-- Node0 -->
<g id="node1" class="node">
<title>Node0</title>
<polygon fill="#bfbfbf" stroke="#000000" points="1336.5,-515.5 1336.5,-567.5 1489.5,-567.5 1489.5,-515.5 1336.5,-515.5"/>
<text text-anchor="start" x="1344.5" y="-555.5" font-family="Helvetica,sans-Serif" font-size="10.00" fill="#000000">/home/travis/build</text>
<text text-anchor="start" x="1344.5" y="-544.5" font-family="Helvetica,sans-Serif" font-size="10.00" fill="#000000">/AliceO2Group/AliceO2</text>
<text text-anchor="start" x="1344.5" y="-533.5" font-family="Helvetica,sans-Serif" font-size="10.00" fill="#000000">/Detectors/TPC/base/include</text>
<text text-anchor="middle" x="1413" y="-522.5" font-family="Helvetica,sans-Serif" font-size="10.00" fill="#000000">/TPCBase/CalDet.h</text>
</g>
<!-- Node1 -->
<g id="node2" class="node">
<title>Node1</title>
<polygon fill="none" stroke="#bfbfbf" points="1422,-403.5 1422,-422.5 1480,-422.5 1480,-403.5 1422,-403.5"/>
<text text-anchor="middle" x="1451" y="-410.5" font-family="Helvetica,sans-Serif" font-size="10.00" fill="#000000">memory</text>
</g>
<!-- Node0&#45;&gt;Node1 -->
<g id="edge1" class="edge">
<title>Node0&#45;&gt;Node1</title>
<path fill="none" stroke="#191970" d="M1420.6899,-515.4961C1427.9624,-490.9033 1438.711,-454.5564 1445.2623,-432.4024"/>
<polygon fill="#191970" stroke="#191970" points="1448.7069,-433.0962 1448.1865,-422.5142 1441.9943,-431.1111 1448.7069,-433.0962"/>
</g>
<!-- Node2 -->
<g id="node3" class="node">
<title>Node2</title>
<polygon fill="none" stroke="#bfbfbf" points="1719.5,-291.5 1719.5,-310.5 1766.5,-310.5 1766.5,-291.5 1719.5,-291.5"/>
<text text-anchor="middle" x="1743" y="-298.5" font-family="Helvetica,sans-Serif" font-size="10.00" fill="#000000">vector</text>
</g>
<!-- Node0&#45;&gt;Node2 -->
<g id="edge2" class="edge">
<title>Node0&#45;&gt;Node2</title>
<path fill="none" stroke="#191970" d="M1403.7864,-515.4373C1394.7157,-484.5685 1385.7862,-433.5011 1413,-403 1459.906,-350.4279 1675.5244,-414.0139 1728,-367 1740.6929,-355.6282 1743.8183,-335.9583 1744.143,-321.0424"/>
<polygon fill="#191970" stroke="#191970" points="1747.6377,-320.7139 1743.9573,-310.7789 1740.6388,-320.8406 1747.6377,-320.7139"/>
</g>
<!-- Node3 -->
<g id="node4" class="node">
<title>Node3</title>
<polygon fill="none" stroke="#bfbfbf" points="1790,-347.5 1790,-366.5 1834,-366.5 1834,-347.5 1790,-347.5"/>
<text text-anchor="middle" x="1812" y="-354.5" font-family="Helvetica,sans-Serif" font-size="10.00" fill="#000000">string</text>
</g>
<!-- Node0&#45;&gt;Node3 -->
<g id="edge3" class="edge">
<title>Node0&#45;&gt;Node3</title>
<path fill="none" stroke="#191970" d="M1489.6625,-537.7364C1634.0224,-528.8685 1937.4311,-501.1654 2001,-423 2006.6084,-416.1038 2006.4921,-409.9892 2001,-403 1981.8524,-378.6331 1893.0167,-365.5615 1844.257,-360.1136"/>
<polygon fill="#191970" stroke="#191970" points="1844.5307,-356.623 1834.2144,-359.0361 1843.7839,-363.583 1844.5307,-356.623"/>
</g>
<!-- Node4 -->
<g id="node5" class="node">
<title>Node4</title>
<polygon fill="none" stroke="#bfbfbf" points="1276,-459.5 1276,-478.5 1328,-478.5 1328,-459.5 1276,-459.5"/>
<text text-anchor="middle" x="1302" y="-466.5" font-family="Helvetica,sans-Serif" font-size="10.00" fill="#000000">cassert</text>
</g>
<!-- Node0&#45;&gt;Node4 -->
<g id="edge4" class="edge">
<title>Node0&#45;&gt;Node4</title>
<path fill="none" stroke="#191970" d="M1372.9265,-515.3258C1356.8293,-504.8119 1338.8514,-493.0696 1325.0232,-484.0377"/>
<polygon fill="#191970" stroke="#191970" points="1326.8832,-481.0721 1316.5969,-478.534 1323.0553,-486.9328 1326.8832,-481.0721"/>
</g>
<!-- Node5 -->
<g id="node6" class="node">
<title>Node5</title>
<g id="a_node6"><a xlink:href="../../d1/d73/Defs_8h.html" target="_top" xlink:title="DataFormatsTPC/Defs.h">
<polygon fill="none" stroke="#000000" points="910.5,-123.5 910.5,-142.5 1043.5,-142.5 1043.5,-123.5 910.5,-123.5"/>
<text text-anchor="middle" x="977" y="-130.5" font-family="Helvetica,sans-Serif" font-size="10.00" fill="#000000">DataFormatsTPC/Defs.h</text>
</a>
</g>
</g>
<!-- Node0&#45;&gt;Node5 -->
<g id="edge5" class="edge">
<title>Node0&#45;&gt;Node5</title>
<path fill="none" stroke="#191970" d="M1336.2335,-537.2175C1172.6149,-527.6682 800.1735,-503.5338 748,-479 710.4598,-461.3472 682,-454.4836 682,-413 682,-413 682,-413 682,-245 682,-196.3881 823.7775,-161.3497 910.7568,-144.4279"/>
<polygon fill="#191970" stroke="#191970" points="911.654,-147.8198 920.8184,-142.5034 910.3389,-140.9444 911.654,-147.8198"/>
</g>
<!-- Node19 -->
<g id="node20" class="node">
<title>Node19</title>
<g id="a_node20"><a xlink:href="../../d5/d1d/TPC_2base_2include_2TPCBase_2Mapper_8h.html" target="_top" xlink:title="TPCBase/Mapper.h">
<polygon fill="none" stroke="#000000" points="1248.5,-403.5 1248.5,-422.5 1355.5,-422.5 1355.5,-403.5 1248.5,-403.5"/>
<text text-anchor="middle" x="1302" y="-410.5" font-family="Helvetica,sans-Serif" font-size="10.00" fill="#000000">TPCBase/Mapper.h</text>
</a>
</g>
</g>
<!-- Node0&#45;&gt;Node19 -->
<g id="edge19" class="edge">
<title>Node0&#45;&gt;Node19</title>
<path fill="none" stroke="#191970" d="M1390.5375,-515.4961C1368.6149,-490.1172 1335.8795,-452.2208 1316.9633,-430.3224"/>
<polygon fill="#191970" stroke="#191970" points="1319.4041,-427.7938 1310.2185,-422.5142 1314.1068,-432.3697 1319.4041,-427.7938"/>
</g>
<!-- Node24 -->
<g id="node25" class="node">
<title>Node24</title>
<g id="a_node25"><a xlink:href="../../d3/dd6/Sector_8h.html" target="_top" xlink:title="TPCBase/Sector.h">
<polygon fill="none" stroke="#000000" points="1086.5,-179.5 1086.5,-198.5 1187.5,-198.5 1187.5,-179.5 1086.5,-179.5"/>
<text text-anchor="middle" x="1137" y="-186.5" font-family="Helvetica,sans-Serif" font-size="10.00" fill="#000000">TPCBase/Sector.h</text>
</a>
</g>
</g>
<!-- Node0&#45;&gt;Node24 -->
<g id="edge56" class="edge">
<title>Node0&#45;&gt;Node24</title>
<path fill="none" stroke="#191970" d="M1336.4121,-532.438C1179.0503,-512.7789 834,-463.872 834,-413 834,-413 834,-413 834,-301 834,-262.2415 857.3964,-254.3137 891,-235 921.8661,-217.2596 1014.0218,-203.382 1076.3502,-195.6913"/>
<polygon fill="#191970" stroke="#191970" points="1076.9606,-199.1431 1086.4666,-194.4649 1076.118,-192.1939 1076.9606,-199.1431"/>
</g>
<!-- Node27 -->
<g id="node28" class="node">
<title>Node27</title>
<g id="a_node28"><a xlink:href="../../dc/d14/ROC_8h.html" target="_top" xlink:title="TPCBase/ROC.h">
<polygon fill="none" stroke="#000000" points="900,-235.5 900,-254.5 992,-254.5 992,-235.5 900,-235.5"/>
<text text-anchor="middle" x="946" y="-242.5" font-family="Helvetica,sans-Serif" font-size="10.00" fill="#000000">TPCBase/ROC.h</text>
</a>
</g>
</g>
<!-- Node0&#45;&gt;Node27 -->
<g id="edge55" class="edge">
<title>Node0&#45;&gt;Node27</title>
<path fill="none" stroke="#191970" d="M1336.2661,-537.9384C1198.1009,-530.7796 913.1865,-512.4036 820,-479 769.8715,-461.031 720,-466.2518 720,-413 720,-413 720,-413 720,-357 720,-317.0143 835.0135,-277.0807 900.9442,-257.4739"/>
<polygon fill="#191970" stroke="#191970" points="902.0758,-260.7895 910.6875,-254.6178 900.1067,-254.0722 902.0758,-260.7895"/>
</g>
<!-- Node33 -->
<g id="node34" class="node">
<title>Node33</title>
<g id="a_node34"><a xlink:href="../../db/d9b/CalArray_8h.html" target="_top" xlink:title="TPCBase/CalArray.h">
<polygon fill="none" stroke="#000000" points="1557,-459.5 1557,-478.5 1669,-478.5 1669,-459.5 1557,-459.5"/>
<text text-anchor="middle" x="1613" y="-466.5" font-family="Helvetica,sans-Serif" font-size="10.00" fill="#000000">TPCBase/CalArray.h</text>
</a>
</g>
</g>
<!-- Node0&#45;&gt;Node33 -->
<g id="edge57" class="edge">
<title>Node0&#45;&gt;Node33</title>
<path fill="none" stroke="#191970" d="M1484.922,-515.4283C1516.1633,-504.1033 1551.3832,-491.3361 1576.9714,-482.0604"/>
<polygon fill="#191970" stroke="#191970" points="1578.4119,-485.2611 1586.6205,-478.5626 1576.0263,-478.6802 1578.4119,-485.2611"/>
</g>
<!-- Node38 -->
<g id="node39" class="node">
<title>Node38</title>
<polygon fill="none" stroke="#bfbfbf" points="1890.5,-403.5 1890.5,-422.5 1991.5,-422.5 1991.5,-403.5 1890.5,-403.5"/>
<text text-anchor="middle" x="1941" y="-410.5" font-family="Helvetica,sans-Serif" font-size="10.00" fill="#000000">boost/format.hpp</text>
</g>
<!-- Node0&#45;&gt;Node38 -->
<g id="edge69" class="edge">
<title>Node0&#45;&gt;Node38</title>
<path fill="none" stroke="#191970" d="M1489.6057,-523.7371C1542.5645,-511.3828 1614.6188,-494.4261 1678,-479 1753.6286,-460.593 1841.2754,-438.4311 1893.8672,-425.0432"/>
<polygon fill="#191970" stroke="#191970" points="1894.7598,-428.4277 1903.5863,-422.5674 1893.0317,-421.6443 1894.7598,-428.4277"/>
</g>
<!-- Node39 -->
<g id="node40" class="node">
<title>Node39</title>
<g id="a_node40"><a xlink:href="../../dd/da4/Logger_8h.html" target="_top" xlink:title="Framework/Logger.h">
<polygon fill="none" stroke="#000000" points="2048.5,-459.5 2048.5,-478.5 2163.5,-478.5 2163.5,-459.5 2048.5,-459.5"/>
<text text-anchor="middle" x="2106" y="-466.5" font-family="Helvetica,sans-Serif" font-size="10.00" fill="#000000">Framework/Logger.h</text>
</a>
</g>
</g>
<!-- Node0&#45;&gt;Node39 -->
<g id="edge67" class="edge">
<title>Node0&#45;&gt;Node39</title>
<path fill="none" stroke="#191970" d="M1489.5842,-534.7287C1606.923,-524.1426 1838.1883,-502.4432 2034,-479 2035.304,-478.8439 2036.6209,-478.6839 2037.9475,-478.5207"/>
<polygon fill="#191970" stroke="#191970" points="2038.7753,-481.9439 2048.2562,-477.2151 2037.8956,-474.9994 2038.7753,-481.9439"/>
</g>
<!-- Node41 -->
<g id="node42" class="node">
<title>Node41</title>
<polygon fill="none" stroke="#bfbfbf" points="2182,-459.5 2182,-478.5 2322,-478.5 2322,-459.5 2182,-459.5"/>
<text text-anchor="middle" x="2252" y="-466.5" font-family="Helvetica,sans-Serif" font-size="10.00" fill="#000000">boost/range/combine.hpp</text>
</g>
<!-- Node0&#45;&gt;Node41 -->
<g id="edge70" class="edge">
<title>Node0&#45;&gt;Node41</title>
<path fill="none" stroke="#191970" d="M1489.6947,-536.3103C1625.1158,-526.901 1915.6848,-505.611 2171.5705,-479.1122"/>
<polygon fill="#191970" stroke="#191970" points="2172.223,-482.5633 2181.8072,-478.0474 2171.4987,-475.6009 2172.223,-482.5633"/>
</g>
<!-- Node6 -->
<g id="node7" class="node">
<title>Node6</title>
<polygon fill="none" stroke="#bfbfbf" points="1283.5,-67.5 1283.5,-86.5 1330.5,-86.5 1330.5,-67.5 1283.5,-67.5"/>
<text text-anchor="middle" x="1307" y="-74.5" font-family="Helvetica,sans-Serif" font-size="10.00" fill="#000000">cmath</text>
</g>
<!-- Node5&#45;&gt;Node6 -->
<g id="edge6" class="edge">
<title>Node5&#45;&gt;Node6</title>
<path fill="none" stroke="#191970" d="M1033.3541,-123.4369C1102.1842,-111.7566 1216.4211,-92.371 1273.0381,-82.7632"/>
<polygon fill="#191970" stroke="#191970" points="1273.9658,-86.1559 1283.2392,-81.0321 1272.7946,-79.2546 1273.9658,-86.1559"/>
</g>
<!-- Node7 -->
<g id="node8" class="node">
<title>Node7</title>
<g id="a_node8"><a xlink:href="../../d1/da8/GPUROOTCartesianFwd_8h.html" target="_top" xlink:title="GPUROOTCartesianFwd.h">
<polygon fill="none" stroke="#000000" points="912,-67.5 912,-86.5 1052,-86.5 1052,-67.5 912,-67.5"/>
<text text-anchor="middle" x="982" y="-74.5" font-family="Helvetica,sans-Serif" font-size="10.00" fill="#000000">GPUROOTCartesianFwd.h</text>
</a>
</g>
</g>
<!-- Node5&#45;&gt;Node7 -->
<g id="edge7" class="edge">
<title>Node5&#45;&gt;Node7</title>
<path fill="none" stroke="#191970" d="M977.8709,-123.2455C978.5234,-115.9382 979.438,-105.6944 980.2407,-96.7046"/>
<polygon fill="#191970" stroke="#191970" points="983.7358,-96.9143 981.139,-86.6427 976.7635,-96.2918 983.7358,-96.9143"/>
</g>
<!-- Node8 -->
<g id="node9" class="node">
<title>Node8</title>
<g id="a_node9"><a xlink:href="../../dc/d73/Cartesian_8h.html" target="_top" xlink:title="MathUtils/Cartesian.h">
<polygon fill="none" stroke="#000000" points="772,-67.5 772,-86.5 894,-86.5 894,-67.5 772,-67.5"/>
<text text-anchor="middle" x="833" y="-74.5" font-family="Helvetica,sans-Serif" font-size="10.00" fill="#000000">MathUtils/Cartesian.h</text>
</a>
</g>
</g>
<!-- Node5&#45;&gt;Node8 -->
<g id="edge8" class="edge">
<title>Node5&#45;&gt;Node8</title>
<path fill="none" stroke="#191970" d="M952.2455,-123.3733C928.7151,-114.2226 893.1313,-100.3844 866.9574,-90.2057"/>
<polygon fill="#191970" stroke="#191970" points="868.0201,-86.8636 857.4315,-86.5011 865.4829,-93.3877 868.0201,-86.8636"/>
</g>
<!-- Node9 -->
<g id="node10" class="node">
<title>Node9</title>
<polygon fill="none" stroke="#bfbfbf" points="1123,-.5 1123,-30.5 1287,-30.5 1287,-.5 1123,-.5"/>
<text text-anchor="start" x="1131" y="-18.5" font-family="Helvetica,sans-Serif" font-size="10.00" fill="#000000">Math/GenVector/Displacement</text>
<text text-anchor="middle" x="1205" y="-7.5" font-family="Helvetica,sans-Serif" font-size="10.00" fill="#000000">Vector3D.h</text>
</g>
<!-- Node8&#45;&gt;Node9 -->
<g id="edge9" class="edge">
<title>Node8&#45;&gt;Node9</title>
<path fill="none" stroke="#191970" d="M891.9524,-67.4628C946.6015,-58.596 1030.4608,-44.9249 1112.6513,-31.2199"/>
<polygon fill="#191970" stroke="#191970" points="1113.3768,-34.6473 1122.6641,-29.5487 1112.2244,-27.7428 1113.3768,-34.6473"/>
</g>
<!-- Node10 -->
<g id="node11" class="node">
<title>Node10</title>
<polygon fill="none" stroke="#bfbfbf" points="1305.5,-6 1305.5,-25 1494.5,-25 1494.5,-6 1305.5,-6"/>
<text text-anchor="middle" x="1400" y="-13" font-family="Helvetica,sans-Serif" font-size="10.00" fill="#000000">Math/GenVector/PositionVector3D.h</text>
</g>
<!-- Node8&#45;&gt;Node10 -->
<g id="edge10" class="edge">
<title>Node8&#45;&gt;Node10</title>
<path fill="none" stroke="#191970" d="M894.0597,-68.0919C897.0809,-67.7093 900.0737,-67.3428 903,-67 1077.2065,-46.591 1121.856,-51.9361 1296,-31 1307.0743,-29.6686 1318.7869,-28.0898 1330.202,-26.4575"/>
<polygon fill="#191970" stroke="#191970" points="1330.7409,-29.916 1340.1335,-25.0141 1329.7341,-22.9888 1330.7409,-29.916"/>
</g>
<!-- Node11 -->
<g id="node12" class="node">
<title>Node11</title>
<polygon fill="none" stroke="#bfbfbf" points="0,-6 0,-25 160,-25 160,-6 0,-6"/>
<text text-anchor="middle" x="80" y="-13" font-family="Helvetica,sans-Serif" font-size="10.00" fill="#000000">Math/GenVector/Rotation3D.h</text>
</g>
<!-- Node8&#45;&gt;Node11 -->
<g id="edge11" class="edge">
<title>Node8&#45;&gt;Node11</title>
<path fill="none" stroke="#191970" d="M771.9216,-74.8787C654.6818,-70.3402 390.1074,-57.8398 169,-31 159.4088,-29.8357 149.2801,-28.3343 139.428,-26.7254"/>
<polygon fill="#191970" stroke="#191970" points="139.7375,-23.2283 129.2952,-25.0194 138.5753,-30.1311 139.7375,-23.2283"/>
</g>
<!-- Node12 -->
<g id="node13" class="node">
<title>Node12</title>
<polygon fill="none" stroke="#bfbfbf" points="178,-6 178,-25 346,-25 346,-6 178,-6"/>
<text text-anchor="middle" x="262" y="-13" font-family="Helvetica,sans-Serif" font-size="10.00" fill="#000000">Math/GenVector/Transform3D.h</text>
</g>
<!-- Node8&#45;&gt;Node12 -->
<g id="edge12" class="edge">
<title>Node8&#45;&gt;Node12</title>
<path fill="none" stroke="#191970" d="M771.7277,-72.4683C680.6362,-65.4225 504.2015,-50.5887 355,-31 345.4843,-29.7507 335.449,-28.2606 325.6312,-26.7055"/>
<polygon fill="#191970" stroke="#191970" points="325.9402,-23.21 315.5097,-25.0688 324.8228,-30.1203 325.9402,-23.21"/>
</g>
<!-- Node13 -->
<g id="node14" class="node">
<title>Node13</title>
<polygon fill="none" stroke="#bfbfbf" points="364.5,-6 364.5,-25 537.5,-25 537.5,-6 364.5,-6"/>
<text text-anchor="middle" x="451" y="-13" font-family="Helvetica,sans-Serif" font-size="10.00" fill="#000000">Math/GenVector/Translation3D.h</text>
</g>
<!-- Node8&#45;&gt;Node13 -->
<g id="edge13" class="edge">
<title>Node8&#45;&gt;Node13</title>
<path fill="none" stroke="#191970" d="M773.8413,-67.4956C716.0047,-58.2012 625.4476,-43.6417 547,-31 538.2808,-29.5949 529.1164,-28.1168 520.0528,-26.6543"/>
<polygon fill="#191970" stroke="#191970" points="520.3216,-23.1524 509.8917,-25.0143 519.2062,-30.063 520.3216,-23.1524"/>
</g>
<!-- Node14 -->
<g id="node15" class="node">
<title>Node14</title>
<polygon fill="none" stroke="#bfbfbf" points="556,-.5 556,-30.5 720,-30.5 720,-.5 556,-.5"/>
<text text-anchor="start" x="564" y="-18.5" font-family="Helvetica,sans-Serif" font-size="10.00" fill="#000000">Math/GenVector/Displacement</text>
<text text-anchor="middle" x="638" y="-7.5" font-family="Helvetica,sans-Serif" font-size="10.00" fill="#000000">Vector2D.h</text>
</g>
<!-- Node8&#45;&gt;Node14 -->
<g id="edge14" class="edge">
<title>Node8&#45;&gt;Node14</title>
<path fill="none" stroke="#191970" d="M802.5313,-67.3906C773.9411,-58.3737 730.447,-44.6563 695.3572,-33.5896"/>
<polygon fill="#191970" stroke="#191970" points="696.2921,-30.2145 685.7024,-30.5446 694.1866,-36.8904 696.2921,-30.2145"/>
</g>
<!-- Node15 -->
<g id="node16" class="node">
<title>Node15</title>
<polygon fill="none" stroke="#bfbfbf" points="738.5,-6 738.5,-25 927.5,-25 927.5,-6 738.5,-6"/>
<text text-anchor="middle" x="833" y="-13" font-family="Helvetica,sans-Serif" font-size="10.00" fill="#000000">Math/GenVector/PositionVector2D.h</text>
</g>
<!-- Node8&#45;&gt;Node15 -->
<g id="edge15" class="edge">
<title>Node8&#45;&gt;Node15</title>
<path fill="none" stroke="#191970" d="M833,-67.3906C833,-58.8657 833,-46.1392 833,-35.4235"/>
<polygon fill="#191970" stroke="#191970" points="836.5001,-35.2448 833,-25.2449 829.5001,-35.2449 836.5001,-35.2448"/>
</g>
<!-- Node16 -->
<g id="node17" class="node">
<title>Node16</title>
<polygon fill="none" stroke="#bfbfbf" points="945.5,-6 945.5,-25 1004.5,-25 1004.5,-6 945.5,-6"/>
<text text-anchor="middle" x="975" y="-13" font-family="Helvetica,sans-Serif" font-size="10.00" fill="#000000">Rtypes.h</text>
</g>
<!-- Node8&#45;&gt;Node16 -->
<g id="edge16" class="edge">
<title>Node8&#45;&gt;Node16</title>
<path fill="none" stroke="#191970" d="M855.1875,-67.3906C878.9467,-57.1005 916.8405,-40.6888 943.6425,-29.0809"/>
<polygon fill="#191970" stroke="#191970" points="945.183,-32.2279 952.9683,-25.0419 942.4009,-25.8045 945.183,-32.2279"/>
</g>
<!-- Node17 -->
<g id="node18" class="node">
<title>Node17</title>
<polygon fill="none" stroke="#bfbfbf" points="1023,-6 1023,-25 1105,-25 1105,-6 1023,-6"/>
<text text-anchor="middle" x="1064" y="-13" font-family="Helvetica,sans-Serif" font-size="10.00" fill="#000000">TGeoMatrix.h</text>
</g>
<!-- Node8&#45;&gt;Node17 -->
<g id="edge17" class="edge">
<title>Node8&#45;&gt;Node17</title>
<path fill="none" stroke="#191970" d="M872.4625,-67.4554C909.0218,-58.4852 964.8522,-44.4615 1013,-31 1016.4006,-30.0492 1019.9205,-29.0376 1023.4485,-28.0042"/>
<polygon fill="#191970" stroke="#191970" points="1024.7338,-31.2735 1033.3207,-25.0674 1022.7378,-24.5641 1024.7338,-31.2735"/>
</g>
<!-- Node18 -->
<g id="node19" class="node">
<title>Node18</title>
<polygon fill="none" stroke="#bfbfbf" points="1518.5,-6 1518.5,-25 1567.5,-25 1567.5,-6 1518.5,-6"/>
<text text-anchor="middle" x="1543" y="-13" font-family="Helvetica,sans-Serif" font-size="10.00" fill="#000000">iosfwd</text>
</g>
<!-- Node8&#45;&gt;Node18 -->
<g id="edge18" class="edge">
<title>Node8&#45;&gt;Node18</title>
<path fill="none" stroke="#191970" d="M894.0473,-67.9785C897.0718,-67.6259 900.0687,-67.2968 903,-67 1168.7872,-40.0873 1241.9934,-87.9444 1503,-31 1506.0311,-30.3387 1509.1348,-29.4822 1512.2074,-28.5116"/>
<polygon fill="#191970" stroke="#191970" points="1513.5285,-31.7568 1521.7881,-25.1214 1511.1933,-25.1578 1513.5285,-31.7568"/>
</g>
<!-- Node19&#45;&gt;Node2 -->
<g id="edge21" class="edge">
<title>Node19&#45;&gt;Node2</title>
<path fill="none" stroke="#191970" d="M1355.6929,-405.9956C1363.8341,-404.9685 1372.1376,-403.9407 1380,-403 1451.93,-394.3936 1643.1619,-406.3285 1704,-367 1720.7099,-356.1979 1731.2037,-335.5038 1737.0428,-320.1552"/>
<polygon fill="#191970" stroke="#191970" points="1740.3969,-321.1653 1740.3608,-310.5705 1733.782,-318.8753 1740.3969,-321.1653"/>
</g>
<!-- Node19&#45;&gt;Node3 -->
<g id="edge23" class="edge">
<title>Node19&#45;&gt;Node3</title>
<path fill="none" stroke="#191970" d="M1355.7545,-407.8385C1438.118,-399.8149 1600.463,-383.5448 1738,-367 1751.5751,-365.367 1766.5249,-363.3822 1779.4126,-361.6127"/>
<polygon fill="#191970" stroke="#191970" points="1780.2533,-365.0297 1789.6778,-360.1893 1779.2918,-358.096 1780.2533,-365.0297"/>
</g>
<!-- Node19&#45;&gt;Node5 -->
<g id="edge25" class="edge">
<title>Node19&#45;&gt;Node5</title>
<path fill="none" stroke="#191970" d="M1248.2296,-411.2391C1176.6257,-407.7548 1046.6081,-397.4339 940,-367 872.3025,-347.6741 796,-371.402 796,-301 796,-301 796,-301 796,-245 796,-188.0663 861.5596,-159.0949 913.7665,-145.0502"/>
<polygon fill="#191970" stroke="#191970" points="914.8517,-148.3854 923.673,-142.5172 913.1176,-141.6036 914.8517,-148.3854"/>
</g>
<!-- Node19&#45;&gt;Node6 -->
<g id="edge24" class="edge">
<title>Node19&#45;&gt;Node6</title>
<path fill="none" stroke="#191970" d="M1355.5665,-405.0366C1400.994,-397.2414 1461.4894,-384.0605 1479,-367 1500.8633,-345.6986 1498,-331.5246 1498,-301 1498,-301 1498,-301 1498,-189 1498,-116.9549 1395.626,-90.3693 1340.7767,-81.2956"/>
<polygon fill="#191970" stroke="#191970" points="1341.2218,-77.8229 1330.8041,-79.752 1340.151,-84.7405 1341.2218,-77.8229"/>
</g>
<!-- Node19&#45;&gt;Node8 -->
<g id="edge54" class="edge">
<title>Node19&#45;&gt;Node8</title>
<path fill="none" stroke="#191970" d="M1248.4365,-409.9894C1131.0868,-403.091 858.7318,-385.3196 821,-367 784.5206,-349.2885 758,-341.5518 758,-301 758,-301 758,-301 758,-189 758,-149.4003 790.7701,-113.2155 812.9876,-93.2336"/>
<polygon fill="#191970" stroke="#191970" points="815.3467,-95.8206 820.6153,-86.6286 810.7644,-90.5288 815.3467,-95.8206"/>
</g>
<!-- Node20 -->
<g id="node21" class="node">
<title>Node20</title>
<polygon fill="none" stroke="#bfbfbf" points="1100,-347.5 1100,-366.5 1138,-366.5 1138,-347.5 1100,-347.5"/>
<text text-anchor="middle" x="1119" y="-354.5" font-family="Helvetica,sans-Serif" font-size="10.00" fill="#000000">map</text>
</g>
<!-- Node19&#45;&gt;Node20 -->
<g id="edge20" class="edge">
<title>Node19&#45;&gt;Node20</title>
<path fill="none" stroke="#191970" d="M1267.9701,-403.4785C1238.4864,-395.1014 1194.4884,-382.2963 1147.8952,-367.1806"/>
<polygon fill="#191970" stroke="#191970" points="1148.8248,-363.8023 1138.2323,-364.0242 1146.6513,-370.4563 1148.8248,-363.8023"/>
</g>
<!-- Node21 -->
<g id="node22" class="node">
<title>Node21</title>
<polygon fill="none" stroke="#bfbfbf" points="1156,-347.5 1156,-366.5 1198,-366.5 1198,-347.5 1156,-347.5"/>
<text text-anchor="middle" x="1177" y="-354.5" font-family="Helvetica,sans-Serif" font-size="10.00" fill="#000000">array</text>
</g>
<!-- Node19&#45;&gt;Node21 -->
<g id="edge22" class="edge">
<title>Node19&#45;&gt;Node21</title>
<path fill="none" stroke="#191970" d="M1280.5117,-403.3733C1260.356,-394.3435 1230.012,-380.7494 1207.382,-370.6111"/>
<polygon fill="#191970" stroke="#191970" points="1208.7649,-367.3955 1198.2079,-366.5011 1205.9029,-373.7838 1208.7649,-367.3955"/>
</g>
<!-- Node22 -->
<g id="node23" class="node">
<title>Node22</title>
<g id="a_node23"><a xlink:href="../../de/d41/PadPos_8h.html" target="_top" xlink:title="TPCBase/PadPos.h">
<polygon fill="none" stroke="#000000" points="1151,-235.5 1151,-254.5 1257,-254.5 1257,-235.5 1151,-235.5"/>
<text text-anchor="middle" x="1204" y="-242.5" font-family="Helvetica,sans-Serif" font-size="10.00" fill="#000000">TPCBase/PadPos.h</text>
</a>
</g>
</g>
<!-- Node19&#45;&gt;Node22 -->
<g id="edge26" class="edge">
<title>Node19&#45;&gt;Node22</title>
<path fill="none" stroke="#191970" d="M1292.5357,-403.4543C1276.0882,-386.3556 1242.159,-348.7496 1223,-311 1215.58,-296.3801 1210.6495,-278.4251 1207.6747,-264.9352"/>
<polygon fill="#191970" stroke="#191970" points="1211.0422,-263.9299 1205.6242,-254.8252 1204.1818,-265.3213 1211.0422,-263.9299"/>
</g>
<!-- Node23 -->
<g id="node24" class="node">
<title>Node23</title>
<g id="a_node24"><a xlink:href="../../dd/d0b/PadSecPos_8h.html" target="_top" xlink:title="TPCBase/PadSecPos.h">
<polygon fill="none" stroke="#000000" points="1232.5,-291.5 1232.5,-310.5 1355.5,-310.5 1355.5,-291.5 1232.5,-291.5"/>
<text text-anchor="middle" x="1294" y="-298.5" font-family="Helvetica,sans-Serif" font-size="10.00" fill="#000000">TPCBase/PadSecPos.h</text>
</a>
</g>
</g>
<!-- Node19&#45;&gt;Node23 -->
<g id="edge27" class="edge">
<title>Node19&#45;&gt;Node23</title>
<path fill="none" stroke="#191970" d="M1298.1376,-403.3228C1294.6962,-394.1446 1289.9167,-379.8807 1288,-367 1285.698,-351.5299 1287.5325,-333.8794 1289.7597,-320.7262"/>
<polygon fill="#191970" stroke="#191970" points="1293.2016,-321.361 1291.6406,-310.8818 1286.326,-320.0472 1293.2016,-321.361"/>
</g>
<!-- Node19&#45;&gt;Node24 -->
<g id="edge53" class="edge">
<title>Node19&#45;&gt;Node24</title>
<path fill="none" stroke="#191970" d="M1302.992,-403.3064C1304.7585,-389.7476 1309.4213,-364.7876 1321,-347 1334.5974,-326.1111 1353.4539,-333.5835 1364,-311 1367.7611,-302.946 1368.0336,-298.921 1364,-291 1333.0386,-230.1988 1253.8936,-205.5965 1197.794,-195.6697"/>
<polygon fill="#191970" stroke="#191970" points="1198.0415,-192.1631 1187.6039,-193.9815 1196.8974,-199.069 1198.0415,-192.1631"/>
</g>
<!-- Node26 -->
<g id="node27" class="node">
<title>Node26</title>
<g id="a_node27"><a xlink:href="../../da/d61/PadROCPos_8h.html" target="_top" xlink:title="TPCBase/PadROCPos.h">
<polygon fill="none" stroke="#000000" points="862.5,-291.5 862.5,-310.5 989.5,-310.5 989.5,-291.5 862.5,-291.5"/>
<text text-anchor="middle" x="926" y="-298.5" font-family="Helvetica,sans-Serif" font-size="10.00" fill="#000000">TPCBase/PadROCPos.h</text>
</a>
</g>
</g>
<!-- Node19&#45;&gt;Node26 -->
<g id="edge32" class="edge">
<title>Node19&#45;&gt;Node26</title>
<path fill="none" stroke="#191970" d="M1248.3218,-411.6383C1164.2276,-408.5473 1006.3344,-398.5937 961,-367 945.4163,-356.1397 936.2082,-336.105 931.1811,-320.9473"/>
<polygon fill="#191970" stroke="#191970" points="934.423,-319.568 928.2282,-310.9729 927.711,-321.5551 934.423,-319.568"/>
</g>
<!-- Node28 -->
<g id="node29" class="node">
<title>Node28</title>
<g id="a_node29"><a xlink:href="../../d3/d54/DigitPos_8h.html" target="_top" xlink:title="TPCBase/DigitPos.h">
<polygon fill="none" stroke="#000000" points="970,-347.5 970,-366.5 1082,-366.5 1082,-347.5 970,-347.5"/>
<text text-anchor="middle" x="1026" y="-354.5" font-family="Helvetica,sans-Serif" font-size="10.00" fill="#000000">TPCBase/DigitPos.h</text>
</a>
</g>
</g>
<!-- Node19&#45;&gt;Node28 -->
<g id="edge38" class="edge">
<title>Node19&#45;&gt;Node28</title>
<path fill="none" stroke="#191970" d="M1254.8675,-403.4369C1207.2353,-393.7724 1133.6033,-378.8326 1082.7834,-368.5213"/>
<polygon fill="#191970" stroke="#191970" points="1083.4344,-365.0821 1072.9381,-366.5237 1082.0424,-371.9423 1083.4344,-365.0821"/>
</g>
<!-- Node30 -->
<g id="node31" class="node">
<title>Node30</title>
<g id="a_node31"><a xlink:href="../../d1/d1f/FECInfo_8h.html" target="_top" xlink:title="TPCBase/FECInfo.h">
<polygon fill="none" stroke="#000000" points="1526,-179.5 1526,-198.5 1634,-198.5 1634,-179.5 1526,-179.5"/>
<text text-anchor="middle" x="1580" y="-186.5" font-family="Helvetica,sans-Serif" font-size="10.00" fill="#000000">TPCBase/FECInfo.h</text>
</a>
</g>
</g>
<!-- Node19&#45;&gt;Node30 -->
<g id="edge46" class="edge">
<title>Node19&#45;&gt;Node30</title>
<path fill="none" stroke="#191970" d="M1355.6927,-403.9643C1413.9086,-393.7427 1500.1554,-377.1965 1512,-367 1560.1675,-325.5347 1574.3365,-246.0525 1578.4085,-208.9704"/>
<polygon fill="#191970" stroke="#191970" points="1581.9023,-209.2013 1579.3745,-198.9124 1574.9344,-208.532 1581.9023,-209.2013"/>
</g>
<!-- Node31 -->
<g id="node32" class="node">
<title>Node31</title>
<g id="a_node32"><a xlink:href="../../da/d9d/PadRegionInfo_8h.html" target="_top" xlink:title="TPCBase/PadRegionInfo.h">
<polygon fill="none" stroke="#000000" points="1330,-347.5 1330,-366.5 1470,-366.5 1470,-347.5 1330,-347.5"/>
<text text-anchor="middle" x="1400" y="-354.5" font-family="Helvetica,sans-Serif" font-size="10.00" fill="#000000">TPCBase/PadRegionInfo.h</text>
</a>
</g>
</g>
<!-- Node19&#45;&gt;Node31 -->
<g id="edge48" class="edge">
<title>Node19&#45;&gt;Node31</title>
<path fill="none" stroke="#191970" d="M1319.0703,-403.2455C1334.247,-394.5731 1356.6621,-381.7645 1374.0563,-371.825"/>
<polygon fill="#191970" stroke="#191970" points="1376.1794,-374.643 1383.1253,-366.6427 1372.7064,-368.5653 1376.1794,-374.643"/>
</g>
<!-- Node32 -->
<g id="node33" class="node">
<title>Node32</title>
<g id="a_node33"><a xlink:href="../../d6/d42/PartitionInfo_8h.html" target="_top" xlink:title="TPCBase/PartitionInfo.h">
<polygon fill="none" stroke="#000000" points="1564.5,-347.5 1564.5,-366.5 1695.5,-366.5 1695.5,-347.5 1564.5,-347.5"/>
<text text-anchor="middle" x="1630" y="-354.5" font-family="Helvetica,sans-Serif" font-size="10.00" fill="#000000">TPCBase/PartitionInfo.h</text>
</a>
</g>
</g>
<!-- Node19&#45;&gt;Node32 -->
<g id="edge52" class="edge">
<title>Node19&#45;&gt;Node32</title>
<path fill="none" stroke="#191970" d="M1355.7952,-403.8154C1412.8661,-394.0716 1503.0763,-378.6699 1564.3082,-368.2157"/>
<polygon fill="#191970" stroke="#191970" points="1564.9861,-371.6507 1574.2544,-366.5175 1563.808,-364.7505 1564.9861,-371.6507"/>
</g>
<!-- Node23&#45;&gt;Node22 -->
<g id="edge31" class="edge">
<title>Node23&#45;&gt;Node22</title>
<path fill="none" stroke="#191970" d="M1278.3232,-291.2455C1264.5144,-282.6534 1244.1807,-270.0014 1228.2708,-260.1018"/>
<polygon fill="#191970" stroke="#191970" points="1229.8368,-256.954 1219.4972,-254.6427 1226.1387,-262.8974 1229.8368,-256.954"/>
</g>
<!-- Node23&#45;&gt;Node24 -->
<g id="edge28" class="edge">
<title>Node23&#45;&gt;Node24</title>
<path fill="none" stroke="#191970" d="M1292.3718,-291.0671C1289.5211,-276.7557 1282.3003,-250.3705 1266,-235 1247.2227,-217.2938 1221.1772,-206.3327 1197.4028,-199.5801"/>
<polygon fill="#191970" stroke="#191970" points="1198.2928,-196.1952 1187.7303,-197.022 1196.503,-202.9625 1198.2928,-196.1952"/>
</g>
<!-- Node24&#45;&gt;Node5 -->
<g id="edge30" class="edge">
<title>Node24&#45;&gt;Node5</title>
<path fill="none" stroke="#191970" d="M1109.495,-179.3733C1083.1198,-170.1419 1043.1149,-156.1402 1013.9642,-145.9375"/>
<polygon fill="#191970" stroke="#191970" points="1014.7409,-142.5012 1004.1461,-142.5011 1012.4284,-149.1082 1014.7409,-142.5012"/>
</g>
<!-- Node25 -->
<g id="node26" class="node">
<title>Node25</title>
<g id="a_node26"><a xlink:href="../../d0/dda/DataFormats_2Detectors_2TPC_2include_2DataFormatsTPC_2Constants_8h.html" target="_top" xlink:title="DataFormatsTPC/Constants.h">
<polygon fill="none" stroke="#000000" points="1061.5,-123.5 1061.5,-142.5 1220.5,-142.5 1220.5,-123.5 1061.5,-123.5"/>
<text text-anchor="middle" x="1141" y="-130.5" font-family="Helvetica,sans-Serif" font-size="10.00" fill="#000000">DataFormatsTPC/Constants.h</text>
</a>
</g>
</g>
<!-- Node24&#45;&gt;Node25 -->
<g id="edge29" class="edge">
<title>Node24&#45;&gt;Node25</title>
<path fill="none" stroke="#191970" d="M1137.6967,-179.2455C1138.2187,-171.9382 1138.9504,-161.6944 1139.5925,-152.7046"/>
<polygon fill="#191970" stroke="#191970" points="1143.0898,-152.8667 1140.3112,-142.6427 1136.1076,-152.3679 1143.0898,-152.8667"/>
</g>
<!-- Node26&#45;&gt;Node5 -->
<g id="edge33" class="edge">
<title>Node26&#45;&gt;Node5</title>
<path fill="none" stroke="#191970" d="M914.6956,-291.1134C901.7762,-278.5443 883.3454,-255.9537 891,-235 904.0505,-199.2754 935.7413,-167.415 956.7907,-149.1595"/>
<polygon fill="#191970" stroke="#191970" points="959.1478,-151.7502 964.5421,-142.6315 954.6386,-146.396 959.1478,-151.7502"/>
</g>
<!-- Node26&#45;&gt;Node22 -->
<g id="edge37" class="edge">
<title>Node26&#45;&gt;Node22</title>
<path fill="none" stroke="#191970" d="M973.474,-291.4369C1021.4514,-281.7724 1095.617,-266.8326 1146.8051,-256.5213"/>
<polygon fill="#191970" stroke="#191970" points="1147.6099,-259.9296 1156.7218,-254.5237 1146.2275,-253.0674 1147.6099,-259.9296"/>
</g>
<!-- Node26&#45;&gt;Node27 -->
<g id="edge34" class="edge">
<title>Node26&#45;&gt;Node27</title>
<path fill="none" stroke="#191970" d="M929.4837,-291.2455C932.1508,-283.7776 935.9133,-273.2427 939.1737,-264.1137"/>
<polygon fill="#191970" stroke="#191970" points="942.4889,-265.2373 942.5562,-254.6427 935.8967,-262.8829 942.4889,-265.2373"/>
</g>
<!-- Node27&#45;&gt;Node5 -->
<g id="edge35" class="edge">
<title>Node27&#45;&gt;Node5</title>
<path fill="none" stroke="#191970" d="M948.643,-235.4509C953.722,-217.1013 964.9347,-176.5908 971.6388,-152.3693"/>
<polygon fill="#191970" stroke="#191970" points="975.0692,-153.0962 974.3636,-142.5249 968.3228,-151.2289 975.0692,-153.0962"/>
</g>
<!-- Node27&#45;&gt;Node24 -->
<g id="edge36" class="edge">
<title>Node27&#45;&gt;Node24</title>
<path fill="none" stroke="#191970" d="M978.8341,-235.3733C1010.8695,-225.9807 1059.7487,-211.6496 1094.6855,-201.4064"/>
<polygon fill="#191970" stroke="#191970" points="1095.9831,-204.6733 1104.5944,-198.5011 1094.0136,-197.9561 1095.9831,-204.6733"/>
</g>
<!-- Node28&#45;&gt;Node5 -->
<g id="edge39" class="edge">
<title>Node28&#45;&gt;Node5</title>
<path fill="none" stroke="#191970" d="M1024.1485,-347.4888C1020.124,-326.9256 1010.2003,-276.8086 1001,-235 994.6662,-206.2177 986.7378,-173.017 981.7693,-152.5157"/>
<polygon fill="#191970" stroke="#191970" points="985.1075,-151.4305 979.3425,-142.5414 978.3059,-153.0854 985.1075,-151.4305"/>
</g>
<!-- Node28&#45;&gt;Node22 -->
<g id="edge44" class="edge">
<title>Node28&#45;&gt;Node22</title>
<path fill="none" stroke="#191970" d="M1065.1632,-347.4665C1090.0964,-340.1548 1122.2393,-328.3376 1147,-311 1165.4867,-298.0555 1181.7703,-277.8085 1192.1485,-263.152"/>
<polygon fill="#191970" stroke="#191970" points="1195.0602,-265.0946 1197.8142,-254.864 1189.2814,-261.1442 1195.0602,-265.0946"/>
</g>
<!-- Node28&#45;&gt;Node23 -->
<g id="edge45" class="edge">
<title>Node28&#45;&gt;Node23</title>
<path fill="none" stroke="#191970" d="M1071.7663,-347.4369C1117.9215,-337.7925 1189.2178,-322.8948 1238.5537,-312.5858"/>
<polygon fill="#191970" stroke="#191970" points="1239.3498,-315.9951 1248.4224,-310.5237 1237.9179,-309.1431 1239.3498,-315.9951"/>
</g>
<!-- Node29 -->
<g id="node30" class="node">
<title>Node29</title>
<g id="a_node30"><a xlink:href="../../df/d26/CRU_8h.html" target="_top" xlink:title="TPCBase/CRU.h">
<polygon fill="none" stroke="#000000" points="1046,-291.5 1046,-310.5 1138,-310.5 1138,-291.5 1046,-291.5"/>
<text text-anchor="middle" x="1092" y="-298.5" font-family="Helvetica,sans-Serif" font-size="10.00" fill="#000000">TPCBase/CRU.h</text>
</a>
</g>
</g>
<!-- Node28&#45;&gt;Node29 -->
<g id="edge40" class="edge">
<title>Node28&#45;&gt;Node29</title>
<path fill="none" stroke="#191970" d="M1037.4963,-347.2455C1047.2442,-338.9746 1061.4259,-326.9416 1072.8798,-317.2232"/>
<polygon fill="#191970" stroke="#191970" points="1075.2747,-319.7813 1080.6354,-310.6427 1070.7459,-314.4437 1075.2747,-319.7813"/>
</g>
<!-- Node29&#45;&gt;Node5 -->
<g id="edge41" class="edge">
<title>Node29&#45;&gt;Node5</title>
<path fill="none" stroke="#191970" d="M1089.0577,-291.3274C1082.1079,-269.5757 1063.0456,-215.8292 1034,-179 1024.7418,-167.2608 1011.9651,-156.602 1000.8543,-148.5073"/>
<polygon fill="#191970" stroke="#191970" points="1002.6004,-145.4574 992.4,-142.5935 998.5881,-151.1934 1002.6004,-145.4574"/>
</g>
<!-- Node29&#45;&gt;Node24 -->
<g id="edge42" class="edge">
<title>Node29&#45;&gt;Node24</title>
<path fill="none" stroke="#191970" d="M1095.8367,-291.4509C1103.2425,-273.0186 1119.6327,-232.2254 1129.3488,-208.043"/>
<polygon fill="#191970" stroke="#191970" points="1132.6925,-209.1088 1133.173,-198.5249 1126.1971,-206.499 1132.6925,-209.1088"/>
</g>
<!-- Node29&#45;&gt;Node27 -->
<g id="edge43" class="edge">
<title>Node29&#45;&gt;Node27</title>
<path fill="none" stroke="#191970" d="M1066.9017,-291.3733C1043.0445,-282.2226 1006.9665,-268.3844 980.429,-258.2057"/>
<polygon fill="#191970" stroke="#191970" points="981.361,-254.8145 970.7708,-254.5011 978.8541,-261.3503 981.361,-254.8145"/>
</g>
<!-- Node30&#45;&gt;Node18 -->
<g id="edge47" class="edge">
<title>Node30&#45;&gt;Node18</title>
<path fill="none" stroke="#191970" d="M1577.958,-179.4248C1572.1093,-151.999 1555.2051,-72.732 1547.243,-35.3964"/>
<polygon fill="#191970" stroke="#191970" points="1550.5901,-34.3096 1545.0813,-25.2595 1543.744,-35.7696 1550.5901,-34.3096"/>
</g>
<!-- Node31&#45;&gt;Node2 -->
<g id="edge49" class="edge">
<title>Node31&#45;&gt;Node2</title>
<path fill="none" stroke="#191970" d="M1458.5741,-347.4369C1530.6247,-335.6735 1650.5447,-316.0947 1708.9471,-306.5597"/>
<polygon fill="#191970" stroke="#191970" points="1709.8054,-309.9659 1719.1108,-304.9003 1708.6774,-303.0574 1709.8054,-309.9659"/>
</g>
<!-- Node31&#45;&gt;Node5 -->
<g id="edge50" class="edge">
<title>Node31&#45;&gt;Node5</title>
<path fill="none" stroke="#191970" d="M1398.151,-347.1997C1395.4044,-333.9442 1389.5221,-309.7982 1380,-291 1365.9416,-263.2464 1362.7394,-253.8644 1338,-235 1284.0528,-193.864 1260.9827,-198.4864 1196,-179 1146.4579,-164.1438 1089.217,-152.2989 1045.6828,-144.3511"/>
<polygon fill="#191970" stroke="#191970" points="1046.2314,-140.8937 1035.7692,-142.5652 1044.9902,-147.7828 1046.2314,-140.8937"/>
</g>
<!-- Node31&#45;&gt;Node22 -->
<g id="edge51" class="edge">
<title>Node31&#45;&gt;Node22</title>
<path fill="none" stroke="#191970" d="M1397.3611,-347.3682C1392.9112,-332.9479 1382.5351,-305.8572 1364,-291 1348.1111,-278.2639 1301.239,-265.6119 1262.3052,-256.81"/>
<polygon fill="#191970" stroke="#191970" points="1262.606,-253.2918 1252.0856,-254.5452 1261.0914,-260.126 1262.606,-253.2918"/>
</g>
<!-- Node33&#45;&gt;Node1 -->
<g id="edge59" class="edge">
<title>Node33&#45;&gt;Node1</title>
<path fill="none" stroke="#191970" d="M1585.1512,-459.3733C1558.3297,-450.1016 1517.5873,-436.0178 1488.0402,-425.804"/>
<polygon fill="#191970" stroke="#191970" points="1489.0802,-422.4603 1478.4854,-422.5011 1486.7931,-429.0762 1489.0802,-422.4603"/>
</g>
<!-- Node33&#45;&gt;Node2 -->
<g id="edge60" class="edge">
<title>Node33&#45;&gt;Node2</title>
<path fill="none" stroke="#191970" d="M1669.2459,-459.5792C1735.5317,-448.2084 1837.4494,-429.7707 1843,-423 1864.4147,-396.8782 1861.2227,-375.4407 1843,-347 1828.4515,-324.2937 1799.5559,-312.6429 1776.5514,-306.7587"/>
<polygon fill="#191970" stroke="#191970" points="1777.322,-303.3446 1766.7913,-304.5081 1775.7491,-310.1656 1777.322,-303.3446"/>
</g>
<!-- Node33&#45;&gt;Node3 -->
<g id="edge61" class="edge">
<title>Node33&#45;&gt;Node3</title>
<path fill="none" stroke="#191970" d="M1606.9528,-459.2992C1599.0679,-445.2767 1587.7541,-419.2481 1601,-403 1651.1741,-341.4537 1698.8117,-385.6371 1776,-367 1777.2769,-366.6917 1778.577,-366.3696 1779.8886,-366.0378"/>
<polygon fill="#191970" stroke="#191970" points="1781.2026,-369.3109 1789.9772,-363.3731 1779.4149,-362.543 1781.2026,-369.3109"/>
</g>
<!-- Node33&#45;&gt;Node19 -->
<g id="edge64" class="edge">
<title>Node33&#45;&gt;Node19</title>
<path fill="none" stroke="#191970" d="M1559.8906,-459.4369C1505.8826,-449.712 1422.2104,-434.6456 1364.9136,-424.3285"/>
<polygon fill="#191970" stroke="#191970" points="1365.3524,-420.8513 1354.8904,-422.5237 1364.1118,-427.7405 1365.3524,-420.8513"/>
</g>
<!-- Node34 -->
<g id="node35" class="node">
<title>Node34</title>
<polygon fill="none" stroke="#bfbfbf" points="1790,-403.5 1790,-422.5 1834,-422.5 1834,-403.5 1790,-403.5"/>
<text text-anchor="middle" x="1812" y="-410.5" font-family="Helvetica,sans-Serif" font-size="10.00" fill="#000000">Vc/Vc</text>
</g>
<!-- Node33&#45;&gt;Node34 -->
<g id="edge58" class="edge">
<title>Node33&#45;&gt;Node34</title>
<path fill="none" stroke="#191970" d="M1649.8401,-459.4209C1681.9016,-450.9714 1729.8356,-438.0691 1779.9692,-423.2237"/>
<polygon fill="#191970" stroke="#191970" points="1781.1012,-426.5386 1789.6861,-420.3298 1779.1031,-419.8298 1781.1012,-426.5386"/>
</g>
<!-- Node35 -->
<g id="node36" class="node">
<title>Node35</title>
<polygon fill="none" stroke="#bfbfbf" points="1498,-403.5 1498,-422.5 1554,-422.5 1554,-403.5 1498,-403.5"/>
<text text-anchor="middle" x="1526" y="-410.5" font-family="Helvetica,sans-Serif" font-size="10.00" fill="#000000">numeric</text>
</g>
<!-- Node33&#45;&gt;Node35 -->
<g id="edge62" class="edge">
<title>Node33&#45;&gt;Node35</title>
<path fill="none" stroke="#191970" d="M1597.8458,-459.2455C1584.4973,-450.6534 1564.8414,-438.0014 1549.4617,-428.1018"/>
<polygon fill="#191970" stroke="#191970" points="1551.2836,-425.1121 1540.9806,-422.6427 1547.4949,-430.9982 1551.2836,-425.1121"/>
</g>
<!-- Node36 -->
<g id="node37" class="node">
<title>Node36</title>
<polygon fill="none" stroke="#bfbfbf" points="1610.5,-403.5 1610.5,-422.5 1679.5,-422.5 1679.5,-403.5 1610.5,-403.5"/>
<text text-anchor="middle" x="1645" y="-410.5" font-family="Helvetica,sans-Serif" font-size="10.00" fill="#000000">type_traits</text>
</g>
<!-- Node33&#45;&gt;Node36 -->
<g id="edge63" class="edge">
<title>Node33&#45;&gt;Node36</title>
<path fill="none" stroke="#191970" d="M1618.574,-459.2455C1622.9331,-451.617 1629.1211,-440.7881 1634.4133,-431.5267"/>
<polygon fill="#191970" stroke="#191970" points="1637.5673,-433.0616 1639.4899,-422.6427 1631.4896,-429.5886 1637.5673,-433.0616"/>
</g>
<!-- Node37 -->
<g id="node38" class="node">
<title>Node37</title>
<polygon fill="none" stroke="#bfbfbf" points="1697.5,-403.5 1697.5,-422.5 1772.5,-422.5 1772.5,-403.5 1697.5,-403.5"/>
<text text-anchor="middle" x="1735" y="-410.5" font-family="Helvetica,sans-Serif" font-size="10.00" fill="#000000">FairLogger.h</text>
</g>
<!-- Node33&#45;&gt;Node37 -->
<g id="edge65" class="edge">
<title>Node33&#45;&gt;Node37</title>
<path fill="none" stroke="#191970" d="M1633.9725,-459.3733C1653.5567,-450.3838 1682.9961,-436.8706 1705.051,-426.7471"/>
<polygon fill="#191970" stroke="#191970" points="1706.6729,-429.8538 1714.3011,-422.5011 1703.7527,-423.4919 1706.6729,-429.8538"/>
</g>
<!-- Node33&#45;&gt;Node38 -->
<g id="edge66" class="edge">
<title>Node33&#45;&gt;Node38</title>
<path fill="none" stroke="#191970" d="M1669.0125,-459.4369C1727.7338,-449.4113 1819.7053,-433.7089 1880.1709,-423.3855"/>
<polygon fill="#191970" stroke="#191970" points="1881.0678,-426.7831 1890.3361,-421.6499 1879.8897,-419.8829 1881.0678,-426.7831"/>
</g>
<!-- Node40 -->
<g id="node41" class="node">
<title>Node40</title>
<polygon fill="none" stroke="#bfbfbf" points="2052,-403.5 2052,-422.5 2160,-422.5 2160,-403.5 2052,-403.5"/>
<text text-anchor="middle" x="2106" y="-410.5" font-family="Helvetica,sans-Serif" font-size="10.00" fill="#000000">fairlogger/Logger.h</text>
</g>
<!-- Node39&#45;&gt;Node40 -->
<g id="edge68" class="edge">
<title>Node39&#45;&gt;Node40</title>
<path fill="none" stroke="#191970" d="M2106,-459.2455C2106,-451.9382 2106,-441.6944 2106,-432.7046"/>
<polygon fill="#191970" stroke="#191970" points="2109.5001,-432.6426 2106,-422.6427 2102.5001,-432.6427 2109.5001,-432.6426"/>
</g>
</g>
</svg>
        <g id="navigator" transform="translate(0 0)" fill="#404254">
                <rect fill="#f2f5e9" fill-opacity="0.5" stroke="#606060" stroke-width=".5" x="0" y="0" width="60" height="60"/>
                <use id="zoomplus" xlink:href="#zoomPlus" x="17" y="9" onmousedown="handleZoom(evt,'in')"/>
                <use id="zoomminus" xlink:href="#zoomMin" x="42" y="9" onmousedown="handleZoom(evt,'out')"/>
                <use id="reset" xlink:href="#resetDef" x="30" y="36" onmousedown="handleReset()"/>
                <g id="arrowUp" xlink:href="#dirArrow" transform="translate(30 24)" onmousedown="handlePan(0,-1)">
                  <use xlink:href="#rim" fill="#404040">
                        <set attributeName="fill" to="#808080" begin="arrowUp.mouseover" end="arrowUp.mouseout"/>
                  </use>
                  <path fill="none" stroke="white" stroke-width="1.5" d="M0,-3.0v7 M-2.5,-0.5L0,-3.0L2.5,-0.5"/>
                </g>
                <g id="arrowRight" xlink:href="#dirArrow" transform="rotate(90) translate(36 -43)" onmousedown="handlePan(1,0)">
                  <use xlink:href="#rim" fill="#404040">
                        <set attributeName="fill" to="#808080" begin="arrowRight.mouseover" end="arrowRight.mouseout"/>
                  </use>
                  <path fill="none" stroke="white" stroke-width="1.5" d="M0,-3.0v7 M-2.5,-0.5L0,-3.0L2.5,-0.5"/>
                </g>
                <g id="arrowDown" xlink:href="#dirArrow" transform="rotate(180) translate(-30 -48)" onmousedown="handlePan(0,1)">
                  <use xlink:href="#rim" fill="#404040">
                        <set attributeName="fill" to="#808080" begin="arrowDown.mouseover" end="arrowDown.mouseout"/>
                  </use>
                  <path fill="none" stroke="white" stroke-width="1.5" d="M0,-3.0v7 M-2.5,-0.5L0,-3.0L2.5,-0.5"/>
                </g>
                <g id="arrowLeft" xlink:href="#dirArrow" transform="rotate(270) translate(-36 17)" onmousedown="handlePan(-1,0)">
                  <use xlink:href="#rim" fill="#404040">
                        <set attributeName="fill" to="#808080" begin="arrowLeft.mouseover" end="arrowLeft.mouseout"/>
                  </use>
                  <path fill="none" stroke="white" stroke-width="1.5" d="M0,-3.0v7 M-2.5,-0.5L0,-3.0L2.5,-0.5"/>
                </g>
        </g>
        <svg viewBox="0 0 15 15" width="100%" height="30px" preserveAspectRatio="xMaxYMin meet">
         <g id="arrow_out" transform="scale(0.3 0.3)">
          <a xlink:href="TPC_2base_2include_2TPCBase_2CalDet_8h__incl_org.svg" target="_base">
           <rect id="button" ry="5" rx="5" y="6" x="6" height="38" width="38"
                fill="#f2f5e9" fill-opacity="0.5" stroke="#606060" stroke-width="1.0"/>
           <path id="arrow"
             d="M 11.500037,31.436501 C 11.940474,20.09759 22.043105,11.32322 32.158766,21.979434 L 37.068811,17.246167 C 37.068811,17.246167 37.088388,32 37.088388,32 L 22.160133,31.978069 C 22.160133,31.978069 26.997745,27.140456 26.997745,27.140456 C 18.528582,18.264221 13.291696,25.230495 11.500037,31.436501 z"
             style="fill:#404040;"/>
          </a>
         </g>
        </svg>
</svg>
