<?xml version="1.0" encoding="UTF-8" standalone="no"?>
<!DOCTYPE svg PUBLIC "-//W3C//DTD SVG 1.1//EN"
 "http://www.w3.org/Graphics/SVG/1.1/DTD/svg11.dtd">
<!-- Generated by graphviz version 2.40.1 (20161225.0304)
 -->
<!-- Title: /home/travis/build/AliceO2Group/AliceO2/Detectors/TPC/simulation/include/TPCSimulation/PadResponse.h Pages: 1 -->
<svg width="1570pt" height="520pt"
 viewBox="0.00 0.00 1570.00 520.00" xmlns="http://www.w3.org/2000/svg" xmlns:xlink="http://www.w3.org/1999/xlink">
<g id="graph0" class="graph" transform="scale(1 1) rotate(0) translate(4 516)">
<title>/home/travis/build/AliceO2Group/AliceO2/Detectors/TPC/simulation/include/TPCSimulation/PadResponse.h</title>
<!-- Node0 -->
<g id="node1" class="node">
<title>Node0</title>
<polygon fill="#bfbfbf" stroke="#000000" points="667,-459.5 667,-511.5 872,-511.5 872,-459.5 667,-459.5"/>
<text text-anchor="start" x="675" y="-499.5" font-family="Helvetica,sans-Serif" font-size="10.00" fill="#000000">/home/travis/build</text>
<text text-anchor="start" x="675" y="-488.5" font-family="Helvetica,sans-Serif" font-size="10.00" fill="#000000">/AliceO2Group/AliceO2</text>
<text text-anchor="start" x="675" y="-477.5" font-family="Helvetica,sans-Serif" font-size="10.00" fill="#000000">/Detectors/TPC/simulation</text>
<text text-anchor="middle" x="769.5" y="-466.5" font-family="Helvetica,sans-Serif" font-size="10.00" fill="#000000">/include/TPCSimulation/PadResponse.h</text>
</g>
<!-- Node1 -->
<g id="node2" class="node">
<title>Node1</title>
<polygon fill="none" stroke="#bfbfbf" points="678.5,-403.5 678.5,-422.5 752.5,-422.5 752.5,-403.5 678.5,-403.5"/>
<text text-anchor="middle" x="715.5" y="-410.5" font-family="Helvetica,sans-Serif" font-size="10.00" fill="#000000">TGraph2D.h</text>
</g>
<!-- Node0&#45;&gt;Node1 -->
<g id="edge1" class="edge">
<title>Node0&#45;&gt;Node1</title>
<path fill="none" stroke="#191970" d="M750.0048,-459.3258C742.9195,-449.8132 735.0853,-439.2951 728.6749,-430.6886"/>
<polygon fill="#191970" stroke="#191970" points="731.3816,-428.4632 722.6012,-422.534 725.7677,-432.6446 731.3816,-428.4632"/>
</g>
<!-- Node2 -->
<g id="node3" class="node">
<title>Node2</title>
<g id="a_node3"><a xlink:href="../../d5/d1d/TPC_2base_2include_2TPCBase_2Mapper_8h.html" target="_top" xlink:title="TPCBase/Mapper.h">
<polygon fill="none" stroke="#000000" points="771,-403.5 771,-422.5 878,-422.5 878,-403.5 771,-403.5"/>
<text text-anchor="middle" x="824.5" y="-410.5" font-family="Helvetica,sans-Serif" font-size="10.00" fill="#000000">TPCBase/Mapper.h</text>
</a>
</g>
</g>
<!-- Node0&#45;&gt;Node2 -->
<g id="edge2" class="edge">
<title>Node0&#45;&gt;Node2</title>
<path fill="none" stroke="#191970" d="M789.3563,-459.3258C796.5727,-449.8132 804.552,-439.2951 811.0811,-430.6886"/>
<polygon fill="#191970" stroke="#191970" points="814.0118,-432.6163 817.2673,-422.534 808.435,-428.3856 814.0118,-432.6163"/>
</g>
<!-- Node3 -->
<g id="node4" class="node">
<title>Node3</title>
<polygon fill="none" stroke="#bfbfbf" points="300.5,-347.5 300.5,-366.5 338.5,-366.5 338.5,-347.5 300.5,-347.5"/>
<text text-anchor="middle" x="319.5" y="-354.5" font-family="Helvetica,sans-Serif" font-size="10.00" fill="#000000">map</text>
</g>
<!-- Node2&#45;&gt;Node3 -->
<g id="edge3" class="edge">
<title>Node2&#45;&gt;Node3</title>
<path fill="none" stroke="#191970" d="M770.9196,-404.2351C767.7356,-403.7951 764.5776,-403.3792 761.5,-403 580.3892,-380.683 531.6617,-401.6448 352.5,-367 351.2106,-366.7507 349.8999,-366.4706 348.5809,-366.167"/>
<polygon fill="#191970" stroke="#191970" points="349.0905,-362.681 338.527,-363.4949 347.2924,-369.4461 349.0905,-362.681"/>
</g>
<!-- Node4 -->
<g id="node5" class="node">
<title>Node4</title>
<polygon fill="none" stroke="#bfbfbf" points="433,-291.5 433,-310.5 480,-310.5 480,-291.5 433,-291.5"/>
<text text-anchor="middle" x="456.5" y="-298.5" font-family="Helvetica,sans-Serif" font-size="10.00" fill="#000000">vector</text>
</g>
<!-- Node2&#45;&gt;Node4 -->
<g id="edge4" class="edge">
<title>Node2&#45;&gt;Node4</title>
<path fill="none" stroke="#191970" d="M770.9023,-404.3658C767.7226,-403.8929 764.5703,-403.4341 761.5,-403 697.2005,-393.9085 519.6558,-410.5672 471.5,-367 458.8625,-355.5667 455.7297,-335.905 455.3883,-321.0077"/>
<polygon fill="#191970" stroke="#191970" points="458.8919,-320.8168 455.5601,-310.7595 451.8928,-320.6994 458.8919,-320.8168"/>
</g>
<!-- Node5 -->
<g id="node6" class="node">
<title>Node5</title>
<polygon fill="none" stroke="#bfbfbf" points="1200.5,-347.5 1200.5,-366.5 1242.5,-366.5 1242.5,-347.5 1200.5,-347.5"/>
<text text-anchor="middle" x="1221.5" y="-354.5" font-family="Helvetica,sans-Serif" font-size="10.00" fill="#000000">array</text>
</g>
<!-- Node2&#45;&gt;Node5 -->
<g id="edge5" class="edge">
<title>Node2&#45;&gt;Node5</title>
<path fill="none" stroke="#191970" d="M878.2801,-408.7372C949.3492,-402.5193 1078.2052,-389.2172 1186.5,-367 1187.7536,-366.7428 1189.0279,-366.4638 1190.3117,-366.1679"/>
<polygon fill="#191970" stroke="#191970" points="1191.3327,-369.5196 1200.1562,-363.6547 1189.6012,-362.7371 1191.3327,-369.5196"/>
</g>
<!-- Node6 -->
<g id="node7" class="node">
<title>Node6</title>
<polygon fill="none" stroke="#bfbfbf" points="1260.5,-347.5 1260.5,-366.5 1304.5,-366.5 1304.5,-347.5 1260.5,-347.5"/>
<text text-anchor="middle" x="1282.5" y="-354.5" font-family="Helvetica,sans-Serif" font-size="10.00" fill="#000000">string</text>
</g>
<!-- Node2&#45;&gt;Node6 -->
<g id="edge6" class="edge">
<title>Node2&#45;&gt;Node6</title>
<path fill="none" stroke="#191970" d="M878.3104,-410.7368C957.9142,-406.6158 1111.711,-395.6959 1250.3428,-366.8703"/>
<polygon fill="#191970" stroke="#191970" points="1251.2382,-370.2585 1260.2968,-364.7638 1249.7888,-363.4101 1251.2382,-370.2585"/>
</g>
<!-- Node7 -->
<g id="node8" class="node">
<title>Node7</title>
<polygon fill="none" stroke="#bfbfbf" points="531,-67.5 531,-86.5 578,-86.5 578,-67.5 531,-67.5"/>
<text text-anchor="middle" x="554.5" y="-74.5" font-family="Helvetica,sans-Serif" font-size="10.00" fill="#000000">cmath</text>
</g>
<!-- Node2&#45;&gt;Node7 -->
<g id="edge7" class="edge">
<title>Node2&#45;&gt;Node7</title>
<path fill="none" stroke="#191970" d="M770.9098,-404.3115C767.7282,-403.8523 764.5734,-403.4113 761.5,-403 615.2669,-383.4297 564.2947,-431.2859 431.5,-367 394.4433,-349.0609 366.5,-342.1705 366.5,-301 366.5,-301 366.5,-301 366.5,-189 366.5,-118.1214 466.3451,-91.0676 520.5091,-81.606"/>
<polygon fill="#191970" stroke="#191970" points="521.386,-85.0092 530.6897,-79.9405 520.2558,-78.101 521.386,-85.0092"/>
</g>
<!-- Node8 -->
<g id="node9" class="node">
<title>Node8</title>
<g id="a_node9"><a xlink:href="../../d1/d73/Defs_8h.html" target="_top" xlink:title="DataFormatsTPC/Defs.h">
<polygon fill="none" stroke="#000000" points="871,-123.5 871,-142.5 1004,-142.5 1004,-123.5 871,-123.5"/>
<text text-anchor="middle" x="937.5" y="-130.5" font-family="Helvetica,sans-Serif" font-size="10.00" fill="#000000">DataFormatsTPC/Defs.h</text>
</a>
</g>
</g>
<!-- Node2&#45;&gt;Node8 -->
<g id="edge8" class="edge">
<title>Node2&#45;&gt;Node8</title>
<path fill="none" stroke="#191970" d="M872.8147,-403.4508C950.9767,-386.6023 1096.5,-348.8132 1096.5,-301 1096.5,-301 1096.5,-301 1096.5,-245 1096.5,-190.7808 1033.941,-160.5137 987.3043,-145.4832"/>
<polygon fill="#191970" stroke="#191970" points="988.2095,-142.0998 977.6224,-142.5039 986.1508,-148.7903 988.2095,-142.0998"/>
</g>
<!-- Node10 -->
<g id="node11" class="node">
<title>Node10</title>
<g id="a_node11"><a xlink:href="../../dc/d73/Cartesian_8h.html" target="_top" xlink:title="MathUtils/Cartesian.h">
<polygon fill="none" stroke="#000000" points="979.5,-67.5 979.5,-86.5 1101.5,-86.5 1101.5,-67.5 979.5,-67.5"/>
<text text-anchor="middle" x="1040.5" y="-74.5" font-family="Helvetica,sans-Serif" font-size="10.00" fill="#000000">MathUtils/Cartesian.h</text>
</a>
</g>
</g>
<!-- Node2&#45;&gt;Node10 -->
<g id="edge50" class="edge">
<title>Node2&#45;&gt;Node10</title>
<path fill="none" stroke="#191970" d="M878.1907,-408.0749C923.7529,-402.4286 990.0466,-390.6955 1043.5,-367 1089.1753,-346.7525 1134.5,-350.962 1134.5,-301 1134.5,-301 1134.5,-301 1134.5,-189 1134.5,-146.1654 1093.661,-111.139 1065.8197,-92.2374"/>
<polygon fill="#191970" stroke="#191970" points="1067.592,-89.2145 1057.3053,-86.6776 1063.7647,-95.0756 1067.592,-89.2145"/>
</g>
<!-- Node21 -->
<g id="node22" class="node">
<title>Node21</title>
<g id="a_node22"><a xlink:href="../../de/d41/PadPos_8h.html" target="_top" xlink:title="TPCBase/PadPos.h">
<polygon fill="none" stroke="#000000" points="655.5,-235.5 655.5,-254.5 761.5,-254.5 761.5,-235.5 655.5,-235.5"/>
<text text-anchor="middle" x="708.5" y="-242.5" font-family="Helvetica,sans-Serif" font-size="10.00" fill="#000000">TPCBase/PadPos.h</text>
</a>
</g>
</g>
<!-- Node2&#45;&gt;Node21 -->
<g id="edge22" class="edge">
<title>Node2&#45;&gt;Node21</title>
<path fill="none" stroke="#191970" d="M805.5056,-403.3787C791.2219,-395.3242 772.0335,-382.6444 759.5,-367 734.4935,-335.7867 719.9029,-290.5545 713.1328,-264.8404"/>
<polygon fill="#191970" stroke="#191970" points="716.4485,-263.6715 710.6326,-254.8157 709.6566,-265.3655 716.4485,-263.6715"/>
</g>
<!-- Node22 -->
<g id="node23" class="node">
<title>Node22</title>
<g id="a_node23"><a xlink:href="../../dd/d0b/PadSecPos_8h.html" target="_top" xlink:title="TPCBase/PadSecPos.h">
<polygon fill="none" stroke="#000000" points="575,-291.5 575,-310.5 698,-310.5 698,-291.5 575,-291.5"/>
<text text-anchor="middle" x="636.5" y="-298.5" font-family="Helvetica,sans-Serif" font-size="10.00" fill="#000000">TPCBase/PadSecPos.h</text>
</a>
</g>
</g>
<!-- Node2&#45;&gt;Node22 -->
<g id="edge23" class="edge">
<title>Node2&#45;&gt;Node22</title>
<path fill="none" stroke="#191970" d="M793.7415,-403.4106C770.4841,-395.4527 738.2675,-382.8834 712.5,-367 689.9068,-353.0733 667.3721,-332.4416 652.7783,-317.9622"/>
<polygon fill="#191970" stroke="#191970" points="655.0554,-315.2871 645.5377,-310.6327 650.0756,-320.2066 655.0554,-315.2871"/>
</g>
<!-- Node23 -->
<g id="node24" class="node">
<title>Node23</title>
<g id="a_node24"><a xlink:href="../../d3/dd6/Sector_8h.html" target="_top" xlink:title="TPCBase/Sector.h">
<polygon fill="none" stroke="#000000" points="731,-179.5 731,-198.5 832,-198.5 832,-179.5 731,-179.5"/>
<text text-anchor="middle" x="781.5" y="-186.5" font-family="Helvetica,sans-Serif" font-size="10.00" fill="#000000">TPCBase/Sector.h</text>
</a>
</g>
</g>
<!-- Node2&#45;&gt;Node23 -->
<g id="edge49" class="edge">
<title>Node2&#45;&gt;Node23</title>
<path fill="none" stroke="#191970" d="M770.9056,-404.3424C767.7251,-403.8754 764.5717,-403.4243 761.5,-403 693.675,-393.6312 512.6069,-404.7731 455.5,-367 431.5912,-351.1856 430.8576,-338.7055 423.5,-311 421.2185,-302.4089 418.1445,-298.0945 423.5,-291 459.294,-243.5832 628.3313,-211.6634 720.7601,-197.4387"/>
<polygon fill="#191970" stroke="#191970" points="721.4584,-200.8729 730.8208,-195.9137 720.4092,-193.952 721.4584,-200.8729"/>
</g>
<!-- Node25 -->
<g id="node26" class="node">
<title>Node25</title>
<g id="a_node26"><a xlink:href="../../da/d61/PadROCPos_8h.html" target="_top" xlink:title="TPCBase/PadROCPos.h">
<polygon fill="none" stroke="#000000" points="903,-291.5 903,-310.5 1030,-310.5 1030,-291.5 903,-291.5"/>
<text text-anchor="middle" x="966.5" y="-298.5" font-family="Helvetica,sans-Serif" font-size="10.00" fill="#000000">TPCBase/PadROCPos.h</text>
</a>
</g>
</g>
<!-- Node2&#45;&gt;Node25 -->
<g id="edge28" class="edge">
<title>Node2&#45;&gt;Node25</title>
<path fill="none" stroke="#191970" d="M838.7206,-403.4969C852.0758,-394.4418 872.4924,-380.2611 889.5,-367 910.1191,-350.923 932.7266,-331.2895 948.0775,-317.6353"/>
<polygon fill="#191970" stroke="#191970" points="950.6818,-320.0016 955.8005,-310.7253 946.0143,-314.7849 950.6818,-320.0016"/>
</g>
<!-- Node27 -->
<g id="node28" class="node">
<title>Node27</title>
<g id="a_node28"><a xlink:href="../../d3/d54/DigitPos_8h.html" target="_top" xlink:title="TPCBase/DigitPos.h">
<polygon fill="none" stroke="#000000" points="768.5,-347.5 768.5,-366.5 880.5,-366.5 880.5,-347.5 768.5,-347.5"/>
<text text-anchor="middle" x="824.5" y="-354.5" font-family="Helvetica,sans-Serif" font-size="10.00" fill="#000000">TPCBase/DigitPos.h</text>
</a>
</g>
</g>
<!-- Node2&#45;&gt;Node27 -->
<g id="edge34" class="edge">
<title>Node2&#45;&gt;Node27</title>
<path fill="none" stroke="#191970" d="M824.5,-403.2455C824.5,-395.9382 824.5,-385.6944 824.5,-376.7046"/>
<polygon fill="#191970" stroke="#191970" points="828.0001,-376.6426 824.5,-366.6427 821.0001,-376.6427 828.0001,-376.6426"/>
</g>
<!-- Node29 -->
<g id="node30" class="node">
<title>Node29</title>
<g id="a_node30"><a xlink:href="../../d1/d1f/FECInfo_8h.html" target="_top" xlink:title="TPCBase/FECInfo.h">
<polygon fill="none" stroke="#000000" points="1345.5,-179.5 1345.5,-198.5 1453.5,-198.5 1453.5,-179.5 1345.5,-179.5"/>
<text text-anchor="middle" x="1399.5" y="-186.5" font-family="Helvetica,sans-Serif" font-size="10.00" fill="#000000">TPCBase/FECInfo.h</text>
</a>
</g>
</g>
<!-- Node2&#45;&gt;Node29 -->
<g id="edge42" class="edge">
<title>Node2&#45;&gt;Node29</title>
<path fill="none" stroke="#191970" d="M878.0257,-408.4856C956.9709,-401.3071 1100.467,-386.126 1148.5,-367 1199.4056,-346.7301 1329.8924,-244.6542 1379.738,-204.8895"/>
<polygon fill="#191970" stroke="#191970" points="1381.9257,-207.6216 1387.5482,-198.6417 1377.553,-202.1554 1381.9257,-207.6216"/>
</g>
<!-- Node30 -->
<g id="node31" class="node">
<title>Node30</title>
<g id="a_node31"><a xlink:href="../../da/d9d/PadRegionInfo_8h.html" target="_top" xlink:title="TPCBase/PadRegionInfo.h">
<polygon fill="none" stroke="#000000" points="480.5,-347.5 480.5,-366.5 620.5,-366.5 620.5,-347.5 480.5,-347.5"/>
<text text-anchor="middle" x="550.5" y="-354.5" font-family="Helvetica,sans-Serif" font-size="10.00" fill="#000000">TPCBase/PadRegionInfo.h</text>
</a>
</g>
</g>
<!-- Node2&#45;&gt;Node30 -->
<g id="edge44" class="edge">
<title>Node2&#45;&gt;Node30</title>
<path fill="none" stroke="#191970" d="M777.709,-403.4369C730.5205,-393.7925 657.628,-378.8948 607.1876,-368.5858"/>
<polygon fill="#191970" stroke="#191970" points="607.5963,-365.097 597.098,-366.5237 606.1946,-371.9553 607.5963,-365.097"/>
</g>
<!-- Node31 -->
<g id="node32" class="node">
<title>Node31</title>
<g id="a_node32"><a xlink:href="../../d6/d42/PartitionInfo_8h.html" target="_top" xlink:title="TPCBase/PartitionInfo.h">
<polygon fill="none" stroke="#000000" points="1323,-347.5 1323,-366.5 1454,-366.5 1454,-347.5 1323,-347.5"/>
<text text-anchor="middle" x="1388.5" y="-354.5" font-family="Helvetica,sans-Serif" font-size="10.00" fill="#000000">TPCBase/PartitionInfo.h</text>
</a>
</g>
</g>
<!-- Node2&#45;&gt;Node31 -->
<g id="edge48" class="edge">
<title>Node2&#45;&gt;Node31</title>
<path fill="none" stroke="#191970" d="M878.1159,-408.6408C966.3279,-401.3185 1147.8458,-385.6204 1312.3579,-367.0919"/>
<polygon fill="#191970" stroke="#191970" points="1313.1251,-370.5275 1322.6677,-365.9244 1312.3374,-363.5719 1313.1251,-370.5275"/>
</g>
<!-- Node8&#45;&gt;Node7 -->
<g id="edge9" class="edge">
<title>Node8&#45;&gt;Node7</title>
<path fill="none" stroke="#191970" d="M872.0951,-123.4369C789.8945,-111.418 651.8946,-91.2405 588.3729,-81.9527"/>
<polygon fill="#191970" stroke="#191970" points="588.5227,-78.4375 578.1215,-80.4538 587.5099,-85.3638 588.5227,-78.4375"/>
</g>
<!-- Node9 -->
<g id="node10" class="node">
<title>Node9</title>
<g id="a_node10"><a xlink:href="../../d1/da8/GPUROOTCartesianFwd_8h.html" target="_top" xlink:title="GPUROOTCartesianFwd.h">
<polygon fill="none" stroke="#000000" points="821.5,-67.5 821.5,-86.5 961.5,-86.5 961.5,-67.5 821.5,-67.5"/>
<text text-anchor="middle" x="891.5" y="-74.5" font-family="Helvetica,sans-Serif" font-size="10.00" fill="#000000">GPUROOTCartesianFwd.h</text>
</a>
</g>
</g>
<!-- Node8&#45;&gt;Node9 -->
<g id="edge10" class="edge">
<title>Node8&#45;&gt;Node9</title>
<path fill="none" stroke="#191970" d="M929.4874,-123.2455C923.0232,-115.3761 913.7615,-104.101 906.0017,-94.6542"/>
<polygon fill="#191970" stroke="#191970" points="908.4727,-92.1484 899.4208,-86.6427 903.0636,-96.5916 908.4727,-92.1484"/>
</g>
<!-- Node8&#45;&gt;Node10 -->
<g id="edge11" class="edge">
<title>Node8&#45;&gt;Node10</title>
<path fill="none" stroke="#191970" d="M955.4412,-123.2455C971.54,-114.4928 995.3879,-101.527 1013.7391,-91.5496"/>
<polygon fill="#191970" stroke="#191970" points="1015.6507,-94.4942 1022.7644,-86.6427 1012.3071,-88.3444 1015.6507,-94.4942"/>
</g>
<!-- Node11 -->
<g id="node12" class="node">
<title>Node11</title>
<polygon fill="none" stroke="#bfbfbf" points="1330.5,-.5 1330.5,-30.5 1494.5,-30.5 1494.5,-.5 1330.5,-.5"/>
<text text-anchor="start" x="1338.5" y="-18.5" font-family="Helvetica,sans-Serif" font-size="10.00" fill="#000000">Math/GenVector/Displacement</text>
<text text-anchor="middle" x="1412.5" y="-7.5" font-family="Helvetica,sans-Serif" font-size="10.00" fill="#000000">Vector3D.h</text>
</g>
<!-- Node10&#45;&gt;Node11 -->
<g id="edge12" class="edge">
<title>Node10&#45;&gt;Node11</title>
<path fill="none" stroke="#191970" d="M1099.4524,-67.4628C1154.1015,-58.596 1237.9608,-44.9249 1320.1513,-31.2199"/>
<polygon fill="#191970" stroke="#191970" points="1320.8768,-34.6473 1330.1641,-29.5487 1319.7244,-27.7428 1320.8768,-34.6473"/>
</g>
<!-- Node12 -->
<g id="node13" class="node">
<title>Node12</title>
<polygon fill="none" stroke="#bfbfbf" points="0,-6 0,-25 189,-25 189,-6 0,-6"/>
<text text-anchor="middle" x="94.5" y="-13" font-family="Helvetica,sans-Serif" font-size="10.00" fill="#000000">Math/GenVector/PositionVector3D.h</text>
</g>
<!-- Node10&#45;&gt;Node12 -->
<g id="edge13" class="edge">
<title>Node10&#45;&gt;Node12</title>
<path fill="none" stroke="#191970" d="M979.4574,-67.9303C976.4317,-67.5904 973.4332,-67.2773 970.5,-67 628.5404,-34.6753 540.3602,-64.3594 198.5,-31 186.5058,-29.8296 173.7817,-28.2321 161.5018,-26.5056"/>
<polygon fill="#191970" stroke="#191970" points="161.7151,-23.0001 151.3169,-25.0315 160.7124,-29.9279 161.7151,-23.0001"/>
</g>
<!-- Node13 -->
<g id="node14" class="node">
<title>Node13</title>
<polygon fill="none" stroke="#bfbfbf" points="207.5,-6 207.5,-25 367.5,-25 367.5,-6 207.5,-6"/>
<text text-anchor="middle" x="287.5" y="-13" font-family="Helvetica,sans-Serif" font-size="10.00" fill="#000000">Math/GenVector/Rotation3D.h</text>
</g>
<!-- Node10&#45;&gt;Node13 -->
<g id="edge14" class="edge">
<title>Node10&#45;&gt;Node13</title>
<path fill="none" stroke="#191970" d="M979.4524,-67.9807C976.428,-67.6275 973.4312,-67.2977 970.5,-67 707.3692,-40.276 639.1922,-61.7375 376.5,-31 366.6861,-29.8517 356.3124,-28.3298 346.2488,-26.6878"/>
<polygon fill="#191970" stroke="#191970" points="346.7634,-23.2253 336.3209,-25.0152 345.6004,-30.128 346.7634,-23.2253"/>
</g>
<!-- Node14 -->
<g id="node15" class="node">
<title>Node14</title>
<polygon fill="none" stroke="#bfbfbf" points="385.5,-6 385.5,-25 553.5,-25 553.5,-6 385.5,-6"/>
<text text-anchor="middle" x="469.5" y="-13" font-family="Helvetica,sans-Serif" font-size="10.00" fill="#000000">Math/GenVector/Transform3D.h</text>
</g>
<!-- Node10&#45;&gt;Node14 -->
<g id="edge15" class="edge">
<title>Node10&#45;&gt;Node14</title>
<path fill="none" stroke="#191970" d="M979.4416,-68.0806C976.4201,-67.701 973.4268,-67.3383 970.5,-67 790.1056,-46.1518 743.6596,-53.7886 563.5,-31 553.6546,-29.7546 543.2606,-28.2416 533.1161,-26.6548"/>
<polygon fill="#191970" stroke="#191970" points="533.5115,-23.1736 523.0842,-25.0505 532.406,-30.0858 533.5115,-23.1736"/>
</g>
<!-- Node15 -->
<g id="node16" class="node">
<title>Node15</title>
<polygon fill="none" stroke="#bfbfbf" points="572,-6 572,-25 745,-25 745,-6 572,-6"/>
<text text-anchor="middle" x="658.5" y="-13" font-family="Helvetica,sans-Serif" font-size="10.00" fill="#000000">Math/GenVector/Translation3D.h</text>
</g>
<!-- Node10&#45;&gt;Node15 -->
<g id="edge16" class="edge">
<title>Node10&#45;&gt;Node15</title>
<path fill="none" stroke="#191970" d="M981.3413,-67.4956C923.5047,-58.2012 832.9476,-43.6417 754.5,-31 745.7808,-29.5949 736.6164,-28.1168 727.5528,-26.6543"/>
<polygon fill="#191970" stroke="#191970" points="727.8216,-23.1524 717.3917,-25.0143 726.7062,-30.063 727.8216,-23.1524"/>
</g>
<!-- Node16 -->
<g id="node17" class="node">
<title>Node16</title>
<polygon fill="none" stroke="#bfbfbf" points="763.5,-.5 763.5,-30.5 927.5,-30.5 927.5,-.5 763.5,-.5"/>
<text text-anchor="start" x="771.5" y="-18.5" font-family="Helvetica,sans-Serif" font-size="10.00" fill="#000000">Math/GenVector/Displacement</text>
<text text-anchor="middle" x="845.5" y="-7.5" font-family="Helvetica,sans-Serif" font-size="10.00" fill="#000000">Vector2D.h</text>
</g>
<!-- Node10&#45;&gt;Node16 -->
<g id="edge17" class="edge">
<title>Node10&#45;&gt;Node16</title>
<path fill="none" stroke="#191970" d="M1010.0313,-67.3906C981.4411,-58.3737 937.947,-44.6563 902.8572,-33.5896"/>
<polygon fill="#191970" stroke="#191970" points="903.7921,-30.2145 893.2024,-30.5446 901.6866,-36.8904 903.7921,-30.2145"/>
</g>
<!-- Node17 -->
<g id="node18" class="node">
<title>Node17</title>
<polygon fill="none" stroke="#bfbfbf" points="946,-6 946,-25 1135,-25 1135,-6 946,-6"/>
<text text-anchor="middle" x="1040.5" y="-13" font-family="Helvetica,sans-Serif" font-size="10.00" fill="#000000">Math/GenVector/PositionVector2D.h</text>
</g>
<!-- Node10&#45;&gt;Node17 -->
<g id="edge18" class="edge">
<title>Node10&#45;&gt;Node17</title>
<path fill="none" stroke="#191970" d="M1040.5,-67.3906C1040.5,-58.8657 1040.5,-46.1392 1040.5,-35.4235"/>
<polygon fill="#191970" stroke="#191970" points="1044.0001,-35.2448 1040.5,-25.2449 1037.0001,-35.2449 1044.0001,-35.2448"/>
</g>
<!-- Node18 -->
<g id="node19" class="node">
<title>Node18</title>
<polygon fill="none" stroke="#bfbfbf" points="1153,-6 1153,-25 1212,-25 1212,-6 1153,-6"/>
<text text-anchor="middle" x="1182.5" y="-13" font-family="Helvetica,sans-Serif" font-size="10.00" fill="#000000">Rtypes.h</text>
</g>
<!-- Node10&#45;&gt;Node18 -->
<g id="edge19" class="edge">
<title>Node10&#45;&gt;Node18</title>
<path fill="none" stroke="#191970" d="M1062.6875,-67.3906C1086.4467,-57.1005 1124.3405,-40.6888 1151.1425,-29.0809"/>
<polygon fill="#191970" stroke="#191970" points="1152.683,-32.2279 1160.4683,-25.0419 1149.9009,-25.8045 1152.683,-32.2279"/>
</g>
<!-- Node19 -->
<g id="node20" class="node">
<title>Node19</title>
<polygon fill="none" stroke="#bfbfbf" points="1230.5,-6 1230.5,-25 1312.5,-25 1312.5,-6 1230.5,-6"/>
<text text-anchor="middle" x="1271.5" y="-13" font-family="Helvetica,sans-Serif" font-size="10.00" fill="#000000">TGeoMatrix.h</text>
</g>
<!-- Node10&#45;&gt;Node19 -->
<g id="edge20" class="edge">
<title>Node10&#45;&gt;Node19</title>
<path fill="none" stroke="#191970" d="M1080.5593,-67.4496C1117.3419,-58.5311 1173.2859,-44.59 1221.5,-31 1224.8827,-30.0465 1228.3844,-29.0274 1231.892,-27.9842"/>
<polygon fill="#191970" stroke="#191970" points="1233.1418,-31.2628 1241.6986,-25.0152 1231.1134,-24.5631 1233.1418,-31.2628"/>
</g>
<!-- Node20 -->
<g id="node21" class="node">
<title>Node20</title>
<polygon fill="none" stroke="#bfbfbf" points="1513,-6 1513,-25 1562,-25 1562,-6 1513,-6"/>
<text text-anchor="middle" x="1537.5" y="-13" font-family="Helvetica,sans-Serif" font-size="10.00" fill="#000000">iosfwd</text>
</g>
<!-- Node10&#45;&gt;Node20 -->
<g id="edge21" class="edge">
<title>Node10&#45;&gt;Node20</title>
<path fill="none" stroke="#191970" d="M1101.7548,-73.4144C1209.6791,-66.6815 1429.31,-51.005 1503.5,-31 1505.6883,-30.4099 1507.9126,-29.6922 1510.1223,-28.8927"/>
<polygon fill="#191970" stroke="#191970" points="1511.6457,-32.0506 1519.5593,-25.006 1508.9799,-25.578 1511.6457,-32.0506"/>
</g>
<!-- Node22&#45;&gt;Node21 -->
<g id="edge27" class="edge">
<title>Node22&#45;&gt;Node21</title>
<path fill="none" stroke="#191970" d="M649.0414,-291.2455C659.7787,-282.8943 675.4473,-270.7076 688.0047,-260.9408"/>
<polygon fill="#191970" stroke="#191970" points="690.3575,-263.5449 696.1023,-254.6427 686.0599,-258.0194 690.3575,-263.5449"/>
</g>
<!-- Node22&#45;&gt;Node23 -->
<g id="edge24" class="edge">
<title>Node22&#45;&gt;Node23</title>
<path fill="none" stroke="#191970" d="M635.0828,-291.2345C633.6113,-277.1314 633.1192,-251.0034 646.5,-235 657.4032,-221.9598 695.442,-209.6757 728.3737,-201.0876"/>
<polygon fill="#191970" stroke="#191970" points="729.5627,-204.3968 738.3943,-198.5442 727.8405,-197.612 729.5627,-204.3968"/>
</g>
<!-- Node23&#45;&gt;Node8 -->
<g id="edge26" class="edge">
<title>Node23&#45;&gt;Node8</title>
<path fill="none" stroke="#191970" d="M808.3174,-179.3733C834.0332,-170.1419 873.038,-156.1402 901.4599,-145.9375"/>
<polygon fill="#191970" stroke="#191970" points="902.8032,-149.174 911.0326,-142.5011 900.4381,-142.5857 902.8032,-149.174"/>
</g>
<!-- Node24 -->
<g id="node25" class="node">
<title>Node24</title>
<g id="a_node25"><a xlink:href="../../d0/dda/DataFormats_2Detectors_2TPC_2include_2DataFormatsTPC_2Constants_8h.html" target="_top" xlink:title="DataFormatsTPC/Constants.h">
<polygon fill="none" stroke="#000000" points="694,-123.5 694,-142.5 853,-142.5 853,-123.5 694,-123.5"/>
<text text-anchor="middle" x="773.5" y="-130.5" font-family="Helvetica,sans-Serif" font-size="10.00" fill="#000000">DataFormatsTPC/Constants.h</text>
</a>
</g>
</g>
<!-- Node23&#45;&gt;Node24 -->
<g id="edge25" class="edge">
<title>Node23&#45;&gt;Node24</title>
<path fill="none" stroke="#191970" d="M780.1065,-179.2455C779.0626,-171.9382 777.5992,-161.6944 776.3149,-152.7046"/>
<polygon fill="#191970" stroke="#191970" points="779.7566,-152.0472 774.8775,-142.6427 772.827,-153.0372 779.7566,-152.0472"/>
</g>
<!-- Node25&#45;&gt;Node8 -->
<g id="edge29" class="edge">
<title>Node25&#45;&gt;Node8</title>
<path fill="none" stroke="#191970" d="M965.8883,-291.4158C964.4435,-270.7109 960.2622,-220.3348 951.5,-179 949.6223,-170.1421 946.8224,-160.5322 944.2189,-152.3979"/>
<polygon fill="#191970" stroke="#191970" points="947.4837,-151.1239 941.0036,-142.7418 940.8422,-153.3354 947.4837,-151.1239"/>
</g>
<!-- Node25&#45;&gt;Node21 -->
<g id="edge33" class="edge">
<title>Node25&#45;&gt;Node21</title>
<path fill="none" stroke="#191970" d="M922.4414,-291.4369C878.1011,-281.8127 809.6589,-266.957 762.1751,-256.6504"/>
<polygon fill="#191970" stroke="#191970" points="762.8918,-253.2245 752.3769,-254.5237 761.4069,-260.0653 762.8918,-253.2245"/>
</g>
<!-- Node26 -->
<g id="node27" class="node">
<title>Node26</title>
<g id="a_node27"><a xlink:href="../../dc/d14/ROC_8h.html" target="_top" xlink:title="TPCBase/ROC.h">
<polygon fill="none" stroke="#000000" points="817.5,-235.5 817.5,-254.5 909.5,-254.5 909.5,-235.5 817.5,-235.5"/>
<text text-anchor="middle" x="863.5" y="-242.5" font-family="Helvetica,sans-Serif" font-size="10.00" fill="#000000">TPCBase/ROC.h</text>
</a>
</g>
</g>
<!-- Node25&#45;&gt;Node26 -->
<g id="edge30" class="edge">
<title>Node25&#45;&gt;Node26</title>
<path fill="none" stroke="#191970" d="M948.5588,-291.2455C932.46,-282.4928 908.6121,-269.527 890.2609,-259.5496"/>
<polygon fill="#191970" stroke="#191970" points="891.6929,-256.3444 881.2356,-254.6427 888.3493,-262.4942 891.6929,-256.3444"/>
</g>
<!-- Node26&#45;&gt;Node8 -->
<g id="edge31" class="edge">
<title>Node26&#45;&gt;Node8</title>
<path fill="none" stroke="#191970" d="M869.8092,-235.4509C882.1515,-216.7707 909.6682,-175.1238 925.5568,-151.0761"/>
<polygon fill="#191970" stroke="#191970" points="928.6143,-152.7977 931.2068,-142.5249 922.774,-148.9388 928.6143,-152.7977"/>
</g>
<!-- Node26&#45;&gt;Node23 -->
<g id="edge32" class="edge">
<title>Node26&#45;&gt;Node23</title>
<path fill="none" stroke="#191970" d="M849.2167,-235.2455C836.753,-226.7337 818.4549,-214.2375 804.0208,-204.3801"/>
<polygon fill="#191970" stroke="#191970" points="805.8515,-201.392 795.6196,-198.6427 801.9038,-207.1726 805.8515,-201.392"/>
</g>
<!-- Node27&#45;&gt;Node8 -->
<g id="edge35" class="edge">
<title>Node27&#45;&gt;Node8</title>
<path fill="none" stroke="#191970" d="M880.7397,-352.8266C937.6214,-347.2979 1019.8783,-335.2639 1039.5,-311 1083.4084,-256.7036 1000.2394,-181.1732 958.8819,-148.7777"/>
<polygon fill="#191970" stroke="#191970" points="960.8171,-145.8511 950.7521,-142.5428 956.5572,-151.4057 960.8171,-145.8511"/>
</g>
<!-- Node27&#45;&gt;Node21 -->
<g id="edge40" class="edge">
<title>Node27&#45;&gt;Node21</title>
<path fill="none" stroke="#191970" d="M814.6099,-347.4509C794.8344,-328.3574 750.2079,-285.2697 725.5959,-261.5063"/>
<polygon fill="#191970" stroke="#191970" points="727.9902,-258.9529 718.3651,-254.5249 723.128,-263.9888 727.9902,-258.9529"/>
</g>
<!-- Node27&#45;&gt;Node22 -->
<g id="edge41" class="edge">
<title>Node27&#45;&gt;Node22</title>
<path fill="none" stroke="#191970" d="M792.1816,-347.3733C760.6494,-337.9807 712.5379,-323.6496 678.1499,-313.4064"/>
<polygon fill="#191970" stroke="#191970" points="678.9797,-310.0016 668.3966,-310.5011 676.9813,-316.7103 678.9797,-310.0016"/>
</g>
<!-- Node28 -->
<g id="node29" class="node">
<title>Node28</title>
<g id="a_node29"><a xlink:href="../../df/d26/CRU_8h.html" target="_top" xlink:title="TPCBase/CRU.h">
<polygon fill="none" stroke="#000000" points="792.5,-291.5 792.5,-310.5 884.5,-310.5 884.5,-291.5 792.5,-291.5"/>
<text text-anchor="middle" x="838.5" y="-298.5" font-family="Helvetica,sans-Serif" font-size="10.00" fill="#000000">TPCBase/CRU.h</text>
</a>
</g>
</g>
<!-- Node27&#45;&gt;Node28 -->
<g id="edge36" class="edge">
<title>Node27&#45;&gt;Node28</title>
<path fill="none" stroke="#191970" d="M826.9386,-347.2455C828.7855,-339.8579 831.3828,-329.4689 833.6478,-320.4087"/>
<polygon fill="#191970" stroke="#191970" points="837.0594,-321.193 836.0893,-310.6427 830.2684,-319.4952 837.0594,-321.193"/>
</g>
<!-- Node28&#45;&gt;Node8 -->
<g id="edge37" class="edge">
<title>Node28&#45;&gt;Node8</title>
<path fill="none" stroke="#191970" d="M868.1996,-291.3485C885.6333,-284.1187 906.5288,-272.4335 918.5,-255 939.7457,-224.0602 940.8175,-178.3734 939.3727,-152.5849"/>
<polygon fill="#191970" stroke="#191970" points="942.8588,-152.2671 938.6232,-142.5557 935.8782,-152.7888 942.8588,-152.2671"/>
</g>
<!-- Node28&#45;&gt;Node23 -->
<g id="edge38" class="edge">
<title>Node28&#45;&gt;Node23</title>
<path fill="none" stroke="#191970" d="M831.5062,-291.4559C825.0381,-282.3717 815.4093,-268.1714 808.5,-255 800.5133,-239.7748 793.2462,-221.6456 788.2683,-208.2436"/>
<polygon fill="#191970" stroke="#191970" points="791.4919,-206.8661 784.7969,-198.6547 784.91,-209.2489 791.4919,-206.8661"/>
</g>
<!-- Node28&#45;&gt;Node26 -->
<g id="edge39" class="edge">
<title>Node28&#45;&gt;Node26</title>
<path fill="none" stroke="#191970" d="M842.8547,-291.2455C846.2244,-283.6973 850.993,-273.0158 855.0983,-263.8197"/>
<polygon fill="#191970" stroke="#191970" points="858.3147,-265.2009 859.1952,-254.6427 851.9227,-262.3473 858.3147,-265.2009"/>
</g>
<!-- Node29&#45;&gt;Node20 -->
<g id="edge43" class="edge">
<title>Node29&#45;&gt;Node20</title>
<path fill="none" stroke="#191970" d="M1407.116,-179.4248C1429.3063,-151.5261 1494.1646,-69.9832 1523.1805,-33.5031"/>
<polygon fill="#191970" stroke="#191970" points="1526.2516,-35.2645 1529.7374,-25.2595 1520.7732,-30.9071 1526.2516,-35.2645"/>
</g>
<!-- Node30&#45;&gt;Node4 -->
<g id="edge45" class="edge">
<title>Node30&#45;&gt;Node4</title>
<path fill="none" stroke="#191970" d="M534.1264,-347.2455C519.5692,-338.5731 498.069,-325.7645 481.3848,-315.825"/>
<polygon fill="#191970" stroke="#191970" points="483.0683,-312.7539 472.6859,-310.6427 479.4856,-318.7676 483.0683,-312.7539"/>
</g>
<!-- Node30&#45;&gt;Node8 -->
<g id="edge46" class="edge">
<title>Node30&#45;&gt;Node8</title>
<path fill="none" stroke="#191970" d="M548.0457,-347.3636C545.1609,-333.8728 541.8907,-308.993 551.5,-291 594.2985,-210.8619 638.2551,-213.0092 722.5,-179 749.2684,-168.1937 819.4574,-154.0992 872.4146,-144.3742"/>
<polygon fill="#191970" stroke="#191970" points="873.2123,-147.7866 882.4228,-142.5504 871.9573,-140.9 873.2123,-147.7866"/>
</g>
<!-- Node30&#45;&gt;Node21 -->
<g id="edge47" class="edge">
<title>Node30&#45;&gt;Node21</title>
<path fill="none" stroke="#191970" d="M550.0779,-347.1177C550.0221,-332.8692 552.0701,-306.5617 566.5,-291 578.648,-277.8992 618.9065,-265.5658 653.4689,-256.9739"/>
<polygon fill="#191970" stroke="#191970" points="654.6108,-260.2986 663.5051,-254.5418 652.9621,-253.4955 654.6108,-260.2986"/>
</g>
</g>
</svg>
