<?xml version="1.0" encoding="UTF-8" standalone="no"?>
<!DOCTYPE svg PUBLIC "-//W3C//DTD SVG 1.1//EN"
 "http://www.w3.org/Graphics/SVG/1.1/DTD/svg11.dtd">
<!-- Generated by graphviz version 2.40.1 (20161225.0304)
 -->
<!-- Title: /home/travis/build/AliceO2Group/AliceO2/Detectors/MUON/MID/Simulation/src/Geometry.cxx Pages: 1 -->
<!--zoomable 296 -->
<svg id="main" version="1.1" xmlns="http://www.w3.org/2000/svg" xmlns:xlink="http://www.w3.org/1999/xlink" xml:space="preserve" onload="init(evt)">
<style type="text/css"><![CDATA[
.edge:hover path { stroke: red; }
.edge:hover polygon { stroke: red; fill: red; }
]]></style>
<script type="text/javascript"><![CDATA[
var edges = document.getElementsByTagName('g');
if (edges && edges.length) {
  for (var i=0;i<edges.length;i++) {
    if (edges[i].id.substr(0,4)=='edge') {
      edges[i].setAttribute('class','edge');
    }
  }
}
]]></script>
        <defs>
                <circle id="rim" cx="0" cy="0" r="7"/>
                <circle id="rim2" cx="0" cy="0" r="3.5"/>
                <g id="zoomPlus">
                        <use xlink:href="#rim" fill="#404040">
                                <set attributeName="fill" to="#808080" begin="zoomplus.mouseover" end="zoomplus.mouseout"/>
                        </use>
                        <path d="M-4,0h8M0,-4v8" fill="none" stroke="white" stroke-width="1.5" pointer-events="none"/>
                </g>
                <g id="zoomMin">
                        <use xlink:href="#rim" fill="#404040">
                                <set attributeName="fill" to="#808080" begin="zoomminus.mouseover" end="zoomminus.mouseout"/>
                        </use>
                        <path d="M-4,0h8" fill="none" stroke="white" stroke-width="1.5" pointer-events="none"/>
                </g>
                <g id="dirArrow">
                        <path fill="none" stroke="white" stroke-width="1.5" d="M0,-3.0v7 M-2.5,-0.5L0,-3.0L2.5,-0.5"/>
                </g>
               <g id="resetDef">
                       <use xlink:href="#rim2" fill="#404040">
                               <set attributeName="fill" to="#808080" begin="reset.mouseover" end="reset.mouseout"/>
                       </use>
               </g>
        </defs>

<script type="text/javascript">
var viewWidth = 2435;
var viewHeight = 296;
var sectionId = 'dynsection-0';
</script>
<script xlink:href="../../svgpan.js"/>
<svg id="graph" class="graph">
<g id="viewport">
<title>/home/travis/build/AliceO2Group/AliceO2/Detectors/MUON/MID/Simulation/src/Geometry.cxx</title>
<!-- Node0 -->
<g id="node1" class="node">
<title>Node0</title>
<polygon fill="#bfbfbf" stroke="#000000" points="1834,-235.5 1834,-287.5 2012,-287.5 2012,-235.5 1834,-235.5"/>
<text text-anchor="start" x="1842" y="-275.5" font-family="Helvetica,sans-Serif" font-size="10.00" fill="#000000">/home/travis/build</text>
<text text-anchor="start" x="1842" y="-264.5" font-family="Helvetica,sans-Serif" font-size="10.00" fill="#000000">/AliceO2Group/AliceO2</text>
<text text-anchor="start" x="1842" y="-253.5" font-family="Helvetica,sans-Serif" font-size="10.00" fill="#000000">/Detectors/MUON/MID/Simulation</text>
<text text-anchor="middle" x="1923" y="-242.5" font-family="Helvetica,sans-Serif" font-size="10.00" fill="#000000">/src/Geometry.cxx</text>
</g>
<!-- Node1 -->
<g id="node2" class="node">
<title>Node1</title>
<g id="a_node2"><a xlink:href="../../d1/db4/MUON_2MID_2Simulation_2include_2MIDSimulation_2Geometry_8h.html" target="_top" xlink:title="Implementation of the trigger&#45;stations geometry. ">
<polygon fill="none" stroke="#000000" points="1609.5,-179.5 1609.5,-198.5 1756.5,-198.5 1756.5,-179.5 1609.5,-179.5"/>
<text text-anchor="middle" x="1683" y="-186.5" font-family="Helvetica,sans-Serif" font-size="10.00" fill="#000000">MIDSimulation/Geometry.h</text>
</a>
</g>
</g>
<!-- Node0&#45;&gt;Node1 -->
<g id="edge1" class="edge">
<title>Node0&#45;&gt;Node1</title>
<path fill="none" stroke="#191970" d="M1836.6936,-235.4283C1798.5405,-223.9029 1755.4426,-210.8837 1724.6148,-201.5711"/>
<polygon fill="#191970" stroke="#191970" points="1725.2403,-198.104 1714.6554,-198.5626 1723.2161,-204.8049 1725.2403,-198.104"/>
</g>
<!-- Node6 -->
<g id="node7" class="node">
<title>Node6</title>
<g id="a_node7"><a xlink:href="../../dc/de4/DetectorParameters_8h.html" target="_top" xlink:title="Useful detector parameters for MID. ">
<polygon fill="none" stroke="#000000" points="1491.5,-67.5 1491.5,-86.5 1660.5,-86.5 1660.5,-67.5 1491.5,-67.5"/>
<text text-anchor="middle" x="1576" y="-74.5" font-family="Helvetica,sans-Serif" font-size="10.00" fill="#000000">MIDBase/DetectorParameters.h</text>
</a>
</g>
</g>
<!-- Node0&#45;&gt;Node6 -->
<g id="edge23" class="edge">
<title>Node0&#45;&gt;Node6</title>
<path fill="none" stroke="#191970" d="M1833.992,-255.1705C1750.3321,-247.3456 1633.2795,-230.9454 1601,-199 1573.7036,-171.9861 1572.2506,-123.7255 1573.9195,-96.7072"/>
<polygon fill="#191970" stroke="#191970" points="1577.4231,-96.807 1574.7596,-86.5524 1570.4469,-96.2298 1577.4231,-96.807"/>
</g>
<!-- Node18 -->
<g id="node19" class="node">
<title>Node18</title>
<polygon fill="none" stroke="#bfbfbf" points="1813,-179.5 1813,-198.5 1869,-198.5 1869,-179.5 1813,-179.5"/>
<text text-anchor="middle" x="1841" y="-186.5" font-family="Helvetica,sans-Serif" font-size="10.00" fill="#000000">sstream</text>
</g>
<!-- Node0&#45;&gt;Node18 -->
<g id="edge20" class="edge">
<title>Node0&#45;&gt;Node18</title>
<path fill="none" stroke="#191970" d="M1893.3961,-235.3258C1882.0708,-225.3126 1869.4852,-214.1851 1859.4879,-205.346"/>
<polygon fill="#191970" stroke="#191970" points="1861.5933,-202.5357 1851.7833,-198.534 1856.9567,-207.7799 1861.5933,-202.5357"/>
</g>
<!-- Node19 -->
<g id="node20" class="node">
<title>Node19</title>
<g id="a_node20"><a xlink:href="../../dc/d37/MID_2Simulation_2src_2Materials_8h.html" target="_top" xlink:title="Materials.h">
<polygon fill="none" stroke="#000000" points="1887.5,-179.5 1887.5,-198.5 1958.5,-198.5 1958.5,-179.5 1887.5,-179.5"/>
<text text-anchor="middle" x="1923" y="-186.5" font-family="Helvetica,sans-Serif" font-size="10.00" fill="#000000">Materials.h</text>
</a>
</g>
</g>
<!-- Node0&#45;&gt;Node19 -->
<g id="edge21" class="edge">
<title>Node0&#45;&gt;Node19</title>
<path fill="none" stroke="#191970" d="M1923,-235.3258C1923,-226.5142 1923,-216.8397 1923,-208.621"/>
<polygon fill="#191970" stroke="#191970" points="1926.5001,-208.534 1923,-198.534 1919.5001,-208.534 1926.5001,-208.534"/>
</g>
<!-- Node21 -->
<g id="node22" class="node">
<title>Node21</title>
<g id="a_node22"><a xlink:href="../../db/db5/GeometryParameters_8h.html" target="_top" xlink:title="Useful geometrical parameters for MID. ">
<polygon fill="none" stroke="#000000" points="1716,-67.5 1716,-86.5 1892,-86.5 1892,-67.5 1716,-67.5"/>
<text text-anchor="middle" x="1804" y="-74.5" font-family="Helvetica,sans-Serif" font-size="10.00" fill="#000000">MIDBase/GeometryParameters.h</text>
</a>
</g>
</g>
<!-- Node0&#45;&gt;Node21 -->
<g id="edge24" class="edge">
<title>Node0&#45;&gt;Node21</title>
<path fill="none" stroke="#191970" d="M1844.0643,-235.4651C1828.1391,-226.4657 1813.4143,-214.5783 1804,-199 1784.9146,-167.4185 1791.806,-122.3193 1798.1568,-96.7277"/>
<polygon fill="#191970" stroke="#191970" points="1801.6218,-97.322 1800.8548,-86.755 1794.8647,-95.494 1801.6218,-97.322"/>
</g>
<!-- Node22 -->
<g id="node23" class="node">
<title>Node22</title>
<polygon fill="none" stroke="#bfbfbf" points="1977,-179.5 1977,-198.5 2065,-198.5 2065,-179.5 1977,-179.5"/>
<text text-anchor="middle" x="2021" y="-186.5" font-family="Helvetica,sans-Serif" font-size="10.00" fill="#000000">TGeoVolume.h</text>
</g>
<!-- Node0&#45;&gt;Node22 -->
<g id="edge27" class="edge">
<title>Node0&#45;&gt;Node22</title>
<path fill="none" stroke="#191970" d="M1958.3802,-235.3258C1972.3215,-225.0122 1987.8605,-213.5165 1999.9716,-204.5567"/>
<polygon fill="#191970" stroke="#191970" points="2002.155,-207.2951 2008.1127,-198.534 1997.9918,-201.6677 2002.155,-207.2951"/>
</g>
<!-- Node23 -->
<g id="node24" class="node">
<title>Node23</title>
<polygon fill="none" stroke="#bfbfbf" points="2083,-179.5 2083,-198.5 2175,-198.5 2175,-179.5 2083,-179.5"/>
<text text-anchor="middle" x="2129" y="-186.5" font-family="Helvetica,sans-Serif" font-size="10.00" fill="#000000">TGeoManager.h</text>
</g>
<!-- Node0&#45;&gt;Node23 -->
<g id="edge28" class="edge">
<title>Node0&#45;&gt;Node23</title>
<path fill="none" stroke="#191970" d="M1997.0797,-235.4283C2029.4006,-224.0532 2065.8558,-211.2231 2092.2399,-201.9374"/>
<polygon fill="#191970" stroke="#191970" points="2093.5582,-205.184 2101.8291,-198.5626 2091.2343,-198.581 2093.5582,-205.184"/>
</g>
<!-- Node24 -->
<g id="node25" class="node">
<title>Node24</title>
<polygon fill="none" stroke="#bfbfbf" points="2193.5,-179.5 2193.5,-198.5 2274.5,-198.5 2274.5,-179.5 2193.5,-179.5"/>
<text text-anchor="middle" x="2234" y="-186.5" font-family="Helvetica,sans-Serif" font-size="10.00" fill="#000000">TGeoShape.h</text>
</g>
<!-- Node0&#45;&gt;Node24 -->
<g id="edge29" class="edge">
<title>Node0&#45;&gt;Node24</title>
<path fill="none" stroke="#191970" d="M2012.1201,-240.7244C2067.6378,-227.7822 2137.0529,-211.6002 2183.313,-200.8161"/>
<polygon fill="#191970" stroke="#191970" points="2184.1632,-204.2118 2193.1074,-198.5328 2182.5739,-197.3946 2184.1632,-204.2118"/>
</g>
<!-- Node25 -->
<g id="node26" class="node">
<title>Node25</title>
<polygon fill="none" stroke="#bfbfbf" points="2293,-179.5 2293,-198.5 2427,-198.5 2427,-179.5 2293,-179.5"/>
<text text-anchor="middle" x="2360" y="-186.5" font-family="Helvetica,sans-Serif" font-size="10.00" fill="#000000">TGeoCompositeShape.h</text>
</g>
<!-- Node0&#45;&gt;Node25 -->
<g id="edge30" class="edge">
<title>Node0&#45;&gt;Node25</title>
<path fill="none" stroke="#191970" d="M2012.224,-246.6974C2095.1934,-232.9325 2216.9963,-212.7249 2292.2513,-200.2398"/>
<polygon fill="#191970" stroke="#191970" points="2293.26,-203.6203 2302.5523,-198.5308 2292.1143,-196.7147 2293.26,-203.6203"/>
</g>
<!-- Node2 -->
<g id="node3" class="node">
<title>Node2</title>
<polygon fill="none" stroke="#bfbfbf" points="1612.5,-123.5 1612.5,-142.5 1659.5,-142.5 1659.5,-123.5 1612.5,-123.5"/>
<text text-anchor="middle" x="1636" y="-130.5" font-family="Helvetica,sans-Serif" font-size="10.00" fill="#000000">vector</text>
</g>
<!-- Node1&#45;&gt;Node2 -->
<g id="edge2" class="edge">
<title>Node1&#45;&gt;Node2</title>
<path fill="none" stroke="#191970" d="M1674.8132,-179.2455C1668.1411,-171.2958 1658.5521,-159.8706 1650.5747,-150.3656"/>
<polygon fill="#191970" stroke="#191970" points="1653.2026,-148.0524 1644.093,-142.6427 1647.8408,-152.5525 1653.2026,-148.0524"/>
</g>
<!-- Node3 -->
<g id="node4" class="node">
<title>Node3</title>
<polygon fill="none" stroke="#bfbfbf" points="1666,-6 1666,-25 1710,-25 1710,-6 1666,-6"/>
<text text-anchor="middle" x="1688" y="-13" font-family="Helvetica,sans-Serif" font-size="10.00" fill="#000000">string</text>
</g>
<!-- Node1&#45;&gt;Node3 -->
<g id="edge3" class="edge">
<title>Node1&#45;&gt;Node3</title>
<path fill="none" stroke="#191970" d="M1683.2759,-179.4248C1684.0663,-151.999 1686.3507,-72.732 1687.4266,-35.3964"/>
<polygon fill="#191970" stroke="#191970" points="1690.9291,-35.3562 1687.7187,-25.2595 1683.932,-35.1545 1690.9291,-35.3562"/>
</g>
<!-- Node4 -->
<g id="node5" class="node">
<title>Node4</title>
<g id="a_node5"><a xlink:href="../../de/d0c/GeometryTransformer_8h.html" target="_top" xlink:title="Geometry transformer for MID. ">
<polygon fill="none" stroke="#000000" points="1375,-123.5 1375,-142.5 1553,-142.5 1553,-123.5 1375,-123.5"/>
<text text-anchor="middle" x="1464" y="-130.5" font-family="Helvetica,sans-Serif" font-size="10.00" fill="#000000">MIDBase/GeometryTransformer.h</text>
</a>
</g>
</g>
<!-- Node1&#45;&gt;Node4 -->
<g id="edge4" class="edge">
<title>Node1&#45;&gt;Node4</title>
<path fill="none" stroke="#191970" d="M1645.3526,-179.3733C1608.148,-169.8598 1551.1297,-155.2797 1510.9784,-145.0127"/>
<polygon fill="#191970" stroke="#191970" points="1511.7116,-141.5877 1501.1562,-142.5011 1509.9773,-148.3695 1511.7116,-141.5877"/>
</g>
<!-- Node5 -->
<g id="node6" class="node">
<title>Node5</title>
<polygon fill="none" stroke="#bfbfbf" points="1581,-6 1581,-25 1623,-25 1623,-6 1581,-6"/>
<text text-anchor="middle" x="1602" y="-13" font-family="Helvetica,sans-Serif" font-size="10.00" fill="#000000">array</text>
</g>
<!-- Node4&#45;&gt;Node5 -->
<g id="edge5" class="edge">
<title>Node4&#45;&gt;Node5</title>
<path fill="none" stroke="#191970" d="M1464.2309,-123.2191C1465.0766,-109.0969 1468.6336,-82.9452 1483,-67 1511.5613,-35.3 1533.2266,-48.812 1572,-31 1572.9855,-30.5473 1573.9853,-30.079 1574.9921,-29.5999"/>
<polygon fill="#191970" stroke="#191970" points="1576.6387,-32.6902 1584.0484,-25.1174 1573.5335,-26.4166 1576.6387,-32.6902"/>
</g>
<!-- Node4&#45;&gt;Node6 -->
<g id="edge6" class="edge">
<title>Node4&#45;&gt;Node6</title>
<path fill="none" stroke="#191970" d="M1483.2535,-123.3733C1501.0712,-114.4644 1527.7747,-101.1127 1547.9594,-91.0203"/>
<polygon fill="#191970" stroke="#191970" points="1549.6187,-94.1038 1556.9978,-86.5011 1546.4882,-87.8428 1549.6187,-94.1038"/>
</g>
<!-- Node7 -->
<g id="node8" class="node">
<title>Node7</title>
<g id="a_node8"><a xlink:href="../../dc/d73/Cartesian_8h.html" target="_top" xlink:title="MathUtils/Cartesian.h">
<polygon fill="none" stroke="#000000" points="825,-67.5 825,-86.5 947,-86.5 947,-67.5 825,-67.5"/>
<text text-anchor="middle" x="886" y="-74.5" font-family="Helvetica,sans-Serif" font-size="10.00" fill="#000000">MathUtils/Cartesian.h</text>
</a>
</g>
</g>
<!-- Node4&#45;&gt;Node7 -->
<g id="edge9" class="edge">
<title>Node4&#45;&gt;Node7</title>
<path fill="none" stroke="#191970" d="M1374.9542,-124.3727C1260.1841,-113.2531 1062.8919,-94.1383 957.4176,-83.9194"/>
<polygon fill="#191970" stroke="#191970" points="957.4836,-80.4094 947.1927,-82.9287 956.8085,-87.3768 957.4836,-80.4094"/>
</g>
<!-- Node6&#45;&gt;Node3 -->
<g id="edge8" class="edge">
<title>Node6&#45;&gt;Node3</title>
<path fill="none" stroke="#191970" d="M1593.5,-67.3906C1611.7465,-57.3713 1640.5624,-41.5483 1661.5806,-30.0071"/>
<polygon fill="#191970" stroke="#191970" points="1663.542,-32.923 1670.6229,-25.0419 1660.1728,-26.7872 1663.542,-32.923"/>
</g>
<!-- Node6&#45;&gt;Node5 -->
<g id="edge7" class="edge">
<title>Node6&#45;&gt;Node5</title>
<path fill="none" stroke="#191970" d="M1580.0625,-67.3906C1583.7424,-58.6862 1589.2742,-45.6015 1593.862,-34.7494"/>
<polygon fill="#191970" stroke="#191970" points="1597.21,-35.8185 1597.8802,-25.2449 1590.7625,-33.0927 1597.21,-35.8185"/>
</g>
<!-- Node8 -->
<g id="node9" class="node">
<title>Node8</title>
<polygon fill="none" stroke="#bfbfbf" points="1013,-.5 1013,-30.5 1177,-30.5 1177,-.5 1013,-.5"/>
<text text-anchor="start" x="1021" y="-18.5" font-family="Helvetica,sans-Serif" font-size="10.00" fill="#000000">Math/GenVector/Displacement</text>
<text text-anchor="middle" x="1095" y="-7.5" font-family="Helvetica,sans-Serif" font-size="10.00" fill="#000000">Vector3D.h</text>
</g>
<!-- Node7&#45;&gt;Node8 -->
<g id="edge10" class="edge">
<title>Node7&#45;&gt;Node8</title>
<path fill="none" stroke="#191970" d="M918.6563,-67.3906C949.4299,-58.3352 996.3146,-44.539 1034.0065,-33.4479"/>
<polygon fill="#191970" stroke="#191970" points="1035.2676,-36.7252 1043.8728,-30.5446 1033.2915,-30.0099 1035.2676,-36.7252"/>
</g>
<!-- Node9 -->
<g id="node10" class="node">
<title>Node9</title>
<polygon fill="none" stroke="#bfbfbf" points="1195.5,-6 1195.5,-25 1384.5,-25 1384.5,-6 1195.5,-6"/>
<text text-anchor="middle" x="1290" y="-13" font-family="Helvetica,sans-Serif" font-size="10.00" fill="#000000">Math/GenVector/PositionVector3D.h</text>
</g>
<!-- Node7&#45;&gt;Node9 -->
<g id="edge11" class="edge">
<title>Node7&#45;&gt;Node9</title>
<path fill="none" stroke="#191970" d="M947.3589,-67.6595C1019.8187,-56.6291 1140.2098,-38.3022 1217.2863,-26.569"/>
<polygon fill="#191970" stroke="#191970" points="1218.0384,-29.995 1227.3978,-25.0298 1216.9849,-23.0747 1218.0384,-29.995"/>
</g>
<!-- Node10 -->
<g id="node11" class="node">
<title>Node10</title>
<polygon fill="none" stroke="#bfbfbf" points="1403,-6 1403,-25 1563,-25 1563,-6 1403,-6"/>
<text text-anchor="middle" x="1483" y="-13" font-family="Helvetica,sans-Serif" font-size="10.00" fill="#000000">Math/GenVector/Rotation3D.h</text>
</g>
<!-- Node7&#45;&gt;Node10 -->
<g id="edge12" class="edge">
<title>Node7&#45;&gt;Node10</title>
<path fill="none" stroke="#191970" d="M947.0473,-73.0468C1042.4645,-66.511 1232.6359,-52.0497 1393,-31 1402.3339,-29.7748 1412.1794,-28.2842 1421.7973,-26.7171"/>
<polygon fill="#191970" stroke="#191970" points="1422.4187,-30.1619 1431.7066,-25.0643 1421.267,-23.2573 1422.4187,-30.1619"/>
</g>
<!-- Node11 -->
<g id="node12" class="node">
<title>Node11</title>
<polygon fill="none" stroke="#bfbfbf" points="0,-6 0,-25 168,-25 168,-6 0,-6"/>
<text text-anchor="middle" x="84" y="-13" font-family="Helvetica,sans-Serif" font-size="10.00" fill="#000000">Math/GenVector/Transform3D.h</text>
</g>
<!-- Node7&#45;&gt;Node11 -->
<g id="edge13" class="edge">
<title>Node7&#45;&gt;Node11</title>
<path fill="none" stroke="#191970" d="M824.6442,-75.0928C701.5099,-70.8081 415.6365,-58.5573 177,-31 166.7724,-29.8189 155.9565,-28.2826 145.4587,-26.6367"/>
<polygon fill="#191970" stroke="#191970" points="145.9507,-23.1709 135.5209,-25.0333 144.8357,-30.0816 145.9507,-23.1709"/>
</g>
<!-- Node12 -->
<g id="node13" class="node">
<title>Node12</title>
<polygon fill="none" stroke="#bfbfbf" points="186.5,-6 186.5,-25 359.5,-25 359.5,-6 186.5,-6"/>
<text text-anchor="middle" x="273" y="-13" font-family="Helvetica,sans-Serif" font-size="10.00" fill="#000000">Math/GenVector/Translation3D.h</text>
</g>
<!-- Node7&#45;&gt;Node12 -->
<g id="edge14" class="edge">
<title>Node7&#45;&gt;Node12</title>
<path fill="none" stroke="#191970" d="M824.9646,-72.9859C728.0975,-66.2967 533.3002,-51.5465 369,-31 358.8441,-29.73 348.1145,-28.1922 337.6524,-26.5847"/>
<polygon fill="#191970" stroke="#191970" points="338.1529,-23.1205 327.7313,-25.0286 337.0682,-30.0359 338.1529,-23.1205"/>
</g>
<!-- Node13 -->
<g id="node14" class="node">
<title>Node13</title>
<polygon fill="none" stroke="#bfbfbf" points="378,-.5 378,-30.5 542,-30.5 542,-.5 378,-.5"/>
<text text-anchor="start" x="386" y="-18.5" font-family="Helvetica,sans-Serif" font-size="10.00" fill="#000000">Math/GenVector/Displacement</text>
<text text-anchor="middle" x="460" y="-7.5" font-family="Helvetica,sans-Serif" font-size="10.00" fill="#000000">Vector2D.h</text>
</g>
<!-- Node7&#45;&gt;Node13 -->
<g id="edge15" class="edge">
<title>Node7&#45;&gt;Node13</title>
<path fill="none" stroke="#191970" d="M824.7843,-69.1966C759.7211,-60.767 653.564,-46.6262 552.4077,-31.1902"/>
<polygon fill="#191970" stroke="#191970" points="552.7355,-27.6996 542.3206,-29.644 551.6748,-34.6188 552.7355,-27.6996"/>
</g>
<!-- Node14 -->
<g id="node15" class="node">
<title>Node14</title>
<polygon fill="none" stroke="#bfbfbf" points="560.5,-6 560.5,-25 749.5,-25 749.5,-6 560.5,-6"/>
<text text-anchor="middle" x="655" y="-13" font-family="Helvetica,sans-Serif" font-size="10.00" fill="#000000">Math/GenVector/PositionVector2D.h</text>
</g>
<!-- Node7&#45;&gt;Node14 -->
<g id="edge16" class="edge">
<title>Node7&#45;&gt;Node14</title>
<path fill="none" stroke="#191970" d="M850.1597,-67.4581C809.9515,-56.7533 744.6309,-39.3628 700.7631,-27.6837"/>
<polygon fill="#191970" stroke="#191970" points="701.4882,-24.2549 690.9244,-25.0643 699.6873,-31.0193 701.4882,-24.2549"/>
</g>
<!-- Node15 -->
<g id="node16" class="node">
<title>Node15</title>
<polygon fill="none" stroke="#bfbfbf" points="767.5,-6 767.5,-25 826.5,-25 826.5,-6 767.5,-6"/>
<text text-anchor="middle" x="797" y="-13" font-family="Helvetica,sans-Serif" font-size="10.00" fill="#000000">Rtypes.h</text>
</g>
<!-- Node7&#45;&gt;Node15 -->
<g id="edge17" class="edge">
<title>Node7&#45;&gt;Node15</title>
<path fill="none" stroke="#191970" d="M872.0938,-67.3906C857.9862,-57.6421 835.9276,-42.3994 819.3615,-30.9521"/>
<polygon fill="#191970" stroke="#191970" points="821.0253,-27.8474 810.8086,-25.0419 817.0458,-33.6063 821.0253,-27.8474"/>
</g>
<!-- Node16 -->
<g id="node17" class="node">
<title>Node16</title>
<polygon fill="none" stroke="#bfbfbf" points="845,-6 845,-25 927,-25 927,-6 845,-6"/>
<text text-anchor="middle" x="886" y="-13" font-family="Helvetica,sans-Serif" font-size="10.00" fill="#000000">TGeoMatrix.h</text>
</g>
<!-- Node7&#45;&gt;Node16 -->
<g id="edge18" class="edge">
<title>Node7&#45;&gt;Node16</title>
<path fill="none" stroke="#191970" d="M886,-67.3906C886,-58.8657 886,-46.1392 886,-35.4235"/>
<polygon fill="#191970" stroke="#191970" points="889.5001,-35.2448 886,-25.2449 882.5001,-35.2449 889.5001,-35.2448"/>
</g>
<!-- Node17 -->
<g id="node18" class="node">
<title>Node17</title>
<polygon fill="none" stroke="#bfbfbf" points="945.5,-6 945.5,-25 994.5,-25 994.5,-6 945.5,-6"/>
<text text-anchor="middle" x="970" y="-13" font-family="Helvetica,sans-Serif" font-size="10.00" fill="#000000">iosfwd</text>
</g>
<!-- Node7&#45;&gt;Node17 -->
<g id="edge19" class="edge">
<title>Node7&#45;&gt;Node17</title>
<path fill="none" stroke="#191970" d="M899.125,-67.3906C912.44,-57.6421 933.2594,-42.3994 948.8947,-30.9521"/>
<polygon fill="#191970" stroke="#191970" points="950.9661,-33.7734 956.9672,-25.0419 946.8309,-28.1253 950.9661,-33.7734"/>
</g>
<!-- Node20 -->
<g id="node21" class="node">
<title>Node20</title>
<polygon fill="none" stroke="#bfbfbf" points="1878,-123.5 1878,-142.5 1968,-142.5 1968,-123.5 1878,-123.5"/>
<text text-anchor="middle" x="1923" y="-130.5" font-family="Helvetica,sans-Serif" font-size="10.00" fill="#000000">TGeoMedium.h</text>
</g>
<!-- Node19&#45;&gt;Node20 -->
<g id="edge22" class="edge">
<title>Node19&#45;&gt;Node20</title>
<path fill="none" stroke="#191970" d="M1923,-179.2455C1923,-171.9382 1923,-161.6944 1923,-152.7046"/>
<polygon fill="#191970" stroke="#191970" points="1926.5001,-152.6426 1923,-142.6427 1919.5001,-152.6427 1926.5001,-152.6426"/>
</g>
<!-- Node21&#45;&gt;Node3 -->
<g id="edge26" class="edge">
<title>Node21&#45;&gt;Node3</title>
<path fill="none" stroke="#191970" d="M1785.875,-67.3906C1766.8917,-57.3262 1736.8627,-41.4057 1715.0693,-29.8514"/>
<polygon fill="#191970" stroke="#191970" points="1716.4723,-26.6338 1705.9977,-25.0419 1713.1934,-32.8184 1716.4723,-26.6338"/>
</g>
<!-- Node21&#45;&gt;Node5 -->
<g id="edge25" class="edge">
<title>Node21&#45;&gt;Node5</title>
<path fill="none" stroke="#191970" d="M1772.4375,-67.3906C1734.4027,-55.8107 1670.9044,-36.4783 1633.0845,-24.9638"/>
<polygon fill="#191970" stroke="#191970" points="1633.7266,-21.5008 1623.1407,-21.9364 1631.6878,-28.1973 1633.7266,-21.5008"/>
</g>
</g>
</svg>
        <g id="navigator" transform="translate(0 0)" fill="#404254">
                <rect fill="#f2f5e9" fill-opacity="0.5" stroke="#606060" stroke-width=".5" x="0" y="0" width="60" height="60"/>
                <use id="zoomplus" xlink:href="#zoomPlus" x="17" y="9" onmousedown="handleZoom(evt,'in')"/>
                <use id="zoomminus" xlink:href="#zoomMin" x="42" y="9" onmousedown="handleZoom(evt,'out')"/>
                <use id="reset" xlink:href="#resetDef" x="30" y="36" onmousedown="handleReset()"/>
                <g id="arrowUp" xlink:href="#dirArrow" transform="translate(30 24)" onmousedown="handlePan(0,-1)">
                  <use xlink:href="#rim" fill="#404040">
                        <set attributeName="fill" to="#808080" begin="arrowUp.mouseover" end="arrowUp.mouseout"/>
                  </use>
                  <path fill="none" stroke="white" stroke-width="1.5" d="M0,-3.0v7 M-2.5,-0.5L0,-3.0L2.5,-0.5"/>
                </g>
                <g id="arrowRight" xlink:href="#dirArrow" transform="rotate(90) translate(36 -43)" onmousedown="handlePan(1,0)">
                  <use xlink:href="#rim" fill="#404040">
                        <set attributeName="fill" to="#808080" begin="arrowRight.mouseover" end="arrowRight.mouseout"/>
                  </use>
                  <path fill="none" stroke="white" stroke-width="1.5" d="M0,-3.0v7 M-2.5,-0.5L0,-3.0L2.5,-0.5"/>
                </g>
                <g id="arrowDown" xlink:href="#dirArrow" transform="rotate(180) translate(-30 -48)" onmousedown="handlePan(0,1)">
                  <use xlink:href="#rim" fill="#404040">
                        <set attributeName="fill" to="#808080" begin="arrowDown.mouseover" end="arrowDown.mouseout"/>
                  </use>
                  <path fill="none" stroke="white" stroke-width="1.5" d="M0,-3.0v7 M-2.5,-0.5L0,-3.0L2.5,-0.5"/>
                </g>
                <g id="arrowLeft" xlink:href="#dirArrow" transform="rotate(270) translate(-36 17)" onmousedown="handlePan(-1,0)">
                  <use xlink:href="#rim" fill="#404040">
                        <set attributeName="fill" to="#808080" begin="arrowLeft.mouseover" end="arrowLeft.mouseout"/>
                  </use>
                  <path fill="none" stroke="white" stroke-width="1.5" d="M0,-3.0v7 M-2.5,-0.5L0,-3.0L2.5,-0.5"/>
                </g>
        </g>
        <svg viewBox="0 0 15 15" width="100%" height="30px" preserveAspectRatio="xMaxYMin meet">
         <g id="arrow_out" transform="scale(0.3 0.3)">
          <a xlink:href="MUON_2MID_2Simulation_2src_2Geometry_8cxx__incl_org.svg" target="_base">
           <rect id="button" ry="5" rx="5" y="6" x="6" height="38" width="38"
                fill="#f2f5e9" fill-opacity="0.5" stroke="#606060" stroke-width="1.0"/>
           <path id="arrow"
             d="M 11.500037,31.436501 C 11.940474,20.09759 22.043105,11.32322 32.158766,21.979434 L 37.068811,17.246167 C 37.068811,17.246167 37.088388,32 37.088388,32 L 22.160133,31.978069 C 22.160133,31.978069 26.997745,27.140456 26.997745,27.140456 C 18.528582,18.264221 13.291696,25.230495 11.500037,31.436501 z"
             style="fill:#404040;"/>
          </a>
         </g>
        </svg>
</svg>
