<?xml version="1.0" encoding="UTF-8" standalone="no"?>
<!DOCTYPE svg PUBLIC "-//W3C//DTD SVG 1.1//EN"
 "http://www.w3.org/Graphics/SVG/1.1/DTD/svg11.dtd">
<!-- Generated by graphviz version 2.40.1 (20161225.0304)
 -->
<!-- Title: /home/travis/build/AliceO2Group/AliceO2/Analysis/DataModel/include/Analysis/TrackSelectionTables.h Pages: 1 -->
<svg width="3158pt" height="150pt"
 viewBox="0.00 0.00 3158.00 150.00" xmlns="http://www.w3.org/2000/svg" xmlns:xlink="http://www.w3.org/1999/xlink">
<g id="graph0" class="graph" transform="scale(1 1) rotate(0) translate(4 146)">
<title>/home/travis/build/AliceO2Group/AliceO2/Analysis/DataModel/include/Analysis/TrackSelectionTables.h</title>
<!-- Node66 -->
<g id="node1" class="node">
<title>Node66</title>
<polygon fill="#bfbfbf" stroke="#000000" points="1420,-89.5 1420,-141.5 1594,-141.5 1594,-89.5 1420,-89.5"/>
<text text-anchor="start" x="1428" y="-129.5" font-family="Helvetica,sans-Serif" font-size="10.00" fill="#000000">/home/travis/build</text>
<text text-anchor="start" x="1428" y="-118.5" font-family="Helvetica,sans-Serif" font-size="10.00" fill="#000000">/AliceO2Group/AliceO2</text>
<text text-anchor="start" x="1428" y="-107.5" font-family="Helvetica,sans-Serif" font-size="10.00" fill="#000000">/Analysis/DataModel/include</text>
<text text-anchor="middle" x="1507" y="-96.5" font-family="Helvetica,sans-Serif" font-size="10.00" fill="#000000">/Analysis/TrackSelectionTables.h</text>
</g>
<!-- Node67 -->
<g id="node2" class="node">
<title>Node67</title>
<g id="a_node2"><a xlink:href="../../d5/d51/aodDataModelGraph_8cxx.html" target="_top" xlink:title="/home/travis/build\l/AliceO2Group/AliceO2\l/Analysis/DataModel/src\l/aodDataModelGraph.cxx">
<polygon fill="none" stroke="#000000" points="0,-.5 0,-52.5 140,-52.5 140,-.5 0,-.5"/>
<text text-anchor="start" x="8" y="-40.5" font-family="Helvetica,sans-Serif" font-size="10.00" fill="#000000">/home/travis/build</text>
<text text-anchor="start" x="8" y="-29.5" font-family="Helvetica,sans-Serif" font-size="10.00" fill="#000000">/AliceO2Group/AliceO2</text>
<text text-anchor="start" x="8" y="-18.5" font-family="Helvetica,sans-Serif" font-size="10.00" fill="#000000">/Analysis/DataModel/src</text>
<text text-anchor="middle" x="70" y="-7.5" font-family="Helvetica,sans-Serif" font-size="10.00" fill="#000000">/aodDataModelGraph.cxx</text>
</a>
</g>
</g>
<!-- Node66&#45;&gt;Node67 -->
<g id="edge1" class="edge">
<title>Node66&#45;&gt;Node67</title>
<path fill="none" stroke="#191970" d="M1409.8123,-114.5223C1140.9338,-111.2614 391.0759,-98.2568 149,-53 146.156,-52.4683 143.2742,-51.8579 140.3779,-51.1845"/>
<polygon fill="#191970" stroke="#191970" points="1409.9027,-118.0235 1419.9438,-114.6433 1409.9863,-111.024 1409.9027,-118.0235"/>
</g>
<!-- Node68 -->
<g id="node3" class="node">
<title>Node68</title>
<g id="a_node3"><a xlink:href="../../d0/df9/alice3-trackselection_8cxx.html" target="_top" xlink:title="/home/travis/build\l/AliceO2Group/AliceO2\l/Analysis/Tasks/ALICE3\l/alice3&#45;trackselection.cxx">
<polygon fill="none" stroke="#000000" points="158,-.5 158,-52.5 300,-52.5 300,-.5 158,-.5"/>
<text text-anchor="start" x="166" y="-40.5" font-family="Helvetica,sans-Serif" font-size="10.00" fill="#000000">/home/travis/build</text>
<text text-anchor="start" x="166" y="-29.5" font-family="Helvetica,sans-Serif" font-size="10.00" fill="#000000">/AliceO2Group/AliceO2</text>
<text text-anchor="start" x="166" y="-18.5" font-family="Helvetica,sans-Serif" font-size="10.00" fill="#000000">/Analysis/Tasks/ALICE3</text>
<text text-anchor="middle" x="229" y="-7.5" font-family="Helvetica,sans-Serif" font-size="10.00" fill="#000000">/alice3&#45;trackselection.cxx</text>
</a>
</g>
</g>
<!-- Node66&#45;&gt;Node68 -->
<g id="edge2" class="edge">
<title>Node66&#45;&gt;Node68</title>
<path fill="none" stroke="#191970" d="M1409.7384,-113.7762C1163.3327,-108.8716 519.2059,-92.5552 309,-53 306.1243,-52.4589 303.2096,-51.8405 300.2796,-51.1604"/>
<polygon fill="#191970" stroke="#191970" points="1409.6865,-117.2757 1419.7536,-113.9736 1409.8245,-110.2771 1409.6865,-117.2757"/>
</g>
<!-- Node69 -->
<g id="node4" class="node">
<title>Node69</title>
<g id="a_node4"><a xlink:href="../../d9/d61/correlations_8cxx.html" target="_top" xlink:title="/home/travis/build\l/AliceO2Group/AliceO2\l/Analysis/Tasks/PWGCF\l/correlations.cxx">
<polygon fill="none" stroke="#000000" points="318.5,-.5 318.5,-52.5 447.5,-52.5 447.5,-.5 318.5,-.5"/>
<text text-anchor="start" x="326.5" y="-40.5" font-family="Helvetica,sans-Serif" font-size="10.00" fill="#000000">/home/travis/build</text>
<text text-anchor="start" x="326.5" y="-29.5" font-family="Helvetica,sans-Serif" font-size="10.00" fill="#000000">/AliceO2Group/AliceO2</text>
<text text-anchor="start" x="326.5" y="-18.5" font-family="Helvetica,sans-Serif" font-size="10.00" fill="#000000">/Analysis/Tasks/PWGCF</text>
<text text-anchor="middle" x="383" y="-7.5" font-family="Helvetica,sans-Serif" font-size="10.00" fill="#000000">/correlations.cxx</text>
</a>
</g>
</g>
<!-- Node66&#45;&gt;Node69 -->
<g id="edge3" class="edge">
<title>Node66&#45;&gt;Node69</title>
<path fill="none" stroke="#191970" d="M1409.5094,-113.2319C1185.0863,-107.4387 637.3902,-89.88 457,-53 453.925,-52.3713 450.8052,-51.6417 447.6735,-50.8344"/>
<polygon fill="#191970" stroke="#191970" points="1409.5392,-116.7337 1419.6255,-113.4907 1409.7183,-109.736 1409.5392,-116.7337"/>
</g>
<!-- Node70 -->
<g id="node5" class="node">
<title>Node70</title>
<g id="a_node5"><a xlink:href="../../d8/dc5/correlationsFiltered_8cxx.html" target="_top" xlink:title="/home/travis/build\l/AliceO2Group/AliceO2\l/Analysis/Tasks/PWGCF\l/correlationsFiltered.cxx">
<polygon fill="none" stroke="#000000" points="466,-.5 466,-52.5 600,-52.5 600,-.5 466,-.5"/>
<text text-anchor="start" x="474" y="-40.5" font-family="Helvetica,sans-Serif" font-size="10.00" fill="#000000">/home/travis/build</text>
<text text-anchor="start" x="474" y="-29.5" font-family="Helvetica,sans-Serif" font-size="10.00" fill="#000000">/AliceO2Group/AliceO2</text>
<text text-anchor="start" x="474" y="-18.5" font-family="Helvetica,sans-Serif" font-size="10.00" fill="#000000">/Analysis/Tasks/PWGCF</text>
<text text-anchor="middle" x="533" y="-7.5" font-family="Helvetica,sans-Serif" font-size="10.00" fill="#000000">/correlationsFiltered.cxx</text>
</a>
</g>
</g>
<!-- Node66&#45;&gt;Node70 -->
<g id="edge4" class="edge">
<title>Node66&#45;&gt;Node70</title>
<path fill="none" stroke="#191970" d="M1409.7697,-111.9983C1210.0553,-104.2709 759.7527,-83.9508 609,-53 606.1255,-52.4098 603.2112,-51.7382 600.283,-51.0024"/>
<polygon fill="#191970" stroke="#191970" points="1409.8297,-115.5031 1419.9568,-112.39 1410.0987,-108.5083 1409.8297,-115.5031"/>
</g>
<!-- Node71 -->
<g id="node6" class="node">
<title>Node71</title>
<g id="a_node6"><a xlink:href="../../d4/d39/correlationsMixed_8cxx.html" target="_top" xlink:title="/home/travis/build\l/AliceO2Group/AliceO2\l/Analysis/Tasks/PWGCF\l/correlationsMixed.cxx">
<polygon fill="none" stroke="#000000" points="618.5,-.5 618.5,-52.5 747.5,-52.5 747.5,-.5 618.5,-.5"/>
<text text-anchor="start" x="626.5" y="-40.5" font-family="Helvetica,sans-Serif" font-size="10.00" fill="#000000">/home/travis/build</text>
<text text-anchor="start" x="626.5" y="-29.5" font-family="Helvetica,sans-Serif" font-size="10.00" fill="#000000">/AliceO2Group/AliceO2</text>
<text text-anchor="start" x="626.5" y="-18.5" font-family="Helvetica,sans-Serif" font-size="10.00" fill="#000000">/Analysis/Tasks/PWGCF</text>
<text text-anchor="middle" x="683" y="-7.5" font-family="Helvetica,sans-Serif" font-size="10.00" fill="#000000">/correlationsMixed.cxx</text>
</a>
</g>
</g>
<!-- Node66&#45;&gt;Node71 -->
<g id="edge5" class="edge">
<title>Node66&#45;&gt;Node71</title>
<path fill="none" stroke="#191970" d="M1409.7975,-110.6208C1235.8267,-101.3543 878.0175,-79.7256 756,-53 753.2342,-52.3942 750.4309,-51.7095 747.6149,-50.9628"/>
<polygon fill="#191970" stroke="#191970" points="1409.8009,-114.1258 1419.972,-111.1598 1410.1712,-107.1356 1409.8009,-114.1258"/>
</g>
<!-- Node72 -->
<g id="node7" class="node">
<title>Node72</title>
<g id="a_node7"><a xlink:href="../../dc/db0/dptdptcorrelations_8cxx.html" target="_top" xlink:title="/home/travis/build\l/AliceO2Group/AliceO2\l/Analysis/Tasks/PWGCF\l/dptdptcorrelations.cxx">
<polygon fill="none" stroke="#000000" points="765.5,-.5 765.5,-52.5 894.5,-52.5 894.5,-.5 765.5,-.5"/>
<text text-anchor="start" x="773.5" y="-40.5" font-family="Helvetica,sans-Serif" font-size="10.00" fill="#000000">/home/travis/build</text>
<text text-anchor="start" x="773.5" y="-29.5" font-family="Helvetica,sans-Serif" font-size="10.00" fill="#000000">/AliceO2Group/AliceO2</text>
<text text-anchor="start" x="773.5" y="-18.5" font-family="Helvetica,sans-Serif" font-size="10.00" fill="#000000">/Analysis/Tasks/PWGCF</text>
<text text-anchor="middle" x="830" y="-7.5" font-family="Helvetica,sans-Serif" font-size="10.00" fill="#000000">/dptdptcorrelations.cxx</text>
</a>
</g>
</g>
<!-- Node66&#45;&gt;Node72 -->
<g id="edge6" class="edge">
<title>Node66&#45;&gt;Node72</title>
<path fill="none" stroke="#191970" d="M1409.5978,-112.7467C1289.2078,-107.6748 1078.7153,-93.34 903,-53 900.2404,-52.3665 897.4423,-51.6585 894.6306,-50.8927"/>
<polygon fill="#191970" stroke="#191970" points="1409.7571,-116.256 1419.8916,-113.167 1410.0427,-109.2618 1409.7571,-116.256"/>
</g>
<!-- Node73 -->
<g id="node8" class="node">
<title>Node73</title>
<g id="a_node8"><a xlink:href="../../d9/d63/filterCF_8cxx.html" target="_top" xlink:title="/home/travis/build\l/AliceO2Group/AliceO2\l/Analysis/Tasks/PWGCF\l/filterCF.cxx">
<polygon fill="none" stroke="#000000" points="912.5,-.5 912.5,-52.5 1041.5,-52.5 1041.5,-.5 912.5,-.5"/>
<text text-anchor="start" x="920.5" y="-40.5" font-family="Helvetica,sans-Serif" font-size="10.00" fill="#000000">/home/travis/build</text>
<text text-anchor="start" x="920.5" y="-29.5" font-family="Helvetica,sans-Serif" font-size="10.00" fill="#000000">/AliceO2Group/AliceO2</text>
<text text-anchor="start" x="920.5" y="-18.5" font-family="Helvetica,sans-Serif" font-size="10.00" fill="#000000">/Analysis/Tasks/PWGCF</text>
<text text-anchor="middle" x="977" y="-7.5" font-family="Helvetica,sans-Serif" font-size="10.00" fill="#000000">/filterCF.cxx</text>
</a>
</g>
</g>
<!-- Node66&#45;&gt;Node73 -->
<g id="edge7" class="edge">
<title>Node66&#45;&gt;Node73</title>
<path fill="none" stroke="#191970" d="M1409.8804,-108.0747C1316.8083,-99.5819 1172.8785,-82.8317 1051,-53 1047.9514,-52.2538 1044.8532,-51.4278 1041.7391,-50.5423"/>
<polygon fill="#191970" stroke="#191970" points="1409.5751,-111.5613 1419.8482,-108.9704 1410.2016,-104.5894 1409.5751,-111.5613"/>
</g>
<!-- Node74 -->
<g id="node9" class="node">
<title>Node74</title>
<g id="a_node9"><a xlink:href="../../d2/d15/cascadeconsumer_8cxx.html" target="_top" xlink:title="/home/travis/build\l/AliceO2Group/AliceO2\l/Analysis/Tasks/PWGLF\l/cascadeconsumer.cxx">
<polygon fill="none" stroke="#000000" points="1060,-.5 1060,-52.5 1188,-52.5 1188,-.5 1060,-.5"/>
<text text-anchor="start" x="1068" y="-40.5" font-family="Helvetica,sans-Serif" font-size="10.00" fill="#000000">/home/travis/build</text>
<text text-anchor="start" x="1068" y="-29.5" font-family="Helvetica,sans-Serif" font-size="10.00" fill="#000000">/AliceO2Group/AliceO2</text>
<text text-anchor="start" x="1068" y="-18.5" font-family="Helvetica,sans-Serif" font-size="10.00" fill="#000000">/Analysis/Tasks/PWGLF</text>
<text text-anchor="middle" x="1124" y="-7.5" font-family="Helvetica,sans-Serif" font-size="10.00" fill="#000000">/cascadeconsumer.cxx</text>
</a>
</g>
</g>
<!-- Node66&#45;&gt;Node74 -->
<g id="edge8" class="edge">
<title>Node66&#45;&gt;Node74</title>
<path fill="none" stroke="#191970" d="M1409.8928,-99.7657C1348.3417,-88.8497 1267.3525,-72.7423 1197,-53 1194.1441,-52.1986 1191.2399,-51.3392 1188.3169,-50.4377"/>
<polygon fill="#191970" stroke="#191970" points="1409.5316,-103.2558 1419.9866,-101.5402 1410.7437,-96.3615 1409.5316,-103.2558"/>
</g>
<!-- Node75 -->
<g id="node10" class="node">
<title>Node75</title>
<g id="a_node10"><a xlink:href="../../d0/dd5/cascadefinder_8cxx.html" target="_top" xlink:title="/home/travis/build\l/AliceO2Group/AliceO2\l/Analysis/Tasks/PWGLF\l/cascadefinder.cxx">
<polygon fill="none" stroke="#000000" points="1206,-.5 1206,-52.5 1334,-52.5 1334,-.5 1206,-.5"/>
<text text-anchor="start" x="1214" y="-40.5" font-family="Helvetica,sans-Serif" font-size="10.00" fill="#000000">/home/travis/build</text>
<text text-anchor="start" x="1214" y="-29.5" font-family="Helvetica,sans-Serif" font-size="10.00" fill="#000000">/AliceO2Group/AliceO2</text>
<text text-anchor="start" x="1214" y="-18.5" font-family="Helvetica,sans-Serif" font-size="10.00" fill="#000000">/Analysis/Tasks/PWGLF</text>
<text text-anchor="middle" x="1270" y="-7.5" font-family="Helvetica,sans-Serif" font-size="10.00" fill="#000000">/cascadefinder.cxx</text>
</a>
</g>
</g>
<!-- Node66&#45;&gt;Node75 -->
<g id="edge9" class="edge">
<title>Node66&#45;&gt;Node75</title>
<path fill="none" stroke="#191970" d="M1427.7695,-85.7468C1397.3619,-74.3279 1363.0648,-61.4484 1334.2339,-50.6216"/>
<polygon fill="#191970" stroke="#191970" points="1426.9014,-89.1594 1437.4935,-89.3984 1429.3623,-82.6062 1426.9014,-89.1594"/>
</g>
<!-- Node76 -->
<g id="node11" class="node">
<title>Node76</title>
<g id="a_node11"><a xlink:href="../../d4/d77/lambdakzeroconsumer_8cxx.html" target="_top" xlink:title="/home/travis/build\l/AliceO2Group/AliceO2\l/Analysis/Tasks/PWGLF\l/lambdakzeroconsumer.cxx">
<polygon fill="none" stroke="#000000" points="1352.5,-.5 1352.5,-52.5 1503.5,-52.5 1503.5,-.5 1352.5,-.5"/>
<text text-anchor="start" x="1360.5" y="-40.5" font-family="Helvetica,sans-Serif" font-size="10.00" fill="#000000">/home/travis/build</text>
<text text-anchor="start" x="1360.5" y="-29.5" font-family="Helvetica,sans-Serif" font-size="10.00" fill="#000000">/AliceO2Group/AliceO2</text>
<text text-anchor="start" x="1360.5" y="-18.5" font-family="Helvetica,sans-Serif" font-size="10.00" fill="#000000">/Analysis/Tasks/PWGLF</text>
<text text-anchor="middle" x="1428" y="-7.5" font-family="Helvetica,sans-Serif" font-size="10.00" fill="#000000">/lambdakzeroconsumer.cxx</text>
</a>
</g>
</g>
<!-- Node66&#45;&gt;Node76 -->
<g id="edge10" class="edge">
<title>Node66&#45;&gt;Node76</title>
<path fill="none" stroke="#191970" d="M1477.0119,-81.7159C1468.4295,-72.0472 1459.2101,-61.6608 1451.109,-52.5341"/>
<polygon fill="#191970" stroke="#191970" points="1474.4687,-84.1231 1483.7247,-89.2784 1479.7038,-79.4762 1474.4687,-84.1231"/>
</g>
<!-- Node77 -->
<g id="node12" class="node">
<title>Node77</title>
<g id="a_node12"><a xlink:href="../../d5/d6e/lambdakzerofinder_8cxx.html" target="_top" xlink:title="/home/travis/build\l/AliceO2Group/AliceO2\l/Analysis/Tasks/PWGLF\l/lambdakzerofinder.cxx">
<polygon fill="none" stroke="#000000" points="1521.5,-.5 1521.5,-52.5 1652.5,-52.5 1652.5,-.5 1521.5,-.5"/>
<text text-anchor="start" x="1529.5" y="-40.5" font-family="Helvetica,sans-Serif" font-size="10.00" fill="#000000">/home/travis/build</text>
<text text-anchor="start" x="1529.5" y="-29.5" font-family="Helvetica,sans-Serif" font-size="10.00" fill="#000000">/AliceO2Group/AliceO2</text>
<text text-anchor="start" x="1529.5" y="-18.5" font-family="Helvetica,sans-Serif" font-size="10.00" fill="#000000">/Analysis/Tasks/PWGLF</text>
<text text-anchor="middle" x="1587" y="-7.5" font-family="Helvetica,sans-Serif" font-size="10.00" fill="#000000">/lambdakzerofinder.cxx</text>
</a>
</g>
</g>
<!-- Node66&#45;&gt;Node77 -->
<g id="edge11" class="edge">
<title>Node66&#45;&gt;Node77</title>
<path fill="none" stroke="#191970" d="M1537.3677,-81.7159C1546.0587,-72.0472 1555.3948,-61.6608 1563.5985,-52.5341"/>
<polygon fill="#191970" stroke="#191970" points="1534.652,-79.5015 1530.5699,-89.2784 1539.858,-84.1811 1534.652,-79.5015"/>
</g>
<!-- Node78 -->
<g id="node13" class="node">
<title>Node78</title>
<g id="a_node13"><a xlink:href="../../d0/d42/mcspectraefficiency_8cxx.html" target="_top" xlink:title="/home/travis/build\l/AliceO2Group/AliceO2\l/Analysis/Tasks/PWGLF\l/mcspectraefficiency.cxx">
<polygon fill="none" stroke="#000000" points="1670.5,-.5 1670.5,-52.5 1807.5,-52.5 1807.5,-.5 1670.5,-.5"/>
<text text-anchor="start" x="1678.5" y="-40.5" font-family="Helvetica,sans-Serif" font-size="10.00" fill="#000000">/home/travis/build</text>
<text text-anchor="start" x="1678.5" y="-29.5" font-family="Helvetica,sans-Serif" font-size="10.00" fill="#000000">/AliceO2Group/AliceO2</text>
<text text-anchor="start" x="1678.5" y="-18.5" font-family="Helvetica,sans-Serif" font-size="10.00" fill="#000000">/Analysis/Tasks/PWGLF</text>
<text text-anchor="middle" x="1739" y="-7.5" font-family="Helvetica,sans-Serif" font-size="10.00" fill="#000000">/mcspectraefficiency.cxx</text>
</a>
</g>
</g>
<!-- Node66&#45;&gt;Node78 -->
<g id="edge12" class="edge">
<title>Node66&#45;&gt;Node78</title>
<path fill="none" stroke="#191970" d="M1584.3989,-85.8082C1612.4111,-75.0621 1643.8131,-63.0157 1670.9612,-52.6011"/>
<polygon fill="#191970" stroke="#191970" points="1583.123,-82.5489 1575.0401,-89.3984 1585.6303,-89.0845 1583.123,-82.5489"/>
</g>
<!-- Node79 -->
<g id="node14" class="node">
<title>Node79</title>
<g id="a_node14"><a xlink:href="../../df/dc5/raacharged_8cxx.html" target="_top" xlink:title="/home/travis/build\l/AliceO2Group/AliceO2\l/Analysis/Tasks/PWGLF\l/raacharged.cxx">
<polygon fill="none" stroke="#000000" points="1826,-.5 1826,-52.5 1954,-52.5 1954,-.5 1826,-.5"/>
<text text-anchor="start" x="1834" y="-40.5" font-family="Helvetica,sans-Serif" font-size="10.00" fill="#000000">/home/travis/build</text>
<text text-anchor="start" x="1834" y="-29.5" font-family="Helvetica,sans-Serif" font-size="10.00" fill="#000000">/AliceO2Group/AliceO2</text>
<text text-anchor="start" x="1834" y="-18.5" font-family="Helvetica,sans-Serif" font-size="10.00" fill="#000000">/Analysis/Tasks/PWGLF</text>
<text text-anchor="middle" x="1890" y="-7.5" font-family="Helvetica,sans-Serif" font-size="10.00" fill="#000000">/raacharged.cxx</text>
</a>
</g>
</g>
<!-- Node66&#45;&gt;Node79 -->
<g id="edge13" class="edge">
<title>Node66&#45;&gt;Node79</title>
<path fill="none" stroke="#191970" d="M1604.1072,-99.7657C1665.6583,-88.8497 1746.6475,-72.7423 1817,-53 1819.8559,-52.1986 1822.7601,-51.3392 1825.6831,-50.4377"/>
<polygon fill="#191970" stroke="#191970" points="1603.2563,-96.3615 1594.0134,-101.5402 1604.4684,-103.2558 1603.2563,-96.3615"/>
</g>
<!-- Node80 -->
<g id="node15" class="node">
<title>Node80</title>
<g id="a_node15"><a xlink:href="../../da/db2/spectraTPC_8cxx.html" target="_top" xlink:title="/home/travis/build\l/AliceO2Group/AliceO2\l/Analysis/Tasks/PWGLF\l/spectraTPC.cxx">
<polygon fill="none" stroke="#000000" points="1972,-.5 1972,-52.5 2100,-52.5 2100,-.5 1972,-.5"/>
<text text-anchor="start" x="1980" y="-40.5" font-family="Helvetica,sans-Serif" font-size="10.00" fill="#000000">/home/travis/build</text>
<text text-anchor="start" x="1980" y="-29.5" font-family="Helvetica,sans-Serif" font-size="10.00" fill="#000000">/AliceO2Group/AliceO2</text>
<text text-anchor="start" x="1980" y="-18.5" font-family="Helvetica,sans-Serif" font-size="10.00" fill="#000000">/Analysis/Tasks/PWGLF</text>
<text text-anchor="middle" x="2036" y="-7.5" font-family="Helvetica,sans-Serif" font-size="10.00" fill="#000000">/spectraTPC.cxx</text>
</a>
</g>
</g>
<!-- Node66&#45;&gt;Node80 -->
<g id="edge14" class="edge">
<title>Node66&#45;&gt;Node80</title>
<path fill="none" stroke="#191970" d="M1604.1487,-108.1933C1697.242,-99.7864 1841.1865,-83.0962 1963,-53 1965.8796,-52.2885 1968.8035,-51.5036 1971.7426,-50.6632"/>
<polygon fill="#191970" stroke="#191970" points="1603.8294,-104.7078 1594.1786,-109.0795 1604.4493,-111.6803 1603.8294,-104.7078"/>
</g>
<!-- Node81 -->
<g id="node16" class="node">
<title>Node81</title>
<g id="a_node16"><a xlink:href="../../de/d8c/trackchecks_8cxx.html" target="_top" xlink:title="/home/travis/build\l/AliceO2Group/AliceO2\l/Analysis/Tasks/PWGLF\l/trackchecks.cxx">
<polygon fill="none" stroke="#000000" points="2118,-.5 2118,-52.5 2246,-52.5 2246,-.5 2118,-.5"/>
<text text-anchor="start" x="2126" y="-40.5" font-family="Helvetica,sans-Serif" font-size="10.00" fill="#000000">/home/travis/build</text>
<text text-anchor="start" x="2126" y="-29.5" font-family="Helvetica,sans-Serif" font-size="10.00" fill="#000000">/AliceO2Group/AliceO2</text>
<text text-anchor="start" x="2126" y="-18.5" font-family="Helvetica,sans-Serif" font-size="10.00" fill="#000000">/Analysis/Tasks/PWGLF</text>
<text text-anchor="middle" x="2182" y="-7.5" font-family="Helvetica,sans-Serif" font-size="10.00" fill="#000000">/trackchecks.cxx</text>
</a>
</g>
</g>
<!-- Node66&#45;&gt;Node81 -->
<g id="edge15" class="edge">
<title>Node66&#45;&gt;Node81</title>
<path fill="none" stroke="#191970" d="M1604.3357,-112.7019C1724.3694,-107.5864 1933.9916,-93.209 2109,-53 2111.8909,-52.3358 2114.8241,-51.5901 2117.7708,-50.7817"/>
<polygon fill="#191970" stroke="#191970" points="1603.9187,-109.2161 1594.0717,-113.126 1604.2077,-116.2101 1603.9187,-109.2161"/>
</g>
<!-- Node82 -->
<g id="node17" class="node">
<title>Node82</title>
<g id="a_node17"><a xlink:href="../../d2/d9d/upcAnalysis_8cxx.html" target="_top" xlink:title="/home/travis/build\l/AliceO2Group/AliceO2\l/Analysis/Tasks/PWGUD\l/upcAnalysis.cxx">
<polygon fill="none" stroke="#000000" points="2264,-.5 2264,-52.5 2396,-52.5 2396,-.5 2264,-.5"/>
<text text-anchor="start" x="2272" y="-40.5" font-family="Helvetica,sans-Serif" font-size="10.00" fill="#000000">/home/travis/build</text>
<text text-anchor="start" x="2272" y="-29.5" font-family="Helvetica,sans-Serif" font-size="10.00" fill="#000000">/AliceO2Group/AliceO2</text>
<text text-anchor="start" x="2272" y="-18.5" font-family="Helvetica,sans-Serif" font-size="10.00" fill="#000000">/Analysis/Tasks/PWGUD</text>
<text text-anchor="middle" x="2330" y="-7.5" font-family="Helvetica,sans-Serif" font-size="10.00" fill="#000000">/upcAnalysis.cxx</text>
</a>
</g>
</g>
<!-- Node66&#45;&gt;Node82 -->
<g id="edge16" class="edge">
<title>Node66&#45;&gt;Node82</title>
<path fill="none" stroke="#191970" d="M1604.4605,-110.4666C1777.9475,-100.9892 2133.514,-79.0846 2255,-53 2257.8354,-52.3912 2260.7103,-51.704 2263.5992,-50.9552"/>
<polygon fill="#191970" stroke="#191970" points="1604.1081,-106.9805 1594.3128,-111.0182 1604.4881,-113.9702 1604.1081,-106.9805"/>
</g>
<!-- Node83 -->
<g id="node18" class="node">
<title>Node83</title>
<g id="a_node18"><a xlink:href="../../d4/d30/trackextension_8cxx.html" target="_top" xlink:title="/home/travis/build\l/AliceO2Group/AliceO2\l/Analysis/Tasks/trackextension.cxx">
<polygon fill="none" stroke="#000000" points="2414.5,-6 2414.5,-47 2601.5,-47 2601.5,-6 2414.5,-6"/>
<text text-anchor="start" x="2422.5" y="-35" font-family="Helvetica,sans-Serif" font-size="10.00" fill="#000000">/home/travis/build</text>
<text text-anchor="start" x="2422.5" y="-24" font-family="Helvetica,sans-Serif" font-size="10.00" fill="#000000">/AliceO2Group/AliceO2</text>
<text text-anchor="middle" x="2508" y="-13" font-family="Helvetica,sans-Serif" font-size="10.00" fill="#000000">/Analysis/Tasks/trackextension.cxx</text>
</a>
</g>
</g>
<!-- Node66&#45;&gt;Node83 -->
<g id="edge17" class="edge">
<title>Node66&#45;&gt;Node83</title>
<path fill="none" stroke="#191970" d="M1604.4182,-110.9695C1803.9692,-101.3198 2253.1794,-77.6025 2405,-53 2414.7512,-51.4198 2424.9252,-49.3427 2434.9193,-47.0454"/>
<polygon fill="#191970" stroke="#191970" points="1604.0586,-107.4826 1594.2387,-111.46 1604.3956,-114.4745 1604.0586,-107.4826"/>
</g>
<!-- Node84 -->
<g id="node19" class="node">
<title>Node84</title>
<g id="a_node19"><a xlink:href="../../d6/db1/trackqa_8cxx.html" target="_top" xlink:title="/home/travis/build\l/AliceO2Group/AliceO2\l/Analysis/Tasks/trackqa.cxx">
<polygon fill="none" stroke="#000000" points="2619.5,-6 2619.5,-47 2770.5,-47 2770.5,-6 2619.5,-6"/>
<text text-anchor="start" x="2627.5" y="-35" font-family="Helvetica,sans-Serif" font-size="10.00" fill="#000000">/home/travis/build</text>
<text text-anchor="start" x="2627.5" y="-24" font-family="Helvetica,sans-Serif" font-size="10.00" fill="#000000">/AliceO2Group/AliceO2</text>
<text text-anchor="middle" x="2695" y="-13" font-family="Helvetica,sans-Serif" font-size="10.00" fill="#000000">/Analysis/Tasks/trackqa.cxx</text>
</a>
</g>
</g>
<!-- Node66&#45;&gt;Node84 -->
<g id="edge18" class="edge">
<title>Node66&#45;&gt;Node84</title>
<path fill="none" stroke="#191970" d="M1604.3569,-113.0945C1836.8376,-106.849 2419.2328,-88.1084 2611,-53 2619.273,-51.4854 2627.8685,-49.3984 2636.2659,-47.0549"/>
<polygon fill="#191970" stroke="#191970" points="1604.1261,-109.5993 1594.223,-113.3647 1604.3128,-116.5968 1604.1261,-109.5993"/>
</g>
<!-- Node85 -->
<g id="node20" class="node">
<title>Node85</title>
<g id="a_node20"><a xlink:href="../../db/d90/trackselection_8cxx.html" target="_top" xlink:title="/home/travis/build\l/AliceO2Group/AliceO2\l/Analysis/Tasks/trackselection.cxx">
<polygon fill="none" stroke="#000000" points="2788.5,-6 2788.5,-47 2971.5,-47 2971.5,-6 2788.5,-6"/>
<text text-anchor="start" x="2796.5" y="-35" font-family="Helvetica,sans-Serif" font-size="10.00" fill="#000000">/home/travis/build</text>
<text text-anchor="start" x="2796.5" y="-24" font-family="Helvetica,sans-Serif" font-size="10.00" fill="#000000">/AliceO2Group/AliceO2</text>
<text text-anchor="middle" x="2880" y="-13" font-family="Helvetica,sans-Serif" font-size="10.00" fill="#000000">/Analysis/Tasks/trackselection.cxx</text>
</a>
</g>
</g>
<!-- Node66&#45;&gt;Node85 -->
<g id="edge19" class="edge">
<title>Node66&#45;&gt;Node85</title>
<path fill="none" stroke="#191970" d="M1604.2444,-113.3682C1861.1517,-107.3136 2553.7111,-88.1385 2780,-53 2789.7612,-51.4843 2799.9439,-49.3966 2809.9165,-47.0528"/>
<polygon fill="#191970" stroke="#191970" points="1604.0984,-109.8706 1594.1832,-113.6039 1604.2624,-116.8687 1604.0984,-109.8706"/>
</g>
<!-- Node86 -->
<g id="node21" class="node">
<title>Node86</title>
<g id="a_node21"><a xlink:href="../../dd/d06/histogramTrackSelection_8cxx.html" target="_top" xlink:title="/home/travis/build\l/AliceO2Group/AliceO2\l/Analysis/Tutorials/src\l/histogramTrackSelection.cxx">
<polygon fill="none" stroke="#000000" points="2990,-.5 2990,-52.5 3150,-52.5 3150,-.5 2990,-.5"/>
<text text-anchor="start" x="2998" y="-40.5" font-family="Helvetica,sans-Serif" font-size="10.00" fill="#000000">/home/travis/build</text>
<text text-anchor="start" x="2998" y="-29.5" font-family="Helvetica,sans-Serif" font-size="10.00" fill="#000000">/AliceO2Group/AliceO2</text>
<text text-anchor="start" x="2998" y="-18.5" font-family="Helvetica,sans-Serif" font-size="10.00" fill="#000000">/Analysis/Tutorials/src</text>
<text text-anchor="middle" x="3070" y="-7.5" font-family="Helvetica,sans-Serif" font-size="10.00" fill="#000000">/histogramTrackSelection.cxx</text>
</a>
</g>
</g>
<!-- Node66&#45;&gt;Node86 -->
<g id="edge20" class="edge">
<title>Node66&#45;&gt;Node86</title>
<path fill="none" stroke="#191970" d="M1604.3446,-114.5045C1888.7346,-111.0999 2714.9355,-97.5455 2981,-53 2983.8621,-52.5208 2986.7617,-51.978 2989.6794,-51.3829"/>
<polygon fill="#191970" stroke="#191970" points="1604.0095,-111.0081 1594.0515,-114.6261 1604.0922,-118.0076 1604.0095,-111.0081"/>
</g>
</g>
</svg>
