<?xml version="1.0" encoding="UTF-8" standalone="no"?>
<!DOCTYPE svg PUBLIC "-//W3C//DTD SVG 1.1//EN"
 "http://www.w3.org/Graphics/SVG/1.1/DTD/svg11.dtd">
<!-- Generated by graphviz version 2.40.1 (20161225.0304)
 -->
<!-- Title: /home/travis/build/AliceO2Group/AliceO2/Detectors/TPC/base/include/TPCBase/CalArray.h Pages: 1 -->
<!--zoomable 520 -->
<svg id="main" version="1.1" xmlns="http://www.w3.org/2000/svg" xmlns:xlink="http://www.w3.org/1999/xlink" xml:space="preserve" onload="init(evt)">
<style type="text/css"><![CDATA[
.edge:hover path { stroke: red; }
.edge:hover polygon { stroke: red; fill: red; }
]]></style>
<script type="text/javascript"><![CDATA[
var edges = document.getElementsByTagName('g');
if (edges && edges.length) {
  for (var i=0;i<edges.length;i++) {
    if (edges[i].id.substr(0,4)=='edge') {
      edges[i].setAttribute('class','edge');
    }
  }
}
]]></script>
        <defs>
                <circle id="rim" cx="0" cy="0" r="7"/>
                <circle id="rim2" cx="0" cy="0" r="3.5"/>
                <g id="zoomPlus">
                        <use xlink:href="#rim" fill="#404040">
                                <set attributeName="fill" to="#808080" begin="zoomplus.mouseover" end="zoomplus.mouseout"/>
                        </use>
                        <path d="M-4,0h8M0,-4v8" fill="none" stroke="white" stroke-width="1.5" pointer-events="none"/>
                </g>
                <g id="zoomMin">
                        <use xlink:href="#rim" fill="#404040">
                                <set attributeName="fill" to="#808080" begin="zoomminus.mouseover" end="zoomminus.mouseout"/>
                        </use>
                        <path d="M-4,0h8" fill="none" stroke="white" stroke-width="1.5" pointer-events="none"/>
                </g>
                <g id="dirArrow">
                        <path fill="none" stroke="white" stroke-width="1.5" d="M0,-3.0v7 M-2.5,-0.5L0,-3.0L2.5,-0.5"/>
                </g>
               <g id="resetDef">
                       <use xlink:href="#rim2" fill="#404040">
                               <set attributeName="fill" to="#808080" begin="reset.mouseover" end="reset.mouseout"/>
                       </use>
               </g>
        </defs>

<script type="text/javascript">
var viewWidth = 1818;
var viewHeight = 520;
var sectionId = 'dynsection-0';
</script>
<script xlink:href="../../svgpan.js"/>
<svg id="graph" class="graph">
<g id="viewport">
<title>/home/travis/build/AliceO2Group/AliceO2/Detectors/TPC/base/include/TPCBase/CalArray.h</title>
<!-- Node0 -->
<g id="node1" class="node">
<title>Node0</title>
<polygon fill="#bfbfbf" stroke="#000000" points="1349.5,-459.5 1349.5,-511.5 1502.5,-511.5 1502.5,-459.5 1349.5,-459.5"/>
<text text-anchor="start" x="1357.5" y="-499.5" font-family="Helvetica,sans-Serif" font-size="10.00" fill="#000000">/home/travis/build</text>
<text text-anchor="start" x="1357.5" y="-488.5" font-family="Helvetica,sans-Serif" font-size="10.00" fill="#000000">/AliceO2Group/AliceO2</text>
<text text-anchor="start" x="1357.5" y="-477.5" font-family="Helvetica,sans-Serif" font-size="10.00" fill="#000000">/Detectors/TPC/base/include</text>
<text text-anchor="middle" x="1426" y="-466.5" font-family="Helvetica,sans-Serif" font-size="10.00" fill="#000000">/TPCBase/CalArray.h</text>
</g>
<!-- Node1 -->
<g id="node2" class="node">
<title>Node1</title>
<polygon fill="none" stroke="#bfbfbf" points="993,-403.5 993,-422.5 1037,-422.5 1037,-403.5 993,-403.5"/>
<text text-anchor="middle" x="1015" y="-410.5" font-family="Helvetica,sans-Serif" font-size="10.00" fill="#000000">Vc/Vc</text>
</g>
<!-- Node0&#45;&gt;Node1 -->
<g id="edge1" class="edge">
<title>Node0&#45;&gt;Node1</title>
<path fill="none" stroke="#191970" d="M1349.2658,-476.2965C1274.2952,-466.5304 1156.9307,-449.1856 1047.1551,-423.0062"/>
<polygon fill="#191970" stroke="#191970" points="1047.7799,-419.5566 1037.2378,-420.6117 1046.137,-426.361 1047.7799,-419.5566"/>
</g>
<!-- Node2 -->
<g id="node3" class="node">
<title>Node2</title>
<polygon fill="none" stroke="#bfbfbf" points="1055,-403.5 1055,-422.5 1113,-422.5 1113,-403.5 1055,-403.5"/>
<text text-anchor="middle" x="1084" y="-410.5" font-family="Helvetica,sans-Serif" font-size="10.00" fill="#000000">memory</text>
</g>
<!-- Node0&#45;&gt;Node2 -->
<g id="edge2" class="edge">
<title>Node0&#45;&gt;Node2</title>
<path fill="none" stroke="#191970" d="M1349.3939,-469.9798C1288.9287,-457.6109 1202.4763,-439.6625 1127,-423 1125.737,-422.7212 1124.4537,-422.4357 1123.1582,-422.1456"/>
<polygon fill="#191970" stroke="#191970" points="1123.6511,-418.6684 1113.1242,-419.8662 1122.1004,-425.4945 1123.6511,-418.6684"/>
</g>
<!-- Node3 -->
<g id="node4" class="node">
<title>Node3</title>
<polygon fill="none" stroke="#bfbfbf" points="1298.5,-291.5 1298.5,-310.5 1345.5,-310.5 1345.5,-291.5 1298.5,-291.5"/>
<text text-anchor="middle" x="1322" y="-298.5" font-family="Helvetica,sans-Serif" font-size="10.00" fill="#000000">vector</text>
</g>
<!-- Node0&#45;&gt;Node3 -->
<g id="edge3" class="edge">
<title>Node0&#45;&gt;Node3</title>
<path fill="none" stroke="#191970" d="M1427.521,-459.3059C1427.9372,-429.4689 1424.4805,-380.5208 1401,-347 1389.887,-331.135 1371.4145,-319.942 1355.1256,-312.5721"/>
<polygon fill="#191970" stroke="#191970" points="1356.4338,-309.3254 1345.8594,-308.6683 1353.716,-315.7763 1356.4338,-309.3254"/>
</g>
<!-- Node4 -->
<g id="node5" class="node">
<title>Node4</title>
<polygon fill="none" stroke="#bfbfbf" points="508,-347.5 508,-366.5 552,-366.5 552,-347.5 508,-347.5"/>
<text text-anchor="middle" x="530" y="-354.5" font-family="Helvetica,sans-Serif" font-size="10.00" fill="#000000">string</text>
</g>
<!-- Node0&#45;&gt;Node4 -->
<g id="edge4" class="edge">
<title>Node0&#45;&gt;Node4</title>
<path fill="none" stroke="#191970" d="M1349.465,-472.5476C1295.7481,-462.233 1222.7698,-445.7393 1161,-423 1142.7197,-416.2705 1140.7778,-408.1818 1122,-403 883.2936,-337.1276 810.1504,-408.3579 566,-367 564.7409,-366.7867 563.4625,-366.5471 562.1753,-366.2864"/>
<polygon fill="#191970" stroke="#191970" points="562.8429,-362.848 552.3071,-363.9648 561.2398,-369.662 562.8429,-362.848"/>
</g>
<!-- Node5 -->
<g id="node6" class="node">
<title>Node5</title>
<polygon fill="none" stroke="#bfbfbf" points="1454,-403.5 1454,-422.5 1510,-422.5 1510,-403.5 1454,-403.5"/>
<text text-anchor="middle" x="1482" y="-410.5" font-family="Helvetica,sans-Serif" font-size="10.00" fill="#000000">numeric</text>
</g>
<!-- Node0&#45;&gt;Node5 -->
<g id="edge5" class="edge">
<title>Node0&#45;&gt;Node5</title>
<path fill="none" stroke="#191970" d="M1446.2173,-459.3258C1453.565,-449.8132 1461.6893,-439.2951 1468.3371,-430.6886"/>
<polygon fill="#191970" stroke="#191970" points="1471.2928,-432.5876 1474.6358,-422.534 1465.7529,-428.3085 1471.2928,-432.5876"/>
</g>
<!-- Node6 -->
<g id="node7" class="node">
<title>Node6</title>
<polygon fill="none" stroke="#bfbfbf" points="1528.5,-403.5 1528.5,-422.5 1597.5,-422.5 1597.5,-403.5 1528.5,-403.5"/>
<text text-anchor="middle" x="1563" y="-410.5" font-family="Helvetica,sans-Serif" font-size="10.00" fill="#000000">type_traits</text>
</g>
<!-- Node0&#45;&gt;Node6 -->
<g id="edge6" class="edge">
<title>Node0&#45;&gt;Node6</title>
<path fill="none" stroke="#191970" d="M1475.4601,-459.3258C1495.8955,-448.5115 1518.7866,-436.3976 1536.0341,-427.2703"/>
<polygon fill="#191970" stroke="#191970" points="1537.7825,-430.305 1544.984,-422.534 1534.5082,-424.1179 1537.7825,-430.305"/>
</g>
<!-- Node7 -->
<g id="node8" class="node">
<title>Node7</title>
<g id="a_node8"><a xlink:href="../../d5/d1d/TPC_2base_2include_2TPCBase_2Mapper_8h.html" target="_top" xlink:title="TPCBase/Mapper.h">
<polygon fill="none" stroke="#000000" points="1169.5,-403.5 1169.5,-422.5 1276.5,-422.5 1276.5,-403.5 1169.5,-403.5"/>
<text text-anchor="middle" x="1223" y="-410.5" font-family="Helvetica,sans-Serif" font-size="10.00" fill="#000000">TPCBase/Mapper.h</text>
</a>
</g>
</g>
<!-- Node0&#45;&gt;Node7 -->
<g id="edge7" class="edge">
<title>Node0&#45;&gt;Node7</title>
<path fill="none" stroke="#191970" d="M1352.9991,-459.4283C1321.149,-448.0532 1285.2246,-435.2231 1259.2248,-425.9374"/>
<polygon fill="#191970" stroke="#191970" points="1260.3698,-422.6299 1249.7752,-422.5626 1258.0154,-429.2221 1260.3698,-422.6299"/>
</g>
<!-- Node35 -->
<g id="node36" class="node">
<title>Node35</title>
<polygon fill="none" stroke="#bfbfbf" points="1615.5,-403.5 1615.5,-422.5 1690.5,-422.5 1690.5,-403.5 1615.5,-403.5"/>
<text text-anchor="middle" x="1653" y="-410.5" font-family="Helvetica,sans-Serif" font-size="10.00" fill="#000000">FairLogger.h</text>
</g>
<!-- Node0&#45;&gt;Node35 -->
<g id="edge56" class="edge">
<title>Node0&#45;&gt;Node35</title>
<path fill="none" stroke="#191970" d="M1502.5354,-461.0559C1539.6557,-449.2003 1582.6977,-435.4534 1613.2126,-425.7074"/>
<polygon fill="#191970" stroke="#191970" points="1614.5931,-428.9408 1623.0542,-422.5642 1612.4634,-422.2726 1614.5931,-428.9408"/>
</g>
<!-- Node36 -->
<g id="node37" class="node">
<title>Node36</title>
<polygon fill="none" stroke="#bfbfbf" points="1708.5,-403.5 1708.5,-422.5 1809.5,-422.5 1809.5,-403.5 1708.5,-403.5"/>
<text text-anchor="middle" x="1759" y="-410.5" font-family="Helvetica,sans-Serif" font-size="10.00" fill="#000000">boost/format.hpp</text>
</g>
<!-- Node0&#45;&gt;Node36 -->
<g id="edge57" class="edge">
<title>Node0&#45;&gt;Node36</title>
<path fill="none" stroke="#191970" d="M1502.815,-468.776C1564.8369,-455.2728 1650.524,-436.6171 1705.3578,-424.6789"/>
<polygon fill="#191970" stroke="#191970" points="1706.1982,-428.078 1715.2247,-422.5307 1704.709,-421.2382 1706.1982,-428.078"/>
</g>
<!-- Node7&#45;&gt;Node3 -->
<g id="edge9" class="edge">
<title>Node7&#45;&gt;Node3</title>
<path fill="none" stroke="#191970" d="M1250.3964,-403.459C1267.8231,-396.0615 1289.5613,-384.151 1303,-367 1313.4452,-353.6694 1318.1487,-334.815 1320.2664,-320.6694"/>
<polygon fill="#191970" stroke="#191970" points="1323.7667,-320.873 1321.4706,-310.53 1316.8156,-320.0474 1323.7667,-320.873"/>
</g>
<!-- Node7&#45;&gt;Node4 -->
<g id="edge11" class="edge">
<title>Node7&#45;&gt;Node4</title>
<path fill="none" stroke="#191970" d="M1169.2313,-404.6622C1164.4254,-404.0474 1159.6288,-403.4809 1155,-403 894.138,-375.8965 824.6613,-410.3354 566,-367 564.7405,-366.789 563.4618,-366.5513 562.1743,-366.2922"/>
<polygon fill="#191970" stroke="#191970" points="562.84,-362.8535 552.305,-363.9777 561.2416,-369.6686 562.84,-362.8535"/>
</g>
<!-- Node8 -->
<g id="node9" class="node">
<title>Node8</title>
<polygon fill="none" stroke="#bfbfbf" points="1256,-347.5 1256,-366.5 1294,-366.5 1294,-347.5 1256,-347.5"/>
<text text-anchor="middle" x="1275" y="-354.5" font-family="Helvetica,sans-Serif" font-size="10.00" fill="#000000">map</text>
</g>
<!-- Node7&#45;&gt;Node8 -->
<g id="edge8" class="edge">
<title>Node7&#45;&gt;Node8</title>
<path fill="none" stroke="#191970" d="M1232.0577,-403.2455C1239.5142,-395.2155 1250.2634,-383.6394 1259.1417,-374.0781"/>
<polygon fill="#191970" stroke="#191970" points="1261.8063,-376.3522 1266.0461,-366.6427 1256.6768,-371.589 1261.8063,-376.3522"/>
</g>
<!-- Node9 -->
<g id="node10" class="node">
<title>Node9</title>
<polygon fill="none" stroke="#bfbfbf" points="1350,-347.5 1350,-366.5 1392,-366.5 1392,-347.5 1350,-347.5"/>
<text text-anchor="middle" x="1371" y="-354.5" font-family="Helvetica,sans-Serif" font-size="10.00" fill="#000000">array</text>
</g>
<!-- Node7&#45;&gt;Node9 -->
<g id="edge10" class="edge">
<title>Node7&#45;&gt;Node9</title>
<path fill="none" stroke="#191970" d="M1248.4421,-403.3733C1273.9104,-393.7366 1313.1175,-378.9015 1340.2999,-368.6163"/>
<polygon fill="#191970" stroke="#191970" points="1341.6084,-371.8634 1349.7226,-365.0509 1339.1311,-365.3164 1341.6084,-371.8634"/>
</g>
<!-- Node10 -->
<g id="node11" class="node">
<title>Node10</title>
<polygon fill="none" stroke="#bfbfbf" points="1234.5,-67.5 1234.5,-86.5 1281.5,-86.5 1281.5,-67.5 1234.5,-67.5"/>
<text text-anchor="middle" x="1258" y="-74.5" font-family="Helvetica,sans-Serif" font-size="10.00" fill="#000000">cmath</text>
</g>
<!-- Node7&#45;&gt;Node10 -->
<g id="edge12" class="edge">
<title>Node7&#45;&gt;Node10</title>
<path fill="none" stroke="#191970" d="M1276.9103,-405.6076C1327.7695,-397.7473 1399.4757,-384.0985 1422,-367 1448.6137,-346.7972 1458,-334.4132 1458,-301 1458,-301 1458,-301 1458,-189 1458,-113.697 1348.7312,-88.524 1291.7258,-80.5151"/>
<polygon fill="#191970" stroke="#191970" points="1292.0967,-77.0339 1281.728,-79.2112 1291.1914,-83.9751 1292.0967,-77.0339"/>
</g>
<!-- Node11 -->
<g id="node12" class="node">
<title>Node11</title>
<g id="a_node12"><a xlink:href="../../d1/d73/Defs_8h.html" target="_top" xlink:title="DataFormatsTPC/Defs.h">
<polygon fill="none" stroke="#000000" points="879.5,-123.5 879.5,-142.5 1012.5,-142.5 1012.5,-123.5 879.5,-123.5"/>
<text text-anchor="middle" x="946" y="-130.5" font-family="Helvetica,sans-Serif" font-size="10.00" fill="#000000">DataFormatsTPC/Defs.h</text>
</a>
</g>
</g>
<!-- Node7&#45;&gt;Node11 -->
<g id="edge13" class="edge">
<title>Node7&#45;&gt;Node11</title>
<path fill="none" stroke="#191970" d="M1276.8665,-405.0739C1322.5489,-397.3038 1383.385,-384.1387 1401,-367 1422.8779,-345.7136 1420,-331.5246 1420,-301 1420,-301 1420,-301 1420,-245 1420,-164.392 1157.0893,-141.7285 1022.8774,-135.4106"/>
<polygon fill="#191970" stroke="#191970" points="1022.8045,-131.9039 1012.6569,-134.9494 1022.4889,-138.8967 1022.8045,-131.9039"/>
</g>
<!-- Node13 -->
<g id="node14" class="node">
<title>Node13</title>
<g id="a_node14"><a xlink:href="../../dc/d73/Cartesian_8h.html" target="_top" xlink:title="MathUtils/Cartesian.h">
<polygon fill="none" stroke="#000000" points="736,-67.5 736,-86.5 858,-86.5 858,-67.5 736,-67.5"/>
<text text-anchor="middle" x="797" y="-74.5" font-family="Helvetica,sans-Serif" font-size="10.00" fill="#000000">MathUtils/Cartesian.h</text>
</a>
</g>
</g>
<!-- Node7&#45;&gt;Node13 -->
<g id="edge55" class="edge">
<title>Node7&#45;&gt;Node13</title>
<path fill="none" stroke="#191970" d="M1169.225,-404.7213C1164.4204,-404.0939 1159.6258,-403.5083 1155,-403 1045.8101,-391.0009 764.2016,-407.2648 662,-367 618.4733,-349.8516 580,-347.7829 580,-301 580,-301 580,-301 580,-189 580,-121.9959 662.7067,-95.0362 726.0001,-84.2147"/>
<polygon fill="#191970" stroke="#191970" points="726.6573,-87.6541 735.9759,-82.6128 725.5475,-80.7426 726.6573,-87.6541"/>
</g>
<!-- Node24 -->
<g id="node25" class="node">
<title>Node24</title>
<g id="a_node25"><a xlink:href="../../de/d41/PadPos_8h.html" target="_top" xlink:title="TPCBase/PadPos.h">
<polygon fill="none" stroke="#000000" points="974,-235.5 974,-254.5 1080,-254.5 1080,-235.5 974,-235.5"/>
<text text-anchor="middle" x="1027" y="-242.5" font-family="Helvetica,sans-Serif" font-size="10.00" fill="#000000">TPCBase/PadPos.h</text>
</a>
</g>
</g>
<!-- Node7&#45;&gt;Node24 -->
<g id="edge27" class="edge">
<title>Node7&#45;&gt;Node24</title>
<path fill="none" stroke="#191970" d="M1169.332,-405.0762C1084.8,-392.5347 929.9594,-369.2887 928,-367 922.219,-360.2477 924.6597,-355.2374 928,-347 932.2834,-336.4366 981.9518,-287.9904 1009.263,-261.8457"/>
<polygon fill="#191970" stroke="#191970" points="1011.8142,-264.2491 1016.6322,-254.8131 1006.9814,-259.1851 1011.8142,-264.2491"/>
</g>
<!-- Node25 -->
<g id="node26" class="node">
<title>Node25</title>
<g id="a_node26"><a xlink:href="../../dd/d0b/PadSecPos_8h.html" target="_top" xlink:title="TPCBase/PadSecPos.h">
<polygon fill="none" stroke="#000000" points="646.5,-291.5 646.5,-310.5 769.5,-310.5 769.5,-291.5 646.5,-291.5"/>
<text text-anchor="middle" x="708" y="-298.5" font-family="Helvetica,sans-Serif" font-size="10.00" fill="#000000">TPCBase/PadSecPos.h</text>
</a>
</g>
</g>
<!-- Node7&#45;&gt;Node25 -->
<g id="edge28" class="edge">
<title>Node7&#45;&gt;Node25</title>
<path fill="none" stroke="#191970" d="M1169.2181,-404.7822C1164.415,-404.1417 1159.6226,-403.5366 1155,-403 1061.5093,-392.1481 808.102,-423.727 733,-367 718.5237,-356.0656 712.4299,-335.7017 709.8647,-320.4735"/>
<polygon fill="#191970" stroke="#191970" points="713.3272,-319.9581 708.5511,-310.5009 706.3871,-320.8723 713.3272,-319.9581"/>
</g>
<!-- Node26 -->
<g id="node27" class="node">
<title>Node26</title>
<g id="a_node27"><a xlink:href="../../d3/dd6/Sector_8h.html" target="_top" xlink:title="TPCBase/Sector.h">
<polygon fill="none" stroke="#000000" points="668.5,-179.5 668.5,-198.5 769.5,-198.5 769.5,-179.5 668.5,-179.5"/>
<text text-anchor="middle" x="719" y="-186.5" font-family="Helvetica,sans-Serif" font-size="10.00" fill="#000000">TPCBase/Sector.h</text>
</a>
</g>
</g>
<!-- Node7&#45;&gt;Node26 -->
<g id="edge54" class="edge">
<title>Node7&#45;&gt;Node26</title>
<path fill="none" stroke="#191970" d="M1169.2201,-404.7649C1164.4166,-404.1282 1159.6236,-403.5286 1155,-403 960.0607,-380.7148 899.1681,-434.6764 715,-367 669.5687,-350.3053 620.9242,-336.654 637,-291 649.403,-255.7764 679.6791,-223.7383 699.7664,-205.314"/>
<polygon fill="#191970" stroke="#191970" points="702.2759,-207.7659 707.4156,-198.5012 697.6202,-202.5386 702.2759,-207.7659"/>
</g>
<!-- Node28 -->
<g id="node29" class="node">
<title>Node28</title>
<g id="a_node29"><a xlink:href="../../da/d61/PadROCPos_8h.html" target="_top" xlink:title="TPCBase/PadROCPos.h">
<polygon fill="none" stroke="#000000" points="1012.5,-291.5 1012.5,-310.5 1139.5,-310.5 1139.5,-291.5 1012.5,-291.5"/>
<text text-anchor="middle" x="1076" y="-298.5" font-family="Helvetica,sans-Serif" font-size="10.00" fill="#000000">TPCBase/PadROCPos.h</text>
</a>
</g>
</g>
<!-- Node7&#45;&gt;Node28 -->
<g id="edge33" class="edge">
<title>Node7&#45;&gt;Node28</title>
<path fill="none" stroke="#191970" d="M1169.3501,-404.7527C1087.5559,-392.1181 940.8665,-369.1931 939,-367 915.0588,-338.869 958.2129,-321.7726 1002.2715,-312.0521"/>
<polygon fill="#191970" stroke="#191970" points="1003.1793,-315.4382 1012.2549,-309.9716 1001.7511,-308.5855 1003.1793,-315.4382"/>
</g>
<!-- Node30 -->
<g id="node31" class="node">
<title>Node30</title>
<g id="a_node31"><a xlink:href="../../d3/d54/DigitPos_8h.html" target="_top" xlink:title="TPCBase/DigitPos.h">
<polygon fill="none" stroke="#000000" points="742,-347.5 742,-366.5 854,-366.5 854,-347.5 742,-347.5"/>
<text text-anchor="middle" x="798" y="-354.5" font-family="Helvetica,sans-Serif" font-size="10.00" fill="#000000">TPCBase/DigitPos.h</text>
</a>
</g>
</g>
<!-- Node7&#45;&gt;Node30 -->
<g id="edge39" class="edge">
<title>Node7&#45;&gt;Node30</title>
<path fill="none" stroke="#191970" d="M1169.1932,-404.9796C1164.3954,-404.297 1159.6111,-403.6282 1155,-403 1027.6215,-385.647 995.414,-384.0908 868,-367 866.7339,-366.8302 865.455,-366.6576 864.1665,-366.4828"/>
<polygon fill="#191970" stroke="#191970" points="864.5353,-363.0007 854.1522,-365.1079 863.5832,-369.9357 864.5353,-363.0007"/>
</g>
<!-- Node32 -->
<g id="node33" class="node">
<title>Node32</title>
<g id="a_node33"><a xlink:href="../../d1/d1f/FECInfo_8h.html" target="_top" xlink:title="TPCBase/FECInfo.h">
<polygon fill="none" stroke="#000000" points="1486,-179.5 1486,-198.5 1594,-198.5 1594,-179.5 1486,-179.5"/>
<text text-anchor="middle" x="1540" y="-186.5" font-family="Helvetica,sans-Serif" font-size="10.00" fill="#000000">TPCBase/FECInfo.h</text>
</a>
</g>
</g>
<!-- Node7&#45;&gt;Node32 -->
<g id="edge47" class="edge">
<title>Node7&#45;&gt;Node32</title>
<path fill="none" stroke="#191970" d="M1276.7283,-409.1812C1340.8279,-403.6034 1442.9877,-391.1545 1472,-367 1521.0747,-326.1424 1534.804,-245.6969 1538.5889,-208.5943"/>
<polygon fill="#191970" stroke="#191970" points="1542.0814,-208.8315 1539.4724,-198.563 1535.1084,-208.2173 1542.0814,-208.8315"/>
</g>
<!-- Node33 -->
<g id="node34" class="node">
<title>Node33</title>
<g id="a_node34"><a xlink:href="../../da/d9d/PadRegionInfo_8h.html" target="_top" xlink:title="TPCBase/PadRegionInfo.h">
<polygon fill="none" stroke="#000000" points="948,-347.5 948,-366.5 1088,-366.5 1088,-347.5 948,-347.5"/>
<text text-anchor="middle" x="1018" y="-354.5" font-family="Helvetica,sans-Serif" font-size="10.00" fill="#000000">TPCBase/PadRegionInfo.h</text>
</a>
</g>
</g>
<!-- Node7&#45;&gt;Node33 -->
<g id="edge49" class="edge">
<title>Node7&#45;&gt;Node33</title>
<path fill="none" stroke="#191970" d="M1187.7592,-403.3733C1153.0806,-393.9001 1100.0117,-379.4032 1062.4538,-369.1435"/>
<polygon fill="#191970" stroke="#191970" points="1063.3498,-365.7601 1052.7809,-366.5011 1061.5051,-372.5126 1063.3498,-365.7601"/>
</g>
<!-- Node34 -->
<g id="node35" class="node">
<title>Node34</title>
<g id="a_node35"><a xlink:href="../../d6/d42/PartitionInfo_8h.html" target="_top" xlink:title="TPCBase/PartitionInfo.h">
<polygon fill="none" stroke="#000000" points="1106.5,-347.5 1106.5,-366.5 1237.5,-366.5 1237.5,-347.5 1106.5,-347.5"/>
<text text-anchor="middle" x="1172" y="-354.5" font-family="Helvetica,sans-Serif" font-size="10.00" fill="#000000">TPCBase/PartitionInfo.h</text>
</a>
</g>
</g>
<!-- Node7&#45;&gt;Node34 -->
<g id="edge53" class="edge">
<title>Node7&#45;&gt;Node34</title>
<path fill="none" stroke="#191970" d="M1214.1165,-403.2455C1206.8034,-395.2155 1196.2609,-383.6394 1187.5533,-374.0781"/>
<polygon fill="#191970" stroke="#191970" points="1190.1028,-371.6795 1180.7817,-366.6427 1184.9273,-376.3928 1190.1028,-371.6795"/>
</g>
<!-- Node11&#45;&gt;Node10 -->
<g id="edge14" class="edge">
<title>Node11&#45;&gt;Node10</title>
<path fill="none" stroke="#191970" d="M999.2802,-123.4369C1063.7312,-111.8688 1170.2918,-92.7425 1224.3338,-83.0427"/>
<polygon fill="#191970" stroke="#191970" points="1225.1895,-86.4451 1234.4139,-81.2334 1223.9528,-79.5552 1225.1895,-86.4451"/>
</g>
<!-- Node12 -->
<g id="node13" class="node">
<title>Node12</title>
<g id="a_node13"><a xlink:href="../../d1/da8/GPUROOTCartesianFwd_8h.html" target="_top" xlink:title="GPUROOTCartesianFwd.h">
<polygon fill="none" stroke="#000000" points="876,-67.5 876,-86.5 1016,-86.5 1016,-67.5 876,-67.5"/>
<text text-anchor="middle" x="946" y="-74.5" font-family="Helvetica,sans-Serif" font-size="10.00" fill="#000000">GPUROOTCartesianFwd.h</text>
</a>
</g>
</g>
<!-- Node11&#45;&gt;Node12 -->
<g id="edge15" class="edge">
<title>Node11&#45;&gt;Node12</title>
<path fill="none" stroke="#191970" d="M946,-123.2455C946,-115.9382 946,-105.6944 946,-96.7046"/>
<polygon fill="#191970" stroke="#191970" points="949.5001,-96.6426 946,-86.6427 942.5001,-96.6427 949.5001,-96.6426"/>
</g>
<!-- Node11&#45;&gt;Node13 -->
<g id="edge16" class="edge">
<title>Node11&#45;&gt;Node13</title>
<path fill="none" stroke="#191970" d="M920.386,-123.3733C895.9313,-114.1822 858.8946,-100.2624 831.7791,-90.0713"/>
<polygon fill="#191970" stroke="#191970" points="832.8719,-86.7431 822.2798,-86.5011 830.4091,-93.2956 832.8719,-86.7431"/>
</g>
<!-- Node14 -->
<g id="node15" class="node">
<title>Node14</title>
<polygon fill="none" stroke="#bfbfbf" points="945,-.5 945,-30.5 1109,-30.5 1109,-.5 945,-.5"/>
<text text-anchor="start" x="953" y="-18.5" font-family="Helvetica,sans-Serif" font-size="10.00" fill="#000000">Math/GenVector/Displacement</text>
<text text-anchor="middle" x="1027" y="-7.5" font-family="Helvetica,sans-Serif" font-size="10.00" fill="#000000">Vector3D.h</text>
</g>
<!-- Node13&#45;&gt;Node14 -->
<g id="edge17" class="edge">
<title>Node13&#45;&gt;Node14</title>
<path fill="none" stroke="#191970" d="M832.6851,-67.4581C866.7944,-58.3376 919.054,-44.3638 960.7893,-33.2042"/>
<polygon fill="#191970" stroke="#191970" points="961.8527,-36.5429 970.6092,-30.5784 960.0444,-29.7804 961.8527,-36.5429"/>
</g>
<!-- Node15 -->
<g id="node16" class="node">
<title>Node15</title>
<polygon fill="none" stroke="#bfbfbf" points="1127.5,-6 1127.5,-25 1316.5,-25 1316.5,-6 1127.5,-6"/>
<text text-anchor="middle" x="1222" y="-13" font-family="Helvetica,sans-Serif" font-size="10.00" fill="#000000">Math/GenVector/PositionVector3D.h</text>
</g>
<!-- Node13&#45;&gt;Node15 -->
<g id="edge18" class="edge">
<title>Node13&#45;&gt;Node15</title>
<path fill="none" stroke="#191970" d="M858.0899,-68.2646C944.0056,-55.9764 1092.8972,-34.6692 1118,-31 1127.8218,-29.5644 1138.1632,-28.0393 1148.3603,-26.5276"/>
<polygon fill="#191970" stroke="#191970" points="1149.1074,-29.9551 1158.4848,-25.0241 1148.0791,-23.031 1149.1074,-29.9551"/>
</g>
<!-- Node16 -->
<g id="node17" class="node">
<title>Node16</title>
<polygon fill="none" stroke="#bfbfbf" points="1335,-6 1335,-25 1495,-25 1495,-6 1335,-6"/>
<text text-anchor="middle" x="1415" y="-13" font-family="Helvetica,sans-Serif" font-size="10.00" fill="#000000">Math/GenVector/Rotation3D.h</text>
</g>
<!-- Node13&#45;&gt;Node16 -->
<g id="edge19" class="edge">
<title>Node13&#45;&gt;Node16</title>
<path fill="none" stroke="#191970" d="M858.0544,-68.0447C861.077,-67.6746 864.0716,-67.3237 867,-67 1070.3879,-44.5193 1122.979,-56.5827 1326,-31 1335.4703,-29.8066 1345.4677,-28.3047 1355.2065,-26.7083"/>
<polygon fill="#191970" stroke="#191970" points="1355.9494,-30.1325 1365.2287,-25.0195 1354.7862,-23.2299 1355.9494,-30.1325"/>
</g>
<!-- Node17 -->
<g id="node18" class="node">
<title>Node17</title>
<polygon fill="none" stroke="#bfbfbf" points="0,-6 0,-25 168,-25 168,-6 0,-6"/>
<text text-anchor="middle" x="84" y="-13" font-family="Helvetica,sans-Serif" font-size="10.00" fill="#000000">Math/GenVector/Transform3D.h</text>
</g>
<!-- Node13&#45;&gt;Node17 -->
<g id="edge20" class="edge">
<title>Node13&#45;&gt;Node17</title>
<path fill="none" stroke="#191970" d="M735.6603,-74.3043C624.1484,-68.9912 380.8789,-55.5015 177,-31 167.0053,-29.7989 156.4454,-28.2803 146.1688,-26.6661"/>
<polygon fill="#191970" stroke="#191970" points="146.4479,-23.166 136.018,-25.0283 145.3328,-30.0766 146.4479,-23.166"/>
</g>
<!-- Node18 -->
<g id="node19" class="node">
<title>Node18</title>
<polygon fill="none" stroke="#bfbfbf" points="186.5,-6 186.5,-25 359.5,-25 359.5,-6 186.5,-6"/>
<text text-anchor="middle" x="273" y="-13" font-family="Helvetica,sans-Serif" font-size="10.00" fill="#000000">Math/GenVector/Translation3D.h</text>
</g>
<!-- Node13&#45;&gt;Node18 -->
<g id="edge21" class="edge">
<title>Node13&#45;&gt;Node18</title>
<path fill="none" stroke="#191970" d="M735.9236,-71.4629C652.7715,-63.69 499.3593,-48.5166 369,-31 359.2117,-29.6847 348.8839,-28.1612 338.7743,-26.5932"/>
<polygon fill="#191970" stroke="#191970" points="339.1884,-23.1154 328.7655,-25.0165 338.099,-30.0301 339.1884,-23.1154"/>
</g>
<!-- Node19 -->
<g id="node20" class="node">
<title>Node19</title>
<polygon fill="none" stroke="#bfbfbf" points="378,-.5 378,-30.5 542,-30.5 542,-.5 378,-.5"/>
<text text-anchor="start" x="386" y="-18.5" font-family="Helvetica,sans-Serif" font-size="10.00" fill="#000000">Math/GenVector/Displacement</text>
<text text-anchor="middle" x="460" y="-7.5" font-family="Helvetica,sans-Serif" font-size="10.00" fill="#000000">Vector2D.h</text>
</g>
<!-- Node13&#45;&gt;Node19 -->
<g id="edge22" class="edge">
<title>Node13&#45;&gt;Node19</title>
<path fill="none" stroke="#191970" d="M744.7135,-67.4581C693.4887,-58.11 614.3255,-43.6633 552.4638,-32.374"/>
<polygon fill="#191970" stroke="#191970" points="552.7669,-28.8715 542.3009,-30.5193 551.5101,-35.7578 552.7669,-28.8715"/>
</g>
<!-- Node20 -->
<g id="node21" class="node">
<title>Node20</title>
<polygon fill="none" stroke="#bfbfbf" points="560.5,-6 560.5,-25 749.5,-25 749.5,-6 560.5,-6"/>
<text text-anchor="middle" x="655" y="-13" font-family="Helvetica,sans-Serif" font-size="10.00" fill="#000000">Math/GenVector/PositionVector2D.h</text>
</g>
<!-- Node13&#45;&gt;Node20 -->
<g id="edge23" class="edge">
<title>Node13&#45;&gt;Node20</title>
<path fill="none" stroke="#191970" d="M774.8125,-67.3906C751.0533,-57.1005 713.1595,-40.6888 686.3575,-29.0809"/>
<polygon fill="#191970" stroke="#191970" points="687.5991,-25.8045 677.0317,-25.0419 684.817,-32.2279 687.5991,-25.8045"/>
</g>
<!-- Node21 -->
<g id="node22" class="node">
<title>Node21</title>
<polygon fill="none" stroke="#bfbfbf" points="767.5,-6 767.5,-25 826.5,-25 826.5,-6 767.5,-6"/>
<text text-anchor="middle" x="797" y="-13" font-family="Helvetica,sans-Serif" font-size="10.00" fill="#000000">Rtypes.h</text>
</g>
<!-- Node13&#45;&gt;Node21 -->
<g id="edge24" class="edge">
<title>Node13&#45;&gt;Node21</title>
<path fill="none" stroke="#191970" d="M797,-67.3906C797,-58.8657 797,-46.1392 797,-35.4235"/>
<polygon fill="#191970" stroke="#191970" points="800.5001,-35.2448 797,-25.2449 793.5001,-35.2449 800.5001,-35.2448"/>
</g>
<!-- Node22 -->
<g id="node23" class="node">
<title>Node22</title>
<polygon fill="none" stroke="#bfbfbf" points="845,-6 845,-25 927,-25 927,-6 845,-6"/>
<text text-anchor="middle" x="886" y="-13" font-family="Helvetica,sans-Serif" font-size="10.00" fill="#000000">TGeoMatrix.h</text>
</g>
<!-- Node13&#45;&gt;Node22 -->
<g id="edge25" class="edge">
<title>Node13&#45;&gt;Node22</title>
<path fill="none" stroke="#191970" d="M810.9063,-67.3906C825.0138,-57.6421 847.0724,-42.3994 863.6385,-30.9521"/>
<polygon fill="#191970" stroke="#191970" points="865.9542,-33.6063 872.1914,-25.0419 861.9747,-27.8474 865.9542,-33.6063"/>
</g>
<!-- Node23 -->
<g id="node24" class="node">
<title>Node23</title>
<polygon fill="none" stroke="#bfbfbf" points="1514.5,-6 1514.5,-25 1563.5,-25 1563.5,-6 1514.5,-6"/>
<text text-anchor="middle" x="1539" y="-13" font-family="Helvetica,sans-Serif" font-size="10.00" fill="#000000">iosfwd</text>
</g>
<!-- Node13&#45;&gt;Node23 -->
<g id="edge26" class="edge">
<title>Node13&#45;&gt;Node23</title>
<path fill="none" stroke="#191970" d="M858.0461,-67.966C861.0709,-67.6166 864.0682,-67.2917 867,-67 1149.1695,-38.9235 1228.3421,-97.4878 1504,-31 1506.3439,-30.4347 1508.7264,-29.7182 1511.0895,-28.9049"/>
<polygon fill="#191970" stroke="#191970" points="1512.5405,-32.0947 1520.5459,-25.1547 1509.9599,-25.5877 1512.5405,-32.0947"/>
</g>
<!-- Node25&#45;&gt;Node24 -->
<g id="edge32" class="edge">
<title>Node25&#45;&gt;Node24</title>
<path fill="none" stroke="#191970" d="M762.4756,-291.4369C818.324,-281.6328 905.0972,-266.3999 963.8985,-256.0774"/>
<polygon fill="#191970" stroke="#191970" points="964.5672,-259.5136 973.8114,-254.3372 963.3568,-252.619 964.5672,-259.5136"/>
</g>
<!-- Node25&#45;&gt;Node26 -->
<g id="edge29" class="edge">
<title>Node25&#45;&gt;Node26</title>
<path fill="none" stroke="#191970" d="M708.9379,-291.4509C710.7319,-273.184 714.683,-232.9553 717.0654,-208.6976"/>
<polygon fill="#191970" stroke="#191970" points="720.5702,-208.8191 718.0645,-198.5249 713.6038,-208.1349 720.5702,-208.8191"/>
</g>
<!-- Node26&#45;&gt;Node11 -->
<g id="edge31" class="edge">
<title>Node26&#45;&gt;Node11</title>
<path fill="none" stroke="#191970" d="M757.7648,-179.4369C796.3692,-169.9133 855.7384,-155.2672 897.4572,-144.9753"/>
<polygon fill="#191970" stroke="#191970" points="898.5245,-148.317 907.3951,-142.5237 896.8479,-141.5208 898.5245,-148.317"/>
</g>
<!-- Node27 -->
<g id="node28" class="node">
<title>Node27</title>
<g id="a_node28"><a xlink:href="../../d0/dda/DataFormats_2Detectors_2TPC_2include_2DataFormatsTPC_2Constants_8h.html" target="_top" xlink:title="DataFormatsTPC/Constants.h">
<polygon fill="none" stroke="#000000" points="639.5,-123.5 639.5,-142.5 798.5,-142.5 798.5,-123.5 639.5,-123.5"/>
<text text-anchor="middle" x="719" y="-130.5" font-family="Helvetica,sans-Serif" font-size="10.00" fill="#000000">DataFormatsTPC/Constants.h</text>
</a>
</g>
</g>
<!-- Node26&#45;&gt;Node27 -->
<g id="edge30" class="edge">
<title>Node26&#45;&gt;Node27</title>
<path fill="none" stroke="#191970" d="M719,-179.2455C719,-171.9382 719,-161.6944 719,-152.7046"/>
<polygon fill="#191970" stroke="#191970" points="722.5001,-152.6426 719,-142.6427 715.5001,-152.6427 722.5001,-152.6426"/>
</g>
<!-- Node28&#45;&gt;Node11 -->
<g id="edge34" class="edge">
<title>Node28&#45;&gt;Node11</title>
<path fill="none" stroke="#191970" d="M1081.536,-291.4994C1088.5152,-278.17 1098.5182,-253.4806 1089,-235 1066.4735,-191.2622 1015.5462,-162.1419 980.9612,-146.5858"/>
<polygon fill="#191970" stroke="#191970" points="982.2438,-143.3271 971.677,-142.557 979.4572,-149.7486 982.2438,-143.3271"/>
</g>
<!-- Node28&#45;&gt;Node24 -->
<g id="edge38" class="edge">
<title>Node28&#45;&gt;Node24</title>
<path fill="none" stroke="#191970" d="M1067.4649,-291.2455C1060.5088,-283.2958 1050.5117,-271.8706 1042.1949,-262.3656"/>
<polygon fill="#191970" stroke="#191970" points="1044.6564,-259.8637 1035.4373,-254.6427 1039.3884,-264.4732 1044.6564,-259.8637"/>
</g>
<!-- Node29 -->
<g id="node30" class="node">
<title>Node29</title>
<g id="a_node30"><a xlink:href="../../dc/d14/ROC_8h.html" target="_top" xlink:title="TPCBase/ROC.h">
<polygon fill="none" stroke="#000000" points="826,-235.5 826,-254.5 918,-254.5 918,-235.5 826,-235.5"/>
<text text-anchor="middle" x="872" y="-242.5" font-family="Helvetica,sans-Serif" font-size="10.00" fill="#000000">TPCBase/ROC.h</text>
</a>
</g>
</g>
<!-- Node28&#45;&gt;Node29 -->
<g id="edge35" class="edge">
<title>Node28&#45;&gt;Node29</title>
<path fill="none" stroke="#191970" d="M1040.9311,-291.3733C1006.5685,-281.9404 954.0608,-267.5265 916.7149,-257.2747"/>
<polygon fill="#191970" stroke="#191970" points="917.181,-253.7732 906.6112,-254.5011 915.328,-260.5235 917.181,-253.7732"/>
</g>
<!-- Node29&#45;&gt;Node11 -->
<g id="edge36" class="edge">
<title>Node29&#45;&gt;Node11</title>
<path fill="none" stroke="#191970" d="M878.3092,-235.4509C890.6515,-216.7707 918.1682,-175.1238 934.0568,-151.0761"/>
<polygon fill="#191970" stroke="#191970" points="937.1143,-152.7977 939.7068,-142.5249 931.274,-148.9388 937.1143,-152.7977"/>
</g>
<!-- Node29&#45;&gt;Node26 -->
<g id="edge37" class="edge">
<title>Node29&#45;&gt;Node26</title>
<path fill="none" stroke="#191970" d="M845.6984,-235.3733C820.5872,-226.1822 782.5562,-212.2624 754.7128,-202.0713"/>
<polygon fill="#191970" stroke="#191970" points="755.5522,-198.6516 744.9584,-198.5011 753.1462,-205.2251 755.5522,-198.6516"/>
</g>
<!-- Node30&#45;&gt;Node11 -->
<g id="edge40" class="edge">
<title>Node30&#45;&gt;Node11</title>
<path fill="none" stroke="#191970" d="M797.2285,-347.3563C795.9517,-325.6638 795.3963,-272.0306 817,-235 840.5996,-194.5482 886.9183,-164.0584 917.1527,-147.372"/>
<polygon fill="#191970" stroke="#191970" points="918.8172,-150.451 925.9765,-142.6409 915.5094,-144.2818 918.8172,-150.451"/>
</g>
<!-- Node30&#45;&gt;Node24 -->
<g id="edge45" class="edge">
<title>Node30&#45;&gt;Node24</title>
<path fill="none" stroke="#191970" d="M831.5074,-347.49C858.0918,-339.3724 895.8332,-326.5564 927,-311 956.052,-296.4992 986.854,-275.1441 1006.4709,-260.6846"/>
<polygon fill="#191970" stroke="#191970" points="1008.7327,-263.3638 1014.6505,-254.5756 1004.544,-257.7553 1008.7327,-263.3638"/>
</g>
<!-- Node30&#45;&gt;Node25 -->
<g id="edge46" class="edge">
<title>Node30&#45;&gt;Node25</title>
<path fill="none" stroke="#191970" d="M782.3232,-347.2455C768.5144,-338.6534 748.1807,-326.0014 732.2708,-316.1018"/>
<polygon fill="#191970" stroke="#191970" points="733.8368,-312.954 723.4972,-310.6427 730.1387,-318.8974 733.8368,-312.954"/>
</g>
<!-- Node31 -->
<g id="node32" class="node">
<title>Node31</title>
<g id="a_node32"><a xlink:href="../../df/d26/CRU_8h.html" target="_top" xlink:title="TPCBase/CRU.h">
<polygon fill="none" stroke="#000000" points="826,-291.5 826,-310.5 918,-310.5 918,-291.5 826,-291.5"/>
<text text-anchor="middle" x="872" y="-298.5" font-family="Helvetica,sans-Serif" font-size="10.00" fill="#000000">TPCBase/CRU.h</text>
</a>
</g>
</g>
<!-- Node30&#45;&gt;Node31 -->
<g id="edge41" class="edge">
<title>Node30&#45;&gt;Node31</title>
<path fill="none" stroke="#191970" d="M810.8898,-347.2455C821.9254,-338.8943 838.0292,-326.7076 850.9353,-316.9408"/>
<polygon fill="#191970" stroke="#191970" points="853.3959,-319.4681 859.2579,-310.6427 849.1717,-313.8862 853.3959,-319.4681"/>
</g>
<!-- Node31&#45;&gt;Node11 -->
<g id="edge42" class="edge">
<title>Node31&#45;&gt;Node11</title>
<path fill="none" stroke="#191970" d="M889.045,-291.4179C901.6541,-283.3845 918.1196,-270.714 927,-255 945.2915,-222.6331 947.5192,-178.1256 947.0536,-152.7839"/>
<polygon fill="#191970" stroke="#191970" points="950.545,-152.4734 946.6982,-142.6016 943.5493,-152.7176 950.545,-152.4734"/>
</g>
<!-- Node31&#45;&gt;Node26 -->
<g id="edge43" class="edge">
<title>Node31&#45;&gt;Node26</title>
<path fill="none" stroke="#191970" d="M858.9553,-291.4509C832.5334,-272.1094 772.477,-228.1465 740.2976,-204.5904"/>
<polygon fill="#191970" stroke="#191970" points="742.1482,-201.6075 732.0117,-198.5249 738.0134,-207.2559 742.1482,-201.6075"/>
</g>
<!-- Node31&#45;&gt;Node29 -->
<g id="edge44" class="edge">
<title>Node31&#45;&gt;Node29</title>
<path fill="none" stroke="#191970" d="M872,-291.2455C872,-283.9382 872,-273.6944 872,-264.7046"/>
<polygon fill="#191970" stroke="#191970" points="875.5001,-264.6426 872,-254.6427 868.5001,-264.6427 875.5001,-264.6426"/>
</g>
<!-- Node32&#45;&gt;Node23 -->
<g id="edge48" class="edge">
<title>Node32&#45;&gt;Node23</title>
<path fill="none" stroke="#191970" d="M1539.9448,-179.4248C1539.7867,-151.999 1539.3299,-72.732 1539.1147,-35.3964"/>
<polygon fill="#191970" stroke="#191970" points="1542.6139,-35.2392 1539.0563,-25.2595 1535.614,-35.2796 1542.6139,-35.2392"/>
</g>
<!-- Node33&#45;&gt;Node3 -->
<g id="edge50" class="edge">
<title>Node33&#45;&gt;Node3</title>
<path fill="none" stroke="#191970" d="M1069.914,-347.4369C1132.3944,-335.9273 1235.4903,-316.936 1288.3932,-307.1907"/>
<polygon fill="#191970" stroke="#191970" points="1289.0773,-310.6237 1298.2777,-305.3699 1287.8091,-303.7395 1289.0773,-310.6237"/>
</g>
<!-- Node33&#45;&gt;Node11 -->
<g id="edge51" class="edge">
<title>Node33&#45;&gt;Node11</title>
<path fill="none" stroke="#191970" d="M1070.0814,-347.4495C1107.5689,-339.3926 1153.4796,-326.6763 1165,-311 1170.2638,-303.8373 1168.1887,-299.2973 1165,-291 1140.9552,-228.4325 1119.1559,-217.0876 1064,-179 1042.4866,-164.144 1015.5015,-153.1647 992.7686,-145.6657"/>
<polygon fill="#191970" stroke="#191970" points="993.5775,-142.2505 982.9873,-142.5639 991.4615,-148.9231 993.5775,-142.2505"/>
</g>
<!-- Node33&#45;&gt;Node24 -->
<g id="edge52" class="edge">
<title>Node33&#45;&gt;Node24</title>
<path fill="none" stroke="#191970" d="M1061.403,-347.4577C1095.368,-339.0075 1138.5467,-325.7497 1149,-311 1168.7041,-283.1974 1129.3478,-265.9652 1090.2035,-256.1125"/>
<polygon fill="#191970" stroke="#191970" points="1090.8297,-252.664 1080.2922,-253.7646 1089.2161,-259.4755 1090.8297,-252.664"/>
</g>
</g>
</svg>
        <g id="navigator" transform="translate(0 0)" fill="#404254">
                <rect fill="#f2f5e9" fill-opacity="0.5" stroke="#606060" stroke-width=".5" x="0" y="0" width="60" height="60"/>
                <use id="zoomplus" xlink:href="#zoomPlus" x="17" y="9" onmousedown="handleZoom(evt,'in')"/>
                <use id="zoomminus" xlink:href="#zoomMin" x="42" y="9" onmousedown="handleZoom(evt,'out')"/>
                <use id="reset" xlink:href="#resetDef" x="30" y="36" onmousedown="handleReset()"/>
                <g id="arrowUp" xlink:href="#dirArrow" transform="translate(30 24)" onmousedown="handlePan(0,-1)">
                  <use xlink:href="#rim" fill="#404040">
                        <set attributeName="fill" to="#808080" begin="arrowUp.mouseover" end="arrowUp.mouseout"/>
                  </use>
                  <path fill="none" stroke="white" stroke-width="1.5" d="M0,-3.0v7 M-2.5,-0.5L0,-3.0L2.5,-0.5"/>
                </g>
                <g id="arrowRight" xlink:href="#dirArrow" transform="rotate(90) translate(36 -43)" onmousedown="handlePan(1,0)">
                  <use xlink:href="#rim" fill="#404040">
                        <set attributeName="fill" to="#808080" begin="arrowRight.mouseover" end="arrowRight.mouseout"/>
                  </use>
                  <path fill="none" stroke="white" stroke-width="1.5" d="M0,-3.0v7 M-2.5,-0.5L0,-3.0L2.5,-0.5"/>
                </g>
                <g id="arrowDown" xlink:href="#dirArrow" transform="rotate(180) translate(-30 -48)" onmousedown="handlePan(0,1)">
                  <use xlink:href="#rim" fill="#404040">
                        <set attributeName="fill" to="#808080" begin="arrowDown.mouseover" end="arrowDown.mouseout"/>
                  </use>
                  <path fill="none" stroke="white" stroke-width="1.5" d="M0,-3.0v7 M-2.5,-0.5L0,-3.0L2.5,-0.5"/>
                </g>
                <g id="arrowLeft" xlink:href="#dirArrow" transform="rotate(270) translate(-36 17)" onmousedown="handlePan(-1,0)">
                  <use xlink:href="#rim" fill="#404040">
                        <set attributeName="fill" to="#808080" begin="arrowLeft.mouseover" end="arrowLeft.mouseout"/>
                  </use>
                  <path fill="none" stroke="white" stroke-width="1.5" d="M0,-3.0v7 M-2.5,-0.5L0,-3.0L2.5,-0.5"/>
                </g>
        </g>
        <svg viewBox="0 0 15 15" width="100%" height="30px" preserveAspectRatio="xMaxYMin meet">
         <g id="arrow_out" transform="scale(0.3 0.3)">
          <a xlink:href="CalArray_8h__incl_org.svg" target="_base">
           <rect id="button" ry="5" rx="5" y="6" x="6" height="38" width="38"
                fill="#f2f5e9" fill-opacity="0.5" stroke="#606060" stroke-width="1.0"/>
           <path id="arrow"
             d="M 11.500037,31.436501 C 11.940474,20.09759 22.043105,11.32322 32.158766,21.979434 L 37.068811,17.246167 C 37.068811,17.246167 37.088388,32 37.088388,32 L 22.160133,31.978069 C 22.160133,31.978069 26.997745,27.140456 26.997745,27.140456 C 18.528582,18.264221 13.291696,25.230495 11.500037,31.436501 z"
             style="fill:#404040;"/>
          </a>
         </g>
        </svg>
</svg>
