<?xml version="1.0" encoding="UTF-8" standalone="no"?>
<!DOCTYPE svg PUBLIC "-//W3C//DTD SVG 1.1//EN"
 "http://www.w3.org/Graphics/SVG/1.1/DTD/svg11.dtd">
<!-- Generated by graphviz version 2.40.1 (20161225.0304)
 -->
<!-- Title: /home/travis/build/AliceO2Group/AliceO2/Common/Field/src/MagFieldParam.cxx Pages: 1 -->
<!--zoomable 341 -->
<svg id="main" version="1.1" xmlns="http://www.w3.org/2000/svg" xmlns:xlink="http://www.w3.org/1999/xlink" xml:space="preserve" onload="init(evt)">
<style type="text/css"><![CDATA[
.edge:hover path { stroke: red; }
.edge:hover polygon { stroke: red; fill: red; }
]]></style>
<script type="text/javascript"><![CDATA[
var edges = document.getElementsByTagName('g');
if (edges && edges.length) {
  for (var i=0;i<edges.length;i++) {
    if (edges[i].id.substr(0,4)=='edge') {
      edges[i].setAttribute('class','edge');
    }
  }
}
]]></script>
        <defs>
                <circle id="rim" cx="0" cy="0" r="7"/>
                <circle id="rim2" cx="0" cy="0" r="3.5"/>
                <g id="zoomPlus">
                        <use xlink:href="#rim" fill="#404040">
                                <set attributeName="fill" to="#808080" begin="zoomplus.mouseover" end="zoomplus.mouseout"/>
                        </use>
                        <path d="M-4,0h8M0,-4v8" fill="none" stroke="white" stroke-width="1.5" pointer-events="none"/>
                </g>
                <g id="zoomMin">
                        <use xlink:href="#rim" fill="#404040">
                                <set attributeName="fill" to="#808080" begin="zoomminus.mouseover" end="zoomminus.mouseout"/>
                        </use>
                        <path d="M-4,0h8" fill="none" stroke="white" stroke-width="1.5" pointer-events="none"/>
                </g>
                <g id="dirArrow">
                        <path fill="none" stroke="white" stroke-width="1.5" d="M0,-3.0v7 M-2.5,-0.5L0,-3.0L2.5,-0.5"/>
                </g>
               <g id="resetDef">
                       <use xlink:href="#rim2" fill="#404040">
                               <set attributeName="fill" to="#808080" begin="reset.mouseover" end="reset.mouseout"/>
                       </use>
               </g>
        </defs>

<script type="text/javascript">
var viewWidth = 2131;
var viewHeight = 341;
var sectionId = 'dynsection-0';
</script>
<script xlink:href="../../svgpan.js"/>
<svg id="graph" class="graph">
<g id="viewport">
<title>/home/travis/build/AliceO2Group/AliceO2/Common/Field/src/MagFieldParam.cxx</title>
<!-- Node0 -->
<g id="node1" class="node">
<title>Node0</title>
<polygon fill="#bfbfbf" stroke="#000000" points="476.0662,-291.5 476.0662,-332.5 679.0662,-332.5 679.0662,-291.5 476.0662,-291.5"/>
<text text-anchor="start" x="484.0662" y="-320.5" font-family="Helvetica,sans-Serif" font-size="10.00" fill="#000000">/home/travis/build</text>
<text text-anchor="start" x="484.0662" y="-309.5" font-family="Helvetica,sans-Serif" font-size="10.00" fill="#000000">/AliceO2Group/AliceO2</text>
<text text-anchor="middle" x="577.5662" y="-298.5" font-family="Helvetica,sans-Serif" font-size="10.00" fill="#000000">/Common/Field/src/MagFieldParam.cxx</text>
</g>
<!-- Node1 -->
<g id="node2" class="node">
<title>Node1</title>
<g id="a_node2"><a xlink:href="../../d3/d91/MagFieldParam_8h.html" target="_top" xlink:title="Definition of the MagFieldParam: container for ALICE mag. field parameters. ">
<polygon fill="none" stroke="#000000" points="114.0662,-179.5 114.0662,-198.5 239.0662,-198.5 239.0662,-179.5 114.0662,-179.5"/>
<text text-anchor="middle" x="176.5662" y="-186.5" font-family="Helvetica,sans-Serif" font-size="10.00" fill="#000000">Field/MagFieldParam.h</text>
</a>
</g>
</g>
<!-- Node0&#45;&gt;Node1 -->
<g id="edge1" class="edge">
<title>Node0&#45;&gt;Node1</title>
<path fill="none" stroke="#191970" d="M507.6405,-291.3964C471.4612,-280.6692 426.6016,-267.2644 386.5662,-255 327.0281,-236.7611 258.208,-215.0028 216.0403,-201.5937"/>
<polygon fill="#191970" stroke="#191970" points="217.0216,-198.2331 206.4311,-198.5358 214.8989,-204.9035 217.0216,-198.2331"/>
</g>
<!-- Node4 -->
<g id="node5" class="node">
<title>Node4</title>
<g id="a_node5"><a xlink:href="../../db/d4b/MagneticField_8h.html" target="_top" xlink:title="Definition of the MagF class. ">
<polygon fill="none" stroke="#000000" points="395.5662,-235.5 395.5662,-254.5 513.5662,-254.5 513.5662,-235.5 395.5662,-235.5"/>
<text text-anchor="middle" x="454.5662" y="-242.5" font-family="Helvetica,sans-Serif" font-size="10.00" fill="#000000">Field/MagneticField.h</text>
</a>
</g>
</g>
<!-- Node0&#45;&gt;Node4 -->
<g id="edge4" class="edge">
<title>Node0&#45;&gt;Node4</title>
<path fill="none" stroke="#191970" d="M539.6585,-291.3511C520.7192,-281.0346 498.2616,-268.8015 481.1743,-259.4939"/>
<polygon fill="#191970" stroke="#191970" points="482.7463,-256.3646 472.2904,-254.6546 479.3978,-262.5118 482.7463,-256.3646"/>
</g>
<!-- Node28 -->
<g id="node29" class="node">
<title>Node28</title>
<polygon fill="none" stroke="#bfbfbf" points="532.0662,-235.5 532.0662,-254.5 623.0662,-254.5 623.0662,-235.5 532.0662,-235.5"/>
<text text-anchor="middle" x="577.5662" y="-242.5" font-family="Helvetica,sans-Serif" font-size="10.00" fill="#000000">FairParamList.h</text>
</g>
<!-- Node0&#45;&gt;Node28 -->
<g id="edge41" class="edge">
<title>Node0&#45;&gt;Node28</title>
<path fill="none" stroke="#191970" d="M577.5662,-291.168C577.5662,-282.8226 577.5662,-273.2471 577.5662,-264.9879"/>
<polygon fill="#191970" stroke="#191970" points="581.0663,-264.7804 577.5662,-254.7805 574.0663,-264.7805 581.0663,-264.7804"/>
</g>
<!-- Node29 -->
<g id="node30" class="node">
<title>Node29</title>
<polygon fill="none" stroke="#bfbfbf" points="641.0662,-235.5 641.0662,-254.5 702.0662,-254.5 702.0662,-235.5 641.0662,-235.5"/>
<text text-anchor="middle" x="671.5662" y="-242.5" font-family="Helvetica,sans-Serif" font-size="10.00" fill="#000000">FairRun.h</text>
</g>
<!-- Node0&#45;&gt;Node29 -->
<g id="edge42" class="edge">
<title>Node0&#45;&gt;Node29</title>
<path fill="none" stroke="#191970" d="M606.5363,-291.3511C620.4741,-281.4167 636.9054,-269.7051 649.764,-260.5398"/>
<polygon fill="#191970" stroke="#191970" points="651.9092,-263.309 658.0209,-254.6546 647.8462,-257.6087 651.9092,-263.309"/>
</g>
<!-- Node30 -->
<g id="node31" class="node">
<title>Node30</title>
<polygon fill="none" stroke="#bfbfbf" points="720.0662,-235.5 720.0662,-254.5 817.0662,-254.5 817.0662,-235.5 720.0662,-235.5"/>
<text text-anchor="middle" x="768.5662" y="-242.5" font-family="Helvetica,sans-Serif" font-size="10.00" fill="#000000">FairRuntimeDb.h</text>
</g>
<!-- Node0&#45;&gt;Node30 -->
<g id="edge43" class="edge">
<title>Node0&#45;&gt;Node30</title>
<path fill="none" stroke="#191970" d="M636.1705,-291.4425C667.4233,-280.4795 704.9056,-267.3312 731.9985,-257.8274"/>
<polygon fill="#191970" stroke="#191970" points="733.2016,-261.1146 741.4793,-254.5017 730.8845,-254.5092 733.2016,-261.1146"/>
</g>
<!-- Node2 -->
<g id="node3" class="node">
<title>Node2</title>
<polygon fill="none" stroke="#bfbfbf" points="18.0662,-123.5 18.0662,-142.5 129.0662,-142.5 129.0662,-123.5 18.0662,-123.5"/>
<text text-anchor="middle" x="73.5662" y="-130.5" font-family="Helvetica,sans-Serif" font-size="10.00" fill="#000000">FairParGenericSet.h</text>
</g>
<!-- Node1&#45;&gt;Node2 -->
<g id="edge2" class="edge">
<title>Node1&#45;&gt;Node2</title>
<path fill="none" stroke="#191970" d="M158.625,-179.2455C142.5262,-170.4928 118.6783,-157.527 100.3271,-147.5496"/>
<polygon fill="#191970" stroke="#191970" points="101.7591,-144.3444 91.3018,-142.6427 98.4155,-150.4942 101.7591,-144.3444"/>
</g>
<!-- Node3 -->
<g id="node4" class="node">
<title>Node3</title>
<polygon fill="none" stroke="#bfbfbf" points="93.5662,-67.5 93.5662,-86.5 153.5662,-86.5 153.5662,-67.5 93.5662,-67.5"/>
<text text-anchor="middle" x="123.5662" y="-74.5" font-family="Helvetica,sans-Serif" font-size="10.00" fill="#000000">TString.h</text>
</g>
<!-- Node1&#45;&gt;Node3 -->
<g id="edge3" class="edge">
<title>Node1&#45;&gt;Node3</title>
<path fill="none" stroke="#191970" d="M172.0474,-179.4509C163.2859,-160.936 143.8477,-119.8591 132.4241,-95.7187"/>
<polygon fill="#191970" stroke="#191970" points="135.5146,-94.0668 128.0735,-86.5249 129.1873,-97.061 135.5146,-94.0668"/>
</g>
<!-- Node4&#45;&gt;Node1 -->
<g id="edge6" class="edge">
<title>Node4&#45;&gt;Node1</title>
<path fill="none" stroke="#191970" d="M407.0922,-235.4369C359.1148,-225.7724 284.9492,-210.8326 233.7611,-200.5213"/>
<polygon fill="#191970" stroke="#191970" points="234.3387,-197.0674 223.8444,-198.5237 232.9563,-203.9296 234.3387,-197.0674"/>
</g>
<!-- Node5 -->
<g id="node6" class="node">
<title>Node5</title>
<polygon fill="none" stroke="#bfbfbf" points="277.0662,-179.5 277.0662,-198.5 342.0662,-198.5 342.0662,-179.5 277.0662,-179.5"/>
<text text-anchor="middle" x="309.5662" y="-186.5" font-family="Helvetica,sans-Serif" font-size="10.00" fill="#000000">FairField.h</text>
</g>
<!-- Node4&#45;&gt;Node5 -->
<g id="edge5" class="edge">
<title>Node4&#45;&gt;Node5</title>
<path fill="none" stroke="#191970" d="M429.6398,-235.3733C405.946,-226.2226 370.1151,-212.3844 343.7594,-202.2057"/>
<polygon fill="#191970" stroke="#191970" points="344.7568,-198.8389 334.1673,-198.5011 342.2348,-205.3689 344.7568,-198.8389"/>
</g>
<!-- Node6 -->
<g id="node7" class="node">
<title>Node6</title>
<g id="a_node7"><a xlink:href="../../dd/dfb/MagneticWrapperChebyshev_8h.html" target="_top" xlink:title="Field/MagneticWrapperChebyshev.h">
<polygon fill="none" stroke="#000000" points="360.0662,-179.5 360.0662,-198.5 549.0662,-198.5 549.0662,-179.5 360.0662,-179.5"/>
<text text-anchor="middle" x="454.5662" y="-186.5" font-family="Helvetica,sans-Serif" font-size="10.00" fill="#000000">Field/MagneticWrapperChebyshev.h</text>
</a>
</g>
</g>
<!-- Node4&#45;&gt;Node6 -->
<g id="edge7" class="edge">
<title>Node4&#45;&gt;Node6</title>
<path fill="none" stroke="#191970" d="M454.5662,-235.2455C454.5662,-227.9382 454.5662,-217.6944 454.5662,-208.7046"/>
<polygon fill="#191970" stroke="#191970" points="458.0663,-208.6426 454.5662,-198.6427 451.0663,-208.6427 458.0663,-208.6426"/>
</g>
<!-- Node8 -->
<g id="node9" class="node">
<title>Node8</title>
<polygon fill="none" stroke="#bfbfbf" points="236.0662,-6 236.0662,-25 303.0662,-25 303.0662,-6 236.0662,-6"/>
<text text-anchor="middle" x="269.5662" y="-13" font-family="Helvetica,sans-Serif" font-size="10.00" fill="#000000">TNamed.h</text>
</g>
<!-- Node4&#45;&gt;Node8 -->
<g id="edge39" class="edge">
<title>Node4&#45;&gt;Node8</title>
<path fill="none" stroke="#191970" d="M395.5598,-240.0882C310.2804,-232.5069 157.0489,-216.9401 104.5662,-199 57.8261,-183.0229 33.1681,-185.8328 8.5662,-143 -40.7922,-57.0652 139.4201,-27.9327 225.8394,-19.0337"/>
<polygon fill="#191970" stroke="#191970" points="226.2818,-22.5071 235.8917,-18.0463 225.5974,-15.5407 226.2818,-22.5071"/>
</g>
<!-- Node13 -->
<g id="node14" class="node">
<title>Node13</title>
<polygon fill="none" stroke="#bfbfbf" points="559.0662,-6 559.0662,-25 618.0662,-25 618.0662,-6 559.0662,-6"/>
<text text-anchor="middle" x="588.5662" y="-13" font-family="Helvetica,sans-Serif" font-size="10.00" fill="#000000">Rtypes.h</text>
</g>
<!-- Node4&#45;&gt;Node13 -->
<g id="edge38" class="edge">
<title>Node4&#45;&gt;Node13</title>
<path fill="none" stroke="#191970" d="M494.9815,-235.4587C516.2096,-228.5544 541.1515,-217.1615 557.5662,-199 598.42,-153.7986 598.0975,-127.8254 594.5662,-67 593.9587,-56.5366 592.6626,-44.9374 591.43,-35.4002"/>
<polygon fill="#191970" stroke="#191970" points="594.8776,-34.7779 590.0571,-25.3432 587.9419,-35.7247 594.8776,-34.7779"/>
</g>
<!-- Node14 -->
<g id="node15" class="node">
<title>Node14</title>
<g id="a_node15"><a xlink:href="../../da/df4/MagFieldFast_8h.html" target="_top" xlink:title="Definition of the fast magnetic field parametrization MagFieldFast. ">
<polygon fill="none" stroke="#000000" points="757.0662,-123.5 757.0662,-142.5 870.0662,-142.5 870.0662,-123.5 757.0662,-123.5"/>
<text text-anchor="middle" x="813.5662" y="-130.5" font-family="Helvetica,sans-Serif" font-size="10.00" fill="#000000">Field/MagFieldFast.h</text>
</a>
</g>
</g>
<!-- Node4&#45;&gt;Node14 -->
<g id="edge23" class="edge">
<title>Node4&#45;&gt;Node14</title>
<path fill="none" stroke="#191970" d="M513.8971,-236.2234C516.8278,-235.806 519.7299,-235.3962 522.5662,-235 582.9514,-226.5643 748.3691,-238.7915 794.5662,-199 807.6688,-187.7141 812.0236,-168.0328 813.3369,-153.0908"/>
<polygon fill="#191970" stroke="#191970" points="816.8472,-152.9658 813.8429,-142.8059 809.8557,-152.6218 816.8472,-152.9658"/>
</g>
<!-- Node26 -->
<g id="node27" class="node">
<title>Node26</title>
<polygon fill="none" stroke="#bfbfbf" points="641.5662,-179.5 641.5662,-198.5 709.5662,-198.5 709.5662,-179.5 641.5662,-179.5"/>
<text text-anchor="middle" x="675.5662" y="-186.5" font-family="Helvetica,sans-Serif" font-size="10.00" fill="#000000">TSystem.h</text>
</g>
<!-- Node4&#45;&gt;Node26 -->
<g id="edge37" class="edge">
<title>Node4&#45;&gt;Node26</title>
<path fill="none" stroke="#191970" d="M492.3063,-235.4369C530.8338,-225.6743 590.6048,-210.5287 631.3319,-200.2087"/>
<polygon fill="#191970" stroke="#191970" points="632.4175,-203.5443 641.2514,-197.6951 630.698,-196.7588 632.4175,-203.5443"/>
</g>
<!-- Node27 -->
<g id="node28" class="node">
<title>Node27</title>
<polygon fill="none" stroke="#bfbfbf" points="727.5662,-179.5 727.5662,-198.5 785.5662,-198.5 785.5662,-179.5 727.5662,-179.5"/>
<text text-anchor="middle" x="756.5662" y="-186.5" font-family="Helvetica,sans-Serif" font-size="10.00" fill="#000000">memory</text>
</g>
<!-- Node4&#45;&gt;Node27 -->
<g id="edge40" class="edge">
<title>Node4&#45;&gt;Node27</title>
<path fill="none" stroke="#191970" d="M513.825,-236.1478C565.2075,-228.1381 641.7568,-215.4077 717.0376,-199.2034"/>
<polygon fill="#191970" stroke="#191970" points="718.1398,-202.5455 727.1673,-196.9998 716.6519,-195.7055 718.1398,-202.5455"/>
</g>
<!-- Node7 -->
<g id="node8" class="node">
<title>Node7</title>
<polygon fill="none" stroke="#bfbfbf" points="482.5662,-123.5 482.5662,-142.5 538.5662,-142.5 538.5662,-123.5 482.5662,-123.5"/>
<text text-anchor="middle" x="510.5662" y="-130.5" font-family="Helvetica,sans-Serif" font-size="10.00" fill="#000000">TMath.h</text>
</g>
<!-- Node6&#45;&gt;Node7 -->
<g id="edge8" class="edge">
<title>Node6&#45;&gt;Node7</title>
<path fill="none" stroke="#191970" d="M464.3207,-179.2455C472.431,-171.1352 484.1587,-159.4075 493.7743,-149.7919"/>
<polygon fill="#191970" stroke="#191970" points="496.3273,-152.1887 500.9235,-142.6427 491.3775,-147.2389 496.3273,-152.1887"/>
</g>
<!-- Node6&#45;&gt;Node8 -->
<g id="edge9" class="edge">
<title>Node6&#45;&gt;Node8</title>
<path fill="none" stroke="#191970" d="M394.849,-179.4152C344.3403,-170.5828 276.4788,-156.792 252.5662,-143 217.113,-122.5517 182.2204,-103.5854 200.5662,-67 208.591,-50.9968 224.2093,-38.6956 238.5596,-30.135"/>
<polygon fill="#191970" stroke="#191970" points="240.6728,-32.9649 247.7141,-25.0484 237.2729,-26.846 240.6728,-32.9649"/>
</g>
<!-- Node9 -->
<g id="node10" class="node">
<title>Node9</title>
<polygon fill="none" stroke="#bfbfbf" points="210.0662,-67.5 210.0662,-86.5 283.0662,-86.5 283.0662,-67.5 210.0662,-67.5"/>
<text text-anchor="middle" x="246.5662" y="-74.5" font-family="Helvetica,sans-Serif" font-size="10.00" fill="#000000">TObjArray.h</text>
</g>
<!-- Node6&#45;&gt;Node9 -->
<g id="edge10" class="edge">
<title>Node6&#45;&gt;Node9</title>
<path fill="none" stroke="#191970" d="M388.0514,-179.4574C342.0272,-171.6001 286.0376,-159.138 268.5662,-143 255.6985,-131.1143 250.3496,-111.5128 248.1303,-96.7527"/>
<polygon fill="#191970" stroke="#191970" points="251.5847,-96.1544 246.9704,-86.6172 244.6301,-96.9503 251.5847,-96.1544"/>
</g>
<!-- Node10 -->
<g id="node11" class="node">
<title>Node10</title>
<g id="a_node11"><a xlink:href="../../d8/d64/Chebyshev3D_8h.html" target="_top" xlink:title="MathUtils/Chebyshev3D.h">
<polygon fill="none" stroke="#000000" points="278.0662,-123.5 278.0662,-142.5 421.0662,-142.5 421.0662,-123.5 278.0662,-123.5"/>
<text text-anchor="middle" x="349.5662" y="-130.5" font-family="Helvetica,sans-Serif" font-size="10.00" fill="#000000">MathUtils/Chebyshev3D.h</text>
</a>
</g>
</g>
<!-- Node6&#45;&gt;Node10 -->
<g id="edge11" class="edge">
<title>Node6&#45;&gt;Node10</title>
<path fill="none" stroke="#191970" d="M436.2766,-179.2455C419.79,-170.4527 395.331,-157.4079 376.5897,-147.4125"/>
<polygon fill="#191970" stroke="#191970" points="378.1168,-144.2604 367.6462,-142.6427 374.8227,-150.4368 378.1168,-144.2604"/>
</g>
<!-- Node12 -->
<g id="node13" class="node">
<title>Node12</title>
<g id="a_node13"><a xlink:href="../../d4/d08/Chebyshev3DCalc_8h.html" target="_top" xlink:title="MathUtils/Chebyshev3DCalc.h">
<polygon fill="none" stroke="#000000" points="377.5662,-67.5 377.5662,-86.5 541.5662,-86.5 541.5662,-67.5 377.5662,-67.5"/>
<text text-anchor="middle" x="459.5662" y="-74.5" font-family="Helvetica,sans-Serif" font-size="10.00" fill="#000000">MathUtils/Chebyshev3DCalc.h</text>
</a>
</g>
</g>
<!-- Node6&#45;&gt;Node12 -->
<g id="edge21" class="edge">
<title>Node6&#45;&gt;Node12</title>
<path fill="none" stroke="#191970" d="M454.9925,-179.4509C455.808,-161.184 457.6039,-120.9553 458.6868,-96.6976"/>
<polygon fill="#191970" stroke="#191970" points="462.1914,-96.6711 459.141,-86.5249 455.1984,-96.3588 462.1914,-96.6711"/>
</g>
<!-- Node6&#45;&gt;Node13 -->
<g id="edge22" class="edge">
<title>Node6&#45;&gt;Node13</title>
<path fill="none" stroke="#191970" d="M486.3146,-179.3874C506.0197,-172.0704 530.7103,-160.2769 547.5662,-143 576.5367,-113.3059 585.0405,-63.0712 587.5341,-35.3507"/>
<polygon fill="#191970" stroke="#191970" points="591.0313,-35.5136 588.2603,-25.2876 584.0495,-35.0097 591.0313,-35.5136"/>
</g>
<!-- Node10&#45;&gt;Node3 -->
<g id="edge20" class="edge">
<title>Node10&#45;&gt;Node3</title>
<path fill="none" stroke="#191970" d="M310.9722,-123.4369C269.8591,-113.2496 205.0905,-97.2007 163.4796,-86.89"/>
<polygon fill="#191970" stroke="#191970" points="164.2337,-83.4711 153.6854,-84.4632 162.55,-90.2656 164.2337,-83.4711"/>
</g>
<!-- Node10&#45;&gt;Node8 -->
<g id="edge12" class="edge">
<title>Node10&#45;&gt;Node8</title>
<path fill="none" stroke="#191970" d="M343.0195,-123.3845C329.6588,-103.761 299.0657,-58.8274 281.8741,-33.5772"/>
<polygon fill="#191970" stroke="#191970" points="284.7244,-31.5446 276.2034,-25.2484 278.9382,-35.4842 284.7244,-31.5446"/>
</g>
<!-- Node10&#45;&gt;Node9 -->
<g id="edge13" class="edge">
<title>Node10&#45;&gt;Node9</title>
<path fill="none" stroke="#191970" d="M331.625,-123.2455C315.5262,-114.4928 291.6783,-101.527 273.3271,-91.5496"/>
<polygon fill="#191970" stroke="#191970" points="274.7591,-88.3444 264.3018,-86.6427 271.4155,-94.4942 274.7591,-88.3444"/>
</g>
<!-- Node11 -->
<g id="node12" class="node">
<title>Node11</title>
<polygon fill="none" stroke="#bfbfbf" points="367.5662,-6 367.5662,-25 413.5662,-25 413.5662,-6 367.5662,-6"/>
<text text-anchor="middle" x="390.5662" y="-13" font-family="Helvetica,sans-Serif" font-size="10.00" fill="#000000">cstdio</text>
</g>
<!-- Node10&#45;&gt;Node11 -->
<g id="edge14" class="edge">
<title>Node10&#45;&gt;Node11</title>
<path fill="none" stroke="#191970" d="M351.911,-123.4844C355.1869,-110.5517 361.528,-86.7702 368.5662,-67 372.4455,-56.1031 377.4705,-44.2119 381.7385,-34.6041"/>
<polygon fill="#191970" stroke="#191970" points="385.0466,-35.7831 385.9826,-25.2297 378.6697,-32.896 385.0466,-35.7831"/>
</g>
<!-- Node10&#45;&gt;Node12 -->
<g id="edge15" class="edge">
<title>Node10&#45;&gt;Node12</title>
<path fill="none" stroke="#191970" d="M368.7267,-123.2455C386.0773,-114.4125 411.8563,-101.2887 431.5245,-91.2758"/>
<polygon fill="#191970" stroke="#191970" points="433.3015,-94.2986 440.6252,-86.6427 430.1257,-88.0605 433.3015,-94.2986"/>
</g>
<!-- Node10&#45;&gt;Node13 -->
<g id="edge19" class="edge">
<title>Node10&#45;&gt;Node13</title>
<path fill="none" stroke="#191970" d="M418.2848,-123.4976C468.0016,-115.4869 529.9267,-102.809 550.5662,-87 567.5937,-73.9576 577.8227,-51.0633 583.3086,-34.6938"/>
<polygon fill="#191970" stroke="#191970" points="586.6809,-35.6341 586.2524,-25.0479 579.9857,-33.5908 586.6809,-35.6341"/>
</g>
<!-- Node12&#45;&gt;Node8 -->
<g id="edge16" class="edge">
<title>Node12&#45;&gt;Node8</title>
<path fill="none" stroke="#191970" d="M429.8787,-67.3906C397.2516,-56.8298 344.7036,-39.8208 308.7237,-28.1747"/>
<polygon fill="#191970" stroke="#191970" points="309.6371,-24.7916 299.0452,-25.0419 307.4814,-31.4514 309.6371,-24.7916"/>
</g>
<!-- Node12&#45;&gt;Node11 -->
<g id="edge17" class="edge">
<title>Node12&#45;&gt;Node11</title>
<path fill="none" stroke="#191970" d="M448.7849,-67.3906C438.2136,-57.9683 421.8837,-43.4134 409.2059,-32.1137"/>
<polygon fill="#191970" stroke="#191970" points="411.2934,-29.2858 401.4995,-25.2449 406.6358,-34.5114 411.2934,-29.2858"/>
</g>
<!-- Node12&#45;&gt;Node13 -->
<g id="edge18" class="edge">
<title>Node12&#45;&gt;Node13</title>
<path fill="none" stroke="#191970" d="M479.7224,-67.3906C501.1172,-57.1908 535.1282,-40.9763 559.4364,-29.3875"/>
<polygon fill="#191970" stroke="#191970" points="561.031,-32.5047 568.5515,-25.0419 558.0186,-26.186 561.031,-32.5047"/>
</g>
<!-- Node14&#45;&gt;Node13 -->
<g id="edge24" class="edge">
<title>Node14&#45;&gt;Node13</title>
<path fill="none" stroke="#191970" d="M795.1535,-123.3845C755.5831,-102.7199 662.2678,-53.9886 615.8178,-29.7314"/>
<polygon fill="#191970" stroke="#191970" points="617.402,-26.6102 606.9178,-25.0836 614.1617,-32.8151 617.402,-26.6102"/>
</g>
<!-- Node15 -->
<g id="node16" class="node">
<title>Node15</title>
<polygon fill="none" stroke="#bfbfbf" points="791.5662,-67.5 791.5662,-86.5 835.5662,-86.5 835.5662,-67.5 791.5662,-67.5"/>
<text text-anchor="middle" x="813.5662" y="-74.5" font-family="Helvetica,sans-Serif" font-size="10.00" fill="#000000">string</text>
</g>
<!-- Node14&#45;&gt;Node15 -->
<g id="edge25" class="edge">
<title>Node14&#45;&gt;Node15</title>
<path fill="none" stroke="#191970" d="M813.5662,-123.2455C813.5662,-115.9382 813.5662,-105.6944 813.5662,-96.7046"/>
<polygon fill="#191970" stroke="#191970" points="817.0663,-96.6426 813.5662,-86.6427 810.0663,-96.6427 817.0663,-96.6426"/>
</g>
<!-- Node16 -->
<g id="node17" class="node">
<title>Node16</title>
<g id="a_node17"><a xlink:href="../../dc/d73/Cartesian_8h.html" target="_top" xlink:title="MathUtils/Cartesian.h">
<polygon fill="none" stroke="#000000" points="1230.5662,-67.5 1230.5662,-86.5 1352.5662,-86.5 1352.5662,-67.5 1230.5662,-67.5"/>
<text text-anchor="middle" x="1291.5662" y="-74.5" font-family="Helvetica,sans-Serif" font-size="10.00" fill="#000000">MathUtils/Cartesian.h</text>
</a>
</g>
</g>
<!-- Node14&#45;&gt;Node16 -->
<g id="edge26" class="edge">
<title>Node14&#45;&gt;Node16</title>
<path fill="none" stroke="#191970" d="M870.2761,-126.3562C957.6056,-116.1251 1124.8797,-96.5281 1220.2779,-85.3518"/>
<polygon fill="#191970" stroke="#191970" points="1220.8876,-88.8044 1230.4124,-84.1645 1220.0731,-81.8519 1220.8876,-88.8044"/>
</g>
<!-- Node16&#45;&gt;Node13 -->
<g id="edge34" class="edge">
<title>Node16&#45;&gt;Node13</title>
<path fill="none" stroke="#191970" d="M1230.3244,-75.1711C1088.5652,-70.5477 741.2966,-56.8782 627.5662,-31 624.7022,-30.3483 621.7732,-29.5176 618.8705,-28.5802"/>
<polygon fill="#191970" stroke="#191970" points="619.8308,-25.2055 609.2366,-25.0884 617.4454,-31.7866 619.8308,-25.2055"/>
</g>
<!-- Node17 -->
<g id="node18" class="node">
<title>Node17</title>
<polygon fill="none" stroke="#bfbfbf" points="1572.5662,-.5 1572.5662,-30.5 1736.5662,-30.5 1736.5662,-.5 1572.5662,-.5"/>
<text text-anchor="start" x="1580.5662" y="-18.5" font-family="Helvetica,sans-Serif" font-size="10.00" fill="#000000">Math/GenVector/Displacement</text>
<text text-anchor="middle" x="1654.5662" y="-7.5" font-family="Helvetica,sans-Serif" font-size="10.00" fill="#000000">Vector3D.h</text>
</g>
<!-- Node16&#45;&gt;Node17 -->
<g id="edge27" class="edge">
<title>Node16&#45;&gt;Node17</title>
<path fill="none" stroke="#191970" d="M1348.092,-67.4604C1400.8533,-58.5517 1482.0804,-44.825 1561.9842,-31.2675"/>
<polygon fill="#191970" stroke="#191970" points="1562.9536,-34.6531 1572.2271,-29.5293 1561.7824,-27.7518 1562.9536,-34.6531"/>
</g>
<!-- Node18 -->
<g id="node19" class="node">
<title>Node18</title>
<polygon fill="none" stroke="#bfbfbf" points="1755.0662,-6 1755.0662,-25 1944.0662,-25 1944.0662,-6 1755.0662,-6"/>
<text text-anchor="middle" x="1849.5662" y="-13" font-family="Helvetica,sans-Serif" font-size="10.00" fill="#000000">Math/GenVector/PositionVector3D.h</text>
</g>
<!-- Node16&#45;&gt;Node18 -->
<g id="edge28" class="edge">
<title>Node16&#45;&gt;Node18</title>
<path fill="none" stroke="#191970" d="M1352.6185,-71.7318C1439.8819,-63.9934 1605.2471,-48.5553 1745.5662,-31 1756.3142,-29.6553 1767.6669,-28.1013 1778.7667,-26.5072"/>
<polygon fill="#191970" stroke="#191970" points="1779.4734,-29.9413 1788.8646,-25.0368 1778.4647,-23.0143 1779.4734,-29.9413"/>
</g>
<!-- Node19 -->
<g id="node20" class="node">
<title>Node19</title>
<polygon fill="none" stroke="#bfbfbf" points="1962.5662,-6 1962.5662,-25 2122.5662,-25 2122.5662,-6 1962.5662,-6"/>
<text text-anchor="middle" x="2042.5662" y="-13" font-family="Helvetica,sans-Serif" font-size="10.00" fill="#000000">Math/GenVector/Rotation3D.h</text>
</g>
<!-- Node16&#45;&gt;Node19 -->
<g id="edge29" class="edge">
<title>Node16&#45;&gt;Node19</title>
<path fill="none" stroke="#191970" d="M1352.9161,-74.8504C1470.0312,-70.2793 1733.4103,-57.7476 1953.5662,-31 1963.1572,-29.8347 1973.2859,-28.3328 1983.138,-26.7236"/>
<polygon fill="#191970" stroke="#191970" points="1983.9907,-30.1294 1993.2708,-25.0175 1982.8284,-23.2266 1983.9907,-30.1294"/>
</g>
<!-- Node20 -->
<g id="node21" class="node">
<title>Node20</title>
<polygon fill="none" stroke="#bfbfbf" points="636.5662,-6 636.5662,-25 804.5662,-25 804.5662,-6 636.5662,-6"/>
<text text-anchor="middle" x="720.5662" y="-13" font-family="Helvetica,sans-Serif" font-size="10.00" fill="#000000">Math/GenVector/Transform3D.h</text>
</g>
<!-- Node16&#45;&gt;Node20 -->
<g id="edge30" class="edge">
<title>Node16&#45;&gt;Node20</title>
<path fill="none" stroke="#191970" d="M1230.2939,-72.4683C1139.2024,-65.4225 962.7677,-50.5887 813.5662,-31 804.0505,-29.7507 794.0152,-28.2606 784.1974,-26.7055"/>
<polygon fill="#191970" stroke="#191970" points="784.5064,-23.21 774.0759,-25.0688 783.389,-30.1203 784.5064,-23.21"/>
</g>
<!-- Node21 -->
<g id="node22" class="node">
<title>Node21</title>
<polygon fill="none" stroke="#bfbfbf" points="823.0662,-6 823.0662,-25 996.0662,-25 996.0662,-6 823.0662,-6"/>
<text text-anchor="middle" x="909.5662" y="-13" font-family="Helvetica,sans-Serif" font-size="10.00" fill="#000000">Math/GenVector/Translation3D.h</text>
</g>
<!-- Node16&#45;&gt;Node21 -->
<g id="edge31" class="edge">
<title>Node16&#45;&gt;Node21</title>
<path fill="none" stroke="#191970" d="M1232.4075,-67.4956C1174.5709,-58.2012 1084.0138,-43.6417 1005.5662,-31 996.847,-29.5949 987.6826,-28.1168 978.619,-26.6543"/>
<polygon fill="#191970" stroke="#191970" points="978.8878,-23.1524 968.4579,-25.0143 977.7724,-30.063 978.8878,-23.1524"/>
</g>
<!-- Node22 -->
<g id="node23" class="node">
<title>Node22</title>
<polygon fill="none" stroke="#bfbfbf" points="1014.5662,-.5 1014.5662,-30.5 1178.5662,-30.5 1178.5662,-.5 1014.5662,-.5"/>
<text text-anchor="start" x="1022.5662" y="-18.5" font-family="Helvetica,sans-Serif" font-size="10.00" fill="#000000">Math/GenVector/Displacement</text>
<text text-anchor="middle" x="1096.5662" y="-7.5" font-family="Helvetica,sans-Serif" font-size="10.00" fill="#000000">Vector2D.h</text>
</g>
<!-- Node16&#45;&gt;Node22 -->
<g id="edge32" class="edge">
<title>Node16&#45;&gt;Node22</title>
<path fill="none" stroke="#191970" d="M1261.0974,-67.3906C1232.5073,-58.3737 1189.0131,-44.6563 1153.9234,-33.5896"/>
<polygon fill="#191970" stroke="#191970" points="1154.8583,-30.2145 1144.2686,-30.5446 1152.7527,-36.8904 1154.8583,-30.2145"/>
</g>
<!-- Node23 -->
<g id="node24" class="node">
<title>Node23</title>
<polygon fill="none" stroke="#bfbfbf" points="1197.0662,-6 1197.0662,-25 1386.0662,-25 1386.0662,-6 1197.0662,-6"/>
<text text-anchor="middle" x="1291.5662" y="-13" font-family="Helvetica,sans-Serif" font-size="10.00" fill="#000000">Math/GenVector/PositionVector2D.h</text>
</g>
<!-- Node16&#45;&gt;Node23 -->
<g id="edge33" class="edge">
<title>Node16&#45;&gt;Node23</title>
<path fill="none" stroke="#191970" d="M1291.5662,-67.3906C1291.5662,-58.8657 1291.5662,-46.1392 1291.5662,-35.4235"/>
<polygon fill="#191970" stroke="#191970" points="1295.0663,-35.2448 1291.5662,-25.2449 1288.0663,-35.2449 1295.0663,-35.2448"/>
</g>
<!-- Node24 -->
<g id="node25" class="node">
<title>Node24</title>
<polygon fill="none" stroke="#bfbfbf" points="1404.5662,-6 1404.5662,-25 1486.5662,-25 1486.5662,-6 1404.5662,-6"/>
<text text-anchor="middle" x="1445.5662" y="-13" font-family="Helvetica,sans-Serif" font-size="10.00" fill="#000000">TGeoMatrix.h</text>
</g>
<!-- Node16&#45;&gt;Node24 -->
<g id="edge35" class="edge">
<title>Node16&#45;&gt;Node24</title>
<path fill="none" stroke="#191970" d="M1315.6287,-67.3906C1341.6217,-57.0103 1383.214,-40.4004 1412.3208,-28.7766"/>
<polygon fill="#191970" stroke="#191970" points="1413.6839,-32.0011 1421.6727,-25.0419 1411.0877,-25.5003 1413.6839,-32.0011"/>
</g>
<!-- Node25 -->
<g id="node26" class="node">
<title>Node25</title>
<polygon fill="none" stroke="#bfbfbf" points="1505.0662,-6 1505.0662,-25 1554.0662,-25 1554.0662,-6 1505.0662,-6"/>
<text text-anchor="middle" x="1529.5662" y="-13" font-family="Helvetica,sans-Serif" font-size="10.00" fill="#000000">iosfwd</text>
</g>
<!-- Node16&#45;&gt;Node25 -->
<g id="edge36" class="edge">
<title>Node16&#45;&gt;Node25</title>
<path fill="none" stroke="#191970" d="M1348.27,-67.4627C1389.6886,-59.7169 1446.8787,-47.392 1495.5662,-31 1497.4106,-30.379 1499.2897,-29.6907 1501.17,-28.9594"/>
<polygon fill="#191970" stroke="#191970" points="1502.5714,-32.167 1510.4262,-25.0569 1499.8519,-25.7168 1502.5714,-32.167"/>
</g>
</g>
</svg>
        <g id="navigator" transform="translate(0 0)" fill="#404254">
                <rect fill="#f2f5e9" fill-opacity="0.5" stroke="#606060" stroke-width=".5" x="0" y="0" width="60" height="60"/>
                <use id="zoomplus" xlink:href="#zoomPlus" x="17" y="9" onmousedown="handleZoom(evt,'in')"/>
                <use id="zoomminus" xlink:href="#zoomMin" x="42" y="9" onmousedown="handleZoom(evt,'out')"/>
                <use id="reset" xlink:href="#resetDef" x="30" y="36" onmousedown="handleReset()"/>
                <g id="arrowUp" xlink:href="#dirArrow" transform="translate(30 24)" onmousedown="handlePan(0,-1)">
                  <use xlink:href="#rim" fill="#404040">
                        <set attributeName="fill" to="#808080" begin="arrowUp.mouseover" end="arrowUp.mouseout"/>
                  </use>
                  <path fill="none" stroke="white" stroke-width="1.5" d="M0,-3.0v7 M-2.5,-0.5L0,-3.0L2.5,-0.5"/>
                </g>
                <g id="arrowRight" xlink:href="#dirArrow" transform="rotate(90) translate(36 -43)" onmousedown="handlePan(1,0)">
                  <use xlink:href="#rim" fill="#404040">
                        <set attributeName="fill" to="#808080" begin="arrowRight.mouseover" end="arrowRight.mouseout"/>
                  </use>
                  <path fill="none" stroke="white" stroke-width="1.5" d="M0,-3.0v7 M-2.5,-0.5L0,-3.0L2.5,-0.5"/>
                </g>
                <g id="arrowDown" xlink:href="#dirArrow" transform="rotate(180) translate(-30 -48)" onmousedown="handlePan(0,1)">
                  <use xlink:href="#rim" fill="#404040">
                        <set attributeName="fill" to="#808080" begin="arrowDown.mouseover" end="arrowDown.mouseout"/>
                  </use>
                  <path fill="none" stroke="white" stroke-width="1.5" d="M0,-3.0v7 M-2.5,-0.5L0,-3.0L2.5,-0.5"/>
                </g>
                <g id="arrowLeft" xlink:href="#dirArrow" transform="rotate(270) translate(-36 17)" onmousedown="handlePan(-1,0)">
                  <use xlink:href="#rim" fill="#404040">
                        <set attributeName="fill" to="#808080" begin="arrowLeft.mouseover" end="arrowLeft.mouseout"/>
                  </use>
                  <path fill="none" stroke="white" stroke-width="1.5" d="M0,-3.0v7 M-2.5,-0.5L0,-3.0L2.5,-0.5"/>
                </g>
        </g>
        <svg viewBox="0 0 15 15" width="100%" height="30px" preserveAspectRatio="xMaxYMin meet">
         <g id="arrow_out" transform="scale(0.3 0.3)">
          <a xlink:href="MagFieldParam_8cxx__incl_org.svg" target="_base">
           <rect id="button" ry="5" rx="5" y="6" x="6" height="38" width="38"
                fill="#f2f5e9" fill-opacity="0.5" stroke="#606060" stroke-width="1.0"/>
           <path id="arrow"
             d="M 11.500037,31.436501 C 11.940474,20.09759 22.043105,11.32322 32.158766,21.979434 L 37.068811,17.246167 C 37.068811,17.246167 37.088388,32 37.088388,32 L 22.160133,31.978069 C 22.160133,31.978069 26.997745,27.140456 26.997745,27.140456 C 18.528582,18.264221 13.291696,25.230495 11.500037,31.436501 z"
             style="fill:#404040;"/>
          </a>
         </g>
        </svg>
</svg>
