<?xml version="1.0" encoding="UTF-8" standalone="no"?>
<!DOCTYPE svg PUBLIC "-//W3C//DTD SVG 1.1//EN"
 "http://www.w3.org/Graphics/SVG/1.1/DTD/svg11.dtd">
<!-- Generated by graphviz version 2.40.1 (20161225.0304)
 -->
<!-- Title: /home/travis/build/AliceO2Group/AliceO2/DataFormats/Reconstruction/src/PrimaryVertex.cxx Pages: 1 -->
<svg width="2142pt" height="385pt"
 viewBox="0.00 0.00 2142.00 385.00" xmlns="http://www.w3.org/2000/svg" xmlns:xlink="http://www.w3.org/1999/xlink">
<g id="graph0" class="graph" transform="scale(1 1) rotate(0) translate(4 381)">
<title>/home/travis/build/AliceO2Group/AliceO2/DataFormats/Reconstruction/src/PrimaryVertex.cxx</title>
<!-- Node0 -->
<g id="node1" class="node">
<title>Node0</title>
<polygon fill="#bfbfbf" stroke="#000000" points="596,-324.5 596,-376.5 754,-376.5 754,-324.5 596,-324.5"/>
<text text-anchor="start" x="604" y="-364.5" font-family="Helvetica,sans-Serif" font-size="10.00" fill="#000000">/home/travis/build</text>
<text text-anchor="start" x="604" y="-353.5" font-family="Helvetica,sans-Serif" font-size="10.00" fill="#000000">/AliceO2Group/AliceO2</text>
<text text-anchor="start" x="604" y="-342.5" font-family="Helvetica,sans-Serif" font-size="10.00" fill="#000000">/DataFormats/Reconstruction</text>
<text text-anchor="middle" x="675" y="-331.5" font-family="Helvetica,sans-Serif" font-size="10.00" fill="#000000">/src/PrimaryVertex.cxx</text>
</g>
<!-- Node1 -->
<g id="node2" class="node">
<title>Node1</title>
<g id="a_node2"><a xlink:href="../../d7/d82/PrimaryVertex_8h.html" target="_top" xlink:title="ReconstructionDataFormats\l/PrimaryVertex.h">
<polygon fill="none" stroke="#000000" points="427,-257.5 427,-287.5 579,-287.5 579,-257.5 427,-257.5"/>
<text text-anchor="start" x="435" y="-275.5" font-family="Helvetica,sans-Serif" font-size="10.00" fill="#000000">ReconstructionDataFormats</text>
<text text-anchor="middle" x="503" y="-264.5" font-family="Helvetica,sans-Serif" font-size="10.00" fill="#000000">/PrimaryVertex.h</text>
</a>
</g>
</g>
<!-- Node0&#45;&gt;Node1 -->
<g id="edge1" class="edge">
<title>Node0&#45;&gt;Node1</title>
<path fill="none" stroke="#191970" d="M617.248,-324.3101C593.7844,-313.6697 567.165,-301.5981 545.5272,-291.7856"/>
<polygon fill="#191970" stroke="#191970" points="546.8276,-288.5323 536.2748,-287.5897 543.9366,-294.9074 546.8276,-288.5323"/>
</g>
<!-- Node24 -->
<g id="node25" class="node">
<title>Node24</title>
<polygon fill="none" stroke="#bfbfbf" points="597.5,-263 597.5,-282 668.5,-282 668.5,-263 597.5,-263"/>
<text text-anchor="middle" x="633" y="-270" font-family="Helvetica,sans-Serif" font-size="10.00" fill="#000000">fmt/printf.h</text>
</g>
<!-- Node0&#45;&gt;Node24 -->
<g id="edge28" class="edge">
<title>Node0&#45;&gt;Node24</title>
<path fill="none" stroke="#191970" d="M660.7807,-324.0928C654.9264,-313.2205 648.2846,-300.8856 642.9634,-291.0034"/>
<polygon fill="#191970" stroke="#191970" points="645.9832,-289.2292 638.1605,-282.0839 639.8199,-292.548 645.9832,-289.2292"/>
</g>
<!-- Node25 -->
<g id="node26" class="node">
<title>Node25</title>
<polygon fill="none" stroke="#bfbfbf" points="687,-263 687,-282 747,-282 747,-263 687,-263"/>
<text text-anchor="middle" x="717" y="-270" font-family="Helvetica,sans-Serif" font-size="10.00" fill="#000000">iostream</text>
</g>
<!-- Node0&#45;&gt;Node25 -->
<g id="edge29" class="edge">
<title>Node0&#45;&gt;Node25</title>
<path fill="none" stroke="#191970" d="M689.2193,-324.0928C695.0736,-313.2205 701.7154,-300.8856 707.0366,-291.0034"/>
<polygon fill="#191970" stroke="#191970" points="710.1801,-292.548 711.8395,-282.0839 704.0168,-289.2292 710.1801,-292.548"/>
</g>
<!-- Node26 -->
<g id="node27" class="node">
<title>Node26</title>
<g id="a_node27"><a xlink:href="../../d1/d1e/Common_2Utils_2include_2CommonUtils_2StringUtils_8h.html" target="_top" xlink:title="CommonUtils/StringUtils.h">
<polygon fill="none" stroke="#000000" points="765,-263 765,-282 911,-282 911,-263 765,-263"/>
<text text-anchor="middle" x="838" y="-270" font-family="Helvetica,sans-Serif" font-size="10.00" fill="#000000">CommonUtils/StringUtils.h</text>
</a>
</g>
</g>
<!-- Node0&#45;&gt;Node26 -->
<g id="edge30" class="edge">
<title>Node0&#45;&gt;Node26</title>
<path fill="none" stroke="#191970" d="M729.7301,-324.3101C756.1553,-311.665 786.8043,-296.9985 808.7339,-286.5046"/>
<polygon fill="#191970" stroke="#191970" points="810.345,-289.6138 817.8546,-282.1401 807.3234,-283.2995 810.345,-289.6138"/>
</g>
<!-- Node2 -->
<g id="node3" class="node">
<title>Node2</title>
<g id="a_node3"><a xlink:href="../../d9/d80/InteractionRecord_8h.html" target="_top" xlink:title="CommonDataFormat/Interaction\lRecord.h">
<polygon fill="none" stroke="#000000" points="185,-123.5 185,-153.5 359,-153.5 359,-123.5 185,-123.5"/>
<text text-anchor="start" x="193" y="-141.5" font-family="Helvetica,sans-Serif" font-size="10.00" fill="#000000">CommonDataFormat/Interaction</text>
<text text-anchor="middle" x="272" y="-130.5" font-family="Helvetica,sans-Serif" font-size="10.00" fill="#000000">Record.h</text>
</a>
</g>
</g>
<!-- Node1&#45;&gt;Node2 -->
<g id="edge2" class="edge">
<title>Node1&#45;&gt;Node2</title>
<path fill="none" stroke="#191970" d="M476.9504,-257.389C435.2473,-233.1976 353.4562,-185.7517 306.7958,-158.6846"/>
<polygon fill="#191970" stroke="#191970" points="308.3606,-155.5461 297.9544,-153.5558 304.8482,-161.6011 308.3606,-155.5461"/>
</g>
<!-- Node9 -->
<g id="node10" class="node">
<title>Node9</title>
<g id="a_node10"><a xlink:href="../../d3/d6f/DataFormats_2Reconstruction_2include_2ReconstructionDataFormats_2Vertex_8h.html" target="_top" xlink:title="ReconstructionDataFormats\l/Vertex.h">
<polygon fill="none" stroke="#000000" points="559,-190.5 559,-220.5 711,-220.5 711,-190.5 559,-190.5"/>
<text text-anchor="start" x="567" y="-208.5" font-family="Helvetica,sans-Serif" font-size="10.00" fill="#000000">ReconstructionDataFormats</text>
<text text-anchor="middle" x="635" y="-197.5" font-family="Helvetica,sans-Serif" font-size="10.00" fill="#000000">/Vertex.h</text>
</a>
</g>
</g>
<!-- Node1&#45;&gt;Node9 -->
<g id="edge9" class="edge">
<title>Node1&#45;&gt;Node9</title>
<path fill="none" stroke="#191970" d="M532.6234,-257.4639C551.3436,-247.9619 575.7421,-235.5779 596.0246,-225.283"/>
<polygon fill="#191970" stroke="#191970" points="597.6858,-228.3649 605.0188,-220.7177 594.5175,-222.1229 597.6858,-228.3649"/>
</g>
<!-- Node3 -->
<g id="node4" class="node">
<title>Node3</title>
<g id="a_node4"><a xlink:href="../../d2/d45/GPUCommonRtypes_8h.html" target="_top" xlink:title="GPUCommonRtypes.h">
<polygon fill="none" stroke="#000000" points="467.5,-62 467.5,-81 592.5,-81 592.5,-62 467.5,-62"/>
<text text-anchor="middle" x="530" y="-69" font-family="Helvetica,sans-Serif" font-size="10.00" fill="#000000">GPUCommonRtypes.h</text>
</a>
</g>
</g>
<!-- Node2&#45;&gt;Node3 -->
<g id="edge3" class="edge">
<title>Node2&#45;&gt;Node3</title>
<path fill="none" stroke="#191970" d="M329.9002,-123.4639C376.2518,-111.4269 440.4136,-94.7647 483.4694,-83.5835"/>
<polygon fill="#191970" stroke="#191970" points="484.5984,-86.9065 493.3976,-81.0053 482.8388,-80.1313 484.5984,-86.9065"/>
</g>
<!-- Node5 -->
<g id="node6" class="node">
<title>Node5</title>
<polygon fill="none" stroke="#bfbfbf" points="610.5,-62 610.5,-81 659.5,-81 659.5,-62 610.5,-62"/>
<text text-anchor="middle" x="635" y="-69" font-family="Helvetica,sans-Serif" font-size="10.00" fill="#000000">iosfwd</text>
</g>
<!-- Node2&#45;&gt;Node5 -->
<g id="edge5" class="edge">
<title>Node2&#45;&gt;Node5</title>
<path fill="none" stroke="#191970" d="M359.3336,-127.5602C441.0902,-116.8242 557.0464,-100.1884 601,-87 602.9107,-86.4267 604.8529,-85.7675 606.7915,-85.0513"/>
<polygon fill="#191970" stroke="#191970" points="608.3843,-88.1803 616.2919,-81.1291 605.713,-81.71 608.3843,-88.1803"/>
</g>
<!-- Node6 -->
<g id="node7" class="node">
<title>Node6</title>
<polygon fill="none" stroke="#bfbfbf" points="0,-62 0,-81 50,-81 50,-62 0,-62"/>
<text text-anchor="middle" x="25" y="-69" font-family="Helvetica,sans-Serif" font-size="10.00" fill="#000000">cstdint</text>
</g>
<!-- Node2&#45;&gt;Node6 -->
<g id="edge6" class="edge">
<title>Node2&#45;&gt;Node6</title>
<path fill="none" stroke="#191970" d="M194.0788,-123.3929C153.304,-114.5557 102.8726,-102.1493 59,-87 57.1604,-86.3648 55.2851,-85.6656 53.4076,-84.9261"/>
<polygon fill="#191970" stroke="#191970" points="54.7312,-81.6858 44.1583,-81.0031 51.9978,-88.1301 54.7312,-81.6858"/>
</g>
<!-- Node7 -->
<g id="node8" class="node">
<title>Node7</title>
<polygon fill="none" stroke="#bfbfbf" points="68.5,-62 68.5,-81 115.5,-81 115.5,-62 68.5,-62"/>
<text text-anchor="middle" x="92" y="-69" font-family="Helvetica,sans-Serif" font-size="10.00" fill="#000000">cmath</text>
</g>
<!-- Node2&#45;&gt;Node7 -->
<g id="edge7" class="edge">
<title>Node2&#45;&gt;Node7</title>
<path fill="none" stroke="#191970" d="M225.2004,-123.4631C196.0914,-113.7765 158.0411,-100.5063 125,-87 123.6085,-86.4312 122.1911,-85.8345 120.7647,-85.22"/>
<polygon fill="#191970" stroke="#191970" points="121.9534,-81.9172 111.3972,-81.0132 119.0857,-88.3028 121.9534,-81.9172"/>
</g>
<!-- Node8 -->
<g id="node9" class="node">
<title>Node8</title>
<g id="a_node9"><a xlink:href="../../d4/dc6/LHCConstants_8h.html" target="_top" xlink:title="Header to collect LHC related constants. ">
<polygon fill="none" stroke="#000000" points="134,-62 134,-81 324,-81 324,-62 134,-62"/>
<text text-anchor="middle" x="229" y="-69" font-family="Helvetica,sans-Serif" font-size="10.00" fill="#000000">CommonConstants/LHCConstants.h</text>
</a>
</g>
</g>
<!-- Node2&#45;&gt;Node8 -->
<g id="edge8" class="edge">
<title>Node2&#45;&gt;Node8</title>
<path fill="none" stroke="#191970" d="M262.2426,-123.2967C255.8032,-113.2631 247.3365,-100.0709 240.5595,-89.5113"/>
<polygon fill="#191970" stroke="#191970" points="243.4791,-87.5804 235.1323,-81.055 237.588,-91.3613 243.4791,-87.5804"/>
</g>
<!-- Node4 -->
<g id="node5" class="node">
<title>Node4</title>
<polygon fill="none" stroke="#bfbfbf" points="579.5,-.5 579.5,-19.5 638.5,-19.5 638.5,-.5 579.5,-.5"/>
<text text-anchor="middle" x="609" y="-7.5" font-family="Helvetica,sans-Serif" font-size="10.00" fill="#000000">Rtypes.h</text>
</g>
<!-- Node3&#45;&gt;Node4 -->
<g id="edge4" class="edge">
<title>Node3&#45;&gt;Node4</title>
<path fill="none" stroke="#191970" d="M542.3438,-61.8906C554.7503,-52.2324 574.0843,-37.1812 588.7413,-25.771"/>
<polygon fill="#191970" stroke="#191970" points="591.0021,-28.4466 596.7429,-19.5419 586.7021,-22.923 591.0021,-28.4466"/>
</g>
<!-- Node9&#45;&gt;Node5 -->
<g id="edge27" class="edge">
<title>Node9&#45;&gt;Node5</title>
<path fill="none" stroke="#191970" d="M635,-190.389C635,-166.0735 635,-118.2644 635,-91.2698"/>
<polygon fill="#191970" stroke="#191970" points="638.5001,-91.1041 635,-81.1042 631.5001,-91.1042 638.5001,-91.1041"/>
</g>
<!-- Node10 -->
<g id="node11" class="node">
<title>Node10</title>
<g id="a_node11"><a xlink:href="../../dc/d73/Cartesian_8h.html" target="_top" xlink:title="MathUtils/Cartesian.h">
<polygon fill="none" stroke="#000000" points="1045,-129 1045,-148 1167,-148 1167,-129 1045,-129"/>
<text text-anchor="middle" x="1106" y="-136" font-family="Helvetica,sans-Serif" font-size="10.00" fill="#000000">MathUtils/Cartesian.h</text>
</a>
</g>
</g>
<!-- Node9&#45;&gt;Node10 -->
<g id="edge10" class="edge">
<title>Node9&#45;&gt;Node10</title>
<path fill="none" stroke="#191970" d="M711.1978,-194.6608C800.6055,-181.9425 947.6823,-161.0208 1034.8496,-148.6212"/>
<polygon fill="#191970" stroke="#191970" points="1035.507,-152.063 1044.9144,-147.1895 1034.5211,-145.1328 1035.507,-152.063"/>
</g>
<!-- Node19 -->
<g id="node20" class="node">
<title>Node19</title>
<g id="a_node20"><a xlink:href="../../df/d5d/common_2include_2CommonDataFormat_2TimeStamp_8h.html" target="_top" xlink:title="CommonDataFormat/TimeStamp.h">
<polygon fill="none" stroke="#000000" points="420.5,-129 420.5,-148 607.5,-148 607.5,-129 420.5,-129"/>
<text text-anchor="middle" x="514" y="-136" font-family="Helvetica,sans-Serif" font-size="10.00" fill="#000000">CommonDataFormat/TimeStamp.h</text>
</a>
</g>
</g>
<!-- Node9&#45;&gt;Node19 -->
<g id="edge21" class="edge">
<title>Node9&#45;&gt;Node19</title>
<path fill="none" stroke="#191970" d="M607.8452,-190.4639C587.6344,-179.2728 560.2036,-164.0838 540.2201,-153.0186"/>
<polygon fill="#191970" stroke="#191970" points="541.7883,-149.8862 531.3444,-148.1039 538.3973,-156.0101 541.7883,-149.8862"/>
</g>
<!-- Node23 -->
<g id="node24" class="node">
<title>Node23</title>
<polygon fill="none" stroke="#bfbfbf" points="663,-129 663,-148 705,-148 705,-129 663,-129"/>
<text text-anchor="middle" x="684" y="-136" font-family="Helvetica,sans-Serif" font-size="10.00" fill="#000000">array</text>
</g>
<!-- Node9&#45;&gt;Node23 -->
<g id="edge26" class="edge">
<title>Node9&#45;&gt;Node23</title>
<path fill="none" stroke="#191970" d="M646.1189,-190.2967C653.5309,-180.1618 663.3,-166.804 671.061,-156.1921"/>
<polygon fill="#191970" stroke="#191970" points="673.9339,-158.1928 677.012,-148.055 668.2837,-154.0606 673.9339,-158.1928"/>
</g>
<!-- Node10&#45;&gt;Node4 -->
<g id="edge18" class="edge">
<title>Node10&#45;&gt;Node4</title>
<path fill="none" stroke="#191970" d="M1044.683,-134.6187C948.3786,-127.8499 766.5074,-112.1583 707,-87 686.6057,-78.3778 685.3978,-69.6962 668,-56 655.3134,-46.0126 641.0355,-34.8779 629.7033,-26.0653"/>
<polygon fill="#191970" stroke="#191970" points="631.7308,-23.2083 621.6869,-19.8362 627.4358,-28.7358 631.7308,-23.2083"/>
</g>
<!-- Node10&#45;&gt;Node5 -->
<g id="edge20" class="edge">
<title>Node10&#45;&gt;Node5</title>
<path fill="none" stroke="#191970" d="M1044.9935,-136.2067C960.4922,-131.9109 803.5842,-119.8777 674,-87 671.2193,-86.2945 668.3713,-85.4393 665.5426,-84.4972"/>
<polygon fill="#191970" stroke="#191970" points="666.7187,-81.2007 656.1249,-81.0504 664.3127,-87.7742 666.7187,-81.2007"/>
</g>
<!-- Node11 -->
<g id="node12" class="node">
<title>Node11</title>
<polygon fill="none" stroke="#bfbfbf" points="1024,-56.5 1024,-86.5 1188,-86.5 1188,-56.5 1024,-56.5"/>
<text text-anchor="start" x="1032" y="-74.5" font-family="Helvetica,sans-Serif" font-size="10.00" fill="#000000">Math/GenVector/Displacement</text>
<text text-anchor="middle" x="1106" y="-63.5" font-family="Helvetica,sans-Serif" font-size="10.00" fill="#000000">Vector3D.h</text>
</g>
<!-- Node10&#45;&gt;Node11 -->
<g id="edge11" class="edge">
<title>Node10&#45;&gt;Node11</title>
<path fill="none" stroke="#191970" d="M1106,-128.9005C1106,-120.5099 1106,-107.9451 1106,-96.7085"/>
<polygon fill="#191970" stroke="#191970" points="1109.5001,-96.5217 1106,-86.5218 1102.5001,-96.5218 1109.5001,-96.5217"/>
</g>
<!-- Node12 -->
<g id="node13" class="node">
<title>Node12</title>
<polygon fill="none" stroke="#bfbfbf" points="1206.5,-62 1206.5,-81 1395.5,-81 1395.5,-62 1206.5,-62"/>
<text text-anchor="middle" x="1301" y="-69" font-family="Helvetica,sans-Serif" font-size="10.00" fill="#000000">Math/GenVector/PositionVector3D.h</text>
</g>
<!-- Node10&#45;&gt;Node12 -->
<g id="edge12" class="edge">
<title>Node10&#45;&gt;Node12</title>
<path fill="none" stroke="#191970" d="M1133.9387,-128.9005C1167.9674,-117.2086 1225.5839,-97.4122 1263.4622,-84.3976"/>
<polygon fill="#191970" stroke="#191970" points="1264.7931,-87.6412 1273.1131,-81.0817 1262.5184,-81.0211 1264.7931,-87.6412"/>
</g>
<!-- Node13 -->
<g id="node14" class="node">
<title>Node13</title>
<polygon fill="none" stroke="#bfbfbf" points="1414,-62 1414,-81 1574,-81 1574,-62 1414,-62"/>
<text text-anchor="middle" x="1494" y="-69" font-family="Helvetica,sans-Serif" font-size="10.00" fill="#000000">Math/GenVector/Rotation3D.h</text>
</g>
<!-- Node10&#45;&gt;Node13 -->
<g id="edge13" class="edge">
<title>Node10&#45;&gt;Node13</title>
<path fill="none" stroke="#191970" d="M1161.3882,-128.9916C1221.4126,-118.6799 1320.0115,-101.7199 1405,-87 1412.9105,-85.6299 1421.2158,-84.188 1429.4418,-82.7578"/>
<polygon fill="#191970" stroke="#191970" points="1430.1523,-86.1869 1439.4045,-81.0247 1428.9525,-79.2905 1430.1523,-86.1869"/>
</g>
<!-- Node14 -->
<g id="node15" class="node">
<title>Node14</title>
<polygon fill="none" stroke="#bfbfbf" points="1592,-62 1592,-81 1760,-81 1760,-62 1592,-62"/>
<text text-anchor="middle" x="1676" y="-69" font-family="Helvetica,sans-Serif" font-size="10.00" fill="#000000">Math/GenVector/Transform3D.h</text>
</g>
<!-- Node10&#45;&gt;Node14 -->
<g id="edge14" class="edge">
<title>Node10&#45;&gt;Node14</title>
<path fill="none" stroke="#191970" d="M1167.1283,-133.0364C1258.0094,-124.6565 1434.0501,-107.436 1583,-87 1592.3879,-85.712 1602.2857,-84.2139 1611.9827,-82.6665"/>
<polygon fill="#191970" stroke="#191970" points="1612.6754,-86.1 1621.9855,-81.043 1611.5539,-79.1904 1612.6754,-86.1"/>
</g>
<!-- Node15 -->
<g id="node16" class="node">
<title>Node15</title>
<polygon fill="none" stroke="#bfbfbf" points="1778.5,-62 1778.5,-81 1951.5,-81 1951.5,-62 1778.5,-62"/>
<text text-anchor="middle" x="1865" y="-69" font-family="Helvetica,sans-Serif" font-size="10.00" fill="#000000">Math/GenVector/Translation3D.h</text>
</g>
<!-- Node10&#45;&gt;Node15 -->
<g id="edge15" class="edge">
<title>Node10&#45;&gt;Node15</title>
<path fill="none" stroke="#191970" d="M1167.4079,-135.4279C1284.6413,-129.187 1548.3235,-113.3402 1769,-87 1779.3534,-85.7642 1790.2989,-84.2225 1800.948,-82.5945"/>
<polygon fill="#191970" stroke="#191970" points="1801.7002,-86.0194 1811.0382,-81.0143 1800.6171,-79.1037 1801.7002,-86.0194"/>
</g>
<!-- Node16 -->
<g id="node17" class="node">
<title>Node16</title>
<polygon fill="none" stroke="#bfbfbf" points="1970,-56.5 1970,-86.5 2134,-86.5 2134,-56.5 1970,-56.5"/>
<text text-anchor="start" x="1978" y="-74.5" font-family="Helvetica,sans-Serif" font-size="10.00" fill="#000000">Math/GenVector/Displacement</text>
<text text-anchor="middle" x="2052" y="-63.5" font-family="Helvetica,sans-Serif" font-size="10.00" fill="#000000">Vector2D.h</text>
</g>
<!-- Node10&#45;&gt;Node16 -->
<g id="edge16" class="edge">
<title>Node10&#45;&gt;Node16</title>
<path fill="none" stroke="#191970" d="M1167.1041,-137.0954C1306.0804,-133.4095 1656.6187,-121.3418 1959.4186,-87.1021"/>
<polygon fill="#191970" stroke="#191970" points="1960.1788,-90.5381 1969.7174,-85.9268 1959.385,-83.5833 1960.1788,-90.5381"/>
</g>
<!-- Node17 -->
<g id="node18" class="node">
<title>Node17</title>
<polygon fill="none" stroke="#bfbfbf" points="716.5,-62 716.5,-81 905.5,-81 905.5,-62 716.5,-62"/>
<text text-anchor="middle" x="811" y="-69" font-family="Helvetica,sans-Serif" font-size="10.00" fill="#000000">Math/GenVector/PositionVector2D.h</text>
</g>
<!-- Node10&#45;&gt;Node17 -->
<g id="edge17" class="edge">
<title>Node10&#45;&gt;Node17</title>
<path fill="none" stroke="#191970" d="M1064.047,-128.9717C1011.2255,-116.975 920.4808,-96.3651 863.222,-83.3606"/>
<polygon fill="#191970" stroke="#191970" points="863.8128,-79.9057 853.2859,-81.1039 862.2624,-86.7319 863.8128,-79.9057"/>
</g>
<!-- Node18 -->
<g id="node19" class="node">
<title>Node18</title>
<polygon fill="none" stroke="#bfbfbf" points="924,-62 924,-81 1006,-81 1006,-62 924,-62"/>
<text text-anchor="middle" x="965" y="-69" font-family="Helvetica,sans-Serif" font-size="10.00" fill="#000000">TGeoMatrix.h</text>
</g>
<!-- Node10&#45;&gt;Node18 -->
<g id="edge19" class="edge">
<title>Node10&#45;&gt;Node18</title>
<path fill="none" stroke="#191970" d="M1085.7981,-128.9005C1061.821,-117.5072 1021.6479,-98.4178 994.2679,-85.4075"/>
<polygon fill="#191970" stroke="#191970" points="995.6987,-82.2123 985.1644,-81.0817 992.6944,-88.5348 995.6987,-82.2123"/>
</g>
<!-- Node19&#45;&gt;Node3 -->
<g id="edge22" class="edge">
<title>Node19&#45;&gt;Node3</title>
<path fill="none" stroke="#191970" d="M516.2924,-128.9005C518.6449,-119.0495 522.3713,-103.4451 525.3454,-90.9912"/>
<polygon fill="#191970" stroke="#191970" points="528.7933,-91.6212 527.7118,-81.0817 521.9847,-89.9952 528.7933,-91.6212"/>
</g>
<!-- Node20 -->
<g id="node21" class="node">
<title>Node20</title>
<g id="a_node21"><a xlink:href="../../df/d21/GPUCommonDef_8h.html" target="_top" xlink:title="GPUCommonDef.h">
<polygon fill="none" stroke="#000000" points="342.5,-62 342.5,-81 449.5,-81 449.5,-62 342.5,-62"/>
<text text-anchor="middle" x="396" y="-69" font-family="Helvetica,sans-Serif" font-size="10.00" fill="#000000">GPUCommonDef.h</text>
</a>
</g>
</g>
<!-- Node19&#45;&gt;Node20 -->
<g id="edge23" class="edge">
<title>Node19&#45;&gt;Node20</title>
<path fill="none" stroke="#191970" d="M497.0935,-128.9005C477.378,-117.7062 444.5778,-99.0823 421.7041,-86.0947"/>
<polygon fill="#191970" stroke="#191970" points="423.2993,-82.9757 412.8752,-81.0817 419.843,-89.0629 423.2993,-82.9757"/>
</g>
<!-- Node21 -->
<g id="node22" class="node">
<title>Node21</title>
<g id="a_node22"><a xlink:href="../../d5/d93/GPUCommonDefSettings_8h.html" target="_top" xlink:title="GPUCommonDefSettings.h">
<polygon fill="none" stroke="#000000" points="328,-.5 328,-19.5 476,-19.5 476,-.5 328,-.5"/>
<text text-anchor="middle" x="402" y="-7.5" font-family="Helvetica,sans-Serif" font-size="10.00" fill="#000000">GPUCommonDefSettings.h</text>
</a>
</g>
</g>
<!-- Node20&#45;&gt;Node21 -->
<g id="edge24" class="edge">
<title>Node20&#45;&gt;Node21</title>
<path fill="none" stroke="#191970" d="M396.9375,-61.8906C397.7692,-53.3657 399.0108,-40.6392 400.0562,-29.9235"/>
<polygon fill="#191970" stroke="#191970" points="403.5617,-30.0375 401.0493,-19.7449 396.5947,-29.3577 403.5617,-30.0375"/>
</g>
<!-- Node22 -->
<g id="node23" class="node">
<title>Node22</title>
<g id="a_node23"><a xlink:href="../../da/d5a/GPUCommonDefAPI_8h.html" target="_top" xlink:title="GPUCommonDefAPI.h">
<polygon fill="none" stroke="#000000" points="186,-.5 186,-19.5 310,-19.5 310,-.5 186,-.5"/>
<text text-anchor="middle" x="248" y="-7.5" font-family="Helvetica,sans-Serif" font-size="10.00" fill="#000000">GPUCommonDefAPI.h</text>
</a>
</g>
</g>
<!-- Node20&#45;&gt;Node22 -->
<g id="edge25" class="edge">
<title>Node20&#45;&gt;Node22</title>
<path fill="none" stroke="#191970" d="M372.875,-61.8906C348.0033,-51.5554 308.2702,-35.0447 280.3156,-23.4284"/>
<polygon fill="#191970" stroke="#191970" points="281.5402,-20.1472 270.9626,-19.5419 278.854,-26.6113 281.5402,-20.1472"/>
</g>
<!-- Node27 -->
<g id="node28" class="node">
<title>Node27</title>
<polygon fill="none" stroke="#bfbfbf" points="810,-196 810,-215 866,-215 866,-196 810,-196"/>
<text text-anchor="middle" x="838" y="-203" font-family="Helvetica,sans-Serif" font-size="10.00" fill="#000000">sstream</text>
</g>
<!-- Node26&#45;&gt;Node27 -->
<g id="edge31" class="edge">
<title>Node26&#45;&gt;Node27</title>
<path fill="none" stroke="#191970" d="M838,-262.9005C838,-253.149 838,-237.7597 838,-225.3695"/>
<polygon fill="#191970" stroke="#191970" points="841.5001,-225.0816 838,-215.0817 834.5001,-225.0817 841.5001,-225.0816"/>
</g>
</g>
</svg>
