<?xml version="1.0" encoding="UTF-8" standalone="no"?>
<!DOCTYPE svg PUBLIC "-//W3C//DTD SVG 1.1//EN"
 "http://www.w3.org/Graphics/SVG/1.1/DTD/svg11.dtd">
<!-- Generated by graphviz version 2.40.1 (20161225.0304)
 -->
<!-- Title: /home/travis/build/AliceO2Group/AliceO2/Detectors/PHOS/simulation/include/PHOSSimulation/Digitizer.h Pages: 1 -->
<svg width="2796pt" height="307pt"
 viewBox="0.00 0.00 2796.00 307.00" xmlns="http://www.w3.org/2000/svg" xmlns:xlink="http://www.w3.org/1999/xlink">
<g id="graph0" class="graph" transform="scale(1 1) rotate(0) translate(4 303)">
<title>/home/travis/build/AliceO2Group/AliceO2/Detectors/PHOS/simulation/include/PHOSSimulation/Digitizer.h</title>
<!-- Node0 -->
<g id="node1" class="node">
<title>Node0</title>
<polygon fill="#bfbfbf" stroke="#000000" points="1619,-246.5 1619,-298.5 1809,-298.5 1809,-246.5 1619,-246.5"/>
<text text-anchor="start" x="1627" y="-286.5" font-family="Helvetica,sans-Serif" font-size="10.00" fill="#000000">/home/travis/build</text>
<text text-anchor="start" x="1627" y="-275.5" font-family="Helvetica,sans-Serif" font-size="10.00" fill="#000000">/AliceO2Group/AliceO2</text>
<text text-anchor="start" x="1627" y="-264.5" font-family="Helvetica,sans-Serif" font-size="10.00" fill="#000000">/Detectors/PHOS/simulation</text>
<text text-anchor="middle" x="1714" y="-253.5" font-family="Helvetica,sans-Serif" font-size="10.00" fill="#000000">/include/PHOSSimulation/Digitizer.h</text>
</g>
<!-- Node1 -->
<g id="node2" class="node">
<title>Node1</title>
<g id="a_node2"><a xlink:href="../../d3/d98/DataFormats_2Detectors_2PHOS_2include_2DataFormatsPHOS_2Digit_8h.html" target="_top" xlink:title="DataFormatsPHOS/Digit.h">
<polygon fill="none" stroke="#000000" points="1157,-190.5 1157,-209.5 1299,-209.5 1299,-190.5 1157,-190.5"/>
<text text-anchor="middle" x="1228" y="-197.5" font-family="Helvetica,sans-Serif" font-size="10.00" fill="#000000">DataFormatsPHOS/Digit.h</text>
</a>
</g>
</g>
<!-- Node0&#45;&gt;Node1 -->
<g id="edge1" class="edge">
<title>Node0&#45;&gt;Node1</title>
<path fill="none" stroke="#191970" d="M1618.8514,-258.306C1526.0435,-244.4612 1386.8177,-223.6919 1302.0026,-211.0395"/>
<polygon fill="#191970" stroke="#191970" points="1302.3428,-207.5516 1291.9358,-209.5378 1301.31,-214.475 1302.3428,-207.5516"/>
</g>
<!-- Node9 -->
<g id="node10" class="node">
<title>Node9</title>
<g id="a_node10"><a xlink:href="../../d7/d7f/PHOS_2base_2include_2PHOSBase_2Geometry_8h.html" target="_top" xlink:title="PHOSBase/Geometry.h">
<polygon fill="none" stroke="#000000" points="1417.5,-190.5 1417.5,-209.5 1544.5,-209.5 1544.5,-190.5 1417.5,-190.5"/>
<text text-anchor="middle" x="1481" y="-197.5" font-family="Helvetica,sans-Serif" font-size="10.00" fill="#000000">PHOSBase/Geometry.h</text>
</a>
</g>
</g>
<!-- Node0&#45;&gt;Node9 -->
<g id="edge9" class="edge">
<title>Node0&#45;&gt;Node9</title>
<path fill="none" stroke="#191970" d="M1630.2108,-246.4283C1593.1706,-234.9029 1551.3297,-221.8837 1521.4011,-212.5711"/>
<polygon fill="#191970" stroke="#191970" points="1522.3205,-209.1918 1511.7322,-209.5626 1520.2407,-215.8757 1522.3205,-209.1918"/>
</g>
<!-- Node13 -->
<g id="node14" class="node">
<title>Node13</title>
<g id="a_node14"><a xlink:href="../../d2/d37/PHOS_2calib_2include_2PHOSCalib_2CalibParams_8h.html" target="_top" xlink:title="PHOSCalib/CalibParams.h">
<polygon fill="none" stroke="#000000" points="1575.5,-190.5 1575.5,-209.5 1716.5,-209.5 1716.5,-190.5 1575.5,-190.5"/>
<text text-anchor="middle" x="1646" y="-197.5" font-family="Helvetica,sans-Serif" font-size="10.00" fill="#000000">PHOSCalib/CalibParams.h</text>
</a>
</g>
</g>
<!-- Node0&#45;&gt;Node13 -->
<g id="edge13" class="edge">
<title>Node0&#45;&gt;Node13</title>
<path fill="none" stroke="#191970" d="M1689.4504,-246.3258C1680.2465,-236.5128 1670.0389,-225.6298 1661.8314,-216.879"/>
<polygon fill="#191970" stroke="#191970" points="1664.3362,-214.4334 1654.9422,-209.534 1659.2305,-219.2222 1664.3362,-214.4334"/>
</g>
<!-- Node16 -->
<g id="node17" class="node">
<title>Node16</title>
<g id="a_node17"><a xlink:href="../../db/dad/Detectors_2PHOS_2base_2include_2PHOSBase_2Hit_8h.html" target="_top" xlink:title="PHOSBase/Hit.h">
<polygon fill="none" stroke="#000000" points="1735,-190.5 1735,-209.5 1829,-209.5 1829,-190.5 1735,-190.5"/>
<text text-anchor="middle" x="1782" y="-197.5" font-family="Helvetica,sans-Serif" font-size="10.00" fill="#000000">PHOSBase/Hit.h</text>
</a>
</g>
</g>
<!-- Node0&#45;&gt;Node16 -->
<g id="edge16" class="edge">
<title>Node0&#45;&gt;Node16</title>
<path fill="none" stroke="#191970" d="M1738.5496,-246.3258C1747.7535,-236.5128 1757.9611,-225.6298 1766.1686,-216.879"/>
<polygon fill="#191970" stroke="#191970" points="1768.7695,-219.2222 1773.0578,-209.534 1763.6638,-214.4334 1768.7695,-219.2222"/>
</g>
<!-- Node36 -->
<g id="node37" class="node">
<title>Node36</title>
<g id="a_node37"><a xlink:href="../../de/d0d/DataFormats_2Detectors_2PHOS_2include_2DataFormatsPHOS_2MCLabel_8h.html" target="_top" xlink:title="DataFormatsPHOS/MCLabel.h">
<polygon fill="none" stroke="#000000" points="1847,-190.5 1847,-209.5 2007,-209.5 2007,-190.5 1847,-190.5"/>
<text text-anchor="middle" x="1927" y="-197.5" font-family="Helvetica,sans-Serif" font-size="10.00" fill="#000000">DataFormatsPHOS/MCLabel.h</text>
</a>
</g>
</g>
<!-- Node0&#45;&gt;Node36 -->
<g id="edge37" class="edge">
<title>Node0&#45;&gt;Node36</title>
<path fill="none" stroke="#191970" d="M1790.597,-246.4283C1824.1633,-235.0031 1862.0423,-222.11 1889.3507,-212.8149"/>
<polygon fill="#191970" stroke="#191970" points="1890.5669,-216.0982 1898.9058,-209.5626 1888.3114,-209.4715 1890.5669,-216.0982"/>
</g>
<!-- Node38 -->
<g id="node39" class="node">
<title>Node38</title>
<g id="a_node39"><a xlink:href="../../db/d14/MCTruthContainer_8h.html" target="_top" xlink:title="Definition of a container to keep Monte Carlo truth external to simulation objects. ">
<polygon fill="none" stroke="#000000" points="2375.5,-123.5 2375.5,-153.5 2502.5,-153.5 2502.5,-123.5 2375.5,-123.5"/>
<text text-anchor="start" x="2383.5" y="-141.5" font-family="Helvetica,sans-Serif" font-size="10.00" fill="#000000">SimulationDataFormat</text>
<text text-anchor="middle" x="2439" y="-130.5" font-family="Helvetica,sans-Serif" font-size="10.00" fill="#000000">/MCTruthContainer.h</text>
</a>
</g>
</g>
<!-- Node0&#45;&gt;Node38 -->
<g id="edge40" class="edge">
<title>Node0&#45;&gt;Node38</title>
<path fill="none" stroke="#191970" d="M1809.1536,-254.913C1955.5499,-227.8549 2232.9328,-176.5869 2365.2234,-152.136"/>
<polygon fill="#191970" stroke="#191970" points="2366.0651,-155.5397 2375.2624,-150.2805 2364.7928,-148.6563 2366.0651,-155.5397"/>
</g>
<!-- Node2 -->
<g id="node3" class="node">
<title>Node2</title>
<polygon fill="none" stroke="#bfbfbf" points="1069.5,-129 1069.5,-148 1116.5,-148 1116.5,-129 1069.5,-129"/>
<text text-anchor="middle" x="1093" y="-136" font-family="Helvetica,sans-Serif" font-size="10.00" fill="#000000">cmath</text>
</g>
<!-- Node1&#45;&gt;Node2 -->
<g id="edge2" class="edge">
<title>Node1&#45;&gt;Node2</title>
<path fill="none" stroke="#191970" d="M1205.8085,-190.327C1184.8877,-181.1517 1152.6991,-166.8898 1125,-154 1123.9926,-153.5312 1122.9687,-153.0517 1121.9355,-152.5653"/>
<polygon fill="#191970" stroke="#191970" points="1123.1177,-149.2515 1112.585,-148.1053 1120.104,-155.5696 1123.1177,-149.2515"/>
</g>
<!-- Node3 -->
<g id="node4" class="node">
<title>Node3</title>
<g id="a_node4"><a xlink:href="../../df/d5d/common_2include_2CommonDataFormat_2TimeStamp_8h.html" target="_top" xlink:title="CommonDataFormat/TimeStamp.h">
<polygon fill="none" stroke="#000000" points="1134.5,-129 1134.5,-148 1321.5,-148 1321.5,-129 1134.5,-129"/>
<text text-anchor="middle" x="1228" y="-136" font-family="Helvetica,sans-Serif" font-size="10.00" fill="#000000">CommonDataFormat/TimeStamp.h</text>
</a>
</g>
</g>
<!-- Node1&#45;&gt;Node3 -->
<g id="edge3" class="edge">
<title>Node1&#45;&gt;Node3</title>
<path fill="none" stroke="#191970" d="M1228,-190.3906C1228,-181.8657 1228,-169.1392 1228,-158.4235"/>
<polygon fill="#191970" stroke="#191970" points="1231.5001,-158.2448 1228,-148.2449 1224.5001,-158.2449 1231.5001,-158.2448"/>
</g>
<!-- Node4 -->
<g id="node5" class="node">
<title>Node4</title>
<g id="a_node5"><a xlink:href="../../d2/d45/GPUCommonRtypes_8h.html" target="_top" xlink:title="GPUCommonRtypes.h">
<polygon fill="none" stroke="#000000" points="1796.5,-67.5 1796.5,-86.5 1921.5,-86.5 1921.5,-67.5 1796.5,-67.5"/>
<text text-anchor="middle" x="1859" y="-74.5" font-family="Helvetica,sans-Serif" font-size="10.00" fill="#000000">GPUCommonRtypes.h</text>
</a>
</g>
</g>
<!-- Node3&#45;&gt;Node4 -->
<g id="edge4" class="edge">
<title>Node3&#45;&gt;Node4</title>
<path fill="none" stroke="#191970" d="M1286.4358,-128.9622C1300.6662,-126.8215 1315.8606,-124.6873 1330,-123 1492.3939,-103.6208 1683.7604,-89.0098 1785.9547,-81.8651"/>
<polygon fill="#191970" stroke="#191970" points="1786.4303,-85.3405 1796.1635,-81.1555 1785.9449,-78.3574 1786.4303,-85.3405"/>
</g>
<!-- Node6 -->
<g id="node7" class="node">
<title>Node6</title>
<g id="a_node7"><a xlink:href="../../df/d21/GPUCommonDef_8h.html" target="_top" xlink:title="GPUCommonDef.h">
<polygon fill="none" stroke="#000000" points="162.5,-67.5 162.5,-86.5 269.5,-86.5 269.5,-67.5 162.5,-67.5"/>
<text text-anchor="middle" x="216" y="-74.5" font-family="Helvetica,sans-Serif" font-size="10.00" fill="#000000">GPUCommonDef.h</text>
</a>
</g>
</g>
<!-- Node3&#45;&gt;Node6 -->
<g id="edge6" class="edge">
<title>Node3&#45;&gt;Node6</title>
<path fill="none" stroke="#191970" d="M1171.4595,-128.9642C1156.3992,-126.7058 1140.1141,-124.5159 1125,-123 808.8982,-91.2958 428.6487,-81.0177 279.9724,-78.0661"/>
<polygon fill="#191970" stroke="#191970" points="279.7381,-74.561 269.672,-77.8661 279.6021,-81.5597 279.7381,-74.561"/>
</g>
<!-- Node5 -->
<g id="node6" class="node">
<title>Node5</title>
<polygon fill="none" stroke="#bfbfbf" points="1812.5,-6 1812.5,-25 1871.5,-25 1871.5,-6 1812.5,-6"/>
<text text-anchor="middle" x="1842" y="-13" font-family="Helvetica,sans-Serif" font-size="10.00" fill="#000000">Rtypes.h</text>
</g>
<!-- Node4&#45;&gt;Node5 -->
<g id="edge5" class="edge">
<title>Node4&#45;&gt;Node5</title>
<path fill="none" stroke="#191970" d="M1856.3438,-67.3906C1853.9625,-58.776 1850.3952,-45.8708 1847.414,-35.0858"/>
<polygon fill="#191970" stroke="#191970" points="1850.7316,-33.9509 1844.6937,-25.2449 1843.9846,-35.8159 1850.7316,-33.9509"/>
</g>
<!-- Node7 -->
<g id="node8" class="node">
<title>Node7</title>
<g id="a_node8"><a xlink:href="../../d5/d93/GPUCommonDefSettings_8h.html" target="_top" xlink:title="GPUCommonDefSettings.h">
<polygon fill="none" stroke="#000000" points="142,-6 142,-25 290,-25 290,-6 142,-6"/>
<text text-anchor="middle" x="216" y="-13" font-family="Helvetica,sans-Serif" font-size="10.00" fill="#000000">GPUCommonDefSettings.h</text>
</a>
</g>
</g>
<!-- Node6&#45;&gt;Node7 -->
<g id="edge7" class="edge">
<title>Node6&#45;&gt;Node7</title>
<path fill="none" stroke="#191970" d="M216,-67.3906C216,-58.8657 216,-46.1392 216,-35.4235"/>
<polygon fill="#191970" stroke="#191970" points="219.5001,-35.2448 216,-25.2449 212.5001,-35.2449 219.5001,-35.2448"/>
</g>
<!-- Node8 -->
<g id="node9" class="node">
<title>Node8</title>
<g id="a_node9"><a xlink:href="../../da/d5a/GPUCommonDefAPI_8h.html" target="_top" xlink:title="GPUCommonDefAPI.h">
<polygon fill="none" stroke="#000000" points="0,-6 0,-25 124,-25 124,-6 0,-6"/>
<text text-anchor="middle" x="62" y="-13" font-family="Helvetica,sans-Serif" font-size="10.00" fill="#000000">GPUCommonDefAPI.h</text>
</a>
</g>
</g>
<!-- Node6&#45;&gt;Node8 -->
<g id="edge8" class="edge">
<title>Node6&#45;&gt;Node8</title>
<path fill="none" stroke="#191970" d="M191.9375,-67.3906C165.9444,-57.0103 124.3522,-40.4004 95.2453,-28.7766"/>
<polygon fill="#191970" stroke="#191970" points="96.4785,-25.5003 85.8935,-25.0419 93.8823,-32.0011 96.4785,-25.5003"/>
</g>
<!-- Node10 -->
<g id="node11" class="node">
<title>Node10</title>
<polygon fill="none" stroke="#bfbfbf" points="1515,-129 1515,-148 1559,-148 1559,-129 1515,-129"/>
<text text-anchor="middle" x="1537" y="-136" font-family="Helvetica,sans-Serif" font-size="10.00" fill="#000000">string</text>
</g>
<!-- Node9&#45;&gt;Node10 -->
<g id="edge10" class="edge">
<title>Node9&#45;&gt;Node10</title>
<path fill="none" stroke="#191970" d="M1489.75,-190.3906C1498.1662,-181.1478 1511.0797,-166.966 1521.281,-155.7628"/>
<polygon fill="#191970" stroke="#191970" points="1523.9818,-157.9953 1528.1266,-148.2449 1518.806,-153.2824 1523.9818,-157.9953"/>
</g>
<!-- Node11 -->
<g id="node12" class="node">
<title>Node11</title>
<polygon fill="none" stroke="#bfbfbf" points="1339,-129 1339,-148 1423,-148 1423,-129 1339,-129"/>
<text text-anchor="middle" x="1381" y="-136" font-family="Helvetica,sans-Serif" font-size="10.00" fill="#000000">RStringView.h</text>
</g>
<!-- Node9&#45;&gt;Node11 -->
<g id="edge11" class="edge">
<title>Node9&#45;&gt;Node11</title>
<path fill="none" stroke="#191970" d="M1465.375,-190.3906C1449.2302,-180.4616 1423.8178,-164.833 1405.0977,-153.3201"/>
<polygon fill="#191970" stroke="#191970" points="1406.8669,-150.2992 1396.5153,-148.0419 1403.1998,-156.2619 1406.8669,-150.2992"/>
</g>
<!-- Node12 -->
<g id="node13" class="node">
<title>Node12</title>
<polygon fill="none" stroke="#bfbfbf" points="1441,-129 1441,-148 1497,-148 1497,-129 1441,-129"/>
<text text-anchor="middle" x="1469" y="-136" font-family="Helvetica,sans-Serif" font-size="10.00" fill="#000000">TMath.h</text>
</g>
<!-- Node9&#45;&gt;Node12 -->
<g id="edge12" class="edge">
<title>Node9&#45;&gt;Node12</title>
<path fill="none" stroke="#191970" d="M1479.125,-190.3906C1477.4441,-181.776 1474.926,-168.8708 1472.8216,-158.0858"/>
<polygon fill="#191970" stroke="#191970" points="1476.2518,-157.3895 1470.9014,-148.2449 1469.3814,-158.7301 1476.2518,-157.3895"/>
</g>
<!-- Node14 -->
<g id="node15" class="node">
<title>Node14</title>
<polygon fill="none" stroke="#bfbfbf" points="1577,-129 1577,-148 1619,-148 1619,-129 1577,-129"/>
<text text-anchor="middle" x="1598" y="-136" font-family="Helvetica,sans-Serif" font-size="10.00" fill="#000000">array</text>
</g>
<!-- Node13&#45;&gt;Node14 -->
<g id="edge14" class="edge">
<title>Node13&#45;&gt;Node14</title>
<path fill="none" stroke="#191970" d="M1638.5,-190.3906C1631.4262,-181.3273 1620.6458,-167.5149 1611.9854,-156.4188"/>
<polygon fill="#191970" stroke="#191970" points="1614.5176,-153.9746 1605.6057,-148.2449 1608.9994,-158.2815 1614.5176,-153.9746"/>
</g>
<!-- Node15 -->
<g id="node16" class="node">
<title>Node15</title>
<polygon fill="none" stroke="#bfbfbf" points="1637.5,-129 1637.5,-148 1700.5,-148 1700.5,-129 1637.5,-129"/>
<text text-anchor="middle" x="1669" y="-136" font-family="Helvetica,sans-Serif" font-size="10.00" fill="#000000">TObject.h</text>
</g>
<!-- Node13&#45;&gt;Node15 -->
<g id="edge15" class="edge">
<title>Node13&#45;&gt;Node15</title>
<path fill="none" stroke="#191970" d="M1649.5938,-190.3906C1652.8491,-181.6862 1657.7425,-168.6015 1661.801,-157.7494"/>
<polygon fill="#191970" stroke="#191970" points="1665.1309,-158.8373 1665.3556,-148.2449 1658.5744,-156.3852 1665.1309,-158.8373"/>
</g>
<!-- Node17 -->
<g id="node18" class="node">
<title>Node17</title>
<g id="a_node18"><a xlink:href="../../d4/d25/BaseHits_8h.html" target="_top" xlink:title="SimulationDataFormat\l/BaseHits.h">
<polygon fill="none" stroke="#000000" points="1718.5,-123.5 1718.5,-153.5 1845.5,-153.5 1845.5,-123.5 1718.5,-123.5"/>
<text text-anchor="start" x="1726.5" y="-141.5" font-family="Helvetica,sans-Serif" font-size="10.00" fill="#000000">SimulationDataFormat</text>
<text text-anchor="middle" x="1782" y="-130.5" font-family="Helvetica,sans-Serif" font-size="10.00" fill="#000000">/BaseHits.h</text>
</a>
</g>
</g>
<!-- Node16&#45;&gt;Node17 -->
<g id="edge17" class="edge">
<title>Node16&#45;&gt;Node17</title>
<path fill="none" stroke="#191970" d="M1782,-190.3906C1782,-183.2234 1782,-173.0862 1782,-163.671"/>
<polygon fill="#191970" stroke="#191970" points="1785.5001,-163.5446 1782,-153.5446 1778.5001,-163.5446 1785.5001,-163.5446"/>
</g>
<!-- Node28 -->
<g id="node29" class="node">
<title>Node28</title>
<g id="a_node29"><a xlink:href="../../d0/d91/ShmAllocator_8h.html" target="_top" xlink:title="CommonUtils/ShmAllocator.h">
<polygon fill="none" stroke="#000000" points="2043,-129 2043,-148 2203,-148 2203,-129 2043,-129"/>
<text text-anchor="middle" x="2123" y="-136" font-family="Helvetica,sans-Serif" font-size="10.00" fill="#000000">CommonUtils/ShmAllocator.h</text>
</a>
</g>
</g>
<!-- Node16&#45;&gt;Node28 -->
<g id="edge29" class="edge">
<title>Node16&#45;&gt;Node28</title>
<path fill="none" stroke="#191970" d="M1829.0566,-191.5133C1889.186,-180.6688 1993.4639,-161.8621 2060.2907,-149.8097"/>
<polygon fill="#191970" stroke="#191970" points="2061.0552,-153.2284 2070.2752,-148.009 2059.8128,-146.3395 2061.0552,-153.2284"/>
</g>
<!-- Node18 -->
<g id="node19" class="node">
<title>Node18</title>
<g id="a_node19"><a xlink:href="../../dc/d73/Cartesian_8h.html" target="_top" xlink:title="MathUtils/Cartesian.h">
<polygon fill="none" stroke="#000000" points="1093,-67.5 1093,-86.5 1215,-86.5 1215,-67.5 1093,-67.5"/>
<text text-anchor="middle" x="1154" y="-74.5" font-family="Helvetica,sans-Serif" font-size="10.00" fill="#000000">MathUtils/Cartesian.h</text>
</a>
</g>
</g>
<!-- Node17&#45;&gt;Node18 -->
<g id="edge18" class="edge">
<title>Node17&#45;&gt;Node18</title>
<path fill="none" stroke="#191970" d="M1718.4784,-124.3585C1715.6186,-123.8692 1712.7825,-123.4128 1710,-123 1537.075,-97.3434 1331.6116,-84.9989 1225.4489,-79.9488"/>
<polygon fill="#191970" stroke="#191970" points="1225.3312,-76.4396 1215.1785,-79.4684 1225.004,-83.432 1225.3312,-76.4396"/>
</g>
<!-- Node18&#45;&gt;Node5 -->
<g id="edge26" class="edge">
<title>Node18&#45;&gt;Node5</title>
<path fill="none" stroke="#191970" d="M1215.152,-75.0604C1354.5179,-70.2526 1692.1907,-56.3064 1803,-31 1805.8634,-30.3461 1808.7921,-29.5137 1811.6946,-28.5754"/>
<polygon fill="#191970" stroke="#191970" points="1813.1204,-31.7814 1821.3282,-25.082 1810.734,-25.2007 1813.1204,-31.7814"/>
</g>
<!-- Node19 -->
<g id="node20" class="node">
<title>Node19</title>
<polygon fill="none" stroke="#bfbfbf" points="684,-.5 684,-30.5 848,-30.5 848,-.5 684,-.5"/>
<text text-anchor="start" x="692" y="-18.5" font-family="Helvetica,sans-Serif" font-size="10.00" fill="#000000">Math/GenVector/Displacement</text>
<text text-anchor="middle" x="766" y="-7.5" font-family="Helvetica,sans-Serif" font-size="10.00" fill="#000000">Vector3D.h</text>
</g>
<!-- Node18&#45;&gt;Node19 -->
<g id="edge19" class="edge">
<title>Node18&#45;&gt;Node19</title>
<path fill="none" stroke="#191970" d="M1092.8099,-67.7978C1034.9606,-59.0354 945.4469,-45.3165 858.3839,-31.2126"/>
<polygon fill="#191970" stroke="#191970" points="858.7623,-27.7283 848.3306,-29.5804 857.6405,-34.6378 858.7623,-27.7283"/>
</g>
<!-- Node20 -->
<g id="node21" class="node">
<title>Node20</title>
<polygon fill="none" stroke="#bfbfbf" points="866.5,-6 866.5,-25 1055.5,-25 1055.5,-6 866.5,-6"/>
<text text-anchor="middle" x="961" y="-13" font-family="Helvetica,sans-Serif" font-size="10.00" fill="#000000">Math/GenVector/PositionVector3D.h</text>
</g>
<!-- Node18&#45;&gt;Node20 -->
<g id="edge20" class="edge">
<title>Node18&#45;&gt;Node20</title>
<path fill="none" stroke="#191970" d="M1123.8438,-67.3906C1090.7015,-56.8298 1037.3238,-39.8208 1000.7758,-28.1747"/>
<polygon fill="#191970" stroke="#191970" points="1001.5351,-24.7433 990.9445,-25.0419 999.4098,-31.4129 1001.5351,-24.7433"/>
</g>
<!-- Node21 -->
<g id="node22" class="node">
<title>Node21</title>
<polygon fill="none" stroke="#bfbfbf" points="1074,-6 1074,-25 1234,-25 1234,-6 1074,-6"/>
<text text-anchor="middle" x="1154" y="-13" font-family="Helvetica,sans-Serif" font-size="10.00" fill="#000000">Math/GenVector/Rotation3D.h</text>
</g>
<!-- Node18&#45;&gt;Node21 -->
<g id="edge21" class="edge">
<title>Node18&#45;&gt;Node21</title>
<path fill="none" stroke="#191970" d="M1154,-67.3906C1154,-58.8657 1154,-46.1392 1154,-35.4235"/>
<polygon fill="#191970" stroke="#191970" points="1157.5001,-35.2448 1154,-25.2449 1150.5001,-35.2449 1157.5001,-35.2448"/>
</g>
<!-- Node22 -->
<g id="node23" class="node">
<title>Node22</title>
<polygon fill="none" stroke="#bfbfbf" points="1252,-6 1252,-25 1420,-25 1420,-6 1252,-6"/>
<text text-anchor="middle" x="1336" y="-13" font-family="Helvetica,sans-Serif" font-size="10.00" fill="#000000">Math/GenVector/Transform3D.h</text>
</g>
<!-- Node18&#45;&gt;Node22 -->
<g id="edge22" class="edge">
<title>Node18&#45;&gt;Node22</title>
<path fill="none" stroke="#191970" d="M1182.4375,-67.3906C1213.5572,-56.8749 1263.5964,-39.966 1298.0485,-28.3243"/>
<polygon fill="#191970" stroke="#191970" points="1299.4089,-31.5591 1307.7622,-25.0419 1297.168,-24.9274 1299.4089,-31.5591"/>
</g>
<!-- Node23 -->
<g id="node24" class="node">
<title>Node23</title>
<polygon fill="none" stroke="#bfbfbf" points="1438.5,-6 1438.5,-25 1611.5,-25 1611.5,-6 1438.5,-6"/>
<text text-anchor="middle" x="1525" y="-13" font-family="Helvetica,sans-Serif" font-size="10.00" fill="#000000">Math/GenVector/Translation3D.h</text>
</g>
<!-- Node18&#45;&gt;Node23 -->
<g id="edge23" class="edge">
<title>Node18&#45;&gt;Node23</title>
<path fill="none" stroke="#191970" d="M1211.5617,-67.4581C1278.0029,-56.4443 1387.1384,-38.3531 1457.5159,-26.6867"/>
<polygon fill="#191970" stroke="#191970" points="1458.3156,-30.102 1467.6085,-25.0137 1457.1708,-23.1962 1458.3156,-30.102"/>
</g>
<!-- Node24 -->
<g id="node25" class="node">
<title>Node24</title>
<polygon fill="none" stroke="#bfbfbf" points="1630,-.5 1630,-30.5 1794,-30.5 1794,-.5 1630,-.5"/>
<text text-anchor="start" x="1638" y="-18.5" font-family="Helvetica,sans-Serif" font-size="10.00" fill="#000000">Math/GenVector/Displacement</text>
<text text-anchor="middle" x="1712" y="-7.5" font-family="Helvetica,sans-Serif" font-size="10.00" fill="#000000">Vector2D.h</text>
</g>
<!-- Node18&#45;&gt;Node24 -->
<g id="edge24" class="edge">
<title>Node18&#45;&gt;Node24</title>
<path fill="none" stroke="#191970" d="M1215.2193,-72.3024C1302.5303,-65.3044 1468.0497,-50.9353 1619.8083,-30.9622"/>
<polygon fill="#191970" stroke="#191970" points="1620.3308,-34.4237 1629.7835,-29.6386 1619.4099,-27.4845 1620.3308,-34.4237"/>
</g>
<!-- Node25 -->
<g id="node26" class="node">
<title>Node25</title>
<polygon fill="none" stroke="#bfbfbf" points="308.5,-6 308.5,-25 497.5,-25 497.5,-6 308.5,-6"/>
<text text-anchor="middle" x="403" y="-13" font-family="Helvetica,sans-Serif" font-size="10.00" fill="#000000">Math/GenVector/PositionVector2D.h</text>
</g>
<!-- Node18&#45;&gt;Node25 -->
<g id="edge25" class="edge">
<title>Node18&#45;&gt;Node25</title>
<path fill="none" stroke="#191970" d="M1092.754,-74.2195C977.7282,-68.6484 721.6372,-54.5893 507,-31 495.5618,-29.7429 483.451,-28.1651 471.6923,-26.5008"/>
<polygon fill="#191970" stroke="#191970" points="471.8736,-22.9906 461.4753,-25.0218 470.8707,-29.9184 471.8736,-22.9906"/>
</g>
<!-- Node26 -->
<g id="node27" class="node">
<title>Node26</title>
<polygon fill="none" stroke="#bfbfbf" points="516,-6 516,-25 598,-25 598,-6 516,-6"/>
<text text-anchor="middle" x="557" y="-13" font-family="Helvetica,sans-Serif" font-size="10.00" fill="#000000">TGeoMatrix.h</text>
</g>
<!-- Node18&#45;&gt;Node26 -->
<g id="edge27" class="edge">
<title>Node18&#45;&gt;Node26</title>
<path fill="none" stroke="#191970" d="M1092.5801,-73.517C969.92,-66.2845 698.5569,-48.8221 607,-31 602.6163,-30.1467 598.0733,-29.0499 593.5935,-27.8344"/>
<polygon fill="#191970" stroke="#191970" points="594.554,-24.4688 583.9742,-25.0327 592.5964,-31.1895 594.554,-24.4688"/>
</g>
<!-- Node27 -->
<g id="node28" class="node">
<title>Node27</title>
<polygon fill="none" stroke="#bfbfbf" points="616.5,-6 616.5,-25 665.5,-25 665.5,-6 616.5,-6"/>
<text text-anchor="middle" x="641" y="-13" font-family="Helvetica,sans-Serif" font-size="10.00" fill="#000000">iosfwd</text>
</g>
<!-- Node18&#45;&gt;Node27 -->
<g id="edge28" class="edge">
<title>Node18&#45;&gt;Node27</title>
<path fill="none" stroke="#191970" d="M1092.8159,-73.653C981.9715,-67.1706 752.2674,-51.6986 675,-31 672.8107,-30.4135 670.5857,-29.6984 668.3756,-28.9008"/>
<polygon fill="#191970" stroke="#191970" points="669.5172,-25.5859 658.9376,-25.0177 666.8538,-32.0594 669.5172,-25.5859"/>
</g>
<!-- Node29 -->
<g id="node30" class="node">
<title>Node29</title>
<g id="a_node30"><a xlink:href="../../de/d61/ShmManager_8h.html" target="_top" xlink:title="CommonUtils/ShmManager.h">
<polygon fill="none" stroke="#000000" points="2044,-67.5 2044,-86.5 2202,-86.5 2202,-67.5 2044,-67.5"/>
<text text-anchor="middle" x="2123" y="-74.5" font-family="Helvetica,sans-Serif" font-size="10.00" fill="#000000">CommonUtils/ShmManager.h</text>
</a>
</g>
</g>
<!-- Node28&#45;&gt;Node29 -->
<g id="edge30" class="edge">
<title>Node28&#45;&gt;Node29</title>
<path fill="none" stroke="#191970" d="M2123,-128.8906C2123,-120.3657 2123,-107.6392 2123,-96.9235"/>
<polygon fill="#191970" stroke="#191970" points="2126.5001,-96.7448 2123,-86.7449 2119.5001,-96.7449 2126.5001,-96.7448"/>
</g>
<!-- Node35 -->
<g id="node36" class="node">
<title>Node35</title>
<polygon fill="none" stroke="#bfbfbf" points="2220,-67.5 2220,-86.5 2272,-86.5 2272,-67.5 2220,-67.5"/>
<text text-anchor="middle" x="2246" y="-74.5" font-family="Helvetica,sans-Serif" font-size="10.00" fill="#000000">cassert</text>
</g>
<!-- Node28&#45;&gt;Node35 -->
<g id="edge36" class="edge">
<title>Node28&#45;&gt;Node35</title>
<path fill="none" stroke="#191970" d="M2142.2188,-128.8906C2162.5281,-118.7359 2194.7607,-102.6196 2217.9168,-91.0416"/>
<polygon fill="#191970" stroke="#191970" points="2219.5372,-94.1446 2226.9162,-86.5419 2216.4067,-87.8836 2219.5372,-94.1446"/>
</g>
<!-- Node30 -->
<g id="node31" class="node">
<title>Node30</title>
<polygon fill="none" stroke="#bfbfbf" points="2225,-6 2225,-25 2257,-25 2257,-6 2225,-6"/>
<text text-anchor="middle" x="2241" y="-13" font-family="Helvetica,sans-Serif" font-size="10.00" fill="#000000">list</text>
</g>
<!-- Node29&#45;&gt;Node30 -->
<g id="edge31" class="edge">
<title>Node29&#45;&gt;Node30</title>
<path fill="none" stroke="#191970" d="M2143.9785,-67.3282C2163.0227,-58.3829 2191.7519,-44.4733 2216,-31 2216.4129,-30.7706 2216.8286,-30.5375 2217.2464,-30.3013"/>
<polygon fill="#191970" stroke="#191970" points="2219.2449,-33.1856 2226.068,-25.0802 2215.6796,-27.1616 2219.2449,-33.1856"/>
</g>
<!-- Node31 -->
<g id="node32" class="node">
<title>Node31</title>
<polygon fill="none" stroke="#bfbfbf" points="2275.5,-6 2275.5,-25 2328.5,-25 2328.5,-6 2275.5,-6"/>
<text text-anchor="middle" x="2302" y="-13" font-family="Helvetica,sans-Serif" font-size="10.00" fill="#000000">cstddef</text>
</g>
<!-- Node29&#45;&gt;Node31 -->
<g id="edge32" class="edge">
<title>Node29&#45;&gt;Node31</title>
<path fill="none" stroke="#191970" d="M2155.676,-67.4588C2184.8591,-58.7085 2228.641,-45.0149 2266,-31 2267.8158,-30.3188 2269.6734,-29.5972 2271.5412,-28.8526"/>
<polygon fill="#191970" stroke="#191970" points="2272.9116,-32.0734 2280.8162,-25.0188 2270.2375,-25.6043 2272.9116,-32.0734"/>
</g>
<!-- Node32 -->
<g id="node33" class="node">
<title>Node32</title>
<polygon fill="none" stroke="#bfbfbf" points="2347,-6 2347,-25 2397,-25 2397,-6 2347,-6"/>
<text text-anchor="middle" x="2372" y="-13" font-family="Helvetica,sans-Serif" font-size="10.00" fill="#000000">atomic</text>
</g>
<!-- Node29&#45;&gt;Node32 -->
<g id="edge33" class="edge">
<title>Node29&#45;&gt;Node32</title>
<path fill="none" stroke="#191970" d="M2184.6405,-67.4746C2228.1422,-59.8703 2287.4419,-47.7126 2338,-31 2339.8478,-30.3892 2341.7295,-29.7087 2343.6117,-28.9832"/>
<polygon fill="#191970" stroke="#191970" points="2345.0071,-32.1933 2352.8728,-25.0954 2342.2976,-25.739 2345.0071,-32.1933"/>
</g>
<!-- Node33 -->
<g id="node34" class="node">
<title>Node33</title>
<polygon fill="none" stroke="#bfbfbf" points="1889.5,-.5 1889.5,-30.5 2054.5,-30.5 2054.5,-.5 1889.5,-.5"/>
<text text-anchor="start" x="1897.5" y="-18.5" font-family="Helvetica,sans-Serif" font-size="10.00" fill="#000000">boost/interprocess</text>
<text text-anchor="middle" x="1972" y="-7.5" font-family="Helvetica,sans-Serif" font-size="10.00" fill="#000000">/managed_external_buffer.hpp</text>
</g>
<!-- Node29&#45;&gt;Node33 -->
<g id="edge34" class="edge">
<title>Node29&#45;&gt;Node33</title>
<path fill="none" stroke="#191970" d="M2099.4063,-67.3906C2077.8349,-58.6049 2045.3067,-45.3567 2018.5178,-34.446"/>
<polygon fill="#191970" stroke="#191970" points="2019.5203,-31.0752 2008.9388,-30.5446 2016.8799,-37.5581 2019.5203,-31.0752"/>
</g>
<!-- Node34 -->
<g id="node35" class="node">
<title>Node34</title>
<polygon fill="none" stroke="#bfbfbf" points="2073,-.5 2073,-30.5 2207,-30.5 2207,-.5 2073,-.5"/>
<text text-anchor="start" x="2081" y="-18.5" font-family="Helvetica,sans-Serif" font-size="10.00" fill="#000000">boost/interprocess</text>
<text text-anchor="middle" x="2140" y="-7.5" font-family="Helvetica,sans-Serif" font-size="10.00" fill="#000000">/allocators/allocator.hpp</text>
</g>
<!-- Node29&#45;&gt;Node34 -->
<g id="edge35" class="edge">
<title>Node29&#45;&gt;Node34</title>
<path fill="none" stroke="#191970" d="M2125.6563,-67.3906C2127.6587,-60.1463 2130.4999,-49.8679 2133.126,-40.3676"/>
<polygon fill="#191970" stroke="#191970" points="2136.5504,-41.1157 2135.8413,-30.5446 2129.8035,-39.2506 2136.5504,-41.1157"/>
</g>
<!-- Node37 -->
<g id="node38" class="node">
<title>Node37</title>
<g id="a_node38"><a xlink:href="../../d7/dcd/MCCompLabel_8h.html" target="_top" xlink:title="SimulationDataFormat\l/MCCompLabel.h">
<polygon fill="none" stroke="#000000" points="1863.5,-123.5 1863.5,-153.5 1990.5,-153.5 1990.5,-123.5 1863.5,-123.5"/>
<text text-anchor="start" x="1871.5" y="-141.5" font-family="Helvetica,sans-Serif" font-size="10.00" fill="#000000">SimulationDataFormat</text>
<text text-anchor="middle" x="1927" y="-130.5" font-family="Helvetica,sans-Serif" font-size="10.00" fill="#000000">/MCCompLabel.h</text>
</a>
</g>
</g>
<!-- Node36&#45;&gt;Node37 -->
<g id="edge38" class="edge">
<title>Node36&#45;&gt;Node37</title>
<path fill="none" stroke="#191970" d="M1927,-190.3906C1927,-183.2234 1927,-173.0862 1927,-163.671"/>
<polygon fill="#191970" stroke="#191970" points="1930.5001,-163.5446 1927,-153.5446 1923.5001,-163.5446 1930.5001,-163.5446"/>
</g>
<!-- Node37&#45;&gt;Node4 -->
<g id="edge39" class="edge">
<title>Node37&#45;&gt;Node4</title>
<path fill="none" stroke="#191970" d="M1910.191,-123.2977C1900.2603,-114.3163 1887.6743,-102.9334 1877.4673,-93.702"/>
<polygon fill="#191970" stroke="#191970" points="1879.652,-90.9588 1869.8877,-86.8469 1874.9566,-96.1505 1879.652,-90.9588"/>
</g>
<!-- Node38&#45;&gt;Node4 -->
<g id="edge41" class="edge">
<title>Node38&#45;&gt;Node4</title>
<path fill="none" stroke="#191970" d="M2375.2707,-131.7425C2266.5799,-120.2175 2046.036,-96.8323 1931.5822,-84.6962"/>
<polygon fill="#191970" stroke="#191970" points="1931.8284,-81.2028 1921.5151,-83.6288 1931.0902,-88.1638 1931.8284,-81.2028"/>
</g>
<!-- Node38&#45;&gt;Node35 -->
<g id="edge43" class="edge">
<title>Node38&#45;&gt;Node35</title>
<path fill="none" stroke="#191970" d="M2391.7869,-123.4554C2357.8515,-112.6418 2312.8004,-98.2861 2281.8079,-88.4103"/>
<polygon fill="#191970" stroke="#191970" points="2282.862,-85.0728 2272.2714,-85.3714 2280.7367,-91.7424 2282.862,-85.0728"/>
</g>
<!-- Node39 -->
<g id="node40" class="node">
<title>Node39</title>
<polygon fill="none" stroke="#bfbfbf" points="2588,-67.5 2588,-86.5 2638,-86.5 2638,-67.5 2588,-67.5"/>
<text text-anchor="middle" x="2613" y="-74.5" font-family="Helvetica,sans-Serif" font-size="10.00" fill="#000000">cstdint</text>
</g>
<!-- Node38&#45;&gt;Node39 -->
<g id="edge42" class="edge">
<title>Node38&#45;&gt;Node39</title>
<path fill="none" stroke="#191970" d="M2481.5652,-123.4554C2511.2248,-112.9723 2550.3027,-99.1602 2578.1207,-89.328"/>
<polygon fill="#191970" stroke="#191970" points="2579.5596,-92.5317 2587.8216,-85.8992 2577.2269,-85.9318 2579.5596,-92.5317"/>
</g>
<!-- Node40 -->
<g id="node41" class="node">
<title>Node40</title>
<polygon fill="none" stroke="#bfbfbf" points="2656.5,-67.5 2656.5,-86.5 2721.5,-86.5 2721.5,-67.5 2656.5,-67.5"/>
<text text-anchor="middle" x="2689" y="-74.5" font-family="Helvetica,sans-Serif" font-size="10.00" fill="#000000">stdexcept</text>
</g>
<!-- Node38&#45;&gt;Node40 -->
<g id="edge44" class="edge">
<title>Node38&#45;&gt;Node40</title>
<path fill="none" stroke="#191970" d="M2500.1569,-123.4554C2545.5991,-112.2766 2606.429,-97.3125 2646.6204,-87.4254"/>
<polygon fill="#191970" stroke="#191970" points="2647.4976,-90.814 2656.372,-85.0265 2645.8254,-84.0167 2647.4976,-90.814"/>
</g>
<!-- Node41 -->
<g id="node42" class="node">
<title>Node41</title>
<polygon fill="none" stroke="#bfbfbf" points="2740,-67.5 2740,-86.5 2788,-86.5 2788,-67.5 2740,-67.5"/>
<text text-anchor="middle" x="2764" y="-74.5" font-family="Helvetica,sans-Serif" font-size="10.00" fill="#000000">gsl/gsl</text>
</g>
<!-- Node38&#45;&gt;Node41 -->
<g id="edge45" class="edge">
<title>Node38&#45;&gt;Node41</title>
<path fill="none" stroke="#191970" d="M2502.6755,-129.5167C2559.8685,-120.9387 2646.2559,-106.7262 2730.0066,-87.0206"/>
<polygon fill="#191970" stroke="#191970" points="2731.0237,-90.3763 2739.9403,-84.6541 2729.4014,-83.5669 2731.0237,-90.3763"/>
</g>
<!-- Node42 -->
<g id="node43" class="node">
<title>Node42</title>
<polygon fill="none" stroke="#bfbfbf" points="2290.5,-67.5 2290.5,-86.5 2359.5,-86.5 2359.5,-67.5 2290.5,-67.5"/>
<text text-anchor="middle" x="2325" y="-74.5" font-family="Helvetica,sans-Serif" font-size="10.00" fill="#000000">type_traits</text>
</g>
<!-- Node38&#45;&gt;Node42 -->
<g id="edge46" class="edge">
<title>Node38&#45;&gt;Node42</title>
<path fill="none" stroke="#191970" d="M2411.1125,-123.4554C2393.0924,-113.734 2369.7659,-101.15 2351.9368,-91.5317"/>
<polygon fill="#191970" stroke="#191970" points="2353.1287,-88.1979 2342.666,-86.5303 2349.8052,-94.3586 2353.1287,-88.1979"/>
</g>
<!-- Node43 -->
<g id="node44" class="node">
<title>Node43</title>
<polygon fill="none" stroke="#bfbfbf" points="2378,-67.5 2378,-86.5 2428,-86.5 2428,-67.5 2378,-67.5"/>
<text text-anchor="middle" x="2403" y="-74.5" font-family="Helvetica,sans-Serif" font-size="10.00" fill="#000000">cstring</text>
</g>
<!-- Node38&#45;&gt;Node43 -->
<g id="edge47" class="edge">
<title>Node38&#45;&gt;Node43</title>
<path fill="none" stroke="#191970" d="M2430.1011,-123.2977C2425.2081,-114.9388 2419.0974,-104.4997 2413.9176,-95.6509"/>
<polygon fill="#191970" stroke="#191970" points="2416.8365,-93.7089 2408.7641,-86.8469 2410.7953,-97.2452 2416.8365,-93.7089"/>
</g>
<!-- Node44 -->
<g id="node45" class="node">
<title>Node44</title>
<polygon fill="none" stroke="#bfbfbf" points="2446,-67.5 2446,-86.5 2504,-86.5 2504,-67.5 2446,-67.5"/>
<text text-anchor="middle" x="2475" y="-74.5" font-family="Helvetica,sans-Serif" font-size="10.00" fill="#000000">memory</text>
</g>
<!-- Node38&#45;&gt;Node44 -->
<g id="edge48" class="edge">
<title>Node38&#45;&gt;Node44</title>
<path fill="none" stroke="#191970" d="M2447.8989,-123.2977C2452.7919,-114.9388 2458.9026,-104.4997 2464.0824,-95.6509"/>
<polygon fill="#191970" stroke="#191970" points="2467.2047,-97.2452 2469.2359,-86.8469 2461.1635,-93.7089 2467.2047,-97.2452"/>
</g>
<!-- Node45 -->
<g id="node46" class="node">
<title>Node45</title>
<polygon fill="none" stroke="#bfbfbf" points="2522.5,-67.5 2522.5,-86.5 2569.5,-86.5 2569.5,-67.5 2522.5,-67.5"/>
<text text-anchor="middle" x="2546" y="-74.5" font-family="Helvetica,sans-Serif" font-size="10.00" fill="#000000">vector</text>
</g>
<!-- Node38&#45;&gt;Node45 -->
<g id="edge49" class="edge">
<title>Node38&#45;&gt;Node45</title>
<path fill="none" stroke="#191970" d="M2465.1751,-123.4554C2482.0887,-113.734 2503.9829,-101.15 2520.7172,-91.5317"/>
<polygon fill="#191970" stroke="#191970" points="2522.493,-94.548 2529.4188,-86.5303 2519.0047,-88.4791 2522.493,-94.548"/>
</g>
</g>
</svg>
