<?xml version="1.0" encoding="UTF-8" standalone="no"?>
<!DOCTYPE svg PUBLIC "-//W3C//DTD SVG 1.1//EN"
 "http://www.w3.org/Graphics/SVG/1.1/DTD/svg11.dtd">
<!-- Generated by graphviz version 2.40.1 (20161225.0304)
 -->
<!-- Title: /home/travis/build/AliceO2Group/AliceO2/Detectors/HMPID/base/include/HMPIDBase/Digit.h Pages: 1 -->
<svg width="2098pt" height="307pt"
 viewBox="0.00 0.00 2097.50 307.00" xmlns="http://www.w3.org/2000/svg" xmlns:xlink="http://www.w3.org/1999/xlink">
<g id="graph0" class="graph" transform="scale(1 1) rotate(0) translate(4 303)">
<title>/home/travis/build/AliceO2Group/AliceO2/Detectors/HMPID/base/include/HMPIDBase/Digit.h</title>
<!-- Node0 -->
<g id="node1" class="node">
<title>Node0</title>
<polygon fill="#bfbfbf" stroke="#000000" points="1493,-246.5 1493,-298.5 1642,-298.5 1642,-246.5 1493,-246.5"/>
<text text-anchor="start" x="1501" y="-286.5" font-family="Helvetica,sans-Serif" font-size="10.00" fill="#000000">/home/travis/build</text>
<text text-anchor="start" x="1501" y="-275.5" font-family="Helvetica,sans-Serif" font-size="10.00" fill="#000000">/AliceO2Group/AliceO2</text>
<text text-anchor="start" x="1501" y="-264.5" font-family="Helvetica,sans-Serif" font-size="10.00" fill="#000000">/Detectors/HMPID/base</text>
<text text-anchor="middle" x="1567.5" y="-253.5" font-family="Helvetica,sans-Serif" font-size="10.00" fill="#000000">/include/HMPIDBase/Digit.h</text>
</g>
<!-- Node1 -->
<g id="node2" class="node">
<title>Node1</title>
<g id="a_node2"><a xlink:href="../../df/d5d/common_2include_2CommonDataFormat_2TimeStamp_8h.html" target="_top" xlink:title="CommonDataFormat/TimeStamp.h">
<polygon fill="none" stroke="#000000" points="497,-190.5 497,-209.5 684,-209.5 684,-190.5 497,-190.5"/>
<text text-anchor="middle" x="590.5" y="-197.5" font-family="Helvetica,sans-Serif" font-size="10.00" fill="#000000">CommonDataFormat/TimeStamp.h</text>
</a>
</g>
</g>
<!-- Node0&#45;&gt;Node1 -->
<g id="edge1" class="edge">
<title>Node0&#45;&gt;Node1</title>
<path fill="none" stroke="#191970" d="M1492.862,-266.9614C1320.114,-254.1423 892.4412,-222.4061 694.3147,-207.7038"/>
<polygon fill="#191970" stroke="#191970" points="694.4226,-204.2022 684.191,-206.9525 693.9045,-211.183 694.4226,-204.2022"/>
</g>
<!-- Node7 -->
<g id="node8" class="node">
<title>Node7</title>
<g id="a_node8"><a xlink:href="../../d5/deb/Detectors_2HMPID_2base_2include_2HMPIDBase_2Hit_8h.html" target="_top" xlink:title="HMPIDBase/Hit.h">
<polygon fill="none" stroke="#000000" points="1464,-190.5 1464,-209.5 1563,-209.5 1563,-190.5 1464,-190.5"/>
<text text-anchor="middle" x="1513.5" y="-197.5" font-family="Helvetica,sans-Serif" font-size="10.00" fill="#000000">HMPIDBase/Hit.h</text>
</a>
</g>
</g>
<!-- Node0&#45;&gt;Node7 -->
<g id="edge7" class="edge">
<title>Node0&#45;&gt;Node7</title>
<path fill="none" stroke="#191970" d="M1548.0048,-246.3258C1540.9195,-236.8132 1533.0853,-226.2951 1526.6749,-217.6886"/>
<polygon fill="#191970" stroke="#191970" points="1529.3816,-215.4632 1520.6012,-209.534 1523.7677,-219.6446 1529.3816,-215.4632"/>
</g>
<!-- Node27 -->
<g id="node28" class="node">
<title>Node27</title>
<g id="a_node28"><a xlink:href="../../de/d16/Param_8h.html" target="_top" xlink:title="HMPIDBase/Param.h">
<polygon fill="none" stroke="#000000" points="1666.5,-190.5 1666.5,-209.5 1782.5,-209.5 1782.5,-190.5 1666.5,-190.5"/>
<text text-anchor="middle" x="1724.5" y="-197.5" font-family="Helvetica,sans-Serif" font-size="10.00" fill="#000000">HMPIDBase/Param.h</text>
</a>
</g>
</g>
<!-- Node0&#45;&gt;Node27 -->
<g id="edge28" class="edge">
<title>Node0&#45;&gt;Node27</title>
<path fill="none" stroke="#191970" d="M1624.1806,-246.3258C1648.0329,-235.3112 1674.8047,-222.9485 1694.6889,-213.7663"/>
<polygon fill="#191970" stroke="#191970" points="1696.2426,-216.904 1703.854,-209.534 1693.3078,-210.5489 1696.2426,-216.904"/>
</g>
<!-- Node29 -->
<g id="node30" class="node">
<title>Node29</title>
<polygon fill="none" stroke="#bfbfbf" points="1611.5,-129 1611.5,-148 1667.5,-148 1667.5,-129 1611.5,-129"/>
<text text-anchor="middle" x="1639.5" y="-136" font-family="Helvetica,sans-Serif" font-size="10.00" fill="#000000">TMath.h</text>
</g>
<!-- Node0&#45;&gt;Node29 -->
<g id="edge34" class="edge">
<title>Node0&#45;&gt;Node29</title>
<path fill="none" stroke="#191970" d="M1581.5532,-246.3453C1595.6619,-220.0875 1617.043,-180.2949 1629.5062,-157.0995"/>
<polygon fill="#191970" stroke="#191970" points="1632.6043,-158.7282 1634.2544,-148.2626 1626.4381,-155.415 1632.6043,-158.7282"/>
</g>
<!-- Node2 -->
<g id="node3" class="node">
<title>Node2</title>
<g id="a_node3"><a xlink:href="../../d2/d45/GPUCommonRtypes_8h.html" target="_top" xlink:title="GPUCommonRtypes.h">
<polygon fill="none" stroke="#000000" points="77,-67.5 77,-86.5 202,-86.5 202,-67.5 77,-67.5"/>
<text text-anchor="middle" x="139.5" y="-74.5" font-family="Helvetica,sans-Serif" font-size="10.00" fill="#000000">GPUCommonRtypes.h</text>
</a>
</g>
</g>
<!-- Node1&#45;&gt;Node2 -->
<g id="edge2" class="edge">
<title>Node1&#45;&gt;Node2</title>
<path fill="none" stroke="#191970" d="M555.4861,-190.4507C474.4781,-168.3577 274.2123,-113.7397 184.3735,-89.2382"/>
<polygon fill="#191970" stroke="#191970" points="185.0602,-85.7977 174.4916,-86.5432 183.2183,-92.5511 185.0602,-85.7977"/>
</g>
<!-- Node4 -->
<g id="node5" class="node">
<title>Node4</title>
<g id="a_node5"><a xlink:href="../../df/d21/GPUCommonDef_8h.html" target="_top" xlink:title="GPUCommonDef.h">
<polygon fill="none" stroke="#000000" points="537,-129 537,-148 644,-148 644,-129 537,-129"/>
<text text-anchor="middle" x="590.5" y="-136" font-family="Helvetica,sans-Serif" font-size="10.00" fill="#000000">GPUCommonDef.h</text>
</a>
</g>
</g>
<!-- Node1&#45;&gt;Node4 -->
<g id="edge4" class="edge">
<title>Node1&#45;&gt;Node4</title>
<path fill="none" stroke="#191970" d="M590.5,-190.3906C590.5,-181.8657 590.5,-169.1392 590.5,-158.4235"/>
<polygon fill="#191970" stroke="#191970" points="594.0001,-158.2448 590.5,-148.2449 587.0001,-158.2449 594.0001,-158.2448"/>
</g>
<!-- Node3 -->
<g id="node4" class="node">
<title>Node3</title>
<polygon fill="none" stroke="#bfbfbf" points="0,-6 0,-25 59,-25 59,-6 0,-6"/>
<text text-anchor="middle" x="29.5" y="-13" font-family="Helvetica,sans-Serif" font-size="10.00" fill="#000000">Rtypes.h</text>
</g>
<!-- Node2&#45;&gt;Node3 -->
<g id="edge3" class="edge">
<title>Node2&#45;&gt;Node3</title>
<path fill="none" stroke="#191970" d="M122.3125,-67.3906C104.3918,-57.3713 76.0905,-41.5483 55.4477,-30.0071"/>
<polygon fill="#191970" stroke="#191970" points="57.0033,-26.867 46.5668,-25.0419 53.5872,-32.9769 57.0033,-26.867"/>
</g>
<!-- Node5 -->
<g id="node6" class="node">
<title>Node5</title>
<g id="a_node6"><a xlink:href="../../d5/d93/GPUCommonDefSettings_8h.html" target="_top" xlink:title="GPUCommonDefSettings.h">
<polygon fill="none" stroke="#000000" points="439.5,-67.5 439.5,-86.5 587.5,-86.5 587.5,-67.5 439.5,-67.5"/>
<text text-anchor="middle" x="513.5" y="-74.5" font-family="Helvetica,sans-Serif" font-size="10.00" fill="#000000">GPUCommonDefSettings.h</text>
</a>
</g>
</g>
<!-- Node4&#45;&gt;Node5 -->
<g id="edge5" class="edge">
<title>Node4&#45;&gt;Node5</title>
<path fill="none" stroke="#191970" d="M578.4688,-128.8906C566.4893,-119.3227 547.8834,-104.4621 533.6475,-93.0919"/>
<polygon fill="#191970" stroke="#191970" points="535.4447,-90.0479 525.4468,-86.5419 531.0761,-95.5175 535.4447,-90.0479"/>
</g>
<!-- Node6 -->
<g id="node7" class="node">
<title>Node6</title>
<g id="a_node7"><a xlink:href="../../da/d5a/GPUCommonDefAPI_8h.html" target="_top" xlink:title="GPUCommonDefAPI.h">
<polygon fill="none" stroke="#000000" points="605.5,-67.5 605.5,-86.5 729.5,-86.5 729.5,-67.5 605.5,-67.5"/>
<text text-anchor="middle" x="667.5" y="-74.5" font-family="Helvetica,sans-Serif" font-size="10.00" fill="#000000">GPUCommonDefAPI.h</text>
</a>
</g>
</g>
<!-- Node4&#45;&gt;Node6 -->
<g id="edge6" class="edge">
<title>Node4&#45;&gt;Node6</title>
<path fill="none" stroke="#191970" d="M602.5313,-128.8906C614.5107,-119.3227 633.1166,-104.4621 647.3525,-93.0919"/>
<polygon fill="#191970" stroke="#191970" points="649.9239,-95.5175 655.5532,-86.5419 645.5553,-90.0479 649.9239,-95.5175"/>
</g>
<!-- Node8 -->
<g id="node9" class="node">
<title>Node8</title>
<g id="a_node9"><a xlink:href="../../d4/d25/BaseHits_8h.html" target="_top" xlink:title="SimulationDataFormat\l/BaseHits.h">
<polygon fill="none" stroke="#000000" points="999,-123.5 999,-153.5 1126,-153.5 1126,-123.5 999,-123.5"/>
<text text-anchor="start" x="1007" y="-141.5" font-family="Helvetica,sans-Serif" font-size="10.00" fill="#000000">SimulationDataFormat</text>
<text text-anchor="middle" x="1062.5" y="-130.5" font-family="Helvetica,sans-Serif" font-size="10.00" fill="#000000">/BaseHits.h</text>
</a>
</g>
</g>
<!-- Node7&#45;&gt;Node8 -->
<g id="edge8" class="edge">
<title>Node7&#45;&gt;Node8</title>
<path fill="none" stroke="#191970" d="M1463.945,-193.2425C1384.6554,-182.4303 1228.8155,-161.1794 1136.3573,-148.5715"/>
<polygon fill="#191970" stroke="#191970" points="1136.6151,-145.0743 1126.2339,-147.191 1135.6693,-152.0101 1136.6151,-145.0743"/>
</g>
<!-- Node19 -->
<g id="node20" class="node">
<title>Node19</title>
<g id="a_node20"><a xlink:href="../../d0/d91/ShmAllocator_8h.html" target="_top" xlink:title="CommonUtils/ShmAllocator.h">
<polygon fill="none" stroke="#000000" points="1433.5,-129 1433.5,-148 1593.5,-148 1593.5,-129 1433.5,-129"/>
<text text-anchor="middle" x="1513.5" y="-136" font-family="Helvetica,sans-Serif" font-size="10.00" fill="#000000">CommonUtils/ShmAllocator.h</text>
</a>
</g>
</g>
<!-- Node7&#45;&gt;Node19 -->
<g id="edge20" class="edge">
<title>Node7&#45;&gt;Node19</title>
<path fill="none" stroke="#191970" d="M1513.5,-190.3906C1513.5,-181.8657 1513.5,-169.1392 1513.5,-158.4235"/>
<polygon fill="#191970" stroke="#191970" points="1517.0001,-158.2448 1513.5,-148.2449 1510.0001,-158.2449 1517.0001,-158.2448"/>
</g>
<!-- Node9 -->
<g id="node10" class="node">
<title>Node9</title>
<g id="a_node10"><a xlink:href="../../dc/d73/Cartesian_8h.html" target="_top" xlink:title="MathUtils/Cartesian.h">
<polygon fill="none" stroke="#000000" points="857.5,-67.5 857.5,-86.5 979.5,-86.5 979.5,-67.5 857.5,-67.5"/>
<text text-anchor="middle" x="918.5" y="-74.5" font-family="Helvetica,sans-Serif" font-size="10.00" fill="#000000">MathUtils/Cartesian.h</text>
</a>
</g>
</g>
<!-- Node8&#45;&gt;Node9 -->
<g id="edge9" class="edge">
<title>Node8&#45;&gt;Node9</title>
<path fill="none" stroke="#191970" d="M1027.2736,-123.4554C1003.6684,-113.374 972.8546,-100.2139 950.0524,-90.4755"/>
<polygon fill="#191970" stroke="#191970" points="951.386,-87.2393 940.8149,-86.5303 948.6366,-93.6767 951.386,-87.2393"/>
</g>
<!-- Node9&#45;&gt;Node3 -->
<g id="edge17" class="edge">
<title>Node9&#45;&gt;Node3</title>
<path fill="none" stroke="#191970" d="M857.267,-73.5705C822.448,-71.6273 778.0332,-69.1602 738.5,-67 440.7369,-50.7292 359.7786,-94.9092 68.5,-31 65.6311,-30.3705 62.6986,-29.555 59.7938,-28.6275"/>
<polygon fill="#191970" stroke="#191970" points="60.7507,-25.252 50.1564,-25.151 58.3754,-31.8367 60.7507,-25.252"/>
</g>
<!-- Node10 -->
<g id="node11" class="node">
<title>Node10</title>
<polygon fill="none" stroke="#bfbfbf" points="77.5,-.5 77.5,-30.5 241.5,-30.5 241.5,-.5 77.5,-.5"/>
<text text-anchor="start" x="85.5" y="-18.5" font-family="Helvetica,sans-Serif" font-size="10.00" fill="#000000">Math/GenVector/Displacement</text>
<text text-anchor="middle" x="159.5" y="-7.5" font-family="Helvetica,sans-Serif" font-size="10.00" fill="#000000">Vector3D.h</text>
</g>
<!-- Node9&#45;&gt;Node10 -->
<g id="edge10" class="edge">
<title>Node9&#45;&gt;Node10</title>
<path fill="none" stroke="#191970" d="M857.4338,-73.5796C719.1947,-65.7127 384.6473,-45.9456 251.7551,-31.0489"/>
<polygon fill="#191970" stroke="#191970" points="252.1225,-27.5682 241.7863,-29.8949 251.3175,-34.5217 252.1225,-27.5682"/>
</g>
<!-- Node11 -->
<g id="node12" class="node">
<title>Node11</title>
<polygon fill="none" stroke="#bfbfbf" points="260,-6 260,-25 449,-25 449,-6 260,-6"/>
<text text-anchor="middle" x="354.5" y="-13" font-family="Helvetica,sans-Serif" font-size="10.00" fill="#000000">Math/GenVector/PositionVector3D.h</text>
</g>
<!-- Node9&#45;&gt;Node11 -->
<g id="edge11" class="edge">
<title>Node9&#45;&gt;Node11</title>
<path fill="none" stroke="#191970" d="M857.3801,-71.8339C769.1587,-64.1624 601.0647,-48.7415 458.5,-31 447.6818,-29.6537 436.2514,-28.0921 425.0831,-26.4888"/>
<polygon fill="#191970" stroke="#191970" points="425.3253,-22.9872 414.9253,-25.0097 424.3166,-29.9142 425.3253,-22.9872"/>
</g>
<!-- Node12 -->
<g id="node13" class="node">
<title>Node12</title>
<polygon fill="none" stroke="#bfbfbf" points="467.5,-6 467.5,-25 627.5,-25 627.5,-6 467.5,-6"/>
<text text-anchor="middle" x="547.5" y="-13" font-family="Helvetica,sans-Serif" font-size="10.00" fill="#000000">Math/GenVector/Rotation3D.h</text>
</g>
<!-- Node9&#45;&gt;Node12 -->
<g id="edge12" class="edge">
<title>Node9&#45;&gt;Node12</title>
<path fill="none" stroke="#191970" d="M859.053,-67.4929C801.9612,-58.3176 713.2962,-43.9504 636.5,-31 628.4736,-29.6465 620.0438,-28.2047 611.7039,-26.7661"/>
<polygon fill="#191970" stroke="#191970" points="612.0594,-23.2757 601.609,-25.0191 610.8657,-30.1732 612.0594,-23.2757"/>
</g>
<!-- Node13 -->
<g id="node14" class="node">
<title>Node13</title>
<polygon fill="none" stroke="#bfbfbf" points="645.5,-6 645.5,-25 813.5,-25 813.5,-6 645.5,-6"/>
<text text-anchor="middle" x="729.5" y="-13" font-family="Helvetica,sans-Serif" font-size="10.00" fill="#000000">Math/GenVector/Transform3D.h</text>
</g>
<!-- Node9&#45;&gt;Node13 -->
<g id="edge13" class="edge">
<title>Node9&#45;&gt;Node13</title>
<path fill="none" stroke="#191970" d="M888.9688,-67.3906C856.5134,-56.8298 804.2419,-39.8208 768.4514,-28.1747"/>
<polygon fill="#191970" stroke="#191970" points="769.4161,-24.808 758.8239,-25.0419 767.2501,-31.4645 769.4161,-24.808"/>
</g>
<!-- Node14 -->
<g id="node15" class="node">
<title>Node14</title>
<polygon fill="none" stroke="#bfbfbf" points="832,-6 832,-25 1005,-25 1005,-6 832,-6"/>
<text text-anchor="middle" x="918.5" y="-13" font-family="Helvetica,sans-Serif" font-size="10.00" fill="#000000">Math/GenVector/Translation3D.h</text>
</g>
<!-- Node9&#45;&gt;Node14 -->
<g id="edge14" class="edge">
<title>Node9&#45;&gt;Node14</title>
<path fill="none" stroke="#191970" d="M918.5,-67.3906C918.5,-58.8657 918.5,-46.1392 918.5,-35.4235"/>
<polygon fill="#191970" stroke="#191970" points="922.0001,-35.2448 918.5,-25.2449 915.0001,-35.2449 922.0001,-35.2448"/>
</g>
<!-- Node15 -->
<g id="node16" class="node">
<title>Node15</title>
<polygon fill="none" stroke="#bfbfbf" points="1023.5,-.5 1023.5,-30.5 1187.5,-30.5 1187.5,-.5 1023.5,-.5"/>
<text text-anchor="start" x="1031.5" y="-18.5" font-family="Helvetica,sans-Serif" font-size="10.00" fill="#000000">Math/GenVector/Displacement</text>
<text text-anchor="middle" x="1105.5" y="-7.5" font-family="Helvetica,sans-Serif" font-size="10.00" fill="#000000">Vector2D.h</text>
</g>
<!-- Node9&#45;&gt;Node15 -->
<g id="edge15" class="edge">
<title>Node9&#45;&gt;Node15</title>
<path fill="none" stroke="#191970" d="M947.7188,-67.3906C975.0188,-58.4123 1016.4895,-44.7735 1050.064,-33.7316"/>
<polygon fill="#191970" stroke="#191970" points="1051.3487,-36.9936 1059.7547,-30.5446 1049.1617,-30.344 1051.3487,-36.9936"/>
</g>
<!-- Node16 -->
<g id="node17" class="node">
<title>Node16</title>
<polygon fill="none" stroke="#bfbfbf" points="1206,-6 1206,-25 1395,-25 1395,-6 1206,-6"/>
<text text-anchor="middle" x="1300.5" y="-13" font-family="Helvetica,sans-Serif" font-size="10.00" fill="#000000">Math/GenVector/PositionVector2D.h</text>
</g>
<!-- Node9&#45;&gt;Node16 -->
<g id="edge16" class="edge">
<title>Node9&#45;&gt;Node16</title>
<path fill="none" stroke="#191970" d="M977.7684,-67.4581C1046.3197,-56.4217 1159.0116,-38.2789 1231.46,-26.6151"/>
<polygon fill="#191970" stroke="#191970" points="1232.0904,-30.0587 1241.4069,-25.0137 1230.9777,-23.1477 1232.0904,-30.0587"/>
</g>
<!-- Node17 -->
<g id="node18" class="node">
<title>Node17</title>
<polygon fill="none" stroke="#bfbfbf" points="1413.5,-6 1413.5,-25 1495.5,-25 1495.5,-6 1413.5,-6"/>
<text text-anchor="middle" x="1454.5" y="-13" font-family="Helvetica,sans-Serif" font-size="10.00" fill="#000000">TGeoMatrix.h</text>
</g>
<!-- Node9&#45;&gt;Node17 -->
<g id="edge18" class="edge">
<title>Node9&#45;&gt;Node17</title>
<path fill="none" stroke="#191970" d="M979.5524,-75.1302C1072.0521,-71.4181 1252.8923,-60.7162 1403.5,-31 1407.909,-30.1301 1412.4805,-29.0324 1416.9942,-27.8247"/>
<polygon fill="#191970" stroke="#191970" points="1418.0446,-31.1647 1426.6975,-25.0509 1416.1206,-24.4343 1418.0446,-31.1647"/>
</g>
<!-- Node18 -->
<g id="node19" class="node">
<title>Node18</title>
<polygon fill="none" stroke="#bfbfbf" points="1514,-6 1514,-25 1563,-25 1563,-6 1514,-6"/>
<text text-anchor="middle" x="1538.5" y="-13" font-family="Helvetica,sans-Serif" font-size="10.00" fill="#000000">iosfwd</text>
</g>
<!-- Node9&#45;&gt;Node18 -->
<g id="edge19" class="edge">
<title>Node9&#45;&gt;Node18</title>
<path fill="none" stroke="#191970" d="M979.5571,-74.8996C1108.8802,-70.0124 1406.565,-56.3239 1504.5,-31 1506.6943,-30.4326 1508.9229,-29.7314 1511.1357,-28.9434"/>
<polygon fill="#191970" stroke="#191970" points="1512.6488,-32.106 1520.5788,-25.0798 1509.9981,-25.6273 1512.6488,-32.106"/>
</g>
<!-- Node20 -->
<g id="node21" class="node">
<title>Node20</title>
<g id="a_node21"><a xlink:href="../../de/d61/ShmManager_8h.html" target="_top" xlink:title="CommonUtils/ShmManager.h">
<polygon fill="none" stroke="#000000" points="1579.5,-67.5 1579.5,-86.5 1737.5,-86.5 1737.5,-67.5 1579.5,-67.5"/>
<text text-anchor="middle" x="1658.5" y="-74.5" font-family="Helvetica,sans-Serif" font-size="10.00" fill="#000000">CommonUtils/ShmManager.h</text>
</a>
</g>
</g>
<!-- Node19&#45;&gt;Node20 -->
<g id="edge21" class="edge">
<title>Node19&#45;&gt;Node20</title>
<path fill="none" stroke="#191970" d="M1536.1563,-128.8906C1560.4174,-118.6005 1599.1118,-102.1888 1626.48,-90.5809"/>
<polygon fill="#191970" stroke="#191970" points="1628.1633,-93.6688 1636.0028,-86.5419 1625.43,-87.2245 1628.1633,-93.6688"/>
</g>
<!-- Node26 -->
<g id="node27" class="node">
<title>Node26</title>
<polygon fill="none" stroke="#bfbfbf" points="1755.5,-67.5 1755.5,-86.5 1807.5,-86.5 1807.5,-67.5 1755.5,-67.5"/>
<text text-anchor="middle" x="1781.5" y="-74.5" font-family="Helvetica,sans-Serif" font-size="10.00" fill="#000000">cassert</text>
</g>
<!-- Node19&#45;&gt;Node26 -->
<g id="edge27" class="edge">
<title>Node19&#45;&gt;Node26</title>
<path fill="none" stroke="#191970" d="M1560.557,-128.9753C1605.639,-119.6541 1675.7886,-104.6393 1745.3624,-87.186"/>
<polygon fill="#191970" stroke="#191970" points="1746.3351,-90.5503 1755.1731,-84.7074 1744.6204,-83.7635 1746.3351,-90.5503"/>
</g>
<!-- Node21 -->
<g id="node22" class="node">
<title>Node21</title>
<polygon fill="none" stroke="#bfbfbf" points="1581.5,-6 1581.5,-25 1613.5,-25 1613.5,-6 1581.5,-6"/>
<text text-anchor="middle" x="1597.5" y="-13" font-family="Helvetica,sans-Serif" font-size="10.00" fill="#000000">list</text>
</g>
<!-- Node20&#45;&gt;Node21 -->
<g id="edge22" class="edge">
<title>Node20&#45;&gt;Node21</title>
<path fill="none" stroke="#191970" d="M1648.9688,-67.3906C1639.7121,-58.0581 1625.461,-43.6902 1614.2997,-32.4374"/>
<polygon fill="#191970" stroke="#191970" points="1616.6928,-29.88 1607.1656,-25.2449 1611.7228,-34.8095 1616.6928,-29.88"/>
</g>
<!-- Node22 -->
<g id="node23" class="node">
<title>Node22</title>
<polygon fill="none" stroke="#bfbfbf" points="1632,-6 1632,-25 1685,-25 1685,-6 1632,-6"/>
<text text-anchor="middle" x="1658.5" y="-13" font-family="Helvetica,sans-Serif" font-size="10.00" fill="#000000">cstddef</text>
</g>
<!-- Node20&#45;&gt;Node22 -->
<g id="edge23" class="edge">
<title>Node20&#45;&gt;Node22</title>
<path fill="none" stroke="#191970" d="M1658.5,-67.3906C1658.5,-58.8657 1658.5,-46.1392 1658.5,-35.4235"/>
<polygon fill="#191970" stroke="#191970" points="1662.0001,-35.2448 1658.5,-25.2449 1655.0001,-35.2449 1662.0001,-35.2448"/>
</g>
<!-- Node23 -->
<g id="node24" class="node">
<title>Node23</title>
<polygon fill="none" stroke="#bfbfbf" points="1703.5,-6 1703.5,-25 1753.5,-25 1753.5,-6 1703.5,-6"/>
<text text-anchor="middle" x="1728.5" y="-13" font-family="Helvetica,sans-Serif" font-size="10.00" fill="#000000">atomic</text>
</g>
<!-- Node20&#45;&gt;Node23 -->
<g id="edge24" class="edge">
<title>Node20&#45;&gt;Node23</title>
<path fill="none" stroke="#191970" d="M1669.4375,-67.3906C1680.162,-57.9683 1696.7287,-43.4134 1709.5901,-32.1137"/>
<polygon fill="#191970" stroke="#191970" points="1712.2059,-34.4745 1717.4083,-25.2449 1707.5857,-29.2158 1712.2059,-34.4745"/>
</g>
<!-- Node24 -->
<g id="node25" class="node">
<title>Node24</title>
<polygon fill="none" stroke="#bfbfbf" points="1772,-.5 1772,-30.5 1937,-30.5 1937,-.5 1772,-.5"/>
<text text-anchor="start" x="1780" y="-18.5" font-family="Helvetica,sans-Serif" font-size="10.00" fill="#000000">boost/interprocess</text>
<text text-anchor="middle" x="1854.5" y="-7.5" font-family="Helvetica,sans-Serif" font-size="10.00" fill="#000000">/managed_external_buffer.hpp</text>
</g>
<!-- Node20&#45;&gt;Node24 -->
<g id="edge25" class="edge">
<title>Node20&#45;&gt;Node24</title>
<path fill="none" stroke="#191970" d="M1689.125,-67.3906C1717.8617,-58.3737 1761.579,-44.6563 1796.8486,-33.5896"/>
<polygon fill="#191970" stroke="#191970" points="1798.0595,-36.878 1806.553,-30.5446 1795.9638,-30.199 1798.0595,-36.878"/>
</g>
<!-- Node25 -->
<g id="node26" class="node">
<title>Node25</title>
<polygon fill="none" stroke="#bfbfbf" points="1955.5,-.5 1955.5,-30.5 2089.5,-30.5 2089.5,-.5 1955.5,-.5"/>
<text text-anchor="start" x="1963.5" y="-18.5" font-family="Helvetica,sans-Serif" font-size="10.00" fill="#000000">boost/interprocess</text>
<text text-anchor="middle" x="2022.5" y="-7.5" font-family="Helvetica,sans-Serif" font-size="10.00" fill="#000000">/allocators/allocator.hpp</text>
</g>
<!-- Node20&#45;&gt;Node25 -->
<g id="edge26" class="edge">
<title>Node20&#45;&gt;Node25</title>
<path fill="none" stroke="#191970" d="M1723.2607,-67.4664C1779.4356,-59.0117 1863.1762,-45.9665 1945.3783,-31.1623"/>
<polygon fill="#191970" stroke="#191970" points="1946.1772,-34.5746 1955.3934,-29.3484 1944.9297,-27.6867 1946.1772,-34.5746"/>
</g>
<!-- Node28 -->
<g id="node29" class="node">
<title>Node28</title>
<polygon fill="none" stroke="#bfbfbf" points="1685.5,-129 1685.5,-148 1731.5,-148 1731.5,-129 1685.5,-129"/>
<text text-anchor="middle" x="1708.5" y="-136" font-family="Helvetica,sans-Serif" font-size="10.00" fill="#000000">cstdio</text>
</g>
<!-- Node27&#45;&gt;Node28 -->
<g id="edge29" class="edge">
<title>Node27&#45;&gt;Node28</title>
<path fill="none" stroke="#191970" d="M1722,-190.3906C1719.7588,-181.776 1716.4014,-168.8708 1713.5955,-158.0858"/>
<polygon fill="#191970" stroke="#191970" points="1716.9404,-157.0414 1711.0352,-148.2449 1710.1659,-158.804 1716.9404,-157.0414"/>
</g>
<!-- Node27&#45;&gt;Node29 -->
<g id="edge30" class="edge">
<title>Node27&#45;&gt;Node29</title>
<path fill="none" stroke="#191970" d="M1711.2188,-190.3906C1697.7452,-180.6421 1676.678,-165.3994 1660.8565,-153.9521"/>
<polygon fill="#191970" stroke="#191970" points="1662.8414,-151.0682 1652.688,-148.0419 1658.7381,-156.7394 1662.8414,-151.0682"/>
</g>
<!-- Node30 -->
<g id="node31" class="node">
<title>Node30</title>
<polygon fill="none" stroke="#bfbfbf" points="1750,-129 1750,-148 1817,-148 1817,-129 1750,-129"/>
<text text-anchor="middle" x="1783.5" y="-136" font-family="Helvetica,sans-Serif" font-size="10.00" fill="#000000">TNamed.h</text>
</g>
<!-- Node27&#45;&gt;Node30 -->
<g id="edge31" class="edge">
<title>Node27&#45;&gt;Node30</title>
<path fill="none" stroke="#191970" d="M1733.7188,-190.3906C1742.5858,-181.1478 1756.1912,-166.966 1766.9389,-155.7628"/>
<polygon fill="#191970" stroke="#191970" points="1769.7541,-157.8841 1774.1513,-148.2449 1764.7027,-153.0381 1769.7541,-157.8841"/>
</g>
<!-- Node31 -->
<g id="node32" class="node">
<title>Node31</title>
<polygon fill="none" stroke="#bfbfbf" points="1835.5,-129 1835.5,-148 1927.5,-148 1927.5,-129 1835.5,-129"/>
<text text-anchor="middle" x="1881.5" y="-136" font-family="Helvetica,sans-Serif" font-size="10.00" fill="#000000">TGeoManager.h</text>
</g>
<!-- Node27&#45;&gt;Node31 -->
<g id="edge32" class="edge">
<title>Node27&#45;&gt;Node31</title>
<path fill="none" stroke="#191970" d="M1749.0313,-190.3906C1775.5307,-180.0103 1817.9331,-163.4004 1847.607,-151.7766"/>
<polygon fill="#191970" stroke="#191970" points="1849.1065,-154.9482 1857.141,-148.0419 1846.5533,-148.4304 1849.1065,-154.9482"/>
</g>
<!-- Node32 -->
<g id="node33" class="node">
<title>Node32</title>
<polygon fill="none" stroke="#bfbfbf" points="1945.5,-129 1945.5,-148 2013.5,-148 2013.5,-129 1945.5,-129"/>
<text text-anchor="middle" x="1979.5" y="-136" font-family="Helvetica,sans-Serif" font-size="10.00" fill="#000000">TVector3.h</text>
</g>
<!-- Node27&#45;&gt;Node32 -->
<g id="edge33" class="edge">
<title>Node27&#45;&gt;Node32</title>
<path fill="none" stroke="#191970" d="M1777.6929,-190.483C1820.8644,-182.2758 1883.1092,-169.3423 1936.5,-154 1939.2886,-153.1987 1942.1577,-152.3101 1945.0275,-151.3755"/>
<polygon fill="#191970" stroke="#191970" points="1946.3399,-154.6258 1954.6713,-148.0807 1944.0767,-148.0018 1946.3399,-154.6258"/>
</g>
</g>
</svg>
