<?xml version="1.0" encoding="UTF-8" standalone="no"?>
<!DOCTYPE svg PUBLIC "-//W3C//DTD SVG 1.1//EN"
 "http://www.w3.org/Graphics/SVG/1.1/DTD/svg11.dtd">
<!-- Generated by graphviz version 2.40.1 (20161225.0304)
 -->
<!-- Title: /home/travis/build/AliceO2Group/AliceO2/Detectors/ITSMFT/common/simulation/src/Hit.cxx Pages: 1 -->
<svg width="2142pt" height="307pt"
 viewBox="0.00 0.00 2142.00 307.00" xmlns="http://www.w3.org/2000/svg" xmlns:xlink="http://www.w3.org/1999/xlink">
<g id="graph0" class="graph" transform="scale(1 1) rotate(0) translate(4 303)">
<title>/home/travis/build/AliceO2Group/AliceO2/Detectors/ITSMFT/common/simulation/src/Hit.cxx</title>
<!-- Node0 -->
<g id="node1" class="node">
<title>Node0</title>
<polygon fill="#bfbfbf" stroke="#000000" points="1484,-246.5 1484,-298.5 1634,-298.5 1634,-246.5 1484,-246.5"/>
<text text-anchor="start" x="1492" y="-286.5" font-family="Helvetica,sans-Serif" font-size="10.00" fill="#000000">/home/travis/build</text>
<text text-anchor="start" x="1492" y="-275.5" font-family="Helvetica,sans-Serif" font-size="10.00" fill="#000000">/AliceO2Group/AliceO2</text>
<text text-anchor="start" x="1492" y="-264.5" font-family="Helvetica,sans-Serif" font-size="10.00" fill="#000000">/Detectors/ITSMFT/common</text>
<text text-anchor="middle" x="1559" y="-253.5" font-family="Helvetica,sans-Serif" font-size="10.00" fill="#000000">/simulation/src/Hit.cxx</text>
</g>
<!-- Node1 -->
<g id="node2" class="node">
<title>Node1</title>
<g id="a_node2"><a xlink:href="../../d9/d4e/Detectors_2ITSMFT_2common_2simulation_2include_2ITSMFTSimulation_2Hit_8h.html" target="_top" xlink:title="ITSMFTSimulation/Hit.h">
<polygon fill="none" stroke="#000000" points="1438,-190.5 1438,-209.5 1568,-209.5 1568,-190.5 1438,-190.5"/>
<text text-anchor="middle" x="1503" y="-197.5" font-family="Helvetica,sans-Serif" font-size="10.00" fill="#000000">ITSMFTSimulation/Hit.h</text>
</a>
</g>
</g>
<!-- Node0&#45;&gt;Node1 -->
<g id="edge1" class="edge">
<title>Node0&#45;&gt;Node1</title>
<path fill="none" stroke="#191970" d="M1538.7827,-246.3258C1531.435,-236.8132 1523.3107,-226.2951 1516.6629,-217.6886"/>
<polygon fill="#191970" stroke="#191970" points="1519.2471,-215.3085 1510.3642,-209.534 1513.7072,-219.5876 1519.2471,-215.3085"/>
</g>
<!-- Node23 -->
<g id="node24" class="node">
<title>Node23</title>
<polygon fill="none" stroke="#bfbfbf" points="1586,-190.5 1586,-209.5 1646,-209.5 1646,-190.5 1586,-190.5"/>
<text text-anchor="middle" x="1616" y="-197.5" font-family="Helvetica,sans-Serif" font-size="10.00" fill="#000000">iostream</text>
</g>
<!-- Node0&#45;&gt;Node23 -->
<g id="edge25" class="edge">
<title>Node0&#45;&gt;Node23</title>
<path fill="none" stroke="#191970" d="M1579.5783,-246.3258C1587.1359,-236.7131 1595.5008,-226.0735 1602.3063,-217.4174"/>
<polygon fill="#191970" stroke="#191970" points="1605.0751,-219.5586 1608.5043,-209.534 1599.5722,-215.2321 1605.0751,-219.5586"/>
</g>
<!-- Node2 -->
<g id="node3" class="node">
<title>Node2</title>
<g id="a_node3"><a xlink:href="../../d4/d25/BaseHits_8h.html" target="_top" xlink:title="SimulationDataFormat\l/BaseHits.h">
<polygon fill="none" stroke="#000000" points="1103.5,-123.5 1103.5,-153.5 1230.5,-153.5 1230.5,-123.5 1103.5,-123.5"/>
<text text-anchor="start" x="1111.5" y="-141.5" font-family="Helvetica,sans-Serif" font-size="10.00" fill="#000000">SimulationDataFormat</text>
<text text-anchor="middle" x="1167" y="-130.5" font-family="Helvetica,sans-Serif" font-size="10.00" fill="#000000">/BaseHits.h</text>
</a>
</g>
</g>
<!-- Node1&#45;&gt;Node2 -->
<g id="edge2" class="edge">
<title>Node1&#45;&gt;Node2</title>
<path fill="none" stroke="#191970" d="M1450.8687,-190.4581C1394.529,-180.1459 1304.2924,-163.6294 1240.7077,-151.9911"/>
<polygon fill="#191970" stroke="#191970" points="1241.2076,-148.5246 1230.7408,-150.1669 1239.9472,-155.4102 1241.2076,-148.5246"/>
</g>
<!-- Node11 -->
<g id="node12" class="node">
<title>Node11</title>
<polygon fill="none" stroke="#bfbfbf" points="1435.5,-6 1435.5,-25 1494.5,-25 1494.5,-6 1435.5,-6"/>
<text text-anchor="middle" x="1465" y="-13" font-family="Helvetica,sans-Serif" font-size="10.00" fill="#000000">Rtypes.h</text>
</g>
<!-- Node1&#45;&gt;Node11 -->
<g id="edge14" class="edge">
<title>Node1&#45;&gt;Node11</title>
<path fill="none" stroke="#191970" d="M1501.0105,-190.3402C1495.021,-161.26 1477.0768,-74.136 1469.0078,-34.959"/>
<polygon fill="#191970" stroke="#191970" points="1472.4153,-34.1525 1466.9698,-25.0641 1465.5592,-35.5646 1472.4153,-34.1525"/>
</g>
<!-- Node13 -->
<g id="node14" class="node">
<title>Node13</title>
<polygon fill="none" stroke="#bfbfbf" points="1512.5,-6 1512.5,-25 1561.5,-25 1561.5,-6 1512.5,-6"/>
<text text-anchor="middle" x="1537" y="-13" font-family="Helvetica,sans-Serif" font-size="10.00" fill="#000000">iosfwd</text>
</g>
<!-- Node1&#45;&gt;Node13 -->
<g id="edge16" class="edge">
<title>Node1&#45;&gt;Node13</title>
<path fill="none" stroke="#191970" d="M1504.7801,-190.3402C1510.1391,-161.26 1526.1945,-74.136 1533.4141,-34.959"/>
<polygon fill="#191970" stroke="#191970" points="1536.8672,-35.5329 1535.2375,-25.0641 1529.9831,-34.2642 1536.8672,-35.5329"/>
</g>
<!-- Node14 -->
<g id="node15" class="node">
<title>Node14</title>
<polygon fill="none" stroke="#bfbfbf" points="1531,-129 1531,-148 1599,-148 1599,-129 1531,-129"/>
<text text-anchor="middle" x="1565" y="-136" font-family="Helvetica,sans-Serif" font-size="10.00" fill="#000000">TVector3.h</text>
</g>
<!-- Node1&#45;&gt;Node14 -->
<g id="edge15" class="edge">
<title>Node1&#45;&gt;Node14</title>
<path fill="none" stroke="#191970" d="M1512.6875,-190.3906C1522.0959,-181.0581 1536.5807,-166.6902 1547.9249,-155.4374"/>
<polygon fill="#191970" stroke="#191970" points="1550.5411,-157.7722 1555.1759,-148.2449 1545.6114,-152.8024 1550.5411,-157.7722"/>
</g>
<!-- Node15 -->
<g id="node16" class="node">
<title>Node15</title>
<g id="a_node16"><a xlink:href="../../d0/d91/ShmAllocator_8h.html" target="_top" xlink:title="CommonUtils/ShmAllocator.h">
<polygon fill="none" stroke="#000000" points="1617,-129 1617,-148 1777,-148 1777,-129 1617,-129"/>
<text text-anchor="middle" x="1697" y="-136" font-family="Helvetica,sans-Serif" font-size="10.00" fill="#000000">CommonUtils/ShmAllocator.h</text>
</a>
</g>
</g>
<!-- Node1&#45;&gt;Node15 -->
<g id="edge17" class="edge">
<title>Node1&#45;&gt;Node15</title>
<path fill="none" stroke="#191970" d="M1533.3125,-190.3906C1566.6265,-179.8298 1620.2808,-162.8208 1657.0181,-151.1747"/>
<polygon fill="#191970" stroke="#191970" points="1658.4256,-154.4002 1666.9004,-148.0419 1656.3102,-147.7275 1658.4256,-154.4002"/>
</g>
<!-- Node3 -->
<g id="node4" class="node">
<title>Node3</title>
<g id="a_node4"><a xlink:href="../../dc/d73/Cartesian_8h.html" target="_top" xlink:title="MathUtils/Cartesian.h">
<polygon fill="none" stroke="#000000" points="899,-67.5 899,-86.5 1021,-86.5 1021,-67.5 899,-67.5"/>
<text text-anchor="middle" x="960" y="-74.5" font-family="Helvetica,sans-Serif" font-size="10.00" fill="#000000">MathUtils/Cartesian.h</text>
</a>
</g>
</g>
<!-- Node2&#45;&gt;Node3 -->
<g id="edge3" class="edge">
<title>Node2&#45;&gt;Node3</title>
<path fill="none" stroke="#191970" d="M1116.3621,-123.4554C1081.2177,-113.0139 1034.9576,-99.27 1001.8897,-89.4455"/>
<polygon fill="#191970" stroke="#191970" points="1002.6603,-86.0233 992.0777,-86.5303 1000.6667,-92.7334 1002.6603,-86.0233"/>
</g>
<!-- Node4 -->
<g id="node5" class="node">
<title>Node4</title>
<polygon fill="none" stroke="#bfbfbf" points="490,-.5 490,-30.5 654,-30.5 654,-.5 490,-.5"/>
<text text-anchor="start" x="498" y="-18.5" font-family="Helvetica,sans-Serif" font-size="10.00" fill="#000000">Math/GenVector/Displacement</text>
<text text-anchor="middle" x="572" y="-7.5" font-family="Helvetica,sans-Serif" font-size="10.00" fill="#000000">Vector3D.h</text>
</g>
<!-- Node3&#45;&gt;Node4 -->
<g id="edge4" class="edge">
<title>Node3&#45;&gt;Node4</title>
<path fill="none" stroke="#191970" d="M898.8099,-67.7978C840.9606,-59.0354 751.4469,-45.3165 664.3839,-31.2126"/>
<polygon fill="#191970" stroke="#191970" points="664.7623,-27.7283 654.3306,-29.5804 663.6405,-34.6378 664.7623,-27.7283"/>
</g>
<!-- Node5 -->
<g id="node6" class="node">
<title>Node5</title>
<polygon fill="none" stroke="#bfbfbf" points="672.5,-6 672.5,-25 861.5,-25 861.5,-6 672.5,-6"/>
<text text-anchor="middle" x="767" y="-13" font-family="Helvetica,sans-Serif" font-size="10.00" fill="#000000">Math/GenVector/PositionVector3D.h</text>
</g>
<!-- Node3&#45;&gt;Node5 -->
<g id="edge5" class="edge">
<title>Node3&#45;&gt;Node5</title>
<path fill="none" stroke="#191970" d="M929.8438,-67.3906C896.7015,-56.8298 843.3238,-39.8208 806.7758,-28.1747"/>
<polygon fill="#191970" stroke="#191970" points="807.5351,-24.7433 796.9445,-25.0419 805.4098,-31.4129 807.5351,-24.7433"/>
</g>
<!-- Node6 -->
<g id="node7" class="node">
<title>Node6</title>
<polygon fill="none" stroke="#bfbfbf" points="880,-6 880,-25 1040,-25 1040,-6 880,-6"/>
<text text-anchor="middle" x="960" y="-13" font-family="Helvetica,sans-Serif" font-size="10.00" fill="#000000">Math/GenVector/Rotation3D.h</text>
</g>
<!-- Node3&#45;&gt;Node6 -->
<g id="edge6" class="edge">
<title>Node3&#45;&gt;Node6</title>
<path fill="none" stroke="#191970" d="M960,-67.3906C960,-58.8657 960,-46.1392 960,-35.4235"/>
<polygon fill="#191970" stroke="#191970" points="963.5001,-35.2448 960,-25.2449 956.5001,-35.2449 963.5001,-35.2448"/>
</g>
<!-- Node7 -->
<g id="node8" class="node">
<title>Node7</title>
<polygon fill="none" stroke="#bfbfbf" points="1058,-6 1058,-25 1226,-25 1226,-6 1058,-6"/>
<text text-anchor="middle" x="1142" y="-13" font-family="Helvetica,sans-Serif" font-size="10.00" fill="#000000">Math/GenVector/Transform3D.h</text>
</g>
<!-- Node3&#45;&gt;Node7 -->
<g id="edge7" class="edge">
<title>Node3&#45;&gt;Node7</title>
<path fill="none" stroke="#191970" d="M988.4375,-67.3906C1019.5572,-56.8749 1069.5964,-39.966 1104.0485,-28.3243"/>
<polygon fill="#191970" stroke="#191970" points="1105.4089,-31.5591 1113.7622,-25.0419 1103.168,-24.9274 1105.4089,-31.5591"/>
</g>
<!-- Node8 -->
<g id="node9" class="node">
<title>Node8</title>
<polygon fill="none" stroke="#bfbfbf" points="1244.5,-6 1244.5,-25 1417.5,-25 1417.5,-6 1244.5,-6"/>
<text text-anchor="middle" x="1331" y="-13" font-family="Helvetica,sans-Serif" font-size="10.00" fill="#000000">Math/GenVector/Translation3D.h</text>
</g>
<!-- Node3&#45;&gt;Node8 -->
<g id="edge8" class="edge">
<title>Node3&#45;&gt;Node8</title>
<path fill="none" stroke="#191970" d="M1017.5617,-67.4581C1084.0029,-56.4443 1193.1384,-38.3531 1263.5159,-26.6867"/>
<polygon fill="#191970" stroke="#191970" points="1264.3156,-30.102 1273.6085,-25.0137 1263.1708,-23.1962 1264.3156,-30.102"/>
</g>
<!-- Node9 -->
<g id="node10" class="node">
<title>Node9</title>
<polygon fill="none" stroke="#bfbfbf" points="0,-.5 0,-30.5 164,-30.5 164,-.5 0,-.5"/>
<text text-anchor="start" x="8" y="-18.5" font-family="Helvetica,sans-Serif" font-size="10.00" fill="#000000">Math/GenVector/Displacement</text>
<text text-anchor="middle" x="82" y="-7.5" font-family="Helvetica,sans-Serif" font-size="10.00" fill="#000000">Vector2D.h</text>
</g>
<!-- Node3&#45;&gt;Node9 -->
<g id="edge9" class="edge">
<title>Node3&#45;&gt;Node9</title>
<path fill="none" stroke="#191970" d="M898.8267,-75.7207C767.8183,-72.4839 450.2942,-61.9844 174.4875,-31.0882"/>
<polygon fill="#191970" stroke="#191970" points="174.612,-27.58 164.2818,-29.9334 173.8249,-34.5356 174.612,-27.58"/>
</g>
<!-- Node10 -->
<g id="node11" class="node">
<title>Node10</title>
<polygon fill="none" stroke="#bfbfbf" points="182.5,-6 182.5,-25 371.5,-25 371.5,-6 182.5,-6"/>
<text text-anchor="middle" x="277" y="-13" font-family="Helvetica,sans-Serif" font-size="10.00" fill="#000000">Math/GenVector/PositionVector2D.h</text>
</g>
<!-- Node3&#45;&gt;Node10 -->
<g id="edge10" class="edge">
<title>Node3&#45;&gt;Node10</title>
<path fill="none" stroke="#191970" d="M898.5922,-73.5115C792.7252,-67.1867 569.1019,-52.4637 381,-31 369.7074,-29.7114 357.7561,-28.1328 346.1343,-26.4815"/>
<polygon fill="#191970" stroke="#191970" points="346.4297,-22.9878 336.031,-25.017 345.4255,-29.9154 346.4297,-22.9878"/>
</g>
<!-- Node3&#45;&gt;Node11 -->
<g id="edge11" class="edge">
<title>Node3&#45;&gt;Node11</title>
<path fill="none" stroke="#191970" d="M1021.1305,-73.0973C1129.4502,-65.8274 1350.7546,-49.2818 1426,-31 1428.7878,-30.3227 1431.6406,-29.487 1434.4725,-28.5578"/>
<polygon fill="#191970" stroke="#191970" points="1435.6932,-31.8382 1443.8953,-25.1319 1433.3013,-25.2595 1435.6932,-31.8382"/>
</g>
<!-- Node12 -->
<g id="node13" class="node">
<title>Node12</title>
<polygon fill="none" stroke="#bfbfbf" points="390,-6 390,-25 472,-25 472,-6 390,-6"/>
<text text-anchor="middle" x="431" y="-13" font-family="Helvetica,sans-Serif" font-size="10.00" fill="#000000">TGeoMatrix.h</text>
</g>
<!-- Node3&#45;&gt;Node12 -->
<g id="edge12" class="edge">
<title>Node3&#45;&gt;Node12</title>
<path fill="none" stroke="#191970" d="M898.9246,-75.1344C807.3153,-71.4386 629.2521,-60.7703 481,-31 476.7899,-30.1546 472.4306,-29.0932 468.1207,-27.9244"/>
<polygon fill="#191970" stroke="#191970" points="468.8265,-24.4847 458.2469,-25.0533 466.8719,-31.2063 468.8265,-24.4847"/>
</g>
<!-- Node3&#45;&gt;Node13 -->
<g id="edge13" class="edge">
<title>Node3&#45;&gt;Node13</title>
<path fill="none" stroke="#191970" d="M1021.1884,-74.4535C1143.3504,-68.9374 1413.4226,-54.4581 1503,-31 1505.1925,-30.4258 1507.4199,-29.7197 1509.6317,-28.9283"/>
<polygon fill="#191970" stroke="#191970" points="1511.148,-32.0894 1519.073,-25.0578 1508.4927,-25.6126 1511.148,-32.0894"/>
</g>
<!-- Node16 -->
<g id="node17" class="node">
<title>Node16</title>
<g id="a_node17"><a xlink:href="../../de/d61/ShmManager_8h.html" target="_top" xlink:title="CommonUtils/ShmManager.h">
<polygon fill="none" stroke="#000000" points="1694,-67.5 1694,-86.5 1852,-86.5 1852,-67.5 1694,-67.5"/>
<text text-anchor="middle" x="1773" y="-74.5" font-family="Helvetica,sans-Serif" font-size="10.00" fill="#000000">CommonUtils/ShmManager.h</text>
</a>
</g>
</g>
<!-- Node15&#45;&gt;Node16 -->
<g id="edge18" class="edge">
<title>Node15&#45;&gt;Node16</title>
<path fill="none" stroke="#191970" d="M1708.875,-128.8906C1720.6297,-119.3786 1738.8486,-104.6357 1752.8672,-93.2917"/>
<polygon fill="#191970" stroke="#191970" points="1755.3856,-95.7562 1760.9576,-86.7449 1750.9822,-90.3146 1755.3856,-95.7562"/>
</g>
<!-- Node22 -->
<g id="node23" class="node">
<title>Node22</title>
<polygon fill="none" stroke="#bfbfbf" points="1624,-67.5 1624,-86.5 1676,-86.5 1676,-67.5 1624,-67.5"/>
<text text-anchor="middle" x="1650" y="-74.5" font-family="Helvetica,sans-Serif" font-size="10.00" fill="#000000">cassert</text>
</g>
<!-- Node15&#45;&gt;Node22 -->
<g id="edge24" class="edge">
<title>Node15&#45;&gt;Node22</title>
<path fill="none" stroke="#191970" d="M1689.6563,-128.8906C1682.7298,-119.8273 1672.174,-106.0149 1663.694,-94.9188"/>
<polygon fill="#191970" stroke="#191970" points="1666.3003,-92.565 1657.4473,-86.7449 1660.7385,-96.8155 1666.3003,-92.565"/>
</g>
<!-- Node17 -->
<g id="node18" class="node">
<title>Node17</title>
<polygon fill="none" stroke="#bfbfbf" points="1626,-6 1626,-25 1658,-25 1658,-6 1626,-6"/>
<text text-anchor="middle" x="1642" y="-13" font-family="Helvetica,sans-Serif" font-size="10.00" fill="#000000">list</text>
</g>
<!-- Node16&#45;&gt;Node17 -->
<g id="edge19" class="edge">
<title>Node16&#45;&gt;Node17</title>
<path fill="none" stroke="#191970" d="M1748.1074,-67.3943C1726.3192,-58.7062 1694.0155,-45.1408 1667,-31 1666.4627,-30.7188 1665.9215,-30.4303 1665.3778,-30.1358"/>
<polygon fill="#191970" stroke="#191970" points="1667.0045,-27.0332 1656.5982,-25.0434 1663.4923,-33.0884 1667.0045,-27.0332"/>
</g>
<!-- Node18 -->
<g id="node19" class="node">
<title>Node18</title>
<polygon fill="none" stroke="#bfbfbf" points="1676.5,-6 1676.5,-25 1729.5,-25 1729.5,-6 1676.5,-6"/>
<text text-anchor="middle" x="1703" y="-13" font-family="Helvetica,sans-Serif" font-size="10.00" fill="#000000">cstddef</text>
</g>
<!-- Node16&#45;&gt;Node18 -->
<g id="edge20" class="edge">
<title>Node16&#45;&gt;Node18</title>
<path fill="none" stroke="#191970" d="M1762.0625,-67.3906C1751.338,-57.9683 1734.7713,-43.4134 1721.9099,-32.1137"/>
<polygon fill="#191970" stroke="#191970" points="1723.9143,-29.2158 1714.0917,-25.2449 1719.2941,-34.4745 1723.9143,-29.2158"/>
</g>
<!-- Node19 -->
<g id="node20" class="node">
<title>Node19</title>
<polygon fill="none" stroke="#bfbfbf" points="1748,-6 1748,-25 1798,-25 1798,-6 1748,-6"/>
<text text-anchor="middle" x="1773" y="-13" font-family="Helvetica,sans-Serif" font-size="10.00" fill="#000000">atomic</text>
</g>
<!-- Node16&#45;&gt;Node19 -->
<g id="edge21" class="edge">
<title>Node16&#45;&gt;Node19</title>
<path fill="none" stroke="#191970" d="M1773,-67.3906C1773,-58.8657 1773,-46.1392 1773,-35.4235"/>
<polygon fill="#191970" stroke="#191970" points="1776.5001,-35.2448 1773,-25.2449 1769.5001,-35.2449 1776.5001,-35.2448"/>
</g>
<!-- Node20 -->
<g id="node21" class="node">
<title>Node20</title>
<polygon fill="none" stroke="#bfbfbf" points="1816.5,-.5 1816.5,-30.5 1981.5,-30.5 1981.5,-.5 1816.5,-.5"/>
<text text-anchor="start" x="1824.5" y="-18.5" font-family="Helvetica,sans-Serif" font-size="10.00" fill="#000000">boost/interprocess</text>
<text text-anchor="middle" x="1899" y="-7.5" font-family="Helvetica,sans-Serif" font-size="10.00" fill="#000000">/managed_external_buffer.hpp</text>
</g>
<!-- Node16&#45;&gt;Node20 -->
<g id="edge22" class="edge">
<title>Node16&#45;&gt;Node20</title>
<path fill="none" stroke="#191970" d="M1792.6875,-67.3906C1810.3716,-58.7591 1836.8806,-45.8202 1859.003,-35.0224"/>
<polygon fill="#191970" stroke="#191970" points="1860.7255,-38.0763 1868.1769,-30.5446 1857.655,-31.7857 1860.7255,-38.0763"/>
</g>
<!-- Node21 -->
<g id="node22" class="node">
<title>Node21</title>
<polygon fill="none" stroke="#bfbfbf" points="2000,-.5 2000,-30.5 2134,-30.5 2134,-.5 2000,-.5"/>
<text text-anchor="start" x="2008" y="-18.5" font-family="Helvetica,sans-Serif" font-size="10.00" fill="#000000">boost/interprocess</text>
<text text-anchor="middle" x="2067" y="-7.5" font-family="Helvetica,sans-Serif" font-size="10.00" fill="#000000">/allocators/allocator.hpp</text>
</g>
<!-- Node16&#45;&gt;Node21 -->
<g id="edge23" class="edge">
<title>Node16&#45;&gt;Node21</title>
<path fill="none" stroke="#191970" d="M1818.6149,-67.4581C1864.3178,-57.8978 1935.5131,-43.0049 1989.9848,-31.6103"/>
<polygon fill="#191970" stroke="#191970" points="1990.8799,-34.9989 1999.9513,-29.5255 1989.4465,-28.1472 1990.8799,-34.9989"/>
</g>
</g>
</svg>
