<?xml version="1.0" encoding="UTF-8" standalone="no"?>
<!DOCTYPE svg PUBLIC "-//W3C//DTD SVG 1.1//EN"
 "http://www.w3.org/Graphics/SVG/1.1/DTD/svg11.dtd">
<!-- Generated by graphviz version 2.40.1 (20161225.0304)
 -->
<!-- Title: /home/travis/build/AliceO2Group/AliceO2/Detectors/EMCAL/reconstruction/src/Clusterizer.cxx Pages: 1 -->
<!--zoomable 374 -->
<svg id="main" version="1.1" xmlns="http://www.w3.org/2000/svg" xmlns:xlink="http://www.w3.org/1999/xlink" xml:space="preserve" onload="init(evt)">
<style type="text/css"><![CDATA[
.edge:hover path { stroke: red; }
.edge:hover polygon { stroke: red; fill: red; }
]]></style>
<script type="text/javascript"><![CDATA[
var edges = document.getElementsByTagName('g');
if (edges && edges.length) {
  for (var i=0;i<edges.length;i++) {
    if (edges[i].id.substr(0,4)=='edge') {
      edges[i].setAttribute('class','edge');
    }
  }
}
]]></script>
        <defs>
                <circle id="rim" cx="0" cy="0" r="7"/>
                <circle id="rim2" cx="0" cy="0" r="3.5"/>
                <g id="zoomPlus">
                        <use xlink:href="#rim" fill="#404040">
                                <set attributeName="fill" to="#808080" begin="zoomplus.mouseover" end="zoomplus.mouseout"/>
                        </use>
                        <path d="M-4,0h8M0,-4v8" fill="none" stroke="white" stroke-width="1.5" pointer-events="none"/>
                </g>
                <g id="zoomMin">
                        <use xlink:href="#rim" fill="#404040">
                                <set attributeName="fill" to="#808080" begin="zoomminus.mouseover" end="zoomminus.mouseout"/>
                        </use>
                        <path d="M-4,0h8" fill="none" stroke="white" stroke-width="1.5" pointer-events="none"/>
                </g>
                <g id="dirArrow">
                        <path fill="none" stroke="white" stroke-width="1.5" d="M0,-3.0v7 M-2.5,-0.5L0,-3.0L2.5,-0.5"/>
                </g>
               <g id="resetDef">
                       <use xlink:href="#rim2" fill="#404040">
                               <set attributeName="fill" to="#808080" begin="reset.mouseover" end="reset.mouseout"/>
                       </use>
               </g>
        </defs>

<script type="text/javascript">
var viewWidth = 2283;
var viewHeight = 374;
var sectionId = 'dynsection-0';
</script>
<script xlink:href="../../svgpan.js"/>
<svg id="graph" class="graph">
<g id="viewport">
<title>/home/travis/build/AliceO2Group/AliceO2/Detectors/EMCAL/reconstruction/src/Clusterizer.cxx</title>
<!-- Node0 -->
<g id="node1" class="node">
<title>Node0</title>
<polygon fill="#bfbfbf" stroke="#000000" points="997,-313.5 997,-365.5 1173,-365.5 1173,-313.5 997,-313.5"/>
<text text-anchor="start" x="1005" y="-353.5" font-family="Helvetica,sans-Serif" font-size="10.00" fill="#000000">/home/travis/build</text>
<text text-anchor="start" x="1005" y="-342.5" font-family="Helvetica,sans-Serif" font-size="10.00" fill="#000000">/AliceO2Group/AliceO2</text>
<text text-anchor="start" x="1005" y="-331.5" font-family="Helvetica,sans-Serif" font-size="10.00" fill="#000000">/Detectors/EMCAL/reconstruction</text>
<text text-anchor="middle" x="1085" y="-320.5" font-family="Helvetica,sans-Serif" font-size="10.00" fill="#000000">/src/Clusterizer.cxx</text>
</g>
<!-- Node1 -->
<g id="node2" class="node">
<title>Node1</title>
<polygon fill="none" stroke="#bfbfbf" points="963,-252 963,-271 1013,-271 1013,-252 963,-252"/>
<text text-anchor="middle" x="988" y="-259" font-family="Helvetica,sans-Serif" font-size="10.00" fill="#000000">cstring</text>
</g>
<!-- Node0&#45;&gt;Node1 -->
<g id="edge1" class="edge">
<title>Node0&#45;&gt;Node1</title>
<path fill="none" stroke="#191970" d="M1052.4306,-313.3101C1037.7629,-301.5155 1020.9084,-287.9625 1008.1176,-277.677"/>
<polygon fill="#191970" stroke="#191970" points="1009.9747,-274.6791 999.9883,-271.1401 1005.5881,-280.1342 1009.9747,-274.6791"/>
</g>
<!-- Node2 -->
<g id="node3" class="node">
<title>Node2</title>
<polygon fill="none" stroke="#bfbfbf" points="763.5,-190.5 763.5,-209.5 820.5,-209.5 820.5,-190.5 763.5,-190.5"/>
<text text-anchor="middle" x="792" y="-197.5" font-family="Helvetica,sans-Serif" font-size="10.00" fill="#000000">gsl/span</text>
</g>
<!-- Node0&#45;&gt;Node2 -->
<g id="edge2" class="edge">
<title>Node0&#45;&gt;Node2</title>
<path fill="none" stroke="#191970" d="M1074.343,-313.4398C1064.1453,-291.8988 1046.6572,-262.297 1022,-246 951.3916,-199.3318 917.7894,-227.589 835,-210 833.5474,-209.6914 832.0684,-209.3722 830.5753,-209.0458"/>
<polygon fill="#191970" stroke="#191970" points="831.1701,-205.5924 820.647,-206.8231 829.6408,-212.4234 831.1701,-205.5924"/>
</g>
<!-- Node3 -->
<g id="node4" class="node">
<title>Node3</title>
<polygon fill="none" stroke="#bfbfbf" points="1209.5,-252 1209.5,-271 1284.5,-271 1284.5,-252 1209.5,-252"/>
<text text-anchor="middle" x="1247" y="-259" font-family="Helvetica,sans-Serif" font-size="10.00" fill="#000000">FairLogger.h</text>
</g>
<!-- Node0&#45;&gt;Node3 -->
<g id="edge3" class="edge">
<title>Node0&#45;&gt;Node3</title>
<path fill="none" stroke="#191970" d="M1139.3943,-313.3101C1165.6574,-300.665 1196.1184,-285.9985 1217.9134,-275.5046"/>
<polygon fill="#191970" stroke="#191970" points="1219.4866,-278.6318 1226.9782,-271.1401 1216.4498,-272.3248 1219.4866,-278.6318"/>
</g>
<!-- Node4 -->
<g id="node5" class="node">
<title>Node4</title>
<g id="a_node5"><a xlink:href="../../da/d9a/EMCAL_2reconstruction_2include_2EMCALReconstruction_2Clusterizer_8h.html" target="_top" xlink:title="EMCALReconstruction\l/Clusterizer.h">
<polygon fill="none" stroke="#000000" points="1069,-246.5 1069,-276.5 1191,-276.5 1191,-246.5 1069,-246.5"/>
<text text-anchor="start" x="1077" y="-264.5" font-family="Helvetica,sans-Serif" font-size="10.00" fill="#000000">EMCALReconstruction</text>
<text text-anchor="middle" x="1130" y="-253.5" font-family="Helvetica,sans-Serif" font-size="10.00" fill="#000000">/Clusterizer.h</text>
</a>
</g>
</g>
<!-- Node0&#45;&gt;Node4 -->
<g id="edge4" class="edge">
<title>Node0&#45;&gt;Node4</title>
<path fill="none" stroke="#191970" d="M1100.2349,-313.0928C1105.403,-304.1348 1111.144,-294.1838 1116.1943,-285.43"/>
<polygon fill="#191970" stroke="#191970" points="1119.3779,-286.9155 1121.3435,-276.5046 1113.3146,-283.4174 1119.3779,-286.9155"/>
</g>
<!-- Node4&#45;&gt;Node2 -->
<g id="edge6" class="edge">
<title>Node4&#45;&gt;Node2</title>
<path fill="none" stroke="#191970" d="M1068.6459,-248.6036C1064.0325,-247.7002 1059.4452,-246.8227 1055,-246 957.5761,-227.9699 932.1938,-229.2318 835,-210 833.5432,-209.7118 832.0607,-209.4099 830.5646,-209.098"/>
<polygon fill="#191970" stroke="#191970" points="831.1395,-205.6413 820.624,-206.9353 829.6513,-212.4813 831.1395,-205.6413"/>
</g>
<!-- Node5 -->
<g id="node6" class="node">
<title>Node5</title>
<polygon fill="none" stroke="#bfbfbf" points="258,-129 258,-148 300,-148 300,-129 258,-129"/>
<text text-anchor="middle" x="279" y="-136" font-family="Helvetica,sans-Serif" font-size="10.00" fill="#000000">array</text>
</g>
<!-- Node4&#45;&gt;Node5 -->
<g id="edge5" class="edge">
<title>Node4&#45;&gt;Node5</title>
<path fill="none" stroke="#191970" d="M1068.6898,-249.2988C1063.0476,-248.1813 1057.4182,-247.0684 1052,-246 970.2459,-229.8794 946.7363,-237.2802 868,-210 849.5938,-203.6227 847.7644,-195.23 829,-190 607.977,-128.3967 536.6874,-209.2852 314,-154 311.6599,-153.419 309.2802,-152.6914 306.9189,-151.8704"/>
<polygon fill="#191970" stroke="#191970" points="308.0514,-148.5541 297.4661,-148.1058 305.4614,-155.0574 308.0514,-148.5541"/>
</g>
<!-- Node6 -->
<g id="node7" class="node">
<title>Node6</title>
<polygon fill="none" stroke="#bfbfbf" points="2024.5,-.5 2024.5,-19.5 2083.5,-19.5 2083.5,-.5 2024.5,-.5"/>
<text text-anchor="middle" x="2054" y="-7.5" font-family="Helvetica,sans-Serif" font-size="10.00" fill="#000000">Rtypes.h</text>
</g>
<!-- Node4&#45;&gt;Node6 -->
<g id="edge7" class="edge">
<title>Node4&#45;&gt;Node6</title>
<path fill="none" stroke="#191970" d="M1191.3493,-247.2556C1194.2658,-246.7863 1197.1603,-246.3632 1200,-246 1417.2648,-218.209 1976.1969,-276.1636 2185,-210 2236.8298,-193.5767 2288.8559,-174.3538 2271,-123 2258.5306,-87.1379 2249.602,-77.0451 2218,-56 2180.3039,-30.8966 2129.0131,-19.3658 2093.8864,-14.1526"/>
<polygon fill="#191970" stroke="#191970" points="2093.9205,-10.6245 2083.5369,-12.7295 2092.9669,-17.5592 2093.9205,-10.6245"/>
</g>
<!-- Node7 -->
<g id="node8" class="node">
<title>Node7</title>
<g id="a_node8"><a xlink:href="../../dc/d27/DataFormats_2Detectors_2EMCAL_2include_2DataFormatsEMCAL_2Cluster_8h.html" target="_top" xlink:title="DataFormatsEMCAL/Cluster.h">
<polygon fill="none" stroke="#000000" points="877,-190.5 877,-209.5 1035,-209.5 1035,-190.5 877,-190.5"/>
<text text-anchor="middle" x="956" y="-197.5" font-family="Helvetica,sans-Serif" font-size="10.00" fill="#000000">DataFormatsEMCAL/Cluster.h</text>
</a>
</g>
</g>
<!-- Node4&#45;&gt;Node7 -->
<g id="edge8" class="edge">
<title>Node4&#45;&gt;Node7</title>
<path fill="none" stroke="#191970" d="M1087.4348,-246.4554C1058.4025,-236.194 1020.3459,-222.7429 992.6591,-212.9571"/>
<polygon fill="#191970" stroke="#191970" points="993.5586,-209.5629 982.9638,-209.5303 991.2259,-216.1628 993.5586,-209.5629"/>
</g>
<!-- Node17 -->
<g id="node18" class="node">
<title>Node17</title>
<g id="a_node18"><a xlink:href="../../d3/d6e/DataFormats_2Detectors_2EMCAL_2include_2DataFormatsEMCAL_2Digit_8h.html" target="_top" xlink:title="DataFormatsEMCAL/Digit.h">
<polygon fill="none" stroke="#000000" points="1760,-190.5 1760,-209.5 1908,-209.5 1908,-190.5 1760,-190.5"/>
<text text-anchor="middle" x="1834" y="-197.5" font-family="Helvetica,sans-Serif" font-size="10.00" fill="#000000">DataFormatsEMCAL/Digit.h</text>
</a>
</g>
</g>
<!-- Node4&#45;&gt;Node17 -->
<g id="edge21" class="edge">
<title>Node4&#45;&gt;Node17</title>
<path fill="none" stroke="#191970" d="M1191.3667,-247.3821C1194.2785,-246.879 1197.1673,-246.4141 1200,-246 1395.6957,-217.3895 1628.1005,-206.2934 1749.9146,-202.2109"/>
<polygon fill="#191970" stroke="#191970" points="1750.0426,-205.7086 1759.9226,-201.883 1749.8133,-198.7124 1750.0426,-205.7086"/>
</g>
<!-- Node23 -->
<g id="node24" class="node">
<title>Node23</title>
<g id="a_node24"><a xlink:href="../../d5/dd3/DataFormats_2Detectors_2EMCAL_2include_2DataFormatsEMCAL_2Cell_8h.html" target="_top" xlink:title="DataFormatsEMCAL/Cell.h">
<polygon fill="none" stroke="#000000" points="2033.5,-190.5 2033.5,-209.5 2176.5,-209.5 2176.5,-190.5 2033.5,-190.5"/>
<text text-anchor="middle" x="2105" y="-197.5" font-family="Helvetica,sans-Serif" font-size="10.00" fill="#000000">DataFormatsEMCAL/Cell.h</text>
</a>
</g>
</g>
<!-- Node4&#45;&gt;Node23 -->
<g id="edge32" class="edge">
<title>Node4&#45;&gt;Node23</title>
<path fill="none" stroke="#191970" d="M1191.3556,-247.3036C1194.2704,-246.8215 1197.1628,-246.3826 1200,-246 1516.2061,-203.3601 1598.3575,-226.4739 1917,-210 1951.758,-208.203 1990.128,-206.1708 2023.0912,-204.4099"/>
<polygon fill="#191970" stroke="#191970" points="2023.3389,-207.9017 2033.1377,-203.8727 2022.965,-200.9117 2023.3389,-207.9017"/>
</g>
<!-- Node25 -->
<g id="node26" class="node">
<title>Node25</title>
<g id="a_node26"><a xlink:href="../../dd/da8/EMCAL_2base_2include_2EMCALBase_2Geometry_8h.html" target="_top" xlink:title="EMCALBase/Geometry.h">
<polygon fill="none" stroke="#000000" points="1238.5,-190.5 1238.5,-209.5 1371.5,-209.5 1371.5,-190.5 1238.5,-190.5"/>
<text text-anchor="middle" x="1305" y="-197.5" font-family="Helvetica,sans-Serif" font-size="10.00" fill="#000000">EMCALBase/Geometry.h</text>
</a>
</g>
</g>
<!-- Node4&#45;&gt;Node25 -->
<g id="edge36" class="edge">
<title>Node4&#45;&gt;Node25</title>
<path fill="none" stroke="#191970" d="M1172.8098,-246.4554C1202.009,-236.194 1240.2843,-222.7429 1268.1302,-212.9571"/>
<polygon fill="#191970" stroke="#191970" points="1269.6073,-216.1479 1277.8812,-209.5303 1267.2864,-209.5439 1269.6073,-216.1479"/>
</g>
<!-- Node7&#45;&gt;Node5 -->
<g id="edge9" class="edge">
<title>Node7&#45;&gt;Node5</title>
<path fill="none" stroke="#191970" d="M876.874,-191.2653C872.1816,-190.8177 867.53,-190.3919 863,-190 619.3859,-168.9243 551.4462,-212.4064 314,-154 311.6587,-153.4241 309.278,-152.7001 306.9162,-151.8816"/>
<polygon fill="#191970" stroke="#191970" points="308.0477,-148.565 297.4622,-148.1216 305.4608,-155.0694 308.0477,-148.565"/>
</g>
<!-- Node8 -->
<g id="node9" class="node">
<title>Node8</title>
<polygon fill="none" stroke="#bfbfbf" points="1840.5,-62 1840.5,-81 1889.5,-81 1889.5,-62 1840.5,-62"/>
<text text-anchor="middle" x="1865" y="-69" font-family="Helvetica,sans-Serif" font-size="10.00" fill="#000000">iosfwd</text>
</g>
<!-- Node7&#45;&gt;Node8 -->
<g id="edge10" class="edge">
<title>Node7&#45;&gt;Node8</title>
<path fill="none" stroke="#191970" d="M1026.5392,-190.4695C1075.521,-182.927 1141.9682,-170.8446 1199,-154 1233.9856,-143.6668 1239.4478,-131.1735 1275,-123 1516.3328,-67.517 1590.8383,-147.3513 1831,-87 1833.1981,-86.4476 1835.4295,-85.7573 1837.6442,-84.977"/>
<polygon fill="#191970" stroke="#191970" points="1839.1505,-88.1428 1847.0912,-81.1288 1836.5097,-81.66 1839.1505,-88.1428"/>
</g>
<!-- Node9 -->
<g id="node10" class="node">
<title>Node9</title>
<polygon fill="none" stroke="#bfbfbf" points="35,-62 35,-81 79,-81 79,-62 35,-62"/>
<text text-anchor="middle" x="57" y="-69" font-family="Helvetica,sans-Serif" font-size="10.00" fill="#000000">string</text>
</g>
<!-- Node7&#45;&gt;Node9 -->
<g id="edge11" class="edge">
<title>Node7&#45;&gt;Node9</title>
<path fill="none" stroke="#191970" d="M876.872,-191.2878C872.1801,-190.8345 867.5291,-190.4014 863,-190 748.5033,-179.8538 453.8742,-196.3125 347,-154 326.7345,-145.9767 328.8759,-131.9449 309,-123 218.2498,-82.1589 182.6951,-117.6012 88,-87 86.3861,-86.4785 84.7517,-85.8838 83.121,-85.2386"/>
<polygon fill="#191970" stroke="#191970" points="84.5456,-82.0417 73.9888,-81.1451 81.6824,-88.4293 84.5456,-82.0417"/>
</g>
<!-- Node10 -->
<g id="node11" class="node">
<title>Node10</title>
<polygon fill="none" stroke="#bfbfbf" points="584.5,-129 584.5,-148 631.5,-148 631.5,-129 584.5,-129"/>
<text text-anchor="middle" x="608" y="-136" font-family="Helvetica,sans-Serif" font-size="10.00" fill="#000000">vector</text>
</g>
<!-- Node7&#45;&gt;Node10 -->
<g id="edge12" class="edge">
<title>Node7&#45;&gt;Node10</title>
<path fill="none" stroke="#191970" d="M876.8365,-191.2782C798.0688,-182.0974 682.9291,-167.1767 640,-154 638.1411,-153.4294 636.2552,-152.7646 634.377,-152.0373"/>
<polygon fill="#191970" stroke="#191970" points="635.7765,-148.8293 625.212,-148.0282 632.971,-155.2426 635.7765,-148.8293"/>
</g>
<!-- Node11 -->
<g id="node12" class="node">
<title>Node11</title>
<g id="a_node12"><a xlink:href="../../df/d5d/common_2include_2CommonDataFormat_2TimeStamp_8h.html" target="_top" xlink:title="CommonDataFormat/TimeStamp.h">
<polygon fill="none" stroke="#000000" points="862.5,-129 862.5,-148 1049.5,-148 1049.5,-129 862.5,-129"/>
<text text-anchor="middle" x="956" y="-136" font-family="Helvetica,sans-Serif" font-size="10.00" fill="#000000">CommonDataFormat/TimeStamp.h</text>
</a>
</g>
</g>
<!-- Node7&#45;&gt;Node11 -->
<g id="edge13" class="edge">
<title>Node7&#45;&gt;Node11</title>
<path fill="none" stroke="#191970" d="M956,-190.3906C956,-181.8657 956,-169.1392 956,-158.4235"/>
<polygon fill="#191970" stroke="#191970" points="959.5001,-158.2448 956,-148.2449 952.5001,-158.2449 959.5001,-158.2448"/>
</g>
<!-- Node16 -->
<g id="node17" class="node">
<title>Node16</title>
<g id="a_node17"><a xlink:href="../../de/d64/RangeReference_8h.html" target="_top" xlink:title="Class to refer to the 1st entry and N elements of some group in the continuous container. ">
<polygon fill="none" stroke="#000000" points="356,-129 356,-148 566,-148 566,-129 356,-129"/>
<text text-anchor="middle" x="461" y="-136" font-family="Helvetica,sans-Serif" font-size="10.00" fill="#000000">CommonDataFormat/RangeReference.h</text>
</a>
</g>
</g>
<!-- Node7&#45;&gt;Node16 -->
<g id="edge19" class="edge">
<title>Node7&#45;&gt;Node16</title>
<path fill="none" stroke="#191970" d="M876.7839,-190.7863C799.6901,-181.7367 679.2477,-167.3794 575,-154 563.6611,-152.5447 551.6942,-150.9654 539.9467,-149.3903"/>
<polygon fill="#191970" stroke="#191970" points="540.0787,-145.8765 529.701,-148.0104 539.1443,-152.8139 540.0787,-145.8765"/>
</g>
<!-- Node12 -->
<g id="node13" class="node">
<title>Node12</title>
<g id="a_node13"><a xlink:href="../../d2/d45/GPUCommonRtypes_8h.html" target="_top" xlink:title="GPUCommonRtypes.h">
<polygon fill="none" stroke="#000000" points="222.5,-62 222.5,-81 347.5,-81 347.5,-62 222.5,-62"/>
<text text-anchor="middle" x="285" y="-69" font-family="Helvetica,sans-Serif" font-size="10.00" fill="#000000">GPUCommonRtypes.h</text>
</a>
</g>
</g>
<!-- Node11&#45;&gt;Node12 -->
<g id="edge14" class="edge">
<title>Node11&#45;&gt;Node12</title>
<path fill="none" stroke="#191970" d="M895.5467,-128.9803C880.3766,-126.8016 864.1146,-124.6456 849,-123 631.0368,-99.2688 574.0276,-118.1466 357,-87 349.6077,-85.9391 341.8407,-84.5555 334.2549,-83.0516"/>
<polygon fill="#191970" stroke="#191970" points="334.9349,-79.6183 324.4335,-81.0224 333.5184,-86.4735 334.9349,-79.6183"/>
</g>
<!-- Node13 -->
<g id="node14" class="node">
<title>Node13</title>
<g id="a_node14"><a xlink:href="../../df/d21/GPUCommonDef_8h.html" target="_top" xlink:title="GPUCommonDef.h">
<polygon fill="none" stroke="#000000" points="97.5,-62 97.5,-81 204.5,-81 204.5,-62 97.5,-62"/>
<text text-anchor="middle" x="151" y="-69" font-family="Helvetica,sans-Serif" font-size="10.00" fill="#000000">GPUCommonDef.h</text>
</a>
</g>
</g>
<!-- Node11&#45;&gt;Node13 -->
<g id="edge16" class="edge">
<title>Node11&#45;&gt;Node13</title>
<path fill="none" stroke="#191970" d="M896.6867,-128.9666C881.1984,-126.7357 864.5012,-124.5585 849,-123 567.301,-94.6785 492.9077,-129.5218 213,-87 206.8092,-86.0595 200.3347,-84.7804 194.0025,-83.3576"/>
<polygon fill="#191970" stroke="#191970" points="194.7688,-79.9423 184.2302,-81.0317 193.148,-86.7521 194.7688,-79.9423"/>
</g>
<!-- Node12&#45;&gt;Node6 -->
<g id="edge15" class="edge">
<title>Node12&#45;&gt;Node6</title>
<path fill="none" stroke="#191970" d="M322.892,-61.9696C333.8294,-59.5932 345.8283,-57.3422 357,-56 692.7713,-15.6591 1790.2893,-10.6788 2013.9818,-10.0799"/>
<polygon fill="#191970" stroke="#191970" points="2014.2708,-13.5793 2024.2618,-10.0539 2014.253,-6.5793 2014.2708,-13.5793"/>
</g>
<!-- Node14 -->
<g id="node15" class="node">
<title>Node14</title>
<g id="a_node15"><a xlink:href="../../d5/d93/GPUCommonDefSettings_8h.html" target="_top" xlink:title="GPUCommonDefSettings.h">
<polygon fill="none" stroke="#000000" points="0,-.5 0,-19.5 148,-19.5 148,-.5 0,-.5"/>
<text text-anchor="middle" x="74" y="-7.5" font-family="Helvetica,sans-Serif" font-size="10.00" fill="#000000">GPUCommonDefSettings.h</text>
</a>
</g>
</g>
<!-- Node13&#45;&gt;Node14 -->
<g id="edge17" class="edge">
<title>Node13&#45;&gt;Node14</title>
<path fill="none" stroke="#191970" d="M138.9688,-61.8906C126.9893,-52.3227 108.3834,-37.4621 94.1475,-26.0919"/>
<polygon fill="#191970" stroke="#191970" points="95.9447,-23.0479 85.9468,-19.5419 91.5761,-28.5175 95.9447,-23.0479"/>
</g>
<!-- Node15 -->
<g id="node16" class="node">
<title>Node15</title>
<g id="a_node16"><a xlink:href="../../da/d5a/GPUCommonDefAPI_8h.html" target="_top" xlink:title="GPUCommonDefAPI.h">
<polygon fill="none" stroke="#000000" points="166,-.5 166,-19.5 290,-19.5 290,-.5 166,-.5"/>
<text text-anchor="middle" x="228" y="-7.5" font-family="Helvetica,sans-Serif" font-size="10.00" fill="#000000">GPUCommonDefAPI.h</text>
</a>
</g>
</g>
<!-- Node13&#45;&gt;Node15 -->
<g id="edge18" class="edge">
<title>Node13&#45;&gt;Node15</title>
<path fill="none" stroke="#191970" d="M163.0313,-61.8906C175.0107,-52.3227 193.6166,-37.4621 207.8525,-26.0919"/>
<polygon fill="#191970" stroke="#191970" points="210.4239,-28.5175 216.0532,-19.5419 206.0553,-23.0479 210.4239,-28.5175"/>
</g>
<!-- Node16&#45;&gt;Node12 -->
<g id="edge20" class="edge">
<title>Node16&#45;&gt;Node12</title>
<path fill="none" stroke="#191970" d="M435.7835,-128.9005C405.3319,-117.3082 353.9515,-97.7486 319.757,-84.7313"/>
<polygon fill="#191970" stroke="#191970" points="320.7607,-81.3685 310.1697,-81.0817 318.2702,-87.9105 320.7607,-81.3685"/>
</g>
<!-- Node17&#45;&gt;Node6 -->
<g id="edge24" class="edge">
<title>Node17&#45;&gt;Node6</title>
<path fill="none" stroke="#191970" d="M1908.0809,-196.6787C1974.3207,-191.9813 2064.3447,-180.7378 2087,-154 2115.1583,-120.7676 2101.6296,-97.3705 2088,-56 2084.4944,-45.3594 2077.4759,-35.164 2070.7213,-27.0877"/>
<polygon fill="#191970" stroke="#191970" points="2073.214,-24.6247 2063.9362,-19.5087 2067.9986,-29.2937 2073.214,-24.6247"/>
</g>
<!-- Node17&#45;&gt;Node8 -->
<g id="edge22" class="edge">
<title>Node17&#45;&gt;Node8</title>
<path fill="none" stroke="#191970" d="M1811.8934,-190.4742C1797.3669,-182.902 1779.5263,-170.7828 1771,-154 1764.7595,-141.7165 1763.978,-134.854 1771,-123 1774.7376,-116.6904 1809.5159,-98.6233 1835.689,-85.6713"/>
<polygon fill="#191970" stroke="#191970" points="1837.4363,-88.7125 1844.8689,-81.1622 1834.3501,-82.4295 1837.4363,-88.7125"/>
</g>
<!-- Node17&#45;&gt;Node11 -->
<g id="edge25" class="edge">
<title>Node17&#45;&gt;Node11</title>
<path fill="none" stroke="#191970" d="M1759.8167,-197.8211C1621.6282,-193.2687 1315.5431,-180.8614 1059,-154 1047.3379,-152.7789 1034.9753,-151.182 1023.0154,-149.4779"/>
<polygon fill="#191970" stroke="#191970" points="1023.489,-146.01 1013.088,-148.0272 1022.4768,-152.9364 1023.489,-146.01"/>
</g>
<!-- Node18 -->
<g id="node19" class="node">
<title>Node18</title>
<polygon fill="none" stroke="#bfbfbf" points="2135.5,-129 2135.5,-148 2182.5,-148 2182.5,-129 2135.5,-129"/>
<text text-anchor="middle" x="2159" y="-136" font-family="Helvetica,sans-Serif" font-size="10.00" fill="#000000">cmath</text>
</g>
<!-- Node17&#45;&gt;Node18 -->
<g id="edge23" class="edge">
<title>Node17&#45;&gt;Node18</title>
<path fill="none" stroke="#191970" d="M1908.1343,-192.8267C1966.6836,-186.0395 2050.0556,-173.8722 2121,-154 2123.4613,-153.3106 2125.9791,-152.51 2128.4891,-151.6429"/>
<polygon fill="#191970" stroke="#191970" points="2129.8703,-154.8628 2137.9958,-148.0638 2127.4039,-148.3117 2129.8703,-154.8628"/>
</g>
<!-- Node19 -->
<g id="node20" class="node">
<title>Node19</title>
<g id="a_node20"><a xlink:href="../../dd/dda/DataFormats_2Detectors_2EMCAL_2include_2DataFormatsEMCAL_2Constants_8h.html" target="_top" xlink:title="DataFormatsEMCAL/Constants.h">
<polygon fill="none" stroke="#000000" points="1905.5,-129 1905.5,-148 2078.5,-148 2078.5,-129 1905.5,-129"/>
<text text-anchor="middle" x="1992" y="-136" font-family="Helvetica,sans-Serif" font-size="10.00" fill="#000000">DataFormatsEMCAL/Constants.h</text>
</a>
</g>
</g>
<!-- Node17&#45;&gt;Node19 -->
<g id="edge26" class="edge">
<title>Node17&#45;&gt;Node19</title>
<path fill="none" stroke="#191970" d="M1858.6875,-190.3906C1885.3557,-180.0103 1928.0282,-163.4004 1957.8911,-151.7766"/>
<polygon fill="#191970" stroke="#191970" points="1959.4365,-154.9309 1967.4859,-148.0419 1956.8973,-148.4076 1959.4365,-154.9309"/>
</g>
<!-- Node22 -->
<g id="node23" class="node">
<title>Node22</title>
<polygon fill="none" stroke="#bfbfbf" points="1780.5,-123.5 1780.5,-153.5 1887.5,-153.5 1887.5,-123.5 1780.5,-123.5"/>
<text text-anchor="start" x="1788.5" y="-141.5" font-family="Helvetica,sans-Serif" font-size="10.00" fill="#000000">boost/serialization</text>
<text text-anchor="middle" x="1834" y="-130.5" font-family="Helvetica,sans-Serif" font-size="10.00" fill="#000000">/base_object.hpp</text>
</g>
<!-- Node17&#45;&gt;Node22 -->
<g id="edge31" class="edge">
<title>Node17&#45;&gt;Node22</title>
<path fill="none" stroke="#191970" d="M1834,-190.3906C1834,-183.2234 1834,-173.0862 1834,-163.671"/>
<polygon fill="#191970" stroke="#191970" points="1837.5001,-163.5446 1834,-153.5446 1830.5001,-163.5446 1837.5001,-163.5446"/>
</g>
<!-- Node19&#45;&gt;Node6 -->
<g id="edge27" class="edge">
<title>Node19&#45;&gt;Node6</title>
<path fill="none" stroke="#191970" d="M1994.2113,-128.9601C1998.0891,-113.1847 2006.9625,-80.9299 2020,-56 2025.2601,-45.9418 2032.6007,-35.6955 2039.1155,-27.434"/>
<polygon fill="#191970" stroke="#191970" points="2041.8704,-29.5939 2045.4838,-19.6343 2036.4482,-25.1668 2041.8704,-29.5939"/>
</g>
<!-- Node19&#45;&gt;Node8 -->
<g id="edge28" class="edge">
<title>Node19&#45;&gt;Node8</title>
<path fill="none" stroke="#191970" d="M1973.804,-128.9005C1952.3962,-117.6067 1916.6542,-98.7506 1892.0107,-85.7497"/>
<polygon fill="#191970" stroke="#191970" points="1893.6401,-82.6522 1883.1622,-81.0817 1890.3738,-88.8434 1893.6401,-82.6522"/>
</g>
<!-- Node20 -->
<g id="node21" class="node">
<title>Node20</title>
<polygon fill="none" stroke="#bfbfbf" points="1907.5,-62 1907.5,-81 1972.5,-81 1972.5,-62 1907.5,-62"/>
<text text-anchor="middle" x="1940" y="-69" font-family="Helvetica,sans-Serif" font-size="10.00" fill="#000000">exception</text>
</g>
<!-- Node19&#45;&gt;Node20 -->
<g id="edge29" class="edge">
<title>Node19&#45;&gt;Node20</title>
<path fill="none" stroke="#191970" d="M1984.5497,-128.9005C1976.5179,-118.552 1963.5585,-101.8542 1953.6826,-89.1295"/>
<polygon fill="#191970" stroke="#191970" points="1956.3328,-86.8356 1947.4365,-81.0817 1950.8028,-91.1275 1956.3328,-86.8356"/>
</g>
<!-- Node21 -->
<g id="node22" class="node">
<title>Node21</title>
<polygon fill="none" stroke="#bfbfbf" points="2029,-62 2029,-81 2079,-81 2079,-62 2029,-62"/>
<text text-anchor="middle" x="2054" y="-69" font-family="Helvetica,sans-Serif" font-size="10.00" fill="#000000">cstdint</text>
</g>
<!-- Node19&#45;&gt;Node21 -->
<g id="edge30" class="edge">
<title>Node19&#45;&gt;Node21</title>
<path fill="none" stroke="#191970" d="M2000.8831,-128.9005C2010.5514,-118.4525 2026.2088,-101.5325 2038.0248,-88.7635"/>
<polygon fill="#191970" stroke="#191970" points="2040.9103,-90.7985 2045.1334,-81.0817 2035.7726,-86.0441 2040.9103,-90.7985"/>
</g>
<!-- Node23&#45;&gt;Node6 -->
<g id="edge34" class="edge">
<title>Node23&#45;&gt;Node6</title>
<path fill="none" stroke="#191970" d="M2173.2848,-190.4262C2222.1667,-180.2747 2275.7943,-160.3461 2254,-123 2219.47,-63.8303 2141.227,-33.1884 2093.4834,-19.4311"/>
<polygon fill="#191970" stroke="#191970" points="2094.3563,-16.0412 2083.785,-16.7475 2092.4895,-22.7877 2094.3563,-16.0412"/>
</g>
<!-- Node23&#45;&gt;Node19 -->
<g id="edge35" class="edge">
<title>Node23&#45;&gt;Node19</title>
<path fill="none" stroke="#191970" d="M2087.3438,-190.3906C2068.8514,-180.3262 2039.599,-164.4057 2018.3692,-152.8514"/>
<polygon fill="#191970" stroke="#191970" points="2019.9888,-149.7481 2009.5323,-148.0419 2016.6425,-155.8965 2019.9888,-149.7481"/>
</g>
<!-- Node24 -->
<g id="node25" class="node">
<title>Node24</title>
<polygon fill="none" stroke="#bfbfbf" points="2201,-129 2201,-148 2245,-148 2245,-129 2201,-129"/>
<text text-anchor="middle" x="2223" y="-136" font-family="Helvetica,sans-Serif" font-size="10.00" fill="#000000">bitset</text>
</g>
<!-- Node23&#45;&gt;Node24 -->
<g id="edge33" class="edge">
<title>Node23&#45;&gt;Node24</title>
<path fill="none" stroke="#191970" d="M2123.4375,-190.3906C2142.8347,-180.2811 2173.569,-164.2628 2195.7617,-152.6962"/>
<polygon fill="#191970" stroke="#191970" points="2197.4418,-155.7675 2204.692,-148.0419 2194.2064,-149.56 2197.4418,-155.7675"/>
</g>
<!-- Node25&#45;&gt;Node9 -->
<g id="edge38" class="edge">
<title>Node25&#45;&gt;Node9</title>
<path fill="none" stroke="#191970" d="M1238.1296,-197.9941C1129.686,-193.9442 920.7641,-182.6027 853,-154 833.2352,-145.6574 835.9751,-130.8258 816,-123 665.1859,-63.914 244.6751,-128.0972 88,-87 86.0793,-86.4962 84.1387,-85.8647 82.2151,-85.1468"/>
<polygon fill="#191970" stroke="#191970" points="83.4726,-81.8759 72.9117,-81.0288 80.6393,-88.2769 83.4726,-81.8759"/>
</g>
<!-- Node25&#45;&gt;Node10 -->
<g id="edge40" class="edge">
<title>Node25&#45;&gt;Node10</title>
<path fill="none" stroke="#191970" d="M1238.3005,-196.8292C1081.1785,-189.1534 696.7217,-169.0932 640,-154 638.0762,-153.4881 636.1292,-152.8592 634.1955,-152.1508"/>
<polygon fill="#191970" stroke="#191970" points="635.3753,-148.8485 624.8054,-148.1216 632.615,-155.2813 635.3753,-148.8485"/>
</g>
<!-- Node25&#45;&gt;Node19 -->
<g id="edge46" class="edge">
<title>Node25&#45;&gt;Node19</title>
<path fill="none" stroke="#191970" d="M1371.649,-196.6068C1481.2847,-190.6229 1706.441,-176.641 1896,-154 1906.3533,-152.7634 1917.2987,-151.2213 1927.9478,-149.5931"/>
<polygon fill="#191970" stroke="#191970" points="1928.7001,-153.018 1938.0381,-148.0128 1927.6169,-146.1023 1928.7001,-153.018"/>
</g>
<!-- Node25&#45;&gt;Node20 -->
<g id="edge37" class="edge">
<title>Node25&#45;&gt;Node20</title>
<path fill="none" stroke="#191970" d="M1371.5524,-197.6045C1449.9961,-193.5362 1583.759,-182.6831 1695,-154 1730.3243,-144.8918 1736.5095,-134.8816 1771,-123 1826.4693,-103.8915 1842.2162,-105.1697 1898,-87 1900.3926,-86.2207 1902.8517,-85.3906 1905.3224,-84.535"/>
<polygon fill="#191970" stroke="#191970" points="1906.5456,-87.8148 1914.7916,-81.1624 1904.1969,-81.2206 1906.5456,-87.8148"/>
</g>
<!-- Node26 -->
<g id="node27" class="node">
<title>Node26</title>
<polygon fill="none" stroke="#bfbfbf" points="1284.5,-129 1284.5,-148 1325.5,-148 1325.5,-129 1284.5,-129"/>
<text text-anchor="middle" x="1305" y="-136" font-family="Helvetica,sans-Serif" font-size="10.00" fill="#000000">tuple</text>
</g>
<!-- Node25&#45;&gt;Node26 -->
<g id="edge39" class="edge">
<title>Node25&#45;&gt;Node26</title>
<path fill="none" stroke="#191970" d="M1305,-190.3906C1305,-181.8657 1305,-169.1392 1305,-158.4235"/>
<polygon fill="#191970" stroke="#191970" points="1308.5001,-158.2448 1305,-148.2449 1301.5001,-158.2449 1308.5001,-158.2448"/>
</g>
<!-- Node27 -->
<g id="node28" class="node">
<title>Node27</title>
<polygon fill="none" stroke="#bfbfbf" points="1344,-129 1344,-148 1428,-148 1428,-129 1344,-129"/>
<text text-anchor="middle" x="1386" y="-136" font-family="Helvetica,sans-Serif" font-size="10.00" fill="#000000">RStringView.h</text>
</g>
<!-- Node25&#45;&gt;Node27 -->
<g id="edge41" class="edge">
<title>Node25&#45;&gt;Node27</title>
<path fill="none" stroke="#191970" d="M1317.6563,-190.3906C1330.3768,-180.7324 1350.2004,-165.6812 1365.2284,-154.271"/>
<polygon fill="#191970" stroke="#191970" points="1367.5846,-156.8766 1373.4326,-148.0419 1363.3516,-151.3015 1367.5846,-156.8766"/>
</g>
<!-- Node28 -->
<g id="node29" class="node">
<title>Node28</title>
<polygon fill="none" stroke="#bfbfbf" points="1740,-62 1740,-81 1822,-81 1822,-62 1740,-62"/>
<text text-anchor="middle" x="1781" y="-69" font-family="Helvetica,sans-Serif" font-size="10.00" fill="#000000">TGeoMatrix.h</text>
</g>
<!-- Node25&#45;&gt;Node28 -->
<g id="edge42" class="edge">
<title>Node25&#45;&gt;Node28</title>
<path fill="none" stroke="#191970" d="M1295.437,-190.2746C1280.9367,-174.3696 1256.897,-142.6056 1275,-123 1309.1031,-86.0662 1676.5164,-95.8601 1726,-87 1731.0581,-86.0943 1736.321,-84.9206 1741.4987,-83.6244"/>
<polygon fill="#191970" stroke="#191970" points="1742.5131,-86.9763 1751.2744,-81.019 1740.7103,-80.2124 1742.5131,-86.9763"/>
</g>
<!-- Node29 -->
<g id="node30" class="node">
<title>Node29</title>
<polygon fill="none" stroke="#bfbfbf" points="1446.5,-129 1446.5,-148 1513.5,-148 1513.5,-129 1446.5,-129"/>
<text text-anchor="middle" x="1480" y="-136" font-family="Helvetica,sans-Serif" font-size="10.00" fill="#000000">TNamed.h</text>
</g>
<!-- Node25&#45;&gt;Node29 -->
<g id="edge43" class="edge">
<title>Node25&#45;&gt;Node29</title>
<path fill="none" stroke="#191970" d="M1332.5871,-190.482C1359.3129,-181.2385 1400.9737,-166.77 1437,-154 1439.2719,-153.1947 1441.61,-152.3623 1443.9667,-151.5205"/>
<polygon fill="#191970" stroke="#191970" points="1445.4051,-154.723 1453.6369,-148.0531 1443.0424,-148.1338 1445.4051,-154.723"/>
</g>
<!-- Node30 -->
<g id="node31" class="node">
<title>Node30</title>
<polygon fill="none" stroke="#bfbfbf" points="1532,-129 1532,-148 1600,-148 1600,-129 1532,-129"/>
<text text-anchor="middle" x="1566" y="-136" font-family="Helvetica,sans-Serif" font-size="10.00" fill="#000000">TParticle.h</text>
</g>
<!-- Node25&#45;&gt;Node30 -->
<g id="edge44" class="edge">
<title>Node25&#45;&gt;Node30</title>
<path fill="none" stroke="#191970" d="M1359.4272,-190.4919C1403.6054,-182.2898 1467.3124,-169.3588 1522,-154 1524.9459,-153.1726 1527.9807,-152.2519 1531.0139,-151.2833"/>
<polygon fill="#191970" stroke="#191970" points="1532.2121,-154.5732 1540.5861,-148.0827 1529.9923,-147.9345 1532.2121,-154.5732"/>
</g>
<!-- Node31 -->
<g id="node32" class="node">
<title>Node31</title>
<polygon fill="none" stroke="#bfbfbf" points="1618,-129 1618,-148 1686,-148 1686,-129 1618,-129"/>
<text text-anchor="middle" x="1652" y="-136" font-family="Helvetica,sans-Serif" font-size="10.00" fill="#000000">TVector3.h</text>
</g>
<!-- Node25&#45;&gt;Node31 -->
<g id="edge45" class="edge">
<title>Node25&#45;&gt;Node31</title>
<path fill="none" stroke="#191970" d="M1371.5671,-193.721C1433.6599,-186.974 1528.5373,-174.3803 1609,-154 1612.1539,-153.2011 1615.4006,-152.2606 1618.6294,-151.2442"/>
<polygon fill="#191970" stroke="#191970" points="1619.7938,-154.5453 1628.1514,-148.0336 1617.5572,-147.9122 1619.7938,-154.5453"/>
</g>
<!-- Node32 -->
<g id="node33" class="node">
<title>Node32</title>
<g id="a_node33"><a xlink:href="../../d5/d5e/GeometryBase_8h.html" target="_top" xlink:title="EMCALBase/GeometryBase.h">
<polygon fill="none" stroke="#000000" points="649,-129 649,-148 807,-148 807,-129 649,-129"/>
<text text-anchor="middle" x="728" y="-136" font-family="Helvetica,sans-Serif" font-size="10.00" fill="#000000">EMCALBase/GeometryBase.h</text>
</a>
</g>
</g>
<!-- Node25&#45;&gt;Node32 -->
<g id="edge47" class="edge">
<title>Node25&#45;&gt;Node32</title>
<path fill="none" stroke="#191970" d="M1238.287,-195.1534C1144.7896,-188.0212 969.5581,-173.4149 821,-154 811.4836,-152.7563 801.4479,-151.2692 791.6299,-149.7155"/>
<polygon fill="#191970" stroke="#191970" points="791.9387,-146.2201 781.5083,-148.0796 790.8217,-153.1304 791.9387,-146.2201"/>
</g>
<!-- Node33 -->
<g id="node34" class="node">
<title>Node33</title>
<g id="a_node34"><a xlink:href="../../dc/d73/Cartesian_8h.html" target="_top" xlink:title="MathUtils/Cartesian.h">
<polygon fill="none" stroke="#000000" points="1068,-129 1068,-148 1190,-148 1190,-129 1068,-129"/>
<text text-anchor="middle" x="1129" y="-136" font-family="Helvetica,sans-Serif" font-size="10.00" fill="#000000">MathUtils/Cartesian.h</text>
</a>
</g>
</g>
<!-- Node25&#45;&gt;Node33 -->
<g id="edge49" class="edge">
<title>Node25&#45;&gt;Node33</title>
<path fill="none" stroke="#191970" d="M1277.5,-190.3906C1247.5353,-179.92 1199.4317,-163.1111 1166.1302,-151.4745"/>
<polygon fill="#191970" stroke="#191970" points="1166.9017,-148.0366 1156.3069,-148.0419 1164.5926,-154.6448 1166.9017,-148.0366"/>
</g>
<!-- Node32&#45;&gt;Node9 -->
<g id="edge48" class="edge">
<title>Node32&#45;&gt;Node9</title>
<path fill="none" stroke="#191970" d="M679.2668,-128.9386C666.5282,-126.7081 652.7836,-124.538 640,-123 395.9058,-93.6325 325.3118,-151.246 88,-87 86.283,-86.5352 84.5491,-85.971 82.8252,-85.3366"/>
<polygon fill="#191970" stroke="#191970" points="83.811,-81.9473 73.2471,-81.1386 81.001,-88.3585 83.811,-81.9473"/>
</g>
<!-- Node33&#45;&gt;Node6 -->
<g id="edge57" class="edge">
<title>Node33&#45;&gt;Node6</title>
<path fill="none" stroke="#191970" d="M1165.1095,-128.9319C1174.7607,-126.6737 1185.2264,-124.492 1195,-123 1304.4656,-106.2892 1588.8384,-127.245 1692,-87 1712.628,-78.9527 1710.6626,-64.7556 1731,-56 1781.2068,-34.3851 1939.308,-19.2154 2014.0739,-13.0587"/>
<polygon fill="#191970" stroke="#191970" points="2014.7927,-16.512 2024.4775,-12.216 2014.2275,-9.5349 2014.7927,-16.512"/>
</g>
<!-- Node33&#45;&gt;Node8 -->
<g id="edge59" class="edge">
<title>Node33&#45;&gt;Node8</title>
<path fill="none" stroke="#191970" d="M1169.6867,-128.9613C1180.7619,-126.6747 1192.7946,-124.4715 1204,-123 1480.7495,-86.6565 1560.0444,-154.0384 1831,-87 1833.2001,-86.4557 1835.433,-85.7712 1837.6487,-84.995"/>
<polygon fill="#191970" stroke="#191970" points="1839.1513,-88.1624 1847.0978,-81.1549 1836.5158,-81.6775 1839.1513,-88.1624"/>
</g>
<!-- Node33&#45;&gt;Node28 -->
<g id="edge58" class="edge">
<title>Node33&#45;&gt;Node28</title>
<path fill="none" stroke="#191970" d="M1170.0896,-128.9669C1181.0564,-126.7085 1192.935,-124.5179 1204,-123 1434.3934,-91.3951 1496.8714,-126.7503 1726,-87 1731.0629,-86.1217 1736.3286,-84.9642 1741.5079,-83.6766"/>
<polygon fill="#191970" stroke="#191970" points="1742.519,-87.0294 1751.285,-81.079 1740.7216,-80.2641 1742.519,-87.0294"/>
</g>
<!-- Node34 -->
<g id="node35" class="node">
<title>Node34</title>
<polygon fill="none" stroke="#bfbfbf" points="366,-56.5 366,-86.5 530,-86.5 530,-56.5 366,-56.5"/>
<text text-anchor="start" x="374" y="-74.5" font-family="Helvetica,sans-Serif" font-size="10.00" fill="#000000">Math/GenVector/Displacement</text>
<text text-anchor="middle" x="448" y="-63.5" font-family="Helvetica,sans-Serif" font-size="10.00" fill="#000000">Vector3D.h</text>
</g>
<!-- Node33&#45;&gt;Node34 -->
<g id="edge50" class="edge">
<title>Node33&#45;&gt;Node34</title>
<path fill="none" stroke="#191970" d="M1090.124,-128.9439C1079.7419,-126.6856 1068.4912,-124.5009 1058,-123 832.3506,-90.7187 770.334,-113.7726 540.3037,-87.0745"/>
<polygon fill="#191970" stroke="#191970" points="540.6277,-83.5886 530.2866,-85.893 539.8077,-90.5404 540.6277,-83.5886"/>
</g>
<!-- Node35 -->
<g id="node36" class="node">
<title>Node35</title>
<polygon fill="none" stroke="#bfbfbf" points="548.5,-62 548.5,-81 737.5,-81 737.5,-62 548.5,-62"/>
<text text-anchor="middle" x="643" y="-69" font-family="Helvetica,sans-Serif" font-size="10.00" fill="#000000">Math/GenVector/PositionVector3D.h</text>
</g>
<!-- Node33&#45;&gt;Node35 -->
<g id="edge51" class="edge">
<title>Node33&#45;&gt;Node35</title>
<path fill="none" stroke="#191970" d="M1088.5848,-128.947C1078.6233,-126.7945 1067.9561,-124.6588 1058,-123 920.7467,-100.1327 884.9421,-105.2582 747,-87 736.4697,-85.6062 725.3535,-84.0452 714.4616,-82.4651"/>
<polygon fill="#191970" stroke="#191970" points="714.9469,-78.9989 704.5452,-81.0128 713.9325,-85.925 714.9469,-78.9989"/>
</g>
<!-- Node36 -->
<g id="node37" class="node">
<title>Node36</title>
<polygon fill="none" stroke="#bfbfbf" points="756,-62 756,-81 916,-81 916,-62 756,-62"/>
<text text-anchor="middle" x="836" y="-69" font-family="Helvetica,sans-Serif" font-size="10.00" fill="#000000">Math/GenVector/Rotation3D.h</text>
</g>
<!-- Node33&#45;&gt;Node36 -->
<g id="edge52" class="edge">
<title>Node33&#45;&gt;Node36</title>
<path fill="none" stroke="#191970" d="M1087.3314,-128.9717C1034.8681,-116.975 944.7385,-96.3651 887.868,-83.3606"/>
<polygon fill="#191970" stroke="#191970" points="888.5278,-79.9212 877.9992,-81.1039 886.9674,-86.7451 888.5278,-79.9212"/>
</g>
<!-- Node37 -->
<g id="node38" class="node">
<title>Node37</title>
<polygon fill="none" stroke="#bfbfbf" points="934,-62 934,-81 1102,-81 1102,-62 934,-62"/>
<text text-anchor="middle" x="1018" y="-69" font-family="Helvetica,sans-Serif" font-size="10.00" fill="#000000">Math/GenVector/Transform3D.h</text>
</g>
<!-- Node33&#45;&gt;Node37 -->
<g id="edge53" class="edge">
<title>Node33&#45;&gt;Node37</title>
<path fill="none" stroke="#191970" d="M1113.0964,-128.9005C1094.633,-117.7559 1063.9701,-99.2477 1042.4668,-86.2682"/>
<polygon fill="#191970" stroke="#191970" points="1044.2441,-83.2529 1033.8741,-81.0817 1040.6267,-89.2458 1044.2441,-83.2529"/>
</g>
<!-- Node38 -->
<g id="node39" class="node">
<title>Node38</title>
<polygon fill="none" stroke="#bfbfbf" points="1120.5,-62 1120.5,-81 1293.5,-81 1293.5,-62 1120.5,-62"/>
<text text-anchor="middle" x="1207" y="-69" font-family="Helvetica,sans-Serif" font-size="10.00" fill="#000000">Math/GenVector/Translation3D.h</text>
</g>
<!-- Node33&#45;&gt;Node38 -->
<g id="edge54" class="edge">
<title>Node33&#45;&gt;Node38</title>
<path fill="none" stroke="#191970" d="M1140.1755,-128.9005C1152.6864,-118.1539 1173.1686,-100.5603 1188.1642,-87.6794"/>
<polygon fill="#191970" stroke="#191970" points="1190.5401,-90.2526 1195.8452,-81.0817 1185.9789,-84.9426 1190.5401,-90.2526"/>
</g>
<!-- Node39 -->
<g id="node40" class="node">
<title>Node39</title>
<polygon fill="none" stroke="#bfbfbf" points="1312,-56.5 1312,-86.5 1476,-86.5 1476,-56.5 1312,-56.5"/>
<text text-anchor="start" x="1320" y="-74.5" font-family="Helvetica,sans-Serif" font-size="10.00" fill="#000000">Math/GenVector/Displacement</text>
<text text-anchor="middle" x="1394" y="-63.5" font-family="Helvetica,sans-Serif" font-size="10.00" fill="#000000">Vector2D.h</text>
</g>
<!-- Node33&#45;&gt;Node39 -->
<g id="edge55" class="edge">
<title>Node33&#45;&gt;Node39</title>
<path fill="none" stroke="#191970" d="M1166.6866,-128.9717C1207.6794,-118.6075 1274.098,-101.8148 1324.5809,-89.0512"/>
<polygon fill="#191970" stroke="#191970" points="1325.6157,-92.3998 1334.4527,-86.5553 1323.8999,-85.6134 1325.6157,-92.3998"/>
</g>
<!-- Node40 -->
<g id="node41" class="node">
<title>Node40</title>
<polygon fill="none" stroke="#bfbfbf" points="1494.5,-62 1494.5,-81 1683.5,-81 1683.5,-62 1494.5,-62"/>
<text text-anchor="middle" x="1589" y="-69" font-family="Helvetica,sans-Serif" font-size="10.00" fill="#000000">Math/GenVector/PositionVector2D.h</text>
</g>
<!-- Node33&#45;&gt;Node40 -->
<g id="edge56" class="edge">
<title>Node33&#45;&gt;Node40</title>
<path fill="none" stroke="#191970" d="M1172.5192,-128.9196C1182.8127,-126.8164 1193.771,-124.7097 1204,-123 1328.187,-102.2435 1360.2819,-104.2811 1485,-87 1495.2087,-85.5855 1505.9727,-84.041 1516.5507,-82.4927"/>
<polygon fill="#191970" stroke="#191970" points="1517.2279,-85.9308 1526.6113,-81.0112 1516.208,-79.0055 1517.2279,-85.9308"/>
</g>
</g>
</svg>
        <g id="navigator" transform="translate(0 0)" fill="#404254">
                <rect fill="#f2f5e9" fill-opacity="0.5" stroke="#606060" stroke-width=".5" x="0" y="0" width="60" height="60"/>
                <use id="zoomplus" xlink:href="#zoomPlus" x="17" y="9" onmousedown="handleZoom(evt,'in')"/>
                <use id="zoomminus" xlink:href="#zoomMin" x="42" y="9" onmousedown="handleZoom(evt,'out')"/>
                <use id="reset" xlink:href="#resetDef" x="30" y="36" onmousedown="handleReset()"/>
                <g id="arrowUp" xlink:href="#dirArrow" transform="translate(30 24)" onmousedown="handlePan(0,-1)">
                  <use xlink:href="#rim" fill="#404040">
                        <set attributeName="fill" to="#808080" begin="arrowUp.mouseover" end="arrowUp.mouseout"/>
                  </use>
                  <path fill="none" stroke="white" stroke-width="1.5" d="M0,-3.0v7 M-2.5,-0.5L0,-3.0L2.5,-0.5"/>
                </g>
                <g id="arrowRight" xlink:href="#dirArrow" transform="rotate(90) translate(36 -43)" onmousedown="handlePan(1,0)">
                  <use xlink:href="#rim" fill="#404040">
                        <set attributeName="fill" to="#808080" begin="arrowRight.mouseover" end="arrowRight.mouseout"/>
                  </use>
                  <path fill="none" stroke="white" stroke-width="1.5" d="M0,-3.0v7 M-2.5,-0.5L0,-3.0L2.5,-0.5"/>
                </g>
                <g id="arrowDown" xlink:href="#dirArrow" transform="rotate(180) translate(-30 -48)" onmousedown="handlePan(0,1)">
                  <use xlink:href="#rim" fill="#404040">
                        <set attributeName="fill" to="#808080" begin="arrowDown.mouseover" end="arrowDown.mouseout"/>
                  </use>
                  <path fill="none" stroke="white" stroke-width="1.5" d="M0,-3.0v7 M-2.5,-0.5L0,-3.0L2.5,-0.5"/>
                </g>
                <g id="arrowLeft" xlink:href="#dirArrow" transform="rotate(270) translate(-36 17)" onmousedown="handlePan(-1,0)">
                  <use xlink:href="#rim" fill="#404040">
                        <set attributeName="fill" to="#808080" begin="arrowLeft.mouseover" end="arrowLeft.mouseout"/>
                  </use>
                  <path fill="none" stroke="white" stroke-width="1.5" d="M0,-3.0v7 M-2.5,-0.5L0,-3.0L2.5,-0.5"/>
                </g>
        </g>
        <svg viewBox="0 0 15 15" width="100%" height="30px" preserveAspectRatio="xMaxYMin meet">
         <g id="arrow_out" transform="scale(0.3 0.3)">
          <a xlink:href="EMCAL_2reconstruction_2src_2Clusterizer_8cxx__incl_org.svg" target="_base">
           <rect id="button" ry="5" rx="5" y="6" x="6" height="38" width="38"
                fill="#f2f5e9" fill-opacity="0.5" stroke="#606060" stroke-width="1.0"/>
           <path id="arrow"
             d="M 11.500037,31.436501 C 11.940474,20.09759 22.043105,11.32322 32.158766,21.979434 L 37.068811,17.246167 C 37.068811,17.246167 37.088388,32 37.088388,32 L 22.160133,31.978069 C 22.160133,31.978069 26.997745,27.140456 26.997745,27.140456 C 18.528582,18.264221 13.291696,25.230495 11.500037,31.436501 z"
             style="fill:#404040;"/>
          </a>
         </g>
        </svg>
</svg>
