<?xml version="1.0" encoding="UTF-8" standalone="no"?>
<!DOCTYPE svg PUBLIC "-//W3C//DTD SVG 1.1//EN"
 "http://www.w3.org/Graphics/SVG/1.1/DTD/svg11.dtd">
<!-- Generated by graphviz version 2.40.1 (20161225.0304)
 -->
<!-- Title: /home/travis/build/AliceO2Group/AliceO2/Detectors/TPC/reconstruction/include/TPCReconstruction/RawReader.h Pages: 1 -->
<svg width="2354pt" height="654pt"
 viewBox="0.00 0.00 2353.50 654.00" xmlns="http://www.w3.org/2000/svg" xmlns:xlink="http://www.w3.org/1999/xlink">
<g id="graph0" class="graph" transform="scale(1 1) rotate(0) translate(4 650)">
<title>/home/travis/build/AliceO2Group/AliceO2/Detectors/TPC/reconstruction/include/TPCReconstruction/RawReader.h</title>
<!-- Node0 -->
<g id="node1" class="node">
<title>Node0</title>
<polygon fill="#bfbfbf" stroke="#000000" points="2081.5,-582.5 2081.5,-645.5 2242.5,-645.5 2242.5,-582.5 2081.5,-582.5"/>
<text text-anchor="start" x="2089.5" y="-633.5" font-family="Helvetica,sans-Serif" font-size="10.00" fill="#000000">/home/travis/build</text>
<text text-anchor="start" x="2089.5" y="-622.5" font-family="Helvetica,sans-Serif" font-size="10.00" fill="#000000">/AliceO2Group/AliceO2</text>
<text text-anchor="start" x="2089.5" y="-611.5" font-family="Helvetica,sans-Serif" font-size="10.00" fill="#000000">/Detectors/TPC/reconstruction</text>
<text text-anchor="start" x="2089.5" y="-600.5" font-family="Helvetica,sans-Serif" font-size="10.00" fill="#000000">/include/TPCReconstruction</text>
<text text-anchor="middle" x="2162" y="-589.5" font-family="Helvetica,sans-Serif" font-size="10.00" fill="#000000">/RawReader.h</text>
</g>
<!-- Node1 -->
<g id="node2" class="node">
<title>Node1</title>
<polygon fill="none" stroke="#bfbfbf" points="2122,-347.5 2122,-366.5 2166,-366.5 2166,-347.5 2122,-347.5"/>
<text text-anchor="middle" x="2144" y="-354.5" font-family="Helvetica,sans-Serif" font-size="10.00" fill="#000000">string</text>
</g>
<!-- Node0&#45;&gt;Node1 -->
<g id="edge1" class="edge">
<title>Node0&#45;&gt;Node1</title>
<path fill="none" stroke="#191970" d="M2164.876,-582.2529C2167.9173,-540.7085 2170.9165,-465.8007 2160,-403 2158.4117,-393.8625 2155.2471,-384.1104 2152.1486,-375.9478"/>
<polygon fill="#191970" stroke="#191970" points="2155.3733,-374.586 2148.3828,-366.6246 2148.8828,-377.2076 2155.3733,-374.586"/>
</g>
<!-- Node2 -->
<g id="node3" class="node">
<title>Node2</title>
<polygon fill="none" stroke="#bfbfbf" points="2013.5,-291.5 2013.5,-310.5 2060.5,-310.5 2060.5,-291.5 2013.5,-291.5"/>
<text text-anchor="middle" x="2037" y="-298.5" font-family="Helvetica,sans-Serif" font-size="10.00" fill="#000000">vector</text>
</g>
<!-- Node0&#45;&gt;Node2 -->
<g id="edge2" class="edge">
<title>Node0&#45;&gt;Node2</title>
<path fill="none" stroke="#191970" d="M2189.868,-582.4903C2211.5584,-554.6532 2238,-511.9171 2238,-469 2238,-469 2238,-469 2238,-413 2238,-337.4102 2128.1848,-312.3744 2070.8945,-304.4566"/>
<polygon fill="#191970" stroke="#191970" points="2071.2104,-300.9685 2060.8467,-303.169 2070.3207,-307.9118 2071.2104,-300.9685"/>
</g>
<!-- Node3 -->
<g id="node4" class="node">
<title>Node3</title>
<polygon fill="none" stroke="#bfbfbf" points="900,-347.5 900,-366.5 938,-366.5 938,-347.5 900,-347.5"/>
<text text-anchor="middle" x="919" y="-354.5" font-family="Helvetica,sans-Serif" font-size="10.00" fill="#000000">map</text>
</g>
<!-- Node0&#45;&gt;Node3 -->
<g id="edge3" class="edge">
<title>Node0&#45;&gt;Node3</title>
<path fill="none" stroke="#191970" d="M2081.2377,-612.6711C1809.1555,-607.8048 940.7008,-588.9529 900,-546 855.6488,-499.1947 890.1304,-413.6325 908.8958,-375.8211"/>
<polygon fill="#191970" stroke="#191970" points="912.0274,-377.3845 913.4825,-366.8901 905.8006,-374.1865 912.0274,-377.3845"/>
</g>
<!-- Node4 -->
<g id="node5" class="node">
<title>Node4</title>
<polygon fill="none" stroke="#bfbfbf" points="2076,-403.5 2076,-422.5 2134,-422.5 2134,-403.5 2076,-403.5"/>
<text text-anchor="middle" x="2105" y="-410.5" font-family="Helvetica,sans-Serif" font-size="10.00" fill="#000000">memory</text>
</g>
<!-- Node0&#45;&gt;Node4 -->
<g id="edge4" class="edge">
<title>Node0&#45;&gt;Node4</title>
<path fill="none" stroke="#191970" d="M2152.9682,-582.151C2141.0146,-539.999 2120.3087,-466.9834 2110.4811,-432.3281"/>
<polygon fill="#191970" stroke="#191970" points="2113.793,-431.1778 2107.6975,-422.5121 2107.0585,-433.0876 2113.793,-431.1778"/>
</g>
<!-- Node5 -->
<g id="node6" class="node">
<title>Node5</title>
<polygon fill="none" stroke="#bfbfbf" points="947.5,-459.5 947.5,-478.5 992.5,-478.5 992.5,-459.5 947.5,-459.5"/>
<text text-anchor="middle" x="970" y="-466.5" font-family="Helvetica,sans-Serif" font-size="10.00" fill="#000000">utility</text>
</g>
<!-- Node0&#45;&gt;Node5 -->
<g id="edge5" class="edge">
<title>Node0&#45;&gt;Node5</title>
<path fill="none" stroke="#191970" d="M2081.2493,-608.0684C1947.0283,-597.8435 1669.6511,-575.1598 1436,-546 1244.5075,-522.1016 1195.7607,-519.1233 1007,-479 1005.5355,-478.6887 1004.0427,-478.3549 1002.5378,-478.0049"/>
<polygon fill="#191970" stroke="#191970" points="1003.153,-474.5512 992.6033,-475.5281 1001.4596,-481.3433 1003.153,-474.5512"/>
</g>
<!-- Node6 -->
<g id="node7" class="node">
<title>Node6</title>
<polygon fill="none" stroke="#bfbfbf" points="2304.5,-521 2304.5,-540 2345.5,-540 2345.5,-521 2304.5,-521"/>
<text text-anchor="middle" x="2325" y="-528" font-family="Helvetica,sans-Serif" font-size="10.00" fill="#000000">tuple</text>
</g>
<!-- Node0&#45;&gt;Node6 -->
<g id="edge6" class="edge">
<title>Node0&#45;&gt;Node6</title>
<path fill="none" stroke="#191970" d="M2223.6233,-582.4322C2248.9953,-569.4349 2277.1043,-555.0355 2297.2757,-544.7023"/>
<polygon fill="#191970" stroke="#191970" points="2298.9154,-547.7949 2306.2198,-540.1205 2295.7238,-541.5648 2298.9154,-547.7949"/>
</g>
<!-- Node7 -->
<g id="node8" class="node">
<title>Node7</title>
<g id="a_node8"><a xlink:href="../../de/d41/PadPos_8h.html" target="_top" xlink:title="TPCBase/PadPos.h">
<polygon fill="none" stroke="#000000" points="1614,-235.5 1614,-254.5 1720,-254.5 1720,-235.5 1614,-235.5"/>
<text text-anchor="middle" x="1667" y="-242.5" font-family="Helvetica,sans-Serif" font-size="10.00" fill="#000000">TPCBase/PadPos.h</text>
</a>
</g>
</g>
<!-- Node0&#45;&gt;Node7 -->
<g id="edge7" class="edge">
<title>Node0&#45;&gt;Node7</title>
<path fill="none" stroke="#191970" d="M2207.3834,-582.3179C2239.1743,-556.0619 2276,-515.5923 2276,-469 2276,-469 2276,-469 2276,-357 2276,-301.9932 1886.7261,-263.3518 1730.628,-250.0679"/>
<polygon fill="#191970" stroke="#191970" points="1730.5036,-246.5451 1720.2449,-249.1925 1729.9155,-253.5203 1730.5036,-246.5451"/>
</g>
<!-- Node8 -->
<g id="node9" class="node">
<title>Node8</title>
<g id="a_node9"><a xlink:href="../../d6/d2b/TPC_2base_2include_2TPCBase_2CalDet_8h.html" target="_top" xlink:title="TPCBase/CalDet.h">
<polygon fill="none" stroke="#000000" points="1445,-521 1445,-540 1549,-540 1549,-521 1445,-521"/>
<text text-anchor="middle" x="1497" y="-528" font-family="Helvetica,sans-Serif" font-size="10.00" fill="#000000">TPCBase/CalDet.h</text>
</a>
</g>
</g>
<!-- Node0&#45;&gt;Node8 -->
<g id="edge8" class="edge">
<title>Node0&#45;&gt;Node8</title>
<path fill="none" stroke="#191970" d="M2081.4544,-603.8864C1947.2215,-587.0316 1680.5706,-553.5498 1559.4552,-538.3421"/>
<polygon fill="#191970" stroke="#191970" points="1559.6011,-534.833 1549.2429,-537.0598 1558.7289,-541.7785 1559.6011,-534.833"/>
</g>
<!-- Node45 -->
<g id="node46" class="node">
<title>Node45</title>
<g id="a_node46"><a xlink:href="../../d6/dbe/RawReaderEventSync_8h.html" target="_top" xlink:title="TPCReconstruction/RawReader\lEventSync.h">
<polygon fill="none" stroke="#000000" points="909.5,-515.5 909.5,-545.5 1074.5,-545.5 1074.5,-515.5 909.5,-515.5"/>
<text text-anchor="start" x="917.5" y="-533.5" font-family="Helvetica,sans-Serif" font-size="10.00" fill="#000000">TPCReconstruction/RawReader</text>
<text text-anchor="middle" x="992" y="-522.5" font-family="Helvetica,sans-Serif" font-size="10.00" fill="#000000">EventSync.h</text>
</a>
</g>
</g>
<!-- Node0&#45;&gt;Node45 -->
<g id="edge79" class="edge">
<title>Node0&#45;&gt;Node45</title>
<path fill="none" stroke="#191970" d="M2081.1195,-608.2278C1870.8547,-593.2217 1307.9359,-553.0476 1084.884,-537.1289"/>
<polygon fill="#191970" stroke="#191970" points="1085.0667,-533.6331 1074.8429,-536.4123 1084.5684,-540.6154 1085.0667,-533.6331"/>
</g>
<!-- Node8&#45;&gt;Node1 -->
<g id="edge11" class="edge">
<title>Node8&#45;&gt;Node1</title>
<path fill="none" stroke="#191970" d="M1549.232,-525.7587C1696.2879,-511.8756 2105.5682,-469.3576 2143,-423 2153.3264,-410.2112 2152.395,-391.0336 2149.5794,-376.6414"/>
<polygon fill="#191970" stroke="#191970" points="2152.9446,-375.665 2147.2143,-366.7536 2146.1366,-377.2934 2152.9446,-375.665"/>
</g>
<!-- Node8&#45;&gt;Node2 -->
<g id="edge10" class="edge">
<title>Node8&#45;&gt;Node2</title>
<path fill="none" stroke="#191970" d="M1500.1117,-520.6418C1508.5242,-495.8237 1534.2907,-430.7692 1581,-403 1662.4721,-354.5639 1928.2082,-421.1497 2006,-367 2021.3837,-356.2916 2029.3423,-335.8923 2033.3187,-320.594"/>
<polygon fill="#191970" stroke="#191970" points="2036.7941,-321.0902 2035.5596,-310.5675 2029.9626,-319.5633 2036.7941,-321.0902"/>
</g>
<!-- Node8&#45;&gt;Node4 -->
<g id="edge9" class="edge">
<title>Node8&#45;&gt;Node4</title>
<path fill="none" stroke="#191970" d="M1549.1639,-524.4359C1617.4704,-516.1174 1740.7857,-499.801 1845,-479 1941.6706,-459.7047 1966.908,-449.0701 2066.1244,-423.2238"/>
<polygon fill="#191970" stroke="#191970" points="2067.1598,-426.5712 2075.9619,-420.6743 2065.4036,-419.7951 2067.1598,-426.5712"/>
</g>
<!-- Node9 -->
<g id="node10" class="node">
<title>Node9</title>
<polygon fill="none" stroke="#bfbfbf" points="1221,-459.5 1221,-478.5 1273,-478.5 1273,-459.5 1221,-459.5"/>
<text text-anchor="middle" x="1247" y="-466.5" font-family="Helvetica,sans-Serif" font-size="10.00" fill="#000000">cassert</text>
</g>
<!-- Node8&#45;&gt;Node9 -->
<g id="edge12" class="edge">
<title>Node8&#45;&gt;Node9</title>
<path fill="none" stroke="#191970" d="M1454.8443,-520.9692C1413.5198,-511.5 1348.5078,-496.2684 1283.3692,-479.2861"/>
<polygon fill="#191970" stroke="#191970" points="1283.9004,-475.8072 1273.3398,-476.6575 1282.1257,-482.5785 1283.9004,-475.8072"/>
</g>
<!-- Node10 -->
<g id="node11" class="node">
<title>Node10</title>
<g id="a_node11"><a xlink:href="../../d1/d73/Defs_8h.html" target="_top" xlink:title="DataFormatsTPC/Defs.h">
<polygon fill="none" stroke="#000000" points="1244.5,-123.5 1244.5,-142.5 1377.5,-142.5 1377.5,-123.5 1244.5,-123.5"/>
<text text-anchor="middle" x="1311" y="-130.5" font-family="Helvetica,sans-Serif" font-size="10.00" fill="#000000">DataFormatsTPC/Defs.h</text>
</a>
</g>
</g>
<!-- Node8&#45;&gt;Node10 -->
<g id="edge13" class="edge">
<title>Node8&#45;&gt;Node10</title>
<path fill="none" stroke="#191970" d="M1444.834,-525.178C1330.3967,-513.3938 1066.9013,-485.6171 1060,-479 1011.6699,-432.6603 988.6765,-230.0513 1032,-179 1045.0337,-163.6414 1156.0391,-149.0682 1234.0323,-140.5865"/>
<polygon fill="#191970" stroke="#191970" points="1234.7568,-144.0289 1244.326,-139.4814 1234.0095,-137.0689 1234.7568,-144.0289"/>
</g>
<!-- Node24 -->
<g id="node25" class="node">
<title>Node24</title>
<g id="a_node25"><a xlink:href="../../d5/d1d/TPC_2base_2include_2TPCBase_2Mapper_8h.html" target="_top" xlink:title="TPCBase/Mapper.h">
<polygon fill="none" stroke="#000000" points="1399.5,-403.5 1399.5,-422.5 1506.5,-422.5 1506.5,-403.5 1399.5,-403.5"/>
<text text-anchor="middle" x="1453" y="-410.5" font-family="Helvetica,sans-Serif" font-size="10.00" fill="#000000">TPCBase/Mapper.h</text>
</a>
</g>
</g>
<!-- Node8&#45;&gt;Node24 -->
<g id="edge27" class="edge">
<title>Node8&#45;&gt;Node24</title>
<path fill="none" stroke="#191970" d="M1494.0027,-520.6907C1489.699,-506.8243 1481.3627,-480.7551 1473,-459 1469.5346,-449.9851 1465.3181,-440.1476 1461.6517,-431.8923"/>
<polygon fill="#191970" stroke="#191970" points="1464.8397,-430.4476 1457.5398,-422.7689 1458.4579,-433.3239 1464.8397,-430.4476"/>
</g>
<!-- Node27 -->
<g id="node28" class="node">
<title>Node27</title>
<g id="a_node28"><a xlink:href="../../d3/dd6/Sector_8h.html" target="_top" xlink:title="TPCBase/Sector.h">
<polygon fill="none" stroke="#000000" points="1415.5,-179.5 1415.5,-198.5 1516.5,-198.5 1516.5,-179.5 1415.5,-179.5"/>
<text text-anchor="middle" x="1466" y="-186.5" font-family="Helvetica,sans-Serif" font-size="10.00" fill="#000000">TPCBase/Sector.h</text>
</a>
</g>
</g>
<!-- Node8&#45;&gt;Node27 -->
<g id="edge64" class="edge">
<title>Node8&#45;&gt;Node27</title>
<path fill="none" stroke="#191970" d="M1491.0874,-520.5966C1481.7761,-505.6682 1462.4284,-477.2137 1440,-459 1326.4397,-366.7798 1222.7396,-435.5453 1146,-311 1127.5767,-281.0996 1173.4816,-240.5812 1182,-235 1217.789,-211.5513 1332.8722,-198.8857 1405.0876,-193.0724"/>
<polygon fill="#191970" stroke="#191970" points="1405.7204,-196.5337 1415.4168,-192.264 1405.1741,-189.5551 1405.7204,-196.5337"/>
</g>
<!-- Node30 -->
<g id="node31" class="node">
<title>Node30</title>
<g id="a_node31"><a xlink:href="../../dc/d14/ROC_8h.html" target="_top" xlink:title="TPCBase/ROC.h">
<polygon fill="none" stroke="#000000" points="1191,-235.5 1191,-254.5 1283,-254.5 1283,-235.5 1191,-235.5"/>
<text text-anchor="middle" x="1237" y="-242.5" font-family="Helvetica,sans-Serif" font-size="10.00" fill="#000000">TPCBase/ROC.h</text>
</a>
</g>
</g>
<!-- Node8&#45;&gt;Node30 -->
<g id="edge63" class="edge">
<title>Node8&#45;&gt;Node30</title>
<path fill="none" stroke="#191970" d="M1444.8316,-524.9929C1333.8759,-513.1599 1084.0397,-485.8275 1078,-479 1019.1282,-412.4491 1081.5862,-352.2028 1146,-291 1160.9427,-276.8022 1181.118,-266.0035 1198.6748,-258.4489"/>
<polygon fill="#191970" stroke="#191970" points="1200.182,-261.6139 1208.1093,-254.5848 1197.5288,-255.1362 1200.182,-261.6139"/>
</g>
<!-- Node36 -->
<g id="node37" class="node">
<title>Node36</title>
<g id="a_node37"><a xlink:href="../../db/d9b/CalArray_8h.html" target="_top" xlink:title="TPCBase/CalArray.h">
<polygon fill="none" stroke="#000000" points="1675,-459.5 1675,-478.5 1787,-478.5 1787,-459.5 1675,-459.5"/>
<text text-anchor="middle" x="1731" y="-466.5" font-family="Helvetica,sans-Serif" font-size="10.00" fill="#000000">TPCBase/CalArray.h</text>
</a>
</g>
</g>
<!-- Node8&#45;&gt;Node36 -->
<g id="edge65" class="edge">
<title>Node8&#45;&gt;Node36</title>
<path fill="none" stroke="#191970" d="M1533.3058,-520.9581C1574.1219,-510.2308 1640.4838,-492.7895 1684.923,-481.11"/>
<polygon fill="#191970" stroke="#191970" points="1685.8272,-484.4913 1694.6091,-478.5643 1684.0478,-477.7212 1685.8272,-484.4913"/>
</g>
<!-- Node41 -->
<g id="node42" class="node">
<title>Node41</title>
<polygon fill="none" stroke="#bfbfbf" points="1956.5,-403.5 1956.5,-422.5 2057.5,-422.5 2057.5,-403.5 1956.5,-403.5"/>
<text text-anchor="middle" x="2007" y="-410.5" font-family="Helvetica,sans-Serif" font-size="10.00" fill="#000000">boost/format.hpp</text>
</g>
<!-- Node8&#45;&gt;Node41 -->
<g id="edge77" class="edge">
<title>Node8&#45;&gt;Node41</title>
<path fill="none" stroke="#191970" d="M1549.0135,-523.6764C1609.0009,-515.3149 1710.3623,-499.6723 1796,-479 1858.3472,-463.9499 1929.2033,-440.4263 1970.895,-425.904"/>
<polygon fill="#191970" stroke="#191970" points="1972.0607,-429.2042 1980.3404,-422.5938 1969.7456,-422.5981 1972.0607,-429.2042"/>
</g>
<!-- Node42 -->
<g id="node43" class="node">
<title>Node42</title>
<g id="a_node43"><a xlink:href="../../dd/da4/Logger_8h.html" target="_top" xlink:title="Framework/Logger.h">
<polygon fill="none" stroke="#000000" points="1087.5,-459.5 1087.5,-478.5 1202.5,-478.5 1202.5,-459.5 1087.5,-459.5"/>
<text text-anchor="middle" x="1145" y="-466.5" font-family="Helvetica,sans-Serif" font-size="10.00" fill="#000000">Framework/Logger.h</text>
</a>
</g>
</g>
<!-- Node8&#45;&gt;Node42 -->
<g id="edge75" class="edge">
<title>Node8&#45;&gt;Node42</title>
<path fill="none" stroke="#191970" d="M1444.6821,-521.3592C1382.1085,-510.4266 1277.3591,-492.1252 1209.7433,-480.3117"/>
<polygon fill="#191970" stroke="#191970" points="1210.0877,-476.8189 1199.6345,-478.5455 1208.8829,-483.7145 1210.0877,-476.8189"/>
</g>
<!-- Node44 -->
<g id="node45" class="node">
<title>Node44</title>
<polygon fill="none" stroke="#bfbfbf" points="1291,-459.5 1291,-478.5 1431,-478.5 1431,-459.5 1291,-459.5"/>
<text text-anchor="middle" x="1361" y="-466.5" font-family="Helvetica,sans-Serif" font-size="10.00" fill="#000000">boost/range/combine.hpp</text>
</g>
<!-- Node8&#45;&gt;Node44 -->
<g id="edge78" class="edge">
<title>Node8&#45;&gt;Node44</title>
<path fill="none" stroke="#191970" d="M1475.75,-520.8906C1453.0945,-510.6457 1417.0202,-494.3326 1391.3709,-482.7339"/>
<polygon fill="#191970" stroke="#191970" points="1392.6546,-479.4732 1382.1008,-478.5419 1389.7703,-485.8514 1392.6546,-479.4732"/>
</g>
<!-- Node11 -->
<g id="node12" class="node">
<title>Node11</title>
<polygon fill="none" stroke="#bfbfbf" points="1638.5,-67.5 1638.5,-86.5 1685.5,-86.5 1685.5,-67.5 1638.5,-67.5"/>
<text text-anchor="middle" x="1662" y="-74.5" font-family="Helvetica,sans-Serif" font-size="10.00" fill="#000000">cmath</text>
</g>
<!-- Node10&#45;&gt;Node11 -->
<g id="edge14" class="edge">
<title>Node10&#45;&gt;Node11</title>
<path fill="none" stroke="#191970" d="M1370.9402,-123.4369C1445.1937,-111.5902 1569.1297,-91.8169 1628.4136,-82.3585"/>
<polygon fill="#191970" stroke="#191970" points="1629.0445,-85.8022 1638.3681,-80.7703 1627.9416,-78.8896 1629.0445,-85.8022"/>
</g>
<!-- Node12 -->
<g id="node13" class="node">
<title>Node12</title>
<g id="a_node13"><a xlink:href="../../d1/da8/GPUROOTCartesianFwd_8h.html" target="_top" xlink:title="GPUROOTCartesianFwd.h">
<polygon fill="none" stroke="#000000" points="1241,-67.5 1241,-86.5 1381,-86.5 1381,-67.5 1241,-67.5"/>
<text text-anchor="middle" x="1311" y="-74.5" font-family="Helvetica,sans-Serif" font-size="10.00" fill="#000000">GPUROOTCartesianFwd.h</text>
</a>
</g>
</g>
<!-- Node10&#45;&gt;Node12 -->
<g id="edge15" class="edge">
<title>Node10&#45;&gt;Node12</title>
<path fill="none" stroke="#191970" d="M1311,-123.2455C1311,-115.9382 1311,-105.6944 1311,-96.7046"/>
<polygon fill="#191970" stroke="#191970" points="1314.5001,-96.6426 1311,-86.6427 1307.5001,-96.6427 1314.5001,-96.6426"/>
</g>
<!-- Node13 -->
<g id="node14" class="node">
<title>Node13</title>
<g id="a_node14"><a xlink:href="../../dc/d73/Cartesian_8h.html" target="_top" xlink:title="MathUtils/Cartesian.h">
<polygon fill="none" stroke="#000000" points="914,-67.5 914,-86.5 1036,-86.5 1036,-67.5 914,-67.5"/>
<text text-anchor="middle" x="975" y="-74.5" font-family="Helvetica,sans-Serif" font-size="10.00" fill="#000000">MathUtils/Cartesian.h</text>
</a>
</g>
</g>
<!-- Node10&#45;&gt;Node13 -->
<g id="edge16" class="edge">
<title>Node10&#45;&gt;Node13</title>
<path fill="none" stroke="#191970" d="M1253.6213,-123.4369C1195.0303,-113.6717 1104.1244,-98.5207 1042.2034,-88.2006"/>
<polygon fill="#191970" stroke="#191970" points="1042.5814,-84.7154 1032.142,-86.5237 1041.4305,-91.6201 1042.5814,-84.7154"/>
</g>
<!-- Node14 -->
<g id="node15" class="node">
<title>Node14</title>
<polygon fill="none" stroke="#bfbfbf" points="1123,-.5 1123,-30.5 1287,-30.5 1287,-.5 1123,-.5"/>
<text text-anchor="start" x="1131" y="-18.5" font-family="Helvetica,sans-Serif" font-size="10.00" fill="#000000">Math/GenVector/Displacement</text>
<text text-anchor="middle" x="1205" y="-7.5" font-family="Helvetica,sans-Serif" font-size="10.00" fill="#000000">Vector3D.h</text>
</g>
<!-- Node13&#45;&gt;Node14 -->
<g id="edge17" class="edge">
<title>Node13&#45;&gt;Node14</title>
<path fill="none" stroke="#191970" d="M1010.6851,-67.4581C1044.7944,-58.3376 1097.054,-44.3638 1138.7893,-33.2042"/>
<polygon fill="#191970" stroke="#191970" points="1139.8527,-36.5429 1148.6092,-30.5784 1138.0444,-29.7804 1139.8527,-36.5429"/>
</g>
<!-- Node15 -->
<g id="node16" class="node">
<title>Node15</title>
<polygon fill="none" stroke="#bfbfbf" points="1305.5,-6 1305.5,-25 1494.5,-25 1494.5,-6 1305.5,-6"/>
<text text-anchor="middle" x="1400" y="-13" font-family="Helvetica,sans-Serif" font-size="10.00" fill="#000000">Math/GenVector/PositionVector3D.h</text>
</g>
<!-- Node13&#45;&gt;Node15 -->
<g id="edge18" class="edge">
<title>Node13&#45;&gt;Node15</title>
<path fill="none" stroke="#191970" d="M1036.2538,-68.3265C1100.8589,-59.1539 1205.6162,-44.2113 1296,-31 1305.8218,-29.5644 1316.1632,-28.0393 1326.3603,-26.5276"/>
<polygon fill="#191970" stroke="#191970" points="1327.1074,-29.9551 1336.4848,-25.0241 1326.0791,-23.031 1327.1074,-29.9551"/>
</g>
<!-- Node16 -->
<g id="node17" class="node">
<title>Node16</title>
<polygon fill="none" stroke="#bfbfbf" points="0,-6 0,-25 160,-25 160,-6 0,-6"/>
<text text-anchor="middle" x="80" y="-13" font-family="Helvetica,sans-Serif" font-size="10.00" fill="#000000">Math/GenVector/Rotation3D.h</text>
</g>
<!-- Node13&#45;&gt;Node16 -->
<g id="edge19" class="edge">
<title>Node13&#45;&gt;Node16</title>
<path fill="none" stroke="#191970" d="M913.8751,-75.917C779.0054,-73.0008 445.9076,-62.9067 169,-31 159.184,-29.869 148.8094,-28.3559 138.7454,-26.7173"/>
<polygon fill="#191970" stroke="#191970" points="139.2595,-23.2547 128.8172,-25.0464 138.0976,-30.1576 139.2595,-23.2547"/>
</g>
<!-- Node17 -->
<g id="node18" class="node">
<title>Node17</title>
<polygon fill="none" stroke="#bfbfbf" points="178,-6 178,-25 346,-25 346,-6 178,-6"/>
<text text-anchor="middle" x="262" y="-13" font-family="Helvetica,sans-Serif" font-size="10.00" fill="#000000">Math/GenVector/Transform3D.h</text>
</g>
<!-- Node13&#45;&gt;Node17 -->
<g id="edge20" class="edge">
<title>Node13&#45;&gt;Node17</title>
<path fill="none" stroke="#191970" d="M913.6603,-74.3043C802.1484,-68.9912 558.8789,-55.5015 355,-31 345.0053,-29.7989 334.4454,-28.2803 324.1688,-26.6661"/>
<polygon fill="#191970" stroke="#191970" points="324.4479,-23.166 314.018,-25.0283 323.3328,-30.0766 324.4479,-23.166"/>
</g>
<!-- Node18 -->
<g id="node19" class="node">
<title>Node18</title>
<polygon fill="none" stroke="#bfbfbf" points="364.5,-6 364.5,-25 537.5,-25 537.5,-6 364.5,-6"/>
<text text-anchor="middle" x="451" y="-13" font-family="Helvetica,sans-Serif" font-size="10.00" fill="#000000">Math/GenVector/Translation3D.h</text>
</g>
<!-- Node13&#45;&gt;Node18 -->
<g id="edge21" class="edge">
<title>Node13&#45;&gt;Node18</title>
<path fill="none" stroke="#191970" d="M913.9236,-71.4629C830.7715,-63.69 677.3593,-48.5166 547,-31 537.2117,-29.6847 526.8839,-28.1612 516.7743,-26.5932"/>
<polygon fill="#191970" stroke="#191970" points="517.1884,-23.1154 506.7655,-25.0165 516.099,-30.0301 517.1884,-23.1154"/>
</g>
<!-- Node19 -->
<g id="node20" class="node">
<title>Node19</title>
<polygon fill="none" stroke="#bfbfbf" points="556,-.5 556,-30.5 720,-30.5 720,-.5 556,-.5"/>
<text text-anchor="start" x="564" y="-18.5" font-family="Helvetica,sans-Serif" font-size="10.00" fill="#000000">Math/GenVector/Displacement</text>
<text text-anchor="middle" x="638" y="-7.5" font-family="Helvetica,sans-Serif" font-size="10.00" fill="#000000">Vector2D.h</text>
</g>
<!-- Node13&#45;&gt;Node19 -->
<g id="edge22" class="edge">
<title>Node13&#45;&gt;Node19</title>
<path fill="none" stroke="#191970" d="M922.7135,-67.4581C871.4887,-58.11 792.3255,-43.6633 730.4638,-32.374"/>
<polygon fill="#191970" stroke="#191970" points="730.7669,-28.8715 720.3009,-30.5193 729.5101,-35.7578 730.7669,-28.8715"/>
</g>
<!-- Node20 -->
<g id="node21" class="node">
<title>Node20</title>
<polygon fill="none" stroke="#bfbfbf" points="738.5,-6 738.5,-25 927.5,-25 927.5,-6 738.5,-6"/>
<text text-anchor="middle" x="833" y="-13" font-family="Helvetica,sans-Serif" font-size="10.00" fill="#000000">Math/GenVector/PositionVector2D.h</text>
</g>
<!-- Node13&#45;&gt;Node20 -->
<g id="edge23" class="edge">
<title>Node13&#45;&gt;Node20</title>
<path fill="none" stroke="#191970" d="M952.8125,-67.3906C929.0533,-57.1005 891.1595,-40.6888 864.3575,-29.0809"/>
<polygon fill="#191970" stroke="#191970" points="865.5991,-25.8045 855.0317,-25.0419 862.817,-32.2279 865.5991,-25.8045"/>
</g>
<!-- Node21 -->
<g id="node22" class="node">
<title>Node21</title>
<polygon fill="none" stroke="#bfbfbf" points="945.5,-6 945.5,-25 1004.5,-25 1004.5,-6 945.5,-6"/>
<text text-anchor="middle" x="975" y="-13" font-family="Helvetica,sans-Serif" font-size="10.00" fill="#000000">Rtypes.h</text>
</g>
<!-- Node13&#45;&gt;Node21 -->
<g id="edge24" class="edge">
<title>Node13&#45;&gt;Node21</title>
<path fill="none" stroke="#191970" d="M975,-67.3906C975,-58.8657 975,-46.1392 975,-35.4235"/>
<polygon fill="#191970" stroke="#191970" points="978.5001,-35.2448 975,-25.2449 971.5001,-35.2449 978.5001,-35.2448"/>
</g>
<!-- Node22 -->
<g id="node23" class="node">
<title>Node22</title>
<polygon fill="none" stroke="#bfbfbf" points="1023,-6 1023,-25 1105,-25 1105,-6 1023,-6"/>
<text text-anchor="middle" x="1064" y="-13" font-family="Helvetica,sans-Serif" font-size="10.00" fill="#000000">TGeoMatrix.h</text>
</g>
<!-- Node13&#45;&gt;Node22 -->
<g id="edge25" class="edge">
<title>Node13&#45;&gt;Node22</title>
<path fill="none" stroke="#191970" d="M988.9063,-67.3906C1003.0138,-57.6421 1025.0724,-42.3994 1041.6385,-30.9521"/>
<polygon fill="#191970" stroke="#191970" points="1043.9542,-33.6063 1050.1914,-25.0419 1039.9747,-27.8474 1043.9542,-33.6063"/>
</g>
<!-- Node23 -->
<g id="node24" class="node">
<title>Node23</title>
<polygon fill="none" stroke="#bfbfbf" points="1512.5,-6 1512.5,-25 1561.5,-25 1561.5,-6 1512.5,-6"/>
<text text-anchor="middle" x="1537" y="-13" font-family="Helvetica,sans-Serif" font-size="10.00" fill="#000000">iosfwd</text>
</g>
<!-- Node13&#45;&gt;Node23 -->
<g id="edge26" class="edge">
<title>Node13&#45;&gt;Node23</title>
<path fill="none" stroke="#191970" d="M1036.2625,-72.8392C1165.7134,-63.8767 1458.8415,-42.6204 1503,-31 1505.1919,-30.4232 1507.4187,-29.7152 1509.6302,-28.9224"/>
<polygon fill="#191970" stroke="#191970" points="1511.1476,-32.083 1519.0708,-25.0493 1508.4906,-25.6069 1511.1476,-32.083"/>
</g>
<!-- Node24&#45;&gt;Node1 -->
<g id="edge31" class="edge">
<title>Node24&#45;&gt;Node1</title>
<path fill="none" stroke="#191970" d="M1506.6466,-408.6524C1643.3606,-397.5728 2001.7699,-368.5266 2111.5629,-359.6288"/>
<polygon fill="#191970" stroke="#191970" points="2112.0021,-363.1047 2121.6867,-358.8083 2111.4366,-356.1276 2112.0021,-363.1047"/>
</g>
<!-- Node24&#45;&gt;Node2 -->
<g id="edge29" class="edge">
<title>Node24&#45;&gt;Node2</title>
<path fill="none" stroke="#191970" d="M1506.778,-404.7481C1511.5819,-404.115 1516.3755,-403.5208 1521,-403 1622.6706,-391.5505 1888.7047,-413.1861 1980,-367 2000.5853,-356.5859 2016.8593,-335.1865 2026.6612,-319.5686"/>
<polygon fill="#191970" stroke="#191970" points="2029.8074,-321.1256 2031.9087,-310.7412 2023.7902,-317.5487 2029.8074,-321.1256"/>
</g>
<!-- Node24&#45;&gt;Node3 -->
<g id="edge28" class="edge">
<title>Node24&#45;&gt;Node3</title>
<path fill="none" stroke="#191970" d="M1399.1732,-410.4472C1308.3432,-405.5865 1119.0751,-393.0755 961,-367 956.7568,-366.3001 952.3059,-365.4116 947.9536,-364.4542"/>
<polygon fill="#191970" stroke="#191970" points="948.6557,-361.024 938.121,-362.1516 947.0595,-367.8396 948.6557,-361.024"/>
</g>
<!-- Node24&#45;&gt;Node7 -->
<g id="edge34" class="edge">
<title>Node24&#45;&gt;Node7</title>
<path fill="none" stroke="#191970" d="M1472.0684,-403.4713C1490.0193,-394.398 1517.5722,-380.2051 1541,-367 1555.9402,-358.5789 1558.3197,-353.9464 1574,-347 1625.299,-324.2742 1661.4565,-355.9765 1695,-311 1705.9689,-296.2925 1695.0224,-276.6399 1683.7618,-262.6133"/>
<polygon fill="#191970" stroke="#191970" points="1686.0979,-259.9648 1676.903,-254.7013 1680.8087,-264.55 1686.0979,-259.9648"/>
</g>
<!-- Node24&#45;&gt;Node10 -->
<g id="edge33" class="edge">
<title>Node24&#45;&gt;Node10</title>
<path fill="none" stroke="#191970" d="M1420.778,-403.4626C1378.882,-388.8408 1311,-356.5748 1311,-301 1311,-301 1311,-301 1311,-245 1311,-212.7116 1311,-175.1872 1311,-152.8048"/>
<polygon fill="#191970" stroke="#191970" points="1314.5001,-152.5883 1311,-142.5884 1307.5001,-152.5884 1314.5001,-152.5883"/>
</g>
<!-- Node24&#45;&gt;Node11 -->
<g id="edge32" class="edge">
<title>Node24&#45;&gt;Node11</title>
<path fill="none" stroke="#191970" d="M1506.8027,-407.6197C1621.1827,-396.1303 1878.4332,-369.9961 1882,-367 1905.3729,-347.3669 1901,-331.5246 1901,-301 1901,-301 1901,-301 1901,-189 1901,-144.1989 1761.5608,-102.4943 1695.6965,-85.294"/>
<polygon fill="#191970" stroke="#191970" points="1696.3466,-81.8473 1685.79,-82.7471 1694.6036,-88.6269 1696.3466,-81.8473"/>
</g>
<!-- Node24&#45;&gt;Node13 -->
<g id="edge62" class="edge">
<title>Node24&#45;&gt;Node13</title>
<path fill="none" stroke="#191970" d="M1399.0965,-411.6771C1274.0873,-407.1494 975,-387.2991 975,-301 975,-301 975,-301 975,-189 975,-156.7116 975,-119.1872 975,-96.8048"/>
<polygon fill="#191970" stroke="#191970" points="978.5001,-96.5883 975,-86.5884 971.5001,-96.5884 978.5001,-96.5883"/>
</g>
<!-- Node25 -->
<g id="node26" class="node">
<title>Node25</title>
<polygon fill="none" stroke="#bfbfbf" points="1929,-347.5 1929,-366.5 1971,-366.5 1971,-347.5 1929,-347.5"/>
<text text-anchor="middle" x="1950" y="-354.5" font-family="Helvetica,sans-Serif" font-size="10.00" fill="#000000">array</text>
</g>
<!-- Node24&#45;&gt;Node25 -->
<g id="edge30" class="edge">
<title>Node24&#45;&gt;Node25</title>
<path fill="none" stroke="#191970" d="M1506.7854,-404.8121C1511.5878,-404.1653 1516.379,-403.5505 1521,-403 1695.6061,-382.2003 1742.1505,-399.2949 1915,-367 1916.2579,-366.765 1917.5359,-366.5045 1918.8227,-366.2242"/>
<polygon fill="#191970" stroke="#191970" points="1919.8182,-369.5834 1928.6801,-363.7768 1918.1314,-362.7897 1919.8182,-369.5834"/>
</g>
<!-- Node26 -->
<g id="node27" class="node">
<title>Node26</title>
<g id="a_node27"><a xlink:href="../../dd/d0b/PadSecPos_8h.html" target="_top" xlink:title="TPCBase/PadSecPos.h">
<polygon fill="none" stroke="#000000" points="1563.5,-291.5 1563.5,-310.5 1686.5,-310.5 1686.5,-291.5 1563.5,-291.5"/>
<text text-anchor="middle" x="1625" y="-298.5" font-family="Helvetica,sans-Serif" font-size="10.00" fill="#000000">TPCBase/PadSecPos.h</text>
</a>
</g>
</g>
<!-- Node24&#45;&gt;Node26 -->
<g id="edge35" class="edge">
<title>Node24&#45;&gt;Node26</title>
<path fill="none" stroke="#191970" d="M1464.5712,-403.4792C1481.0413,-390.1259 1512.4227,-365.4083 1541,-347 1558.8775,-335.4841 1579.8583,-323.9932 1596.3794,-315.3767"/>
<polygon fill="#191970" stroke="#191970" points="1598.2496,-318.3504 1605.5342,-310.6572 1595.042,-312.1285 1598.2496,-318.3504"/>
</g>
<!-- Node24&#45;&gt;Node27 -->
<g id="edge61" class="edge">
<title>Node24&#45;&gt;Node27</title>
<path fill="none" stroke="#191970" d="M1421.8383,-403.473C1390.6938,-392.2844 1349.8519,-372.0346 1368,-347 1398.1917,-305.3516 1447.8083,-352.6484 1478,-311 1500.0673,-280.559 1485.9637,-234.0339 1475.1022,-208.1196"/>
<polygon fill="#191970" stroke="#191970" points="1478.164,-206.3911 1470.9004,-198.678 1471.7687,-209.2372 1478.164,-206.3911"/>
</g>
<!-- Node29 -->
<g id="node30" class="node">
<title>Node29</title>
<g id="a_node30"><a xlink:href="../../da/d61/PadROCPos_8h.html" target="_top" xlink:title="TPCBase/PadROCPos.h">
<polygon fill="none" stroke="#000000" points="1155.5,-291.5 1155.5,-310.5 1282.5,-310.5 1282.5,-291.5 1155.5,-291.5"/>
<text text-anchor="middle" x="1219" y="-298.5" font-family="Helvetica,sans-Serif" font-size="10.00" fill="#000000">TPCBase/PadROCPos.h</text>
</a>
</g>
</g>
<!-- Node24&#45;&gt;Node29 -->
<g id="edge40" class="edge">
<title>Node24&#45;&gt;Node29</title>
<path fill="none" stroke="#191970" d="M1401.3882,-403.4467C1369.9509,-396.2776 1329.6826,-384.6219 1297,-367 1273.0229,-354.0719 1249.745,-332.9054 1234.955,-318.0359"/>
<polygon fill="#191970" stroke="#191970" points="1237.1356,-315.257 1227.6611,-310.5153 1232.1107,-320.1304 1237.1356,-315.257"/>
</g>
<!-- Node31 -->
<g id="node32" class="node">
<title>Node31</title>
<g id="a_node32"><a xlink:href="../../d3/d54/DigitPos_8h.html" target="_top" xlink:title="TPCBase/DigitPos.h">
<polygon fill="none" stroke="#000000" points="1377,-347.5 1377,-366.5 1489,-366.5 1489,-347.5 1377,-347.5"/>
<text text-anchor="middle" x="1433" y="-354.5" font-family="Helvetica,sans-Serif" font-size="10.00" fill="#000000">TPCBase/DigitPos.h</text>
</a>
</g>
</g>
<!-- Node24&#45;&gt;Node31 -->
<g id="edge46" class="edge">
<title>Node24&#45;&gt;Node31</title>
<path fill="none" stroke="#191970" d="M1449.5163,-403.2455C1446.8492,-395.7776 1443.0867,-385.2427 1439.8263,-376.1137"/>
<polygon fill="#191970" stroke="#191970" points="1443.1033,-374.8829 1436.4438,-366.6427 1436.5111,-377.2373 1443.1033,-374.8829"/>
</g>
<!-- Node33 -->
<g id="node34" class="node">
<title>Node33</title>
<g id="a_node34"><a xlink:href="../../d1/d1f/FECInfo_8h.html" target="_top" xlink:title="TPCBase/FECInfo.h">
<polygon fill="none" stroke="#000000" points="1041,-179.5 1041,-198.5 1149,-198.5 1149,-179.5 1041,-179.5"/>
<text text-anchor="middle" x="1095" y="-186.5" font-family="Helvetica,sans-Serif" font-size="10.00" fill="#000000">TPCBase/FECInfo.h</text>
</a>
</g>
</g>
<!-- Node24&#45;&gt;Node33 -->
<g id="edge54" class="edge">
<title>Node24&#45;&gt;Node33</title>
<path fill="none" stroke="#191970" d="M1403.0124,-403.481C1364.8974,-395.5599 1311.4051,-383.006 1266,-367 1210.493,-347.4329 1186.7618,-353.4544 1146,-311 1117.8978,-281.7309 1104.2894,-234.7217 1098.5571,-208.4214"/>
<polygon fill="#191970" stroke="#191970" points="1101.9703,-207.6411 1096.5633,-198.5299 1095.1083,-209.0243 1101.9703,-207.6411"/>
</g>
<!-- Node34 -->
<g id="node35" class="node">
<title>Node34</title>
<g id="a_node35"><a xlink:href="../../da/d9d/PadRegionInfo_8h.html" target="_top" xlink:title="TPCBase/PadRegionInfo.h">
<polygon fill="none" stroke="#000000" points="1583,-347.5 1583,-366.5 1723,-366.5 1723,-347.5 1583,-347.5"/>
<text text-anchor="middle" x="1653" y="-354.5" font-family="Helvetica,sans-Serif" font-size="10.00" fill="#000000">TPCBase/PadRegionInfo.h</text>
</a>
</g>
</g>
<!-- Node24&#45;&gt;Node34 -->
<g id="edge56" class="edge">
<title>Node24&#45;&gt;Node34</title>
<path fill="none" stroke="#191970" d="M1487.3812,-403.3733C1521.0701,-393.9404 1572.5482,-379.5265 1609.1618,-369.2747"/>
<polygon fill="#191970" stroke="#191970" points="1610.3815,-372.5679 1619.0674,-366.5011 1608.494,-365.8271 1610.3815,-372.5679"/>
</g>
<!-- Node35 -->
<g id="node36" class="node">
<title>Node35</title>
<g id="a_node36"><a xlink:href="../../d6/d42/PartitionInfo_8h.html" target="_top" xlink:title="TPCBase/PartitionInfo.h">
<polygon fill="none" stroke="#000000" points="1741.5,-347.5 1741.5,-366.5 1872.5,-366.5 1872.5,-347.5 1741.5,-347.5"/>
<text text-anchor="middle" x="1807" y="-354.5" font-family="Helvetica,sans-Serif" font-size="10.00" fill="#000000">TPCBase/PartitionInfo.h</text>
</a>
</g>
</g>
<!-- Node24&#45;&gt;Node35 -->
<g id="edge60" class="edge">
<title>Node24&#45;&gt;Node35</title>
<path fill="none" stroke="#191970" d="M1506.765,-404.4948C1568.2125,-394.7743 1668.9979,-378.8308 1736.6458,-368.1295"/>
<polygon fill="#191970" stroke="#191970" points="1737.4618,-371.544 1746.7921,-366.5244 1736.368,-364.63 1737.4618,-371.544"/>
</g>
<!-- Node26&#45;&gt;Node7 -->
<g id="edge39" class="edge">
<title>Node26&#45;&gt;Node7</title>
<path fill="none" stroke="#191970" d="M1632.3158,-291.2455C1638.2179,-283.3761 1646.6742,-272.101 1653.7594,-262.6542"/>
<polygon fill="#191970" stroke="#191970" points="1656.568,-264.7427 1659.768,-254.6427 1650.9679,-260.5427 1656.568,-264.7427"/>
</g>
<!-- Node26&#45;&gt;Node27 -->
<g id="edge36" class="edge">
<title>Node26&#45;&gt;Node27</title>
<path fill="none" stroke="#191970" d="M1611.4437,-291.4509C1583.8684,-272.0268 1521.04,-227.7703 1487.7056,-204.2895"/>
<polygon fill="#191970" stroke="#191970" points="1489.7129,-201.4223 1479.5219,-198.5249 1485.6818,-207.1451 1489.7129,-201.4223"/>
</g>
<!-- Node27&#45;&gt;Node10 -->
<g id="edge38" class="edge">
<title>Node27&#45;&gt;Node10</title>
<path fill="none" stroke="#191970" d="M1439.3546,-179.3733C1413.8036,-170.1419 1375.0488,-156.1402 1346.8091,-145.9375"/>
<polygon fill="#191970" stroke="#191970" points="1347.8921,-142.6074 1337.2978,-142.5011 1345.5135,-149.1909 1347.8921,-142.6074"/>
</g>
<!-- Node28 -->
<g id="node29" class="node">
<title>Node28</title>
<g id="a_node29"><a xlink:href="../../d0/dda/DataFormats_2Detectors_2TPC_2include_2DataFormatsTPC_2Constants_8h.html" target="_top" xlink:title="DataFormatsTPC/Constants.h">
<polygon fill="none" stroke="#000000" points="1395.5,-123.5 1395.5,-142.5 1554.5,-142.5 1554.5,-123.5 1395.5,-123.5"/>
<text text-anchor="middle" x="1475" y="-130.5" font-family="Helvetica,sans-Serif" font-size="10.00" fill="#000000">DataFormatsTPC/Constants.h</text>
</a>
</g>
</g>
<!-- Node27&#45;&gt;Node28 -->
<g id="edge37" class="edge">
<title>Node27&#45;&gt;Node28</title>
<path fill="none" stroke="#191970" d="M1467.5677,-179.2455C1468.7421,-171.9382 1470.3884,-161.6944 1471.8332,-152.7046"/>
<polygon fill="#191970" stroke="#191970" points="1475.3191,-153.0714 1473.4503,-142.6427 1468.4078,-151.9606 1475.3191,-153.0714"/>
</g>
<!-- Node29&#45;&gt;Node7 -->
<g id="edge45" class="edge">
<title>Node29&#45;&gt;Node7</title>
<path fill="none" stroke="#191970" d="M1282.7117,-293.036C1368.0215,-282.3723 1518.4683,-263.5665 1603.6126,-252.9234"/>
<polygon fill="#191970" stroke="#191970" points="1604.175,-256.3805 1613.6636,-251.667 1603.3067,-249.4345 1604.175,-256.3805"/>
</g>
<!-- Node29&#45;&gt;Node10 -->
<g id="edge41" class="edge">
<title>Node29&#45;&gt;Node10</title>
<path fill="none" stroke="#191970" d="M1206.9777,-291.3555C1192.7125,-278.6697 1172.0401,-255.5726 1182,-235 1202.2384,-193.197 1248.844,-163.3348 1280.1355,-147.1173"/>
<polygon fill="#191970" stroke="#191970" points="1281.9341,-150.131 1289.3089,-142.5243 1278.8001,-143.8718 1281.9341,-150.131"/>
</g>
<!-- Node29&#45;&gt;Node30 -->
<g id="edge42" class="edge">
<title>Node29&#45;&gt;Node30</title>
<path fill="none" stroke="#191970" d="M1222.1354,-291.2455C1224.51,-283.8579 1227.8493,-273.4689 1230.7615,-264.4087"/>
<polygon fill="#191970" stroke="#191970" points="1234.1725,-265.234 1233.9006,-254.6427 1227.5083,-263.0919 1234.1725,-265.234"/>
</g>
<!-- Node30&#45;&gt;Node10 -->
<g id="edge43" class="edge">
<title>Node30&#45;&gt;Node10</title>
<path fill="none" stroke="#191970" d="M1243.3092,-235.4509C1255.6515,-216.7707 1283.1682,-175.1238 1299.0568,-151.0761"/>
<polygon fill="#191970" stroke="#191970" points="1302.1143,-152.7977 1304.7068,-142.5249 1296.274,-148.9388 1302.1143,-152.7977"/>
</g>
<!-- Node30&#45;&gt;Node27 -->
<g id="edge44" class="edge">
<title>Node30&#45;&gt;Node27</title>
<path fill="none" stroke="#191970" d="M1276.1063,-235.4369C1315.1332,-225.8932 1375.1965,-211.2052 1417.2962,-200.9101"/>
<polygon fill="#191970" stroke="#191970" points="1418.1726,-204.299 1427.055,-198.5237 1416.5098,-197.4993 1418.1726,-204.299"/>
</g>
<!-- Node31&#45;&gt;Node7 -->
<g id="edge52" class="edge">
<title>Node31&#45;&gt;Node7</title>
<path fill="none" stroke="#191970" d="M1449.1364,-347.437C1472.0513,-334.0334 1515.5178,-309.2565 1554,-291 1579.5052,-278.9 1609.0811,-266.931 1631.5762,-258.2363"/>
<polygon fill="#191970" stroke="#191970" points="1632.9761,-261.4481 1641.0616,-254.6015 1630.4713,-254.9116 1632.9761,-261.4481"/>
</g>
<!-- Node31&#45;&gt;Node10 -->
<g id="edge47" class="edge">
<title>Node31&#45;&gt;Node10</title>
<path fill="none" stroke="#191970" d="M1413.0172,-347.3452C1398.5979,-339.4306 1379.6856,-326.946 1368,-311 1365.564,-307.6759 1331.0799,-197.4722 1316.9612,-152.1622"/>
<polygon fill="#191970" stroke="#191970" points="1320.3,-151.1119 1313.9853,-142.6046 1313.6165,-153.193 1320.3,-151.1119"/>
</g>
<!-- Node31&#45;&gt;Node26 -->
<g id="edge53" class="edge">
<title>Node31&#45;&gt;Node26</title>
<path fill="none" stroke="#191970" d="M1466.006,-347.3733C1498.2091,-337.9807 1547.3442,-323.6496 1582.4639,-313.4064"/>
<polygon fill="#191970" stroke="#191970" points="1583.8047,-316.6612 1592.4247,-310.5011 1581.8447,-309.9412 1583.8047,-316.6612"/>
</g>
<!-- Node32 -->
<g id="node33" class="node">
<title>Node32</title>
<g id="a_node33"><a xlink:href="../../df/d26/CRU_8h.html" target="_top" xlink:title="TPCBase/CRU.h">
<polygon fill="none" stroke="#000000" points="1377,-291.5 1377,-310.5 1469,-310.5 1469,-291.5 1377,-291.5"/>
<text text-anchor="middle" x="1423" y="-298.5" font-family="Helvetica,sans-Serif" font-size="10.00" fill="#000000">TPCBase/CRU.h</text>
</a>
</g>
</g>
<!-- Node31&#45;&gt;Node32 -->
<g id="edge48" class="edge">
<title>Node31&#45;&gt;Node32</title>
<path fill="none" stroke="#191970" d="M1431.2581,-347.2455C1429.9533,-339.9382 1428.124,-329.6944 1426.5187,-320.7046"/>
<polygon fill="#191970" stroke="#191970" points="1429.9254,-319.8717 1424.7219,-310.6427 1423.0344,-321.1022 1429.9254,-319.8717"/>
</g>
<!-- Node32&#45;&gt;Node10 -->
<g id="edge49" class="edge">
<title>Node32&#45;&gt;Node10</title>
<path fill="none" stroke="#191970" d="M1419.7538,-291.4279C1412.1497,-269.8818 1391.6369,-216.5289 1363,-179 1354.4316,-167.7709 1342.8113,-157.1832 1332.7287,-149.0027"/>
<polygon fill="#191970" stroke="#191970" points="1334.7538,-146.1431 1324.7218,-142.7359 1330.4395,-151.6555 1334.7538,-146.1431"/>
</g>
<!-- Node32&#45;&gt;Node27 -->
<g id="edge50" class="edge">
<title>Node32&#45;&gt;Node27</title>
<path fill="none" stroke="#191970" d="M1426.6662,-291.4509C1433.7428,-273.0186 1449.4045,-232.2254 1458.6888,-208.043"/>
<polygon fill="#191970" stroke="#191970" points="1462.0263,-209.115 1462.3431,-198.5249 1455.4914,-206.606 1462.0263,-209.115"/>
</g>
<!-- Node32&#45;&gt;Node30 -->
<g id="edge51" class="edge">
<title>Node32&#45;&gt;Node30</title>
<path fill="none" stroke="#191970" d="M1391.0255,-291.3733C1359.8287,-281.9807 1312.229,-267.6496 1278.2068,-257.4064"/>
<polygon fill="#191970" stroke="#191970" points="1279.1418,-254.0327 1268.5573,-254.5011 1277.1237,-260.7355 1279.1418,-254.0327"/>
</g>
<!-- Node33&#45;&gt;Node23 -->
<g id="edge55" class="edge">
<title>Node33&#45;&gt;Node23</title>
<path fill="none" stroke="#191970" d="M1102.3508,-179.295C1121.0099,-155.4697 1172.9384,-94.0732 1232,-67 1342.4514,-16.3704 1386.226,-64.5664 1503,-31 1504.9639,-30.4355 1506.9594,-29.7752 1508.9488,-29.0513"/>
<polygon fill="#191970" stroke="#191970" points="1510.7564,-32.0922 1518.6721,-25.05 1508.0925,-25.6189 1510.7564,-32.0922"/>
</g>
<!-- Node34&#45;&gt;Node2 -->
<g id="edge57" class="edge">
<title>Node34&#45;&gt;Node2</title>
<path fill="none" stroke="#191970" d="M1718.5756,-347.4369C1800.9909,-335.418 1939.3511,-315.2405 2003.0386,-305.9527"/>
<polygon fill="#191970" stroke="#191970" points="2003.9266,-309.3603 2013.3168,-304.4538 2002.9164,-302.4336 2003.9266,-309.3603"/>
</g>
<!-- Node34&#45;&gt;Node7 -->
<g id="edge59" class="edge">
<title>Node34&#45;&gt;Node7</title>
<path fill="none" stroke="#191970" d="M1682.5685,-347.3976C1699.4108,-340.2338 1719.0794,-328.6009 1729,-311 1740.415,-290.7478 1717.9554,-271.8706 1696.9468,-259.5373"/>
<polygon fill="#191970" stroke="#191970" points="1698.5803,-256.4412 1688.135,-254.6674 1695.1943,-262.5678 1698.5803,-256.4412"/>
</g>
<!-- Node34&#45;&gt;Node10 -->
<g id="edge58" class="edge">
<title>Node34&#45;&gt;Node10</title>
<path fill="none" stroke="#191970" d="M1693.2925,-347.4495C1712.4658,-340.6623 1733.6402,-329.3805 1745,-311 1757.2928,-291.1098 1741.0219,-246.8976 1729,-235 1703.6108,-209.8732 1482.8009,-165.3503 1372.7743,-144.444"/>
<polygon fill="#191970" stroke="#191970" points="1373.2794,-140.9775 1362.8029,-142.5564 1371.9773,-147.8554 1373.2794,-140.9775"/>
</g>
<!-- Node36&#45;&gt;Node1 -->
<g id="edge69" class="edge">
<title>Node36&#45;&gt;Node1</title>
<path fill="none" stroke="#191970" d="M1779.8715,-459.4246C1816.1496,-451.5878 1866.4867,-439.166 1909,-423 1927.2077,-416.0764 1929.716,-409.7195 1948,-403 1977.814,-392.0431 2064.0905,-373.4574 2111.6272,-363.5985"/>
<polygon fill="#191970" stroke="#191970" points="2112.6207,-366.9673 2121.7069,-361.5184 2111.2059,-360.1118 2112.6207,-366.9673"/>
</g>
<!-- Node36&#45;&gt;Node2 -->
<g id="edge68" class="edge">
<title>Node36&#45;&gt;Node2</title>
<path fill="none" stroke="#191970" d="M1674.7776,-461.3569C1624.5334,-452.3185 1562.9821,-434.3829 1592,-403 1661.4604,-327.8784 1981.5396,-442.1216 2051,-367 2062.7418,-354.3012 2056.2812,-334.2945 2048.7096,-319.6347"/>
<polygon fill="#191970" stroke="#191970" points="2051.734,-317.8727 2043.7537,-310.9038 2045.6464,-321.3282 2051.734,-317.8727"/>
</g>
<!-- Node36&#45;&gt;Node4 -->
<g id="edge67" class="edge">
<title>Node36&#45;&gt;Node4</title>
<path fill="none" stroke="#191970" d="M1787.2307,-463.4103C1852.1481,-456.4872 1962.2643,-443.3025 2065.642,-423.0855"/>
<polygon fill="#191970" stroke="#191970" points="2066.4949,-426.4846 2075.6235,-421.107 2065.1338,-419.6182 2066.4949,-426.4846"/>
</g>
<!-- Node36&#45;&gt;Node24 -->
<g id="edge72" class="edge">
<title>Node36&#45;&gt;Node24</title>
<path fill="none" stroke="#191970" d="M1683.526,-459.4369C1635.5486,-449.7724 1561.383,-434.8326 1510.1949,-424.5213"/>
<polygon fill="#191970" stroke="#191970" points="1510.7725,-421.0674 1500.2782,-422.5237 1509.3901,-427.9296 1510.7725,-421.0674"/>
</g>
<!-- Node37 -->
<g id="node38" class="node">
<title>Node37</title>
<polygon fill="none" stroke="#bfbfbf" points="1601,-403.5 1601,-422.5 1645,-422.5 1645,-403.5 1601,-403.5"/>
<text text-anchor="middle" x="1623" y="-410.5" font-family="Helvetica,sans-Serif" font-size="10.00" fill="#000000">Vc/Vc</text>
</g>
<!-- Node36&#45;&gt;Node37 -->
<g id="edge66" class="edge">
<title>Node36&#45;&gt;Node37</title>
<path fill="none" stroke="#191970" d="M1712.1878,-459.2455C1695.1527,-450.4125 1669.8425,-437.2887 1650.5319,-427.2758"/>
<polygon fill="#191970" stroke="#191970" points="1652.0853,-424.1388 1641.5966,-422.6427 1648.863,-430.353 1652.0853,-424.1388"/>
</g>
<!-- Node38 -->
<g id="node39" class="node">
<title>Node38</title>
<polygon fill="none" stroke="#bfbfbf" points="1663,-403.5 1663,-422.5 1719,-422.5 1719,-403.5 1663,-403.5"/>
<text text-anchor="middle" x="1691" y="-410.5" font-family="Helvetica,sans-Serif" font-size="10.00" fill="#000000">numeric</text>
</g>
<!-- Node36&#45;&gt;Node38 -->
<g id="edge70" class="edge">
<title>Node36&#45;&gt;Node38</title>
<path fill="none" stroke="#191970" d="M1724.0325,-459.2455C1718.4689,-451.4564 1710.522,-440.3308 1703.8171,-430.9439"/>
<polygon fill="#191970" stroke="#191970" points="1706.5481,-428.7457 1697.8876,-422.6427 1700.852,-432.8144 1706.5481,-428.7457"/>
</g>
<!-- Node39 -->
<g id="node40" class="node">
<title>Node39</title>
<polygon fill="none" stroke="#bfbfbf" points="1737.5,-403.5 1737.5,-422.5 1806.5,-422.5 1806.5,-403.5 1737.5,-403.5"/>
<text text-anchor="middle" x="1772" y="-410.5" font-family="Helvetica,sans-Serif" font-size="10.00" fill="#000000">type_traits</text>
</g>
<!-- Node36&#45;&gt;Node39 -->
<g id="edge71" class="edge">
<title>Node36&#45;&gt;Node39</title>
<path fill="none" stroke="#191970" d="M1738.1417,-459.2455C1743.8444,-451.4564 1751.99,-440.3308 1758.8625,-430.9439"/>
<polygon fill="#191970" stroke="#191970" points="1761.8568,-432.7789 1764.9402,-422.6427 1756.2087,-428.6437 1761.8568,-432.7789"/>
</g>
<!-- Node40 -->
<g id="node41" class="node">
<title>Node40</title>
<polygon fill="none" stroke="#bfbfbf" points="1824.5,-403.5 1824.5,-422.5 1899.5,-422.5 1899.5,-403.5 1824.5,-403.5"/>
<text text-anchor="middle" x="1862" y="-410.5" font-family="Helvetica,sans-Serif" font-size="10.00" fill="#000000">FairLogger.h</text>
</g>
<!-- Node36&#45;&gt;Node40 -->
<g id="edge73" class="edge">
<title>Node36&#45;&gt;Node40</title>
<path fill="none" stroke="#191970" d="M1753.5197,-459.3733C1774.7372,-450.3032 1806.7276,-436.6279 1830.4769,-426.4755"/>
<polygon fill="#191970" stroke="#191970" points="1831.9548,-429.6502 1839.7742,-422.5011 1829.2033,-423.2136 1831.9548,-429.6502"/>
</g>
<!-- Node36&#45;&gt;Node41 -->
<g id="edge74" class="edge">
<title>Node36&#45;&gt;Node41</title>
<path fill="none" stroke="#191970" d="M1778.1325,-459.4369C1825.7647,-449.7724 1899.3967,-434.8326 1950.2166,-424.5213"/>
<polygon fill="#191970" stroke="#191970" points="1950.9576,-427.9423 1960.0619,-422.5237 1949.5656,-421.0821 1950.9576,-427.9423"/>
</g>
<!-- Node43 -->
<g id="node44" class="node">
<title>Node43</title>
<polygon fill="none" stroke="#bfbfbf" points="1091,-403.5 1091,-422.5 1199,-422.5 1199,-403.5 1091,-403.5"/>
<text text-anchor="middle" x="1145" y="-410.5" font-family="Helvetica,sans-Serif" font-size="10.00" fill="#000000">fairlogger/Logger.h</text>
</g>
<!-- Node42&#45;&gt;Node43 -->
<g id="edge76" class="edge">
<title>Node42&#45;&gt;Node43</title>
<path fill="none" stroke="#191970" d="M1145,-459.2455C1145,-451.9382 1145,-441.6944 1145,-432.7046"/>
<polygon fill="#191970" stroke="#191970" points="1148.5001,-432.6426 1145,-422.6427 1141.5001,-432.6427 1148.5001,-432.6426"/>
</g>
<!-- Node45&#45;&gt;Node3 -->
<g id="edge80" class="edge">
<title>Node45&#45;&gt;Node3</title>
<path fill="none" stroke="#191970" d="M970.2187,-515.3371C958.7633,-506.1669 945.5637,-493.4651 938,-479 920.7729,-446.0543 918.1673,-401.7522 918.2785,-376.6033"/>
<polygon fill="#191970" stroke="#191970" points="921.7797,-376.573 918.478,-366.5057 914.7811,-376.4346 921.7797,-376.573"/>
</g>
<!-- Node45&#45;&gt;Node5 -->
<g id="edge81" class="edge">
<title>Node45&#45;&gt;Node5</title>
<path fill="none" stroke="#191970" d="M986.5618,-515.2977C983.667,-507.2055 980.0749,-497.1639 976.9766,-488.5029"/>
<polygon fill="#191970" stroke="#191970" points="980.1862,-487.0837 973.5225,-478.8469 973.5953,-489.4415 980.1862,-487.0837"/>
</g>
</g>
</svg>
