<?xml version="1.0" encoding="UTF-8" standalone="no"?>
<!DOCTYPE svg PUBLIC "-//W3C//DTD SVG 1.1//EN"
 "http://www.w3.org/Graphics/SVG/1.1/DTD/svg11.dtd">
<!-- Generated by graphviz version 2.40.1 (20161225.0304)
 -->
<!-- Title: /home/travis/build/AliceO2Group/AliceO2/Analysis/DataModel/include/PID/BetheBloch.h Pages: 1 -->
<!--zoomable 363 -->
<svg id="main" version="1.1" xmlns="http://www.w3.org/2000/svg" xmlns:xlink="http://www.w3.org/1999/xlink" xml:space="preserve" onload="init(evt)">
<style type="text/css"><![CDATA[
.edge:hover path { stroke: red; }
.edge:hover polygon { stroke: red; fill: red; }
]]></style>
<script type="text/javascript"><![CDATA[
var edges = document.getElementsByTagName('g');
if (edges && edges.length) {
  for (var i=0;i<edges.length;i++) {
    if (edges[i].id.substr(0,4)=='edge') {
      edges[i].setAttribute('class','edge');
    }
  }
}
]]></script>
        <defs>
                <circle id="rim" cx="0" cy="0" r="7"/>
                <circle id="rim2" cx="0" cy="0" r="3.5"/>
                <g id="zoomPlus">
                        <use xlink:href="#rim" fill="#404040">
                                <set attributeName="fill" to="#808080" begin="zoomplus.mouseover" end="zoomplus.mouseout"/>
                        </use>
                        <path d="M-4,0h8M0,-4v8" fill="none" stroke="white" stroke-width="1.5" pointer-events="none"/>
                </g>
                <g id="zoomMin">
                        <use xlink:href="#rim" fill="#404040">
                                <set attributeName="fill" to="#808080" begin="zoomminus.mouseover" end="zoomminus.mouseout"/>
                        </use>
                        <path d="M-4,0h8" fill="none" stroke="white" stroke-width="1.5" pointer-events="none"/>
                </g>
                <g id="dirArrow">
                        <path fill="none" stroke="white" stroke-width="1.5" d="M0,-3.0v7 M-2.5,-0.5L0,-3.0L2.5,-0.5"/>
                </g>
               <g id="resetDef">
                       <use xlink:href="#rim2" fill="#404040">
                               <set attributeName="fill" to="#808080" begin="reset.mouseover" end="reset.mouseout"/>
                       </use>
               </g>
        </defs>

<script type="text/javascript">
var viewWidth = 2651;
var viewHeight = 363;
var sectionId = 'dynsection-0';
</script>
<script xlink:href="../../svgpan.js"/>
<svg id="graph" class="graph">
<g id="viewport">
<title>/home/travis/build/AliceO2Group/AliceO2/Analysis/DataModel/include/PID/BetheBloch.h</title>
<!-- Node0 -->
<g id="node1" class="node">
<title>Node0</title>
<polygon fill="#bfbfbf" stroke="#000000" points="1021.5,-302.5 1021.5,-354.5 1176.5,-354.5 1176.5,-302.5 1021.5,-302.5"/>
<text text-anchor="start" x="1029.5" y="-342.5" font-family="Helvetica,sans-Serif" font-size="10.00" fill="#000000">/home/travis/build</text>
<text text-anchor="start" x="1029.5" y="-331.5" font-family="Helvetica,sans-Serif" font-size="10.00" fill="#000000">/AliceO2Group/AliceO2</text>
<text text-anchor="start" x="1029.5" y="-320.5" font-family="Helvetica,sans-Serif" font-size="10.00" fill="#000000">/Analysis/DataModel/include</text>
<text text-anchor="middle" x="1099" y="-309.5" font-family="Helvetica,sans-Serif" font-size="10.00" fill="#000000">/PID/BetheBloch.h</text>
</g>
<!-- Node1 -->
<g id="node2" class="node">
<title>Node1</title>
<g id="a_node2"><a xlink:href="../../da/d96/TPC_2simulation_2include_2TPCSimulation_2Detector_8h.html" target="_top" xlink:title="TPCSimulation/Detector.h">
<polygon fill="none" stroke="#000000" points="953.5,-246.5 953.5,-265.5 1094.5,-265.5 1094.5,-246.5 953.5,-246.5"/>
<text text-anchor="middle" x="1024" y="-253.5" font-family="Helvetica,sans-Serif" font-size="10.00" fill="#000000">TPCSimulation/Detector.h</text>
</a>
</g>
</g>
<!-- Node0&#45;&gt;Node1 -->
<g id="edge1" class="edge">
<title>Node0&#45;&gt;Node1</title>
<path fill="none" stroke="#191970" d="M1071.9233,-302.3258C1061.6683,-292.4127 1050.2837,-281.4075 1041.1847,-272.6118"/>
<polygon fill="#191970" stroke="#191970" points="1043.4853,-269.9678 1033.8628,-265.534 1038.6201,-275.0007 1043.4853,-269.9678"/>
</g>
<!-- Node46 -->
<g id="node47" class="node">
<title>Node46</title>
<g id="a_node47"><a xlink:href="../../d0/ded/ParamBase_8h.html" target="_top" xlink:title="Set of utilities to handle the parametrization of the PID response for each detector These are the ba...">
<polygon fill="none" stroke="#000000" points="1457,-246.5 1457,-265.5 1581,-265.5 1581,-246.5 1457,-246.5"/>
<text text-anchor="middle" x="1519" y="-253.5" font-family="Helvetica,sans-Serif" font-size="10.00" fill="#000000">PIDBase/ParamBase.h</text>
</a>
</g>
</g>
<!-- Node0&#45;&gt;Node46 -->
<g id="edge57" class="edge">
<title>Node0&#45;&gt;Node46</title>
<path fill="none" stroke="#191970" d="M1176.5239,-315.1179C1256.0954,-301.3823 1378.5571,-280.2431 1453.4547,-267.3144"/>
<polygon fill="#191970" stroke="#191970" points="1454.4392,-270.6963 1463.698,-265.5462 1453.2484,-263.7983 1454.4392,-270.6963"/>
</g>
<!-- Node2 -->
<g id="node3" class="node">
<title>Node2</title>
<g id="a_node3"><a xlink:href="../../d1/d3a/Base_2include_2DetectorsBase_2Detector_8h.html" target="_top" xlink:title="DetectorsBase/Detector.h">
<polygon fill="none" stroke="#000000" points="1707.5,-190.5 1707.5,-209.5 1848.5,-209.5 1848.5,-190.5 1707.5,-190.5"/>
<text text-anchor="middle" x="1778" y="-197.5" font-family="Helvetica,sans-Serif" font-size="10.00" fill="#000000">DetectorsBase/Detector.h</text>
</a>
</g>
</g>
<!-- Node1&#45;&gt;Node2 -->
<g id="edge2" class="edge">
<title>Node1&#45;&gt;Node2</title>
<path fill="none" stroke="#191970" d="M1094.5956,-250.7568C1235.0088,-240.3283 1548.5562,-217.0409 1697.0489,-206.0123"/>
<polygon fill="#191970" stroke="#191970" points="1697.7372,-209.4709 1707.4505,-205.2398 1697.2187,-202.4901 1697.7372,-209.4709"/>
</g>
<!-- Node10 -->
<g id="node11" class="node">
<title>Node10</title>
<polygon fill="none" stroke="#bfbfbf" points="1436.5,-6 1436.5,-25 1495.5,-25 1495.5,-6 1436.5,-6"/>
<text text-anchor="middle" x="1466" y="-13" font-family="Helvetica,sans-Serif" font-size="10.00" fill="#000000">Rtypes.h</text>
</g>
<!-- Node1&#45;&gt;Node10 -->
<g id="edge33" class="edge">
<title>Node1&#45;&gt;Node10</title>
<path fill="none" stroke="#191970" d="M1022.1281,-246.4765C1017.9873,-222.3711 1010.8019,-158.3499 1043,-123 1161.1758,6.7439 1259.6942,-83.9887 1427,-31 1429.2856,-30.2761 1431.6281,-29.4822 1433.9749,-28.6482"/>
<polygon fill="#191970" stroke="#191970" points="1435.379,-31.8598 1443.5133,-25.0713 1432.921,-25.3055 1435.379,-31.8598"/>
</g>
<!-- Node28 -->
<g id="node29" class="node">
<title>Node28</title>
<polygon fill="none" stroke="#bfbfbf" points="820,-190.5 820,-209.5 918,-209.5 918,-190.5 820,-190.5"/>
<text text-anchor="middle" x="869" y="-197.5" font-family="Helvetica,sans-Serif" font-size="10.00" fill="#000000">TLorentzVector.h</text>
</g>
<!-- Node1&#45;&gt;Node28 -->
<g id="edge34" class="edge">
<title>Node1&#45;&gt;Node28</title>
<path fill="none" stroke="#191970" d="M997.3546,-246.3733C971.8036,-237.1419 933.0488,-223.1402 904.8091,-212.9375"/>
<polygon fill="#191970" stroke="#191970" points="905.8921,-209.6074 895.2978,-209.5011 903.5135,-216.1909 905.8921,-209.6074"/>
</g>
<!-- Node29 -->
<g id="node30" class="node">
<title>Node29</title>
<polygon fill="none" stroke="#bfbfbf" points="936,-190.5 936,-209.5 996,-209.5 996,-190.5 936,-190.5"/>
<text text-anchor="middle" x="966" y="-197.5" font-family="Helvetica,sans-Serif" font-size="10.00" fill="#000000">TString.h</text>
</g>
<!-- Node1&#45;&gt;Node29 -->
<g id="edge35" class="edge">
<title>Node1&#45;&gt;Node29</title>
<path fill="none" stroke="#191970" d="M1013.8972,-246.2455C1005.4972,-238.1352 993.3506,-226.4075 983.3916,-216.7919"/>
<polygon fill="#191970" stroke="#191970" points="985.6122,-214.0707 975.9871,-209.6427 980.75,-219.1066 985.6122,-214.0707"/>
</g>
<!-- Node30 -->
<g id="node31" class="node">
<title>Node30</title>
<g id="a_node31"><a xlink:href="../../d4/de5/Point_8h.html" target="_top" xlink:title="Class for TPC Point. ">
<polygon fill="none" stroke="#000000" points="1106.5,-190.5 1106.5,-209.5 1231.5,-209.5 1231.5,-190.5 1106.5,-190.5"/>
<text text-anchor="middle" x="1169" y="-197.5" font-family="Helvetica,sans-Serif" font-size="10.00" fill="#000000">TPCSimulation/Point.h</text>
</a>
</g>
</g>
<!-- Node1&#45;&gt;Node30 -->
<g id="edge36" class="edge">
<title>Node1&#45;&gt;Node30</title>
<path fill="none" stroke="#191970" d="M1048.9264,-246.3733C1072.6202,-237.2226 1108.4511,-223.3844 1134.8068,-213.2057"/>
<polygon fill="#191970" stroke="#191970" points="1136.3314,-216.3689 1144.3989,-209.5011 1133.8094,-209.8389 1136.3314,-216.3689"/>
</g>
<!-- Node41 -->
<g id="node42" class="node">
<title>Node41</title>
<g id="a_node42"><a xlink:href="../../d3/dd6/Sector_8h.html" target="_top" xlink:title="TPCBase/Sector.h">
<polygon fill="none" stroke="#000000" points="700.5,-190.5 700.5,-209.5 801.5,-209.5 801.5,-190.5 700.5,-190.5"/>
<text text-anchor="middle" x="751" y="-197.5" font-family="Helvetica,sans-Serif" font-size="10.00" fill="#000000">TPCBase/Sector.h</text>
</a>
</g>
</g>
<!-- Node1&#45;&gt;Node41 -->
<g id="edge51" class="edge">
<title>Node1&#45;&gt;Node41</title>
<path fill="none" stroke="#191970" d="M977.3798,-246.4369C930.3635,-236.7925 857.7371,-221.8948 807.4807,-211.5858"/>
<polygon fill="#191970" stroke="#191970" points="807.9273,-208.1046 797.4279,-209.5237 806.5206,-214.9618 807.9273,-208.1046"/>
</g>
<!-- Node3 -->
<g id="node4" class="node">
<title>Node3</title>
<polygon fill="none" stroke="#bfbfbf" points="1626,-67.5 1626,-86.5 1664,-86.5 1664,-67.5 1626,-67.5"/>
<text text-anchor="middle" x="1645" y="-74.5" font-family="Helvetica,sans-Serif" font-size="10.00" fill="#000000">map</text>
</g>
<!-- Node2&#45;&gt;Node3 -->
<g id="edge3" class="edge">
<title>Node2&#45;&gt;Node3</title>
<path fill="none" stroke="#191970" d="M1707.2961,-195.6275C1646.7247,-190.2312 1566.1632,-178.5536 1546,-154 1537.2562,-143.3523 1538.5893,-134.615 1546,-123 1561.2049,-99.169 1592.2995,-87.4922 1615.6061,-81.8964"/>
<polygon fill="#191970" stroke="#191970" points="1616.6399,-85.2542 1625.6814,-79.7315 1615.1693,-78.4105 1616.6399,-85.2542"/>
</g>
<!-- Node4 -->
<g id="node5" class="node">
<title>Node4</title>
<polygon fill="none" stroke="#bfbfbf" points="1197.5,-129 1197.5,-148 1244.5,-148 1244.5,-129 1197.5,-129"/>
<text text-anchor="middle" x="1221" y="-136" font-family="Helvetica,sans-Serif" font-size="10.00" fill="#000000">vector</text>
</g>
<!-- Node2&#45;&gt;Node4 -->
<g id="edge4" class="edge">
<title>Node2&#45;&gt;Node4</title>
<path fill="none" stroke="#191970" d="M1707.03,-196.3354C1585.3707,-189.615 1342.0757,-174.1406 1259,-154 1256.2086,-153.3233 1253.3541,-152.4753 1250.5255,-151.5268"/>
<polygon fill="#191970" stroke="#191970" points="1251.7304,-148.2408 1241.1379,-148.0176 1249.2793,-154.7976 1251.7304,-148.2408"/>
</g>
<!-- Node5 -->
<g id="node6" class="node">
<title>Node5</title>
<polygon fill="none" stroke="#bfbfbf" points="2510.5,-67.5 2510.5,-86.5 2593.5,-86.5 2593.5,-67.5 2510.5,-67.5"/>
<text text-anchor="middle" x="2552" y="-74.5" font-family="Helvetica,sans-Serif" font-size="10.00" fill="#000000">initializer_list</text>
</g>
<!-- Node2&#45;&gt;Node5 -->
<g id="edge5" class="edge">
<title>Node2&#45;&gt;Node5</title>
<path fill="none" stroke="#191970" d="M1848.6387,-190.8662C1851.8002,-190.5533 1854.9319,-190.2622 1858,-190 1901.1666,-186.3103 2607.0808,-185.3338 2637,-154 2646.5148,-144.0353 2644.0526,-134.8359 2637,-123 2628.109,-108.0789 2612.5103,-97.7035 2597.0823,-90.6373"/>
<polygon fill="#191970" stroke="#191970" points="2598.1358,-87.2841 2587.5598,-86.6541 2595.4346,-93.742 2598.1358,-87.2841"/>
</g>
<!-- Node6 -->
<g id="node7" class="node">
<title>Node6</title>
<polygon fill="none" stroke="#bfbfbf" points="2344,-129 2344,-148 2402,-148 2402,-129 2344,-129"/>
<text text-anchor="middle" x="2373" y="-136" font-family="Helvetica,sans-Serif" font-size="10.00" fill="#000000">memory</text>
</g>
<!-- Node2&#45;&gt;Node6 -->
<g id="edge6" class="edge">
<title>Node2&#45;&gt;Node6</title>
<path fill="none" stroke="#191970" d="M1848.6494,-190.9813C1851.808,-190.6372 1854.9361,-190.3082 1858,-190 2067.331,-168.9462 2124.2809,-198.0724 2330,-154 2333.4408,-153.2629 2336.9798,-152.316 2340.4797,-151.2542"/>
<polygon fill="#191970" stroke="#191970" points="2341.7474,-154.521 2350.1258,-148.0363 2339.5321,-147.8808 2341.7474,-154.521"/>
</g>
<!-- Node7 -->
<g id="node8" class="node">
<title>Node7</title>
<polygon fill="none" stroke="#bfbfbf" points="2420,-129 2420,-148 2504,-148 2504,-129 2420,-129"/>
<text text-anchor="middle" x="2462" y="-136" font-family="Helvetica,sans-Serif" font-size="10.00" fill="#000000">FairDetector.h</text>
</g>
<!-- Node2&#45;&gt;Node7 -->
<g id="edge7" class="edge">
<title>Node2&#45;&gt;Node7</title>
<path fill="none" stroke="#191970" d="M1848.6452,-190.9386C1851.805,-190.6061 1854.9345,-190.2911 1858,-190 2103.1949,-166.715 2168.6825,-198.1017 2411,-154 2415.5266,-153.1762 2420.2187,-152.0877 2424.8411,-150.8684"/>
<polygon fill="#191970" stroke="#191970" points="2426.1002,-154.149 2434.7581,-148.0423 2424.1817,-147.417 2426.1002,-154.149"/>
</g>
<!-- Node8 -->
<g id="node9" class="node">
<title>Node8</title>
<polygon fill="none" stroke="#bfbfbf" points="2522,-129 2522,-148 2628,-148 2628,-129 2522,-129"/>
<text text-anchor="middle" x="2575" y="-136" font-family="Helvetica,sans-Serif" font-size="10.00" fill="#000000">FairRootManager.h</text>
</g>
<!-- Node2&#45;&gt;Node8 -->
<g id="edge8" class="edge">
<title>Node2&#45;&gt;Node8</title>
<path fill="none" stroke="#191970" d="M1848.6416,-190.8997C1851.8024,-190.5777 1854.933,-190.2756 1858,-190 2148.3801,-163.9031 2224.7208,-197.5522 2513,-154 2519.1916,-153.0646 2525.6665,-151.7883 2531.9989,-150.3669"/>
<polygon fill="#191970" stroke="#191970" points="2532.853,-153.7614 2541.7714,-148.0419 2531.2328,-146.9515 2532.853,-153.7614"/>
</g>
<!-- Node9 -->
<g id="node10" class="node">
<title>Node9</title>
<g id="a_node10"><a xlink:href="../../d0/d9a/MaterialManager_8h.html" target="_top" xlink:title="DetectorsBase/MaterialManager.h">
<polygon fill="none" stroke="#000000" points="2106.5,-129 2106.5,-148 2287.5,-148 2287.5,-129 2106.5,-129"/>
<text text-anchor="middle" x="2197" y="-136" font-family="Helvetica,sans-Serif" font-size="10.00" fill="#000000">DetectorsBase/MaterialManager.h</text>
</a>
</g>
</g>
<!-- Node2&#45;&gt;Node9 -->
<g id="edge9" class="edge">
<title>Node2&#45;&gt;Node9</title>
<path fill="none" stroke="#191970" d="M1845.5511,-190.4701C1910.1411,-181.3081 2010.2561,-166.9765 2097,-154 2106.4138,-152.5917 2116.322,-151.0853 2126.0938,-149.5853"/>
<polygon fill="#191970" stroke="#191970" points="2126.8503,-153.0102 2136.2011,-148.0289 2125.7849,-146.0917 2126.8503,-153.0102"/>
</g>
<!-- Node2&#45;&gt;Node10 -->
<g id="edge15" class="edge">
<title>Node2&#45;&gt;Node10</title>
<path fill="none" stroke="#191970" d="M1707.1957,-198.4545C1579.0635,-194.9203 1319.377,-184.0906 1292,-154 1282.728,-143.809 1285.2898,-135.0333 1292,-123 1307.9033,-94.4811 1390.7643,-51.4547 1436.1659,-29.4858"/>
<polygon fill="#191970" stroke="#191970" points="1437.7447,-32.6104 1445.248,-25.1303 1434.7178,-26.2987 1437.7447,-32.6104"/>
</g>
<!-- Node13 -->
<g id="node14" class="node">
<title>Node13</title>
<polygon fill="none" stroke="#bfbfbf" points="1555,-129 1555,-148 1613,-148 1613,-129 1555,-129"/>
<text text-anchor="middle" x="1584" y="-136" font-family="Helvetica,sans-Serif" font-size="10.00" fill="#000000">cxxabi.h</text>
</g>
<!-- Node2&#45;&gt;Node13 -->
<g id="edge16" class="edge">
<title>Node2&#45;&gt;Node13</title>
<path fill="none" stroke="#191970" d="M1742.6246,-190.478C1711.0207,-181.7403 1663.5819,-168.0544 1623,-154 1620.8743,-153.2638 1618.6941,-152.4798 1616.5034,-151.6701"/>
<polygon fill="#191970" stroke="#191970" points="1617.5591,-148.3267 1606.9686,-148.0252 1615.0596,-154.8653 1617.5591,-148.3267"/>
</g>
<!-- Node14 -->
<g id="node15" class="node">
<title>Node14</title>
<polygon fill="none" stroke="#bfbfbf" points="1631.5,-129 1631.5,-148 1688.5,-148 1688.5,-129 1631.5,-129"/>
<text text-anchor="middle" x="1660" y="-136" font-family="Helvetica,sans-Serif" font-size="10.00" fill="#000000">typeinfo</text>
</g>
<!-- Node2&#45;&gt;Node14 -->
<g id="edge17" class="edge">
<title>Node2&#45;&gt;Node14</title>
<path fill="none" stroke="#191970" d="M1759.5625,-190.3906C1740.1653,-180.2811 1709.431,-164.2628 1687.2383,-152.6962"/>
<polygon fill="#191970" stroke="#191970" points="1688.7936,-149.56 1678.308,-148.0419 1685.5582,-155.7675 1688.7936,-149.56"/>
</g>
<!-- Node15 -->
<g id="node16" class="node">
<title>Node15</title>
<polygon fill="none" stroke="#bfbfbf" points="1706.5,-129 1706.5,-148 1775.5,-148 1775.5,-129 1706.5,-129"/>
<text text-anchor="middle" x="1741" y="-136" font-family="Helvetica,sans-Serif" font-size="10.00" fill="#000000">type_traits</text>
</g>
<!-- Node2&#45;&gt;Node15 -->
<g id="edge18" class="edge">
<title>Node2&#45;&gt;Node15</title>
<path fill="none" stroke="#191970" d="M1772.2188,-190.3906C1766.874,-181.5068 1758.7841,-168.0601 1752.1789,-157.0811"/>
<polygon fill="#191970" stroke="#191970" points="1755.0171,-155.0093 1746.8628,-148.2449 1749.0189,-158.618 1755.0171,-155.0093"/>
</g>
<!-- Node16 -->
<g id="node17" class="node">
<title>Node16</title>
<polygon fill="none" stroke="#bfbfbf" points="1794,-129 1794,-148 1838,-148 1838,-129 1794,-129"/>
<text text-anchor="middle" x="1816" y="-136" font-family="Helvetica,sans-Serif" font-size="10.00" fill="#000000">string</text>
</g>
<!-- Node2&#45;&gt;Node16 -->
<g id="edge19" class="edge">
<title>Node2&#45;&gt;Node16</title>
<path fill="none" stroke="#191970" d="M1783.9375,-190.3906C1789.4267,-181.5068 1797.7353,-168.0601 1804.519,-157.0811"/>
<polygon fill="#191970" stroke="#191970" points="1807.6998,-158.5917 1809.9788,-148.2449 1801.7449,-154.9122 1807.6998,-158.5917"/>
</g>
<!-- Node17 -->
<g id="node18" class="node">
<title>Node17</title>
<polygon fill="none" stroke="#bfbfbf" points="1856,-129 1856,-148 1930,-148 1930,-129 1856,-129"/>
<text text-anchor="middle" x="1893" y="-136" font-family="Helvetica,sans-Serif" font-size="10.00" fill="#000000">TMessage.h</text>
</g>
<!-- Node2&#45;&gt;Node17 -->
<g id="edge20" class="edge">
<title>Node2&#45;&gt;Node17</title>
<path fill="none" stroke="#191970" d="M1795.9688,-190.3906C1814.7884,-180.3262 1844.5585,-164.4057 1866.1641,-152.8514"/>
<polygon fill="#191970" stroke="#191970" points="1867.9898,-155.8442 1875.1574,-148.0419 1864.6886,-149.6714 1867.9898,-155.8442"/>
</g>
<!-- Node18 -->
<g id="node19" class="node">
<title>Node18</title>
<g id="a_node19"><a xlink:href="../../de/d61/ShmManager_8h.html" target="_top" xlink:title="CommonUtils/ShmManager.h">
<polygon fill="none" stroke="#000000" points="2231,-67.5 2231,-86.5 2389,-86.5 2389,-67.5 2231,-67.5"/>
<text text-anchor="middle" x="2310" y="-74.5" font-family="Helvetica,sans-Serif" font-size="10.00" fill="#000000">CommonUtils/ShmManager.h</text>
</a>
</g>
</g>
<!-- Node2&#45;&gt;Node18 -->
<g id="edge21" class="edge">
<title>Node2&#45;&gt;Node18</title>
<path fill="none" stroke="#191970" d="M1848.6516,-191.0031C1851.8097,-190.6532 1854.937,-190.3169 1858,-190 1906.6817,-184.9636 2260.9469,-187.0975 2297,-154 2312.5575,-139.7179 2313.995,-114.3058 2312.7361,-96.5974"/>
<polygon fill="#191970" stroke="#191970" points="2316.201,-96.0799 2311.6735,-86.5013 2309.2395,-96.8127 2316.201,-96.0799"/>
</g>
<!-- Node24 -->
<g id="node25" class="node">
<title>Node24</title>
<g id="a_node25"><a xlink:href="../../d0/d91/ShmAllocator_8h.html" target="_top" xlink:title="CommonUtils/ShmAllocator.h">
<polygon fill="none" stroke="#000000" points="1301,-129 1301,-148 1461,-148 1461,-129 1301,-129"/>
<text text-anchor="middle" x="1381" y="-136" font-family="Helvetica,sans-Serif" font-size="10.00" fill="#000000">CommonUtils/ShmAllocator.h</text>
</a>
</g>
</g>
<!-- Node2&#45;&gt;Node24 -->
<g id="edge27" class="edge">
<title>Node2&#45;&gt;Node24</title>
<path fill="none" stroke="#191970" d="M1713.5353,-190.4568C1652.1697,-181.3147 1557.2441,-167.0232 1475,-154 1466.3354,-152.628 1457.2262,-151.1591 1448.2285,-149.6925"/>
<polygon fill="#191970" stroke="#191970" points="1448.5808,-146.2037 1438.1468,-148.0428 1447.4503,-153.1118 1448.5808,-146.2037"/>
</g>
<!-- Node25 -->
<g id="node26" class="node">
<title>Node25</title>
<polygon fill="none" stroke="#bfbfbf" points="1409,-67.5 1409,-86.5 1461,-86.5 1461,-67.5 1409,-67.5"/>
<text text-anchor="middle" x="1435" y="-74.5" font-family="Helvetica,sans-Serif" font-size="10.00" fill="#000000">cassert</text>
</g>
<!-- Node2&#45;&gt;Node25 -->
<g id="edge32" class="edge">
<title>Node2&#45;&gt;Node25</title>
<path fill="none" stroke="#191970" d="M1707.3198,-195.3781C1657.3796,-190.0517 1589.847,-178.6006 1535,-154 1502.085,-139.2365 1470.1467,-111.6155 1451.5423,-93.7807"/>
<polygon fill="#191970" stroke="#191970" points="1453.7894,-91.0822 1444.199,-86.5793 1448.8882,-96.08 1453.7894,-91.0822"/>
</g>
<!-- Node26 -->
<g id="node27" class="node">
<title>Node26</title>
<polygon fill="none" stroke="#bfbfbf" points="1948,-129 1948,-148 2014,-148 2014,-129 1948,-129"/>
<text text-anchor="middle" x="1981" y="-136" font-family="Helvetica,sans-Serif" font-size="10.00" fill="#000000">sys/shm.h</text>
</g>
<!-- Node2&#45;&gt;Node26 -->
<g id="edge30" class="edge">
<title>Node2&#45;&gt;Node26</title>
<path fill="none" stroke="#191970" d="M1814.3641,-190.4497C1847.1512,-181.6403 1896.5861,-167.8638 1939,-154 1941.3918,-153.2182 1943.8503,-152.3863 1946.3205,-151.5293"/>
<polygon fill="#191970" stroke="#191970" points="1947.5448,-154.8087 1955.7888,-148.1538 1945.1941,-148.2152 1947.5448,-154.8087"/>
</g>
<!-- Node27 -->
<g id="node28" class="node">
<title>Node27</title>
<polygon fill="none" stroke="#bfbfbf" points="2032,-129 2032,-148 2088,-148 2088,-129 2032,-129"/>
<text text-anchor="middle" x="2060" y="-136" font-family="Helvetica,sans-Serif" font-size="10.00" fill="#000000">unistd.h</text>
</g>
<!-- Node2&#45;&gt;Node27 -->
<g id="edge31" class="edge">
<title>Node2&#45;&gt;Node27</title>
<path fill="none" stroke="#191970" d="M1848.6384,-190.7784C1898.0978,-183.3457 1965.3754,-171.2682 2023,-154 2025.1682,-153.3503 2027.3822,-152.6157 2029.5955,-151.8283"/>
<polygon fill="#191970" stroke="#191970" points="2031.0827,-155.0059 2039.1494,-148.1372 2028.56,-148.4762 2031.0827,-155.0059"/>
</g>
<!-- Node9&#45;&gt;Node3 -->
<g id="edge11" class="edge">
<title>Node9&#45;&gt;Node3</title>
<path fill="none" stroke="#191970" d="M2138.9067,-128.9691C2125.1848,-126.8639 2110.592,-124.7438 2097,-123 1938.1215,-102.6166 1746.8798,-85.6258 1674.5966,-79.4717"/>
<polygon fill="#191970" stroke="#191970" points="1674.6853,-75.9667 1664.4256,-78.6106 1674.0947,-82.9418 1674.6853,-75.9667"/>
</g>
<!-- Node9&#45;&gt;Node5 -->
<g id="edge13" class="edge">
<title>Node9&#45;&gt;Node5</title>
<path fill="none" stroke="#191970" d="M2252.0792,-128.9581C2319.8312,-117.2208 2433.9796,-97.4458 2500.1947,-85.9747"/>
<polygon fill="#191970" stroke="#191970" points="2501.1401,-89.3632 2510.3959,-84.2075 2499.9452,-82.4659 2501.1401,-89.3632"/>
</g>
<!-- Node9&#45;&gt;Node10 -->
<g id="edge10" class="edge">
<title>Node9&#45;&gt;Node10</title>
<path fill="none" stroke="#191970" d="M2140.2479,-128.9507C1997.8068,-104.9832 1627.8758,-42.7376 1505.7621,-22.1905"/>
<polygon fill="#191970" stroke="#191970" points="1506.1703,-18.71 1495.7281,-20.5021 1505.0087,-25.613 1506.1703,-18.71"/>
</g>
<!-- Node11 -->
<g id="node12" class="node">
<title>Node11</title>
<polygon fill="none" stroke="#bfbfbf" points="2075.5,-67.5 2075.5,-86.5 2168.5,-86.5 2168.5,-67.5 2075.5,-67.5"/>
<text text-anchor="middle" x="2122" y="-74.5" font-family="Helvetica,sans-Serif" font-size="10.00" fill="#000000">unordered_map</text>
</g>
<!-- Node9&#45;&gt;Node11 -->
<g id="edge12" class="edge">
<title>Node9&#45;&gt;Node11</title>
<path fill="none" stroke="#191970" d="M2185.2813,-128.8906C2173.6812,-119.3786 2155.7021,-104.6357 2141.8679,-93.2917"/>
<polygon fill="#191970" stroke="#191970" points="2143.836,-90.3792 2133.884,-86.7449 2139.3974,-95.7921 2143.836,-90.3792"/>
</g>
<!-- Node12 -->
<g id="node13" class="node">
<title>Node12</title>
<polygon fill="none" stroke="#bfbfbf" points="1717.5,-6 1717.5,-25 1766.5,-25 1766.5,-6 1717.5,-6"/>
<text text-anchor="middle" x="1742" y="-13" font-family="Helvetica,sans-Serif" font-size="10.00" fill="#000000">iosfwd</text>
</g>
<!-- Node9&#45;&gt;Node12 -->
<g id="edge14" class="edge">
<title>Node9&#45;&gt;Node12</title>
<path fill="none" stroke="#191970" d="M2197.5637,-128.8962C2197.9009,-113.3031 2196.0497,-82.6503 2178,-67 2147.8223,-40.8339 1874.7559,-22.9901 1776.7864,-17.3826"/>
<polygon fill="#191970" stroke="#191970" points="1776.9762,-13.8879 1766.7948,-16.8186 1776.5816,-20.8767 1776.9762,-13.8879"/>
</g>
<!-- Node19 -->
<g id="node20" class="node">
<title>Node19</title>
<polygon fill="none" stroke="#bfbfbf" points="2233,-6 2233,-25 2265,-25 2265,-6 2233,-6"/>
<text text-anchor="middle" x="2249" y="-13" font-family="Helvetica,sans-Serif" font-size="10.00" fill="#000000">list</text>
</g>
<!-- Node18&#45;&gt;Node19 -->
<g id="edge22" class="edge">
<title>Node18&#45;&gt;Node19</title>
<path fill="none" stroke="#191970" d="M2300.4688,-67.3906C2291.2121,-58.0581 2276.961,-43.6902 2265.7997,-32.4374"/>
<polygon fill="#191970" stroke="#191970" points="2268.1928,-29.88 2258.6656,-25.2449 2263.2228,-34.8095 2268.1928,-29.88"/>
</g>
<!-- Node20 -->
<g id="node21" class="node">
<title>Node20</title>
<polygon fill="none" stroke="#bfbfbf" points="2283.5,-6 2283.5,-25 2336.5,-25 2336.5,-6 2283.5,-6"/>
<text text-anchor="middle" x="2310" y="-13" font-family="Helvetica,sans-Serif" font-size="10.00" fill="#000000">cstddef</text>
</g>
<!-- Node18&#45;&gt;Node20 -->
<g id="edge23" class="edge">
<title>Node18&#45;&gt;Node20</title>
<path fill="none" stroke="#191970" d="M2310,-67.3906C2310,-58.8657 2310,-46.1392 2310,-35.4235"/>
<polygon fill="#191970" stroke="#191970" points="2313.5001,-35.2448 2310,-25.2449 2306.5001,-35.2449 2313.5001,-35.2448"/>
</g>
<!-- Node21 -->
<g id="node22" class="node">
<title>Node21</title>
<polygon fill="none" stroke="#bfbfbf" points="2355,-6 2355,-25 2405,-25 2405,-6 2355,-6"/>
<text text-anchor="middle" x="2380" y="-13" font-family="Helvetica,sans-Serif" font-size="10.00" fill="#000000">atomic</text>
</g>
<!-- Node18&#45;&gt;Node21 -->
<g id="edge24" class="edge">
<title>Node18&#45;&gt;Node21</title>
<path fill="none" stroke="#191970" d="M2320.9375,-67.3906C2331.662,-57.9683 2348.2287,-43.4134 2361.0901,-32.1137"/>
<polygon fill="#191970" stroke="#191970" points="2363.7059,-34.4745 2368.9083,-25.2449 2359.0857,-29.2158 2363.7059,-34.4745"/>
</g>
<!-- Node22 -->
<g id="node23" class="node">
<title>Node22</title>
<polygon fill="none" stroke="#bfbfbf" points="2423.5,-.5 2423.5,-30.5 2588.5,-30.5 2588.5,-.5 2423.5,-.5"/>
<text text-anchor="start" x="2431.5" y="-18.5" font-family="Helvetica,sans-Serif" font-size="10.00" fill="#000000">boost/interprocess</text>
<text text-anchor="middle" x="2506" y="-7.5" font-family="Helvetica,sans-Serif" font-size="10.00" fill="#000000">/managed_external_buffer.hpp</text>
</g>
<!-- Node18&#45;&gt;Node22 -->
<g id="edge25" class="edge">
<title>Node18&#45;&gt;Node22</title>
<path fill="none" stroke="#191970" d="M2340.625,-67.3906C2369.3617,-58.3737 2413.079,-44.6563 2448.3486,-33.5896"/>
<polygon fill="#191970" stroke="#191970" points="2449.5595,-36.878 2458.053,-30.5446 2447.4638,-30.199 2449.5595,-36.878"/>
</g>
<!-- Node23 -->
<g id="node24" class="node">
<title>Node23</title>
<polygon fill="none" stroke="#bfbfbf" points="2081,-.5 2081,-30.5 2215,-30.5 2215,-.5 2081,-.5"/>
<text text-anchor="start" x="2089" y="-18.5" font-family="Helvetica,sans-Serif" font-size="10.00" fill="#000000">boost/interprocess</text>
<text text-anchor="middle" x="2148" y="-7.5" font-family="Helvetica,sans-Serif" font-size="10.00" fill="#000000">/allocators/allocator.hpp</text>
</g>
<!-- Node18&#45;&gt;Node23 -->
<g id="edge26" class="edge">
<title>Node18&#45;&gt;Node23</title>
<path fill="none" stroke="#191970" d="M2284.6875,-67.3906C2261.3417,-58.5279 2226.0338,-45.1239 2197.1516,-34.1594"/>
<polygon fill="#191970" stroke="#191970" points="2198.2209,-30.8217 2187.6297,-30.5446 2195.7364,-37.366 2198.2209,-30.8217"/>
</g>
<!-- Node24&#45;&gt;Node18 -->
<g id="edge28" class="edge">
<title>Node24&#45;&gt;Node18</title>
<path fill="none" stroke="#191970" d="M1461.0969,-130.3788C1488.0548,-127.8046 1518.3137,-125.0882 1546,-123 1826.5473,-101.8397 1897.2731,-105.6273 2178,-87 2191.7475,-86.0878 2206.295,-85.0544 2220.514,-84.0067"/>
<polygon fill="#191970" stroke="#191970" points="2221.0803,-87.4744 2230.7934,-83.2428 2220.5615,-80.4936 2221.0803,-87.4744"/>
</g>
<!-- Node24&#45;&gt;Node25 -->
<g id="edge29" class="edge">
<title>Node24&#45;&gt;Node25</title>
<path fill="none" stroke="#191970" d="M1389.4375,-128.8906C1397.5531,-119.6478 1410.0055,-105.466 1419.8424,-94.2628"/>
<polygon fill="#191970" stroke="#191970" points="1422.4755,-96.5686 1426.4435,-86.7449 1417.2154,-91.95 1422.4755,-96.5686"/>
</g>
<!-- Node30&#45;&gt;Node4 -->
<g id="edge49" class="edge">
<title>Node30&#45;&gt;Node4</title>
<path fill="none" stroke="#191970" d="M1177.125,-190.3906C1184.8642,-181.2376 1196.6987,-167.2409 1206.1272,-156.09"/>
<polygon fill="#191970" stroke="#191970" points="1208.9765,-158.1409 1212.7604,-148.2449 1203.6311,-153.6213 1208.9765,-158.1409"/>
</g>
<!-- Node30&#45;&gt;Node24 -->
<g id="edge50" class="edge">
<title>Node30&#45;&gt;Node24</title>
<path fill="none" stroke="#191970" d="M1202.125,-190.3906C1238.8411,-179.7395 1298.1664,-162.5296 1338.3338,-150.8772"/>
<polygon fill="#191970" stroke="#191970" points="1339.4787,-154.1895 1348.1076,-148.0419 1337.5284,-147.4666 1339.4787,-154.1895"/>
</g>
<!-- Node31 -->
<g id="node32" class="node">
<title>Node31</title>
<g id="a_node32"><a xlink:href="../../d4/d25/BaseHits_8h.html" target="_top" xlink:title="SimulationDataFormat\l/BaseHits.h">
<polygon fill="none" stroke="#000000" points="1052.5,-123.5 1052.5,-153.5 1179.5,-153.5 1179.5,-123.5 1052.5,-123.5"/>
<text text-anchor="start" x="1060.5" y="-141.5" font-family="Helvetica,sans-Serif" font-size="10.00" fill="#000000">SimulationDataFormat</text>
<text text-anchor="middle" x="1116" y="-130.5" font-family="Helvetica,sans-Serif" font-size="10.00" fill="#000000">/BaseHits.h</text>
</a>
</g>
</g>
<!-- Node30&#45;&gt;Node31 -->
<g id="edge37" class="edge">
<title>Node30&#45;&gt;Node31</title>
<path fill="none" stroke="#191970" d="M1160.7188,-190.3906C1154.0108,-182.6068 1144.2841,-171.3202 1135.6141,-161.2597"/>
<polygon fill="#191970" stroke="#191970" points="1138.1448,-158.8349 1128.9653,-153.5446 1132.8422,-163.4046 1138.1448,-158.8349"/>
</g>
<!-- Node32 -->
<g id="node33" class="node">
<title>Node32</title>
<g id="a_node33"><a xlink:href="../../dc/d73/Cartesian_8h.html" target="_top" xlink:title="MathUtils/Cartesian.h">
<polygon fill="none" stroke="#000000" points="874,-67.5 874,-86.5 996,-86.5 996,-67.5 874,-67.5"/>
<text text-anchor="middle" x="935" y="-74.5" font-family="Helvetica,sans-Serif" font-size="10.00" fill="#000000">MathUtils/Cartesian.h</text>
</a>
</g>
</g>
<!-- Node31&#45;&gt;Node32 -->
<g id="edge38" class="edge">
<title>Node31&#45;&gt;Node32</title>
<path fill="none" stroke="#191970" d="M1071.7224,-123.4554C1041.3896,-113.149 1001.5871,-99.6249 972.7556,-89.8286"/>
<polygon fill="#191970" stroke="#191970" points="973.643,-86.4336 963.0486,-86.5303 971.3909,-93.0615 973.643,-86.4336"/>
</g>
<!-- Node32&#45;&gt;Node10 -->
<g id="edge46" class="edge">
<title>Node32&#45;&gt;Node10</title>
<path fill="none" stroke="#191970" d="M996.3667,-68.5818C1000.9771,-68.0216 1005.5604,-67.4873 1010,-67 1194.9119,-46.7018 1245.9699,-73.8084 1427,-31 1429.8583,-30.3241 1432.7835,-29.4767 1435.6837,-28.5286"/>
<polygon fill="#191970" stroke="#191970" points="1437.1161,-31.7318 1445.3138,-25.02 1434.7198,-25.1548 1437.1161,-31.7318"/>
</g>
<!-- Node32&#45;&gt;Node12 -->
<g id="edge48" class="edge">
<title>Node32&#45;&gt;Node12</title>
<path fill="none" stroke="#191970" d="M996.3185,-72.327C1156.2578,-60.1383 1582.3645,-27.6655 1707.1842,-18.1533"/>
<polygon fill="#191970" stroke="#191970" points="1707.6111,-21.631 1717.3162,-17.3811 1707.0791,-14.6512 1707.6111,-21.631"/>
</g>
<!-- Node33 -->
<g id="node34" class="node">
<title>Node33</title>
<polygon fill="none" stroke="#bfbfbf" points="0,-.5 0,-30.5 164,-30.5 164,-.5 0,-.5"/>
<text text-anchor="start" x="8" y="-18.5" font-family="Helvetica,sans-Serif" font-size="10.00" fill="#000000">Math/GenVector/Displacement</text>
<text text-anchor="middle" x="82" y="-7.5" font-family="Helvetica,sans-Serif" font-size="10.00" fill="#000000">Vector3D.h</text>
</g>
<!-- Node32&#45;&gt;Node33 -->
<g id="edge39" class="edge">
<title>Node32&#45;&gt;Node33</title>
<path fill="none" stroke="#191970" d="M873.9555,-67.9498C870.9303,-67.6047 867.9324,-67.2852 865,-67 561.7671,-37.5132 480.83,-64.3248 174.3438,-31.0622"/>
<polygon fill="#191970" stroke="#191970" points="174.6014,-27.5695 164.2792,-29.9572 173.8374,-34.5277 174.6014,-27.5695"/>
</g>
<!-- Node34 -->
<g id="node35" class="node">
<title>Node34</title>
<polygon fill="none" stroke="#bfbfbf" points="182.5,-6 182.5,-25 371.5,-25 371.5,-6 182.5,-6"/>
<text text-anchor="middle" x="277" y="-13" font-family="Helvetica,sans-Serif" font-size="10.00" fill="#000000">Math/GenVector/PositionVector3D.h</text>
</g>
<!-- Node32&#45;&gt;Node34 -->
<g id="edge40" class="edge">
<title>Node32&#45;&gt;Node34</title>
<path fill="none" stroke="#191970" d="M873.9472,-68.0302C870.9242,-67.6639 867.9291,-67.3178 865,-67 650.5531,-43.734 595.3755,-54.9148 381,-31 369.634,-29.7321 357.6027,-28.1564 345.9123,-26.4997"/>
<polygon fill="#191970" stroke="#191970" points="346.1504,-22.9977 335.752,-25.0285 345.1472,-29.9255 346.1504,-22.9977"/>
</g>
<!-- Node35 -->
<g id="node36" class="node">
<title>Node35</title>
<polygon fill="none" stroke="#bfbfbf" points="390,-6 390,-25 550,-25 550,-6 390,-6"/>
<text text-anchor="middle" x="470" y="-13" font-family="Helvetica,sans-Serif" font-size="10.00" fill="#000000">Math/GenVector/Rotation3D.h</text>
</g>
<!-- Node32&#45;&gt;Node35 -->
<g id="edge41" class="edge">
<title>Node32&#45;&gt;Node35</title>
<path fill="none" stroke="#191970" d="M873.9288,-68.1847C870.9106,-67.7775 867.9216,-67.3805 865,-67 729.2087,-49.3157 694.5055,-50.7551 559,-31 550.11,-29.7039 540.7425,-28.2119 531.5562,-26.6764"/>
<polygon fill="#191970" stroke="#191970" points="532.1354,-23.2247 521.6904,-25.0004 530.963,-30.1258 532.1354,-23.2247"/>
</g>
<!-- Node36 -->
<g id="node37" class="node">
<title>Node36</title>
<polygon fill="none" stroke="#bfbfbf" points="568,-6 568,-25 736,-25 736,-6 568,-6"/>
<text text-anchor="middle" x="652" y="-13" font-family="Helvetica,sans-Serif" font-size="10.00" fill="#000000">Math/GenVector/Transform3D.h</text>
</g>
<!-- Node32&#45;&gt;Node36 -->
<g id="edge42" class="edge">
<title>Node32&#45;&gt;Node36</title>
<path fill="none" stroke="#191970" d="M891.0918,-67.4581C841.2101,-56.6181 759.781,-38.9224 706.0409,-27.2439"/>
<polygon fill="#191970" stroke="#191970" points="706.5265,-23.7678 696.0113,-25.0643 705.0399,-30.6081 706.5265,-23.7678"/>
</g>
<!-- Node37 -->
<g id="node38" class="node">
<title>Node37</title>
<polygon fill="none" stroke="#bfbfbf" points="754.5,-6 754.5,-25 927.5,-25 927.5,-6 754.5,-6"/>
<text text-anchor="middle" x="841" y="-13" font-family="Helvetica,sans-Serif" font-size="10.00" fill="#000000">Math/GenVector/Translation3D.h</text>
</g>
<!-- Node32&#45;&gt;Node37 -->
<g id="edge43" class="edge">
<title>Node32&#45;&gt;Node37</title>
<path fill="none" stroke="#191970" d="M920.3125,-67.3906C905.2744,-57.5519 881.6824,-42.1167 864.1333,-30.6351"/>
<polygon fill="#191970" stroke="#191970" points="865.8687,-27.588 855.5844,-25.0419 862.0363,-33.4457 865.8687,-27.588"/>
</g>
<!-- Node38 -->
<g id="node39" class="node">
<title>Node38</title>
<polygon fill="none" stroke="#bfbfbf" points="946,-.5 946,-30.5 1110,-30.5 1110,-.5 946,-.5"/>
<text text-anchor="start" x="954" y="-18.5" font-family="Helvetica,sans-Serif" font-size="10.00" fill="#000000">Math/GenVector/Displacement</text>
<text text-anchor="middle" x="1028" y="-7.5" font-family="Helvetica,sans-Serif" font-size="10.00" fill="#000000">Vector2D.h</text>
</g>
<!-- Node32&#45;&gt;Node38 -->
<g id="edge44" class="edge">
<title>Node32&#45;&gt;Node38</title>
<path fill="none" stroke="#191970" d="M949.5313,-67.3906C962.1177,-59.0673 980.7607,-46.7389 996.717,-36.1872"/>
<polygon fill="#191970" stroke="#191970" points="998.8391,-38.98 1005.2496,-30.5446 994.9779,-33.1411 998.8391,-38.98"/>
</g>
<!-- Node39 -->
<g id="node40" class="node">
<title>Node39</title>
<polygon fill="none" stroke="#bfbfbf" points="1128.5,-6 1128.5,-25 1317.5,-25 1317.5,-6 1128.5,-6"/>
<text text-anchor="middle" x="1223" y="-13" font-family="Helvetica,sans-Serif" font-size="10.00" fill="#000000">Math/GenVector/PositionVector2D.h</text>
</g>
<!-- Node32&#45;&gt;Node39 -->
<g id="edge45" class="edge">
<title>Node32&#45;&gt;Node39</title>
<path fill="none" stroke="#191970" d="M979.684,-67.4581C1030.5525,-56.5956 1113.6595,-38.8488 1168.3451,-27.1711"/>
<polygon fill="#191970" stroke="#191970" points="1169.1626,-30.5755 1178.2112,-25.0643 1167.7007,-23.7299 1169.1626,-30.5755"/>
</g>
<!-- Node40 -->
<g id="node41" class="node">
<title>Node40</title>
<polygon fill="none" stroke="#bfbfbf" points="1336,-6 1336,-25 1418,-25 1418,-6 1336,-6"/>
<text text-anchor="middle" x="1377" y="-13" font-family="Helvetica,sans-Serif" font-size="10.00" fill="#000000">TGeoMatrix.h</text>
</g>
<!-- Node32&#45;&gt;Node40 -->
<g id="edge47" class="edge">
<title>Node32&#45;&gt;Node40</title>
<path fill="none" stroke="#191970" d="M996.3826,-68.7185C1000.9894,-68.1267 1005.5675,-67.5479 1010,-67 1150.2851,-49.6583 1187.5851,-59.67 1326,-31 1330.2307,-30.1237 1334.6145,-29.0515 1338.9549,-27.884"/>
<polygon fill="#191970" stroke="#191970" points="1340.2604,-31.1509 1348.9111,-25.0342 1338.334,-24.4212 1340.2604,-31.1509"/>
</g>
<!-- Node42 -->
<g id="node43" class="node">
<title>Node42</title>
<g id="a_node43"><a xlink:href="../../d0/dda/DataFormats_2Detectors_2TPC_2include_2DataFormatsTPC_2Constants_8h.html" target="_top" xlink:title="DataFormatsTPC/Constants.h">
<polygon fill="none" stroke="#000000" points="542.5,-129 542.5,-148 701.5,-148 701.5,-129 542.5,-129"/>
<text text-anchor="middle" x="622" y="-136" font-family="Helvetica,sans-Serif" font-size="10.00" fill="#000000">DataFormatsTPC/Constants.h</text>
</a>
</g>
</g>
<!-- Node41&#45;&gt;Node42 -->
<g id="edge52" class="edge">
<title>Node41&#45;&gt;Node42</title>
<path fill="none" stroke="#191970" d="M730.8438,-190.3906C709.449,-180.1908 675.438,-163.9763 651.1298,-152.3875"/>
<polygon fill="#191970" stroke="#191970" points="652.5476,-149.186 642.0147,-148.0419 649.5352,-155.5047 652.5476,-149.186"/>
</g>
<!-- Node43 -->
<g id="node44" class="node">
<title>Node43</title>
<g id="a_node44"><a xlink:href="../../d1/d73/Defs_8h.html" target="_top" xlink:title="DataFormatsTPC/Defs.h">
<polygon fill="none" stroke="#000000" points="719.5,-129 719.5,-148 852.5,-148 852.5,-129 719.5,-129"/>
<text text-anchor="middle" x="786" y="-136" font-family="Helvetica,sans-Serif" font-size="10.00" fill="#000000">DataFormatsTPC/Defs.h</text>
</a>
</g>
</g>
<!-- Node41&#45;&gt;Node43 -->
<g id="edge53" class="edge">
<title>Node41&#45;&gt;Node43</title>
<path fill="none" stroke="#191970" d="M756.4688,-190.3906C761.5246,-181.5068 769.1772,-168.0601 775.4254,-157.0811"/>
<polygon fill="#191970" stroke="#191970" points="778.5498,-158.6672 780.4541,-148.2449 772.466,-155.2048 778.5498,-158.6672"/>
</g>
<!-- Node43&#45;&gt;Node32 -->
<g id="edge56" class="edge">
<title>Node43&#45;&gt;Node32</title>
<path fill="none" stroke="#191970" d="M809.2813,-128.8906C834.321,-118.5554 874.3225,-102.0447 902.466,-90.4284"/>
<polygon fill="#191970" stroke="#191970" points="903.974,-93.5925 911.8822,-86.5419 901.3033,-87.122 903.974,-93.5925"/>
</g>
<!-- Node44 -->
<g id="node45" class="node">
<title>Node44</title>
<polygon fill="none" stroke="#bfbfbf" points="650.5,-67.5 650.5,-86.5 697.5,-86.5 697.5,-67.5 650.5,-67.5"/>
<text text-anchor="middle" x="674" y="-74.5" font-family="Helvetica,sans-Serif" font-size="10.00" fill="#000000">cmath</text>
</g>
<!-- Node43&#45;&gt;Node44 -->
<g id="edge54" class="edge">
<title>Node43&#45;&gt;Node44</title>
<path fill="none" stroke="#191970" d="M768.5,-128.8906C750.2535,-118.8713 721.4376,-103.0483 700.4194,-91.5071"/>
<polygon fill="#191970" stroke="#191970" points="701.8272,-88.2872 691.3771,-86.5419 698.458,-94.423 701.8272,-88.2872"/>
</g>
<!-- Node45 -->
<g id="node46" class="node">
<title>Node45</title>
<g id="a_node46"><a xlink:href="../../d1/da8/GPUROOTCartesianFwd_8h.html" target="_top" xlink:title="GPUROOTCartesianFwd.h">
<polygon fill="none" stroke="#000000" points="716,-67.5 716,-86.5 856,-86.5 856,-67.5 716,-67.5"/>
<text text-anchor="middle" x="786" y="-74.5" font-family="Helvetica,sans-Serif" font-size="10.00" fill="#000000">GPUROOTCartesianFwd.h</text>
</a>
</g>
</g>
<!-- Node43&#45;&gt;Node45 -->
<g id="edge55" class="edge">
<title>Node43&#45;&gt;Node45</title>
<path fill="none" stroke="#191970" d="M786,-128.8906C786,-120.3657 786,-107.6392 786,-96.9235"/>
<polygon fill="#191970" stroke="#191970" points="789.5001,-96.7448 786,-86.7449 782.5001,-96.7449 789.5001,-96.7448"/>
</g>
<!-- Node47 -->
<g id="node48" class="node">
<title>Node47</title>
<polygon fill="none" stroke="#bfbfbf" points="1866.5,-190.5 1866.5,-209.5 1933.5,-209.5 1933.5,-190.5 1866.5,-190.5"/>
<text text-anchor="middle" x="1900" y="-197.5" font-family="Helvetica,sans-Serif" font-size="10.00" fill="#000000">TNamed.h</text>
</g>
<!-- Node46&#45;&gt;Node47 -->
<g id="edge58" class="edge">
<title>Node46&#45;&gt;Node47</title>
<path fill="none" stroke="#191970" d="M1581.1538,-249.4335C1647.1674,-242.0395 1754.7419,-228.794 1856.0385,-210.2381"/>
<polygon fill="#191970" stroke="#191970" points="1856.9406,-213.6306 1866.1353,-208.3667 1855.6649,-206.7478 1856.9406,-213.6306"/>
</g>
</g>
</svg>
        <g id="navigator" transform="translate(0 0)" fill="#404254">
                <rect fill="#f2f5e9" fill-opacity="0.5" stroke="#606060" stroke-width=".5" x="0" y="0" width="60" height="60"/>
                <use id="zoomplus" xlink:href="#zoomPlus" x="17" y="9" onmousedown="handleZoom(evt,'in')"/>
                <use id="zoomminus" xlink:href="#zoomMin" x="42" y="9" onmousedown="handleZoom(evt,'out')"/>
                <use id="reset" xlink:href="#resetDef" x="30" y="36" onmousedown="handleReset()"/>
                <g id="arrowUp" xlink:href="#dirArrow" transform="translate(30 24)" onmousedown="handlePan(0,-1)">
                  <use xlink:href="#rim" fill="#404040">
                        <set attributeName="fill" to="#808080" begin="arrowUp.mouseover" end="arrowUp.mouseout"/>
                  </use>
                  <path fill="none" stroke="white" stroke-width="1.5" d="M0,-3.0v7 M-2.5,-0.5L0,-3.0L2.5,-0.5"/>
                </g>
                <g id="arrowRight" xlink:href="#dirArrow" transform="rotate(90) translate(36 -43)" onmousedown="handlePan(1,0)">
                  <use xlink:href="#rim" fill="#404040">
                        <set attributeName="fill" to="#808080" begin="arrowRight.mouseover" end="arrowRight.mouseout"/>
                  </use>
                  <path fill="none" stroke="white" stroke-width="1.5" d="M0,-3.0v7 M-2.5,-0.5L0,-3.0L2.5,-0.5"/>
                </g>
                <g id="arrowDown" xlink:href="#dirArrow" transform="rotate(180) translate(-30 -48)" onmousedown="handlePan(0,1)">
                  <use xlink:href="#rim" fill="#404040">
                        <set attributeName="fill" to="#808080" begin="arrowDown.mouseover" end="arrowDown.mouseout"/>
                  </use>
                  <path fill="none" stroke="white" stroke-width="1.5" d="M0,-3.0v7 M-2.5,-0.5L0,-3.0L2.5,-0.5"/>
                </g>
                <g id="arrowLeft" xlink:href="#dirArrow" transform="rotate(270) translate(-36 17)" onmousedown="handlePan(-1,0)">
                  <use xlink:href="#rim" fill="#404040">
                        <set attributeName="fill" to="#808080" begin="arrowLeft.mouseover" end="arrowLeft.mouseout"/>
                  </use>
                  <path fill="none" stroke="white" stroke-width="1.5" d="M0,-3.0v7 M-2.5,-0.5L0,-3.0L2.5,-0.5"/>
                </g>
        </g>
        <svg viewBox="0 0 15 15" width="100%" height="30px" preserveAspectRatio="xMaxYMin meet">
         <g id="arrow_out" transform="scale(0.3 0.3)">
          <a xlink:href="BetheBloch_8h__incl_org.svg" target="_base">
           <rect id="button" ry="5" rx="5" y="6" x="6" height="38" width="38"
                fill="#f2f5e9" fill-opacity="0.5" stroke="#606060" stroke-width="1.0"/>
           <path id="arrow"
             d="M 11.500037,31.436501 C 11.940474,20.09759 22.043105,11.32322 32.158766,21.979434 L 37.068811,17.246167 C 37.068811,17.246167 37.088388,32 37.088388,32 L 22.160133,31.978069 C 22.160133,31.978069 26.997745,27.140456 26.997745,27.140456 C 18.528582,18.264221 13.291696,25.230495 11.500037,31.436501 z"
             style="fill:#404040;"/>
          </a>
         </g>
        </svg>
</svg>
