<?xml version="1.0" encoding="UTF-8" standalone="no"?>
<!DOCTYPE svg PUBLIC "-//W3C//DTD SVG 1.1//EN"
 "http://www.w3.org/Graphics/SVG/1.1/DTD/svg11.dtd">
<!-- Generated by graphviz version 2.40.1 (20161225.0304)
 -->
<!-- Title: /home/travis/build/AliceO2Group/AliceO2/Detectors/MUON/MID/TestingSimTools/src/HitFinder.cxx Pages: 1 -->
<!--zoomable 307 -->
<svg id="main" version="1.1" xmlns="http://www.w3.org/2000/svg" xmlns:xlink="http://www.w3.org/1999/xlink" xml:space="preserve" onload="init(evt)">
<style type="text/css"><![CDATA[
.edge:hover path { stroke: red; }
.edge:hover polygon { stroke: red; fill: red; }
]]></style>
<script type="text/javascript"><![CDATA[
var edges = document.getElementsByTagName('g');
if (edges && edges.length) {
  for (var i=0;i<edges.length;i++) {
    if (edges[i].id.substr(0,4)=='edge') {
      edges[i].setAttribute('class','edge');
    }
  }
}
]]></script>
        <defs>
                <circle id="rim" cx="0" cy="0" r="7"/>
                <circle id="rim2" cx="0" cy="0" r="3.5"/>
                <g id="zoomPlus">
                        <use xlink:href="#rim" fill="#404040">
                                <set attributeName="fill" to="#808080" begin="zoomplus.mouseover" end="zoomplus.mouseout"/>
                        </use>
                        <path d="M-4,0h8M0,-4v8" fill="none" stroke="white" stroke-width="1.5" pointer-events="none"/>
                </g>
                <g id="zoomMin">
                        <use xlink:href="#rim" fill="#404040">
                                <set attributeName="fill" to="#808080" begin="zoomminus.mouseover" end="zoomminus.mouseout"/>
                        </use>
                        <path d="M-4,0h8" fill="none" stroke="white" stroke-width="1.5" pointer-events="none"/>
                </g>
                <g id="dirArrow">
                        <path fill="none" stroke="white" stroke-width="1.5" d="M0,-3.0v7 M-2.5,-0.5L0,-3.0L2.5,-0.5"/>
                </g>
               <g id="resetDef">
                       <use xlink:href="#rim2" fill="#404040">
                               <set attributeName="fill" to="#808080" begin="reset.mouseover" end="reset.mouseout"/>
                       </use>
               </g>
        </defs>

<script type="text/javascript">
var viewWidth = 1729;
var viewHeight = 307;
var sectionId = 'dynsection-0';
</script>
<script xlink:href="../../svgpan.js"/>
<svg id="graph" class="graph">
<g id="viewport">
<title>/home/travis/build/AliceO2Group/AliceO2/Detectors/MUON/MID/TestingSimTools/src/HitFinder.cxx</title>
<!-- Node0 -->
<g id="node1" class="node">
<title>Node0</title>
<polygon fill="#bfbfbf" stroke="#000000" points="1372,-246.5 1372,-298.5 1551,-298.5 1551,-246.5 1372,-246.5"/>
<text text-anchor="start" x="1380" y="-286.5" font-family="Helvetica,sans-Serif" font-size="10.00" fill="#000000">/home/travis/build</text>
<text text-anchor="start" x="1380" y="-275.5" font-family="Helvetica,sans-Serif" font-size="10.00" fill="#000000">/AliceO2Group/AliceO2</text>
<text text-anchor="start" x="1380" y="-264.5" font-family="Helvetica,sans-Serif" font-size="10.00" fill="#000000">/Detectors/MUON/MID/TestingSim</text>
<text text-anchor="middle" x="1461.5" y="-253.5" font-family="Helvetica,sans-Serif" font-size="10.00" fill="#000000">Tools/src/HitFinder.cxx</text>
</g>
<!-- Node1 -->
<g id="node2" class="node">
<title>Node1</title>
<g id="a_node2"><a xlink:href="../../d7/d40/HitFinder_8h.html" target="_top" xlink:title="Hit finder for MID. ">
<polygon fill="none" stroke="#000000" points="999,-179.5 999,-209.5 1112,-209.5 1112,-179.5 999,-179.5"/>
<text text-anchor="start" x="1007" y="-197.5" font-family="Helvetica,sans-Serif" font-size="10.00" fill="#000000">MIDTestingSimTools</text>
<text text-anchor="middle" x="1055.5" y="-186.5" font-family="Helvetica,sans-Serif" font-size="10.00" fill="#000000">/HitFinder.h</text>
</a>
</g>
</g>
<!-- Node0&#45;&gt;Node1 -->
<g id="edge1" class="edge">
<title>Node0&#45;&gt;Node1</title>
<path fill="none" stroke="#191970" d="M1371.899,-255.286C1296.4897,-240.7985 1190.3416,-220.4055 1122.2264,-207.3194"/>
<polygon fill="#191970" stroke="#191970" points="1122.5272,-203.8132 1112.0464,-205.3636 1121.2064,-210.6875 1122.5272,-203.8132"/>
</g>
<!-- Node19 -->
<g id="node20" class="node">
<title>Node19</title>
<g id="a_node20"><a xlink:href="../../dc/de4/DetectorParameters_8h.html" target="_top" xlink:title="Useful detector parameters for MID. ">
<polygon fill="none" stroke="#000000" points="1358,-67.5 1358,-86.5 1527,-86.5 1527,-67.5 1358,-67.5"/>
<text text-anchor="middle" x="1442.5" y="-74.5" font-family="Helvetica,sans-Serif" font-size="10.00" fill="#000000">MIDBase/DetectorParameters.h</text>
</a>
</g>
</g>
<!-- Node0&#45;&gt;Node19 -->
<g id="edge26" class="edge">
<title>Node0&#45;&gt;Node19</title>
<path fill="none" stroke="#191970" d="M1458.9376,-246.134C1455.0805,-206.4463 1447.8685,-132.2389 1444.4254,-96.8109"/>
<polygon fill="#191970" stroke="#191970" points="1447.8999,-96.3784 1443.4489,-86.7639 1440.9327,-97.0556 1447.8999,-96.3784"/>
</g>
<!-- Node21 -->
<g id="node22" class="node">
<title>Node21</title>
<polygon fill="none" stroke="#bfbfbf" points="1509,-185 1509,-204 1556,-204 1556,-185 1509,-185"/>
<text text-anchor="middle" x="1532.5" y="-192" font-family="Helvetica,sans-Serif" font-size="10.00" fill="#000000">cmath</text>
</g>
<!-- Node0&#45;&gt;Node21 -->
<g id="edge25" class="edge">
<title>Node0&#45;&gt;Node21</title>
<path fill="none" stroke="#191970" d="M1485.5374,-246.0928C1495.9493,-234.6543 1507.835,-221.5968 1517.044,-211.4799"/>
<polygon fill="#191970" stroke="#191970" points="1519.633,-213.835 1523.7762,-204.0839 1514.4564,-209.123 1519.633,-213.835"/>
</g>
<!-- Node22 -->
<g id="node23" class="node">
<title>Node22</title>
<g id="a_node23"><a xlink:href="../../db/db5/GeometryParameters_8h.html" target="_top" xlink:title="Useful geometrical parameters for MID. ">
<polygon fill="none" stroke="#000000" points="1544.5,-67.5 1544.5,-86.5 1720.5,-86.5 1720.5,-67.5 1544.5,-67.5"/>
<text text-anchor="middle" x="1632.5" y="-74.5" font-family="Helvetica,sans-Serif" font-size="10.00" fill="#000000">MIDBase/GeometryParameters.h</text>
</a>
</g>
</g>
<!-- Node0&#45;&gt;Node22 -->
<g id="edge27" class="edge">
<title>Node0&#45;&gt;Node22</title>
<path fill="none" stroke="#191970" d="M1468.0502,-246.4052C1473.9525,-226.5189 1484.098,-199.2062 1499.5,-179 1528.7882,-140.5764 1576.0298,-109.0886 1605.6177,-91.7021"/>
<polygon fill="#191970" stroke="#191970" points="1607.6338,-94.5802 1614.5587,-86.5617 1604.1448,-88.5117 1607.6338,-94.5802"/>
</g>
<!-- Node2 -->
<g id="node3" class="node">
<title>Node2</title>
<g id="a_node3"><a xlink:href="../../dc/d73/Cartesian_8h.html" target="_top" xlink:title="MathUtils/Cartesian.h">
<polygon fill="none" stroke="#000000" points="844.5,-67.5 844.5,-86.5 966.5,-86.5 966.5,-67.5 844.5,-67.5"/>
<text text-anchor="middle" x="905.5" y="-74.5" font-family="Helvetica,sans-Serif" font-size="10.00" fill="#000000">MathUtils/Cartesian.h</text>
</a>
</g>
</g>
<!-- Node1&#45;&gt;Node2 -->
<g id="edge2" class="edge">
<title>Node1&#45;&gt;Node2</title>
<path fill="none" stroke="#191970" d="M1030.9364,-179.3672C1015.492,-169.5398 995.3676,-156.153 978.5,-143 958.492,-127.3982 937.1326,-107.6885 922.7221,-93.8866"/>
<polygon fill="#191970" stroke="#191970" points="925.1066,-91.3237 915.4839,-86.8903 920.2417,-96.3568 925.1066,-91.3237"/>
</g>
<!-- Node13 -->
<g id="node14" class="node">
<title>Node13</title>
<g id="a_node14"><a xlink:href="../../d6/d31/Cluster2D_8h.html" target="_top" xlink:title="Reconstructed cluster per RPC. ">
<polygon fill="none" stroke="#000000" points="718.5,-123.5 718.5,-142.5 876.5,-142.5 876.5,-123.5 718.5,-123.5"/>
<text text-anchor="middle" x="797.5" y="-130.5" font-family="Helvetica,sans-Serif" font-size="10.00" fill="#000000">DataFormatsMID/Cluster2D.h</text>
</a>
</g>
</g>
<!-- Node1&#45;&gt;Node13 -->
<g id="edge13" class="edge">
<title>Node1&#45;&gt;Node13</title>
<path fill="none" stroke="#191970" d="M998.8808,-181.0036C953.6059,-170.2113 890.7438,-155.2267 847.3534,-144.8837"/>
<polygon fill="#191970" stroke="#191970" points="848.1248,-141.4695 837.5858,-142.5553 846.5016,-148.2788 848.1248,-141.4695"/>
</g>
<!-- Node16 -->
<g id="node17" class="node">
<title>Node16</title>
<g id="a_node17"><a xlink:href="../../d4/d54/DataFormats_2Detectors_2MUON_2MID_2include_2DataFormatsMID_2Track_8h.html" target="_top" xlink:title="Reconstructed MID track. ">
<polygon fill="none" stroke="#000000" points="987.5,-123.5 987.5,-142.5 1123.5,-142.5 1123.5,-123.5 987.5,-123.5"/>
<text text-anchor="middle" x="1055.5" y="-130.5" font-family="Helvetica,sans-Serif" font-size="10.00" fill="#000000">DataFormatsMID/Track.h</text>
</a>
</g>
</g>
<!-- Node1&#45;&gt;Node16 -->
<g id="edge16" class="edge">
<title>Node1&#45;&gt;Node16</title>
<path fill="none" stroke="#191970" d="M1055.5,-179.2977C1055.5,-171.3834 1055.5,-161.6043 1055.5,-153.0759"/>
<polygon fill="#191970" stroke="#191970" points="1059.0001,-152.8469 1055.5,-142.8469 1052.0001,-152.847 1059.0001,-152.8469"/>
</g>
<!-- Node18 -->
<g id="node19" class="node">
<title>Node18</title>
<g id="a_node19"><a xlink:href="../../de/d0c/GeometryTransformer_8h.html" target="_top" xlink:title="Geometry transformer for MID. ">
<polygon fill="none" stroke="#000000" points="1204.5,-123.5 1204.5,-142.5 1382.5,-142.5 1382.5,-123.5 1204.5,-123.5"/>
<text text-anchor="middle" x="1293.5" y="-130.5" font-family="Helvetica,sans-Serif" font-size="10.00" fill="#000000">MIDBase/GeometryTransformer.h</text>
</a>
</g>
</g>
<!-- Node1&#45;&gt;Node18 -->
<g id="edge19" class="edge">
<title>Node1&#45;&gt;Node18</title>
<path fill="none" stroke="#191970" d="M1112.2046,-179.8474C1153.2237,-169.2479 1207.9954,-155.0947 1246.5652,-145.1281"/>
<polygon fill="#191970" stroke="#191970" points="1247.6894,-148.4527 1256.4957,-142.562 1245.938,-141.6753 1247.6894,-148.4527"/>
</g>
<!-- Node3 -->
<g id="node4" class="node">
<title>Node3</title>
<polygon fill="none" stroke="#bfbfbf" points="245.5,-.5 245.5,-30.5 409.5,-30.5 409.5,-.5 245.5,-.5"/>
<text text-anchor="start" x="253.5" y="-18.5" font-family="Helvetica,sans-Serif" font-size="10.00" fill="#000000">Math/GenVector/Displacement</text>
<text text-anchor="middle" x="327.5" y="-7.5" font-family="Helvetica,sans-Serif" font-size="10.00" fill="#000000">Vector3D.h</text>
</g>
<!-- Node2&#45;&gt;Node3 -->
<g id="edge3" class="edge">
<title>Node2&#45;&gt;Node3</title>
<path fill="none" stroke="#191970" d="M844.3356,-68.1732C841.0108,-67.7596 837.7158,-67.3653 834.5,-67 653.3476,-46.4194 604.2865,-54.3091 419.8274,-31.1054"/>
<polygon fill="#191970" stroke="#191970" points="420.156,-27.6191 409.7944,-29.8297 419.273,-34.5632 420.156,-27.6191"/>
</g>
<!-- Node4 -->
<g id="node5" class="node">
<title>Node4</title>
<polygon fill="none" stroke="#bfbfbf" points="428,-6 428,-25 617,-25 617,-6 428,-6"/>
<text text-anchor="middle" x="522.5" y="-13" font-family="Helvetica,sans-Serif" font-size="10.00" fill="#000000">Math/GenVector/PositionVector3D.h</text>
</g>
<!-- Node2&#45;&gt;Node4 -->
<g id="edge4" class="edge">
<title>Node2&#45;&gt;Node4</title>
<path fill="none" stroke="#191970" d="M846.0765,-67.4581C777.3457,-56.4217 664.3588,-38.2789 591.7207,-26.6151"/>
<polygon fill="#191970" stroke="#191970" points="592.1762,-23.1435 581.7478,-25.0137 591.0664,-30.0549 592.1762,-23.1435"/>
</g>
<!-- Node5 -->
<g id="node6" class="node">
<title>Node5</title>
<polygon fill="none" stroke="#bfbfbf" points="635.5,-6 635.5,-25 795.5,-25 795.5,-6 635.5,-6"/>
<text text-anchor="middle" x="715.5" y="-13" font-family="Helvetica,sans-Serif" font-size="10.00" fill="#000000">Math/GenVector/Rotation3D.h</text>
</g>
<!-- Node2&#45;&gt;Node5 -->
<g id="edge5" class="edge">
<title>Node2&#45;&gt;Node5</title>
<path fill="none" stroke="#191970" d="M875.8125,-67.3906C843.1854,-56.8298 790.6374,-39.8208 754.6575,-28.1747"/>
<polygon fill="#191970" stroke="#191970" points="755.5709,-24.7916 744.979,-25.0419 753.4152,-31.4514 755.5709,-24.7916"/>
</g>
<!-- Node6 -->
<g id="node7" class="node">
<title>Node6</title>
<polygon fill="none" stroke="#bfbfbf" points="813.5,-6 813.5,-25 981.5,-25 981.5,-6 813.5,-6"/>
<text text-anchor="middle" x="897.5" y="-13" font-family="Helvetica,sans-Serif" font-size="10.00" fill="#000000">Math/GenVector/Transform3D.h</text>
</g>
<!-- Node2&#45;&gt;Node6 -->
<g id="edge6" class="edge">
<title>Node2&#45;&gt;Node6</title>
<path fill="none" stroke="#191970" d="M904.25,-67.3906C903.1411,-58.8657 901.4856,-46.1392 900.0917,-35.4235"/>
<polygon fill="#191970" stroke="#191970" points="903.5284,-34.7098 898.7676,-25.2449 896.5869,-35.6128 903.5284,-34.7098"/>
</g>
<!-- Node7 -->
<g id="node8" class="node">
<title>Node7</title>
<polygon fill="none" stroke="#bfbfbf" points="1000,-6 1000,-25 1173,-25 1173,-6 1000,-6"/>
<text text-anchor="middle" x="1086.5" y="-13" font-family="Helvetica,sans-Serif" font-size="10.00" fill="#000000">Math/GenVector/Translation3D.h</text>
</g>
<!-- Node2&#45;&gt;Node7 -->
<g id="edge7" class="edge">
<title>Node2&#45;&gt;Node7</title>
<path fill="none" stroke="#191970" d="M933.7813,-67.3906C964.73,-56.8749 1014.4942,-39.966 1048.757,-28.3243"/>
<polygon fill="#191970" stroke="#191970" points="1050.075,-31.573 1058.4173,-25.0419 1047.8229,-24.9452 1050.075,-31.573"/>
</g>
<!-- Node8 -->
<g id="node9" class="node">
<title>Node8</title>
<polygon fill="none" stroke="#bfbfbf" points="1191.5,-.5 1191.5,-30.5 1355.5,-30.5 1355.5,-.5 1191.5,-.5"/>
<text text-anchor="start" x="1199.5" y="-18.5" font-family="Helvetica,sans-Serif" font-size="10.00" fill="#000000">Math/GenVector/Displacement</text>
<text text-anchor="middle" x="1273.5" y="-7.5" font-family="Helvetica,sans-Serif" font-size="10.00" fill="#000000">Vector2D.h</text>
</g>
<!-- Node2&#45;&gt;Node8 -->
<g id="edge8" class="edge">
<title>Node2&#45;&gt;Node8</title>
<path fill="none" stroke="#191970" d="M962.8587,-67.4705C1016.5061,-58.5507 1099.1552,-44.7913 1181.2373,-31.0423"/>
<polygon fill="#191970" stroke="#191970" points="1181.9583,-34.4704 1191.2425,-29.366 1180.8016,-27.5666 1181.9583,-34.4704"/>
</g>
<!-- Node9 -->
<g id="node10" class="node">
<title>Node9</title>
<polygon fill="none" stroke="#bfbfbf" points="1374,-6 1374,-25 1563,-25 1563,-6 1374,-6"/>
<text text-anchor="middle" x="1468.5" y="-13" font-family="Helvetica,sans-Serif" font-size="10.00" fill="#000000">Math/GenVector/PositionVector2D.h</text>
</g>
<!-- Node2&#45;&gt;Node9 -->
<g id="edge9" class="edge">
<title>Node2&#45;&gt;Node9</title>
<path fill="none" stroke="#191970" d="M966.8561,-71.7955C1054.9844,-64.1055 1222.4428,-48.694 1364.5,-31 1375.3181,-29.6526 1386.7484,-28.0903 1397.9166,-26.4868"/>
<polygon fill="#191970" stroke="#191970" points="1398.6832,-29.9121 1408.0744,-25.0075 1397.6744,-22.9852 1398.6832,-29.9121"/>
</g>
<!-- Node10 -->
<g id="node11" class="node">
<title>Node10</title>
<polygon fill="none" stroke="#bfbfbf" points="0,-6 0,-25 59,-25 59,-6 0,-6"/>
<text text-anchor="middle" x="29.5" y="-13" font-family="Helvetica,sans-Serif" font-size="10.00" fill="#000000">Rtypes.h</text>
</g>
<!-- Node2&#45;&gt;Node10 -->
<g id="edge10" class="edge">
<title>Node2&#45;&gt;Node10</title>
<path fill="none" stroke="#191970" d="M844.3515,-68.0198C841.0226,-67.6458 837.7224,-67.302 834.5,-67 495.1667,-35.1988 401.6448,-102.9232 68.5,-31 65.4643,-30.3446 62.3583,-29.4778 59.2895,-28.488"/>
<polygon fill="#191970" stroke="#191970" points="60.3399,-25.1458 49.7458,-25.0164 57.9469,-31.7241 60.3399,-25.1458"/>
</g>
<!-- Node11 -->
<g id="node12" class="node">
<title>Node11</title>
<polygon fill="none" stroke="#bfbfbf" points="77.5,-6 77.5,-25 159.5,-25 159.5,-6 77.5,-6"/>
<text text-anchor="middle" x="118.5" y="-13" font-family="Helvetica,sans-Serif" font-size="10.00" fill="#000000">TGeoMatrix.h</text>
</g>
<!-- Node2&#45;&gt;Node11 -->
<g id="edge11" class="edge">
<title>Node2&#45;&gt;Node11</title>
<path fill="none" stroke="#191970" d="M844.3489,-68.0472C841.0206,-67.6662 837.7213,-67.3133 834.5,-67 539.4603,-38.302 460.2849,-83.2835 168.5,-31 164.0006,-30.1938 159.3392,-29.106 154.7531,-27.8785"/>
<polygon fill="#191970" stroke="#191970" points="155.5051,-24.4524 144.9257,-25.023 153.5519,-31.1743 155.5051,-24.4524"/>
</g>
<!-- Node12 -->
<g id="node13" class="node">
<title>Node12</title>
<polygon fill="none" stroke="#bfbfbf" points="178,-6 178,-25 227,-25 227,-6 178,-6"/>
<text text-anchor="middle" x="202.5" y="-13" font-family="Helvetica,sans-Serif" font-size="10.00" fill="#000000">iosfwd</text>
</g>
<!-- Node2&#45;&gt;Node12 -->
<g id="edge12" class="edge">
<title>Node2&#45;&gt;Node12</title>
<path fill="none" stroke="#191970" d="M844.3465,-68.0711C841.0189,-67.6839 837.7203,-67.3232 834.5,-67 569.5719,-40.4115 494.8766,-95.3068 236.5,-31 234.3006,-30.4526 232.0683,-29.7659 229.853,-28.9882"/>
<polygon fill="#191970" stroke="#191970" points="230.9865,-25.6708 220.4047,-25.145 228.349,-32.1549 230.9865,-25.6708"/>
</g>
<!-- Node14 -->
<g id="node15" class="node">
<title>Node14</title>
<polygon fill="none" stroke="#bfbfbf" points="769,-67.5 769,-86.5 826,-86.5 826,-67.5 769,-67.5"/>
<text text-anchor="middle" x="797.5" y="-74.5" font-family="Helvetica,sans-Serif" font-size="10.00" fill="#000000">ostream</text>
</g>
<!-- Node13&#45;&gt;Node14 -->
<g id="edge14" class="edge">
<title>Node13&#45;&gt;Node14</title>
<path fill="none" stroke="#191970" d="M797.5,-123.2455C797.5,-115.9382 797.5,-105.6944 797.5,-96.7046"/>
<polygon fill="#191970" stroke="#191970" points="801.0001,-96.6426 797.5,-86.6427 794.0001,-96.6427 801.0001,-96.6426"/>
</g>
<!-- Node15 -->
<g id="node16" class="node">
<title>Node15</title>
<polygon fill="none" stroke="#bfbfbf" points="700.5,-67.5 700.5,-86.5 750.5,-86.5 750.5,-67.5 700.5,-67.5"/>
<text text-anchor="middle" x="725.5" y="-74.5" font-family="Helvetica,sans-Serif" font-size="10.00" fill="#000000">cstdint</text>
</g>
<!-- Node13&#45;&gt;Node15 -->
<g id="edge15" class="edge">
<title>Node13&#45;&gt;Node15</title>
<path fill="none" stroke="#191970" d="M784.9586,-123.2455C774.2213,-114.8943 758.5527,-102.7076 745.9953,-92.9408"/>
<polygon fill="#191970" stroke="#191970" points="747.9401,-90.0194 737.8977,-86.6427 743.6425,-95.5449 747.9401,-90.0194"/>
</g>
<!-- Node16&#45;&gt;Node14 -->
<g id="edge18" class="edge">
<title>Node16&#45;&gt;Node14</title>
<path fill="none" stroke="#191970" d="M1006.4088,-123.4839C963.9007,-115.0751 900.545,-102.1402 836.0357,-87.0356"/>
<polygon fill="#191970" stroke="#191970" points="836.6308,-83.58 826.0946,-84.6926 835.025,-90.3933 836.6308,-83.58"/>
</g>
<!-- Node17 -->
<g id="node18" class="node">
<title>Node17</title>
<polygon fill="none" stroke="#bfbfbf" points="1581.5,-6 1581.5,-25 1623.5,-25 1623.5,-6 1581.5,-6"/>
<text text-anchor="middle" x="1602.5" y="-13" font-family="Helvetica,sans-Serif" font-size="10.00" fill="#000000">array</text>
</g>
<!-- Node16&#45;&gt;Node17 -->
<g id="edge17" class="edge">
<title>Node16&#45;&gt;Node17</title>
<path fill="none" stroke="#191970" d="M1089.2687,-123.4651C1139.5459,-109.5329 1237.213,-83.4823 1321.5,-67 1431.6705,-45.4562 1464.3677,-64.5314 1571.5,-31 1573.1581,-30.481 1574.8366,-29.8819 1576.5098,-29.2274"/>
<polygon fill="#191970" stroke="#191970" points="1578.1578,-32.3244 1585.8551,-25.0441 1575.2978,-25.9353 1578.1578,-32.3244"/>
</g>
<!-- Node18&#45;&gt;Node2 -->
<g id="edge24" class="edge">
<title>Node18&#45;&gt;Node2</title>
<path fill="none" stroke="#191970" d="M1227.2413,-123.4369C1157.6168,-113.388 1048.4767,-97.6358 976.9581,-87.3135"/>
<polygon fill="#191970" stroke="#191970" points="977.0858,-83.7958 966.6884,-85.8313 976.0858,-90.724 977.0858,-83.7958"/>
</g>
<!-- Node18&#45;&gt;Node17 -->
<g id="edge20" class="edge">
<title>Node18&#45;&gt;Node17</title>
<path fill="none" stroke="#191970" d="M1298.4465,-123.4996C1306.6751,-108.7402 1324.6568,-80.5902 1348.5,-67 1435.7209,-17.2855 1475.948,-61.803 1571.5,-31 1573.1143,-30.4796 1574.7489,-29.8859 1576.3798,-29.2413"/>
<polygon fill="#191970" stroke="#191970" points="1577.8177,-32.4324 1585.5127,-25.1498 1574.9557,-26.0442 1577.8177,-32.4324"/>
</g>
<!-- Node18&#45;&gt;Node19 -->
<g id="edge21" class="edge">
<title>Node18&#45;&gt;Node19</title>
<path fill="none" stroke="#191970" d="M1319.114,-123.3733C1343.5687,-114.1822 1380.6054,-100.2624 1407.7209,-90.0713"/>
<polygon fill="#191970" stroke="#191970" points="1409.0909,-93.2956 1417.2202,-86.5011 1406.6281,-86.7431 1409.0909,-93.2956"/>
</g>
<!-- Node19&#45;&gt;Node17 -->
<g id="edge22" class="edge">
<title>Node19&#45;&gt;Node17</title>
<path fill="none" stroke="#191970" d="M1472.3519,-67.4976C1498.753,-58.8247 1538.146,-45.2235 1571.5,-31 1572.6831,-30.4955 1573.8847,-29.9672 1575.0936,-29.4225"/>
<polygon fill="#191970" stroke="#191970" points="1576.7762,-32.4983 1584.3133,-25.0523 1573.7779,-26.1729 1576.7762,-32.4983"/>
</g>
<!-- Node20 -->
<g id="node21" class="node">
<title>Node20</title>
<polygon fill="none" stroke="#bfbfbf" points="1641.5,-6 1641.5,-25 1685.5,-25 1685.5,-6 1641.5,-6"/>
<text text-anchor="middle" x="1663.5" y="-13" font-family="Helvetica,sans-Serif" font-size="10.00" fill="#000000">string</text>
</g>
<!-- Node19&#45;&gt;Node20 -->
<g id="edge23" class="edge">
<title>Node19&#45;&gt;Node20</title>
<path fill="none" stroke="#191970" d="M1495.8689,-67.4419C1534.483,-59.721 1587.5569,-47.4356 1632.5,-31 1633.9128,-30.4833 1635.3453,-29.9198 1636.7802,-29.3234"/>
<polygon fill="#191970" stroke="#191970" points="1638.4622,-32.4029 1646.1005,-25.0607 1635.5507,-26.037 1638.4622,-32.4029"/>
</g>
<!-- Node22&#45;&gt;Node17 -->
<g id="edge28" class="edge">
<title>Node22&#45;&gt;Node17</title>
<path fill="none" stroke="#191970" d="M1627.8125,-67.3906C1623.5227,-58.5965 1617.0518,-45.3312 1611.7266,-34.4145"/>
<polygon fill="#191970" stroke="#191970" points="1614.7836,-32.6981 1607.2536,-25.2449 1608.4922,-35.7671 1614.7836,-32.6981"/>
</g>
<!-- Node22&#45;&gt;Node20 -->
<g id="edge29" class="edge">
<title>Node22&#45;&gt;Node20</title>
<path fill="none" stroke="#191970" d="M1637.3438,-67.3906C1641.7766,-58.5965 1648.4631,-45.3312 1653.9659,-34.4145"/>
<polygon fill="#191970" stroke="#191970" points="1657.2122,-35.75 1658.588,-25.2449 1650.9614,-32.5992 1657.2122,-35.75"/>
</g>
</g>
</svg>
        <g id="navigator" transform="translate(0 0)" fill="#404254">
                <rect fill="#f2f5e9" fill-opacity="0.5" stroke="#606060" stroke-width=".5" x="0" y="0" width="60" height="60"/>
                <use id="zoomplus" xlink:href="#zoomPlus" x="17" y="9" onmousedown="handleZoom(evt,'in')"/>
                <use id="zoomminus" xlink:href="#zoomMin" x="42" y="9" onmousedown="handleZoom(evt,'out')"/>
                <use id="reset" xlink:href="#resetDef" x="30" y="36" onmousedown="handleReset()"/>
                <g id="arrowUp" xlink:href="#dirArrow" transform="translate(30 24)" onmousedown="handlePan(0,-1)">
                  <use xlink:href="#rim" fill="#404040">
                        <set attributeName="fill" to="#808080" begin="arrowUp.mouseover" end="arrowUp.mouseout"/>
                  </use>
                  <path fill="none" stroke="white" stroke-width="1.5" d="M0,-3.0v7 M-2.5,-0.5L0,-3.0L2.5,-0.5"/>
                </g>
                <g id="arrowRight" xlink:href="#dirArrow" transform="rotate(90) translate(36 -43)" onmousedown="handlePan(1,0)">
                  <use xlink:href="#rim" fill="#404040">
                        <set attributeName="fill" to="#808080" begin="arrowRight.mouseover" end="arrowRight.mouseout"/>
                  </use>
                  <path fill="none" stroke="white" stroke-width="1.5" d="M0,-3.0v7 M-2.5,-0.5L0,-3.0L2.5,-0.5"/>
                </g>
                <g id="arrowDown" xlink:href="#dirArrow" transform="rotate(180) translate(-30 -48)" onmousedown="handlePan(0,1)">
                  <use xlink:href="#rim" fill="#404040">
                        <set attributeName="fill" to="#808080" begin="arrowDown.mouseover" end="arrowDown.mouseout"/>
                  </use>
                  <path fill="none" stroke="white" stroke-width="1.5" d="M0,-3.0v7 M-2.5,-0.5L0,-3.0L2.5,-0.5"/>
                </g>
                <g id="arrowLeft" xlink:href="#dirArrow" transform="rotate(270) translate(-36 17)" onmousedown="handlePan(-1,0)">
                  <use xlink:href="#rim" fill="#404040">
                        <set attributeName="fill" to="#808080" begin="arrowLeft.mouseover" end="arrowLeft.mouseout"/>
                  </use>
                  <path fill="none" stroke="white" stroke-width="1.5" d="M0,-3.0v7 M-2.5,-0.5L0,-3.0L2.5,-0.5"/>
                </g>
        </g>
        <svg viewBox="0 0 15 15" width="100%" height="30px" preserveAspectRatio="xMaxYMin meet">
         <g id="arrow_out" transform="scale(0.3 0.3)">
          <a xlink:href="HitFinder_8cxx__incl_org.svg" target="_base">
           <rect id="button" ry="5" rx="5" y="6" x="6" height="38" width="38"
                fill="#f2f5e9" fill-opacity="0.5" stroke="#606060" stroke-width="1.0"/>
           <path id="arrow"
             d="M 11.500037,31.436501 C 11.940474,20.09759 22.043105,11.32322 32.158766,21.979434 L 37.068811,17.246167 C 37.068811,17.246167 37.088388,32 37.088388,32 L 22.160133,31.978069 C 22.160133,31.978069 26.997745,27.140456 26.997745,27.140456 C 18.528582,18.264221 13.291696,25.230495 11.500037,31.436501 z"
             style="fill:#404040;"/>
          </a>
         </g>
        </svg>
</svg>
