<?xml version="1.0" encoding="UTF-8" standalone="no"?>
<!DOCTYPE svg PUBLIC "-//W3C//DTD SVG 1.1//EN"
 "http://www.w3.org/Graphics/SVG/1.1/DTD/svg11.dtd">
<!-- Generated by graphviz version 2.40.1 (20161225.0304)
 -->
<!-- Title: /home/travis/build/AliceO2Group/AliceO2/DataFormats/Reconstruction/src/BaseCluster.cxx Pages: 1 -->
<!--zoomable 553 -->
<svg id="main" version="1.1" xmlns="http://www.w3.org/2000/svg" xmlns:xlink="http://www.w3.org/1999/xlink" xml:space="preserve" onload="init(evt)">
<style type="text/css"><![CDATA[
.edge:hover path { stroke: red; }
.edge:hover polygon { stroke: red; fill: red; }
]]></style>
<script type="text/javascript"><![CDATA[
var edges = document.getElementsByTagName('g');
if (edges && edges.length) {
  for (var i=0;i<edges.length;i++) {
    if (edges[i].id.substr(0,4)=='edge') {
      edges[i].setAttribute('class','edge');
    }
  }
}
]]></script>
        <defs>
                <circle id="rim" cx="0" cy="0" r="7"/>
                <circle id="rim2" cx="0" cy="0" r="3.5"/>
                <g id="zoomPlus">
                        <use xlink:href="#rim" fill="#404040">
                                <set attributeName="fill" to="#808080" begin="zoomplus.mouseover" end="zoomplus.mouseout"/>
                        </use>
                        <path d="M-4,0h8M0,-4v8" fill="none" stroke="white" stroke-width="1.5" pointer-events="none"/>
                </g>
                <g id="zoomMin">
                        <use xlink:href="#rim" fill="#404040">
                                <set attributeName="fill" to="#808080" begin="zoomminus.mouseover" end="zoomminus.mouseout"/>
                        </use>
                        <path d="M-4,0h8" fill="none" stroke="white" stroke-width="1.5" pointer-events="none"/>
                </g>
                <g id="dirArrow">
                        <path fill="none" stroke="white" stroke-width="1.5" d="M0,-3.0v7 M-2.5,-0.5L0,-3.0L2.5,-0.5"/>
                </g>
               <g id="resetDef">
                       <use xlink:href="#rim2" fill="#404040">
                               <set attributeName="fill" to="#808080" begin="reset.mouseover" end="reset.mouseout"/>
                       </use>
               </g>
        </defs>

<script type="text/javascript">
var viewWidth = 2969;
var viewHeight = 553;
var sectionId = 'dynsection-0';
</script>
<script xlink:href="../../svgpan.js"/>
<svg id="graph" class="graph">
<g id="viewport">
<title>/home/travis/build/AliceO2Group/AliceO2/DataFormats/Reconstruction/src/BaseCluster.cxx</title>
<!-- Node0 -->
<g id="node1" class="node">
<title>Node0</title>
<polygon fill="#bfbfbf" stroke="#000000" points="1960.5,-492.5 1960.5,-544.5 2118.5,-544.5 2118.5,-492.5 1960.5,-492.5"/>
<text text-anchor="start" x="1968.5" y="-532.5" font-family="Helvetica,sans-Serif" font-size="10.00" fill="#000000">/home/travis/build</text>
<text text-anchor="start" x="1968.5" y="-521.5" font-family="Helvetica,sans-Serif" font-size="10.00" fill="#000000">/AliceO2Group/AliceO2</text>
<text text-anchor="start" x="1968.5" y="-510.5" font-family="Helvetica,sans-Serif" font-size="10.00" fill="#000000">/DataFormats/Reconstruction</text>
<text text-anchor="middle" x="2039.5" y="-499.5" font-family="Helvetica,sans-Serif" font-size="10.00" fill="#000000">/src/BaseCluster.cxx</text>
</g>
<!-- Node1 -->
<g id="node2" class="node">
<title>Node1</title>
<g id="a_node2"><a xlink:href="../../d4/de2/BaseCluster_8h.html" target="_top" xlink:title="ReconstructionDataFormats\l/BaseCluster.h">
<polygon fill="none" stroke="#000000" points="1324.5,-425.5 1324.5,-455.5 1476.5,-455.5 1476.5,-425.5 1324.5,-425.5"/>
<text text-anchor="start" x="1332.5" y="-443.5" font-family="Helvetica,sans-Serif" font-size="10.00" fill="#000000">ReconstructionDataFormats</text>
<text text-anchor="middle" x="1400.5" y="-432.5" font-family="Helvetica,sans-Serif" font-size="10.00" fill="#000000">/BaseCluster.h</text>
</a>
</g>
</g>
<!-- Node0&#45;&gt;Node1 -->
<g id="edge1" class="edge">
<title>Node0&#45;&gt;Node1</title>
<path fill="none" stroke="#191970" d="M1960.1839,-508.8182C1839.7344,-494.1155 1611.5738,-466.2649 1486.9967,-451.0583"/>
<polygon fill="#191970" stroke="#191970" points="1487.0909,-447.5439 1476.7405,-449.8063 1486.2427,-454.4923 1487.0909,-447.5439"/>
</g>
<!-- Node19 -->
<g id="node20" class="node">
<title>Node19</title>
<polygon fill="none" stroke="#bfbfbf" points="2705.5,-230 2705.5,-249 2765.5,-249 2765.5,-230 2705.5,-230"/>
<text text-anchor="middle" x="2735.5" y="-237" font-family="Helvetica,sans-Serif" font-size="10.00" fill="#000000">iostream</text>
</g>
<!-- Node0&#45;&gt;Node19 -->
<g id="edge64" class="edge">
<title>Node0&#45;&gt;Node19</title>
<path fill="none" stroke="#191970" d="M2118.6305,-505.6564C2278.6463,-478.1217 2632.5246,-408.8002 2715.5,-322 2731.5236,-305.2378 2735.4055,-277.9151 2736.0177,-259.3455"/>
<polygon fill="#191970" stroke="#191970" points="2739.5185,-259.1 2736.0557,-249.0871 2732.5186,-259.074 2739.5185,-259.1"/>
</g>
<!-- Node2 -->
<g id="node3" class="node">
<title>Node2</title>
<g id="a_node3"><a xlink:href="../../dc/d73/Cartesian_8h.html" target="_top" xlink:title="MathUtils/Cartesian.h">
<polygon fill="none" stroke="#000000" points="966.5,-297 966.5,-316 1088.5,-316 1088.5,-297 966.5,-297"/>
<text text-anchor="middle" x="1027.5" y="-304" font-family="Helvetica,sans-Serif" font-size="10.00" fill="#000000">MathUtils/Cartesian.h</text>
</a>
</g>
</g>
<!-- Node1&#45;&gt;Node2 -->
<g id="edge2" class="edge">
<title>Node1&#45;&gt;Node2</title>
<path fill="none" stroke="#191970" d="M1358.4372,-425.389C1284.7099,-398.9025 1133.3869,-344.5398 1063.8769,-319.5684"/>
<polygon fill="#191970" stroke="#191970" points="1064.8285,-316.1913 1054.234,-316.1042 1062.4618,-322.7791 1064.8285,-316.1913"/>
</g>
<!-- Node12 -->
<g id="node13" class="node">
<title>Node12</title>
<polygon fill="none" stroke="#bfbfbf" points="0,-230 0,-249 49,-249 49,-230 0,-230"/>
<text text-anchor="middle" x="24.5" y="-237" font-family="Helvetica,sans-Serif" font-size="10.00" fill="#000000">iosfwd</text>
</g>
<!-- Node1&#45;&gt;Node12 -->
<g id="edge17" class="edge">
<title>Node1&#45;&gt;Node12</title>
<path fill="none" stroke="#191970" d="M1324.3037,-426.2381C1229.4499,-408.7659 1062.3747,-378.9151 918.5,-358 537.5504,-302.6211 429.149,-358.9651 58.5,-255 56.5325,-254.4481 54.5343,-253.7974 52.543,-253.0804"/>
<polygon fill="#191970" stroke="#191970" points="53.3954,-249.6474 42.8149,-249.0957 50.742,-256.125 53.3954,-249.6474"/>
</g>
<!-- Node13 -->
<g id="node14" class="node">
<title>Node13</title>
<polygon fill="none" stroke="#bfbfbf" points="1561,-364 1561,-383 1624,-383 1624,-364 1561,-364"/>
<text text-anchor="middle" x="1592.5" y="-371" font-family="Helvetica,sans-Serif" font-size="10.00" fill="#000000">TObject.h</text>
</g>
<!-- Node1&#45;&gt;Node13 -->
<g id="edge13" class="edge">
<title>Node1&#45;&gt;Node13</title>
<path fill="none" stroke="#191970" d="M1445.8962,-425.4488C1475.9475,-415.3792 1516.1815,-401.6951 1551.5,-389 1553.5946,-388.2471 1555.7459,-387.4639 1557.9134,-386.6671"/>
<polygon fill="#191970" stroke="#191970" points="1559.2441,-389.9065 1567.3961,-383.1392 1556.8032,-383.3458 1559.2441,-389.9065"/>
</g>
<!-- Node14 -->
<g id="node15" class="node">
<title>Node14</title>
<polygon fill="none" stroke="#bfbfbf" points="1618.5,-230 1618.5,-249 1662.5,-249 1662.5,-230 1618.5,-230"/>
<text text-anchor="middle" x="1640.5" y="-237" font-family="Helvetica,sans-Serif" font-size="10.00" fill="#000000">bitset</text>
</g>
<!-- Node1&#45;&gt;Node14 -->
<g id="edge14" class="edge">
<title>Node1&#45;&gt;Node14</title>
<path fill="none" stroke="#191970" d="M1385.226,-425.3254C1376.743,-415.7875 1367.0143,-402.7214 1362.5,-389 1348.888,-347.6261 1334.4504,-324.3213 1362.5,-291 1392.7094,-255.1129 1524.4764,-264.0732 1570.5,-255 1582.9678,-252.5421 1596.6243,-249.5794 1608.5384,-246.9055"/>
<polygon fill="#191970" stroke="#191970" points="1609.5077,-250.2747 1618.4862,-244.65 1607.9598,-243.448 1609.5077,-250.2747"/>
</g>
<!-- Node15 -->
<g id="node16" class="node">
<title>Node15</title>
<polygon fill="none" stroke="#bfbfbf" points="1642.5,-364 1642.5,-383 1698.5,-383 1698.5,-364 1642.5,-364"/>
<text text-anchor="middle" x="1670.5" y="-371" font-family="Helvetica,sans-Serif" font-size="10.00" fill="#000000">iomanip</text>
</g>
<!-- Node1&#45;&gt;Node15 -->
<g id="edge15" class="edge">
<title>Node1&#45;&gt;Node15</title>
<path fill="none" stroke="#191970" d="M1476.5761,-426.9794C1522.2788,-418.0278 1581.3055,-404.9973 1632.5,-389 1634.655,-388.3266 1636.8586,-387.5825 1639.066,-386.7954"/>
<polygon fill="#191970" stroke="#191970" points="1640.5263,-389.9846 1648.627,-383.156 1638.036,-383.4425 1640.5263,-389.9846"/>
</g>
<!-- Node16 -->
<g id="node17" class="node">
<title>Node16</title>
<polygon fill="none" stroke="#bfbfbf" points="879,-364 879,-383 910,-383 910,-364 879,-364"/>
<text text-anchor="middle" x="894.5" y="-371" font-family="Helvetica,sans-Serif" font-size="10.00" fill="#000000">ios</text>
</g>
<!-- Node1&#45;&gt;Node16 -->
<g id="edge16" class="edge">
<title>Node1&#45;&gt;Node16</title>
<path fill="none" stroke="#191970" d="M1324.2238,-435.6721C1209.2721,-427.8169 997.3291,-410.9183 924.5,-389 922.8404,-388.5005 921.1641,-387.9098 919.497,-387.2554"/>
<polygon fill="#191970" stroke="#191970" points="920.7797,-383.9931 910.231,-383.0054 917.8613,-390.3558 920.7797,-383.9931"/>
</g>
<!-- Node17 -->
<g id="node18" class="node">
<title>Node17</title>
<g id="a_node18"><a xlink:href="../../d4/d20/DetMatrixCache_8h.html" target="_top" xlink:title="DetectorsCommonDataFormats\l/DetMatrixCache.h">
<polygon fill="none" stroke="#000000" points="1372,-358.5 1372,-388.5 1543,-388.5 1543,-358.5 1372,-358.5"/>
<text text-anchor="start" x="1380" y="-376.5" font-family="Helvetica,sans-Serif" font-size="10.00" fill="#000000">DetectorsCommonDataFormats</text>
<text text-anchor="middle" x="1457.5" y="-365.5" font-family="Helvetica,sans-Serif" font-size="10.00" fill="#000000">/DetMatrixCache.h</text>
</a>
</g>
</g>
<!-- Node1&#45;&gt;Node17 -->
<g id="edge18" class="edge">
<title>Node1&#45;&gt;Node17</title>
<path fill="none" stroke="#191970" d="M1413.4342,-425.2967C1420.722,-416.7303 1429.9687,-405.8614 1438.1079,-396.2943"/>
<polygon fill="#191970" stroke="#191970" points="1440.803,-398.5277 1444.617,-388.6432 1435.4714,-393.9918 1440.803,-398.5277"/>
</g>
<!-- Node3 -->
<g id="node4" class="node">
<title>Node3</title>
<polygon fill="none" stroke="#bfbfbf" points="557.5,-224.5 557.5,-254.5 721.5,-254.5 721.5,-224.5 557.5,-224.5"/>
<text text-anchor="start" x="565.5" y="-242.5" font-family="Helvetica,sans-Serif" font-size="10.00" fill="#000000">Math/GenVector/Displacement</text>
<text text-anchor="middle" x="639.5" y="-231.5" font-family="Helvetica,sans-Serif" font-size="10.00" fill="#000000">Vector3D.h</text>
</g>
<!-- Node2&#45;&gt;Node3 -->
<g id="edge3" class="edge">
<title>Node2&#45;&gt;Node3</title>
<path fill="none" stroke="#191970" d="M982.7471,-296.9225C972.8047,-294.8865 962.3068,-292.8076 952.5,-291 857.3683,-273.4647 830.796,-271.5052 731.9547,-255.2289"/>
<polygon fill="#191970" stroke="#191970" points="732.2722,-251.734 721.8349,-253.5542 731.1293,-258.64 732.2722,-251.734"/>
</g>
<!-- Node4 -->
<g id="node5" class="node">
<title>Node4</title>
<polygon fill="none" stroke="#bfbfbf" points="740,-230 740,-249 929,-249 929,-230 740,-230"/>
<text text-anchor="middle" x="834.5" y="-237" font-family="Helvetica,sans-Serif" font-size="10.00" fill="#000000">Math/GenVector/PositionVector3D.h</text>
</g>
<!-- Node2&#45;&gt;Node4 -->
<g id="edge4" class="edge">
<title>Node2&#45;&gt;Node4</title>
<path fill="none" stroke="#191970" d="M999.8478,-296.9005C966.1682,-285.2086 909.1426,-265.4122 871.6528,-252.3976"/>
<polygon fill="#191970" stroke="#191970" points="872.6957,-249.0548 862.1009,-249.0817 870.4,-255.6677 872.6957,-249.0548"/>
</g>
<!-- Node5 -->
<g id="node6" class="node">
<title>Node5</title>
<polygon fill="none" stroke="#bfbfbf" points="947.5,-230 947.5,-249 1107.5,-249 1107.5,-230 947.5,-230"/>
<text text-anchor="middle" x="1027.5" y="-237" font-family="Helvetica,sans-Serif" font-size="10.00" fill="#000000">Math/GenVector/Rotation3D.h</text>
</g>
<!-- Node2&#45;&gt;Node5 -->
<g id="edge5" class="edge">
<title>Node2&#45;&gt;Node5</title>
<path fill="none" stroke="#191970" d="M1027.5,-296.9005C1027.5,-287.149 1027.5,-271.7597 1027.5,-259.3695"/>
<polygon fill="#191970" stroke="#191970" points="1031.0001,-259.0816 1027.5,-249.0817 1024.0001,-259.0817 1031.0001,-259.0816"/>
</g>
<!-- Node6 -->
<g id="node7" class="node">
<title>Node6</title>
<polygon fill="none" stroke="#bfbfbf" points="1125.5,-230 1125.5,-249 1293.5,-249 1293.5,-230 1125.5,-230"/>
<text text-anchor="middle" x="1209.5" y="-237" font-family="Helvetica,sans-Serif" font-size="10.00" fill="#000000">Math/GenVector/Transform3D.h</text>
</g>
<!-- Node2&#45;&gt;Node6 -->
<g id="edge6" class="edge">
<title>Node2&#45;&gt;Node6</title>
<path fill="none" stroke="#191970" d="M1053.5762,-296.9005C1085.2011,-285.2584 1138.6544,-265.5805 1174.0124,-252.5641"/>
<polygon fill="#191970" stroke="#191970" points="1175.297,-255.8209 1183.4722,-249.0817 1172.8787,-249.2519 1175.297,-255.8209"/>
</g>
<!-- Node7 -->
<g id="node8" class="node">
<title>Node7</title>
<polygon fill="none" stroke="#bfbfbf" points="1312,-230 1312,-249 1485,-249 1485,-230 1312,-230"/>
<text text-anchor="middle" x="1398.5" y="-237" font-family="Helvetica,sans-Serif" font-size="10.00" fill="#000000">Math/GenVector/Translation3D.h</text>
</g>
<!-- Node2&#45;&gt;Node7 -->
<g id="edge7" class="edge">
<title>Node2&#45;&gt;Node7</title>
<path fill="none" stroke="#191970" d="M1080.2613,-296.9717C1147.474,-284.8335 1263.511,-263.8781 1335.3529,-250.9039"/>
<polygon fill="#191970" stroke="#191970" points="1336.402,-254.2712 1345.6207,-249.0496 1335.1579,-247.3826 1336.402,-254.2712"/>
</g>
<!-- Node8 -->
<g id="node9" class="node">
<title>Node8</title>
<polygon fill="none" stroke="#bfbfbf" points="67.5,-224.5 67.5,-254.5 231.5,-254.5 231.5,-224.5 67.5,-224.5"/>
<text text-anchor="start" x="75.5" y="-242.5" font-family="Helvetica,sans-Serif" font-size="10.00" fill="#000000">Math/GenVector/Displacement</text>
<text text-anchor="middle" x="149.5" y="-231.5" font-family="Helvetica,sans-Serif" font-size="10.00" fill="#000000">Vector2D.h</text>
</g>
<!-- Node2&#45;&gt;Node8 -->
<g id="edge8" class="edge">
<title>Node2&#45;&gt;Node8</title>
<path fill="none" stroke="#191970" d="M987.2104,-296.9908C976.028,-294.6751 963.8422,-292.4501 952.5,-291 641.5856,-251.2502 557.2519,-288.8363 242.1265,-255.0875"/>
<polygon fill="#191970" stroke="#191970" points="242.0983,-251.5639 231.7786,-253.9626 241.3417,-258.5229 242.0983,-251.5639"/>
</g>
<!-- Node9 -->
<g id="node10" class="node">
<title>Node9</title>
<polygon fill="none" stroke="#bfbfbf" points="250,-230 250,-249 439,-249 439,-230 250,-230"/>
<text text-anchor="middle" x="344.5" y="-237" font-family="Helvetica,sans-Serif" font-size="10.00" fill="#000000">Math/GenVector/PositionVector2D.h</text>
</g>
<!-- Node2&#45;&gt;Node9 -->
<g id="edge9" class="edge">
<title>Node2&#45;&gt;Node9</title>
<path fill="none" stroke="#191970" d="M986.4079,-296.9852C975.441,-294.7267 963.5631,-292.5314 952.5,-291 730.0505,-260.2071 671.7226,-279.5701 448.5,-255 437.062,-253.741 424.9513,-252.1623 413.1927,-250.4976"/>
<polygon fill="#191970" stroke="#191970" points="413.374,-246.9874 402.9757,-249.0184 412.371,-253.9152 413.374,-246.9874"/>
</g>
<!-- Node10 -->
<g id="node11" class="node">
<title>Node10</title>
<polygon fill="none" stroke="#bfbfbf" points="1503,-230 1503,-249 1562,-249 1562,-230 1503,-230"/>
<text text-anchor="middle" x="1532.5" y="-237" font-family="Helvetica,sans-Serif" font-size="10.00" fill="#000000">Rtypes.h</text>
</g>
<!-- Node2&#45;&gt;Node10 -->
<g id="edge10" class="edge">
<title>Node2&#45;&gt;Node10</title>
<path fill="none" stroke="#191970" d="M1088.7375,-304.9436C1178.706,-301.492 1351.3346,-290.4209 1493.5,-255 1496.2838,-254.3064 1499.1338,-253.4595 1501.9639,-252.5229"/>
<polygon fill="#191970" stroke="#191970" points="1503.1899,-255.8013 1511.3838,-249.0849 1500.7899,-249.2256 1503.1899,-255.8013"/>
</g>
<!-- Node11 -->
<g id="node12" class="node">
<title>Node11</title>
<polygon fill="none" stroke="#bfbfbf" points="457.5,-230 457.5,-249 539.5,-249 539.5,-230 457.5,-230"/>
<text text-anchor="middle" x="498.5" y="-237" font-family="Helvetica,sans-Serif" font-size="10.00" fill="#000000">TGeoMatrix.h</text>
</g>
<!-- Node2&#45;&gt;Node11 -->
<g id="edge11" class="edge">
<title>Node2&#45;&gt;Node11</title>
<path fill="none" stroke="#191970" d="M985.6043,-296.9554C974.8575,-294.7514 963.2862,-292.5898 952.5,-291 774.1597,-264.7145 725.3596,-289.8837 548.5,-255 544.1185,-254.1358 539.5767,-253.0322 535.0977,-251.8131"/>
<polygon fill="#191970" stroke="#191970" points="536.0591,-248.4477 525.4791,-249.0074 534.099,-255.1677 536.0591,-248.4477"/>
</g>
<!-- Node2&#45;&gt;Node12 -->
<g id="edge12" class="edge">
<title>Node2&#45;&gt;Node12</title>
<path fill="none" stroke="#191970" d="M987.6098,-296.9946C976.3212,-294.6491 963.9815,-292.408 952.5,-291 755.1507,-266.7988 251.9094,-301.1005 58.5,-255 56.1572,-254.4416 53.7789,-253.7192 51.4247,-252.892"/>
<polygon fill="#191970" stroke="#191970" points="52.6156,-249.5978 42.0347,-249.0544 49.9673,-256.0775 52.6156,-249.5978"/>
</g>
<!-- Node17&#45;&gt;Node2 -->
<g id="edge26" class="edge">
<title>Node17&#45;&gt;Node2</title>
<path fill="none" stroke="#191970" d="M1371.7743,-360.1427C1291.8632,-347.6915 1174.0548,-329.3353 1099.0609,-317.6502"/>
<polygon fill="#191970" stroke="#191970" points="1099.1911,-314.1283 1088.7715,-316.047 1098.1134,-321.0449 1099.1911,-314.1283"/>
</g>
<!-- Node18 -->
<g id="node19" class="node">
<title>Node18</title>
<g id="a_node19"><a xlink:href="../../df/d5b/GPUCommonLogger_8h.html" target="_top" xlink:title="GPUCommonLogger.h">
<polygon fill="none" stroke="#000000" points="2584,-297 2584,-316 2707,-316 2707,-297 2584,-297"/>
<text text-anchor="middle" x="2645.5" y="-304" font-family="Helvetica,sans-Serif" font-size="10.00" fill="#000000">GPUCommonLogger.h</text>
</a>
</g>
</g>
<!-- Node17&#45;&gt;Node18 -->
<g id="edge19" class="edge">
<title>Node17&#45;&gt;Node18</title>
<path fill="none" stroke="#191970" d="M1543.2527,-358.9376C1546.0314,-358.6007 1548.786,-358.2867 1551.5,-358 1564.2503,-356.6533 2332.7241,-320.9893 2573.904,-309.8151"/>
<polygon fill="#191970" stroke="#191970" points="2574.1392,-313.308 2583.9664,-309.3489 2573.8151,-306.3155 2574.1392,-313.308"/>
</g>
<!-- Node21 -->
<g id="node22" class="node">
<title>Node21</title>
<g id="a_node22"><a xlink:href="../../d2/d45/GPUCommonRtypes_8h.html" target="_top" xlink:title="GPUCommonRtypes.h">
<polygon fill="none" stroke="#000000" points="1372,-297 1372,-316 1497,-316 1497,-297 1372,-297"/>
<text text-anchor="middle" x="1434.5" y="-304" font-family="Helvetica,sans-Serif" font-size="10.00" fill="#000000">GPUCommonRtypes.h</text>
</a>
</g>
</g>
<!-- Node17&#45;&gt;Node21 -->
<g id="edge22" class="edge">
<title>Node17&#45;&gt;Node21</title>
<path fill="none" stroke="#191970" d="M1452.2809,-358.2967C1448.9758,-348.6685 1444.6721,-336.1318 1441.1267,-325.8038"/>
<polygon fill="#191970" stroke="#191970" points="1444.3374,-324.3768 1437.7801,-316.055 1437.7166,-326.6496 1444.3374,-324.3768"/>
</g>
<!-- Node22 -->
<g id="node23" class="node">
<title>Node22</title>
<polygon fill="none" stroke="#bfbfbf" points="1578.5,-112.5 1578.5,-131.5 1620.5,-131.5 1620.5,-112.5 1578.5,-112.5"/>
<text text-anchor="middle" x="1599.5" y="-119.5" font-family="Helvetica,sans-Serif" font-size="10.00" fill="#000000">array</text>
</g>
<!-- Node17&#45;&gt;Node22 -->
<g id="edge24" class="edge">
<title>Node17&#45;&gt;Node22</title>
<path fill="none" stroke="#191970" d="M1518.4212,-358.4141C1537.8913,-350.6443 1557.6923,-339.074 1570.5,-322 1611.5066,-267.3338 1606.902,-180.0778 1602.3538,-141.4673"/>
<polygon fill="#191970" stroke="#191970" points="1605.8218,-140.9941 1601.0525,-131.5335 1598.8811,-141.9034 1605.8218,-140.9941"/>
</g>
<!-- Node23 -->
<g id="node24" class="node">
<title>Node23</title>
<polygon fill="none" stroke="#bfbfbf" points="1515,-297 1515,-316 1562,-316 1562,-297 1515,-297"/>
<text text-anchor="middle" x="1538.5" y="-304" font-family="Helvetica,sans-Serif" font-size="10.00" fill="#000000">vector</text>
</g>
<!-- Node17&#45;&gt;Node23 -->
<g id="edge25" class="edge">
<title>Node17&#45;&gt;Node23</title>
<path fill="none" stroke="#191970" d="M1475.8802,-358.2967C1488.7454,-347.6551 1505.9063,-333.4602 1519.0096,-322.6217"/>
<polygon fill="#191970" stroke="#191970" points="1521.4737,-325.1257 1526.9485,-316.055 1517.0121,-319.7318 1521.4737,-325.1257"/>
</g>
<!-- Node24 -->
<g id="node25" class="node">
<title>Node24</title>
<g id="a_node25"><a xlink:href="../../d6/d31/DetID_8h.html" target="_top" xlink:title="DetectorsCommonDataFormats\l/DetID.h">
<polygon fill="none" stroke="#000000" points="2128,-291.5 2128,-321.5 2299,-321.5 2299,-291.5 2128,-291.5"/>
<text text-anchor="start" x="2136" y="-309.5" font-family="Helvetica,sans-Serif" font-size="10.00" fill="#000000">DetectorsCommonDataFormats</text>
<text text-anchor="middle" x="2213.5" y="-298.5" font-family="Helvetica,sans-Serif" font-size="10.00" fill="#000000">/DetID.h</text>
</a>
</g>
</g>
<!-- Node17&#45;&gt;Node24 -->
<g id="edge27" class="edge">
<title>Node17&#45;&gt;Node24</title>
<path fill="none" stroke="#191970" d="M1543.0126,-359.08C1545.8735,-358.6996 1548.7086,-358.3381 1551.5,-358 1752.2024,-333.6914 1988.6003,-318.5191 2117.5952,-311.3736"/>
<polygon fill="#191970" stroke="#191970" points="2118.0432,-314.8543 2127.836,-310.8107 2117.659,-307.8649 2118.0432,-314.8543"/>
</g>
<!-- Node18&#45;&gt;Node19 -->
<g id="edge20" class="edge">
<title>Node18&#45;&gt;Node19</title>
<path fill="none" stroke="#191970" d="M2658.3948,-296.9005C2672.9642,-286.0544 2696.9022,-268.2339 2714.2454,-255.3229"/>
<polygon fill="#191970" stroke="#191970" points="2716.6978,-257.8606 2722.6291,-249.0817 2712.5177,-252.2457 2716.6978,-257.8606"/>
</g>
<!-- Node20 -->
<g id="node21" class="node">
<title>Node20</title>
<polygon fill="none" stroke="#bfbfbf" points="2641.5,-230 2641.5,-249 2687.5,-249 2687.5,-230 2641.5,-230"/>
<text text-anchor="middle" x="2664.5" y="-237" font-family="Helvetica,sans-Serif" font-size="10.00" fill="#000000">cstdio</text>
</g>
<!-- Node18&#45;&gt;Node20 -->
<g id="edge21" class="edge">
<title>Node18&#45;&gt;Node20</title>
<path fill="none" stroke="#191970" d="M2648.2222,-296.9005C2651.0158,-287.0495 2655.441,-271.4451 2658.9727,-258.9912"/>
<polygon fill="#191970" stroke="#191970" points="2662.4217,-259.6572 2661.7828,-249.0817 2655.6873,-257.7474 2662.4217,-259.6572"/>
</g>
<!-- Node21&#45;&gt;Node10 -->
<g id="edge23" class="edge">
<title>Node21&#45;&gt;Node10</title>
<path fill="none" stroke="#191970" d="M1448.541,-296.9005C1464.6238,-285.9052 1491.1906,-267.7422 1510.1316,-254.7927"/>
<polygon fill="#191970" stroke="#191970" points="1512.2052,-257.6148 1518.485,-249.0817 1508.2545,-251.8362 1512.2052,-257.6148"/>
</g>
<!-- Node24&#45;&gt;Node10 -->
<g id="edge28" class="edge">
<title>Node24&#45;&gt;Node10</title>
<path fill="none" stroke="#191970" d="M2127.6326,-302.255C2010.2031,-295.7496 1793.1253,-281.2237 1609.5,-255 1597.3886,-253.2704 1584.309,-250.8493 1572.4272,-248.4339"/>
<polygon fill="#191970" stroke="#191970" points="1572.8528,-244.9473 1562.3486,-246.3302 1571.4225,-251.7997 1572.8528,-244.9473"/>
</g>
<!-- Node24&#45;&gt;Node14 -->
<g id="edge30" class="edge">
<title>Node24&#45;&gt;Node14</title>
<path fill="none" stroke="#191970" d="M2127.9205,-301.5358C1998.5751,-293.4831 1759.5656,-276.3065 1676.5,-255 1674.02,-254.3639 1671.4914,-253.5799 1668.982,-252.7053"/>
<polygon fill="#191970" stroke="#191970" points="1670.1299,-249.3961 1659.5423,-249.004 1667.5745,-255.913 1670.1299,-249.3961"/>
</g>
<!-- Node24&#45;&gt;Node22 -->
<g id="edge29" class="edge">
<title>Node24&#45;&gt;Node22</title>
<path fill="none" stroke="#191970" d="M2127.8271,-296.2122C1989.8671,-278.3952 1725.9991,-238.7809 1647.5,-188 1629.7395,-176.5108 1616.3692,-155.975 1608.309,-140.852"/>
<polygon fill="#191970" stroke="#191970" points="1611.4016,-139.2112 1603.7863,-131.8452 1605.1459,-142.3524 1611.4016,-139.2112"/>
</g>
<!-- Node25 -->
<g id="node26" class="node">
<title>Node25</title>
<polygon fill="none" stroke="#bfbfbf" points="2908.5,-168.5 2908.5,-187.5 2960.5,-187.5 2960.5,-168.5 2908.5,-168.5"/>
<text text-anchor="middle" x="2934.5" y="-175.5" font-family="Helvetica,sans-Serif" font-size="10.00" fill="#000000">cassert</text>
</g>
<!-- Node24&#45;&gt;Node25 -->
<g id="edge31" class="edge">
<title>Node24&#45;&gt;Node25</title>
<path fill="none" stroke="#191970" d="M2299.1017,-300.205C2394.4828,-292.2629 2542.0602,-276.94 2593.5,-255 2613.8669,-246.3132 2612.1301,-232.6799 2632.5,-224 2739.6445,-178.3441 2780.0747,-210.6343 2898.0882,-187.9891"/>
<polygon fill="#191970" stroke="#191970" points="2899.1166,-191.3524 2908.2283,-185.9461 2897.7339,-184.4902 2899.1166,-191.3524"/>
</g>
<!-- Node26 -->
<g id="node27" class="node">
<title>Node26</title>
<polygon fill="none" stroke="#bfbfbf" points="2191.5,-112.5 2191.5,-131.5 2241.5,-131.5 2241.5,-112.5 2191.5,-112.5"/>
<text text-anchor="middle" x="2216.5" y="-119.5" font-family="Helvetica,sans-Serif" font-size="10.00" fill="#000000">cstdint</text>
</g>
<!-- Node24&#45;&gt;Node26 -->
<g id="edge32" class="edge">
<title>Node24&#45;&gt;Node26</title>
<path fill="none" stroke="#191970" d="M2213.7455,-291.4016C2214.2858,-258.1761 2215.5774,-178.7418 2216.1801,-141.6748"/>
<polygon fill="#191970" stroke="#191970" points="2219.6803,-141.6851 2216.3434,-131.6295 2212.6812,-141.5713 2219.6803,-141.6851"/>
</g>
<!-- Node27 -->
<g id="node28" class="node">
<title>Node27</title>
<polygon fill="none" stroke="#bfbfbf" points="2280,-230 2280,-249 2353,-249 2353,-230 2280,-230"/>
<text text-anchor="middle" x="2316.5" y="-237" font-family="Helvetica,sans-Serif" font-size="10.00" fill="#000000">string_view</text>
</g>
<!-- Node24&#45;&gt;Node27 -->
<g id="edge33" class="edge">
<title>Node24&#45;&gt;Node27</title>
<path fill="none" stroke="#191970" d="M2236.6152,-291.4639C2253.4302,-280.526 2276.1163,-265.769 2293.0162,-254.7759"/>
<polygon fill="#191970" stroke="#191970" points="2295.2616,-257.4906 2301.7358,-249.1039 2291.4447,-251.6228 2295.2616,-257.4906"/>
</g>
<!-- Node28 -->
<g id="node29" class="node">
<title>Node28</title>
<polygon fill="none" stroke="#bfbfbf" points="2244.5,-168.5 2244.5,-187.5 2288.5,-187.5 2288.5,-168.5 2244.5,-168.5"/>
<text text-anchor="middle" x="2266.5" y="-175.5" font-family="Helvetica,sans-Serif" font-size="10.00" fill="#000000">string</text>
</g>
<!-- Node24&#45;&gt;Node28 -->
<g id="edge34" class="edge">
<title>Node24&#45;&gt;Node28</title>
<path fill="none" stroke="#191970" d="M2219.7879,-291.2548C2229.476,-267.7656 2248.0377,-222.7623 2258.6125,-197.1235"/>
<polygon fill="#191970" stroke="#191970" points="2261.9071,-198.3149 2262.4845,-187.7358 2255.4359,-195.6458 2261.9071,-198.3149"/>
</g>
<!-- Node29 -->
<g id="node30" class="node">
<title>Node29</title>
<polygon fill="none" stroke="#bfbfbf" points="2371,-230 2371,-249 2440,-249 2440,-230 2371,-230"/>
<text text-anchor="middle" x="2405.5" y="-237" font-family="Helvetica,sans-Serif" font-size="10.00" fill="#000000">type_traits</text>
</g>
<!-- Node24&#45;&gt;Node29 -->
<g id="edge35" class="edge">
<title>Node24&#45;&gt;Node29</title>
<path fill="none" stroke="#191970" d="M2256.9045,-291.4454C2286.4095,-281.1997 2326.3221,-267.3165 2361.5,-255 2363.9079,-254.157 2366.3894,-253.2867 2368.8899,-252.4087"/>
<polygon fill="#191970" stroke="#191970" points="2370.2404,-255.644 2378.5133,-249.025 2367.9185,-249.0403 2370.2404,-255.644"/>
</g>
<!-- Node30 -->
<g id="node31" class="node">
<title>Node30</title>
<g id="a_node31"><a xlink:href="../../d9/d52/Common_2MathUtils_2include_2MathUtils_2Utils_8h.html" target="_top" xlink:title="MathUtils/Utils.h">
<polygon fill="none" stroke="#000000" points="1980.5,-230 1980.5,-249 2078.5,-249 2078.5,-230 1980.5,-230"/>
<text text-anchor="middle" x="2029.5" y="-237" font-family="Helvetica,sans-Serif" font-size="10.00" fill="#000000">MathUtils/Utils.h</text>
</a>
</g>
</g>
<!-- Node24&#45;&gt;Node30 -->
<g id="edge36" class="edge">
<title>Node24&#45;&gt;Node30</title>
<path fill="none" stroke="#191970" d="M2172.2068,-291.4639C2139.9868,-279.7316 2095.6999,-263.6054 2065.0453,-252.4431"/>
<polygon fill="#191970" stroke="#191970" points="2066.1981,-249.1381 2055.6041,-249.0053 2063.803,-255.7156 2066.1981,-249.1381"/>
</g>
<!-- Node42 -->
<g id="node43" class="node">
<title>Node42</title>
<g id="a_node43"><a xlink:href="../../dc/dcd/DataHeader_8h.html" target="_top" xlink:title="Headers/DataHeader.h">
<polygon fill="none" stroke="#000000" points="2458,-230 2458,-249 2585,-249 2585,-230 2458,-230"/>
<text text-anchor="middle" x="2521.5" y="-237" font-family="Helvetica,sans-Serif" font-size="10.00" fill="#000000">Headers/DataHeader.h</text>
</a>
</g>
</g>
<!-- Node24&#45;&gt;Node42 -->
<g id="edge53" class="edge">
<title>Node24&#45;&gt;Node42</title>
<path fill="none" stroke="#191970" d="M2282.6212,-291.4639C2338.6561,-279.2745 2416.4944,-262.3421 2467.8915,-251.1616"/>
<polygon fill="#191970" stroke="#191970" points="2468.7766,-254.551 2477.8041,-249.0053 2467.2886,-247.711 2468.7766,-254.551"/>
</g>
<!-- Node31 -->
<g id="node32" class="node">
<title>Node31</title>
<g id="a_node32"><a xlink:href="../../de/def/bitOps_8h.html" target="_top" xlink:title="MathUtils/detail/bitOps.h">
<polygon fill="none" stroke="#000000" points="2051,-168.5 2051,-187.5 2188,-187.5 2188,-168.5 2051,-168.5"/>
<text text-anchor="middle" x="2119.5" y="-175.5" font-family="Helvetica,sans-Serif" font-size="10.00" fill="#000000">MathUtils/detail/bitOps.h</text>
</a>
</g>
</g>
<!-- Node30&#45;&gt;Node31 -->
<g id="edge37" class="edge">
<title>Node30&#45;&gt;Node31</title>
<path fill="none" stroke="#191970" d="M2043.5625,-229.8906C2057.8286,-220.1421 2080.135,-204.8994 2096.8872,-193.4521"/>
<polygon fill="#191970" stroke="#191970" points="2099.2545,-196.0736 2105.5362,-187.5419 2095.3051,-190.2941 2099.2545,-196.0736"/>
</g>
<!-- Node32 -->
<g id="node33" class="node">
<title>Node32</title>
<g id="a_node33"><a xlink:href="../../d3/dfc/StatAccumulator_8h.html" target="_top" xlink:title="MathUtils/detail/StatAccumulator.h">
<polygon fill="none" stroke="#000000" points="1846.5,-168.5 1846.5,-187.5 2032.5,-187.5 2032.5,-168.5 1846.5,-168.5"/>
<text text-anchor="middle" x="1939.5" y="-175.5" font-family="Helvetica,sans-Serif" font-size="10.00" fill="#000000">MathUtils/detail/StatAccumulator.h</text>
</a>
</g>
</g>
<!-- Node30&#45;&gt;Node32 -->
<g id="edge39" class="edge">
<title>Node30&#45;&gt;Node32</title>
<path fill="none" stroke="#191970" d="M2015.4375,-229.8906C2001.1714,-220.1421 1978.865,-204.8994 1962.1128,-193.4521"/>
<polygon fill="#191970" stroke="#191970" points="1963.6949,-190.2941 1953.4638,-187.5419 1959.7455,-196.0736 1963.6949,-190.2941"/>
</g>
<!-- Node34 -->
<g id="node35" class="node">
<title>Node34</title>
<g id="a_node35"><a xlink:href="../../dd/d7d/trigonometric_8h.html" target="_top" xlink:title="MathUtils/detail/trigonometric.h">
<polygon fill="none" stroke="#000000" points="1656.5,-168.5 1656.5,-187.5 1828.5,-187.5 1828.5,-168.5 1656.5,-168.5"/>
<text text-anchor="middle" x="1742.5" y="-175.5" font-family="Helvetica,sans-Serif" font-size="10.00" fill="#000000">MathUtils/detail/trigonometric.h</text>
</a>
</g>
</g>
<!-- Node30&#45;&gt;Node34 -->
<g id="edge41" class="edge">
<title>Node30&#45;&gt;Node34</title>
<path fill="none" stroke="#191970" d="M1984.9711,-229.9581C1934.2793,-219.0956 1851.4609,-201.3488 1796.9651,-189.6711"/>
<polygon fill="#191970" stroke="#191970" points="1797.6447,-186.2373 1787.1333,-187.5643 1796.178,-193.082 1797.6447,-186.2373"/>
</g>
<!-- Node31&#45;&gt;Node26 -->
<g id="edge38" class="edge">
<title>Node31&#45;&gt;Node26</title>
<path fill="none" stroke="#191970" d="M2136.3961,-168.2455C2151.418,-159.5731 2173.6043,-146.7645 2190.821,-136.825"/>
<polygon fill="#191970" stroke="#191970" points="2192.8871,-139.6737 2199.7975,-131.6427 2189.3872,-133.6114 2192.8871,-139.6737"/>
</g>
<!-- Node33 -->
<g id="node34" class="node">
<title>Node33</title>
<polygon fill="none" stroke="#bfbfbf" points="2061,-112.5 2061,-131.5 2102,-131.5 2102,-112.5 2061,-112.5"/>
<text text-anchor="middle" x="2081.5" y="-119.5" font-family="Helvetica,sans-Serif" font-size="10.00" fill="#000000">tuple</text>
</g>
<!-- Node32&#45;&gt;Node33 -->
<g id="edge40" class="edge">
<title>Node32&#45;&gt;Node33</title>
<path fill="none" stroke="#191970" d="M1963.9107,-168.3733C1988.0986,-158.8343 2025.2025,-144.2018 2051.2475,-133.9306"/>
<polygon fill="#191970" stroke="#191970" points="2052.6193,-137.152 2060.638,-130.2273 2050.0512,-130.6401 2052.6193,-137.152"/>
</g>
<!-- Node34&#45;&gt;Node22 -->
<g id="edge42" class="edge">
<title>Node34&#45;&gt;Node22</title>
<path fill="none" stroke="#191970" d="M1717.9174,-168.3733C1693.5591,-158.8343 1656.1939,-144.2018 1629.9656,-133.9306"/>
<polygon fill="#191970" stroke="#191970" points="1631.0967,-130.6148 1620.5089,-130.2273 1628.5441,-137.1328 1631.0967,-130.6148"/>
</g>
<!-- Node34&#45;&gt;Node33 -->
<g id="edge44" class="edge">
<title>Node34&#45;&gt;Node33</title>
<path fill="none" stroke="#191970" d="M1824.6292,-168.4691C1886.0991,-160.6362 1972.0441,-148.1999 2046.5,-132 2047.9666,-131.6809 2049.4623,-131.335 2050.9691,-130.9699"/>
<polygon fill="#191970" stroke="#191970" points="2052.1009,-134.2913 2060.8831,-128.3648 2050.3219,-127.5212 2052.1009,-134.2913"/>
</g>
<!-- Node35 -->
<g id="node36" class="node">
<title>Node35</title>
<polygon fill="none" stroke="#bfbfbf" points="1886,-56.5 1886,-75.5 1933,-75.5 1933,-56.5 1886,-56.5"/>
<text text-anchor="middle" x="1909.5" y="-63.5" font-family="Helvetica,sans-Serif" font-size="10.00" fill="#000000">cmath</text>
</g>
<!-- Node34&#45;&gt;Node35 -->
<g id="edge43" class="edge">
<title>Node34&#45;&gt;Node35</title>
<path fill="none" stroke="#191970" d="M1828.7511,-168.9354C1903.4856,-160.19 2001.4913,-146.2189 2013.5,-132 2037.3123,-103.8051 1981.7559,-83.6304 1943.0193,-73.4758"/>
<polygon fill="#191970" stroke="#191970" points="1943.6567,-70.0275 1933.1062,-70.995 1941.9573,-76.8181 1943.6567,-70.0275"/>
</g>
<!-- Node36 -->
<g id="node37" class="node">
<title>Node36</title>
<g id="a_node37"><a xlink:href="../../df/d21/GPUCommonDef_8h.html" target="_top" xlink:title="GPUCommonDef.h">
<polygon fill="none" stroke="#000000" points="1638,-56.5 1638,-75.5 1745,-75.5 1745,-56.5 1638,-56.5"/>
<text text-anchor="middle" x="1691.5" y="-63.5" font-family="Helvetica,sans-Serif" font-size="10.00" fill="#000000">GPUCommonDef.h</text>
</a>
</g>
</g>
<!-- Node34&#45;&gt;Node36 -->
<g id="edge45" class="edge">
<title>Node34&#45;&gt;Node36</title>
<path fill="none" stroke="#191970" d="M1713.6892,-168.4613C1696.981,-161.274 1677.3485,-149.5938 1667.5,-132 1658.9019,-116.64 1667.6352,-97.6133 1676.886,-83.941"/>
<polygon fill="#191970" stroke="#191970" points="1679.7531,-85.9501 1682.8628,-75.8219 1674.1158,-81.8002 1679.7531,-85.9501"/>
</g>
<!-- Node39 -->
<g id="node40" class="node">
<title>Node39</title>
<g id="a_node40"><a xlink:href="../../d6/da2/GPUCommonMath_8h.html" target="_top" xlink:title="GPUCommonMath.h">
<polygon fill="none" stroke="#000000" points="1677,-112.5 1677,-131.5 1792,-131.5 1792,-112.5 1677,-112.5"/>
<text text-anchor="middle" x="1734.5" y="-119.5" font-family="Helvetica,sans-Serif" font-size="10.00" fill="#000000">GPUCommonMath.h</text>
</a>
</g>
</g>
<!-- Node34&#45;&gt;Node39 -->
<g id="edge48" class="edge">
<title>Node34&#45;&gt;Node39</title>
<path fill="none" stroke="#191970" d="M1741.1065,-168.2455C1740.0626,-160.9382 1738.5992,-150.6944 1737.3149,-141.7046"/>
<polygon fill="#191970" stroke="#191970" points="1740.7566,-141.0472 1735.8775,-131.6427 1733.827,-142.0372 1740.7566,-141.0472"/>
</g>
<!-- Node41 -->
<g id="node42" class="node">
<title>Node41</title>
<g id="a_node42"><a xlink:href="../../d6/d84/MathConstants_8h.html" target="_top" xlink:title="useful math constants ">
<polygon fill="none" stroke="#000000" points="1810.5,-112.5 1810.5,-131.5 2004.5,-131.5 2004.5,-112.5 1810.5,-112.5"/>
<text text-anchor="middle" x="1907.5" y="-119.5" font-family="Helvetica,sans-Serif" font-size="10.00" fill="#000000">CommonConstants/MathConstants.h</text>
</a>
</g>
</g>
<!-- Node34&#45;&gt;Node41 -->
<g id="edge52" class="edge">
<title>Node34&#45;&gt;Node41</title>
<path fill="none" stroke="#191970" d="M1770.8645,-168.3733C1798.1827,-159.1016 1839.6796,-145.0178 1869.7738,-134.804"/>
<polygon fill="#191970" stroke="#191970" points="1871.161,-138.0294 1879.5056,-131.5011 1868.9113,-131.4008 1871.161,-138.0294"/>
</g>
<!-- Node37 -->
<g id="node38" class="node">
<title>Node37</title>
<g id="a_node38"><a xlink:href="../../d5/d93/GPUCommonDefSettings_8h.html" target="_top" xlink:title="GPUCommonDefSettings.h">
<polygon fill="none" stroke="#000000" points="1540.5,-.5 1540.5,-19.5 1688.5,-19.5 1688.5,-.5 1540.5,-.5"/>
<text text-anchor="middle" x="1614.5" y="-7.5" font-family="Helvetica,sans-Serif" font-size="10.00" fill="#000000">GPUCommonDefSettings.h</text>
</a>
</g>
</g>
<!-- Node36&#45;&gt;Node37 -->
<g id="edge46" class="edge">
<title>Node36&#45;&gt;Node37</title>
<path fill="none" stroke="#191970" d="M1678.0876,-56.2455C1666.4943,-47.814 1649.5252,-35.4729 1636.0322,-25.6598"/>
<polygon fill="#191970" stroke="#191970" points="1637.9047,-22.6938 1627.7587,-19.6427 1633.7874,-28.355 1637.9047,-22.6938"/>
</g>
<!-- Node38 -->
<g id="node39" class="node">
<title>Node38</title>
<g id="a_node39"><a xlink:href="../../da/d5a/GPUCommonDefAPI_8h.html" target="_top" xlink:title="GPUCommonDefAPI.h">
<polygon fill="none" stroke="#000000" points="1706.5,-.5 1706.5,-19.5 1830.5,-19.5 1830.5,-.5 1706.5,-.5"/>
<text text-anchor="middle" x="1768.5" y="-7.5" font-family="Helvetica,sans-Serif" font-size="10.00" fill="#000000">GPUCommonDefAPI.h</text>
</a>
</g>
</g>
<!-- Node36&#45;&gt;Node38 -->
<g id="edge47" class="edge">
<title>Node36&#45;&gt;Node38</title>
<path fill="none" stroke="#191970" d="M1704.9124,-56.2455C1716.5057,-47.814 1733.4748,-35.4729 1746.9678,-25.6598"/>
<polygon fill="#191970" stroke="#191970" points="1749.2126,-28.355 1755.2413,-19.6427 1745.0953,-22.6938 1749.2126,-28.355"/>
</g>
<!-- Node39&#45;&gt;Node35 -->
<g id="edge50" class="edge">
<title>Node39&#45;&gt;Node35</title>
<path fill="none" stroke="#191970" d="M1764.5836,-112.3733C1795.6234,-102.4405 1843.9222,-86.9849 1876.1208,-76.6813"/>
<polygon fill="#191970" stroke="#191970" points="1877.5094,-79.9119 1885.9669,-73.5306 1875.3759,-73.2449 1877.5094,-79.9119"/>
</g>
<!-- Node39&#45;&gt;Node36 -->
<g id="edge49" class="edge">
<title>Node39&#45;&gt;Node36</title>
<path fill="none" stroke="#191970" d="M1727.01,-112.2455C1720.9674,-104.3761 1712.3097,-93.101 1705.0559,-83.6542"/>
<polygon fill="#191970" stroke="#191970" points="1707.7705,-81.4426 1698.9042,-75.6427 1702.2185,-85.7058 1707.7705,-81.4426"/>
</g>
<!-- Node40 -->
<g id="node41" class="node">
<title>Node40</title>
<polygon fill="none" stroke="#bfbfbf" points="2362.5,-56.5 2362.5,-75.5 2426.5,-75.5 2426.5,-56.5 2362.5,-56.5"/>
<text text-anchor="middle" x="2394.5" y="-63.5" font-family="Helvetica,sans-Serif" font-size="10.00" fill="#000000">algorithm</text>
</g>
<!-- Node39&#45;&gt;Node40 -->
<g id="edge51" class="edge">
<title>Node39&#45;&gt;Node40</title>
<path fill="none" stroke="#191970" d="M1792.2094,-113.1219C1795.3493,-112.7216 1798.4616,-112.3442 1801.5,-112 2007.4145,-88.6763 2254.9127,-73.6516 2352.2509,-68.2479"/>
<polygon fill="#191970" stroke="#191970" points="2352.4913,-71.74 2362.2838,-67.6956 2352.1065,-64.7506 2352.4913,-71.74"/>
</g>
<!-- Node42&#45;&gt;Node25 -->
<g id="edge56" class="edge">
<title>Node42&#45;&gt;Node25</title>
<path fill="none" stroke="#191970" d="M2566.3528,-229.9752C2577.177,-227.8462 2588.7284,-225.714 2599.5,-224 2728.8837,-203.4127 2766.0541,-213.9813 2898.1393,-188.0077"/>
<polygon fill="#191970" stroke="#191970" points="2899.1176,-191.3815 2908.2369,-185.9881 2897.7446,-184.5174 2899.1176,-191.3815"/>
</g>
<!-- Node42&#45;&gt;Node26 -->
<g id="edge54" class="edge">
<title>Node42&#45;&gt;Node26</title>
<path fill="none" stroke="#191970" d="M2475.3993,-229.9354C2437.1373,-221.2454 2381.7091,-206.9 2335.5,-188 2325.9472,-184.0928 2273.9862,-154.7661 2241.9655,-136.5441"/>
<polygon fill="#191970" stroke="#191970" points="2243.5472,-133.417 2233.1258,-131.5076 2240.0818,-139.4991 2243.5472,-133.417"/>
</g>
<!-- Node42&#45;&gt;Node28 -->
<g id="edge60" class="edge">
<title>Node42&#45;&gt;Node28</title>
<path fill="none" stroke="#191970" d="M2478.5728,-229.9388C2434.3288,-219.9593 2363.4135,-203.6158 2302.5,-188 2301.2276,-187.6738 2299.9312,-187.3367 2298.6227,-186.9923"/>
<polygon fill="#191970" stroke="#191970" points="2299.1139,-183.4998 2288.5474,-184.2744 2297.2907,-190.2582 2299.1139,-183.4998"/>
</g>
<!-- Node42&#45;&gt;Node40 -->
<g id="edge58" class="edge">
<title>Node42&#45;&gt;Node40</title>
<path fill="none" stroke="#191970" d="M2561.6986,-229.9794C2570.8203,-227.9188 2580.4785,-225.8152 2589.5,-224 2682.514,-205.2844 2853.7357,-242.9032 2795.5,-168 2751.3014,-111.1514 2530.3924,-80.7861 2436.6593,-70.2896"/>
<polygon fill="#191970" stroke="#191970" points="2436.9924,-66.8052 2426.67,-69.1926 2436.2281,-73.7634 2436.9924,-66.8052"/>
</g>
<!-- Node43 -->
<g id="node44" class="node">
<title>Node43</title>
<polygon fill="none" stroke="#bfbfbf" points="2344.5,-168.5 2344.5,-187.5 2402.5,-187.5 2402.5,-168.5 2344.5,-168.5"/>
<text text-anchor="middle" x="2373.5" y="-175.5" font-family="Helvetica,sans-Serif" font-size="10.00" fill="#000000">memory</text>
</g>
<!-- Node42&#45;&gt;Node43 -->
<g id="edge55" class="edge">
<title>Node42&#45;&gt;Node43</title>
<path fill="none" stroke="#191970" d="M2498.375,-229.8906C2473.5033,-219.5554 2433.7702,-203.0447 2405.8156,-191.4284"/>
<polygon fill="#191970" stroke="#191970" points="2407.0402,-188.1472 2396.4626,-187.5419 2404.354,-194.6113 2407.0402,-188.1472"/>
</g>
<!-- Node44 -->
<g id="node45" class="node">
<title>Node44</title>
<polygon fill="none" stroke="#bfbfbf" points="2420.5,-168.5 2420.5,-187.5 2470.5,-187.5 2470.5,-168.5 2420.5,-168.5"/>
<text text-anchor="middle" x="2445.5" y="-175.5" font-family="Helvetica,sans-Serif" font-size="10.00" fill="#000000">cstring</text>
</g>
<!-- Node42&#45;&gt;Node44 -->
<g id="edge57" class="edge">
<title>Node42&#45;&gt;Node44</title>
<path fill="none" stroke="#191970" d="M2509.625,-229.8906C2497.8703,-220.3786 2479.6514,-205.6357 2465.6328,-194.2917"/>
<polygon fill="#191970" stroke="#191970" points="2467.5178,-191.3146 2457.5424,-187.7449 2463.1144,-196.7562 2467.5178,-191.3146"/>
</g>
<!-- Node45 -->
<g id="node46" class="node">
<title>Node45</title>
<polygon fill="none" stroke="#bfbfbf" points="2489,-168.5 2489,-187.5 2554,-187.5 2554,-168.5 2489,-168.5"/>
<text text-anchor="middle" x="2521.5" y="-175.5" font-family="Helvetica,sans-Serif" font-size="10.00" fill="#000000">stdexcept</text>
</g>
<!-- Node42&#45;&gt;Node45 -->
<g id="edge59" class="edge">
<title>Node42&#45;&gt;Node45</title>
<path fill="none" stroke="#191970" d="M2521.5,-229.8906C2521.5,-221.3657 2521.5,-208.6392 2521.5,-197.9235"/>
<polygon fill="#191970" stroke="#191970" points="2525.0001,-197.7448 2521.5,-187.7449 2518.0001,-197.7449 2525.0001,-197.7448"/>
</g>
<!-- Node46 -->
<g id="node47" class="node">
<title>Node46</title>
<polygon fill="none" stroke="#bfbfbf" points="2572.5,-168.5 2572.5,-187.5 2622.5,-187.5 2622.5,-168.5 2572.5,-168.5"/>
<text text-anchor="middle" x="2597.5" y="-175.5" font-family="Helvetica,sans-Serif" font-size="10.00" fill="#000000">climits</text>
</g>
<!-- Node42&#45;&gt;Node46 -->
<g id="edge61" class="edge">
<title>Node42&#45;&gt;Node46</title>
<path fill="none" stroke="#191970" d="M2533.375,-229.8906C2545.1297,-220.3786 2563.3486,-205.6357 2577.3672,-194.2917"/>
<polygon fill="#191970" stroke="#191970" points="2579.8856,-196.7562 2585.4576,-187.7449 2575.4822,-191.3146 2579.8856,-196.7562"/>
</g>
<!-- Node47 -->
<g id="node48" class="node">
<title>Node47</title>
<g id="a_node48"><a xlink:href="../../d7/df8/Types_8h.html" target="_top" xlink:title="MemoryResources/Types.h">
<polygon fill="none" stroke="#000000" points="2640.5,-168.5 2640.5,-187.5 2786.5,-187.5 2786.5,-168.5 2640.5,-168.5"/>
<text text-anchor="middle" x="2713.5" y="-175.5" font-family="Helvetica,sans-Serif" font-size="10.00" fill="#000000">MemoryResources/Types.h</text>
</a>
</g>
</g>
<!-- Node42&#45;&gt;Node47 -->
<g id="edge62" class="edge">
<title>Node42&#45;&gt;Node47</title>
<path fill="none" stroke="#191970" d="M2551.5,-229.8906C2584.4705,-219.3298 2637.5717,-202.3208 2673.9303,-190.6747"/>
<polygon fill="#191970" stroke="#191970" points="2675.255,-193.9256 2683.7107,-187.5419 2673.1196,-187.2592 2675.255,-193.9256"/>
</g>
<!-- Node48 -->
<g id="node49" class="node">
<title>Node48</title>
<polygon fill="none" stroke="#bfbfbf" points="2843,-168.5 2843,-187.5 2890,-187.5 2890,-168.5 2843,-168.5"/>
<text text-anchor="middle" x="2866.5" y="-175.5" font-family="Helvetica,sans-Serif" font-size="10.00" fill="#000000">cerrno</text>
</g>
<!-- Node42&#45;&gt;Node48 -->
<g id="edge63" class="edge">
<title>Node42&#45;&gt;Node48</title>
<path fill="none" stroke="#191970" d="M2568.0494,-229.9313C2578.3891,-227.8948 2589.3052,-225.8135 2599.5,-224 2700.9353,-205.9559 2727.6638,-209.1371 2828.5,-188 2829.9605,-187.6938 2831.4489,-187.367 2832.9497,-187.0252"/>
<polygon fill="#191970" stroke="#191970" points="2833.9807,-190.3767 2842.8714,-184.6143 2832.3277,-183.5746 2833.9807,-190.3767"/>
</g>
</g>
</svg>
        <g id="navigator" transform="translate(0 0)" fill="#404254">
                <rect fill="#f2f5e9" fill-opacity="0.5" stroke="#606060" stroke-width=".5" x="0" y="0" width="60" height="60"/>
                <use id="zoomplus" xlink:href="#zoomPlus" x="17" y="9" onmousedown="handleZoom(evt,'in')"/>
                <use id="zoomminus" xlink:href="#zoomMin" x="42" y="9" onmousedown="handleZoom(evt,'out')"/>
                <use id="reset" xlink:href="#resetDef" x="30" y="36" onmousedown="handleReset()"/>
                <g id="arrowUp" xlink:href="#dirArrow" transform="translate(30 24)" onmousedown="handlePan(0,-1)">
                  <use xlink:href="#rim" fill="#404040">
                        <set attributeName="fill" to="#808080" begin="arrowUp.mouseover" end="arrowUp.mouseout"/>
                  </use>
                  <path fill="none" stroke="white" stroke-width="1.5" d="M0,-3.0v7 M-2.5,-0.5L0,-3.0L2.5,-0.5"/>
                </g>
                <g id="arrowRight" xlink:href="#dirArrow" transform="rotate(90) translate(36 -43)" onmousedown="handlePan(1,0)">
                  <use xlink:href="#rim" fill="#404040">
                        <set attributeName="fill" to="#808080" begin="arrowRight.mouseover" end="arrowRight.mouseout"/>
                  </use>
                  <path fill="none" stroke="white" stroke-width="1.5" d="M0,-3.0v7 M-2.5,-0.5L0,-3.0L2.5,-0.5"/>
                </g>
                <g id="arrowDown" xlink:href="#dirArrow" transform="rotate(180) translate(-30 -48)" onmousedown="handlePan(0,1)">
                  <use xlink:href="#rim" fill="#404040">
                        <set attributeName="fill" to="#808080" begin="arrowDown.mouseover" end="arrowDown.mouseout"/>
                  </use>
                  <path fill="none" stroke="white" stroke-width="1.5" d="M0,-3.0v7 M-2.5,-0.5L0,-3.0L2.5,-0.5"/>
                </g>
                <g id="arrowLeft" xlink:href="#dirArrow" transform="rotate(270) translate(-36 17)" onmousedown="handlePan(-1,0)">
                  <use xlink:href="#rim" fill="#404040">
                        <set attributeName="fill" to="#808080" begin="arrowLeft.mouseover" end="arrowLeft.mouseout"/>
                  </use>
                  <path fill="none" stroke="white" stroke-width="1.5" d="M0,-3.0v7 M-2.5,-0.5L0,-3.0L2.5,-0.5"/>
                </g>
        </g>
        <svg viewBox="0 0 15 15" width="100%" height="30px" preserveAspectRatio="xMaxYMin meet">
         <g id="arrow_out" transform="scale(0.3 0.3)">
          <a xlink:href="BaseCluster_8cxx__incl_org.svg" target="_base">
           <rect id="button" ry="5" rx="5" y="6" x="6" height="38" width="38"
                fill="#f2f5e9" fill-opacity="0.5" stroke="#606060" stroke-width="1.0"/>
           <path id="arrow"
             d="M 11.500037,31.436501 C 11.940474,20.09759 22.043105,11.32322 32.158766,21.979434 L 37.068811,17.246167 C 37.068811,17.246167 37.088388,32 37.088388,32 L 22.160133,31.978069 C 22.160133,31.978069 26.997745,27.140456 26.997745,27.140456 C 18.528582,18.264221 13.291696,25.230495 11.500037,31.436501 z"
             style="fill:#404040;"/>
          </a>
         </g>
        </svg>
</svg>
