<?xml version="1.0" encoding="UTF-8" standalone="no"?>
<!DOCTYPE svg PUBLIC "-//W3C//DTD SVG 1.1//EN"
 "http://www.w3.org/Graphics/SVG/1.1/DTD/svg11.dtd">
<!-- Generated by graphviz version 2.40.1 (20161225.0304)
 -->
<!-- Title: /home/travis/build/AliceO2Group/AliceO2/Detectors/TPC/simulation/test/testTPCSimulation.cxx Pages: 1 -->
<!--zoomable 318 -->
<svg id="main" version="1.1" xmlns="http://www.w3.org/2000/svg" xmlns:xlink="http://www.w3.org/1999/xlink" xml:space="preserve" onload="init(evt)">
<style type="text/css"><![CDATA[
.edge:hover path { stroke: red; }
.edge:hover polygon { stroke: red; fill: red; }
]]></style>
<script type="text/javascript"><![CDATA[
var edges = document.getElementsByTagName('g');
if (edges && edges.length) {
  for (var i=0;i<edges.length;i++) {
    if (edges[i].id.substr(0,4)=='edge') {
      edges[i].setAttribute('class','edge');
    }
  }
}
]]></script>
        <defs>
                <circle id="rim" cx="0" cy="0" r="7"/>
                <circle id="rim2" cx="0" cy="0" r="3.5"/>
                <g id="zoomPlus">
                        <use xlink:href="#rim" fill="#404040">
                                <set attributeName="fill" to="#808080" begin="zoomplus.mouseover" end="zoomplus.mouseout"/>
                        </use>
                        <path d="M-4,0h8M0,-4v8" fill="none" stroke="white" stroke-width="1.5" pointer-events="none"/>
                </g>
                <g id="zoomMin">
                        <use xlink:href="#rim" fill="#404040">
                                <set attributeName="fill" to="#808080" begin="zoomminus.mouseover" end="zoomminus.mouseout"/>
                        </use>
                        <path d="M-4,0h8" fill="none" stroke="white" stroke-width="1.5" pointer-events="none"/>
                </g>
                <g id="dirArrow">
                        <path fill="none" stroke="white" stroke-width="1.5" d="M0,-3.0v7 M-2.5,-0.5L0,-3.0L2.5,-0.5"/>
                </g>
               <g id="resetDef">
                       <use xlink:href="#rim2" fill="#404040">
                               <set attributeName="fill" to="#808080" begin="reset.mouseover" end="reset.mouseout"/>
                       </use>
               </g>
        </defs>

<script type="text/javascript">
var viewWidth = 2098;
var viewHeight = 318;
var sectionId = 'dynsection-0';
</script>
<script xlink:href="../../svgpan.js"/>
<svg id="graph" class="graph">
<g id="viewport">
<title>/home/travis/build/AliceO2Group/AliceO2/Detectors/TPC/simulation/test/testTPCSimulation.cxx</title>
<!-- Node0 -->
<g id="node1" class="node">
<title>Node0</title>
<polygon fill="#bfbfbf" stroke="#000000" points="512,-257.5 512,-309.5 664,-309.5 664,-257.5 512,-257.5"/>
<text text-anchor="start" x="520" y="-297.5" font-family="Helvetica,sans-Serif" font-size="10.00" fill="#000000">/home/travis/build</text>
<text text-anchor="start" x="520" y="-286.5" font-family="Helvetica,sans-Serif" font-size="10.00" fill="#000000">/AliceO2Group/AliceO2</text>
<text text-anchor="start" x="520" y="-275.5" font-family="Helvetica,sans-Serif" font-size="10.00" fill="#000000">/Detectors/TPC/simulation</text>
<text text-anchor="middle" x="588" y="-264.5" font-family="Helvetica,sans-Serif" font-size="10.00" fill="#000000">/test/testTPCSimulation.cxx</text>
</g>
<!-- Node1 -->
<g id="node2" class="node">
<title>Node1</title>
<polygon fill="none" stroke="#bfbfbf" points="375,-196 375,-215 507,-215 507,-196 375,-196"/>
<text text-anchor="middle" x="441" y="-203" font-family="Helvetica,sans-Serif" font-size="10.00" fill="#000000">boost/test/unit_test.hpp</text>
</g>
<!-- Node0&#45;&gt;Node1 -->
<g id="edge1" class="edge">
<title>Node0&#45;&gt;Node1</title>
<path fill="none" stroke="#191970" d="M538.6422,-257.3101C515.1315,-244.8351 487.9133,-230.3928 468.1958,-219.9304"/>
<polygon fill="#191970" stroke="#191970" points="469.6419,-216.7356 459.1679,-215.1401 466.3609,-222.919 469.6419,-216.7356"/>
</g>
<!-- Node2 -->
<g id="node3" class="node">
<title>Node2</title>
<g id="a_node3"><a xlink:href="../../d4/de5/Point_8h.html" target="_top" xlink:title="Class for TPC Point. ">
<polygon fill="none" stroke="#000000" points="525.5,-196 525.5,-215 650.5,-215 650.5,-196 525.5,-196"/>
<text text-anchor="middle" x="588" y="-203" font-family="Helvetica,sans-Serif" font-size="10.00" fill="#000000">TPCSimulation/Point.h</text>
</a>
</g>
</g>
<!-- Node0&#45;&gt;Node2 -->
<g id="edge2" class="edge">
<title>Node0&#45;&gt;Node2</title>
<path fill="none" stroke="#191970" d="M588,-257.0928C588,-246.6735 588,-234.911 588,-225.2512"/>
<polygon fill="#191970" stroke="#191970" points="591.5001,-225.0838 588,-215.0839 584.5001,-225.0839 591.5001,-225.0838"/>
</g>
<!-- Node24 -->
<g id="node25" class="node">
<title>Node24</title>
<g id="a_node25"><a xlink:href="../../dd/df5/DigitMCMetaData_8h.html" target="_top" xlink:title="Definition of the Meta Data object of the Monte Carlo Digit. ">
<polygon fill="none" stroke="#000000" points="1087.5,-190.5 1087.5,-220.5 1240.5,-220.5 1240.5,-190.5 1087.5,-190.5"/>
<text text-anchor="start" x="1095.5" y="-208.5" font-family="Helvetica,sans-Serif" font-size="10.00" fill="#000000">TPCSimulation/DigitMCMeta</text>
<text text-anchor="middle" x="1164" y="-197.5" font-family="Helvetica,sans-Serif" font-size="10.00" fill="#000000">Data.h</text>
</a>
</g>
</g>
<!-- Node0&#45;&gt;Node24 -->
<g id="edge24" class="edge">
<title>Node0&#45;&gt;Node24</title>
<path fill="none" stroke="#191970" d="M664.1911,-273.1825C771.038,-258.7136 964.865,-232.4662 1077.1661,-217.2588"/>
<polygon fill="#191970" stroke="#191970" points="1077.667,-220.723 1087.1068,-215.9126 1076.7276,-213.7863 1077.667,-220.723"/>
</g>
<!-- Node3 -->
<g id="node4" class="node">
<title>Node3</title>
<g id="a_node4"><a xlink:href="../../d4/d25/BaseHits_8h.html" target="_top" xlink:title="SimulationDataFormat\l/BaseHits.h">
<polygon fill="none" stroke="#000000" points="742.5,-123.5 742.5,-153.5 869.5,-153.5 869.5,-123.5 742.5,-123.5"/>
<text text-anchor="start" x="750.5" y="-141.5" font-family="Helvetica,sans-Serif" font-size="10.00" fill="#000000">SimulationDataFormat</text>
<text text-anchor="middle" x="806" y="-130.5" font-family="Helvetica,sans-Serif" font-size="10.00" fill="#000000">/BaseHits.h</text>
</a>
</g>
</g>
<!-- Node2&#45;&gt;Node3 -->
<g id="edge3" class="edge">
<title>Node2&#45;&gt;Node3</title>
<path fill="none" stroke="#191970" d="M619.2341,-195.9005C652.5864,-185.6501 706.2075,-169.1702 747.4576,-156.4924"/>
<polygon fill="#191970" stroke="#191970" points="748.5927,-159.8052 757.1232,-153.5218 746.5362,-153.1141 748.5927,-159.8052"/>
</g>
<!-- Node15 -->
<g id="node16" class="node">
<title>Node15</title>
<polygon fill="none" stroke="#bfbfbf" points="232.5,-129 232.5,-148 279.5,-148 279.5,-129 232.5,-129"/>
<text text-anchor="middle" x="256" y="-136" font-family="Helvetica,sans-Serif" font-size="10.00" fill="#000000">vector</text>
</g>
<!-- Node2&#45;&gt;Node15 -->
<g id="edge15" class="edge">
<title>Node2&#45;&gt;Node15</title>
<path fill="none" stroke="#191970" d="M545.4371,-195.9335C535.7788,-193.8752 525.5524,-191.7843 516,-190 415.587,-171.2439 386.6416,-184.0113 289,-154 287.1395,-153.4282 285.2499,-152.7701 283.3649,-152.0547"/>
<polygon fill="#191970" stroke="#191970" points="284.7081,-148.8226 274.1357,-148.1345 281.9714,-155.2655 284.7081,-148.8226"/>
</g>
<!-- Node16 -->
<g id="node17" class="node">
<title>Node16</title>
<g id="a_node17"><a xlink:href="../../d0/d91/ShmAllocator_8h.html" target="_top" xlink:title="CommonUtils/ShmAllocator.h">
<polygon fill="none" stroke="#000000" points="298,-129 298,-148 458,-148 458,-129 298,-129"/>
<text text-anchor="middle" x="378" y="-136" font-family="Helvetica,sans-Serif" font-size="10.00" fill="#000000">CommonUtils/ShmAllocator.h</text>
</a>
</g>
</g>
<!-- Node2&#45;&gt;Node16 -->
<g id="edge16" class="edge">
<title>Node2&#45;&gt;Node16</title>
<path fill="none" stroke="#191970" d="M557.9121,-195.9005C521.032,-184.134 458.4242,-164.1591 417.6468,-151.1492"/>
<polygon fill="#191970" stroke="#191970" points="418.6228,-147.7868 408.0321,-148.0817 416.4951,-154.4557 418.6228,-147.7868"/>
</g>
<!-- Node4 -->
<g id="node5" class="node">
<title>Node4</title>
<g id="a_node5"><a xlink:href="../../dc/d73/Cartesian_8h.html" target="_top" xlink:title="MathUtils/Cartesian.h">
<polygon fill="none" stroke="#000000" points="1118,-67.5 1118,-86.5 1240,-86.5 1240,-67.5 1118,-67.5"/>
<text text-anchor="middle" x="1179" y="-74.5" font-family="Helvetica,sans-Serif" font-size="10.00" fill="#000000">MathUtils/Cartesian.h</text>
</a>
</g>
</g>
<!-- Node3&#45;&gt;Node4 -->
<g id="edge4" class="edge">
<title>Node3&#45;&gt;Node4</title>
<path fill="none" stroke="#191970" d="M869.6972,-127.9977C936.7897,-116.9355 1042.0517,-99.58 1110.796,-88.2454"/>
<polygon fill="#191970" stroke="#191970" points="1111.7867,-91.6294 1121.0841,-86.5491 1110.6479,-84.7227 1111.7867,-91.6294"/>
</g>
<!-- Node5 -->
<g id="node6" class="node">
<title>Node5</title>
<polygon fill="none" stroke="#bfbfbf" points="902,-.5 902,-30.5 1066,-30.5 1066,-.5 902,-.5"/>
<text text-anchor="start" x="910" y="-18.5" font-family="Helvetica,sans-Serif" font-size="10.00" fill="#000000">Math/GenVector/Displacement</text>
<text text-anchor="middle" x="984" y="-7.5" font-family="Helvetica,sans-Serif" font-size="10.00" fill="#000000">Vector3D.h</text>
</g>
<!-- Node4&#45;&gt;Node5 -->
<g id="edge5" class="edge">
<title>Node4&#45;&gt;Node5</title>
<path fill="none" stroke="#191970" d="M1148.5313,-67.3906C1119.9411,-58.3737 1076.447,-44.6563 1041.3572,-33.5896"/>
<polygon fill="#191970" stroke="#191970" points="1042.2921,-30.2145 1031.7024,-30.5446 1040.1866,-36.8904 1042.2921,-30.2145"/>
</g>
<!-- Node6 -->
<g id="node7" class="node">
<title>Node6</title>
<polygon fill="none" stroke="#bfbfbf" points="1084.5,-6 1084.5,-25 1273.5,-25 1273.5,-6 1084.5,-6"/>
<text text-anchor="middle" x="1179" y="-13" font-family="Helvetica,sans-Serif" font-size="10.00" fill="#000000">Math/GenVector/PositionVector3D.h</text>
</g>
<!-- Node4&#45;&gt;Node6 -->
<g id="edge6" class="edge">
<title>Node4&#45;&gt;Node6</title>
<path fill="none" stroke="#191970" d="M1179,-67.3906C1179,-58.8657 1179,-46.1392 1179,-35.4235"/>
<polygon fill="#191970" stroke="#191970" points="1182.5001,-35.2448 1179,-25.2449 1175.5001,-35.2449 1182.5001,-35.2448"/>
</g>
<!-- Node7 -->
<g id="node8" class="node">
<title>Node7</title>
<polygon fill="none" stroke="#bfbfbf" points="1292,-6 1292,-25 1452,-25 1452,-6 1292,-6"/>
<text text-anchor="middle" x="1372" y="-13" font-family="Helvetica,sans-Serif" font-size="10.00" fill="#000000">Math/GenVector/Rotation3D.h</text>
</g>
<!-- Node4&#45;&gt;Node7 -->
<g id="edge7" class="edge">
<title>Node4&#45;&gt;Node7</title>
<path fill="none" stroke="#191970" d="M1209.1563,-67.3906C1242.2985,-56.8298 1295.6762,-39.8208 1332.2242,-28.1747"/>
<polygon fill="#191970" stroke="#191970" points="1333.5902,-31.4129 1342.0555,-25.0419 1331.4649,-24.7433 1333.5902,-31.4129"/>
</g>
<!-- Node8 -->
<g id="node9" class="node">
<title>Node8</title>
<polygon fill="none" stroke="#bfbfbf" points="1470,-6 1470,-25 1638,-25 1638,-6 1470,-6"/>
<text text-anchor="middle" x="1554" y="-13" font-family="Helvetica,sans-Serif" font-size="10.00" fill="#000000">Math/GenVector/Transform3D.h</text>
</g>
<!-- Node4&#45;&gt;Node8 -->
<g id="edge8" class="edge">
<title>Node4&#45;&gt;Node8</title>
<path fill="none" stroke="#191970" d="M1237.6103,-67.4999C1294.6555,-58.2393 1383.7901,-43.7314 1461,-31 1469.3579,-29.6218 1478.137,-28.1675 1486.8256,-26.724"/>
<polygon fill="#191970" stroke="#191970" points="1487.6627,-30.133 1496.953,-25.0398 1486.5142,-23.2278 1487.6627,-30.133"/>
</g>
<!-- Node9 -->
<g id="node10" class="node">
<title>Node9</title>
<polygon fill="none" stroke="#bfbfbf" points="1656.5,-6 1656.5,-25 1829.5,-25 1829.5,-6 1656.5,-6"/>
<text text-anchor="middle" x="1743" y="-13" font-family="Helvetica,sans-Serif" font-size="10.00" fill="#000000">Math/GenVector/Translation3D.h</text>
</g>
<!-- Node4&#45;&gt;Node9 -->
<g id="edge9" class="edge">
<title>Node4&#45;&gt;Node9</title>
<path fill="none" stroke="#191970" d="M1240.3648,-68.7156C1245.3135,-68.1116 1250.2387,-67.5317 1255,-67 1428.8747,-47.5844 1473.4278,-52.9563 1647,-31 1657.1541,-29.7155 1667.8828,-28.1702 1678.3444,-26.5595"/>
<polygon fill="#191970" stroke="#191970" points="1678.9293,-30.0106 1688.2653,-25.0016 1677.8434,-23.0954 1678.9293,-30.0106"/>
</g>
<!-- Node10 -->
<g id="node11" class="node">
<title>Node10</title>
<polygon fill="none" stroke="#bfbfbf" points="1848,-.5 1848,-30.5 2012,-30.5 2012,-.5 1848,-.5"/>
<text text-anchor="start" x="1856" y="-18.5" font-family="Helvetica,sans-Serif" font-size="10.00" fill="#000000">Math/GenVector/Displacement</text>
<text text-anchor="middle" x="1930" y="-7.5" font-family="Helvetica,sans-Serif" font-size="10.00" fill="#000000">Vector2D.h</text>
</g>
<!-- Node4&#45;&gt;Node10 -->
<g id="edge10" class="edge">
<title>Node4&#45;&gt;Node10</title>
<path fill="none" stroke="#191970" d="M1240.3483,-68.5572C1245.3007,-67.9887 1250.2312,-67.4602 1255,-67 1510.5598,-42.3399 1578.9458,-60.4038 1837.6422,-31.0766"/>
<polygon fill="#191970" stroke="#191970" points="1838.1806,-34.5379 1847.7168,-29.9216 1837.3832,-27.5834 1838.1806,-34.5379"/>
</g>
<!-- Node11 -->
<g id="node12" class="node">
<title>Node11</title>
<polygon fill="none" stroke="#bfbfbf" points="526.5,-6 526.5,-25 715.5,-25 715.5,-6 526.5,-6"/>
<text text-anchor="middle" x="621" y="-13" font-family="Helvetica,sans-Serif" font-size="10.00" fill="#000000">Math/GenVector/PositionVector2D.h</text>
</g>
<!-- Node4&#45;&gt;Node11 -->
<g id="edge11" class="edge">
<title>Node4&#45;&gt;Node11</title>
<path fill="none" stroke="#191970" d="M1117.9477,-71.7318C1030.6843,-63.9934 865.3191,-48.5553 725,-31 714.252,-29.6553 702.8993,-28.1013 691.7995,-26.5072"/>
<polygon fill="#191970" stroke="#191970" points="692.1015,-23.0143 681.7015,-25.0368 691.0928,-29.9413 692.1015,-23.0143"/>
</g>
<!-- Node12 -->
<g id="node13" class="node">
<title>Node12</title>
<polygon fill="none" stroke="#bfbfbf" points="2030.5,-6 2030.5,-25 2089.5,-25 2089.5,-6 2030.5,-6"/>
<text text-anchor="middle" x="2060" y="-13" font-family="Helvetica,sans-Serif" font-size="10.00" fill="#000000">Rtypes.h</text>
</g>
<!-- Node4&#45;&gt;Node12 -->
<g id="edge12" class="edge">
<title>Node4&#45;&gt;Node12</title>
<path fill="none" stroke="#191970" d="M1240.3411,-68.48C1245.2952,-67.9288 1250.228,-67.4253 1255,-67 1594.4745,-36.7426 1687.8552,-102.9232 2021,-31 2024.0357,-30.3446 2027.1417,-29.4778 2030.2105,-28.488"/>
<polygon fill="#191970" stroke="#191970" points="2031.5531,-31.7241 2039.7542,-25.0164 2029.1601,-25.1458 2031.5531,-31.7241"/>
</g>
<!-- Node13 -->
<g id="node14" class="node">
<title>Node13</title>
<polygon fill="none" stroke="#bfbfbf" points="734,-6 734,-25 816,-25 816,-6 734,-6"/>
<text text-anchor="middle" x="775" y="-13" font-family="Helvetica,sans-Serif" font-size="10.00" fill="#000000">TGeoMatrix.h</text>
</g>
<!-- Node4&#45;&gt;Node13 -->
<g id="edge13" class="edge">
<title>Node4&#45;&gt;Node13</title>
<path fill="none" stroke="#191970" d="M1117.8885,-72.1296C1047.0879,-65.7752 927.1953,-52.8142 826,-31 821.8274,-30.1005 817.5028,-29.022 813.2164,-27.8582"/>
<polygon fill="#191970" stroke="#191970" points="813.9512,-24.4278 803.3736,-25.0317 812.0191,-31.1559 813.9512,-24.4278"/>
</g>
<!-- Node14 -->
<g id="node15" class="node">
<title>Node14</title>
<polygon fill="none" stroke="#bfbfbf" points="834.5,-6 834.5,-25 883.5,-25 883.5,-6 834.5,-6"/>
<text text-anchor="middle" x="859" y="-13" font-family="Helvetica,sans-Serif" font-size="10.00" fill="#000000">iosfwd</text>
</g>
<!-- Node4&#45;&gt;Node14 -->
<g id="edge14" class="edge">
<title>Node4&#45;&gt;Node14</title>
<path fill="none" stroke="#191970" d="M1117.9544,-71.963C1059.3115,-66.0132 968.6983,-53.8868 893,-31 891.0905,-30.4227 889.1492,-29.7604 887.2113,-29.042"/>
<polygon fill="#191970" stroke="#191970" points="888.2911,-25.7011 877.7126,-25.1143 885.6163,-32.1699 888.2911,-25.7011"/>
</g>
<!-- Node17 -->
<g id="node18" class="node">
<title>Node17</title>
<g id="a_node18"><a xlink:href="../../de/d61/ShmManager_8h.html" target="_top" xlink:title="CommonUtils/ShmManager.h">
<polygon fill="none" stroke="#000000" points="194,-67.5 194,-86.5 352,-86.5 352,-67.5 194,-67.5"/>
<text text-anchor="middle" x="273" y="-74.5" font-family="Helvetica,sans-Serif" font-size="10.00" fill="#000000">CommonUtils/ShmManager.h</text>
</a>
</g>
</g>
<!-- Node16&#45;&gt;Node17 -->
<g id="edge17" class="edge">
<title>Node16&#45;&gt;Node17</title>
<path fill="none" stroke="#191970" d="M361.5938,-128.8906C344.5647,-118.9165 317.7159,-103.1908 298.0349,-91.6633"/>
<polygon fill="#191970" stroke="#191970" points="299.6888,-88.5759 289.291,-86.5419 296.151,-94.6161 299.6888,-88.5759"/>
</g>
<!-- Node23 -->
<g id="node24" class="node">
<title>Node23</title>
<polygon fill="none" stroke="#bfbfbf" points="124,-67.5 124,-86.5 176,-86.5 176,-67.5 124,-67.5"/>
<text text-anchor="middle" x="150" y="-74.5" font-family="Helvetica,sans-Serif" font-size="10.00" fill="#000000">cassert</text>
</g>
<!-- Node16&#45;&gt;Node23 -->
<g id="edge23" class="edge">
<title>Node16&#45;&gt;Node23</title>
<path fill="none" stroke="#191970" d="M341.3078,-128.9137C304.493,-119.2501 245.9095,-103.7498 186.3176,-87.334"/>
<polygon fill="#191970" stroke="#191970" points="186.9302,-83.8723 176.3593,-84.5848 185.0673,-90.6199 186.9302,-83.8723"/>
</g>
<!-- Node18 -->
<g id="node19" class="node">
<title>Node18</title>
<polygon fill="none" stroke="#bfbfbf" points="0,-6 0,-25 32,-25 32,-6 0,-6"/>
<text text-anchor="middle" x="16" y="-13" font-family="Helvetica,sans-Serif" font-size="10.00" fill="#000000">list</text>
</g>
<!-- Node17&#45;&gt;Node18 -->
<g id="edge18" class="edge">
<title>Node17&#45;&gt;Node18</title>
<path fill="none" stroke="#191970" d="M212.2154,-67.4813C154.2875,-57.9543 71.5145,-43.0243 41,-31 40.1477,-30.6642 39.2922,-30.2993 38.438,-29.9111"/>
<polygon fill="#191970" stroke="#191970" points="40.0121,-26.7836 29.5486,-25.1202 36.691,-32.9456 40.0121,-26.7836"/>
</g>
<!-- Node19 -->
<g id="node20" class="node">
<title>Node19</title>
<polygon fill="none" stroke="#bfbfbf" points="50.5,-6 50.5,-25 103.5,-25 103.5,-6 50.5,-6"/>
<text text-anchor="middle" x="77" y="-13" font-family="Helvetica,sans-Serif" font-size="10.00" fill="#000000">cstddef</text>
</g>
<!-- Node17&#45;&gt;Node19 -->
<g id="edge19" class="edge">
<title>Node17&#45;&gt;Node19</title>
<path fill="none" stroke="#191970" d="M234.7464,-67.4611C202.0596,-58.9648 153.9614,-45.6399 113,-31 111.1738,-30.3473 109.308,-29.6478 107.4341,-28.9201"/>
<polygon fill="#191970" stroke="#191970" points="108.7239,-25.6662 98.1426,-25.1314 106.0808,-32.1481 108.7239,-25.6662"/>
</g>
<!-- Node20 -->
<g id="node21" class="node">
<title>Node20</title>
<polygon fill="none" stroke="#bfbfbf" points="122,-6 122,-25 172,-25 172,-6 122,-6"/>
<text text-anchor="middle" x="147" y="-13" font-family="Helvetica,sans-Serif" font-size="10.00" fill="#000000">atomic</text>
</g>
<!-- Node17&#45;&gt;Node20 -->
<g id="edge20" class="edge">
<title>Node17&#45;&gt;Node20</title>
<path fill="none" stroke="#191970" d="M253.3125,-67.3906C232.5078,-57.2359 199.489,-41.1196 175.7681,-29.5416"/>
<polygon fill="#191970" stroke="#191970" points="177.0712,-26.283 166.5493,-25.0419 174.0007,-32.5736 177.0712,-26.283"/>
</g>
<!-- Node21 -->
<g id="node22" class="node">
<title>Node21</title>
<polygon fill="none" stroke="#bfbfbf" points="190.5,-.5 190.5,-30.5 355.5,-30.5 355.5,-.5 190.5,-.5"/>
<text text-anchor="start" x="198.5" y="-18.5" font-family="Helvetica,sans-Serif" font-size="10.00" fill="#000000">boost/interprocess</text>
<text text-anchor="middle" x="273" y="-7.5" font-family="Helvetica,sans-Serif" font-size="10.00" fill="#000000">/managed_external_buffer.hpp</text>
</g>
<!-- Node17&#45;&gt;Node21 -->
<g id="edge21" class="edge">
<title>Node17&#45;&gt;Node21</title>
<path fill="none" stroke="#191970" d="M273,-67.3906C273,-60.2234 273,-50.0862 273,-40.671"/>
<polygon fill="#191970" stroke="#191970" points="276.5001,-40.5446 273,-30.5446 269.5001,-40.5446 276.5001,-40.5446"/>
</g>
<!-- Node22 -->
<g id="node23" class="node">
<title>Node22</title>
<polygon fill="none" stroke="#bfbfbf" points="374,-.5 374,-30.5 508,-30.5 508,-.5 374,-.5"/>
<text text-anchor="start" x="382" y="-18.5" font-family="Helvetica,sans-Serif" font-size="10.00" fill="#000000">boost/interprocess</text>
<text text-anchor="middle" x="441" y="-7.5" font-family="Helvetica,sans-Serif" font-size="10.00" fill="#000000">/allocators/allocator.hpp</text>
</g>
<!-- Node17&#45;&gt;Node22 -->
<g id="edge22" class="edge">
<title>Node17&#45;&gt;Node22</title>
<path fill="none" stroke="#191970" d="M299.25,-67.3906C323.5657,-58.4893 360.3947,-45.0073 390.4183,-34.0165"/>
<polygon fill="#191970" stroke="#191970" points="391.7152,-37.269 399.9026,-30.5446 389.3088,-30.6956 391.7152,-37.269"/>
</g>
<!-- Node24&#45;&gt;Node12 -->
<g id="edge25" class="edge">
<title>Node24&#45;&gt;Node12</title>
<path fill="none" stroke="#191970" d="M1240.7785,-194.5529C1392.103,-171.9544 1738.6996,-115.1137 2021,-31 2023.4439,-30.2718 2025.9486,-29.453 2028.4517,-28.582"/>
<polygon fill="#191970" stroke="#191970" points="2029.8126,-31.8101 2037.9663,-25.0449 2027.3734,-25.2488 2029.8126,-31.8101"/>
</g>
</g>
</svg>
        <g id="navigator" transform="translate(0 0)" fill="#404254">
                <rect fill="#f2f5e9" fill-opacity="0.5" stroke="#606060" stroke-width=".5" x="0" y="0" width="60" height="60"/>
                <use id="zoomplus" xlink:href="#zoomPlus" x="17" y="9" onmousedown="handleZoom(evt,'in')"/>
                <use id="zoomminus" xlink:href="#zoomMin" x="42" y="9" onmousedown="handleZoom(evt,'out')"/>
                <use id="reset" xlink:href="#resetDef" x="30" y="36" onmousedown="handleReset()"/>
                <g id="arrowUp" xlink:href="#dirArrow" transform="translate(30 24)" onmousedown="handlePan(0,-1)">
                  <use xlink:href="#rim" fill="#404040">
                        <set attributeName="fill" to="#808080" begin="arrowUp.mouseover" end="arrowUp.mouseout"/>
                  </use>
                  <path fill="none" stroke="white" stroke-width="1.5" d="M0,-3.0v7 M-2.5,-0.5L0,-3.0L2.5,-0.5"/>
                </g>
                <g id="arrowRight" xlink:href="#dirArrow" transform="rotate(90) translate(36 -43)" onmousedown="handlePan(1,0)">
                  <use xlink:href="#rim" fill="#404040">
                        <set attributeName="fill" to="#808080" begin="arrowRight.mouseover" end="arrowRight.mouseout"/>
                  </use>
                  <path fill="none" stroke="white" stroke-width="1.5" d="M0,-3.0v7 M-2.5,-0.5L0,-3.0L2.5,-0.5"/>
                </g>
                <g id="arrowDown" xlink:href="#dirArrow" transform="rotate(180) translate(-30 -48)" onmousedown="handlePan(0,1)">
                  <use xlink:href="#rim" fill="#404040">
                        <set attributeName="fill" to="#808080" begin="arrowDown.mouseover" end="arrowDown.mouseout"/>
                  </use>
                  <path fill="none" stroke="white" stroke-width="1.5" d="M0,-3.0v7 M-2.5,-0.5L0,-3.0L2.5,-0.5"/>
                </g>
                <g id="arrowLeft" xlink:href="#dirArrow" transform="rotate(270) translate(-36 17)" onmousedown="handlePan(-1,0)">
                  <use xlink:href="#rim" fill="#404040">
                        <set attributeName="fill" to="#808080" begin="arrowLeft.mouseover" end="arrowLeft.mouseout"/>
                  </use>
                  <path fill="none" stroke="white" stroke-width="1.5" d="M0,-3.0v7 M-2.5,-0.5L0,-3.0L2.5,-0.5"/>
                </g>
        </g>
        <svg viewBox="0 0 15 15" width="100%" height="30px" preserveAspectRatio="xMaxYMin meet">
         <g id="arrow_out" transform="scale(0.3 0.3)">
          <a xlink:href="testTPCSimulation_8cxx__incl_org.svg" target="_base">
           <rect id="button" ry="5" rx="5" y="6" x="6" height="38" width="38"
                fill="#f2f5e9" fill-opacity="0.5" stroke="#606060" stroke-width="1.0"/>
           <path id="arrow"
             d="M 11.500037,31.436501 C 11.940474,20.09759 22.043105,11.32322 32.158766,21.979434 L 37.068811,17.246167 C 37.068811,17.246167 37.088388,32 37.088388,32 L 22.160133,31.978069 C 22.160133,31.978069 26.997745,27.140456 26.997745,27.140456 C 18.528582,18.264221 13.291696,25.230495 11.500037,31.436501 z"
             style="fill:#404040;"/>
          </a>
         </g>
        </svg>
</svg>
