<?xml version="1.0" encoding="UTF-8" standalone="no"?>
<!DOCTYPE svg PUBLIC "-//W3C//DTD SVG 1.1//EN"
 "http://www.w3.org/Graphics/SVG/1.1/DTD/svg11.dtd">
<!-- Generated by graphviz version 2.40.1 (20161225.0304)
 -->
<!-- Title: /home/travis/build/AliceO2Group/AliceO2/Detectors/MUON/MID/Simulation/include/MIDSimulation/Detector.h Pages: 1 -->
<svg width="2448pt" height="363pt"
 viewBox="0.00 0.00 2447.50 363.00" xmlns="http://www.w3.org/2000/svg" xmlns:xlink="http://www.w3.org/1999/xlink">
<g id="graph0" class="graph" transform="scale(1 1) rotate(0) translate(4 359)">
<title>/home/travis/build/AliceO2Group/AliceO2/Detectors/MUON/MID/Simulation/include/MIDSimulation/Detector.h</title>
<!-- Node0 -->
<g id="node1" class="node">
<title>Node0</title>
<polygon fill="#bfbfbf" stroke="#000000" points="896,-302.5 896,-354.5 1078,-354.5 1078,-302.5 896,-302.5"/>
<text text-anchor="start" x="904" y="-342.5" font-family="Helvetica,sans-Serif" font-size="10.00" fill="#000000">/home/travis/build</text>
<text text-anchor="start" x="904" y="-331.5" font-family="Helvetica,sans-Serif" font-size="10.00" fill="#000000">/AliceO2Group/AliceO2</text>
<text text-anchor="start" x="904" y="-320.5" font-family="Helvetica,sans-Serif" font-size="10.00" fill="#000000">/Detectors/MUON/MID/Simulation</text>
<text text-anchor="middle" x="987" y="-309.5" font-family="Helvetica,sans-Serif" font-size="10.00" fill="#000000">/include/MIDSimulation/Detector.h</text>
</g>
<!-- Node1 -->
<g id="node2" class="node">
<title>Node1</title>
<polygon fill="none" stroke="#bfbfbf" points="895.5,-129 895.5,-148 942.5,-148 942.5,-129 895.5,-129"/>
<text text-anchor="middle" x="919" y="-136" font-family="Helvetica,sans-Serif" font-size="10.00" fill="#000000">vector</text>
</g>
<!-- Node0&#45;&gt;Node1 -->
<g id="edge1" class="edge">
<title>Node0&#45;&gt;Node1</title>
<path fill="none" stroke="#191970" d="M940.8981,-302.4457C928.189,-292.7742 915.9851,-280.5479 909,-266 892.0976,-230.7973 903.1394,-183.7858 911.707,-157.8063"/>
<polygon fill="#191970" stroke="#191970" points="915.1203,-158.6504 915.1387,-148.0556 908.5173,-156.3265 915.1203,-158.6504"/>
</g>
<!-- Node2 -->
<g id="node3" class="node">
<title>Node2</title>
<g id="a_node3"><a xlink:href="../../d1/d3a/Base_2include_2DetectorsBase_2Detector_8h.html" target="_top" xlink:title="DetectorsBase/Detector.h">
<polygon fill="none" stroke="#000000" points="1591.5,-190.5 1591.5,-209.5 1732.5,-209.5 1732.5,-190.5 1591.5,-190.5"/>
<text text-anchor="middle" x="1662" y="-197.5" font-family="Helvetica,sans-Serif" font-size="10.00" fill="#000000">DetectorsBase/Detector.h</text>
</a>
</g>
</g>
<!-- Node0&#45;&gt;Node2 -->
<g id="edge2" class="edge">
<title>Node0&#45;&gt;Node2</title>
<path fill="none" stroke="#191970" d="M1078.0335,-311.1699C1218.249,-284.4771 1483.2575,-234.0273 1601.9119,-211.439"/>
<polygon fill="#191970" stroke="#191970" points="1602.738,-214.8447 1611.907,-209.5362 1601.4288,-207.9682 1602.738,-214.8447"/>
</g>
<!-- Node27 -->
<g id="node28" class="node">
<title>Node27</title>
<g id="a_node28"><a xlink:href="../../d4/d25/BaseHits_8h.html" target="_top" xlink:title="SimulationDataFormat\l/BaseHits.h">
<polygon fill="none" stroke="#000000" points="750.5,-123.5 750.5,-153.5 877.5,-153.5 877.5,-123.5 750.5,-123.5"/>
<text text-anchor="start" x="758.5" y="-141.5" font-family="Helvetica,sans-Serif" font-size="10.00" fill="#000000">SimulationDataFormat</text>
<text text-anchor="middle" x="814" y="-130.5" font-family="Helvetica,sans-Serif" font-size="10.00" fill="#000000">/BaseHits.h</text>
</a>
</g>
</g>
<!-- Node0&#45;&gt;Node27 -->
<g id="edge33" class="edge">
<title>Node0&#45;&gt;Node27</title>
<path fill="none" stroke="#191970" d="M950.4166,-302.2954C936.7579,-291.7327 921.5346,-278.9834 909,-266 877.0994,-232.9574 846.5361,-189.0081 829.047,-162.287"/>
<polygon fill="#191970" stroke="#191970" points="831.7968,-160.0939 823.4254,-153.6 825.92,-163.897 831.7968,-160.0939"/>
</g>
<!-- Node37 -->
<g id="node38" class="node">
<title>Node37</title>
<g id="a_node38"><a xlink:href="../../d7/d8d/Detectors_2MUON_2MID_2Simulation_2include_2MIDSimulation_2Hit_8h.html" target="_top" xlink:title="Hit for MID. ">
<polygon fill="none" stroke="#000000" points="1045,-190.5 1045,-209.5 1159,-209.5 1159,-190.5 1045,-190.5"/>
<text text-anchor="middle" x="1102" y="-197.5" font-family="Helvetica,sans-Serif" font-size="10.00" fill="#000000">MIDSimulation/Hit.h</text>
</a>
</g>
</g>
<!-- Node0&#45;&gt;Node37 -->
<g id="edge45" class="edge">
<title>Node0&#45;&gt;Node37</title>
<path fill="none" stroke="#191970" d="M1024.7039,-302.3717C1038.0726,-292.0048 1052.6101,-279.3675 1064,-266 1076.2825,-251.5849 1086.7166,-232.6392 1093.5256,-218.7454"/>
<polygon fill="#191970" stroke="#191970" points="1096.7115,-220.1954 1097.8176,-209.6584 1090.382,-217.2058 1096.7115,-220.1954"/>
</g>
<!-- Node39 -->
<g id="node40" class="node">
<title>Node39</title>
<g id="a_node40"><a xlink:href="../../d0/d2e/MID_2Simulation_2include_2MIDSimulation_2Stepper_8h.html" target="_top" xlink:title="MIDSimulation/Stepper.h">
<polygon fill="none" stroke="#000000" points="918.5,-246.5 918.5,-265.5 1055.5,-265.5 1055.5,-246.5 918.5,-246.5"/>
<text text-anchor="middle" x="987" y="-253.5" font-family="Helvetica,sans-Serif" font-size="10.00" fill="#000000">MIDSimulation/Stepper.h</text>
</a>
</g>
</g>
<!-- Node0&#45;&gt;Node39 -->
<g id="edge49" class="edge">
<title>Node0&#45;&gt;Node39</title>
<path fill="none" stroke="#191970" d="M987,-302.3258C987,-293.5142 987,-283.8397 987,-275.621"/>
<polygon fill="#191970" stroke="#191970" points="990.5001,-275.534 987,-265.534 983.5001,-275.534 990.5001,-275.534"/>
</g>
<!-- Node2&#45;&gt;Node1 -->
<g id="edge4" class="edge">
<title>Node2&#45;&gt;Node1</title>
<path fill="none" stroke="#191970" d="M1591.4064,-198.8761C1436.3715,-195.8496 1070.4571,-185.5019 951,-154 949.075,-153.4924 947.1272,-152.8666 945.1929,-152.1607"/>
<polygon fill="#191970" stroke="#191970" points="946.3717,-148.858 935.8014,-148.1367 943.6147,-155.2923 946.3717,-148.858"/>
</g>
<!-- Node3 -->
<g id="node4" class="node">
<title>Node3</title>
<polygon fill="none" stroke="#bfbfbf" points="1701,-67.5 1701,-86.5 1739,-86.5 1739,-67.5 1701,-67.5"/>
<text text-anchor="middle" x="1720" y="-74.5" font-family="Helvetica,sans-Serif" font-size="10.00" fill="#000000">map</text>
</g>
<!-- Node2&#45;&gt;Node3 -->
<g id="edge3" class="edge">
<title>Node2&#45;&gt;Node3</title>
<path fill="none" stroke="#191970" d="M1666.5512,-190.3484C1676.1228,-170.0499 1698.4865,-122.6235 1711.0415,-95.9981"/>
<polygon fill="#191970" stroke="#191970" points="1714.3706,-97.1444 1715.47,-86.6068 1708.0392,-94.1588 1714.3706,-97.1444"/>
</g>
<!-- Node4 -->
<g id="node5" class="node">
<title>Node4</title>
<polygon fill="none" stroke="#bfbfbf" points="1944.5,-67.5 1944.5,-86.5 2027.5,-86.5 2027.5,-67.5 1944.5,-67.5"/>
<text text-anchor="middle" x="1986" y="-74.5" font-family="Helvetica,sans-Serif" font-size="10.00" fill="#000000">initializer_list</text>
</g>
<!-- Node2&#45;&gt;Node4 -->
<g id="edge5" class="edge">
<title>Node2&#45;&gt;Node4</title>
<path fill="none" stroke="#191970" d="M1732.7656,-192.6679C1797.5427,-185.0052 1887.9017,-171.6377 1919,-154 1943.5801,-140.0592 1963.5355,-113.6078 1975.0899,-95.6417"/>
<polygon fill="#191970" stroke="#191970" points="1978.3539,-97.0163 1980.6207,-86.6668 1972.3946,-93.3438 1978.3539,-97.0163"/>
</g>
<!-- Node5 -->
<g id="node6" class="node">
<title>Node5</title>
<polygon fill="none" stroke="#bfbfbf" points="1966,-129 1966,-148 2024,-148 2024,-129 1966,-129"/>
<text text-anchor="middle" x="1995" y="-136" font-family="Helvetica,sans-Serif" font-size="10.00" fill="#000000">memory</text>
</g>
<!-- Node2&#45;&gt;Node5 -->
<g id="edge6" class="edge">
<title>Node2&#45;&gt;Node5</title>
<path fill="none" stroke="#191970" d="M1732.785,-192.557C1791.9762,-185.4343 1878.3135,-172.9439 1952,-154 1955.1511,-153.1899 1958.3958,-152.2417 1961.6233,-151.2204"/>
<polygon fill="#191970" stroke="#191970" points="1962.7908,-154.5204 1971.1434,-148.0024 1960.5492,-147.889 1962.7908,-154.5204"/>
</g>
<!-- Node6 -->
<g id="node7" class="node">
<title>Node6</title>
<polygon fill="none" stroke="#bfbfbf" points="2042,-129 2042,-148 2126,-148 2126,-129 2042,-129"/>
<text text-anchor="middle" x="2084" y="-136" font-family="Helvetica,sans-Serif" font-size="10.00" fill="#000000">FairDetector.h</text>
</g>
<!-- Node2&#45;&gt;Node6 -->
<g id="edge7" class="edge">
<title>Node2&#45;&gt;Node6</title>
<path fill="none" stroke="#191970" d="M1732.6861,-194.8683C1807.7787,-188.5735 1929.6736,-175.9374 2033,-154 2037.1754,-153.1135 2041.5018,-152.0433 2045.7892,-150.8843"/>
<polygon fill="#191970" stroke="#191970" points="2046.9842,-154.1829 2055.6332,-148.0637 2045.056,-147.4537 2046.9842,-154.1829"/>
</g>
<!-- Node7 -->
<g id="node8" class="node">
<title>Node7</title>
<polygon fill="none" stroke="#bfbfbf" points="2182,-129 2182,-148 2288,-148 2288,-129 2182,-129"/>
<text text-anchor="middle" x="2235" y="-136" font-family="Helvetica,sans-Serif" font-size="10.00" fill="#000000">FairRootManager.h</text>
</g>
<!-- Node2&#45;&gt;Node7 -->
<g id="edge8" class="edge">
<title>Node2&#45;&gt;Node7</title>
<path fill="none" stroke="#191970" d="M1732.7768,-196.6243C1830.964,-191.2472 2013.8387,-178.7206 2168,-154 2174.4211,-152.9703 2181.1429,-151.6772 2187.7467,-150.2792"/>
<polygon fill="#191970" stroke="#191970" points="2188.9587,-153.5958 2197.967,-148.0189 2187.4471,-146.761 2188.9587,-153.5958"/>
</g>
<!-- Node8 -->
<g id="node9" class="node">
<title>Node8</title>
<g id="a_node9"><a xlink:href="../../d0/d9a/MaterialManager_8h.html" target="_top" xlink:title="DetectorsBase/MaterialManager.h">
<polygon fill="none" stroke="#000000" points="1728.5,-129 1728.5,-148 1909.5,-148 1909.5,-129 1728.5,-129"/>
<text text-anchor="middle" x="1819" y="-136" font-family="Helvetica,sans-Serif" font-size="10.00" fill="#000000">DetectorsBase/MaterialManager.h</text>
</a>
</g>
</g>
<!-- Node2&#45;&gt;Node8 -->
<g id="edge9" class="edge">
<title>Node2&#45;&gt;Node8</title>
<path fill="none" stroke="#191970" d="M1686.5313,-190.3906C1713.0307,-180.0103 1755.4331,-163.4004 1785.107,-151.7766"/>
<polygon fill="#191970" stroke="#191970" points="1786.6065,-154.9482 1794.641,-148.0419 1784.0533,-148.4304 1786.6065,-154.9482"/>
</g>
<!-- Node9 -->
<g id="node10" class="node">
<title>Node9</title>
<polygon fill="none" stroke="#bfbfbf" points="2029.5,-6 2029.5,-25 2088.5,-25 2088.5,-6 2029.5,-6"/>
<text text-anchor="middle" x="2059" y="-13" font-family="Helvetica,sans-Serif" font-size="10.00" fill="#000000">Rtypes.h</text>
</g>
<!-- Node2&#45;&gt;Node9 -->
<g id="edge15" class="edge">
<title>Node2&#45;&gt;Node9</title>
<path fill="none" stroke="#191970" d="M1732.8753,-198.2518C1858.2575,-194.4214 2108.5251,-183.1745 2135,-154 2169.6629,-115.8025 2112.3832,-58.9826 2079.5401,-31.5149"/>
<polygon fill="#191970" stroke="#191970" points="2081.7494,-28.8003 2071.7875,-25.1932 2077.3257,-34.2253 2081.7494,-28.8003"/>
</g>
<!-- Node12 -->
<g id="node13" class="node">
<title>Node12</title>
<polygon fill="none" stroke="#bfbfbf" points="2306,-129 2306,-148 2364,-148 2364,-129 2306,-129"/>
<text text-anchor="middle" x="2335" y="-136" font-family="Helvetica,sans-Serif" font-size="10.00" fill="#000000">cxxabi.h</text>
</g>
<!-- Node2&#45;&gt;Node12 -->
<g id="edge16" class="edge">
<title>Node2&#45;&gt;Node12</title>
<path fill="none" stroke="#191970" d="M1732.6402,-197.6799C1874.9305,-192.548 2191.4591,-178.6899 2297,-154 2299.7967,-153.3457 2302.6549,-152.5132 2305.4859,-151.5747"/>
<polygon fill="#191970" stroke="#191970" points="2306.725,-154.8482 2314.8772,-148.0811 2304.2843,-148.2874 2306.725,-154.8482"/>
</g>
<!-- Node13 -->
<g id="node14" class="node">
<title>Node13</title>
<polygon fill="none" stroke="#bfbfbf" points="2382.5,-129 2382.5,-148 2439.5,-148 2439.5,-129 2382.5,-129"/>
<text text-anchor="middle" x="2411" y="-136" font-family="Helvetica,sans-Serif" font-size="10.00" fill="#000000">typeinfo</text>
</g>
<!-- Node2&#45;&gt;Node13 -->
<g id="edge17" class="edge">
<title>Node2&#45;&gt;Node13</title>
<path fill="none" stroke="#191970" d="M1732.7477,-198.3143C1887.671,-194.1532 2252.6746,-181.6599 2373,-154 2375.7992,-153.3565 2378.6592,-152.5314 2381.4912,-151.5977"/>
<polygon fill="#191970" stroke="#191970" points="2382.727,-154.8724 2390.8842,-148.1115 2380.2912,-148.3098 2382.727,-154.8724"/>
</g>
<!-- Node14 -->
<g id="node15" class="node">
<title>Node14</title>
<polygon fill="none" stroke="#bfbfbf" points="1252.5,-129 1252.5,-148 1321.5,-148 1321.5,-129 1252.5,-129"/>
<text text-anchor="middle" x="1287" y="-136" font-family="Helvetica,sans-Serif" font-size="10.00" fill="#000000">type_traits</text>
</g>
<!-- Node2&#45;&gt;Node14 -->
<g id="edge18" class="edge">
<title>Node2&#45;&gt;Node14</title>
<path fill="none" stroke="#191970" d="M1591.4928,-194.333C1523.9518,-187.9375 1419.5115,-175.5096 1331,-154 1327.7733,-153.2159 1324.4516,-152.2853 1321.148,-151.2754"/>
<polygon fill="#191970" stroke="#191970" points="1321.9978,-147.8706 1311.4049,-148.0744 1319.8129,-154.5209 1321.9978,-147.8706"/>
</g>
<!-- Node15 -->
<g id="node16" class="node">
<title>Node15</title>
<polygon fill="none" stroke="#bfbfbf" points="1340,-129 1340,-148 1384,-148 1384,-129 1340,-129"/>
<text text-anchor="middle" x="1362" y="-136" font-family="Helvetica,sans-Serif" font-size="10.00" fill="#000000">string</text>
</g>
<!-- Node2&#45;&gt;Node15 -->
<g id="edge19" class="edge">
<title>Node2&#45;&gt;Node15</title>
<path fill="none" stroke="#191970" d="M1591.2448,-193.6478C1536.1838,-187.3415 1458.4001,-175.4196 1393,-154 1391.3882,-153.4721 1389.7554,-152.8725 1388.126,-152.2235"/>
<polygon fill="#191970" stroke="#191970" points="1389.553,-149.0276 1378.9971,-148.1195 1386.6827,-155.4121 1389.553,-149.0276"/>
</g>
<!-- Node16 -->
<g id="node17" class="node">
<title>Node16</title>
<polygon fill="none" stroke="#bfbfbf" points="1402,-129 1402,-148 1476,-148 1476,-129 1402,-129"/>
<text text-anchor="middle" x="1439" y="-136" font-family="Helvetica,sans-Serif" font-size="10.00" fill="#000000">TMessage.h</text>
</g>
<!-- Node2&#45;&gt;Node16 -->
<g id="edge20" class="edge">
<title>Node2&#45;&gt;Node16</title>
<path fill="none" stroke="#191970" d="M1622.0592,-190.4764C1586.0385,-181.6847 1531.7062,-167.9192 1485,-154 1482.1985,-153.1651 1479.3117,-152.2719 1476.4141,-151.3515"/>
<polygon fill="#191970" stroke="#191970" points="1477.2215,-147.9335 1466.6291,-148.1627 1475.0525,-154.589 1477.2215,-147.9335"/>
</g>
<!-- Node17 -->
<g id="node18" class="node">
<title>Node17</title>
<g id="a_node18"><a xlink:href="../../de/d61/ShmManager_8h.html" target="_top" xlink:title="CommonUtils/ShmManager.h">
<polygon fill="none" stroke="#000000" points="1525,-67.5 1525,-86.5 1683,-86.5 1683,-67.5 1525,-67.5"/>
<text text-anchor="middle" x="1604" y="-74.5" font-family="Helvetica,sans-Serif" font-size="10.00" fill="#000000">CommonUtils/ShmManager.h</text>
</a>
</g>
</g>
<!-- Node2&#45;&gt;Node17 -->
<g id="edge21" class="edge">
<title>Node2&#45;&gt;Node17</title>
<path fill="none" stroke="#191970" d="M1661.0441,-190.2603C1659.2501,-175.1425 1654.4693,-145.4356 1643,-123 1637.567,-112.3723 1629.239,-102.088 1621.6716,-93.9487"/>
<polygon fill="#191970" stroke="#191970" points="1623.9819,-91.3047 1614.4933,-86.5911 1618.9715,-96.193 1623.9819,-91.3047"/>
</g>
<!-- Node23 -->
<g id="node24" class="node">
<title>Node23</title>
<g id="a_node24"><a xlink:href="../../d0/d91/ShmAllocator_8h.html" target="_top" xlink:title="CommonUtils/ShmAllocator.h">
<polygon fill="none" stroke="#000000" points="1036,-129 1036,-148 1196,-148 1196,-129 1036,-129"/>
<text text-anchor="middle" x="1116" y="-136" font-family="Helvetica,sans-Serif" font-size="10.00" fill="#000000">CommonUtils/ShmAllocator.h</text>
</a>
</g>
</g>
<!-- Node2&#45;&gt;Node23 -->
<g id="edge27" class="edge">
<title>Node2&#45;&gt;Node23</title>
<path fill="none" stroke="#191970" d="M1591.3786,-194.1782C1502.2936,-186.5206 1344.4816,-171.9131 1210,-154 1200.286,-152.7061 1190.0332,-151.1808 1180.0113,-149.6006"/>
<polygon fill="#191970" stroke="#191970" points="1180.5234,-146.1381 1170.095,-148.0086 1179.4138,-153.0496 1180.5234,-146.1381"/>
</g>
<!-- Node24 -->
<g id="node25" class="node">
<title>Node24</title>
<polygon fill="none" stroke="#bfbfbf" points="1144,-67.5 1144,-86.5 1196,-86.5 1196,-67.5 1144,-67.5"/>
<text text-anchor="middle" x="1170" y="-74.5" font-family="Helvetica,sans-Serif" font-size="10.00" fill="#000000">cassert</text>
</g>
<!-- Node2&#45;&gt;Node24 -->
<g id="edge32" class="edge">
<title>Node2&#45;&gt;Node24</title>
<path fill="none" stroke="#191970" d="M1591.0802,-197.9986C1488.1987,-194.1232 1303.3608,-183.2208 1244,-154 1229.7454,-146.983 1201.4101,-114.8499 1184.2366,-94.3751"/>
<polygon fill="#191970" stroke="#191970" points="1186.9212,-92.1294 1177.8398,-86.6723 1181.536,-96.6015 1186.9212,-92.1294"/>
</g>
<!-- Node25 -->
<g id="node26" class="node">
<title>Node25</title>
<polygon fill="none" stroke="#bfbfbf" points="1494,-129 1494,-148 1560,-148 1560,-129 1494,-129"/>
<text text-anchor="middle" x="1527" y="-136" font-family="Helvetica,sans-Serif" font-size="10.00" fill="#000000">sys/shm.h</text>
</g>
<!-- Node2&#45;&gt;Node25 -->
<g id="edge30" class="edge">
<title>Node2&#45;&gt;Node25</title>
<path fill="none" stroke="#191970" d="M1640.9063,-190.3906C1618.4173,-180.1457 1582.6082,-163.8326 1557.1476,-152.2339"/>
<polygon fill="#191970" stroke="#191970" points="1558.4968,-149.0025 1547.9456,-148.0419 1555.5948,-155.3727 1558.4968,-149.0025"/>
</g>
<!-- Node26 -->
<g id="node27" class="node">
<title>Node26</title>
<polygon fill="none" stroke="#bfbfbf" points="1578,-129 1578,-148 1634,-148 1634,-129 1578,-129"/>
<text text-anchor="middle" x="1606" y="-136" font-family="Helvetica,sans-Serif" font-size="10.00" fill="#000000">unistd.h</text>
</g>
<!-- Node2&#45;&gt;Node26 -->
<g id="edge31" class="edge">
<title>Node2&#45;&gt;Node26</title>
<path fill="none" stroke="#191970" d="M1653.25,-190.3906C1644.8338,-181.1478 1631.9203,-166.966 1621.719,-155.7628"/>
<polygon fill="#191970" stroke="#191970" points="1624.194,-153.2824 1614.8734,-148.2449 1619.0182,-157.9953 1624.194,-153.2824"/>
</g>
<!-- Node8&#45;&gt;Node3 -->
<g id="edge11" class="edge">
<title>Node8&#45;&gt;Node3</title>
<path fill="none" stroke="#191970" d="M1803.5313,-128.8906C1787.5479,-118.9616 1762.3897,-103.333 1743.8567,-91.8201"/>
<polygon fill="#191970" stroke="#191970" points="1745.7015,-88.8457 1735.3601,-86.5419 1742.0076,-94.7918 1745.7015,-88.8457"/>
</g>
<!-- Node8&#45;&gt;Node4 -->
<g id="edge13" class="edge">
<title>Node8&#45;&gt;Node4</title>
<path fill="none" stroke="#191970" d="M1845.0938,-128.8906C1873.4036,-118.4652 1918.7768,-101.7559 1950.3592,-90.1252"/>
<polygon fill="#191970" stroke="#191970" points="1951.9151,-93.2821 1960.0895,-86.5419 1949.496,-86.7133 1951.9151,-93.2821"/>
</g>
<!-- Node8&#45;&gt;Node9 -->
<g id="edge10" class="edge">
<title>Node8&#45;&gt;Node9</title>
<path fill="none" stroke="#191970" d="M1816.5037,-128.7438C1813.2409,-113.4889 1809.6054,-83.9811 1825,-67 1884.4869,-1.3825 1935.9912,-55.8567 2021,-31 2023.308,-30.3251 2025.668,-29.5588 2028.026,-28.7369"/>
<polygon fill="#191970" stroke="#191970" points="2029.4496,-31.9407 2037.571,-25.1367 2026.9792,-25.3911 2029.4496,-31.9407"/>
</g>
<!-- Node10 -->
<g id="node11" class="node">
<title>Node10</title>
<polygon fill="none" stroke="#bfbfbf" points="1833.5,-67.5 1833.5,-86.5 1926.5,-86.5 1926.5,-67.5 1833.5,-67.5"/>
<text text-anchor="middle" x="1880" y="-74.5" font-family="Helvetica,sans-Serif" font-size="10.00" fill="#000000">unordered_map</text>
</g>
<!-- Node8&#45;&gt;Node10 -->
<g id="edge12" class="edge">
<title>Node8&#45;&gt;Node10</title>
<path fill="none" stroke="#191970" d="M1828.5313,-128.8906C1837.7879,-119.5581 1852.039,-105.1902 1863.2003,-93.9374"/>
<polygon fill="#191970" stroke="#191970" points="1865.7772,-96.3095 1870.3344,-86.7449 1860.8072,-91.38 1865.7772,-96.3095"/>
</g>
<!-- Node11 -->
<g id="node12" class="node">
<title>Node11</title>
<polygon fill="none" stroke="#bfbfbf" points="1728.5,-6 1728.5,-25 1777.5,-25 1777.5,-6 1728.5,-6"/>
<text text-anchor="middle" x="1753" y="-13" font-family="Helvetica,sans-Serif" font-size="10.00" fill="#000000">iosfwd</text>
</g>
<!-- Node8&#45;&gt;Node11 -->
<g id="edge14" class="edge">
<title>Node8&#45;&gt;Node11</title>
<path fill="none" stroke="#191970" d="M1813.6044,-128.6421C1807.9454,-118.2875 1798.8062,-101.5215 1791,-87 1781.3738,-69.0928 1770.496,-48.5988 1762.8531,-34.156"/>
<polygon fill="#191970" stroke="#191970" points="1765.9021,-32.4346 1758.1338,-25.2301 1759.7138,-35.7064 1765.9021,-32.4346"/>
</g>
<!-- Node18 -->
<g id="node19" class="node">
<title>Node18</title>
<polygon fill="none" stroke="#bfbfbf" points="1796,-6 1796,-25 1828,-25 1828,-6 1796,-6"/>
<text text-anchor="middle" x="1812" y="-13" font-family="Helvetica,sans-Serif" font-size="10.00" fill="#000000">list</text>
</g>
<!-- Node17&#45;&gt;Node18 -->
<g id="edge22" class="edge">
<title>Node17&#45;&gt;Node18</title>
<path fill="none" stroke="#191970" d="M1660.7086,-67.4444C1697.6133,-60.0966 1746.277,-48.2476 1787,-31 1787.7054,-30.7013 1788.4139,-30.3843 1789.1228,-30.0523"/>
<polygon fill="#191970" stroke="#191970" points="1791.0244,-33.0022 1798.1326,-25.1458 1787.6765,-26.8546 1791.0244,-33.0022"/>
</g>
<!-- Node19 -->
<g id="node20" class="node">
<title>Node19</title>
<polygon fill="none" stroke="#bfbfbf" points="1436.5,-6 1436.5,-25 1489.5,-25 1489.5,-6 1436.5,-6"/>
<text text-anchor="middle" x="1463" y="-13" font-family="Helvetica,sans-Serif" font-size="10.00" fill="#000000">cstddef</text>
</g>
<!-- Node17&#45;&gt;Node19 -->
<g id="edge23" class="edge">
<title>Node17&#45;&gt;Node19</title>
<path fill="none" stroke="#191970" d="M1581.9688,-67.3906C1558.3769,-57.1005 1520.7499,-40.6888 1494.1367,-29.0809"/>
<polygon fill="#191970" stroke="#191970" points="1495.4419,-25.8318 1484.8765,-25.0419 1492.6433,-32.248 1495.4419,-25.8318"/>
</g>
<!-- Node20 -->
<g id="node21" class="node">
<title>Node20</title>
<polygon fill="none" stroke="#bfbfbf" points="1660,-6 1660,-25 1710,-25 1710,-6 1660,-6"/>
<text text-anchor="middle" x="1685" y="-13" font-family="Helvetica,sans-Serif" font-size="10.00" fill="#000000">atomic</text>
</g>
<!-- Node17&#45;&gt;Node20 -->
<g id="edge24" class="edge">
<title>Node17&#45;&gt;Node20</title>
<path fill="none" stroke="#191970" d="M1616.6563,-67.3906C1629.3768,-57.7324 1649.2004,-42.6812 1664.2284,-31.271"/>
<polygon fill="#191970" stroke="#191970" points="1666.5846,-33.8766 1672.4326,-25.0419 1662.3516,-28.3015 1666.5846,-33.8766"/>
</g>
<!-- Node21 -->
<g id="node22" class="node">
<title>Node21</title>
<polygon fill="none" stroke="#bfbfbf" points="1846.5,-.5 1846.5,-30.5 2011.5,-30.5 2011.5,-.5 1846.5,-.5"/>
<text text-anchor="start" x="1854.5" y="-18.5" font-family="Helvetica,sans-Serif" font-size="10.00" fill="#000000">boost/interprocess</text>
<text text-anchor="middle" x="1929" y="-7.5" font-family="Helvetica,sans-Serif" font-size="10.00" fill="#000000">/managed_external_buffer.hpp</text>
</g>
<!-- Node17&#45;&gt;Node21 -->
<g id="edge25" class="edge">
<title>Node17&#45;&gt;Node21</title>
<path fill="none" stroke="#191970" d="M1654.4247,-67.4581C1703.7236,-58.1292 1779.8551,-43.7228 1839.4594,-32.4438"/>
<polygon fill="#191970" stroke="#191970" points="1840.4548,-35.8177 1849.6297,-30.5193 1839.1532,-28.9397 1840.4548,-35.8177"/>
</g>
<!-- Node22 -->
<g id="node23" class="node">
<title>Node22</title>
<polygon fill="none" stroke="#bfbfbf" points="1508,-.5 1508,-30.5 1642,-30.5 1642,-.5 1508,-.5"/>
<text text-anchor="start" x="1516" y="-18.5" font-family="Helvetica,sans-Serif" font-size="10.00" fill="#000000">boost/interprocess</text>
<text text-anchor="middle" x="1575" y="-7.5" font-family="Helvetica,sans-Serif" font-size="10.00" fill="#000000">/allocators/allocator.hpp</text>
</g>
<!-- Node17&#45;&gt;Node22 -->
<g id="edge26" class="edge">
<title>Node17&#45;&gt;Node22</title>
<path fill="none" stroke="#191970" d="M1599.4688,-67.3906C1595.98,-59.9922 1590.9991,-49.4291 1586.4408,-39.7623"/>
<polygon fill="#191970" stroke="#191970" points="1589.525,-38.0967 1582.0942,-30.5446 1583.1936,-41.0822 1589.525,-38.0967"/>
</g>
<!-- Node23&#45;&gt;Node17 -->
<g id="edge28" class="edge">
<title>Node23&#45;&gt;Node17</title>
<path fill="none" stroke="#191970" d="M1191.4474,-128.9918C1279.7681,-117.8612 1425.7071,-99.4693 1518.2449,-87.8073"/>
<polygon fill="#191970" stroke="#191970" points="1518.937,-91.2478 1528.4209,-86.5248 1518.0617,-84.3027 1518.937,-91.2478"/>
</g>
<!-- Node23&#45;&gt;Node24 -->
<g id="edge29" class="edge">
<title>Node23&#45;&gt;Node24</title>
<path fill="none" stroke="#191970" d="M1124.4375,-128.8906C1132.5531,-119.6478 1145.0055,-105.466 1154.8424,-94.2628"/>
<polygon fill="#191970" stroke="#191970" points="1157.4755,-96.5686 1161.4435,-86.7449 1152.2154,-91.95 1157.4755,-96.5686"/>
</g>
<!-- Node28 -->
<g id="node29" class="node">
<title>Node28</title>
<g id="a_node29"><a xlink:href="../../dc/d73/Cartesian_8h.html" target="_top" xlink:title="MathUtils/Cartesian.h">
<polygon fill="none" stroke="#000000" points="753,-67.5 753,-86.5 875,-86.5 875,-67.5 753,-67.5"/>
<text text-anchor="middle" x="814" y="-74.5" font-family="Helvetica,sans-Serif" font-size="10.00" fill="#000000">MathUtils/Cartesian.h</text>
</a>
</g>
</g>
<!-- Node27&#45;&gt;Node28 -->
<g id="edge34" class="edge">
<title>Node27&#45;&gt;Node28</title>
<path fill="none" stroke="#191970" d="M814,-123.2977C814,-115.3834 814,-105.6043 814,-97.0759"/>
<polygon fill="#191970" stroke="#191970" points="817.5001,-96.8469 814,-86.8469 810.5001,-96.847 817.5001,-96.8469"/>
</g>
<!-- Node28&#45;&gt;Node9 -->
<g id="edge42" class="edge">
<title>Node28&#45;&gt;Node9</title>
<path fill="none" stroke="#191970" d="M875.1533,-74.9573C1116.7166,-66.8524 1992.7358,-37.1039 2021,-31 2023.8728,-30.3796 2026.8064,-29.5567 2029.7067,-28.6126"/>
<polygon fill="#191970" stroke="#191970" points="2031.1426,-31.8131 2039.3018,-25.0546 2028.7088,-25.2498 2031.1426,-31.8131"/>
</g>
<!-- Node28&#45;&gt;Node11 -->
<g id="edge44" class="edge">
<title>Node28&#45;&gt;Node11</title>
<path fill="none" stroke="#191970" d="M875.1335,-75.2229C1065.1493,-69.514 1637.613,-50.8529 1719,-31 1721.3398,-30.4293 1723.716,-29.6981 1726.0688,-28.865"/>
<polygon fill="#191970" stroke="#191970" points="1727.5311,-32.0483 1735.4562,-25.0166 1724.8759,-25.5714 1727.5311,-32.0483"/>
</g>
<!-- Node29 -->
<g id="node30" class="node">
<title>Node29</title>
<polygon fill="none" stroke="#bfbfbf" points="868,-.5 868,-30.5 1032,-30.5 1032,-.5 868,-.5"/>
<text text-anchor="start" x="876" y="-18.5" font-family="Helvetica,sans-Serif" font-size="10.00" fill="#000000">Math/GenVector/Displacement</text>
<text text-anchor="middle" x="950" y="-7.5" font-family="Helvetica,sans-Serif" font-size="10.00" fill="#000000">Vector3D.h</text>
</g>
<!-- Node28&#45;&gt;Node29 -->
<g id="edge35" class="edge">
<title>Node28&#45;&gt;Node29</title>
<path fill="none" stroke="#191970" d="M835.25,-67.3906C854.5081,-58.682 883.4622,-45.5888 907.4671,-34.7336"/>
<polygon fill="#191970" stroke="#191970" points="909.0611,-37.8541 916.7307,-30.5446 906.1768,-31.4759 909.0611,-37.8541"/>
</g>
<!-- Node30 -->
<g id="node31" class="node">
<title>Node30</title>
<polygon fill="none" stroke="#bfbfbf" points="1050.5,-6 1050.5,-25 1239.5,-25 1239.5,-6 1050.5,-6"/>
<text text-anchor="middle" x="1145" y="-13" font-family="Helvetica,sans-Serif" font-size="10.00" fill="#000000">Math/GenVector/PositionVector3D.h</text>
</g>
<!-- Node28&#45;&gt;Node30 -->
<g id="edge36" class="edge">
<title>Node28&#45;&gt;Node30</title>
<path fill="none" stroke="#191970" d="M865.3556,-67.4581C924.2689,-56.512 1020.8065,-38.5752 1083.6299,-26.9026"/>
<polygon fill="#191970" stroke="#191970" points="1084.6039,-30.2816 1093.7963,-25.0137 1083.3252,-23.3994 1084.6039,-30.2816"/>
</g>
<!-- Node31 -->
<g id="node32" class="node">
<title>Node31</title>
<polygon fill="none" stroke="#bfbfbf" points="1258,-6 1258,-25 1418,-25 1418,-6 1258,-6"/>
<text text-anchor="middle" x="1338" y="-13" font-family="Helvetica,sans-Serif" font-size="10.00" fill="#000000">Math/GenVector/Rotation3D.h</text>
</g>
<!-- Node28&#45;&gt;Node31 -->
<g id="edge37" class="edge">
<title>Node28&#45;&gt;Node31</title>
<path fill="none" stroke="#191970" d="M875.0336,-71.847C959.3332,-64.4335 1116.0653,-49.5832 1249,-31 1258.0115,-29.7403 1267.5095,-28.2554 1276.8106,-26.7123"/>
<polygon fill="#191970" stroke="#191970" points="1277.5179,-30.1424 1286.7937,-25.0227 1276.3498,-23.2405 1277.5179,-30.1424"/>
</g>
<!-- Node32 -->
<g id="node33" class="node">
<title>Node32</title>
<polygon fill="none" stroke="#bfbfbf" points="0,-6 0,-25 168,-25 168,-6 0,-6"/>
<text text-anchor="middle" x="84" y="-13" font-family="Helvetica,sans-Serif" font-size="10.00" fill="#000000">Math/GenVector/Transform3D.h</text>
</g>
<!-- Node28&#45;&gt;Node32 -->
<g id="edge38" class="edge">
<title>Node28&#45;&gt;Node32</title>
<path fill="none" stroke="#191970" d="M752.7727,-74.4765C639.0347,-69.3676 387.5646,-56.0947 177,-31 167.0041,-29.8087 156.4436,-28.2952 146.1668,-26.6832"/>
<polygon fill="#191970" stroke="#191970" points="146.4455,-23.183 136.0158,-25.0465 145.3312,-30.0937 146.4455,-23.183"/>
</g>
<!-- Node33 -->
<g id="node34" class="node">
<title>Node33</title>
<polygon fill="none" stroke="#bfbfbf" points="186.5,-6 186.5,-25 359.5,-25 359.5,-6 186.5,-6"/>
<text text-anchor="middle" x="273" y="-13" font-family="Helvetica,sans-Serif" font-size="10.00" fill="#000000">Math/GenVector/Translation3D.h</text>
</g>
<!-- Node28&#45;&gt;Node33 -->
<g id="edge39" class="edge">
<title>Node28&#45;&gt;Node33</title>
<path fill="none" stroke="#191970" d="M752.6862,-71.7774C666.7502,-64.2039 505.6708,-49.0822 369,-31 359.1463,-29.6963 348.7474,-28.1724 338.5752,-26.5987"/>
<polygon fill="#191970" stroke="#191970" points="338.9297,-23.1114 328.5072,-25.0145 337.8416,-30.0264 338.9297,-23.1114"/>
</g>
<!-- Node34 -->
<g id="node35" class="node">
<title>Node34</title>
<polygon fill="none" stroke="#bfbfbf" points="378,-.5 378,-30.5 542,-30.5 542,-.5 378,-.5"/>
<text text-anchor="start" x="386" y="-18.5" font-family="Helvetica,sans-Serif" font-size="10.00" fill="#000000">Math/GenVector/Displacement</text>
<text text-anchor="middle" x="460" y="-7.5" font-family="Helvetica,sans-Serif" font-size="10.00" fill="#000000">Vector2D.h</text>
</g>
<!-- Node28&#45;&gt;Node34 -->
<g id="edge40" class="edge">
<title>Node28&#45;&gt;Node34</title>
<path fill="none" stroke="#191970" d="M759.0759,-67.4581C703.8445,-57.8628 617.693,-42.8958 552.0132,-31.4853"/>
<polygon fill="#191970" stroke="#191970" points="552.5186,-28.0208 542.0671,-29.7574 551.3204,-34.9175 552.5186,-28.0208"/>
</g>
<!-- Node35 -->
<g id="node36" class="node">
<title>Node35</title>
<polygon fill="none" stroke="#bfbfbf" points="560.5,-6 560.5,-25 749.5,-25 749.5,-6 560.5,-6"/>
<text text-anchor="middle" x="655" y="-13" font-family="Helvetica,sans-Serif" font-size="10.00" fill="#000000">Math/GenVector/PositionVector2D.h</text>
</g>
<!-- Node28&#45;&gt;Node35 -->
<g id="edge41" class="edge">
<title>Node28&#45;&gt;Node35</title>
<path fill="none" stroke="#191970" d="M789.1563,-67.3906C762.3193,-57.0103 719.3767,-40.4004 689.3247,-28.7766"/>
<polygon fill="#191970" stroke="#191970" points="690.2586,-25.3851 679.6693,-25.0419 687.7333,-31.9138 690.2586,-25.3851"/>
</g>
<!-- Node36 -->
<g id="node37" class="node">
<title>Node36</title>
<polygon fill="none" stroke="#bfbfbf" points="768,-6 768,-25 850,-25 850,-6 768,-6"/>
<text text-anchor="middle" x="809" y="-13" font-family="Helvetica,sans-Serif" font-size="10.00" fill="#000000">TGeoMatrix.h</text>
</g>
<!-- Node28&#45;&gt;Node36 -->
<g id="edge43" class="edge">
<title>Node28&#45;&gt;Node36</title>
<path fill="none" stroke="#191970" d="M813.2188,-67.3906C812.5257,-58.8657 811.491,-46.1392 810.6198,-35.4235"/>
<polygon fill="#191970" stroke="#191970" points="814.0912,-34.9283 809.7923,-25.2449 807.1142,-35.4956 814.0912,-34.9283"/>
</g>
<!-- Node37&#45;&gt;Node23 -->
<g id="edge48" class="edge">
<title>Node37&#45;&gt;Node23</title>
<path fill="none" stroke="#191970" d="M1104.1875,-190.3906C1106.1486,-181.776 1109.0863,-168.8708 1111.5415,-158.0858"/>
<polygon fill="#191970" stroke="#191970" points="1114.9746,-158.7723 1113.7817,-148.2449 1108.1493,-157.2185 1114.9746,-158.7723"/>
</g>
<!-- Node37&#45;&gt;Node27 -->
<g id="edge47" class="edge">
<title>Node37&#45;&gt;Node27</title>
<path fill="none" stroke="#191970" d="M1056.9003,-190.4258C1015.3325,-181.5945 951.6455,-168.0468 887.4836,-154.3155"/>
<polygon fill="#191970" stroke="#191970" points="888.1127,-150.871 877.6016,-152.2 886.6473,-157.7159 888.1127,-150.871"/>
</g>
<!-- Node38 -->
<g id="node39" class="node">
<title>Node38</title>
<polygon fill="none" stroke="#bfbfbf" points="960.5,-129 960.5,-148 1017.5,-148 1017.5,-129 960.5,-129"/>
<text text-anchor="middle" x="989" y="-136" font-family="Helvetica,sans-Serif" font-size="10.00" fill="#000000">ostream</text>
</g>
<!-- Node37&#45;&gt;Node38 -->
<g id="edge46" class="edge">
<title>Node37&#45;&gt;Node38</title>
<path fill="none" stroke="#191970" d="M1084.3438,-190.3906C1065.8514,-180.3262 1036.599,-164.4057 1015.3692,-152.8514"/>
<polygon fill="#191970" stroke="#191970" points="1016.9888,-149.7481 1006.5323,-148.0419 1013.6425,-155.8965 1016.9888,-149.7481"/>
</g>
<!-- Node39&#45;&gt;Node1 -->
<g id="edge52" class="edge">
<title>Node39&#45;&gt;Node1</title>
<path fill="none" stroke="#191970" d="M972.923,-246.263C961.8478,-237.8842 946.8541,-224.8263 938,-210 928.5541,-194.1827 923.7285,-173.6437 921.3111,-158.6399"/>
<polygon fill="#191970" stroke="#191970" points="924.7339,-157.8405 919.8953,-148.4151 917.8,-158.8007 924.7339,-157.8405"/>
</g>
<!-- Node39&#45;&gt;Node37 -->
<g id="edge50" class="edge">
<title>Node39&#45;&gt;Node37</title>
<path fill="none" stroke="#191970" d="M1006.7692,-246.3733C1025.1469,-237.4241 1052.7312,-223.9917 1073.4893,-213.8835"/>
<polygon fill="#191970" stroke="#191970" points="1075.0304,-217.026 1082.4888,-209.5011 1071.9657,-210.7325 1075.0304,-217.026"/>
</g>
<!-- Node40 -->
<g id="node41" class="node">
<title>Node40</title>
<polygon fill="none" stroke="#bfbfbf" points="947.5,-190.5 947.5,-209.5 1026.5,-209.5 1026.5,-190.5 947.5,-190.5"/>
<text text-anchor="middle" x="987" y="-197.5" font-family="Helvetica,sans-Serif" font-size="10.00" fill="#000000">TVirtualMC.h</text>
</g>
<!-- Node39&#45;&gt;Node40 -->
<g id="edge51" class="edge">
<title>Node39&#45;&gt;Node40</title>
<path fill="none" stroke="#191970" d="M987,-246.2455C987,-238.9382 987,-228.6944 987,-219.7046"/>
<polygon fill="#191970" stroke="#191970" points="990.5001,-219.6426 987,-209.6427 983.5001,-219.6427 990.5001,-219.6426"/>
</g>
</g>
</svg>
