<?xml version="1.0" encoding="UTF-8" standalone="no"?>
<!DOCTYPE svg PUBLIC "-//W3C//DTD SVG 1.1//EN"
 "http://www.w3.org/Graphics/SVG/1.1/DTD/svg11.dtd">
<!-- Generated by graphviz version 2.40.1 (20161225.0304)
 -->
<!-- Title: /home/travis/build/AliceO2Group/AliceO2/Detectors/Base/include/DetectorsBase/MatLayerCylSet.h Pages: 1 -->
<svg width="3007pt" height="408pt"
 viewBox="0.00 0.00 3007.00 408.00" xmlns="http://www.w3.org/2000/svg" xmlns:xlink="http://www.w3.org/1999/xlink">
<g id="graph0" class="graph" transform="scale(1 1) rotate(0) translate(4 404)">
<title>/home/travis/build/AliceO2Group/AliceO2/Detectors/Base/include/DetectorsBase/MatLayerCylSet.h</title>
<!-- Node0 -->
<g id="node1" class="node">
<title>Node0</title>
<polygon fill="#bfbfbf" stroke="#000000" points="553,-347.5 553,-399.5 732,-399.5 732,-347.5 553,-347.5"/>
<text text-anchor="start" x="561" y="-387.5" font-family="Helvetica,sans-Serif" font-size="10.00" fill="#000000">/home/travis/build</text>
<text text-anchor="start" x="561" y="-376.5" font-family="Helvetica,sans-Serif" font-size="10.00" fill="#000000">/AliceO2Group/AliceO2</text>
<text text-anchor="start" x="561" y="-365.5" font-family="Helvetica,sans-Serif" font-size="10.00" fill="#000000">/Detectors/Base/include</text>
<text text-anchor="middle" x="642.5" y="-354.5" font-family="Helvetica,sans-Serif" font-size="10.00" fill="#000000">/DetectorsBase/MatLayerCylSet.h</text>
</g>
<!-- Node1 -->
<g id="node2" class="node">
<title>Node1</title>
<g id="a_node2"><a xlink:href="../../df/d21/GPUCommonDef_8h.html" target="_top" xlink:title="GPUCommonDef.h">
<polygon fill="none" stroke="#000000" points="557,-56.5 557,-75.5 664,-75.5 664,-56.5 557,-56.5"/>
<text text-anchor="middle" x="610.5" y="-63.5" font-family="Helvetica,sans-Serif" font-size="10.00" fill="#000000">GPUCommonDef.h</text>
</a>
</g>
</g>
<!-- Node0&#45;&gt;Node1 -->
<g id="edge1" class="edge">
<title>Node0&#45;&gt;Node1</title>
<path fill="none" stroke="#191970" d="M615.2008,-347.357C584.5415,-315.7134 537.0364,-259.1446 521.5,-199 511.6463,-160.8542 514.7039,-143.3998 538.5,-112 548.7891,-98.4231 564.3366,-87.7702 578.3539,-80.1501"/>
<polygon fill="#191970" stroke="#191970" points="579.9696,-83.255 587.2737,-75.5803 576.7778,-77.025 579.9696,-83.255"/>
</g>
<!-- Node4 -->
<g id="node5" class="node">
<title>Node4</title>
<g id="a_node5"><a xlink:href="../../da/df3/MatLayerCyl_8h.html" target="_top" xlink:title="Declarations for single cylindrical material layer class. ">
<polygon fill="none" stroke="#000000" points="562,-235.5 562,-254.5 723,-254.5 723,-235.5 562,-235.5"/>
<text text-anchor="middle" x="642.5" y="-242.5" font-family="Helvetica,sans-Serif" font-size="10.00" fill="#000000">DetectorsBase/MatLayerCyl.h</text>
</a>
</g>
</g>
<!-- Node0&#45;&gt;Node4 -->
<g id="edge4" class="edge">
<title>Node0&#45;&gt;Node4</title>
<path fill="none" stroke="#191970" d="M642.5,-347.4961C642.5,-323.0156 642.5,-286.8881 642.5,-264.7068"/>
<polygon fill="#191970" stroke="#191970" points="646.0001,-264.5141 642.5,-254.5142 639.0001,-264.5142 646.0001,-264.5141"/>
</g>
<!-- Node7 -->
<g id="node8" class="node">
<title>Node7</title>
<g id="a_node8"><a xlink:href="../../db/dff/FlatObject_8h.html" target="_top" xlink:title="Definition of FlatObject class. ">
<polygon fill="none" stroke="#000000" points="332,-174 332,-193 407,-193 407,-174 332,-174"/>
<text text-anchor="middle" x="369.5" y="-181" font-family="Helvetica,sans-Serif" font-size="10.00" fill="#000000">FlatObject.h</text>
</a>
</g>
</g>
<!-- Node0&#45;&gt;Node7 -->
<g id="edge55" class="edge">
<title>Node0&#45;&gt;Node7</title>
<path fill="none" stroke="#191970" d="M552.763,-356.0779C501.3188,-344.5463 443.1595,-328.3853 423.5,-311 391.2128,-282.4478 377.6635,-231.3477 372.4427,-203.2896"/>
<polygon fill="#191970" stroke="#191970" points="375.843,-202.4041 370.7318,-193.1236 368.9401,-203.5658 375.843,-202.4041"/>
</g>
<!-- Node19 -->
<g id="node20" class="node">
<title>Node19</title>
<g id="a_node20"><a xlink:href="../../d4/d1b/Ray_8h.html" target="_top" xlink:title="DetectorsBase/Ray.h">
<polygon fill="none" stroke="#000000" points="801,-291.5 801,-310.5 918,-310.5 918,-291.5 801,-291.5"/>
<text text-anchor="middle" x="859.5" y="-298.5" font-family="Helvetica,sans-Serif" font-size="10.00" fill="#000000">DetectorsBase/Ray.h</text>
</a>
</g>
</g>
<!-- Node0&#45;&gt;Node19 -->
<g id="edge27" class="edge">
<title>Node0&#45;&gt;Node19</title>
<path fill="none" stroke="#191970" d="M720.5354,-347.4283C754.7321,-336.0031 793.3225,-323.11 821.1436,-313.8149"/>
<polygon fill="#191970" stroke="#191970" points="822.5027,-317.0511 830.8782,-310.5626 820.2844,-310.4119 822.5027,-317.0511"/>
</g>
<!-- Node28 -->
<g id="node29" class="node">
<title>Node28</title>
<g id="a_node29"><a xlink:href="../../dc/d73/Cartesian_8h.html" target="_top" xlink:title="MathUtils/Cartesian.h">
<polygon fill="none" stroke="#000000" points="1955.5,-235.5 1955.5,-254.5 2077.5,-254.5 2077.5,-235.5 1955.5,-235.5"/>
<text text-anchor="middle" x="2016.5" y="-242.5" font-family="Helvetica,sans-Serif" font-size="10.00" fill="#000000">MathUtils/Cartesian.h</text>
</a>
</g>
</g>
<!-- Node0&#45;&gt;Node28 -->
<g id="edge56" class="edge">
<title>Node0&#45;&gt;Node28</title>
<path fill="none" stroke="#191970" d="M732.122,-365.1183C987.3735,-341.2465 1714.6095,-273.2336 1945.3415,-251.6549"/>
<polygon fill="#191970" stroke="#191970" points="1945.6689,-255.1397 1955.2995,-250.7236 1945.017,-248.1701 1945.6689,-255.1397"/>
</g>
<!-- Node2 -->
<g id="node3" class="node">
<title>Node2</title>
<g id="a_node3"><a xlink:href="../../d5/d93/GPUCommonDefSettings_8h.html" target="_top" xlink:title="GPUCommonDefSettings.h">
<polygon fill="none" stroke="#000000" points="459.5,-.5 459.5,-19.5 607.5,-19.5 607.5,-.5 459.5,-.5"/>
<text text-anchor="middle" x="533.5" y="-7.5" font-family="Helvetica,sans-Serif" font-size="10.00" fill="#000000">GPUCommonDefSettings.h</text>
</a>
</g>
</g>
<!-- Node1&#45;&gt;Node2 -->
<g id="edge2" class="edge">
<title>Node1&#45;&gt;Node2</title>
<path fill="none" stroke="#191970" d="M597.0876,-56.2455C585.4943,-47.814 568.5252,-35.4729 555.0322,-25.6598"/>
<polygon fill="#191970" stroke="#191970" points="556.9047,-22.6938 546.7587,-19.6427 552.7874,-28.355 556.9047,-22.6938"/>
</g>
<!-- Node3 -->
<g id="node4" class="node">
<title>Node3</title>
<g id="a_node4"><a xlink:href="../../da/d5a/GPUCommonDefAPI_8h.html" target="_top" xlink:title="GPUCommonDefAPI.h">
<polygon fill="none" stroke="#000000" points="625.5,-.5 625.5,-19.5 749.5,-19.5 749.5,-.5 625.5,-.5"/>
<text text-anchor="middle" x="687.5" y="-7.5" font-family="Helvetica,sans-Serif" font-size="10.00" fill="#000000">GPUCommonDefAPI.h</text>
</a>
</g>
</g>
<!-- Node1&#45;&gt;Node3 -->
<g id="edge3" class="edge">
<title>Node1&#45;&gt;Node3</title>
<path fill="none" stroke="#191970" d="M623.9124,-56.2455C635.5057,-47.814 652.4748,-35.4729 665.9678,-25.6598"/>
<polygon fill="#191970" stroke="#191970" points="668.2126,-28.355 674.2413,-19.6427 664.0953,-22.6938 668.2126,-28.355"/>
</g>
<!-- Node4&#45;&gt;Node1 -->
<g id="edge7" class="edge">
<title>Node4&#45;&gt;Node1</title>
<path fill="none" stroke="#191970" d="M587.712,-235.4948C566.8013,-228.9086 545.0035,-217.7814 532.5,-199 505.2461,-158.0619 557.2867,-107.3809 588.8429,-82.0275"/>
<polygon fill="#191970" stroke="#191970" points="591.3823,-84.4858 597.1173,-75.5773 587.0787,-78.965 591.3823,-84.4858"/>
</g>
<!-- Node5 -->
<g id="node6" class="node">
<title>Node5</title>
<polygon fill="none" stroke="#bfbfbf" points="837,-56.5 837,-75.5 884,-75.5 884,-56.5 837,-56.5"/>
<text text-anchor="middle" x="860.5" y="-63.5" font-family="Helvetica,sans-Serif" font-size="10.00" fill="#000000">cmath</text>
</g>
<!-- Node4&#45;&gt;Node5 -->
<g id="edge5" class="edge">
<title>Node4&#45;&gt;Node5</title>
<path fill="none" stroke="#191970" d="M656.8737,-235.1853C667.5705,-226.9414 681.3409,-214.1035 687.5,-199 702.1006,-163.1959 663.9318,-142.6538 687.5,-112 704.371,-90.0568 781.5203,-76.3794 826.8966,-70.0887"/>
<polygon fill="#191970" stroke="#191970" points="827.4312,-73.5484 836.8785,-68.7527 826.5025,-66.6103 827.4312,-73.5484"/>
</g>
<!-- Node6 -->
<g id="node7" class="node">
<title>Node6</title>
<polygon fill="none" stroke="#bfbfbf" points="397.5,-112.5 397.5,-131.5 447.5,-131.5 447.5,-112.5 397.5,-112.5"/>
<text text-anchor="middle" x="422.5" y="-119.5" font-family="Helvetica,sans-Serif" font-size="10.00" fill="#000000">cstring</text>
</g>
<!-- Node4&#45;&gt;Node6 -->
<g id="edge6" class="edge">
<title>Node4&#45;&gt;Node6</title>
<path fill="none" stroke="#191970" d="M594.0351,-235.464C565.1372,-228.3469 528.5443,-216.7398 499.5,-199 473.8081,-183.3078 450.2851,-157.344 436.1737,-139.9592"/>
<polygon fill="#191970" stroke="#191970" points="438.6351,-137.4287 429.6907,-131.7499 433.1416,-141.767 438.6351,-137.4287"/>
</g>
<!-- Node4&#45;&gt;Node7 -->
<g id="edge8" class="edge">
<title>Node4&#45;&gt;Node7</title>
<path fill="none" stroke="#191970" d="M600.1433,-235.4581C550.5798,-224.2927 468.7291,-205.8538 417.0366,-194.2088"/>
<polygon fill="#191970" stroke="#191970" points="417.6434,-190.7578 407.1186,-191.9745 416.105,-197.5867 417.6434,-190.7578"/>
</g>
<!-- Node11 -->
<g id="node12" class="node">
<title>Node11</title>
<g id="a_node12"><a xlink:href="../../d2/d45/GPUCommonRtypes_8h.html" target="_top" xlink:title="GPUCommonRtypes.h">
<polygon fill="none" stroke="#000000" points="697,-112.5 697,-131.5 822,-131.5 822,-112.5 697,-112.5"/>
<text text-anchor="middle" x="759.5" y="-119.5" font-family="Helvetica,sans-Serif" font-size="10.00" fill="#000000">GPUCommonRtypes.h</text>
</a>
</g>
</g>
<!-- Node4&#45;&gt;Node11 -->
<g id="edge19" class="edge">
<title>Node4&#45;&gt;Node11</title>
<path fill="none" stroke="#191970" d="M666.759,-235.3954C683.8157,-227.652 706.2303,-215.3589 721.5,-199 737.0203,-182.3726 747.5387,-158.213 753.5044,-141.4061"/>
<polygon fill="#191970" stroke="#191970" points="756.9388,-142.17 756.774,-131.5764 750.2966,-139.9605 756.9388,-142.17"/>
</g>
<!-- Node16 -->
<g id="node17" class="node">
<title>Node16</title>
<g id="a_node17"><a xlink:href="../../d6/da2/GPUCommonMath_8h.html" target="_top" xlink:title="GPUCommonMath.h">
<polygon fill="none" stroke="#000000" points="879,-112.5 879,-131.5 994,-131.5 994,-112.5 879,-112.5"/>
<text text-anchor="middle" x="936.5" y="-119.5" font-family="Helvetica,sans-Serif" font-size="10.00" fill="#000000">GPUCommonMath.h</text>
</a>
</g>
</g>
<!-- Node4&#45;&gt;Node16 -->
<g id="edge20" class="edge">
<title>Node4&#45;&gt;Node16</title>
<path fill="none" stroke="#191970" d="M665.5697,-235.3484C717.6303,-213.5679 844.3469,-160.5538 904.1894,-135.5177"/>
<polygon fill="#191970" stroke="#191970" points="905.6631,-138.6952 913.5375,-131.6068 902.9614,-132.2375 905.6631,-138.6952"/>
</g>
<!-- Node18 -->
<g id="node19" class="node">
<title>Node18</title>
<g id="a_node19"><a xlink:href="../../db/dba/MatCell_8h.html" target="_top" xlink:title="Declarations for material properties of the cell (voxel) ">
<polygon fill="none" stroke="#000000" points="542,-174 542,-193 679,-193 679,-174 542,-174"/>
<text text-anchor="middle" x="610.5" y="-181" font-family="Helvetica,sans-Serif" font-size="10.00" fill="#000000">DetectorsBase/MatCell.h</text>
</a>
</g>
</g>
<!-- Node4&#45;&gt;Node18 -->
<g id="edge24" class="edge">
<title>Node4&#45;&gt;Node18</title>
<path fill="none" stroke="#191970" d="M637.5,-235.3906C632.9242,-226.5965 626.0219,-213.3312 620.3417,-202.4145"/>
<polygon fill="#191970" stroke="#191970" points="623.2912,-200.5003 615.5705,-193.2449 617.0815,-203.7314 623.2912,-200.5003"/>
</g>
<!-- Node7&#45;&gt;Node1 -->
<g id="edge13" class="edge">
<title>Node7&#45;&gt;Node1</title>
<path fill="none" stroke="#191970" d="M369.0894,-173.5683C369.0278,-158.0729 371.3324,-128.2416 388.5,-112 410.9549,-90.7562 489.4264,-78.2642 546.7232,-71.7818"/>
<polygon fill="#191970" stroke="#191970" points="547.2384,-75.2464 556.798,-70.6786 546.4764,-68.288 547.2384,-75.2464"/>
</g>
<!-- Node7&#45;&gt;Node6 -->
<g id="edge11" class="edge">
<title>Node7&#45;&gt;Node6</title>
<path fill="none" stroke="#191970" d="M377.7813,-173.8906C385.6693,-164.7376 397.7314,-150.7409 407.3412,-139.59"/>
<polygon fill="#191970" stroke="#191970" points="410.2251,-141.6049 414.102,-131.7449 404.9225,-137.0352 410.2251,-141.6049"/>
</g>
<!-- Node8 -->
<g id="node9" class="node">
<title>Node8</title>
<polygon fill="none" stroke="#bfbfbf" points="288,-112.5 288,-131.5 341,-131.5 341,-112.5 288,-112.5"/>
<text text-anchor="middle" x="314.5" y="-119.5" font-family="Helvetica,sans-Serif" font-size="10.00" fill="#000000">cstddef</text>
</g>
<!-- Node7&#45;&gt;Node8 -->
<g id="edge9" class="edge">
<title>Node7&#45;&gt;Node8</title>
<path fill="none" stroke="#191970" d="M360.9063,-173.8906C352.6403,-164.6478 339.9574,-150.466 329.9383,-139.2628"/>
<polygon fill="#191970" stroke="#191970" points="332.49,-136.8657 323.2149,-131.7449 327.2722,-141.5321 332.49,-136.8657"/>
</g>
<!-- Node9 -->
<g id="node10" class="node">
<title>Node9</title>
<polygon fill="none" stroke="#bfbfbf" points="141.5,-112.5 141.5,-131.5 199.5,-131.5 199.5,-112.5 141.5,-112.5"/>
<text text-anchor="middle" x="170.5" y="-119.5" font-family="Helvetica,sans-Serif" font-size="10.00" fill="#000000">memory</text>
</g>
<!-- Node7&#45;&gt;Node9 -->
<g id="edge10" class="edge">
<title>Node7&#45;&gt;Node9</title>
<path fill="none" stroke="#191970" d="M338.4063,-173.8906C303.5859,-163.1296 247.1025,-145.6736 209.3883,-134.0182"/>
<polygon fill="#191970" stroke="#191970" points="210.3438,-130.6503 199.7562,-131.0415 208.2769,-137.3382 210.3438,-130.6503"/>
</g>
<!-- Node10 -->
<g id="node11" class="node">
<title>Node10</title>
<polygon fill="none" stroke="#bfbfbf" points="217.5,-112.5 217.5,-131.5 269.5,-131.5 269.5,-112.5 217.5,-112.5"/>
<text text-anchor="middle" x="243.5" y="-119.5" font-family="Helvetica,sans-Serif" font-size="10.00" fill="#000000">cassert</text>
</g>
<!-- Node7&#45;&gt;Node10 -->
<g id="edge12" class="edge">
<title>Node7&#45;&gt;Node10</title>
<path fill="none" stroke="#191970" d="M349.8125,-173.8906C329.0078,-163.7359 295.989,-147.6196 272.2681,-136.0416"/>
<polygon fill="#191970" stroke="#191970" points="273.5712,-132.783 263.0493,-131.5419 270.5007,-139.0736 273.5712,-132.783"/>
</g>
<!-- Node7&#45;&gt;Node11 -->
<g id="edge14" class="edge">
<title>Node7&#45;&gt;Node11</title>
<path fill="none" stroke="#191970" d="M407.2492,-177.5472C472.3029,-167.2888 606.4944,-146.1278 689.1784,-133.0892"/>
<polygon fill="#191970" stroke="#191970" points="689.9141,-136.5165 699.2469,-131.5015 688.8237,-129.6019 689.9141,-136.5165"/>
</g>
<!-- Node13 -->
<g id="node14" class="node">
<title>Node13</title>
<g id="a_node14"><a xlink:href="../../df/d5b/GPUCommonLogger_8h.html" target="_top" xlink:title="GPUCommonLogger.h">
<polygon fill="none" stroke="#000000" points="0,-112.5 0,-131.5 123,-131.5 123,-112.5 0,-112.5"/>
<text text-anchor="middle" x="61.5" y="-119.5" font-family="Helvetica,sans-Serif" font-size="10.00" fill="#000000">GPUCommonLogger.h</text>
</a>
</g>
</g>
<!-- Node7&#45;&gt;Node13 -->
<g id="edge16" class="edge">
<title>Node7&#45;&gt;Node13</title>
<path fill="none" stroke="#191970" d="M331.7332,-175.9589C278.6281,-165.3551 181.4363,-145.9483 119.2315,-133.5276"/>
<polygon fill="#191970" stroke="#191970" points="119.6734,-130.0468 109.1816,-131.5208 118.3027,-136.9113 119.6734,-130.0468"/>
</g>
<!-- Node12 -->
<g id="node13" class="node">
<title>Node12</title>
<polygon fill="none" stroke="#bfbfbf" points="902,-56.5 902,-75.5 961,-75.5 961,-56.5 902,-56.5"/>
<text text-anchor="middle" x="931.5" y="-63.5" font-family="Helvetica,sans-Serif" font-size="10.00" fill="#000000">Rtypes.h</text>
</g>
<!-- Node11&#45;&gt;Node12 -->
<g id="edge15" class="edge">
<title>Node11&#45;&gt;Node12</title>
<path fill="none" stroke="#191970" d="M789.0679,-112.3733C817.6688,-103.0613 861.1788,-88.8953 892.5819,-78.671"/>
<polygon fill="#191970" stroke="#191970" points="893.8928,-81.9251 902.318,-75.5011 891.7257,-75.269 893.8928,-81.9251"/>
</g>
<!-- Node14 -->
<g id="node15" class="node">
<title>Node14</title>
<polygon fill="none" stroke="#bfbfbf" points="67.5,-56.5 67.5,-75.5 127.5,-75.5 127.5,-56.5 67.5,-56.5"/>
<text text-anchor="middle" x="97.5" y="-63.5" font-family="Helvetica,sans-Serif" font-size="10.00" fill="#000000">iostream</text>
</g>
<!-- Node13&#45;&gt;Node14 -->
<g id="edge17" class="edge">
<title>Node13&#45;&gt;Node14</title>
<path fill="none" stroke="#191970" d="M67.7707,-112.2455C72.7264,-104.5367 79.783,-93.5598 85.7776,-84.2348"/>
<polygon fill="#191970" stroke="#191970" points="88.8376,-85.9471 91.3011,-75.6427 82.9494,-82.1618 88.8376,-85.9471"/>
</g>
<!-- Node15 -->
<g id="node16" class="node">
<title>Node15</title>
<polygon fill="none" stroke="#bfbfbf" points="3.5,-56.5 3.5,-75.5 49.5,-75.5 49.5,-56.5 3.5,-56.5"/>
<text text-anchor="middle" x="26.5" y="-63.5" font-family="Helvetica,sans-Serif" font-size="10.00" fill="#000000">cstdio</text>
</g>
<!-- Node13&#45;&gt;Node15 -->
<g id="edge18" class="edge">
<title>Node13&#45;&gt;Node15</title>
<path fill="none" stroke="#191970" d="M55.4035,-112.2455C50.5855,-104.5367 43.7249,-93.5598 37.8968,-84.2348"/>
<polygon fill="#191970" stroke="#191970" points="40.7947,-82.2677 32.5267,-75.6427 34.8587,-85.9777 40.7947,-82.2677"/>
</g>
<!-- Node16&#45;&gt;Node1 -->
<g id="edge21" class="edge">
<title>Node16&#45;&gt;Node1</title>
<path fill="none" stroke="#191970" d="M880.829,-112.4369C823.4973,-102.5885 734.2758,-87.2621 674.1735,-76.9378"/>
<polygon fill="#191970" stroke="#191970" points="674.4949,-73.4418 664.0466,-75.1982 673.3097,-80.3407 674.4949,-73.4418"/>
</g>
<!-- Node16&#45;&gt;Node5 -->
<g id="edge22" class="edge">
<title>Node16&#45;&gt;Node5</title>
<path fill="none" stroke="#191970" d="M923.2618,-112.2455C911.819,-103.814 895.0704,-91.4729 881.7525,-81.6598"/>
<polygon fill="#191970" stroke="#191970" points="883.7133,-78.757 873.5865,-75.6427 879.5609,-84.3924 883.7133,-78.757"/>
</g>
<!-- Node17 -->
<g id="node18" class="node">
<title>Node17</title>
<polygon fill="none" stroke="#bfbfbf" points="979.5,-56.5 979.5,-75.5 1043.5,-75.5 1043.5,-56.5 979.5,-56.5"/>
<text text-anchor="middle" x="1011.5" y="-63.5" font-family="Helvetica,sans-Serif" font-size="10.00" fill="#000000">algorithm</text>
</g>
<!-- Node16&#45;&gt;Node17 -->
<g id="edge23" class="edge">
<title>Node16&#45;&gt;Node17</title>
<path fill="none" stroke="#191970" d="M949.564,-112.2455C960.8562,-103.814 977.3845,-91.4729 990.5271,-81.6598"/>
<polygon fill="#191970" stroke="#191970" points="992.6669,-84.4301 998.5857,-75.6427 988.4789,-78.8211 992.6669,-84.4301"/>
</g>
<!-- Node18&#45;&gt;Node1 -->
<g id="edge25" class="edge">
<title>Node18&#45;&gt;Node1</title>
<path fill="none" stroke="#191970" d="M610.5,-173.8845C610.5,-154.6913 610.5,-111.286 610.5,-85.7663"/>
<polygon fill="#191970" stroke="#191970" points="614.0001,-85.7483 610.5,-75.7484 607.0001,-85.7484 614.0001,-85.7483"/>
</g>
<!-- Node18&#45;&gt;Node11 -->
<g id="edge26" class="edge">
<title>Node18&#45;&gt;Node11</title>
<path fill="none" stroke="#191970" d="M633.7813,-173.8906C658.821,-163.5554 698.8225,-147.0447 726.966,-135.4284"/>
<polygon fill="#191970" stroke="#191970" points="728.474,-138.5925 736.3822,-131.5419 725.8033,-132.122 728.474,-138.5925"/>
</g>
<!-- Node19&#45;&gt;Node1 -->
<g id="edge29" class="edge">
<title>Node19&#45;&gt;Node1</title>
<path fill="none" stroke="#191970" d="M861.4367,-291.1386C866.9139,-260.0828 879.1338,-163.3269 830.5,-112 809.4225,-89.7553 731.3911,-77.4906 674.2288,-71.3334"/>
<polygon fill="#191970" stroke="#191970" points="674.483,-67.8411 664.175,-70.2896 673.76,-74.8036 674.483,-67.8411"/>
</g>
<!-- Node19&#45;&gt;Node4 -->
<g id="edge31" class="edge">
<title>Node19&#45;&gt;Node4</title>
<path fill="none" stroke="#191970" d="M822.1964,-291.3733C785.3315,-281.8598 728.834,-267.2797 689.0494,-257.0127"/>
<polygon fill="#191970" stroke="#191970" points="689.8742,-253.611 679.3169,-254.5011 688.125,-260.3889 689.8742,-253.611"/>
</g>
<!-- Node19&#45;&gt;Node11 -->
<g id="edge28" class="edge">
<title>Node19&#45;&gt;Node11</title>
<path fill="none" stroke="#191970" d="M854.1236,-291.3762C838.1846,-262.8455 790.9887,-178.3648 769.8924,-140.6024"/>
<polygon fill="#191970" stroke="#191970" points="772.8357,-138.6944 764.903,-131.6714 766.7247,-142.1085 772.8357,-138.6944"/>
</g>
<!-- Node19&#45;&gt;Node16 -->
<g id="edge30" class="edge">
<title>Node19&#45;&gt;Node16</title>
<path fill="none" stroke="#191970" d="M863.6399,-291.3762C875.8606,-262.9669 911.9448,-179.0828 928.2894,-141.0871"/>
<polygon fill="#191970" stroke="#191970" points="931.6032,-142.2406 932.3397,-131.6714 925.1729,-139.4745 931.6032,-142.2406"/>
</g>
<!-- Node20 -->
<g id="node21" class="node">
<title>Node20</title>
<g id="a_node21"><a xlink:href="../../d9/d52/Common_2MathUtils_2include_2MathUtils_2Utils_8h.html" target="_top" xlink:title="MathUtils/Utils.h">
<polygon fill="none" stroke="#000000" points="1031.5,-235.5 1031.5,-254.5 1129.5,-254.5 1129.5,-235.5 1031.5,-235.5"/>
<text text-anchor="middle" x="1080.5" y="-242.5" font-family="Helvetica,sans-Serif" font-size="10.00" fill="#000000">MathUtils/Utils.h</text>
</a>
</g>
</g>
<!-- Node19&#45;&gt;Node20 -->
<g id="edge32" class="edge">
<title>Node19&#45;&gt;Node20</title>
<path fill="none" stroke="#191970" d="M897.2401,-291.4369C934.7448,-281.9335 992.3799,-267.3291 1032.9824,-257.0407"/>
<polygon fill="#191970" stroke="#191970" points="1034.0816,-260.3728 1042.9155,-254.5237 1032.3621,-253.5873 1034.0816,-260.3728"/>
</g>
<!-- Node19&#45;&gt;Node28 -->
<g id="edge44" class="edge">
<title>Node19&#45;&gt;Node28</title>
<path fill="none" stroke="#191970" d="M918.067,-298.1653C1112.0746,-288.7751 1733.4053,-258.7021 1945.0824,-248.4567"/>
<polygon fill="#191970" stroke="#191970" points="1945.3301,-251.9489 1955.1491,-247.9694 1944.9916,-244.9571 1945.3301,-251.9489"/>
</g>
<!-- Node21 -->
<g id="node22" class="node">
<title>Node21</title>
<g id="a_node22"><a xlink:href="../../de/def/bitOps_8h.html" target="_top" xlink:title="MathUtils/detail/bitOps.h">
<polygon fill="none" stroke="#000000" points="926,-174 926,-193 1063,-193 1063,-174 926,-174"/>
<text text-anchor="middle" x="994.5" y="-181" font-family="Helvetica,sans-Serif" font-size="10.00" fill="#000000">MathUtils/detail/bitOps.h</text>
</a>
</g>
</g>
<!-- Node20&#45;&gt;Node21 -->
<g id="edge33" class="edge">
<title>Node20&#45;&gt;Node21</title>
<path fill="none" stroke="#191970" d="M1067.0625,-235.3906C1053.4305,-225.6421 1032.1154,-210.3994 1016.1078,-198.9521"/>
<polygon fill="#191970" stroke="#191970" points="1018.0132,-196.0118 1007.8431,-193.0419 1013.9414,-201.7057 1018.0132,-196.0118"/>
</g>
<!-- Node23 -->
<g id="node24" class="node">
<title>Node23</title>
<g id="a_node24"><a xlink:href="../../d3/dfc/StatAccumulator_8h.html" target="_top" xlink:title="MathUtils/detail/StatAccumulator.h">
<polygon fill="none" stroke="#000000" points="1271.5,-174 1271.5,-193 1457.5,-193 1457.5,-174 1271.5,-174"/>
<text text-anchor="middle" x="1364.5" y="-181" font-family="Helvetica,sans-Serif" font-size="10.00" fill="#000000">MathUtils/detail/StatAccumulator.h</text>
</a>
</g>
</g>
<!-- Node20&#45;&gt;Node23 -->
<g id="edge35" class="edge">
<title>Node20&#45;&gt;Node23</title>
<path fill="none" stroke="#191970" d="M1124.5634,-235.4581C1174.6213,-224.6181 1256.3382,-206.9224 1310.2682,-195.2439"/>
<polygon fill="#191970" stroke="#191970" points="1311.3005,-198.6015 1320.3332,-193.0643 1309.819,-191.7601 1311.3005,-198.6015"/>
</g>
<!-- Node25 -->
<g id="node26" class="node">
<title>Node25</title>
<g id="a_node26"><a xlink:href="../../dd/d7d/trigonometric_8h.html" target="_top" xlink:title="MathUtils/detail/trigonometric.h">
<polygon fill="none" stroke="#000000" points="1081.5,-174 1081.5,-193 1253.5,-193 1253.5,-174 1081.5,-174"/>
<text text-anchor="middle" x="1167.5" y="-181" font-family="Helvetica,sans-Serif" font-size="10.00" fill="#000000">MathUtils/detail/trigonometric.h</text>
</a>
</g>
</g>
<!-- Node20&#45;&gt;Node25 -->
<g id="edge37" class="edge">
<title>Node20&#45;&gt;Node25</title>
<path fill="none" stroke="#191970" d="M1094.0938,-235.3906C1107.8843,-225.6421 1129.4472,-210.3994 1145.641,-198.9521"/>
<polygon fill="#191970" stroke="#191970" points="1147.8563,-201.6723 1154.0017,-193.0419 1143.8156,-195.9563 1147.8563,-201.6723"/>
</g>
<!-- Node22 -->
<g id="node23" class="node">
<title>Node22</title>
<polygon fill="none" stroke="#bfbfbf" points="1012.5,-112.5 1012.5,-131.5 1062.5,-131.5 1062.5,-112.5 1012.5,-112.5"/>
<text text-anchor="middle" x="1037.5" y="-119.5" font-family="Helvetica,sans-Serif" font-size="10.00" fill="#000000">cstdint</text>
</g>
<!-- Node21&#45;&gt;Node22 -->
<g id="edge34" class="edge">
<title>Node21&#45;&gt;Node22</title>
<path fill="none" stroke="#191970" d="M1001.2188,-173.8906C1007.493,-164.917 1017.0223,-151.2879 1024.7404,-140.2491"/>
<polygon fill="#191970" stroke="#191970" points="1027.8247,-141.9459 1030.6865,-131.7449 1022.0879,-137.9348 1027.8247,-141.9459"/>
</g>
<!-- Node24 -->
<g id="node25" class="node">
<title>Node24</title>
<polygon fill="none" stroke="#bfbfbf" points="1429,-112.5 1429,-131.5 1470,-131.5 1470,-112.5 1429,-112.5"/>
<text text-anchor="middle" x="1449.5" y="-119.5" font-family="Helvetica,sans-Serif" font-size="10.00" fill="#000000">tuple</text>
</g>
<!-- Node23&#45;&gt;Node24 -->
<g id="edge36" class="edge">
<title>Node23&#45;&gt;Node24</title>
<path fill="none" stroke="#191970" d="M1377.7813,-173.8906C1391.2548,-164.1421 1412.322,-148.8994 1428.1435,-137.4521"/>
<polygon fill="#191970" stroke="#191970" points="1430.2619,-140.2394 1436.312,-131.5419 1426.1586,-134.5682 1430.2619,-140.2394"/>
</g>
<!-- Node25&#45;&gt;Node1 -->
<g id="edge41" class="edge">
<title>Node25&#45;&gt;Node1</title>
<path fill="none" stroke="#191970" d="M1156.3169,-173.9576C1135.267,-156.2063 1090.1983,-119.2482 1071.5,-112 1000.6651,-84.5415 783.3474,-72.5592 674.3015,-68.1646"/>
<polygon fill="#191970" stroke="#191970" points="674.2253,-64.6589 664.0953,-67.7627 673.9498,-71.6535 674.2253,-64.6589"/>
</g>
<!-- Node25&#45;&gt;Node5 -->
<g id="edge39" class="edge">
<title>Node25&#45;&gt;Node5</title>
<path fill="none" stroke="#191970" d="M1161.9731,-173.7479C1152.4547,-157.9414 1131.3753,-126.9889 1104.5,-112 1024.174,-67.2007 988.4909,-95.7873 894.1303,-75.8042"/>
<polygon fill="#191970" stroke="#191970" points="894.721,-72.3497 884.1965,-73.5686 893.184,-79.1789 894.721,-72.3497"/>
</g>
<!-- Node25&#45;&gt;Node16 -->
<g id="edge42" class="edge">
<title>Node25&#45;&gt;Node16</title>
<path fill="none" stroke="#191970" d="M1131.6597,-173.9581C1091.4515,-163.2533 1026.1309,-145.8628 982.2631,-134.1837"/>
<polygon fill="#191970" stroke="#191970" points="982.9882,-130.7549 972.4244,-131.5643 981.1873,-137.5193 982.9882,-130.7549"/>
</g>
<!-- Node25&#45;&gt;Node24 -->
<g id="edge40" class="edge">
<title>Node25&#45;&gt;Node24</title>
<path fill="none" stroke="#191970" d="M1224.0012,-173.9603C1273.1657,-165.206 1346.4446,-151.07 1419.1541,-131.8359"/>
<polygon fill="#191970" stroke="#191970" points="1420.1879,-135.1824 1428.9419,-129.2144 1418.3769,-128.4208 1420.1879,-135.1824"/>
</g>
<!-- Node26 -->
<g id="node27" class="node">
<title>Node26</title>
<polygon fill="none" stroke="#bfbfbf" points="1156.5,-112.5 1156.5,-131.5 1198.5,-131.5 1198.5,-112.5 1156.5,-112.5"/>
<text text-anchor="middle" x="1177.5" y="-119.5" font-family="Helvetica,sans-Serif" font-size="10.00" fill="#000000">array</text>
</g>
<!-- Node25&#45;&gt;Node26 -->
<g id="edge38" class="edge">
<title>Node25&#45;&gt;Node26</title>
<path fill="none" stroke="#191970" d="M1169.0625,-173.8906C1170.4487,-165.3657 1172.518,-152.6392 1174.2604,-141.9235"/>
<polygon fill="#191970" stroke="#191970" points="1177.7651,-142.177 1175.9155,-131.7449 1170.8558,-141.0535 1177.7651,-142.177"/>
</g>
<!-- Node27 -->
<g id="node28" class="node">
<title>Node27</title>
<g id="a_node28"><a xlink:href="../../d6/d84/MathConstants_8h.html" target="_top" xlink:title="useful math constants ">
<polygon fill="none" stroke="#000000" points="1216.5,-112.5 1216.5,-131.5 1410.5,-131.5 1410.5,-112.5 1216.5,-112.5"/>
<text text-anchor="middle" x="1313.5" y="-119.5" font-family="Helvetica,sans-Serif" font-size="10.00" fill="#000000">CommonConstants/MathConstants.h</text>
</a>
</g>
</g>
<!-- Node25&#45;&gt;Node27 -->
<g id="edge43" class="edge">
<title>Node25&#45;&gt;Node27</title>
<path fill="none" stroke="#191970" d="M1190.3125,-173.8906C1214.8481,-163.5554 1254.0442,-147.0447 1281.6211,-135.4284"/>
<polygon fill="#191970" stroke="#191970" points="1282.9906,-138.6495 1290.8477,-131.5419 1280.2732,-132.1984 1282.9906,-138.6495"/>
</g>
<!-- Node28&#45;&gt;Node12 -->
<g id="edge52" class="edge">
<title>Node28&#45;&gt;Node12</title>
<path fill="none" stroke="#191970" d="M2021.6001,-235.3002C2029.3085,-219.1437 2041.3389,-186.6577 2024.5,-168 1861.3579,12.7643 1722.0871,-133.0366 1479.5,-112 1256.8703,-92.6941 1196.1316,-111.7371 971.3295,-75.8399"/>
<polygon fill="#191970" stroke="#191970" points="971.6241,-72.3422 961.1938,-74.2022 970.5075,-79.2525 971.6241,-72.3422"/>
</g>
<!-- Node29 -->
<g id="node30" class="node">
<title>Node29</title>
<polygon fill="none" stroke="#bfbfbf" points="2071.5,-168.5 2071.5,-198.5 2235.5,-198.5 2235.5,-168.5 2071.5,-168.5"/>
<text text-anchor="start" x="2079.5" y="-186.5" font-family="Helvetica,sans-Serif" font-size="10.00" fill="#000000">Math/GenVector/Displacement</text>
<text text-anchor="middle" x="2153.5" y="-175.5" font-family="Helvetica,sans-Serif" font-size="10.00" fill="#000000">Vector3D.h</text>
</g>
<!-- Node28&#45;&gt;Node29 -->
<g id="edge45" class="edge">
<title>Node28&#45;&gt;Node29</title>
<path fill="none" stroke="#191970" d="M2037.9063,-235.3906C2057.3059,-226.682 2086.4729,-213.5888 2110.6543,-202.7336"/>
<polygon fill="#191970" stroke="#191970" points="2112.2965,-205.833 2119.986,-198.5446 2109.4297,-199.447 2112.2965,-205.833"/>
</g>
<!-- Node30 -->
<g id="node31" class="node">
<title>Node30</title>
<polygon fill="none" stroke="#bfbfbf" points="2254,-174 2254,-193 2443,-193 2443,-174 2254,-174"/>
<text text-anchor="middle" x="2348.5" y="-181" font-family="Helvetica,sans-Serif" font-size="10.00" fill="#000000">Math/GenVector/PositionVector3D.h</text>
</g>
<!-- Node28&#45;&gt;Node30 -->
<g id="edge46" class="edge">
<title>Node28&#45;&gt;Node30</title>
<path fill="none" stroke="#191970" d="M2068.0107,-235.4581C2127.102,-224.512 2223.9313,-206.5752 2286.9445,-194.9026"/>
<polygon fill="#191970" stroke="#191970" points="2287.9464,-198.2766 2297.1416,-193.0137 2286.6713,-191.3937 2287.9464,-198.2766"/>
</g>
<!-- Node31 -->
<g id="node32" class="node">
<title>Node31</title>
<polygon fill="none" stroke="#bfbfbf" points="2461.5,-174 2461.5,-193 2621.5,-193 2621.5,-174 2461.5,-174"/>
<text text-anchor="middle" x="2541.5" y="-181" font-family="Helvetica,sans-Serif" font-size="10.00" fill="#000000">Math/GenVector/Rotation3D.h</text>
</g>
<!-- Node28&#45;&gt;Node31 -->
<g id="edge47" class="edge">
<title>Node28&#45;&gt;Node31</title>
<path fill="none" stroke="#191970" d="M2077.6743,-239.8546C2162.168,-232.4498 2319.2608,-217.6095 2452.5,-199 2461.5117,-197.7413 2471.0097,-196.2571 2480.3109,-194.7142"/>
<polygon fill="#191970" stroke="#191970" points="2481.0182,-198.1444 2490.294,-193.0248 2479.8501,-191.2425 2481.0182,-198.1444"/>
</g>
<!-- Node32 -->
<g id="node33" class="node">
<title>Node32</title>
<polygon fill="none" stroke="#bfbfbf" points="2639.5,-174 2639.5,-193 2807.5,-193 2807.5,-174 2639.5,-174"/>
<text text-anchor="middle" x="2723.5" y="-181" font-family="Helvetica,sans-Serif" font-size="10.00" fill="#000000">Math/GenVector/Transform3D.h</text>
</g>
<!-- Node28&#45;&gt;Node32 -->
<g id="edge48" class="edge">
<title>Node28&#45;&gt;Node32</title>
<path fill="none" stroke="#191970" d="M2077.6817,-242.2508C2188.3109,-236.8718 2428.8574,-223.3065 2630.5,-199 2640.4943,-197.7953 2651.0539,-196.2748 2661.3305,-194.6599"/>
<polygon fill="#191970" stroke="#191970" points="2662.1666,-198.0703 2671.4812,-193.0216 2661.0513,-191.1597 2662.1666,-198.0703"/>
</g>
<!-- Node33 -->
<g id="node34" class="node">
<title>Node33</title>
<polygon fill="none" stroke="#bfbfbf" points="2826,-174 2826,-193 2999,-193 2999,-174 2826,-174"/>
<text text-anchor="middle" x="2912.5" y="-181" font-family="Helvetica,sans-Serif" font-size="10.00" fill="#000000">Math/GenVector/Translation3D.h</text>
</g>
<!-- Node28&#45;&gt;Node33 -->
<g id="edge49" class="edge">
<title>Node28&#45;&gt;Node33</title>
<path fill="none" stroke="#191970" d="M2077.6469,-243.6236C2211.7814,-240.1355 2541.8089,-228.9929 2816.5,-199 2827.2934,-197.8215 2838.7225,-196.2569 2849.7867,-194.5745"/>
<polygon fill="#191970" stroke="#191970" points="2850.4782,-198.009 2859.8164,-193.0041 2849.3953,-191.0933 2850.4782,-198.009"/>
</g>
<!-- Node34 -->
<g id="node35" class="node">
<title>Node34</title>
<polygon fill="none" stroke="#bfbfbf" points="1475.5,-168.5 1475.5,-198.5 1639.5,-198.5 1639.5,-168.5 1475.5,-168.5"/>
<text text-anchor="start" x="1483.5" y="-186.5" font-family="Helvetica,sans-Serif" font-size="10.00" fill="#000000">Math/GenVector/Displacement</text>
<text text-anchor="middle" x="1557.5" y="-175.5" font-family="Helvetica,sans-Serif" font-size="10.00" fill="#000000">Vector2D.h</text>
</g>
<!-- Node28&#45;&gt;Node34 -->
<g id="edge50" class="edge">
<title>Node28&#45;&gt;Node34</title>
<path fill="none" stroke="#191970" d="M1955.3524,-238.1356C1884.4844,-230.0005 1763.9389,-215.6106 1649.7026,-198.9899"/>
<polygon fill="#191970" stroke="#191970" points="1650.133,-195.5157 1639.7316,-197.531 1649.1195,-202.4419 1650.133,-195.5157"/>
</g>
<!-- Node35 -->
<g id="node36" class="node">
<title>Node35</title>
<polygon fill="none" stroke="#bfbfbf" points="1658,-174 1658,-193 1847,-193 1847,-174 1658,-174"/>
<text text-anchor="middle" x="1752.5" y="-181" font-family="Helvetica,sans-Serif" font-size="10.00" fill="#000000">Math/GenVector/PositionVector2D.h</text>
</g>
<!-- Node28&#45;&gt;Node35 -->
<g id="edge51" class="edge">
<title>Node28&#45;&gt;Node35</title>
<path fill="none" stroke="#191970" d="M1975.5397,-235.4581C1929.2005,-224.6632 1853.676,-207.0694 1803.5394,-195.3899"/>
<polygon fill="#191970" stroke="#191970" points="1804.0898,-191.9244 1793.5564,-193.0643 1802.5016,-198.7419 1804.0898,-191.9244"/>
</g>
<!-- Node36 -->
<g id="node37" class="node">
<title>Node36</title>
<polygon fill="none" stroke="#bfbfbf" points="1865.5,-174 1865.5,-193 1947.5,-193 1947.5,-174 1865.5,-174"/>
<text text-anchor="middle" x="1906.5" y="-181" font-family="Helvetica,sans-Serif" font-size="10.00" fill="#000000">TGeoMatrix.h</text>
</g>
<!-- Node28&#45;&gt;Node36 -->
<g id="edge53" class="edge">
<title>Node28&#45;&gt;Node36</title>
<path fill="none" stroke="#191970" d="M1999.3125,-235.3906C1981.3918,-225.3713 1953.0905,-209.5483 1932.4477,-198.0071"/>
<polygon fill="#191970" stroke="#191970" points="1934.0033,-194.867 1923.5668,-193.0419 1930.5872,-200.9769 1934.0033,-194.867"/>
</g>
<!-- Node37 -->
<g id="node38" class="node">
<title>Node37</title>
<polygon fill="none" stroke="#bfbfbf" points="1966,-174 1966,-193 2015,-193 2015,-174 1966,-174"/>
<text text-anchor="middle" x="1990.5" y="-181" font-family="Helvetica,sans-Serif" font-size="10.00" fill="#000000">iosfwd</text>
</g>
<!-- Node28&#45;&gt;Node37 -->
<g id="edge54" class="edge">
<title>Node28&#45;&gt;Node37</title>
<path fill="none" stroke="#191970" d="M2012.4375,-235.3906C2008.7576,-226.6862 2003.2258,-213.6015 1998.638,-202.7494"/>
<polygon fill="#191970" stroke="#191970" points="2001.7375,-201.0927 1994.6198,-193.2449 1995.29,-203.8185 2001.7375,-201.0927"/>
</g>
</g>
</svg>
