<?xml version="1.0" encoding="UTF-8" standalone="no"?>
<!DOCTYPE svg PUBLIC "-//W3C//DTD SVG 1.1//EN"
 "http://www.w3.org/Graphics/SVG/1.1/DTD/svg11.dtd">
<!-- Generated by graphviz version 2.40.1 (20161225.0304)
 -->
<!-- Title: /home/travis/build/AliceO2Group/AliceO2/Detectors/EMCAL/base/src/ClusterFactory.cxx Pages: 1 -->
<svg width="3015pt" height="374pt"
 viewBox="0.00 0.00 3015.00 374.00" xmlns="http://www.w3.org/2000/svg" xmlns:xlink="http://www.w3.org/1999/xlink">
<g id="graph0" class="graph" transform="scale(1 1) rotate(0) translate(4 370)">
<title>/home/travis/build/AliceO2Group/AliceO2/Detectors/EMCAL/base/src/ClusterFactory.cxx</title>
<!-- Node0 -->
<g id="node1" class="node">
<title>Node0</title>
<polygon fill="#bfbfbf" stroke="#000000" points="1258.5,-313.5 1258.5,-365.5 1387.5,-365.5 1387.5,-313.5 1258.5,-313.5"/>
<text text-anchor="start" x="1266.5" y="-353.5" font-family="Helvetica,sans-Serif" font-size="10.00" fill="#000000">/home/travis/build</text>
<text text-anchor="start" x="1266.5" y="-342.5" font-family="Helvetica,sans-Serif" font-size="10.00" fill="#000000">/AliceO2Group/AliceO2</text>
<text text-anchor="start" x="1266.5" y="-331.5" font-family="Helvetica,sans-Serif" font-size="10.00" fill="#000000">/Detectors/EMCAL/base</text>
<text text-anchor="middle" x="1323" y="-320.5" font-family="Helvetica,sans-Serif" font-size="10.00" fill="#000000">/src/ClusterFactory.cxx</text>
</g>
<!-- Node1 -->
<g id="node2" class="node">
<title>Node1</title>
<polygon fill="none" stroke="#bfbfbf" points="1329,-129 1329,-148 1371,-148 1371,-129 1329,-129"/>
<text text-anchor="middle" x="1350" y="-136" font-family="Helvetica,sans-Serif" font-size="10.00" fill="#000000">array</text>
</g>
<!-- Node0&#45;&gt;Node1 -->
<g id="edge1" class="edge">
<title>Node0&#45;&gt;Node1</title>
<path fill="none" stroke="#191970" d="M1326.5298,-313.2228C1331.9987,-272.5098 1342.3998,-195.0796 1347.3081,-158.5399"/>
<polygon fill="#191970" stroke="#191970" points="1350.8329,-158.5886 1348.6955,-148.2116 1343.8952,-157.6566 1350.8329,-158.5886"/>
</g>
<!-- Node2 -->
<g id="node3" class="node">
<title>Node2</title>
<polygon fill="none" stroke="#bfbfbf" points="1492.5,-129 1492.5,-148 1549.5,-148 1549.5,-129 1492.5,-129"/>
<text text-anchor="middle" x="1521" y="-136" font-family="Helvetica,sans-Serif" font-size="10.00" fill="#000000">gsl/span</text>
</g>
<!-- Node0&#45;&gt;Node2 -->
<g id="edge2" class="edge">
<title>Node0&#45;&gt;Node2</title>
<path fill="none" stroke="#191970" d="M1387.6008,-332.9137C1428.6015,-325.5558 1480.1263,-309.9784 1514,-277 1542.4278,-249.3235 1538.8926,-229.3724 1534,-190 1532.6615,-179.2289 1529.8057,-167.4756 1527.1108,-157.9202"/>
<polygon fill="#191970" stroke="#191970" points="1530.4351,-156.8199 1524.2259,-148.2352 1523.7264,-158.8183 1530.4351,-156.8199"/>
</g>
<!-- Node3 -->
<g id="node4" class="node">
<title>Node3</title>
<polygon fill="none" stroke="#bfbfbf" points="1221.5,-.5 1221.5,-19.5 1280.5,-19.5 1280.5,-.5 1221.5,-.5"/>
<text text-anchor="middle" x="1251" y="-7.5" font-family="Helvetica,sans-Serif" font-size="10.00" fill="#000000">Rtypes.h</text>
</g>
<!-- Node0&#45;&gt;Node3 -->
<g id="edge3" class="edge">
<title>Node0&#45;&gt;Node3</title>
<path fill="none" stroke="#191970" d="M1258.4829,-338.3959C1024.3297,-333.5472 233,-309.4697 233,-205.5 233,-205.5 233,-205.5 233,-138.5 233,-38.0755 1022.8621,-14.8661 1211.0869,-10.761"/>
<polygon fill="#191970" stroke="#191970" points="1211.4349,-14.2545 1221.3584,-10.5431 1211.2864,-7.2561 1211.4349,-14.2545"/>
</g>
<!-- Node4 -->
<g id="node5" class="node">
<title>Node4</title>
<g id="a_node5"><a xlink:href="../../dc/d27/DataFormats_2Detectors_2EMCAL_2include_2DataFormatsEMCAL_2Cluster_8h.html" target="_top" xlink:title="DataFormatsEMCAL/Cluster.h">
<polygon fill="none" stroke="#000000" points="975,-196 975,-215 1133,-215 1133,-196 975,-196"/>
<text text-anchor="middle" x="1054" y="-203" font-family="Helvetica,sans-Serif" font-size="10.00" fill="#000000">DataFormatsEMCAL/Cluster.h</text>
</a>
</g>
</g>
<!-- Node0&#45;&gt;Node4 -->
<g id="edge4" class="edge">
<title>Node0&#45;&gt;Node4</title>
<path fill="none" stroke="#191970" d="M1270.4955,-313.3453C1214.2292,-285.3168 1127.0046,-241.8666 1082.3909,-219.6427"/>
<polygon fill="#191970" stroke="#191970" points="1083.7991,-216.434 1073.2876,-215.1079 1080.6779,-222.6996 1083.7991,-216.434"/>
</g>
<!-- Node14 -->
<g id="node15" class="node">
<title>Node14</title>
<g id="a_node15"><a xlink:href="../../d3/d6e/DataFormats_2Detectors_2EMCAL_2include_2DataFormatsEMCAL_2Digit_8h.html" target="_top" xlink:title="DataFormatsEMCAL/Digit.h">
<polygon fill="none" stroke="#000000" points="486,-196 486,-215 634,-215 634,-196 486,-196"/>
<text text-anchor="middle" x="560" y="-203" font-family="Helvetica,sans-Serif" font-size="10.00" fill="#000000">DataFormatsEMCAL/Digit.h</text>
</a>
</g>
</g>
<!-- Node0&#45;&gt;Node14 -->
<g id="edge17" class="edge">
<title>Node0&#45;&gt;Node14</title>
<path fill="none" stroke="#191970" d="M1258.3761,-329.7608C1180.9348,-317.9474 1047.3031,-297.1094 933,-277 820.8962,-257.2775 690.3693,-231.641 617.2432,-217.035"/>
<polygon fill="#191970" stroke="#191970" points="617.8059,-213.5783 607.3136,-215.049 616.433,-220.4423 617.8059,-213.5783"/>
</g>
<!-- Node16 -->
<g id="node17" class="node">
<title>Node16</title>
<g id="a_node17"><a xlink:href="../../dd/dda/DataFormats_2Detectors_2EMCAL_2include_2DataFormatsEMCAL_2Constants_8h.html" target="_top" xlink:title="DataFormatsEMCAL/Constants.h">
<polygon fill="none" stroke="#000000" points="999.5,-129 999.5,-148 1172.5,-148 1172.5,-129 999.5,-129"/>
<text text-anchor="middle" x="1086" y="-136" font-family="Helvetica,sans-Serif" font-size="10.00" fill="#000000">DataFormatsEMCAL/Constants.h</text>
</a>
</g>
</g>
<!-- Node0&#45;&gt;Node16 -->
<g id="edge49" class="edge">
<title>Node0&#45;&gt;Node16</title>
<path fill="none" stroke="#191970" d="M1258.321,-327.365C1165.1813,-308.426 1000.6346,-268.9892 966,-221 942.4594,-188.3825 994.5331,-164.4416 1037.3242,-150.9914"/>
<polygon fill="#191970" stroke="#191970" points="1038.5505,-154.2774 1047.1147,-148.0401 1036.5301,-147.5752 1038.5505,-154.2774"/>
</g>
<!-- Node20 -->
<g id="node21" class="node">
<title>Node20</title>
<g id="a_node21"><a xlink:href="../../d5/dd3/DataFormats_2Detectors_2EMCAL_2include_2DataFormatsEMCAL_2Cell_8h.html" target="_top" xlink:title="DataFormatsEMCAL/Cell.h">
<polygon fill="none" stroke="#000000" points="1151.5,-196 1151.5,-215 1294.5,-215 1294.5,-196 1151.5,-196"/>
<text text-anchor="middle" x="1223" y="-203" font-family="Helvetica,sans-Serif" font-size="10.00" fill="#000000">DataFormatsEMCAL/Cell.h</text>
</a>
</g>
</g>
<!-- Node0&#45;&gt;Node20 -->
<g id="edge28" class="edge">
<title>Node0&#45;&gt;Node20</title>
<path fill="none" stroke="#191970" d="M1303.4816,-313.3453C1283.7112,-286.853 1253.6592,-246.5833 1236.4196,-223.4822"/>
<polygon fill="#191970" stroke="#191970" points="1239.0715,-221.1837 1230.2856,-215.2626 1233.4614,-225.3703 1239.0715,-221.1837"/>
</g>
<!-- Node22 -->
<g id="node23" class="node">
<title>Node22</title>
<g id="a_node23"><a xlink:href="../../d8/da3/AnalysisCluster_8h.html" target="_top" xlink:title="DataFormatsEMCAL/Analysis\lCluster.h">
<polygon fill="none" stroke="#000000" points="1601.5,-190.5 1601.5,-220.5 1758.5,-220.5 1758.5,-190.5 1601.5,-190.5"/>
<text text-anchor="start" x="1609.5" y="-208.5" font-family="Helvetica,sans-Serif" font-size="10.00" fill="#000000">DataFormatsEMCAL/Analysis</text>
<text text-anchor="middle" x="1680" y="-197.5" font-family="Helvetica,sans-Serif" font-size="10.00" fill="#000000">Cluster.h</text>
</a>
</g>
</g>
<!-- Node0&#45;&gt;Node22 -->
<g id="edge32" class="edge">
<title>Node0&#45;&gt;Node22</title>
<path fill="none" stroke="#191970" d="M1387.6642,-331.9582C1442.7299,-323.7492 1522.8793,-307.4967 1587,-277 1613.3161,-264.4837 1639.2679,-243.6221 1657.0414,-227.6542"/>
<polygon fill="#191970" stroke="#191970" points="1659.6058,-230.0512 1664.6041,-220.7095 1654.8712,-224.8953 1659.6058,-230.0512"/>
</g>
<!-- Node24 -->
<g id="node25" class="node">
<title>Node24</title>
<g id="a_node25"><a xlink:href="../../dc/d73/Cartesian_8h.html" target="_top" xlink:title="MathUtils/Cartesian.h">
<polygon fill="none" stroke="#000000" points="1852,-129 1852,-148 1974,-148 1974,-129 1852,-129"/>
<text text-anchor="middle" x="1913" y="-136" font-family="Helvetica,sans-Serif" font-size="10.00" fill="#000000">MathUtils/Cartesian.h</text>
</a>
</g>
</g>
<!-- Node0&#45;&gt;Node24 -->
<g id="edge64" class="edge">
<title>Node0&#45;&gt;Node24</title>
<path fill="none" stroke="#191970" d="M1387.5554,-334.2603C1485.1794,-324.1335 1673.9316,-295.8248 1815,-221 1847.6636,-203.6747 1879.2332,-174.0586 1897.3542,-155.422"/>
<polygon fill="#191970" stroke="#191970" points="1899.8955,-157.8287 1904.2609,-148.175 1894.8282,-152.9993 1899.8955,-157.8287"/>
</g>
<!-- Node34 -->
<g id="node35" class="node">
<title>Node34</title>
<g id="a_node35"><a xlink:href="../../dd/da8/EMCAL_2base_2include_2EMCALBase_2Geometry_8h.html" target="_top" xlink:title="EMCALBase/Geometry.h">
<polygon fill="none" stroke="#000000" points="1948.5,-196 1948.5,-215 2081.5,-215 2081.5,-196 1948.5,-196"/>
<text text-anchor="middle" x="2015" y="-203" font-family="Helvetica,sans-Serif" font-size="10.00" fill="#000000">EMCALBase/Geometry.h</text>
</a>
</g>
</g>
<!-- Node0&#45;&gt;Node34 -->
<g id="edge50" class="edge">
<title>Node0&#45;&gt;Node34</title>
<path fill="none" stroke="#191970" d="M1387.5527,-336.7863C1520.1924,-330.5436 1818.9108,-312.867 1914,-277 1946.7441,-264.6492 1978.7111,-239.0668 1997.6323,-222.0922"/>
<polygon fill="#191970" stroke="#191970" points="2000.1436,-224.5378 2005.1355,-215.1927 1995.4055,-219.3851 2000.1436,-224.5378"/>
</g>
<!-- Node41 -->
<g id="node42" class="node">
<title>Node41</title>
<g id="a_node42"><a xlink:href="../../d0/d55/ClusterFactory_8h.html" target="_top" xlink:title="EMCALBase/ClusterFactory.h">
<polygon fill="none" stroke="#000000" points="1351,-257.5 1351,-276.5 1505,-276.5 1505,-257.5 1351,-257.5"/>
<text text-anchor="middle" x="1428" y="-264.5" font-family="Helvetica,sans-Serif" font-size="10.00" fill="#000000">EMCALBase/ClusterFactory.h</text>
</a>
</g>
</g>
<!-- Node0&#45;&gt;Node41 -->
<g id="edge65" class="edge">
<title>Node0&#45;&gt;Node41</title>
<path fill="none" stroke="#191970" d="M1360.9074,-313.3258C1375.9895,-302.912 1392.8168,-291.2931 1405.8465,-282.2965"/>
<polygon fill="#191970" stroke="#191970" points="1407.9518,-285.0961 1414.1921,-276.534 1403.9745,-279.3358 1407.9518,-285.0961"/>
</g>
<!-- Node4&#45;&gt;Node1 -->
<g id="edge5" class="edge">
<title>Node4&#45;&gt;Node1</title>
<path fill="none" stroke="#191970" d="M1096.4472,-195.9383C1142.2394,-185.617 1217.2956,-168.682 1282,-154 1294.0241,-151.2716 1307.2414,-148.2614 1318.8003,-145.6252"/>
<polygon fill="#191970" stroke="#191970" points="1319.8968,-148.9651 1328.8676,-143.3282 1318.3396,-142.1404 1319.8968,-148.9651"/>
</g>
<!-- Node5 -->
<g id="node6" class="node">
<title>Node5</title>
<polygon fill="none" stroke="#bfbfbf" points="970.5,-62 970.5,-81 1019.5,-81 1019.5,-62 970.5,-62"/>
<text text-anchor="middle" x="995" y="-69" font-family="Helvetica,sans-Serif" font-size="10.00" fill="#000000">iosfwd</text>
</g>
<!-- Node4&#45;&gt;Node5 -->
<g id="edge6" class="edge">
<title>Node4&#45;&gt;Node5</title>
<path fill="none" stroke="#191970" d="M1034.9087,-195.9981C1019.8804,-187.3453 1000.018,-173.0195 991,-154 981.6263,-134.2304 984.8471,-108.7203 988.9794,-91.3352"/>
<polygon fill="#191970" stroke="#191970" points="992.481,-91.7923 991.7032,-81.226 985.722,-89.9711 992.481,-91.7923"/>
</g>
<!-- Node6 -->
<g id="node7" class="node">
<title>Node6</title>
<polygon fill="none" stroke="#bfbfbf" points="2863,-62 2863,-81 2907,-81 2907,-62 2863,-62"/>
<text text-anchor="middle" x="2885" y="-69" font-family="Helvetica,sans-Serif" font-size="10.00" fill="#000000">string</text>
</g>
<!-- Node4&#45;&gt;Node6 -->
<g id="edge7" class="edge">
<title>Node4&#45;&gt;Node6</title>
<path fill="none" stroke="#191970" d="M1084.9524,-195.9857C1111.6603,-187.101 1150.7519,-172.4522 1182,-154 1200.768,-142.9174 1199.5492,-130.5385 1220,-123 1390.392,-60.1909 2677.7286,-130.6671 2854,-87 2855.9274,-86.5225 2857.873,-85.9106 2859.8002,-85.2068"/>
<polygon fill="#191970" stroke="#191970" points="2861.3616,-88.3438 2869.1114,-81.1195 2858.548,-81.9341 2861.3616,-88.3438"/>
</g>
<!-- Node7 -->
<g id="node8" class="node">
<title>Node7</title>
<polygon fill="none" stroke="#bfbfbf" points="1427.5,-129 1427.5,-148 1474.5,-148 1474.5,-129 1427.5,-129"/>
<text text-anchor="middle" x="1451" y="-136" font-family="Helvetica,sans-Serif" font-size="10.00" fill="#000000">vector</text>
</g>
<!-- Node4&#45;&gt;Node7 -->
<g id="edge8" class="edge">
<title>Node4&#45;&gt;Node7</title>
<path fill="none" stroke="#191970" d="M1107.6204,-195.968C1119.2759,-193.9501 1131.5451,-191.8673 1143,-190 1248.1537,-172.8591 1275.2344,-173.3719 1380,-154 1392.2823,-151.7289 1405.6832,-148.8963 1417.5006,-146.2762"/>
<polygon fill="#191970" stroke="#191970" points="1418.4217,-149.6565 1427.4101,-144.0477 1416.8859,-142.8271 1418.4217,-149.6565"/>
</g>
<!-- Node8 -->
<g id="node9" class="node">
<title>Node8</title>
<g id="a_node9"><a xlink:href="../../df/d5d/common_2include_2CommonDataFormat_2TimeStamp_8h.html" target="_top" xlink:title="CommonDataFormat/TimeStamp.h">
<polygon fill="none" stroke="#000000" points="527.5,-129 527.5,-148 714.5,-148 714.5,-129 527.5,-129"/>
<text text-anchor="middle" x="621" y="-136" font-family="Helvetica,sans-Serif" font-size="10.00" fill="#000000">CommonDataFormat/TimeStamp.h</text>
</a>
</g>
</g>
<!-- Node4&#45;&gt;Node8 -->
<g id="edge9" class="edge">
<title>Node4&#45;&gt;Node8</title>
<path fill="none" stroke="#191970" d="M992.4215,-195.9717C913.3335,-183.7341 776.3238,-162.5339 692.6486,-149.5865"/>
<polygon fill="#191970" stroke="#191970" points="693.1339,-146.12 682.7162,-148.0496 692.0634,-153.0377 693.1339,-146.12"/>
</g>
<!-- Node13 -->
<g id="node14" class="node">
<title>Node13</title>
<g id="a_node14"><a xlink:href="../../de/d64/RangeReference_8h.html" target="_top" xlink:title="Class to refer to the 1st entry and N elements of some group in the continuous container. ">
<polygon fill="none" stroke="#000000" points="733,-129 733,-148 943,-148 943,-129 733,-129"/>
<text text-anchor="middle" x="838" y="-136" font-family="Helvetica,sans-Serif" font-size="10.00" fill="#000000">CommonDataFormat/RangeReference.h</text>
</a>
</g>
</g>
<!-- Node4&#45;&gt;Node13 -->
<g id="edge15" class="edge">
<title>Node4&#45;&gt;Node13</title>
<path fill="none" stroke="#191970" d="M1023.0525,-195.9005C985.0384,-184.1091 920.4496,-164.0746 878.5138,-151.0668"/>
<polygon fill="#191970" stroke="#191970" points="879.4781,-147.7015 868.8901,-148.0817 877.4043,-154.3872 879.4781,-147.7015"/>
</g>
<!-- Node9 -->
<g id="node10" class="node">
<title>Node9</title>
<g id="a_node10"><a xlink:href="../../d2/d45/GPUCommonRtypes_8h.html" target="_top" xlink:title="GPUCommonRtypes.h">
<polygon fill="none" stroke="#000000" points="775.5,-62 775.5,-81 900.5,-81 900.5,-62 775.5,-62"/>
<text text-anchor="middle" x="838" y="-69" font-family="Helvetica,sans-Serif" font-size="10.00" fill="#000000">GPUCommonRtypes.h</text>
</a>
</g>
</g>
<!-- Node8&#45;&gt;Node9 -->
<g id="edge10" class="edge">
<title>Node8&#45;&gt;Node9</title>
<path fill="none" stroke="#191970" d="M652.0908,-128.9005C690.2808,-117.1091 755.1687,-97.0746 797.2986,-84.0668"/>
<polygon fill="#191970" stroke="#191970" points="798.4445,-87.3761 806.9669,-81.0817 796.3794,-80.6876 798.4445,-87.3761"/>
</g>
<!-- Node10 -->
<g id="node11" class="node">
<title>Node10</title>
<g id="a_node11"><a xlink:href="../../df/d21/GPUCommonDef_8h.html" target="_top" xlink:title="GPUCommonDef.h">
<polygon fill="none" stroke="#000000" points="97.5,-62 97.5,-81 204.5,-81 204.5,-62 97.5,-62"/>
<text text-anchor="middle" x="151" y="-69" font-family="Helvetica,sans-Serif" font-size="10.00" fill="#000000">GPUCommonDef.h</text>
</a>
</g>
</g>
<!-- Node8&#45;&gt;Node10 -->
<g id="edge12" class="edge">
<title>Node8&#45;&gt;Node10</title>
<path fill="none" stroke="#191970" d="M554.1596,-128.9717C463.7465,-116.083 303.5948,-93.2529 214.785,-80.5928"/>
<polygon fill="#191970" stroke="#191970" points="215.2368,-77.1219 204.8429,-79.1755 214.2489,-84.0518 215.2368,-77.1219"/>
</g>
<!-- Node9&#45;&gt;Node3 -->
<g id="edge11" class="edge">
<title>Node9&#45;&gt;Node3</title>
<path fill="none" stroke="#191970" d="M900.7258,-62.1595C986.7569,-49.3486 1138.8828,-26.6954 1210.9695,-15.961"/>
<polygon fill="#191970" stroke="#191970" points="1211.6316,-19.401 1221.0071,-14.4663 1210.6006,-12.4774 1211.6316,-19.401"/>
</g>
<!-- Node11 -->
<g id="node12" class="node">
<title>Node11</title>
<g id="a_node12"><a xlink:href="../../d5/d93/GPUCommonDefSettings_8h.html" target="_top" xlink:title="GPUCommonDefSettings.h">
<polygon fill="none" stroke="#000000" points="0,-.5 0,-19.5 148,-19.5 148,-.5 0,-.5"/>
<text text-anchor="middle" x="74" y="-7.5" font-family="Helvetica,sans-Serif" font-size="10.00" fill="#000000">GPUCommonDefSettings.h</text>
</a>
</g>
</g>
<!-- Node10&#45;&gt;Node11 -->
<g id="edge13" class="edge">
<title>Node10&#45;&gt;Node11</title>
<path fill="none" stroke="#191970" d="M138.9688,-61.8906C126.9893,-52.3227 108.3834,-37.4621 94.1475,-26.0919"/>
<polygon fill="#191970" stroke="#191970" points="95.9447,-23.0479 85.9468,-19.5419 91.5761,-28.5175 95.9447,-23.0479"/>
</g>
<!-- Node12 -->
<g id="node13" class="node">
<title>Node12</title>
<g id="a_node13"><a xlink:href="../../da/d5a/GPUCommonDefAPI_8h.html" target="_top" xlink:title="GPUCommonDefAPI.h">
<polygon fill="none" stroke="#000000" points="166,-.5 166,-19.5 290,-19.5 290,-.5 166,-.5"/>
<text text-anchor="middle" x="228" y="-7.5" font-family="Helvetica,sans-Serif" font-size="10.00" fill="#000000">GPUCommonDefAPI.h</text>
</a>
</g>
</g>
<!-- Node10&#45;&gt;Node12 -->
<g id="edge14" class="edge">
<title>Node10&#45;&gt;Node12</title>
<path fill="none" stroke="#191970" d="M163.0313,-61.8906C175.0107,-52.3227 193.6166,-37.4621 207.8525,-26.0919"/>
<polygon fill="#191970" stroke="#191970" points="210.4239,-28.5175 216.0532,-19.5419 206.0553,-23.0479 210.4239,-28.5175"/>
</g>
<!-- Node13&#45;&gt;Node9 -->
<g id="edge16" class="edge">
<title>Node13&#45;&gt;Node9</title>
<path fill="none" stroke="#191970" d="M838,-128.9005C838,-119.149 838,-103.7597 838,-91.3695"/>
<polygon fill="#191970" stroke="#191970" points="841.5001,-91.0816 838,-81.0817 834.5001,-91.0817 841.5001,-91.0816"/>
</g>
<!-- Node14&#45;&gt;Node3 -->
<g id="edge20" class="edge">
<title>Node14&#45;&gt;Node3</title>
<path fill="none" stroke="#191970" d="M548.5091,-195.9514C530.561,-179.8844 499.7283,-146.863 518,-123 587.4111,-32.3482 653.6548,-76.352 766,-56 929.6129,-26.3606 1127.9546,-15.1161 1211.1991,-11.4935"/>
<polygon fill="#191970" stroke="#191970" points="1211.3934,-14.9885 1221.2369,-11.0696 1211.0981,-7.9947 1211.3934,-14.9885"/>
</g>
<!-- Node14&#45;&gt;Node5 -->
<g id="edge18" class="edge">
<title>Node14&#45;&gt;Node5</title>
<path fill="none" stroke="#191970" d="M485.8347,-201.6905C414.6531,-196.2977 314.4487,-183.5528 290,-154 281.2176,-143.3841 280.5447,-133.0212 290,-123 337.2801,-72.8903 840.5868,-95.1247 909,-87 925.8919,-84.9939 944.4846,-81.7717 960.0478,-78.7835"/>
<polygon fill="#191970" stroke="#191970" points="961.1442,-82.1349 970.2802,-76.7699 959.7925,-75.2667 961.1442,-82.1349"/>
</g>
<!-- Node14&#45;&gt;Node8 -->
<g id="edge21" class="edge">
<title>Node14&#45;&gt;Node8</title>
<path fill="none" stroke="#191970" d="M568.7398,-195.9005C578.2522,-185.4525 593.657,-168.5325 605.2825,-155.7635"/>
<polygon fill="#191970" stroke="#191970" points="608.1322,-157.8324 612.2764,-148.0817 602.9561,-153.1198 608.1322,-157.8324"/>
</g>
<!-- Node15 -->
<g id="node16" class="node">
<title>Node15</title>
<polygon fill="none" stroke="#bfbfbf" points="299.5,-129 299.5,-148 346.5,-148 346.5,-129 299.5,-129"/>
<text text-anchor="middle" x="323" y="-136" font-family="Helvetica,sans-Serif" font-size="10.00" fill="#000000">cmath</text>
</g>
<!-- Node14&#45;&gt;Node15 -->
<g id="edge19" class="edge">
<title>Node14&#45;&gt;Node15</title>
<path fill="none" stroke="#191970" d="M510.2743,-195.994C468.223,-187.2516 406.7335,-172.802 355,-154 353.4045,-153.4201 351.7826,-152.786 350.1583,-152.1159"/>
<polygon fill="#191970" stroke="#191970" points="351.554,-148.9061 340.9968,-148.0131 348.6929,-155.2947 351.554,-148.9061"/>
</g>
<!-- Node14&#45;&gt;Node16 -->
<g id="edge22" class="edge">
<title>Node14&#45;&gt;Node16</title>
<path fill="none" stroke="#191970" d="M634.2473,-196.0426C730.9911,-183.7198 899.7544,-162.2233 1001.3589,-149.2813"/>
<polygon fill="#191970" stroke="#191970" points="1001.803,-152.7531 1011.2806,-148.0175 1000.9185,-145.8092 1001.803,-152.7531"/>
</g>
<!-- Node19 -->
<g id="node20" class="node">
<title>Node19</title>
<polygon fill="none" stroke="#bfbfbf" points="364.5,-123.5 364.5,-153.5 471.5,-153.5 471.5,-123.5 364.5,-123.5"/>
<text text-anchor="start" x="372.5" y="-141.5" font-family="Helvetica,sans-Serif" font-size="10.00" fill="#000000">boost/serialization</text>
<text text-anchor="middle" x="418" y="-130.5" font-family="Helvetica,sans-Serif" font-size="10.00" fill="#000000">/base_object.hpp</text>
</g>
<!-- Node14&#45;&gt;Node19 -->
<g id="edge27" class="edge">
<title>Node14&#45;&gt;Node19</title>
<path fill="none" stroke="#191970" d="M539.6549,-195.9005C518.755,-186.0393 485.6361,-170.4128 459.2279,-157.9526"/>
<polygon fill="#191970" stroke="#191970" points="460.3746,-154.6236 449.8372,-153.5218 457.3875,-160.9543 460.3746,-154.6236"/>
</g>
<!-- Node16&#45;&gt;Node3 -->
<g id="edge23" class="edge">
<title>Node16&#45;&gt;Node3</title>
<path fill="none" stroke="#191970" d="M1098.4018,-128.8416C1126.5911,-106.8881 1195.7155,-53.0549 1230.4189,-26.0283"/>
<polygon fill="#191970" stroke="#191970" points="1232.7151,-28.6763 1238.4543,-19.7705 1228.414,-23.1535 1232.7151,-28.6763"/>
</g>
<!-- Node16&#45;&gt;Node5 -->
<g id="edge24" class="edge">
<title>Node16&#45;&gt;Node5</title>
<path fill="none" stroke="#191970" d="M1072.9619,-128.9005C1058.2307,-118.0544 1034.0267,-100.2339 1016.4908,-87.3229"/>
<polygon fill="#191970" stroke="#191970" points="1018.1418,-84.1922 1008.0139,-81.0817 1013.9915,-89.8291 1018.1418,-84.1922"/>
</g>
<!-- Node17 -->
<g id="node18" class="node">
<title>Node17</title>
<polygon fill="none" stroke="#bfbfbf" points="1405.5,-62 1405.5,-81 1470.5,-81 1470.5,-62 1405.5,-62"/>
<text text-anchor="middle" x="1438" y="-69" font-family="Helvetica,sans-Serif" font-size="10.00" fill="#000000">exception</text>
</g>
<!-- Node16&#45;&gt;Node17 -->
<g id="edge25" class="edge">
<title>Node16&#45;&gt;Node17</title>
<path fill="none" stroke="#191970" d="M1136.0592,-128.9717C1205.604,-115.7345 1330.2416,-92.0108 1395.5058,-79.5884"/>
<polygon fill="#191970" stroke="#191970" points="1396.2838,-83.0032 1405.453,-77.695 1394.9749,-76.1267 1396.2838,-83.0032"/>
</g>
<!-- Node18 -->
<g id="node19" class="node">
<title>Node18</title>
<polygon fill="none" stroke="#bfbfbf" points="1061,-62 1061,-81 1111,-81 1111,-62 1061,-62"/>
<text text-anchor="middle" x="1086" y="-69" font-family="Helvetica,sans-Serif" font-size="10.00" fill="#000000">cstdint</text>
</g>
<!-- Node16&#45;&gt;Node18 -->
<g id="edge26" class="edge">
<title>Node16&#45;&gt;Node18</title>
<path fill="none" stroke="#191970" d="M1086,-128.9005C1086,-119.149 1086,-103.7597 1086,-91.3695"/>
<polygon fill="#191970" stroke="#191970" points="1089.5001,-91.0816 1086,-81.0817 1082.5001,-91.0817 1089.5001,-91.0816"/>
</g>
<!-- Node20&#45;&gt;Node3 -->
<g id="edge30" class="edge">
<title>Node20&#45;&gt;Node3</title>
<path fill="none" stroke="#191970" d="M1240.6291,-195.8731C1254.7558,-187.0568 1273.5615,-172.5669 1282,-154 1301.3088,-111.5158 1277.3379,-56.4294 1261.9781,-28.2946"/>
<polygon fill="#191970" stroke="#191970" points="1264.9786,-26.4905 1256.9894,-19.5318 1258.8953,-29.9538 1264.9786,-26.4905"/>
</g>
<!-- Node20&#45;&gt;Node16 -->
<g id="edge31" class="edge">
<title>Node20&#45;&gt;Node16</title>
<path fill="none" stroke="#191970" d="M1203.3712,-195.9005C1180.1761,-184.5569 1141.3815,-165.5844 1114.7869,-152.5783"/>
<polygon fill="#191970" stroke="#191970" points="1116.1133,-149.3308 1105.5923,-148.0817 1113.038,-155.6191 1116.1133,-149.3308"/>
</g>
<!-- Node21 -->
<g id="node22" class="node">
<title>Node21</title>
<polygon fill="none" stroke="#bfbfbf" points="1229,-129 1229,-148 1273,-148 1273,-129 1229,-129"/>
<text text-anchor="middle" x="1251" y="-136" font-family="Helvetica,sans-Serif" font-size="10.00" fill="#000000">bitset</text>
</g>
<!-- Node20&#45;&gt;Node21 -->
<g id="edge29" class="edge">
<title>Node20&#45;&gt;Node21</title>
<path fill="none" stroke="#191970" d="M1227.0117,-195.9005C1231.1702,-185.95 1237.7818,-170.1292 1243.0117,-157.6147"/>
<polygon fill="#191970" stroke="#191970" points="1246.3691,-158.658 1246.9957,-148.0817 1239.9104,-155.9588 1246.3691,-158.658"/>
</g>
<!-- Node22&#45;&gt;Node1 -->
<g id="edge35" class="edge">
<title>Node22&#45;&gt;Node1</title>
<path fill="none" stroke="#191970" d="M1601.371,-190.5408C1549.5107,-180.5376 1480.1218,-166.893 1419,-154 1406.5493,-151.3736 1392.8707,-148.3334 1380.9991,-145.6448"/>
<polygon fill="#191970" stroke="#191970" points="1381.6355,-142.2002 1371.1079,-143.3919 1380.0809,-149.0254 1381.6355,-142.2002"/>
</g>
<!-- Node22&#45;&gt;Node2 -->
<g id="edge34" class="edge">
<title>Node22&#45;&gt;Node2</title>
<path fill="none" stroke="#191970" d="M1644.3173,-190.4639C1617.0383,-178.969 1579.7496,-163.2561 1553.3378,-152.1266"/>
<polygon fill="#191970" stroke="#191970" points="1554.3658,-148.7618 1543.7914,-148.1039 1551.6475,-155.2125 1554.3658,-148.7618"/>
</g>
<!-- Node22&#45;&gt;Node3 -->
<g id="edge36" class="edge">
<title>Node22&#45;&gt;Node3</title>
<path fill="none" stroke="#191970" d="M1715.7413,-190.3998C1748.8019,-174.3762 1789.6604,-147.9722 1767,-123 1711.486,-61.8225 1474.4485,-115.7441 1397,-87 1374.5731,-78.6765 1373.7749,-67.8596 1353,-56 1331.1079,-43.5026 1305.2016,-31.8556 1284.9756,-23.4079"/>
<polygon fill="#191970" stroke="#191970" points="1286.1249,-20.0962 1275.5453,-19.5282 1283.4616,-26.5697 1286.1249,-20.0962"/>
</g>
<!-- Node23 -->
<g id="node24" class="node">
<title>Node23</title>
<polygon fill="none" stroke="#bfbfbf" points="1567.5,-129 1567.5,-148 1642.5,-148 1642.5,-129 1567.5,-129"/>
<text text-anchor="middle" x="1605" y="-136" font-family="Helvetica,sans-Serif" font-size="10.00" fill="#000000">FairLogger.h</text>
</g>
<!-- Node22&#45;&gt;Node23 -->
<g id="edge33" class="edge">
<title>Node22&#45;&gt;Node23</title>
<path fill="none" stroke="#191970" d="M1662.9813,-190.2967C1651.1825,-179.7564 1635.4816,-165.7303 1623.3943,-154.9323"/>
<polygon fill="#191970" stroke="#191970" points="1625.4853,-152.107 1615.6959,-148.055 1620.8217,-157.3273 1625.4853,-152.107"/>
</g>
<!-- Node22&#45;&gt;Node24 -->
<g id="edge37" class="edge">
<title>Node22&#45;&gt;Node24</title>
<path fill="none" stroke="#191970" d="M1732.2897,-190.4639C1773.7966,-178.5284 1831.1176,-162.0456 1869.9897,-150.8678"/>
<polygon fill="#191970" stroke="#191970" points="1871.301,-154.1326 1879.9443,-148.0053 1869.3665,-147.4052 1871.301,-154.1326"/>
</g>
<!-- Node33 -->
<g id="node34" class="node">
<title>Node33</title>
<polygon fill="none" stroke="#bfbfbf" points="1660,-129 1660,-148 1758,-148 1758,-129 1660,-129"/>
<text text-anchor="middle" x="1709" y="-136" font-family="Helvetica,sans-Serif" font-size="10.00" fill="#000000">TLorentzVector.h</text>
</g>
<!-- Node22&#45;&gt;Node33 -->
<g id="edge48" class="edge">
<title>Node22&#45;&gt;Node33</title>
<path fill="none" stroke="#191970" d="M1686.5805,-190.2967C1690.7918,-180.5672 1696.2887,-167.8675 1700.7855,-157.4784"/>
<polygon fill="#191970" stroke="#191970" points="1704.104,-158.6225 1704.8643,-148.055 1697.6799,-155.8419 1704.104,-158.6225"/>
</g>
<!-- Node24&#45;&gt;Node3 -->
<g id="edge45" class="edge">
<title>Node24&#45;&gt;Node3</title>
<path fill="none" stroke="#191970" d="M1868.155,-128.9262C1857.3305,-126.7989 1845.777,-124.6798 1835,-123 1694.8971,-101.1628 1648.6737,-142.0459 1518,-87 1497.9135,-78.5386 1499.7081,-65.3087 1480,-56 1417.9586,-26.6962 1337.89,-16.0338 1290.7274,-12.1722"/>
<polygon fill="#191970" stroke="#191970" points="1290.8488,-8.6715 1280.6134,-11.4076 1290.3211,-15.6515 1290.8488,-8.6715"/>
</g>
<!-- Node24&#45;&gt;Node5 -->
<g id="edge47" class="edge">
<title>Node24&#45;&gt;Node5</title>
<path fill="none" stroke="#191970" d="M1851.979,-131.2589C1825.8404,-128.355 1794.9533,-125.1858 1767,-123 1449.788,-98.1951 1366.2216,-137.0348 1052,-87 1044.6195,-85.8248 1036.822,-84.0626 1029.4429,-82.1429"/>
<polygon fill="#191970" stroke="#191970" points="1030.2885,-78.7455 1019.7183,-79.4677 1028.4318,-85.4948 1030.2885,-78.7455"/>
</g>
<!-- Node25 -->
<g id="node26" class="node">
<title>Node25</title>
<polygon fill="none" stroke="#bfbfbf" points="2473,-56.5 2473,-86.5 2637,-86.5 2637,-56.5 2473,-56.5"/>
<text text-anchor="start" x="2481" y="-74.5" font-family="Helvetica,sans-Serif" font-size="10.00" fill="#000000">Math/GenVector/Displacement</text>
<text text-anchor="middle" x="2555" y="-63.5" font-family="Helvetica,sans-Serif" font-size="10.00" fill="#000000">Vector3D.h</text>
</g>
<!-- Node24&#45;&gt;Node25 -->
<g id="edge38" class="edge">
<title>Node24&#45;&gt;Node25</title>
<path fill="none" stroke="#191970" d="M1954.4885,-128.9359C1965.3459,-126.7054 1977.0717,-124.536 1988,-123 2194.8118,-93.9312 2251.653,-112.2467 2462.5503,-87.1005"/>
<polygon fill="#191970" stroke="#191970" points="2463.2041,-90.547 2472.7106,-85.8699 2462.3623,-83.5978 2463.2041,-90.547"/>
</g>
<!-- Node26 -->
<g id="node27" class="node">
<title>Node26</title>
<polygon fill="none" stroke="#bfbfbf" points="2655.5,-62 2655.5,-81 2844.5,-81 2844.5,-62 2655.5,-62"/>
<text text-anchor="middle" x="2750" y="-69" font-family="Helvetica,sans-Serif" font-size="10.00" fill="#000000">Math/GenVector/PositionVector3D.h</text>
</g>
<!-- Node24&#45;&gt;Node26 -->
<g id="edge39" class="edge">
<title>Node24&#45;&gt;Node26</title>
<path fill="none" stroke="#191970" d="M1953.6841,-128.9411C1964.7593,-126.6545 1976.7926,-124.4564 1988,-123 2278.4397,-85.257 2354.6197,-116.6191 2646,-87 2657.8475,-85.7957 2670.4101,-84.1987 2682.5541,-82.4873"/>
<polygon fill="#191970" stroke="#191970" points="2683.2361,-85.9251 2692.6317,-81.0289 2682.2335,-78.9973 2683.2361,-85.9251"/>
</g>
<!-- Node27 -->
<g id="node28" class="node">
<title>Node27</title>
<polygon fill="none" stroke="#bfbfbf" points="1527,-62 1527,-81 1687,-81 1687,-62 1527,-62"/>
<text text-anchor="middle" x="1607" y="-69" font-family="Helvetica,sans-Serif" font-size="10.00" fill="#000000">Math/GenVector/Rotation3D.h</text>
</g>
<!-- Node24&#45;&gt;Node27 -->
<g id="edge40" class="edge">
<title>Node24&#45;&gt;Node27</title>
<path fill="none" stroke="#191970" d="M1869.4826,-128.9717C1814.5781,-116.9501 1720.1732,-96.2797 1660.8008,-83.2799"/>
<polygon fill="#191970" stroke="#191970" points="1661.3799,-79.8239 1650.8627,-81.1039 1659.8826,-86.6619 1661.3799,-79.8239"/>
</g>
<!-- Node28 -->
<g id="node29" class="node">
<title>Node28</title>
<polygon fill="none" stroke="#bfbfbf" points="1705,-62 1705,-81 1873,-81 1873,-62 1705,-62"/>
<text text-anchor="middle" x="1789" y="-69" font-family="Helvetica,sans-Serif" font-size="10.00" fill="#000000">Math/GenVector/Transform3D.h</text>
</g>
<!-- Node24&#45;&gt;Node28 -->
<g id="edge41" class="edge">
<title>Node24&#45;&gt;Node28</title>
<path fill="none" stroke="#191970" d="M1895.2338,-128.9005C1874.4238,-117.6564 1839.7412,-98.9166 1815.6913,-85.9219"/>
<polygon fill="#191970" stroke="#191970" points="1817.1949,-82.7561 1806.7332,-81.0817 1813.8673,-88.9147 1817.1949,-82.7561"/>
</g>
<!-- Node29 -->
<g id="node30" class="node">
<title>Node29</title>
<polygon fill="none" stroke="#bfbfbf" points="1891.5,-62 1891.5,-81 2064.5,-81 2064.5,-62 1891.5,-62"/>
<text text-anchor="middle" x="1978" y="-69" font-family="Helvetica,sans-Serif" font-size="10.00" fill="#000000">Math/GenVector/Translation3D.h</text>
</g>
<!-- Node24&#45;&gt;Node29 -->
<g id="edge42" class="edge">
<title>Node24&#45;&gt;Node29</title>
<path fill="none" stroke="#191970" d="M1922.3129,-128.9005C1932.5456,-118.353 1949.1772,-101.2096 1961.6046,-88.3998"/>
<polygon fill="#191970" stroke="#191970" points="1964.2533,-90.6962 1968.7044,-81.0817 1959.2291,-85.822 1964.2533,-90.6962"/>
</g>
<!-- Node30 -->
<g id="node31" class="node">
<title>Node30</title>
<polygon fill="none" stroke="#bfbfbf" points="2083,-56.5 2083,-86.5 2247,-86.5 2247,-56.5 2083,-56.5"/>
<text text-anchor="start" x="2091" y="-74.5" font-family="Helvetica,sans-Serif" font-size="10.00" fill="#000000">Math/GenVector/Displacement</text>
<text text-anchor="middle" x="2165" y="-63.5" font-family="Helvetica,sans-Serif" font-size="10.00" fill="#000000">Vector2D.h</text>
</g>
<!-- Node24&#45;&gt;Node30 -->
<g id="edge43" class="edge">
<title>Node24&#45;&gt;Node30</title>
<path fill="none" stroke="#191970" d="M1948.8378,-128.9717C1987.7384,-118.6291 2050.7169,-101.8848 2098.6861,-89.1311"/>
<polygon fill="#191970" stroke="#191970" points="2099.609,-92.5074 2108.3739,-86.5553 2097.8103,-85.7424 2099.609,-92.5074"/>
</g>
<!-- Node31 -->
<g id="node32" class="node">
<title>Node31</title>
<polygon fill="none" stroke="#bfbfbf" points="2265.5,-62 2265.5,-81 2454.5,-81 2454.5,-62 2265.5,-62"/>
<text text-anchor="middle" x="2360" y="-69" font-family="Helvetica,sans-Serif" font-size="10.00" fill="#000000">Math/GenVector/PositionVector2D.h</text>
</g>
<!-- Node24&#45;&gt;Node31 -->
<g id="edge44" class="edge">
<title>Node24&#45;&gt;Node31</title>
<path fill="none" stroke="#191970" d="M1956.5268,-128.9649C1966.8201,-126.8599 1977.7763,-124.7409 1988,-123 2106.4756,-102.8259 2137.0073,-103.8584 2256,-87 2266.0673,-85.5737 2276.6771,-84.0343 2287.1167,-82.4985"/>
<polygon fill="#191970" stroke="#191970" points="2287.6693,-85.955 2297.0504,-81.031 2286.6463,-79.0301 2287.6693,-85.955"/>
</g>
<!-- Node32 -->
<g id="node33" class="node">
<title>Node32</title>
<polygon fill="none" stroke="#bfbfbf" points="2925,-62 2925,-81 3007,-81 3007,-62 2925,-62"/>
<text text-anchor="middle" x="2966" y="-69" font-family="Helvetica,sans-Serif" font-size="10.00" fill="#000000">TGeoMatrix.h</text>
</g>
<!-- Node24&#45;&gt;Node32 -->
<g id="edge46" class="edge">
<title>Node24&#45;&gt;Node32</title>
<path fill="none" stroke="#191970" d="M1971.4443,-128.9985C1987.4701,-126.6974 2004.8721,-124.4778 2021,-123 2417.4387,-86.6749 2523.6665,-154.5098 2916,-87 2920.5566,-86.2159 2925.2768,-85.1314 2929.9157,-83.8967"/>
<polygon fill="#191970" stroke="#191970" points="2931.219,-87.1628 2939.8458,-81.0123 2929.2664,-80.4407 2931.219,-87.1628"/>
</g>
<!-- Node34&#45;&gt;Node6 -->
<g id="edge52" class="edge">
<title>Node34&#45;&gt;Node6</title>
<path fill="none" stroke="#191970" d="M2012.1581,-195.9405C2007.6672,-178.6274 2001.3217,-142.108 2021,-123 2087.4639,-58.4626 2764.317,-110.2267 2854,-87 2855.9223,-86.5022 2857.864,-85.8751 2859.7884,-85.1604"/>
<polygon fill="#191970" stroke="#191970" points="2861.361,-88.2921 2869.0937,-81.0493 2858.5321,-81.8891 2861.361,-88.2921"/>
</g>
<!-- Node34&#45;&gt;Node7 -->
<g id="edge54" class="edge">
<title>Node34&#45;&gt;Node7</title>
<path fill="none" stroke="#191970" d="M1948.1082,-201.8662C1825.5593,-194.7369 1569.7436,-177.5364 1484,-154 1482.0315,-153.4597 1480.0353,-152.8095 1478.0495,-152.0857"/>
<polygon fill="#191970" stroke="#191970" points="1478.96,-148.6717 1468.3851,-148.0213 1476.2463,-155.1243 1478.96,-148.6717"/>
</g>
<!-- Node34&#45;&gt;Node16 -->
<g id="edge60" class="edge">
<title>Node34&#45;&gt;Node16</title>
<path fill="none" stroke="#191970" d="M1948.4197,-201.2789C1763.7037,-189.5558 1256.009,-157.2469 1220,-154 1204.6934,-152.6198 1188.4287,-150.9287 1172.703,-149.1767"/>
<polygon fill="#191970" stroke="#191970" points="1172.7921,-145.6646 1162.4623,-148.0193 1172.0059,-152.6203 1172.7921,-145.6646"/>
</g>
<!-- Node34&#45;&gt;Node17 -->
<g id="edge51" class="edge">
<title>Node34&#45;&gt;Node17</title>
<path fill="none" stroke="#191970" d="M1968.1616,-195.9442C1932.6533,-187.653 1883.2645,-173.8378 1843,-154 1821.8661,-143.5876 1821.9721,-131.5023 1800,-123 1668.5845,-72.1476 1622.6316,-117.2246 1485,-87 1481.3442,-86.1972 1477.5717,-85.2187 1473.8279,-84.1477"/>
<polygon fill="#191970" stroke="#191970" points="1474.6724,-80.7458 1464.0854,-81.1535 1472.6159,-87.4369 1474.6724,-80.7458"/>
</g>
<!-- Node34&#45;&gt;Node24 -->
<g id="edge63" class="edge">
<title>Node34&#45;&gt;Node24</title>
<path fill="none" stroke="#191970" d="M2000.3859,-195.9005C1983.571,-184.8554 1955.7451,-166.5776 1936.0142,-153.6172"/>
<polygon fill="#191970" stroke="#191970" points="1937.8667,-150.6465 1927.587,-148.0817 1934.0236,-156.4972 1937.8667,-150.6465"/>
</g>
<!-- Node34&#45;&gt;Node32 -->
<g id="edge56" class="edge">
<title>Node34&#45;&gt;Node32</title>
<path fill="none" stroke="#191970" d="M2081.601,-202.7171C2192.8332,-197.4163 2423.2208,-183.6495 2616,-154 2751.0304,-133.2323 2783.9795,-122.1438 2916,-87 2919.5458,-86.0561 2923.2169,-85.0244 2926.8855,-83.956"/>
<polygon fill="#191970" stroke="#191970" points="2927.9264,-87.298 2936.503,-81.0776 2925.9193,-80.5919 2927.9264,-87.298"/>
</g>
<!-- Node35 -->
<g id="node36" class="node">
<title>Node35</title>
<polygon fill="none" stroke="#bfbfbf" points="2205.5,-129 2205.5,-148 2246.5,-148 2246.5,-129 2205.5,-129"/>
<text text-anchor="middle" x="2226" y="-136" font-family="Helvetica,sans-Serif" font-size="10.00" fill="#000000">tuple</text>
</g>
<!-- Node34&#45;&gt;Node35 -->
<g id="edge53" class="edge">
<title>Node34&#45;&gt;Node35</title>
<path fill="none" stroke="#191970" d="M2058.5277,-195.9747C2095.9557,-187.1297 2151.013,-172.5442 2197,-154 2198.0324,-153.5837 2199.0758,-153.1408 2200.1225,-152.678"/>
<polygon fill="#191970" stroke="#191970" points="2201.9693,-155.6716 2209.4257,-148.1447 2198.9029,-149.3789 2201.9693,-155.6716"/>
</g>
<!-- Node36 -->
<g id="node37" class="node">
<title>Node36</title>
<polygon fill="none" stroke="#bfbfbf" points="2265,-129 2265,-148 2349,-148 2349,-129 2265,-129"/>
<text text-anchor="middle" x="2307" y="-136" font-family="Helvetica,sans-Serif" font-size="10.00" fill="#000000">RStringView.h</text>
</g>
<!-- Node34&#45;&gt;Node36 -->
<g id="edge55" class="edge">
<title>Node34&#45;&gt;Node36</title>
<path fill="none" stroke="#191970" d="M2065.603,-195.9795C2114.5705,-186.4628 2190.7554,-170.8536 2256,-154 2259.773,-153.0254 2263.6846,-151.952 2267.5872,-150.8388"/>
<polygon fill="#191970" stroke="#191970" points="2268.5752,-154.1965 2277.1854,-148.0228 2266.6045,-147.4796 2268.5752,-154.1965"/>
</g>
<!-- Node37 -->
<g id="node38" class="node">
<title>Node37</title>
<polygon fill="none" stroke="#bfbfbf" points="2367.5,-129 2367.5,-148 2434.5,-148 2434.5,-129 2367.5,-129"/>
<text text-anchor="middle" x="2401" y="-136" font-family="Helvetica,sans-Serif" font-size="10.00" fill="#000000">TNamed.h</text>
</g>
<!-- Node34&#45;&gt;Node37 -->
<g id="edge57" class="edge">
<title>Node34&#45;&gt;Node37</title>
<path fill="none" stroke="#191970" d="M2081.5203,-199.4347C2151.1897,-192.1733 2263.4225,-177.8979 2358,-154 2361.1544,-153.2029 2364.4014,-152.2636 2367.6303,-151.248"/>
<polygon fill="#191970" stroke="#191970" points="2368.7943,-154.5493 2377.1526,-148.0386 2366.5585,-147.9159 2368.7943,-154.5493"/>
</g>
<!-- Node38 -->
<g id="node39" class="node">
<title>Node38</title>
<polygon fill="none" stroke="#bfbfbf" points="2453,-129 2453,-148 2521,-148 2521,-129 2453,-129"/>
<text text-anchor="middle" x="2487" y="-136" font-family="Helvetica,sans-Serif" font-size="10.00" fill="#000000">TParticle.h</text>
</g>
<!-- Node34&#45;&gt;Node38 -->
<g id="edge58" class="edge">
<title>Node34&#45;&gt;Node38</title>
<path fill="none" stroke="#191970" d="M2081.5923,-202.185C2166.6401,-196.8887 2317.9068,-183.886 2444,-154 2447.2431,-153.2313 2450.5794,-152.2977 2453.8911,-151.2739"/>
<polygon fill="#191970" stroke="#191970" points="2455.266,-154.5045 2463.6345,-148.0068 2453.0406,-147.8676 2455.266,-154.5045"/>
</g>
<!-- Node39 -->
<g id="node40" class="node">
<title>Node39</title>
<polygon fill="none" stroke="#bfbfbf" points="2539,-129 2539,-148 2607,-148 2607,-129 2539,-129"/>
<text text-anchor="middle" x="2573" y="-136" font-family="Helvetica,sans-Serif" font-size="10.00" fill="#000000">TVector3.h</text>
</g>
<!-- Node34&#45;&gt;Node39 -->
<g id="edge59" class="edge">
<title>Node34&#45;&gt;Node39</title>
<path fill="none" stroke="#191970" d="M2081.6859,-204.056C2180.674,-200.7427 2371.8201,-189.8404 2530,-154 2533.2505,-153.2635 2536.5918,-152.3515 2539.9067,-151.3413"/>
<polygon fill="#191970" stroke="#191970" points="2541.2735,-154.5751 2549.6547,-148.0939 2539.0611,-147.934 2541.2735,-154.5751"/>
</g>
<!-- Node40 -->
<g id="node41" class="node">
<title>Node40</title>
<g id="a_node41"><a xlink:href="../../d5/d5e/GeometryBase_8h.html" target="_top" xlink:title="EMCALBase/GeometryBase.h">
<polygon fill="none" stroke="#000000" points="2030,-129 2030,-148 2188,-148 2188,-129 2030,-129"/>
<text text-anchor="middle" x="2109" y="-136" font-family="Helvetica,sans-Serif" font-size="10.00" fill="#000000">EMCALBase/GeometryBase.h</text>
</a>
</g>
</g>
<!-- Node34&#45;&gt;Node40 -->
<g id="edge61" class="edge">
<title>Node34&#45;&gt;Node40</title>
<path fill="none" stroke="#191970" d="M2028.4679,-195.9005C2043.8244,-184.9549 2069.1463,-166.9064 2087.2976,-153.9688"/>
<polygon fill="#191970" stroke="#191970" points="2089.4454,-156.736 2095.5571,-148.0817 2085.3824,-151.0358 2089.4454,-156.736"/>
</g>
<!-- Node40&#45;&gt;Node6 -->
<g id="edge62" class="edge">
<title>Node40&#45;&gt;Node6</title>
<path fill="none" stroke="#191970" d="M2157.2625,-128.9282C2170.1299,-126.6701 2184.0545,-124.4893 2197,-123 2487.5217,-89.5762 2571.3303,-161.9522 2854,-87 2855.9193,-86.4911 2857.859,-85.8558 2859.7818,-85.1352"/>
<polygon fill="#191970" stroke="#191970" points="2861.3604,-88.2639 2869.0836,-81.0111 2858.5232,-81.8646 2861.3604,-88.2639"/>
</g>
<!-- Node41&#45;&gt;Node1 -->
<g id="edge66" class="edge">
<title>Node41&#45;&gt;Node1</title>
<path fill="none" stroke="#191970" d="M1416.9604,-257.2906C1407.5181,-248.536 1394.0571,-234.9313 1385,-221 1371.9375,-200.9079 1361.9232,-175.127 1356.0179,-157.7768"/>
<polygon fill="#191970" stroke="#191970" points="1359.3173,-156.6057 1352.8815,-148.1897 1352.6643,-158.7823 1359.3173,-156.6057"/>
</g>
<!-- Node41&#45;&gt;Node2 -->
<g id="edge67" class="edge">
<title>Node41&#45;&gt;Node2</title>
<path fill="none" stroke="#191970" d="M1464.3428,-257.3991C1483.0285,-250.4768 1504.284,-239.0857 1516,-221 1528.0888,-202.3389 1527.3751,-176.0428 1524.9282,-158.1913"/>
<polygon fill="#191970" stroke="#191970" points="1528.3382,-157.3621 1523.2336,-148.078 1521.4344,-158.5189 1528.3382,-157.3621"/>
</g>
<!-- Node41&#45;&gt;Node3 -->
<g id="edge68" class="edge">
<title>Node41&#45;&gt;Node3</title>
<path fill="none" stroke="#191970" d="M1425.4985,-257.3622C1418.0183,-228.9646 1395.3888,-146.1543 1380,-123 1351.8945,-80.7119 1303.9856,-44.6176 1275.1319,-25.2322"/>
<polygon fill="#191970" stroke="#191970" points="1276.7598,-22.1136 1266.4826,-19.5387 1272.911,-27.9605 1276.7598,-22.1136"/>
</g>
<!-- Node41&#45;&gt;Node4 -->
<g id="edge70" class="edge">
<title>Node41&#45;&gt;Node4</title>
<path fill="none" stroke="#191970" d="M1367.6402,-257.4803C1309.9282,-248.3255 1220.4795,-233.999 1143,-221 1134.9725,-219.6532 1126.542,-218.2154 1118.2018,-216.7789"/>
<polygon fill="#191970" stroke="#191970" points="1118.5567,-213.2884 1108.1066,-215.0336 1117.3641,-220.1861 1118.5567,-213.2884"/>
</g>
<!-- Node41&#45;&gt;Node14 -->
<g id="edge71" class="edge">
<title>Node41&#45;&gt;Node14</title>
<path fill="none" stroke="#191970" d="M1350.9708,-261.5423C1188.6356,-250.0404 812.5081,-223.3908 644.135,-211.4612"/>
<polygon fill="#191970" stroke="#191970" points="644.3023,-207.9643 634.0799,-210.7487 643.8075,-214.9468 644.3023,-207.9643"/>
</g>
<!-- Node41&#45;&gt;Node20 -->
<g id="edge72" class="edge">
<title>Node41&#45;&gt;Node20</title>
<path fill="none" stroke="#191970" d="M1395.9688,-257.3906C1360.6154,-246.7846 1303.5843,-229.6753 1264.7522,-218.0257"/>
<polygon fill="#191970" stroke="#191970" points="1265.3903,-214.5631 1254.8063,-215.0419 1263.3788,-221.2678 1265.3903,-214.5631"/>
</g>
<!-- Node41&#45;&gt;Node22 -->
<g id="edge73" class="edge">
<title>Node41&#45;&gt;Node22</title>
<path fill="none" stroke="#191970" d="M1467.0985,-257.4581C1504.7069,-248.2799 1562.4544,-234.1867 1608.3229,-222.9926"/>
<polygon fill="#191970" stroke="#191970" points="1609.3302,-226.3496 1618.2152,-220.5784 1607.6705,-219.5492 1609.3302,-226.3496"/>
</g>
<!-- Node41&#45;&gt;Node24 -->
<g id="edge75" class="edge">
<title>Node41&#45;&gt;Node24</title>
<path fill="none" stroke="#191970" d="M1505.2426,-259.9974C1590.159,-251.691 1720.81,-236.947 1768,-221 1815.3317,-205.0052 1864.713,-173.1072 1891.891,-154.0004"/>
<polygon fill="#191970" stroke="#191970" points="1894.1169,-156.7118 1900.2217,-148.0526 1890.0494,-151.0148 1894.1169,-156.7118"/>
</g>
<!-- Node41&#45;&gt;Node34 -->
<g id="edge74" class="edge">
<title>Node41&#45;&gt;Node34</title>
<path fill="none" stroke="#191970" d="M1505.0416,-258.9284C1617.549,-247.1409 1825.6059,-225.3428 1938.0573,-213.5613"/>
<polygon fill="#191970" stroke="#191970" points="1938.7228,-217.0108 1948.3037,-212.4878 1937.9934,-210.0489 1938.7228,-217.0108"/>
</g>
<!-- Node42 -->
<g id="node43" class="node">
<title>Node42</title>
<polygon fill="none" stroke="#bfbfbf" points="1427.5,-196 1427.5,-215 1506.5,-215 1506.5,-196 1427.5,-196"/>
<text text-anchor="middle" x="1467" y="-203" font-family="Helvetica,sans-Serif" font-size="10.00" fill="#000000">fmt/format.h</text>
</g>
<!-- Node41&#45;&gt;Node42 -->
<g id="edge69" class="edge">
<title>Node41&#45;&gt;Node42</title>
<path fill="none" stroke="#191970" d="M1434.0938,-257.3906C1439.7843,-248.417 1448.4272,-234.7879 1455.4274,-223.7491"/>
<polygon fill="#191970" stroke="#191970" points="1458.4207,-225.5644 1460.8203,-215.2449 1452.5091,-221.8155 1458.4207,-225.5644"/>
</g>
</g>
</svg>
