<?xml version="1.0" encoding="UTF-8" standalone="no"?>
<!DOCTYPE svg PUBLIC "-//W3C//DTD SVG 1.1//EN"
 "http://www.w3.org/Graphics/SVG/1.1/DTD/svg11.dtd">
<!-- Generated by graphviz version 2.40.1 (20161225.0304)
 -->
<!-- Title: /home/travis/build/AliceO2Group/AliceO2/Detectors/ITSMFT/MFT/base/src/Flex.cxx Pages: 1 -->
<svg width="2256pt" height="296pt"
 viewBox="0.00 0.00 2256.00 296.00" xmlns="http://www.w3.org/2000/svg" xmlns:xlink="http://www.w3.org/1999/xlink">
<g id="graph0" class="graph" transform="scale(1 1) rotate(0) translate(4 292)">
<title>/home/travis/build/AliceO2Group/AliceO2/Detectors/ITSMFT/MFT/base/src/Flex.cxx</title>
<!-- Node0 -->
<g id="node1" class="node">
<title>Node0</title>
<polygon fill="#bfbfbf" stroke="#000000" points="787.5,-235.5 787.5,-287.5 914.5,-287.5 914.5,-235.5 787.5,-235.5"/>
<text text-anchor="start" x="795.5" y="-275.5" font-family="Helvetica,sans-Serif" font-size="10.00" fill="#000000">/home/travis/build</text>
<text text-anchor="start" x="795.5" y="-264.5" font-family="Helvetica,sans-Serif" font-size="10.00" fill="#000000">/AliceO2Group/AliceO2</text>
<text text-anchor="start" x="795.5" y="-253.5" font-family="Helvetica,sans-Serif" font-size="10.00" fill="#000000">/Detectors/ITSMFT/MFT</text>
<text text-anchor="middle" x="851" y="-242.5" font-family="Helvetica,sans-Serif" font-size="10.00" fill="#000000">/base/src/Flex.cxx</text>
</g>
<!-- Node1 -->
<g id="node2" class="node">
<title>Node1</title>
<polygon fill="none" stroke="#bfbfbf" points="15,-179.5 15,-198.5 107,-198.5 107,-179.5 15,-179.5"/>
<text text-anchor="middle" x="61" y="-186.5" font-family="Helvetica,sans-Serif" font-size="10.00" fill="#000000">TGeoManager.h</text>
</g>
<!-- Node0&#45;&gt;Node1 -->
<g id="edge1" class="edge">
<title>Node0&#45;&gt;Node1</title>
<path fill="none" stroke="#191970" d="M787.3509,-257.7642C660.3261,-249.9306 366.4646,-229.9133 121,-199 119.7329,-198.8404 118.4516,-198.6736 117.1602,-198.5006"/>
<polygon fill="#191970" stroke="#191970" points="117.5275,-195.0176 107.1334,-197.07 116.5387,-201.9474 117.5275,-195.0176"/>
</g>
<!-- Node2 -->
<g id="node3" class="node">
<title>Node2</title>
<polygon fill="none" stroke="#bfbfbf" points="0,-123.5 0,-142.5 88,-142.5 88,-123.5 0,-123.5"/>
<text text-anchor="middle" x="44" y="-130.5" font-family="Helvetica,sans-Serif" font-size="10.00" fill="#000000">TGeoVolume.h</text>
</g>
<!-- Node0&#45;&gt;Node2 -->
<g id="edge2" class="edge">
<title>Node0&#45;&gt;Node2</title>
<path fill="none" stroke="#191970" d="M787.4491,-259.4342C638.5488,-254.0112 270.8892,-237.0786 154,-199 144.7886,-195.9992 97.2817,-166.5873 67.7927,-148.0531"/>
<polygon fill="#191970" stroke="#191970" points="69.6084,-145.0604 59.2817,-142.6916 65.8773,-150.9832 69.6084,-145.0604"/>
</g>
<!-- Node3 -->
<g id="node4" class="node">
<title>Node3</title>
<polygon fill="none" stroke="#bfbfbf" points="889.5,-179.5 889.5,-198.5 960.5,-198.5 960.5,-179.5 889.5,-179.5"/>
<text text-anchor="middle" x="925" y="-186.5" font-family="Helvetica,sans-Serif" font-size="10.00" fill="#000000">TGeoTrd2.h</text>
</g>
<!-- Node0&#45;&gt;Node3 -->
<g id="edge3" class="edge">
<title>Node0&#45;&gt;Node3</title>
<path fill="none" stroke="#191970" d="M877.7157,-235.3258C887.8339,-225.4127 899.0668,-214.4075 908.0445,-205.6118"/>
<polygon fill="#191970" stroke="#191970" points="910.575,-208.0324 915.2687,-198.534 905.6762,-203.0322 910.575,-208.0324"/>
</g>
<!-- Node4 -->
<g id="node5" class="node">
<title>Node4</title>
<polygon fill="none" stroke="#bfbfbf" points="679,-.5 679,-19.5 761,-19.5 761,-.5 679,-.5"/>
<text text-anchor="middle" x="720" y="-7.5" font-family="Helvetica,sans-Serif" font-size="10.00" fill="#000000">TGeoMatrix.h</text>
</g>
<!-- Node0&#45;&gt;Node4 -->
<g id="edge4" class="edge">
<title>Node0&#45;&gt;Node4</title>
<path fill="none" stroke="#191970" d="M787.0411,-246.8607C742.7067,-235.2683 689.3341,-217.9212 676,-199 660.299,-176.7202 691.0309,-168.3679 701,-143 715.9371,-104.9905 719.3297,-56.759 719.9822,-30.0682"/>
<polygon fill="#191970" stroke="#191970" points="723.4862,-29.7829 720.1203,-19.7369 716.4868,-29.6892 723.4862,-29.7829"/>
</g>
<!-- Node5 -->
<g id="node6" class="node">
<title>Node5</title>
<polygon fill="none" stroke="#bfbfbf" points="978.5,-179.5 978.5,-198.5 1055.5,-198.5 1055.5,-179.5 978.5,-179.5"/>
<text text-anchor="middle" x="1017" y="-186.5" font-family="Helvetica,sans-Serif" font-size="10.00" fill="#000000">TGeoBBox.h</text>
</g>
<!-- Node0&#45;&gt;Node5 -->
<g id="edge5" class="edge">
<title>Node0&#45;&gt;Node5</title>
<path fill="none" stroke="#191970" d="M910.9298,-235.3258C936.2641,-224.2612 964.7133,-211.8361 985.7662,-202.6413"/>
<polygon fill="#191970" stroke="#191970" points="987.4072,-205.7439 995.1704,-198.534 984.6055,-199.329 987.4072,-205.7439"/>
</g>
<!-- Node6 -->
<g id="node7" class="node">
<title>Node6</title>
<polygon fill="none" stroke="#bfbfbf" points="1074,-179.5 1074,-198.5 1148,-198.5 1148,-179.5 1074,-179.5"/>
<text text-anchor="middle" x="1111" y="-186.5" font-family="Helvetica,sans-Serif" font-size="10.00" fill="#000000">TGeoTube.h</text>
</g>
<!-- Node0&#45;&gt;Node6 -->
<g id="edge6" class="edge">
<title>Node0&#45;&gt;Node6</title>
<path fill="none" stroke="#191970" d="M914.6032,-243.7645C961.8243,-230.5971 1025.0224,-212.9745 1066.8224,-201.3188"/>
<polygon fill="#191970" stroke="#191970" points="1068.0121,-204.6206 1076.7045,-198.5632 1066.1319,-197.8778 1068.0121,-204.6206"/>
</g>
<!-- Node7 -->
<g id="node8" class="node">
<title>Node7</title>
<polygon fill="none" stroke="#bfbfbf" points="1166,-179.5 1166,-198.5 1300,-198.5 1300,-179.5 1166,-179.5"/>
<text text-anchor="middle" x="1233" y="-186.5" font-family="Helvetica,sans-Serif" font-size="10.00" fill="#000000">TGeoCompositeShape.h</text>
</g>
<!-- Node0&#45;&gt;Node7 -->
<g id="edge7" class="edge">
<title>Node0&#45;&gt;Node7</title>
<path fill="none" stroke="#191970" d="M914.5083,-249.4467C986.2929,-235.8227 1102.2946,-213.8066 1172.7202,-200.4405"/>
<polygon fill="#191970" stroke="#191970" points="1173.5975,-203.8366 1182.7695,-198.5333 1172.2922,-196.9594 1173.5975,-203.8366"/>
</g>
<!-- Node8 -->
<g id="node9" class="node">
<title>Node8</title>
<polygon fill="none" stroke="#bfbfbf" points="1318,-179.5 1318,-198.5 1416,-198.5 1416,-179.5 1318,-179.5"/>
<text text-anchor="middle" x="1367" y="-186.5" font-family="Helvetica,sans-Serif" font-size="10.00" fill="#000000">TGeoBoolNode.h</text>
</g>
<!-- Node0&#45;&gt;Node8 -->
<g id="edge8" class="edge">
<title>Node0&#45;&gt;Node8</title>
<path fill="none" stroke="#191970" d="M914.8219,-253.5096C1001.4253,-242.507 1161.2366,-221.6376 1307.8853,-199.1315"/>
<polygon fill="#191970" stroke="#191970" points="1308.6216,-202.5594 1317.9721,-197.5776 1307.5558,-195.641 1308.6216,-202.5594"/>
</g>
<!-- Node9 -->
<g id="node10" class="node">
<title>Node9</title>
<polygon fill="none" stroke="#bfbfbf" points="1434,-179.5 1434,-198.5 1490,-198.5 1490,-179.5 1434,-179.5"/>
<text text-anchor="middle" x="1462" y="-186.5" font-family="Helvetica,sans-Serif" font-size="10.00" fill="#000000">TMath.h</text>
</g>
<!-- Node0&#45;&gt;Node9 -->
<g id="edge9" class="edge">
<title>Node0&#45;&gt;Node9</title>
<path fill="none" stroke="#191970" d="M914.7527,-257.807C1019.3769,-251.0351 1234.0296,-234.1551 1423.94,-198.953"/>
<polygon fill="#191970" stroke="#191970" points="1424.639,-202.383 1433.8228,-197.1001 1423.349,-195.5029 1424.639,-202.383"/>
</g>
<!-- Node10 -->
<g id="node11" class="node">
<title>Node10</title>
<polygon fill="none" stroke="#bfbfbf" points="1508.5,-179.5 1508.5,-198.5 1583.5,-198.5 1583.5,-179.5 1508.5,-179.5"/>
<text text-anchor="middle" x="1546" y="-186.5" font-family="Helvetica,sans-Serif" font-size="10.00" fill="#000000">FairLogger.h</text>
</g>
<!-- Node0&#45;&gt;Node10 -->
<g id="edge10" class="edge">
<title>Node0&#45;&gt;Node10</title>
<path fill="none" stroke="#191970" d="M914.7633,-257.7592C1029.518,-250.5007 1278.519,-232.352 1498.2493,-198.9524"/>
<polygon fill="#191970" stroke="#191970" points="1499.0056,-202.3774 1508.3593,-197.4016 1497.9442,-195.4584 1499.0056,-202.3774"/>
</g>
<!-- Node11 -->
<g id="node12" class="node">
<title>Node11</title>
<g id="a_node12"><a xlink:href="../../d9/de7/LadderSegmentation_8h.html" target="_top" xlink:title="Description of the virtual segmentation of a ladder. ">
<polygon fill="none" stroke="#000000" points="415.5,-179.5 415.5,-198.5 588.5,-198.5 588.5,-179.5 415.5,-179.5"/>
<text text-anchor="middle" x="502" y="-186.5" font-family="Helvetica,sans-Serif" font-size="10.00" fill="#000000">MFTBase/LadderSegmentation.h</text>
</a>
</g>
</g>
<!-- Node0&#45;&gt;Node11 -->
<g id="edge11" class="edge">
<title>Node0&#45;&gt;Node11</title>
<path fill="none" stroke="#191970" d="M787.3938,-248.2867C721.8372,-234.6682 620.6261,-213.643 558.0041,-200.6341"/>
<polygon fill="#191970" stroke="#191970" points="558.42,-197.1458 547.9172,-198.5387 556.9962,-203.9995 558.42,-197.1458"/>
</g>
<!-- Node16 -->
<g id="node17" class="node">
<title>Node16</title>
<g id="a_node17"><a xlink:href="../../d3/dbd/ChipSegmentation_8h.html" target="_top" xlink:title="Chip (sensor) segmentation description. ">
<polygon fill="none" stroke="#000000" points="530,-123.5 530,-142.5 692,-142.5 692,-123.5 530,-123.5"/>
<text text-anchor="middle" x="611" y="-130.5" font-family="Helvetica,sans-Serif" font-size="10.00" fill="#000000">MFTBase/ChipSegmentation.h</text>
</a>
</g>
</g>
<!-- Node0&#45;&gt;Node16 -->
<g id="edge19" class="edge">
<title>Node0&#45;&gt;Node16</title>
<path fill="none" stroke="#191970" d="M787.4858,-248.3145C734.7362,-236.3162 664.9213,-217.6757 643,-199 628.8038,-186.9057 620.3775,-167.0489 615.7655,-152.2694"/>
<polygon fill="#191970" stroke="#191970" points="619.1213,-151.2736 613.0534,-142.5885 612.3809,-153.162 619.1213,-151.2736"/>
</g>
<!-- Node17 -->
<g id="node18" class="node">
<title>Node17</title>
<g id="a_node18"><a xlink:href="../../d2/d8d/Flex_8h.html" target="_top" xlink:title="Flex (Printed Cabled Board) class for ALICE MFT upgrade. ">
<polygon fill="none" stroke="#000000" points="1602,-179.5 1602,-198.5 1694,-198.5 1694,-179.5 1602,-179.5"/>
<text text-anchor="middle" x="1648" y="-186.5" font-family="Helvetica,sans-Serif" font-size="10.00" fill="#000000">MFTBase/Flex.h</text>
</a>
</g>
</g>
<!-- Node0&#45;&gt;Node17 -->
<g id="edge20" class="edge">
<title>Node0&#45;&gt;Node17</title>
<path fill="none" stroke="#191970" d="M914.7447,-258.1944C1041.6929,-251.1625 1335.2308,-232.6613 1591.5832,-199.0787"/>
<polygon fill="#191970" stroke="#191970" points="1592.3814,-202.5037 1601.8371,-197.7246 1591.465,-195.564 1592.3814,-202.5037"/>
</g>
<!-- Node18 -->
<g id="node19" class="node">
<title>Node18</title>
<g id="a_node19"><a xlink:href="../../d0/d12/Ladder_8h.html" target="_top" xlink:title="Class building the Ladder geometry. ">
<polygon fill="none" stroke="#000000" points="163,-179.5 163,-198.5 267,-198.5 267,-179.5 163,-179.5"/>
<text text-anchor="middle" x="215" y="-186.5" font-family="Helvetica,sans-Serif" font-size="10.00" fill="#000000">MFTBase/Ladder.h</text>
</a>
</g>
</g>
<!-- Node0&#45;&gt;Node18 -->
<g id="edge21" class="edge">
<title>Node0&#45;&gt;Node18</title>
<path fill="none" stroke="#191970" d="M787.212,-255.3705C681.7246,-245.04 464.3614,-222.9334 281,-199 279.7395,-198.8355 278.4659,-198.6667 277.1825,-198.4943"/>
<polygon fill="#191970" stroke="#191970" points="277.5963,-195.0183 267.2107,-197.1135 276.6361,-201.9521 277.5963,-195.0183"/>
</g>
<!-- Node19 -->
<g id="node20" class="node">
<title>Node19</title>
<g id="a_node20"><a xlink:href="../../d6/d2e/ITSMFT_2MFT_2base_2include_2MFTBase_2Geometry_8h.html" target="_top" xlink:title="MFTBase/Geometry.h">
<polygon fill="none" stroke="#000000" points="144.5,-123.5 144.5,-142.5 263.5,-142.5 263.5,-123.5 144.5,-123.5"/>
<text text-anchor="middle" x="204" y="-130.5" font-family="Helvetica,sans-Serif" font-size="10.00" fill="#000000">MFTBase/Geometry.h</text>
</a>
</g>
</g>
<!-- Node0&#45;&gt;Node19 -->
<g id="edge24" class="edge">
<title>Node0&#45;&gt;Node19</title>
<path fill="none" stroke="#191970" d="M787.4985,-256.0761C700.7425,-247.871 540.6762,-229.8901 407,-199 346.4185,-185.0007 278.0494,-161.0017 238.123,-146.1238"/>
<polygon fill="#191970" stroke="#191970" points="239.1992,-142.7894 228.6071,-142.5495 236.7377,-149.3423 239.1992,-142.7894"/>
</g>
<!-- Node20 -->
<g id="node21" class="node">
<title>Node20</title>
<g id="a_node21"><a xlink:href="../../d3/dba/SegmentationAlpide_8h.html" target="_top" xlink:title="Definition of the SegmentationAlpide class. ">
<polygon fill="none" stroke="#000000" points="685,-179.5 685,-198.5 871,-198.5 871,-179.5 685,-179.5"/>
<text text-anchor="middle" x="778" y="-186.5" font-family="Helvetica,sans-Serif" font-size="10.00" fill="#000000">ITSMFTBase/SegmentationAlpide.h</text>
</a>
</g>
</g>
<!-- Node0&#45;&gt;Node20 -->
<g id="edge26" class="edge">
<title>Node0&#45;&gt;Node20</title>
<path fill="none" stroke="#191970" d="M824.6453,-235.3258C814.6638,-225.4127 803.5828,-214.4075 794.7264,-205.6118"/>
<polygon fill="#191970" stroke="#191970" points="797.1615,-203.0974 787.5998,-198.534 792.2287,-208.0641 797.1615,-203.0974"/>
</g>
<!-- Node12 -->
<g id="node13" class="node">
<title>Node12</title>
<polygon fill="none" stroke="#bfbfbf" points="281.5,-123.5 281.5,-142.5 370.5,-142.5 370.5,-123.5 281.5,-123.5"/>
<text text-anchor="middle" x="326" y="-130.5" font-family="Helvetica,sans-Serif" font-size="10.00" fill="#000000">TClonesArray.h</text>
</g>
<!-- Node11&#45;&gt;Node12 -->
<g id="edge12" class="edge">
<title>Node11&#45;&gt;Node12</title>
<path fill="none" stroke="#191970" d="M471.7445,-179.3733C442.3517,-170.021 397.5708,-155.7725 365.4066,-145.5385"/>
<polygon fill="#191970" stroke="#191970" points="366.4512,-142.198 355.8607,-142.5011 364.3287,-148.8685 366.4512,-142.198"/>
</g>
<!-- Node13 -->
<g id="node14" class="node">
<title>Node13</title>
<polygon fill="none" stroke="#bfbfbf" points="388.5,-123.5 388.5,-142.5 473.5,-142.5 473.5,-123.5 388.5,-123.5"/>
<text text-anchor="middle" x="431" y="-130.5" font-family="Helvetica,sans-Serif" font-size="10.00" fill="#000000">TXMLEngine.h</text>
</g>
<!-- Node11&#45;&gt;Node13 -->
<g id="edge13" class="edge">
<title>Node11&#45;&gt;Node13</title>
<path fill="none" stroke="#191970" d="M489.6327,-179.2455C479.0446,-170.8943 463.5936,-158.7076 451.2107,-148.9408"/>
<polygon fill="#191970" stroke="#191970" points="453.2447,-146.0875 443.2255,-142.6427 448.9097,-151.5837 453.2447,-146.0875"/>
</g>
<!-- Node14 -->
<g id="node15" class="node">
<title>Node14</title>
<g id="a_node15"><a xlink:href="../../d3/de7/VSegmentation_8h.html" target="_top" xlink:title="Abstract base class for MFT Segmentation description. ">
<polygon fill="none" stroke="#000000" points="483.5,-62 483.5,-81 630.5,-81 630.5,-62 483.5,-62"/>
<text text-anchor="middle" x="557" y="-69" font-family="Helvetica,sans-Serif" font-size="10.00" fill="#000000">MFTBase/VSegmentation.h</text>
</a>
</g>
</g>
<!-- Node11&#45;&gt;Node14 -->
<g id="edge14" class="edge">
<title>Node11&#45;&gt;Node14</title>
<path fill="none" stroke="#191970" d="M503.7592,-179.2413C506.3714,-166.0329 511.963,-141.9402 521,-123 526.7546,-110.9392 535.2451,-98.6286 542.5354,-89.069"/>
<polygon fill="#191970" stroke="#191970" points="545.3368,-91.1688 548.7803,-81.1492 539.8401,-86.8345 545.3368,-91.1688"/>
</g>
<!-- Node11&#45;&gt;Node16 -->
<g id="edge17" class="edge">
<title>Node11&#45;&gt;Node16</title>
<path fill="none" stroke="#191970" d="M520.9864,-179.2455C538.1792,-170.4125 563.7238,-157.2887 583.2132,-147.2758"/>
<polygon fill="#191970" stroke="#191970" points="584.9359,-150.3257 592.2312,-142.6427 581.737,-144.0993 584.9359,-150.3257"/>
</g>
<!-- Node14&#45;&gt;Node4 -->
<g id="edge16" class="edge">
<title>Node14&#45;&gt;Node4</title>
<path fill="none" stroke="#191970" d="M582.4688,-61.8906C610.1005,-51.4652 654.3869,-34.7559 685.2128,-23.1252"/>
<polygon fill="#191970" stroke="#191970" points="686.5894,-26.3467 694.7101,-19.5419 684.1183,-19.7974 686.5894,-26.3467"/>
</g>
<!-- Node15 -->
<g id="node16" class="node">
<title>Node15</title>
<polygon fill="none" stroke="#bfbfbf" points="170.5,-.5 170.5,-19.5 237.5,-19.5 237.5,-.5 170.5,-.5"/>
<text text-anchor="middle" x="204" y="-7.5" font-family="Helvetica,sans-Serif" font-size="10.00" fill="#000000">TNamed.h</text>
</g>
<!-- Node14&#45;&gt;Node15 -->
<g id="edge15" class="edge">
<title>Node14&#45;&gt;Node15</title>
<path fill="none" stroke="#191970" d="M502.2311,-61.9581C432.1561,-49.7496 312.1673,-28.845 247.8198,-17.6343"/>
<polygon fill="#191970" stroke="#191970" points="248.061,-14.1237 237.6086,-15.8553 246.8595,-21.0198 248.061,-14.1237"/>
</g>
<!-- Node16&#45;&gt;Node14 -->
<g id="edge18" class="edge">
<title>Node16&#45;&gt;Node14</title>
<path fill="none" stroke="#191970" d="M602.5625,-123.3906C594.4469,-114.1478 581.9945,-99.966 572.1576,-88.7628"/>
<polygon fill="#191970" stroke="#191970" points="574.7846,-86.45 565.5565,-81.2449 569.5245,-91.0686 574.7846,-86.45"/>
</g>
<!-- Node18&#45;&gt;Node2 -->
<g id="edge23" class="edge">
<title>Node18&#45;&gt;Node2</title>
<path fill="none" stroke="#191970" d="M185.6041,-179.3733C157.1693,-170.0613 113.9123,-155.8953 82.6919,-145.671"/>
<polygon fill="#191970" stroke="#191970" points="83.605,-142.2872 73.0124,-142.5011 81.4264,-148.9396 83.605,-142.2872"/>
</g>
<!-- Node18&#45;&gt;Node15 -->
<g id="edge22" class="edge">
<title>Node18&#45;&gt;Node15</title>
<path fill="none" stroke="#191970" d="M183.11,-179.4777C165.5823,-172.43 145.3495,-160.8893 135,-143 111.1696,-101.8086 156.6349,-51.5695 184.5259,-26.2493"/>
<polygon fill="#191970" stroke="#191970" points="186.9894,-28.7438 192.1882,-19.5122 182.3672,-23.4869 186.9894,-28.7438"/>
</g>
<!-- Node19&#45;&gt;Node15 -->
<g id="edge25" class="edge">
<title>Node19&#45;&gt;Node15</title>
<path fill="none" stroke="#191970" d="M204,-123.3484C204,-103.2295 204,-56.4608 204,-29.7098"/>
<polygon fill="#191970" stroke="#191970" points="207.5001,-29.6067 204,-19.6068 200.5001,-29.6068 207.5001,-29.6067"/>
</g>
<!-- Node21 -->
<g id="node22" class="node">
<title>Node21</title>
<polygon fill="none" stroke="#bfbfbf" points="748.5,-62 748.5,-81 807.5,-81 807.5,-62 748.5,-62"/>
<text text-anchor="middle" x="778" y="-69" font-family="Helvetica,sans-Serif" font-size="10.00" fill="#000000">Rtypes.h</text>
</g>
<!-- Node20&#45;&gt;Node21 -->
<g id="edge27" class="edge">
<title>Node20&#45;&gt;Node21</title>
<path fill="none" stroke="#191970" d="M778,-179.3845C778,-160.1913 778,-116.786 778,-91.2663"/>
<polygon fill="#191970" stroke="#191970" points="781.5001,-91.2483 778,-81.2484 774.5001,-91.2484 781.5001,-91.2483"/>
</g>
<!-- Node22 -->
<g id="node23" class="node">
<title>Node22</title>
<g id="a_node23"><a xlink:href="../../dc/d73/Cartesian_8h.html" target="_top" xlink:title="MathUtils/Cartesian.h">
<polygon fill="none" stroke="#000000" points="1370,-123.5 1370,-142.5 1492,-142.5 1492,-123.5 1370,-123.5"/>
<text text-anchor="middle" x="1431" y="-130.5" font-family="Helvetica,sans-Serif" font-size="10.00" fill="#000000">MathUtils/Cartesian.h</text>
</a>
</g>
</g>
<!-- Node20&#45;&gt;Node22 -->
<g id="edge28" class="edge">
<title>Node20&#45;&gt;Node22</title>
<path fill="none" stroke="#191970" d="M871.1927,-179.896C874.5022,-179.5906 877.7792,-179.291 881,-179 1052.7809,-163.4783 1254.9164,-147.0415 1359.7875,-138.6507"/>
<polygon fill="#191970" stroke="#191970" points="1360.2465,-142.1253 1369.9358,-137.8396 1359.6887,-135.1475 1360.2465,-142.1253"/>
</g>
<!-- Node22&#45;&gt;Node4 -->
<g id="edge37" class="edge">
<title>Node22&#45;&gt;Node4</title>
<path fill="none" stroke="#191970" d="M1441.4122,-123.3189C1457.2334,-107.4775 1483.618,-75.803 1465,-56 1441.2503,-30.7386 936.3721,-15.5615 771.545,-11.2658"/>
<polygon fill="#191970" stroke="#191970" points="771.2756,-7.7578 761.1886,-10.9986 771.095,-14.7555 771.2756,-7.7578"/>
</g>
<!-- Node22&#45;&gt;Node21 -->
<g id="edge36" class="edge">
<title>Node22&#45;&gt;Node21</title>
<path fill="none" stroke="#191970" d="M1369.9129,-130.7766C1236.1431,-125.5255 920.9695,-110.9642 817,-87 814.1379,-86.3403 811.2101,-85.504 808.3083,-84.5631"/>
<polygon fill="#191970" stroke="#191970" points="809.2697,-81.1887 798.6756,-81.0657 806.8807,-87.7684 809.2697,-81.1887"/>
</g>
<!-- Node23 -->
<g id="node24" class="node">
<title>Node23</title>
<polygon fill="none" stroke="#bfbfbf" points="1512,-56.5 1512,-86.5 1676,-86.5 1676,-56.5 1512,-56.5"/>
<text text-anchor="start" x="1520" y="-74.5" font-family="Helvetica,sans-Serif" font-size="10.00" fill="#000000">Math/GenVector/Displacement</text>
<text text-anchor="middle" x="1594" y="-63.5" font-family="Helvetica,sans-Serif" font-size="10.00" fill="#000000">Vector3D.h</text>
</g>
<!-- Node22&#45;&gt;Node23 -->
<g id="edge29" class="edge">
<title>Node22&#45;&gt;Node23</title>
<path fill="none" stroke="#191970" d="M1456.4688,-123.3906C1479.9586,-114.5279 1515.4845,-101.1239 1544.545,-90.1594"/>
<polygon fill="#191970" stroke="#191970" points="1546.0051,-93.3494 1554.1257,-86.5446 1543.534,-86.8001 1546.0051,-93.3494"/>
</g>
<!-- Node24 -->
<g id="node25" class="node">
<title>Node24</title>
<polygon fill="none" stroke="#bfbfbf" points="1694.5,-62 1694.5,-81 1883.5,-81 1883.5,-62 1694.5,-62"/>
<text text-anchor="middle" x="1789" y="-69" font-family="Helvetica,sans-Serif" font-size="10.00" fill="#000000">Math/GenVector/PositionVector3D.h</text>
</g>
<!-- Node22&#45;&gt;Node24 -->
<g id="edge30" class="edge">
<title>Node22&#45;&gt;Node24</title>
<path fill="none" stroke="#191970" d="M1486.5447,-123.4581C1550.5264,-112.4668 1655.5377,-94.4272 1723.4626,-82.7585"/>
<polygon fill="#191970" stroke="#191970" points="1724.3565,-86.1563 1733.6196,-81.0137 1723.1713,-79.2574 1724.3565,-86.1563"/>
</g>
<!-- Node25 -->
<g id="node26" class="node">
<title>Node25</title>
<polygon fill="none" stroke="#bfbfbf" points="1902,-62 1902,-81 2062,-81 2062,-62 1902,-62"/>
<text text-anchor="middle" x="1982" y="-69" font-family="Helvetica,sans-Serif" font-size="10.00" fill="#000000">Math/GenVector/Rotation3D.h</text>
</g>
<!-- Node22&#45;&gt;Node25 -->
<g id="edge31" class="edge">
<title>Node22&#45;&gt;Node25</title>
<path fill="none" stroke="#191970" d="M1492.0772,-128.3511C1580.6575,-121.2843 1749.8465,-106.5656 1893,-87 1902.0153,-85.7678 1911.5154,-84.2981 1920.8174,-82.7617"/>
<polygon fill="#191970" stroke="#191970" points="1921.5232,-86.1922 1930.8011,-81.0765 1920.358,-79.2898 1921.5232,-86.1922"/>
</g>
<!-- Node26 -->
<g id="node27" class="node">
<title>Node26</title>
<polygon fill="none" stroke="#bfbfbf" points="2080,-62 2080,-81 2248,-81 2248,-62 2080,-62"/>
<text text-anchor="middle" x="2164" y="-69" font-family="Helvetica,sans-Serif" font-size="10.00" fill="#000000">Math/GenVector/Transform3D.h</text>
</g>
<!-- Node22&#45;&gt;Node26 -->
<g id="edge32" class="edge">
<title>Node22&#45;&gt;Node26</title>
<path fill="none" stroke="#191970" d="M1492.0684,-130.5121C1606.1291,-125.4436 1859.1681,-112.2095 2071,-87 2080.9961,-85.8104 2091.5567,-84.2978 2101.8336,-82.6861"/>
<polygon fill="#191970" stroke="#191970" points="2102.6691,-86.0967 2111.9845,-81.0496 2101.5549,-79.1859 2102.6691,-86.0967"/>
</g>
<!-- Node27 -->
<g id="node28" class="node">
<title>Node27</title>
<polygon fill="none" stroke="#bfbfbf" points="825.5,-62 825.5,-81 998.5,-81 998.5,-62 825.5,-62"/>
<text text-anchor="middle" x="912" y="-69" font-family="Helvetica,sans-Serif" font-size="10.00" fill="#000000">Math/GenVector/Translation3D.h</text>
</g>
<!-- Node22&#45;&gt;Node27 -->
<g id="edge33" class="edge">
<title>Node22&#45;&gt;Node27</title>
<path fill="none" stroke="#191970" d="M1369.937,-127.3605C1287.5992,-119.5277 1136.477,-104.3458 1008,-87 998.2125,-85.6786 987.8852,-84.1517 977.7758,-82.5823"/>
<polygon fill="#191970" stroke="#191970" points="978.1901,-79.1044 967.7671,-81.0047 977.1002,-86.0191 978.1901,-79.1044"/>
</g>
<!-- Node28 -->
<g id="node29" class="node">
<title>Node28</title>
<polygon fill="none" stroke="#bfbfbf" points="1017,-56.5 1017,-86.5 1181,-86.5 1181,-56.5 1017,-56.5"/>
<text text-anchor="start" x="1025" y="-74.5" font-family="Helvetica,sans-Serif" font-size="10.00" fill="#000000">Math/GenVector/Displacement</text>
<text text-anchor="middle" x="1099" y="-63.5" font-family="Helvetica,sans-Serif" font-size="10.00" fill="#000000">Vector2D.h</text>
</g>
<!-- Node22&#45;&gt;Node28 -->
<g id="edge34" class="edge">
<title>Node22&#45;&gt;Node28</title>
<path fill="none" stroke="#191970" d="M1379.4893,-123.4581C1329.0244,-114.11 1251.0358,-99.6633 1190.0919,-88.374"/>
<polygon fill="#191970" stroke="#191970" points="1190.5501,-84.8994 1180.0799,-86.5193 1189.2751,-91.7823 1190.5501,-84.8994"/>
</g>
<!-- Node29 -->
<g id="node30" class="node">
<title>Node29</title>
<polygon fill="none" stroke="#bfbfbf" points="1199.5,-62 1199.5,-81 1388.5,-81 1388.5,-62 1199.5,-62"/>
<text text-anchor="middle" x="1294" y="-69" font-family="Helvetica,sans-Serif" font-size="10.00" fill="#000000">Math/GenVector/PositionVector2D.h</text>
</g>
<!-- Node22&#45;&gt;Node29 -->
<g id="edge35" class="edge">
<title>Node22&#45;&gt;Node29</title>
<path fill="none" stroke="#191970" d="M1409.5938,-123.3906C1386.7717,-113.1457 1350.4321,-96.8326 1324.5943,-85.2339"/>
<polygon fill="#191970" stroke="#191970" points="1325.8123,-81.9443 1315.2559,-81.0419 1322.9455,-88.3303 1325.8123,-81.9443"/>
</g>
<!-- Node30 -->
<g id="node31" class="node">
<title>Node30</title>
<polygon fill="none" stroke="#bfbfbf" points="1406.5,-62 1406.5,-81 1455.5,-81 1455.5,-62 1406.5,-62"/>
<text text-anchor="middle" x="1431" y="-69" font-family="Helvetica,sans-Serif" font-size="10.00" fill="#000000">iosfwd</text>
</g>
<!-- Node22&#45;&gt;Node30 -->
<g id="edge38" class="edge">
<title>Node22&#45;&gt;Node30</title>
<path fill="none" stroke="#191970" d="M1431,-123.3906C1431,-114.8657 1431,-102.1392 1431,-91.4235"/>
<polygon fill="#191970" stroke="#191970" points="1434.5001,-91.2448 1431,-81.2449 1427.5001,-91.2449 1434.5001,-91.2448"/>
</g>
</g>
</svg>
