<?xml version="1.0" encoding="UTF-8" standalone="no"?>
<!DOCTYPE svg PUBLIC "-//W3C//DTD SVG 1.1//EN"
 "http://www.w3.org/Graphics/SVG/1.1/DTD/svg11.dtd">
<!-- Generated by graphviz version 2.40.1 (20161225.0304)
 -->
<!-- Title: /home/travis/build/AliceO2Group/AliceO2/Detectors/TPC/simulation/src/Point.cxx Pages: 1 -->
<svg width="2097pt" height="307pt"
 viewBox="0.00 0.00 2097.00 307.00" xmlns="http://www.w3.org/2000/svg" xmlns:xlink="http://www.w3.org/1999/xlink">
<g id="graph0" class="graph" transform="scale(1 1) rotate(0) translate(4 303)">
<title>/home/travis/build/AliceO2Group/AliceO2/Detectors/TPC/simulation/src/Point.cxx</title>
<!-- Node0 -->
<g id="node1" class="node">
<title>Node0</title>
<polygon fill="#bfbfbf" stroke="#000000" points="1453.5,-246.5 1453.5,-298.5 1596.5,-298.5 1596.5,-246.5 1453.5,-246.5"/>
<text text-anchor="start" x="1461.5" y="-286.5" font-family="Helvetica,sans-Serif" font-size="10.00" fill="#000000">/home/travis/build</text>
<text text-anchor="start" x="1461.5" y="-275.5" font-family="Helvetica,sans-Serif" font-size="10.00" fill="#000000">/AliceO2Group/AliceO2</text>
<text text-anchor="start" x="1461.5" y="-264.5" font-family="Helvetica,sans-Serif" font-size="10.00" fill="#000000">/Detectors/TPC/simulation</text>
<text text-anchor="middle" x="1525" y="-253.5" font-family="Helvetica,sans-Serif" font-size="10.00" fill="#000000">/src/Point.cxx</text>
</g>
<!-- Node1 -->
<g id="node2" class="node">
<title>Node1</title>
<g id="a_node2"><a xlink:href="../../d4/de5/Point_8h.html" target="_top" xlink:title="Class for TPC Point. ">
<polygon fill="none" stroke="#000000" points="1407.5,-190.5 1407.5,-209.5 1532.5,-209.5 1532.5,-190.5 1407.5,-190.5"/>
<text text-anchor="middle" x="1470" y="-197.5" font-family="Helvetica,sans-Serif" font-size="10.00" fill="#000000">TPCSimulation/Point.h</text>
</a>
</g>
</g>
<!-- Node0&#45;&gt;Node1 -->
<g id="edge1" class="edge">
<title>Node0&#45;&gt;Node1</title>
<path fill="none" stroke="#191970" d="M1505.1437,-246.3258C1497.9273,-236.8132 1489.948,-226.2951 1483.4189,-217.6886"/>
<polygon fill="#191970" stroke="#191970" points="1486.065,-215.3856 1477.2327,-209.534 1480.4882,-219.6163 1486.065,-215.3856"/>
</g>
<!-- Node23 -->
<g id="node24" class="node">
<title>Node23</title>
<polygon fill="none" stroke="#bfbfbf" points="1551,-190.5 1551,-209.5 1611,-209.5 1611,-190.5 1551,-190.5"/>
<text text-anchor="middle" x="1581" y="-197.5" font-family="Helvetica,sans-Serif" font-size="10.00" fill="#000000">iostream</text>
</g>
<!-- Node0&#45;&gt;Node23 -->
<g id="edge23" class="edge">
<title>Node0&#45;&gt;Node23</title>
<path fill="none" stroke="#191970" d="M1545.2173,-246.3258C1552.565,-236.8132 1560.6893,-226.2951 1567.3371,-217.6886"/>
<polygon fill="#191970" stroke="#191970" points="1570.2928,-219.5876 1573.6358,-209.534 1564.7529,-215.3085 1570.2928,-219.5876"/>
</g>
<!-- Node2 -->
<g id="node3" class="node">
<title>Node2</title>
<g id="a_node3"><a xlink:href="../../d4/d25/BaseHits_8h.html" target="_top" xlink:title="SimulationDataFormat\l/BaseHits.h">
<polygon fill="none" stroke="#000000" points="1100.5,-123.5 1100.5,-153.5 1227.5,-153.5 1227.5,-123.5 1100.5,-123.5"/>
<text text-anchor="start" x="1108.5" y="-141.5" font-family="Helvetica,sans-Serif" font-size="10.00" fill="#000000">SimulationDataFormat</text>
<text text-anchor="middle" x="1164" y="-130.5" font-family="Helvetica,sans-Serif" font-size="10.00" fill="#000000">/BaseHits.h</text>
</a>
</g>
</g>
<!-- Node1&#45;&gt;Node2 -->
<g id="edge2" class="edge">
<title>Node1&#45;&gt;Node2</title>
<path fill="none" stroke="#191970" d="M1422.5232,-190.4581C1373.1142,-180.5279 1295.0792,-164.8443 1237.6579,-153.3038"/>
<polygon fill="#191970" stroke="#191970" points="1238.0422,-149.8111 1227.5485,-151.272 1236.6628,-156.6739 1238.0422,-149.8111"/>
</g>
<!-- Node14 -->
<g id="node15" class="node">
<title>Node14</title>
<polygon fill="none" stroke="#bfbfbf" points="1446.5,-129 1446.5,-148 1493.5,-148 1493.5,-129 1446.5,-129"/>
<text text-anchor="middle" x="1470" y="-136" font-family="Helvetica,sans-Serif" font-size="10.00" fill="#000000">vector</text>
</g>
<!-- Node1&#45;&gt;Node14 -->
<g id="edge14" class="edge">
<title>Node1&#45;&gt;Node14</title>
<path fill="none" stroke="#191970" d="M1470,-190.3906C1470,-181.8657 1470,-169.1392 1470,-158.4235"/>
<polygon fill="#191970" stroke="#191970" points="1473.5001,-158.2448 1470,-148.2449 1466.5001,-158.2449 1473.5001,-158.2448"/>
</g>
<!-- Node15 -->
<g id="node16" class="node">
<title>Node15</title>
<g id="a_node16"><a xlink:href="../../d0/d91/ShmAllocator_8h.html" target="_top" xlink:title="CommonUtils/ShmAllocator.h">
<polygon fill="none" stroke="#000000" points="1613,-129 1613,-148 1773,-148 1773,-129 1613,-129"/>
<text text-anchor="middle" x="1693" y="-136" font-family="Helvetica,sans-Serif" font-size="10.00" fill="#000000">CommonUtils/ShmAllocator.h</text>
</a>
</g>
</g>
<!-- Node1&#45;&gt;Node15 -->
<g id="edge15" class="edge">
<title>Node1&#45;&gt;Node15</title>
<path fill="none" stroke="#191970" d="M1504.8438,-190.3906C1543.6286,-179.6944 1606.3977,-162.3836 1648.6559,-150.7294"/>
<polygon fill="#191970" stroke="#191970" points="1649.6913,-154.0746 1658.4009,-148.0419 1647.8303,-147.3265 1649.6913,-154.0746"/>
</g>
<!-- Node3 -->
<g id="node4" class="node">
<title>Node3</title>
<g id="a_node4"><a xlink:href="../../dc/d73/Cartesian_8h.html" target="_top" xlink:title="MathUtils/Cartesian.h">
<polygon fill="none" stroke="#000000" points="967,-67.5 967,-86.5 1089,-86.5 1089,-67.5 967,-67.5"/>
<text text-anchor="middle" x="1028" y="-74.5" font-family="Helvetica,sans-Serif" font-size="10.00" fill="#000000">MathUtils/Cartesian.h</text>
</a>
</g>
</g>
<!-- Node2&#45;&gt;Node3 -->
<g id="edge3" class="edge">
<title>Node2&#45;&gt;Node3</title>
<path fill="none" stroke="#191970" d="M1130.7307,-123.4554C1108.6359,-113.464 1079.854,-100.4487 1058.3781,-90.7372"/>
<polygon fill="#191970" stroke="#191970" points="1059.629,-87.4616 1049.0752,-86.5303 1056.7447,-93.8398 1059.629,-87.4616"/>
</g>
<!-- Node4 -->
<g id="node5" class="node">
<title>Node4</title>
<polygon fill="none" stroke="#bfbfbf" points="0,-.5 0,-30.5 164,-30.5 164,-.5 0,-.5"/>
<text text-anchor="start" x="8" y="-18.5" font-family="Helvetica,sans-Serif" font-size="10.00" fill="#000000">Math/GenVector/Displacement</text>
<text text-anchor="middle" x="82" y="-7.5" font-family="Helvetica,sans-Serif" font-size="10.00" fill="#000000">Vector3D.h</text>
</g>
<!-- Node3&#45;&gt;Node4 -->
<g id="edge4" class="edge">
<title>Node3&#45;&gt;Node4</title>
<path fill="none" stroke="#191970" d="M966.8958,-76.121C827.9193,-73.6019 477.3806,-64.3159 174.5787,-31.092"/>
<polygon fill="#191970" stroke="#191970" points="174.6046,-27.5735 164.2799,-29.9506 173.8335,-34.5309 174.6046,-27.5735"/>
</g>
<!-- Node5 -->
<g id="node6" class="node">
<title>Node5</title>
<polygon fill="none" stroke="#bfbfbf" points="182.5,-6 182.5,-25 371.5,-25 371.5,-6 182.5,-6"/>
<text text-anchor="middle" x="277" y="-13" font-family="Helvetica,sans-Serif" font-size="10.00" fill="#000000">Math/GenVector/PositionVector3D.h</text>
</g>
<!-- Node3&#45;&gt;Node5 -->
<g id="edge5" class="edge">
<title>Node3&#45;&gt;Node5</title>
<path fill="none" stroke="#191970" d="M966.754,-74.2195C851.7282,-68.6484 595.6372,-54.5893 381,-31 369.5618,-29.7429 357.451,-28.1651 345.6923,-26.5008"/>
<polygon fill="#191970" stroke="#191970" points="345.8736,-22.9906 335.4753,-25.0218 344.8707,-29.9184 345.8736,-22.9906"/>
</g>
<!-- Node6 -->
<g id="node7" class="node">
<title>Node6</title>
<polygon fill="none" stroke="#bfbfbf" points="390,-6 390,-25 550,-25 550,-6 390,-6"/>
<text text-anchor="middle" x="470" y="-13" font-family="Helvetica,sans-Serif" font-size="10.00" fill="#000000">Math/GenVector/Rotation3D.h</text>
</g>
<!-- Node3&#45;&gt;Node6 -->
<g id="edge6" class="edge">
<title>Node3&#45;&gt;Node6</title>
<path fill="none" stroke="#191970" d="M966.7462,-72.4599C877.0294,-65.4779 704.7212,-50.8073 559,-31 549.8696,-29.7589 540.2426,-28.2712 530.8278,-26.7153"/>
<polygon fill="#191970" stroke="#191970" points="531.1719,-23.2239 520.7285,-25.0087 530.0056,-30.1261 531.1719,-23.2239"/>
</g>
<!-- Node7 -->
<g id="node8" class="node">
<title>Node7</title>
<polygon fill="none" stroke="#bfbfbf" points="568,-6 568,-25 736,-25 736,-6 568,-6"/>
<text text-anchor="middle" x="652" y="-13" font-family="Helvetica,sans-Serif" font-size="10.00" fill="#000000">Math/GenVector/Transform3D.h</text>
</g>
<!-- Node3&#45;&gt;Node7 -->
<g id="edge7" class="edge">
<title>Node3&#45;&gt;Node7</title>
<path fill="none" stroke="#191970" d="M968.9079,-67.4657C911.6482,-58.2104 822.3574,-43.7334 745,-31 736.6418,-29.6242 727.8624,-28.1712 719.1737,-26.7285"/>
<polygon fill="#191970" stroke="#191970" points="719.4848,-23.2323 709.0462,-25.0449 718.3368,-30.1375 719.4848,-23.2323"/>
</g>
<!-- Node8 -->
<g id="node9" class="node">
<title>Node8</title>
<polygon fill="none" stroke="#bfbfbf" points="754.5,-6 754.5,-25 927.5,-25 927.5,-6 754.5,-6"/>
<text text-anchor="middle" x="841" y="-13" font-family="Helvetica,sans-Serif" font-size="10.00" fill="#000000">Math/GenVector/Translation3D.h</text>
</g>
<!-- Node3&#45;&gt;Node8 -->
<g id="edge8" class="edge">
<title>Node3&#45;&gt;Node8</title>
<path fill="none" stroke="#191970" d="M998.7813,-67.3906C966.6693,-56.8298 914.951,-39.8208 879.5392,-28.1747"/>
<polygon fill="#191970" stroke="#191970" points="880.6065,-24.8413 870.0136,-25.0419 878.4196,-31.4909 880.6065,-24.8413"/>
</g>
<!-- Node9 -->
<g id="node10" class="node">
<title>Node9</title>
<polygon fill="none" stroke="#bfbfbf" points="946,-.5 946,-30.5 1110,-30.5 1110,-.5 946,-.5"/>
<text text-anchor="start" x="954" y="-18.5" font-family="Helvetica,sans-Serif" font-size="10.00" fill="#000000">Math/GenVector/Displacement</text>
<text text-anchor="middle" x="1028" y="-7.5" font-family="Helvetica,sans-Serif" font-size="10.00" fill="#000000">Vector2D.h</text>
</g>
<!-- Node3&#45;&gt;Node9 -->
<g id="edge9" class="edge">
<title>Node3&#45;&gt;Node9</title>
<path fill="none" stroke="#191970" d="M1028,-67.3906C1028,-60.2234 1028,-50.0862 1028,-40.671"/>
<polygon fill="#191970" stroke="#191970" points="1031.5001,-40.5446 1028,-30.5446 1024.5001,-40.5446 1031.5001,-40.5446"/>
</g>
<!-- Node10 -->
<g id="node11" class="node">
<title>Node10</title>
<polygon fill="none" stroke="#bfbfbf" points="1128.5,-6 1128.5,-25 1317.5,-25 1317.5,-6 1128.5,-6"/>
<text text-anchor="middle" x="1223" y="-13" font-family="Helvetica,sans-Serif" font-size="10.00" fill="#000000">Math/GenVector/PositionVector2D.h</text>
</g>
<!-- Node3&#45;&gt;Node10 -->
<g id="edge10" class="edge">
<title>Node3&#45;&gt;Node10</title>
<path fill="none" stroke="#191970" d="M1058.4688,-67.3906C1091.9544,-56.8298 1145.8853,-39.8208 1182.812,-28.1747"/>
<polygon fill="#191970" stroke="#191970" points="1184.261,-31.3877 1192.7452,-25.0419 1182.1555,-24.7118 1184.261,-31.3877"/>
</g>
<!-- Node11 -->
<g id="node12" class="node">
<title>Node11</title>
<polygon fill="none" stroke="#bfbfbf" points="1335.5,-6 1335.5,-25 1394.5,-25 1394.5,-6 1335.5,-6"/>
<text text-anchor="middle" x="1365" y="-13" font-family="Helvetica,sans-Serif" font-size="10.00" fill="#000000">Rtypes.h</text>
</g>
<!-- Node3&#45;&gt;Node11 -->
<g id="edge11" class="edge">
<title>Node3&#45;&gt;Node11</title>
<path fill="none" stroke="#191970" d="M1089.0509,-71.6363C1149.8814,-65.3483 1245.5603,-52.8924 1326,-31 1328.6122,-30.2891 1331.2877,-29.458 1333.9531,-28.5566"/>
<polygon fill="#191970" stroke="#191970" points="1335.2517,-31.8083 1343.4304,-25.0734 1332.8369,-25.238 1335.2517,-31.8083"/>
</g>
<!-- Node12 -->
<g id="node13" class="node">
<title>Node12</title>
<polygon fill="none" stroke="#bfbfbf" points="1413,-6 1413,-25 1495,-25 1495,-6 1413,-6"/>
<text text-anchor="middle" x="1454" y="-13" font-family="Helvetica,sans-Serif" font-size="10.00" fill="#000000">TGeoMatrix.h</text>
</g>
<!-- Node3&#45;&gt;Node12 -->
<g id="edge12" class="edge">
<title>Node3&#45;&gt;Node12</title>
<path fill="none" stroke="#191970" d="M1089.2635,-72.7565C1163.9566,-66.8339 1293.7491,-54.1209 1403,-31 1407.1759,-30.1162 1411.5027,-29.0478 1415.7904,-27.8898"/>
<polygon fill="#191970" stroke="#191970" points="1416.9848,-31.1885 1425.6346,-25.0704 1415.0575,-24.4591 1416.9848,-31.1885"/>
</g>
<!-- Node13 -->
<g id="node14" class="node">
<title>Node13</title>
<polygon fill="none" stroke="#bfbfbf" points="1513.5,-6 1513.5,-25 1562.5,-25 1562.5,-6 1513.5,-6"/>
<text text-anchor="middle" x="1538" y="-13" font-family="Helvetica,sans-Serif" font-size="10.00" fill="#000000">iosfwd</text>
</g>
<!-- Node3&#45;&gt;Node13 -->
<g id="edge13" class="edge">
<title>Node3&#45;&gt;Node13</title>
<path fill="none" stroke="#191970" d="M1089.2332,-73.6074C1199.5477,-67.0769 1427.3185,-51.5663 1504,-31 1506.1891,-30.4129 1508.414,-29.6973 1510.624,-28.8993"/>
<polygon fill="#191970" stroke="#191970" points="1512.1461,-32.0578 1520.0618,-25.0156 1509.4823,-25.5844 1512.1461,-32.0578"/>
</g>
<!-- Node16 -->
<g id="node17" class="node">
<title>Node16</title>
<g id="a_node17"><a xlink:href="../../de/d61/ShmManager_8h.html" target="_top" xlink:title="CommonUtils/ShmManager.h">
<polygon fill="none" stroke="#000000" points="1614,-67.5 1614,-86.5 1772,-86.5 1772,-67.5 1614,-67.5"/>
<text text-anchor="middle" x="1693" y="-74.5" font-family="Helvetica,sans-Serif" font-size="10.00" fill="#000000">CommonUtils/ShmManager.h</text>
</a>
</g>
</g>
<!-- Node15&#45;&gt;Node16 -->
<g id="edge16" class="edge">
<title>Node15&#45;&gt;Node16</title>
<path fill="none" stroke="#191970" d="M1693,-128.8906C1693,-120.3657 1693,-107.6392 1693,-96.9235"/>
<polygon fill="#191970" stroke="#191970" points="1696.5001,-96.7448 1693,-86.7449 1689.5001,-96.7449 1696.5001,-96.7448"/>
</g>
<!-- Node22 -->
<g id="node23" class="node">
<title>Node22</title>
<polygon fill="none" stroke="#bfbfbf" points="1790,-67.5 1790,-86.5 1842,-86.5 1842,-67.5 1790,-67.5"/>
<text text-anchor="middle" x="1816" y="-74.5" font-family="Helvetica,sans-Serif" font-size="10.00" fill="#000000">cassert</text>
</g>
<!-- Node15&#45;&gt;Node22 -->
<g id="edge22" class="edge">
<title>Node15&#45;&gt;Node22</title>
<path fill="none" stroke="#191970" d="M1712.2188,-128.8906C1732.5281,-118.7359 1764.7607,-102.6196 1787.9168,-91.0416"/>
<polygon fill="#191970" stroke="#191970" points="1789.5372,-94.1446 1796.9162,-86.5419 1786.4067,-87.8836 1789.5372,-94.1446"/>
</g>
<!-- Node17 -->
<g id="node18" class="node">
<title>Node17</title>
<polygon fill="none" stroke="#bfbfbf" points="1581,-6 1581,-25 1613,-25 1613,-6 1581,-6"/>
<text text-anchor="middle" x="1597" y="-13" font-family="Helvetica,sans-Serif" font-size="10.00" fill="#000000">list</text>
</g>
<!-- Node16&#45;&gt;Node17 -->
<g id="edge17" class="edge">
<title>Node16&#45;&gt;Node17</title>
<path fill="none" stroke="#191970" d="M1678,-67.3906C1662.6419,-57.5519 1638.5479,-42.1167 1620.6255,-30.6351"/>
<polygon fill="#191970" stroke="#191970" points="1622.203,-27.4891 1611.8947,-25.0419 1618.427,-33.3833 1622.203,-27.4891"/>
</g>
<!-- Node18 -->
<g id="node19" class="node">
<title>Node18</title>
<polygon fill="none" stroke="#bfbfbf" points="1631.5,-6 1631.5,-25 1684.5,-25 1684.5,-6 1631.5,-6"/>
<text text-anchor="middle" x="1658" y="-13" font-family="Helvetica,sans-Serif" font-size="10.00" fill="#000000">cstddef</text>
</g>
<!-- Node16&#45;&gt;Node18 -->
<g id="edge18" class="edge">
<title>Node16&#45;&gt;Node18</title>
<path fill="none" stroke="#191970" d="M1687.5313,-67.3906C1682.4754,-58.5068 1674.8228,-45.0601 1668.5746,-34.0811"/>
<polygon fill="#191970" stroke="#191970" points="1671.534,-32.2048 1663.5459,-25.2449 1665.4502,-35.6672 1671.534,-32.2048"/>
</g>
<!-- Node19 -->
<g id="node20" class="node">
<title>Node19</title>
<polygon fill="none" stroke="#bfbfbf" points="1703,-6 1703,-25 1753,-25 1753,-6 1703,-6"/>
<text text-anchor="middle" x="1728" y="-13" font-family="Helvetica,sans-Serif" font-size="10.00" fill="#000000">atomic</text>
</g>
<!-- Node16&#45;&gt;Node19 -->
<g id="edge19" class="edge">
<title>Node16&#45;&gt;Node19</title>
<path fill="none" stroke="#191970" d="M1698.4688,-67.3906C1703.5246,-58.5068 1711.1772,-45.0601 1717.4254,-34.0811"/>
<polygon fill="#191970" stroke="#191970" points="1720.5498,-35.6672 1722.4541,-25.2449 1714.466,-32.2048 1720.5498,-35.6672"/>
</g>
<!-- Node20 -->
<g id="node21" class="node">
<title>Node20</title>
<polygon fill="none" stroke="#bfbfbf" points="1771.5,-.5 1771.5,-30.5 1936.5,-30.5 1936.5,-.5 1771.5,-.5"/>
<text text-anchor="start" x="1779.5" y="-18.5" font-family="Helvetica,sans-Serif" font-size="10.00" fill="#000000">boost/interprocess</text>
<text text-anchor="middle" x="1854" y="-7.5" font-family="Helvetica,sans-Serif" font-size="10.00" fill="#000000">/managed_external_buffer.hpp</text>
</g>
<!-- Node16&#45;&gt;Node20 -->
<g id="edge20" class="edge">
<title>Node16&#45;&gt;Node20</title>
<path fill="none" stroke="#191970" d="M1718.1563,-67.3906C1741.3579,-58.5279 1776.4479,-45.1239 1805.1518,-34.1594"/>
<polygon fill="#191970" stroke="#191970" points="1806.5223,-37.3826 1814.615,-30.5446 1804.0243,-30.8435 1806.5223,-37.3826"/>
</g>
<!-- Node21 -->
<g id="node22" class="node">
<title>Node21</title>
<polygon fill="none" stroke="#bfbfbf" points="1955,-.5 1955,-30.5 2089,-30.5 2089,-.5 1955,-.5"/>
<text text-anchor="start" x="1963" y="-18.5" font-family="Helvetica,sans-Serif" font-size="10.00" fill="#000000">boost/interprocess</text>
<text text-anchor="middle" x="2022" y="-7.5" font-family="Helvetica,sans-Serif" font-size="10.00" fill="#000000">/allocators/allocator.hpp</text>
</g>
<!-- Node16&#45;&gt;Node21 -->
<g id="edge21" class="edge">
<title>Node16&#45;&gt;Node21</title>
<path fill="none" stroke="#191970" d="M1747.3505,-67.4637C1796.4232,-58.7752 1870.879,-45.3991 1944.9118,-31.1888"/>
<polygon fill="#191970" stroke="#191970" points="1945.7207,-34.5974 1954.8787,-29.2701 1944.3973,-27.7236 1945.7207,-34.5974"/>
</g>
</g>
</svg>
