<?xml version="1.0" encoding="UTF-8" standalone="no"?>
<!DOCTYPE svg PUBLIC "-//W3C//DTD SVG 1.1//EN"
 "http://www.w3.org/Graphics/SVG/1.1/DTD/svg11.dtd">
<!-- Generated by graphviz version 2.40.1 (20161225.0304)
 -->
<!-- Title: /home/travis/build/AliceO2Group/AliceO2/Detectors/MUON/MCH/Simulation/include/MCHSimulation/Detector.h Pages: 1 -->
<svg width="2725pt" height="307pt"
 viewBox="0.00 0.00 2724.50 307.00" xmlns="http://www.w3.org/2000/svg" xmlns:xlink="http://www.w3.org/1999/xlink">
<g id="graph0" class="graph" transform="scale(1 1) rotate(0) translate(4 303)">
<title>/home/travis/build/AliceO2Group/AliceO2/Detectors/MUON/MCH/Simulation/include/MCHSimulation/Detector.h</title>
<!-- Node0 -->
<g id="node1" class="node">
<title>Node0</title>
<polygon fill="#bfbfbf" stroke="#000000" points="328.5,-246.5 328.5,-298.5 514.5,-298.5 514.5,-246.5 328.5,-246.5"/>
<text text-anchor="start" x="336.5" y="-286.5" font-family="Helvetica,sans-Serif" font-size="10.00" fill="#000000">/home/travis/build</text>
<text text-anchor="start" x="336.5" y="-275.5" font-family="Helvetica,sans-Serif" font-size="10.00" fill="#000000">/AliceO2Group/AliceO2</text>
<text text-anchor="start" x="336.5" y="-264.5" font-family="Helvetica,sans-Serif" font-size="10.00" fill="#000000">/Detectors/MUON/MCH/Simulation</text>
<text text-anchor="middle" x="421.5" y="-253.5" font-family="Helvetica,sans-Serif" font-size="10.00" fill="#000000">/include/MCHSimulation/Detector.h</text>
</g>
<!-- Node1 -->
<g id="node2" class="node">
<title>Node1</title>
<g id="a_node2"><a xlink:href="../../d1/d3a/Base_2include_2DetectorsBase_2Detector_8h.html" target="_top" xlink:title="DetectorsBase/Detector.h">
<polygon fill="none" stroke="#000000" points="460,-190.5 460,-209.5 601,-209.5 601,-190.5 460,-190.5"/>
<text text-anchor="middle" x="530.5" y="-197.5" font-family="Helvetica,sans-Serif" font-size="10.00" fill="#000000">DetectorsBase/Detector.h</text>
</a>
</g>
</g>
<!-- Node0&#45;&gt;Node1 -->
<g id="edge1" class="edge">
<title>Node0&#45;&gt;Node1</title>
<path fill="none" stroke="#191970" d="M460.8515,-246.3258C476.5081,-235.912 493.9765,-224.2931 507.5025,-215.2965"/>
<polygon fill="#191970" stroke="#191970" points="509.7781,-217.9865 516.1661,-209.534 505.9014,-212.158 509.7781,-217.9865"/>
</g>
<!-- Node3 -->
<g id="node4" class="node">
<title>Node3</title>
<polygon fill="none" stroke="#bfbfbf" points="0,-129 0,-148 47,-148 47,-129 0,-129"/>
<text text-anchor="middle" x="23.5" y="-136" font-family="Helvetica,sans-Serif" font-size="10.00" fill="#000000">vector</text>
</g>
<!-- Node0&#45;&gt;Node3 -->
<g id="edge46" class="edge">
<title>Node0&#45;&gt;Node3</title>
<path fill="none" stroke="#191970" d="M329.931,-246.461C255.3782,-224.3843 147.8991,-190.5517 56.5,-154 55.1042,-153.4418 53.6833,-152.8538 52.2541,-152.2462"/>
<polygon fill="#191970" stroke="#191970" points="53.4353,-148.9408 42.8769,-148.0636 50.5838,-155.3336 53.4353,-148.9408"/>
</g>
<!-- Node5 -->
<g id="node6" class="node">
<title>Node5</title>
<polygon fill="none" stroke="#bfbfbf" points="65.5,-129 65.5,-148 123.5,-148 123.5,-129 65.5,-129"/>
<text text-anchor="middle" x="94.5" y="-136" font-family="Helvetica,sans-Serif" font-size="10.00" fill="#000000">memory</text>
</g>
<!-- Node0&#45;&gt;Node5 -->
<g id="edge47" class="edge">
<title>Node0&#45;&gt;Node5</title>
<path fill="none" stroke="#191970" d="M357.6748,-246.3453C288.5599,-218.023 181.0183,-173.954 127.3241,-151.9509"/>
<polygon fill="#191970" stroke="#191970" points="128.5266,-148.6612 117.9463,-148.1079 125.8723,-155.1385 128.5266,-148.6612"/>
</g>
<!-- Node27 -->
<g id="node28" class="node">
<title>Node27</title>
<g id="a_node28"><a xlink:href="../../d5/daf/Detectors_2MUON_2MCH_2Simulation_2include_2MCHSimulation_2Hit_8h.html" target="_top" xlink:title="MCHSimulation/Hit.h">
<polygon fill="none" stroke="#000000" points="1292.5,-190.5 1292.5,-209.5 1410.5,-209.5 1410.5,-190.5 1292.5,-190.5"/>
<text text-anchor="middle" x="1351.5" y="-197.5" font-family="Helvetica,sans-Serif" font-size="10.00" fill="#000000">MCHSimulation/Hit.h</text>
</a>
</g>
</g>
<!-- Node0&#45;&gt;Node27 -->
<g id="edge32" class="edge">
<title>Node0&#45;&gt;Node27</title>
<path fill="none" stroke="#191970" d="M514.5006,-265.25C701.1593,-250.6986 1117.6367,-218.2313 1282.4459,-205.3833"/>
<polygon fill="#191970" stroke="#191970" points="1282.7647,-208.8691 1292.4624,-204.6024 1282.2206,-201.8903 1282.7647,-208.8691"/>
</g>
<!-- Node2 -->
<g id="node3" class="node">
<title>Node2</title>
<polygon fill="none" stroke="#bfbfbf" points="501.5,-67.5 501.5,-86.5 539.5,-86.5 539.5,-67.5 501.5,-67.5"/>
<text text-anchor="middle" x="520.5" y="-74.5" font-family="Helvetica,sans-Serif" font-size="10.00" fill="#000000">map</text>
</g>
<!-- Node1&#45;&gt;Node2 -->
<g id="edge2" class="edge">
<title>Node1&#45;&gt;Node2</title>
<path fill="none" stroke="#191970" d="M472.7793,-190.4102C451.7613,-183.8232 430.0898,-172.718 417.5,-154 409.8105,-142.5676 410.0027,-134.5593 417.5,-123 433.6527,-98.0958 466.7848,-86.5565 491.128,-81.2863"/>
<polygon fill="#191970" stroke="#191970" points="492.1149,-84.6607 501.2741,-79.3354 490.7931,-77.7866 492.1149,-84.6607"/>
</g>
<!-- Node1&#45;&gt;Node3 -->
<g id="edge3" class="edge">
<title>Node1&#45;&gt;Node3</title>
<path fill="none" stroke="#191970" d="M459.7368,-196.1016C346.6886,-189.3746 130.5478,-174.3282 56.5,-154 54.5315,-153.4596 52.5353,-152.8094 50.5495,-152.0855"/>
<polygon fill="#191970" stroke="#191970" points="51.46,-148.6716 40.8851,-148.0211 48.7463,-155.1242 51.46,-148.6716"/>
</g>
<!-- Node4 -->
<g id="node5" class="node">
<title>Node4</title>
<polygon fill="none" stroke="#bfbfbf" points="621,-67.5 621,-86.5 704,-86.5 704,-67.5 621,-67.5"/>
<text text-anchor="middle" x="662.5" y="-74.5" font-family="Helvetica,sans-Serif" font-size="10.00" fill="#000000">initializer_list</text>
</g>
<!-- Node1&#45;&gt;Node4 -->
<g id="edge4" class="edge">
<title>Node1&#45;&gt;Node4</title>
<path fill="none" stroke="#191970" d="M501.6892,-190.4613C484.981,-183.274 465.3485,-171.5938 455.5,-154 448.7702,-141.9776 446.8789,-133.7472 455.5,-123 474.5981,-99.192 555.7982,-86.9271 610.6401,-81.2402"/>
<polygon fill="#191970" stroke="#191970" points="611.2868,-84.6933 620.8915,-80.2213 610.5944,-77.7276 611.2868,-84.6933"/>
</g>
<!-- Node1&#45;&gt;Node5 -->
<g id="edge5" class="edge">
<title>Node1&#45;&gt;Node5</title>
<path fill="none" stroke="#191970" d="M459.934,-197.4139C379.7637,-193.1944 245.5244,-182.2259 133.5,-154 130.7181,-153.2991 127.8693,-152.4471 125.0401,-151.5071"/>
<polygon fill="#191970" stroke="#191970" points="126.2154,-148.2102 115.6215,-148.0637 123.8117,-154.7846 126.2154,-148.2102"/>
</g>
<!-- Node6 -->
<g id="node7" class="node">
<title>Node6</title>
<polygon fill="none" stroke="#bfbfbf" points="655.5,-129 655.5,-148 739.5,-148 739.5,-129 655.5,-129"/>
<text text-anchor="middle" x="697.5" y="-136" font-family="Helvetica,sans-Serif" font-size="10.00" fill="#000000">FairDetector.h</text>
</g>
<!-- Node1&#45;&gt;Node6 -->
<g id="edge6" class="edge">
<title>Node1&#45;&gt;Node6</title>
<path fill="none" stroke="#191970" d="M556.5938,-190.3906C584.9036,-179.9652 630.2768,-163.2559 661.8592,-151.6252"/>
<polygon fill="#191970" stroke="#191970" points="663.4151,-154.7821 671.5895,-148.0419 660.996,-148.2133 663.4151,-154.7821"/>
</g>
<!-- Node7 -->
<g id="node8" class="node">
<title>Node7</title>
<polygon fill="none" stroke="#bfbfbf" points="757.5,-129 757.5,-148 863.5,-148 863.5,-129 757.5,-129"/>
<text text-anchor="middle" x="810.5" y="-136" font-family="Helvetica,sans-Serif" font-size="10.00" fill="#000000">FairRootManager.h</text>
</g>
<!-- Node1&#45;&gt;Node7 -->
<g id="edge7" class="edge">
<title>Node1&#45;&gt;Node7</title>
<path fill="none" stroke="#191970" d="M578.2413,-190.4558C622.4826,-181.4857 690.076,-167.4621 748.5,-154 753.2505,-152.9054 758.1966,-151.7299 763.1313,-150.5336"/>
<polygon fill="#191970" stroke="#191970" points="764.3006,-153.8506 773.1782,-148.068 762.6321,-147.0523 764.3006,-153.8506"/>
</g>
<!-- Node8 -->
<g id="node9" class="node">
<title>Node8</title>
<g id="a_node9"><a xlink:href="../../d0/d9a/MaterialManager_8h.html" target="_top" xlink:title="DetectorsBase/MaterialManager.h">
<polygon fill="none" stroke="#000000" points="882,-129 882,-148 1063,-148 1063,-129 882,-129"/>
<text text-anchor="middle" x="972.5" y="-136" font-family="Helvetica,sans-Serif" font-size="10.00" fill="#000000">DetectorsBase/MaterialManager.h</text>
</a>
</g>
</g>
<!-- Node1&#45;&gt;Node8 -->
<g id="edge8" class="edge">
<title>Node1&#45;&gt;Node8</title>
<path fill="none" stroke="#191970" d="M601.298,-190.8989C670.5006,-181.9035 778.8189,-167.5591 872.5,-154 882.1499,-152.6033 892.3158,-151.0837 902.3203,-149.5601"/>
<polygon fill="#191970" stroke="#191970" points="902.8913,-153.0136 912.246,-148.0396 901.8313,-146.0943 902.8913,-153.0136"/>
</g>
<!-- Node9 -->
<g id="node10" class="node">
<title>Node9</title>
<polygon fill="none" stroke="#bfbfbf" points="1155,-6 1155,-25 1214,-25 1214,-6 1155,-6"/>
<text text-anchor="middle" x="1184.5" y="-13" font-family="Helvetica,sans-Serif" font-size="10.00" fill="#000000">Rtypes.h</text>
</g>
<!-- Node1&#45;&gt;Node9 -->
<g id="edge14" class="edge">
<title>Node1&#45;&gt;Node9</title>
<path fill="none" stroke="#191970" d="M601.2138,-197.8902C773.6799,-192.4018 1203.4208,-176.5226 1224.5,-154 1256.2726,-120.0518 1220.8638,-62.4352 1199.0487,-33.3818"/>
<polygon fill="#191970" stroke="#191970" points="1201.702,-31.092 1192.8044,-25.3401 1196.173,-35.3852 1201.702,-31.092"/>
</g>
<!-- Node12 -->
<g id="node13" class="node">
<title>Node12</title>
<polygon fill="none" stroke="#bfbfbf" points="1081.5,-129 1081.5,-148 1139.5,-148 1139.5,-129 1081.5,-129"/>
<text text-anchor="middle" x="1110.5" y="-136" font-family="Helvetica,sans-Serif" font-size="10.00" fill="#000000">cxxabi.h</text>
</g>
<!-- Node1&#45;&gt;Node12 -->
<g id="edge15" class="edge">
<title>Node1&#45;&gt;Node12</title>
<path fill="none" stroke="#191970" d="M601.1167,-196.6622C726.9408,-190.2736 984.9283,-175.0576 1072.5,-154 1075.2926,-153.3285 1078.148,-152.4841 1080.9772,-151.5379"/>
<polygon fill="#191970" stroke="#191970" points="1082.2217,-154.8093 1090.3656,-148.0323 1079.773,-148.2516 1082.2217,-154.8093"/>
</g>
<!-- Node13 -->
<g id="node14" class="node">
<title>Node13</title>
<polygon fill="none" stroke="#bfbfbf" points="1158,-129 1158,-148 1215,-148 1215,-129 1158,-129"/>
<text text-anchor="middle" x="1186.5" y="-136" font-family="Helvetica,sans-Serif" font-size="10.00" fill="#000000">typeinfo</text>
</g>
<!-- Node1&#45;&gt;Node13 -->
<g id="edge16" class="edge">
<title>Node1&#45;&gt;Node13</title>
<path fill="none" stroke="#191970" d="M601.1141,-197.5172C740.4789,-192.1616 1046.2517,-178.0265 1148.5,-154 1151.2961,-153.343 1154.1538,-152.5085 1156.9845,-151.5688"/>
<polygon fill="#191970" stroke="#191970" points="1158.2245,-154.8419 1166.3753,-148.0732 1155.7825,-148.2817 1158.2245,-154.8419"/>
</g>
<!-- Node14 -->
<g id="node15" class="node">
<title>Node14</title>
<polygon fill="none" stroke="#bfbfbf" points="142,-129 142,-148 211,-148 211,-129 142,-129"/>
<text text-anchor="middle" x="176.5" y="-136" font-family="Helvetica,sans-Serif" font-size="10.00" fill="#000000">type_traits</text>
</g>
<!-- Node1&#45;&gt;Node14 -->
<g id="edge17" class="edge">
<title>Node1&#45;&gt;Node14</title>
<path fill="none" stroke="#191970" d="M459.8825,-193.4137C396.5585,-186.5901 301.4316,-174.0633 220.5,-154 217.277,-153.201 213.9577,-152.2603 210.6557,-151.2439"/>
<polygon fill="#191970" stroke="#191970" points="211.5081,-147.8397 200.9151,-148.0332 209.3167,-154.4879 211.5081,-147.8397"/>
</g>
<!-- Node15 -->
<g id="node16" class="node">
<title>Node15</title>
<polygon fill="none" stroke="#bfbfbf" points="229.5,-129 229.5,-148 273.5,-148 273.5,-129 229.5,-129"/>
<text text-anchor="middle" x="251.5" y="-136" font-family="Helvetica,sans-Serif" font-size="10.00" fill="#000000">string</text>
</g>
<!-- Node1&#45;&gt;Node15 -->
<g id="edge18" class="edge">
<title>Node1&#45;&gt;Node15</title>
<path fill="none" stroke="#191970" d="M459.9593,-192.2664C409.5916,-185.4625 340.7292,-173.5245 282.5,-154 280.8919,-153.4608 279.2621,-152.8524 277.6348,-152.1966"/>
<polygon fill="#191970" stroke="#191970" points="279.0663,-149.0028 268.5122,-148.0739 276.1835,-155.3816 279.0663,-149.0028"/>
</g>
<!-- Node16 -->
<g id="node17" class="node">
<title>Node16</title>
<polygon fill="none" stroke="#bfbfbf" points="291.5,-129 291.5,-148 365.5,-148 365.5,-129 291.5,-129"/>
<text text-anchor="middle" x="328.5" y="-136" font-family="Helvetica,sans-Serif" font-size="10.00" fill="#000000">TMessage.h</text>
</g>
<!-- Node1&#45;&gt;Node16 -->
<g id="edge19" class="edge">
<title>Node1&#45;&gt;Node16</title>
<path fill="none" stroke="#191970" d="M498.9375,-190.3906C464.1015,-179.7846 407.905,-162.6753 369.6412,-151.0257"/>
<polygon fill="#191970" stroke="#191970" points="370.4267,-147.6063 359.8409,-148.0419 368.3879,-154.3028 370.4267,-147.6063"/>
</g>
<!-- Node17 -->
<g id="node18" class="node">
<title>Node17</title>
<g id="a_node18"><a xlink:href="../../de/d61/ShmManager_8h.html" target="_top" xlink:title="CommonUtils/ShmManager.h">
<polygon fill="none" stroke="#000000" points="754.5,-67.5 754.5,-86.5 912.5,-86.5 912.5,-67.5 754.5,-67.5"/>
<text text-anchor="middle" x="833.5" y="-74.5" font-family="Helvetica,sans-Serif" font-size="10.00" fill="#000000">CommonUtils/ShmManager.h</text>
</a>
</g>
</g>
<!-- Node1&#45;&gt;Node17 -->
<g id="edge20" class="edge">
<title>Node1&#45;&gt;Node17</title>
<path fill="none" stroke="#191970" d="M518.318,-190.4079C500.1406,-174.9686 469.9433,-144.1952 488.5,-123 496.918,-113.3851 644.8996,-96.387 744.2938,-85.9645"/>
<polygon fill="#191970" stroke="#191970" points="744.7723,-89.4336 754.3549,-84.9144 744.0456,-82.4714 744.7723,-89.4336"/>
</g>
<!-- Node23 -->
<g id="node24" class="node">
<title>Node23</title>
<g id="a_node24"><a xlink:href="../../d0/d91/ShmAllocator_8h.html" target="_top" xlink:title="CommonUtils/ShmAllocator.h">
<polygon fill="none" stroke="#000000" points="1271.5,-129 1271.5,-148 1431.5,-148 1431.5,-129 1271.5,-129"/>
<text text-anchor="middle" x="1351.5" y="-136" font-family="Helvetica,sans-Serif" font-size="10.00" fill="#000000">CommonUtils/ShmAllocator.h</text>
</a>
</g>
</g>
<!-- Node1&#45;&gt;Node23 -->
<g id="edge26" class="edge">
<title>Node1&#45;&gt;Node23</title>
<path fill="none" stroke="#191970" d="M601.1426,-197.8827C731.309,-193.4591 1017.6527,-181.2931 1257.5,-154 1267.8366,-152.8238 1278.7683,-151.2898 1289.3788,-149.645"/>
<polygon fill="#191970" stroke="#191970" points="1290.0999,-153.0743 1299.4233,-148.042 1288.9967,-146.1617 1290.0999,-153.0743"/>
</g>
<!-- Node24 -->
<g id="node25" class="node">
<title>Node24</title>
<polygon fill="none" stroke="#bfbfbf" points="1379.5,-67.5 1379.5,-86.5 1431.5,-86.5 1431.5,-67.5 1379.5,-67.5"/>
<text text-anchor="middle" x="1405.5" y="-74.5" font-family="Helvetica,sans-Serif" font-size="10.00" fill="#000000">cassert</text>
</g>
<!-- Node1&#45;&gt;Node24 -->
<g id="edge31" class="edge">
<title>Node1&#45;&gt;Node24</title>
<path fill="none" stroke="#191970" d="M601.1889,-199.0553C810.0642,-195.9212 1411.7013,-184.2912 1440.5,-154 1456.6727,-136.9891 1439.0041,-111.2016 1423.4494,-94.2295"/>
<polygon fill="#191970" stroke="#191970" points="1425.6119,-91.4315 1416.1408,-86.683 1420.5835,-96.3014 1425.6119,-91.4315"/>
</g>
<!-- Node25 -->
<g id="node26" class="node">
<title>Node25</title>
<polygon fill="none" stroke="#bfbfbf" points="497.5,-129 497.5,-148 563.5,-148 563.5,-129 497.5,-129"/>
<text text-anchor="middle" x="530.5" y="-136" font-family="Helvetica,sans-Serif" font-size="10.00" fill="#000000">sys/shm.h</text>
</g>
<!-- Node1&#45;&gt;Node25 -->
<g id="edge29" class="edge">
<title>Node1&#45;&gt;Node25</title>
<path fill="none" stroke="#191970" d="M530.5,-190.3906C530.5,-181.8657 530.5,-169.1392 530.5,-158.4235"/>
<polygon fill="#191970" stroke="#191970" points="534.0001,-158.2448 530.5,-148.2449 527.0001,-158.2449 534.0001,-158.2448"/>
</g>
<!-- Node26 -->
<g id="node27" class="node">
<title>Node26</title>
<polygon fill="none" stroke="#bfbfbf" points="581.5,-129 581.5,-148 637.5,-148 637.5,-129 581.5,-129"/>
<text text-anchor="middle" x="609.5" y="-136" font-family="Helvetica,sans-Serif" font-size="10.00" fill="#000000">unistd.h</text>
</g>
<!-- Node1&#45;&gt;Node26 -->
<g id="edge30" class="edge">
<title>Node1&#45;&gt;Node26</title>
<path fill="none" stroke="#191970" d="M542.8438,-190.3906C555.2503,-180.7324 574.5843,-165.6812 589.2413,-154.271"/>
<polygon fill="#191970" stroke="#191970" points="591.5021,-156.9466 597.2429,-148.0419 587.2021,-151.423 591.5021,-156.9466"/>
</g>
<!-- Node8&#45;&gt;Node2 -->
<g id="edge10" class="edge">
<title>Node8&#45;&gt;Node2</title>
<path fill="none" stroke="#191970" d="M912.5166,-128.9646C899.3416,-126.9367 885.457,-124.8505 872.5,-123 752.7838,-105.9021 609.7908,-87.99 549.5356,-80.5567"/>
<polygon fill="#191970" stroke="#191970" points="549.9527,-77.0817 539.6,-79.3336 549.0974,-84.0293 549.9527,-77.0817"/>
</g>
<!-- Node8&#45;&gt;Node4 -->
<g id="edge12" class="edge">
<title>Node8&#45;&gt;Node4</title>
<path fill="none" stroke="#191970" d="M924.4026,-128.9581C867.4492,-117.6593 772.951,-98.912 714.3895,-87.2942"/>
<polygon fill="#191970" stroke="#191970" points="714.7357,-83.7947 704.2457,-85.2818 713.3734,-90.6609 714.7357,-83.7947"/>
</g>
<!-- Node8&#45;&gt;Node9 -->
<g id="edge9" class="edge">
<title>Node8&#45;&gt;Node9</title>
<path fill="none" stroke="#191970" d="M972.3553,-128.6725C972.6843,-113.3198 975.6402,-83.6806 992.5,-67 995.2643,-64.2651 1089.3519,-39.8422 1144.7693,-25.6337"/>
<polygon fill="#191970" stroke="#191970" points="1145.8171,-28.9784 1154.6362,-23.1071 1144.0805,-22.1972 1145.8171,-28.9784"/>
</g>
<!-- Node10 -->
<g id="node11" class="node">
<title>Node10</title>
<polygon fill="none" stroke="#bfbfbf" points="1001,-67.5 1001,-86.5 1094,-86.5 1094,-67.5 1001,-67.5"/>
<text text-anchor="middle" x="1047.5" y="-74.5" font-family="Helvetica,sans-Serif" font-size="10.00" fill="#000000">unordered_map</text>
</g>
<!-- Node8&#45;&gt;Node10 -->
<g id="edge11" class="edge">
<title>Node8&#45;&gt;Node10</title>
<path fill="none" stroke="#191970" d="M984.2188,-128.8906C995.8188,-119.3786 1013.7979,-104.6357 1027.6321,-93.2917"/>
<polygon fill="#191970" stroke="#191970" points="1030.1026,-95.7921 1035.616,-86.7449 1025.664,-90.3792 1030.1026,-95.7921"/>
</g>
<!-- Node11 -->
<g id="node12" class="node">
<title>Node11</title>
<polygon fill="none" stroke="#bfbfbf" points="1232,-6 1232,-25 1281,-25 1281,-6 1232,-6"/>
<text text-anchor="middle" x="1256.5" y="-13" font-family="Helvetica,sans-Serif" font-size="10.00" fill="#000000">iosfwd</text>
</g>
<!-- Node8&#45;&gt;Node11 -->
<g id="edge13" class="edge">
<title>Node8&#45;&gt;Node11</title>
<path fill="none" stroke="#191970" d="M998.2955,-128.9008C1024.8548,-118.8912 1067.3479,-102.524 1103.5,-87 1157.5798,-63.7777 1170.1976,-55.9551 1223.5,-31 1224.6608,-30.4565 1225.8445,-29.902 1227.0401,-29.3417"/>
<polygon fill="#191970" stroke="#191970" points="1228.6927,-32.4325 1236.2594,-25.0166 1225.7196,-26.0952 1228.6927,-32.4325"/>
</g>
<!-- Node18 -->
<g id="node19" class="node">
<title>Node18</title>
<polygon fill="none" stroke="#bfbfbf" points="756.5,-6 756.5,-25 788.5,-25 788.5,-6 756.5,-6"/>
<text text-anchor="middle" x="772.5" y="-13" font-family="Helvetica,sans-Serif" font-size="10.00" fill="#000000">list</text>
</g>
<!-- Node17&#45;&gt;Node18 -->
<g id="edge21" class="edge">
<title>Node17&#45;&gt;Node18</title>
<path fill="none" stroke="#191970" d="M823.9688,-67.3906C814.7121,-58.0581 800.461,-43.6902 789.2997,-32.4374"/>
<polygon fill="#191970" stroke="#191970" points="791.6928,-29.88 782.1656,-25.2449 786.7228,-34.8095 791.6928,-29.88"/>
</g>
<!-- Node19 -->
<g id="node20" class="node">
<title>Node19</title>
<polygon fill="none" stroke="#bfbfbf" points="807,-6 807,-25 860,-25 860,-6 807,-6"/>
<text text-anchor="middle" x="833.5" y="-13" font-family="Helvetica,sans-Serif" font-size="10.00" fill="#000000">cstddef</text>
</g>
<!-- Node17&#45;&gt;Node19 -->
<g id="edge22" class="edge">
<title>Node17&#45;&gt;Node19</title>
<path fill="none" stroke="#191970" d="M833.5,-67.3906C833.5,-58.8657 833.5,-46.1392 833.5,-35.4235"/>
<polygon fill="#191970" stroke="#191970" points="837.0001,-35.2448 833.5,-25.2449 830.0001,-35.2449 837.0001,-35.2448"/>
</g>
<!-- Node20 -->
<g id="node21" class="node">
<title>Node20</title>
<polygon fill="none" stroke="#bfbfbf" points="878.5,-6 878.5,-25 928.5,-25 928.5,-6 878.5,-6"/>
<text text-anchor="middle" x="903.5" y="-13" font-family="Helvetica,sans-Serif" font-size="10.00" fill="#000000">atomic</text>
</g>
<!-- Node17&#45;&gt;Node20 -->
<g id="edge23" class="edge">
<title>Node17&#45;&gt;Node20</title>
<path fill="none" stroke="#191970" d="M844.4375,-67.3906C855.162,-57.9683 871.7287,-43.4134 884.5901,-32.1137"/>
<polygon fill="#191970" stroke="#191970" points="887.2059,-34.4745 892.4083,-25.2449 882.5857,-29.2158 887.2059,-34.4745"/>
</g>
<!-- Node21 -->
<g id="node22" class="node">
<title>Node21</title>
<polygon fill="none" stroke="#bfbfbf" points="947,-.5 947,-30.5 1112,-30.5 1112,-.5 947,-.5"/>
<text text-anchor="start" x="955" y="-18.5" font-family="Helvetica,sans-Serif" font-size="10.00" fill="#000000">boost/interprocess</text>
<text text-anchor="middle" x="1029.5" y="-7.5" font-family="Helvetica,sans-Serif" font-size="10.00" fill="#000000">/managed_external_buffer.hpp</text>
</g>
<!-- Node17&#45;&gt;Node21 -->
<g id="edge24" class="edge">
<title>Node17&#45;&gt;Node21</title>
<path fill="none" stroke="#191970" d="M864.125,-67.3906C892.8617,-58.3737 936.579,-44.6563 971.8486,-33.5896"/>
<polygon fill="#191970" stroke="#191970" points="973.0595,-36.878 981.553,-30.5446 970.9638,-30.199 973.0595,-36.878"/>
</g>
<!-- Node22 -->
<g id="node23" class="node">
<title>Node22</title>
<polygon fill="none" stroke="#bfbfbf" points="604.5,-.5 604.5,-30.5 738.5,-30.5 738.5,-.5 604.5,-.5"/>
<text text-anchor="start" x="612.5" y="-18.5" font-family="Helvetica,sans-Serif" font-size="10.00" fill="#000000">boost/interprocess</text>
<text text-anchor="middle" x="671.5" y="-7.5" font-family="Helvetica,sans-Serif" font-size="10.00" fill="#000000">/allocators/allocator.hpp</text>
</g>
<!-- Node17&#45;&gt;Node22 -->
<g id="edge25" class="edge">
<title>Node17&#45;&gt;Node22</title>
<path fill="none" stroke="#191970" d="M808.1875,-67.3906C784.8417,-58.5279 749.5338,-45.1239 720.6516,-34.1594"/>
<polygon fill="#191970" stroke="#191970" points="721.7209,-30.8217 711.1297,-30.5446 719.2364,-37.366 721.7209,-30.8217"/>
</g>
<!-- Node23&#45;&gt;Node17 -->
<g id="edge27" class="edge">
<title>Node23&#45;&gt;Node17</title>
<path fill="none" stroke="#191970" d="M1273.9344,-128.9791C1257.6083,-126.9903 1240.4894,-124.9163 1224.5,-123 1120.8586,-110.5789 1001.7243,-96.6072 922.4657,-87.3552"/>
<polygon fill="#191970" stroke="#191970" points="922.8576,-83.8773 912.5192,-86.1945 922.0461,-90.8301 922.8576,-83.8773"/>
</g>
<!-- Node23&#45;&gt;Node24 -->
<g id="edge28" class="edge">
<title>Node23&#45;&gt;Node24</title>
<path fill="none" stroke="#191970" d="M1359.9375,-128.8906C1368.0531,-119.6478 1380.5055,-105.466 1390.3424,-94.2628"/>
<polygon fill="#191970" stroke="#191970" points="1392.9755,-96.5686 1396.9435,-86.7449 1387.7154,-91.95 1392.9755,-96.5686"/>
</g>
<!-- Node27&#45;&gt;Node23 -->
<g id="edge45" class="edge">
<title>Node27&#45;&gt;Node23</title>
<path fill="none" stroke="#191970" d="M1351.5,-190.3906C1351.5,-181.8657 1351.5,-169.1392 1351.5,-158.4235"/>
<polygon fill="#191970" stroke="#191970" points="1355.0001,-158.2448 1351.5,-148.2449 1348.0001,-158.2449 1355.0001,-158.2448"/>
</g>
<!-- Node28 -->
<g id="node29" class="node">
<title>Node28</title>
<g id="a_node29"><a xlink:href="../../d4/d25/BaseHits_8h.html" target="_top" xlink:title="SimulationDataFormat\l/BaseHits.h">
<polygon fill="none" stroke="#000000" points="1557,-123.5 1557,-153.5 1684,-153.5 1684,-123.5 1557,-123.5"/>
<text text-anchor="start" x="1565" y="-141.5" font-family="Helvetica,sans-Serif" font-size="10.00" fill="#000000">SimulationDataFormat</text>
<text text-anchor="middle" x="1620.5" y="-130.5" font-family="Helvetica,sans-Serif" font-size="10.00" fill="#000000">/BaseHits.h</text>
</a>
</g>
</g>
<!-- Node27&#45;&gt;Node28 -->
<g id="edge33" class="edge">
<title>Node27&#45;&gt;Node28</title>
<path fill="none" stroke="#191970" d="M1393.2361,-190.4581C1434.1712,-181.0993 1497.4579,-166.6305 1546.8616,-155.3355"/>
<polygon fill="#191970" stroke="#191970" points="1547.8945,-158.6898 1556.8629,-153.049 1546.3344,-151.8658 1547.8945,-158.6898"/>
</g>
<!-- Node29 -->
<g id="node30" class="node">
<title>Node29</title>
<g id="a_node30"><a xlink:href="../../dc/d73/Cartesian_8h.html" target="_top" xlink:title="MathUtils/Cartesian.h">
<polygon fill="none" stroke="#000000" points="1627.5,-67.5 1627.5,-86.5 1749.5,-86.5 1749.5,-67.5 1627.5,-67.5"/>
<text text-anchor="middle" x="1688.5" y="-74.5" font-family="Helvetica,sans-Serif" font-size="10.00" fill="#000000">MathUtils/Cartesian.h</text>
</a>
</g>
</g>
<!-- Node28&#45;&gt;Node29 -->
<g id="edge34" class="edge">
<title>Node28&#45;&gt;Node29</title>
<path fill="none" stroke="#191970" d="M1637.309,-123.2977C1647.2397,-114.3163 1659.8257,-102.9334 1670.0327,-93.702"/>
<polygon fill="#191970" stroke="#191970" points="1672.5434,-96.1505 1677.6123,-86.8469 1667.848,-90.9588 1672.5434,-96.1505"/>
</g>
<!-- Node29&#45;&gt;Node9 -->
<g id="edge42" class="edge">
<title>Node29&#45;&gt;Node9</title>
<path fill="none" stroke="#191970" d="M1627.0745,-73.0625C1518.8339,-65.7681 1298.485,-49.2269 1223.5,-31 1220.7123,-30.3224 1217.8595,-29.4865 1215.0277,-28.5572"/>
<polygon fill="#191970" stroke="#191970" points="1216.1989,-25.2589 1205.6049,-25.131 1213.8069,-31.8375 1216.1989,-25.2589"/>
</g>
<!-- Node29&#45;&gt;Node11 -->
<g id="edge44" class="edge">
<title>Node29&#45;&gt;Node11</title>
<path fill="none" stroke="#191970" d="M1627.169,-72.2651C1531.7574,-64.5018 1352.3178,-48.2019 1290.5,-31 1288.5313,-30.4522 1286.5323,-29.8045 1284.5403,-29.0898"/>
<polygon fill="#191970" stroke="#191970" points="1285.3916,-25.6566 1274.8108,-25.1103 1282.7415,-32.1356 1285.3916,-25.6566"/>
</g>
<!-- Node30 -->
<g id="node31" class="node">
<title>Node30</title>
<polygon fill="none" stroke="#bfbfbf" points="1606.5,-.5 1606.5,-30.5 1770.5,-30.5 1770.5,-.5 1606.5,-.5"/>
<text text-anchor="start" x="1614.5" y="-18.5" font-family="Helvetica,sans-Serif" font-size="10.00" fill="#000000">Math/GenVector/Displacement</text>
<text text-anchor="middle" x="1688.5" y="-7.5" font-family="Helvetica,sans-Serif" font-size="10.00" fill="#000000">Vector3D.h</text>
</g>
<!-- Node29&#45;&gt;Node30 -->
<g id="edge35" class="edge">
<title>Node29&#45;&gt;Node30</title>
<path fill="none" stroke="#191970" d="M1688.5,-67.3906C1688.5,-60.2234 1688.5,-50.0862 1688.5,-40.671"/>
<polygon fill="#191970" stroke="#191970" points="1692.0001,-40.5446 1688.5,-30.5446 1685.0001,-40.5446 1692.0001,-40.5446"/>
</g>
<!-- Node31 -->
<g id="node32" class="node">
<title>Node31</title>
<polygon fill="none" stroke="#bfbfbf" points="1789,-6 1789,-25 1978,-25 1978,-6 1789,-6"/>
<text text-anchor="middle" x="1883.5" y="-13" font-family="Helvetica,sans-Serif" font-size="10.00" fill="#000000">Math/GenVector/PositionVector3D.h</text>
</g>
<!-- Node29&#45;&gt;Node31 -->
<g id="edge36" class="edge">
<title>Node29&#45;&gt;Node31</title>
<path fill="none" stroke="#191970" d="M1718.9688,-67.3906C1752.4544,-56.8298 1806.3853,-39.8208 1843.312,-28.1747"/>
<polygon fill="#191970" stroke="#191970" points="1844.761,-31.3877 1853.2452,-25.0419 1842.6555,-24.7118 1844.761,-31.3877"/>
</g>
<!-- Node32 -->
<g id="node33" class="node">
<title>Node32</title>
<polygon fill="none" stroke="#bfbfbf" points="1996.5,-6 1996.5,-25 2156.5,-25 2156.5,-6 1996.5,-6"/>
<text text-anchor="middle" x="2076.5" y="-13" font-family="Helvetica,sans-Serif" font-size="10.00" fill="#000000">Math/GenVector/Rotation3D.h</text>
</g>
<!-- Node29&#45;&gt;Node32 -->
<g id="edge37" class="edge">
<title>Node29&#45;&gt;Node32</title>
<path fill="none" stroke="#191970" d="M1749.5433,-67.9699C1810.0095,-58.94 1905.2227,-44.4923 1987.5,-31 1995.732,-29.6501 2004.3851,-28.192 2012.929,-26.729"/>
<polygon fill="#191970" stroke="#191970" points="2013.6161,-30.1623 2022.8769,-25.0155 2012.4278,-23.2639 2013.6161,-30.1623"/>
</g>
<!-- Node33 -->
<g id="node34" class="node">
<title>Node33</title>
<polygon fill="none" stroke="#bfbfbf" points="2174.5,-6 2174.5,-25 2342.5,-25 2342.5,-6 2174.5,-6"/>
<text text-anchor="middle" x="2258.5" y="-13" font-family="Helvetica,sans-Serif" font-size="10.00" fill="#000000">Math/GenVector/Transform3D.h</text>
</g>
<!-- Node29&#45;&gt;Node33 -->
<g id="edge38" class="edge">
<title>Node29&#45;&gt;Node33</title>
<path fill="none" stroke="#191970" d="M1749.6439,-72.4616C1840.5445,-65.4073 2016.6097,-50.563 2165.5,-31 2175.0156,-29.7497 2185.0508,-28.2591 2194.8685,-26.7038"/>
<polygon fill="#191970" stroke="#191970" points="2195.6771,-30.1186 2204.99,-25.0669 2194.5595,-23.2084 2195.6771,-30.1186"/>
</g>
<!-- Node34 -->
<g id="node35" class="node">
<title>Node34</title>
<polygon fill="none" stroke="#bfbfbf" points="2361,-6 2361,-25 2534,-25 2534,-6 2361,-6"/>
<text text-anchor="middle" x="2447.5" y="-13" font-family="Helvetica,sans-Serif" font-size="10.00" fill="#000000">Math/GenVector/Translation3D.h</text>
</g>
<!-- Node29&#45;&gt;Node34 -->
<g id="edge39" class="edge">
<title>Node29&#45;&gt;Node34</title>
<path fill="none" stroke="#191970" d="M1749.9129,-74.6043C1867.1548,-69.6178 2130.8506,-56.4142 2351.5,-31 2361.9855,-29.7923 2373.0752,-28.25 2383.8486,-26.6086"/>
<polygon fill="#191970" stroke="#191970" points="2384.712,-30.0162 2394.0507,-25.0122 2383.6298,-23.1003 2384.712,-30.0162"/>
</g>
<!-- Node35 -->
<g id="node36" class="node">
<title>Node35</title>
<polygon fill="none" stroke="#bfbfbf" points="2552.5,-.5 2552.5,-30.5 2716.5,-30.5 2716.5,-.5 2552.5,-.5"/>
<text text-anchor="start" x="2560.5" y="-18.5" font-family="Helvetica,sans-Serif" font-size="10.00" fill="#000000">Math/GenVector/Displacement</text>
<text text-anchor="middle" x="2634.5" y="-7.5" font-family="Helvetica,sans-Serif" font-size="10.00" fill="#000000">Vector2D.h</text>
</g>
<!-- Node29&#45;&gt;Node35 -->
<g id="edge40" class="edge">
<title>Node29&#45;&gt;Node35</title>
<path fill="none" stroke="#191970" d="M1749.6042,-76.121C1888.5807,-73.6019 2239.1194,-64.3159 2541.9213,-31.092"/>
<polygon fill="#191970" stroke="#191970" points="2542.6665,-34.5309 2552.2201,-29.9506 2541.8954,-27.5735 2542.6665,-34.5309"/>
</g>
<!-- Node36 -->
<g id="node37" class="node">
<title>Node36</title>
<polygon fill="none" stroke="#bfbfbf" points="1299,-6 1299,-25 1488,-25 1488,-6 1299,-6"/>
<text text-anchor="middle" x="1393.5" y="-13" font-family="Helvetica,sans-Serif" font-size="10.00" fill="#000000">Math/GenVector/PositionVector2D.h</text>
</g>
<!-- Node29&#45;&gt;Node36 -->
<g id="edge41" class="edge">
<title>Node29&#45;&gt;Node36</title>
<path fill="none" stroke="#191970" d="M1642.7299,-67.4581C1590.6251,-56.5956 1505.4981,-38.8488 1449.4833,-27.1711"/>
<polygon fill="#191970" stroke="#191970" points="1449.8813,-23.6789 1439.3775,-25.0643 1448.4527,-30.5316 1449.8813,-23.6789"/>
</g>
<!-- Node37 -->
<g id="node38" class="node">
<title>Node37</title>
<polygon fill="none" stroke="#bfbfbf" points="1506.5,-6 1506.5,-25 1588.5,-25 1588.5,-6 1506.5,-6"/>
<text text-anchor="middle" x="1547.5" y="-13" font-family="Helvetica,sans-Serif" font-size="10.00" fill="#000000">TGeoMatrix.h</text>
</g>
<!-- Node29&#45;&gt;Node37 -->
<g id="edge43" class="edge">
<title>Node29&#45;&gt;Node37</title>
<path fill="none" stroke="#191970" d="M1666.4688,-67.3906C1642.8769,-57.1005 1605.2499,-40.6888 1578.6367,-29.0809"/>
<polygon fill="#191970" stroke="#191970" points="1579.9419,-25.8318 1569.3765,-25.0419 1577.1433,-32.248 1579.9419,-25.8318"/>
</g>
</g>
</svg>
