<?xml version="1.0" encoding="UTF-8" standalone="no"?>
<!DOCTYPE svg PUBLIC "-//W3C//DTD SVG 1.1//EN"
 "http://www.w3.org/Graphics/SVG/1.1/DTD/svg11.dtd">
<!-- Generated by graphviz version 2.40.1 (20161225.0304)
 -->
<!-- Title: /home/travis/build/AliceO2Group/AliceO2/Detectors/MUON/MCH/Simulation/include/MCHSimulation/Digitizer.h Pages: 1 -->
<!--zoomable 318 -->
<svg id="main" version="1.1" xmlns="http://www.w3.org/2000/svg" xmlns:xlink="http://www.w3.org/1999/xlink" xml:space="preserve" onload="init(evt)">
<style type="text/css"><![CDATA[
.edge:hover path { stroke: red; }
.edge:hover polygon { stroke: red; fill: red; }
]]></style>
<script type="text/javascript"><![CDATA[
var edges = document.getElementsByTagName('g');
if (edges && edges.length) {
  for (var i=0;i<edges.length;i++) {
    if (edges[i].id.substr(0,4)=='edge') {
      edges[i].setAttribute('class','edge');
    }
  }
}
]]></script>
        <defs>
                <circle id="rim" cx="0" cy="0" r="7"/>
                <circle id="rim2" cx="0" cy="0" r="3.5"/>
                <g id="zoomPlus">
                        <use xlink:href="#rim" fill="#404040">
                                <set attributeName="fill" to="#808080" begin="zoomplus.mouseover" end="zoomplus.mouseout"/>
                        </use>
                        <path d="M-4,0h8M0,-4v8" fill="none" stroke="white" stroke-width="1.5" pointer-events="none"/>
                </g>
                <g id="zoomMin">
                        <use xlink:href="#rim" fill="#404040">
                                <set attributeName="fill" to="#808080" begin="zoomminus.mouseover" end="zoomminus.mouseout"/>
                        </use>
                        <path d="M-4,0h8" fill="none" stroke="white" stroke-width="1.5" pointer-events="none"/>
                </g>
                <g id="dirArrow">
                        <path fill="none" stroke="white" stroke-width="1.5" d="M0,-3.0v7 M-2.5,-0.5L0,-3.0L2.5,-0.5"/>
                </g>
               <g id="resetDef">
                       <use xlink:href="#rim2" fill="#404040">
                               <set attributeName="fill" to="#808080" begin="reset.mouseover" end="reset.mouseout"/>
                       </use>
               </g>
        </defs>

<script type="text/javascript">
var viewWidth = 2222;
var viewHeight = 318;
var sectionId = 'dynsection-0';
</script>
<script xlink:href="../../svgpan.js"/>
<svg id="graph" class="graph">
<g id="viewport">
<title>/home/travis/build/AliceO2Group/AliceO2/Detectors/MUON/MCH/Simulation/include/MCHSimulation/Digitizer.h</title>
<!-- Node0 -->
<g id="node1" class="node">
<title>Node0</title>
<polygon fill="#bfbfbf" stroke="#000000" points="1179,-257.5 1179,-309.5 1364,-309.5 1364,-257.5 1179,-257.5"/>
<text text-anchor="start" x="1187" y="-297.5" font-family="Helvetica,sans-Serif" font-size="10.00" fill="#000000">/home/travis/build</text>
<text text-anchor="start" x="1187" y="-286.5" font-family="Helvetica,sans-Serif" font-size="10.00" fill="#000000">/AliceO2Group/AliceO2</text>
<text text-anchor="start" x="1187" y="-275.5" font-family="Helvetica,sans-Serif" font-size="10.00" fill="#000000">/Detectors/MUON/MCH/Simulation</text>
<text text-anchor="middle" x="1271.5" y="-264.5" font-family="Helvetica,sans-Serif" font-size="10.00" fill="#000000">/include/MCHSimulation/Digitizer.h</text>
</g>
<!-- Node1 -->
<g id="node2" class="node">
<title>Node1</title>
<g id="a_node2"><a xlink:href="../../d8/d72/Detectors_2MUON_2MCH_2Base_2include_2MCHBase_2Digit_8h.html" target="_top" xlink:title="MCHBase/Digit.h">
<polygon fill="none" stroke="#000000" points="161.5,-67.5 161.5,-86.5 259.5,-86.5 259.5,-67.5 161.5,-67.5"/>
<text text-anchor="middle" x="210.5" y="-74.5" font-family="Helvetica,sans-Serif" font-size="10.00" fill="#000000">MCHBase/Digit.h</text>
</a>
</g>
</g>
<!-- Node0&#45;&gt;Node1 -->
<g id="edge1" class="edge">
<title>Node0&#45;&gt;Node1</title>
<path fill="none" stroke="#191970" d="M1178.7367,-265.4457C965.3835,-223.9212 444.7202,-122.5857 269.3,-88.4441"/>
<polygon fill="#191970" stroke="#191970" points="269.9634,-85.0076 259.4789,-86.5327 268.6261,-91.8787 269.9634,-85.0076"/>
</g>
<!-- Node3 -->
<g id="node4" class="node">
<title>Node3</title>
<g id="a_node4"><a xlink:href="../../d5/daf/Detectors_2MUON_2MCH_2Simulation_2include_2MCHSimulation_2Hit_8h.html" target="_top" xlink:title="MCHSimulation/Hit.h">
<polygon fill="none" stroke="#000000" points="1142.5,-196 1142.5,-215 1260.5,-215 1260.5,-196 1142.5,-196"/>
<text text-anchor="middle" x="1201.5" y="-203" font-family="Helvetica,sans-Serif" font-size="10.00" fill="#000000">MCHSimulation/Hit.h</text>
</a>
</g>
</g>
<!-- Node0&#45;&gt;Node3 -->
<g id="edge3" class="edge">
<title>Node0&#45;&gt;Node3</title>
<path fill="none" stroke="#191970" d="M1247.8012,-257.0928C1237.6375,-245.7675 1226.0495,-232.8552 1217.0088,-222.7812"/>
<polygon fill="#191970" stroke="#191970" points="1219.3849,-220.1886 1210.1009,-215.0839 1214.1752,-224.864 1219.3849,-220.1886"/>
</g>
<!-- Node23 -->
<g id="node24" class="node">
<title>Node23</title>
<g id="a_node24"><a xlink:href="../../d7/dcd/MCCompLabel_8h.html" target="_top" xlink:title="SimulationDataFormat\l/MCCompLabel.h">
<polygon fill="none" stroke="#000000" points="1279,-190.5 1279,-220.5 1406,-220.5 1406,-190.5 1279,-190.5"/>
<text text-anchor="start" x="1287" y="-208.5" font-family="Helvetica,sans-Serif" font-size="10.00" fill="#000000">SimulationDataFormat</text>
<text text-anchor="middle" x="1342.5" y="-197.5" font-family="Helvetica,sans-Serif" font-size="10.00" fill="#000000">/MCCompLabel.h</text>
</a>
</g>
</g>
<!-- Node0&#45;&gt;Node23 -->
<g id="edge24" class="edge">
<title>Node0&#45;&gt;Node23</title>
<path fill="none" stroke="#191970" d="M1295.5374,-257.0928C1304.1252,-247.6583 1313.7155,-237.1224 1321.9796,-228.0436"/>
<polygon fill="#191970" stroke="#191970" points="1324.6988,-230.2557 1328.842,-220.5046 1319.5222,-225.5437 1324.6988,-230.2557"/>
</g>
<!-- Node25 -->
<g id="node26" class="node">
<title>Node25</title>
<g id="a_node26"><a xlink:href="../../db/d14/MCTruthContainer_8h.html" target="_top" xlink:title="Definition of a container to keep Monte Carlo truth external to simulation objects. ">
<polygon fill="none" stroke="#000000" points="1791,-190.5 1791,-220.5 1918,-220.5 1918,-190.5 1791,-190.5"/>
<text text-anchor="start" x="1799" y="-208.5" font-family="Helvetica,sans-Serif" font-size="10.00" fill="#000000">SimulationDataFormat</text>
<text text-anchor="middle" x="1854.5" y="-197.5" font-family="Helvetica,sans-Serif" font-size="10.00" fill="#000000">/MCTruthContainer.h</text>
</a>
</g>
</g>
<!-- Node0&#45;&gt;Node25 -->
<g id="edge27" class="edge">
<title>Node0&#45;&gt;Node25</title>
<path fill="none" stroke="#191970" d="M1364.2002,-271.0976C1479.8248,-255.6281 1675.1512,-229.4952 1781.0045,-215.333"/>
<polygon fill="#191970" stroke="#191970" points="1781.5158,-218.7959 1790.9633,-214.0006 1780.5875,-211.8577 1781.5158,-218.7959"/>
</g>
<!-- Node2 -->
<g id="node3" class="node">
<title>Node2</title>
<polygon fill="none" stroke="#bfbfbf" points="0,-6 0,-25 59,-25 59,-6 0,-6"/>
<text text-anchor="middle" x="29.5" y="-13" font-family="Helvetica,sans-Serif" font-size="10.00" fill="#000000">Rtypes.h</text>
</g>
<!-- Node1&#45;&gt;Node2 -->
<g id="edge2" class="edge">
<title>Node1&#45;&gt;Node2</title>
<path fill="none" stroke="#191970" d="M178.9977,-67.4401C150.0899,-58.5152 106.1674,-44.57 68.5,-31 66.5978,-30.3147 64.6498,-29.5959 62.6881,-28.8588"/>
<polygon fill="#191970" stroke="#191970" points="63.506,-25.4231 52.9164,-25.0924 60.9885,-31.9548 63.506,-25.4231"/>
</g>
<!-- Node4 -->
<g id="node5" class="node">
<title>Node4</title>
<g id="a_node5"><a xlink:href="../../d4/d25/BaseHits_8h.html" target="_top" xlink:title="SimulationDataFormat\l/BaseHits.h">
<polygon fill="none" stroke="#000000" points="948,-123.5 948,-153.5 1075,-153.5 1075,-123.5 948,-123.5"/>
<text text-anchor="start" x="956" y="-141.5" font-family="Helvetica,sans-Serif" font-size="10.00" fill="#000000">SimulationDataFormat</text>
<text text-anchor="middle" x="1011.5" y="-130.5" font-family="Helvetica,sans-Serif" font-size="10.00" fill="#000000">/BaseHits.h</text>
</a>
</g>
</g>
<!-- Node3&#45;&gt;Node4 -->
<g id="edge4" class="edge">
<title>Node3&#45;&gt;Node4</title>
<path fill="none" stroke="#191970" d="M1174.2776,-195.9005C1145.5771,-185.7798 1099.6554,-169.5864 1063.8935,-156.9756"/>
<polygon fill="#191970" stroke="#191970" points="1064.6938,-153.5466 1054.099,-153.5218 1062.3659,-160.1482 1064.6938,-153.5466"/>
</g>
<!-- Node15 -->
<g id="node16" class="node">
<title>Node15</title>
<g id="a_node16"><a xlink:href="../../d0/d91/ShmAllocator_8h.html" target="_top" xlink:title="CommonUtils/ShmAllocator.h">
<polygon fill="none" stroke="#000000" points="1500.5,-129 1500.5,-148 1660.5,-148 1660.5,-129 1500.5,-129"/>
<text text-anchor="middle" x="1580.5" y="-136" font-family="Helvetica,sans-Serif" font-size="10.00" fill="#000000">CommonUtils/ShmAllocator.h</text>
</a>
</g>
</g>
<!-- Node3&#45;&gt;Node15 -->
<g id="edge16" class="edge">
<title>Node3&#45;&gt;Node15</title>
<path fill="none" stroke="#191970" d="M1242.2839,-195.9389C1251.54,-193.8803 1261.3418,-191.7879 1270.5,-190 1350.8952,-174.3051 1443.6194,-159.3055 1506.5573,-149.5842"/>
<polygon fill="#191970" stroke="#191970" points="1507.433,-152.9907 1516.7844,-148.0105 1506.3684,-146.0722 1507.433,-152.9907"/>
</g>
<!-- Node5 -->
<g id="node6" class="node">
<title>Node5</title>
<g id="a_node6"><a xlink:href="../../dc/d73/Cartesian_8h.html" target="_top" xlink:title="MathUtils/Cartesian.h">
<polygon fill="none" stroke="#000000" points="857.5,-67.5 857.5,-86.5 979.5,-86.5 979.5,-67.5 857.5,-67.5"/>
<text text-anchor="middle" x="918.5" y="-74.5" font-family="Helvetica,sans-Serif" font-size="10.00" fill="#000000">MathUtils/Cartesian.h</text>
</a>
</g>
</g>
<!-- Node4&#45;&gt;Node5 -->
<g id="edge5" class="edge">
<title>Node4&#45;&gt;Node5</title>
<path fill="none" stroke="#191970" d="M988.5112,-123.2977C974.3034,-113.9022 956.1215,-101.8787 941.8475,-92.4395"/>
<polygon fill="#191970" stroke="#191970" points="943.3845,-89.2598 933.1128,-86.6633 939.5233,-95.0986 943.3845,-89.2598"/>
</g>
<!-- Node5&#45;&gt;Node2 -->
<g id="edge13" class="edge">
<title>Node5&#45;&gt;Node2</title>
<path fill="none" stroke="#191970" d="M857.4146,-76.2543C688.7388,-73.7886 219.0704,-64.067 68.5,-31 65.6312,-30.37 62.6988,-29.554 59.794,-28.6263"/>
<polygon fill="#191970" stroke="#191970" points="60.7511,-25.2508 50.1567,-25.1495 58.3755,-31.8354 60.7511,-25.2508"/>
</g>
<!-- Node6 -->
<g id="node7" class="node">
<title>Node6</title>
<polygon fill="none" stroke="#bfbfbf" points="77.5,-.5 77.5,-30.5 241.5,-30.5 241.5,-.5 77.5,-.5"/>
<text text-anchor="start" x="85.5" y="-18.5" font-family="Helvetica,sans-Serif" font-size="10.00" fill="#000000">Math/GenVector/Displacement</text>
<text text-anchor="middle" x="159.5" y="-7.5" font-family="Helvetica,sans-Serif" font-size="10.00" fill="#000000">Vector3D.h</text>
</g>
<!-- Node5&#45;&gt;Node6 -->
<g id="edge6" class="edge">
<title>Node5&#45;&gt;Node6</title>
<path fill="none" stroke="#191970" d="M857.0626,-74.8241C740.8593,-70.2605 480.7537,-57.9103 251.9685,-31.1002"/>
<polygon fill="#191970" stroke="#191970" points="252.1285,-27.5948 241.7863,-29.8949 251.3055,-34.5462 252.1285,-27.5948"/>
</g>
<!-- Node7 -->
<g id="node8" class="node">
<title>Node7</title>
<polygon fill="none" stroke="#bfbfbf" points="260,-6 260,-25 449,-25 449,-6 260,-6"/>
<text text-anchor="middle" x="354.5" y="-13" font-family="Helvetica,sans-Serif" font-size="10.00" fill="#000000">Math/GenVector/PositionVector3D.h</text>
</g>
<!-- Node5&#45;&gt;Node7 -->
<g id="edge7" class="edge">
<title>Node5&#45;&gt;Node7</title>
<path fill="none" stroke="#191970" d="M857.3801,-71.8339C769.1587,-64.1624 601.0647,-48.7415 458.5,-31 447.6818,-29.6537 436.2514,-28.0921 425.0831,-26.4888"/>
<polygon fill="#191970" stroke="#191970" points="425.3253,-22.9872 414.9253,-25.0097 424.3166,-29.9142 425.3253,-22.9872"/>
</g>
<!-- Node8 -->
<g id="node9" class="node">
<title>Node8</title>
<polygon fill="none" stroke="#bfbfbf" points="467.5,-6 467.5,-25 627.5,-25 627.5,-6 467.5,-6"/>
<text text-anchor="middle" x="547.5" y="-13" font-family="Helvetica,sans-Serif" font-size="10.00" fill="#000000">Math/GenVector/Rotation3D.h</text>
</g>
<!-- Node5&#45;&gt;Node8 -->
<g id="edge8" class="edge">
<title>Node5&#45;&gt;Node8</title>
<path fill="none" stroke="#191970" d="M859.053,-67.4929C801.9612,-58.3176 713.2962,-43.9504 636.5,-31 628.4736,-29.6465 620.0438,-28.2047 611.7039,-26.7661"/>
<polygon fill="#191970" stroke="#191970" points="612.0594,-23.2757 601.609,-25.0191 610.8657,-30.1732 612.0594,-23.2757"/>
</g>
<!-- Node9 -->
<g id="node10" class="node">
<title>Node9</title>
<polygon fill="none" stroke="#bfbfbf" points="645.5,-6 645.5,-25 813.5,-25 813.5,-6 645.5,-6"/>
<text text-anchor="middle" x="729.5" y="-13" font-family="Helvetica,sans-Serif" font-size="10.00" fill="#000000">Math/GenVector/Transform3D.h</text>
</g>
<!-- Node5&#45;&gt;Node9 -->
<g id="edge9" class="edge">
<title>Node5&#45;&gt;Node9</title>
<path fill="none" stroke="#191970" d="M888.9688,-67.3906C856.5134,-56.8298 804.2419,-39.8208 768.4514,-28.1747"/>
<polygon fill="#191970" stroke="#191970" points="769.4161,-24.808 758.8239,-25.0419 767.2501,-31.4645 769.4161,-24.808"/>
</g>
<!-- Node10 -->
<g id="node11" class="node">
<title>Node10</title>
<polygon fill="none" stroke="#bfbfbf" points="832,-6 832,-25 1005,-25 1005,-6 832,-6"/>
<text text-anchor="middle" x="918.5" y="-13" font-family="Helvetica,sans-Serif" font-size="10.00" fill="#000000">Math/GenVector/Translation3D.h</text>
</g>
<!-- Node5&#45;&gt;Node10 -->
<g id="edge10" class="edge">
<title>Node5&#45;&gt;Node10</title>
<path fill="none" stroke="#191970" d="M918.5,-67.3906C918.5,-58.8657 918.5,-46.1392 918.5,-35.4235"/>
<polygon fill="#191970" stroke="#191970" points="922.0001,-35.2448 918.5,-25.2449 915.0001,-35.2449 922.0001,-35.2448"/>
</g>
<!-- Node11 -->
<g id="node12" class="node">
<title>Node11</title>
<polygon fill="none" stroke="#bfbfbf" points="1023.5,-.5 1023.5,-30.5 1187.5,-30.5 1187.5,-.5 1023.5,-.5"/>
<text text-anchor="start" x="1031.5" y="-18.5" font-family="Helvetica,sans-Serif" font-size="10.00" fill="#000000">Math/GenVector/Displacement</text>
<text text-anchor="middle" x="1105.5" y="-7.5" font-family="Helvetica,sans-Serif" font-size="10.00" fill="#000000">Vector2D.h</text>
</g>
<!-- Node5&#45;&gt;Node11 -->
<g id="edge11" class="edge">
<title>Node5&#45;&gt;Node11</title>
<path fill="none" stroke="#191970" d="M947.7188,-67.3906C975.0188,-58.4123 1016.4895,-44.7735 1050.064,-33.7316"/>
<polygon fill="#191970" stroke="#191970" points="1051.3487,-36.9936 1059.7547,-30.5446 1049.1617,-30.344 1051.3487,-36.9936"/>
</g>
<!-- Node12 -->
<g id="node13" class="node">
<title>Node12</title>
<polygon fill="none" stroke="#bfbfbf" points="1206,-6 1206,-25 1395,-25 1395,-6 1206,-6"/>
<text text-anchor="middle" x="1300.5" y="-13" font-family="Helvetica,sans-Serif" font-size="10.00" fill="#000000">Math/GenVector/PositionVector2D.h</text>
</g>
<!-- Node5&#45;&gt;Node12 -->
<g id="edge12" class="edge">
<title>Node5&#45;&gt;Node12</title>
<path fill="none" stroke="#191970" d="M977.7684,-67.4581C1046.3197,-56.4217 1159.0116,-38.2789 1231.46,-26.6151"/>
<polygon fill="#191970" stroke="#191970" points="1232.0904,-30.0587 1241.4069,-25.0137 1230.9777,-23.1477 1232.0904,-30.0587"/>
</g>
<!-- Node13 -->
<g id="node14" class="node">
<title>Node13</title>
<polygon fill="none" stroke="#bfbfbf" points="1413.5,-6 1413.5,-25 1495.5,-25 1495.5,-6 1413.5,-6"/>
<text text-anchor="middle" x="1454.5" y="-13" font-family="Helvetica,sans-Serif" font-size="10.00" fill="#000000">TGeoMatrix.h</text>
</g>
<!-- Node5&#45;&gt;Node13 -->
<g id="edge14" class="edge">
<title>Node5&#45;&gt;Node13</title>
<path fill="none" stroke="#191970" d="M979.6994,-75.2484C1072.4171,-71.6888 1253.6649,-61.1814 1404.5,-31 1408.7107,-30.1575 1413.0703,-29.0979 1417.3805,-27.9302"/>
<polygon fill="#191970" stroke="#191970" points="1418.6288,-31.2123 1427.2545,-25.0603 1416.675,-24.4904 1418.6288,-31.2123"/>
</g>
<!-- Node14 -->
<g id="node15" class="node">
<title>Node14</title>
<polygon fill="none" stroke="#bfbfbf" points="1514,-6 1514,-25 1563,-25 1563,-6 1514,-6"/>
<text text-anchor="middle" x="1538.5" y="-13" font-family="Helvetica,sans-Serif" font-size="10.00" fill="#000000">iosfwd</text>
</g>
<!-- Node5&#45;&gt;Node14 -->
<g id="edge15" class="edge">
<title>Node5&#45;&gt;Node14</title>
<path fill="none" stroke="#191970" d="M979.5571,-74.8996C1108.8802,-70.0124 1406.565,-56.3239 1504.5,-31 1506.6943,-30.4326 1508.9229,-29.7314 1511.1357,-28.9434"/>
<polygon fill="#191970" stroke="#191970" points="1512.6488,-32.106 1520.5788,-25.0798 1509.9981,-25.6273 1512.6488,-32.106"/>
</g>
<!-- Node16 -->
<g id="node17" class="node">
<title>Node16</title>
<g id="a_node17"><a xlink:href="../../de/d61/ShmManager_8h.html" target="_top" xlink:title="CommonUtils/ShmManager.h">
<polygon fill="none" stroke="#000000" points="1548.5,-67.5 1548.5,-86.5 1706.5,-86.5 1706.5,-67.5 1548.5,-67.5"/>
<text text-anchor="middle" x="1627.5" y="-74.5" font-family="Helvetica,sans-Serif" font-size="10.00" fill="#000000">CommonUtils/ShmManager.h</text>
</a>
</g>
</g>
<!-- Node15&#45;&gt;Node16 -->
<g id="edge17" class="edge">
<title>Node15&#45;&gt;Node16</title>
<path fill="none" stroke="#191970" d="M1587.8438,-128.8906C1594.7702,-119.8273 1605.326,-106.0149 1613.806,-94.9188"/>
<polygon fill="#191970" stroke="#191970" points="1616.7615,-96.8155 1620.0527,-86.7449 1611.1997,-92.565 1616.7615,-96.8155"/>
</g>
<!-- Node22 -->
<g id="node23" class="node">
<title>Node22</title>
<polygon fill="none" stroke="#bfbfbf" points="1724.5,-67.5 1724.5,-86.5 1776.5,-86.5 1776.5,-67.5 1724.5,-67.5"/>
<text text-anchor="middle" x="1750.5" y="-74.5" font-family="Helvetica,sans-Serif" font-size="10.00" fill="#000000">cassert</text>
</g>
<!-- Node15&#45;&gt;Node22 -->
<g id="edge23" class="edge">
<title>Node15&#45;&gt;Node22</title>
<path fill="none" stroke="#191970" d="M1607.0625,-128.8906C1636.0903,-118.3894 1682.7413,-101.5127 1714.9174,-89.8725"/>
<polygon fill="#191970" stroke="#191970" points="1716.19,-93.1342 1724.4029,-86.441 1713.8086,-86.5517 1716.19,-93.1342"/>
</g>
<!-- Node17 -->
<g id="node18" class="node">
<title>Node17</title>
<polygon fill="none" stroke="#bfbfbf" points="1581.5,-6 1581.5,-25 1613.5,-25 1613.5,-6 1581.5,-6"/>
<text text-anchor="middle" x="1597.5" y="-13" font-family="Helvetica,sans-Serif" font-size="10.00" fill="#000000">list</text>
</g>
<!-- Node16&#45;&gt;Node17 -->
<g id="edge18" class="edge">
<title>Node16&#45;&gt;Node17</title>
<path fill="none" stroke="#191970" d="M1622.8125,-67.3906C1618.5227,-58.5965 1612.0518,-45.3312 1606.7266,-34.4145"/>
<polygon fill="#191970" stroke="#191970" points="1609.7836,-32.6981 1602.2536,-25.2449 1603.4922,-35.7671 1609.7836,-32.6981"/>
</g>
<!-- Node18 -->
<g id="node19" class="node">
<title>Node18</title>
<polygon fill="none" stroke="#bfbfbf" points="1632,-6 1632,-25 1685,-25 1685,-6 1632,-6"/>
<text text-anchor="middle" x="1658.5" y="-13" font-family="Helvetica,sans-Serif" font-size="10.00" fill="#000000">cstddef</text>
</g>
<!-- Node16&#45;&gt;Node18 -->
<g id="edge19" class="edge">
<title>Node16&#45;&gt;Node18</title>
<path fill="none" stroke="#191970" d="M1632.3438,-67.3906C1636.7766,-58.5965 1643.4631,-45.3312 1648.9659,-34.4145"/>
<polygon fill="#191970" stroke="#191970" points="1652.2122,-35.75 1653.588,-25.2449 1645.9614,-32.5992 1652.2122,-35.75"/>
</g>
<!-- Node19 -->
<g id="node20" class="node">
<title>Node19</title>
<polygon fill="none" stroke="#bfbfbf" points="1703.5,-6 1703.5,-25 1753.5,-25 1753.5,-6 1703.5,-6"/>
<text text-anchor="middle" x="1728.5" y="-13" font-family="Helvetica,sans-Serif" font-size="10.00" fill="#000000">atomic</text>
</g>
<!-- Node16&#45;&gt;Node19 -->
<g id="edge20" class="edge">
<title>Node16&#45;&gt;Node19</title>
<path fill="none" stroke="#191970" d="M1643.2813,-67.3906C1659.5875,-57.4616 1685.254,-41.833 1704.1614,-30.3201"/>
<polygon fill="#191970" stroke="#191970" points="1706.1087,-33.2322 1712.8296,-25.0419 1702.4681,-27.2533 1706.1087,-33.2322"/>
</g>
<!-- Node20 -->
<g id="node21" class="node">
<title>Node20</title>
<polygon fill="none" stroke="#bfbfbf" points="1772,-.5 1772,-30.5 1937,-30.5 1937,-.5 1772,-.5"/>
<text text-anchor="start" x="1780" y="-18.5" font-family="Helvetica,sans-Serif" font-size="10.00" fill="#000000">boost/interprocess</text>
<text text-anchor="middle" x="1854.5" y="-7.5" font-family="Helvetica,sans-Serif" font-size="10.00" fill="#000000">/managed_external_buffer.hpp</text>
</g>
<!-- Node16&#45;&gt;Node20 -->
<g id="edge21" class="edge">
<title>Node16&#45;&gt;Node20</title>
<path fill="none" stroke="#191970" d="M1662.9688,-67.3906C1696.6773,-58.2581 1748.1834,-44.3038 1789.2965,-33.1653"/>
<polygon fill="#191970" stroke="#191970" points="1790.2328,-36.5379 1798.9696,-30.5446 1788.4022,-29.7814 1790.2328,-36.5379"/>
</g>
<!-- Node21 -->
<g id="node22" class="node">
<title>Node21</title>
<polygon fill="none" stroke="#bfbfbf" points="1955.5,-.5 1955.5,-30.5 2089.5,-30.5 2089.5,-.5 1955.5,-.5"/>
<text text-anchor="start" x="1963.5" y="-18.5" font-family="Helvetica,sans-Serif" font-size="10.00" fill="#000000">boost/interprocess</text>
<text text-anchor="middle" x="2022.5" y="-7.5" font-family="Helvetica,sans-Serif" font-size="10.00" fill="#000000">/allocators/allocator.hpp</text>
</g>
<!-- Node16&#45;&gt;Node21 -->
<g id="edge22" class="edge">
<title>Node16&#45;&gt;Node21</title>
<path fill="none" stroke="#191970" d="M1702.14,-67.4817C1764.572,-59.234 1856.2086,-46.4654 1945.3862,-31.1383"/>
<polygon fill="#191970" stroke="#191970" points="1946.147,-34.5587 1955.4032,-29.4039 1944.9527,-27.6613 1946.147,-34.5587"/>
</g>
<!-- Node24 -->
<g id="node25" class="node">
<title>Node24</title>
<g id="a_node25"><a xlink:href="../../d2/d45/GPUCommonRtypes_8h.html" target="_top" xlink:title="GPUCommonRtypes.h">
<polygon fill="none" stroke="#000000" points="1280,-129 1280,-148 1405,-148 1405,-129 1280,-129"/>
<text text-anchor="middle" x="1342.5" y="-136" font-family="Helvetica,sans-Serif" font-size="10.00" fill="#000000">GPUCommonRtypes.h</text>
</a>
</g>
</g>
<!-- Node23&#45;&gt;Node24 -->
<g id="edge25" class="edge">
<title>Node23&#45;&gt;Node24</title>
<path fill="none" stroke="#191970" d="M1342.5,-190.2967C1342.5,-180.7699 1342.5,-168.3954 1342.5,-158.1306"/>
<polygon fill="#191970" stroke="#191970" points="1346.0001,-158.0549 1342.5,-148.055 1339.0001,-158.055 1346.0001,-158.0549"/>
</g>
<!-- Node24&#45;&gt;Node2 -->
<g id="edge26" class="edge">
<title>Node24&#45;&gt;Node2</title>
<path fill="none" stroke="#191970" d="M1279.8304,-134.2974C1039.8887,-118.0585 187.1297,-58.9312 68.5,-31 65.641,-30.3269 62.7154,-29.4814 59.8149,-28.5345"/>
<polygon fill="#191970" stroke="#191970" points="60.7784,-25.1606 50.1844,-25.0278 58.3833,-31.7381 60.7784,-25.1606"/>
</g>
<!-- Node25&#45;&gt;Node22 -->
<g id="edge30" class="edge">
<title>Node25&#45;&gt;Node22</title>
<path fill="none" stroke="#191970" d="M1790.9126,-190.9887C1755.9996,-181.5944 1717.7469,-168.4474 1707.5,-154 1693.443,-134.1806 1713.3381,-109.3438 1730.493,-93.3265"/>
<polygon fill="#191970" stroke="#191970" points="1732.8819,-95.8861 1738.0503,-86.6375 1728.2424,-90.6444 1732.8819,-95.8861"/>
</g>
<!-- Node25&#45;&gt;Node24 -->
<g id="edge28" class="edge">
<title>Node25&#45;&gt;Node24</title>
<path fill="none" stroke="#191970" d="M1790.9479,-197.1836C1695.5367,-184.6982 1515.7765,-161.1749 1415.2484,-148.0198"/>
<polygon fill="#191970" stroke="#191970" points="1415.5475,-144.5292 1405.1779,-146.702 1414.6392,-151.47 1415.5475,-144.5292"/>
</g>
<!-- Node26 -->
<g id="node27" class="node">
<title>Node26</title>
<polygon fill="none" stroke="#bfbfbf" points="1716.5,-129 1716.5,-148 1766.5,-148 1766.5,-129 1716.5,-129"/>
<text text-anchor="middle" x="1741.5" y="-136" font-family="Helvetica,sans-Serif" font-size="10.00" fill="#000000">cstdint</text>
</g>
<!-- Node25&#45;&gt;Node26 -->
<g id="edge29" class="edge">
<title>Node25&#45;&gt;Node26</title>
<path fill="none" stroke="#191970" d="M1829.1406,-190.4639C1810.4369,-179.3741 1785.1119,-164.3584 1766.495,-153.32"/>
<polygon fill="#191970" stroke="#191970" points="1768.0844,-150.1935 1757.6977,-148.1039 1764.5143,-156.2147 1768.0844,-150.1935"/>
</g>
<!-- Node27 -->
<g id="node28" class="node">
<title>Node27</title>
<polygon fill="none" stroke="#bfbfbf" points="1785,-129 1785,-148 1850,-148 1850,-129 1785,-129"/>
<text text-anchor="middle" x="1817.5" y="-136" font-family="Helvetica,sans-Serif" font-size="10.00" fill="#000000">stdexcept</text>
</g>
<!-- Node25&#45;&gt;Node27 -->
<g id="edge31" class="edge">
<title>Node25&#45;&gt;Node27</title>
<path fill="none" stroke="#191970" d="M1846.1041,-190.2967C1840.6192,-180.3645 1833.4249,-167.3371 1827.6237,-156.8321"/>
<polygon fill="#191970" stroke="#191970" points="1830.6748,-155.1169 1822.7766,-148.055 1824.547,-158.5009 1830.6748,-155.1169"/>
</g>
<!-- Node28 -->
<g id="node29" class="node">
<title>Node28</title>
<polygon fill="none" stroke="#bfbfbf" points="1868.5,-129 1868.5,-148 1916.5,-148 1916.5,-129 1868.5,-129"/>
<text text-anchor="middle" x="1892.5" y="-136" font-family="Helvetica,sans-Serif" font-size="10.00" fill="#000000">gsl/gsl</text>
</g>
<!-- Node25&#45;&gt;Node28 -->
<g id="edge32" class="edge">
<title>Node25&#45;&gt;Node28</title>
<path fill="none" stroke="#191970" d="M1863.1228,-190.2967C1868.756,-180.3645 1876.1447,-167.3371 1882.1027,-156.8321"/>
<polygon fill="#191970" stroke="#191970" points="1885.1917,-158.4801 1887.0808,-148.055 1879.1029,-155.0266 1885.1917,-158.4801"/>
</g>
<!-- Node29 -->
<g id="node30" class="node">
<title>Node29</title>
<polygon fill="none" stroke="#bfbfbf" points="1935,-129 1935,-148 2004,-148 2004,-129 1935,-129"/>
<text text-anchor="middle" x="1969.5" y="-136" font-family="Helvetica,sans-Serif" font-size="10.00" fill="#000000">type_traits</text>
</g>
<!-- Node25&#45;&gt;Node29 -->
<g id="edge33" class="edge">
<title>Node25&#45;&gt;Node29</title>
<path fill="none" stroke="#191970" d="M1880.3082,-190.4639C1899.4299,-179.3234 1925.3517,-164.2212 1944.3218,-153.1691"/>
<polygon fill="#191970" stroke="#191970" points="1946.1371,-156.1622 1953.0157,-148.1039 1942.6132,-150.1138 1946.1371,-156.1622"/>
</g>
<!-- Node30 -->
<g id="node31" class="node">
<title>Node30</title>
<polygon fill="none" stroke="#bfbfbf" points="2022.5,-129 2022.5,-148 2072.5,-148 2072.5,-129 2022.5,-129"/>
<text text-anchor="middle" x="2047.5" y="-136" font-family="Helvetica,sans-Serif" font-size="10.00" fill="#000000">cstring</text>
</g>
<!-- Node25&#45;&gt;Node30 -->
<g id="edge34" class="edge">
<title>Node25&#45;&gt;Node30</title>
<path fill="none" stroke="#191970" d="M1905.8626,-190.4989C1937.2633,-180.9256 1978.068,-167.7626 2013.5,-154 2015.0798,-153.3864 2016.6912,-152.7366 2018.3114,-152.0643"/>
<polygon fill="#191970" stroke="#191970" points="2019.7466,-155.2569 2027.5268,-148.0653 2016.96,-148.8355 2019.7466,-155.2569"/>
</g>
<!-- Node31 -->
<g id="node32" class="node">
<title>Node31</title>
<polygon fill="none" stroke="#bfbfbf" points="2090.5,-129 2090.5,-148 2148.5,-148 2148.5,-129 2090.5,-129"/>
<text text-anchor="middle" x="2119.5" y="-136" font-family="Helvetica,sans-Serif" font-size="10.00" fill="#000000">memory</text>
</g>
<!-- Node25&#45;&gt;Node31 -->
<g id="edge35" class="edge">
<title>Node25&#45;&gt;Node31</title>
<path fill="none" stroke="#191970" d="M1918.3568,-193.9283C1964.2593,-184.9069 2027.346,-171.0605 2081.5,-154 2083.6534,-153.3216 2085.8559,-152.5737 2088.0624,-151.7838"/>
<polygon fill="#191970" stroke="#191970" points="2089.5251,-154.9719 2097.6214,-148.1381 2087.0306,-148.4315 2089.5251,-154.9719"/>
</g>
<!-- Node32 -->
<g id="node33" class="node">
<title>Node32</title>
<polygon fill="none" stroke="#bfbfbf" points="2167,-129 2167,-148 2214,-148 2214,-129 2167,-129"/>
<text text-anchor="middle" x="2190.5" y="-136" font-family="Helvetica,sans-Serif" font-size="10.00" fill="#000000">vector</text>
</g>
<!-- Node25&#45;&gt;Node32 -->
<g id="edge36" class="edge">
<title>Node25&#45;&gt;Node32</title>
<path fill="none" stroke="#191970" d="M1918.0512,-199.7546C1980.1829,-192.966 2076.9252,-179.2549 2157.5,-154 2159.3573,-153.4179 2161.2445,-152.7519 2163.1277,-152.0308"/>
<polygon fill="#191970" stroke="#191970" points="2164.5272,-155.239 2172.3525,-148.0964 2161.7811,-148.8001 2164.5272,-155.239"/>
</g>
</g>
</svg>
        <g id="navigator" transform="translate(0 0)" fill="#404254">
                <rect fill="#f2f5e9" fill-opacity="0.5" stroke="#606060" stroke-width=".5" x="0" y="0" width="60" height="60"/>
                <use id="zoomplus" xlink:href="#zoomPlus" x="17" y="9" onmousedown="handleZoom(evt,'in')"/>
                <use id="zoomminus" xlink:href="#zoomMin" x="42" y="9" onmousedown="handleZoom(evt,'out')"/>
                <use id="reset" xlink:href="#resetDef" x="30" y="36" onmousedown="handleReset()"/>
                <g id="arrowUp" xlink:href="#dirArrow" transform="translate(30 24)" onmousedown="handlePan(0,-1)">
                  <use xlink:href="#rim" fill="#404040">
                        <set attributeName="fill" to="#808080" begin="arrowUp.mouseover" end="arrowUp.mouseout"/>
                  </use>
                  <path fill="none" stroke="white" stroke-width="1.5" d="M0,-3.0v7 M-2.5,-0.5L0,-3.0L2.5,-0.5"/>
                </g>
                <g id="arrowRight" xlink:href="#dirArrow" transform="rotate(90) translate(36 -43)" onmousedown="handlePan(1,0)">
                  <use xlink:href="#rim" fill="#404040">
                        <set attributeName="fill" to="#808080" begin="arrowRight.mouseover" end="arrowRight.mouseout"/>
                  </use>
                  <path fill="none" stroke="white" stroke-width="1.5" d="M0,-3.0v7 M-2.5,-0.5L0,-3.0L2.5,-0.5"/>
                </g>
                <g id="arrowDown" xlink:href="#dirArrow" transform="rotate(180) translate(-30 -48)" onmousedown="handlePan(0,1)">
                  <use xlink:href="#rim" fill="#404040">
                        <set attributeName="fill" to="#808080" begin="arrowDown.mouseover" end="arrowDown.mouseout"/>
                  </use>
                  <path fill="none" stroke="white" stroke-width="1.5" d="M0,-3.0v7 M-2.5,-0.5L0,-3.0L2.5,-0.5"/>
                </g>
                <g id="arrowLeft" xlink:href="#dirArrow" transform="rotate(270) translate(-36 17)" onmousedown="handlePan(-1,0)">
                  <use xlink:href="#rim" fill="#404040">
                        <set attributeName="fill" to="#808080" begin="arrowLeft.mouseover" end="arrowLeft.mouseout"/>
                  </use>
                  <path fill="none" stroke="white" stroke-width="1.5" d="M0,-3.0v7 M-2.5,-0.5L0,-3.0L2.5,-0.5"/>
                </g>
        </g>
        <svg viewBox="0 0 15 15" width="100%" height="30px" preserveAspectRatio="xMaxYMin meet">
         <g id="arrow_out" transform="scale(0.3 0.3)">
          <a xlink:href="MUON_2MCH_2Simulation_2include_2MCHSimulation_2Digitizer_8h__incl_org.svg" target="_base">
           <rect id="button" ry="5" rx="5" y="6" x="6" height="38" width="38"
                fill="#f2f5e9" fill-opacity="0.5" stroke="#606060" stroke-width="1.0"/>
           <path id="arrow"
             d="M 11.500037,31.436501 C 11.940474,20.09759 22.043105,11.32322 32.158766,21.979434 L 37.068811,17.246167 C 37.068811,17.246167 37.088388,32 37.088388,32 L 22.160133,31.978069 C 22.160133,31.978069 26.997745,27.140456 26.997745,27.140456 C 18.528582,18.264221 13.291696,25.230495 11.500037,31.436501 z"
             style="fill:#404040;"/>
          </a>
         </g>
        </svg>
</svg>
