<?xml version="1.0" encoding="UTF-8" standalone="no"?>
<!DOCTYPE svg PUBLIC "-//W3C//DTD SVG 1.1//EN"
 "http://www.w3.org/Graphics/SVG/1.1/DTD/svg11.dtd">
<!-- Generated by graphviz version 2.40.1 (20161225.0304)
 -->
<!-- Title: /home/travis/build/AliceO2Group/AliceO2/Detectors/EMCAL/base/include/EMCALBase/ClusterFactory.h Pages: 1 -->
<!--zoomable 318 -->
<svg id="main" version="1.1" xmlns="http://www.w3.org/2000/svg" xmlns:xlink="http://www.w3.org/1999/xlink" xml:space="preserve" onload="init(evt)">
<style type="text/css"><![CDATA[
.edge:hover path { stroke: red; }
.edge:hover polygon { stroke: red; fill: red; }
]]></style>
<script type="text/javascript"><![CDATA[
var edges = document.getElementsByTagName('g');
if (edges && edges.length) {
  for (var i=0;i<edges.length;i++) {
    if (edges[i].id.substr(0,4)=='edge') {
      edges[i].setAttribute('class','edge');
    }
  }
}
]]></script>
        <defs>
                <circle id="rim" cx="0" cy="0" r="7"/>
                <circle id="rim2" cx="0" cy="0" r="3.5"/>
                <g id="zoomPlus">
                        <use xlink:href="#rim" fill="#404040">
                                <set attributeName="fill" to="#808080" begin="zoomplus.mouseover" end="zoomplus.mouseout"/>
                        </use>
                        <path d="M-4,0h8M0,-4v8" fill="none" stroke="white" stroke-width="1.5" pointer-events="none"/>
                </g>
                <g id="zoomMin">
                        <use xlink:href="#rim" fill="#404040">
                                <set attributeName="fill" to="#808080" begin="zoomminus.mouseover" end="zoomminus.mouseout"/>
                        </use>
                        <path d="M-4,0h8" fill="none" stroke="white" stroke-width="1.5" pointer-events="none"/>
                </g>
                <g id="dirArrow">
                        <path fill="none" stroke="white" stroke-width="1.5" d="M0,-3.0v7 M-2.5,-0.5L0,-3.0L2.5,-0.5"/>
                </g>
               <g id="resetDef">
                       <use xlink:href="#rim2" fill="#404040">
                               <set attributeName="fill" to="#808080" begin="reset.mouseover" end="reset.mouseout"/>
                       </use>
               </g>
        </defs>

<script type="text/javascript">
var viewWidth = 2961;
var viewHeight = 318;
var sectionId = 'dynsection-0';
</script>
<script xlink:href="../../svgpan.js"/>
<svg id="graph" class="graph">
<g id="viewport">
<title>/home/travis/build/AliceO2Group/AliceO2/Detectors/EMCAL/base/include/EMCALBase/ClusterFactory.h</title>
<!-- Node0 -->
<g id="node1" class="node">
<title>Node0</title>
<polygon fill="#bfbfbf" stroke="#000000" points="1348.5,-257.5 1348.5,-309.5 1543.5,-309.5 1543.5,-257.5 1348.5,-257.5"/>
<text text-anchor="start" x="1356.5" y="-297.5" font-family="Helvetica,sans-Serif" font-size="10.00" fill="#000000">/home/travis/build</text>
<text text-anchor="start" x="1356.5" y="-286.5" font-family="Helvetica,sans-Serif" font-size="10.00" fill="#000000">/AliceO2Group/AliceO2</text>
<text text-anchor="start" x="1356.5" y="-275.5" font-family="Helvetica,sans-Serif" font-size="10.00" fill="#000000">/Detectors/EMCAL/base</text>
<text text-anchor="middle" x="1446" y="-264.5" font-family="Helvetica,sans-Serif" font-size="10.00" fill="#000000">/include/EMCALBase/ClusterFactory.h</text>
</g>
<!-- Node1 -->
<g id="node2" class="node">
<title>Node1</title>
<polygon fill="none" stroke="#bfbfbf" points="770,-129 770,-148 812,-148 812,-129 770,-129"/>
<text text-anchor="middle" x="791" y="-136" font-family="Helvetica,sans-Serif" font-size="10.00" fill="#000000">array</text>
</g>
<!-- Node0&#45;&gt;Node1 -->
<g id="edge1" class="edge">
<title>Node0&#45;&gt;Node1</title>
<path fill="none" stroke="#191970" d="M1348.2699,-276.1867C1221.9615,-265.9352 1009.4221,-245.7441 935,-221 887.8374,-205.3192 838.8514,-173.3121 811.9132,-154.1007"/>
<polygon fill="#191970" stroke="#191970" points="813.8086,-151.1518 803.6574,-148.1181 809.7011,-156.8201 813.8086,-151.1518"/>
</g>
<!-- Node2 -->
<g id="node3" class="node">
<title>Node2</title>
<polygon fill="none" stroke="#bfbfbf" points="1702.5,-129 1702.5,-148 1759.5,-148 1759.5,-129 1702.5,-129"/>
<text text-anchor="middle" x="1731" y="-136" font-family="Helvetica,sans-Serif" font-size="10.00" fill="#000000">gsl/span</text>
</g>
<!-- Node0&#45;&gt;Node2 -->
<g id="edge2" class="edge">
<title>Node0&#45;&gt;Node2</title>
<path fill="none" stroke="#191970" d="M1533.461,-257.3991C1561.5207,-247.5919 1592.243,-235.2986 1619,-221 1654.5388,-202.0085 1691.329,-172.7273 1712.6426,-154.6368"/>
<polygon fill="#191970" stroke="#191970" points="1714.9734,-157.2485 1720.273,-148.0744 1710.409,-151.9413 1714.9734,-157.2485"/>
</g>
<!-- Node3 -->
<g id="node4" class="node">
<title>Node3</title>
<polygon fill="none" stroke="#bfbfbf" points="1217.5,-.5 1217.5,-19.5 1276.5,-19.5 1276.5,-.5 1217.5,-.5"/>
<text text-anchor="middle" x="1247" y="-7.5" font-family="Helvetica,sans-Serif" font-size="10.00" fill="#000000">Rtypes.h</text>
</g>
<!-- Node0&#45;&gt;Node3 -->
<g id="edge3" class="edge">
<title>Node0&#45;&gt;Node3</title>
<path fill="none" stroke="#191970" d="M1348.1406,-280.4478C1075.4792,-270.9181 322.5036,-237.2267 252,-154 135.4733,-16.4448 -135.9373,-158.9283 511,-56 647.0289,-34.3577 1074.3515,-16.5992 1207.1915,-11.4854"/>
<polygon fill="#191970" stroke="#191970" points="1207.4654,-14.9776 1217.3243,-11.0979 1207.1979,-7.9827 1207.4654,-14.9776"/>
</g>
<!-- Node4 -->
<g id="node5" class="node">
<title>Node4</title>
<polygon fill="none" stroke="#bfbfbf" points="2141.5,-196 2141.5,-215 2220.5,-215 2220.5,-196 2141.5,-196"/>
<text text-anchor="middle" x="2181" y="-203" font-family="Helvetica,sans-Serif" font-size="10.00" fill="#000000">fmt/format.h</text>
</g>
<!-- Node0&#45;&gt;Node4 -->
<g id="edge4" class="edge">
<title>Node0&#45;&gt;Node4</title>
<path fill="none" stroke="#191970" d="M1543.6927,-281.4033C1677.8065,-276.9897 1925.8959,-263.3134 2133,-221 2137.1022,-220.1619 2141.3465,-219.0962 2145.5366,-217.9171"/>
<polygon fill="#191970" stroke="#191970" points="2146.5667,-221.2622 2155.123,-215.0139 2144.5378,-214.5626 2146.5667,-221.2622"/>
</g>
<!-- Node5 -->
<g id="node6" class="node">
<title>Node5</title>
<g id="a_node6"><a xlink:href="../../dc/d27/DataFormats_2Detectors_2EMCAL_2include_2DataFormatsEMCAL_2Cluster_8h.html" target="_top" xlink:title="DataFormatsEMCAL/Cluster.h">
<polygon fill="none" stroke="#000000" points="663,-196 663,-215 821,-215 821,-196 663,-196"/>
<text text-anchor="middle" x="742" y="-203" font-family="Helvetica,sans-Serif" font-size="10.00" fill="#000000">DataFormatsEMCAL/Cluster.h</text>
</a>
</g>
</g>
<!-- Node0&#45;&gt;Node5 -->
<g id="edge5" class="edge">
<title>Node0&#45;&gt;Node5</title>
<path fill="none" stroke="#191970" d="M1348.2844,-273.376C1233.3139,-261.3619 1036.6956,-240.4957 868,-221 855.0893,-219.5079 841.4409,-217.8808 828.0798,-216.2601"/>
<polygon fill="#191970" stroke="#191970" points="828.2854,-212.7593 817.9355,-215.0243 827.4388,-219.708 828.2854,-212.7593"/>
</g>
<!-- Node15 -->
<g id="node16" class="node">
<title>Node15</title>
<g id="a_node16"><a xlink:href="../../d3/d6e/DataFormats_2Detectors_2EMCAL_2include_2DataFormatsEMCAL_2Digit_8h.html" target="_top" xlink:title="DataFormatsEMCAL/Digit.h">
<polygon fill="none" stroke="#000000" points="944,-196 944,-215 1092,-215 1092,-196 944,-196"/>
<text text-anchor="middle" x="1018" y="-203" font-family="Helvetica,sans-Serif" font-size="10.00" fill="#000000">DataFormatsEMCAL/Digit.h</text>
</a>
</g>
</g>
<!-- Node0&#45;&gt;Node15 -->
<g id="edge18" class="edge">
<title>Node0&#45;&gt;Node15</title>
<path fill="none" stroke="#191970" d="M1348.3446,-265.703C1266.0408,-250.7037 1150.75,-229.6928 1080.397,-216.8714"/>
<polygon fill="#191970" stroke="#191970" points="1080.8179,-213.3905 1070.3524,-215.0408 1079.5628,-220.2771 1080.8179,-213.3905"/>
</g>
<!-- Node21 -->
<g id="node22" class="node">
<title>Node21</title>
<g id="a_node22"><a xlink:href="../../d5/dd3/DataFormats_2Detectors_2EMCAL_2include_2DataFormatsEMCAL_2Cell_8h.html" target="_top" xlink:title="DataFormatsEMCAL/Cell.h">
<polygon fill="none" stroke="#000000" points="1265.5,-196 1265.5,-215 1408.5,-215 1408.5,-196 1265.5,-196"/>
<text text-anchor="middle" x="1337" y="-203" font-family="Helvetica,sans-Serif" font-size="10.00" fill="#000000">DataFormatsEMCAL/Cell.h</text>
</a>
</g>
</g>
<!-- Node0&#45;&gt;Node21 -->
<g id="edge29" class="edge">
<title>Node0&#45;&gt;Node21</title>
<path fill="none" stroke="#191970" d="M1409.4014,-257.3101C1392.6022,-245.2887 1373.2502,-231.4405 1358.7822,-221.0873"/>
<polygon fill="#191970" stroke="#191970" points="1360.6406,-218.1133 1350.4714,-215.1401 1356.5669,-223.8059 1360.6406,-218.1133"/>
</g>
<!-- Node23 -->
<g id="node24" class="node">
<title>Node23</title>
<g id="a_node24"><a xlink:href="../../d8/da3/AnalysisCluster_8h.html" target="_top" xlink:title="DataFormatsEMCAL/Analysis\lCluster.h">
<polygon fill="none" stroke="#000000" points="1452.5,-190.5 1452.5,-220.5 1609.5,-220.5 1609.5,-190.5 1452.5,-190.5"/>
<text text-anchor="start" x="1460.5" y="-208.5" font-family="Helvetica,sans-Serif" font-size="10.00" fill="#000000">DataFormatsEMCAL/Analysis</text>
<text text-anchor="middle" x="1531" y="-197.5" font-family="Helvetica,sans-Serif" font-size="10.00" fill="#000000">Cluster.h</text>
</a>
</g>
</g>
<!-- Node0&#45;&gt;Node23 -->
<g id="edge33" class="edge">
<title>Node0&#45;&gt;Node23</title>
<path fill="none" stroke="#191970" d="M1474.7771,-257.0928C1485.266,-247.4677 1497.0041,-236.6963 1507.031,-227.4951"/>
<polygon fill="#191970" stroke="#191970" points="1509.6473,-229.8445 1514.6489,-220.5046 1504.9145,-224.687 1509.6473,-229.8445"/>
</g>
<!-- Node25 -->
<g id="node26" class="node">
<title>Node25</title>
<g id="a_node26"><a xlink:href="../../dc/d73/Cartesian_8h.html" target="_top" xlink:title="MathUtils/Cartesian.h">
<polygon fill="none" stroke="#000000" points="1840,-129 1840,-148 1962,-148 1962,-129 1840,-129"/>
<text text-anchor="middle" x="1901" y="-136" font-family="Helvetica,sans-Serif" font-size="10.00" fill="#000000">MathUtils/Cartesian.h</text>
</a>
</g>
</g>
<!-- Node0&#45;&gt;Node25 -->
<g id="edge64" class="edge">
<title>Node0&#45;&gt;Node25</title>
<path fill="none" stroke="#191970" d="M1536.5874,-257.4886C1573.9686,-246.5418 1617.6677,-233.4697 1657,-221 1730.8205,-197.5963 1816.4274,-168.1021 1864.0906,-151.4682"/>
<polygon fill="#191970" stroke="#191970" points="1865.3825,-154.7243 1873.6676,-148.1207 1863.0728,-148.1164 1865.3825,-154.7243"/>
</g>
<!-- Node35 -->
<g id="node36" class="node">
<title>Node35</title>
<g id="a_node36"><a xlink:href="../../dd/da8/EMCAL_2base_2include_2EMCALBase_2Geometry_8h.html" target="_top" xlink:title="EMCALBase/Geometry.h">
<polygon fill="none" stroke="#000000" points="1990.5,-196 1990.5,-215 2123.5,-215 2123.5,-196 1990.5,-196"/>
<text text-anchor="middle" x="2057" y="-203" font-family="Helvetica,sans-Serif" font-size="10.00" fill="#000000">EMCALBase/Geometry.h</text>
</a>
</g>
</g>
<!-- Node0&#45;&gt;Node35 -->
<g id="edge50" class="edge">
<title>Node0&#45;&gt;Node35</title>
<path fill="none" stroke="#191970" d="M1543.8288,-271.0112C1665.1166,-255.5277 1869.331,-229.4577 1980.0457,-215.324"/>
<polygon fill="#191970" stroke="#191970" points="1980.6597,-218.7741 1990.136,-214.0358 1979.7732,-211.8304 1980.6597,-218.7741"/>
</g>
<!-- Node5&#45;&gt;Node1 -->
<g id="edge6" class="edge">
<title>Node5&#45;&gt;Node1</title>
<path fill="none" stroke="#191970" d="M749.0205,-195.9005C756.5161,-185.6515 768.5663,-169.1747 777.8376,-156.4976"/>
<polygon fill="#191970" stroke="#191970" points="780.9144,-158.2195 783.9925,-148.0817 775.2642,-154.0873 780.9144,-158.2195"/>
</g>
<!-- Node6 -->
<g id="node7" class="node">
<title>Node6</title>
<polygon fill="none" stroke="#bfbfbf" points="966.5,-62 966.5,-81 1015.5,-81 1015.5,-62 966.5,-62"/>
<text text-anchor="middle" x="991" y="-69" font-family="Helvetica,sans-Serif" font-size="10.00" fill="#000000">iosfwd</text>
</g>
<!-- Node5&#45;&gt;Node6 -->
<g id="edge7" class="edge">
<title>Node5&#45;&gt;Node6</title>
<path fill="none" stroke="#191970" d="M736.0392,-195.8611C726.4967,-179.0636 710.5497,-144.1988 728,-123 756.5007,-88.3771 891.2035,-76.6953 956.0073,-73.0368"/>
<polygon fill="#191970" stroke="#191970" points="956.3497,-76.5236 966.1499,-72.4978 955.9782,-69.5335 956.3497,-76.5236"/>
</g>
<!-- Node7 -->
<g id="node8" class="node">
<title>Node7</title>
<polygon fill="none" stroke="#bfbfbf" points="2909,-62 2909,-81 2953,-81 2953,-62 2909,-62"/>
<text text-anchor="middle" x="2931" y="-69" font-family="Helvetica,sans-Serif" font-size="10.00" fill="#000000">string</text>
</g>
<!-- Node5&#45;&gt;Node7 -->
<g id="edge8" class="edge">
<title>Node5&#45;&gt;Node7</title>
<path fill="none" stroke="#191970" d="M740.8565,-195.9391C739.3466,-178.2854 739.0683,-140.7584 761,-123 807.1836,-85.6046 2842.2815,-101.1392 2900,-87 2901.9286,-86.5275 2903.8752,-85.9193 2905.803,-85.2182"/>
<polygon fill="#191970" stroke="#191970" points="2907.3616,-88.3566 2915.1157,-81.1368 2904.5517,-81.9452 2907.3616,-88.3566"/>
</g>
<!-- Node8 -->
<g id="node9" class="node">
<title>Node8</title>
<polygon fill="none" stroke="#bfbfbf" points="1160.5,-129 1160.5,-148 1207.5,-148 1207.5,-129 1160.5,-129"/>
<text text-anchor="middle" x="1184" y="-136" font-family="Helvetica,sans-Serif" font-size="10.00" fill="#000000">vector</text>
</g>
<!-- Node5&#45;&gt;Node8 -->
<g id="edge9" class="edge">
<title>Node5&#45;&gt;Node8</title>
<path fill="none" stroke="#191970" d="M821.2965,-198.4919C922.2964,-189.0501 1090.941,-171.4124 1151,-154 1152.915,-153.4448 1154.8583,-152.7916 1156.7941,-152.0728"/>
<polygon fill="#191970" stroke="#191970" points="1158.3916,-155.1976 1166.2429,-148.0837 1155.669,-148.7487 1158.3916,-155.1976"/>
</g>
<!-- Node9 -->
<g id="node10" class="node">
<title>Node9</title>
<g id="a_node10"><a xlink:href="../../df/d5d/common_2include_2CommonDataFormat_2TimeStamp_8h.html" target="_top" xlink:title="CommonDataFormat/TimeStamp.h">
<polygon fill="none" stroke="#000000" points="489.5,-129 489.5,-148 676.5,-148 676.5,-129 489.5,-129"/>
<text text-anchor="middle" x="583" y="-136" font-family="Helvetica,sans-Serif" font-size="10.00" fill="#000000">CommonDataFormat/TimeStamp.h</text>
</a>
</g>
</g>
<!-- Node5&#45;&gt;Node9 -->
<g id="edge10" class="edge">
<title>Node5&#45;&gt;Node9</title>
<path fill="none" stroke="#191970" d="M719.2192,-195.9005C691.945,-184.4077 646.0868,-165.0838 615.1986,-152.068"/>
<polygon fill="#191970" stroke="#191970" points="616.313,-148.7395 605.7386,-148.0817 613.5947,-155.1902 616.313,-148.7395"/>
</g>
<!-- Node14 -->
<g id="node15" class="node">
<title>Node14</title>
<g id="a_node15"><a xlink:href="../../de/d64/RangeReference_8h.html" target="_top" xlink:title="Class to refer to the 1st entry and N elements of some group in the continuous container. ">
<polygon fill="none" stroke="#000000" points="261,-129 261,-148 471,-148 471,-129 261,-129"/>
<text text-anchor="middle" x="366" y="-136" font-family="Helvetica,sans-Serif" font-size="10.00" fill="#000000">CommonDataFormat/RangeReference.h</text>
</a>
</g>
</g>
<!-- Node5&#45;&gt;Node14 -->
<g id="edge16" class="edge">
<title>Node5&#45;&gt;Node14</title>
<path fill="none" stroke="#191970" d="M688.5277,-195.9717C620.2696,-183.8087 502.3261,-162.7921 429.5511,-149.8243"/>
<polygon fill="#191970" stroke="#191970" points="430.0509,-146.3583 419.5919,-148.0496 428.8228,-153.2497 430.0509,-146.3583"/>
</g>
<!-- Node10 -->
<g id="node11" class="node">
<title>Node10</title>
<g id="a_node11"><a xlink:href="../../d2/d45/GPUCommonRtypes_8h.html" target="_top" xlink:title="GPUCommonRtypes.h">
<polygon fill="none" stroke="#000000" points="520.5,-62 520.5,-81 645.5,-81 645.5,-62 520.5,-62"/>
<text text-anchor="middle" x="583" y="-69" font-family="Helvetica,sans-Serif" font-size="10.00" fill="#000000">GPUCommonRtypes.h</text>
</a>
</g>
</g>
<!-- Node9&#45;&gt;Node10 -->
<g id="edge11" class="edge">
<title>Node9&#45;&gt;Node10</title>
<path fill="none" stroke="#191970" d="M583,-128.9005C583,-119.149 583,-103.7597 583,-91.3695"/>
<polygon fill="#191970" stroke="#191970" points="586.5001,-91.0816 583,-81.0817 579.5001,-91.0817 586.5001,-91.0816"/>
</g>
<!-- Node11 -->
<g id="node12" class="node">
<title>Node11</title>
<g id="a_node12"><a xlink:href="../../df/d21/GPUCommonDef_8h.html" target="_top" xlink:title="GPUCommonDef.h">
<polygon fill="none" stroke="#000000" points="97.5,-62 97.5,-81 204.5,-81 204.5,-62 97.5,-62"/>
<text text-anchor="middle" x="151" y="-69" font-family="Helvetica,sans-Serif" font-size="10.00" fill="#000000">GPUCommonDef.h</text>
</a>
</g>
</g>
<!-- Node9&#45;&gt;Node11 -->
<g id="edge13" class="edge">
<title>Node9&#45;&gt;Node11</title>
<path fill="none" stroke="#191970" d="M521.5637,-128.9717C440.1669,-116.3477 297.2754,-94.1862 214.7381,-81.3853"/>
<polygon fill="#191970" stroke="#191970" points="215.1525,-77.9078 204.7342,-79.8338 214.0796,-84.8251 215.1525,-77.9078"/>
</g>
<!-- Node10&#45;&gt;Node3 -->
<g id="edge12" class="edge">
<title>Node10&#45;&gt;Node3</title>
<path fill="none" stroke="#191970" d="M645.7665,-65.6865C780.9032,-53.1701 1096.1424,-23.9725 1207.3215,-13.675"/>
<polygon fill="#191970" stroke="#191970" points="1207.7963,-17.1461 1217.4309,-12.7387 1207.1507,-10.176 1207.7963,-17.1461"/>
</g>
<!-- Node12 -->
<g id="node13" class="node">
<title>Node12</title>
<g id="a_node13"><a xlink:href="../../d5/d93/GPUCommonDefSettings_8h.html" target="_top" xlink:title="GPUCommonDefSettings.h">
<polygon fill="none" stroke="#000000" points="0,-.5 0,-19.5 148,-19.5 148,-.5 0,-.5"/>
<text text-anchor="middle" x="74" y="-7.5" font-family="Helvetica,sans-Serif" font-size="10.00" fill="#000000">GPUCommonDefSettings.h</text>
</a>
</g>
</g>
<!-- Node11&#45;&gt;Node12 -->
<g id="edge14" class="edge">
<title>Node11&#45;&gt;Node12</title>
<path fill="none" stroke="#191970" d="M138.9688,-61.8906C126.9893,-52.3227 108.3834,-37.4621 94.1475,-26.0919"/>
<polygon fill="#191970" stroke="#191970" points="95.9447,-23.0479 85.9468,-19.5419 91.5761,-28.5175 95.9447,-23.0479"/>
</g>
<!-- Node13 -->
<g id="node14" class="node">
<title>Node13</title>
<g id="a_node14"><a xlink:href="../../da/d5a/GPUCommonDefAPI_8h.html" target="_top" xlink:title="GPUCommonDefAPI.h">
<polygon fill="none" stroke="#000000" points="166,-.5 166,-19.5 290,-19.5 290,-.5 166,-.5"/>
<text text-anchor="middle" x="228" y="-7.5" font-family="Helvetica,sans-Serif" font-size="10.00" fill="#000000">GPUCommonDefAPI.h</text>
</a>
</g>
</g>
<!-- Node11&#45;&gt;Node13 -->
<g id="edge15" class="edge">
<title>Node11&#45;&gt;Node13</title>
<path fill="none" stroke="#191970" d="M163.0313,-61.8906C175.0107,-52.3227 193.6166,-37.4621 207.8525,-26.0919"/>
<polygon fill="#191970" stroke="#191970" points="210.4239,-28.5175 216.0532,-19.5419 206.0553,-23.0479 210.4239,-28.5175"/>
</g>
<!-- Node14&#45;&gt;Node10 -->
<g id="edge17" class="edge">
<title>Node14&#45;&gt;Node10</title>
<path fill="none" stroke="#191970" d="M397.0908,-128.9005C435.2808,-117.1091 500.1687,-97.0746 542.2986,-84.0668"/>
<polygon fill="#191970" stroke="#191970" points="543.4445,-87.3761 551.9669,-81.0817 541.3794,-80.6876 543.4445,-87.3761"/>
</g>
<!-- Node15&#45;&gt;Node3 -->
<g id="edge21" class="edge">
<title>Node15&#45;&gt;Node3</title>
<path fill="none" stroke="#191970" d="M1024.9938,-195.9066C1044.0934,-170.2606 1099.7522,-99.1385 1160,-56 1177.4644,-43.4952 1198.7573,-32.1786 1215.9066,-23.8989"/>
<polygon fill="#191970" stroke="#191970" points="1217.4103,-27.0595 1224.957,-19.6233 1214.4201,-20.7302 1217.4103,-27.0595"/>
</g>
<!-- Node15&#45;&gt;Node6 -->
<g id="edge19" class="edge">
<title>Node15&#45;&gt;Node6</title>
<path fill="none" stroke="#191970" d="M1009.268,-195.7158C1001.1812,-185.9452 989.7162,-170.1016 985,-154 978.9071,-133.1982 982.0847,-108.2466 985.7191,-91.2699"/>
<polygon fill="#191970" stroke="#191970" points="989.1601,-91.9289 988.0806,-81.3892 982.3519,-90.3017 989.1601,-91.9289"/>
</g>
<!-- Node15&#45;&gt;Node9 -->
<g id="edge22" class="edge">
<title>Node15&#45;&gt;Node9</title>
<path fill="none" stroke="#191970" d="M956.1371,-195.9717C876.6838,-183.7341 739.0412,-162.5339 654.9796,-149.5865"/>
<polygon fill="#191970" stroke="#191970" points="655.4176,-146.1128 645.0013,-148.0496 654.3519,-153.0312 655.4176,-146.1128"/>
</g>
<!-- Node16 -->
<g id="node17" class="node">
<title>Node16</title>
<polygon fill="none" stroke="#bfbfbf" points="994.5,-129 994.5,-148 1041.5,-148 1041.5,-129 994.5,-129"/>
<text text-anchor="middle" x="1018" y="-136" font-family="Helvetica,sans-Serif" font-size="10.00" fill="#000000">cmath</text>
</g>
<!-- Node15&#45;&gt;Node16 -->
<g id="edge20" class="edge">
<title>Node15&#45;&gt;Node16</title>
<path fill="none" stroke="#191970" d="M1018,-195.9005C1018,-186.149 1018,-170.7597 1018,-158.3695"/>
<polygon fill="#191970" stroke="#191970" points="1021.5001,-158.0816 1018,-148.0817 1014.5001,-158.0817 1021.5001,-158.0816"/>
</g>
<!-- Node17 -->
<g id="node18" class="node">
<title>Node17</title>
<g id="a_node18"><a xlink:href="../../dd/dda/DataFormats_2Detectors_2EMCAL_2include_2DataFormatsEMCAL_2Constants_8h.html" target="_top" xlink:title="DataFormatsEMCAL/Constants.h">
<polygon fill="none" stroke="#000000" points="1225.5,-129 1225.5,-148 1398.5,-148 1398.5,-129 1225.5,-129"/>
<text text-anchor="middle" x="1312" y="-136" font-family="Helvetica,sans-Serif" font-size="10.00" fill="#000000">DataFormatsEMCAL/Constants.h</text>
</a>
</g>
</g>
<!-- Node15&#45;&gt;Node17 -->
<g id="edge23" class="edge">
<title>Node15&#45;&gt;Node17</title>
<path fill="none" stroke="#191970" d="M1059.8108,-195.9717C1112.4532,-183.975 1202.8904,-163.3651 1259.955,-150.3606"/>
<polygon fill="#191970" stroke="#191970" points="1260.8851,-153.7385 1269.8574,-148.1039 1259.3297,-146.9134 1260.8851,-153.7385"/>
</g>
<!-- Node20 -->
<g id="node21" class="node">
<title>Node20</title>
<polygon fill="none" stroke="#bfbfbf" points="830.5,-123.5 830.5,-153.5 937.5,-153.5 937.5,-123.5 830.5,-123.5"/>
<text text-anchor="start" x="838.5" y="-141.5" font-family="Helvetica,sans-Serif" font-size="10.00" fill="#000000">boost/serialization</text>
<text text-anchor="middle" x="884" y="-130.5" font-family="Helvetica,sans-Serif" font-size="10.00" fill="#000000">/base_object.hpp</text>
</g>
<!-- Node15&#45;&gt;Node20 -->
<g id="edge28" class="edge">
<title>Node15&#45;&gt;Node20</title>
<path fill="none" stroke="#191970" d="M998.8011,-195.9005C979.1651,-186.0826 948.0996,-170.5498 923.2334,-158.1167"/>
<polygon fill="#191970" stroke="#191970" points="924.5531,-154.8635 914.0435,-153.5218 921.4225,-161.1245 924.5531,-154.8635"/>
</g>
<!-- Node17&#45;&gt;Node3 -->
<g id="edge24" class="edge">
<title>Node17&#45;&gt;Node3</title>
<path fill="none" stroke="#191970" d="M1300.4214,-128.6362C1289.8994,-119.0463 1274.7269,-103.5407 1266,-87 1256.4868,-68.969 1251.6222,-46.0378 1249.2112,-29.9062"/>
<polygon fill="#191970" stroke="#191970" points="1252.6218,-28.9924 1247.8579,-19.529 1245.6805,-29.8976 1252.6218,-28.9924"/>
</g>
<!-- Node17&#45;&gt;Node6 -->
<g id="edge25" class="edge">
<title>Node17&#45;&gt;Node6</title>
<path fill="none" stroke="#191970" d="M1266.3494,-128.9717C1201.3613,-115.4072 1083.6175,-90.8314 1025.4383,-78.6881"/>
<polygon fill="#191970" stroke="#191970" points="1026.1315,-75.2574 1015.6274,-76.6403 1024.7013,-82.1097 1026.1315,-75.2574"/>
</g>
<!-- Node18 -->
<g id="node19" class="node">
<title>Node18</title>
<polygon fill="none" stroke="#bfbfbf" points="1275.5,-62 1275.5,-81 1340.5,-81 1340.5,-62 1275.5,-62"/>
<text text-anchor="middle" x="1308" y="-69" font-family="Helvetica,sans-Serif" font-size="10.00" fill="#000000">exception</text>
</g>
<!-- Node17&#45;&gt;Node18 -->
<g id="edge26" class="edge">
<title>Node17&#45;&gt;Node18</title>
<path fill="none" stroke="#191970" d="M1311.4269,-128.9005C1310.8447,-119.149 1309.926,-103.7597 1309.1862,-91.3695"/>
<polygon fill="#191970" stroke="#191970" points="1312.6619,-90.8553 1308.572,-81.0817 1305.6743,-91.2725 1312.6619,-90.8553"/>
</g>
<!-- Node19 -->
<g id="node20" class="node">
<title>Node19</title>
<polygon fill="none" stroke="#bfbfbf" points="1169,-62 1169,-81 1219,-81 1219,-62 1169,-62"/>
<text text-anchor="middle" x="1194" y="-69" font-family="Helvetica,sans-Serif" font-size="10.00" fill="#000000">cstdint</text>
</g>
<!-- Node17&#45;&gt;Node19 -->
<g id="edge27" class="edge">
<title>Node17&#45;&gt;Node19</title>
<path fill="none" stroke="#191970" d="M1295.0935,-128.9005C1275.378,-117.7062 1242.5778,-99.0823 1219.7041,-86.0947"/>
<polygon fill="#191970" stroke="#191970" points="1221.2993,-82.9757 1210.8752,-81.0817 1217.843,-89.0629 1221.2993,-82.9757"/>
</g>
<!-- Node21&#45;&gt;Node3 -->
<g id="edge31" class="edge">
<title>Node21&#45;&gt;Node3</title>
<path fill="none" stroke="#191970" d="M1359.4995,-195.8603C1375.9806,-187.4512 1397.1264,-173.522 1407,-154 1413.2183,-141.7053 1411.8118,-135.9102 1407,-123 1387.4286,-70.4889 1326.7563,-38.7588 1286.0065,-22.8144"/>
<polygon fill="#191970" stroke="#191970" points="1287.2135,-19.529 1276.6215,-19.2814 1284.7472,-26.0802 1287.2135,-19.529"/>
</g>
<!-- Node21&#45;&gt;Node17 -->
<g id="edge32" class="edge">
<title>Node21&#45;&gt;Node17</title>
<path fill="none" stroke="#191970" d="M1333.4181,-195.9005C1329.7052,-185.95 1323.802,-170.1292 1319.1324,-157.6147"/>
<polygon fill="#191970" stroke="#191970" points="1322.3504,-156.2271 1315.5752,-148.0817 1315.7921,-158.6743 1322.3504,-156.2271"/>
</g>
<!-- Node22 -->
<g id="node23" class="node">
<title>Node22</title>
<polygon fill="none" stroke="#bfbfbf" points="1098,-129 1098,-148 1142,-148 1142,-129 1098,-129"/>
<text text-anchor="middle" x="1120" y="-136" font-family="Helvetica,sans-Serif" font-size="10.00" fill="#000000">bitset</text>
</g>
<!-- Node21&#45;&gt;Node22 -->
<g id="edge30" class="edge">
<title>Node21&#45;&gt;Node22</title>
<path fill="none" stroke="#191970" d="M1293.3879,-195.9526C1255.1991,-186.9992 1198.5407,-172.2689 1151,-154 1149.6309,-153.4739 1148.2415,-152.9074 1146.848,-152.3131"/>
<polygon fill="#191970" stroke="#191970" points="1148.3119,-149.134 1137.7659,-148.1183 1145.3767,-155.4889 1148.3119,-149.134"/>
</g>
<!-- Node23&#45;&gt;Node1 -->
<g id="edge36" class="edge">
<title>Node23&#45;&gt;Node1</title>
<path fill="none" stroke="#191970" d="M1452.2865,-194.016C1440.4768,-192.5199 1428.4301,-191.1207 1417,-190 1152.8947,-164.1057 1076.8556,-224.4276 821,-154 819.3291,-153.5401 817.644,-152.9796 815.9703,-152.3481"/>
<polygon fill="#191970" stroke="#191970" points="817.2416,-149.0819 806.6872,-148.1574 814.3615,-155.462 817.2416,-149.0819"/>
</g>
<!-- Node23&#45;&gt;Node2 -->
<g id="edge35" class="edge">
<title>Node23&#45;&gt;Node2</title>
<path fill="none" stroke="#191970" d="M1582.0609,-190.4061C1614.1294,-180.6462 1656.2346,-167.3183 1693,-154 1694.859,-153.3266 1696.7614,-152.6171 1698.6761,-151.8871"/>
<polygon fill="#191970" stroke="#191970" points="1700.1804,-155.0566 1708.2065,-148.1405 1697.6192,-148.5419 1700.1804,-155.0566"/>
</g>
<!-- Node23&#45;&gt;Node3 -->
<g id="edge37" class="edge">
<title>Node23&#45;&gt;Node3</title>
<path fill="none" stroke="#191970" d="M1517.5468,-190.4691C1486.9463,-156.5585 1412.3617,-75.5402 1381,-56 1351.7166,-37.7547 1314.2921,-25.693 1286.4403,-18.5165"/>
<polygon fill="#191970" stroke="#191970" points="1287.1932,-15.0972 1276.645,-16.0911 1285.5107,-21.892 1287.1932,-15.0972"/>
</g>
<!-- Node24 -->
<g id="node25" class="node">
<title>Node24</title>
<polygon fill="none" stroke="#bfbfbf" points="1493.5,-129 1493.5,-148 1568.5,-148 1568.5,-129 1493.5,-129"/>
<text text-anchor="middle" x="1531" y="-136" font-family="Helvetica,sans-Serif" font-size="10.00" fill="#000000">FairLogger.h</text>
</g>
<!-- Node23&#45;&gt;Node24 -->
<g id="edge34" class="edge">
<title>Node23&#45;&gt;Node24</title>
<path fill="none" stroke="#191970" d="M1531,-190.2967C1531,-180.7699 1531,-168.3954 1531,-158.1306"/>
<polygon fill="#191970" stroke="#191970" points="1534.5001,-158.0549 1531,-148.055 1527.5001,-158.055 1534.5001,-158.0549"/>
</g>
<!-- Node23&#45;&gt;Node25 -->
<g id="edge38" class="edge">
<title>Node23&#45;&gt;Node25</title>
<path fill="none" stroke="#191970" d="M1609.9205,-191.209C1678.0744,-178.8676 1775.2394,-161.2729 1838.2145,-149.8693"/>
<polygon fill="#191970" stroke="#191970" points="1839.1869,-153.2502 1848.4032,-148.0243 1837.9395,-146.3622 1839.1869,-153.2502"/>
</g>
<!-- Node34 -->
<g id="node35" class="node">
<title>Node34</title>
<polygon fill="none" stroke="#bfbfbf" points="1586,-129 1586,-148 1684,-148 1684,-129 1586,-129"/>
<text text-anchor="middle" x="1635" y="-136" font-family="Helvetica,sans-Serif" font-size="10.00" fill="#000000">TLorentzVector.h</text>
</g>
<!-- Node23&#45;&gt;Node34 -->
<g id="edge49" class="edge">
<title>Node23&#45;&gt;Node34</title>
<path fill="none" stroke="#191970" d="M1554.3396,-190.4639C1571.3179,-179.526 1594.2242,-164.769 1611.2882,-153.7759"/>
<polygon fill="#191970" stroke="#191970" points="1613.5814,-156.462 1620.0924,-148.1039 1609.7904,-150.5774 1613.5814,-156.462"/>
</g>
<!-- Node25&#45;&gt;Node3 -->
<g id="edge46" class="edge">
<title>Node25&#45;&gt;Node3</title>
<path fill="none" stroke="#191970" d="M1938.5695,-128.9321C1949.0064,-126.6162 1960.3882,-124.4057 1971,-123 2014.609,-117.2234 2731.6098,-118.8048 2762,-87 2771.5183,-77.0386 2771.5934,-65.8891 2762,-56 2735.5527,-28.7375 1523.8038,-13.2265 1286.9181,-10.452"/>
<polygon fill="#191970" stroke="#191970" points="1286.7345,-6.9497 1276.6945,-10.3331 1286.6531,-13.9493 1286.7345,-6.9497"/>
</g>
<!-- Node25&#45;&gt;Node6 -->
<g id="edge48" class="edge">
<title>Node25&#45;&gt;Node6</title>
<path fill="none" stroke="#191970" d="M1839.958,-130.5859C1817.6581,-127.8919 1792.2147,-125.0474 1769,-123 1498.9092,-99.1795 1430.3718,-107.3846 1160,-87 1113.6059,-83.5021 1060.1446,-78.4219 1025.9871,-75.0424"/>
<polygon fill="#191970" stroke="#191970" points="1025.9063,-71.5171 1015.6087,-74.009 1025.2127,-78.4827 1025.9063,-71.5171"/>
</g>
<!-- Node26 -->
<g id="node27" class="node">
<title>Node26</title>
<polygon fill="none" stroke="#bfbfbf" points="1435,-56.5 1435,-86.5 1599,-86.5 1599,-56.5 1435,-56.5"/>
<text text-anchor="start" x="1443" y="-74.5" font-family="Helvetica,sans-Serif" font-size="10.00" fill="#000000">Math/GenVector/Displacement</text>
<text text-anchor="middle" x="1517" y="-63.5" font-family="Helvetica,sans-Serif" font-size="10.00" fill="#000000">Vector3D.h</text>
</g>
<!-- Node25&#45;&gt;Node26 -->
<g id="edge39" class="edge">
<title>Node25&#45;&gt;Node26</title>
<path fill="none" stroke="#191970" d="M1850.5463,-128.9514C1839.809,-126.9547 1828.5337,-124.8846 1818,-123 1778.9353,-116.0109 1682.6217,-99.5838 1609.3771,-87.1475"/>
<polygon fill="#191970" stroke="#191970" points="1609.6482,-83.6435 1599.2034,-85.4206 1608.4767,-90.5448 1609.6482,-83.6435"/>
</g>
<!-- Node27 -->
<g id="node28" class="node">
<title>Node27</title>
<polygon fill="none" stroke="#bfbfbf" points="1617.5,-62 1617.5,-81 1806.5,-81 1806.5,-62 1617.5,-62"/>
<text text-anchor="middle" x="1712" y="-69" font-family="Helvetica,sans-Serif" font-size="10.00" fill="#000000">Math/GenVector/PositionVector3D.h</text>
</g>
<!-- Node25&#45;&gt;Node27 -->
<g id="edge40" class="edge">
<title>Node25&#45;&gt;Node27</title>
<path fill="none" stroke="#191970" d="M1873.9209,-128.9005C1841.0797,-117.2584 1785.5704,-97.5805 1748.8525,-84.5641"/>
<polygon fill="#191970" stroke="#191970" points="1749.6236,-81.1241 1739.0289,-81.0817 1747.2847,-87.7218 1749.6236,-81.1241"/>
</g>
<!-- Node28 -->
<g id="node29" class="node">
<title>Node28</title>
<polygon fill="none" stroke="#bfbfbf" points="1825,-62 1825,-81 1985,-81 1985,-62 1825,-62"/>
<text text-anchor="middle" x="1905" y="-69" font-family="Helvetica,sans-Serif" font-size="10.00" fill="#000000">Math/GenVector/Rotation3D.h</text>
</g>
<!-- Node25&#45;&gt;Node28 -->
<g id="edge41" class="edge">
<title>Node25&#45;&gt;Node28</title>
<path fill="none" stroke="#191970" d="M1901.5731,-128.9005C1902.1553,-119.149 1903.074,-103.7597 1903.8138,-91.3695"/>
<polygon fill="#191970" stroke="#191970" points="1907.3257,-91.2725 1904.428,-81.0817 1900.3381,-90.8553 1907.3257,-91.2725"/>
</g>
<!-- Node29 -->
<g id="node30" class="node">
<title>Node29</title>
<polygon fill="none" stroke="#bfbfbf" points="2003,-62 2003,-81 2171,-81 2171,-62 2003,-62"/>
<text text-anchor="middle" x="2087" y="-69" font-family="Helvetica,sans-Serif" font-size="10.00" fill="#000000">Math/GenVector/Transform3D.h</text>
</g>
<!-- Node25&#45;&gt;Node29 -->
<g id="edge42" class="edge">
<title>Node25&#45;&gt;Node29</title>
<path fill="none" stroke="#191970" d="M1927.6493,-128.9005C1959.9692,-117.2584 2014.5974,-97.5805 2050.7325,-84.5641"/>
<polygon fill="#191970" stroke="#191970" points="2052.1781,-87.7636 2060.4002,-81.0817 2049.8058,-81.1778 2052.1781,-87.7636"/>
</g>
<!-- Node30 -->
<g id="node31" class="node">
<title>Node30</title>
<polygon fill="none" stroke="#bfbfbf" points="2189.5,-62 2189.5,-81 2362.5,-81 2362.5,-62 2189.5,-62"/>
<text text-anchor="middle" x="2276" y="-69" font-family="Helvetica,sans-Serif" font-size="10.00" fill="#000000">Math/GenVector/Translation3D.h</text>
</g>
<!-- Node25&#45;&gt;Node30 -->
<g id="edge43" class="edge">
<title>Node25&#45;&gt;Node30</title>
<path fill="none" stroke="#191970" d="M1942.3838,-128.9726C1951.7736,-126.9123 1961.7151,-124.8107 1971,-123 2015.1379,-114.3926 2132.0653,-95.0053 2207.6503,-82.6269"/>
<polygon fill="#191970" stroke="#191970" points="2208.2672,-86.0726 2217.5707,-81.0036 2207.1368,-79.1644 2208.2672,-86.0726"/>
</g>
<!-- Node31 -->
<g id="node32" class="node">
<title>Node31</title>
<polygon fill="none" stroke="#bfbfbf" points="2381,-56.5 2381,-86.5 2545,-86.5 2545,-56.5 2381,-56.5"/>
<text text-anchor="start" x="2389" y="-74.5" font-family="Helvetica,sans-Serif" font-size="10.00" fill="#000000">Math/GenVector/Displacement</text>
<text text-anchor="middle" x="2463" y="-63.5" font-family="Helvetica,sans-Serif" font-size="10.00" fill="#000000">Vector2D.h</text>
</g>
<!-- Node25&#45;&gt;Node31 -->
<g id="edge44" class="edge">
<title>Node25&#45;&gt;Node31</title>
<path fill="none" stroke="#191970" d="M1939.7095,-128.9987C1949.8432,-126.7674 1960.7907,-124.5819 1971,-123 2144.6342,-96.096 2192.82,-109.5329 2370.7496,-87.0932"/>
<polygon fill="#191970" stroke="#191970" points="2371.23,-90.5604 2380.7041,-85.8177 2370.3403,-83.6172 2371.23,-90.5604"/>
</g>
<!-- Node32 -->
<g id="node33" class="node">
<title>Node32</title>
<polygon fill="none" stroke="#bfbfbf" points="2563.5,-62 2563.5,-81 2752.5,-81 2752.5,-62 2563.5,-62"/>
<text text-anchor="middle" x="2658" y="-69" font-family="Helvetica,sans-Serif" font-size="10.00" fill="#000000">Math/GenVector/PositionVector2D.h</text>
</g>
<!-- Node25&#45;&gt;Node32 -->
<g id="edge45" class="edge">
<title>Node25&#45;&gt;Node32</title>
<path fill="none" stroke="#191970" d="M1938.9495,-128.9649C1949.2864,-126.6782 1960.5231,-124.4742 1971,-123 2228.0722,-86.8275 2295.82,-114.1595 2554,-87 2565.7013,-85.7691 2578.103,-84.1754 2590.1105,-82.4798"/>
<polygon fill="#191970" stroke="#191970" points="2590.6845,-85.9333 2600.0801,-81.0372 2589.6819,-79.0054 2590.6845,-85.9333"/>
</g>
<!-- Node33 -->
<g id="node34" class="node">
<title>Node33</title>
<polygon fill="none" stroke="#bfbfbf" points="2809,-62 2809,-81 2891,-81 2891,-62 2809,-62"/>
<text text-anchor="middle" x="2850" y="-69" font-family="Helvetica,sans-Serif" font-size="10.00" fill="#000000">TGeoMatrix.h</text>
</g>
<!-- Node25&#45;&gt;Node33 -->
<g id="edge47" class="edge">
<title>Node25&#45;&gt;Node33</title>
<path fill="none" stroke="#191970" d="M1938.5678,-128.9193C1949.0047,-126.6033 1960.3869,-124.396 1971,-123 2334.4409,-75.1938 2433.0626,-145.1039 2795,-87 2800.193,-86.1663 2805.5939,-85.0132 2810.8939,-83.7087"/>
<polygon fill="#191970" stroke="#191970" points="2812.1133,-87.0063 2820.8805,-81.0577 2810.3172,-80.2406 2812.1133,-87.0063"/>
</g>
<!-- Node35&#45;&gt;Node7 -->
<g id="edge52" class="edge">
<title>Node35&#45;&gt;Node7</title>
<path fill="none" stroke="#191970" d="M2084.8294,-195.8789C2109.9673,-186.6768 2147.5742,-171.6189 2178,-154 2197.7692,-142.5521 2197.5412,-130.8356 2219,-123 2361.3515,-71.021 2753.4801,-125.7 2900,-87 2901.9198,-86.4929 2903.8598,-85.859 2905.7829,-85.1394"/>
<polygon fill="#191970" stroke="#191970" points="2907.3605,-88.2686 2915.0853,-81.0175 2904.5247,-81.8687 2907.3605,-88.2686"/>
</g>
<!-- Node35&#45;&gt;Node8 -->
<g id="edge54" class="edge">
<title>Node35&#45;&gt;Node8</title>
<path fill="none" stroke="#191970" d="M1990.1772,-202.901C1804.3066,-195.4616 1289.9827,-173.3735 1216,-154 1214.0742,-153.4957 1212.1257,-152.8725 1210.1909,-152.1683"/>
<polygon fill="#191970" stroke="#191970" points="1211.3689,-148.8654 1200.7983,-148.1484 1208.6146,-155.3008 1211.3689,-148.8654"/>
</g>
<!-- Node35&#45;&gt;Node17 -->
<g id="edge60" class="edge">
<title>Node35&#45;&gt;Node17</title>
<path fill="none" stroke="#191970" d="M1990.2306,-199.4952C1858.0854,-187.611 1562.7396,-161.0497 1409.0781,-147.2305"/>
<polygon fill="#191970" stroke="#191970" points="1408.9874,-143.7083 1398.7141,-146.2984 1408.3604,-150.6802 1408.9874,-143.7083"/>
</g>
<!-- Node35&#45;&gt;Node18 -->
<g id="edge51" class="edge">
<title>Node35&#45;&gt;Node18</title>
<path fill="none" stroke="#191970" d="M1997.3634,-195.9443C1951.1435,-187.5803 1885.9352,-173.6708 1831,-154 1801.9953,-143.6142 1798.573,-131.6356 1769,-123 1621.8631,-80.0345 1578.2233,-104.983 1426,-87 1401.0232,-84.0494 1373.1208,-80.4004 1350.7217,-77.3843"/>
<polygon fill="#191970" stroke="#191970" points="1350.9064,-73.8774 1340.5272,-76.0042 1349.9672,-80.8142 1350.9064,-73.8774"/>
</g>
<!-- Node35&#45;&gt;Node25 -->
<g id="edge63" class="edge">
<title>Node35&#45;&gt;Node25</title>
<path fill="none" stroke="#191970" d="M2034.649,-195.9005C2007.8895,-184.4077 1962.8965,-165.0838 1932.5911,-152.068"/>
<polygon fill="#191970" stroke="#191970" points="1933.8792,-148.8121 1923.3095,-148.0817 1931.1167,-155.244 1933.8792,-148.8121"/>
</g>
<!-- Node35&#45;&gt;Node33 -->
<g id="edge56" class="edge">
<title>Node35&#45;&gt;Node33</title>
<path fill="none" stroke="#191970" d="M2074.0704,-195.8513C2091.6146,-185.8022 2119.5957,-169.4041 2143,-154 2162.6797,-141.0473 2163.8097,-130.9154 2186,-123 2310.3464,-78.6451 2648.2308,-105.133 2779,-87 2786.386,-85.9758 2794.1459,-84.5984 2801.7133,-83.0854"/>
<polygon fill="#191970" stroke="#191970" points="2802.432,-86.5109 2811.5031,-81.0367 2800.9981,-79.6594 2802.432,-86.5109"/>
</g>
<!-- Node36 -->
<g id="node37" class="node">
<title>Node36</title>
<polygon fill="none" stroke="#bfbfbf" points="2403.5,-129 2403.5,-148 2444.5,-148 2444.5,-129 2403.5,-129"/>
<text text-anchor="middle" x="2424" y="-136" font-family="Helvetica,sans-Serif" font-size="10.00" fill="#000000">tuple</text>
</g>
<!-- Node35&#45;&gt;Node36 -->
<g id="edge53" class="edge">
<title>Node35&#45;&gt;Node36</title>
<path fill="none" stroke="#191970" d="M2101.5172,-195.9193C2111.8304,-193.8393 2122.7786,-191.7427 2133,-190 2248.8666,-170.2456 2283.1976,-190.2701 2395,-154 2396.4254,-153.5376 2397.8634,-153.007 2399.2964,-152.4272"/>
<polygon fill="#191970" stroke="#191970" points="2400.9462,-155.5188 2408.4951,-148.0847 2397.9579,-149.1887 2400.9462,-155.5188"/>
</g>
<!-- Node37 -->
<g id="node38" class="node">
<title>Node37</title>
<polygon fill="none" stroke="#bfbfbf" points="2463,-129 2463,-148 2547,-148 2547,-129 2463,-129"/>
<text text-anchor="middle" x="2505" y="-136" font-family="Helvetica,sans-Serif" font-size="10.00" fill="#000000">RStringView.h</text>
</g>
<!-- Node35&#45;&gt;Node37 -->
<g id="edge55" class="edge">
<title>Node35&#45;&gt;Node37</title>
<path fill="none" stroke="#191970" d="M2100.284,-195.9749C2110.9463,-193.8215 2122.3587,-191.6784 2133,-190 2274.808,-167.6334 2313.3974,-182.9947 2454,-154 2458.2315,-153.1274 2462.6158,-152.0575 2466.9564,-150.8914"/>
<polygon fill="#191970" stroke="#191970" points="2468.2613,-154.1586 2476.913,-148.0432 2466.336,-147.4286 2468.2613,-154.1586"/>
</g>
<!-- Node38 -->
<g id="node39" class="node">
<title>Node38</title>
<polygon fill="none" stroke="#bfbfbf" points="2565.5,-129 2565.5,-148 2632.5,-148 2632.5,-129 2565.5,-129"/>
<text text-anchor="middle" x="2599" y="-136" font-family="Helvetica,sans-Serif" font-size="10.00" fill="#000000">TNamed.h</text>
</g>
<!-- Node35&#45;&gt;Node38 -->
<g id="edge57" class="edge">
<title>Node35&#45;&gt;Node38</title>
<path fill="none" stroke="#191970" d="M2099.4552,-195.9338C2110.3453,-193.7302 2122.0706,-191.5741 2133,-190 2319.7525,-163.1023 2371.682,-194.3344 2556,-154 2559.2559,-153.2875 2562.6008,-152.3916 2565.9179,-151.3917"/>
<polygon fill="#191970" stroke="#191970" points="2567.2786,-154.628 2575.6692,-148.1589 2565.0758,-147.9836 2567.2786,-154.628"/>
</g>
<!-- Node39 -->
<g id="node40" class="node">
<title>Node39</title>
<polygon fill="none" stroke="#bfbfbf" points="1980,-129 1980,-148 2048,-148 2048,-129 1980,-129"/>
<text text-anchor="middle" x="2014" y="-136" font-family="Helvetica,sans-Serif" font-size="10.00" fill="#000000">TParticle.h</text>
</g>
<!-- Node35&#45;&gt;Node39 -->
<g id="edge58" class="edge">
<title>Node35&#45;&gt;Node39</title>
<path fill="none" stroke="#191970" d="M2050.8391,-195.9005C2044.2614,-185.6515 2033.6867,-169.1747 2025.5507,-156.4976"/>
<polygon fill="#191970" stroke="#191970" points="2028.4963,-154.6071 2020.1494,-148.0817 2022.6051,-158.388 2028.4963,-154.6071"/>
</g>
<!-- Node40 -->
<g id="node41" class="node">
<title>Node40</title>
<polygon fill="none" stroke="#bfbfbf" points="2066,-129 2066,-148 2134,-148 2134,-129 2066,-129"/>
<text text-anchor="middle" x="2100" y="-136" font-family="Helvetica,sans-Serif" font-size="10.00" fill="#000000">TVector3.h</text>
</g>
<!-- Node35&#45;&gt;Node40 -->
<g id="edge59" class="edge">
<title>Node35&#45;&gt;Node40</title>
<path fill="none" stroke="#191970" d="M2063.1609,-195.9005C2069.7386,-185.6515 2080.3133,-169.1747 2088.4493,-156.4976"/>
<polygon fill="#191970" stroke="#191970" points="2091.3949,-158.388 2093.8506,-148.0817 2085.5037,-154.6071 2091.3949,-158.388"/>
</g>
<!-- Node41 -->
<g id="node42" class="node">
<title>Node41</title>
<g id="a_node42"><a xlink:href="../../d5/d5e/GeometryBase_8h.html" target="_top" xlink:title="EMCALBase/GeometryBase.h">
<polygon fill="none" stroke="#000000" points="2228,-129 2228,-148 2386,-148 2386,-129 2228,-129"/>
<text text-anchor="middle" x="2307" y="-136" font-family="Helvetica,sans-Serif" font-size="10.00" fill="#000000">EMCALBase/GeometryBase.h</text>
</a>
</g>
</g>
<!-- Node35&#45;&gt;Node41 -->
<g id="edge61" class="edge">
<title>Node35&#45;&gt;Node41</title>
<path fill="none" stroke="#191970" d="M2092.5534,-195.9717C2136.854,-184.0991 2212.631,-163.7909 2261.228,-150.7669"/>
<polygon fill="#191970" stroke="#191970" points="2262.4114,-154.0733 2271.1645,-148.1039 2260.5993,-147.3119 2262.4114,-154.0733"/>
</g>
<!-- Node41&#45;&gt;Node7 -->
<g id="edge62" class="edge">
<title>Node41&#45;&gt;Node7</title>
<path fill="none" stroke="#191970" d="M2355.7396,-128.9915C2368.4782,-126.7602 2382.2211,-124.5766 2395,-123 2618.3207,-95.4472 2682.9831,-146.4558 2900,-87 2901.7156,-86.53 2903.4484,-85.9618 2905.1715,-85.3244"/>
<polygon fill="#191970" stroke="#191970" points="2906.9991,-88.3445 2914.7475,-81.1186 2904.1842,-81.9354 2906.9991,-88.3445"/>
</g>
</g>
</svg>
        <g id="navigator" transform="translate(0 0)" fill="#404254">
                <rect fill="#f2f5e9" fill-opacity="0.5" stroke="#606060" stroke-width=".5" x="0" y="0" width="60" height="60"/>
                <use id="zoomplus" xlink:href="#zoomPlus" x="17" y="9" onmousedown="handleZoom(evt,'in')"/>
                <use id="zoomminus" xlink:href="#zoomMin" x="42" y="9" onmousedown="handleZoom(evt,'out')"/>
                <use id="reset" xlink:href="#resetDef" x="30" y="36" onmousedown="handleReset()"/>
                <g id="arrowUp" xlink:href="#dirArrow" transform="translate(30 24)" onmousedown="handlePan(0,-1)">
                  <use xlink:href="#rim" fill="#404040">
                        <set attributeName="fill" to="#808080" begin="arrowUp.mouseover" end="arrowUp.mouseout"/>
                  </use>
                  <path fill="none" stroke="white" stroke-width="1.5" d="M0,-3.0v7 M-2.5,-0.5L0,-3.0L2.5,-0.5"/>
                </g>
                <g id="arrowRight" xlink:href="#dirArrow" transform="rotate(90) translate(36 -43)" onmousedown="handlePan(1,0)">
                  <use xlink:href="#rim" fill="#404040">
                        <set attributeName="fill" to="#808080" begin="arrowRight.mouseover" end="arrowRight.mouseout"/>
                  </use>
                  <path fill="none" stroke="white" stroke-width="1.5" d="M0,-3.0v7 M-2.5,-0.5L0,-3.0L2.5,-0.5"/>
                </g>
                <g id="arrowDown" xlink:href="#dirArrow" transform="rotate(180) translate(-30 -48)" onmousedown="handlePan(0,1)">
                  <use xlink:href="#rim" fill="#404040">
                        <set attributeName="fill" to="#808080" begin="arrowDown.mouseover" end="arrowDown.mouseout"/>
                  </use>
                  <path fill="none" stroke="white" stroke-width="1.5" d="M0,-3.0v7 M-2.5,-0.5L0,-3.0L2.5,-0.5"/>
                </g>
                <g id="arrowLeft" xlink:href="#dirArrow" transform="rotate(270) translate(-36 17)" onmousedown="handlePan(-1,0)">
                  <use xlink:href="#rim" fill="#404040">
                        <set attributeName="fill" to="#808080" begin="arrowLeft.mouseover" end="arrowLeft.mouseout"/>
                  </use>
                  <path fill="none" stroke="white" stroke-width="1.5" d="M0,-3.0v7 M-2.5,-0.5L0,-3.0L2.5,-0.5"/>
                </g>
        </g>
        <svg viewBox="0 0 15 15" width="100%" height="30px" preserveAspectRatio="xMaxYMin meet">
         <g id="arrow_out" transform="scale(0.3 0.3)">
          <a xlink:href="ClusterFactory_8h__incl_org.svg" target="_base">
           <rect id="button" ry="5" rx="5" y="6" x="6" height="38" width="38"
                fill="#f2f5e9" fill-opacity="0.5" stroke="#606060" stroke-width="1.0"/>
           <path id="arrow"
             d="M 11.500037,31.436501 C 11.940474,20.09759 22.043105,11.32322 32.158766,21.979434 L 37.068811,17.246167 C 37.068811,17.246167 37.088388,32 37.088388,32 L 22.160133,31.978069 C 22.160133,31.978069 26.997745,27.140456 26.997745,27.140456 C 18.528582,18.264221 13.291696,25.230495 11.500037,31.436501 z"
             style="fill:#404040;"/>
          </a>
         </g>
        </svg>
</svg>
