<?xml version="1.0" encoding="UTF-8" standalone="no"?>
<!DOCTYPE svg PUBLIC "-//W3C//DTD SVG 1.1//EN"
 "http://www.w3.org/Graphics/SVG/1.1/DTD/svg11.dtd">
<!-- Generated by graphviz version 2.40.1 (20161225.0304)
 -->
<!-- Title: /home/travis/build/AliceO2Group/AliceO2/Detectors/TPC/base/test/testTPCParameters.cxx Pages: 1 -->
<svg width="2201pt" height="318pt"
 viewBox="0.00 0.00 2200.50 318.00" xmlns="http://www.w3.org/2000/svg" xmlns:xlink="http://www.w3.org/1999/xlink">
<g id="graph0" class="graph" transform="scale(1 1) rotate(0) translate(4 314)">
<title>/home/travis/build/AliceO2Group/AliceO2/Detectors/TPC/base/test/testTPCParameters.cxx</title>
<!-- Node0 -->
<g id="node1" class="node">
<title>Node0</title>
<polygon fill="#bfbfbf" stroke="#000000" points="1517,-257.5 1517,-309.5 1654,-309.5 1654,-257.5 1517,-257.5"/>
<text text-anchor="start" x="1525" y="-297.5" font-family="Helvetica,sans-Serif" font-size="10.00" fill="#000000">/home/travis/build</text>
<text text-anchor="start" x="1525" y="-286.5" font-family="Helvetica,sans-Serif" font-size="10.00" fill="#000000">/AliceO2Group/AliceO2</text>
<text text-anchor="start" x="1525" y="-275.5" font-family="Helvetica,sans-Serif" font-size="10.00" fill="#000000">/Detectors/TPC/base/test</text>
<text text-anchor="middle" x="1585.5" y="-264.5" font-family="Helvetica,sans-Serif" font-size="10.00" fill="#000000">/testTPCParameters.cxx</text>
</g>
<!-- Node1 -->
<g id="node2" class="node">
<title>Node1</title>
<polygon fill="none" stroke="#bfbfbf" points="1056.5,-201.5 1056.5,-220.5 1188.5,-220.5 1188.5,-201.5 1056.5,-201.5"/>
<text text-anchor="middle" x="1122.5" y="-208.5" font-family="Helvetica,sans-Serif" font-size="10.00" fill="#000000">boost/test/unit_test.hpp</text>
</g>
<!-- Node0&#45;&gt;Node1 -->
<g id="edge1" class="edge">
<title>Node0&#45;&gt;Node1</title>
<path fill="none" stroke="#191970" d="M1516.6842,-272.7243C1429.8143,-259.1216 1281.1454,-235.8419 1193.3318,-222.0914"/>
<polygon fill="#191970" stroke="#191970" points="1193.6161,-218.5933 1183.195,-220.5041 1192.5331,-225.509 1193.6161,-218.5933"/>
</g>
<!-- Node2 -->
<g id="node3" class="node">
<title>Node2</title>
<g id="a_node3"><a xlink:href="../../db/dad/ParameterDetector_8h.html" target="_top" xlink:title="Definition of the parameter class for the detector. ">
<polygon fill="none" stroke="#000000" points="1245,-201.5 1245,-220.5 1408,-220.5 1408,-201.5 1245,-201.5"/>
<text text-anchor="middle" x="1326.5" y="-208.5" font-family="Helvetica,sans-Serif" font-size="10.00" fill="#000000">TPCBase/ParameterDetector.h</text>
</a>
</g>
</g>
<!-- Node0&#45;&gt;Node2 -->
<g id="edge2" class="edge">
<title>Node0&#45;&gt;Node2</title>
<path fill="none" stroke="#191970" d="M1516.7727,-264.2617C1470.3526,-251.2676 1410.4589,-234.502 1370.384,-223.2841"/>
<polygon fill="#191970" stroke="#191970" points="1371.2161,-219.8826 1360.6427,-220.5573 1369.3291,-226.6235 1371.2161,-219.8826"/>
</g>
<!-- Node18 -->
<g id="node19" class="node">
<title>Node18</title>
<g id="a_node19"><a xlink:href="../../db/d2c/ConfigurableParam_8h.html" target="_top" xlink:title="CommonUtils/Configurable\lParam.h">
<polygon fill="none" stroke="#000000" points="1608.5,-67.5 1608.5,-97.5 1756.5,-97.5 1756.5,-67.5 1608.5,-67.5"/>
<text text-anchor="start" x="1616.5" y="-85.5" font-family="Helvetica,sans-Serif" font-size="10.00" fill="#000000">CommonUtils/Configurable</text>
<text text-anchor="middle" x="1682.5" y="-74.5" font-family="Helvetica,sans-Serif" font-size="10.00" fill="#000000">Param.h</text>
</a>
</g>
</g>
<!-- Node0&#45;&gt;Node18 -->
<g id="edge45" class="edge">
<title>Node0&#45;&gt;Node18</title>
<path fill="none" stroke="#191970" d="M1516.6812,-281.2726C1425.3477,-276.7013 1271.5098,-262.8364 1236.5,-221 1230.7954,-214.1831 1231.5759,-208.4004 1236.5,-201 1276.3905,-141.0491 1480.1694,-106.8631 1598.0061,-91.8184"/>
<polygon fill="#191970" stroke="#191970" points="1598.5988,-95.2715 1608.0842,-90.5515 1597.7257,-88.3262 1598.5988,-95.2715"/>
</g>
<!-- Node25 -->
<g id="node26" class="node">
<title>Node25</title>
<g id="a_node26"><a xlink:href="../../da/d6b/ConfigurableParamHelper_8h.html" target="_top" xlink:title="CommonUtils/Configurable\lParamHelper.h">
<polygon fill="none" stroke="#000000" points="1825.5,-134.5 1825.5,-164.5 1973.5,-164.5 1973.5,-134.5 1825.5,-134.5"/>
<text text-anchor="start" x="1833.5" y="-152.5" font-family="Helvetica,sans-Serif" font-size="10.00" fill="#000000">CommonUtils/Configurable</text>
<text text-anchor="middle" x="1899.5" y="-141.5" font-family="Helvetica,sans-Serif" font-size="10.00" fill="#000000">ParamHelper.h</text>
</a>
</g>
</g>
<!-- Node0&#45;&gt;Node25 -->
<g id="edge46" class="edge">
<title>Node0&#45;&gt;Node25</title>
<path fill="none" stroke="#191970" d="M1654.1066,-281.0797C1744.2348,-276.2912 1895.1254,-262.1827 1929.5,-221 1941.2908,-206.8739 1931.938,-187.4489 1920.6587,-172.4107"/>
<polygon fill="#191970" stroke="#191970" points="1923.3263,-170.1432 1914.3163,-164.569 1917.8836,-174.5453 1923.3263,-170.1432"/>
</g>
<!-- Node29 -->
<g id="node30" class="node">
<title>Node29</title>
<g id="a_node30"><a xlink:href="../../d3/d47/ParameterElectronics_8h.html" target="_top" xlink:title="Definition of the parameter class for the detector electronics. ">
<polygon fill="none" stroke="#000000" points="1587,-201.5 1587,-220.5 1762,-220.5 1762,-201.5 1587,-201.5"/>
<text text-anchor="middle" x="1674.5" y="-208.5" font-family="Helvetica,sans-Serif" font-size="10.00" fill="#000000">TPCBase/ParameterElectronics.h</text>
</a>
</g>
</g>
<!-- Node0&#45;&gt;Node29 -->
<g id="edge31" class="edge">
<title>Node0&#45;&gt;Node29</title>
<path fill="none" stroke="#191970" d="M1617.631,-257.3258C1630.0461,-247.2124 1643.8564,-235.9624 1654.7586,-227.0815"/>
<polygon fill="#191970" stroke="#191970" points="1657.2536,-229.5634 1662.7962,-220.534 1652.8325,-224.1362 1657.2536,-229.5634"/>
</g>
<!-- Node31 -->
<g id="node32" class="node">
<title>Node31</title>
<g id="a_node32"><a xlink:href="../../de/d2b/ParameterGEM_8h.html" target="_top" xlink:title="Definition of the parameter class for the GEM stack. ">
<polygon fill="none" stroke="#000000" points="1426,-201.5 1426,-220.5 1569,-220.5 1569,-201.5 1426,-201.5"/>
<text text-anchor="middle" x="1497.5" y="-208.5" font-family="Helvetica,sans-Serif" font-size="10.00" fill="#000000">TPCBase/ParameterGEM.h</text>
</a>
</g>
</g>
<!-- Node0&#45;&gt;Node31 -->
<g id="edge36" class="edge">
<title>Node0&#45;&gt;Node31</title>
<path fill="none" stroke="#191970" d="M1553.73,-257.3258C1541.4544,-247.2124 1527.7992,-235.9624 1517.0196,-227.0815"/>
<polygon fill="#191970" stroke="#191970" points="1519.0159,-224.1913 1509.0723,-220.534 1514.5648,-229.594 1519.0159,-224.1913"/>
</g>
<!-- Node32 -->
<g id="node33" class="node">
<title>Node32</title>
<g id="a_node33"><a xlink:href="../../db/d5b/ParameterGas_8h.html" target="_top" xlink:title="Definition of the parameter class for the detector gas. ">
<polygon fill="none" stroke="#000000" points="1780.5,-201.5 1780.5,-220.5 1920.5,-220.5 1920.5,-201.5 1780.5,-201.5"/>
<text text-anchor="middle" x="1850.5" y="-208.5" font-family="Helvetica,sans-Serif" font-size="10.00" fill="#000000">TPCBase/ParameterGas.h</text>
</a>
</g>
</g>
<!-- Node0&#45;&gt;Node32 -->
<g id="edge41" class="edge">
<title>Node0&#45;&gt;Node32</title>
<path fill="none" stroke="#191970" d="M1654.0887,-264.7352C1701.8332,-251.673 1764.1361,-234.6279 1805.6392,-223.2732"/>
<polygon fill="#191970" stroke="#191970" points="1806.7393,-226.601 1815.4612,-220.5861 1804.8921,-219.8491 1806.7393,-226.601"/>
</g>
<!-- Node33 -->
<g id="node34" class="node">
<title>Node33</title>
<g id="a_node34"><a xlink:href="../../d4/dee/SimConfig_8h.html" target="_top" xlink:title="SimConfig/SimConfig.h">
<polygon fill="none" stroke="#000000" points="1976.5,-201.5 1976.5,-220.5 2104.5,-220.5 2104.5,-201.5 1976.5,-201.5"/>
<text text-anchor="middle" x="2040.5" y="-208.5" font-family="Helvetica,sans-Serif" font-size="10.00" fill="#000000">SimConfig/SimConfig.h</text>
</a>
</g>
</g>
<!-- Node0&#45;&gt;Node33 -->
<g id="edge47" class="edge">
<title>Node0&#45;&gt;Node33</title>
<path fill="none" stroke="#191970" d="M1654.1107,-272.5675C1739.6024,-258.9452 1884.8855,-235.7957 1970.8558,-222.0972"/>
<polygon fill="#191970" stroke="#191970" points="1971.4565,-225.5457 1980.7811,-220.5156 1970.3549,-218.6329 1971.4565,-225.5457"/>
</g>
<!-- Node3 -->
<g id="node4" class="node">
<title>Node3</title>
<polygon fill="none" stroke="#bfbfbf" points="1481.5,-140 1481.5,-159 1523.5,-159 1523.5,-140 1481.5,-140"/>
<text text-anchor="middle" x="1502.5" y="-147" font-family="Helvetica,sans-Serif" font-size="10.00" fill="#000000">array</text>
</g>
<!-- Node2&#45;&gt;Node3 -->
<g id="edge3" class="edge">
<title>Node2&#45;&gt;Node3</title>
<path fill="none" stroke="#191970" d="M1354,-201.3906C1385.8922,-190.2465 1438.3322,-171.9223 1471.6039,-160.2961"/>
<polygon fill="#191970" stroke="#191970" points="1472.9846,-163.5212 1481.2703,-156.9183 1470.6755,-156.913 1472.9846,-163.5212"/>
</g>
<!-- Node4 -->
<g id="node5" class="node">
<title>Node4</title>
<g id="a_node5"><a xlink:href="../../d1/d73/Defs_8h.html" target="_top" xlink:title="DataFormatsTPC/Defs.h">
<polygon fill="none" stroke="#000000" points="942,-140 942,-159 1075,-159 1075,-140 942,-140"/>
<text text-anchor="middle" x="1008.5" y="-147" font-family="Helvetica,sans-Serif" font-size="10.00" fill="#000000">DataFormatsTPC/Defs.h</text>
</a>
</g>
</g>
<!-- Node2&#45;&gt;Node4 -->
<g id="edge4" class="edge">
<title>Node2&#45;&gt;Node4</title>
<path fill="none" stroke="#191970" d="M1277.1614,-201.4581C1220.6786,-190.5345 1128.1981,-172.6492 1067.8335,-160.9749"/>
<polygon fill="#191970" stroke="#191970" points="1068.1754,-157.4762 1057.6927,-159.0137 1066.8462,-164.3489 1068.1754,-157.4762"/>
</g>
<!-- Node2&#45;&gt;Node18 -->
<g id="edge18" class="edge">
<title>Node2&#45;&gt;Node18</title>
<path fill="none" stroke="#191970" d="M1340.5147,-201.2591C1364.4577,-185.042 1415.2424,-152.469 1462.5,-134 1506.0487,-116.9805 1556.7376,-104.6451 1598.4768,-96.3217"/>
<polygon fill="#191970" stroke="#191970" points="1599.1907,-99.7485 1608.3345,-94.3968 1597.8491,-92.8782 1599.1907,-99.7485"/>
</g>
<!-- Node2&#45;&gt;Node25 -->
<g id="edge25" class="edge">
<title>Node2&#45;&gt;Node25</title>
<path fill="none" stroke="#191970" d="M1408.3483,-201.9664C1411.4378,-201.6379 1414.4966,-201.3148 1417.5,-201 1577.862,-184.1934 1618.2954,-183.2455 1778.5,-165 1790.3364,-163.652 1802.8132,-162.148 1815.0774,-160.6217"/>
<polygon fill="#191970" stroke="#191970" points="1815.8243,-164.0555 1825.3106,-159.3373 1814.9525,-157.11 1815.8243,-164.0555"/>
</g>
<!-- Node5 -->
<g id="node6" class="node">
<title>Node5</title>
<polygon fill="none" stroke="#bfbfbf" points="1125,-73 1125,-92 1172,-92 1172,-73 1125,-73"/>
<text text-anchor="middle" x="1148.5" y="-80" font-family="Helvetica,sans-Serif" font-size="10.00" fill="#000000">cmath</text>
</g>
<!-- Node4&#45;&gt;Node5 -->
<g id="edge5" class="edge">
<title>Node4&#45;&gt;Node5</title>
<path fill="none" stroke="#191970" d="M1028.5586,-139.9005C1052.3656,-128.5072 1092.2539,-109.4178 1119.4396,-96.4075"/>
<polygon fill="#191970" stroke="#191970" points="1120.9693,-99.5556 1128.4786,-92.0817 1117.9474,-93.2415 1120.9693,-99.5556"/>
</g>
<!-- Node6 -->
<g id="node7" class="node">
<title>Node6</title>
<g id="a_node7"><a xlink:href="../../d1/da8/GPUROOTCartesianFwd_8h.html" target="_top" xlink:title="GPUROOTCartesianFwd.h">
<polygon fill="none" stroke="#000000" points="739.5,-73 739.5,-92 879.5,-92 879.5,-73 739.5,-73"/>
<text text-anchor="middle" x="809.5" y="-80" font-family="Helvetica,sans-Serif" font-size="10.00" fill="#000000">GPUROOTCartesianFwd.h</text>
</a>
</g>
</g>
<!-- Node4&#45;&gt;Node6 -->
<g id="edge6" class="edge">
<title>Node4&#45;&gt;Node6</title>
<path fill="none" stroke="#191970" d="M979.9882,-139.9005C945.2615,-128.2086 886.4631,-108.4122 847.8078,-95.3976"/>
<polygon fill="#191970" stroke="#191970" points="848.553,-91.9555 837.959,-92.0817 846.3194,-98.5896 848.553,-91.9555"/>
</g>
<!-- Node7 -->
<g id="node8" class="node">
<title>Node7</title>
<g id="a_node8"><a xlink:href="../../dc/d73/Cartesian_8h.html" target="_top" xlink:title="MathUtils/Cartesian.h">
<polygon fill="none" stroke="#000000" points="897.5,-73 897.5,-92 1019.5,-92 1019.5,-73 897.5,-73"/>
<text text-anchor="middle" x="958.5" y="-80" font-family="Helvetica,sans-Serif" font-size="10.00" fill="#000000">MathUtils/Cartesian.h</text>
</a>
</g>
</g>
<!-- Node4&#45;&gt;Node7 -->
<g id="edge7" class="edge">
<title>Node4&#45;&gt;Node7</title>
<path fill="none" stroke="#191970" d="M1001.3362,-139.9005C993.6134,-129.552 981.1524,-112.8542 971.6563,-100.1295"/>
<polygon fill="#191970" stroke="#191970" points="974.4364,-98.0027 965.6505,-92.0817 968.8264,-102.1893 974.4364,-98.0027"/>
</g>
<!-- Node8 -->
<g id="node9" class="node">
<title>Node8</title>
<polygon fill="none" stroke="#bfbfbf" points="67.5,-.5 67.5,-30.5 231.5,-30.5 231.5,-.5 67.5,-.5"/>
<text text-anchor="start" x="75.5" y="-18.5" font-family="Helvetica,sans-Serif" font-size="10.00" fill="#000000">Math/GenVector/Displacement</text>
<text text-anchor="middle" x="149.5" y="-7.5" font-family="Helvetica,sans-Serif" font-size="10.00" fill="#000000">Vector3D.h</text>
</g>
<!-- Node7&#45;&gt;Node8 -->
<g id="edge8" class="edge">
<title>Node7&#45;&gt;Node8</title>
<path fill="none" stroke="#191970" d="M920.5565,-72.9216C910.2196,-70.635 898.9814,-68.4419 888.5,-67 606.0957,-28.1515 528.9345,-62.4446 242.0743,-31.0875"/>
<polygon fill="#191970" stroke="#191970" points="242.1059,-27.5696 231.7806,-29.9441 241.3331,-34.5268 242.1059,-27.5696"/>
</g>
<!-- Node9 -->
<g id="node10" class="node">
<title>Node9</title>
<polygon fill="none" stroke="#bfbfbf" points="250,-6 250,-25 439,-25 439,-6 250,-6"/>
<text text-anchor="middle" x="344.5" y="-13" font-family="Helvetica,sans-Serif" font-size="10.00" fill="#000000">Math/GenVector/PositionVector3D.h</text>
</g>
<!-- Node7&#45;&gt;Node9 -->
<g id="edge9" class="edge">
<title>Node7&#45;&gt;Node9</title>
<path fill="none" stroke="#191970" d="M919.799,-72.9435C909.6651,-70.7128 898.7155,-68.5416 888.5,-67 694.4876,-37.7227 643.4177,-53.474 448.5,-31 437.2791,-29.7062 425.4068,-28.1324 413.8535,-26.4894"/>
<polygon fill="#191970" stroke="#191970" points="414.2059,-23.004 403.8072,-25.0331 413.2016,-29.9316 414.2059,-23.004"/>
</g>
<!-- Node10 -->
<g id="node11" class="node">
<title>Node10</title>
<polygon fill="none" stroke="#bfbfbf" points="457.5,-6 457.5,-25 617.5,-25 617.5,-6 457.5,-6"/>
<text text-anchor="middle" x="537.5" y="-13" font-family="Helvetica,sans-Serif" font-size="10.00" fill="#000000">Math/GenVector/Rotation3D.h</text>
</g>
<!-- Node7&#45;&gt;Node10 -->
<g id="edge10" class="edge">
<title>Node7&#45;&gt;Node10</title>
<path fill="none" stroke="#191970" d="M917.8961,-72.9226C908.2882,-70.8193 898.0567,-68.7117 888.5,-67 772.8026,-46.2774 742.6387,-49.0862 626.5,-31 618.1461,-29.699 609.364,-28.2587 600.7046,-26.7954"/>
<polygon fill="#191970" stroke="#191970" points="601.0752,-23.308 590.6285,-25.0739 599.8963,-30.2081 601.0752,-23.308"/>
</g>
<!-- Node11 -->
<g id="node12" class="node">
<title>Node11</title>
<polygon fill="none" stroke="#bfbfbf" points="635.5,-6 635.5,-25 803.5,-25 803.5,-6 635.5,-6"/>
<text text-anchor="middle" x="719.5" y="-13" font-family="Helvetica,sans-Serif" font-size="10.00" fill="#000000">Math/GenVector/Transform3D.h</text>
</g>
<!-- Node7&#45;&gt;Node11 -->
<g id="edge11" class="edge">
<title>Node7&#45;&gt;Node11</title>
<path fill="none" stroke="#191970" d="M924.5109,-72.9717C882.2482,-61.124 810.0198,-40.8758 763.5499,-27.8487"/>
<polygon fill="#191970" stroke="#191970" points="764.3323,-24.4332 753.7588,-25.1039 762.4428,-31.1734 764.3323,-24.4332"/>
</g>
<!-- Node12 -->
<g id="node13" class="node">
<title>Node12</title>
<polygon fill="none" stroke="#bfbfbf" points="822,-6 822,-25 995,-25 995,-6 822,-6"/>
<text text-anchor="middle" x="908.5" y="-13" font-family="Helvetica,sans-Serif" font-size="10.00" fill="#000000">Math/GenVector/Translation3D.h</text>
</g>
<!-- Node7&#45;&gt;Node12 -->
<g id="edge12" class="edge">
<title>Node7&#45;&gt;Node12</title>
<path fill="none" stroke="#191970" d="M951.3362,-72.9005C943.6134,-62.552 931.1524,-45.8542 921.6563,-33.1295"/>
<polygon fill="#191970" stroke="#191970" points="924.4364,-31.0027 915.6505,-25.0817 918.8264,-35.1893 924.4364,-31.0027"/>
</g>
<!-- Node13 -->
<g id="node14" class="node">
<title>Node13</title>
<polygon fill="none" stroke="#bfbfbf" points="1013.5,-.5 1013.5,-30.5 1177.5,-30.5 1177.5,-.5 1013.5,-.5"/>
<text text-anchor="start" x="1021.5" y="-18.5" font-family="Helvetica,sans-Serif" font-size="10.00" fill="#000000">Math/GenVector/Displacement</text>
<text text-anchor="middle" x="1095.5" y="-7.5" font-family="Helvetica,sans-Serif" font-size="10.00" fill="#000000">Vector2D.h</text>
</g>
<!-- Node7&#45;&gt;Node13 -->
<g id="edge13" class="edge">
<title>Node7&#45;&gt;Node13</title>
<path fill="none" stroke="#191970" d="M978.1288,-72.9005C998.2927,-63.0393 1030.2454,-47.4128 1055.7238,-34.9526"/>
<polygon fill="#191970" stroke="#191970" points="1057.3382,-38.0592 1064.7839,-30.5218 1054.2629,-31.7709 1057.3382,-38.0592"/>
</g>
<!-- Node14 -->
<g id="node15" class="node">
<title>Node14</title>
<polygon fill="none" stroke="#bfbfbf" points="1196,-6 1196,-25 1385,-25 1385,-6 1196,-6"/>
<text text-anchor="middle" x="1290.5" y="-13" font-family="Helvetica,sans-Serif" font-size="10.00" fill="#000000">Math/GenVector/PositionVector2D.h</text>
</g>
<!-- Node7&#45;&gt;Node14 -->
<g id="edge14" class="edge">
<title>Node7&#45;&gt;Node14</title>
<path fill="none" stroke="#191970" d="M1005.7149,-72.9717C1065.6156,-60.8833 1168.8508,-40.0497 1233.1985,-27.0638"/>
<polygon fill="#191970" stroke="#191970" points="1234.0695,-30.4587 1243.1795,-25.0496 1232.6847,-23.5971 1234.0695,-30.4587"/>
</g>
<!-- Node15 -->
<g id="node16" class="node">
<title>Node15</title>
<polygon fill="none" stroke="#bfbfbf" points="1560,-6 1560,-25 1619,-25 1619,-6 1560,-6"/>
<text text-anchor="middle" x="1589.5" y="-13" font-family="Helvetica,sans-Serif" font-size="10.00" fill="#000000">Rtypes.h</text>
</g>
<!-- Node7&#45;&gt;Node15 -->
<g id="edge15" class="edge">
<title>Node7&#45;&gt;Node15</title>
<path fill="none" stroke="#191970" d="M1019.6172,-76.2393C1048.6562,-73.3227 1083.8582,-69.8711 1115.5,-67 1308.7006,-49.4696 1361.6334,-75.308 1550.5,-31 1553.3595,-30.3292 1556.2856,-29.4852 1559.1862,-28.5394"/>
<polygon fill="#191970" stroke="#191970" points="1560.6171,-31.7433 1568.8171,-25.0343 1558.2231,-25.1654 1560.6171,-31.7433"/>
</g>
<!-- Node16 -->
<g id="node17" class="node">
<title>Node16</title>
<polygon fill="none" stroke="#bfbfbf" points="1403.5,-6 1403.5,-25 1485.5,-25 1485.5,-6 1403.5,-6"/>
<text text-anchor="middle" x="1444.5" y="-13" font-family="Helvetica,sans-Serif" font-size="10.00" fill="#000000">TGeoMatrix.h</text>
</g>
<!-- Node7&#45;&gt;Node16 -->
<g id="edge16" class="edge">
<title>Node7&#45;&gt;Node16</title>
<path fill="none" stroke="#191970" d="M1019.6101,-76.6773C1122.1286,-66.675 1324.413,-45.8718 1394.5,-31 1398.6506,-30.1193 1402.9503,-29.0443 1407.2066,-27.8751"/>
<polygon fill="#191970" stroke="#191970" points="1408.3514,-31.1871 1416.9688,-25.0234 1406.3886,-24.4679 1408.3514,-31.1871"/>
</g>
<!-- Node17 -->
<g id="node18" class="node">
<title>Node17</title>
<polygon fill="none" stroke="#bfbfbf" points="0,-6 0,-25 49,-25 49,-6 0,-6"/>
<text text-anchor="middle" x="24.5" y="-13" font-family="Helvetica,sans-Serif" font-size="10.00" fill="#000000">iosfwd</text>
</g>
<!-- Node7&#45;&gt;Node17 -->
<g id="edge17" class="edge">
<title>Node7&#45;&gt;Node17</title>
<path fill="none" stroke="#191970" d="M921.2961,-72.9979C910.7604,-70.6525 899.2368,-68.4106 888.5,-67 705.4551,-42.952 238.0202,-74.084 58.5,-31 56.1581,-30.438 53.7804,-29.713 51.4266,-28.8841"/>
<polygon fill="#191970" stroke="#191970" points="52.6181,-25.59 42.0373,-25.0433 49.9678,-32.0689 52.6181,-25.59"/>
</g>
<!-- Node19 -->
<g id="node20" class="node">
<title>Node19</title>
<polygon fill="none" stroke="#bfbfbf" points="1958,-6 1958,-25 2005,-25 2005,-6 1958,-6"/>
<text text-anchor="middle" x="1981.5" y="-13" font-family="Helvetica,sans-Serif" font-size="10.00" fill="#000000">vector</text>
</g>
<!-- Node18&#45;&gt;Node19 -->
<g id="edge19" class="edge">
<title>Node18&#45;&gt;Node19</title>
<path fill="none" stroke="#191970" d="M1756.629,-68.6147C1832.0933,-54.408 1939.3042,-33.9982 1948.5,-31 1950.3505,-30.3967 1952.2326,-29.7146 1954.1119,-28.9815"/>
<polygon fill="#191970" stroke="#191970" points="1955.5239,-32.1843 1963.3274,-25.018 1952.7582,-25.7538 1955.5239,-32.1843"/>
</g>
<!-- Node20 -->
<g id="node21" class="node">
<title>Node20</title>
<polygon fill="none" stroke="#bfbfbf" points="1503.5,-6 1503.5,-25 1541.5,-25 1541.5,-6 1503.5,-6"/>
<text text-anchor="middle" x="1522.5" y="-13" font-family="Helvetica,sans-Serif" font-size="10.00" fill="#000000">map</text>
</g>
<!-- Node18&#45;&gt;Node20 -->
<g id="edge20" class="edge">
<title>Node18&#45;&gt;Node20</title>
<path fill="none" stroke="#191970" d="M1640.6813,-67.4774C1614.698,-57.7962 1580.7843,-44.5266 1551.5,-31 1550.5153,-30.5452 1549.517,-30.0725 1548.5126,-29.5871"/>
<polygon fill="#191970" stroke="#191970" points="1550.009,-26.4216 1539.5081,-25.0145 1546.8396,-32.663 1550.009,-26.4216"/>
</g>
<!-- Node21 -->
<g id="node22" class="node">
<title>Node21</title>
<polygon fill="none" stroke="#bfbfbf" points="1637,-6 1637,-25 1730,-25 1730,-6 1637,-6"/>
<text text-anchor="middle" x="1683.5" y="-13" font-family="Helvetica,sans-Serif" font-size="10.00" fill="#000000">unordered_map</text>
</g>
<!-- Node18&#45;&gt;Node21 -->
<g id="edge21" class="edge">
<title>Node18&#45;&gt;Node21</title>
<path fill="none" stroke="#191970" d="M1682.7269,-67.2967C1682.8691,-57.7699 1683.0538,-45.3954 1683.207,-35.1306"/>
<polygon fill="#191970" stroke="#191970" points="1686.7077,-35.1061 1683.3574,-25.055 1679.7084,-35.0016 1686.7077,-35.1061"/>
</g>
<!-- Node22 -->
<g id="node23" class="node">
<title>Node22</title>
<polygon fill="none" stroke="#bfbfbf" points="1748,-.5 1748,-30.5 1861,-30.5 1861,-.5 1748,-.5"/>
<text text-anchor="start" x="1756" y="-18.5" font-family="Helvetica,sans-Serif" font-size="10.00" fill="#000000">boost/property_tree</text>
<text text-anchor="middle" x="1804.5" y="-7.5" font-family="Helvetica,sans-Serif" font-size="10.00" fill="#000000">/ptree.hpp</text>
</g>
<!-- Node18&#45;&gt;Node22 -->
<g id="edge22" class="edge">
<title>Node18&#45;&gt;Node22</title>
<path fill="none" stroke="#191970" d="M1709.8792,-67.4639C1727.0254,-58.0475 1749.3254,-45.8008 1767.9697,-35.5617"/>
<polygon fill="#191970" stroke="#191970" points="1769.7097,-38.5993 1776.7901,-30.7177 1766.3401,-32.4636 1769.7097,-38.5993"/>
</g>
<!-- Node23 -->
<g id="node24" class="node">
<title>Node23</title>
<polygon fill="none" stroke="#bfbfbf" points="2024,-6 2024,-25 2081,-25 2081,-6 2024,-6"/>
<text text-anchor="middle" x="2052.5" y="-13" font-family="Helvetica,sans-Serif" font-size="10.00" fill="#000000">typeinfo</text>
</g>
<!-- Node18&#45;&gt;Node23 -->
<g id="edge23" class="edge">
<title>Node18&#45;&gt;Node23</title>
<path fill="none" stroke="#191970" d="M1756.6768,-68.6533C1759.9947,-68.0842 1763.2809,-67.5304 1766.5,-67 1876.3955,-48.8914 1907.0316,-60.2486 2014.5,-31 2016.9664,-30.3288 2019.4877,-29.5412 2022.0002,-28.6832"/>
<polygon fill="#191970" stroke="#191970" points="2023.3742,-31.9061 2031.5117,-25.1215 2020.9194,-25.3507 2023.3742,-31.9061"/>
</g>
<!-- Node24 -->
<g id="node25" class="node">
<title>Node24</title>
<polygon fill="none" stroke="#bfbfbf" points="1879.5,-6 1879.5,-25 1939.5,-25 1939.5,-6 1879.5,-6"/>
<text text-anchor="middle" x="1909.5" y="-13" font-family="Helvetica,sans-Serif" font-size="10.00" fill="#000000">iostream</text>
</g>
<!-- Node18&#45;&gt;Node24 -->
<g id="edge24" class="edge">
<title>Node18&#45;&gt;Node24</title>
<path fill="none" stroke="#191970" d="M1743.9765,-67.4969C1780.9506,-58.0197 1828.779,-44.9573 1870.5,-31 1872.6333,-30.2863 1874.8194,-29.5193 1877.0144,-28.7223"/>
<polygon fill="#191970" stroke="#191970" points="1878.4472,-31.9223 1886.5594,-25.1073 1875.9679,-25.376 1878.4472,-31.9223"/>
</g>
<!-- Node25&#45;&gt;Node18 -->
<g id="edge26" class="edge">
<title>Node25&#45;&gt;Node18</title>
<path fill="none" stroke="#191970" d="M1850.801,-134.4639C1818.3874,-124.456 1775.6187,-111.2509 1741.3071,-100.657"/>
<polygon fill="#191970" stroke="#191970" points="1741.9989,-97.2077 1731.4114,-97.6017 1739.9338,-103.8961 1741.9989,-97.2077"/>
</g>
<!-- Node25&#45;&gt;Node23 -->
<g id="edge29" class="edge">
<title>Node25&#45;&gt;Node23</title>
<path fill="none" stroke="#191970" d="M1937.1973,-134.362C1956.0557,-125.5887 1978.4357,-113.2494 1995.5,-98 2016.091,-79.5989 2033.0491,-52.3265 2042.9706,-34.2415"/>
<polygon fill="#191970" stroke="#191970" points="2046.1437,-35.7285 2047.737,-25.2542 2039.9595,-32.4487 2046.1437,-35.7285"/>
</g>
<!-- Node26 -->
<g id="node27" class="node">
<title>Node26</title>
<polygon fill="none" stroke="#bfbfbf" points="1929,-73 1929,-92 1986,-92 1986,-73 1929,-73"/>
<text text-anchor="middle" x="1957.5" y="-80" font-family="Helvetica,sans-Serif" font-size="10.00" fill="#000000">TClass.h</text>
</g>
<!-- Node25&#45;&gt;Node26 -->
<g id="edge27" class="edge">
<title>Node25&#45;&gt;Node26</title>
<path fill="none" stroke="#191970" d="M1912.6611,-134.2967C1921.5223,-124.0605 1933.2295,-110.5366 1942.4593,-99.8746"/>
<polygon fill="#191970" stroke="#191970" points="1945.3297,-101.9064 1949.2285,-92.055 1940.0373,-97.3248 1945.3297,-101.9064"/>
</g>
<!-- Node27 -->
<g id="node28" class="node">
<title>Node27</title>
<polygon fill="none" stroke="#bfbfbf" points="1775,-73 1775,-92 1844,-92 1844,-73 1775,-73"/>
<text text-anchor="middle" x="1809.5" y="-80" font-family="Helvetica,sans-Serif" font-size="10.00" fill="#000000">type_traits</text>
</g>
<!-- Node25&#45;&gt;Node27 -->
<g id="edge28" class="edge">
<title>Node25&#45;&gt;Node27</title>
<path fill="none" stroke="#191970" d="M1879.0776,-134.2967C1864.6468,-123.5537 1845.3516,-109.1895 1830.7412,-98.3129"/>
<polygon fill="#191970" stroke="#191970" points="1832.4464,-95.219 1822.335,-92.055 1828.2664,-100.8339 1832.4464,-95.219"/>
</g>
<!-- Node28 -->
<g id="node29" class="node">
<title>Node28</title>
<polygon fill="none" stroke="#bfbfbf" points="1862.5,-73 1862.5,-92 1910.5,-92 1910.5,-73 1862.5,-73"/>
<text text-anchor="middle" x="1886.5" y="-80" font-family="Helvetica,sans-Serif" font-size="10.00" fill="#000000">TFile.h</text>
</g>
<!-- Node25&#45;&gt;Node28 -->
<g id="edge30" class="edge">
<title>Node25&#45;&gt;Node28</title>
<path fill="none" stroke="#191970" d="M1896.5501,-134.2967C1894.7016,-124.7699 1892.3006,-112.3954 1890.3089,-102.1306"/>
<polygon fill="#191970" stroke="#191970" points="1893.6947,-101.2052 1888.3539,-92.055 1886.8229,-102.5386 1893.6947,-101.2052"/>
</g>
<!-- Node29&#45;&gt;Node3 -->
<g id="edge32" class="edge">
<title>Node29&#45;&gt;Node3</title>
<path fill="none" stroke="#191970" d="M1643.4649,-201.4873C1615.5043,-192.7028 1573.4005,-178.9418 1537.5,-165 1535.8816,-164.3715 1534.229,-163.7099 1532.5661,-163.0284"/>
<polygon fill="#191970" stroke="#191970" points="1533.6668,-159.6932 1523.0946,-159.0011 1530.9277,-166.1351 1533.6668,-159.6932"/>
</g>
<!-- Node29&#45;&gt;Node18 -->
<g id="edge33" class="edge">
<title>Node29&#45;&gt;Node18</title>
<path fill="none" stroke="#191970" d="M1624.7965,-201.476C1604.3633,-194.8489 1582.6734,-183.6954 1570.5,-165 1562.982,-153.4541 1563.0662,-145.6002 1570.5,-134 1579.7184,-119.615 1594.079,-109.1935 1609.4782,-101.6625"/>
<polygon fill="#191970" stroke="#191970" points="1610.9433,-104.8413 1618.6341,-97.5542 1608.0776,-98.4548 1610.9433,-104.8413"/>
</g>
<!-- Node29&#45;&gt;Node25 -->
<g id="edge34" class="edge">
<title>Node29&#45;&gt;Node25</title>
<path fill="none" stroke="#191970" d="M1709.6563,-201.3906C1742.9973,-192.2774 1793.9047,-178.3627 1834.6129,-167.2358"/>
<polygon fill="#191970" stroke="#191970" points="1835.7355,-170.5574 1844.4588,-164.5446 1833.8898,-163.8051 1835.7355,-170.5574"/>
</g>
<!-- Node30 -->
<g id="node31" class="node">
<title>Node30</title>
<g id="a_node31"><a xlink:href="../../d4/dc6/LHCConstants_8h.html" target="_top" xlink:title="Header to collect LHC related constants. ">
<polygon fill="none" stroke="#000000" points="1579.5,-140 1579.5,-159 1769.5,-159 1769.5,-140 1579.5,-140"/>
<text text-anchor="middle" x="1674.5" y="-147" font-family="Helvetica,sans-Serif" font-size="10.00" fill="#000000">CommonConstants/LHCConstants.h</text>
</a>
</g>
</g>
<!-- Node29&#45;&gt;Node30 -->
<g id="edge35" class="edge">
<title>Node29&#45;&gt;Node30</title>
<path fill="none" stroke="#191970" d="M1674.5,-201.3906C1674.5,-192.8657 1674.5,-180.1392 1674.5,-169.4235"/>
<polygon fill="#191970" stroke="#191970" points="1678.0001,-169.2448 1674.5,-159.2449 1671.0001,-169.2449 1678.0001,-169.2448"/>
</g>
<!-- Node31&#45;&gt;Node3 -->
<g id="edge37" class="edge">
<title>Node31&#45;&gt;Node3</title>
<path fill="none" stroke="#191970" d="M1498.2813,-201.3906C1498.9743,-192.8657 1500.009,-180.1392 1500.8802,-169.4235"/>
<polygon fill="#191970" stroke="#191970" points="1504.3858,-169.4956 1501.7077,-159.2449 1497.4088,-168.9283 1504.3858,-169.4956"/>
</g>
<!-- Node31&#45;&gt;Node5 -->
<g id="edge38" class="edge">
<title>Node31&#45;&gt;Node5</title>
<path fill="none" stroke="#191970" d="M1471.5534,-201.4466C1409.2187,-178.4953 1251.0833,-120.2706 1181.8373,-94.7746"/>
<polygon fill="#191970" stroke="#191970" points="1182.8811,-91.4293 1172.2876,-91.2585 1180.4624,-97.9982 1182.8811,-91.4293"/>
</g>
<!-- Node31&#45;&gt;Node18 -->
<g id="edge39" class="edge">
<title>Node31&#45;&gt;Node18</title>
<path fill="none" stroke="#191970" d="M1489.2956,-201.4908C1476.8738,-185.8966 1456.3655,-154.5694 1472.5,-134 1488.3013,-113.8553 1546.8858,-100.5567 1598.1743,-92.5278"/>
<polygon fill="#191970" stroke="#191970" points="1598.9565,-95.9494 1608.3199,-90.9918 1597.9086,-89.0282 1598.9565,-95.9494"/>
</g>
<!-- Node31&#45;&gt;Node25 -->
<g id="edge40" class="edge">
<title>Node31&#45;&gt;Node25</title>
<path fill="none" stroke="#191970" d="M1559.8714,-201.4581C1628.4658,-190.9642 1739.0575,-174.0453 1815.3061,-162.3804"/>
<polygon fill="#191970" stroke="#191970" points="1816.006,-165.8141 1825.3617,-160.8421 1814.9474,-158.8946 1816.006,-165.8141"/>
</g>
<!-- Node32&#45;&gt;Node3 -->
<g id="edge42" class="edge">
<title>Node32&#45;&gt;Node3</title>
<path fill="none" stroke="#191970" d="M1785.515,-201.4786C1728.636,-192.8698 1643.8615,-179.3731 1570.5,-165 1558.4003,-162.6294 1545.1675,-159.6923 1533.6174,-157.0145"/>
<polygon fill="#191970" stroke="#191970" points="1534.0995,-153.5325 1523.564,-154.6518 1532.498,-160.3468 1534.0995,-153.5325"/>
</g>
<!-- Node32&#45;&gt;Node18 -->
<g id="edge43" class="edge">
<title>Node32&#45;&gt;Node18</title>
<path fill="none" stroke="#191970" d="M1842.9519,-201.0258C1830.7098,-185.3272 1805.1925,-154.5313 1778.5,-134 1762.562,-121.7408 1743.3054,-110.782 1726.2352,-102.1577"/>
<polygon fill="#191970" stroke="#191970" points="1727.5289,-98.8934 1717.0117,-97.6132 1724.435,-105.1726 1727.5289,-98.8934"/>
</g>
<!-- Node32&#45;&gt;Node25 -->
<g id="edge44" class="edge">
<title>Node32&#45;&gt;Node25</title>
<path fill="none" stroke="#191970" d="M1858.1563,-201.3906C1864.2966,-193.6839 1873.1728,-182.5434 1881.1279,-172.5589"/>
<polygon fill="#191970" stroke="#191970" points="1884.0192,-174.5467 1887.5133,-164.5446 1878.5444,-170.1847 1884.0192,-174.5467"/>
</g>
<!-- Node33&#45;&gt;Node15 -->
<g id="edge48" class="edge">
<title>Node33&#45;&gt;Node15</title>
<path fill="none" stroke="#191970" d="M2038.8777,-201.2532C2033.7645,-171.7761 2017.0386,-84.5191 1995.5,-67 1931.9271,-15.2912 1708.1363,-50.3227 1628.5,-31 1625.712,-30.3235 1622.8591,-29.4885 1620.0271,-28.5596"/>
<polygon fill="#191970" stroke="#191970" points="1621.1981,-25.2613 1610.6041,-25.1344 1618.8067,-31.8401 1621.1981,-25.2613"/>
</g>
<!-- Node34 -->
<g id="node35" class="node">
<title>Node34</title>
<polygon fill="none" stroke="#bfbfbf" points="2042.5,-140 2042.5,-159 2192.5,-159 2192.5,-140 2042.5,-140"/>
<text text-anchor="middle" x="2117.5" y="-147" font-family="Helvetica,sans-Serif" font-size="10.00" fill="#000000">boost/program_options.hpp</text>
</g>
<!-- Node33&#45;&gt;Node34 -->
<g id="edge49" class="edge">
<title>Node33&#45;&gt;Node34</title>
<path fill="none" stroke="#191970" d="M2052.5313,-201.3906C2064.5107,-191.8227 2083.1166,-176.9621 2097.3525,-165.5919"/>
<polygon fill="#191970" stroke="#191970" points="2099.9239,-168.0175 2105.5532,-159.0419 2095.5553,-162.5479 2099.9239,-168.0175"/>
</g>
</g>
</svg>
