<?xml version="1.0" encoding="UTF-8" standalone="no"?>
<!DOCTYPE svg PUBLIC "-//W3C//DTD SVG 1.1//EN"
 "http://www.w3.org/Graphics/SVG/1.1/DTD/svg11.dtd">
<!-- Generated by graphviz version 2.40.1 (20161225.0304)
 -->
<!-- Title: /home/travis/build/AliceO2Group/AliceO2/Detectors/TPC/base/src/CRU.cxx Pages: 1 -->
<svg width="1571pt" height="408pt"
 viewBox="0.00 0.00 1570.50 408.00" xmlns="http://www.w3.org/2000/svg" xmlns:xlink="http://www.w3.org/1999/xlink">
<g id="graph0" class="graph" transform="scale(1 1) rotate(0) translate(4 404)">
<title>/home/travis/build/AliceO2Group/AliceO2/Detectors/TPC/base/src/CRU.cxx</title>
<!-- Node0 -->
<g id="node1" class="node">
<title>Node0</title>
<polygon fill="#bfbfbf" stroke="#000000" points="775,-347.5 775,-399.5 907,-399.5 907,-347.5 775,-347.5"/>
<text text-anchor="start" x="783" y="-387.5" font-family="Helvetica,sans-Serif" font-size="10.00" fill="#000000">/home/travis/build</text>
<text text-anchor="start" x="783" y="-376.5" font-family="Helvetica,sans-Serif" font-size="10.00" fill="#000000">/AliceO2Group/AliceO2</text>
<text text-anchor="start" x="783" y="-365.5" font-family="Helvetica,sans-Serif" font-size="10.00" fill="#000000">/Detectors/TPC/base/src</text>
<text text-anchor="middle" x="841" y="-354.5" font-family="Helvetica,sans-Serif" font-size="10.00" fill="#000000">/CRU.cxx</text>
</g>
<!-- Node1 -->
<g id="node2" class="node">
<title>Node1</title>
<g id="a_node2"><a xlink:href="../../df/d26/CRU_8h.html" target="_top" xlink:title="TPCBase/CRU.h">
<polygon fill="none" stroke="#000000" points="795,-291.5 795,-310.5 887,-310.5 887,-291.5 795,-291.5"/>
<text text-anchor="middle" x="841" y="-298.5" font-family="Helvetica,sans-Serif" font-size="10.00" fill="#000000">TPCBase/CRU.h</text>
</a>
</g>
</g>
<!-- Node0&#45;&gt;Node1 -->
<g id="edge1" class="edge">
<title>Node0&#45;&gt;Node1</title>
<path fill="none" stroke="#191970" d="M841,-347.3258C841,-338.5142 841,-328.8397 841,-320.621"/>
<polygon fill="#191970" stroke="#191970" points="844.5001,-320.534 841,-310.534 837.5001,-320.534 844.5001,-320.534"/>
</g>
<!-- Node2 -->
<g id="node3" class="node">
<title>Node2</title>
<g id="a_node3"><a xlink:href="../../d1/d73/Defs_8h.html" target="_top" xlink:title="DataFormatsTPC/Defs.h">
<polygon fill="none" stroke="#000000" points="719.5,-123.5 719.5,-142.5 852.5,-142.5 852.5,-123.5 719.5,-123.5"/>
<text text-anchor="middle" x="786" y="-130.5" font-family="Helvetica,sans-Serif" font-size="10.00" fill="#000000">DataFormatsTPC/Defs.h</text>
</a>
</g>
</g>
<!-- Node1&#45;&gt;Node2 -->
<g id="edge2" class="edge">
<title>Node1&#45;&gt;Node2</title>
<path fill="none" stroke="#191970" d="M822.7167,-291.4509C809.8142,-283.5902 793.5359,-271.1269 786,-255 770.4564,-221.7365 775.9632,-177.5819 781.1393,-152.5377"/>
<polygon fill="#191970" stroke="#191970" points="784.5557,-153.2977 783.3461,-142.7721 777.7279,-151.7546 784.5557,-153.2977"/>
</g>
<!-- Node16 -->
<g id="node17" class="node">
<title>Node16</title>
<g id="a_node17"><a xlink:href="../../d3/dd6/Sector_8h.html" target="_top" xlink:title="TPCBase/Sector.h">
<polygon fill="none" stroke="#000000" points="856.5,-179.5 856.5,-198.5 957.5,-198.5 957.5,-179.5 856.5,-179.5"/>
<text text-anchor="middle" x="907" y="-186.5" font-family="Helvetica,sans-Serif" font-size="10.00" fill="#000000">TPCBase/Sector.h</text>
</a>
</g>
</g>
<!-- Node1&#45;&gt;Node16 -->
<g id="edge16" class="edge">
<title>Node1&#45;&gt;Node16</title>
<path fill="none" stroke="#191970" d="M857.9979,-291.3911C870.5817,-283.3433 887.036,-270.6664 896,-255 904.0226,-240.9789 906.5751,-222.7154 907.2331,-208.9559"/>
<polygon fill="#191970" stroke="#191970" points="910.738,-208.7107 907.4187,-198.6492 903.7391,-208.5846 910.738,-208.7107"/>
</g>
<!-- Node18 -->
<g id="node19" class="node">
<title>Node18</title>
<g id="a_node19"><a xlink:href="../../dc/d14/ROC_8h.html" target="_top" xlink:title="TPCBase/ROC.h">
<polygon fill="none" stroke="#000000" points="795,-235.5 795,-254.5 887,-254.5 887,-235.5 795,-235.5"/>
<text text-anchor="middle" x="841" y="-242.5" font-family="Helvetica,sans-Serif" font-size="10.00" fill="#000000">TPCBase/ROC.h</text>
</a>
</g>
</g>
<!-- Node1&#45;&gt;Node18 -->
<g id="edge19" class="edge">
<title>Node1&#45;&gt;Node18</title>
<path fill="none" stroke="#191970" d="M841,-291.2455C841,-283.9382 841,-273.6944 841,-264.7046"/>
<polygon fill="#191970" stroke="#191970" points="844.5001,-264.6426 841,-254.6427 837.5001,-264.6427 844.5001,-264.6426"/>
</g>
<!-- Node3 -->
<g id="node4" class="node">
<title>Node3</title>
<polygon fill="none" stroke="#bfbfbf" points="650.5,-67.5 650.5,-86.5 697.5,-86.5 697.5,-67.5 650.5,-67.5"/>
<text text-anchor="middle" x="674" y="-74.5" font-family="Helvetica,sans-Serif" font-size="10.00" fill="#000000">cmath</text>
</g>
<!-- Node2&#45;&gt;Node3 -->
<g id="edge3" class="edge">
<title>Node2&#45;&gt;Node3</title>
<path fill="none" stroke="#191970" d="M766.7465,-123.3733C748.9288,-114.4644 722.2253,-101.1127 702.0406,-91.0203"/>
<polygon fill="#191970" stroke="#191970" points="703.5118,-87.8428 693.0022,-86.5011 700.3813,-94.1038 703.5118,-87.8428"/>
</g>
<!-- Node4 -->
<g id="node5" class="node">
<title>Node4</title>
<g id="a_node5"><a xlink:href="../../d1/da8/GPUROOTCartesianFwd_8h.html" target="_top" xlink:title="GPUROOTCartesianFwd.h">
<polygon fill="none" stroke="#000000" points="716,-67.5 716,-86.5 856,-86.5 856,-67.5 716,-67.5"/>
<text text-anchor="middle" x="786" y="-74.5" font-family="Helvetica,sans-Serif" font-size="10.00" fill="#000000">GPUROOTCartesianFwd.h</text>
</a>
</g>
</g>
<!-- Node2&#45;&gt;Node4 -->
<g id="edge4" class="edge">
<title>Node2&#45;&gt;Node4</title>
<path fill="none" stroke="#191970" d="M786,-123.2455C786,-115.9382 786,-105.6944 786,-96.7046"/>
<polygon fill="#191970" stroke="#191970" points="789.5001,-96.6426 786,-86.6427 782.5001,-96.6427 789.5001,-96.6426"/>
</g>
<!-- Node5 -->
<g id="node6" class="node">
<title>Node5</title>
<g id="a_node6"><a xlink:href="../../dc/d73/Cartesian_8h.html" target="_top" xlink:title="MathUtils/Cartesian.h">
<polygon fill="none" stroke="#000000" points="874,-67.5 874,-86.5 996,-86.5 996,-67.5 874,-67.5"/>
<text text-anchor="middle" x="935" y="-74.5" font-family="Helvetica,sans-Serif" font-size="10.00" fill="#000000">MathUtils/Cartesian.h</text>
</a>
</g>
</g>
<!-- Node2&#45;&gt;Node5 -->
<g id="edge5" class="edge">
<title>Node2&#45;&gt;Node5</title>
<path fill="none" stroke="#191970" d="M811.614,-123.3733C836.0687,-114.1822 873.1054,-100.2624 900.2209,-90.0713"/>
<polygon fill="#191970" stroke="#191970" points="901.5909,-93.2956 909.7202,-86.5011 899.1281,-86.7431 901.5909,-93.2956"/>
</g>
<!-- Node6 -->
<g id="node7" class="node">
<title>Node6</title>
<polygon fill="none" stroke="#bfbfbf" points="0,-.5 0,-30.5 164,-30.5 164,-.5 0,-.5"/>
<text text-anchor="start" x="8" y="-18.5" font-family="Helvetica,sans-Serif" font-size="10.00" fill="#000000">Math/GenVector/Displacement</text>
<text text-anchor="middle" x="82" y="-7.5" font-family="Helvetica,sans-Serif" font-size="10.00" fill="#000000">Vector3D.h</text>
</g>
<!-- Node5&#45;&gt;Node6 -->
<g id="edge6" class="edge">
<title>Node5&#45;&gt;Node6</title>
<path fill="none" stroke="#191970" d="M873.9555,-67.9498C870.9303,-67.6047 867.9324,-67.2852 865,-67 561.7671,-37.5132 480.83,-64.3248 174.3438,-31.0622"/>
<polygon fill="#191970" stroke="#191970" points="174.6014,-27.5695 164.2792,-29.9572 173.8374,-34.5277 174.6014,-27.5695"/>
</g>
<!-- Node7 -->
<g id="node8" class="node">
<title>Node7</title>
<polygon fill="none" stroke="#bfbfbf" points="182.5,-6 182.5,-25 371.5,-25 371.5,-6 182.5,-6"/>
<text text-anchor="middle" x="277" y="-13" font-family="Helvetica,sans-Serif" font-size="10.00" fill="#000000">Math/GenVector/PositionVector3D.h</text>
</g>
<!-- Node5&#45;&gt;Node7 -->
<g id="edge7" class="edge">
<title>Node5&#45;&gt;Node7</title>
<path fill="none" stroke="#191970" d="M873.9472,-68.0302C870.9242,-67.6639 867.9291,-67.3178 865,-67 650.5531,-43.734 595.3755,-54.9148 381,-31 369.634,-29.7321 357.6027,-28.1564 345.9123,-26.4997"/>
<polygon fill="#191970" stroke="#191970" points="346.1504,-22.9977 335.752,-25.0285 345.1472,-29.9255 346.1504,-22.9977"/>
</g>
<!-- Node8 -->
<g id="node9" class="node">
<title>Node8</title>
<polygon fill="none" stroke="#bfbfbf" points="390,-6 390,-25 550,-25 550,-6 390,-6"/>
<text text-anchor="middle" x="470" y="-13" font-family="Helvetica,sans-Serif" font-size="10.00" fill="#000000">Math/GenVector/Rotation3D.h</text>
</g>
<!-- Node5&#45;&gt;Node8 -->
<g id="edge8" class="edge">
<title>Node5&#45;&gt;Node8</title>
<path fill="none" stroke="#191970" d="M873.9288,-68.1847C870.9106,-67.7775 867.9216,-67.3805 865,-67 729.2087,-49.3157 694.5055,-50.7551 559,-31 550.11,-29.7039 540.7425,-28.2119 531.5562,-26.6764"/>
<polygon fill="#191970" stroke="#191970" points="532.1354,-23.2247 521.6904,-25.0004 530.963,-30.1258 532.1354,-23.2247"/>
</g>
<!-- Node9 -->
<g id="node10" class="node">
<title>Node9</title>
<polygon fill="none" stroke="#bfbfbf" points="568,-6 568,-25 736,-25 736,-6 568,-6"/>
<text text-anchor="middle" x="652" y="-13" font-family="Helvetica,sans-Serif" font-size="10.00" fill="#000000">Math/GenVector/Transform3D.h</text>
</g>
<!-- Node5&#45;&gt;Node9 -->
<g id="edge9" class="edge">
<title>Node5&#45;&gt;Node9</title>
<path fill="none" stroke="#191970" d="M891.0918,-67.4581C841.2101,-56.6181 759.781,-38.9224 706.0409,-27.2439"/>
<polygon fill="#191970" stroke="#191970" points="706.5265,-23.7678 696.0113,-25.0643 705.0399,-30.6081 706.5265,-23.7678"/>
</g>
<!-- Node10 -->
<g id="node11" class="node">
<title>Node10</title>
<polygon fill="none" stroke="#bfbfbf" points="754.5,-6 754.5,-25 927.5,-25 927.5,-6 754.5,-6"/>
<text text-anchor="middle" x="841" y="-13" font-family="Helvetica,sans-Serif" font-size="10.00" fill="#000000">Math/GenVector/Translation3D.h</text>
</g>
<!-- Node5&#45;&gt;Node10 -->
<g id="edge10" class="edge">
<title>Node5&#45;&gt;Node10</title>
<path fill="none" stroke="#191970" d="M920.3125,-67.3906C905.2744,-57.5519 881.6824,-42.1167 864.1333,-30.6351"/>
<polygon fill="#191970" stroke="#191970" points="865.8687,-27.588 855.5844,-25.0419 862.0363,-33.4457 865.8687,-27.588"/>
</g>
<!-- Node11 -->
<g id="node12" class="node">
<title>Node11</title>
<polygon fill="none" stroke="#bfbfbf" points="946,-.5 946,-30.5 1110,-30.5 1110,-.5 946,-.5"/>
<text text-anchor="start" x="954" y="-18.5" font-family="Helvetica,sans-Serif" font-size="10.00" fill="#000000">Math/GenVector/Displacement</text>
<text text-anchor="middle" x="1028" y="-7.5" font-family="Helvetica,sans-Serif" font-size="10.00" fill="#000000">Vector2D.h</text>
</g>
<!-- Node5&#45;&gt;Node11 -->
<g id="edge11" class="edge">
<title>Node5&#45;&gt;Node11</title>
<path fill="none" stroke="#191970" d="M949.5313,-67.3906C962.1177,-59.0673 980.7607,-46.7389 996.717,-36.1872"/>
<polygon fill="#191970" stroke="#191970" points="998.8391,-38.98 1005.2496,-30.5446 994.9779,-33.1411 998.8391,-38.98"/>
</g>
<!-- Node12 -->
<g id="node13" class="node">
<title>Node12</title>
<polygon fill="none" stroke="#bfbfbf" points="1128.5,-6 1128.5,-25 1317.5,-25 1317.5,-6 1128.5,-6"/>
<text text-anchor="middle" x="1223" y="-13" font-family="Helvetica,sans-Serif" font-size="10.00" fill="#000000">Math/GenVector/PositionVector2D.h</text>
</g>
<!-- Node5&#45;&gt;Node12 -->
<g id="edge12" class="edge">
<title>Node5&#45;&gt;Node12</title>
<path fill="none" stroke="#191970" d="M979.684,-67.4581C1030.5525,-56.5956 1113.6595,-38.8488 1168.3451,-27.1711"/>
<polygon fill="#191970" stroke="#191970" points="1169.1626,-30.5755 1178.2112,-25.0643 1167.7007,-23.7299 1169.1626,-30.5755"/>
</g>
<!-- Node13 -->
<g id="node14" class="node">
<title>Node13</title>
<polygon fill="none" stroke="#bfbfbf" points="1335.5,-6 1335.5,-25 1394.5,-25 1394.5,-6 1335.5,-6"/>
<text text-anchor="middle" x="1365" y="-13" font-family="Helvetica,sans-Serif" font-size="10.00" fill="#000000">Rtypes.h</text>
</g>
<!-- Node5&#45;&gt;Node13 -->
<g id="edge13" class="edge">
<title>Node5&#45;&gt;Node13</title>
<path fill="none" stroke="#191970" d="M996.0347,-74.9359C1073.9425,-71.147 1212.3676,-60.5213 1327,-31 1329.6262,-30.3237 1332.3116,-29.5058 1334.9804,-28.6034"/>
<polygon fill="#191970" stroke="#191970" points="1336.297,-31.8479 1344.438,-25.0673 1333.8455,-25.2912 1336.297,-31.8479"/>
</g>
<!-- Node14 -->
<g id="node15" class="node">
<title>Node14</title>
<polygon fill="none" stroke="#bfbfbf" points="1413,-6 1413,-25 1495,-25 1495,-6 1413,-6"/>
<text text-anchor="middle" x="1454" y="-13" font-family="Helvetica,sans-Serif" font-size="10.00" fill="#000000">TGeoMatrix.h</text>
</g>
<!-- Node5&#45;&gt;Node14 -->
<g id="edge14" class="edge">
<title>Node5&#45;&gt;Node14</title>
<path fill="none" stroke="#191970" d="M996.295,-74.9493C1086.4234,-71.0435 1259.646,-60.1398 1404,-31 1408.2092,-30.1503 1412.568,-29.0863 1416.8776,-27.9159"/>
<polygon fill="#191970" stroke="#191970" points="1418.1271,-31.1976 1426.751,-25.043 1416.1714,-24.4763 1418.1271,-31.1976"/>
</g>
<!-- Node15 -->
<g id="node16" class="node">
<title>Node15</title>
<polygon fill="none" stroke="#bfbfbf" points="1513.5,-6 1513.5,-25 1562.5,-25 1562.5,-6 1513.5,-6"/>
<text text-anchor="middle" x="1538" y="-13" font-family="Helvetica,sans-Serif" font-size="10.00" fill="#000000">iosfwd</text>
</g>
<!-- Node5&#45;&gt;Node15 -->
<g id="edge15" class="edge">
<title>Node5&#45;&gt;Node15</title>
<path fill="none" stroke="#191970" d="M996.2002,-74.7276C1122.7734,-69.5912 1409.3968,-55.58 1504,-31 1506.1936,-30.43 1508.4218,-29.727 1510.6342,-28.9377"/>
<polygon fill="#191970" stroke="#191970" points="1512.1485,-32.0998 1520.0766,-25.0715 1509.4961,-25.6217 1512.1485,-32.0998"/>
</g>
<!-- Node16&#45;&gt;Node2 -->
<g id="edge18" class="edge">
<title>Node16&#45;&gt;Node2</title>
<path fill="none" stroke="#191970" d="M886.1994,-179.3733C866.7757,-170.3838 837.5776,-156.8706 815.7036,-146.7471"/>
<polygon fill="#191970" stroke="#191970" points="817.0745,-143.5249 806.5292,-142.5011 814.1344,-149.8776 817.0745,-143.5249"/>
</g>
<!-- Node17 -->
<g id="node18" class="node">
<title>Node17</title>
<g id="a_node18"><a xlink:href="../../d0/dda/DataFormats_2Detectors_2TPC_2include_2DataFormatsTPC_2Constants_8h.html" target="_top" xlink:title="DataFormatsTPC/Constants.h">
<polygon fill="none" stroke="#000000" points="870.5,-123.5 870.5,-142.5 1029.5,-142.5 1029.5,-123.5 870.5,-123.5"/>
<text text-anchor="middle" x="950" y="-130.5" font-family="Helvetica,sans-Serif" font-size="10.00" fill="#000000">DataFormatsTPC/Constants.h</text>
</a>
</g>
</g>
<!-- Node16&#45;&gt;Node17 -->
<g id="edge17" class="edge">
<title>Node16&#45;&gt;Node17</title>
<path fill="none" stroke="#191970" d="M914.49,-179.2455C920.5326,-171.3761 929.1903,-160.101 936.4441,-150.6542"/>
<polygon fill="#191970" stroke="#191970" points="939.2815,-152.7058 942.5958,-142.6427 933.7295,-148.4426 939.2815,-152.7058"/>
</g>
<!-- Node18&#45;&gt;Node2 -->
<g id="edge20" class="edge">
<title>Node18&#45;&gt;Node2</title>
<path fill="none" stroke="#191970" d="M836.3107,-235.4509C827.2186,-216.936 807.0469,-175.8591 795.1922,-151.7187"/>
<polygon fill="#191970" stroke="#191970" points="798.227,-149.9582 790.6774,-142.5249 791.9437,-153.0438 798.227,-149.9582"/>
</g>
<!-- Node18&#45;&gt;Node16 -->
<g id="edge21" class="edge">
<title>Node18&#45;&gt;Node16</title>
<path fill="none" stroke="#191970" d="M852.4963,-235.2455C862.2442,-226.9746 876.4259,-214.9416 887.8798,-205.2232"/>
<polygon fill="#191970" stroke="#191970" points="890.2747,-207.7813 895.6354,-198.6427 885.7459,-202.4437 890.2747,-207.7813"/>
</g>
</g>
</svg>
