<?xml version="1.0" encoding="UTF-8" standalone="no"?>
<!DOCTYPE svg PUBLIC "-//W3C//DTD SVG 1.1//EN"
 "http://www.w3.org/Graphics/SVG/1.1/DTD/svg11.dtd">
<!-- Generated by graphviz version 2.40.1 (20161225.0304)
 -->
<!-- Title: /home/travis/build/AliceO2Group/AliceO2/Detectors/Base/src/MatLayerCylSet.cxx Pages: 1 -->
<svg width="2883pt" height="475pt"
 viewBox="0.00 0.00 2882.99 475.00" xmlns="http://www.w3.org/2000/svg" xmlns:xlink="http://www.w3.org/1999/xlink">
<g id="graph0" class="graph" transform="scale(1 1) rotate(0) translate(4 471)">
<title>/home/travis/build/AliceO2Group/AliceO2/Detectors/Base/src/MatLayerCylSet.cxx</title>
<!-- Node0 -->
<g id="node1" class="node">
<title>Node0</title>
<polygon fill="#bfbfbf" stroke="#000000" points="2251.9948,-414.5 2251.9948,-466.5 2410.9948,-466.5 2410.9948,-414.5 2251.9948,-414.5"/>
<text text-anchor="start" x="2259.9948" y="-454.5" font-family="Helvetica,sans-Serif" font-size="10.00" fill="#000000">/home/travis/build</text>
<text text-anchor="start" x="2259.9948" y="-443.5" font-family="Helvetica,sans-Serif" font-size="10.00" fill="#000000">/AliceO2Group/AliceO2</text>
<text text-anchor="start" x="2259.9948" y="-432.5" font-family="Helvetica,sans-Serif" font-size="10.00" fill="#000000">/Detectors/Base/src/MatLayer</text>
<text text-anchor="middle" x="2331.4948" y="-421.5" font-family="Helvetica,sans-Serif" font-size="10.00" fill="#000000">CylSet.cxx</text>
</g>
<!-- Node1 -->
<g id="node2" class="node">
<title>Node1</title>
<g id="a_node2"><a xlink:href="../../d9/da9/MatLayerCylSet_8h.html" target="_top" xlink:title="Declarations for the wrapper for the set of cylindrical material layers. ">
<polygon fill="none" stroke="#000000" points="981.4948,-347.5 981.4948,-377.5 1133.4948,-377.5 1133.4948,-347.5 981.4948,-347.5"/>
<text text-anchor="start" x="989.4948" y="-365.5" font-family="Helvetica,sans-Serif" font-size="10.00" fill="#000000">DetectorsBase/MatLayerCyl</text>
<text text-anchor="middle" x="1057.4948" y="-354.5" font-family="Helvetica,sans-Serif" font-size="10.00" fill="#000000">Set.h</text>
</a>
</g>
</g>
<!-- Node0&#45;&gt;Node1 -->
<g id="edge1" class="edge">
<title>Node0&#45;&gt;Node1</title>
<path fill="none" stroke="#191970" d="M2251.8004,-435.6208C2025.151,-421.7443 1378.1906,-382.1344 1143.7013,-367.778"/>
<polygon fill="#191970" stroke="#191970" points="1143.7149,-364.2723 1133.5197,-367.1546 1143.2871,-371.2592 1143.7149,-364.2723"/>
</g>
<!-- Node14 -->
<g id="node15" class="node">
<title>Node14</title>
<g id="a_node15"><a xlink:href="../../df/d5b/GPUCommonLogger_8h.html" target="_top" xlink:title="GPUCommonLogger.h">
<polygon fill="none" stroke="#000000" points="2751.9948,-112.5 2751.9948,-131.5 2874.9948,-131.5 2874.9948,-112.5 2751.9948,-112.5"/>
<text text-anchor="middle" x="2813.4948" y="-119.5" font-family="Helvetica,sans-Serif" font-size="10.00" fill="#000000">GPUCommonLogger.h</text>
</a>
</g>
</g>
<!-- Node0&#45;&gt;Node14 -->
<g id="edge59" class="edge">
<title>Node0&#45;&gt;Node14</title>
<path fill="none" stroke="#191970" d="M2411.1847,-432.6432C2541.8979,-417.5242 2787.4948,-378.7693 2787.4948,-301 2787.4948,-301 2787.4948,-301 2787.4948,-245 2787.4948,-207.7133 2799.0733,-165.4163 2806.777,-141.4009"/>
<polygon fill="#191970" stroke="#191970" points="2810.1562,-142.3303 2809.9883,-131.7368 2803.5134,-140.1229 2810.1562,-142.3303"/>
</g>
<!-- Node28 -->
<g id="node29" class="node">
<title>Node28</title>
<g id="a_node29"><a xlink:href="../../d6/d84/MathConstants_8h.html" target="_top" xlink:title="useful math constants ">
<polygon fill="none" stroke="#000000" points="113.4948,-112.5 113.4948,-131.5 307.4948,-131.5 307.4948,-112.5 113.4948,-112.5"/>
<text text-anchor="middle" x="210.4948" y="-119.5" font-family="Helvetica,sans-Serif" font-size="10.00" fill="#000000">CommonConstants/MathConstants.h</text>
</a>
</g>
</g>
<!-- Node0&#45;&gt;Node28 -->
<g id="edge58" class="edge">
<title>Node0&#45;&gt;Node28</title>
<path fill="none" stroke="#191970" d="M2251.965,-439.9881C1843.6063,-436.8498 1.4948,-416.3029 1.4948,-301 1.4948,-301 1.4948,-301 1.4948,-245 1.4948,-209.7513 -4.4844,-192.8699 20.4948,-168 29.8152,-158.7204 97.5098,-143.8131 149.4694,-133.4957"/>
<polygon fill="#191970" stroke="#191970" points="150.164,-136.9262 159.2998,-131.5607 148.812,-130.058 150.164,-136.9262"/>
</g>
<!-- Node39 -->
<g id="node40" class="node">
<title>Node39</title>
<polygon fill="none" stroke="#bfbfbf" points="2449.4948,-353 2449.4948,-372 2497.4948,-372 2497.4948,-353 2449.4948,-353"/>
<text text-anchor="middle" x="2473.4948" y="-360" font-family="Helvetica,sans-Serif" font-size="10.00" fill="#000000">TFile.h</text>
</g>
<!-- Node0&#45;&gt;Node39 -->
<g id="edge60" class="edge">
<title>Node0&#45;&gt;Node39</title>
<path fill="none" stroke="#191970" d="M2379.1738,-414.3101C2401.7816,-401.8918 2427.9382,-387.524 2446.9639,-377.0733"/>
<polygon fill="#191970" stroke="#191970" points="2448.8651,-380.0223 2455.9448,-372.1401 2445.495,-373.8869 2448.8651,-380.0223"/>
</g>
<!-- Node40 -->
<g id="node41" class="node">
<title>Node40</title>
<g id="a_node41"><a xlink:href="../../d1/d22/TreeStreamRedirector_8h.html" target="_top" xlink:title="CommonUtils/TreeStreamRedirector.h">
<polygon fill="none" stroke="#000000" points="2231.4948,-353 2231.4948,-372 2431.4948,-372 2431.4948,-353 2231.4948,-353"/>
<text text-anchor="middle" x="2331.4948" y="-360" font-family="Helvetica,sans-Serif" font-size="10.00" fill="#000000">CommonUtils/TreeStreamRedirector.h</text>
</a>
</g>
</g>
<!-- Node0&#45;&gt;Node40 -->
<g id="edge61" class="edge">
<title>Node0&#45;&gt;Node40</title>
<path fill="none" stroke="#191970" d="M2331.4948,-414.0928C2331.4948,-403.6735 2331.4948,-391.911 2331.4948,-382.2512"/>
<polygon fill="#191970" stroke="#191970" points="2334.9949,-382.0838 2331.4948,-372.0839 2327.9949,-382.0839 2334.9949,-382.0838"/>
</g>
<!-- Node2 -->
<g id="node3" class="node">
<title>Node2</title>
<g id="a_node3"><a xlink:href="../../df/d21/GPUCommonDef_8h.html" target="_top" xlink:title="GPUCommonDef.h">
<polygon fill="none" stroke="#000000" points="687.9948,-56.5 687.9948,-75.5 794.9948,-75.5 794.9948,-56.5 687.9948,-56.5"/>
<text text-anchor="middle" x="741.4948" y="-63.5" font-family="Helvetica,sans-Serif" font-size="10.00" fill="#000000">GPUCommonDef.h</text>
</a>
</g>
</g>
<!-- Node1&#45;&gt;Node2 -->
<g id="edge2" class="edge">
<title>Node1&#45;&gt;Node2</title>
<path fill="none" stroke="#191970" d="M981.2504,-350.9062C925.7001,-341.395 856.0523,-326.9378 831.4948,-311 756.9679,-262.6319 752.2986,-220.3041 742.4948,-132 740.793,-116.672 740.6041,-99.2202 740.8078,-86.1136"/>
<polygon fill="#191970" stroke="#191970" points="744.3125,-85.9599 741.0596,-75.8768 737.3146,-85.7876 744.3125,-85.9599"/>
</g>
<!-- Node5 -->
<g id="node6" class="node">
<title>Node5</title>
<g id="a_node6"><a xlink:href="../../da/df3/MatLayerCyl_8h.html" target="_top" xlink:title="Declarations for single cylindrical material layer class. ">
<polygon fill="none" stroke="#000000" points="817.9948,-235.5 817.9948,-254.5 978.9948,-254.5 978.9948,-235.5 817.9948,-235.5"/>
<text text-anchor="middle" x="898.4948" y="-242.5" font-family="Helvetica,sans-Serif" font-size="10.00" fill="#000000">DetectorsBase/MatLayerCyl.h</text>
</a>
</g>
</g>
<!-- Node1&#45;&gt;Node5 -->
<g id="edge5" class="edge">
<title>Node1&#45;&gt;Node5</title>
<path fill="none" stroke="#191970" d="M1038.9721,-347.3146C1020.7924,-332.5621 992.1389,-309.7118 966.4948,-291 951.9011,-280.3514 935.089,-268.9709 921.8327,-260.1937"/>
<polygon fill="#191970" stroke="#191970" points="923.5717,-257.1482 913.2944,-254.574 919.7233,-262.9954 923.5717,-257.1482"/>
</g>
<!-- Node8 -->
<g id="node9" class="node">
<title>Node8</title>
<g id="a_node9"><a xlink:href="../../db/dff/FlatObject_8h.html" target="_top" xlink:title="Definition of FlatObject class. ">
<polygon fill="none" stroke="#000000" points="1077.9948,-174 1077.9948,-193 1152.9948,-193 1152.9948,-174 1077.9948,-174"/>
<text text-anchor="middle" x="1115.4948" y="-181" font-family="Helvetica,sans-Serif" font-size="10.00" fill="#000000">FlatObject.h</text>
</a>
</g>
</g>
<!-- Node1&#45;&gt;Node8 -->
<g id="edge56" class="edge">
<title>Node1&#45;&gt;Node8</title>
<path fill="none" stroke="#191970" d="M1062.4398,-347.2386C1072.9662,-314.752 1097.575,-238.8041 1109.2001,-202.9268"/>
<polygon fill="#191970" stroke="#191970" points="1112.6081,-203.7634 1112.361,-193.1714 1105.949,-201.6056 1112.6081,-203.7634"/>
</g>
<!-- Node20 -->
<g id="node21" class="node">
<title>Node20</title>
<g id="a_node21"><a xlink:href="../../d4/d1b/Ray_8h.html" target="_top" xlink:title="DetectorsBase/Ray.h">
<polygon fill="none" stroke="#000000" points="839.9948,-291.5 839.9948,-310.5 956.9948,-310.5 956.9948,-291.5 839.9948,-291.5"/>
<text text-anchor="middle" x="898.4948" y="-298.5" font-family="Helvetica,sans-Serif" font-size="10.00" fill="#000000">DetectorsBase/Ray.h</text>
</a>
</g>
</g>
<!-- Node1&#45;&gt;Node20 -->
<g id="edge28" class="edge">
<title>Node1&#45;&gt;Node20</title>
<path fill="none" stroke="#191970" d="M1018.599,-347.4554C992.3022,-337.284 957.9031,-323.9787 932.6616,-314.2155"/>
<polygon fill="#191970" stroke="#191970" points="933.7234,-310.8735 923.1342,-310.5303 931.1982,-317.4022 933.7234,-310.8735"/>
</g>
<!-- Node29 -->
<g id="node30" class="node">
<title>Node29</title>
<g id="a_node30"><a xlink:href="../../dc/d73/Cartesian_8h.html" target="_top" xlink:title="MathUtils/Cartesian.h">
<polygon fill="none" stroke="#000000" points="1856.4948,-235.5 1856.4948,-254.5 1978.4948,-254.5 1978.4948,-235.5 1856.4948,-235.5"/>
<text text-anchor="middle" x="1917.4948" y="-242.5" font-family="Helvetica,sans-Serif" font-size="10.00" fill="#000000">MathUtils/Cartesian.h</text>
</a>
</g>
</g>
<!-- Node1&#45;&gt;Node29 -->
<g id="edge57" class="edge">
<title>Node1&#45;&gt;Node29</title>
<path fill="none" stroke="#191970" d="M1133.8141,-352.0727C1298.6363,-329.5533 1685.902,-276.642 1846.1442,-254.7485"/>
<polygon fill="#191970" stroke="#191970" points="1846.9319,-258.1735 1856.366,-253.3519 1845.9843,-251.2379 1846.9319,-258.1735"/>
</g>
<!-- Node3 -->
<g id="node4" class="node">
<title>Node3</title>
<g id="a_node4"><a xlink:href="../../d5/d93/GPUCommonDefSettings_8h.html" target="_top" xlink:title="GPUCommonDefSettings.h">
<polygon fill="none" stroke="#000000" points="590.4948,-.5 590.4948,-19.5 738.4948,-19.5 738.4948,-.5 590.4948,-.5"/>
<text text-anchor="middle" x="664.4948" y="-7.5" font-family="Helvetica,sans-Serif" font-size="10.00" fill="#000000">GPUCommonDefSettings.h</text>
</a>
</g>
</g>
<!-- Node2&#45;&gt;Node3 -->
<g id="edge3" class="edge">
<title>Node2&#45;&gt;Node3</title>
<path fill="none" stroke="#191970" d="M728.0824,-56.2455C716.4891,-47.814 699.52,-35.4729 686.027,-25.6598"/>
<polygon fill="#191970" stroke="#191970" points="687.8995,-22.6938 677.7535,-19.6427 683.7822,-28.355 687.8995,-22.6938"/>
</g>
<!-- Node4 -->
<g id="node5" class="node">
<title>Node4</title>
<g id="a_node5"><a xlink:href="../../da/d5a/GPUCommonDefAPI_8h.html" target="_top" xlink:title="GPUCommonDefAPI.h">
<polygon fill="none" stroke="#000000" points="756.4948,-.5 756.4948,-19.5 880.4948,-19.5 880.4948,-.5 756.4948,-.5"/>
<text text-anchor="middle" x="818.4948" y="-7.5" font-family="Helvetica,sans-Serif" font-size="10.00" fill="#000000">GPUCommonDefAPI.h</text>
</a>
</g>
</g>
<!-- Node2&#45;&gt;Node4 -->
<g id="edge4" class="edge">
<title>Node2&#45;&gt;Node4</title>
<path fill="none" stroke="#191970" d="M754.9072,-56.2455C766.5005,-47.814 783.4695,-35.4729 796.9626,-25.6598"/>
<polygon fill="#191970" stroke="#191970" points="799.2074,-28.355 805.2361,-19.6427 795.0901,-22.6938 799.2074,-28.355"/>
</g>
<!-- Node5&#45;&gt;Node2 -->
<g id="edge8" class="edge">
<title>Node5&#45;&gt;Node2</title>
<path fill="none" stroke="#191970" d="M862.2643,-235.4718C841.3458,-228.3797 815.8293,-216.7955 798.4948,-199 781.9587,-182.0241 758.8362,-117.8293 747.8175,-85.237"/>
<polygon fill="#191970" stroke="#191970" points="751.057,-83.8874 744.5718,-75.5093 744.4169,-86.103 751.057,-83.8874"/>
</g>
<!-- Node6 -->
<g id="node7" class="node">
<title>Node6</title>
<polygon fill="none" stroke="#bfbfbf" points="554.9948,-56.5 554.9948,-75.5 601.9948,-75.5 601.9948,-56.5 554.9948,-56.5"/>
<text text-anchor="middle" x="578.4948" y="-63.5" font-family="Helvetica,sans-Serif" font-size="10.00" fill="#000000">cmath</text>
</g>
<!-- Node5&#45;&gt;Node6 -->
<g id="edge6" class="edge">
<title>Node5&#45;&gt;Node6</title>
<path fill="none" stroke="#191970" d="M867.8423,-235.4881C842.8779,-227.2399 807.055,-214.2479 777.4948,-199 708.3825,-163.3502 633.9718,-108.7482 598.9419,-81.9536"/>
<polygon fill="#191970" stroke="#191970" points="600.9699,-79.0978 590.9116,-75.769 596.6987,-84.6437 600.9699,-79.0978"/>
</g>
<!-- Node7 -->
<g id="node8" class="node">
<title>Node7</title>
<polygon fill="none" stroke="#bfbfbf" points="1013.4948,-112.5 1013.4948,-131.5 1063.4948,-131.5 1063.4948,-112.5 1013.4948,-112.5"/>
<text text-anchor="middle" x="1038.4948" y="-119.5" font-family="Helvetica,sans-Serif" font-size="10.00" fill="#000000">cstring</text>
</g>
<!-- Node5&#45;&gt;Node7 -->
<g id="edge7" class="edge">
<title>Node5&#45;&gt;Node7</title>
<path fill="none" stroke="#191970" d="M916.0231,-235.4072C930.9666,-226.8284 952.64,-213.4144 969.4948,-199 990.6735,-180.8876 1011.5413,-156.4248 1024.6863,-139.9753"/>
<polygon fill="#191970" stroke="#191970" points="1027.7211,-141.7778 1031.1474,-131.7523 1022.217,-137.4529 1027.7211,-141.7778"/>
</g>
<!-- Node5&#45;&gt;Node8 -->
<g id="edge9" class="edge">
<title>Node5&#45;&gt;Node8</title>
<path fill="none" stroke="#191970" d="M932.401,-235.3906C970.0627,-224.7169 1030.965,-207.4566 1072.0833,-195.8033"/>
<polygon fill="#191970" stroke="#191970" points="1073.1599,-199.1361 1081.8266,-193.0419 1071.2512,-192.4013 1073.1599,-199.1361"/>
</g>
<!-- Node12 -->
<g id="node13" class="node">
<title>Node12</title>
<g id="a_node13"><a xlink:href="../../d2/d45/GPUCommonRtypes_8h.html" target="_top" xlink:title="GPUCommonRtypes.h">
<polygon fill="none" stroke="#000000" points="869.9948,-112.5 869.9948,-131.5 994.9948,-131.5 994.9948,-112.5 869.9948,-112.5"/>
<text text-anchor="middle" x="932.4948" y="-119.5" font-family="Helvetica,sans-Serif" font-size="10.00" fill="#000000">GPUCommonRtypes.h</text>
</a>
</g>
</g>
<!-- Node5&#45;&gt;Node12 -->
<g id="edge20" class="edge">
<title>Node5&#45;&gt;Node12</title>
<path fill="none" stroke="#191970" d="M917.3772,-235.3676C930.4648,-227.5389 946.8597,-215.1524 954.4948,-199 963.4497,-180.0554 954.2346,-156.7281 945.1406,-140.7453"/>
<polygon fill="#191970" stroke="#191970" points="947.8835,-138.5247 939.6575,-131.8476 941.9242,-142.1972 947.8835,-138.5247"/>
</g>
<!-- Node17 -->
<g id="node18" class="node">
<title>Node17</title>
<g id="a_node18"><a xlink:href="../../d6/da2/GPUCommonMath_8h.html" target="_top" xlink:title="GPUCommonMath.h">
<polygon fill="none" stroke="#000000" points="483.9948,-112.5 483.9948,-131.5 598.9948,-131.5 598.9948,-112.5 483.9948,-112.5"/>
<text text-anchor="middle" x="541.4948" y="-119.5" font-family="Helvetica,sans-Serif" font-size="10.00" fill="#000000">GPUCommonMath.h</text>
</a>
</g>
</g>
<!-- Node5&#45;&gt;Node17 -->
<g id="edge21" class="edge">
<title>Node5&#45;&gt;Node17</title>
<path fill="none" stroke="#191970" d="M817.8679,-238.7295C768.3528,-232.775 704.4841,-221.2429 651.4948,-199 641.9013,-194.973 592.1901,-159.1138 562.9822,-137.7798"/>
<polygon fill="#191970" stroke="#191970" points="564.7798,-134.7582 554.643,-131.6765 560.6456,-140.4069 564.7798,-134.7582"/>
</g>
<!-- Node19 -->
<g id="node20" class="node">
<title>Node19</title>
<g id="a_node20"><a xlink:href="../../db/dba/MatCell_8h.html" target="_top" xlink:title="Declarations for material properties of the cell (voxel) ">
<polygon fill="none" stroke="#000000" points="807.9948,-174 807.9948,-193 944.9948,-193 944.9948,-174 807.9948,-174"/>
<text text-anchor="middle" x="876.4948" y="-181" font-family="Helvetica,sans-Serif" font-size="10.00" fill="#000000">DetectorsBase/MatCell.h</text>
</a>
</g>
</g>
<!-- Node5&#45;&gt;Node19 -->
<g id="edge25" class="edge">
<title>Node5&#45;&gt;Node19</title>
<path fill="none" stroke="#191970" d="M895.0573,-235.3906C891.9435,-226.6862 887.2628,-213.6015 883.3808,-202.7494"/>
<polygon fill="#191970" stroke="#191970" points="886.6445,-201.4817 879.9808,-193.2449 880.0535,-203.8394 886.6445,-201.4817"/>
</g>
<!-- Node8&#45;&gt;Node2 -->
<g id="edge14" class="edge">
<title>Node8&#45;&gt;Node2</title>
<path fill="none" stroke="#191970" d="M1112.7332,-173.9708C1107.6228,-158.1987 1095.0968,-126.9285 1072.4948,-112 1029.7981,-83.799 888.792,-72.6216 805.2247,-68.397"/>
<polygon fill="#191970" stroke="#191970" points="805.2374,-64.8936 795.0792,-67.9039 804.8975,-71.8853 805.2374,-64.8936"/>
</g>
<!-- Node8&#45;&gt;Node7 -->
<g id="edge12" class="edge">
<title>Node8&#45;&gt;Node7</title>
<path fill="none" stroke="#191970" d="M1103.4635,-173.8906C1091.4841,-164.3227 1072.8782,-149.4621 1058.6423,-138.0919"/>
<polygon fill="#191970" stroke="#191970" points="1060.4395,-135.0479 1050.4416,-131.5419 1056.0709,-140.5175 1060.4395,-135.0479"/>
</g>
<!-- Node9 -->
<g id="node10" class="node">
<title>Node9</title>
<polygon fill="none" stroke="#bfbfbf" points="1119.9948,-112.5 1119.9948,-131.5 1172.9948,-131.5 1172.9948,-112.5 1119.9948,-112.5"/>
<text text-anchor="middle" x="1146.4948" y="-119.5" font-family="Helvetica,sans-Serif" font-size="10.00" fill="#000000">cstddef</text>
</g>
<!-- Node8&#45;&gt;Node9 -->
<g id="edge10" class="edge">
<title>Node8&#45;&gt;Node9</title>
<path fill="none" stroke="#191970" d="M1120.3385,-173.8906C1124.7714,-165.0965 1131.4579,-151.8312 1136.9606,-140.9145"/>
<polygon fill="#191970" stroke="#191970" points="1140.2069,-142.25 1141.5828,-131.7449 1133.9561,-139.0992 1140.2069,-142.25"/>
</g>
<!-- Node10 -->
<g id="node11" class="node">
<title>Node10</title>
<polygon fill="none" stroke="#bfbfbf" points="1191.4948,-112.5 1191.4948,-131.5 1249.4948,-131.5 1249.4948,-112.5 1191.4948,-112.5"/>
<text text-anchor="middle" x="1220.4948" y="-119.5" font-family="Helvetica,sans-Serif" font-size="10.00" fill="#000000">memory</text>
</g>
<!-- Node8&#45;&gt;Node10 -->
<g id="edge11" class="edge">
<title>Node8&#45;&gt;Node10</title>
<path fill="none" stroke="#191970" d="M1131.901,-173.8906C1148.9301,-163.9165 1175.7788,-148.1908 1195.4599,-136.6633"/>
<polygon fill="#191970" stroke="#191970" points="1197.3438,-139.6161 1204.2038,-131.5419 1193.806,-133.5759 1197.3438,-139.6161"/>
</g>
<!-- Node11 -->
<g id="node12" class="node">
<title>Node11</title>
<polygon fill="none" stroke="#bfbfbf" points="1267.4948,-112.5 1267.4948,-131.5 1319.4948,-131.5 1319.4948,-112.5 1267.4948,-112.5"/>
<text text-anchor="middle" x="1293.4948" y="-119.5" font-family="Helvetica,sans-Serif" font-size="10.00" fill="#000000">cassert</text>
</g>
<!-- Node8&#45;&gt;Node11 -->
<g id="edge13" class="edge">
<title>Node8&#45;&gt;Node11</title>
<path fill="none" stroke="#191970" d="M1143.3073,-173.8906C1174.1881,-163.2211 1224.1174,-145.9703 1257.8453,-134.3171"/>
<polygon fill="#191970" stroke="#191970" points="1259.0172,-137.6153 1267.3259,-131.0415 1256.7312,-130.9991 1259.0172,-137.6153"/>
</g>
<!-- Node8&#45;&gt;Node12 -->
<g id="edge15" class="edge">
<title>Node8&#45;&gt;Node12</title>
<path fill="none" stroke="#191970" d="M1086.901,-173.8906C1055.6103,-163.3749 1005.2962,-146.466 970.6548,-134.8243"/>
<polygon fill="#191970" stroke="#191970" points="971.4818,-131.4099 960.8878,-131.5419 969.2518,-138.0452 971.4818,-131.4099"/>
</g>
<!-- Node8&#45;&gt;Node14 -->
<g id="edge17" class="edge">
<title>Node8&#45;&gt;Node14</title>
<path fill="none" stroke="#191970" d="M1140.0293,-173.919C1147.1658,-171.5418 1155.047,-169.3031 1162.4948,-168 1319.1637,-140.5895 2444.3822,-126.1392 2741.6339,-122.7733"/>
<polygon fill="#191970" stroke="#191970" points="2741.8959,-126.2706 2751.8559,-122.6582 2741.8171,-119.2711 2741.8959,-126.2706"/>
</g>
<!-- Node13 -->
<g id="node14" class="node">
<title>Node13</title>
<polygon fill="none" stroke="#bfbfbf" points="2097.9948,-56.5 2097.9948,-75.5 2156.9948,-75.5 2156.9948,-56.5 2097.9948,-56.5"/>
<text text-anchor="middle" x="2127.4948" y="-63.5" font-family="Helvetica,sans-Serif" font-size="10.00" fill="#000000">Rtypes.h</text>
</g>
<!-- Node12&#45;&gt;Node13 -->
<g id="edge16" class="edge">
<title>Node12&#45;&gt;Node13</title>
<path fill="none" stroke="#191970" d="M995.2823,-112.914C998.3942,-112.5784 1001.4781,-112.2706 1004.4948,-112 1427.3104,-74.0684 1942.5228,-67.3859 2087.7297,-66.2343"/>
<polygon fill="#191970" stroke="#191970" points="2087.9553,-69.7328 2097.9287,-66.1578 2087.9027,-62.733 2087.9553,-69.7328"/>
</g>
<!-- Node15 -->
<g id="node16" class="node">
<title>Node15</title>
<polygon fill="none" stroke="#bfbfbf" points="2747.4948,-56.5 2747.4948,-75.5 2807.4948,-75.5 2807.4948,-56.5 2747.4948,-56.5"/>
<text text-anchor="middle" x="2777.4948" y="-63.5" font-family="Helvetica,sans-Serif" font-size="10.00" fill="#000000">iostream</text>
</g>
<!-- Node14&#45;&gt;Node15 -->
<g id="edge18" class="edge">
<title>Node14&#45;&gt;Node15</title>
<path fill="none" stroke="#191970" d="M2807.2241,-112.2455C2802.2684,-104.5367 2795.2118,-93.5598 2789.2172,-84.2348"/>
<polygon fill="#191970" stroke="#191970" points="2792.0454,-82.1618 2783.6937,-75.6427 2786.1571,-85.9471 2792.0454,-82.1618"/>
</g>
<!-- Node16 -->
<g id="node17" class="node">
<title>Node16</title>
<polygon fill="none" stroke="#bfbfbf" points="2825.4948,-56.5 2825.4948,-75.5 2871.4948,-75.5 2871.4948,-56.5 2825.4948,-56.5"/>
<text text-anchor="middle" x="2848.4948" y="-63.5" font-family="Helvetica,sans-Serif" font-size="10.00" fill="#000000">cstdio</text>
</g>
<!-- Node14&#45;&gt;Node16 -->
<g id="edge19" class="edge">
<title>Node14&#45;&gt;Node16</title>
<path fill="none" stroke="#191970" d="M2819.5913,-112.2455C2824.4093,-104.5367 2831.2699,-93.5598 2837.098,-84.2348"/>
<polygon fill="#191970" stroke="#191970" points="2840.1361,-85.9777 2842.4681,-75.6427 2834.2001,-82.2677 2840.1361,-85.9777"/>
</g>
<!-- Node17&#45;&gt;Node2 -->
<g id="edge22" class="edge">
<title>Node17&#45;&gt;Node2</title>
<path fill="none" stroke="#191970" d="M575.876,-112.3733C609.5649,-102.9404 661.043,-88.5265 697.6566,-78.2747"/>
<polygon fill="#191970" stroke="#191970" points="698.8763,-81.5679 707.5622,-75.5011 696.9888,-74.8271 698.8763,-81.5679"/>
</g>
<!-- Node17&#45;&gt;Node6 -->
<g id="edge23" class="edge">
<title>Node17&#45;&gt;Node6</title>
<path fill="none" stroke="#191970" d="M547.9397,-112.2455C553.033,-104.5367 560.2856,-93.5598 566.4468,-84.2348"/>
<polygon fill="#191970" stroke="#191970" points="569.5313,-85.9155 572.1237,-75.6427 563.6909,-82.0566 569.5313,-85.9155"/>
</g>
<!-- Node18 -->
<g id="node19" class="node">
<title>Node18</title>
<polygon fill="none" stroke="#bfbfbf" points="472.4948,-56.5 472.4948,-75.5 536.4948,-75.5 536.4948,-56.5 472.4948,-56.5"/>
<text text-anchor="middle" x="504.4948" y="-63.5" font-family="Helvetica,sans-Serif" font-size="10.00" fill="#000000">algorithm</text>
</g>
<!-- Node17&#45;&gt;Node18 -->
<g id="edge24" class="edge">
<title>Node17&#45;&gt;Node18</title>
<path fill="none" stroke="#191970" d="M535.0499,-112.2455C529.9566,-104.5367 522.704,-93.5598 516.5428,-84.2348"/>
<polygon fill="#191970" stroke="#191970" points="519.2986,-82.0566 510.8658,-75.6427 513.4583,-85.9155 519.2986,-82.0566"/>
</g>
<!-- Node19&#45;&gt;Node2 -->
<g id="edge26" class="edge">
<title>Node19&#45;&gt;Node2</title>
<path fill="none" stroke="#191970" d="M865.4472,-173.8845C842.4066,-153.8306 788.997,-107.3445 760.3889,-82.4449"/>
<polygon fill="#191970" stroke="#191970" points="762.536,-79.6736 752.6951,-75.7484 757.9403,-84.9537 762.536,-79.6736"/>
</g>
<!-- Node19&#45;&gt;Node12 -->
<g id="edge27" class="edge">
<title>Node19&#45;&gt;Node12</title>
<path fill="none" stroke="#191970" d="M885.2448,-173.8906C893.661,-164.6478 906.5745,-150.466 916.7758,-139.2628"/>
<polygon fill="#191970" stroke="#191970" points="919.4766,-141.4953 923.6214,-131.7449 914.3008,-136.7824 919.4766,-141.4953"/>
</g>
<!-- Node20&#45;&gt;Node2 -->
<g id="edge30" class="edge">
<title>Node20&#45;&gt;Node2</title>
<path fill="none" stroke="#191970" d="M869.8506,-291.4219C850.692,-283.8891 825.8988,-271.8375 808.4948,-255 760.1974,-208.2746 746.6418,-124.5562 742.8953,-86.1984"/>
<polygon fill="#191970" stroke="#191970" points="746.3498,-85.5114 742.0199,-75.8417 739.3746,-86.101 746.3498,-85.5114"/>
</g>
<!-- Node20&#45;&gt;Node5 -->
<g id="edge32" class="edge">
<title>Node20&#45;&gt;Node5</title>
<path fill="none" stroke="#191970" d="M898.4948,-291.2455C898.4948,-283.9382 898.4948,-273.6944 898.4948,-264.7046"/>
<polygon fill="#191970" stroke="#191970" points="901.9949,-264.6426 898.4948,-254.6427 894.9949,-264.6427 901.9949,-264.6426"/>
</g>
<!-- Node20&#45;&gt;Node12 -->
<g id="edge29" class="edge">
<title>Node20&#45;&gt;Node12</title>
<path fill="none" stroke="#191970" d="M937.4718,-291.3933C956.3567,-284.5635 977.3206,-273.2604 988.4948,-255 1012.3154,-216.0733 973.8842,-165.2051 949.7311,-139.0979"/>
<polygon fill="#191970" stroke="#191970" points="952.2206,-136.637 942.7784,-131.8312 947.1627,-141.4763 952.2206,-136.637"/>
</g>
<!-- Node20&#45;&gt;Node17 -->
<g id="edge31" class="edge">
<title>Node20&#45;&gt;Node17</title>
<path fill="none" stroke="#191970" d="M839.9752,-292.2397C776.3185,-280.2743 674.2109,-253.7184 603.4948,-199 582.1923,-182.5166 563.7077,-157.3054 552.5919,-140.262"/>
<polygon fill="#191970" stroke="#191970" points="555.5064,-138.3222 547.2034,-131.741 549.5901,-142.0635 555.5064,-138.3222"/>
</g>
<!-- Node21 -->
<g id="node22" class="node">
<title>Node21</title>
<g id="a_node22"><a xlink:href="../../d9/d52/Common_2MathUtils_2include_2MathUtils_2Utils_8h.html" target="_top" xlink:title="MathUtils/Utils.h">
<polygon fill="none" stroke="#000000" points="327.4948,-235.5 327.4948,-254.5 425.4948,-254.5 425.4948,-235.5 327.4948,-235.5"/>
<text text-anchor="middle" x="376.4948" y="-242.5" font-family="Helvetica,sans-Serif" font-size="10.00" fill="#000000">MathUtils/Utils.h</text>
</a>
</g>
</g>
<!-- Node20&#45;&gt;Node21 -->
<g id="edge33" class="edge">
<title>Node20&#45;&gt;Node21</title>
<path fill="none" stroke="#191970" d="M839.882,-294.712C739.5875,-283.9525 536.1602,-262.1289 435.5579,-251.3363"/>
<polygon fill="#191970" stroke="#191970" points="435.8813,-247.851 425.565,-250.2642 435.1346,-254.811 435.8813,-247.851"/>
</g>
<!-- Node20&#45;&gt;Node29 -->
<g id="edge45" class="edge">
<title>Node20&#45;&gt;Node29</title>
<path fill="none" stroke="#191970" d="M957.3123,-297.7676C1133.2508,-288.0988 1655.0678,-259.4219 1846.2581,-248.9149"/>
<polygon fill="#191970" stroke="#191970" points="1846.6782,-252.3972 1856.4711,-248.3536 1846.2941,-245.4077 1846.6782,-252.3972"/>
</g>
<!-- Node22 -->
<g id="node23" class="node">
<title>Node22</title>
<g id="a_node23"><a xlink:href="../../de/def/bitOps_8h.html" target="_top" xlink:title="MathUtils/detail/bitOps.h">
<polygon fill="none" stroke="#000000" points="29.9948,-174 29.9948,-193 166.9948,-193 166.9948,-174 29.9948,-174"/>
<text text-anchor="middle" x="98.4948" y="-181" font-family="Helvetica,sans-Serif" font-size="10.00" fill="#000000">MathUtils/detail/bitOps.h</text>
</a>
</g>
</g>
<!-- Node21&#45;&gt;Node22 -->
<g id="edge34" class="edge">
<title>Node21&#45;&gt;Node22</title>
<path fill="none" stroke="#191970" d="M333.3623,-235.4581C284.362,-224.6181 204.3715,-206.9224 151.5809,-195.2439"/>
<polygon fill="#191970" stroke="#191970" points="152.2484,-191.807 141.7285,-193.0643 150.7364,-198.6417 152.2484,-191.807"/>
</g>
<!-- Node24 -->
<g id="node25" class="node">
<title>Node24</title>
<g id="a_node25"><a xlink:href="../../d3/dfc/StatAccumulator_8h.html" target="_top" xlink:title="MathUtils/detail/StatAccumulator.h">
<polygon fill="none" stroke="#000000" points="185.4948,-174 185.4948,-193 371.4948,-193 371.4948,-174 185.4948,-174"/>
<text text-anchor="middle" x="278.4948" y="-181" font-family="Helvetica,sans-Serif" font-size="10.00" fill="#000000">MathUtils/detail/StatAccumulator.h</text>
</a>
</g>
</g>
<!-- Node21&#45;&gt;Node24 -->
<g id="edge36" class="edge">
<title>Node21&#45;&gt;Node24</title>
<path fill="none" stroke="#191970" d="M361.1823,-235.3906C345.4324,-225.5067 320.6825,-209.9749 302.3611,-198.4773"/>
<polygon fill="#191970" stroke="#191970" points="304.0305,-195.3929 293.6998,-193.0419 300.3096,-201.3221 304.0305,-195.3929"/>
</g>
<!-- Node26 -->
<g id="node27" class="node">
<title>Node26</title>
<g id="a_node27"><a xlink:href="../../dd/d7d/trigonometric_8h.html" target="_top" xlink:title="MathUtils/detail/trigonometric.h">
<polygon fill="none" stroke="#000000" points="389.4948,-174 389.4948,-193 561.4948,-193 561.4948,-174 389.4948,-174"/>
<text text-anchor="middle" x="475.4948" y="-181" font-family="Helvetica,sans-Serif" font-size="10.00" fill="#000000">MathUtils/detail/trigonometric.h</text>
</a>
</g>
</g>
<!-- Node21&#45;&gt;Node26 -->
<g id="edge38" class="edge">
<title>Node21&#45;&gt;Node26</title>
<path fill="none" stroke="#191970" d="M391.9635,-235.3906C407.9468,-225.4616 433.1051,-209.833 451.6381,-198.3201"/>
<polygon fill="#191970" stroke="#191970" points="453.4871,-201.2918 460.1347,-193.0419 449.7933,-195.3457 453.4871,-201.2918"/>
</g>
<!-- Node23 -->
<g id="node24" class="node">
<title>Node23</title>
<polygon fill="none" stroke="#bfbfbf" points="45.4948,-112.5 45.4948,-131.5 95.4948,-131.5 95.4948,-112.5 45.4948,-112.5"/>
<text text-anchor="middle" x="70.4948" y="-119.5" font-family="Helvetica,sans-Serif" font-size="10.00" fill="#000000">cstdint</text>
</g>
<!-- Node22&#45;&gt;Node23 -->
<g id="edge35" class="edge">
<title>Node22&#45;&gt;Node23</title>
<path fill="none" stroke="#191970" d="M94.1198,-173.8906C90.116,-165.0965 84.0765,-151.8312 79.1063,-140.9145"/>
<polygon fill="#191970" stroke="#191970" points="82.2605,-139.3957 74.9315,-131.7449 75.8897,-142.2963 82.2605,-139.3957"/>
</g>
<!-- Node25 -->
<g id="node26" class="node">
<title>Node25</title>
<polygon fill="none" stroke="#bfbfbf" points="325.9948,-112.5 325.9948,-131.5 366.9948,-131.5 366.9948,-112.5 325.9948,-112.5"/>
<text text-anchor="middle" x="346.4948" y="-119.5" font-family="Helvetica,sans-Serif" font-size="10.00" fill="#000000">tuple</text>
</g>
<!-- Node24&#45;&gt;Node25 -->
<g id="edge37" class="edge">
<title>Node24&#45;&gt;Node25</title>
<path fill="none" stroke="#191970" d="M289.1198,-173.8906C299.5379,-164.4683 315.6312,-149.9134 328.1252,-138.6137"/>
<polygon fill="#191970" stroke="#191970" points="330.651,-141.0484 335.72,-131.7449 325.9556,-135.8568 330.651,-141.0484"/>
</g>
<!-- Node26&#45;&gt;Node2 -->
<g id="edge42" class="edge">
<title>Node26&#45;&gt;Node2</title>
<path fill="none" stroke="#191970" d="M502.0643,-173.8971C528.917,-164.0141 571.4744,-147.8626 607.4948,-132 644.908,-115.524 687.0557,-94.3128 713.9204,-80.4457"/>
<polygon fill="#191970" stroke="#191970" points="715.8229,-83.4017 723.0893,-75.6913 712.6007,-77.1875 715.8229,-83.4017"/>
</g>
<!-- Node26&#45;&gt;Node6 -->
<g id="edge40" class="edge">
<title>Node26&#45;&gt;Node6</title>
<path fill="none" stroke="#191970" d="M456.651,-173.8375C432.8495,-160.3561 396.9865,-134.9688 414.4948,-112 449.2402,-66.4181 483.7898,-90.0322 544.715,-75.8937"/>
<polygon fill="#191970" stroke="#191970" points="545.9303,-79.1939 554.7237,-73.2841 544.1641,-72.4204 545.9303,-79.1939"/>
</g>
<!-- Node26&#45;&gt;Node17 -->
<g id="edge43" class="edge">
<title>Node26&#45;&gt;Node17</title>
<path fill="none" stroke="#191970" d="M485.8073,-173.8906C495.919,-164.4683 511.539,-149.9134 523.6655,-138.6137"/>
<polygon fill="#191970" stroke="#191970" points="526.1068,-141.1228 531.0369,-131.7449 521.3347,-136.0015 526.1068,-141.1228"/>
</g>
<!-- Node26&#45;&gt;Node25 -->
<g id="edge41" class="edge">
<title>Node26&#45;&gt;Node25</title>
<path fill="none" stroke="#191970" d="M455.3385,-173.8906C433.9438,-163.6908 399.9328,-147.4763 375.6246,-135.8875"/>
<polygon fill="#191970" stroke="#191970" points="377.0424,-132.686 366.5095,-131.5419 374.03,-139.0047 377.0424,-132.686"/>
</g>
<!-- Node27 -->
<g id="node28" class="node">
<title>Node27</title>
<polygon fill="none" stroke="#bfbfbf" points="423.4948,-112.5 423.4948,-131.5 465.4948,-131.5 465.4948,-112.5 423.4948,-112.5"/>
<text text-anchor="middle" x="444.4948" y="-119.5" font-family="Helvetica,sans-Serif" font-size="10.00" fill="#000000">array</text>
</g>
<!-- Node26&#45;&gt;Node27 -->
<g id="edge39" class="edge">
<title>Node26&#45;&gt;Node27</title>
<path fill="none" stroke="#191970" d="M470.651,-173.8906C466.2182,-165.0965 459.5317,-151.8312 454.0289,-140.9145"/>
<polygon fill="#191970" stroke="#191970" points="457.0334,-139.0992 449.4068,-131.7449 450.7826,-142.25 457.0334,-139.0992"/>
</g>
<!-- Node26&#45;&gt;Node28 -->
<g id="edge44" class="edge">
<title>Node26&#45;&gt;Node28</title>
<path fill="none" stroke="#191970" d="M434.3793,-173.9581C387.8646,-163.1632 312.054,-145.5694 261.7275,-133.8899"/>
<polygon fill="#191970" stroke="#191970" points="262.2391,-130.4156 251.7067,-131.5643 260.6566,-137.2344 262.2391,-130.4156"/>
</g>
<!-- Node29&#45;&gt;Node13 -->
<g id="edge53" class="edge">
<title>Node29&#45;&gt;Node13</title>
<path fill="none" stroke="#191970" d="M1978.7858,-237.7458C2027.8275,-230.6296 2091.1656,-218.0482 2108.4948,-199 2136.9012,-167.7758 2134.6399,-114.2303 2130.8748,-85.5278"/>
<polygon fill="#191970" stroke="#191970" points="2134.3178,-84.8867 2129.3642,-75.5212 2127.3962,-85.9317 2134.3178,-84.8867"/>
</g>
<!-- Node30 -->
<g id="node31" class="node">
<title>Node30</title>
<polygon fill="none" stroke="#bfbfbf" points="1171.4948,-168.5 1171.4948,-198.5 1335.4948,-198.5 1335.4948,-168.5 1171.4948,-168.5"/>
<text text-anchor="start" x="1179.4948" y="-186.5" font-family="Helvetica,sans-Serif" font-size="10.00" fill="#000000">Math/GenVector/Displacement</text>
<text text-anchor="middle" x="1253.4948" y="-175.5" font-family="Helvetica,sans-Serif" font-size="10.00" fill="#000000">Vector3D.h</text>
</g>
<!-- Node29&#45;&gt;Node30 -->
<g id="edge46" class="edge">
<title>Node29&#45;&gt;Node30</title>
<path fill="none" stroke="#191970" d="M1856.3667,-241.8278C1753.3352,-236.0983 1538.378,-222.5009 1345.7295,-198.9504"/>
<polygon fill="#191970" stroke="#191970" points="1346.0551,-195.4641 1335.7017,-197.7129 1345.1978,-202.4114 1346.0551,-195.4641"/>
</g>
<!-- Node31 -->
<g id="node32" class="node">
<title>Node31</title>
<polygon fill="none" stroke="#bfbfbf" points="1353.9948,-174 1353.9948,-193 1542.9948,-193 1542.9948,-174 1353.9948,-174"/>
<text text-anchor="middle" x="1448.4948" y="-181" font-family="Helvetica,sans-Serif" font-size="10.00" fill="#000000">Math/GenVector/PositionVector3D.h</text>
</g>
<!-- Node29&#45;&gt;Node31 -->
<g id="edge47" class="edge">
<title>Node29&#45;&gt;Node31</title>
<path fill="none" stroke="#191970" d="M1856.4097,-237.729C1783.8757,-228.9964 1659.2694,-213.6831 1552.4948,-199 1542.2847,-197.596 1531.5198,-196.0573 1520.9414,-194.5118"/>
<polygon fill="#191970" stroke="#191970" points="1521.2836,-191.0245 1510.8807,-193.032 1520.2649,-197.95 1521.2836,-191.0245"/>
</g>
<!-- Node32 -->
<g id="node33" class="node">
<title>Node32</title>
<polygon fill="none" stroke="#bfbfbf" points="1561.4948,-174 1561.4948,-193 1721.4948,-193 1721.4948,-174 1561.4948,-174"/>
<text text-anchor="middle" x="1641.4948" y="-181" font-family="Helvetica,sans-Serif" font-size="10.00" fill="#000000">Math/GenVector/Rotation3D.h</text>
</g>
<!-- Node29&#45;&gt;Node32 -->
<g id="edge48" class="edge">
<title>Node29&#45;&gt;Node32</title>
<path fill="none" stroke="#191970" d="M1874.6726,-235.4581C1826.0248,-224.6181 1746.6098,-206.9224 1694.199,-195.2439"/>
<polygon fill="#191970" stroke="#191970" points="1694.9393,-191.8231 1684.4174,-193.0643 1693.4168,-198.6555 1694.9393,-191.8231"/>
</g>
<!-- Node33 -->
<g id="node34" class="node">
<title>Node33</title>
<polygon fill="none" stroke="#bfbfbf" points="1739.4948,-174 1739.4948,-193 1907.4948,-193 1907.4948,-174 1739.4948,-174"/>
<text text-anchor="middle" x="1823.4948" y="-181" font-family="Helvetica,sans-Serif" font-size="10.00" fill="#000000">Math/GenVector/Transform3D.h</text>
</g>
<!-- Node29&#45;&gt;Node33 -->
<g id="edge49" class="edge">
<title>Node29&#45;&gt;Node33</title>
<path fill="none" stroke="#191970" d="M1902.8073,-235.3906C1887.7692,-225.5519 1864.1772,-210.1167 1846.6281,-198.6351"/>
<polygon fill="#191970" stroke="#191970" points="1848.3635,-195.588 1838.0792,-193.0419 1844.5311,-201.4457 1848.3635,-195.588"/>
</g>
<!-- Node34 -->
<g id="node35" class="node">
<title>Node34</title>
<polygon fill="none" stroke="#bfbfbf" points="1925.9948,-174 1925.9948,-193 2098.9948,-193 2098.9948,-174 1925.9948,-174"/>
<text text-anchor="middle" x="2012.4948" y="-181" font-family="Helvetica,sans-Serif" font-size="10.00" fill="#000000">Math/GenVector/Translation3D.h</text>
</g>
<!-- Node29&#45;&gt;Node34 -->
<g id="edge50" class="edge">
<title>Node29&#45;&gt;Node34</title>
<path fill="none" stroke="#191970" d="M1932.3385,-235.3906C1947.5366,-225.5519 1971.3796,-210.1167 1989.1154,-198.6351"/>
<polygon fill="#191970" stroke="#191970" points="1991.2628,-201.4144 1997.7553,-193.0419 1987.4587,-195.5382 1991.2628,-201.4144"/>
</g>
<!-- Node35 -->
<g id="node36" class="node">
<title>Node35</title>
<polygon fill="none" stroke="#bfbfbf" points="2155.4948,-168.5 2155.4948,-198.5 2319.4948,-198.5 2319.4948,-168.5 2155.4948,-168.5"/>
<text text-anchor="start" x="2163.4948" y="-186.5" font-family="Helvetica,sans-Serif" font-size="10.00" fill="#000000">Math/GenVector/Displacement</text>
<text text-anchor="middle" x="2237.4948" y="-175.5" font-family="Helvetica,sans-Serif" font-size="10.00" fill="#000000">Vector2D.h</text>
</g>
<!-- Node29&#45;&gt;Node35 -->
<g id="edge51" class="edge">
<title>Node29&#45;&gt;Node35</title>
<path fill="none" stroke="#191970" d="M1967.1437,-235.4581C2015.6842,-226.1292 2090.6444,-211.7228 2149.3318,-200.4438"/>
<polygon fill="#191970" stroke="#191970" points="2150.1858,-203.8438 2159.3455,-198.5193 2148.8646,-196.9696 2150.1858,-203.8438"/>
</g>
<!-- Node36 -->
<g id="node37" class="node">
<title>Node36</title>
<polygon fill="none" stroke="#bfbfbf" points="2337.9948,-174 2337.9948,-193 2526.9948,-193 2526.9948,-174 2337.9948,-174"/>
<text text-anchor="middle" x="2432.4948" y="-181" font-family="Helvetica,sans-Serif" font-size="10.00" fill="#000000">Math/GenVector/PositionVector2D.h</text>
</g>
<!-- Node29&#45;&gt;Node36 -->
<g id="edge52" class="edge">
<title>Node29&#45;&gt;Node36</title>
<path fill="none" stroke="#191970" d="M1978.5093,-238.8738C2058.8434,-230.6469 2204.4347,-215.1819 2328.4948,-199 2339.097,-197.6171 2350.2917,-196.0556 2361.2528,-194.4697"/>
<polygon fill="#191970" stroke="#191970" points="2361.8415,-197.9209 2371.2298,-193.0108 2360.8286,-190.9946 2361.8415,-197.9209"/>
</g>
<!-- Node37 -->
<g id="node38" class="node">
<title>Node37</title>
<polygon fill="none" stroke="#bfbfbf" points="2545.4948,-174 2545.4948,-193 2627.4948,-193 2627.4948,-174 2545.4948,-174"/>
<text text-anchor="middle" x="2586.4948" y="-181" font-family="Helvetica,sans-Serif" font-size="10.00" fill="#000000">TGeoMatrix.h</text>
</g>
<!-- Node29&#45;&gt;Node37 -->
<g id="edge54" class="edge">
<title>Node29&#45;&gt;Node37</title>
<path fill="none" stroke="#191970" d="M1978.7015,-242.2175C2113.1621,-235.8173 2430.7521,-219.0505 2536.4948,-199 2540.9342,-198.1582 2545.5351,-197.0588 2550.0674,-195.8335"/>
<polygon fill="#191970" stroke="#191970" points="2551.1683,-199.1584 2559.7904,-193.0013 2549.2106,-192.4377 2551.1683,-199.1584"/>
</g>
<!-- Node38 -->
<g id="node39" class="node">
<title>Node38</title>
<polygon fill="none" stroke="#bfbfbf" points="2645.9948,-174 2645.9948,-193 2694.9948,-193 2694.9948,-174 2645.9948,-174"/>
<text text-anchor="middle" x="2670.4948" y="-181" font-family="Helvetica,sans-Serif" font-size="10.00" fill="#000000">iosfwd</text>
</g>
<!-- Node29&#45;&gt;Node38 -->
<g id="edge55" class="edge">
<title>Node29&#45;&gt;Node38</title>
<path fill="none" stroke="#191970" d="M1978.6527,-242.3597C2140.7969,-235.1796 2573.5971,-214.7802 2636.4948,-199 2638.6931,-198.4485 2640.9247,-197.7588 2643.1395,-196.9789"/>
<polygon fill="#191970" stroke="#191970" points="2644.6454,-200.1448 2652.5867,-193.1315 2642.0052,-193.6618 2644.6454,-200.1448"/>
</g>
<!-- Node40&#45;&gt;Node13 -->
<g id="edge62" class="edge">
<title>Node40&#45;&gt;Node13</title>
<path fill="none" stroke="#191970" d="M2380.7449,-352.955C2486.0281,-331.8701 2723.4948,-280.3903 2723.4948,-245 2723.4948,-245 2723.4948,-245 2723.4948,-183.5 2723.4948,-126.6392 2300.53,-82.1933 2167.2289,-69.5977"/>
<polygon fill="#191970" stroke="#191970" points="2167.3333,-66.0923 2157.0505,-68.6449 2166.6807,-73.0618 2167.3333,-66.0923"/>
</g>
<!-- Node41 -->
<g id="node42" class="node">
<title>Node41</title>
<polygon fill="none" stroke="#bfbfbf" points="2359.9948,-291.5 2359.9948,-310.5 2434.9948,-310.5 2434.9948,-291.5 2359.9948,-291.5"/>
<text text-anchor="middle" x="2397.4948" y="-298.5" font-family="Helvetica,sans-Serif" font-size="10.00" fill="#000000">TDirectory.h</text>
</g>
<!-- Node40&#45;&gt;Node41 -->
<g id="edge63" class="edge">
<title>Node40&#45;&gt;Node41</title>
<path fill="none" stroke="#191970" d="M2341.8073,-352.8906C2351.919,-343.4683 2367.539,-328.9134 2379.6655,-317.6137"/>
<polygon fill="#191970" stroke="#191970" points="2382.1068,-320.1228 2387.0369,-310.7449 2377.3347,-315.0015 2382.1068,-320.1228"/>
</g>
<!-- Node42 -->
<g id="node43" class="node">
<title>Node42</title>
<g id="a_node43"><a xlink:href="../../d2/dec/TreeStream_8h.html" target="_top" xlink:title="CommonUtils/TreeStream.h">
<polygon fill="none" stroke="#000000" points="2190.9948,-291.5 2190.9948,-310.5 2341.9948,-310.5 2341.9948,-291.5 2190.9948,-291.5"/>
<text text-anchor="middle" x="2266.4948" y="-298.5" font-family="Helvetica,sans-Serif" font-size="10.00" fill="#000000">CommonUtils/TreeStream.h</text>
</a>
</g>
</g>
<!-- Node40&#45;&gt;Node42 -->
<g id="edge64" class="edge">
<title>Node40&#45;&gt;Node42</title>
<path fill="none" stroke="#191970" d="M2321.3385,-352.8906C2311.4749,-343.5581 2296.2893,-329.1902 2284.3961,-317.9374"/>
<polygon fill="#191970" stroke="#191970" points="2286.4637,-315.0753 2276.7942,-310.7449 2281.6527,-320.1601 2286.4637,-315.0753"/>
</g>
<!-- Node43 -->
<g id="node44" class="node">
<title>Node43</title>
<polygon fill="none" stroke="#bfbfbf" points="2162.4948,-235.5 2162.4948,-254.5 2222.4948,-254.5 2222.4948,-235.5 2162.4948,-235.5"/>
<text text-anchor="middle" x="2192.4948" y="-242.5" font-family="Helvetica,sans-Serif" font-size="10.00" fill="#000000">TString.h</text>
</g>
<!-- Node42&#45;&gt;Node43 -->
<g id="edge65" class="edge">
<title>Node42&#45;&gt;Node43</title>
<path fill="none" stroke="#191970" d="M2253.605,-291.2455C2242.5694,-282.8943 2226.4656,-270.7076 2213.5594,-260.9408"/>
<polygon fill="#191970" stroke="#191970" points="2215.323,-257.8862 2205.2369,-254.6427 2211.0989,-263.4681 2215.323,-257.8862"/>
</g>
<!-- Node44 -->
<g id="node45" class="node">
<title>Node44</title>
<polygon fill="none" stroke="#bfbfbf" points="2240.4948,-235.5 2240.4948,-254.5 2292.4948,-254.5 2292.4948,-235.5 2240.4948,-235.5"/>
<text text-anchor="middle" x="2266.4948" y="-242.5" font-family="Helvetica,sans-Serif" font-size="10.00" fill="#000000">TTree.h</text>
</g>
<!-- Node42&#45;&gt;Node44 -->
<g id="edge66" class="edge">
<title>Node42&#45;&gt;Node44</title>
<path fill="none" stroke="#191970" d="M2266.4948,-291.2455C2266.4948,-283.9382 2266.4948,-273.6944 2266.4948,-264.7046"/>
<polygon fill="#191970" stroke="#191970" points="2269.9949,-264.6426 2266.4948,-254.6427 2262.9949,-264.6427 2269.9949,-264.6426"/>
</g>
<!-- Node45 -->
<g id="node46" class="node">
<title>Node45</title>
<polygon fill="none" stroke="#bfbfbf" points="2310.9948,-235.5 2310.9948,-254.5 2357.9948,-254.5 2357.9948,-235.5 2310.9948,-235.5"/>
<text text-anchor="middle" x="2334.4948" y="-242.5" font-family="Helvetica,sans-Serif" font-size="10.00" fill="#000000">vector</text>
</g>
<!-- Node42&#45;&gt;Node45 -->
<g id="edge67" class="edge">
<title>Node42&#45;&gt;Node45</title>
<path fill="none" stroke="#191970" d="M2278.3395,-291.2455C2288.3828,-282.9746 2302.9942,-270.9416 2314.7952,-261.2232"/>
<polygon fill="#191970" stroke="#191970" points="2317.2915,-263.7015 2322.7858,-254.6427 2312.8415,-258.298 2317.2915,-263.7015"/>
</g>
</g>
</svg>
